<svg width="169" height="170" viewBox="0 0 169 170" fill="none" xmlns="http://www.w3.org/2000/svg">
<g filter="url(#filter0_d_1656_15604)">
<path d="M153.75 80.6641C153.75 81.7999 153.722 82.9341 153.666 84.0683C153.611 85.2025 153.528 86.335 153.416 87.4641C153.305 88.5933 153.166 89.7207 152.999 90.8432C152.833 91.9673 152.639 93.0848 152.417 94.1989C152.196 95.3113 151.947 96.4204 151.671 97.5211C151.395 98.6218 151.092 99.7158 150.762 100.803C150.433 101.889 150.077 102.966 149.695 104.035C149.312 105.106 148.904 106.165 148.469 107.213C148.034 108.262 147.574 109.299 147.089 110.326C146.604 111.352 146.094 112.366 145.558 113.368C145.023 114.368 144.464 115.357 143.88 116.33C143.297 117.304 142.689 118.262 142.059 119.207C141.428 120.151 140.774 121.079 140.098 121.991C139.421 122.903 138.723 123.798 138.002 124.676C137.283 125.552 136.542 126.412 135.779 127.254C135.016 128.095 134.233 128.916 133.43 129.719C132.627 130.522 131.806 131.305 130.965 132.068C130.123 132.831 129.263 133.572 128.387 134.291C127.509 135.012 126.614 135.71 125.702 136.387C124.79 137.063 123.862 137.717 122.918 138.348C121.973 138.978 121.015 139.586 120.041 140.17C119.068 140.753 118.079 141.312 117.079 141.847C116.077 142.383 115.063 142.893 114.037 143.378C113.01 143.863 111.973 144.323 110.924 144.758C109.875 145.193 108.817 145.601 107.746 145.984C106.677 146.366 105.6 146.722 104.514 147.051C103.427 147.381 102.333 147.684 101.232 147.96C100.13 148.236 99.0222 148.485 97.9098 148.706C96.7957 148.928 95.6783 149.122 94.5541 149.288C93.4317 149.455 92.3042 149.594 91.175 149.705C90.0459 149.817 88.9134 149.9 87.7792 149.956C86.6451 150.011 85.5109 150.039 84.375 150.039C83.2392 150.039 82.105 150.011 80.9709 149.956C79.8367 149.9 78.7042 149.817 77.575 149.705C76.4459 149.594 75.3184 149.455 74.196 149.288C73.0718 149.122 71.9544 148.928 70.8403 148.706C69.7279 148.485 68.6205 148.236 67.5181 147.96C66.4174 147.684 65.3233 147.381 64.236 147.051C63.1503 146.722 62.0731 146.366 61.0024 145.984C59.9335 145.601 58.8746 145.193 57.8258 144.758C56.7769 144.323 55.7398 143.863 54.7127 143.378C53.6872 142.893 52.6735 142.383 51.6715 141.847C50.6711 141.312 49.6825 140.753 48.7089 140.17C47.7353 139.586 46.7768 138.978 45.8317 138.348C44.8882 137.717 43.9598 137.063 43.0481 136.387C42.1364 135.71 41.2415 135.012 40.3632 134.291C39.4867 133.572 38.6269 132.831 37.7854 132.068C36.944 131.305 36.1227 130.522 35.3197 129.719C34.5167 128.916 33.7339 128.095 32.9711 127.254C32.2083 126.412 31.4672 125.552 30.7479 124.676C30.0269 123.798 29.3293 122.903 28.6519 121.991C27.976 121.079 27.322 120.151 26.6913 119.207C26.0607 118.262 25.4534 117.304 24.8696 116.33C24.2858 115.357 23.7271 114.368 23.1918 113.368C22.6565 112.366 22.1463 111.352 21.6612 110.326C21.176 109.299 20.716 108.262 20.2811 107.213C19.8461 106.165 19.438 105.106 19.0549 104.035C18.6735 102.966 18.3172 101.889 17.9876 100.803C17.6581 99.7158 17.3553 98.6218 17.0793 97.5211C16.8033 96.4187 16.554 95.3113 16.3332 94.1989C16.1108 93.0848 15.9167 91.9673 15.7511 90.8432C15.5838 89.7207 15.445 88.5933 15.3346 87.4641C15.2225 86.335 15.1388 85.2025 15.0836 84.0683C15.0284 82.9341 15 81.7999 15 80.6641C15 79.5283 15.0284 78.3941 15.0836 77.2599C15.1388 76.1257 15.2225 74.9933 15.3346 73.8641C15.445 72.735 15.5838 71.6075 15.7511 70.485C15.9167 69.3609 16.1108 68.2434 16.3332 67.1293C16.554 66.0169 16.8033 64.9095 17.0793 63.8071C17.3553 62.7064 17.6581 61.6124 17.9876 60.5251C18.3172 59.4394 18.6735 58.3621 19.0549 57.2932C19.438 56.2226 19.8461 55.1637 20.2811 54.1148C20.716 53.066 21.176 52.0288 21.6612 51.0017C22.1463 49.9763 22.6565 48.9626 23.1918 47.9605C23.7271 46.9602 24.2858 45.9716 24.8696 44.998C25.4534 44.0244 26.0607 43.0659 26.6913 42.1207C27.322 41.1773 27.976 40.2489 28.6519 39.3372C29.3293 38.4255 30.0269 37.5305 30.7479 36.6523C31.4672 35.7757 32.2083 34.9159 32.9711 34.0745C33.7339 33.2331 34.5167 32.4117 35.3197 31.6088C36.1227 30.8058 36.944 30.0229 37.7854 29.2601C38.6269 28.4973 39.4867 27.7563 40.3632 27.037C41.2415 26.316 42.1364 25.6184 43.0481 24.9409C43.9598 24.2651 44.8882 23.611 45.8317 22.9804C46.7768 22.3497 47.7353 21.7425 48.7089 21.1587C49.6825 20.5749 50.6711 20.0161 51.6715 19.4808C52.6735 18.9455 53.6872 18.4353 54.7127 17.9502C55.7398 17.4651 56.7769 17.0051 57.8258 16.5701C58.8746 16.1352 59.9335 15.727 61.0024 15.344C62.0731 14.9626 63.1503 14.6063 64.236 14.2767C65.3233 13.9472 66.4174 13.6444 67.5181 13.3684C68.6205 13.0924 69.7279 12.8431 70.8403 12.6223C71.9544 12.3998 73.0718 12.2058 74.196 12.0402C75.3184 11.8729 76.4459 11.734 77.575 11.6236C78.7042 11.5115 79.8367 11.4279 80.9709 11.3727C82.105 11.3175 83.2392 11.2891 84.375 11.2891C85.5109 11.2891 86.6451 11.3175 87.7792 11.3727C88.9134 11.4279 90.0459 11.5115 91.175 11.6236C92.3042 11.734 93.4317 11.8729 94.5541 12.0402C95.6783 12.2058 96.7957 12.3998 97.9098 12.6223C99.0222 12.8431 100.13 13.0924 101.232 13.3684C102.333 13.6444 103.427 13.9472 104.514 14.2767C105.6 14.6063 106.677 14.9626 107.746 15.344C108.817 15.727 109.875 16.1352 110.924 16.5701C111.973 17.0051 113.01 17.4651 114.037 17.9502C115.063 18.4353 116.077 18.9455 117.079 19.4808C118.079 20.0161 119.068 20.5749 120.041 21.1587C121.015 21.7425 121.973 22.3497 122.918 22.9804C123.862 23.611 124.79 24.2651 125.702 24.9409C126.614 25.6184 127.509 26.316 128.387 27.037C129.263 27.7563 130.123 28.4973 130.965 29.2601C131.806 30.0229 132.627 30.8058 133.43 31.6088C134.233 32.4117 135.016 33.2331 135.779 34.0745C136.542 34.9159 137.283 35.7757 138.002 36.6523C138.723 37.5305 139.421 38.4255 140.098 39.3372C140.774 40.2489 141.428 41.1773 142.059 42.1207C142.689 43.0659 143.297 44.0244 143.88 44.998C144.464 45.9716 145.023 46.9602 145.558 47.9605C146.094 48.9626 146.604 49.9763 147.089 51.0017C147.574 52.0288 148.034 53.066 148.469 54.1148C148.904 55.1637 149.312 56.2226 149.695 57.2932C150.077 58.3621 150.433 59.4394 150.762 60.5251C151.092 61.6124 151.395 62.7064 151.671 63.8071C151.947 64.9095 152.196 66.0169 152.417 67.1293C152.639 68.2434 152.833 69.3609 152.999 70.485C153.166 71.6075 153.305 72.735 153.416 73.8641C153.528 74.9933 153.611 76.1257 153.666 77.2599C153.722 78.3941 153.75 79.5283 153.75 80.6641Z" fill="#94B5FF"/>
<path d="M115.968 53.5729C115.968 53.1079 115.911 52.6479 115.799 52.1962C115.687 51.7429 115.523 51.3113 115.306 50.8981C115.088 50.4866 114.826 50.1052 114.516 49.7572C114.205 49.4093 113.859 49.1032 113.474 48.8389C113.839 48.4257 114.138 47.9673 114.371 47.4672C114.603 46.967 114.761 46.4434 114.842 45.8981C114.924 45.3527 114.926 44.8057 114.851 44.2587C114.774 43.7117 114.622 43.1881 114.392 42.6846C114.165 42.1827 113.871 41.7227 113.509 41.3045C113.148 40.888 112.735 40.53 112.27 40.2322C111.805 39.9345 111.308 39.7086 110.778 39.5547C110.247 39.4008 109.705 39.3239 109.153 39.3272C108.999 39.3272 108.854 39.3607 108.702 39.3724C108.835 38.894 108.906 38.4072 108.912 37.9104C108.912 37.534 108.876 37.1593 108.802 36.7896C108.728 36.4182 108.62 36.0586 108.474 35.7106C108.33 35.361 108.153 35.0298 107.944 34.7153C107.733 34.4008 107.495 34.1114 107.228 33.8437C106.96 33.5761 106.671 33.3386 106.356 33.1278C106.042 32.9187 105.711 32.7414 105.363 32.5975C105.013 32.452 104.653 32.3432 104.284 32.2696C103.912 32.196 103.539 32.1592 103.161 32.1592C102.131 32.1642 101.174 32.4302 100.289 32.9555C100.291 32.9003 100.306 32.8467 100.306 32.7915C100.306 32.4804 100.281 32.1726 100.232 31.8648C100.182 31.5587 100.108 31.2576 100.011 30.9632C99.9126 30.6687 99.7905 30.3844 99.6466 30.11C99.5028 29.834 99.3371 29.573 99.1498 29.3255C98.9624 29.0762 98.7567 28.8454 98.5325 28.6312C98.3084 28.4155 98.0675 28.2214 97.8115 28.0458C97.5556 27.8701 97.2879 27.7162 97.0069 27.5841C96.7259 27.4519 96.4348 27.3432 96.137 27.2579C95.8376 27.1726 95.5348 27.1123 95.2254 27.0772C94.9176 27.0404 94.6081 27.0304 94.2969 27.0454C93.9875 27.0588 93.6797 27.099 93.3769 27.1625C93.0724 27.2278 92.7764 27.3164 92.487 27.4285C92.1976 27.5406 91.9182 27.6761 91.6506 27.8333C91.3829 27.9906 91.1303 28.1696 90.8928 28.3686C90.6536 28.5677 90.4327 28.7835 90.2287 29.0193C90.0262 29.2535 89.8422 29.5028 89.68 29.7671C89.4592 29.2452 89.1698 28.7667 88.8084 28.3301C88.4471 27.8935 88.0322 27.5188 87.5605 27.2043C87.0888 26.8915 86.5819 26.6523 86.0383 26.49C85.4963 26.3261 84.9426 26.2441 84.3771 26.2441C83.8101 26.2441 83.2564 26.3261 82.7144 26.49C82.1724 26.6523 81.6655 26.8915 81.1938 27.2043C80.722 27.5188 80.3055 27.8935 79.9442 28.3301C79.5829 28.7667 79.2935 29.2452 79.0726 29.7671C78.9104 29.5028 78.728 29.2535 78.524 29.0193C78.3199 28.7835 78.0991 28.5677 77.8615 28.3686C77.6223 28.1696 77.3697 27.9922 77.1021 27.835C76.8344 27.6761 76.5551 27.5422 76.2657 27.4285C75.9763 27.3164 75.6802 27.2278 75.3757 27.1642C75.0729 27.1006 74.7651 27.0605 74.4557 27.0454C74.1445 27.032 73.8351 27.0421 73.5273 27.0772C73.2195 27.114 72.915 27.1742 72.6172 27.2595C72.3178 27.3449 72.0284 27.4519 71.7474 27.5841C71.4663 27.7162 71.197 27.8701 70.9411 28.0458C70.6851 28.2214 70.4443 28.4171 70.2201 28.6312C69.9959 28.847 69.7902 29.0779 69.6045 29.3255C69.4171 29.573 69.2515 29.8357 69.1077 30.11C68.9621 30.3844 68.8417 30.6704 68.743 30.9648C68.6443 31.2592 68.5707 31.5604 68.5222 31.8665C68.472 32.1726 68.4486 32.4804 68.4486 32.7915C68.4486 32.8484 68.4636 32.9003 68.4653 32.9555C67.5787 32.4302 66.6219 32.1659 65.5931 32.1592C65.215 32.1592 64.8403 32.196 64.4706 32.2696C64.1009 32.3432 63.7396 32.4536 63.3917 32.5975C63.042 32.7414 62.7108 32.9187 62.3963 33.1295C62.0835 33.3386 61.7924 33.5778 61.5248 33.8437C61.2588 34.1114 61.0196 34.4025 60.8105 34.7153C60.5997 35.0298 60.4241 35.361 60.2786 35.7106C60.1347 36.0586 60.0243 36.4182 59.9507 36.7896C59.8771 37.1593 59.8403 37.534 59.8403 37.912C59.847 38.4072 59.9172 38.8957 60.051 39.3724C59.9005 39.3607 59.755 39.3272 59.5994 39.3272C59.0474 39.3256 58.507 39.4008 57.9768 39.5547C57.4465 39.7086 56.948 39.9345 56.4846 40.2322C56.0196 40.53 55.6064 40.888 55.245 41.3045C54.8837 41.7227 54.5893 42.1827 54.3601 42.6846C54.1326 43.1881 53.9804 43.7134 53.9034 44.2587C53.8265 44.8057 53.8298 45.3527 53.9101 45.8981C53.9921 46.4451 54.1494 46.967 54.3819 47.4688C54.6161 47.969 54.9138 48.4257 55.2802 48.8405C54.8519 49.1333 54.4722 49.4779 54.1393 49.8727C53.8048 50.2691 53.5304 50.7024 53.3129 51.1725C53.0971 51.6425 52.9466 52.1326 52.8613 52.6445C52.7776 53.1547 52.7626 53.6683 52.8178 54.1835C52.873 54.6971 52.9951 55.1956 53.1841 55.6773C53.3732 56.1591 53.6241 56.6074 53.9352 57.0223C54.2447 57.4355 54.6044 57.8018 55.0142 58.118C55.424 58.4358 55.869 58.6918 56.3474 58.8892C56.1517 59.1434 55.9811 59.4127 55.8305 59.6954C55.6817 59.9782 55.5562 60.2726 55.4558 60.577C55.3555 60.8815 55.2818 61.1909 55.2333 61.5071C55.1865 61.8249 55.1648 62.1428 55.1698 62.4623C55.1748 62.7835 55.2082 63.1013 55.2668 63.4158C55.3253 63.7303 55.409 64.0381 55.5194 64.3392C55.6315 64.6386 55.7653 64.928 55.9242 65.2057C56.0831 65.4851 56.2638 65.7477 56.4679 65.9953C56.6703 66.2429 56.8928 66.472 57.1353 66.6811C57.3762 66.8919 57.6338 67.0809 57.9065 67.2465C58.1808 67.4138 58.4652 67.5577 58.763 67.6765C59.0607 67.7952 59.3652 67.8889 59.678 67.9575C59.9908 68.0244 60.307 68.0662 60.6282 68.0813C60.9477 68.0947 61.2655 68.083 61.585 68.0445C61.9029 68.006 62.214 67.9408 62.5218 67.8488C62.8279 67.7584 63.1257 67.6413 63.4134 67.5008C63.8216 68.5212 64.2849 69.5182 64.8035 70.4885L103.402 70.7528C104.033 69.6571 104.588 68.5229 105.068 67.3519C105.925 67.8354 106.843 68.0796 107.827 68.0863C108.362 68.088 108.886 68.0177 109.401 67.8722C109.916 67.7283 110.401 67.5159 110.856 67.2348C111.311 66.9538 111.719 66.6176 112.079 66.2228C112.44 65.828 112.74 65.3914 112.977 64.913C113.217 64.4329 113.384 63.931 113.482 63.4058C113.58 62.8805 113.603 62.3502 113.553 61.8183C113.503 61.2863 113.379 60.7711 113.185 60.2726C112.991 59.7757 112.73 59.314 112.407 58.8892C112.934 58.6717 113.417 58.384 113.857 58.0226C114.299 57.663 114.677 57.2448 114.995 56.773C115.311 56.2996 115.553 55.7894 115.719 55.2458C115.885 54.7004 115.967 54.1434 115.968 53.5729Z" fill="#212121"/>
<path d="M116.436 75.7083C116.436 75.3871 116.419 75.066 116.388 74.7464C116.356 74.4269 116.309 74.1091 116.247 73.7946C116.184 73.4801 116.107 73.169 116.013 72.8612C115.921 72.5534 115.814 72.2506 115.692 71.9545C115.57 71.6568 115.432 71.3674 115.282 71.083C115.131 70.7986 114.967 70.5243 114.792 70.2549C114.614 69.9873 114.424 69.7297 114.221 69.4804C114.019 69.2295 113.805 68.992 113.581 68.7628C113.355 68.5336 113.119 68.3161 112.871 68.1104C112.626 67.9046 112.37 67.7122 112.104 67.5316C111.838 67.3509 111.565 67.1836 111.282 67.0281C111.001 66.8742 110.712 66.7337 110.417 66.6082C110.121 66.4827 109.822 66.3707 109.516 66.2736C109.208 66.1766 108.898 66.0946 108.584 66.0277C108.269 65.9608 107.953 65.909 107.634 65.8738C107.316 65.837 106.995 65.8169 106.674 65.8119V65.7969H101.719V85.6181H106.674V85.603C106.995 85.598 107.316 85.5779 107.634 85.5428C107.953 85.506 108.269 85.4541 108.584 85.3872C108.898 85.3203 109.208 85.2383 109.516 85.143C109.822 85.046 110.121 84.9339 110.417 84.8068C110.712 84.6813 111.001 84.5408 111.282 84.3869C111.565 84.233 111.838 84.0657 112.104 83.885C112.37 83.7044 112.626 83.5103 112.871 83.3046C113.119 83.0988 113.355 82.8814 113.581 82.6538C113.805 82.4247 114.019 82.1855 114.221 81.9362C114.424 81.687 114.614 81.4277 114.792 81.16C114.967 80.8924 115.131 80.6164 115.282 80.332C115.432 80.0493 115.57 79.7582 115.692 79.4621C115.814 79.1644 115.921 78.8616 116.013 78.5554C116.107 78.2476 116.184 77.9365 116.247 77.6203C116.309 77.3059 116.356 76.988 116.388 76.6685C116.419 76.349 116.436 76.0295 116.436 75.7083Z" fill="#8E4A3C"/>
<path d="M62.0755 65.7969C61.751 65.7969 61.4264 65.8136 61.1036 65.8454C60.7807 65.8772 60.4596 65.924 60.1417 65.9876C59.8239 66.0511 59.5094 66.1298 59.1983 66.2234C58.8871 66.3188 58.5827 66.4275 58.2816 66.5513C57.9821 66.6751 57.6894 66.8139 57.4033 66.9678C57.1173 67.1201 56.8396 67.2874 56.5686 67.468C56.2993 67.647 56.0383 67.8411 55.7874 68.0468C55.5365 68.2526 55.2972 68.47 55.0664 68.6992C54.8372 68.9301 54.6198 69.1693 54.414 69.4202C54.2082 69.6711 54.0142 69.9321 53.8352 70.2014C53.6545 70.4724 53.4873 70.7501 53.335 71.0361C53.1811 71.3222 53.0423 71.6149 52.9185 71.9144C52.7947 72.2155 52.686 72.5199 52.5906 72.8311C52.497 73.1422 52.4183 73.4567 52.3548 73.7745C52.2912 74.0924 52.2444 74.4136 52.2126 74.7364C52.1808 75.0593 52.1641 75.3838 52.1641 75.7083C52.1641 76.0328 52.1808 76.3557 52.2126 76.6785C52.2444 77.0031 52.2912 77.3226 52.3548 77.6421C52.4183 77.9599 52.497 78.2744 52.5906 78.5856C52.686 78.895 52.7947 79.2012 52.9185 79.5006C53.0423 79.8 53.1811 80.0928 53.335 80.3805C53.4873 80.6665 53.6545 80.9442 53.8352 81.2136C54.0142 81.4845 54.2082 81.7438 54.414 81.9948C54.6198 82.2457 54.8372 82.4866 55.0664 82.7157C55.2972 82.9449 55.5365 83.1624 55.7874 83.3681C56.0383 83.5756 56.2993 83.7679 56.5686 83.9486C56.8396 84.1293 57.1173 84.2949 57.4033 84.4488C57.6894 84.601 57.9821 84.7398 58.2816 84.8636C58.5827 84.9891 58.8871 85.0978 59.1983 85.1915C59.5094 85.2869 59.8239 85.3655 60.1417 85.4274C60.4596 85.4909 60.7807 85.5395 61.1036 85.5712C61.4264 85.603 61.751 85.6181 62.0755 85.6181H67.0304V65.7969H62.0755Z" fill="#8E4A3C"/>
<path d="M135.816 127.244C134.389 128.822 132.894 130.329 131.328 131.768C129.762 133.206 128.135 134.57 126.445 135.858C124.754 137.147 123.008 138.355 121.206 139.483C119.403 140.61 117.554 141.654 115.655 142.611C113.757 143.569 111.82 144.438 109.841 145.215C107.864 145.995 105.854 146.681 103.812 147.275C101.771 147.869 99.7069 148.369 97.6208 148.772C95.5332 149.175 93.4321 149.483 91.316 149.694C89.0376 149.916 86.7325 150.04 84.3788 150.04C82.0252 150.04 79.72 149.916 77.4417 149.694C75.3256 149.483 73.2245 149.175 71.1368 148.772C69.0508 148.369 66.9866 147.869 64.9457 147.275C62.9032 146.681 60.8942 145.995 58.9169 145.215C56.938 144.438 55.0008 143.569 53.1022 142.611C51.2035 141.654 49.3551 140.61 47.5518 139.483C45.7502 138.355 44.0037 137.147 42.3125 135.858C40.623 134.57 38.9953 133.206 37.4296 131.768C35.8638 130.329 34.3683 128.822 32.9414 127.244C33.6239 126.063 34.4168 124.964 35.3252 123.946C36.2318 122.929 37.2322 122.014 38.3279 121.201C39.4236 120.389 40.5912 119.697 41.8291 119.125C43.0653 118.552 44.3483 118.112 45.6782 117.805L66.1686 113.097L68.3482 112.602L74.4674 111.19V96.125H94.2903V111.19L100.409 112.602L102.589 113.097L123.079 117.805C124.409 118.112 125.692 118.552 126.929 119.125C128.166 119.697 129.334 120.389 130.43 121.201C131.525 122.014 132.526 122.929 133.433 123.946C134.341 124.964 135.134 126.063 135.816 127.244Z" fill="#BA6E5A"/>
<path d="M94.2877 108.503V96.1328H74.4648V108.503C76.0423 109.129 77.6649 109.601 79.3311 109.918C80.9972 110.238 82.68 110.397 84.3763 110.397C86.0725 110.397 87.7554 110.238 89.4215 109.918C91.0876 109.601 92.7103 109.129 94.2877 108.503Z" fill="#8E4A3C"/>
<path d="M62.0703 65.7985C62.0703 50.7464 64.0978 38.5449 84.369 38.5449C104.64 38.5449 106.668 50.7464 106.668 65.7985V83.1422C106.668 83.8732 106.632 84.6009 106.561 85.3286C106.489 86.0546 106.382 86.7772 106.239 87.4932C106.097 88.2092 105.92 88.9168 105.707 89.616C105.497 90.3153 105.251 91.0011 104.971 91.6753C104.692 92.3511 104.379 93.0102 104.035 93.6542C103.69 94.2982 103.315 94.9239 102.91 95.5311C102.504 96.1383 102.069 96.7238 101.606 97.2892C101.142 97.853 100.654 98.3933 100.137 98.9102C99.62 99.4271 99.0797 99.9172 98.516 100.381C97.9506 100.844 97.3651 101.277 96.7578 101.684C96.1506 102.089 95.525 102.465 94.8809 102.808C94.2369 103.152 93.5778 103.465 92.902 103.745C92.2278 104.024 91.5403 104.27 90.8428 104.481C90.1435 104.693 89.4359 104.87 88.72 105.013C88.0023 105.155 87.2813 105.262 86.5553 105.334C85.8277 105.406 85.1 105.441 84.369 105.441C83.6379 105.441 82.9103 105.406 82.1826 105.334C81.4566 105.262 80.7356 105.155 80.018 105.013C79.302 104.87 78.5944 104.693 77.8952 104.481C77.1976 104.27 76.5101 104.024 75.8359 103.745C75.1601 103.465 74.501 103.152 73.857 102.808C73.2129 102.465 72.5873 102.089 71.9801 101.684C71.3728 101.277 70.7874 100.844 70.2219 100.381C69.6582 99.9172 69.1179 99.4271 68.601 98.9102C68.0841 98.3933 67.5956 97.853 67.1323 97.2892C66.6689 96.7238 66.234 96.1383 65.8275 95.5311C65.4226 94.9239 65.0479 94.2982 64.7033 93.6542C64.3587 93.0102 64.0459 92.3511 63.7665 91.6753C63.4872 91.0011 63.2413 90.3153 63.0305 89.616C62.8181 88.9168 62.6407 88.2092 62.4986 87.4932C62.3564 86.7772 62.2493 86.0546 62.1774 85.3286C62.1054 84.6009 62.0703 83.8732 62.0703 83.1422V65.7985Z" fill="#BA6E5A"/>
<path d="M105.033 43.2775C101.316 37.5698 94.7674 34.9151 84.3708 34.7812C73.9743 34.9151 67.4252 37.5698 63.7082 43.2775C59.9929 48.9851 62.0722 69.8234 62.0722 69.8234L63.4439 69.6913C63.4439 69.6913 63.5995 60.0291 65.7005 59.2044C69.4159 57.744 70.1937 52.5683 70.6103 50.4438C71.0268 48.321 77.6461 46.3304 84.3708 46.3304C85.1102 46.3304 85.8479 46.3571 86.5756 46.404C86.5154 46.7369 86.5054 47.0698 86.5455 47.406C86.5856 47.7422 86.6726 48.0634 86.8098 48.3729C86.947 48.6824 87.126 48.9634 87.3485 49.2193C87.5709 49.4736 87.8252 49.6911 88.1113 49.8701C88.399 50.0474 88.7051 50.1795 89.033 50.2665C89.3592 50.3518 89.6921 50.3886 90.03 50.3752C90.3662 50.3602 90.6958 50.2983 91.0136 50.1845C91.3331 50.0725 91.6275 49.9152 91.8985 49.7145C91.8985 49.7362 91.8918 49.758 91.8918 49.7814C91.8918 50.1829 91.9454 50.576 92.0524 50.9607C92.1595 51.3472 92.3167 51.7118 92.5241 52.0548C92.7316 52.3977 92.9825 52.7055 93.2752 52.9798C93.5663 53.2525 93.8908 53.4833 94.2471 53.6673C94.6018 53.853 94.9765 53.9869 95.3679 54.0688C95.7594 54.1508 96.1558 54.1776 96.5556 54.1508C96.9554 54.124 97.3435 54.0437 97.7216 53.9116C98.0996 53.7778 98.4526 53.5954 98.7805 53.3646C98.8875 53.9818 99.0632 54.579 99.3074 55.1578C99.5516 55.7349 99.8594 56.2753 100.229 56.7821C100.599 57.289 101.02 57.7473 101.495 58.1555C101.971 58.5654 102.486 58.915 103.041 59.206C105.142 60.0307 105.298 69.6913 105.298 69.6913L106.669 69.8234C106.669 69.8234 108.749 48.9851 105.033 43.2775Z" fill="#212121"/>
<path d="M135.816 127.244C134.389 128.821 132.894 130.328 131.328 131.767C129.762 133.206 128.135 134.569 126.445 135.857C124.754 137.147 123.008 138.355 121.206 139.482C119.403 140.61 117.554 141.653 115.655 142.61C113.757 143.569 111.82 144.437 109.841 145.215C107.864 145.994 105.854 146.68 103.812 147.274C101.771 147.868 99.7069 148.368 97.6208 148.771C95.5332 149.174 93.4321 149.482 91.316 149.693C89.0376 149.915 86.7325 150.039 84.3788 150.039C82.0252 150.039 79.72 149.915 77.4417 149.693C75.3256 149.482 73.2245 149.174 71.1368 148.771C69.0508 148.368 66.9866 147.868 64.9457 147.274C62.9032 146.68 60.8942 145.994 58.9169 145.215C56.938 144.437 55.0008 143.569 53.1022 142.61C51.2035 141.653 49.3551 140.61 47.5518 139.482C45.7502 138.355 44.0037 137.147 42.3125 135.857C40.623 134.569 38.9953 133.206 37.4296 131.767C35.8638 130.328 34.3683 128.821 32.9414 127.244C33.6239 126.063 34.4168 124.964 35.3252 123.945C36.2318 122.928 37.2322 122.013 38.3279 121.2C39.4236 120.389 40.5912 119.696 41.8291 119.124C43.0653 118.552 44.3483 118.112 45.6782 117.804L66.1686 113.097L68.3482 112.602L79.0526 120.877L80.4394 121.943L84.3788 124.99L88.3183 121.943L89.7051 120.877L100.409 112.602L102.589 113.097L123.079 117.804C124.409 118.112 125.692 118.552 126.929 119.124C128.166 119.696 129.334 120.389 130.43 121.2C131.525 122.013 132.526 122.928 133.433 123.945C134.341 124.964 135.134 126.063 135.816 127.244Z" fill="#637BA4"/>
<path d="M88.7085 119.832L84.3725 122.254L80.0366 119.832L75.3594 124.81L80.5669 130.152H88.1782L93.3856 124.81L88.7085 119.832Z" fill="#01314F"/>
<path d="M91.3118 149.692C89.0335 149.915 86.7283 150.039 84.3747 150.039C82.021 150.039 79.7159 149.915 77.4375 149.692L80.7079 130.142L84.3747 130.094L88.0415 130.142L91.3118 149.692Z" fill="#00406F"/>
<path d="M75.0088 130.32L81.8975 119.681L74.4635 111.191L66.1562 113.102L75.0088 130.32Z" fill="#01314F"/>
<path d="M102.593 113.102L94.2856 111.191L86.8516 119.681L93.7402 130.32L102.593 113.102Z" fill="#01314F"/>
</g>
<defs>
<filter id="filter0_d_1656_15604" x="0" y="0.289062" width="168.75" height="168.75" filterUnits="userSpaceOnUse" color-interpolation-filters="sRGB">
<feFlood flood-opacity="0" result="BackgroundImageFix"/>
<feColorMatrix in="SourceAlpha" type="matrix" values="0 0 0 0 0 0 0 0 0 0 0 0 0 0 0 0 0 0 127 0" result="hardAlpha"/>
<feOffset dy="4"/>
<feGaussianBlur stdDeviation="7.5"/>
<feComposite in2="hardAlpha" operator="out"/>
<feColorMatrix type="matrix" values="0 0 0 0 0 0 0 0 0 0 0 0 0 0 0 0 0 0 0.15 0"/>
<feBlend mode="normal" in2="BackgroundImageFix" result="effect1_dropShadow_1656_15604"/>
<feBlend mode="normal" in="SourceGraphic" in2="effect1_dropShadow_1656_15604" result="shape"/>
</filter>
</defs>
</svg>
