<svg width="169" height="170" viewBox="0 0 169 170" fill="none" xmlns="http://www.w3.org/2000/svg">
<g filter="url(#filter0_d_1656_15640)">
<mask id="mask0_1656_15640" style="mask-type:luminance" maskUnits="userSpaceOnUse" x="15" y="11" width="139" height="140">
<path d="M15 11.293H153.982V150.043H15V11.293Z" fill="white"/>
</mask>
<g mask="url(#mask0_1656_15640)">
<path d="M153.895 80.695C153.895 97.9371 147.598 113.723 137.194 125.856C136.253 126.956 135.276 128.02 134.263 129.059C131.688 131.713 128.892 134.168 125.918 136.376C114.37 144.986 100.059 150.077 84.5524 150.077C84.3418 150.077 84.1348 150.077 83.9205 150.07C74.2464 149.99 65.048 147.917 56.7029 144.252C51.8731 142.135 47.3411 139.488 43.1649 136.376C40.1436 134.117 37.311 131.626 34.6964 128.917C33.7341 127.929 32.8044 126.905 31.9075 125.863C21.4998 113.727 15.1992 97.9444 15.1992 80.695C15.1992 42.3761 46.2516 11.3164 84.5524 11.3164C110.833 11.3164 133.7 25.9475 145.463 47.5109C149.366 54.6649 152.043 62.5778 153.219 70.9773C153.666 74.1512 153.895 77.4013 153.895 80.695Z" fill="#94B5FF"/>
</g>
<path d="M80.2873 27.4234C78.3481 26.5046 75.9114 26.7443 74.1901 28.0225C72.5632 27.0856 70.4824 26.9948 68.7793 27.7938C67.0834 28.5927 65.816 30.2522 65.4965 32.1006C63.3975 31.2582 60.8192 31.7738 59.2068 33.3644C57.5908 34.9513 57.0352 37.5187 57.8414 39.6359C55.993 39.5923 54.2317 40.6636 53.1605 42.1706C52.0892 43.674 51.6534 45.5624 51.6425 47.4108C51.6389 47.9773 51.7914 48.4603 52.1872 48.8706C49.3874 50.4212 46.7038 53.744 49.1441 57.0559C48.8972 56.7254 47.1868 58.8135 47.0597 59.0241C46.5113 59.9719 46.2462 61.1013 46.3043 62.1944C46.3479 63.0151 46.958 63.6034 47.1577 64.3587C47.441 65.4263 47.1141 65.4699 46.6384 66.4286C45.5708 68.5603 46.2135 71.2257 48.2617 72.4931C48.3452 72.5403 48.4323 72.5948 48.4759 72.682C48.5122 72.7582 48.5086 72.8454 48.5086 72.9325C48.3379 76.495 49.2095 80.4206 53.5781 80.5513C53.0733 82.3706 53.894 84.4696 55.4919 85.4683C57.0897 86.4633 59.3375 86.2781 60.7429 85.0288C60.4016 85.3339 60.9935 87.796 61.1751 88.2826C61.5818 89.3866 62.5659 90.3816 63.5754 90.9445C65.5328 92.0339 68.1365 91.8233 69.8905 90.4288C68.9718 92.4079 70.6604 94.8955 72.8029 95.2986C75.0653 95.7234 76.7866 94.3689 78.4062 93.0071C78.635 92.811 82.3754 88.5731 81.0136 88.4061C82.8802 88.6385 84.7612 87.8069 86.1593 86.5468C87.5574 85.283 88.5343 83.6271 89.3768 81.9458C90.7095 79.2912 91.7917 76.4078 91.7009 73.4337C91.6065 70.4632 90.1358 67.391 87.4703 66.08C89.4966 62.6083 91.2797 58.8171 91.2978 54.7971C91.3124 50.7771 89.1299 46.5138 85.3277 45.2247C85.8107 42.4466 86.2792 39.4834 85.1716 36.8869C84.3182 34.8969 83.8498 33.7711 83.552 31.7484C83.2832 29.8927 81.9687 28.2186 80.2873 27.4234Z" fill="#5E220B"/>
<path d="M87.2556 27.4234C89.1984 26.5046 91.6314 26.7443 93.3564 28.0225C94.9796 27.0856 97.0641 26.9948 98.7636 27.7938C100.459 28.5927 101.727 30.2522 102.05 32.1006C104.145 31.2582 106.724 31.7738 108.34 33.3644C109.952 34.9513 110.508 37.5187 109.701 39.6359C111.55 39.5923 113.315 40.6636 114.382 42.1706C115.454 43.674 115.889 45.5624 115.9 47.4108C115.908 47.9773 115.755 48.4603 115.356 48.8706C118.155 50.4212 120.843 53.744 118.402 57.0559C118.646 56.7254 120.36 58.8135 120.483 59.0241C121.032 59.9719 121.3 61.1013 121.239 62.1944C121.195 63.0151 120.589 63.6034 120.385 64.3587C120.102 65.4263 120.429 65.4699 120.908 66.4286C121.972 68.5603 121.333 71.2257 119.281 72.4931C119.201 72.5403 119.114 72.5948 119.071 72.682C119.031 72.7582 119.038 72.8454 119.038 72.9325C119.205 76.495 118.337 80.4206 113.965 80.5513C114.47 82.3706 113.649 84.4696 112.051 85.4683C110.453 86.4633 108.209 86.2781 106.8 85.0288C107.141 85.3339 106.549 87.796 106.371 88.2826C105.965 89.3866 104.981 90.3816 103.967 90.9445C102.01 92.0339 99.4064 91.8233 97.656 90.4288C98.5748 92.4079 96.8825 94.8955 94.7436 95.2986C92.4812 95.7234 90.7563 94.3689 89.1367 93.0071C88.9079 92.811 85.1675 88.5731 86.5329 88.4061C84.6627 88.6385 82.7816 87.8069 81.3835 86.5468C79.9891 85.283 79.0086 83.6271 78.1661 81.9458C76.8333 79.2912 75.7512 76.4078 75.8456 73.4337C75.9364 70.4632 77.4107 67.391 80.0762 66.08C78.0462 62.6083 76.2632 58.8171 76.2487 54.7971C76.2305 50.7771 78.4166 46.5138 82.2151 45.2247C81.7321 42.4466 81.2637 39.4834 82.3749 36.8869C83.2283 34.8969 83.6968 33.7711 83.9945 31.7484C84.2669 29.8927 85.5815 28.2186 87.2556 27.4234Z" fill="#5E220B"/>
<mask id="mask1_1656_15640" style="mask-type:luminance" maskUnits="userSpaceOnUse" x="34" y="85" width="101" height="66">
<path d="M34.0625 85.748H134.464V150.043H34.0625V85.748Z" fill="white"/>
</mask>
<g mask="url(#mask1_1656_15640)">
<path d="M116.45 111.217L99.7743 105.781C96.6985 104.782 94.6177 101.91 94.6177 98.6741V85.877H74.4196V98.8303C74.4196 102.095 72.3061 104.978 69.194 105.962L52.493 111.239C43.8465 113.875 37.2954 120.608 34.6953 128.92C37.3099 131.629 40.1425 134.121 43.1638 136.376C47.34 139.488 51.8756 142.135 56.7018 144.252C65.2284 148 74.6411 150.077 84.555 150.077C100.058 150.077 114.373 144.986 125.921 136.376C128.895 134.168 131.687 131.717 134.266 129.062C131.709 120.673 125.144 113.883 116.45 111.217Z" fill="#B67F5C"/>
</g>
<mask id="mask2_1656_15640" style="mask-type:luminance" maskUnits="userSpaceOnUse" x="34" y="106" width="101" height="45">
<path d="M34.0625 106.201H134.464V150.044H34.0625V106.201Z" fill="white"/>
</mask>
<g mask="url(#mask2_1656_15640)">
<path d="M116.443 111.218L101.866 106.468C97.8388 109.508 93.0271 111.24 87.4238 111.501C80.6221 111.81 73.076 110.655 67.8576 106.381L52.493 111.232C43.8429 113.873 37.2918 120.605 34.6953 128.914C37.3099 131.623 40.1425 134.114 43.1638 136.373C47.34 139.485 51.872 142.132 56.7018 144.249C65.2248 147.997 74.6411 150.074 84.5513 150.074C100.058 150.074 114.369 144.983 125.917 136.373C128.891 134.165 131.687 131.71 134.262 129.056C131.702 120.674 125.136 113.883 116.443 111.218Z" fill="#D2D2D2"/>
<path d="M116.443 111.22L102.167 106.569C100.915 109.942 97.6535 114.394 94.4688 116.283C90.4778 118.643 86.4832 119.366 81.9694 118.814C75.0479 117.957 70.2144 112.154 67.9593 106.467C67.9266 106.438 67.8903 106.416 67.8576 106.391L52.493 111.242C43.8429 113.879 37.2918 120.611 34.6953 128.924C37.3099 131.633 40.1425 134.124 43.1638 136.379C47.34 139.491 51.872 142.138 56.7018 144.256C65.2248 148.003 74.6411 150.08 84.5513 150.08C100.058 150.08 114.369 144.989 125.917 136.379C128.891 134.171 131.687 131.72 134.262 129.065C131.702 120.677 125.136 113.886 116.443 111.22Z" fill="#092838"/>
</g>
<path d="M89.1472 137.439C89.1472 137.402 89.1472 137.362 89.1435 137.33L86.7177 114.742H82.3201L80.3555 137.439L84.695 145.849L89.1472 137.439Z" fill="#6973A4"/>
<path d="M106.292 57.2205C106.237 41.747 96.7738 30.6348 84.5322 30.6348C84.5249 30.6348 84.514 30.6348 84.5104 30.6348C84.5031 30.6348 84.4922 30.6348 84.4886 30.6348C72.2507 30.6348 62.7799 41.747 62.7254 57.2205C62.6963 64.2728 62.8924 66.0304 63.6115 71.1507C65.8412 87.0637 80.534 94.4173 84.4886 94.4173C89.3329 94.4173 103.063 87.0637 105.293 71.1507C106.009 66.0304 106.321 64.2728 106.292 57.2205Z" fill="#C38863"/>
<path d="M62.7275 59.5738C62.0811 58.873 61.0898 58.5316 60.5378 59.5049C59.7316 60.8957 59.8188 62.7623 59.9313 64.302C60.0258 65.5476 60.1819 66.7968 60.5087 68.006C60.792 69.0555 61.1769 70.49 62.1066 71.1436C62.3208 71.2925 62.6113 71.4378 62.8801 71.4959C63.0253 71.5285 63.9187 71.5467 63.6172 71.1545" fill="#C38863"/>
<path d="M106.188 59.5738C106.834 58.873 107.826 58.5316 108.378 59.5049C109.184 60.8957 109.097 62.7623 108.981 64.302C108.89 65.5476 108.734 66.7968 108.407 68.006C108.124 69.0555 107.739 70.49 106.809 71.1436C106.595 71.2925 106.301 71.4378 106.036 71.4959C105.89 71.5285 104.997 71.5467 105.295 71.1545" fill="#C38863"/>
<path d="M99.8691 65.2814C100.759 66.872 103.384 69.8098 105.556 68.5533C107.611 67.3622 108.062 63.1134 107.775 61.0762C110.306 59.0135 110.854 54.9064 108.951 52.2518C109.006 52.3281 110.121 49.452 110.161 49.1033C110.262 48.1265 110.248 46.7938 110.052 45.8205C109.605 43.6417 107.459 41.7461 105.371 41.2013C105.403 37.53 102.092 34.1636 98.4238 34.1309C98.5037 32.1227 97.4324 30.1037 95.722 29.0542C94.0116 28.0011 91.7311 27.9466 89.9734 28.9234C88.746 27.2566 86.6616 26.2507 84.5917 26.3306C82.5217 26.4141 80.5208 27.5726 79.4278 29.3338C77.9861 28.4368 76.0687 28.3642 74.5616 29.1595C73.0546 29.9548 72.0341 31.5744 71.9579 33.2775C70.538 31.9049 68.0323 32.337 66.6342 33.7351C65.2397 35.1259 64.7277 37.1777 64.4989 39.1351C62.2583 39.1278 60.33 41.0234 59.7599 43.1877C59.1861 45.3521 59.7526 47.6726 60.7295 49.6916C58.754 49.8587 57.305 51.9286 57.3486 53.9114C57.3922 55.8978 58.616 57.699 60.1448 58.9663C59.0772 61.0145 59.2043 63.5819 60.2901 65.601C60.7513 66.4544 62.4617 68.9419 63.5729 68.9673C66.1076 69.029 66.4889 62.2165 67.0046 62.1947C70.5779 62.0385 73.8099 59.0462 74.2457 55.5019C74.1876 55.9668 77.0528 56.1157 77.3615 56.0975C78.5308 56.0285 79.7364 55.6218 80.7932 55.1315C82.765 54.2128 83.2371 52.5133 84.6352 51.166C85.2489 52.4261 85.7101 53.6608 86.7669 54.6631C88.1759 55.9994 90.3366 56.0757 92.1596 55.876C92.1741 56.9255 92.323 57.9967 92.7842 58.9373C93.8082 61.0217 96.4883 62.1475 98.6816 62.2564C98.5146 62.2383 99.6875 64.9655 99.8691 65.2814Z" fill="#5E220B"/>
<path d="M84.9937 117.407H84.0894C81.1044 117.407 78.6641 114.967 78.6641 111.978V111.077C78.6641 108.089 81.1044 105.648 84.0894 105.648H84.9937C87.9787 105.648 90.419 108.089 90.419 111.077V111.978C90.419 114.967 87.9787 117.407 84.9937 117.407Z" fill="#6973A4"/>
<path d="M67.8516 106.382L74.4136 98.832L84.5417 105.608L78.1903 114.651L67.8516 106.382Z" fill="white"/>
<path d="M102.377 106.382L94.8273 98.832L84.6992 105.608L91.047 114.651L102.377 106.382Z" fill="white"/>
</g>
<defs>
<filter id="filter0_d_1656_15640" x="0.199219" y="0.316406" width="168.695" height="168.727" filterUnits="userSpaceOnUse" color-interpolation-filters="sRGB">
<feFlood flood-opacity="0" result="BackgroundImageFix"/>
<feColorMatrix in="SourceAlpha" type="matrix" values="0 0 0 0 0 0 0 0 0 0 0 0 0 0 0 0 0 0 127 0" result="hardAlpha"/>
<feOffset dy="4"/>
<feGaussianBlur stdDeviation="7.5"/>
<feComposite in2="hardAlpha" operator="out"/>
<feColorMatrix type="matrix" values="0 0 0 0 0 0 0 0 0 0 0 0 0 0 0 0 0 0 0.15 0"/>
<feBlend mode="normal" in2="BackgroundImageFix" result="effect1_dropShadow_1656_15640"/>
<feBlend mode="normal" in="SourceGraphic" in2="effect1_dropShadow_1656_15640" result="shape"/>
</filter>
</defs>
</svg>
