<svg width="169" height="169" viewBox="0 0 169 169" fill="none" xmlns="http://www.w3.org/2000/svg">
<g filter="url(#filter0_d_1656_15620)">
<mask id="mask0_1656_15620" style="mask-type:luminance" maskUnits="userSpaceOnUse" x="15" y="11" width="139" height="139">
<path d="M15 11.293H153.653V149.615H15V11.293Z" fill="white"/>
</mask>
<g mask="url(#mask0_1656_15620)">
<path d="M153.413 80.4204C153.413 81.5529 153.384 82.6838 153.329 83.8129C153.274 84.9437 153.19 86.0712 153.08 87.197C152.968 88.3228 152.831 89.4453 152.663 90.5644C152.498 91.6835 152.304 92.7976 152.085 93.9067C151.864 95.0174 151.615 96.1198 151.34 97.2172C151.066 98.3146 150.763 99.4052 150.435 100.488C150.107 101.57 149.753 102.644 149.371 103.709C148.99 104.775 148.583 105.831 148.15 106.876C147.717 107.92 147.259 108.954 146.775 109.977C146.292 111 145.783 112.01 145.25 113.009C144.716 114.006 144.159 114.989 143.577 115.959C142.996 116.93 142.391 117.887 141.762 118.827C141.133 119.767 140.482 120.692 139.808 121.6C139.134 122.51 138.438 123.402 137.72 124.275C137.003 125.15 136.265 126.006 135.505 126.844C134.744 127.683 133.965 128.502 133.165 129.302C132.365 130.101 131.546 130.883 130.708 131.642C129.87 132.402 129.013 133.141 128.138 133.859C127.263 134.576 126.372 135.272 125.463 135.945C124.555 136.619 123.63 137.271 122.69 137.898C121.748 138.527 120.793 139.133 119.823 139.715C118.852 140.296 117.869 140.853 116.87 141.386C115.873 141.92 114.863 142.428 113.841 142.912C112.817 143.395 111.783 143.854 110.738 144.287C109.692 144.72 108.638 145.127 107.573 145.508C106.507 145.889 105.433 146.244 104.351 146.572C103.269 146.902 102.178 147.203 101.08 147.477C99.9831 147.753 98.879 148.001 97.77 148.221C96.6609 148.442 95.5468 148.635 94.4277 148.802C93.3086 148.967 92.1861 149.106 91.0603 149.217C89.9345 149.327 88.8053 149.411 87.6762 149.466C86.5454 149.521 85.4145 149.55 84.2837 149.55C83.1529 149.55 82.0221 149.521 80.8912 149.466C79.7621 149.411 78.6346 149.327 77.5088 149.217C76.383 149.106 75.2605 148.967 74.1414 148.802C73.0223 148.635 71.9065 148.442 70.7975 148.221C69.6884 148.001 68.5843 147.753 67.487 147.477C66.3896 147.203 65.2989 146.902 64.2166 146.572C63.1343 146.244 62.0604 145.889 60.9948 145.508C59.9309 145.127 58.8753 144.72 57.8298 144.287C56.7843 143.854 55.7505 143.395 54.7284 142.912C53.7046 142.428 52.6943 141.92 51.6973 141.386C50.7003 140.853 49.715 140.296 48.7447 139.715C47.7745 139.133 46.8193 138.527 45.8792 137.898C44.9374 137.271 44.0123 136.619 43.104 135.945C42.1957 135.272 41.304 134.576 40.4292 133.859C39.5543 133.141 38.6978 132.402 37.8597 131.642C37.0216 130.883 36.2036 130.101 35.4023 129.302C34.6027 128.502 33.8232 127.683 33.0637 126.844C32.3043 126.006 31.5649 125.15 30.8473 124.275C30.1296 123.402 29.4337 122.51 28.7596 121.6C28.0854 120.692 27.4347 119.767 26.8057 118.827C26.1768 117.887 25.5729 116.93 24.9907 115.959C24.4086 114.989 23.8516 114.006 23.3179 113.009C22.7843 112.01 22.2758 111 21.7923 109.977C21.3089 108.954 20.8505 107.92 20.4173 106.876C19.9857 105.831 19.5775 104.775 19.1961 103.709C18.8164 102.644 18.4601 101.57 18.1322 100.488C17.8043 99.4052 17.5032 98.3146 17.2272 97.2172C16.9529 96.1198 16.7053 95.0174 16.4845 93.9067C16.2637 92.7976 16.0696 91.6835 15.904 90.5644C15.7384 89.4453 15.5995 88.3228 15.4891 87.197C15.3771 86.0712 15.2951 84.9437 15.2399 83.8129C15.183 82.6838 15.1562 81.5529 15.1562 80.4204C15.1562 79.2896 15.183 78.1588 15.2399 77.0296C15.2951 75.8988 15.3771 74.7713 15.4891 73.6455C15.5995 72.5197 15.7384 71.3973 15.904 70.2781C16.0696 69.159 16.2637 68.0449 16.4845 66.9342C16.7053 65.8251 16.9529 64.7211 17.2272 63.6237C17.5032 62.5263 17.8043 61.4373 18.1322 60.355C18.4601 59.271 18.8164 58.1971 19.1961 57.1332C19.5775 56.0676 19.9857 55.012 20.4173 53.9665C20.8505 52.921 21.3089 51.8872 21.7923 50.8651C22.2758 49.843 22.7843 48.8326 23.3179 47.834C23.8516 46.837 24.4086 45.8534 24.9907 44.8815C25.5729 43.9112 26.1768 42.956 26.8057 42.0159C27.4347 41.0741 28.0854 40.1507 28.7596 39.2407C29.4337 38.3324 30.1296 37.4408 30.8473 36.5659C31.5649 35.6927 32.3043 34.8362 33.0637 33.9981C33.8232 33.16 34.6027 32.3403 35.4023 31.5407C36.2036 30.7395 37.0216 29.9599 37.8597 29.2005C38.6978 28.441 39.5543 27.7016 40.4292 26.984C41.304 26.2663 42.1957 25.5705 43.104 24.8963C44.0123 24.2222 44.9374 23.5714 45.8792 22.9425C46.8193 22.3152 47.7745 21.7096 48.7447 21.1275C49.715 20.547 50.7003 19.9883 51.6973 19.4563C52.6943 18.9227 53.7046 18.4141 54.7284 17.9307C55.7505 17.4456 56.7843 16.9872 57.8298 16.5556C58.8753 16.1224 59.9309 15.7142 60.9948 15.3345C62.0604 14.9531 63.1343 14.5985 64.2166 14.2689C65.2989 13.941 66.3896 13.6399 67.487 13.3639C68.5843 13.0896 69.6884 12.842 70.7975 12.6212C71.9065 12.4004 73.0223 12.208 74.1414 12.0407C75.2605 11.8751 76.383 11.7363 77.5088 11.6259C78.6346 11.5155 79.7621 11.4318 80.8912 11.3766C82.0221 11.3214 83.1529 11.293 84.2837 11.293C85.4145 11.293 86.5454 11.3214 87.6762 11.3766C88.8053 11.4318 89.9345 11.5155 91.0603 11.6259C92.1861 11.7363 93.3086 11.8751 94.4277 12.0407C95.5468 12.208 96.6609 12.4004 97.77 12.6212C98.879 12.842 99.9831 13.0896 101.08 13.3639C102.178 13.6399 103.269 13.941 104.351 14.2689C105.433 14.5985 106.507 14.9531 107.573 15.3345C108.638 15.7159 109.692 16.1224 110.738 16.5556C111.783 16.9872 112.817 17.4456 113.841 17.9307C114.863 18.4141 115.873 18.9227 116.87 19.4563C117.869 19.9883 118.852 20.547 119.823 21.1275C120.793 21.7096 121.748 22.3152 122.69 22.9425C123.63 23.5714 124.555 24.2222 125.463 24.8963C126.372 25.5705 127.263 26.2663 128.138 26.984C129.013 27.7016 129.87 28.441 130.708 29.2005C131.546 29.9599 132.365 30.7395 133.165 31.5407C133.965 32.3403 134.744 33.16 135.505 33.9981C136.265 34.8362 137.003 35.6927 137.72 36.5659C138.438 37.4408 139.134 38.3324 139.808 39.2407C140.482 40.1507 141.133 41.0741 141.762 42.0159C142.391 42.956 142.996 43.9112 143.577 44.8815C144.159 45.8534 144.716 46.837 145.25 47.834C145.783 48.8326 146.292 49.843 146.775 50.8651C147.259 51.8872 147.717 52.921 148.15 53.9665C148.583 55.012 148.99 56.0676 149.371 57.1332C149.753 58.1971 150.107 59.271 150.435 60.355C150.763 61.4373 151.066 62.5263 151.34 63.6237C151.615 64.7211 151.864 65.8251 152.085 66.9342C152.304 68.0449 152.498 69.159 152.663 70.2781C152.831 71.3973 152.968 72.5197 153.08 73.6455C153.19 74.7713 153.274 75.8988 153.329 77.0296C153.384 78.1588 153.413 79.2896 153.413 80.4204Z" fill="#94B5FF"/>
</g>
<path d="M119.632 112.075C118.309 108.902 119.632 107.05 119.367 102.288C119.103 97.5268 114.605 96.7339 113.548 91.1784C112.489 85.623 114.16 83.7712 115.4 79.2747C115.861 75.8036 115.592 72.391 114.588 69.037C114.592 69.012 114.603 68.9852 114.605 68.9584C114.593 65.8319 115.095 62.7891 116.114 59.8332C117.357 56.9225 115.796 52.9546 115.664 50.7063C115.532 48.4581 116.985 43.9615 115.267 40.7865C113.548 37.6132 111.432 38.4061 109.051 36.8186C106.669 35.2328 107.464 31.9256 102.569 30.4703C97.676 29.0166 98.3368 29.9417 94.8992 29.5452C91.4598 29.1487 91.592 26.7666 87.0955 26.1059C82.5989 25.4451 81.2757 27.8255 77.9686 27.9577C74.6631 28.0898 72.6791 25.9737 69.6363 26.1059C66.5951 26.238 65.9327 27.9577 63.6844 29.2809C61.4361 30.6024 59.8503 29.1487 57.4682 32.7185C55.0878 36.29 55.7502 38.9347 55.0878 42.1097C54.427 45.2847 52.0466 45.6812 51.3775 50.0456C50.7084 54.4099 52.5752 55.2029 52.7074 59.8332C52.8395 64.4619 51.252 63.2708 51.3842 67.2388C51.518 71.2067 52.1788 70.9424 54.0306 73.7193C55.8824 76.4978 54.427 76.4978 55.3521 81.1265C55.4759 82.3359 55.9125 83.4182 56.6619 84.3751C56.585 87.0299 52.1754 91.4729 51.9128 94.8821C51.6485 98.3197 52.9717 100.436 52.7074 103.611C52.4431 106.786 50.0627 107.843 49.7097 111.547C49.3567 115.25 49.534 118.688 51.9145 121.07C54.2949 123.45 67.7845 128.211 74.3988 130.063C81.0114 131.915 88.9473 128.211 96.8831 126.095C104.817 123.979 116.457 125.831 120.16 120.804C123.864 115.779 120.953 115.25 119.632 112.075Z" fill="#212121"/>
<path d="M136.029 126.267C132.631 130.096 128.856 133.509 124.704 136.503C120.55 139.497 116.121 142.003 111.415 144.019C108.346 145.315 105.202 146.393 101.984 147.253C100.281 147.698 98.5763 148.092 96.8248 148.388C92.6796 149.163 88.4992 149.549 84.2821 149.549C80.0666 149.549 75.8845 149.163 71.741 148.388C69.9878 148.092 68.2849 147.698 66.5803 147.253C63.3618 146.393 60.2186 145.315 57.149 144.019C52.4433 142.003 48.0137 139.497 43.8618 136.503C39.7082 133.509 35.9326 130.096 32.5352 126.267C33.1424 125.339 33.8868 124.534 34.7684 123.858C35.6483 123.181 36.6152 122.667 37.6707 122.318L50.1633 118.194L55.9144 116.294L65.0748 113.281L69.4944 111.826L74.3321 110.22L74.4074 103.232H94.1584V110.146L99.0714 111.775L103.489 113.233L112.625 116.269L121.266 119.133L130.895 122.318C131.949 122.667 132.916 123.181 133.797 123.858C134.677 124.534 135.422 125.339 136.029 126.267Z" fill="#BA6E5A"/>
<path d="M136.029 126.267C132.631 130.096 128.856 133.509 124.704 136.503C120.55 139.497 116.121 142.003 111.415 144.019C108.346 145.315 105.202 146.393 101.984 147.252C100.281 147.697 98.5763 148.092 96.8248 148.388C92.6796 149.163 88.4992 149.549 84.2821 149.549C80.0666 149.549 75.8845 149.163 71.741 148.388C69.9878 148.092 68.2849 147.697 66.5803 147.252C63.3618 146.393 60.2186 145.315 57.149 144.019C52.4433 142.003 48.0137 139.497 43.8618 136.503C39.7082 133.509 35.9326 130.096 32.5352 126.267C33.1424 125.339 33.8868 124.534 34.7684 123.858C35.6483 123.181 36.6152 122.667 37.6707 122.317L50.1633 118.194L55.9144 116.294L65.0748 113.281L64.5813 126.884L64.506 128.539L65.0012 128.711L69.4191 130.267L84.2821 135.476L99.145 130.267L103.565 128.711L104.058 128.539L103.934 125.032L103.489 113.232L112.625 116.269L121.266 119.132L130.895 122.317C131.949 122.667 132.916 123.181 133.797 123.858C134.677 124.534 135.422 125.339 136.029 126.267Z" fill="#1E243A"/>
<path d="M102.991 143.822C102.695 145.006 102.374 146.142 101.979 147.253C100.276 147.698 98.5715 148.093 96.82 148.389C92.6748 149.163 88.4944 149.55 84.2773 149.55C80.0618 149.55 75.8797 149.163 71.7362 148.389C69.983 148.093 68.2801 147.698 66.5755 147.253C66.1807 146.142 65.8596 145.006 65.5635 143.822C63.4156 134.859 64.2804 130.515 64.9964 128.711C65.1285 128.335 65.3176 127.99 65.5635 127.676L66.3296 127.502L68.3035 127.059L69.2922 127.453C70.9215 128.144 74.3274 129.503 77.6362 130.54C79.7858 131.316 82.0006 131.801 84.2773 131.995C87.8822 131.995 96.35 128.663 99.264 127.453L100.251 127.059L102.991 127.676C103.237 127.99 103.426 128.335 103.56 128.711C104.276 130.515 105.139 134.859 102.991 143.822Z" fill="#CBCFD1"/>
<path d="M69.4099 130.267C69.8063 136.356 70.5792 142.397 71.7317 148.389C69.9786 148.093 68.2757 147.698 66.5711 147.253C63.3526 146.393 60.2094 145.316 57.1398 144.02L54.9434 141.773L58.5968 132.268L50.9688 125.774L53.018 121.873L55.9052 116.294L65.0656 113.282L69.4852 111.826C69.0803 117.03 69.0134 122.239 69.2878 127.454C69.2878 127.798 69.3112 128.17 69.3363 128.514C69.3614 129.108 69.3865 129.7 69.4099 130.267Z" fill="#343D56"/>
<path d="M109.958 132.267L113.613 141.772L111.415 144.019C108.345 145.315 105.202 146.393 101.983 147.252C100.28 147.697 98.5757 148.092 96.8242 148.388C97.9751 142.396 98.748 136.356 99.1444 130.267C99.1929 129.328 99.2431 128.391 99.2682 127.453C99.3167 126.811 99.3418 126.193 99.3669 125.576C99.5225 120.971 99.4238 116.371 99.0708 111.775L103.489 113.232L112.624 116.269L116.328 123.38L117.587 125.774L109.958 132.267Z" fill="#343D56"/>
<path d="M118.697 75.4837C118.695 75.1625 118.68 74.8447 118.648 74.5252C118.617 74.2074 118.57 73.8912 118.508 73.5767C118.446 73.2622 118.367 72.9528 118.275 72.6466C118.183 72.3405 118.076 72.0394 117.954 71.7433C117.832 71.4472 117.696 71.1578 117.548 70.8751C117.397 70.5924 117.233 70.3164 117.057 70.0504C116.88 69.7828 116.691 69.5252 116.49 69.2776C116.288 69.0283 116.076 68.7908 115.85 68.5633C115.626 68.3341 115.39 68.1183 115.145 67.9142C114.9 67.7085 114.644 67.5161 114.379 67.3354C114.115 67.1548 113.842 66.9892 113.561 66.8353C113.28 66.6814 112.993 66.5409 112.7 66.4154C112.405 66.2899 112.104 66.1795 111.8 66.0825C111.495 65.9855 111.186 65.9035 110.873 65.8383C110.56 65.7714 110.244 65.7195 109.926 65.6844C109.608 65.6476 109.289 65.6275 108.969 65.6225V65.6074H104.031V85.3584H108.969V85.3433C109.289 85.3383 109.608 85.3182 109.926 85.2831C110.244 85.2463 110.56 85.1944 110.873 85.1292C111.186 85.0623 111.495 84.9803 111.8 84.8833C112.104 84.7879 112.405 84.6759 112.7 84.5504C112.993 84.4249 113.28 84.2844 113.561 84.1322C113.842 83.9783 114.115 83.811 114.379 83.6303C114.644 83.4497 114.9 83.2573 115.145 83.0532C115.39 82.8475 115.626 82.6317 115.85 82.4042C116.076 82.1767 116.288 81.9375 116.49 81.6899C116.691 81.4406 116.88 81.183 117.057 80.9154C117.233 80.6494 117.397 80.375 117.548 80.0923C117.696 79.808 117.832 79.5186 117.954 79.2241C118.076 78.9281 118.183 78.627 118.275 78.3192C118.367 78.013 118.446 77.7036 118.508 77.3891C118.57 77.0763 118.617 76.7601 118.648 76.4406C118.68 76.1227 118.695 75.8032 118.697 75.4837Z" fill="#8E4A3C"/>
<path d="M59.5895 65.6074C59.2666 65.6074 58.9438 65.6242 58.6226 65.6559C58.2997 65.6877 57.9802 65.7346 57.6641 65.7981C57.3462 65.86 57.0334 65.9386 56.7239 66.0323C56.4145 66.1277 56.11 66.2364 55.8106 66.3602C55.5128 66.484 55.2201 66.6211 54.9357 66.7734C54.6497 66.9256 54.372 67.0929 54.1043 67.2719C53.835 67.4525 53.5757 67.6449 53.3248 67.849C53.0755 68.0548 52.8363 68.2722 52.6071 68.4997C52.378 68.7289 52.1622 68.9681 51.9564 69.219C51.7507 69.4683 51.5583 69.7276 51.3793 69.9969C51.1986 70.2662 51.033 70.5422 50.8808 70.8283C50.7286 71.1127 50.5897 71.4054 50.4659 71.7032C50.3422 72.0026 50.2334 72.3071 50.1397 72.6165C50.0461 72.926 49.9674 73.2388 49.9039 73.5566C49.842 73.8745 49.7935 74.194 49.7617 74.5152C49.7299 74.8364 49.7148 75.1592 49.7148 75.4837C49.7148 75.8066 49.7299 76.1294 49.7617 76.4506C49.7935 76.7735 49.842 77.093 49.9039 77.4091C49.9674 77.727 50.0461 78.0398 50.1397 78.3493C50.2334 78.6587 50.3422 78.9632 50.4659 79.2626C50.5897 79.5604 50.7286 79.8531 50.8808 80.1392C51.033 80.4236 51.1986 80.7012 51.3793 80.9689C51.5583 81.2382 51.7507 81.4975 51.9564 81.7484C52.1622 81.9977 52.378 82.2369 52.6071 82.4661C52.8363 82.6952 53.0755 82.911 53.3248 83.1168C53.5757 83.3225 53.835 83.5149 54.1043 83.6939C54.372 83.8746 54.6497 84.0402 54.9357 84.1924C55.2201 84.3446 55.5128 84.4835 55.8106 84.6073C56.11 84.7311 56.4145 84.8398 56.7239 84.9335C57.0334 85.0271 57.3462 85.1058 57.6641 85.1693C57.9802 85.2312 58.2997 85.2797 58.6226 85.3115C58.9438 85.3433 59.2666 85.3584 59.5895 85.3584H64.5276V65.6074H59.5895Z" fill="#8E4A3C"/>
<path d="M94.1533 108.041V95.8359H74.4023V108.041C75.9631 108.703 77.5757 109.203 79.2385 109.541C80.9012 109.879 82.5807 110.048 84.277 110.048C85.9732 110.048 87.6527 109.879 89.3155 109.541C90.9783 109.203 92.5909 108.703 94.1533 108.041Z" fill="#8E4A3C"/>
<path d="M57.1211 65.6077C57.1211 50.6092 59.5885 38.4512 84.2776 38.4512C108.967 38.4512 111.436 50.6092 111.436 65.6077L103.51 90.9709C103.351 91.4795 103.172 91.9796 102.975 92.4748C102.776 92.9683 102.558 93.4534 102.321 93.9301C102.083 94.4086 101.829 94.8753 101.554 95.3303C101.28 95.787 100.989 96.2319 100.68 96.6669C100.37 97.1001 100.044 97.52 99.701 97.9282C99.358 98.3347 99 98.7294 98.6253 99.1075C98.2523 99.4872 97.8642 99.8502 97.4611 100.2C97.0579 100.548 96.6431 100.879 96.2131 101.195C95.7849 101.51 95.3433 101.809 94.8899 102.088C94.4383 102.369 93.9749 102.632 93.5015 102.875C93.0281 103.119 92.5463 103.343 92.0545 103.549C91.5627 103.755 91.0642 103.94 90.559 104.106C90.0522 104.271 89.5403 104.419 89.0234 104.542C88.5048 104.668 87.9846 104.773 87.4576 104.857C86.9324 104.941 86.4037 105.004 85.8735 105.046C85.3415 105.089 84.8095 105.11 84.2776 105.11C83.7456 105.11 83.2137 105.089 82.6834 105.046C82.1514 105.004 81.6228 104.941 81.0976 104.857C80.5723 104.773 80.0504 104.668 79.5318 104.542C79.0149 104.419 78.503 104.271 77.9978 104.106C77.491 103.94 76.9925 103.755 76.5007 103.549C76.0105 103.343 75.5271 103.119 75.0537 102.875C74.5803 102.632 74.1169 102.369 73.6652 102.088C73.2119 101.809 72.772 101.51 72.342 101.195C71.9138 100.879 71.4973 100.548 71.0941 100.2C70.6927 99.8502 70.3029 99.4872 69.9298 99.1075C69.5551 98.7294 69.1972 98.3347 68.8542 97.9282C68.513 97.52 68.1868 97.1001 67.8773 96.6669C67.5678 96.2319 67.2751 95.787 67.0024 95.3303C66.7281 94.8753 66.4721 94.4086 66.2346 93.9301C65.9987 93.4534 65.7796 92.9683 65.5822 92.4748C65.3831 91.9796 65.2041 91.4795 65.0452 90.9709L57.1211 65.6077Z" fill="#BA6E5A"/>
<path d="M111.586 60.9428C111.512 60.9177 111.439 60.8926 111.34 60.8692C108.356 59.8939 105.295 59.3753 102.155 59.3134C100.912 59.3017 99.6772 59.4004 98.4527 59.6095C95.706 60.1047 92.9977 60.7638 90.3296 61.5851C88.3255 61.8912 86.3081 62.0568 84.2806 62.0786C82.2532 62.0568 80.2374 61.8912 78.2317 61.5851C74.391 60.3021 70.4498 59.5443 66.4066 59.3134C64.789 59.3335 63.1831 59.4891 61.5922 59.7818C60.1101 60.0411 58.6531 60.4024 57.2228 60.8692C57.1241 60.8926 57.0489 60.9177 56.9753 60.9428C56.358 61.1401 56.0117 61.2874 56.0117 61.2874V65.6584C56.0117 65.6584 56.1355 65.8558 56.3095 66.177C56.5303 66.5467 56.8264 67.0653 57.1241 67.6323C57.4503 68.2346 57.7464 68.8518 58.0124 69.4842C58.5042 71.5568 59.2369 73.5407 60.2088 75.4344C60.3577 75.7422 60.54 76.0316 60.7525 76.2992C61.2192 76.9767 61.7746 77.5722 62.4169 78.0858C63.061 78.5977 63.7652 79.0075 64.5297 79.3103C64.7907 79.4391 65.0617 79.5378 65.3444 79.6064C71.3682 81.3344 76.0604 79.8539 78.8992 76.1754C79.9163 74.8271 80.7075 73.3567 81.2729 71.7642C81.8367 70.1717 82.1495 68.5307 82.2064 66.8428C82.2365 66.5885 82.3101 66.3476 82.4272 66.1201C82.5443 65.8909 82.6998 65.6919 82.8905 65.5213C83.0812 65.3506 83.297 65.2201 83.5362 65.1281C83.7771 65.0378 84.0247 64.991 84.2806 64.991C84.5366 64.991 84.7858 65.0378 85.025 65.1281C85.2643 65.2201 85.4801 65.3506 85.6708 65.5213C85.8615 65.6919 86.017 65.8909 86.1341 66.1201C86.2529 66.3476 86.3265 66.5885 86.3549 66.8428C86.4135 68.5307 86.7246 70.1717 87.2884 71.7642C87.8538 73.3567 88.645 74.8271 89.6638 76.1754C92.5025 79.8539 97.1931 81.3344 103.217 79.6064C103.5 79.5378 103.771 79.4391 104.032 79.3103C104.796 79.0075 105.5 78.5977 106.144 78.0858C106.788 77.5722 107.342 76.9767 107.809 76.2992C108.023 76.0316 108.204 75.7422 108.352 75.4344C109.326 73.5407 110.059 71.5568 110.549 69.4842C110.815 68.8518 111.111 68.2346 111.439 67.6323C111.735 67.0904 112.006 66.5969 112.203 66.2255C112.426 65.8809 112.55 65.6584 112.55 65.6584V61.2874C112.55 61.2874 112.203 61.1401 111.586 60.9428ZM75.7392 77.1624C75.3261 77.425 74.8978 77.6609 74.4562 77.8666C74.0129 78.0741 73.5579 78.2514 73.0912 78.3986C72.6261 78.5475 72.1511 78.6629 71.671 78.7499C71.1892 78.8352 70.7041 78.8887 70.2156 78.9121C69.7271 78.9339 69.2387 78.9255 68.7519 78.8854C68.2651 78.8436 67.7817 78.7716 67.3049 78.6679C66.8265 78.5642 66.3581 78.4287 65.8981 78.2631C65.438 78.0992 64.9897 77.9051 64.5548 77.681C64.5381 77.681 64.5297 77.6726 64.5297 77.6559C63.9894 77.3548 63.4909 76.9951 63.0342 76.5786C62.5775 76.162 62.1727 75.6987 61.8214 75.1901C61.4701 74.6799 61.1824 74.1379 60.9566 73.5625C60.7291 72.987 60.5718 72.3932 60.4815 71.7809C60.4129 71.5952 60.3544 71.4062 60.3075 71.2122C60.0215 70.1817 59.9964 69.1446 60.2339 68.1024C60.4263 67.174 60.8227 66.3443 61.4199 65.6082C61.5989 65.3322 61.813 65.0863 62.0606 64.8672C63.2483 64.0575 64.5364 63.4637 65.9248 63.0873C67.3133 62.7109 68.7235 62.5721 70.1587 62.6708C73.8874 62.6708 79.1702 64.6698 79.8376 66.8428C79.943 67.8046 79.9313 68.7665 79.8025 69.725C79.6737 70.6836 79.4312 71.6137 79.0732 72.5136C78.7152 73.4136 78.2552 74.2567 77.6914 75.0429C77.1277 75.8291 76.477 76.5367 75.7392 77.1624ZM108.254 71.2122C108.207 71.4062 108.15 71.5952 108.081 71.7809C107.991 72.3932 107.832 72.987 107.606 73.5625C107.379 74.1379 107.091 74.6799 106.74 75.1901C106.389 75.6987 105.985 76.162 105.527 76.5786C105.07 76.9951 104.572 77.3548 104.032 77.6559C104.032 77.6726 104.023 77.681 104.007 77.681C103.572 77.9051 103.125 78.0992 102.665 78.2648C102.203 78.4287 101.735 78.5642 101.256 78.6679C100.78 78.7716 100.296 78.8436 99.8094 78.8854C99.3226 78.9255 98.8341 78.9339 98.3457 78.9121C97.8572 78.8887 97.3721 78.8352 96.892 78.7499C96.4102 78.6629 95.9368 78.5475 95.4701 78.3986C95.0034 78.2514 94.5501 78.0741 94.1068 77.8666C93.6635 77.6609 93.2352 77.425 92.8237 77.1624C92.086 76.5367 91.4353 75.8291 90.8715 75.0429C90.3061 74.2567 89.8461 73.4136 89.4881 72.5136C89.1318 71.6137 88.8876 70.6836 88.7588 69.725C88.63 68.7665 88.6183 67.8046 88.7253 66.8428C89.3911 64.6698 94.6755 62.6708 98.4026 62.6708C99.8378 62.5721 101.25 62.7109 102.636 63.0873C104.025 63.4637 105.313 64.0575 106.501 64.8672C106.748 65.0863 106.962 65.3322 107.143 65.6082C107.74 66.3443 108.135 67.174 108.327 68.1024C108.567 69.1446 108.542 70.1817 108.254 71.2122Z" fill="#212121"/>
<path d="M110.109 45.4178L107.926 46.3345C107.628 45.0682 107.078 43.9257 106.273 42.9036C102.438 38.407 79.1604 31.0015 71.8853 33.7784C71.0606 34.1246 70.2577 34.5161 69.4765 34.9527C68.6969 35.391 67.9442 35.8711 67.2182 36.3946C66.4921 36.9182 65.7979 37.482 65.1372 38.0842C64.4764 38.6881 63.8508 39.3254 63.2619 39.9996C62.6748 40.6737 62.1261 41.3796 61.6176 42.1157C61.1107 42.8534 60.6457 43.6162 60.2258 44.4058C59.8042 45.1953 59.4295 46.0067 59.1016 46.8397C58.7738 47.6728 58.4944 48.5209 58.2636 49.3841C57.469 54.4109 56.3666 63.5361 57.1177 67.6362C57.9675 71.0537 59.202 74.3241 60.818 77.4523L59.8511 62.0824C62.0742 59.2888 63.9762 56.2895 65.557 53.0877L67.2566 49.1198C68.7454 49.824 70.2928 50.3543 71.9004 50.7106C73.5063 51.0686 75.1339 51.2442 76.78 51.2359C79.1286 51.4684 81.422 51.2041 83.6569 50.443C84.1788 50.4747 84.6907 50.5617 85.1909 50.7073C85.6927 50.8511 86.1728 51.0502 86.6312 51.3011C87.0879 51.5537 87.5128 51.8515 87.9025 52.1977C88.294 52.544 88.6419 52.9288 88.948 53.3537C91.0642 56.2627 90.7011 57.253 92.9812 57.5524C95.2629 57.8502 96.454 56.4601 97.2469 56.9569C98.0415 57.4521 97.7437 59.5364 99.726 61.3213C99.9502 61.522 100.189 61.701 100.445 61.8566C100.701 62.0138 100.971 62.1443 101.25 62.2514C101.531 62.3584 101.819 62.4387 102.113 62.4923C102.409 62.5458 102.707 62.5709 103.006 62.5692C103.307 62.5675 103.604 62.5391 103.898 62.4822C104.194 62.427 104.48 62.3434 104.76 62.233C105.039 62.1242 105.307 61.9904 105.561 61.8315C105.815 61.6726 106.053 61.4919 106.273 61.2878C106.663 60.9248 106.951 60.4932 107.137 59.9931C108.03 61.2376 108.699 62.0824 108.699 62.0824L107.73 77.4523C109.346 74.3241 110.581 71.0537 111.432 67.6362C112.182 63.5361 110.902 50.443 110.109 45.4178Z" fill="#212121"/>
</g>
<defs>
<filter id="filter0_d_1656_15620" x="0.15625" y="0.292969" width="168.257" height="168.256" filterUnits="userSpaceOnUse" color-interpolation-filters="sRGB">
<feFlood flood-opacity="0" result="BackgroundImageFix"/>
<feColorMatrix in="SourceAlpha" type="matrix" values="0 0 0 0 0 0 0 0 0 0 0 0 0 0 0 0 0 0 127 0" result="hardAlpha"/>
<feOffset dy="4"/>
<feGaussianBlur stdDeviation="7.5"/>
<feComposite in2="hardAlpha" operator="out"/>
<feColorMatrix type="matrix" values="0 0 0 0 0 0 0 0 0 0 0 0 0 0 0 0 0 0 0.15 0"/>
<feBlend mode="normal" in2="BackgroundImageFix" result="effect1_dropShadow_1656_15620"/>
<feBlend mode="normal" in="SourceGraphic" in2="effect1_dropShadow_1656_15620" result="shape"/>
</filter>
</defs>
</svg>
