<svg width="64" height="64" viewBox="0 0 64 64" fill="none" xmlns="http://www.w3.org/2000/svg">
<g clip-path="url(#clip0_27_3)">
<rect width="64" height="64" fill="white"/>
<path d="M31.9996 62.1501C48.651 62.1501 62.1496 48.6515 62.1496 32.0001C62.1496 15.3487 48.651 1.8501 31.9996 1.8501C15.3482 1.8501 1.84961 15.3487 1.84961 32.0001C1.84961 48.6515 15.3482 62.1501 31.9996 62.1501Z" stroke="#484A56" stroke-width="2.3"/>
<path d="M47.6652 35.3714C47.6027 36.177 47.5402 36.986 47.4777 37.7981C47.4073 38.7155 47.3317 39.6385 47.2483 40.5669C47.1651 41.4822 47.0831 42.403 47.0039 43.3284C46.9208 44.3978 46.8429 45.466 46.7702 46.5315C46.739 47.2522 46.7025 47.9652 46.6609 48.6705C46.6609 48.6711 46.6608 48.6717 46.6608 48.6723L46.6472 48.9536C46.6127 49.6643 46.578 50.3804 46.5412 51.1007L46.541 51.1053C46.4128 53.0949 46.3661 55.0805 46.4011 57.0635L46.4012 57.0697C46.4011 57.2099 46.3898 57.3466 46.3664 57.4795C46.3664 57.4875 46.3665 57.4994 46.367 57.5162C46.3679 57.5457 46.3695 57.5794 46.3713 57.6196C46.3723 57.6411 46.3734 57.6644 46.3745 57.6899C46.3804 57.8267 46.3866 58.0113 46.3733 58.1779C46.3667 58.2609 46.3543 58.3535 46.3289 58.4401C46.3063 58.517 46.2585 58.6432 46.1443 58.7347C45.9996 58.8507 45.8248 58.8543 45.6823 58.7986C45.6359 58.7804 45.5923 58.7561 45.5516 58.728C45.5418 58.7323 45.5322 58.7367 45.5226 58.7412C45.4961 58.7537 45.472 58.7662 45.4443 58.7806L45.4364 58.7847C45.4094 58.7987 45.3704 58.8189 45.3314 58.8351C45.2786 58.8571 45.0491 58.9491 44.853 58.7701C44.7772 58.7009 44.7414 58.6179 44.7228 58.5626C44.7032 58.5042 44.6917 58.442 44.6839 58.3833L44.6821 58.3701C44.6656 58.1974 44.6665 57.7346 44.67 57.3068C44.6718 57.0839 44.6745 56.8648 44.6768 56.683C44.679 56.5017 44.6807 56.3575 44.6807 56.2836V56.2802V56.2769V56.2736V56.2703V56.267V56.2637V56.2603V56.257V56.2537V56.2504V56.2471V56.2438V56.2404V56.2371V56.2338V56.2305V56.2272V56.2239V56.2205V56.2172V56.2139V56.2106V56.2073V56.204V56.2006V56.1973V56.194V56.1907V56.1874V56.184V56.1807V56.1774V56.1741V56.1708V56.1675V56.1641V56.1608V56.1575V56.1542V56.1509V56.1476V56.1442V56.1409V56.1376V56.1343V56.131V56.1277V56.1243V56.121V56.1177V56.1144V56.1111V56.1078V56.1044V56.1011V56.0978V56.0945V56.0912V56.0879V56.0845V56.0812V56.0779V56.0746V56.0713V56.0679V56.0646V56.0613V56.058V56.0547V56.0514V56.048V56.0447V56.0414V56.0381V56.0348V56.0315V56.0281V56.0248V56.0215V56.0182V56.0149V56.0116V56.0082V56.0049V56.0016V55.9983V55.995V55.9917V55.9883V55.985V55.9817V55.9784V55.9751V55.9718V55.9684V55.9651V55.9618V55.9585V55.9552V55.9518V55.9485V55.9452V55.9419V55.9386V55.9353V55.9319V55.9286V55.9253V55.922V55.9187V55.9154V55.912V55.9087V55.9054V55.9021V55.8988V55.8955V55.8921V55.8888V55.8855V55.8822V55.8789V55.8756V55.8722V55.8689V55.8656V55.8623V55.859V55.8557V55.8523V55.849V55.8457V55.8424V55.8391V55.8358V55.8324V55.8291V55.8258V55.8225V55.8192V55.8159V55.8125V55.8092V55.8059V55.8026V55.7993V55.796V55.7926V55.7893V55.786V55.7827V55.7794V55.7761V55.7727V55.7694V55.7661V55.7628V55.7595V55.7562V55.7528V55.7495V55.7462V55.7429V55.7396V55.7363V55.7329V55.7296V55.7263V55.723V55.7197V55.7164V55.713V55.7097V55.7064V55.7031V55.6998V55.6965V55.6931V55.6898V55.6865V55.6832V55.6799V55.6766V55.6733V55.6699V55.6666V55.6633V55.66V55.6567V55.6534V55.65V55.6467V55.6434V55.6401V55.6368V55.6335V55.6301V55.6268V55.6235V55.6202V55.6169V55.6136V55.6102V55.6069V55.6036V55.6003V55.597V55.5937V55.5903V55.587V55.5837V55.5804V55.5771V55.5738V55.5705V55.5671V55.5638V55.5605V55.5572V55.5539V55.5506V55.5472V55.5439V55.5406V55.5373V55.534V55.5307V55.5273V55.524V55.5207V55.5174V55.5141V55.5108V55.5075V55.5041V55.5008V55.4975V55.4942V55.4909V55.4876V55.4842V55.4809V55.4776V55.4743V55.471V55.4677V55.4644V55.461V55.4577V55.4544V55.4511V55.4478V55.4445V55.4411V55.4378V55.4345V55.4312V55.4279V55.4246V55.4212V55.4179V55.4146V55.4113V55.408V55.4047V55.4014V55.398V55.3947V55.3914V55.3881V55.3848V55.3815V55.3782V55.3748V55.3715V55.3682V55.3649V55.3616V55.3583V55.3549V55.3516V55.3483V55.345V55.3417V55.3384V55.3351V55.3317V55.3284V55.3251V55.3218V55.3185V55.3152V55.3119V55.3085V55.3052V55.3019V55.2986V55.2953V55.292V55.2886V55.2853V55.282V55.2787V55.2754V55.2721V55.2688V55.2654V55.2621V55.2588V55.2555V55.2522V55.2489V55.2456V55.2422V55.2389V55.2356V55.2323V55.229V55.2257V55.2224V55.219V55.2157V55.2124V55.2091V55.2058V55.2025V55.1992V55.1958V55.1925V55.1892V55.1859V55.1826V55.1793V55.176V55.1726V55.1693V55.166V55.1627V55.1594V55.1561V55.1528V55.1495V55.1461V55.1428V55.1395V55.1362V55.1329V55.1296V55.1263V55.1229V55.1196V55.1163V55.113V55.1097V55.1064V55.1031V55.0997V55.0964V55.0931V55.0898V55.0865V55.0832V55.0799V55.0766V55.0732V55.0699V55.0666V55.0633V55.06V55.0567V55.0534V55.05V55.0467V55.0434V55.0401V55.0368V55.0335V55.0302V55.0269V55.0235V55.0202V55.0169V55.0136V55.0103V55.007V55.0037V55.0003V54.997V54.9937V54.9904V54.9871V54.9838V54.9805V54.9772V54.9738V54.9705V54.9672V54.9639V54.9606V54.9573V54.954V54.9507V54.9473V54.944V54.9407V54.9374V54.9341V54.9308V54.9275V54.9242V54.9208V54.9175V54.9142V54.9109V54.9076V54.9043V54.901V54.8977V54.8943V54.891V54.8877V54.8844V54.8811V54.8778V54.8745V54.8712V54.8678V54.8645V54.8612V54.8579V54.8546V54.8513V54.848V54.8447V54.8414V54.838V54.8347V54.8314V54.8281V54.8248V54.8215V54.8182V54.8149V54.8116V54.8082V54.8049V54.8016V54.7983V54.795V54.7917V54.7884V54.7851V54.7817V54.7784V54.7751V54.7718V54.7685V54.7652V54.7619V54.7586V54.7553V54.7519V54.7486V54.7453V54.742V54.7387V54.7354V54.7321V54.7288V54.7255V54.7222V54.7188V54.7155V54.7122V54.7089V54.7056V54.7023V54.699V54.6957V54.6924V54.689V54.6857V54.6824V54.6791V54.6758V54.6725V54.6692V54.6659V54.6626V54.6592V54.6559V54.6526V54.6493V54.646V54.6427V54.6394V54.6361V54.6328V54.6295V54.6261V54.6228V54.6195V54.6162V54.6129V54.6096V54.6063V54.603V54.5997V54.5964V54.593V54.5897C44.6599 53.0677 44.656 51.5357 44.6704 49.9967V49.9933C44.6979 48.5565 44.7671 47.1182 44.8796 45.6786C45.0072 43.9391 45.1426 42.2021 45.2858 40.4652C45.3756 39.4036 45.4628 38.3493 45.546 37.301C45.7542 34.6755 45.9546 32.055 46.1498 29.4422C46.2529 27.9915 46.2735 26.537 46.2116 25.0784L46.2115 25.076C46.1963 24.6486 46.1536 24.3555 46.0963 24.1761C46.0802 24.1256 46.0658 24.092 46.0546 24.0703C46.0257 24.0835 45.9788 24.1111 45.9115 24.1687C45.7767 24.2842 45.6086 24.4798 45.4078 24.7723C45.0052 25.3561 44.5463 26.1698 44.0333 27.2163C43.5225 28.2651 42.9928 29.4396 42.443 30.7391C41.8923 32.0379 41.3518 33.3565 40.8218 34.6932C40.294 36.0283 39.8053 37.2903 39.3557 38.4781C38.9085 39.6637 38.5357 40.6702 38.2386 41.4968C37.9433 42.3227 37.7435 42.8779 37.6386 43.1612L37.6368 43.166L37.6177 43.216C37.6162 43.22 37.6148 43.2238 37.6135 43.2272V43.2388L37.591 43.2984C37.0552 44.7207 36.5038 46.1364 35.9381 47.548L35.9353 47.555C35.7666 47.9514 35.5777 48.3383 35.3674 48.7173L35.3612 48.7286C35.3223 48.7931 35.2785 48.8655 35.2303 48.9463C35.0962 49.2267 34.8748 49.4252 34.5798 49.5247L34.5722 49.5273L34.5644 49.5295C34.2145 49.6299 33.8723 49.6405 33.5603 49.5194L33.5573 49.5182C33.1431 49.353 33.0031 48.9367 32.9884 48.5128L32.9883 48.5086C32.9699 47.6916 32.9778 46.8775 33.0093 46.0663L33.0095 46.0623C33.0301 45.6528 33.0457 45.2393 33.056 44.8218L33.0561 44.8175C33.1394 42.5781 33.2306 40.3386 33.3322 38.099L33.3323 38.0964C33.4117 36.5932 33.499 35.094 33.5928 33.6002C33.6682 32.4459 33.741 31.2933 33.8112 30.1416C33.8323 29.6768 33.8638 29.2146 33.9058 28.7549C33.9882 27.7969 34.0294 26.8337 34.0294 25.8653C34.0294 25.7342 34.035 25.6009 34.0462 25.4666L34.0466 25.4615C34.0676 25.247 34.1424 25.0344 34.3136 24.8781C34.4853 24.7214 34.7042 24.6667 34.9208 24.6667C35.1399 24.6667 35.3591 24.7258 35.5297 24.8879C35.6973 25.0471 35.7717 25.262 35.7947 25.4798L35.7955 25.4871C35.8344 25.9486 35.8463 26.4185 35.8329 26.8954V26.8965C35.8185 27.3594 35.7939 27.8221 35.7602 28.2832V28.2843V28.2855V28.2867V28.2877V28.2889V28.2901V28.2913V28.2925V28.2937V28.2947V28.2959V28.2971V28.2983V28.2995V28.3007V28.3018V28.303V28.3042V28.3052V28.3064V28.3075V28.3085V28.3097V28.3109V28.312V28.3132V28.3144V28.3155V28.3167V28.3179V28.319V28.3202V28.3213V28.3225V28.3236V28.3246V28.3257V28.3267V28.3278V28.3288V28.3299V28.3309V28.332V28.333V28.3341V28.3351V28.3362V28.3372V28.3383V28.3394V28.3406V28.3417V28.3428V28.3439V28.3451V28.3462V28.3473V28.3484V28.3496V28.3507V28.3518V28.3529V28.354V28.3551V28.3562V28.3572V28.3583V28.3594V28.3605V28.3616V28.3627V28.3638V28.3649V28.366V28.3671V28.3682V28.3693V28.3825L35.7592 28.3957C35.7176 28.9467 35.6773 29.5065 35.6397 30.074L35.6392 30.0812C35.5874 30.6756 35.5407 31.2752 35.4992 31.8788C35.3457 34.7095 35.1974 37.5404 35.0517 40.3714L35.0516 40.3725C34.9476 42.2732 34.854 44.174 34.7708 46.0773C34.7693 46.1261 34.7684 46.172 34.768 46.2151C34.7818 46.1906 34.7959 46.1648 34.8105 46.1378C35.0216 45.7458 35.2454 45.2619 35.4818 44.6827C35.7229 44.0955 35.946 43.5351 36.1505 43.0031C36.3543 42.467 36.5024 42.0701 36.5947 41.8101C36.6209 41.7342 36.6433 41.6717 36.6611 41.6275C36.9883 40.7414 37.3665 39.6574 37.7957 38.3735L37.7962 38.372C38.2408 37.0616 38.7296 35.6683 39.2612 34.1908M47.6652 35.3714L39.5905 34.3093ZM47.6652 35.3714C47.738 34.3976 47.8134 33.4217 47.8939 32.4447C47.9985 31.3086 48.0743 30.1726 48.1239 29.0357L47.6652 35.3714ZM39.2612 34.1908L39.5905 34.3093ZM39.2612 34.1908C39.2613 34.1907 39.2612 34.1909 39.2612 34.1908L39.5905 34.3093ZM39.2612 34.1908C39.7941 32.707 40.3598 31.2479 40.9594 29.8121ZM39.5905 34.3093C40.1215 32.8308 40.6851 31.377 41.2825 29.9467ZM40.9594 29.8121L41.2825 29.9467ZM40.9594 29.8121C41.5595 28.3696 42.1792 27.0681 42.8189 25.9097ZM40.9594 29.8121C40.9594 29.8122 40.9594 29.812 40.9594 29.8121L41.2825 29.9467ZM41.2825 29.9467L42.8189 25.9097ZM42.8189 25.9097C43.4595 24.7448 44.1233 23.8154 44.8143 23.1348C45.0284 22.9166 45.2616 22.734 45.5149 22.5855L45.5213 22.5818L45.5278 22.5783C46.0386 22.3072 46.5568 22.24 47.0433 22.4515C47.5436 22.6649 47.8328 23.1072 47.9504 23.6806C48.0824 24.3139 48.1525 24.9577 48.1607 25.6142C48.1607 25.6149 48.1607 25.6156 48.1607 25.6163L47.8107 25.6206C47.8381 26.7529 47.8263 27.8852 47.7743 29.0201L42.8189 25.9097Z" fill="#484A56"/>
<path d="M47.6652 35.3714C47.6027 36.177 47.5402 36.986 47.4777 37.7981C47.4073 38.7155 47.3317 39.6385 47.2483 40.5669C47.1651 41.4822 47.0831 42.403 47.0039 43.3284C46.9208 44.3978 46.8429 45.466 46.7702 46.5315C46.739 47.2522 46.7025 47.9652 46.6609 48.6705C46.6609 48.6711 46.6608 48.6717 46.6608 48.6723L46.6472 48.9536C46.6127 49.6643 46.578 50.3804 46.5412 51.1007L46.541 51.1053C46.4128 53.0949 46.3661 55.0805 46.4011 57.0635L46.4012 57.0697C46.4011 57.2099 46.3898 57.3466 46.3664 57.4795C46.3664 57.4875 46.3665 57.4994 46.367 57.5162C46.3679 57.5457 46.3695 57.5794 46.3713 57.6196C46.3723 57.6411 46.3734 57.6644 46.3745 57.6899C46.3804 57.8267 46.3866 58.0113 46.3733 58.1779C46.3667 58.2609 46.3543 58.3535 46.3289 58.4401C46.3063 58.517 46.2585 58.6432 46.1443 58.7347C45.9996 58.8507 45.8248 58.8543 45.6823 58.7986C45.6359 58.7804 45.5923 58.7561 45.5516 58.728C45.5418 58.7323 45.5322 58.7367 45.5226 58.7412C45.4961 58.7537 45.472 58.7662 45.4443 58.7806L45.4364 58.7847C45.4094 58.7987 45.3704 58.8189 45.3314 58.8351C45.2786 58.8571 45.0491 58.9491 44.853 58.7701C44.7772 58.7009 44.7414 58.6179 44.7228 58.5626C44.7032 58.5042 44.6917 58.442 44.6839 58.3833L44.6821 58.3701C44.6656 58.1974 44.6665 57.7346 44.67 57.3068C44.6718 57.0839 44.6745 56.8648 44.6768 56.683C44.679 56.5017 44.6807 56.3575 44.6807 56.2836V56.2802V56.2769V56.2736V56.2703V56.267V56.2637V56.2603V56.257V56.2537V56.2504V56.2471V56.2438V56.2404V56.2371V56.2338V56.2305V56.2272V56.2239V56.2205V56.2172V56.2139V56.2106V56.2073V56.204V56.2006V56.1973V56.194V56.1907V56.1874V56.184V56.1807V56.1774V56.1741V56.1708V56.1675V56.1641V56.1608V56.1575V56.1542V56.1509V56.1476V56.1442V56.1409V56.1376V56.1343V56.131V56.1277V56.1243V56.121V56.1177V56.1144V56.1111V56.1078V56.1044V56.1011V56.0978V56.0945V56.0912V56.0879V56.0845V56.0812V56.0779V56.0746V56.0713V56.0679V56.0646V56.0613V56.058V56.0547V56.0514V56.048V56.0447V56.0414V56.0381V56.0348V56.0315V56.0281V56.0248V56.0215V56.0182V56.0149V56.0116V56.0082V56.0049V56.0016V55.9983V55.995V55.9917V55.9883V55.985V55.9817V55.9784V55.9751V55.9718V55.9684V55.9651V55.9618V55.9585V55.9552V55.9518V55.9485V55.9452V55.9419V55.9386V55.9353V55.9319V55.9286V55.9253V55.922V55.9187V55.9154V55.912V55.9087V55.9054V55.9021V55.8988V55.8955V55.8921V55.8888V55.8855V55.8822V55.8789V55.8756V55.8722V55.8689V55.8656V55.8623V55.859V55.8557V55.8523V55.849V55.8457V55.8424V55.8391V55.8358V55.8324V55.8291V55.8258V55.8225V55.8192V55.8159V55.8125V55.8092V55.8059V55.8026V55.7993V55.796V55.7926V55.7893V55.786V55.7827V55.7794V55.7761V55.7727V55.7694V55.7661V55.7628V55.7595V55.7562V55.7528V55.7495V55.7462V55.7429V55.7396V55.7363V55.7329V55.7296V55.7263V55.723V55.7197V55.7164V55.713V55.7097V55.7064V55.7031V55.6998V55.6965V55.6931V55.6898V55.6865V55.6832V55.6799V55.6766V55.6733V55.6699V55.6666V55.6633V55.66V55.6567V55.6534V55.65V55.6467V55.6434V55.6401V55.6368V55.6335V55.6301V55.6268V55.6235V55.6202V55.6169V55.6136V55.6102V55.6069V55.6036V55.6003V55.597V55.5937V55.5903V55.587V55.5837V55.5804V55.5771V55.5738V55.5705V55.5671V55.5638V55.5605V55.5572V55.5539V55.5506V55.5472V55.5439V55.5406V55.5373V55.534V55.5307V55.5273V55.524V55.5207V55.5174V55.5141V55.5108V55.5075V55.5041V55.5008V55.4975V55.4942V55.4909V55.4876V55.4842V55.4809V55.4776V55.4743V55.471V55.4677V55.4644V55.461V55.4577V55.4544V55.4511V55.4478V55.4445V55.4411V55.4378V55.4345V55.4312V55.4279V55.4246V55.4212V55.4179V55.4146V55.4113V55.408V55.4047V55.4014V55.398V55.3947V55.3914V55.3881V55.3848V55.3815V55.3782V55.3748V55.3715V55.3682V55.3649V55.3616V55.3583V55.3549V55.3516V55.3483V55.345V55.3417V55.3384V55.3351V55.3317V55.3284V55.3251V55.3218V55.3185V55.3152V55.3119V55.3085V55.3052V55.3019V55.2986V55.2953V55.292V55.2886V55.2853V55.282V55.2787V55.2754V55.2721V55.2688V55.2654V55.2621V55.2588V55.2555V55.2522V55.2489V55.2456V55.2422V55.2389V55.2356V55.2323V55.229V55.2257V55.2224V55.219V55.2157V55.2124V55.2091V55.2058V55.2025V55.1992V55.1958V55.1925V55.1892V55.1859V55.1826V55.1793V55.176V55.1726V55.1693V55.166V55.1627V55.1594V55.1561V55.1528V55.1495V55.1461V55.1428V55.1395V55.1362V55.1329V55.1296V55.1263V55.1229V55.1196V55.1163V55.113V55.1097V55.1064V55.1031V55.0997V55.0964V55.0931V55.0898V55.0865V55.0832V55.0799V55.0766V55.0732V55.0699V55.0666V55.0633V55.06V55.0567V55.0534V55.05V55.0467V55.0434V55.0401V55.0368V55.0335V55.0302V55.0269V55.0235V55.0202V55.0169V55.0136V55.0103V55.007V55.0037V55.0003V54.997V54.9937V54.9904V54.9871V54.9838V54.9805V54.9772V54.9738V54.9705V54.9672V54.9639V54.9606V54.9573V54.954V54.9507V54.9473V54.944V54.9407V54.9374V54.9341V54.9308V54.9275V54.9242V54.9208V54.9175V54.9142V54.9109V54.9076V54.9043V54.901V54.8977V54.8943V54.891V54.8877V54.8844V54.8811V54.8778V54.8745V54.8712V54.8678V54.8645V54.8612V54.8579V54.8546V54.8513V54.848V54.8447V54.8414V54.838V54.8347V54.8314V54.8281V54.8248V54.8215V54.8182V54.8149V54.8116V54.8082V54.8049V54.8016V54.7983V54.795V54.7917V54.7884V54.7851V54.7817V54.7784V54.7751V54.7718V54.7685V54.7652V54.7619V54.7586V54.7553V54.7519V54.7486V54.7453V54.742V54.7387V54.7354V54.7321V54.7288V54.7255V54.7222V54.7188V54.7155V54.7122V54.7089V54.7056V54.7023V54.699V54.6957V54.6924V54.689V54.6857V54.6824V54.6791V54.6758V54.6725V54.6692V54.6659V54.6626V54.6592V54.6559V54.6526V54.6493V54.646V54.6427V54.6394V54.6361V54.6328V54.6295V54.6261V54.6228V54.6195V54.6162V54.6129V54.6096V54.6063V54.603V54.5997V54.5964V54.593V54.5897C44.6599 53.0677 44.656 51.5357 44.6704 49.9967V49.9933C44.6979 48.5565 44.7671 47.1182 44.8796 45.6786C45.0072 43.9391 45.1426 42.2021 45.2858 40.4652C45.3756 39.4036 45.4628 38.3493 45.546 37.301C45.7542 34.6755 45.9546 32.055 46.1498 29.4422C46.2529 27.9915 46.2735 26.537 46.2116 25.0784L46.2115 25.076C46.1963 24.6486 46.1536 24.3555 46.0963 24.1761C46.0802 24.1256 46.0658 24.092 46.0546 24.0703C46.0257 24.0835 45.9788 24.1111 45.9115 24.1687C45.7767 24.2842 45.6086 24.4798 45.4078 24.7723C45.0052 25.3561 44.5463 26.1698 44.0333 27.2163C43.5225 28.2651 42.9928 29.4396 42.443 30.7391C41.8923 32.0379 41.3518 33.3565 40.8218 34.6932C40.294 36.0283 39.8053 37.2903 39.3557 38.4781C38.9085 39.6637 38.5357 40.6702 38.2386 41.4968C37.9433 42.3227 37.7435 42.8779 37.6386 43.1612L37.6368 43.166L37.6177 43.216C37.6162 43.22 37.6148 43.2238 37.6135 43.2272V43.2388L37.591 43.2984C37.0552 44.7207 36.5038 46.1364 35.9381 47.548L35.9353 47.555C35.7666 47.9514 35.5777 48.3383 35.3674 48.7173L35.3612 48.7286C35.3223 48.7931 35.2785 48.8655 35.2303 48.9463C35.0962 49.2267 34.8748 49.4252 34.5798 49.5247L34.5722 49.5273L34.5644 49.5295C34.2145 49.6299 33.8723 49.6405 33.5603 49.5194L33.5573 49.5182C33.1431 49.353 33.0031 48.9367 32.9884 48.5128L32.9883 48.5086C32.9699 47.6916 32.9778 46.8775 33.0093 46.0663L33.0095 46.0623C33.0301 45.6528 33.0457 45.2393 33.056 44.8218L33.0561 44.8175C33.1394 42.5781 33.2306 40.3386 33.3322 38.099L33.3323 38.0964C33.4117 36.5932 33.499 35.094 33.5928 33.6002C33.6682 32.4459 33.741 31.2933 33.8112 30.1416C33.8323 29.6768 33.8638 29.2146 33.9058 28.7549C33.9882 27.7969 34.0294 26.8337 34.0294 25.8653C34.0294 25.7342 34.035 25.6009 34.0462 25.4666L34.0466 25.4615C34.0676 25.247 34.1424 25.0344 34.3136 24.8781C34.4853 24.7214 34.7042 24.6667 34.9208 24.6667C35.1399 24.6667 35.3591 24.7258 35.5297 24.8879C35.6973 25.0471 35.7717 25.262 35.7947 25.4798L35.7955 25.4871C35.8344 25.9486 35.8463 26.4185 35.8329 26.8954V26.8965C35.8185 27.3594 35.7939 27.8221 35.7602 28.2832V28.2843V28.2855V28.2867V28.2877V28.2889V28.2901V28.2913V28.2925V28.2937V28.2947V28.2959V28.2971V28.2983V28.2995V28.3007V28.3018V28.303V28.3042V28.3052V28.3064V28.3075V28.3085V28.3097V28.3109V28.312V28.3132V28.3144V28.3155V28.3167V28.3179V28.319V28.3202V28.3213V28.3225V28.3236V28.3246V28.3257V28.3267V28.3278V28.3288V28.3299V28.3309V28.332V28.333V28.3341V28.3351V28.3362V28.3372V28.3383V28.3394V28.3406V28.3417V28.3428V28.3439V28.3451V28.3462V28.3473V28.3484V28.3496V28.3507V28.3518V28.3529V28.354V28.3551V28.3562V28.3572V28.3583V28.3594V28.3605V28.3616V28.3627V28.3638V28.3649V28.366V28.3671V28.3682V28.3693V28.3825L35.7592 28.3957C35.7176 28.9467 35.6773 29.5065 35.6397 30.074L35.6392 30.0812C35.5874 30.6756 35.5407 31.2752 35.4992 31.8788C35.3457 34.7095 35.1974 37.5404 35.0517 40.3714L35.0516 40.3725C34.9476 42.2732 34.854 44.174 34.7708 46.0773C34.7693 46.1261 34.7684 46.172 34.768 46.2151C34.7818 46.1906 34.7959 46.1648 34.8105 46.1378C35.0216 45.7458 35.2454 45.2619 35.4818 44.6827C35.7229 44.0955 35.946 43.5351 36.1505 43.0031C36.3543 42.467 36.5024 42.0701 36.5947 41.8101C36.6209 41.7342 36.6433 41.6717 36.6611 41.6275C36.9883 40.7414 37.3665 39.6574 37.7957 38.3735L37.7962 38.372C38.2408 37.0616 38.7296 35.6683 39.2612 34.1908M47.6652 35.3714L39.5905 34.3093M47.6652 35.3714C47.738 34.3976 47.8134 33.4217 47.8939 32.4447C47.9985 31.3086 48.0743 30.1726 48.1239 29.0357L47.6652 35.3714ZM39.2612 34.1908L39.5905 34.3093M39.2612 34.1908C39.2612 34.1909 39.2613 34.1907 39.2612 34.1908ZM39.2612 34.1908C39.7941 32.707 40.3598 31.2479 40.9594 29.8121M39.5905 34.3093C40.1215 32.8308 40.6851 31.377 41.2825 29.9467M40.9594 29.8121L41.2825 29.9467M40.9594 29.8121C41.5595 28.3696 42.1792 27.0681 42.8189 25.9097M40.9594 29.8121C40.9594 29.812 40.9594 29.8122 40.9594 29.8121ZM41.2825 29.9467L42.8189 25.9097M42.8189 25.9097C43.4595 24.7448 44.1233 23.8154 44.8143 23.1348C45.0284 22.9166 45.2616 22.734 45.5149 22.5855L45.5213 22.5818L45.5278 22.5783C46.0386 22.3072 46.5568 22.24 47.0433 22.4515C47.5436 22.6649 47.8328 23.1072 47.9504 23.6806C48.0824 24.3139 48.1525 24.9577 48.1607 25.6142C48.1607 25.6149 48.1607 25.6156 48.1607 25.6163L47.8107 25.6206C47.8381 26.7529 47.8263 27.8852 47.7743 29.0201L42.8189 25.9097ZM34.4913 46.605C34.4913 46.605 34.4918 46.6047 34.4926 46.6042M46.031 24.0344C46.031 24.0342 46.0325 24.0353 46.0351 24.0385" stroke="#484A56" stroke-width="0.7"/>
<path d="M50.54 25.9914C49.6312 25.8852 49.9164 25.933 48.997 25.933C48.5914 25.9198 48.1793 25.9065 47.7605 25.8959C43.9587 25.7406 40.1463 25.6994 36.3207 25.7738C36.1305 25.7738 35.9733 25.7738 35.8505 25.7738C35.6417 25.7605 35.4911 25.7618 35.396 25.7791C35.3009 25.7976 35.2243 25.8507 35.1688 25.9383C35.112 26.0273 35.0447 26.1706 34.968 26.3684C34.9152 26.4852 34.8531 26.6285 34.7831 26.7984C34.1451 28.1933 33.5599 29.6109 33.0288 31.0509C32.6827 31.9827 32.4159 32.9356 32.2257 33.9125C32.1543 34.2204 32.1305 34.5177 32.1517 34.8044C32.1728 35.0938 32.3009 35.3526 32.5374 35.5795C32.5718 35.6034 32.585 35.6339 32.5744 35.6698C32.5665 35.7043 32.5453 35.7388 32.511 35.7707C32.4793 35.8025 32.4436 35.8237 32.4053 35.8344C31.8373 35.9193 31.4978 35.7149 31.3855 35.2238C31.3181 34.9478 31.3062 34.6637 31.3485 34.3744C31.3485 34.3492 31.3485 34.3319 31.3485 34.3213C31.3908 33.8222 31.478 33.3245 31.6127 32.8295C31.7501 32.3384 31.9007 31.842 32.0671 31.3429C32.6061 29.8564 33.1979 28.3884 33.8426 26.9364C33.8769 26.8727 33.9033 26.8117 33.9218 26.7506C33.9535 26.6803 33.9879 26.6059 34.0275 26.5276C34.0803 26.4215 34.1279 26.3179 34.1702 26.2144C34.2124 26.1082 34.2296 25.9994 34.223 25.8852C34.1702 25.8428 34.1173 25.8162 34.0645 25.8056C34.0116 25.795 33.9588 25.795 33.906 25.8056C33.898 25.8056 33.8875 25.8056 33.8743 25.8056C33.4264 25.8056 32.9773 25.8109 32.5268 25.8215C32.4027 25.8215 32.2732 25.8215 32.1358 25.8215C31.9667 25.8295 31.8254 25.8799 31.7131 25.9755C31.5995 26.0711 31.4912 26.1879 31.3855 26.3259C31.2481 26.5037 31.1107 26.6803 30.9734 26.8568C30.3882 27.608 29.8003 28.3486 29.2085 29.0813C28.3274 30.151 27.408 31.1823 26.4503 32.1764C25.4952 33.1666 24.4807 34.0957 23.4067 34.9637C22.0567 36.0812 20.6247 37.0661 19.1108 37.9155C16.7925 39.1645 14.3632 39.7551 11.8242 39.6887C9.43324 39.6356 7.27473 38.9879 5.35137 37.7456C4.80976 37.3952 4.32892 36.9732 3.90884 36.4821C3.63143 36.1343 3.41083 35.76 3.24835 35.3566C3.08322 34.9531 3 34.5151 3 34.0452C3.02114 33.4745 3.15059 32.9476 3.38573 32.4631C3.62219 31.9787 3.94979 31.5394 4.36855 31.1465C4.94318 30.5877 5.57329 30.1152 6.26021 29.729C6.92996 29.3361 7.62083 28.9937 8.33153 28.699C9.03958 28.4057 9.75556 28.1456 10.4768 27.9186C11.6472 27.5403 12.8269 27.2218 14.0171 26.963C15.2113 26.7055 16.4081 26.4852 17.6102 26.3047C20.4596 25.9091 23.3169 25.6463 26.1808 25.5189C27.6418 25.4273 29.0989 25.3809 30.5506 25.3809C30.9522 25.3915 31.2613 25.2243 31.4806 24.8765C31.8637 24.3323 32.2494 23.7855 32.6378 23.236C33.2428 22.3972 33.8373 21.5425 34.4185 20.6718C37.1371 16.5984 39.7408 12.4574 42.2282 8.24859C42.4356 7.89156 42.6404 7.52922 42.8412 7.16024C42.9363 6.9731 43.0367 6.7833 43.1423 6.59218C43.2652 6.35194 43.6351 5.60309 43.9032 5.57389C44.0512 5.57389 44.5009 5.48894 44.5683 5.57389C44.6383 5.65618 44.1304 6.50723 44.0776 6.64527C44.0274 6.75941 43.9693 6.86825 43.9032 6.97443C43.4977 7.70044 43.1384 8.43441 42.8253 9.17767C42.7051 9.44047 42.5888 9.69796 42.4766 9.95279C41.3801 12.3419 40.2798 14.7349 39.1741 17.1306C38.3286 18.9782 37.4753 20.8297 36.6166 22.6839C36.3696 23.2334 36.1252 23.7802 35.8822 24.3244C35.8293 24.4385 35.7765 24.5474 35.7236 24.6535C35.7131 24.6788 35.7038 24.7053 35.6972 24.7332C35.6616 24.8075 35.6338 24.8818 35.6127 24.9562C35.5915 25.0305 35.5982 25.1035 35.6338 25.1738C35.7038 25.2269 35.7871 25.2574 35.8822 25.2641C35.9773 25.2681 36.0645 25.2694 36.1464 25.2694C36.2124 25.2588 36.2705 25.2535 36.3207 25.2535C36.7144 25.2641 37.1107 25.2641 37.5096 25.2535C38.0512 25.2535 38.5955 25.2588 39.1424 25.2694C42.104 25.3225 45.071 25.3862 48.0406 25.4605C49.0128 25.4818 49.9798 25.5229 50.9415 25.5826C51.026 25.5932 51.1159 25.5986 51.211 25.5986C51.2638 25.5986 51.3193 25.5986 51.3801 25.5986C51.5029 25.5986 51.3609 25.5773 51.4772 25.5986C51.5934 25.6198 60.5984 25.7618 60.7041 25.8215C60.7213 25.8361 52.104 25.7897 52.1145 25.8215C52.1251 25.8534 60.4187 25.9742 60.4082 25.9914C60.4082 26.0273 52.1 25.9635 52.0723 25.9914C60.7041 25.8959 60.7213 26.0857 60.7041 26.0923C60.6195 26.1281 50.6352 25.9914 50.54 25.9914ZM30.5031 26.1719C30.5348 26.1056 30.5374 26.0445 30.5136 25.9914C30.4885 25.9383 30.445 25.9118 30.3815 25.9118C30.2864 25.9012 30.186 25.9012 30.0804 25.9118C30.0302 25.9118 29.98 25.9118 29.9271 25.9118C26.3406 25.9543 22.7528 26.2025 19.1637 26.655C17.7898 26.8223 16.4226 27.0413 15.0633 27.3134C13.7066 27.5868 12.3619 27.9279 11.0264 28.338C10.3157 28.5583 9.61289 28.8105 8.91805 29.0972C8.22453 29.3812 7.54818 29.717 6.889 30.1059C6.19945 30.4922 5.57197 30.9647 5.00791 31.5234C4.35005 32.207 3.97754 32.9317 3.89299 33.7001C3.80845 34.4713 4.01452 35.2145 4.51122 35.9299C4.87449 36.4316 5.31174 36.8617 5.82164 37.22C7.67103 38.5433 9.87709 39.2162 12.4372 39.2375C13.0924 39.2375 13.844 39.1525 14.6934 38.9826C15.5389 38.8048 16.3552 38.5446 17.1452 38.2022C17.9338 37.8624 18.6987 37.4603 19.4384 36.997C21.2667 35.8675 22.9589 34.5509 24.5163 33.0471C25.5943 32.0318 26.6101 30.9633 27.5652 29.8405C28.5189 28.715 29.4463 27.5709 30.3446 26.4055C30.3974 26.3206 30.4502 26.2436 30.5031 26.1719ZM34.8624 24.6907C35.5493 23.1166 36.2586 21.5451 36.9918 19.9763C37.0235 19.8913 37.1318 19.6458 37.3194 19.2383C37.5096 18.8322 37.7263 18.357 37.9693 17.8155C38.215 17.274 38.4409 16.763 38.6457 16.2812C38.8491 15.7968 38.9918 15.4344 39.0737 15.1928C39.1582 14.9526 39.1331 14.9301 38.9997 15.1238C38.968 15.1703 38.9416 15.2141 38.9204 15.2566C38.8068 15.4238 38.6985 15.5897 38.5928 15.7556C37.7263 17.1121 36.8518 18.4659 35.972 19.817C35.0949 21.1655 34.186 22.4968 33.2455 23.8094C33.153 23.9342 33.0605 24.0642 32.9654 24.2023C32.7858 24.4505 32.6074 24.7 32.4317 24.9508C32.3604 25.057 32.3419 25.146 32.3736 25.2163C32.4053 25.284 32.4766 25.3172 32.5902 25.3172C32.7805 25.3172 32.9667 25.3119 33.1503 25.3012C33.4462 25.28 33.7382 25.2694 34.0275 25.2694C34.2521 25.2774 34.4264 25.2296 34.5506 25.126C34.6735 25.0199 34.7778 24.8752 34.8624 24.6907Z" fill="#484A56"/>
<mask id="mask0_27_3" style="mask-type:luminance" maskUnits="userSpaceOnUse" x="1" y="3" width="62" height="39">
<path d="M62 4.53662H2V40.5366H62V4.53662Z" fill="white" stroke="#484A56" stroke-width="1.4"/>
<path d="M50.54 25.9918C49.6312 25.8856 49.9164 25.9334 48.997 25.9334C48.5914 25.9202 48.1793 25.9069 47.7605 25.8963C43.9587 25.741 40.1463 25.6998 36.3207 25.7742C36.1305 25.7742 35.9733 25.7742 35.8505 25.7742C35.6417 25.7609 35.4911 25.7622 35.396 25.7795C35.3009 25.798 35.2243 25.8511 35.1688 25.9387C35.112 26.0277 35.0447 26.171 34.968 26.3688C34.9152 26.4856 34.8531 26.6289 34.7831 26.7988C34.1451 28.1937 33.5599 29.6113 33.0288 31.0513C32.6827 31.9831 32.4159 32.936 32.2257 33.9129C32.1543 34.2208 32.1305 34.5181 32.1517 34.8048C32.1728 35.0942 32.3009 35.353 32.5374 35.5799C32.5718 35.6038 32.585 35.6343 32.5744 35.6702C32.5665 35.7047 32.5453 35.7392 32.511 35.7711C32.4793 35.8029 32.4436 35.8241 32.4053 35.8348C31.8373 35.9197 31.4978 35.7153 31.3855 35.2242C31.3181 34.9482 31.3062 34.6641 31.3485 34.3748C31.3485 34.3496 31.3485 34.3323 31.3485 34.3217C31.3908 33.8226 31.478 33.3249 31.6127 32.8299C31.7501 32.3388 31.9007 31.8424 32.0671 31.3433C32.6061 29.8568 33.1979 28.3888 33.8426 26.9368C33.8769 26.8731 33.9033 26.8121 33.9218 26.751C33.9535 26.6807 33.9879 26.6063 34.0275 26.528C34.0803 26.4219 34.1279 26.3183 34.1702 26.2148C34.2124 26.1086 34.2296 25.9998 34.223 25.8856C34.1702 25.8432 34.1173 25.8166 34.0645 25.806C34.0116 25.7954 33.9588 25.7954 33.906 25.806C33.898 25.806 33.8875 25.806 33.8743 25.806C33.4264 25.806 32.9773 25.8113 32.5268 25.8219C32.4027 25.8219 32.2732 25.8219 32.1358 25.8219C31.9667 25.8299 31.8254 25.8803 31.7131 25.9759C31.5995 26.0715 31.4912 26.1883 31.3855 26.3263C31.2481 26.5041 31.1107 26.6807 30.9734 26.8572C30.3882 27.6084 29.8003 28.349 29.2085 29.0817C28.3274 30.1514 27.408 31.1827 26.4503 32.1768C25.4952 33.167 24.4807 34.0961 23.4067 34.9641C22.0567 36.0816 20.6247 37.0665 19.1108 37.9159C16.7925 39.1649 14.3632 39.7555 11.8242 39.6891C9.43324 39.636 7.27473 38.9883 5.35137 37.746C4.80976 37.3956 4.32892 36.9736 3.90884 36.4825C3.63143 36.1347 3.41083 35.7604 3.24835 35.357C3.08322 34.9535 3 34.5155 3 34.0456C3.02114 33.4749 3.15059 32.948 3.38573 32.4635C3.62219 31.9791 3.94979 31.5398 4.36855 31.1469C4.94318 30.5881 5.57329 30.1156 6.26021 29.7294C6.92996 29.3365 7.62083 28.9941 8.33153 28.6994C9.03958 28.4061 9.75556 28.146 10.4768 27.919C11.6472 27.5407 12.8269 27.2222 14.0171 26.9634C15.2113 26.7059 16.4081 26.4856 17.6102 26.3051C20.4596 25.9095 23.3169 25.6467 26.1808 25.5193C27.6418 25.4277 29.0989 25.3813 30.5506 25.3813C30.9522 25.3919 31.2613 25.2247 31.4806 24.8769C31.8637 24.3327 32.2494 23.7859 32.6378 23.2364C33.2428 22.3976 33.8373 21.5429 34.4185 20.6722C37.1371 16.5988 39.7408 12.4578 42.2282 8.24908C42.4356 7.89205 42.6404 7.52971 42.8412 7.16073C42.9363 6.97359 43.0367 6.78379 43.1423 6.59267C43.2652 6.35243 43.6351 5.60358 43.9032 5.57438C44.0512 5.57438 44.5009 5.48943 44.5683 5.57438C44.6383 5.65667 44.1304 6.50772 44.0776 6.64576C44.0274 6.7599 43.9693 6.86874 43.9032 6.97492C43.4977 7.70093 43.1384 8.4349 42.8253 9.17816C42.7051 9.44096 42.5888 9.69845 42.4766 9.95328C41.3801 12.3423 40.2798 14.7353 39.1741 17.131C38.3286 18.9786 37.4753 20.8301 36.6166 22.6843C36.3696 23.2338 36.1252 23.7806 35.8822 24.3248C35.8293 24.4389 35.7765 24.5478 35.7236 24.6539C35.7131 24.6792 35.7038 24.7057 35.6972 24.7336C35.6616 24.8079 35.6338 24.8822 35.6127 24.9566C35.5915 25.0309 35.5982 25.1039 35.6338 25.1742C35.7038 25.2273 35.7871 25.2578 35.8822 25.2645C35.9773 25.2685 36.0645 25.2698 36.1464 25.2698C36.2124 25.2592 36.2705 25.2539 36.3207 25.2539C36.7144 25.2645 37.1107 25.2645 37.5096 25.2539C38.0512 25.2539 38.5955 25.2592 39.1424 25.2698C42.104 25.3229 45.071 25.3866 48.0406 25.4609C49.0128 25.4822 49.9798 25.5233 50.9415 25.583C51.026 25.5936 51.1159 25.599 51.211 25.599C51.2638 25.599 51.3193 25.599 51.3801 25.599C51.5029 25.599 51.3609 25.5777 51.4772 25.599C51.5934 25.6202 60.5984 25.7622 60.7041 25.8219C60.7213 25.8365 52.104 25.7901 52.1145 25.8219C52.1251 25.8538 60.4187 25.9746 60.4082 25.9918C60.4082 26.0277 52.1 25.9639 52.0723 25.9918C60.7041 25.8963 60.7213 26.0861 60.7041 26.0927C60.6195 26.1285 50.6352 25.9918 50.54 25.9918ZM30.5031 26.1723C30.5348 26.106 30.5374 26.0449 30.5136 25.9918C30.4885 25.9387 30.445 25.9122 30.3815 25.9122C30.2864 25.9016 30.186 25.9016 30.0804 25.9122C30.0302 25.9122 29.98 25.9122 29.9271 25.9122C26.3406 25.9547 22.7528 26.2029 19.1637 26.6554C17.7898 26.8227 16.4226 27.0417 15.0633 27.3138C13.7066 27.5872 12.3619 27.9283 11.0264 28.3384C10.3157 28.5587 9.61289 28.8109 8.91805 29.0976C8.22453 29.3816 7.54818 29.7174 6.889 30.1063C6.19945 30.4926 5.57197 30.9651 5.00791 31.5238C4.35005 32.2074 3.97754 32.9321 3.89299 33.7005C3.80845 34.4717 4.01452 35.2149 4.51122 35.9303C4.87449 36.432 5.31174 36.8621 5.82164 37.2204C7.67103 38.5437 9.87709 39.2166 12.4372 39.2379C13.0924 39.2379 13.844 39.1529 14.6934 38.983C15.5389 38.8052 16.3552 38.545 17.1452 38.2026C17.9338 37.8628 18.6987 37.4607 19.4384 36.9974C21.2667 35.8679 22.9589 34.5513 24.5163 33.0475C25.5943 32.0322 26.6101 30.9637 27.5652 29.8409C28.5189 28.7154 29.4463 27.5713 30.3446 26.4059C30.3974 26.321 30.4502 26.244 30.5031 26.1723ZM34.8624 24.6911C35.5493 23.117 36.2586 21.5455 36.9918 19.9767C37.0235 19.8917 37.1318 19.6462 37.3194 19.2387C37.5096 18.8326 37.7263 18.3574 37.9693 17.8159C38.215 17.2744 38.4409 16.7634 38.6457 16.2816C38.8491 15.7972 38.9918 15.4348 39.0737 15.1932C39.1582 14.953 39.1331 14.9305 38.9997 15.1242C38.968 15.1707 38.9416 15.2145 38.9204 15.257C38.8068 15.4242 38.6985 15.5901 38.5928 15.756C37.7263 17.1125 36.8518 18.4663 35.972 19.8174C35.0949 21.1659 34.186 22.4972 33.2455 23.8098C33.153 23.9346 33.0605 24.0646 32.9654 24.2027C32.7858 24.4509 32.6074 24.7004 32.4317 24.9512C32.3604 25.0574 32.3419 25.1464 32.3736 25.2167C32.4053 25.2844 32.4766 25.3176 32.5902 25.3176C32.7805 25.3176 32.9667 25.3123 33.1503 25.3016C33.4462 25.2804 33.7382 25.2698 34.0275 25.2698C34.2521 25.2778 34.4264 25.23 34.5506 25.1264C34.6735 25.0203 34.7778 24.8756 34.8624 24.6911Z" stroke="#484A56" stroke-width="1.4"/>
</mask>
<g mask="url(#mask0_27_3)">
<path d="M50.54 25.9918C49.6312 25.8856 49.9164 25.9334 48.997 25.9334C48.5914 25.9202 48.1793 25.9069 47.7605 25.8963C43.9587 25.741 40.1463 25.6998 36.3207 25.7742C36.1305 25.7742 35.9733 25.7742 35.8505 25.7742C35.6417 25.7609 35.4911 25.7622 35.396 25.7795C35.3009 25.798 35.2243 25.8511 35.1688 25.9387C35.112 26.0277 35.0447 26.171 34.968 26.3688C34.9152 26.4856 34.8531 26.6289 34.7831 26.7988C34.1451 28.1937 33.5599 29.6113 33.0288 31.0513C32.6827 31.9831 32.4159 32.936 32.2257 33.9129C32.1543 34.2208 32.1305 34.5181 32.1517 34.8048C32.1728 35.0942 32.3009 35.353 32.5374 35.5799C32.5718 35.6038 32.585 35.6343 32.5744 35.6702C32.5665 35.7047 32.5453 35.7392 32.511 35.7711C32.4793 35.8029 32.4436 35.8241 32.4053 35.8348C31.8373 35.9197 31.4978 35.7153 31.3855 35.2242C31.3181 34.9482 31.3062 34.6641 31.3485 34.3748C31.3485 34.3496 31.3485 34.3323 31.3485 34.3217C31.3908 33.8226 31.478 33.3249 31.6127 32.8299C31.7501 32.3388 31.9007 31.8424 32.0671 31.3433C32.6061 29.8568 33.1979 28.3888 33.8426 26.9368C33.8769 26.8731 33.9033 26.8121 33.9218 26.751C33.9535 26.6807 33.9879 26.6063 34.0275 26.528C34.0803 26.4219 34.1279 26.3183 34.1702 26.2148C34.2124 26.1086 34.2296 25.9998 34.223 25.8856C34.1702 25.8432 34.1173 25.8166 34.0645 25.806C34.0116 25.7954 33.9588 25.7954 33.906 25.806C33.898 25.806 33.8875 25.806 33.8743 25.806C33.4264 25.806 32.9773 25.8113 32.5268 25.8219C32.4027 25.8219 32.2732 25.8219 32.1358 25.8219C31.9667 25.8299 31.8254 25.8803 31.7131 25.9759C31.5995 26.0715 31.4912 26.1883 31.3855 26.3263C31.2481 26.5041 31.1107 26.6807 30.9734 26.8572C30.3882 27.6084 29.8003 28.349 29.2085 29.0817C28.3274 30.1514 27.408 31.1827 26.4503 32.1768C25.4952 33.167 24.4807 34.0961 23.4067 34.9641C22.0567 36.0816 20.6247 37.0665 19.1108 37.9159C16.7925 39.1649 14.3632 39.7555 11.8242 39.6891C9.43324 39.636 7.27473 38.9883 5.35137 37.746C4.80976 37.3956 4.32892 36.9736 3.90884 36.4825C3.63143 36.1347 3.41083 35.7604 3.24835 35.357C3.08322 34.9535 3 34.5155 3 34.0456C3.02114 33.4749 3.15059 32.948 3.38573 32.4635C3.62219 31.9791 3.94979 31.5398 4.36855 31.1469C4.94318 30.5881 5.57329 30.1156 6.26021 29.7294C6.92996 29.3365 7.62083 28.9941 8.33153 28.6994C9.03958 28.4061 9.75556 28.146 10.4768 27.919C11.6472 27.5407 12.8269 27.2222 14.0171 26.9634C15.2113 26.7059 16.4081 26.4856 17.6102 26.3051C20.4596 25.9095 23.3169 25.6467 26.1808 25.5193C27.6418 25.4277 29.0989 25.3813 30.5506 25.3813C30.9522 25.3919 31.2613 25.2247 31.4806 24.8769C31.8637 24.3327 32.2494 23.7859 32.6378 23.2364C33.2428 22.3976 33.8373 21.5429 34.4185 20.6722C37.1371 16.5988 39.7408 12.4578 42.2282 8.24908C42.4356 7.89205 42.6404 7.52971 42.8412 7.16073C42.9363 6.97359 43.0367 6.78379 43.1423 6.59267C43.2652 6.35243 43.6351 5.60358 43.9032 5.57438C44.0512 5.57438 44.5009 5.48943 44.5683 5.57438C44.6383 5.65667 44.1304 6.50772 44.0776 6.64576C44.0274 6.7599 43.9693 6.86874 43.9032 6.97492C43.4977 7.70093 43.1384 8.4349 42.8253 9.17816C42.7051 9.44096 42.5888 9.69845 42.4766 9.95328C41.3801 12.3423 40.2798 14.7353 39.1741 17.131C38.3286 18.9786 37.4753 20.8301 36.6166 22.6843C36.3696 23.2338 36.1252 23.7806 35.8822 24.3248C35.8293 24.4389 35.7765 24.5478 35.7236 24.6539C35.7131 24.6792 35.7038 24.7057 35.6972 24.7336C35.6616 24.8079 35.6338 24.8822 35.6127 24.9566C35.5915 25.0309 35.5982 25.1039 35.6338 25.1742C35.7038 25.2273 35.7871 25.2578 35.8822 25.2645C35.9773 25.2685 36.0645 25.2698 36.1464 25.2698C36.2124 25.2592 36.2705 25.2539 36.3207 25.2539C36.7144 25.2645 37.1107 25.2645 37.5096 25.2539C38.0512 25.2539 38.5955 25.2592 39.1424 25.2698C42.104 25.3229 45.071 25.3866 48.0406 25.4609C49.0128 25.4822 49.9798 25.5233 50.9415 25.583C51.026 25.5936 51.1159 25.599 51.211 25.599C51.2638 25.599 51.3193 25.599 51.3801 25.599C51.5029 25.599 51.3609 25.5777 51.4772 25.599C51.5934 25.6202 60.5984 25.7622 60.7041 25.8219C60.7213 25.8365 52.104 25.7901 52.1145 25.8219C52.1251 25.8538 60.4187 25.9746 60.4082 25.9918C60.4082 26.0277 52.1 25.9639 52.0723 25.9918C60.7041 25.8963 60.7213 26.0861 60.7041 26.0927C60.6195 26.1285 50.6352 25.9918 50.54 25.9918ZM30.5031 26.1723C30.5348 26.106 30.5374 26.0449 30.5136 25.9918C30.4885 25.9387 30.445 25.9122 30.3815 25.9122C30.2864 25.9016 30.186 25.9016 30.0804 25.9122C30.0302 25.9122 29.98 25.9122 29.9271 25.9122C26.3406 25.9547 22.7528 26.2029 19.1637 26.6554C17.7898 26.8227 16.4226 27.0417 15.0633 27.3138C13.7066 27.5872 12.3619 27.9283 11.0264 28.3384C10.3157 28.5587 9.61289 28.8109 8.91805 29.0976C8.22453 29.3816 7.54818 29.7174 6.889 30.1063C6.19945 30.4926 5.57197 30.9651 5.00791 31.5238C4.35005 32.2074 3.97754 32.9321 3.89299 33.7005C3.80845 34.4717 4.01452 35.2149 4.51122 35.9303C4.87449 36.432 5.31174 36.8621 5.82164 37.2204C7.67103 38.5437 9.87709 39.2166 12.4372 39.2379C13.0924 39.2379 13.844 39.1529 14.6934 38.983C15.5389 38.8052 16.3552 38.545 17.1452 38.2026C17.9338 37.8628 18.6987 37.4607 19.4384 36.9974C21.2667 35.8679 22.9589 34.5513 24.5163 33.0475C25.5943 32.0322 26.6101 30.9637 27.5652 29.8409C28.5189 28.7154 29.4463 27.5713 30.3446 26.4059C30.3974 26.321 30.4502 26.244 30.5031 26.1723ZM34.8624 24.6911C35.5493 23.117 36.2586 21.5455 36.9918 19.9767C37.0235 19.8917 37.1318 19.6462 37.3194 19.2387C37.5096 18.8326 37.7263 18.3574 37.9693 17.8159C38.215 17.2744 38.4409 16.7634 38.6457 16.2816C38.8491 15.7972 38.9918 15.4348 39.0737 15.1932C39.1582 14.953 39.1331 14.9305 38.9997 15.1242C38.968 15.1707 38.9416 15.2145 38.9204 15.257C38.8068 15.4242 38.6985 15.5901 38.5928 15.756C37.7263 17.1125 36.8518 18.4663 35.972 19.8174C35.0949 21.1659 34.186 22.4972 33.2455 23.8098C33.153 23.9346 33.0605 24.0646 32.9654 24.2027C32.7858 24.4509 32.6074 24.7004 32.4317 24.9512C32.3604 25.0574 32.3419 25.1464 32.3736 25.2167C32.4053 25.2844 32.4766 25.3176 32.5902 25.3176C32.7805 25.3176 32.9667 25.3123 33.1503 25.3016C33.4462 25.2804 33.7382 25.2698 34.0275 25.2698C34.2521 25.2778 34.4264 25.23 34.5506 25.1264C34.6735 25.0203 34.7778 24.8756 34.8624 24.6911Z" stroke="#484A56" stroke-width="1.4"/>
</g>
</g>
<defs>
<clipPath id="clip0_27_3">
<rect width="64" height="64" fill="white"/>
</clipPath>
</defs>
</svg>
