<svg width="256" height="64" viewBox="0 0 256 64" fill="none" xmlns="http://www.w3.org/2000/svg">
<circle cx="32" cy="32" r="30.15" stroke="#484A56" stroke-width="2.3"/>
<path d="M47.6648 35.3716L47.6647 35.3725C47.6022 36.1781 47.5398 36.9862 47.4773 37.7983C47.4069 38.7157 47.3313 39.6387 47.2479 40.5671L47.2478 40.5675C47.1646 41.4828 47.0827 42.4032 47.0035 43.3286C46.9204 44.398 46.8425 45.4662 46.7698 46.5317C46.7386 47.2524 46.7021 47.9654 46.6605 48.6707C46.6605 48.6713 46.6604 48.6719 46.6604 48.6725L46.6468 48.9538C46.6123 49.6645 46.5776 50.3806 46.5408 51.1009L46.5406 51.1055L46.5405 51.1055C46.4123 53.0951 46.3657 55.0807 46.4007 57.0637L46.4008 57.0699C46.4007 57.2101 46.3894 57.3468 46.366 57.4797C46.366 57.4877 46.3661 57.4996 46.3666 57.5164C46.3675 57.5459 46.3691 57.5796 46.3709 57.6198C46.3719 57.6413 46.373 57.6646 46.3741 57.6901C46.38 57.8269 46.3862 58.0115 46.3729 58.1781C46.3663 58.2611 46.3539 58.3537 46.3285 58.4403C46.3059 58.5172 46.2581 58.6434 46.1439 58.7349C45.9992 58.8509 45.8244 58.8545 45.6819 58.7988C45.6355 58.7806 45.5919 58.7563 45.5512 58.7282C45.5414 58.7325 45.5318 58.7369 45.5222 58.7414C45.4957 58.7539 45.4716 58.7664 45.4439 58.7808L45.436 58.7849C45.409 58.7989 45.37 58.8191 45.331 58.8353C45.2782 58.8573 45.0487 58.9493 44.8526 58.7703C44.7768 58.7011 44.741 58.6181 44.7224 58.5628C44.7028 58.5044 44.6913 58.4422 44.6835 58.3835L44.6817 58.3703L44.6819 58.3703C44.6654 58.1976 44.6661 57.7348 44.6696 57.307C44.6714 57.0841 44.6741 56.865 44.6764 56.6832C44.6786 56.5019 44.6803 56.3577 44.6803 56.2838V56.2804V56.2771V56.2738V56.2705V56.2672V56.2639V56.2605V56.2572V56.2539V56.2506V56.2473V56.244V56.2406V56.2373V56.234V56.2307V56.2274V56.2241V56.2207V56.2174V56.2141V56.2108V56.2075V56.2042V56.2008V56.1975V56.1942V56.1909V56.1876V56.1842V56.1809V56.1776V56.1743V56.171V56.1677V56.1643V56.161V56.1577V56.1544V56.1511V56.1478V56.1444V56.1411V56.1378V56.1345V56.1312V56.1279V56.1245V56.1212V56.1179V56.1146V56.1113V56.108V56.1046V56.1013V56.098V56.0947V56.0914V56.0881V56.0847V56.0814V56.0781V56.0748V56.0715V56.0681V56.0648V56.0615V56.0582V56.0549V56.0516V56.0482V56.0449V56.0416V56.0383V56.035V56.0317V56.0283V56.025V56.0217V56.0184V56.0151V56.0118V56.0084V56.0051V56.0018V55.9985V55.9952V55.9919V55.9885V55.9852V55.9819V55.9786V55.9753V55.972V55.9686V55.9653V55.962V55.9587V55.9554V55.952V55.9487V55.9454V55.9421V55.9388V55.9355V55.9321V55.9288V55.9255V55.9222V55.9189V55.9156V55.9122V55.9089V55.9056V55.9023V55.899V55.8957V55.8923V55.889V55.8857V55.8824V55.8791V55.8758V55.8724V55.8691V55.8658V55.8625V55.8592V55.8559V55.8525V55.8492V55.8459V55.8426V55.8393V55.836V55.8326V55.8293V55.826V55.8227V55.8194V55.8161V55.8127V55.8094V55.8061V55.8028V55.7995V55.7962V55.7928V55.7895V55.7862V55.7829V55.7796V55.7763V55.7729V55.7696V55.7663V55.763V55.7597V55.7564V55.753V55.7497V55.7464V55.7431V55.7398V55.7365V55.7331V55.7298V55.7265V55.7232V55.7199V55.7166V55.7132V55.7099V55.7066V55.7033V55.7V55.6967V55.6933V55.69V55.6867V55.6834V55.6801V55.6768V55.6735V55.6701V55.6668V55.6635V55.6602V55.6569V55.6536V55.6502V55.6469V55.6436V55.6403V55.637V55.6337V55.6303V55.627V55.6237V55.6204V55.6171V55.6138V55.6104V55.6071V55.6038V55.6005V55.5972V55.5939V55.5905V55.5872V55.5839V55.5806V55.5773V55.574V55.5707V55.5673V55.564V55.5607V55.5574V55.5541V55.5508V55.5474V55.5441V55.5408V55.5375V55.5342V55.5309V55.5275V55.5242V55.5209V55.5176V55.5143V55.511V55.5077V55.5043V55.501V55.4977V55.4944V55.4911V55.4878V55.4844V55.4811V55.4778V55.4745V55.4712V55.4679V55.4646V55.4612V55.4579V55.4546V55.4513V55.448V55.4447V55.4413V55.438V55.4347V55.4314V55.4281V55.4248V55.4214V55.4181V55.4148V55.4115V55.4082V55.4049V55.4016V55.3982V55.3949V55.3916V55.3883V55.385V55.3817V55.3784V55.375V55.3717V55.3684V55.3651V55.3618V55.3585V55.3551V55.3518V55.3485V55.3452V55.3419V55.3386V55.3353V55.3319V55.3286V55.3253V55.322V55.3187V55.3154V55.3121V55.3087V55.3054V55.3021V55.2988V55.2955V55.2922V55.2888V55.2855V55.2822V55.2789V55.2756V55.2723V55.269V55.2656V55.2623V55.259V55.2557V55.2524V55.2491V55.2458V55.2424V55.2391V55.2358V55.2325V55.2292V55.2259V55.2226V55.2192V55.2159V55.2126V55.2093V55.206V55.2027V55.1994V55.196V55.1927V55.1894V55.1861V55.1828V55.1795V55.1762V55.1728V55.1695V55.1662V55.1629V55.1596V55.1563V55.153V55.1497V55.1463V55.143V55.1397V55.1364V55.1331V55.1298V55.1265V55.1231V55.1198V55.1165V55.1132V55.1099V55.1066V55.1033V55.0999V55.0966V55.0933V55.09V55.0867V55.0834V55.0801V55.0768V55.0734V55.0701V55.0668V55.0635V55.0602V55.0569V55.0536V55.0502V55.0469V55.0436V55.0403V55.037V55.0337V55.0304V55.0271V55.0237V55.0204V55.0171V55.0138V55.0105V55.0072V55.0039V55.0005V54.9972V54.9939V54.9906V54.9873V54.984V54.9807V54.9774V54.974V54.9707V54.9674V54.9641V54.9608V54.9575V54.9542V54.9509V54.9475V54.9442V54.9409V54.9376V54.9343V54.931V54.9277V54.9244V54.921V54.9177V54.9144V54.9111V54.9078V54.9045V54.9012V54.8979V54.8945V54.8912V54.8879V54.8846V54.8813V54.878V54.8747V54.8714V54.868V54.8647V54.8614V54.8581V54.8548V54.8515V54.8482V54.8449V54.8416V54.8382V54.8349V54.8316V54.8283V54.825V54.8217V54.8184V54.8151V54.8118V54.8084V54.8051V54.8018V54.7985V54.7952V54.7919V54.7886V54.7853V54.7819V54.7786V54.7753V54.772V54.7687V54.7654V54.7621V54.7588V54.7555V54.7521V54.7488V54.7455V54.7422V54.7389V54.7356V54.7323V54.729V54.7257V54.7224V54.719V54.7157V54.7124V54.7091V54.7058V54.7025V54.6992V54.6959V54.6926V54.6892V54.6859V54.6826V54.6793V54.676V54.6727V54.6694V54.6661V54.6628V54.6594V54.6561V54.6528V54.6495V54.6462V54.6429V54.6396V54.6363V54.633V54.6297V54.6263V54.623V54.6197V54.6164V54.6131V54.6098V54.6065V54.6032V54.5999V54.5966V54.5932V54.5899V54.589C44.6595 53.067 44.6556 51.5359 44.67 49.9969L44.67 49.9935H44.67C44.6975 48.5567 44.7667 47.1184 44.8792 45.6788C45.0068 43.9393 45.1422 42.2023 45.2854 40.4654L45.2855 40.4647C45.3753 39.4031 45.4624 38.3495 45.5456 37.3012C45.7538 34.6757 45.9542 32.0552 46.1494 29.4424C46.2525 27.9917 46.2731 26.5372 46.2112 25.0786L46.2111 25.0762C46.1959 24.6488 46.1532 24.3557 46.0959 24.1763C46.0798 24.1258 46.0654 24.0922 46.0542 24.0705C46.0253 24.0837 45.9784 24.1113 45.9111 24.1689C45.7763 24.2844 45.6082 24.48 45.4074 24.7725L45.407 24.7731C45.0044 25.3569 44.5459 26.17 44.0329 27.2165C43.5221 28.2653 42.9924 29.4398 42.4426 30.7393L42.4425 30.7395C41.8918 32.0383 41.3514 33.3567 40.8214 34.6934C40.2936 36.0285 39.8049 37.2905 39.3553 38.4783C38.9081 39.6639 38.5353 40.6704 38.2382 41.497C37.9429 42.3229 37.7431 42.8781 37.6382 43.1614L37.6364 43.1662L37.6363 43.1662L37.6173 43.2162C37.6158 43.2202 37.6144 43.224 37.6131 43.2274V43.239L37.5906 43.2986C37.0548 44.7209 36.5034 46.1366 35.9377 47.5482L35.9349 47.5552L35.9348 47.5551C35.7661 47.9515 35.5773 48.3385 35.367 48.7175L35.3608 48.7288L35.3606 48.7286C35.3217 48.7931 35.2781 48.8657 35.2299 48.9465C35.0958 49.2269 34.8744 49.4254 34.5794 49.5249L34.5718 49.5275L34.564 49.5297C34.2141 49.6301 33.8719 49.6407 33.5599 49.5196L33.5569 49.5184C33.1427 49.3532 33.0027 48.9369 32.988 48.513L32.9879 48.5088L32.9879 48.5088C32.9695 47.6918 32.9774 46.8777 33.0089 46.0665L33.0091 46.0625L33.0091 46.0625C33.0297 45.653 33.0453 45.2395 33.0556 44.822L33.0557 44.8177L33.0557 44.8177C33.139 42.5783 33.2302 40.3388 33.3318 38.0992L33.3319 38.0966L33.3319 38.0966C33.4113 36.5934 33.4986 35.0942 33.5924 33.6004L33.5924 33.5995C33.6678 32.4452 33.7406 31.2935 33.8108 30.1418C33.8319 29.677 33.8634 29.2148 33.9054 28.7551C33.9878 27.7971 34.029 26.8339 34.029 25.8655C34.029 25.7344 34.0346 25.6011 34.0458 25.4668L34.0462 25.4617L34.0463 25.4617C34.0673 25.2472 34.142 25.0346 34.3132 24.8783C34.4849 24.7216 34.7038 24.6669 34.9204 24.6669C35.1395 24.6669 35.3587 24.726 35.5293 24.8881C35.6969 25.0473 35.7713 25.2622 35.7943 25.48L35.7951 25.4873L35.795 25.4873C35.8339 25.9488 35.8459 26.4187 35.8325 26.8956L35.8325 26.8967C35.8181 27.3596 35.7935 27.8223 35.7598 28.2834V28.2835V28.2837V28.2839V28.2841V28.2843V28.2845V28.2847V28.2849V28.2851V28.2853V28.2855V28.2857V28.2859V28.2861V28.2863V28.2865V28.2867V28.2869V28.2871V28.2873V28.2875V28.2877V28.2879V28.2881V28.2883V28.2885V28.2887V28.2889V28.2891V28.2893V28.2895V28.2897V28.2899V28.2901V28.2903V28.2905V28.2907V28.2909V28.2911V28.2913V28.2915V28.2917V28.2919V28.2921V28.2923V28.2925V28.2927V28.2929V28.2931V28.2933V28.2935V28.2937V28.2939V28.2941V28.2943V28.2945V28.2947V28.2949V28.2951V28.2953V28.2955V28.2957V28.2959V28.2961V28.2963V28.2965V28.2967V28.2969V28.2971V28.2973V28.2975V28.2977V28.2979V28.2981V28.2983V28.2985V28.2987V28.2989V28.2991V28.2993V28.2995V28.2997V28.2999V28.3001V28.3003V28.3005V28.3007V28.3009V28.301V28.3012V28.3014V28.3016V28.3018V28.302V28.3022V28.3024V28.3026V28.3028V28.303V28.3032V28.3034V28.3036V28.3038V28.304V28.3042V28.3044V28.3046V28.3048V28.305V28.3052V28.3054V28.3056V28.3058V28.306V28.3062V28.3064V28.3066V28.3068V28.307V28.3071V28.3073V28.3075V28.3077V28.3079V28.3081V28.3083V28.3085V28.3087V28.3089V28.3091V28.3093V28.3095V28.3097V28.3099V28.3101V28.3103V28.3105V28.3107V28.3109V28.3111V28.3113V28.3115V28.3116V28.3118V28.312V28.3122V28.3124V28.3126V28.3128V28.313V28.3132V28.3134V28.3136V28.3138V28.314V28.3142V28.3144V28.3146V28.3148V28.315V28.3151V28.3153V28.3155V28.3157V28.3159V28.3161V28.3163V28.3165V28.3167V28.3169V28.3171V28.3173V28.3175V28.3177V28.3179V28.3181V28.3182V28.3184V28.3186V28.3188V28.319V28.3192V28.3194V28.3196V28.3198V28.32V28.3202V28.3204V28.3206V28.3208V28.3209V28.3211V28.3213V28.3215V28.3217V28.3219V28.3221V28.3223V28.3225V28.3227V28.3229V28.3231V28.3233V28.3234V28.3236V28.3238V28.324V28.3242V28.3244V28.3246V28.3248V28.325V28.3252V28.3254V28.3256V28.3257V28.3259V28.3261V28.3263V28.3265V28.3267V28.3269V28.3271V28.3273V28.3275V28.3277V28.3279V28.328V28.3282V28.3284V28.3286V28.3288V28.329V28.3292V28.3294V28.3296V28.3298V28.33V28.3301V28.3303V28.3305V28.3307V28.3309V28.3311V28.3313V28.3315V28.3317V28.3319V28.332V28.3322V28.3324V28.3326V28.3328V28.333V28.3332V28.3334V28.3336V28.3338V28.3339V28.3341V28.3343V28.3345V28.3347V28.3349V28.3351V28.3353V28.3355V28.3357V28.3358V28.336V28.3362V28.3364V28.3366V28.3368V28.337V28.3372V28.3374V28.3375V28.3377V28.3379V28.3381V28.3383V28.3385V28.3387V28.3389V28.3391V28.3392V28.3394V28.3396V28.3398V28.34V28.3402V28.3404V28.3406V28.3408V28.3409V28.3411V28.3413V28.3415V28.3417V28.3419V28.3421V28.3423V28.3424V28.3426V28.3428V28.343V28.3432V28.3434V28.3436V28.3438V28.344V28.3441V28.3443V28.3445V28.3447V28.3449V28.3451V28.3453V28.3455V28.3456V28.3458V28.346V28.3462V28.3464V28.3466V28.3468V28.3469V28.3471V28.3473V28.3475V28.3477V28.3479V28.3481V28.3483V28.3484V28.3486V28.3488V28.349V28.3492V28.3494V28.3496V28.3498V28.3499V28.3501V28.3503V28.3505V28.3507V28.3509V28.3511V28.3512V28.3514V28.3516V28.3518V28.352V28.3522V28.3524V28.3525V28.3527V28.3529V28.3531V28.3533V28.3535V28.3537V28.3538V28.354V28.3542V28.3544V28.3546V28.3548V28.355V28.3551V28.3553V28.3555V28.3557V28.3559V28.3561V28.3563V28.3564V28.3566V28.3568V28.357V28.3572V28.3574V28.3576V28.3577V28.3579V28.3581V28.3583V28.3585V28.3587V28.3588V28.359V28.3592V28.3594V28.3596V28.3598V28.36V28.3601V28.3603V28.3605V28.3607V28.3609V28.3611V28.3612V28.3614V28.3616V28.3618V28.362V28.3622V28.3624V28.3625V28.3627V28.3629V28.3631V28.3633V28.3635V28.3636V28.3638V28.364V28.3642V28.3644V28.3646V28.3647V28.3649V28.3651V28.3653V28.3655V28.3657V28.3659V28.366V28.3662V28.3664V28.3666V28.3668V28.367V28.3671V28.3673V28.3675V28.3677V28.3679V28.3681V28.3682V28.3684V28.3686V28.3688V28.369V28.3692V28.3693V28.3695V28.3827L35.7588 28.3959C35.7172 28.9469 35.6769 29.5067 35.6393 30.0742L35.6388 30.0814L35.6387 30.0814C35.5869 30.6758 35.5403 31.2754 35.4988 31.879C35.3453 34.7097 35.197 37.5406 35.0513 40.3716L35.0512 40.3727C34.9472 42.2734 34.8536 44.1742 34.7704 46.0775C34.7689 46.1263 34.768 46.1722 34.7676 46.2153C34.7814 46.1908 34.7955 46.165 34.8101 46.138C35.0212 45.746 35.245 45.2621 35.4814 44.6829L35.4817 44.6821C35.7228 44.0949 35.9456 43.5353 36.1501 43.0033C36.3539 42.4672 36.502 42.0703 36.5943 41.8103C36.6205 41.7344 36.6429 41.6719 36.6607 41.6277C36.9879 40.7416 37.3661 39.6576 37.7953 38.3737L37.7958 38.3722C38.2404 37.0618 38.7292 35.6685 39.2608 34.191M47.6648 35.3716L39.5901 34.3095M47.6648 35.3716C47.7376 34.3978 47.813 33.4219 47.8935 32.4449C47.9981 31.3088 48.0739 30.1728 48.1235 29.0359L47.6648 35.3716ZM39.2608 34.191L39.5901 34.3095M39.2608 34.191C39.2608 34.1911 39.2608 34.1911 39.2607 34.1912L39.5901 34.3095M39.2608 34.191C39.7937 32.7072 40.3594 31.2481 40.959 29.8123M39.5901 34.3095C40.1211 32.831 40.6847 31.3772 41.2821 29.9469M40.959 29.8123C40.959 29.8123 40.9589 29.8124 40.9589 29.8125L41.2821 29.9469M40.959 29.8123C41.5591 28.3698 42.1788 27.0683 42.8185 25.9099M40.959 29.8123C40.959 29.8122 40.9591 29.8121 40.9591 29.812L41.2821 29.9469M41.2821 29.9469L42.8185 25.9099M42.8185 25.9099C43.4591 24.745 44.1229 23.8156 44.8139 23.135C45.028 22.9168 45.2612 22.7342 45.5145 22.5857L45.5209 22.582L45.5274 22.5785C46.0382 22.3074 46.5564 22.2402 47.0429 22.4517C47.5432 22.6651 47.8324 23.1074 47.95 23.6808C48.082 24.3141 48.1521 24.9579 48.1603 25.6144C48.1603 25.6151 48.1603 25.6158 48.1603 25.6165L47.8103 25.6208C47.8377 26.7531 47.8259 27.8854 47.7739 29.0203L42.8185 25.9099ZM34.4909 46.6052C34.4909 46.6052 34.4914 46.6049 34.4922 46.6044L34.4909 46.6052ZM46.0306 24.0346C46.0306 24.0344 46.0321 24.0355 46.0347 24.0387C46.0318 24.0364 46.0305 24.0348 46.0306 24.0346Z" fill="#484A56" stroke="#484A56" stroke-width="0.7"/>
<mask id="path-3-outside-1_1633_10036" maskUnits="userSpaceOnUse" x="2" y="4.53638" width="60" height="36" fill="black">
<rect fill="white" x="2" y="4.53638" width="60" height="36"/>
<path d="M50.54 25.9916C49.6312 25.8854 49.9164 25.9332 48.997 25.9332C48.5914 25.92 48.1793 25.9067 47.7605 25.8961C43.9587 25.7408 40.1463 25.6996 36.3207 25.774C36.1305 25.774 35.9733 25.774 35.8505 25.774C35.6417 25.7607 35.4911 25.762 35.396 25.7793C35.3009 25.7978 35.2243 25.8509 35.1688 25.9385C35.112 26.0275 35.0447 26.1708 34.968 26.3686C34.9152 26.4854 34.8531 26.6287 34.7831 26.7986C34.1451 28.1935 33.5599 29.6111 33.0288 31.0511C32.6827 31.9829 32.4159 32.9358 32.2257 33.9127C32.1543 34.2206 32.1305 34.5179 32.1517 34.8046C32.1728 35.094 32.3009 35.3528 32.5374 35.5797C32.5718 35.6036 32.585 35.6341 32.5744 35.67C32.5665 35.7045 32.5453 35.739 32.511 35.7709C32.4793 35.8027 32.4436 35.8239 32.4053 35.8346C31.8373 35.9195 31.4978 35.7151 31.3855 35.224C31.3181 34.948 31.3062 34.6639 31.3485 34.3746C31.3485 34.3494 31.3485 34.3321 31.3485 34.3215C31.3908 33.8224 31.478 33.3247 31.6127 32.8297C31.7501 32.3386 31.9007 31.8422 32.0671 31.3431C32.6061 29.8566 33.1979 28.3886 33.8426 26.9366C33.8769 26.8729 33.9033 26.8119 33.9218 26.7508C33.9535 26.6805 33.9879 26.6061 34.0275 26.5278C34.0803 26.4217 34.1279 26.3181 34.1702 26.2146C34.2124 26.1084 34.2296 25.9996 34.223 25.8854C34.1702 25.843 34.1173 25.8164 34.0645 25.8058C34.0116 25.7952 33.9588 25.7952 33.906 25.8058C33.898 25.8058 33.8875 25.8058 33.8743 25.8058C33.4264 25.8058 32.9773 25.8111 32.5268 25.8217C32.4027 25.8217 32.2732 25.8217 32.1358 25.8217C31.9667 25.8297 31.8254 25.8801 31.7131 25.9757C31.5995 26.0713 31.4912 26.1881 31.3855 26.3261C31.2481 26.5039 31.1107 26.6805 30.9734 26.857C30.3882 27.6082 29.8003 28.3488 29.2085 29.0815C28.3274 30.1512 27.408 31.1825 26.4503 32.1766C25.4952 33.1668 24.4807 34.0959 23.4067 34.9639C22.0567 36.0814 20.6247 37.0663 19.1108 37.9157C16.7925 39.1647 14.3632 39.7553 11.8242 39.6889C9.43324 39.6358 7.27473 38.9881 5.35137 37.7458C4.80976 37.3954 4.32892 36.9734 3.90884 36.4823C3.63143 36.1345 3.41083 35.7602 3.24835 35.3568C3.08322 34.9533 3 34.5153 3 34.0454C3.02114 33.4747 3.15059 32.9478 3.38573 32.4633C3.62219 31.9789 3.94979 31.5396 4.36855 31.1467C4.94318 30.5879 5.57329 30.1154 6.26021 29.7292C6.92996 29.3363 7.62083 28.9939 8.33153 28.6992C9.03958 28.4059 9.75556 28.1458 10.4768 27.9188C11.6472 27.5405 12.8269 27.222 14.0171 26.9632C15.2113 26.7057 16.4081 26.4854 17.6102 26.3049C20.4596 25.9093 23.3169 25.6465 26.1808 25.5191C27.6418 25.4275 29.0989 25.3811 30.5506 25.3811C30.9522 25.3917 31.2613 25.2245 31.4806 24.8767C31.8637 24.3325 32.2494 23.7857 32.6378 23.2362C33.2428 22.3974 33.8373 21.5427 34.4185 20.672C37.1371 16.5986 39.7408 12.4576 42.2282 8.24883C42.4356 7.8918 42.6404 7.52946 42.8412 7.16048C42.9363 6.97334 43.0367 6.78354 43.1423 6.59242C43.2652 6.35218 43.6351 5.60333 43.9032 5.57413C44.0512 5.57413 44.5009 5.48918 44.5683 5.57413C44.6383 5.65642 44.1304 6.50747 44.0776 6.64551C44.0274 6.75965 43.9693 6.86849 43.9032 6.97467C43.4977 7.70068 43.1384 8.43465 42.8253 9.17791C42.7051 9.44071 42.5888 9.6982 42.4766 9.95303C41.3801 12.3421 40.2798 14.7351 39.1741 17.1308C38.3286 18.9784 37.4753 20.8299 36.6166 22.6841C36.3696 23.2336 36.1252 23.7804 35.8822 24.3246C35.8293 24.4387 35.7765 24.5476 35.7236 24.6537C35.7131 24.679 35.7038 24.7055 35.6972 24.7334C35.6616 24.8077 35.6338 24.882 35.6127 24.9564C35.5915 25.0307 35.5982 25.1037 35.6338 25.174C35.7038 25.2271 35.7871 25.2576 35.8822 25.2643C35.9773 25.2683 36.0645 25.2696 36.1464 25.2696C36.2124 25.259 36.2705 25.2537 36.3207 25.2537C36.7144 25.2643 37.1107 25.2643 37.5096 25.2537C38.0512 25.2537 38.5955 25.259 39.1424 25.2696C42.104 25.3227 45.071 25.3864 48.0406 25.4607C49.0128 25.482 49.9798 25.5231 50.9415 25.5828C51.026 25.5934 51.1159 25.5988 51.211 25.5988C51.2638 25.5988 51.3193 25.5988 51.3801 25.5988C51.5029 25.5988 51.3609 25.5775 51.4772 25.5988C51.5934 25.62 60.5984 25.762 60.7041 25.8217C60.7213 25.8363 52.104 25.7899 52.1145 25.8217C52.1251 25.8536 60.4187 25.9744 60.4082 25.9916C60.4082 26.0275 52.1 25.9637 52.0723 25.9916C60.7041 25.8961 60.7213 26.0859 60.7041 26.0925C60.6195 26.1283 50.6352 25.9916 50.54 25.9916ZM30.5031 26.1721C30.5348 26.1058 30.5374 26.0447 30.5136 25.9916C30.4885 25.9385 30.445 25.912 30.3815 25.912C30.2864 25.9014 30.186 25.9014 30.0804 25.912C30.0302 25.912 29.98 25.912 29.9271 25.912C26.3406 25.9545 22.7528 26.2027 19.1637 26.6552C17.7898 26.8225 16.4226 27.0415 15.0633 27.3136C13.7066 27.587 12.3619 27.9281 11.0264 28.3382C10.3157 28.5585 9.61289 28.8107 8.91805 29.0974C8.22453 29.3814 7.54818 29.7172 6.889 30.1061C6.19945 30.4924 5.57197 30.9649 5.00791 31.5236C4.35005 32.2072 3.97754 32.9319 3.89299 33.7003C3.80845 34.4715 4.01452 35.2147 4.51122 35.9301C4.87449 36.4318 5.31174 36.8619 5.82164 37.2202C7.67103 38.5435 9.87709 39.2164 12.4372 39.2377C13.0924 39.2377 13.844 39.1527 14.6934 38.9828C15.5389 38.805 16.3552 38.5448 17.1452 38.2024C17.9338 37.8626 18.6987 37.4605 19.4384 36.9972C21.2667 35.8677 22.9589 34.5511 24.5163 33.0473C25.5943 32.032 26.6101 30.9635 27.5652 29.8407C28.5189 28.7152 29.4463 27.5711 30.3446 26.4057C30.3974 26.3208 30.4502 26.2438 30.5031 26.1721ZM34.8624 24.6909C35.5493 23.1168 36.2586 21.5453 36.9918 19.9765C37.0235 19.8915 37.1318 19.646 37.3194 19.2385C37.5096 18.8324 37.7263 18.3572 37.9693 17.8157C38.215 17.2742 38.4409 16.7632 38.6457 16.2814C38.8491 15.797 38.9918 15.4346 39.0737 15.193C39.1582 14.9528 39.1331 14.9303 38.9997 15.124C38.968 15.1705 38.9416 15.2143 38.9204 15.2568C38.8068 15.424 38.6985 15.5899 38.5928 15.7558C37.7263 17.1123 36.8518 18.4661 35.972 19.8172C35.0949 21.1657 34.186 22.497 33.2455 23.8096C33.153 23.9344 33.0605 24.0644 32.9654 24.2025C32.7858 24.4507 32.6074 24.7002 32.4317 24.951C32.3604 25.0572 32.3419 25.1462 32.3736 25.2165C32.4053 25.2842 32.4766 25.3174 32.5902 25.3174C32.7805 25.3174 32.9667 25.3121 33.1503 25.3014C33.4462 25.2802 33.7382 25.2696 34.0275 25.2696C34.2521 25.2776 34.4264 25.2298 34.5506 25.1262C34.6735 25.0201 34.7778 24.8754 34.8624 24.6909Z"/>
</mask>
<path d="M50.54 25.9916C49.6312 25.8854 49.9164 25.9332 48.997 25.9332C48.5914 25.92 48.1793 25.9067 47.7605 25.8961C43.9587 25.7408 40.1463 25.6996 36.3207 25.774C36.1305 25.774 35.9733 25.774 35.8505 25.774C35.6417 25.7607 35.4911 25.762 35.396 25.7793C35.3009 25.7978 35.2243 25.8509 35.1688 25.9385C35.112 26.0275 35.0447 26.1708 34.968 26.3686C34.9152 26.4854 34.8531 26.6287 34.7831 26.7986C34.1451 28.1935 33.5599 29.6111 33.0288 31.0511C32.6827 31.9829 32.4159 32.9358 32.2257 33.9127C32.1543 34.2206 32.1305 34.5179 32.1517 34.8046C32.1728 35.094 32.3009 35.3528 32.5374 35.5797C32.5718 35.6036 32.585 35.6341 32.5744 35.67C32.5665 35.7045 32.5453 35.739 32.511 35.7709C32.4793 35.8027 32.4436 35.8239 32.4053 35.8346C31.8373 35.9195 31.4978 35.7151 31.3855 35.224C31.3181 34.948 31.3062 34.6639 31.3485 34.3746C31.3485 34.3494 31.3485 34.3321 31.3485 34.3215C31.3908 33.8224 31.478 33.3247 31.6127 32.8297C31.7501 32.3386 31.9007 31.8422 32.0671 31.3431C32.6061 29.8566 33.1979 28.3886 33.8426 26.9366C33.8769 26.8729 33.9033 26.8119 33.9218 26.7508C33.9535 26.6805 33.9879 26.6061 34.0275 26.5278C34.0803 26.4217 34.1279 26.3181 34.1702 26.2146C34.2124 26.1084 34.2296 25.9996 34.223 25.8854C34.1702 25.843 34.1173 25.8164 34.0645 25.8058C34.0116 25.7952 33.9588 25.7952 33.906 25.8058C33.898 25.8058 33.8875 25.8058 33.8743 25.8058C33.4264 25.8058 32.9773 25.8111 32.5268 25.8217C32.4027 25.8217 32.2732 25.8217 32.1358 25.8217C31.9667 25.8297 31.8254 25.8801 31.7131 25.9757C31.5995 26.0713 31.4912 26.1881 31.3855 26.3261C31.2481 26.5039 31.1107 26.6805 30.9734 26.857C30.3882 27.6082 29.8003 28.3488 29.2085 29.0815C28.3274 30.1512 27.408 31.1825 26.4503 32.1766C25.4952 33.1668 24.4807 34.0959 23.4067 34.9639C22.0567 36.0814 20.6247 37.0663 19.1108 37.9157C16.7925 39.1647 14.3632 39.7553 11.8242 39.6889C9.43324 39.6358 7.27473 38.9881 5.35137 37.7458C4.80976 37.3954 4.32892 36.9734 3.90884 36.4823C3.63143 36.1345 3.41083 35.7602 3.24835 35.3568C3.08322 34.9533 3 34.5153 3 34.0454C3.02114 33.4747 3.15059 32.9478 3.38573 32.4633C3.62219 31.9789 3.94979 31.5396 4.36855 31.1467C4.94318 30.5879 5.57329 30.1154 6.26021 29.7292C6.92996 29.3363 7.62083 28.9939 8.33153 28.6992C9.03958 28.4059 9.75556 28.1458 10.4768 27.9188C11.6472 27.5405 12.8269 27.222 14.0171 26.9632C15.2113 26.7057 16.4081 26.4854 17.6102 26.3049C20.4596 25.9093 23.3169 25.6465 26.1808 25.5191C27.6418 25.4275 29.0989 25.3811 30.5506 25.3811C30.9522 25.3917 31.2613 25.2245 31.4806 24.8767C31.8637 24.3325 32.2494 23.7857 32.6378 23.2362C33.2428 22.3974 33.8373 21.5427 34.4185 20.672C37.1371 16.5986 39.7408 12.4576 42.2282 8.24883C42.4356 7.8918 42.6404 7.52946 42.8412 7.16048C42.9363 6.97334 43.0367 6.78354 43.1423 6.59242C43.2652 6.35218 43.6351 5.60333 43.9032 5.57413C44.0512 5.57413 44.5009 5.48918 44.5683 5.57413C44.6383 5.65642 44.1304 6.50747 44.0776 6.64551C44.0274 6.75965 43.9693 6.86849 43.9032 6.97467C43.4977 7.70068 43.1384 8.43465 42.8253 9.17791C42.7051 9.44071 42.5888 9.6982 42.4766 9.95303C41.3801 12.3421 40.2798 14.7351 39.1741 17.1308C38.3286 18.9784 37.4753 20.8299 36.6166 22.6841C36.3696 23.2336 36.1252 23.7804 35.8822 24.3246C35.8293 24.4387 35.7765 24.5476 35.7236 24.6537C35.7131 24.679 35.7038 24.7055 35.6972 24.7334C35.6616 24.8077 35.6338 24.882 35.6127 24.9564C35.5915 25.0307 35.5982 25.1037 35.6338 25.174C35.7038 25.2271 35.7871 25.2576 35.8822 25.2643C35.9773 25.2683 36.0645 25.2696 36.1464 25.2696C36.2124 25.259 36.2705 25.2537 36.3207 25.2537C36.7144 25.2643 37.1107 25.2643 37.5096 25.2537C38.0512 25.2537 38.5955 25.259 39.1424 25.2696C42.104 25.3227 45.071 25.3864 48.0406 25.4607C49.0128 25.482 49.9798 25.5231 50.9415 25.5828C51.026 25.5934 51.1159 25.5988 51.211 25.5988C51.2638 25.5988 51.3193 25.5988 51.3801 25.5988C51.5029 25.5988 51.3609 25.5775 51.4772 25.5988C51.5934 25.62 60.5984 25.762 60.7041 25.8217C60.7213 25.8363 52.104 25.7899 52.1145 25.8217C52.1251 25.8536 60.4187 25.9744 60.4082 25.9916C60.4082 26.0275 52.1 25.9637 52.0723 25.9916C60.7041 25.8961 60.7213 26.0859 60.7041 26.0925C60.6195 26.1283 50.6352 25.9916 50.54 25.9916ZM30.5031 26.1721C30.5348 26.1058 30.5374 26.0447 30.5136 25.9916C30.4885 25.9385 30.445 25.912 30.3815 25.912C30.2864 25.9014 30.186 25.9014 30.0804 25.912C30.0302 25.912 29.98 25.912 29.9271 25.912C26.3406 25.9545 22.7528 26.2027 19.1637 26.6552C17.7898 26.8225 16.4226 27.0415 15.0633 27.3136C13.7066 27.587 12.3619 27.9281 11.0264 28.3382C10.3157 28.5585 9.61289 28.8107 8.91805 29.0974C8.22453 29.3814 7.54818 29.7172 6.889 30.1061C6.19945 30.4924 5.57197 30.9649 5.00791 31.5236C4.35005 32.2072 3.97754 32.9319 3.89299 33.7003C3.80845 34.4715 4.01452 35.2147 4.51122 35.9301C4.87449 36.4318 5.31174 36.8619 5.82164 37.2202C7.67103 38.5435 9.87709 39.2164 12.4372 39.2377C13.0924 39.2377 13.844 39.1527 14.6934 38.9828C15.5389 38.805 16.3552 38.5448 17.1452 38.2024C17.9338 37.8626 18.6987 37.4605 19.4384 36.9972C21.2667 35.8677 22.9589 34.5511 24.5163 33.0473C25.5943 32.032 26.6101 30.9635 27.5652 29.8407C28.5189 28.7152 29.4463 27.5711 30.3446 26.4057C30.3974 26.3208 30.4502 26.2438 30.5031 26.1721ZM34.8624 24.6909C35.5493 23.1168 36.2586 21.5453 36.9918 19.9765C37.0235 19.8915 37.1318 19.646 37.3194 19.2385C37.5096 18.8324 37.7263 18.3572 37.9693 17.8157C38.215 17.2742 38.4409 16.7632 38.6457 16.2814C38.8491 15.797 38.9918 15.4346 39.0737 15.193C39.1582 14.9528 39.1331 14.9303 38.9997 15.124C38.968 15.1705 38.9416 15.2143 38.9204 15.2568C38.8068 15.424 38.6985 15.5899 38.5928 15.7558C37.7263 17.1123 36.8518 18.4661 35.972 19.8172C35.0949 21.1657 34.186 22.497 33.2455 23.8096C33.153 23.9344 33.0605 24.0644 32.9654 24.2025C32.7858 24.4507 32.6074 24.7002 32.4317 24.951C32.3604 25.0572 32.3419 25.1462 32.3736 25.2165C32.4053 25.2842 32.4766 25.3174 32.5902 25.3174C32.7805 25.3174 32.9667 25.3121 33.1503 25.3014C33.4462 25.2802 33.7382 25.2696 34.0275 25.2696C34.2521 25.2776 34.4264 25.2298 34.5506 25.1262C34.6735 25.0201 34.7778 24.8754 34.8624 24.6909Z" fill="#484A56"/>
<path d="M50.54 25.9916C49.6312 25.8854 49.9164 25.9332 48.997 25.9332C48.5914 25.92 48.1793 25.9067 47.7605 25.8961C43.9587 25.7408 40.1463 25.6996 36.3207 25.774C36.1305 25.774 35.9733 25.774 35.8505 25.774C35.6417 25.7607 35.4911 25.762 35.396 25.7793C35.3009 25.7978 35.2243 25.8509 35.1688 25.9385C35.112 26.0275 35.0447 26.1708 34.968 26.3686C34.9152 26.4854 34.8531 26.6287 34.7831 26.7986C34.1451 28.1935 33.5599 29.6111 33.0288 31.0511C32.6827 31.9829 32.4159 32.9358 32.2257 33.9127C32.1543 34.2206 32.1305 34.5179 32.1517 34.8046C32.1728 35.094 32.3009 35.3528 32.5374 35.5797C32.5718 35.6036 32.585 35.6341 32.5744 35.67C32.5665 35.7045 32.5453 35.739 32.511 35.7709C32.4793 35.8027 32.4436 35.8239 32.4053 35.8346C31.8373 35.9195 31.4978 35.7151 31.3855 35.224C31.3181 34.948 31.3062 34.6639 31.3485 34.3746C31.3485 34.3494 31.3485 34.3321 31.3485 34.3215C31.3908 33.8224 31.478 33.3247 31.6127 32.8297C31.7501 32.3386 31.9007 31.8422 32.0671 31.3431C32.6061 29.8566 33.1979 28.3886 33.8426 26.9366C33.8769 26.8729 33.9033 26.8119 33.9218 26.7508C33.9535 26.6805 33.9879 26.6061 34.0275 26.5278C34.0803 26.4217 34.1279 26.3181 34.1702 26.2146C34.2124 26.1084 34.2296 25.9996 34.223 25.8854C34.1702 25.843 34.1173 25.8164 34.0645 25.8058C34.0116 25.7952 33.9588 25.7952 33.906 25.8058C33.898 25.8058 33.8875 25.8058 33.8743 25.8058C33.4264 25.8058 32.9773 25.8111 32.5268 25.8217C32.4027 25.8217 32.2732 25.8217 32.1358 25.8217C31.9667 25.8297 31.8254 25.8801 31.7131 25.9757C31.5995 26.0713 31.4912 26.1881 31.3855 26.3261C31.2481 26.5039 31.1107 26.6805 30.9734 26.857C30.3882 27.6082 29.8003 28.3488 29.2085 29.0815C28.3274 30.1512 27.408 31.1825 26.4503 32.1766C25.4952 33.1668 24.4807 34.0959 23.4067 34.9639C22.0567 36.0814 20.6247 37.0663 19.1108 37.9157C16.7925 39.1647 14.3632 39.7553 11.8242 39.6889C9.43324 39.6358 7.27473 38.9881 5.35137 37.7458C4.80976 37.3954 4.32892 36.9734 3.90884 36.4823C3.63143 36.1345 3.41083 35.7602 3.24835 35.3568C3.08322 34.9533 3 34.5153 3 34.0454C3.02114 33.4747 3.15059 32.9478 3.38573 32.4633C3.62219 31.9789 3.94979 31.5396 4.36855 31.1467C4.94318 30.5879 5.57329 30.1154 6.26021 29.7292C6.92996 29.3363 7.62083 28.9939 8.33153 28.6992C9.03958 28.4059 9.75556 28.1458 10.4768 27.9188C11.6472 27.5405 12.8269 27.222 14.0171 26.9632C15.2113 26.7057 16.4081 26.4854 17.6102 26.3049C20.4596 25.9093 23.3169 25.6465 26.1808 25.5191C27.6418 25.4275 29.0989 25.3811 30.5506 25.3811C30.9522 25.3917 31.2613 25.2245 31.4806 24.8767C31.8637 24.3325 32.2494 23.7857 32.6378 23.2362C33.2428 22.3974 33.8373 21.5427 34.4185 20.672C37.1371 16.5986 39.7408 12.4576 42.2282 8.24883C42.4356 7.8918 42.6404 7.52946 42.8412 7.16048C42.9363 6.97334 43.0367 6.78354 43.1423 6.59242C43.2652 6.35218 43.6351 5.60333 43.9032 5.57413C44.0512 5.57413 44.5009 5.48918 44.5683 5.57413C44.6383 5.65642 44.1304 6.50747 44.0776 6.64551C44.0274 6.75965 43.9693 6.86849 43.9032 6.97467C43.4977 7.70068 43.1384 8.43465 42.8253 9.17791C42.7051 9.44071 42.5888 9.6982 42.4766 9.95303C41.3801 12.3421 40.2798 14.7351 39.1741 17.1308C38.3286 18.9784 37.4753 20.8299 36.6166 22.6841C36.3696 23.2336 36.1252 23.7804 35.8822 24.3246C35.8293 24.4387 35.7765 24.5476 35.7236 24.6537C35.7131 24.679 35.7038 24.7055 35.6972 24.7334C35.6616 24.8077 35.6338 24.882 35.6127 24.9564C35.5915 25.0307 35.5982 25.1037 35.6338 25.174C35.7038 25.2271 35.7871 25.2576 35.8822 25.2643C35.9773 25.2683 36.0645 25.2696 36.1464 25.2696C36.2124 25.259 36.2705 25.2537 36.3207 25.2537C36.7144 25.2643 37.1107 25.2643 37.5096 25.2537C38.0512 25.2537 38.5955 25.259 39.1424 25.2696C42.104 25.3227 45.071 25.3864 48.0406 25.4607C49.0128 25.482 49.9798 25.5231 50.9415 25.5828C51.026 25.5934 51.1159 25.5988 51.211 25.5988C51.2638 25.5988 51.3193 25.5988 51.3801 25.5988C51.5029 25.5988 51.3609 25.5775 51.4772 25.5988C51.5934 25.62 60.5984 25.762 60.7041 25.8217C60.7213 25.8363 52.104 25.7899 52.1145 25.8217C52.1251 25.8536 60.4187 25.9744 60.4082 25.9916C60.4082 26.0275 52.1 25.9637 52.0723 25.9916C60.7041 25.8961 60.7213 26.0859 60.7041 26.0925C60.6195 26.1283 50.6352 25.9916 50.54 25.9916ZM30.5031 26.1721C30.5348 26.1058 30.5374 26.0447 30.5136 25.9916C30.4885 25.9385 30.445 25.912 30.3815 25.912C30.2864 25.9014 30.186 25.9014 30.0804 25.912C30.0302 25.912 29.98 25.912 29.9271 25.912C26.3406 25.9545 22.7528 26.2027 19.1637 26.6552C17.7898 26.8225 16.4226 27.0415 15.0633 27.3136C13.7066 27.587 12.3619 27.9281 11.0264 28.3382C10.3157 28.5585 9.61289 28.8107 8.91805 29.0974C8.22453 29.3814 7.54818 29.7172 6.889 30.1061C6.19945 30.4924 5.57197 30.9649 5.00791 31.5236C4.35005 32.2072 3.97754 32.9319 3.89299 33.7003C3.80845 34.4715 4.01452 35.2147 4.51122 35.9301C4.87449 36.4318 5.31174 36.8619 5.82164 37.2202C7.67103 38.5435 9.87709 39.2164 12.4372 39.2377C13.0924 39.2377 13.844 39.1527 14.6934 38.9828C15.5389 38.805 16.3552 38.5448 17.1452 38.2024C17.9338 37.8626 18.6987 37.4605 19.4384 36.9972C21.2667 35.8677 22.9589 34.5511 24.5163 33.0473C25.5943 32.032 26.6101 30.9635 27.5652 29.8407C28.5189 28.7152 29.4463 27.5711 30.3446 26.4057C30.3974 26.3208 30.4502 26.2438 30.5031 26.1721ZM34.8624 24.6909C35.5493 23.1168 36.2586 21.5453 36.9918 19.9765C37.0235 19.8915 37.1318 19.646 37.3194 19.2385C37.5096 18.8324 37.7263 18.3572 37.9693 17.8157C38.215 17.2742 38.4409 16.7632 38.6457 16.2814C38.8491 15.797 38.9918 15.4346 39.0737 15.193C39.1582 14.9528 39.1331 14.9303 38.9997 15.124C38.968 15.1705 38.9416 15.2143 38.9204 15.2568C38.8068 15.424 38.6985 15.5899 38.5928 15.7558C37.7263 17.1123 36.8518 18.4661 35.972 19.8172C35.0949 21.1657 34.186 22.497 33.2455 23.8096C33.153 23.9344 33.0605 24.0644 32.9654 24.2025C32.7858 24.4507 32.6074 24.7002 32.4317 24.951C32.3604 25.0572 32.3419 25.1462 32.3736 25.2165C32.4053 25.2842 32.4766 25.3174 32.5902 25.3174C32.7805 25.3174 32.9667 25.3121 33.1503 25.3014C33.4462 25.2802 33.7382 25.2696 34.0275 25.2696C34.2521 25.2776 34.4264 25.2298 34.5506 25.1262C34.6735 25.0201 34.7778 24.8754 34.8624 24.6909Z" stroke="#484A56" stroke-width="1.4" mask="url(#path-3-outside-1_1633_10036)"/>
<path d="M81.209 25.9141V39H80.5449L72.0488 29.6445V39H70.291V25.9141H70.9551L79.4512 35.3867V25.9141H81.209ZM89.041 29.0391C89.6009 29.0391 90.1673 29.1758 90.7402 29.4492C91.3262 29.7096 91.8275 30.0742 92.2441 30.543V29.2344H93.8457V39H92.2441V37.3398C91.9056 37.8607 91.4434 38.3164 90.8574 38.707C90.2845 39.0977 89.627 39.293 88.8848 39.293C88.0514 39.293 87.2897 39.0846 86.5996 38.668C85.9095 38.2383 85.3561 37.6458 84.9395 36.8906C84.5358 36.1354 84.334 35.263 84.334 34.2734C84.334 33.1927 84.5358 32.2617 84.9395 31.4805C85.3561 30.6992 85.9225 30.1003 86.6387 29.6836C87.3548 29.2539 88.1556 29.0391 89.041 29.0391ZM89.334 30.6016C88.6309 30.6016 88.0319 30.7773 87.5371 31.1289C87.0423 31.4805 86.6582 31.9362 86.3848 32.4961C86.1243 33.043 85.9941 33.6354 85.9941 34.2734C85.9941 34.8984 86.1243 35.4779 86.3848 36.0117C86.6452 36.5326 87.0098 36.9492 87.4785 37.2617C87.9603 37.5742 88.5137 37.7305 89.1387 37.7305C89.7376 37.7305 90.2715 37.5742 90.7402 37.2617C91.209 36.9492 91.5801 36.5195 91.8535 35.9727C92.127 35.4128 92.2572 34.7878 92.2441 34.0977L92.2246 32.2227C91.821 31.7148 91.3848 31.3177 90.916 31.0312C90.4603 30.7448 89.9329 30.6016 89.334 30.6016ZM101.189 29.0391C101.749 29.0391 102.316 29.1758 102.889 29.4492C103.475 29.7096 103.976 30.0742 104.393 30.543V29.2344H105.994V39H104.393V37.3398C104.054 37.8607 103.592 38.3164 103.006 38.707C102.433 39.0977 101.775 39.293 101.033 39.293C100.2 39.293 99.4382 39.0846 98.748 38.668C98.0579 38.2383 97.5046 37.6458 97.0879 36.8906C96.6842 36.1354 96.4824 35.263 96.4824 34.2734C96.4824 33.1927 96.6842 32.2617 97.0879 31.4805C97.5046 30.6992 98.071 30.1003 98.7871 29.6836C99.5033 29.2539 100.304 29.0391 101.189 29.0391ZM101.482 30.6016C100.779 30.6016 100.18 30.7773 99.6855 31.1289C99.1908 31.4805 98.8066 31.9362 98.5332 32.4961C98.2728 33.043 98.1426 33.6354 98.1426 34.2734C98.1426 34.8984 98.2728 35.4779 98.5332 36.0117C98.7936 36.5326 99.1582 36.9492 99.627 37.2617C100.109 37.5742 100.662 37.7305 101.287 37.7305C101.886 37.7305 102.42 37.5742 102.889 37.2617C103.357 36.9492 103.729 36.5195 104.002 35.9727C104.275 35.4128 104.406 34.7878 104.393 34.0977L104.373 32.2227C103.969 31.7148 103.533 31.3177 103.064 31.0312C102.609 30.7448 102.081 30.6016 101.482 30.6016ZM120.701 25.9141L126.814 39H124.705L123.338 35.875H117.205L115.818 39H113.709L119.822 25.9141H120.701ZM120.291 28.8828L117.928 34.2148H122.615L120.291 28.8828ZM129.217 29.2344L132.635 36.4219L135.955 29.2344H137.869L130.682 43.6875H128.826L131.619 38.4141L127.303 29.2344H129.217ZM143.846 29.0391C144.848 29.0391 145.682 29.2474 146.346 29.6641C147.01 30.0807 147.505 30.6471 147.83 31.3633C148.169 32.0794 148.338 32.8867 148.338 33.7852V34.7422H140.838C140.916 35.2891 141.105 35.7904 141.404 36.2461C141.704 36.7018 142.094 37.0664 142.576 37.3398C143.058 37.6003 143.611 37.7305 144.236 37.7305C144.939 37.7305 145.597 37.5547 146.209 37.2031C146.821 36.8385 147.335 36.4414 147.752 36.0117L147.732 37.75C147.55 37.9714 147.277 38.2057 146.912 38.4531C146.561 38.6875 146.15 38.8828 145.682 39.0391C145.226 39.2083 144.744 39.293 144.236 39.293C143.247 39.293 142.368 39.0586 141.6 38.5898C140.831 38.1211 140.226 37.5026 139.783 36.7344C139.354 35.9531 139.139 35.1003 139.139 34.1758C139.139 33.2513 139.34 32.3984 139.744 31.6172C140.148 30.8359 140.701 30.2109 141.404 29.7422C142.12 29.2734 142.934 29.0391 143.846 29.0391ZM143.846 30.6016C143.038 30.6016 142.374 30.875 141.854 31.4219C141.333 31.9557 141.007 32.6068 140.877 33.375H146.756C146.691 32.737 146.508 32.2161 146.209 31.8125C145.923 31.4089 145.571 31.1094 145.154 30.9141C144.738 30.7057 144.301 30.6016 143.846 30.6016ZM152.576 24.9375V39H150.975V24.9375H152.576ZM159.92 29.0391C160.923 29.0391 161.756 29.2474 162.42 29.6641C163.084 30.0807 163.579 30.6471 163.904 31.3633C164.243 32.0794 164.412 32.8867 164.412 33.7852V34.7422H156.912C156.99 35.2891 157.179 35.7904 157.479 36.2461C157.778 36.7018 158.169 37.0664 158.65 37.3398C159.132 37.6003 159.686 37.7305 160.311 37.7305C161.014 37.7305 161.671 37.5547 162.283 37.2031C162.895 36.8385 163.41 36.4414 163.826 36.0117L163.807 37.75C163.624 37.9714 163.351 38.2057 162.986 38.4531C162.635 38.6875 162.225 38.8828 161.756 39.0391C161.3 39.2083 160.818 39.293 160.311 39.293C159.321 39.293 158.442 39.0586 157.674 38.5898C156.906 38.1211 156.3 37.5026 155.857 36.7344C155.428 35.9531 155.213 35.1003 155.213 34.1758C155.213 33.2513 155.415 32.3984 155.818 31.6172C156.222 30.8359 156.775 30.2109 157.479 29.7422C158.195 29.2734 159.008 29.0391 159.92 29.0391ZM159.92 30.6016C159.113 30.6016 158.449 30.875 157.928 31.4219C157.407 31.9557 157.081 32.6068 156.951 33.375H162.83C162.765 32.737 162.583 32.2161 162.283 31.8125C161.997 31.4089 161.645 31.1094 161.229 30.9141C160.812 30.7057 160.376 30.6016 159.92 30.6016ZM167.596 29.2344L171.014 36.4219L174.334 29.2344H176.248L169.061 43.6875H167.205L169.998 38.4141L165.682 29.2344H167.596ZM189.588 25.9141L195.701 39H193.592L192.225 35.875H186.092L184.705 39H182.596L188.709 25.9141H189.588ZM189.178 28.8828L186.814 34.2148H191.502L189.178 28.8828ZM198.104 29.2344L201.521 36.4219L204.842 29.2344H206.756L199.568 43.6875H197.713L200.506 38.4141L196.189 29.2344H198.104ZM212.732 29.0391C213.735 29.0391 214.568 29.2474 215.232 29.6641C215.896 30.0807 216.391 30.6471 216.717 31.3633C217.055 32.0794 217.225 32.8867 217.225 33.7852V34.7422H209.725C209.803 35.2891 209.992 35.7904 210.291 36.2461C210.59 36.7018 210.981 37.0664 211.463 37.3398C211.945 37.6003 212.498 37.7305 213.123 37.7305C213.826 37.7305 214.484 37.5547 215.096 37.2031C215.708 36.8385 216.222 36.4414 216.639 36.0117L216.619 37.75C216.437 37.9714 216.163 38.2057 215.799 38.4531C215.447 38.6875 215.037 38.8828 214.568 39.0391C214.113 39.2083 213.631 39.293 213.123 39.293C212.133 39.293 211.255 39.0586 210.486 38.5898C209.718 38.1211 209.113 37.5026 208.67 36.7344C208.24 35.9531 208.025 35.1003 208.025 34.1758C208.025 33.2513 208.227 32.3984 208.631 31.6172C209.035 30.8359 209.588 30.2109 210.291 29.7422C211.007 29.2734 211.821 29.0391 212.732 29.0391ZM212.732 30.6016C211.925 30.6016 211.261 30.875 210.74 31.4219C210.219 31.9557 209.894 32.6068 209.764 33.375H215.643C215.577 32.737 215.395 32.2161 215.096 31.8125C214.809 31.4089 214.458 31.1094 214.041 30.9141C213.624 30.7057 213.188 30.6016 212.732 30.6016ZM222.557 26.4219V29.2344H226.404C227.042 29.2344 227.57 29.0195 227.986 28.5898C228.403 28.1471 228.774 27.4896 229.1 26.6172H229.451V29.2344H232.303V30.7383H229.451V36.4609C229.451 36.8646 229.555 37.1836 229.764 37.418C229.972 37.6523 230.291 37.7695 230.721 37.7695C231.111 37.7695 231.437 37.724 231.697 37.6328C231.958 37.5286 232.186 37.418 232.381 37.3008V38.6094C232.12 38.8177 231.84 38.9805 231.541 39.0977C231.255 39.2279 230.864 39.293 230.369 39.293C229.536 39.293 228.904 39.0456 228.475 38.5508C228.058 38.043 227.85 37.3724 227.85 36.5391V30.7383H222.557V36.4609C222.557 36.8646 222.661 37.1836 222.869 37.418C223.077 37.6523 223.396 37.7695 223.826 37.7695C224.217 37.7695 224.542 37.724 224.803 37.6328C225.063 37.5286 225.291 37.418 225.486 37.3008V38.6094C225.226 38.8177 224.946 38.9805 224.646 39.0977C224.36 39.2279 223.969 39.293 223.475 39.293C222.641 39.293 222.01 39.0456 221.58 38.5508C221.163 38.043 220.955 37.3724 220.955 36.5391V30.7383H219.08V30.2695C219.718 29.9831 220.252 29.5143 220.682 28.8633C221.111 28.1992 221.489 27.3854 221.814 26.4219H222.557ZM239.236 29.0391C240.239 29.0391 241.072 29.2474 241.736 29.6641C242.4 30.0807 242.895 30.6471 243.221 31.3633C243.559 32.0794 243.729 32.8867 243.729 33.7852V34.7422H236.229C236.307 35.2891 236.495 35.7904 236.795 36.2461C237.094 36.7018 237.485 37.0664 237.967 37.3398C238.449 37.6003 239.002 37.7305 239.627 37.7305C240.33 37.7305 240.988 37.5547 241.6 37.2031C242.212 36.8385 242.726 36.4414 243.143 36.0117L243.123 37.75C242.941 37.9714 242.667 38.2057 242.303 38.4531C241.951 38.6875 241.541 38.8828 241.072 39.0391C240.617 39.2083 240.135 39.293 239.627 39.293C238.637 39.293 237.758 39.0586 236.99 38.5898C236.222 38.1211 235.617 37.5026 235.174 36.7344C234.744 35.9531 234.529 35.1003 234.529 34.1758C234.529 33.2513 234.731 32.3984 235.135 31.6172C235.538 30.8359 236.092 30.2109 236.795 29.7422C237.511 29.2734 238.325 29.0391 239.236 29.0391ZM239.236 30.6016C238.429 30.6016 237.765 30.875 237.244 31.4219C236.723 31.9557 236.398 32.6068 236.268 33.375H242.146C242.081 32.737 241.899 32.2161 241.6 31.8125C241.313 31.4089 240.962 31.1094 240.545 30.9141C240.128 30.7057 239.692 30.6016 239.236 30.6016ZM246.912 29.2344L250.33 36.4219L253.65 29.2344H255.564L248.377 43.6875H246.521L249.314 38.4141L244.998 29.2344H246.912Z" fill="#484A56"/>
</svg>
