<svg width="58" height="58" viewBox="0 0 58 58" fill="none" xmlns="http://www.w3.org/2000/svg">
<g clip-path="url(#clip0_2518_1676)">
<path d="M41.9772 53.1506C41.9892 53.1567 42.0012 53.1625 42.0132 53.1681C38.1407 55.2576 33.7089 56.4436 29 56.4436C15.4807 56.4436 4.24461 46.6679 1.97476 33.7997C2.775 35.0894 4.22814 36.0462 5.93896 36.6482C8.21216 37.4481 10.9911 37.6427 13.4628 37.1475C19.3781 35.9626 23.6644 31.5935 26.8953 27.699C27.9437 26.461 28.9921 25.2232 30.0406 23.9856L31.5693 23.9544L31.4658 24.1612L31.4658 24.1612L31.4634 24.1662C31.4601 24.1733 31.4532 24.1878 31.4429 24.2094C31.2672 24.5775 30.1143 26.9927 29.4058 29.2622C29.0332 30.4557 28.7719 31.6433 28.8617 32.476C28.9068 32.8937 29.0447 33.2643 29.3467 33.4837C29.6521 33.7055 30.0693 33.733 30.5785 33.5927L30.6504 33.5728L30.6917 33.5108L30.8461 33.2792L30.9092 33.1846L30.8601 33.082C30.7221 32.7936 30.5841 32.5052 30.4463 32.2168C30.3808 31.8729 30.4109 31.4545 30.5091 30.9893C30.609 30.5159 30.7761 30.0086 30.9676 29.5053C31.1461 29.036 31.3439 28.5754 31.5255 28.1523C31.5387 28.1218 31.5517 28.0915 31.5646 28.0614C31.5689 28.0515 31.5731 28.0416 31.5773 28.0317L30.9435 40.6036C30.8843 41.1737 30.773 42.3054 30.7904 43.3293C30.7991 43.8414 30.8401 44.3391 30.9411 44.73C30.9916 44.9254 31.0598 45.1048 31.154 45.2481C31.2491 45.3927 31.3789 45.5121 31.553 45.5601L31.553 45.5601C32.0708 45.7026 32.5205 45.481 32.8862 45.1132C33.2489 44.7484 33.5576 44.2148 33.8186 43.6506C34.0811 43.0831 34.3027 42.4681 34.4854 41.9288C34.5491 41.7407 34.6076 41.5635 34.6612 41.4007C34.7636 41.0905 34.8485 40.833 34.9192 40.6538L34.7331 40.5804L34.9192 40.6538C35.5128 39.1484 36.0891 37.6369 36.6633 36.1307C38.2581 31.9478 39.8371 27.8062 41.7279 23.9518L43.0894 23.9827C42.6311 30.7326 42.1726 37.4819 41.7142 44.2305C41.6256 45.0771 41.5038 46.9616 41.484 48.7859C41.4741 49.6995 41.4898 50.6021 41.5488 51.3538C41.5782 51.7295 41.6187 52.0708 41.6731 52.3585C41.7268 52.6426 41.7966 52.8893 41.8914 53.0666L41.9211 53.1221L41.9772 53.1506ZM33.9616 22.6258L40.6286 8.00405L40.6293 8.00246C40.7192 7.80071 40.8592 7.56142 41.0229 7.29021C41.049 7.24688 41.0758 7.20282 41.1029 7.15811C41.2429 6.92706 41.3934 6.67887 41.531 6.42678C41.6953 6.12575 41.8459 5.8109 41.9431 5.49979C42.0097 5.28649 42.0531 5.06907 42.056 4.85507C50.6247 9.49822 56.4436 18.5696 56.4436 29C56.4436 38.9508 51.1475 47.6647 43.2204 52.4766C43.4044 51.9556 43.4871 51.2105 43.5231 50.4255C43.5613 49.5919 43.5475 48.6862 43.5336 47.9042L43.5317 47.7994C43.5183 47.056 43.5074 46.4489 43.5409 46.121L43.541 46.121L43.5415 46.1138L44.0428 38.4757C44.6111 33.7946 45.0495 29.1039 45.0106 24.0329L49.4733 24.1803L49.56 24.1832L49.6213 24.1218L49.7371 24.0061L49.7956 23.9475V23.8646V23.3628V23.2415L49.6882 23.1854C49.1248 22.8915 48.2361 22.8005 47.3476 22.7785C46.7243 22.763 46.0741 22.7817 45.5025 22.7981C45.3266 22.8032 45.1582 22.808 45.0004 22.8116C44.9478 21.8518 44.7265 21.1995 44.3706 20.8112C43.976 20.3807 43.4523 20.311 42.9377 20.4511C42.4313 20.5888 41.9162 20.9309 41.4759 21.3543C41.0679 21.7466 40.711 22.221 40.475 22.6981L33.9616 22.6258ZM29 1.55647C33.3409 1.55647 37.4463 2.5643 41.0952 4.35872C40.9164 4.44311 40.7457 4.57153 40.5884 4.71831C40.2273 5.05533 39.8727 5.54666 39.5486 6.06558C39.223 6.58698 38.9208 7.14844 38.667 7.63317C38.6033 7.75488 38.5429 7.87106 38.4862 7.98031C38.3142 8.31156 38.1752 8.57911 38.0752 8.74373C35.7358 12.5943 33.2743 16.4078 30.7101 20.0421C30.7098 20.0425 30.7095 20.0429 30.7092 20.0433L28.7986 22.6658L21.714 23.0086L21.714 23.0082L21.7012 23.0097C21.5292 23.0291 21.35 23.0492 21.164 23.07C18.0097 23.4234 12.9276 23.9928 8.70723 25.264C6.47443 25.9365 4.46043 26.8117 3.0994 27.9715C2.40153 28.5663 1.87208 29.2395 1.57431 29.9987C1.56245 29.6673 1.55647 29.3344 1.55647 29C1.55647 13.8434 13.8434 1.55647 29 1.55647ZM43.0303 22.7607L42.5273 22.7272L42.9543 22.2469L43.0303 22.7607ZM27.8344 24.0647C26.3668 26.2276 24.3014 28.6844 21.9255 30.8154C19.4333 33.0508 16.6127 34.9157 13.7935 35.7169C11.7271 36.3041 9.34328 36.2277 7.3313 35.6148C5.31239 34.9999 3.7142 33.8608 3.14891 32.3642C2.91071 31.7336 2.91664 31.1792 3.07459 30.688C3.23384 30.1928 3.55197 29.749 3.95783 29.3526C4.77311 28.5563 5.90454 27.986 6.67955 27.5954L6.68061 27.5949C10.4821 25.679 15.3618 25.0759 20.5414 24.4358L20.7379 24.4115L26.6321 24.0647H27.8344ZM57.9493 29C57.9493 13.0118 44.9882 0.0507324 29 0.0507324C13.0118 0.0507324 0.0507324 13.0118 0.0507324 29C0.0507324 44.9882 13.0118 57.9493 29 57.9493C44.9882 57.9493 57.9493 44.9883 57.9493 29ZM30.931 22.6543L34.5558 17.2571L32.1661 22.52L30.931 22.6543ZM39.7737 23.9104C38.3294 26.7928 37.1629 29.9466 35.9879 33.1233C35.8292 33.5524 35.6703 33.9818 35.5106 34.4111C35.2005 35.2449 34.9269 36.1486 34.6529 37.0538C34.4827 37.616 34.3123 38.1788 34.1329 38.7258C33.7441 39.9111 33.3088 41.0376 32.7305 41.9904C33.0367 35.9632 33.343 29.9365 33.6493 23.9104H39.7737Z" fill="#484A56" stroke="#484A56" stroke-width="0.4"/>
</g>
<defs>
<clipPath id="clip0_2518_1676">
<rect width="58" height="58" fill="white"/>
</clipPath>
</defs>
</svg>
