<svg width="358" height="220" viewBox="0 0 358 220" fill="none" xmlns="http://www.w3.org/2000/svg">
<g filter="url(#filter0_d_2293_6886)">
<rect x="15" y="11" width="328" height="190" rx="10" fill="white"/>
</g>
<path d="M250.639 50.204C249.698 50.204 248.825 50.051 248.021 49.745C247.227 49.439 246.536 49.0083 245.947 48.453C245.369 47.8977 244.915 47.246 244.587 46.498C244.269 45.75 244.111 44.934 244.111 44.05C244.111 43.166 244.269 42.35 244.587 41.602C244.915 40.854 245.374 40.2023 245.964 39.647C246.553 39.0917 247.244 38.661 248.038 38.355C248.831 38.049 249.692 37.896 250.622 37.896C251.562 37.896 252.424 38.049 253.206 38.355C253.999 38.661 254.685 39.0917 255.263 39.647C255.852 40.2023 256.311 40.854 256.64 41.602C256.968 42.3387 257.133 43.1547 257.133 44.05C257.133 44.934 256.968 45.7557 256.64 46.515C256.311 47.263 255.852 47.9147 255.263 48.47C254.685 49.014 253.999 49.439 253.206 49.745C252.424 50.051 251.568 50.204 250.639 50.204ZM250.622 47.858C251.154 47.858 251.642 47.7673 252.084 47.586C252.537 47.4047 252.934 47.144 253.274 46.804C253.614 46.464 253.874 46.0617 254.056 45.597C254.248 45.1323 254.345 44.6167 254.345 44.05C254.345 43.4833 254.248 42.9677 254.056 42.503C253.874 42.0383 253.614 41.636 253.274 41.296C252.945 40.956 252.554 40.6953 252.101 40.514C251.647 40.3327 251.154 40.242 250.622 40.242C250.089 40.242 249.596 40.3327 249.143 40.514C248.701 40.6953 248.31 40.956 247.97 41.296C247.63 41.636 247.363 42.0383 247.171 42.503C246.989 42.9677 246.899 43.4833 246.899 44.05C246.899 44.6053 246.989 45.121 247.171 45.597C247.363 46.0617 247.624 46.464 247.953 46.804C248.293 47.144 248.689 47.4047 249.143 47.586C249.596 47.7673 250.089 47.858 250.622 47.858ZM259.016 50V40.854H261.549V43.438L261.192 42.69C261.464 42.044 261.9 41.5567 262.501 41.228C263.101 40.888 263.832 40.718 264.694 40.718V43.166C264.58 43.1547 264.478 43.149 264.388 43.149C264.297 43.1377 264.201 43.132 264.099 43.132C263.373 43.132 262.784 43.3417 262.331 43.761C261.889 44.169 261.668 44.8093 261.668 45.682V50H259.016ZM266.287 50V40.854H268.939V50H266.287ZM267.613 39.579C267.126 39.579 266.729 39.4373 266.423 39.154C266.117 38.8707 265.964 38.5193 265.964 38.1C265.964 37.6807 266.117 37.3293 266.423 37.046C266.729 36.7627 267.126 36.621 267.613 36.621C268.1 36.621 268.497 36.757 268.803 37.029C269.109 37.2897 269.262 37.6297 269.262 38.049C269.262 38.491 269.109 38.8593 268.803 39.154C268.508 39.4373 268.112 39.579 267.613 39.579ZM275.701 53.434C274.84 53.434 274.007 53.3263 273.202 53.111C272.409 52.907 271.746 52.5953 271.213 52.176L272.267 50.272C272.653 50.5893 273.14 50.8387 273.729 51.02C274.33 51.2127 274.919 51.309 275.497 51.309C276.438 51.309 277.118 51.0993 277.537 50.68C277.968 50.2607 278.183 49.6373 278.183 48.81V47.433L278.353 45.138L278.319 42.826V40.854H280.835V48.47C280.835 50.17 280.393 51.4223 279.509 52.227C278.625 53.0317 277.356 53.434 275.701 53.434ZM275.293 49.558C274.443 49.558 273.673 49.3767 272.981 49.014C272.301 48.64 271.752 48.1243 271.332 47.467C270.924 46.7983 270.72 46.022 270.72 45.138C270.72 44.2427 270.924 43.4663 271.332 42.809C271.752 42.1403 272.301 41.6247 272.981 41.262C273.673 40.8993 274.443 40.718 275.293 40.718C276.064 40.718 276.744 40.8767 277.333 41.194C277.923 41.5 278.382 41.9817 278.71 42.639C279.039 43.285 279.203 44.118 279.203 45.138C279.203 46.1467 279.039 46.9797 278.71 47.637C278.382 48.283 277.923 48.7647 277.333 49.082C276.744 49.3993 276.064 49.558 275.293 49.558ZM275.82 47.382C276.285 47.382 276.699 47.2913 277.061 47.11C277.424 46.9173 277.707 46.651 277.911 46.311C278.115 45.971 278.217 45.58 278.217 45.138C278.217 44.6847 278.115 44.2937 277.911 43.965C277.707 43.625 277.424 43.3643 277.061 43.183C276.699 42.9903 276.285 42.894 275.82 42.894C275.356 42.894 274.942 42.9903 274.579 43.183C274.217 43.3643 273.928 43.625 273.712 43.965C273.508 44.2937 273.406 44.6847 273.406 45.138C273.406 45.58 273.508 45.971 273.712 46.311C273.928 46.651 274.217 46.9173 274.579 47.11C274.942 47.2913 275.356 47.382 275.82 47.382ZM283.304 50V40.854H285.956V50H283.304ZM284.63 39.579C284.142 39.579 283.746 39.4373 283.44 39.154C283.134 38.8707 282.981 38.5193 282.981 38.1C282.981 37.6807 283.134 37.3293 283.44 37.046C283.746 36.7627 284.142 36.621 284.63 36.621C285.117 36.621 285.514 36.757 285.82 37.029C286.126 37.2897 286.279 37.6297 286.279 38.049C286.279 38.491 286.126 38.8593 285.82 39.154C285.525 39.4373 285.128 39.579 284.63 39.579ZM293.976 40.718C294.701 40.718 295.347 40.8653 295.914 41.16C296.492 41.4433 296.945 41.8853 297.274 42.486C297.603 43.0753 297.767 43.8347 297.767 44.764V50H295.115V45.172C295.115 44.4353 294.951 43.8913 294.622 43.54C294.305 43.1887 293.851 43.013 293.262 43.013C292.843 43.013 292.463 43.1037 292.123 43.285C291.794 43.455 291.534 43.7213 291.341 44.084C291.16 44.4467 291.069 44.9113 291.069 45.478V50H288.417V40.854H290.95V43.387L290.474 42.622C290.803 42.01 291.273 41.5397 291.885 41.211C292.497 40.8823 293.194 40.718 293.976 40.718ZM305.781 50V48.215L305.611 47.824V44.628C305.611 44.0613 305.435 43.6193 305.084 43.302C304.744 42.9847 304.217 42.826 303.503 42.826C303.015 42.826 302.534 42.9053 302.058 43.064C301.593 43.2113 301.196 43.4153 300.868 43.676L299.916 41.823C300.414 41.4717 301.015 41.1997 301.718 41.007C302.42 40.8143 303.134 40.718 303.86 40.718C305.254 40.718 306.336 41.0467 307.107 41.704C307.877 42.3613 308.263 43.387 308.263 44.781V50H305.781ZM302.993 50.136C302.279 50.136 301.667 50.017 301.157 49.779C300.647 49.5297 300.256 49.1953 299.984 48.776C299.712 48.3567 299.576 47.8863 299.576 47.365C299.576 46.821 299.706 46.345 299.967 45.937C300.239 45.529 300.664 45.2117 301.242 44.985C301.82 44.747 302.573 44.628 303.503 44.628H305.934V46.175H303.792C303.168 46.175 302.738 46.277 302.5 46.481C302.273 46.685 302.16 46.94 302.16 47.246C302.16 47.586 302.29 47.858 302.551 48.062C302.823 48.2547 303.191 48.351 303.656 48.351C304.098 48.351 304.494 48.249 304.846 48.045C305.197 47.8297 305.452 47.518 305.611 47.11L306.019 48.334C305.826 48.9233 305.475 49.371 304.965 49.677C304.455 49.983 303.797 50.136 302.993 50.136ZM310.663 50V37.386H313.315V50H310.663Z" fill="#796DEB"/>
<path d="M179.787 93.9578C180.154 93.1958 180.344 92.8148 180.817 92.2909C181.681 91.3503 184.52 87.076 190.223 78.5274C190.318 78.3845 191.04 77.313 191.939 75.8485C192.389 75.1222 192.909 74.2412 193.524 73.1339C194.27 71.8004 194.921 70.5503 194.885 68.8834C194.873 68.3952 194.838 67.2761 194.293 66.3712C192.554 63.5494 186.402 63.9066 182.095 65.4425C179.752 66.2759 178.166 67.3832 177.22 68.0619C168.393 74.3364 163.98 77.4677 156.845 83.8256C155.638 84.8972 156.999 83.7066 148.93 91.4575C148.303 92.0647 145.356 94.8984 142.966 98.875C142.528 99.6013 141.996 100.578 141.665 101.923C141.452 102.816 140.872 105.209 141.984 107.543C143.014 109.698 144.93 110.65 146.48 111.412C148.338 112.329 149.971 112.65 152.822 112.996C157.449 113.555 161.152 113.663 164.418 113.746C168.748 113.853 169.778 113.615 172.925 113.924C174.664 114.091 176.486 114.282 178.829 114.901C181.633 115.651 184.082 116.306 186.413 118.342C187.088 118.937 188.839 120.485 189.88 123.08C191.572 127.295 190.247 131.26 189.667 133.01C188.141 137.57 185.195 140.213 182.84 142.333C178.794 145.976 174.806 147.536 173.517 148C167.53 150.179 162.572 149.655 161.543 149.524C159.803 149.31 157.721 149.036 155.366 147.726C154.219 147.083 151.805 145.69 150.219 142.714C148.859 140.142 148.847 137.749 148.859 136.606C148.906 132.069 151.119 128.795 152.538 126.735C156.183 121.485 161.081 118.937 163.814 117.794C161.992 118.246 159.626 118.937 156.928 120.032C155.023 120.806 150.799 122.64 145.983 126.081C143.156 128.105 139.606 130.641 136.175 135.129C132.885 139.439 131.667 142.595 131.406 143.368C130.827 145.047 130.164 146.988 130.164 149.417C130.164 156.358 135.548 161.359 137.476 163.156C140.434 165.907 143.238 167.24 145.711 168.395C147.131 169.062 153.083 171.729 161.756 172.324C171.399 172.979 178.734 170.681 182.237 169.538C186.082 168.288 194.045 165.657 201.736 158.823C204.635 156.251 206.622 153.846 207.652 152.524C209.805 149.762 213.58 144.845 215.615 137.368C217.946 128.807 216.668 121.83 216.372 120.354C215.745 117.139 214.609 111.734 210.302 106.555C206.492 101.971 202.114 99.8752 200.174 98.9703C200.174 98.9703 195.418 96.7557 189.336 96.0414C186.887 95.7556 185.656 95.6128 184.295 95.6961C183.905 95.7199 182.615 95.8152 180.876 95.6961C180.746 95.6842 180.379 95.8151 180.071 95.6247C179.705 95.3984 179.563 94.8269 179.622 94.3864C179.681 94.1721 179.752 94.0173 179.787 93.9578Z" fill="#484848"/>
<mask id="mask0_2293_6886" style="mask-type:luminance" maskUnits="userSpaceOnUse" x="99" y="47" width="109" height="106">
<path d="M153.333 152.51C183.34 152.51 207.665 128.954 207.665 99.8966C207.665 70.839 183.34 47.2832 153.333 47.2832C123.325 47.2832 99 70.839 99 99.8966C99 128.954 123.325 152.51 153.333 152.51Z" fill="white"/>
</mask>
<g mask="url(#mask0_2293_6886)">
<path d="M179.787 93.9558C180.154 93.1938 180.344 92.8128 180.817 92.289C181.681 91.3484 184.52 87.0741 190.223 78.5254C190.318 78.3826 191.04 77.311 191.939 75.8465C192.389 75.1203 192.909 74.2392 193.524 73.1319C194.27 71.7984 194.921 70.5483 194.885 68.8814C194.873 68.3933 194.838 67.2741 194.293 66.3692C192.554 63.5475 186.402 63.9047 182.095 65.4406C179.752 66.274 178.166 67.3813 177.22 68.0599C168.393 74.3345 163.98 77.4658 156.845 83.8237C155.638 84.8952 156.999 83.7046 148.93 91.4555C148.303 92.0628 145.356 94.8964 142.966 98.8731C142.528 99.5994 141.996 100.576 141.665 101.921C141.452 102.814 140.872 105.207 141.984 107.541C143.014 109.696 144.93 110.648 146.48 111.41C148.338 112.327 149.971 112.649 152.822 112.994C157.449 113.553 161.152 113.661 164.418 113.744C168.748 113.851 169.778 113.613 172.925 113.923C174.664 114.089 176.486 114.28 178.829 114.899C181.633 115.649 184.082 116.304 186.413 118.34C187.088 118.935 188.839 120.483 189.88 123.078C191.572 127.293 190.247 131.258 189.667 133.008C188.141 137.568 185.195 140.211 182.84 142.331C178.794 145.974 174.806 147.534 173.517 147.998C167.53 150.177 162.572 149.653 161.543 149.522C159.803 149.308 157.721 149.034 155.366 147.724C154.219 147.081 151.805 145.688 150.219 142.712C148.859 140.14 148.847 137.747 148.859 136.604C148.906 132.068 151.119 128.793 152.538 126.734C156.183 121.483 161.081 118.935 163.814 117.792C161.992 118.244 159.626 118.935 156.928 120.03C155.023 120.804 150.799 122.638 145.983 126.079C143.156 128.103 139.606 130.639 136.175 135.127C132.885 139.437 131.667 142.593 131.406 143.366C130.827 145.045 130.164 146.986 130.164 149.415C130.164 156.356 135.548 161.357 137.476 163.155C140.434 165.905 143.238 167.238 145.711 168.393C147.131 169.06 153.083 171.727 161.756 172.322C171.399 172.977 178.734 170.679 182.237 169.536C186.082 168.286 194.045 165.655 201.736 158.821C204.635 156.249 206.622 153.844 207.652 152.522C209.805 149.76 213.58 144.843 215.615 137.366C217.946 128.805 216.668 121.828 216.372 120.352C215.745 117.137 214.609 111.732 210.302 106.553C206.492 101.969 202.114 99.8732 200.174 98.9683C200.174 98.9683 195.418 96.7538 189.336 96.0394C186.887 95.7537 185.656 95.6108 184.295 95.6941C183.905 95.718 182.615 95.8132 180.876 95.6941C180.746 95.6822 180.379 95.8132 180.071 95.6227C179.705 95.3965 179.563 94.825 179.622 94.3845C179.681 94.1702 179.752 94.0154 179.787 93.9558Z" fill="url(#paint0_linear_2293_6886)"/>
</g>
<path d="M205.179 58.6214C210.564 58.6214 214.929 54.229 214.929 48.8107C214.929 43.3924 210.564 39 205.179 39C199.795 39 195.43 43.3924 195.43 48.8107C195.43 54.229 199.795 58.6214 205.179 58.6214Z" fill="#484848"/>
<defs>
<filter id="filter0_d_2293_6886" x="0" y="0" width="358" height="220" filterUnits="userSpaceOnUse" color-interpolation-filters="sRGB">
<feFlood flood-opacity="0" result="BackgroundImageFix"/>
<feColorMatrix in="SourceAlpha" type="matrix" values="0 0 0 0 0 0 0 0 0 0 0 0 0 0 0 0 0 0 127 0" result="hardAlpha"/>
<feOffset dy="4"/>
<feGaussianBlur stdDeviation="7.5"/>
<feComposite in2="hardAlpha" operator="out"/>
<feColorMatrix type="matrix" values="0 0 0 0 0 0 0 0 0 0 0 0 0 0 0 0 0 0 0.07 0"/>
<feBlend mode="normal" in2="BackgroundImageFix" result="effect1_dropShadow_2293_6886"/>
<feBlend mode="normal" in="SourceGraphic" in2="effect1_dropShadow_2293_6886" result="shape"/>
</filter>
<linearGradient id="paint0_linear_2293_6886" x1="130.389" y1="118.344" x2="217.221" y2="118.344" gradientUnits="userSpaceOnUse">
<stop offset="0.4148" stop-color="#3B3B3B"/>
<stop offset="0.9715" stop-color="#020202"/>
</linearGradient>
</defs>
</svg>
