<svg width="71" height="68" viewBox="0 0 71 68" fill="none" xmlns="http://www.w3.org/2000/svg">
<rect width="70.2728" height="67.0295" rx="16" fill="black"/>
<path d="M35.1577 28.8083C35.277 28.5605 35.3385 28.4366 35.4924 28.2663C35.7733 27.9605 36.6965 26.5708 38.5508 23.7913C38.5816 23.7448 38.8162 23.3964 39.1086 22.9203C39.2548 22.6842 39.424 22.3977 39.6241 22.0377C39.8665 21.6041 40.078 21.1976 40.0665 20.6557C40.0627 20.497 40.0511 20.1331 39.8742 19.8389C39.3086 18.9214 37.3082 19.0376 35.9079 19.5369C35.1462 19.8079 34.6307 20.1679 34.3229 20.3886C31.4531 22.4287 30.0181 23.4468 27.6984 25.5139C27.306 25.8623 27.7484 25.4752 25.1248 27.9953C24.9209 28.1927 23.963 29.1141 23.1859 30.407C23.0435 30.6432 22.8704 30.9606 22.7627 31.398C22.6935 31.6884 22.505 32.4665 22.8666 33.2252C23.2013 33.9259 23.8245 34.2356 24.3284 34.4833C24.9324 34.7814 25.4633 34.8859 26.3904 34.9982C27.8946 35.1801 29.0987 35.2149 30.1605 35.242C31.5685 35.2769 31.9032 35.1995 32.9265 35.3001C33.492 35.3543 34.0844 35.4162 34.8461 35.6175C35.7579 35.8614 36.5542 36.0743 37.3121 36.7363C37.5313 36.9298 38.1007 37.4331 38.4392 38.277C38.9893 39.6474 38.5585 40.9365 38.37 41.5055C37.8737 42.9881 36.9158 43.8475 36.1503 44.5366C34.8346 45.7211 33.5382 46.2283 33.1188 46.3792C31.1722 47.0877 29.5604 46.9173 29.2257 46.8747C28.6602 46.8051 27.9831 46.716 27.2175 46.2902C26.8444 46.0812 26.0596 45.6282 25.5441 44.6605C25.1017 43.8243 25.0978 43.0462 25.1017 42.6746C25.1171 41.1997 25.8365 40.1351 26.2981 39.4654C27.483 37.7583 29.0756 36.9299 29.9643 36.5582C29.3719 36.7053 28.6025 36.9298 27.7253 37.286C27.106 37.5376 25.7326 38.1338 24.1669 39.2525C23.2474 39.9106 22.0933 40.7352 20.9777 42.1946C19.9082 43.5959 19.512 44.6218 19.4274 44.8734C19.2389 45.4192 19.0234 46.0502 19.0234 46.8399C19.0234 49.0968 20.7738 50.7226 21.4009 51.3072C22.3626 52.2014 23.2744 52.635 24.0784 53.0105C24.54 53.2272 26.4751 54.0944 29.2949 54.2879C32.4302 54.5008 34.8154 53.7537 35.9541 53.3821C37.2043 52.9756 39.7934 52.1201 42.2939 49.8981C43.2364 49.0619 43.8827 48.28 44.2174 47.8503C44.9176 46.9522 46.1448 45.3534 46.8064 42.9223C47.5643 40.139 47.1488 37.8705 47.0526 37.3905C46.8488 36.3453 46.4794 34.5878 45.0791 32.9039C43.8404 31.4135 42.417 30.7322 41.7861 30.438C41.7861 30.438 40.2396 29.718 38.2623 29.4857C37.4659 29.3928 37.0658 29.3463 36.6234 29.3734C36.4965 29.3812 36.0772 29.4122 35.5117 29.3734C35.4693 29.3696 35.3501 29.4121 35.2501 29.3502C35.1308 29.2767 35.0846 29.0908 35.1039 28.9476C35.1231 28.8779 35.1462 28.8276 35.1577 28.8083Z" fill="white"/>
<mask id="mask0_2293_6915" style="mask-type:luminance" maskUnits="userSpaceOnUse" x="8" y="13" width="37" height="35">
<path d="M26.558 47.8496C36.3143 47.8496 44.2234 40.1908 44.2234 30.7432C44.2234 21.2955 36.3143 13.6367 26.558 13.6367C16.8016 13.6367 8.89258 21.2955 8.89258 30.7432C8.89258 40.1908 16.8016 47.8496 26.558 47.8496Z" fill="white"/>
</mask>
<g mask="url(#mask0_2293_6915)">
<path d="M35.1577 28.8083C35.277 28.5605 35.3385 28.4366 35.4924 28.2663C35.7733 27.9605 36.6965 26.5708 38.5508 23.7913C38.5816 23.7448 38.8162 23.3964 39.1086 22.9203C39.2548 22.6842 39.424 22.3977 39.6241 22.0377C39.8665 21.6041 40.078 21.1976 40.0665 20.6557C40.0627 20.497 40.0511 20.1331 39.8742 19.8389C39.3086 18.9214 37.3082 19.0376 35.9079 19.5369C35.1462 19.8079 34.6307 20.1679 34.3229 20.3886C31.4531 22.4287 30.0181 23.4468 27.6984 25.5139C27.306 25.8623 27.7484 25.4752 25.1248 27.9953C24.9209 28.1927 23.963 29.1141 23.1859 30.407C23.0435 30.6432 22.8704 30.9606 22.7627 31.398C22.6935 31.6884 22.505 32.4665 22.8666 33.2252C23.2013 33.9259 23.8245 34.2356 24.3284 34.4833C24.9324 34.7814 25.4633 34.8859 26.3904 34.9982C27.8946 35.1801 29.0987 35.2149 30.1605 35.242C31.5685 35.2769 31.9032 35.1995 32.9265 35.3001C33.492 35.3543 34.0844 35.4162 34.8461 35.6175C35.7579 35.8614 36.5542 36.0743 37.3121 36.7363C37.5313 36.9298 38.1007 37.4331 38.4392 38.277C38.9893 39.6474 38.5585 40.9365 38.37 41.5055C37.8737 42.9881 36.9158 43.8475 36.1503 44.5366C34.8346 45.7211 33.5382 46.2283 33.1188 46.3792C31.1722 47.0877 29.5604 46.9173 29.2257 46.8747C28.6602 46.8051 27.9831 46.716 27.2175 46.2902C26.8444 46.0812 26.0596 45.6282 25.5441 44.6605C25.1017 43.8243 25.0978 43.0462 25.1017 42.6746C25.1171 41.1997 25.8365 40.1351 26.2981 39.4654C27.483 37.7583 29.0756 36.9299 29.9643 36.5582C29.3719 36.7053 28.6025 36.9298 27.7253 37.286C27.106 37.5376 25.7326 38.1338 24.1669 39.2525C23.2474 39.9106 22.0933 40.7352 20.9777 42.1946C19.9082 43.5959 19.512 44.6218 19.4274 44.8734C19.2389 45.4192 19.0234 46.0502 19.0234 46.8399C19.0234 49.0968 20.7738 50.7226 21.4009 51.3072C22.3626 52.2014 23.2744 52.635 24.0784 53.0105C24.54 53.2272 26.4751 54.0944 29.2949 54.2879C32.4302 54.5008 34.8154 53.7537 35.9541 53.3821C37.2043 52.9756 39.7934 52.1201 42.2939 49.8981C43.2364 49.0619 43.8827 48.28 44.2174 47.8503C44.9176 46.9522 46.1448 45.3534 46.8064 42.9223C47.5643 40.139 47.1488 37.8705 47.0526 37.3905C46.8488 36.3453 46.4794 34.5878 45.0791 32.9039C43.8404 31.4135 42.417 30.7322 41.7861 30.438C41.7861 30.438 40.2396 29.718 38.2623 29.4857C37.4659 29.3928 37.0658 29.3463 36.6234 29.3734C36.4965 29.3812 36.0772 29.4122 35.5117 29.3734C35.4693 29.3696 35.3501 29.4121 35.2501 29.3502C35.1308 29.2767 35.0846 29.0908 35.1039 28.9476C35.1231 28.8779 35.1462 28.8276 35.1577 28.8083Z" fill="url(#paint0_linear_2293_6915)"/>
</g>
<path d="M43.4141 17.321C45.1648 17.321 46.584 15.8929 46.584 14.1312C46.584 12.3695 45.1648 10.9414 43.4141 10.9414C41.6634 10.9414 40.2441 12.3695 40.2441 14.1312C40.2441 15.8929 41.6634 17.321 43.4141 17.321Z" fill="white"/>
<defs>
<linearGradient id="paint0_linear_2293_6915" x1="19.0966" y1="36.7376" x2="47.3287" y2="36.7376" gradientUnits="userSpaceOnUse">
<stop offset="0.4148" stop-color="white"/>
<stop offset="0.9715" stop-color="#D1D1D1"/>
</linearGradient>
</defs>
</svg>
