<svg width="358" height="220" viewBox="0 0 358 220" fill="none" xmlns="http://www.w3.org/2000/svg">
<g filter="url(#filter0_d_2293_6875)">
<rect x="15" y="11" width="328" height="190" rx="10" fill="white"/>
</g>
<path d="M244.222 50L239.088 38.1H242.063L246.551 48.64H244.8L249.356 38.1H252.093L246.942 50H244.222ZM257.829 50V48.215L257.659 47.824V44.628C257.659 44.0613 257.483 43.6193 257.132 43.302C256.792 42.9847 256.265 42.826 255.551 42.826C255.064 42.826 254.582 42.9053 254.106 43.064C253.641 43.2113 253.245 43.4153 252.916 43.676L251.964 41.823C252.463 41.4717 253.063 41.1997 253.766 41.007C254.469 40.8143 255.183 40.718 255.908 40.718C257.302 40.718 258.384 41.0467 259.155 41.704C259.926 42.3613 260.311 43.387 260.311 44.781V50H257.829ZM255.041 50.136C254.327 50.136 253.715 50.017 253.205 49.779C252.695 49.5297 252.304 49.1953 252.032 48.776C251.76 48.3567 251.624 47.8863 251.624 47.365C251.624 46.821 251.754 46.345 252.015 45.937C252.287 45.529 252.712 45.2117 253.29 44.985C253.868 44.747 254.622 44.628 255.551 44.628H257.982V46.175H255.84C255.217 46.175 254.786 46.277 254.548 46.481C254.321 46.685 254.208 46.94 254.208 47.246C254.208 47.586 254.338 47.858 254.599 48.062C254.871 48.2547 255.239 48.351 255.704 48.351C256.146 48.351 256.543 48.249 256.894 48.045C257.245 47.8297 257.5 47.518 257.659 47.11L258.067 48.334C257.874 48.9233 257.523 49.371 257.013 49.677C256.503 49.983 255.846 50.136 255.041 50.136ZM262.711 50V40.854H265.244V43.438L264.887 42.69C265.159 42.044 265.596 41.5567 266.196 41.228C266.797 40.888 267.528 40.718 268.389 40.718V43.166C268.276 43.1547 268.174 43.149 268.083 43.149C267.993 43.1377 267.896 43.132 267.794 43.132C267.069 43.132 266.48 43.3417 266.026 43.761C265.584 44.169 265.363 44.8093 265.363 45.682V50H262.711ZM269.983 50V40.854H272.635V50H269.983ZM271.309 39.579C270.821 39.579 270.425 39.4373 270.119 39.154C269.813 38.8707 269.66 38.5193 269.66 38.1C269.66 37.6807 269.813 37.3293 270.119 37.046C270.425 36.7627 270.821 36.621 271.309 36.621C271.796 36.621 272.193 36.757 272.499 37.029C272.805 37.2897 272.958 37.6297 272.958 38.049C272.958 38.491 272.805 38.8593 272.499 39.154C272.204 39.4373 271.807 39.579 271.309 39.579ZM280.706 50V48.215L280.536 47.824V44.628C280.536 44.0613 280.36 43.6193 280.009 43.302C279.669 42.9847 279.142 42.826 278.428 42.826C277.941 42.826 277.459 42.9053 276.983 43.064C276.518 43.2113 276.122 43.4153 275.793 43.676L274.841 41.823C275.34 41.4717 275.94 41.1997 276.643 41.007C277.346 40.8143 278.06 40.718 278.785 40.718C280.179 40.718 281.261 41.0467 282.032 41.704C282.803 42.3613 283.188 43.387 283.188 44.781V50H280.706ZM277.918 50.136C277.204 50.136 276.592 50.017 276.082 49.779C275.572 49.5297 275.181 49.1953 274.909 48.776C274.637 48.3567 274.501 47.8863 274.501 47.365C274.501 46.821 274.631 46.345 274.892 45.937C275.164 45.529 275.589 45.2117 276.167 44.985C276.745 44.747 277.499 44.628 278.428 44.628H280.859V46.175H278.717C278.094 46.175 277.663 46.277 277.425 46.481C277.198 46.685 277.085 46.94 277.085 47.246C277.085 47.586 277.215 47.858 277.476 48.062C277.748 48.2547 278.116 48.351 278.581 48.351C279.023 48.351 279.42 48.249 279.771 48.045C280.122 47.8297 280.377 47.518 280.536 47.11L280.944 48.334C280.751 48.9233 280.4 49.371 279.89 49.677C279.38 49.983 278.723 50.136 277.918 50.136ZM289.328 50.136C288.252 50.136 287.413 49.864 286.812 49.32C286.212 48.7647 285.911 47.943 285.911 46.855V38.831H288.563V46.821C288.563 47.2063 288.665 47.5067 288.869 47.722C289.073 47.926 289.351 48.028 289.702 48.028C290.122 48.028 290.479 47.9147 290.773 47.688L291.487 49.558C291.215 49.7507 290.887 49.898 290.501 50C290.127 50.0907 289.736 50.136 289.328 50.136ZM284.5 43.098V41.058H290.841V43.098H284.5ZM292.976 50V40.854H295.628V50H292.976ZM294.302 39.579C293.815 39.579 293.418 39.4373 293.112 39.154C292.806 38.8707 292.653 38.5193 292.653 38.1C292.653 37.6807 292.806 37.3293 293.112 37.046C293.418 36.7627 293.815 36.621 294.302 36.621C294.789 36.621 295.186 36.757 295.492 37.029C295.798 37.2897 295.951 37.6297 295.951 38.049C295.951 38.491 295.798 38.8593 295.492 39.154C295.197 39.4373 294.801 39.579 294.302 39.579ZM302.441 50.136C301.467 50.136 300.6 49.932 299.84 49.524C299.092 49.116 298.497 48.5607 298.055 47.858C297.625 47.144 297.409 46.3337 297.409 45.427C297.409 44.509 297.625 43.6987 298.055 42.996C298.497 42.282 299.092 41.7267 299.84 41.33C300.6 40.922 301.467 40.718 302.441 40.718C303.405 40.718 304.266 40.922 305.025 41.33C305.785 41.7267 306.38 42.2763 306.81 42.979C307.241 43.6817 307.456 44.4977 307.456 45.427C307.456 46.3337 307.241 47.144 306.81 47.858C306.38 48.5607 305.785 49.116 305.025 49.524C304.266 49.932 303.405 50.136 302.441 50.136ZM302.441 47.96C302.883 47.96 303.28 47.858 303.631 47.654C303.983 47.45 304.26 47.161 304.464 46.787C304.668 46.4017 304.77 45.9483 304.77 45.427C304.77 44.8943 304.668 44.441 304.464 44.067C304.26 43.693 303.983 43.404 303.631 43.2C303.28 42.996 302.883 42.894 302.441 42.894C301.999 42.894 301.603 42.996 301.251 43.2C300.9 43.404 300.617 43.693 300.401 44.067C300.197 44.441 300.095 44.8943 300.095 45.427C300.095 45.9483 300.197 46.4017 300.401 46.787C300.617 47.161 300.9 47.45 301.251 47.654C301.603 47.858 301.999 47.96 302.441 47.96ZM314.788 40.718C315.513 40.718 316.159 40.8653 316.726 41.16C317.304 41.4433 317.757 41.8853 318.086 42.486C318.415 43.0753 318.579 43.8347 318.579 44.764V50H315.927V45.172C315.927 44.4353 315.763 43.8913 315.434 43.54C315.117 43.1887 314.663 43.013 314.074 43.013C313.655 43.013 313.275 43.1037 312.935 43.285C312.606 43.455 312.346 43.7213 312.153 44.084C311.972 44.4467 311.881 44.9113 311.881 45.478V50H309.229V40.854H311.762V43.387L311.286 42.622C311.615 42.01 312.085 41.5397 312.697 41.211C313.309 40.8823 314.006 40.718 314.788 40.718Z" fill="#796DEB"/>
<path d="M179.501 94.7779C179.866 94.0184 180.055 93.6387 180.527 93.1165C181.388 92.179 184.218 87.9188 189.902 79.3984C189.997 79.2559 190.716 78.1879 191.612 76.7283C192.06 76.0044 192.579 75.1263 193.193 74.0226C193.935 72.6935 194.584 71.4475 194.549 69.7861C194.537 69.2996 194.502 68.1841 193.959 67.2822C192.225 64.4698 186.093 64.8258 181.8 66.3566C179.465 67.1873 177.885 68.2909 176.942 68.9673C168.144 75.2212 163.745 78.3422 156.634 84.6791C155.431 85.7472 156.788 84.5605 148.745 92.2858C148.12 92.8911 145.183 95.7154 142.801 99.6789C142.365 100.403 141.834 101.376 141.504 102.717C141.292 103.607 140.714 105.992 141.822 108.318C142.848 110.466 144.759 111.415 146.304 112.175C148.155 113.089 149.782 113.409 152.625 113.753C157.236 114.311 160.927 114.418 164.182 114.501C168.498 114.608 169.524 114.37 172.661 114.679C174.394 114.845 176.211 115.035 178.546 115.652C181.341 116.399 183.782 117.052 186.105 119.081C186.777 119.675 188.522 121.217 189.56 123.804C191.247 128.005 189.926 131.957 189.348 133.701C187.827 138.246 184.89 140.881 182.543 142.993C178.51 146.625 174.536 148.179 173.251 148.642C167.283 150.814 162.342 150.291 161.316 150.161C159.582 149.947 157.507 149.674 155.16 148.369C154.016 147.728 151.61 146.34 150.03 143.373C148.674 140.81 148.662 138.424 148.674 137.285C148.721 132.764 150.926 129.501 152.342 127.448C155.974 122.214 160.856 119.675 163.58 118.535C161.764 118.986 159.406 119.675 156.717 120.766C154.818 121.538 150.608 123.365 145.808 126.795C142.99 128.812 139.452 131.34 136.032 135.814C132.753 140.11 131.539 143.254 131.279 144.026C130.701 145.699 130.041 147.633 130.041 150.054C130.041 156.972 135.407 161.957 137.329 163.748C140.277 166.49 143.072 167.819 145.537 168.97C146.952 169.634 152.884 172.293 161.528 172.886C171.14 173.539 178.451 171.248 181.942 170.109C185.775 168.863 193.711 166.241 201.377 159.429C204.266 156.866 206.247 154.469 207.273 153.151C209.42 150.398 213.182 145.497 215.21 138.045C217.533 129.512 216.26 122.558 215.965 121.087C215.34 117.883 214.208 112.495 209.915 107.333C206.118 102.764 201.754 100.676 199.82 99.7739C199.82 99.7739 195.079 97.5666 189.018 96.8546C186.577 96.5698 185.35 96.4274 183.994 96.5105C183.605 96.5342 182.319 96.6291 180.586 96.5105C180.456 96.4986 180.09 96.6291 179.784 96.4393C179.418 96.2138 179.277 95.6442 179.336 95.2051C179.395 94.9915 179.465 94.8372 179.501 94.7779Z" fill="url(#paint0_linear_2293_6875)"/>
<mask id="mask0_2293_6875" style="mask-type:luminance" maskUnits="userSpaceOnUse" x="98" y="48" width="110" height="106">
<path d="M153.132 153.14C183.04 153.14 207.285 129.662 207.285 100.7C207.285 71.7379 183.04 48.2598 153.132 48.2598C123.224 48.2598 98.9785 71.7379 98.9785 100.7C98.9785 129.662 123.224 153.14 153.132 153.14Z" fill="white"/>
</mask>
<g mask="url(#mask0_2293_6875)">
<path d="M179.501 94.7779C179.866 94.0184 180.055 93.6387 180.527 93.1165C181.388 92.179 184.218 87.9188 189.902 79.3983C189.997 79.2559 190.716 78.1879 191.612 76.7283C192.06 76.0044 192.579 75.1263 193.193 74.0226C193.935 72.6935 194.584 71.4475 194.549 69.7861C194.537 69.2996 194.502 68.1841 193.959 67.2822C192.225 64.4698 186.093 64.8258 181.8 66.3566C179.465 67.1873 177.885 68.2909 176.942 68.9673C168.144 75.2212 163.745 78.3422 156.634 84.6791C155.431 85.7472 156.788 84.5605 148.745 92.2858C148.12 92.8911 145.183 95.7154 142.801 99.6789C142.365 100.403 141.834 101.376 141.504 102.717C141.292 103.607 140.714 105.992 141.822 108.318C142.848 110.466 144.759 111.415 146.304 112.175C148.155 113.089 149.782 113.409 152.625 113.753C157.236 114.311 160.927 114.418 164.182 114.501C168.498 114.608 169.524 114.37 172.661 114.679C174.394 114.845 176.211 115.035 178.546 115.652C181.341 116.399 183.782 117.052 186.105 119.081C186.777 119.675 188.522 121.217 189.56 123.804C191.247 128.005 189.926 131.957 189.348 133.701C187.827 138.246 184.89 140.881 182.543 142.993C178.51 146.625 174.536 148.179 173.251 148.642C167.283 150.814 162.342 150.291 161.316 150.161C159.582 149.947 157.507 149.674 155.16 148.369C154.016 147.728 151.61 146.34 150.03 143.373C148.674 140.81 148.662 138.424 148.674 137.285C148.721 132.764 150.926 129.501 152.342 127.448C155.974 122.214 160.856 119.675 163.58 118.535C161.764 118.986 159.406 119.675 156.717 120.766C154.818 121.538 150.608 123.365 145.808 126.795C142.99 128.812 139.452 131.34 136.032 135.814C132.753 140.11 131.539 143.254 131.279 144.026C130.701 145.699 130.041 147.633 130.041 150.054C130.041 156.972 135.407 161.957 137.329 163.748C140.277 166.49 143.072 167.819 145.537 168.97C146.952 169.634 152.884 172.293 161.528 172.886C171.14 173.539 178.451 171.248 181.942 170.109C185.775 168.863 193.711 166.241 201.377 159.429C204.266 156.866 206.247 154.469 207.273 153.151C209.42 150.398 213.182 145.497 215.21 138.045C217.533 129.512 216.26 122.558 215.965 121.087C215.34 117.883 214.208 112.495 209.915 107.333C206.118 102.764 201.754 100.676 199.82 99.7739C199.82 99.7739 195.079 97.5666 189.018 96.8546C186.577 96.5698 185.35 96.4274 183.994 96.5105C183.605 96.5342 182.319 96.6291 180.586 96.5105C180.456 96.4986 180.09 96.6291 179.784 96.4393C179.418 96.2138 179.277 95.6442 179.336 95.2051C179.395 94.9915 179.465 94.8372 179.501 94.7779Z" fill="url(#paint1_linear_2293_6875)"/>
</g>
<path d="M204.811 59.5567C210.178 59.5567 214.529 55.1788 214.529 49.7784C214.529 44.3779 210.178 40 204.811 40C199.444 40 195.094 44.3779 195.094 49.7784C195.094 55.1788 199.444 59.5567 204.811 59.5567Z" fill="#6A6CEA"/>
<defs>
<filter id="filter0_d_2293_6875" x="0" y="0" width="358" height="220" filterUnits="userSpaceOnUse" color-interpolation-filters="sRGB">
<feFlood flood-opacity="0" result="BackgroundImageFix"/>
<feColorMatrix in="SourceAlpha" type="matrix" values="0 0 0 0 0 0 0 0 0 0 0 0 0 0 0 0 0 0 127 0" result="hardAlpha"/>
<feOffset dy="4"/>
<feGaussianBlur stdDeviation="7.5"/>
<feComposite in2="hardAlpha" operator="out"/>
<feColorMatrix type="matrix" values="0 0 0 0 0 0 0 0 0 0 0 0 0 0 0 0 0 0 0.07 0"/>
<feBlend mode="normal" in2="BackgroundImageFix" result="effect1_dropShadow_2293_6875"/>
<feBlend mode="normal" in="SourceGraphic" in2="effect1_dropShadow_2293_6875" result="shape"/>
</filter>
<linearGradient id="paint0_linear_2293_6875" x1="190.614" y1="117.438" x2="159.639" y2="149.704" gradientUnits="userSpaceOnUse">
<stop stop-color="#5B66E4"/>
<stop offset="1" stop-color="#8778F7"/>
</linearGradient>
<linearGradient id="paint1_linear_2293_6875" x1="130.265" y1="119.085" x2="216.811" y2="119.085" gradientUnits="userSpaceOnUse">
<stop offset="0.4148" stop-color="#8778F7"/>
<stop offset="0.9715" stop-color="#4C60DD"/>
</linearGradient>
</defs>
</svg>
