<svg width="77" height="74" viewBox="0 0 77 74" fill="none" xmlns="http://www.w3.org/2000/svg">
<g filter="url(#filter0_d_2293_6975)">
<rect x="3" y="0.34375" width="70.2728" height="67.0295" rx="16" fill="white"/>
</g>
<path d="M38.1576 34.2125C38.2768 33.9647 38.3384 33.8408 38.4923 33.6705C38.7731 33.3647 39.6964 31.975 41.5506 29.1955C41.5814 29.1491 41.816 28.8007 42.1084 28.3246C42.2546 28.0884 42.4238 27.802 42.6239 27.4419C42.8662 27.0084 43.0778 26.6019 43.0663 26.06C43.0624 25.9013 43.0509 25.5374 42.8739 25.2432C42.3084 24.3257 40.308 24.4419 38.9077 24.9412C38.146 25.2122 37.6305 25.5722 37.3228 25.7929C34.4529 27.8329 33.018 28.851 30.6983 30.9182C30.3059 31.2666 30.7483 30.8795 28.1247 33.3995C27.9208 33.597 26.9629 34.5183 26.1858 35.8112C26.0435 36.0473 25.8704 36.3648 25.7627 36.8022C25.6934 37.0925 25.5049 37.8706 25.8665 38.6294C26.2012 39.33 26.8244 39.6397 27.3284 39.8874C27.9324 40.1855 28.4632 40.29 29.3904 40.4023C30.8945 40.5842 32.0986 40.6191 33.1604 40.6462C34.5684 40.681 34.903 40.6036 35.9263 40.7042C36.4918 40.7584 37.0843 40.8204 37.846 41.0217C38.7577 41.2655 39.554 41.4785 40.3119 42.1404C40.5311 42.334 41.1005 42.8372 41.439 43.6811C41.9891 45.0515 41.5583 46.3405 41.3698 46.9096C40.8735 48.3922 39.9156 49.2516 39.1501 49.9406C37.8344 51.1252 36.538 51.6323 36.1187 51.7833C34.1721 52.4917 32.5602 52.3213 32.2256 52.2788C31.6601 52.2091 30.983 52.12 30.2175 51.6942C29.8443 51.4852 29.0595 51.0323 28.544 50.0645C28.1016 49.2283 28.0978 48.4503 28.1016 48.0786C28.117 46.6038 28.8364 45.5392 29.298 44.8695C30.4829 43.1624 32.0755 42.334 32.9642 41.9623C32.3717 42.1094 31.6024 42.334 30.7253 42.6901C30.1059 42.9417 28.7325 43.5379 27.1668 44.6566C26.2474 45.3147 25.0933 46.1392 23.9777 47.5986C22.9082 49 22.512 50.0258 22.4274 50.2774C22.2389 50.8232 22.0234 51.4542 22.0234 52.2439C22.0234 54.5007 23.7738 56.1266 24.4009 56.7111C25.3626 57.6053 26.2743 58.0389 27.0783 58.4144C27.54 58.6312 29.475 59.4983 32.2948 59.6919C35.4301 59.9048 37.8152 59.1576 38.9539 58.786C40.2041 58.3796 42.7931 57.5241 45.2937 55.3021C46.2362 54.4659 46.8825 53.684 47.2171 53.2543C47.9173 52.3562 49.1445 50.7574 49.8062 48.3264C50.564 45.5431 50.1485 43.2746 50.0524 42.7946C49.8485 41.7494 49.4792 39.992 48.0789 38.3081C46.8401 36.8177 45.4168 36.1364 44.7859 35.8422C44.7859 35.8422 43.2394 35.1222 41.2621 34.8899C40.4657 34.797 40.0657 34.7505 39.6233 34.7776C39.4963 34.7854 39.077 34.8163 38.5115 34.7776C38.4692 34.7738 38.3499 34.8163 38.2499 34.7544C38.1306 34.6809 38.0845 34.495 38.1037 34.3518C38.1229 34.2821 38.146 34.2318 38.1576 34.2125Z" fill="url(#paint0_linear_2293_6975)"/>
<mask id="mask0_2293_6975" style="mask-type:luminance" maskUnits="userSpaceOnUse" x="11" y="19" width="37" height="35">
<path d="M29.5578 53.2496C39.314 53.2496 47.223 45.5909 47.223 36.1434C47.223 26.6958 39.314 19.0371 29.5578 19.0371C19.8016 19.0371 11.8926 26.6958 11.8926 36.1434C11.8926 45.5909 19.8016 53.2496 29.5578 53.2496Z" fill="white"/>
</mask>
<g mask="url(#mask0_2293_6975)">
<path d="M38.1593 34.2125C38.2785 33.9647 38.3401 33.8408 38.494 33.6705C38.7748 33.3647 39.6981 31.975 41.5523 29.1955C41.5831 29.1491 41.8177 28.8007 42.1101 28.3246C42.2563 28.0884 42.4256 27.802 42.6256 27.4419C42.868 27.0084 43.0795 26.6019 43.068 26.06C43.0641 25.9013 43.0526 25.5374 42.8756 25.2432C42.3101 24.3257 40.3097 24.4419 38.9094 24.9412C38.1477 25.2122 37.6322 25.5722 37.3245 25.7929C34.4547 27.8329 33.0197 28.851 30.7 30.9182C30.3076 31.2666 30.75 30.8795 28.1264 33.3995C27.9225 33.597 26.9646 34.5183 26.1876 35.8112C26.0452 36.0473 25.8721 36.3648 25.7644 36.8022C25.6951 37.0925 25.5066 37.8706 25.8683 38.6293C26.2029 39.33 26.8261 39.6397 27.3301 39.8874C27.9341 40.1855 28.465 40.29 29.3921 40.4023C30.8962 40.5842 32.1003 40.6191 33.1621 40.6462C34.5701 40.681 34.9048 40.6036 35.928 40.7042C36.4935 40.7584 37.086 40.8204 37.8477 41.0217C38.7594 41.2655 39.5557 41.4785 40.3136 42.1404C40.5329 42.334 41.1022 42.8372 41.4407 43.6811C41.9908 45.0515 41.56 46.3405 41.3715 46.9096C40.8752 48.3922 39.9173 49.2516 39.1518 49.9406C37.8361 51.1252 36.5397 51.6323 36.1204 51.7833C34.1738 52.4917 32.562 52.3213 32.2273 52.2787C31.6618 52.2091 30.9847 52.12 30.2192 51.6942C29.846 51.4852 29.0612 51.0323 28.5457 50.0645C28.1033 49.2283 28.0995 48.4503 28.1033 48.0786C28.1187 46.6038 28.8381 45.5392 29.2997 44.8695C30.4846 43.1624 32.0772 42.334 32.9659 41.9623C32.3735 42.1094 31.6041 42.334 30.727 42.6901C30.1076 42.9417 28.7342 43.5379 27.1685 44.6566C26.2491 45.3147 25.095 46.1392 23.9794 47.5986C22.9099 49 22.5137 50.0258 22.4291 50.2774C22.2406 50.8232 22.0251 51.4542 22.0251 52.2439C22.0251 54.5007 23.7755 56.1266 24.4026 56.7111C25.3643 57.6053 26.276 58.0389 27.08 58.4144C27.5417 58.6312 29.4767 59.4983 32.2965 59.6919C35.4318 59.9048 37.8169 59.1576 38.9556 58.786C40.2059 58.3796 42.7949 57.5241 45.2954 55.3021C46.2379 54.4659 46.8842 53.684 47.2189 53.2543C47.919 52.3562 49.1462 50.7574 49.8079 48.3264C50.5657 45.5431 50.1502 43.2746 50.0541 42.7946C49.8502 41.7494 49.4809 39.992 48.0806 38.308C46.8419 36.8177 45.4185 36.1364 44.7876 35.8422C44.7876 35.8422 43.2411 35.1222 41.2638 34.8899C40.4675 34.797 40.0674 34.7505 39.625 34.7776C39.498 34.7854 39.0787 34.8163 38.5132 34.7776C38.4709 34.7738 38.3516 34.8163 38.2516 34.7544C38.1323 34.6809 38.0862 34.495 38.1054 34.3518C38.1247 34.2821 38.1477 34.2318 38.1593 34.2125Z" fill="url(#paint1_linear_2293_6975)"/>
</g>
<path d="M46.414 22.7233C48.1647 22.7233 49.5839 21.2952 49.5839 19.5335C49.5839 17.7719 48.1647 16.3438 46.414 16.3438C44.6634 16.3438 43.2441 17.7719 43.2441 19.5335C43.2441 21.2952 44.6634 22.7233 46.414 22.7233Z" fill="#6A6CEA"/>
<defs>
<filter id="filter0_d_2293_6975" x="0" y="0.34375" width="76.2727" height="73.0293" filterUnits="userSpaceOnUse" color-interpolation-filters="sRGB">
<feFlood flood-opacity="0" result="BackgroundImageFix"/>
<feColorMatrix in="SourceAlpha" type="matrix" values="0 0 0 0 0 0 0 0 0 0 0 0 0 0 0 0 0 0 127 0" result="hardAlpha"/>
<feOffset dy="3"/>
<feGaussianBlur stdDeviation="1.5"/>
<feComposite in2="hardAlpha" operator="out"/>
<feColorMatrix type="matrix" values="0 0 0 0 0 0 0 0 0 0 0 0 0 0 0 0 0 0 0.15 0"/>
<feBlend mode="normal" in2="BackgroundImageFix" result="effect1_dropShadow_2293_6975"/>
<feBlend mode="normal" in="SourceGraphic" in2="effect1_dropShadow_2293_6975" result="shape"/>
</filter>
<linearGradient id="paint0_linear_2293_6975" x1="41.7828" y1="41.6044" x2="31.6784" y2="52.1298" gradientUnits="userSpaceOnUse">
<stop stop-color="#5B66E4"/>
<stop offset="1" stop-color="#8778F7"/>
</linearGradient>
<linearGradient id="paint1_linear_2293_6975" x1="22.0983" y1="42.1417" x2="50.3302" y2="42.1417" gradientUnits="userSpaceOnUse">
<stop offset="0.4148" stop-color="#8778F7"/>
<stop offset="0.9715" stop-color="#4C60DD"/>
</linearGradient>
</defs>
</svg>
