<svg width="70" height="144" viewBox="0 0 70 144" fill="none" xmlns="http://www.w3.org/2000/svg">
<path d="M67.9285 140.043L67.9661 139.762C68.0224 140.4 68.0675 140.761 67.9285 140.043ZM67.7896 140.712C67.6656 141.095 67.7633 141.444 67.5792 141.654C67.2675 141.647 66.9971 141.67 66.6929 141.692C66.2121 141.715 65.6938 141.741 65.1267 141.748C66.0807 140.719 67.0121 139.671 67.9285 138.635C67.9285 138.969 67.936 139.341 67.9586 139.66L67.8572 140.043C67.8722 140.9 67.8196 140.727 67.7896 140.712ZM55.7333 141.553C55.4441 141.546 55.245 141.546 55.0873 141.553C56.6948 139.972 58.2948 138.394 59.8873 136.821C59.9624 136.821 60.0337 136.813 60.1276 136.813C59.8797 136.798 59.8384 136.783 60.5145 136.821C60.3755 136.821 60.2516 136.821 60.1276 136.813C60.2516 136.821 60.4131 136.836 60.6084 136.843L60.5295 136.821C60.7323 136.821 60.9502 136.828 61.2056 136.836C61.1417 136.858 60.8713 136.858 60.6084 136.843L60.8262 136.93C62.2835 137.189 63.061 136.783 64.6196 136.87C64.4656 136.877 64.2178 136.892 64.0638 136.892C64.4882 136.922 65.0102 137.024 65.4684 137.095C63.8985 138.672 62.3248 140.246 60.7549 141.823C60.4431 141.865 60.1427 141.91 59.6281 141.996L59.8309 142.053L60.6535 141.925C60.537 142.041 60.4206 142.162 60.3042 142.278C58.7305 142.06 55.1061 141.865 55.7333 141.553ZM54.3061 142.323C54.3211 142.308 54.3286 142.3 54.3361 142.293L54.7643 142.068C54.6854 142.068 54.6291 142.075 54.554 142.075C54.7004 141.932 54.8394 141.793 54.9896 141.654C55.3464 141.726 55.9023 141.808 55.2525 141.872L54.9633 141.857C55.8347 141.895 56.5183 142.011 57.0065 142.135C57.1906 142.316 55.0122 142.372 54.3061 142.323ZM51.4704 142.796C50.6967 142.751 50.4451 142.687 50.3699 142.605H50.7117C51.5568 141.902 51.7108 141.974 51.215 142.605H51.2375C51.4554 142.379 51.6507 142.169 51.8422 141.989C51.9286 141.989 52.015 141.989 52.0676 141.989C51.9436 142.143 51.7033 142.361 51.4253 142.605H52.2028C52.0225 142.672 51.7972 142.736 51.4704 142.796ZM50.1671 143.412C50.2385 143.39 50.3211 143.375 50.4 143.352C50.4 143.352 50.4 143.352 50.415 143.352L50.1671 143.412ZM48.3493 142.293V142.105C47.0873 142.154 46.7981 142.331 45.0442 142.263C46.3099 142.075 42.4113 142.083 44.1653 141.835C43.9963 141.823 43.8648 141.835 43.7334 141.85C43.7559 141.816 43.7859 141.793 43.816 141.763C44.5071 141.816 45.1831 141.88 45.431 141.786C45.0592 141.647 44.5146 141.67 43.8798 141.692C45.8366 139.747 47.7859 137.793 49.7239 135.848C50.1221 136.212 50.6103 136.494 51.4178 136.682C52.3418 137.095 53.63 137.189 54.723 137.147C54.8018 137.147 54.8732 137.147 54.9483 137.147C54.8319 137.234 54.7455 137.32 54.6479 137.407C54.415 137.422 54.1972 137.429 54.0169 137.444C54.1896 137.437 54.3962 137.437 54.614 137.429C54.4075 137.606 54.1821 137.786 54.0094 137.951C53.2169 138.977 53.4422 139.281 51.1699 141.459L51.9587 140.299C50.7418 141.516 50.4864 141.902 50.276 142.229L48.3493 142.293ZM43.3615 142.222C43.4216 142.162 43.4855 142.098 43.5381 142.034C43.632 142.041 43.7183 142.041 43.7784 142.053C43.9099 142.154 43.7108 142.199 43.3615 142.222ZM37.9494 142.053C37.9494 142.244 36.3907 142.09 35.6132 142.083C36.4883 142.12 37.7541 142.263 37.1794 142.424C36.4996 142.503 35.9174 142.541 34.3625 142.518L35.4254 142.605C34.3851 142.823 33.6038 142.59 32.4621 142.511C32.5297 142.447 32.601 142.387 32.6799 142.323C32.8715 142.3 33.0668 142.285 33.2846 142.237C33.1306 142.252 32.9203 142.27 32.7175 142.293C32.7963 142.222 32.879 142.154 32.9578 142.083C33.7653 142.143 34.6667 142.128 34.8282 142.004C33.6639 142.083 34.5428 141.925 33.57 141.925L33.0668 141.996C33.1757 141.902 33.2771 141.816 33.401 141.715L33.2207 141.778C38.4151 136.633 43.7784 131.375 49.0742 126.15C49.1117 126.875 49.1117 127.683 48.9502 128.299L48.9427 128.22C48.9089 129.816 48.815 131.055 48.7174 130.714C48.6986 131.232 48.6911 131.81 48.7099 132.393C45.4873 135.63 42.2648 138.875 39.0423 142.12C38.7118 142.135 38.3137 142.12 37.9494 142.053ZM30.0395 142.511C30.5503 142.06 30.9071 141.801 30.5691 142.252C30.4902 142.338 30.4189 142.417 30.3438 142.488C30.2424 142.496 30.1409 142.503 30.0395 142.511ZM27.8349 142.278C27.6396 142.417 26.0884 142.263 26.0884 142.454C24.1466 142.323 27.6396 142.222 27.8349 142.083C25.4048 141.959 25.8856 142.402 23.5569 142.105L24.3344 141.925C23.6959 141.917 22.5504 141.981 22.0997 141.959C23.0236 141.087 24.0077 139.998 25.8405 138.229C29.8442 134.199 33.5175 130.199 36.5597 126.635C40.1315 123.101 36.4357 127.247 37.1569 126.627C34.5728 129.054 35.4667 128.408 35.001 129.031C36.2555 127.638 37.8179 125.996 38.663 125.474C40.5033 123.615 41.3409 122.789 43.0573 120.851C42.1972 121.824 41.3184 122.526 42.1033 121.591C43.6695 120.137 47.4516 116.22 47.4441 116.641C47.8235 116.254 48.2178 115.856 48.6085 115.457C48.6235 115.653 48.631 115.848 48.6385 116.081C48.646 115.826 48.661 115.608 48.6761 115.397C48.8 115.273 48.9239 115.146 49.0479 115.014L49.0817 115.341C48.9803 117.756 48.7249 115.037 48.6085 117.031C48.3981 118.398 48.7249 118.905 48.6009 119.964C48.6235 119.893 48.646 119.818 48.6685 119.754C48.661 119.987 48.6535 120.16 48.6535 120.284L48.6685 120.261C48.6836 120.821 48.6911 121.38 48.6986 121.88C48.2028 122.564 48.2178 122.811 46.7456 124.088C45.4798 125.538 44.1202 126.394 43.2751 127.194C42.4902 128.22 42.7155 128.517 40.432 130.695L41.232 129.546C38.7118 132.058 40.3155 130.992 37.9719 133.32C38.817 132.517 37.3597 134.293 38.9259 132.734C38.2536 133.598 36.5747 135.318 35.2564 136.543C34.9522 136.9 35.2489 136.674 35.2564 136.791C36.7775 135.514 37.3447 134.447 38.6705 133.474L39.4555 132.299C40.8301 131.071 41.123 131.093 40.3944 131.964C40.7587 131.593 41.0554 131.24 41.3559 131.007C41.8705 131.078 39.6883 132.471 39.4855 133.17L40.3794 132.231C40.9766 132.021 38.4001 134.556 37.1982 135.732C35.7672 136.986 34.509 138.192 34.2761 138.135L36.0226 136.276C34.9747 137.102 33.7804 138.65 32.725 139.694C32.6386 139.739 32.5222 139.825 32.3907 139.942C32.4546 139.904 32.4996 139.878 32.5146 139.897C32.2818 140.115 32.0715 140.291 31.8649 140.434C31.2752 141.016 30.5428 141.808 29.8517 142.526C29.7917 142.526 29.7203 142.533 29.6602 142.541C29.9006 142.3 30.1334 142.068 30.325 141.85C30.0921 141.966 29.7917 142.229 29.4574 142.548C29.4424 142.548 29.4198 142.556 29.3935 142.556L28.7513 142.439C29.6827 141.305 30.2574 140.486 31.0799 140.021L32.2968 138.207C30.8095 139.608 31.3916 139.529 30.3663 140.516C29.7766 140.978 30.3888 140.306 29.9456 140.659C29.3109 141.219 28.7212 141.793 28.1917 142.338L27.8349 142.278ZM21.8405 142.199C21.9194 142.12 22.0058 142.041 22.0847 141.966C22.2462 141.974 22.4865 141.966 22.772 141.966C22.6405 142.083 22.2687 142.143 21.8405 142.199ZM16.4697 142.868C15.7636 142.774 16.4396 142.672 17.0856 142.59C17.0744 142.597 17.0668 142.605 17.0668 142.605H19.4894C19.4894 142.62 19.4743 142.627 19.4743 142.635L20.5448 142.657C18.9072 142.736 17.7354 143.007 16.4697 142.868ZM21.8969 141.932L21.6715 142.214C21.649 142.222 21.6264 142.222 21.6077 142.222C21.7016 142.128 21.7729 142.053 21.8969 141.932ZM48.2329 106.935C48.2329 106.766 48.2028 106.549 48.1953 106.368C48.3906 106.173 48.5822 105.978 48.7775 105.786C48.8075 106.361 48.8413 107.014 48.9014 107.841C48.8488 105.925 49.0892 108.205 49.1756 107.18C49.1906 109.606 49.0742 107.777 48.8939 108.532C48.9014 109.527 48.8075 110.049 48.8563 110.766C48.7549 110.868 48.661 110.962 48.5596 111.052C48.5746 109.294 48.6986 106.5 48.2329 106.935ZM44.9352 105.099L43.2263 107.247C42.8545 107.262 41.7841 108.626 40.7512 109.576L41.2658 108.836C39.9512 110.165 39.4104 110.65 38.524 111.412C39.1137 110.507 39.7484 110.252 39.9212 109.786L38.4226 111.187C38.5315 111.281 37.694 112.276 38.7869 111.296C37.6301 112.828 37.048 113.715 33.6714 117.076C31.9813 118.432 35.155 115.288 34.355 115.754C30.7907 119.179 30.5278 120.479 28.4621 122.5C25.7917 125.039 26.0959 125.046 23.4631 127.709C24.1091 126.86 22.0847 128.851 21.1908 129.591C21.2058 129.531 21.2208 129.467 21.2358 129.388L21.8255 128.64C21.634 128.851 21.4462 129.054 21.2584 129.234C21.2922 129.039 21.3147 128.828 21.3372 128.61L22.2912 127.668L21.3448 128.486C21.3448 128.464 21.3448 128.43 21.3523 128.4C21.2509 127.878 21.2208 127.24 21.1833 126.601C21.3147 126.064 21.6077 122.71 21.3598 121.467C21.4011 121.418 21.4462 121.38 21.4912 121.343C21.51 121.662 21.525 122.049 21.5551 122.184C21.6415 121.872 21.6189 121.561 21.5701 121.256C30.4902 112.46 39.6658 103.48 47.9399 94.9994C47.9324 95.7693 47.9925 96.8961 48.1014 97.1139C48.0639 96.3853 48.0338 95.6979 47.985 94.958C48.2178 94.7177 48.4582 94.4773 48.6911 94.2369C48.616 95.1233 48.4507 95.3411 48.4357 96.5693L48.3117 95.2097C48.1653 96.1261 48.3606 96.9111 48.3831 97.7599C48.2178 98.0416 48.1878 100.096 48 99.7317C48.0939 100.475 48.1277 101.031 48.1427 101.557L47.185 102.47L48.1427 101.606C48.1502 101.636 48.1502 101.67 48.1502 101.7C47.1324 102.868 46.6967 103.551 44.9352 105.099ZM18.0321 22.2862C16.5711 22.2786 17.5664 22.0082 18.1072 21.8805C16.7438 22.1171 15.2528 21.9519 13.7091 21.9143L14.3363 21.8129L13.2659 21.7979C14.0659 20.9941 14.8547 20.2017 15.6396 19.4167C16.9429 17.8993 14.5392 20.442 15.2377 19.5932C17.0143 17.5538 16.9504 17.9519 18.1861 16.5885C18.2086 16.5885 18.2236 16.581 18.2499 16.581L17.8819 17.0881C18.0997 16.8777 18.3025 16.6374 18.5204 16.4195C22.0208 15.4843 25.4349 14.1472 28.6198 12.0703C30.2499 10.9886 31.771 9.68529 33.0668 8.16793C33.7203 7.42427 34.3024 6.6055 34.8282 5.76419C35.0912 5.34353 35.3315 4.90786 35.5644 4.46467L36.0151 3.54824C36.0339 3.51444 36.0414 3.46185 36.0865 3.47688L36.3832 3.48439L38.37 3.4919C34.5954 7.25902 30.7607 11.0975 26.9973 14.8796C25.972 16.1153 27.9062 14.0533 27.3541 14.7519C25.8405 16.5435 25.9795 15.9838 24.7626 17.4148L25.202 16.7613C23.6508 18.2862 22.1598 20.0214 20.7326 21.674C19.9776 21.4862 19.125 21.6627 18.5504 21.6477C17.9457 21.704 17.48 21.7566 16.5786 21.7829C16.9579 21.8204 17.4011 21.7979 17.8744 21.7641L18.6894 21.734C19.125 21.7265 19.5607 21.734 19.9701 21.7491L19.2039 21.8355C19.6621 21.8054 20.1804 21.734 20.6161 21.8054C20.4696 21.9669 20.3269 22.1247 20.188 22.2862C20.0114 22.2561 19.8612 22.2486 19.8011 22.2411C19.6208 22.2261 19.8161 22.1848 19.6847 22.1547C19.0312 22.1998 18.3476 22.2486 18.0321 22.2862ZM4.33828 21.5087C4.13547 21.5237 3.95143 21.5387 3.76364 21.5538L3.4857 21.5725L3.44439 21.5801C3.39932 21.5876 3.36176 21.5801 3.32045 21.5725C4.50729 20.3895 5.6979 19.2064 6.88475 18.0158C8.45844 18.0308 10.0059 18.0158 11.3091 17.6965C11.9439 17.7341 12.4509 17.7341 12.8753 17.719C11.4781 19.12 10.0885 20.5209 8.69882 21.9143C8.2669 21.9068 7.83122 21.8918 7.40305 21.8655L8.58239 21.5801C7.38052 21.4298 7.96267 21.6815 7.65094 21.7265C5.75048 21.8655 5.34109 21.674 4.33828 21.5087ZM18.2725 16.551L18.2312 16.536C18.2499 16.5209 18.2575 16.5134 18.2725 16.4984C18.2875 16.4871 18.3025 16.4796 18.3175 16.4796L18.2725 16.551ZM47.3014 3.44683C47.7934 3.44683 47.7371 3.43932 47.7859 3.43932L47.9399 3.41303C48.0188 3.45434 47.9775 3.57829 48.0113 3.67969H47.8948C47.8948 3.88251 47.8948 4.07781 47.8836 4.27687C47.17 5.18954 47.0385 5.72663 44.6949 7.63084L44.8639 7.57075C37.3822 14.9885 29.5588 22.6279 22.1072 30.0758C22.0584 29.3922 22.0283 28.6373 22.0509 27.7209L22.2537 27.9988C22.325 27.0561 22.2236 26.6918 22.1147 26.3012C22.0584 26.1096 22.0058 25.9143 21.9757 25.6326C21.9494 25.4561 21.9419 25.4148 21.9419 25.0505C21.9419 24.8627 21.9419 24.6523 21.9494 24.427C28.9053 17.4374 35.8311 10.4665 42.7869 3.48439C42.8545 3.48439 42.9259 3.48439 42.9935 3.48439C44.447 3.47688 45.8817 3.46185 47.3014 3.44683ZM48.7399 122.511C48.7474 122.579 48.7474 122.657 48.7549 122.717C48.7399 122.736 48.7174 122.759 48.7099 122.774L48.7549 122.751C48.77 122.845 48.785 122.898 48.8 122.977C47.6432 124.22 46.1859 125.816 44.9503 126.992C43.0423 128.994 43.6094 128.667 42.2498 130.316C41.2958 131.022 41.247 130.789 41.3822 130.368C41.9719 129.917 42.8094 128.986 43.7108 128.167C45.5549 126.143 47.0009 124.348 48.7399 122.511ZM48.7249 122.323C48.2254 122.868 47.707 123.42 47.2864 123.762C47.3014 123.709 47.3803 123.615 47.4742 123.521C47.3653 123.63 47.2714 123.724 47.1624 123.818C47.6207 123.311 48.2254 122.65 48.7099 122.083C48.7174 122.165 48.7249 122.237 48.7249 122.323ZM48.4207 90.5299C48.4207 90.6238 48.4207 90.7177 48.4207 90.8116C47.8761 91.2172 48.0789 90.943 48.4207 90.5299ZM21.018 129.467C21.018 129.35 21.018 129.256 21.018 129.132C21.018 129.264 21.0255 129.365 21.0368 129.452C21.0368 129.459 21.0255 129.467 21.018 129.467ZM21.0255 129.715C21.0255 129.7 21.0255 129.677 21.0255 129.655L21.0593 129.613C21.0593 129.64 21.0668 129.662 21.0743 129.685C21.0518 129.692 21.0443 129.707 21.0255 129.715ZM21.4236 25.9932C21.4762 25.873 21.525 25.6401 21.5551 25.3697C21.5701 25.227 21.5851 25.0091 21.5926 24.7838C21.649 24.7312 21.7016 24.6749 21.7579 24.6223C21.7354 24.7688 21.7091 24.934 21.6865 25.0955C21.6077 25.5725 21.525 25.8655 21.4236 25.9932ZM47.8761 7.00362C47.4667 7.3454 47.2263 7.49939 47.5268 7.09376C47.6507 6.95479 47.7596 6.84587 47.8761 6.72193C47.8761 6.81583 47.8761 6.90972 47.8761 7.00362ZM47.8235 26.6467C47.3427 27.1274 47.0686 27.4467 47.3653 27.2364C44.9277 29.8054 45.6263 28.9716 45.3784 29.1443L43.9963 30.7068C42.2348 32.4645 43.2451 31.0824 43.8085 30.3424C42.3287 32.149 40.4245 33.8279 38.539 35.6645L39.2301 34.8495L36.755 37.2757C35.2714 38.9884 33.0442 41.2457 30.9259 43.2438L32.1503 41.625C30.5992 42.9734 31.4743 42.4363 31.125 42.8569C28.9278 45.2457 28.3081 45.6025 26.9898 46.7067C25.3973 48.4907 23.6659 50.0944 21.9832 51.6644C21.9983 51.409 22.0283 51.1987 22.1147 51.27C22.1823 48.7799 22.0659 47.3377 22.0208 45.8278C30.6931 37.1894 39.2526 28.5734 47.816 19.9688C47.816 22.1923 47.816 24.4195 47.8235 26.6467ZM47.8535 58.0456C44.3456 61.5648 40.9052 65.0352 37.6789 68.3967L37.6226 68.2878C32.1804 73.6586 26.8245 79.0145 21.5025 84.3515C21.5551 82.421 21.6264 80.5055 21.7016 78.53C25.2508 74.6952 29.5363 70.9281 32.0902 67.7281C37.3146 63.3075 34.8921 64.1939 39.6658 60.1338L39.463 60.2202C42.2273 57.4784 45.0442 54.6916 47.8535 51.9085C47.861 53.9555 47.8535 55.9986 47.8535 58.0456ZM48.1728 73.5948C48.0789 73.3093 47.8761 74.2408 47.831 73.745C47.9474 73.6286 48.0639 73.5197 48.1728 73.4032C48.1728 73.4633 48.1728 73.5422 48.1728 73.5948ZM21.3297 106.064C21.2696 105.069 21.5325 104.445 21.4236 102.935L21.3598 103.364C21.2997 102.665 21.3372 101.339 21.4161 100.081C28.0151 93.5646 34.509 87.0895 40.4094 80.9525L40.4733 81.0614C42.9484 78.6163 45.3859 76.1788 47.831 73.745C48.2441 77.4896 47.7296 77.084 47.7784 79.6192C38.817 88.4604 30.0621 97.2641 21.3297 106.064ZM21.5926 95.9308C22.1523 95.3261 22.7344 94.7102 23.3954 94.0867C23.9551 93.0463 22.7645 94.5148 21.5851 95.7768C21.5776 95.7055 21.5776 95.6191 21.5701 95.5515C22.1222 94.9205 22.603 94.3308 22.6405 94.1017C22.0058 94.7665 21.7804 95.1158 21.5701 95.4425C21.4537 92.9975 21.4161 90.774 21.4311 88.6557C22.3701 87.837 23.8199 87.2848 24.372 86.5149L22.7983 87.037C22.7983 86.9355 24.1316 85.6586 23.9701 85.76C24.8865 85.0464 26.002 84.1637 26.5691 83.6041C26.9748 83.4651 25.5288 84.8511 24.7551 85.621C24.8602 85.9628 27.5081 83.1534 26.5917 84.4755C28.2067 82.7816 26.2349 84.5994 27.1438 83.5252L28.6424 82.1168L27.4555 83.1684C28.5973 81.8914 28.8377 81.3018 30.5766 79.8145L32.0339 77.914C32.3757 77.9253 33.2846 76.7234 34.186 75.9084L33.7578 76.5544C34.8996 75.4013 35.3728 74.9882 36.1503 74.3347C35.6583 75.1384 35.0761 75.3412 34.9447 75.7619L36.2555 74.5525C36.1503 74.4586 36.8714 73.5798 35.9062 74.4211C36.894 73.069 37.3747 72.2727 40.308 69.3619C41.7991 68.2051 39.0423 70.9356 39.7597 70.5525C42.862 67.5817 43.0273 66.3911 44.8263 64.6296C46.5728 62.9808 46.847 62.5526 47.846 61.4634C47.846 61.6737 47.846 61.8765 47.846 62.0869C47.846 62.1019 47.846 62.1094 47.846 62.1169C47.4441 62.7479 47.4516 63.0446 45.6338 64.7235C47.1775 63.4239 44.7812 65.7826 44.3531 66.3047C45.4949 65.2756 46.7831 63.439 47.5981 63.0371C47.7146 62.9019 47.8085 62.8117 47.9024 62.7028C48.0338 63.6343 48.2329 63.0371 48.3493 64.3817C48.3343 65.0653 48.3493 66.6089 48.2028 66.6164C48.1277 65.2944 47.9925 66.038 47.9399 65.5873C47.9474 66.6953 47.9099 67.961 47.8948 69.2004C47.7671 69.3094 47.662 69.4183 47.5193 69.5347L46.062 71.4314C45.7202 71.4239 44.8113 72.622 43.9099 73.4408L44.3381 72.7948C43.1963 73.9478 42.723 74.361 41.9456 75.0145C42.4376 74.2107 43.0197 74.0079 43.1437 73.5873L41.8367 74.7967C41.9456 74.8868 41.2245 75.7694 42.186 74.9281C41.2019 76.2802 40.7212 77.0765 37.7803 79.9947C36.2893 81.144 39.0498 78.4135 38.3362 78.7966C35.2264 81.7675 35.0611 82.9581 33.2696 84.7158C30.9409 86.913 31.2264 86.9431 28.9466 89.2567C29.5588 88.4078 27.2151 90.7327 26.6856 91.0444L27.4705 90.0191C26.8095 90.7552 26.0959 91.3787 26.2198 91.0933C26.5015 91.1158 23.3879 94.2219 21.8818 95.8782L22.2912 95.7393C22.0847 95.9646 21.8518 96.2125 21.6189 96.4604C21.6077 96.2839 21.6002 96.1036 21.5926 95.9308ZM21.4311 88.4454C21.7241 88.1975 21.9419 88.0022 21.4311 88.5769C21.4311 88.5318 21.4311 88.4905 21.4311 88.4454ZM21.5175 67.9948C21.4837 67.6343 21.4387 67.3638 21.3936 67.1122C21.4236 67.0972 21.4612 67.0746 21.5025 67.0521C21.51 67.3563 21.525 67.6681 21.5175 67.9948ZM46.8995 41.7189C46.8845 41.7752 46.8056 41.8691 46.7117 41.9593C46.8207 41.8616 46.9221 41.7677 47.0235 41.6738C46.1859 42.5903 44.7963 44.0851 44.7249 44.4907C46.1709 42.9809 45.4723 43.0973 47.4441 41.3997C47.5756 41.2457 47.7146 41.1292 47.846 40.9865C47.8535 43.3076 47.861 45.6325 47.861 47.9536C47.5981 48.3104 47.17 48.8099 46.0845 49.8916C47.1549 48.8625 45.2395 51.0897 47.2488 49.0879C46.3549 50.1696 44.1991 52.3742 42.5202 53.9555C42.1259 54.4062 42.4977 54.1019 42.4827 54.2409C44.4094 52.5695 45.1981 51.27 46.862 49.9705L47.861 48.5921C47.861 48.7799 47.861 48.9715 47.861 49.1668L46.8207 50.1245C46.3625 50.778 44.477 52.3179 44.0413 52.9902L47.861 49.1743C47.861 49.2682 47.861 49.3621 47.861 49.456C47.8535 49.471 47.831 49.4935 47.8235 49.5085L47.861 49.471C47.861 49.5574 47.861 49.6437 47.861 49.7339C46.9221 50.7179 45.6564 51.9686 44.8564 52.7536C43.0423 54.3911 41.4348 55.9385 41.1794 55.916L43.4291 53.5423C42.1183 54.6315 40.5409 56.5695 39.1925 57.9066C39.0836 57.978 38.9334 58.0944 38.7719 58.2409C38.8583 58.1883 38.9033 58.1658 38.9184 58.1733C38.6254 58.4512 38.3512 58.6916 38.1033 58.8794C36.9165 60.055 35.2639 61.8765 34.1222 62.9357L34.3775 62.9282L34.4564 62.7028C35.5419 61.6287 37.0893 60.2277 36.3644 61.1441C34.0132 63.6756 33.2846 63.931 32.5935 64.4042C32.9653 63.6493 34.9747 62.0155 36.1578 60.7085C35.2151 61.2681 33.6489 63.1761 31.0086 65.5798C31.8085 64.3667 33.9268 62.654 34.2949 61.9066C32.2292 63.9085 31.8499 64.5845 29.6602 66.6765C29.8367 66.3047 31.91 64.2127 31.6546 64.2277L30.2198 65.5422C33.57 62.1582 29.371 65.8765 31.9475 63.1911C30.6292 64.3516 30.3888 65.0991 28.4959 66.7328C29.078 66.3272 30.6442 65.084 29.0442 66.8493L27.0724 68.7009C26.1748 69.4033 28.8452 66.4925 27.5156 67.6493L25.5926 69.7225C25.7241 69.715 26.7081 68.7873 26.1898 69.4709C24.9691 70.5676 24.5372 71.6117 23.2715 73.0615C22.7269 73.606 22.2386 74.0868 21.8255 74.4699C21.8255 74.3685 21.8255 74.2596 21.833 74.1582L21.9044 74.0793L23.6283 72.2352L21.833 74.1018C21.833 74.0342 21.833 73.9629 21.833 73.8915L21.8668 73.8615L21.833 73.869C21.8818 71.777 21.9044 69.5422 21.8818 67.0821L21.9983 67.0446L22.648 66.5601L21.8818 67.0671C21.8818 66.9582 21.8818 66.8568 21.8743 66.7479C22.3175 66.3272 22.8734 65.6737 23.4555 65.1441L23.0311 65.7976C24.1616 64.6484 24.6386 64.2352 25.4198 63.5817C24.9316 64.3817 24.3494 64.577 24.218 65.0052L25.5213 63.7995C25.4198 63.7056 26.141 62.8268 25.1795 63.6643C26.1673 62.3122 26.648 61.5197 29.5813 58.6014C31.0724 57.4484 28.3156 60.1789 29.0292 59.7996C32.1353 56.8249 32.2968 55.6343 34.0921 53.8766C36.4207 51.6719 36.139 51.6494 38.4226 49.3395C37.8104 50.1883 40.1465 47.8522 40.6799 47.5405L39.8911 48.5696C40.5559 47.8372 41.2733 47.2137 41.1493 47.5029C40.8601 47.4804 43.9812 44.3743 45.4873 42.7142L45.0742 42.8569C45.8742 41.9931 46.8695 40.9039 47.846 39.8898C47.846 40.04 47.846 40.1865 47.846 40.3405C46.6441 41.7339 45.4573 43.0898 43.9737 44.5057C43.2263 45.8992 45.5963 42.8006 46.8995 41.7189ZM21.3861 62.4925L21.5325 58.9207C21.4011 58.2108 21.3748 57.4484 21.3861 56.7385C21.4161 56.7085 21.4462 56.686 21.4762 56.6446C21.5401 58.2108 21.525 59.6418 21.5476 61.4784C21.649 61.1291 21.833 62.669 21.7879 61.8765L21.6865 59.5817L21.7955 59.931C21.9269 58.3122 21.6189 58.8719 21.7016 57.1517C21.5701 57.0202 21.5551 57.2531 21.5025 56.6221C21.5776 56.547 21.6415 56.4756 21.7166 56.3968C21.7429 56.855 21.7729 57.3019 21.8593 57.6024L22.0283 56.3179L21.8668 56.2503C22.5166 55.5893 23.2865 54.8569 23.6208 54.624L22.9973 55.0597C22.7044 55.3864 22.2462 55.8146 21.8405 56.2015L21.8668 55.2775C22.8884 54.1883 23.8837 53.1217 24.7213 52.1639C22.9898 54.147 25.003 52.3029 26.2048 51.2851C24.1015 53.4484 24.2706 53.6587 24.5447 53.6362C25.8255 52.3104 26.4752 51.2625 25.7541 51.8522C28.0039 49.7602 27.1212 50.2184 29.1532 48.4344C30.4527 47.2701 28.7288 49.2456 29.2245 48.8888C31.5757 46.5527 29.6264 48.0175 32.2217 45.5086C32.1053 45.6738 31.8799 45.9142 32.1203 45.7527C33.5325 44.4119 34.9221 42.8419 35.125 42.4513C36.8301 41.2382 39.2151 38.2936 39.1663 38.8232C42.4301 35.4316 38.539 39.1837 39.1137 38.4438C40.3644 36.9715 42.9709 34.5377 43.7935 33.7903C42.9784 34.6128 42.2874 35.4391 41.4648 36.1941L42.3362 35.657C46.2385 31.9687 44.8751 32.5058 47.8235 29.6326C47.8235 29.6889 47.8235 29.7415 47.8235 29.7979C47.2864 30.4439 47.9474 29.873 47.2563 30.7481C47.3653 30.6204 47.5756 30.4025 47.8235 30.1396C47.831 32.3105 47.831 34.4814 47.8385 36.6523C40.5972 43.7884 33.416 50.9095 26.9485 57.6362L26.8884 57.5348C25.0105 59.3864 23.1626 61.238 21.3072 63.0822C21.3297 62.4437 21.2847 62.6164 21.3861 62.4925ZM21.4762 56.562C21.4462 56.5846 21.4161 56.6146 21.3936 56.6371C21.4011 56.3179 21.4161 56.0174 21.4311 55.7357C21.5175 55.6418 21.6002 55.5555 21.6865 55.4653C21.7016 55.7357 21.7091 56.0324 21.7166 56.3179C21.634 56.3968 21.5626 56.4756 21.4912 56.5357C21.4837 56.4118 21.4687 56.2728 21.4537 56.0775C21.4612 56.2428 21.4687 56.3968 21.4762 56.562ZM48.7174 89.8614C48.7174 89.7224 48.7099 89.6435 48.7099 89.5421L48.7399 89.5196L48.7174 89.8614ZM24.5898 31.4091L23.7973 32.4345C24.4584 31.7021 25.1795 31.0748 25.0555 31.3678C24.7701 31.3377 27.8799 28.2392 29.386 26.5753L28.9766 26.7218C30.171 25.4373 31.801 23.6345 33.1456 22.3575C35.0461 20.3557 34.4865 20.6824 35.8461 19.0336C36.7926 18.3275 36.8489 18.5604 36.7137 18.981C36.124 19.4317 35.2789 20.3632 34.3851 21.1819C32.0339 23.766 30.4039 25.9669 27.8724 28.3669C27.1288 29.7565 29.4949 26.6692 30.8095 25.5875C30.7907 25.6401 30.7081 25.734 30.6217 25.8279C30.7306 25.719 30.8245 25.6251 30.9334 25.5312C30.0846 26.4589 28.7025 27.9537 28.6273 28.3556C30.0696 26.8458 29.371 26.9659 31.3428 25.2608C32.6085 23.811 33.9757 22.9547 34.8132 22.1547C35.6057 21.1256 35.3804 20.8326 37.6526 18.6543L36.8639 19.8035C39.3841 17.2909 37.7803 18.3575 40.1165 16.0289C39.2752 16.8327 40.7362 15.0562 39.1663 16.6148C39.8423 15.751 41.5212 14.0308 42.8395 12.8064C43.1362 12.4496 42.847 12.6749 42.8395 12.5585C41.3184 13.8355 40.7512 14.9022 39.4179 15.8749L38.6404 17.0505C37.2658 18.2787 36.9804 18.2561 37.694 17.3848C37.3372 17.7566 37.0404 18.1059 36.74 18.3425C36.2254 18.2712 38.4076 16.8777 38.6104 16.1792L37.7165 17.1181C37.1193 17.3284 39.6958 14.7932 40.8902 13.6177C42.3287 12.3632 43.5944 11.1651 43.816 11.2139L42.0695 13.0806C43.1174 12.2468 44.3155 10.7069 45.3634 9.65525C45.4573 9.61018 45.5737 9.52379 45.7052 9.40736C45.6338 9.44492 45.5963 9.46745 45.5812 9.45243C45.8141 9.23459 46.0207 9.05807 46.2235 8.91534C46.7118 8.4346 47.3014 7.81112 47.8685 7.20268C47.8685 7.26653 47.8685 7.33038 47.8685 7.39047C47.8385 7.43179 47.7934 7.46934 47.7596 7.49939C47.8009 7.48437 47.8385 7.45432 47.8685 7.43178C47.8685 7.83366 47.8685 8.23929 47.861 8.64492C47.5981 8.91534 47.3277 9.15947 47.016 9.32849L45.7953 11.1426C47.2864 9.74163 46.7042 9.8205 47.7221 8.83272C47.7859 8.78389 47.831 8.75384 47.861 8.73131C47.846 10.9961 47.831 13.2609 47.831 15.5144C44.4695 18.8796 41.0705 22.2786 37.7315 25.6326C36.6987 26.872 38.6329 24.8101 38.0808 25.5087C36.5672 27.3002 36.7062 26.7481 35.4968 28.1791L35.9325 27.5181C33.9531 29.4711 32.0639 31.7734 30.2649 33.7828C30.4527 33.3396 28.5973 35.2438 30.1034 33.58C29.1945 34.5377 27.5006 35.1049 26.8959 35.9387L28.4696 35.4166C28.4696 35.518 27.1363 36.795 27.2978 36.7011C26.3851 37.4072 25.2659 38.2861 24.7062 38.857C24.2969 38.9959 25.7391 37.6025 26.5166 36.8326C26.4076 36.4908 23.7598 39.3077 24.6837 37.9781C23.0612 39.672 25.033 37.8504 24.1166 38.9321L22.6255 40.333L23.8199 39.2926C23.0161 40.1865 22.6405 40.7461 21.8969 41.5161C21.833 41.0053 21.7804 40.2879 21.7955 39.7283C21.8593 39.0598 21.9044 38.8945 21.9983 39.3152L21.8818 37.7978C22.0997 36.6222 22.0997 35.4391 22.0922 34.0607C22.3175 33.7978 22.6405 33.441 23.1476 32.919C22.7044 33.3396 22.3701 33.6664 22.0922 33.9518C22.0922 33.7828 22.0922 33.6251 22.0922 33.4485C22.1673 33.3622 22.2386 33.2908 22.3325 33.2044C21.7166 34.0532 24.0527 31.7208 24.5898 31.4091ZM24.2856 116.096C24.8076 115.908 22.8809 117.839 21.6002 119.108C21.6002 119.022 21.6002 118.92 21.6002 118.838C21.8593 118.556 22.1222 118.274 22.434 118.004C22.0509 118.361 21.8105 118.586 21.6002 118.781C21.6002 118.687 21.6002 118.609 21.6077 118.518L23.5194 116.618L22.5654 117.474C22.4077 117.715 22.0133 118.09 21.6077 118.47C21.6077 118.368 21.6077 118.274 21.6189 118.173C21.9044 117.887 22.2161 117.606 22.5804 117.343L23.3654 116.167C24.7363 114.928 25.0255 114.954 24.3044 115.833C24.6612 115.457 24.9541 115.108 25.2583 114.875C25.7767 114.943 23.587 116.336 23.3879 117.039L24.2856 116.096ZM43.9963 95.4726C41.6676 97.6773 41.9531 97.6998 39.6733 100.01C40.2855 99.1608 37.9418 101.497 37.4123 101.809L38.1972 100.78C37.5362 101.512 36.8226 102.135 36.9465 101.846C37.2357 101.869 34.1146 104.975 32.6085 106.631L33.0217 106.492C31.8236 107.777 30.201 109.576 28.8527 110.86C26.9485 112.851 27.5081 112.524 26.1522 114.18C25.202 114.89 25.1494 114.657 25.2809 114.237C25.8706 113.779 26.7156 112.851 27.617 112.036C29.9607 109.452 31.5982 107.24 34.1222 104.843C34.8658 103.45 32.4996 106.549 31.1963 107.63C31.2114 107.574 31.2902 107.48 31.3841 107.386C31.2752 107.488 31.1738 107.581 31.0649 107.675C31.91 106.759 33.2996 105.264 33.371 104.858C31.9325 106.368 32.6236 106.252 30.6517 107.95C29.386 109.403 28.0302 110.259 27.1813 111.052C26.4001 112.081 26.618 112.385 24.3419 114.564L25.1344 113.403C22.618 115.927 24.2255 114.86 21.8818 117.185C22.7269 116.385 21.2696 118.158 22.8283 116.603C22.5654 116.945 22.1222 117.437 21.6189 117.974C21.649 116.719 21.694 115.529 21.7166 113.925C21.3748 113.722 21.5626 111.589 21.4687 110.391C22.4001 109.452 23.3466 108.517 24.2706 107.581C25.3034 106.338 23.3654 108.408 23.9138 107.705C25.4349 105.918 25.2959 106.47 26.509 105.039L26.0734 105.692C28.0527 103.739 29.9306 101.441 31.7334 99.435C31.5456 99.8782 33.401 97.9702 31.8949 99.6303C32.8038 98.6801 34.5015 98.1129 35.0987 97.2716L33.5325 97.8012C33.5325 97.6923 34.8658 96.4153 34.6968 96.5167C35.6132 95.7993 36.74 94.928 37.2958 94.3609C37.7015 94.2219 36.2667 95.604 35.4893 96.3853C35.5907 96.7195 38.2348 93.9102 37.3221 95.2397C38.9447 93.5346 36.9728 95.3562 37.878 94.282L39.3766 92.8811L38.1822 93.9252C39.324 92.6482 39.5644 92.066 41.3033 90.5712L42.7606 88.6708C43.1024 88.6783 44.0113 87.4801 44.9127 86.6651L44.4845 87.3186C45.6263 86.1581 46.0995 85.7449 46.877 85.0914C46.3887 85.8914 45.8066 86.0942 45.6789 86.5149L46.9859 85.3093C46.877 85.2154 47.5981 84.3365 46.6366 85.1778C47.17 84.4454 47.5756 83.8633 48.2967 83.022C48.4845 84.6633 48.661 86.7402 48.8263 88.3515L48.7549 89.3092L48.7099 89.3731C48.661 88.2576 48.4282 89.636 48.4432 87.4088C48.3981 88.205 48.4131 88.96 48.4282 89.7149L48.3606 89.8013L48.4282 89.7524C48.4282 89.8914 48.4207 90.0491 48.4207 90.1956C45.9531 92.6933 45.6564 93.8538 43.9963 95.4726ZM48.6535 101.076C48.6535 101.024 48.6535 100.975 48.646 100.904C48.6535 100.967 48.6535 101.012 48.6535 101.076ZM48.4507 101.332C48.4507 101.339 48.4507 101.339 48.4582 101.35C48.4131 101.403 48.3681 101.448 48.3193 101.504C48.3193 101.489 48.3117 101.474 48.3117 101.459L48.4507 101.332ZM48.2178 101.373C48.2742 100.765 48.3606 100.967 48.4432 101.279L48.2892 101.418C48.2742 101.373 48.2516 101.35 48.2178 101.373ZM53.9493 136.828C54.4601 136.858 54.9183 136.892 55.2375 136.907C55.2112 136.922 55.1887 136.945 55.1737 136.96C54.2047 136.967 53.3183 136.978 52.1314 136.697C52.4281 136.813 52.4732 136.9 52.5596 136.96C51.8047 136.843 51.0122 136.456 50.8432 136.167C51.3615 136.37 52.7662 136.768 53.9493 136.828ZM56.3305 137.095C56.2516 137.17 56.184 137.241 56.1126 137.32C56.0187 137.32 55.9361 137.328 55.8497 137.328C55.9098 137.256 55.9812 137.178 56.045 137.11C56.1427 137.102 56.2366 137.102 56.3305 137.095ZM56.4469 136.967C56.353 136.967 56.2591 136.967 56.169 136.96C56.199 136.93 56.2291 136.892 56.2591 136.851C56.3868 136.851 56.4845 136.851 56.5708 136.843C56.5333 136.892 56.492 136.93 56.4469 136.967ZM52.0864 141.966C52 141.959 51.9361 141.974 51.861 141.974C51.9286 141.902 52.015 141.823 52.0864 141.763C52.184 141.778 52.1615 141.857 52.0864 141.966ZM52.9765 141.069C52.03 141.786 51.9774 141.553 52.1089 141.125C52.6986 140.674 53.5436 139.747 54.4375 138.931C54.9108 138.409 55.354 137.91 55.7784 137.422C55.8497 137.414 55.9211 137.414 55.9962 137.414L55.0347 138.338C55.245 138.162 55.4554 137.966 55.677 137.748C55.7859 137.639 55.8873 137.538 56.0037 137.414H56.0112C55.9023 137.523 55.7784 137.647 55.677 137.748C53.7765 139.747 54.3361 139.42 52.9765 141.069ZM69.8703 140.231C69.859 139.506 69.859 138.774 69.8515 138.041C69.8365 136.9 69.9867 135.63 69.0928 135.266C68.721 135.078 68.1539 135.033 67.5867 135.055C67.121 135.063 66.6628 135.063 66.2046 135.07C65.521 135.086 64.8525 135.093 64.2027 135.108C62.907 135.157 61.6863 135.217 60.5934 135.333L60.7774 135.326C60.7023 135.341 60.661 135.382 60.6084 135.461L60.4056 135.412L59.5455 135.57C58.5577 135.375 56.7173 135.333 55.1586 135.187C56.1352 135.311 56.1352 135.311 56.2366 135.469C56.0375 135.668 55.8873 135.754 54.43 135.686C54.415 135.536 55.2976 135.544 54.2422 135.42C54.7793 135.491 54.2986 135.608 53.6901 135.6C52.8939 135.499 51.7671 135.149 51.861 134.984C52.1314 135.055 52.3718 135.164 52.5821 135.232C52.8526 135.288 51.4253 134.766 52.3117 134.905C51.9286 134.823 51.6282 134.672 51.4479 134.526C51.2713 134.158 51.7671 134.563 51.7033 134.387C51.339 134.222 50.9821 133.358 50.8206 132.595C50.6329 131.825 50.5615 130.92 50.5014 129.801C50.5803 129.902 50.9033 129.925 50.8131 129.902C50.9108 128.182 50.4563 126.207 50.43 124.246C50.5314 124.532 50.4864 125.264 50.539 125.865C50.6629 119.856 50.6629 114.943 50.9746 109.309L50.6404 107.848L50.8657 106.376C51.076 100.453 50.8582 95.9008 50.7643 90.267C50.7418 88.5168 50.9897 89.2153 51.0911 88.3928C51.1286 84.5393 50.7493 83.5966 50.6704 79.9309C50.7793 80.4379 51.061 81.2943 51.076 79.7131C50.9821 79.4239 50.8282 79.2323 50.8882 78.2333L50.9897 78.7403C51.1436 77.8314 50.9972 76.9525 51.061 75.0596C51.061 71.7206 50.8206 68.5469 50.4563 65.7976C50.4864 62.8493 50.8131 66.1019 50.8807 65.5498C50.7643 67.6267 50.9446 66.9882 51.061 67.4389C50.9596 66.3422 50.9033 65.0127 51.1436 64.4455C51.1286 62.9132 51.1436 62.2183 50.9821 60.701C51.061 61.4634 50.9371 62.1169 50.8282 61.4108C50.9033 60.1488 50.8131 56.9564 51.1136 57.1367C51.1136 49.8766 51.1061 41.749 51.1061 33.9668C50.9521 32.6598 51.046 34.9659 50.9371 34.2485C50.7343 32.3406 51.046 32.7387 50.8807 31.2138L51.046 31.8448C51.0685 29.5725 50.7643 27.1575 50.6178 24.9641C50.8056 25.3284 50.7718 23.15 50.8807 24.9791C50.8507 23.9049 51.6807 22.5979 51.5117 21.7641L50.7343 22.981C50.6629 22.9247 50.7117 21.4148 50.6554 21.5613C50.8131 20.6223 50.9897 19.4693 50.9897 18.8233C51.185 18.504 51.1436 20.1378 51.1361 21.0355C51.4629 21.1669 51.3465 18.0158 51.6432 19.3153C51.5868 17.3998 51.4779 19.5857 51.354 18.4439L51.4253 16.7688L51.3164 18.0608C51.215 16.6599 50.9671 16.1867 51.1549 14.3163L50.8357 12.3895C51.0911 12.1942 50.8807 10.9773 50.9446 9.98201L51.1061 10.6055C51.0986 9.28342 51.1436 8.76887 51.2375 7.94258C51.4629 8.68248 51.185 9.1407 51.3953 9.45994L51.4704 8.00643C51.3239 8.01394 51.2075 7.08625 51.1211 8.13037C50.9897 7.45432 50.8657 6.93226 50.7793 6.16231C50.7343 5.7717 50.6967 5.321 50.6779 4.75387C50.6704 4.47218 50.6629 4.16044 50.6554 3.81866C50.6479 3.32289 50.6479 2.77453 50.6404 2.16984C50.6479 1.5952 50.6103 1.49379 50.6779 1.54637C50.7343 1.61022 50.8582 1.89567 50.8807 2.31632C50.9108 2.72195 50.9521 3.16514 50.9746 3.4919C51.0122 3.82617 51.0535 3.80364 51.1136 3.67218C51.1061 2.92477 51.185 2.18487 51.061 1.63276C50.9221 1.13323 50.7117 0.738866 50.3136 0.588632C49.615 0.24685 48.5934 0.487224 47.9249 0.543562C46.8695 0.712575 46.2873 0.900367 45.2244 0.877832C42.6141 0.776424 42.7681 1.00929 40.124 1.02431C40.9615 0.855297 38.2761 0.847785 37.7879 0.682528L38.8357 0.502248C38.0282 0.558586 37.2583 0.487224 37.4987 0.363281C37.5475 0.449665 37.1343 0.494737 36.4883 0.53605C36.2743 0.566097 35.5118 0.543562 34.9447 0.611167C34.6592 0.667505 34.3851 0.720086 34.1522 0.956705C33.9832 1.20459 33.8442 1.48628 33.6865 1.74919C33.5851 1.98956 33.4874 2.27876 33.401 2.46656C33.3297 2.61303 33.2771 2.75951 33.2132 2.90223C33.0893 3.17265 32.9729 3.43181 32.8639 3.66467L33.1832 3.48439C32.6311 4.73133 31.617 6.37264 30.5691 7.39047C29.063 8.95666 29.5287 8.73882 28.3231 9.96698C27.4555 10.3876 27.4217 10.1322 27.5494 9.7867C28.0827 9.53882 28.8377 8.90032 29.5738 8.29563C30.5278 7.30409 31.2039 6.29376 31.8085 5.25715C32.0977 4.73884 32.3757 4.21678 32.6461 3.67218C32.7813 3.39801 32.9128 3.12007 33.0517 2.83838C33.2207 2.45904 33.401 2.06844 33.5851 1.6628C33.7879 1.02431 33.7128 1.08065 33.416 1.53886C33.3222 1.76421 33.1982 2.08346 33.0517 2.46656C32.9653 2.69191 32.8715 2.96233 32.74 3.22148C32.5146 3.75857 32.2142 4.28438 31.9325 4.61114C31.9325 4.56607 31.9738 4.47969 32.0264 4.40457C31.955 4.4872 31.9024 4.56607 31.8311 4.65997C32.3306 3.84871 32.9278 2.45904 32.8038 2.10599C32.1729 3.52195 32.7625 3.36796 31.5456 4.90034C30.8245 6.16982 29.7128 6.77827 29.0856 7.33789C28.4884 8.0853 28.7513 8.47967 26.7231 9.81299L27.4405 8.99422C25.187 10.5041 26.618 10.0759 24.3645 11.3041C25.187 10.9097 23.7034 11.9501 25.2433 11.1501C24.5748 11.6872 22.8433 12.5585 21.4762 12.9942C21.1419 13.1595 21.4387 13.1031 21.4086 13.212C22.9598 12.7989 23.6508 12.0778 24.9241 11.7247C25.202 11.4693 25.4837 11.2139 25.7466 10.9473C27.0424 10.2937 27.2978 10.3801 26.5917 10.9623C26.941 10.7294 27.2302 10.5041 27.5006 10.3726C27.9588 10.613 25.9344 11.2139 25.6527 11.7585L26.5541 11.2064C27.1137 11.2289 24.5297 12.6674 23.249 13.1595C21.7804 13.6702 20.4208 14.0759 20.2593 13.9219C20.9016 13.6702 21.5325 13.3998 22.1523 13.1106C21.1119 13.3698 19.7373 14.1322 18.5729 14.4515C18.4978 14.444 18.3739 14.4515 18.2312 14.4815C18.3025 14.4815 18.3401 14.489 18.3476 14.504C18.0997 14.5679 17.8744 14.6055 17.6753 14.5979C16.6575 14.8609 15.1739 15.289 14.1974 15.3604L14.3363 15.5144L14.4528 15.3979C15.4068 15.2665 16.71 15.09 16.019 15.3754C13.8856 15.9125 13.3899 15.5707 12.8678 15.4843C13.326 15.1576 14.9561 15.2214 16.019 14.8947C15.3204 14.7444 13.8631 15.3078 11.6284 15.2965C12.481 14.9397 14.1824 15.0261 14.6143 14.6618C12.8603 14.8721 12.4171 15.1425 10.5467 15.1726C10.7796 15.0411 12.5824 14.8796 12.4509 14.6993C12.0453 14.7144 11.6509 14.7219 11.2528 14.7144C14.1486 14.444 10.727 14.4026 12.9542 14.1059C11.8988 14.0909 11.5044 14.5191 9.99083 14.3876C10.4077 14.4965 11.6434 14.6843 10.1824 14.8608C9.62276 14.8608 9.08943 14.8308 8.52229 14.8083C7.82371 14.6693 10.2537 14.4665 9.17581 14.3576L7.39554 14.4665C7.45939 14.5529 8.31197 14.5979 7.77488 14.7219C6.74578 14.628 6.07724 15.0712 4.85659 15.2064C4.37584 15.1876 3.94392 15.1801 3.57584 15.1726C3.14392 15.1576 2.64439 15.1275 2.38148 15.0712C1.90825 15.0787 1.47257 15.1989 1.14581 15.3529C0.736423 15.4768 0.698865 15.9688 0.627504 16.3782C0.574921 16.8402 0.642527 17.3698 0.642527 17.858L0.691353 18.9622C0.728912 19.6496 0.758958 20.3256 0.789005 20.9791C0.852854 21.6101 0.822807 22.6617 1.01436 23.1913C0.796516 22.3575 0.781493 22.3012 0.7214 22.8082C0.698865 23.0486 0.728912 23.3678 0.796517 23.657C0.875389 24.0214 1.23971 24.0927 1.47257 24.2092C1.19464 24.1153 0.991821 24.1077 0.815296 23.9275C0.665062 23.7585 0.635015 23.6195 0.556143 23.4768C0.4322 23.1988 0.357083 22.9735 0.300745 22.8308C0.199338 22.5378 0.0904175 22.6129 0.000277173 22.7632C-0.00723404 23.2439 0.139244 23.6007 0.27821 23.8261C0.402153 24.0364 0.574921 24.2167 0.76647 24.273C1.08572 24.3406 1.19464 24.2655 0.939239 24.1077C1.37116 24.3481 1.8444 24.427 2.21247 24.4045C2.56176 24.3894 2.80214 24.3744 3.02749 24.3481C3.53077 24.3106 3.71105 24.2805 4.51481 24.3744C5.54015 24.4721 4.00401 24.6523 4.36082 24.7613C6.30259 24.7688 4.89039 24.4195 7.00118 24.4833C6.88474 24.5209 6.69695 24.5359 6.86221 24.581C8.00023 24.6448 9.22839 24.5134 9.47628 24.3744C10.6969 24.7387 12.9016 24.3331 12.6575 24.6899C15.4218 24.5922 12.2481 24.4984 12.8002 24.3744C13.9232 24.2092 16.0115 24.3406 16.6725 24.3969C15.9889 24.4045 15.3617 24.5059 14.7082 24.4495L15.2903 24.7012C17.0068 24.7838 17.5513 24.6448 18.0847 24.5059L18.4903 24.412C18.5579 24.3819 18.6293 24.3556 18.7307 24.3406C18.8321 24.3181 18.9485 24.3106 19.0875 24.3106C19.1889 24.3256 19.4819 24.2542 19.388 24.5359C19.4067 24.3181 19.1401 24.4195 19.1025 24.4345C19.0161 24.4646 18.9861 24.4908 18.9635 24.5134C18.9222 24.566 18.8922 24.6223 18.7307 24.7162C18.7758 24.7087 19.1401 24.6073 19.0725 24.8326C19.0875 24.9641 19.1175 25.073 19.2114 24.7312C19.1626 25.5875 19.1326 26.1922 19.1025 26.7932C19.1964 27.9049 19.264 29.103 19.4293 29.749C19.4067 31.503 19.2265 32.8025 19.1175 33.6326C19.2978 37.3133 18.9936 40.7086 19.1814 44.5846L19.1964 44.2954C19.1476 47.3076 19.5307 42.9734 19.5119 46.0945C19.2114 45.6738 19.3128 47.9686 19.1476 48.9715C18.9936 52.8099 19.3729 55.6043 19.1739 59.1273C19.1025 59.0972 19.0312 58.8719 19.0236 58.1883C18.9222 60.8888 18.9861 63.0596 18.9711 65.4859L18.9297 65.3845C18.6819 69.2756 18.9861 72.8098 19.0537 76.8511C19.0161 76.5243 18.9072 76.438 18.8621 76.1788C18.7908 78.2107 18.7532 81.4633 19.0312 82.8905C18.7307 85.3018 19.1175 84.483 18.8321 87.5891C18.7758 87.7693 18.7758 87.2773 18.7682 87.0745C18.6668 88.5994 18.6969 89.6811 18.6593 91.2247C18.8546 94.6313 19.249 95.4726 19.125 99.4275C18.7157 99.6303 19.0236 96.9975 18.6969 96.9111C18.7682 97.6998 18.8546 98.3834 18.7532 99.4726C18.5992 98.819 18.6593 99.3336 18.5053 98.8829C18.449 99.296 18.5579 100.134 18.6743 100.866C18.7908 101.606 18.8922 102.222 18.8922 102.222C18.9786 102.267 19.0161 101.978 19.0086 101.2C19.264 102.12 19.0312 105.084 19.1326 107.007C19.1401 106.383 19.2189 104.423 19.4142 105.155C19.3279 107.732 19.7222 108.58 19.8875 110.376C19.6997 112.749 19.5382 108.633 19.249 109.076C19.1476 109.474 18.9147 110.425 18.7983 109.433C18.7457 111.559 18.9861 113.091 19.0537 114.992L18.9711 114.935C19.0011 117.591 19.3579 120.423 19.1964 122.65L19.2903 121.467C19.3429 121.902 19.3128 123.24 19.4819 123.979C19.3504 123.893 19.2265 125.621 19.11 124.915C19.5382 126.083 19.3955 130.984 19.7711 132.231C19.6133 132.885 19.4743 132.34 19.388 132.145C19.4518 130.571 19.5232 129.932 19.3504 129.076C19.3579 130.47 19.249 131.491 19.1476 131.273C19.2903 131.949 19.3654 133.039 19.1739 133.88C19.08 134.301 18.9373 134.586 18.7682 134.781C18.5992 134.999 18.3476 135.157 18.2387 135.273C17.3861 135.435 16.4697 135.367 16.7814 135.123C12.7439 135.367 18.9147 135.84 14.1748 135.863C11.9852 135.645 16.3157 135.57 13.2885 135.499L13.8481 135.461C11.6659 134.875 12.3195 135.878 9.8406 135.855C9.51384 135.536 11.5645 135.63 9.86313 135.405C7.59836 135.484 6.60306 135.949 4.33828 135.848L4.69509 135.716C4.32326 135.716 3.86504 135.716 3.36927 135.724C2.75331 135.724 2.00966 135.679 1.45755 135.818C1.32609 135.833 1.15708 135.885 1.09323 136.043C1.05567 136.175 1.02938 136.314 0.999332 136.456C0.94675 136.742 0.939239 137.08 0.939239 137.395C0.939239 137.959 0.946751 138.47 0.946751 138.89C0.882901 138.954 0.890414 138.744 0.87539 138.47C0.751447 141.147 1.02938 139.593 0.815296 141.778L0.969286 142.409C1.0782 141.256 1.2322 139.288 1.05567 137.677C1.1383 138.548 1.23971 137.85 1.34863 137.234C1.41999 136.915 1.47257 136.618 1.53642 136.449C1.6829 136.306 1.8782 136.408 1.7843 136.524C1.81435 136.434 1.8782 136.415 1.93078 136.378C2.06224 136.393 2.21247 136.408 2.34393 136.423L1.51388 137.388V137.395L2.41153 136.434C2.46787 136.441 2.52796 136.449 2.5843 136.449L2.35144 136.689L2.59932 136.456C2.69322 136.464 2.7796 136.471 2.86974 136.486C2.61435 136.712 2.389 136.907 2.23501 137.001C2.00966 137.264 1.75426 137.553 1.51388 137.824V141.733C1.72046 141.489 1.9721 141.256 2.16365 141.008L2.56176 140.843C3.7411 139.45 5.10823 138.09 6.45658 136.768C8.55234 136.877 10.8209 136.937 13.0856 137.016C11.6434 138.62 10.1523 139.63 9.20586 140.535C8.60868 141.29 8.46596 141.7 7.74483 142.563L5.87442 142.642L6.06973 142.687L7.73732 142.578C7.72981 142.59 7.7223 142.597 7.71479 142.605H8.49976C8.85656 142.263 9.22088 141.902 9.60022 141.553C11.0688 139.949 12.327 138.488 13.6152 137.039C13.7692 137.039 13.9232 137.046 14.0809 137.054C13.0556 138.135 11.9777 139.273 11.0199 140.19C9.60022 141.67 9.35234 142.034 8.93168 142.605H11.835C13.8068 140.667 15.7636 138.729 17.7129 136.798C18.1072 136.727 18.5128 136.633 18.9147 136.486C19.6133 136.261 20.3908 135.585 20.695 134.823C20.879 134.387 20.9879 133.932 21.0518 133.474C26.3738 128.167 31.5757 122.939 36.4282 117.918L36.4808 118.019C40.293 114.259 44.0489 110.507 47.8085 106.759C47.8085 107.18 47.8235 107.596 47.8535 108.002L48.2028 108.088C48.2103 109.411 48.4507 109.685 48.4282 110.635C48.3418 110.244 48.2329 110.695 48.2028 111.412C45.2319 114.398 42.2498 117.388 39.2526 120.378C37.1343 122.657 38.6329 121.504 36.8301 123.491C36.0076 124.306 34.1597 126.184 34.0433 126.09C35.5832 124.438 34.5954 125.249 35.1099 124.667C32.4696 127.333 28.9353 130.642 26.7006 133.125L28.8039 131.273C27.9438 132.246 26.4602 133.662 25.6227 134.485C25.9081 134.068 24.5598 135.142 25.2508 134.387C20.7701 139.491 21.1682 138.278 17.6114 142.004L17.1457 141.959C15.1964 142.083 15.1063 142.252 14.6218 142.439C15.6171 142.338 16.4096 142.323 17.2997 142.323C17.2546 142.379 17.2096 142.417 17.1532 142.469C17.1532 142.488 17.1382 142.503 17.1307 142.518C16.2293 142.605 16.1842 142.924 14.6218 142.89C15.5946 142.954 15.4068 143.1 14.8246 143.202C15.895 143.224 18.1222 143.303 17.7354 143.134L17.3485 143.093C17.4424 142.992 18.0321 142.954 18.3175 142.905C19.7861 142.905 19.0011 143.085 19.2903 143.164C21.7241 143.224 19.4894 142.766 21.7166 142.774L22.0058 142.853C23.0762 142.751 24.7288 142.736 25.0255 142.496C25.833 142.706 27.0123 142.511 28.0151 142.518C27.9813 142.548 27.9513 142.578 27.9212 142.605H28.571C28.387 143.04 24.7701 142.518 23.5645 142.815C24.7288 142.931 22.8997 143.085 22.4077 143.209L26.0959 142.969C26.3926 143.048 27.4705 143.326 28.1391 143.127L27.8499 143.108C29.3109 143.048 28.9128 142.815 30.1785 142.89C30.3738 142.939 29.9832 143.033 29.8931 143.07C31.0574 143.127 30.8621 142.939 31.647 142.89C32.8114 142.939 31.0574 143.127 32.0339 143.179C33.386 142.962 34.1672 143.236 35.3428 143.217C34.8433 142.898 40 142.781 37.4761 142.503L38.7644 142.402C38.693 142.469 38.6254 142.541 38.554 142.605H39.7334C39.2376 142.729 38.7418 142.868 39.1287 142.999L36.8865 142.992C37.2583 143.39 41.5737 142.729 43.0648 143.172C44.2517 143.194 43.9662 143.142 46.2235 143.333L45.8441 142.977C47.016 143.063 47.3953 143.258 47.4516 143.318C48.1352 143.296 48.7549 143.303 49.3972 143.318C49.2282 143.375 48.9878 143.42 48.5746 143.442C49.4535 143.638 49.7089 143.562 50.0206 143.461C50.5014 143.367 51.2225 143.382 51.9587 143.382L51.3014 143.514C51.7521 143.491 52.3004 143.454 52.3493 143.382C52.6497 143.382 52.9389 143.375 53.2169 143.352C53.0253 143.288 52.5333 143.085 51.4779 142.992C54.2047 143.134 56.338 143.055 58.6741 143.352C58.5915 143.454 57.6112 143.577 57.9079 143.592C59.0722 143.645 60.338 143.469 60.2366 143.311C60.4995 143.303 60.7023 143.296 60.8788 143.296C61.0966 143.382 61.3746 143.476 61.9267 143.491C62.0581 143.529 62.261 143.551 62.6666 143.57C63.0534 143.281 65.2882 143.42 65.7764 143.296C65.2506 143.266 64.5971 143.273 63.9473 143.281C64.8863 143.085 65.7238 142.875 66.4525 143.025C64.6985 143.202 68.3229 143.318 65.6863 143.397C66.1407 143.491 66.4375 143.514 66.6403 143.514C66.9407 143.506 67.121 143.469 67.2825 143.42C67.5867 143.273 68.0374 143.367 69.044 142.999C69.2769 142.627 69.3858 142.135 69.4271 141.538C69.536 141.692 69.5661 142.518 69.3633 142.977C69.3107 143.266 68.9914 143.375 68.8675 143.405C68.7285 143.454 68.6497 143.476 68.7511 143.476C68.9276 143.405 69.0703 143.39 69.2168 143.258C69.3783 143.108 69.3858 142.954 69.4421 142.789C69.4046 142.924 69.4271 143.093 69.2468 143.281C69.0703 143.435 68.8675 143.484 68.5633 143.577C68.2703 143.66 67.8647 143.653 67.4553 143.66C67.091 143.671 66.7079 143.671 66.3135 143.679C65.1267 143.701 63.7821 143.731 62.7642 143.848L66.9971 143.964C68.0825 143.934 69.2543 144.006 69.6525 143.179C69.829 142.815 69.9229 142.27 69.8853 141.685L69.8703 140.231Z" fill="#719C00"/>
</svg>
