<svg width="111" height="145" viewBox="0 0 111 145" fill="none" xmlns="http://www.w3.org/2000/svg">
<path d="M100.009 139.413C102.007 137.434 104.005 135.443 106.011 133.445C106.003 135.398 105.996 137.374 105.988 139.319C105.996 139.372 105.981 139.436 105.909 139.413H100.009ZM89.7404 139.436C90.7658 138.271 90.5892 137.869 93.2296 135.74L93.0606 135.8C97.3272 131.593 101.707 127.308 106.067 123.038C106.06 125.021 106.045 126.996 106.033 128.972C102.559 132.461 99.0699 135.939 95.5883 139.421C93.6352 139.428 91.6822 139.428 89.7404 139.436ZM37.0534 139.939C39.0515 139.83 37.9248 139.661 38.6083 139.582C37.628 139.59 36.5651 139.575 35.4684 139.56L36.5426 138.519C37.583 137.257 39.183 135.638 40.7379 134.211L39.9003 135.436C41.0496 134.5 40.3736 134.831 40.6139 134.523C42.1689 132.78 42.6609 132.562 43.6487 131.804C46.0787 128.957 49.2299 126.865 51.2054 124.318L51.5998 124.153C53.335 122.125 55.4571 120.149 57.3312 118.279C59.258 118.132 61.2486 118.11 63.2241 118.125C61.3162 120.025 59.4195 121.915 57.5002 123.811C56.0017 125.464 57.1284 124.69 55.8589 126.136C55.2617 126.718 53.9322 128.059 53.8233 127.973C54.9125 126.775 54.1801 127.33 54.5294 126.906C52.6402 128.81 50.0599 131.15 48.49 132.964L50.0374 131.668C49.4327 132.382 48.3585 133.381 47.7501 133.971C47.9378 133.655 46.9275 134.384 47.4158 133.832C44.1444 137.73 44.4787 136.491 41.5867 139.62C41.5492 139.714 41.4703 139.852 41.3689 140.006C41.151 140.055 40.8731 140.093 40.4299 140.13C39.3933 140.115 37.0609 140.13 37.0534 139.939ZM26.522 139.89C26.9652 139.759 25.4478 139.488 26.3492 139.428C25.5943 139.503 24.9483 139.552 24.4 139.59C30.0037 134.095 34.6534 129.246 40.2571 123.548C42.3567 121.426 41.6806 122.44 42.7435 121.52C44.2083 120.07 45.2862 118.947 46.2365 117.941C47.7688 117.963 48.7454 118.039 50.1313 118.117C51.1341 118.177 52.1219 118.234 53.0834 118.249L51.397 120.025L52.073 119.364L53.1021 118.249C53.2186 118.249 53.335 118.256 53.4439 118.256C53.3575 118.373 53.2787 118.482 53.1773 118.613C52.3322 119.451 51.6449 120.1 51.273 120.326C49.3313 122.628 46.6233 125.317 44.8355 127.439C46.0487 125.982 44.5726 127.285 43.6787 127.988C45.1923 126.425 45.0158 126.223 44.7829 126.207C43.8665 127.161 43.4534 127.973 43.9905 127.563C42.3416 129.043 43.0402 128.773 41.5341 130.02C40.5764 130.842 41.7895 129.385 41.4177 129.618C39.7125 131.289 41.1811 130.305 39.3032 132.097C39.3783 131.973 39.536 131.792 39.3557 131.901C38.3229 132.855 37.3501 134.001 37.2262 134.313C35.9267 135.12 34.2778 137.302 34.2478 136.855C31.9154 139.312 34.736 136.63 34.3492 137.186C33.8046 137.862 32.8656 138.782 32.0882 139.511C32.0243 139.511 31.9717 139.511 31.9154 139.511C32.1408 139.263 32.3736 139.015 32.6328 138.793L31.9642 139.124C31.8065 139.263 31.6825 139.387 31.5511 139.511C30.2816 139.511 29.0797 139.537 28.0431 139.62L30.5257 139.868C29.3727 139.976 27.5624 139.901 26.522 139.89ZM16.2122 139.406C16.0169 139.503 15.6038 139.605 15.0554 139.698C18.0638 136.559 21.508 133.524 23.5812 130.872C28.3248 126.959 26.06 127.68 30.3905 124.085L30.2065 124.161C33.0422 121.355 35.9342 118.519 38.8262 115.684C38.8187 115.762 38.8111 115.864 38.8036 115.947C38.7323 116.179 38.7736 116.427 38.9351 116.638C39.044 116.754 39.1379 116.855 39.2318 116.946C39.6675 117.302 39.9229 117.87 41.2374 118.023C41.8909 118.001 42.4656 117.986 43.0027 117.971C42.3867 118.651 41.782 119.319 41.2374 119.931L39.3482 121.667C41.767 119.263 39.1079 121.52 42.1163 118.542C39.536 120.953 37.3351 123.387 34.9238 125.697C35.4534 125.31 35.4234 125.516 34.5032 126.493C33.0121 127.905 32.7492 127.898 31.0779 129.539L32.6328 127.819C31.4196 128.818 30.6084 129.896 29.598 130.932C29.1549 131.15 26.6535 133.599 26.9652 133.043C24.8882 135.421 24.0093 136.119 21.6995 138.621C24.3211 136.243 21.2112 139.413 21.5831 139.218L24.3586 136.367C20.3098 140.254 25.6281 135.056 25.1361 135.165C27.0967 133.389 22.8901 138.038 25.9924 134.887C23.9079 137.081 22.7173 138.256 21.4065 139.605C21.1249 139.582 20.8695 139.552 20.6028 139.529C21.3878 138.669 22.2441 137.73 23.2169 136.769C22.3756 137.55 21.3577 138.489 20.2948 139.488C19.3934 139.394 18.3568 139.304 16.2122 139.406ZM3.12684 140.604C3.9043 140.637 3.92683 140.514 3.99068 140.427C4.02073 140.378 4.06204 140.333 4.18599 140.303C4.28739 140.288 4.20852 140.273 4.5503 140.266C4.83199 140.266 5.19631 140.254 5.66203 140.254C5.0949 140.232 4.54279 140.217 3.99068 140.202C3.78035 140.179 3.29961 140.311 3.38599 139.939L3.36721 139.612C4.30993 138.692 5.31274 137.659 6.61226 136.461L6.54841 136.652C7.36343 135.676 8.25732 134.654 9.62821 133.344L9.5268 133.723C11.2582 132.183 10.4883 132.183 12.3888 130.463C12.231 130.331 11.0104 131.391 10.6911 131.421C11.277 131.15 13.2413 129.231 12.6817 129.576C14.4244 127.717 13.9324 128.33 14.1277 128.213L15.1005 127.068C16.3737 125.813 15.6977 126.857 15.3108 127.409C16.3362 126.069 17.7371 124.897 19.1117 123.582L18.631 124.194L20.4263 122.455C21.4591 121.186 23.0704 119.575 24.614 118.147L23.784 119.364C24.9333 118.429 24.2572 118.76 24.4976 118.459C26.0525 116.716 26.5445 116.499 27.5248 115.732C29.9661 112.893 33.1135 110.801 35.0891 108.255L35.4759 108.089C38.3229 104.765 42.2177 101.588 44.3322 98.7898C48.4975 95.4433 46.4393 95.9692 50.2477 92.8931L50.0674 92.957C61.4814 81.712 73.7255 69.9336 84.1367 59.1694L84.1968 59.2708C89.4775 54.0877 94.6756 48.9272 99.8474 43.7666C99.8624 46.0427 99.7836 48.4765 99.5282 51.0267C98.8671 51.6765 98.2061 52.345 97.5526 52.9948C96.3394 54.407 98.5779 52.0408 97.9357 52.8333C96.1704 54.8614 96.3657 54.2567 94.9498 55.8868L95.4681 55.1506C93.1845 57.3891 90.9836 59.9919 88.8916 62.2867C89.1357 61.791 86.9874 63.9769 88.7376 62.0839C87.6785 63.1693 85.8156 63.9055 85.1057 64.852L86.8409 64.1684C86.8334 64.2773 85.2935 65.7496 85.4813 65.6332C84.4372 66.4632 83.1639 67.4848 82.5179 68.1383C82.0672 68.3149 83.7311 66.7186 84.625 65.836C84.5311 65.4792 81.47 68.6867 82.5555 67.1994C80.6851 69.1449 82.9461 67.0379 81.8869 68.2623L80.1705 69.8811L81.5377 68.6642C80.2081 70.1214 79.8963 70.7637 77.917 72.4989L76.2044 74.6397C75.8325 74.6547 74.7659 76.0106 73.733 76.9533L74.24 76.2247C72.933 77.543 72.3884 78.0237 71.4945 78.7824C72.0842 77.8848 72.7302 77.6294 72.903 77.1636L71.4006 78.5571C71.5095 78.651 70.6607 79.6425 71.7574 78.666C70.6006 80.1946 70.0185 81.0847 66.6345 84.4237C64.9481 85.772 68.1218 82.6434 67.3255 83.1091C63.75 86.5157 63.4871 87.8115 61.4251 89.8246C58.7434 92.3523 59.0552 92.3598 56.4186 95.0114C57.1434 94.0574 54.4467 96.7316 53.8533 97.1034L54.781 95.9391C54.0111 96.7767 53.1923 97.5053 53.3425 97.1786C53.6542 97.1861 50.0599 100.743 48.3134 102.636L48.7641 102.456C47.3857 103.92 45.4965 105.967 43.9491 107.44C41.752 109.727 42.3792 109.329 40.7867 111.199C39.7125 112.033 39.675 111.785 39.844 111.323C40.5125 110.793 41.4928 109.742 42.5294 108.795C45.2562 105.851 47.1754 103.364 50.0749 100.604C50.9876 99.064 48.2045 102.549 46.7097 103.811C46.7322 103.751 46.8261 103.642 46.9275 103.533C46.8036 103.657 46.6947 103.759 46.5782 103.868C47.551 102.82 49.1585 101.115 49.2674 100.675C47.5961 102.403 48.3585 102.223 46.105 104.191C44.6327 105.843 43.1041 106.857 42.1313 107.781C41.2149 108.942 41.4252 109.246 38.8111 111.747L39.7539 110.444C36.8431 113.344 38.6572 112.074 35.9567 114.748C36.9295 113.824 35.2281 115.83 37.0234 114.042C36.2384 115.026 34.3041 116.994 32.7943 118.395C32.4375 118.801 32.7717 118.534 32.7642 118.666C34.5032 117.178 35.198 116.003 36.7041 114.854L37.628 113.547C39.2093 112.112 39.5097 112.119 38.6722 113.111C39.0853 112.679 39.4346 112.281 39.7764 112.01C40.3285 112.052 37.8647 113.708 37.5905 114.474L38.6309 113.4C39.2844 113.126 36.3248 116.033 34.9389 117.381C33.3088 118.839 31.8553 120.217 31.6112 120.187L33.6356 118.054C32.445 119.015 31.044 120.762 29.8234 121.96C29.7295 122.023 29.598 122.125 29.4441 122.256C29.5229 122.208 29.568 122.185 29.583 122.2C29.3201 122.448 29.0722 122.658 28.8469 122.82C27.7727 123.868 26.3042 125.509 25.2676 126.448H25.5192L25.5793 126.245C26.5596 125.284 27.9492 124.044 27.307 124.867C25.2 127.139 24.5239 127.346 23.8929 127.759C24.2047 127.06 26.03 125.625 27.0816 124.45C26.2253 124.931 24.8319 126.651 22.4469 128.788C23.1455 127.68 25.076 126.17 25.384 125.486C23.5286 127.27 23.1943 127.89 21.2188 129.749C21.3727 129.415 23.2319 127.541 22.9915 127.541L21.6995 128.709C24.7079 125.682 20.9145 128.983 23.2244 126.579C22.0263 127.601 21.831 128.299 20.122 129.742C20.6516 129.392 22.0826 128.299 20.6441 129.888L18.8713 131.53C18.0526 132.149 20.4413 129.531 19.2357 130.561L17.5192 132.423C17.6357 132.423 18.5296 131.593 18.0714 132.221C16.9746 133.182 16.6066 134.151 15.4798 135.451C14.5033 136.42 13.7146 137.171 13.3052 137.445C12.5427 138.328 11.6789 139.255 10.8 140.202C8.64042 140.397 6.21414 140.581 4.28739 140.754C3.85923 140.705 3.46862 140.675 3.12684 140.604ZM2.47332 113.986C2.53717 114.05 2.63858 114.399 2.75501 113.956C2.73247 113.648 2.87144 113.423 3.01792 113.235C3.22825 112.927 3.41604 112.645 3.60383 112.375C3.96063 111.826 4.28739 111.274 4.65171 110.422C6.47705 107.774 4.62918 110.981 5.6395 109.693C5.53058 109.982 5.15875 110.579 4.68927 111.331C4.25359 112.01 3.73529 112.833 3.24327 113.607C3.19069 113.701 3.16815 113.809 3.16815 113.918C3.16815 114.065 3.17566 114.211 3.17566 114.35C3.01041 114.568 2.87144 114.763 2.7475 114.955C2.7475 114.947 2.7475 114.94 2.7475 114.932C2.7475 114.94 2.7475 114.947 2.7475 114.955C2.63858 115.109 2.51463 115.282 2.38318 115.458C2.38318 114.065 2.41323 113.903 2.47332 113.986ZM6.73621 106.914C6.64231 107.135 6.46203 107.417 6.77377 107.068L7.57376 105.558C9.71084 102.636 7.71648 106.185 9.51929 103.826C10.9014 102.286 11.0104 101.449 12.0545 100.262C11.9681 100.326 11.8742 100.397 11.8028 100.457C12.0207 100.187 12.1709 99.9917 12.2873 99.8452C12.2798 99.8527 12.2535 99.8527 12.2535 99.8527C13.3427 98.294 14.6573 96.7316 14.7963 96.1494C15.0141 96.0706 15.8479 94.8612 16.1897 94.3354C16.7343 93.5767 17.985 91.8565 19.2432 90.895C19.0028 91.2218 18.7699 91.5373 18.9728 91.3758C17.0836 93.0884 17.7596 92.6715 17.4479 93.1335C18.3343 92.1194 19.446 90.9326 20.0995 90.6096C21.0234 89.6781 21.5981 89.096 22.2666 88.3598C22.5183 88.1833 22.6347 88.1382 22.5408 88.2922C23.4873 87.4396 24.4751 86.6246 25.4629 85.8134L25.3539 86.3242C27.9605 83.9918 27.5774 84.0857 29.2337 82.2941C31.3858 80.8669 34.5745 77.8697 35.859 76.8143C36.0844 76.6604 36.4112 76.3974 36.9595 75.9693L35.7238 76.7542C37.8947 75.1017 37.5604 75.1956 39.014 74.1176C38.6872 74.3205 38.6309 74.328 39.4797 73.7796C39.3107 73.9036 39.1604 74.0087 39.014 74.1176C39.1679 74.0162 39.3783 73.8773 39.6186 73.7308L39.5097 73.7608C39.7614 73.5918 40.0243 73.4153 40.351 73.205C40.2947 73.2801 39.9604 73.5054 39.6186 73.7308L39.9529 73.6219C41.9435 72.6454 42.597 71.5374 44.6102 70.313C44.4336 70.4444 44.1369 70.6773 43.9341 70.8087C45.0759 70.1364 46.905 69.4454 47.2017 68.9045C47.4796 68.7656 47.8289 68.4538 48.1632 68.1459L49.0045 67.6238C48.6627 67.8341 48.3961 67.9956 48.1782 68.1383C48.6289 67.7177 49.0346 67.2933 49.136 67.3083L51.3106 65.8435C51.2505 66.005 51.4045 65.9524 51.9566 65.4078C52.0993 65.3252 52.2608 65.2013 52.4148 65.0923C51.2881 66.2454 50.1388 67.0116 49.3914 67.7177C48.6064 68.7393 48.8317 69.036 46.5557 71.2144L47.3482 70.0576C44.8205 72.5702 46.4318 71.4998 44.0806 73.8247C44.9294 73.0247 43.4684 74.7937 45.0383 73.235C44.3623 74.1026 42.6834 75.8153 41.3614 77.0247C41.0571 77.3815 41.3538 77.1561 41.3538 77.2801C42.8862 76.0031 43.4534 74.9402 44.7904 73.9712L45.5679 72.8106C46.9426 71.5787 47.2318 71.6012 46.5069 72.4763C46.8749 72.097 47.1679 71.7477 47.4721 71.5148C47.9867 71.5862 45.8008 72.9721 45.598 73.6782L46.4918 72.7317C47.0928 72.5289 44.5088 75.0491 43.3069 76.2172C41.8759 77.4679 40.6064 78.666 40.3811 78.6209L42.1313 76.7618C41.0834 77.5843 39.8853 79.1242 38.8262 80.1646C38.7398 80.2171 38.6233 80.3035 38.4919 80.4124C38.5633 80.3711 38.6008 80.3561 38.6158 80.3636C38.383 80.5815 38.1726 80.7655 37.9623 80.9007C37.0384 81.8134 35.7727 83.2481 34.8637 84.0594L35.0966 84.0744L35.1417 83.8904C35.9905 83.0528 37.2187 81.9899 36.6666 82.7185C34.845 84.6979 34.2253 84.8443 33.6656 85.1936C33.9135 84.5627 35.5248 83.3382 36.4337 82.3092C35.6637 82.7035 34.4731 84.2246 32.3811 86.0612C32.9558 85.0697 34.6684 83.7889 34.9088 83.1692C33.29 84.7129 33.0196 85.2688 31.3032 86.88C31.4196 86.572 33.0346 84.9458 32.8093 84.927L31.675 85.9373C34.2929 83.3007 30.9614 86.1364 32.9558 84.0443C31.9079 84.927 31.7764 85.5655 30.2741 86.8049C30.7436 86.5082 32.0093 85.5805 30.7736 86.9664L29.2187 88.3936C28.5013 88.9119 30.5558 86.6246 29.5042 87.5072L28.0131 89.1298C28.1295 89.1373 28.907 88.4237 28.5201 88.9795C27.5549 89.8096 27.2807 90.6847 26.3117 91.834C25.4629 92.6715 24.7793 93.3288 24.4075 93.5542C22.4619 95.8527 19.7577 98.5344 17.9699 100.66C19.1831 99.2029 17.7108 100.502 16.8169 101.209C18.3268 99.6499 18.1465 99.4508 17.9136 99.4283C17.0047 100.386 16.584 101.194 17.1211 100.784C15.4798 102.264 16.1822 102.001 14.6723 103.24C13.7146 104.059 14.9277 102.606 14.5484 102.835C12.847 104.517 14.323 103.533 12.4413 105.317C12.5127 105.194 12.6742 105.013 12.4977 105.122C11.4611 106.076 10.4808 107.222 10.3644 107.533C9.06108 108.337 7.41977 110.531 7.38221 110.072C5.04983 112.536 7.87047 109.858 7.47986 110.414C6.61226 111.5 4.70429 113.22 4.0996 113.746C4.68176 113.148 5.16626 112.547 5.77095 112.01L5.0949 112.345C4.41885 112.972 3.96815 113.43 3.63388 113.794C3.63388 113.723 3.61885 113.708 3.72026 113.475C3.9381 112.987 4.11463 112.562 4.51274 111.973C4.23106 112.686 5.10992 111.624 5.93621 110.26C5.63199 110.609 5.30523 111.15 5.32776 110.966C6.88268 108.461 6.81884 107.935 8.68549 104.968C6.98409 107.308 6.5409 107.732 4.90711 109.911C5.02354 109.13 5.8949 108.27 6.73621 106.914ZM33.6168 78.3279C35.9041 76.3411 35.2656 77.0773 35.506 77.0172C33.0572 78.7148 31.9868 80.0068 29.7934 81.5354C30.1727 81.3251 30.3079 81.3552 30.4544 81.3176C29.6056 81.9674 28.7267 82.5645 28.3323 82.6509C29.1398 81.5505 34.7849 77.6594 33.6168 78.3279ZM64.8316 51.7929C65.1734 51.3685 65.4063 50.5835 65.7819 49.7497C66.1387 48.9046 66.1988 47.8793 66.4091 46.9741C66.5668 45.1901 66.4805 43.7441 66.7772 44.2549C66.7659 44.176 66.7509 44.1235 66.7434 44.0521C67.8701 42.9291 68.3471 42.5122 69.1246 41.8662C68.6251 42.6662 68.0504 42.869 67.919 43.2859L69.226 42.084C69.1171 41.9901 69.8457 41.115 68.8805 41.9526C69.8607 40.6042 70.3452 39.8155 73.2898 36.916C74.7809 35.7629 72.0166 38.4822 72.7377 38.1028C75.8475 35.1432 76.0128 33.9564 77.8081 32.2062C80.1405 30.0202 79.8513 29.9902 82.1461 27.6879C81.5301 28.5329 83.87 26.2156 84.3996 25.8963L83.6146 26.9292C84.2757 26.193 84.9968 25.5733 84.8728 25.8588C84.5874 25.8362 87.7048 22.7414 89.2109 21.0926L88.8015 21.2316C89.4925 20.5029 90.3076 19.6128 91.1414 18.7377C91.2165 18.8203 91.2878 18.8992 91.3592 18.9781C90.2287 20.2776 89.1019 21.5508 87.7048 22.8766C86.9573 24.2625 89.3273 21.179 90.6343 20.1011C90.6193 20.1536 90.5329 20.2475 90.4465 20.3414C90.5554 20.24 90.6493 20.1461 90.7583 20.056C89.9132 20.9762 88.5273 22.456 88.4559 22.8578C89.8944 21.3555 89.2033 21.4719 91.1714 19.7818C91.3254 19.6128 91.4756 19.4663 91.6296 19.3086C91.6522 19.3424 91.6747 19.3724 91.701 19.4025C91.6522 19.4438 91.6296 19.4663 91.5921 19.5189L91.7085 19.4025C92.7789 20.6757 93.7442 21.9752 94.5667 23.301C93.0193 24.9348 91.5207 26.67 90.0972 28.2588C90.285 27.8268 88.4184 29.716 89.9282 28.0672C89.0155 29.0212 87.3217 29.5771 86.717 30.4146L88.2944 29.8888C88.2944 29.9977 86.9573 31.2672 87.1188 31.1733C86.2024 31.8794 85.0832 32.7545 84.5236 33.3141C84.1104 33.4531 85.5564 32.0747 86.3339 31.3047C86.225 30.963 83.5771 33.7611 84.501 32.4465C82.8747 34.1329 84.8503 32.3226 83.9414 33.3892L82.4391 34.7939L83.6372 33.746C82.4954 35.0193 82.2475 35.6052 80.5048 37.085L79.0513 38.9779C78.702 38.9704 77.7931 40.161 76.8879 40.9761L77.3161 40.3338C76.1818 41.4793 75.7086 41.8925 74.9236 42.5422C75.4194 41.7422 75.994 41.5432 76.1292 41.1225L74.8222 42.3244C74.9236 42.4183 74.1987 43.2934 75.164 42.4559C74.1837 43.8042 73.6954 44.5967 70.7546 47.4924C69.2635 48.6493 72.0241 45.9263 71.3067 46.3094C68.1969 49.269 68.0354 50.4521 66.2401 52.206C65.5378 52.8558 65.087 53.3065 64.7227 53.6934C64.9481 53.1976 65.072 52.792 65.2373 52.4765C65.2673 52.3826 65.3049 52.2812 65.3462 52.191C65.3687 52.1647 65.3913 52.1422 65.4213 52.1121C65.3913 52.1422 65.3838 52.1497 65.3537 52.1722C65.3913 52.0746 65.4288 51.9581 65.4777 51.8492C65.9284 51.376 66.5105 50.7713 66.7058 50.5384C66.3077 50.8952 65.8983 51.3459 65.4927 51.8004C65.5077 51.7478 65.5302 51.7103 65.5453 51.6539C65.6016 51.3384 65.6654 50.9816 65.7481 50.5084L65.5941 50.7863C65.5378 51.222 65.4138 51.6314 65.2823 52.0333C64.918 52.4464 64.5687 52.8408 64.242 53.1638C64.4748 52.653 64.6589 52.1497 64.8316 51.7929ZM66.3152 44.8596L65.872 45.145C65.857 45.0211 65.842 44.9047 65.827 44.7732C65.9659 44.6267 66.1237 44.4652 66.2852 44.285C66.3002 44.4878 66.3077 44.6793 66.3152 44.8596ZM66.3227 44.961C66.3002 45.5019 66.2326 45.9676 66.1687 46.3469C66.0598 46.4784 65.9884 45.9187 65.8795 45.1751L66.3152 44.8596C66.3227 44.8896 66.3227 44.9272 66.3227 44.961ZM66.7208 43.853C66.8598 43.7028 67.01 43.5638 67.149 43.4249L66.7434 44.0446C66.7359 43.977 66.7283 43.9131 66.7208 43.853ZM64.3096 40.1085C63.8739 39.7291 63.5321 39.5038 62.7171 38.7901C62.0561 38.039 61.8082 37.6897 61.7519 37.5056C62.0035 37.716 62.2589 37.915 62.4842 38.1554C63.442 37.1639 64.3171 36.2024 65.0495 35.2897C70.2889 30.8803 67.8551 31.7705 72.6438 27.7254L72.441 27.8118C76.9968 23.3085 81.6616 18.7302 86.3264 14.148C86.4916 14.3133 86.6456 14.4673 86.7696 14.5912C87.7649 15.3987 88.6663 16.225 89.5226 17.0626C82.9761 23.4963 76.5161 29.8888 70.6532 35.9545L70.5931 35.8456C68.764 37.6446 66.9687 39.4249 65.1584 41.2164C65.1133 41.1225 65.057 41.0399 65.0044 40.961C64.7678 40.5366 64.5424 40.285 64.3096 40.1085ZM60.8204 38.0878C60.9143 38.1179 61.0232 38.1554 61.1321 38.2193C61.1321 38.2193 61.1321 38.2193 61.1472 38.2268C61.0458 38.1704 60.9293 38.1329 60.8204 38.0878ZM55.5885 34.1404L55.6035 34.1254L55.581 34.1404C55.4345 34.1029 55.2768 34.0728 55.1153 34.0352C55.3143 33.8174 55.5434 33.577 55.7838 33.3291C56.1782 33.5282 56.888 33.8024 58.334 34.2906L57.5153 34.2719C59.3444 35.1507 56.8955 33.6071 59.5134 34.7151C58.3002 34.0653 57.4552 33.6446 56.0693 33.2728C57.1359 32.2062 57.6167 31.7855 58.3791 31.1583C57.8833 31.9583 57.2974 32.1498 57.1735 32.578L58.4805 31.3761C58.3716 31.2822 59.0927 30.4071 58.1387 31.2447C59.119 29.8963 59.5998 29.1038 62.5443 26.2006C64.0392 25.0513 61.2711 27.7705 61.996 27.3836C65.1021 24.4315 65.2598 23.2485 67.0626 21.4945C69.395 19.3011 69.1058 19.2785 71.3931 16.9762C70.7884 17.8213 73.1283 15.4964 73.6541 15.1884L72.8692 16.21C73.5302 15.4814 74.2476 14.8616 74.1311 15.1508C73.8419 15.117 76.9593 12.0335 78.4691 10.3847L78.056 10.5236C78.4353 10.1105 78.871 9.65604 79.3142 9.17529C79.4231 9.22788 79.532 9.29172 79.6485 9.34431C78.8184 10.2758 77.9621 11.2035 76.9518 12.1649C76.2119 13.5358 78.5292 10.5387 79.8438 9.43069L79.8513 9.4382C79.8212 9.49079 79.7724 9.55464 79.7048 9.63351C79.7724 9.56966 79.8287 9.51708 79.8963 9.45323L79.9076 9.46074C79.0588 10.3847 77.7743 11.7631 77.7067 12.1499C79.0212 10.7866 78.5856 10.7415 79.9602 9.48327C80.0841 9.54712 80.2006 9.59971 80.332 9.65604L80.024 9.4382C80.0316 9.42318 80.0466 9.41567 80.0541 9.40816C80.963 9.80252 82.2287 10.7565 83.5433 11.6542C83.7686 11.8232 83.9865 12.011 84.2043 12.1875C83.7686 12.6833 83.179 13.3142 82.255 14.2044L83.3254 12.7696C80.0841 15.9922 82.0672 14.5537 79.0663 17.5283C80.148 16.4992 78.225 18.7227 80.2419 16.7283C79.348 17.8062 77.1846 19.9996 75.5058 21.5733C75.1076 22.024 75.4757 21.7198 75.4607 21.8588C77.395 20.1874 78.1874 18.8992 79.8438 17.6072L80.9029 16.1649C82.6494 14.5612 82.9761 14.5537 82.0297 15.6541C82.4954 15.1734 82.8822 14.7302 83.2578 14.4222C83.84 14.4297 81.1433 16.3189 80.809 17.149L81.9733 15.9471C82.6719 15.6278 79.378 18.8691 77.8382 20.379C76.0278 22.0053 74.4166 23.5489 74.1612 23.5264L76.4147 21.164C75.1001 22.2456 73.5227 24.1761 72.1706 25.5095C72.0617 25.5808 71.9152 25.6973 71.7424 25.8437C71.8288 25.7874 71.8814 25.7649 71.8889 25.7724C71.6034 26.0503 71.3293 26.2907 71.0814 26.4785C69.8833 27.6466 68.2382 29.4606 67.0927 30.516L67.3518 30.501L67.4269 30.2832C68.5161 29.2127 70.0635 27.8193 69.3424 28.732C66.9762 31.2522 66.2476 31.5076 65.564 31.9808C65.9284 31.2296 67.949 29.5996 69.1246 28.3001C68.1894 28.8559 66.6194 30.7564 63.9678 33.1489C64.7678 31.9395 66.9011 30.2381 67.2654 29.4907C65.196 31.485 64.8091 32.1573 62.6157 34.2418C62.796 33.87 64.8692 31.7855 64.6138 31.8005L63.1828 33.1113C66.5406 29.731 62.3378 33.4456 64.918 30.7714C63.5885 31.9245 63.3556 32.6681 61.4589 34.2982C62.0335 33.8925 63.611 32.6531 62.0035 34.4146L60.3622 35.947C60.2983 35.9169 60.2458 35.8944 60.1819 35.8606C60.6326 35.2897 61.2786 34.5122 60.4786 35.2108L59.9716 35.7554C59.7613 35.6465 59.5697 35.5226 59.3594 35.4287L59.4683 35.2033C57.9059 34.5686 57.2899 34.5122 55.5885 34.1404ZM55.8852 33.2277C56.0542 33.0475 56.2345 32.8784 56.4035 32.7169L56.0467 33.2653C55.9941 33.2503 55.9378 33.2428 55.8852 33.2277ZM47.4947 33.5282C47.3256 33.3517 48.7003 33.1902 46.5332 33.2428C46.2214 33.3968 45.4365 33.5996 44.5576 33.7536C44.967 33.2052 45.4027 32.623 46.0036 31.9395C47.1754 30.7789 48.1256 29.8663 48.6064 29.5245C51.382 26.3996 55.1303 22.6738 57.6805 19.7893C55.9453 21.7687 57.9585 19.932 59.1641 18.9142C57.0495 21.0701 57.2298 21.2804 57.5002 21.2541C58.7772 19.9396 59.427 18.8917 58.7134 19.4813C60.9594 17.3893 60.073 17.8551 62.1199 16.0785C63.4157 14.9105 61.6842 16.886 62.18 16.5292C64.5349 14.2044 62.5932 15.6616 65.1809 13.164C65.072 13.3293 64.8467 13.5696 65.0795 13.4044C66.4955 12.0711 67.8889 10.5086 68.088 10.1218C69.8081 8.91238 72.1931 5.97531 72.148 6.50864C72.2081 6.44104 72.257 6.39221 72.3171 6.33212C72.7527 6.49362 73.1809 6.66263 73.4551 6.82789L75.4832 7.2523C76.2119 7.39878 76.7264 7.62413 77.2072 7.89455C71.1978 13.81 65.2974 19.6654 59.9115 25.2391L59.8476 25.1376C57.2298 27.7104 54.6458 30.2756 52.058 32.8409C51.7012 32.8184 51.3369 32.7921 50.9538 32.762C51.2956 32.7695 51.6637 32.8184 52.028 32.8709C51.9566 32.9423 51.889 33.0099 51.8101 33.0813C51.2956 33.1338 50.9388 33.2127 50.4956 32.9799C49.7407 33.1414 50.7435 33.1639 51.6561 33.2353C51.5698 33.3216 51.4834 33.4043 51.397 33.4907C50.2327 33.4531 48.5388 33.3442 47.4947 33.5282ZM40.0618 36.0108C39.2543 36.5817 38.4844 36.9085 37.6393 37.2953C38.4243 36.8221 39.2318 36.3977 40.0618 36.0108ZM34.8149 39.0005C35.6863 38.1855 36.2759 37.7385 37.0797 37.0549C35.983 37.8399 34.0375 39.4587 32.5689 40.9084C31.8929 41.3178 31.2243 41.7573 30.5558 42.208C30.4619 42.5347 28.629 44.0371 28.8131 44.2324C26.6121 46.1854 30.2591 42.3394 30.383 42.0164C27.6074 44.4389 28.4863 44.4465 25.8835 46.5948C25.9999 46.3619 26.2553 45.9751 26.4506 45.6483C26.2779 45.8361 26.0713 46.0615 25.846 46.3018C25.6882 46.4784 25.5267 46.6624 25.369 46.8352C25.1774 47.053 24.9971 47.2521 24.8582 47.4098C24.723 47.5788 24.5389 47.4849 24.5389 47.4324C24.5239 47.4849 24.6328 47.5788 24.7793 47.4924C24.9032 47.391 25.0497 47.207 25.2225 47.0267C25.1586 47.222 25.0272 47.6727 24.6478 47.9206C24.2572 47.8793 23.9568 47.4248 23.5586 47.1356C23.0441 46.6962 22.4244 46.1366 22.1126 45.9976C22.1765 45.945 22.2366 45.8812 22.3004 45.8211C22.3455 45.8737 22.3906 45.9187 22.4394 45.9676L22.3079 45.8023C30.6722 37.6221 39.0665 29.393 46.5219 21.6823L46.5857 21.7837C52.4937 15.9846 58.3002 10.2119 64.0842 4.43917C64.4185 4.50302 64.7528 4.56311 65.1208 4.63447C65.4288 4.32274 67.5359 4.811 69.2335 5.24668C68.7715 5.70489 68.3471 6.14432 67.949 6.5462C67.5697 7.26732 68.2532 6.2908 69.365 5.27672C69.3875 5.28424 69.4025 5.29175 69.425 5.29175C67.949 6.95934 65.8795 9.03633 63.8852 10.9105L65.1208 9.29924C63.5659 10.6401 64.4335 10.103 64.0842 10.5236C61.8946 12.9011 61.2636 13.2579 59.9415 14.3584C56.4824 18.2194 52.3172 21.3179 49.4702 24.7433L48.9707 25.0137C45.5266 28.8559 41.2149 32.7245 38.1126 36.0935C37.9398 36.1348 38.0412 35.992 37.2412 36.4728C36.8431 36.792 36.4337 37.0775 36.0506 37.4193C36.6027 37.1188 37.2337 36.777 37.7783 36.4578C37.3576 36.9235 36.9595 37.3817 36.5952 37.8211H36.5877C36.0431 38.1254 35.4609 38.4897 34.8149 39.0005ZM18.5596 42.9817C17.7671 41.9225 19.1568 43.1469 19.9681 43.8042C19.9418 43.8267 19.9117 43.8605 19.8967 43.8831L19.9981 43.9845L20.0695 43.8831C20.0995 43.9131 20.1296 43.9357 20.1596 43.9582C20.1296 43.9995 20.0995 44.022 20.0695 44.0596L21.9324 46.0277C21.9249 46.0352 21.9173 46.0427 21.9173 46.0615L23.014 47.2671C21.2112 45.5169 19.7502 44.4953 18.5596 42.9817ZM20.2159 43.6652C20.2535 43.7028 20.2948 43.7516 20.3324 43.7892C20.276 43.8418 20.231 43.8981 20.1671 43.9507C20.1371 43.9206 20.107 43.8981 20.077 43.8681L20.2159 43.6652ZM20.6291 44.1084V44.1009C20.7305 44.2061 20.8281 44.3075 20.9296 44.4164C20.5427 44.6192 20.5352 44.4164 20.6291 44.1084ZM21.2112 44.2399C21.1812 44.2624 21.1399 44.285 21.1098 44.3075L20.8206 43.9357C20.8281 43.9282 20.8469 43.9131 20.8619 43.9056L21.2112 44.2399ZM79.9827 9.36684C79.9752 9.37435 79.9677 9.38562 79.9677 9.39313H79.9602C79.9677 9.38562 79.9752 9.37435 79.9827 9.36684ZM84.9442 12.841C84.7865 13.0325 84.6099 13.2429 84.3771 13.5058C83.194 14.4523 83.1639 14.1969 83.3743 13.6936C83.7236 13.4119 84.1517 13.0025 84.6174 12.5368C84.7339 12.6382 84.8353 12.7396 84.9442 12.841ZM3.40101 124.946C3.47613 124.867 3.56252 124.795 3.6489 124.72C3.62636 124.953 3.60383 125.1 3.57754 125.178C3.555 125.201 3.53247 125.208 3.50993 125.231C3.47613 125.201 3.43857 125.1 3.40101 124.946ZM3.08177 125.362C3.08177 125.317 3.08177 125.284 3.08177 125.238C3.08177 125.238 3.08177 125.238 3.08177 125.231C3.08177 125.276 3.08177 125.31 3.08177 125.362ZM3.08177 124.581C3.08177 124.758 3.08177 124.961 3.08177 125.223C3.07426 125.006 3.06674 124.814 3.05923 124.611C3.06674 124.604 3.07426 124.589 3.08177 124.581ZM3.37848 117.505L3.67144 117.148C3.67895 117.329 3.68646 117.498 3.69397 117.674L2.92402 118.643C2.91651 118.388 2.909 118.132 2.90149 117.854C3.46111 117.287 3.23576 117.592 3.37848 117.505ZM3.70148 117.738C3.66392 117.768 3.63388 117.817 3.59256 117.847L3.70148 117.7C3.70148 117.716 3.70148 117.731 3.70148 117.738ZM53.9885 63.9693L54.289 63.8341C54.95 63.3158 55.1754 63.1844 55.2392 63.1844C55.1979 63.2219 55.1528 63.2708 55.1153 63.3158C55.089 63.3233 55.0664 63.3384 55.0514 63.3571C55.0439 63.3722 55.0664 63.3571 55.074 63.3571C53.8946 64.6191 52.3622 66.3017 51.0702 67.5149C49.1585 69.5092 49.7256 69.1825 48.366 70.8238C47.4083 71.5374 47.3632 71.3045 47.4947 70.8801C48.0843 70.4294 48.9256 69.5092 49.827 68.6942C51.3669 67.0041 52.6101 65.4867 53.9885 63.9693ZM54.2439 63.7665L54.0974 63.8529C54.1951 63.7365 54.2965 63.6276 54.3979 63.5111C54.7172 63.2332 54.7735 63.1994 54.2439 63.7665ZM65.2673 52.0671C65.2448 52.1422 65.211 52.2286 65.1809 52.3037C64.7866 52.6154 64.918 52.4389 65.2673 52.0671ZM65.1659 52.36C65.1133 52.5065 65.057 52.6605 65.0044 52.8107C64.8767 53.1337 64.7603 53.468 64.6288 53.7948C64.0016 54.452 63.6185 54.9328 62.7547 55.8455C62.9725 55.4511 63.3143 54.8389 63.7124 54.1966C63.8739 53.9412 64.0166 53.6633 64.1481 53.3816C64.3809 53.1187 64.7152 52.7844 65.1659 52.36ZM8.35873 112.87L7.8855 113.475L9.68079 111.74C10.7174 110.478 12.3249 108.855 13.8723 107.44L13.0385 108.656C14.1841 107.717 13.508 108.052 13.7559 107.74C15.3108 106.005 15.7991 105.779 16.7793 105.021C19.2206 102.185 22.368 100.093 24.3361 97.5429L24.7342 97.3814C27.5699 94.0574 31.4722 90.8725 33.5792 88.0819C37.7557 84.7354 35.6863 85.2612 39.5022 82.1852L39.3257 82.2378C50.736 71.0041 62.98 59.2182 73.3912 48.4539L73.4551 48.5629C81.1095 41.0474 88.6137 33.562 96.0916 26.0841C96.7526 27.4475 97.3122 28.8259 97.7704 30.2268C92.0878 35.8305 86.5142 41.3704 81.3987 46.6624L81.3424 46.5648C64.1105 63.4548 47.6336 80.2171 30.6347 97.0321C29.1323 98.6846 30.2591 97.9147 28.9934 99.3644C28.3924 99.9466 27.0629 101.287 26.9577 101.194C28.0506 99.9992 27.3145 100.551 27.6713 100.123C25.7746 102.031 23.2018 104.371 21.6244 106.185L23.1793 104.897C22.5633 105.61 21.4892 106.602 20.8845 107.199C21.0723 106.88 20.0695 107.601 20.5502 107.06C17.2864 110.951 17.6131 109.708 14.7211 112.848C14.3944 113.716 10.8413 117.708 8.54653 120.378L7.16437 121.61C8.90333 119.883 6.93902 121.449 9.09863 119.319C7.22447 121.032 5.66955 122.805 3.92683 124.457C4.30242 124.217 4.30993 124.371 3.78035 124.968C3.77284 124.852 3.77284 124.728 3.76533 124.611C3.82167 124.555 3.87425 124.51 3.92683 124.457C3.88176 124.487 3.82167 124.54 3.76533 124.581C3.72026 123.331 3.7428 122.241 3.62637 120.348C3.38599 123.466 3.32965 119.545 3.14186 119.89L3.22825 123.409C3.37848 118.452 3.26956 125.028 3.6489 124.656V124.664C3.60383 124.705 3.57003 124.72 3.51745 124.765L3.38599 124.904C3.34468 124.735 3.30712 124.54 3.26956 124.371C3.2921 124.341 3.31463 124.318 3.33716 124.292C3.31463 124.318 3.2921 124.333 3.26956 124.363C3.16815 123.898 3.08928 123.62 3.08177 124.54C3.07426 124.547 3.06674 124.555 3.05923 124.574C2.96534 122.023 2.98036 120.589 2.92402 118.745C3.23576 118.437 3.50242 118.17 3.72026 117.93C3.8104 119.263 3.96064 120.762 3.95312 122.448C4.02073 121.047 4.16345 119.233 4.1935 117.404C4.69678 116.822 5.10992 116.318 5.95875 115.443C5.41415 115.901 4.83199 116.608 4.20101 117.265C4.20101 117.017 4.20852 116.769 4.20852 116.521L4.34749 116.36C5.62448 115.094 4.94842 116.142 4.56533 116.698C5.59067 115.357 6.9916 114.181 8.35873 112.87ZM99.0399 40.6042C99.0399 40.7056 97.7028 41.9751 97.8643 41.8812C96.9554 42.5873 95.8287 43.4624 95.269 44.022C94.8559 44.1685 96.3019 42.7826 97.0794 42.0164C96.9704 41.6746 94.3263 44.4803 95.2427 43.1544C93.6202 44.8446 95.5958 43.0305 94.6831 44.1009L93.192 45.5019L94.3827 44.454C93.2371 45.7347 92.9892 46.3169 91.2503 47.8042L89.793 49.6859C89.4512 49.6784 88.5348 50.8727 87.6334 51.6915L88.0616 51.0417C86.9273 52.191 86.4503 52.6004 85.6653 53.2502C86.1573 52.4539 86.747 52.2511 86.871 51.8342L85.5639 53.0323C85.6653 53.1262 84.9442 54.0013 85.9095 53.1638C84.9292 54.5121 84.4372 55.3046 81.5001 58.2116C80.0053 59.3572 82.7733 56.6379 82.0522 57.0173C78.9424 59.9769 78.7771 61.1637 76.9818 62.914C74.6494 65.0999 74.9386 65.1299 72.6513 67.4322C73.2598 66.5872 70.9199 68.912 70.3828 69.22L71.1753 68.1909C70.5067 68.9271 69.8006 69.5468 69.9171 69.2613C70.2025 69.2839 67.0852 72.3749 65.5791 74.0275L65.9884 73.8848C64.7941 75.1655 63.1603 76.9533 61.8157 78.2341C59.904 80.2171 60.4711 79.8904 59.1115 81.543C58.1613 82.2491 58.1087 82.0162 58.2401 81.5955C58.8298 81.1411 59.6711 80.2171 60.5725 79.4021C62.9274 76.8294 64.5687 74.6397 67.0927 72.2435C67.8326 70.8576 65.4701 73.9411 64.1556 75.0191C64.1706 74.9627 64.257 74.8688 64.3434 74.7787C64.2345 74.8763 64.1406 74.9702 64.0317 75.0641C64.8767 74.1515 66.2626 72.6604 66.3415 72.2585C64.8955 73.7608 65.5866 73.6444 63.6185 75.3345C62.3453 76.7843 60.9819 77.6294 60.1368 78.4256C59.3594 79.451 59.5772 79.7514 57.2974 81.9223L58.0899 80.7655C55.566 83.2782 57.1735 82.2153 54.8336 84.5326C55.6749 83.7364 54.2214 85.5016 55.7838 83.9505C55.1153 84.8105 53.4289 86.5232 52.1143 87.7326C51.8101 88.0894 52.1068 87.864 52.1068 87.988C53.6355 86.711 54.1951 85.6481 55.5322 84.6866L56.3096 83.5185C57.688 82.2866 57.981 82.3092 57.2599 83.1843C57.6167 82.8049 57.9134 82.4631 58.2176 82.2303C58.7284 82.3016 56.5462 83.6875 56.3434 84.3861L57.2448 83.4472C57.827 83.2406 55.2542 85.757 54.0561 86.9364C52.6176 88.1833 51.3594 89.3777 51.1266 89.3288L52.8768 87.4697C51.8251 88.2922 50.6345 89.8321 49.5792 90.88C49.4853 90.9251 49.3688 91.0114 49.2374 91.1279C49.305 91.0828 49.3463 91.064 49.3613 91.0828C49.136 91.2969 48.9181 91.4772 48.7153 91.6086C47.7839 92.5213 46.5144 93.956 45.613 94.771L45.8383 94.7861L45.8872 94.5983C46.7397 93.7607 47.9604 92.7016 47.4083 93.4302C45.598 95.4133 44.9782 95.5598 44.4074 95.9016C44.659 95.2743 46.274 94.0499 47.1754 93.0171C46.4055 93.4152 45.2186 94.9325 43.1266 96.7692C43.7088 95.7851 45.4102 94.4969 45.6543 93.8772C44.0355 95.4208 43.7651 95.9804 42.0449 97.5917C42.1614 97.28 43.7801 95.6537 43.5548 95.6386L42.4205 96.6452C45.0383 94.0199 41.7107 96.8555 43.7088 94.7635C42.6534 95.6386 42.5294 96.2734 41.0196 97.5128C41.4928 97.2199 42.7548 96.2884 41.5154 97.6743L39.9717 99.1015C39.2468 99.6199 41.2975 97.3363 40.2496 98.2189L38.7586 99.8452C38.875 99.8527 39.6525 99.1391 39.2694 99.6912C38.2966 100.521 38.0262 101.396 37.0534 102.542C36.2083 103.379 35.5248 104.037 35.1567 104.262C33.2074 106.564 30.507 109.246 28.7117 111.376C29.9323 109.918 28.4563 111.214 27.5624 111.916C29.0797 110.362 28.8919 110.159 28.6666 110.144C27.7502 111.098 27.3295 111.901 27.8741 111.5C26.2253 112.979 26.9239 112.709 25.4178 113.948C24.46 114.771 25.6732 113.314 25.2938 113.547C23.5887 115.225 25.0685 114.241 23.1868 116.025C23.2619 115.901 23.4197 115.732 23.2394 115.838C22.2065 116.784 21.2263 117.941 21.1098 118.249C19.8028 119.049 18.1615 121.239 18.1239 120.792C15.7916 123.248 18.616 120.566 18.2253 121.122C17.354 122.208 15.4498 123.928 14.8451 124.457C15.4347 123.86 15.908 123.255 16.5164 122.722L15.8404 123.06C12.7381 125.915 14.3305 125.325 11.3071 128.052C12.6967 126.485 11.6714 127.432 12.2873 126.579C11.8817 127.068 9.57187 129.269 11.0742 128.037C9.9775 129.107 9.19253 129.824 8.41507 130.538C7.52118 131.563 6.52588 132.645 6.07518 133.314C5.3503 134.012 4.69678 134.598 4.12214 135.101C4.12214 134.846 4.0996 134.669 4.02073 134.699C4.07707 133.607 3.97566 131.439 3.8104 131.056C3.87425 132.438 3.91932 133.708 4.02073 135.188C3.82167 135.368 3.64139 135.514 3.46111 135.661L3.44608 135.101C3.43106 135.304 3.42355 135.499 3.41604 135.699C3.26956 135.822 3.13435 135.931 3.00289 136.04C3.00289 135.995 2.99538 135.98 2.99538 135.931C3.07426 134.11 3.33716 133.956 3.36721 131.886L3.53247 133.933C3.73529 132.555 3.46862 131.368 3.43857 130.091C3.56252 129.858 3.62636 128.803 3.71275 127.999C5.15875 126.5 6.62729 124.983 8.21225 123.357C9.71084 121.828 9.27891 122.606 10.0639 121.96C13.4216 118.658 13.9812 117.592 17.1061 114.365C16.7418 114.88 16.1897 115.815 17.5718 114.459C17.7596 114.144 17.8197 113.87 18.7324 113.051L18.3568 113.554C19.2507 112.87 19.9117 112.018 21.5906 110.429C24.4751 107.548 27.0741 104.634 29.2037 102.016C31.7764 99.4884 29.1811 102.519 29.7145 102.091C27.8253 103.804 28.5013 103.379 28.1934 103.845C29.0797 102.827 30.1915 101.644 30.8525 101.317C32.1633 99.9842 32.7717 99.387 33.9774 97.971C33.3689 98.6846 32.7154 99.1616 33.26 98.4743C34.4018 97.4415 37.1097 94.6321 37.1548 94.9851C43.4121 88.6716 50.4956 81.6969 57.2223 74.9702C58.2552 73.7308 56.3209 75.7928 56.8693 75.0942C58.3866 73.3139 58.2476 73.8622 59.4608 72.4388L59.0251 73.0885C61.0082 71.143 62.8974 68.8557 64.7002 66.8576C64.5049 67.3008 66.364 65.4003 64.8617 67.0529C65.7706 66.1064 67.4683 65.5393 68.0729 64.7055L66.4955 65.2313C66.4955 65.1224 67.8326 63.8529 67.6711 63.9506C68.5875 63.2407 69.7067 62.3731 70.2664 61.806C70.6795 61.667 69.2335 63.0454 68.456 63.8191C68.565 64.1534 71.2128 61.3553 70.2889 62.6811C71.9152 60.9834 69.9396 62.7975 70.8485 61.7271L72.3509 60.3337L71.1602 61.3703C72.302 60.1008 72.5424 59.5187 74.2851 58.0314L75.7386 56.1422C76.0879 56.1497 76.9968 54.9553 77.902 54.1403L77.4738 54.7863C78.6081 53.637 79.0813 53.2276 79.8663 52.5779C79.378 53.3741 78.7959 53.5769 78.6607 53.9938L79.9677 52.792C79.8663 52.7018 80.5912 51.8267 79.6259 52.6605C80.6137 51.3121 81.0945 50.5234 84.0353 47.6239C85.5264 46.4784 82.7658 49.1901 83.4832 48.8107C86.593 45.8511 86.7545 44.6643 88.5498 42.9141C90.8822 40.7282 90.6043 40.6981 92.8878 38.3958C92.2756 39.2409 94.6155 36.9235 95.1526 36.6155L94.3564 37.6371C95.0249 36.901 95.7423 36.2812 95.6183 36.5667C95.4005 36.5517 97.1169 34.7939 98.6268 33.2202C98.6343 33.2653 98.6493 33.3216 98.6643 33.3667C98.5892 33.4456 98.5254 33.5132 98.4465 33.5845C98.1685 34.1029 98.33 33.9864 98.7131 33.5921C98.8596 34.2568 99.0136 34.9254 99.1714 35.5977C99.3479 36.4427 99.3892 37.3254 99.5131 38.193C99.5582 38.6437 99.6221 39.0944 99.6746 39.5488C98.8296 40.0934 97.8869 40.5441 97.4587 41.1225L99.0399 40.6042ZM63.9828 90.7786C65.827 88.9194 67.6373 87.0753 69.4025 85.2612L69.4589 85.3627C79.3856 75.605 89.1019 65.8961 98.7958 56.2023C98.8033 56.4652 98.9385 56.1422 99.0624 55.9394C99.0925 55.9018 99.1376 55.8605 99.1789 55.8229C99.2164 55.8229 99.239 55.8793 99.2465 56.0783C98.7958 57.8774 98.7507 58.3168 98.1911 59.9055C98.5028 59.2482 98.5892 58.9553 98.6117 58.8389C98.6117 58.8689 98.6117 58.899 98.6343 58.929L99.1789 56.39C99.2465 56.2736 99.1864 56.5516 99.3178 56.3337C99.3554 56.1008 99.3892 55.8379 99.4192 55.5825C99.5056 55.4886 99.5995 55.406 99.6897 55.3121C99.6746 55.9018 99.592 56.5591 99.2164 57.5919C99.2164 57.4116 99.2803 57.1337 99.3967 56.5591C98.8746 58.3093 99.0699 58.467 98.5479 59.7365C97.8793 61.2802 98.1272 60.9309 97.9094 61.0773C97.6615 61.7496 97.3347 62.3956 96.993 63.0304C96.9066 63.1243 96.8164 63.2069 96.7225 63.3008C96.8765 62.9853 97.0155 62.6886 97.1808 62.3468C96.8765 62.7675 97.4587 60.6266 97.1019 61.7046C96.839 62.4182 96.5272 63.1093 96.2155 63.8041C90.6794 69.3364 85.1395 74.8688 79.5733 80.4124C78.8785 80.8744 78.1349 81.3476 77.2335 81.8923C78.0635 81.4941 76.0504 83.3082 74.5668 84.2171C73.6954 84.7054 73.4438 84.788 73.9058 84.3411L72.0992 85.727C69.5603 86.8425 67.3518 88.5401 63.9828 90.7786ZM72.8692 117.839C73.4776 117.877 74.0372 117.907 74.5743 117.93C74.4654 118.08 74.3152 118.241 74.0748 118.474C73.4776 118.932 74.0973 118.264 73.6541 118.613C72.441 119.676 71.2617 120.867 70.7095 121.603C71.0739 121.381 71.6823 121.171 71.2992 121.719C73.0494 119.853 73.6729 118.621 74.7922 117.978L74.8147 117.941C74.8673 117.941 74.9311 117.948 74.9837 117.948C75.04 117.948 75.0701 117.93 75.1264 117.922C75.025 118.008 74.9386 118.095 74.7809 118.226C74.1687 119.071 75.4832 118.11 74.3302 119.511C74.5668 119.248 74.9386 118.891 75.3029 118.561C74.7283 118.94 75.0325 118.452 75.4419 117.87C75.8325 117.798 76.1743 117.682 76.4147 117.55C76.8804 117.25 77.1396 116.916 77.3161 116.566C77.6729 116.134 78.041 115.654 78.3039 115.376L77.5339 116.003C77.5565 115.916 77.5827 115.838 77.6053 115.747C77.6504 115.406 77.6428 115.071 77.6353 114.763C77.8081 114.591 77.9771 114.437 78.1086 114.313C78.0184 114.343 77.8306 114.497 77.6353 114.685C77.6128 114.365 77.5903 114.072 77.5827 113.809C77.5565 113.547 77.5414 113.291 77.5189 113.043L77.4475 112.664C77.286 111.747 77.1058 110.872 77.3386 108.461C79.4795 106.339 81.6165 104.217 83.7236 102.117C85.962 102.133 88.1855 102.155 90.424 102.178C89.1733 103.579 87.8362 104.424 87.0024 105.209C86.2174 106.23 86.4353 106.523 84.1592 108.701L84.9592 107.548C82.4315 110.057 84.0428 108.991 81.6954 111.304C82.5405 110.516 81.0794 112.273 82.6419 110.726C81.9733 111.586 80.2945 113.299 78.9724 114.516C78.6682 114.872 78.9649 114.647 78.9649 114.763C80.4973 113.49 81.0644 112.431 82.394 111.462L83.179 110.298C84.5536 109.066 84.8428 109.088 84.1179 109.967C84.486 109.584 84.7714 109.239 85.0757 109.006C85.5977 109.073 83.4043 110.463 83.2015 111.165L84.1029 110.223C84.6963 110.012 82.1198 112.536 80.9179 113.708C79.487 114.962 78.2175 116.149 77.9846 116.112L79.7348 114.249C78.687 115.071 77.4964 116.615 76.4372 117.652C76.3546 117.708 76.2382 117.791 76.1029 117.9C76.1668 117.862 76.2119 117.847 76.2194 117.854C75.994 118.072 75.7762 118.256 75.5771 118.388C74.6494 119.304 73.3762 120.735 72.4748 121.55L72.7077 121.565L72.7527 121.381C73.6015 120.544 74.8222 119.473 74.2776 120.202C72.4598 122.185 71.8363 122.331 71.2767 122.681C71.5246 122.054 73.1358 120.829 74.0372 119.8C73.2673 120.194 72.0842 121.704 69.9922 123.548C70.5706 122.557 72.2795 121.28 72.5199 120.653C70.8973 122.2 70.6307 122.76 68.9143 124.371C69.0307 124.059 70.6457 122.433 70.4128 122.418L69.2861 123.424C71.9077 120.792 68.5725 123.627 70.5706 121.535C69.5189 122.418 69.3875 123.045 67.8776 124.292C68.3546 123.999 69.6128 123.06 68.3772 124.457L66.8298 125.881C66.1161 126.403 68.1668 124.115 67.1115 124.998L65.6241 126.617C65.7406 126.624 66.5105 125.915 66.1312 126.463C65.1659 127.3 64.8955 128.176 63.9227 129.321C63.0739 130.159 62.3903 130.808 62.0185 131.034C60.073 133.344 57.3688 136.025 55.581 138.147C56.7941 136.69 55.3143 137.993 54.4317 138.699C55.9378 137.141 55.7575 136.93 55.5247 136.915C54.6082 137.877 54.1951 138.684 54.7322 138.271C54.0411 138.898 53.7707 139.21 53.5679 139.451C51.1115 139.458 48.6627 139.458 46.1989 139.458C46.7585 138.898 47.4008 138.204 48.4599 137.205C51.3444 134.32 53.9397 131.406 56.0617 128.795C58.642 126.268 56.0467 129.299 56.5763 128.867C54.6946 130.579 55.3707 130.159 55.0589 130.624C55.9453 129.61 57.057 128.423 57.7106 128.089C59.0251 126.756 59.6373 126.17 60.8429 124.75C60.2382 125.464 59.5772 125.945 60.1293 125.246C61.2636 124.224 63.9753 121.404 64.0241 121.761C65.1885 120.581 66.3941 119.372 67.6147 118.155C69.4964 118.14 71.2767 118.08 72.8692 117.839ZM77.3724 102.14C77.3574 101.975 77.5677 102.054 77.6654 102.046L77.8457 102.054L78.6081 102.061L79.3067 102.069C78.6532 102.73 77.9921 103.379 77.3386 104.037L77.3499 102.504L77.3724 102.14ZM91.4343 102.185C90.5254 103.162 89.5451 104.183 88.6813 105.006C86.7695 106.996 87.3367 106.673 85.9771 108.315C85.0231 109.028 84.9743 108.795 85.1057 108.371C85.6916 107.92 86.5367 106.996 87.4381 106.185C88.7376 104.765 89.8343 103.466 90.9686 102.178C91.1226 102.178 91.2803 102.185 91.4343 102.185ZM100.584 102.256C89.8043 113.017 79.1302 123.766 68.2457 134.523C66.7359 136.172 67.8701 135.406 66.6044 136.848C66.0072 137.434 64.6777 138.775 64.5687 138.684C65.6542 137.483 64.9255 138.038 65.2748 137.614C64.7002 138.196 64.0617 138.816 63.4082 139.451C61.4439 139.451 59.4758 139.451 57.5077 139.451C59.1415 137.971 60.7566 136.574 61.9472 135.034L62.3453 134.872C65.1809 131.545 69.0833 128.36 71.1903 125.573C75.3593 122.223 73.2973 122.752 77.1058 119.676L76.9367 119.729C82.7996 113.963 88.854 108.059 94.7845 102.215C95.6784 102.223 96.5798 102.23 97.4662 102.241C98.5178 102.249 99.5507 102.249 100.584 102.256ZM104.948 102.279H105.421L104.107 102.718C104.107 102.681 104.279 102.497 104.49 102.279C104.644 102.279 104.798 102.279 104.948 102.279ZM66.8673 139.443C68.7828 137.584 67.6936 138.932 67.3518 139.443C67.1866 139.443 67.0326 139.443 66.8673 139.443ZM87.8813 126.027L87.8287 125.922C83.2428 130.437 78.7095 134.94 74.1762 139.443C71.9903 139.443 69.8081 139.443 67.6147 139.443C67.934 139.165 68.2307 138.917 68.456 138.808C69.7743 137.475 70.3828 136.878 71.5884 135.458C70.98 136.172 70.3265 136.652 70.871 135.961C72.0166 134.932 74.7208 132.112 74.7659 132.468C81.0269 126.162 88.1066 119.188 94.8334 112.461C95.8662 111.222 93.932 113.284 94.4841 112.585C95.9977 110.801 95.8587 111.353 97.0718 109.926L96.6362 110.579C98.6192 108.634 100.508 106.347 102.311 104.348C102.116 104.788 103.975 102.891 102.465 104.54C103.344 103.627 104.933 103.068 105.583 102.286H105.936C105.988 102.302 106.067 102.256 106.09 102.317L106.097 103.928C106.097 105.201 106.112 106.448 106.12 107.71C99.8174 113.963 93.6428 120.123 87.8813 126.027ZM101.222 124.442C101.815 123.984 102.661 123.06 103.554 122.249C104.471 121.239 105.29 120.296 106.082 119.372C106.082 119.511 106.082 119.65 106.082 119.8C105.646 120.247 105.211 120.69 104.798 121.077C102.893 123.06 103.453 122.737 102.093 124.386C101.147 125.092 101.091 124.859 101.222 124.442ZM100.219 126.294C100.82 126.084 98.2362 128.6 97.0418 129.779C95.6033 131.026 94.3413 132.221 94.1085 132.176L95.8587 130.313C94.8108 131.135 93.6127 132.679 92.5611 133.715C92.4709 133.772 92.3507 133.854 92.2193 133.971C92.2906 133.926 92.3282 133.911 92.3432 133.926C92.1104 134.136 91.9 134.32 91.701 134.459C90.7658 135.368 89.5001 136.799 88.5986 137.614L88.824 137.629L88.8766 137.445C89.7254 136.607 90.9461 135.545 90.3939 136.273C88.5836 138.256 87.9526 138.403 87.393 138.745C87.6409 138.117 89.2522 136.893 90.1611 135.864C89.4137 136.243 88.2644 137.682 86.3038 139.436C86.2813 139.436 86.2588 139.436 86.2325 139.436C86.8935 138.474 88.4109 137.302 88.6362 136.724C87.4005 137.899 86.9498 138.504 86.0484 139.436C85.9771 139.436 85.9095 139.436 85.8381 139.436C86.2588 138.955 86.6531 138.489 86.5367 138.482L85.4738 139.436C85.4663 139.436 85.4663 139.436 85.4663 139.436C87.9602 136.908 84.7038 139.676 86.6869 137.606C85.932 138.234 85.6428 138.745 84.9893 139.436C82.8222 139.436 80.6513 139.436 78.4842 139.443L79.4719 138.249C79.8813 138.196 81.1733 136.622 82.3865 135.492L81.763 136.333C83.3179 134.778 83.9489 134.204 84.9968 133.299C84.2682 134.328 83.5433 134.669 83.3104 135.188L85.0757 133.531C84.9743 133.438 85.9846 132.273 84.6963 133.438C86.101 131.668 86.8184 130.647 90.8221 126.688C92.7864 125.062 89.0343 128.773 89.9508 128.191C94.1573 124.138 94.5667 122.711 97.008 120.318C100.159 117.31 99.8249 117.336 102.942 114.204C102.063 115.304 105.256 112.142 105.943 111.687L104.824 113.036C105.32 112.499 105.819 112.01 106.153 111.725C106.176 113.896 106.206 116.033 106.251 118.14L106.09 118.11C106.09 118.249 106.09 118.395 106.09 118.542L105.763 118.846C105.827 118.7 104.753 119.575 105.834 118.452C104.955 119.248 104.471 120.247 106.09 118.553C106.09 118.598 106.09 118.651 106.09 118.707C104.978 119.83 103.851 120.581 103.126 121.272C102.334 122.294 102.559 122.594 100.283 124.765L101.076 123.612C98.5479 126.121 100.159 125.062 97.8193 127.376C98.6568 126.579 97.2033 128.345 98.7657 126.797C98.0897 127.657 96.4108 129.37 95.0888 130.579C94.792 130.932 95.0888 130.711 95.0888 130.835C96.6136 129.554 97.1808 128.502 98.5178 127.533L99.2953 126.361C100.67 125.13 100.959 125.152 100.234 126.027C100.602 125.655 100.895 125.31 101.2 125.077C101.714 125.145 99.5282 126.534 99.3253 127.229L100.219 126.294ZM54.1425 3.37251C54.1876 3.31617 54.2514 3.25608 54.2965 3.19974C55.6824 3.29364 54.9575 3.32368 54.1425 3.37251ZM110.893 141.914C110.833 142.125 110.717 142.35 110.668 142.358C110.608 142.358 110.706 142.207 110.717 141.411L110.807 137.907L110.739 138.876L110.66 140.333C110.645 139.901 110.63 139.289 110.608 139.116C110.582 138.891 110.559 138.684 110.537 138.474C110.499 138.072 110.458 137.693 110.413 137.302C110.349 136.506 110.319 135.623 110.443 134.226L110.022 131.315C110.364 131.019 110.086 129.19 110.165 127.695L110.383 128.634C110.371 126.639 110.428 125.873 110.552 124.626C110.856 125.749 110.48 126.433 110.769 126.914L110.871 124.728C110.676 124.735 110.522 123.342 110.405 124.912C110.037 122.884 109.744 121.776 109.774 116.69C110.108 114.399 110.063 119.165 110.398 118.211C110.537 112.927 109.526 111.755 109.571 108.671C109.643 106.703 109.594 105.779 109.534 104.844C109.504 104.379 109.47 103.905 109.432 103.308C109.425 102.978 109.41 102.621 109.402 102.2C109.38 101.689 109.417 101.085 109.338 100.457C109.432 100.822 109.47 100.799 109.485 100.495C109.432 100.194 109.519 99.6762 109.121 99.1954C108.291 98.5269 106.33 98.7147 105.827 98.5494C106.593 98.5044 107.513 98.3354 108.313 98.3954C107.412 98.2865 106.386 98.3804 105.8 98.3203C105.522 98.294 105.342 98.2565 105.32 98.2039C104.768 98.4443 99.9714 98.4368 97.4362 98.5682L97.9169 98.8311C95.7573 98.9137 92.7714 99.079 90.4878 99.0152C87.0888 99.1015 87.8587 99.3269 85.2409 99.6123C83.7949 99.3795 83.9489 99.1015 84.4297 98.8161C85.3386 98.9475 86.886 98.8687 88.3808 98.9475C92.6775 98.7222 96.0202 98.1701 100.313 98.3015C102.172 97.6668 97.4136 98.3729 95.3291 98.1551C95.393 98.1175 95.547 98.1025 95.7047 98.095C95.5169 98.095 95.3517 98.0875 95.1826 98.0799C96.7225 98.0011 99.2239 97.8997 99.6446 97.5842C97.0718 97.6443 97.7779 98.2114 94.5855 97.9372C92.2118 98.1175 90.285 97.6217 88.854 97.5767C87.2691 97.8058 87.2052 98.3203 83.3179 98.2189L85.0231 97.8621C80.6287 97.8621 82.9611 98.3804 78.8935 98.3654C80.3245 98.4105 77.5114 98.7147 80.2306 98.7222C79.8963 98.7673 79.4644 98.8086 78.9574 98.8386C78.4353 98.8687 77.9996 98.8837 77.0757 98.8912C76.2457 98.8837 75.3968 98.9137 74.7922 99.2029C74.4241 99.4283 74.4015 99.7926 74.3076 100.116C74.2213 100.457 74.1837 100.852 74.1837 101.239C74.2325 102.054 74.3001 101.434 74.4241 101.618C74.4654 100.822 74.5405 100.179 74.7058 99.6687C74.8522 99.3644 75.164 99.2856 75.3968 99.248C75.6522 99.1879 75.9189 99.1316 76.1968 99.1091C76.7715 99.079 77.395 99.064 77.9471 99.0715C78.4053 99.079 78.871 99.1091 79.3705 99.2029L81.0719 98.8236C83.3517 98.9626 83.5771 99.263 82.1837 99.4095C82.8222 99.3945 83.3893 99.3494 83.855 99.4095C84.2456 99.9842 81.1283 99.2105 80.332 99.6987L81.9433 99.6499C82.6494 100.033 78.1649 99.9842 76.1443 99.9541C75.8626 99.9616 75.4832 99.8227 75.3029 100.086C75.164 100.333 75.2241 100.611 75.1865 100.867C75.1414 101.411 75.1001 101.907 75.0701 102.347C74.9987 103.218 74.9236 103.774 74.7809 103.86L74.7208 102.241C74.7133 101.618 74.6569 100.946 74.7283 100.356C74.503 101.179 74.6119 102.673 74.6494 103.563C74.7058 104.589 74.7922 105.633 74.7809 106.549C74.7433 106.673 74.7208 106.842 74.6983 107.06C74.7208 106.966 74.7433 106.914 74.7734 106.914C74.7584 107.301 74.7283 107.642 74.6645 107.943C74.6494 109.509 74.8147 111.958 74.7283 113.314C74.8072 113.276 74.8898 113.235 74.9687 113.182L74.8297 112.994C74.8447 111.53 74.9912 109.539 75.1715 110.647C75.333 114.027 74.8898 114.523 74.6494 114.88C74.4954 114.422 74.4729 113.896 74.5105 113.235C74.5405 112.446 74.6044 111.316 74.5405 110.501C74.3565 111.004 74.349 111.849 74.3565 112.987C74.3565 113.366 74.3565 113.802 74.3565 114.283C74.3415 114.399 74.3715 114.523 74.3152 114.632C74.2551 114.748 74.1048 114.778 73.9734 114.756C73.718 114.737 73.4438 114.715 73.1584 114.692C73.3349 114.591 73.5377 114.538 73.7706 114.516C73.8795 114.523 74.0297 114.474 74.0598 114.335C74.0673 114.204 74.0598 114.08 74.0673 113.956C74.0748 113.43 74.0748 113.088 73.8983 112.57C73.887 112.825 73.887 113.058 73.8795 113.276C73.887 113.415 73.8983 113.547 73.8983 113.67C73.872 113.903 74.0297 114.189 73.8645 114.365C73.6729 114.452 73.4438 114.429 73.1734 114.452C73.0344 114.459 72.8842 114.459 72.7302 114.459C72.4523 114.452 72.1555 114.452 71.8213 114.437C72.6926 114.249 73.6616 114.234 73.4138 113.993L72.7302 113.885C73.4701 113.87 73.2447 113.746 73.072 113.614C72.8616 113.453 72.8391 113.389 72.8541 113.227C72.7753 113.242 72.7865 113.276 72.7377 113.359C72.6776 113.389 72.7678 113.423 72.5124 113.43C72.0842 113.445 71.5959 113.423 70.995 113.359C71.6635 113.539 73.579 113.855 71.2842 114.012L68.6889 113.896C67.6072 113.701 71.3931 113.468 69.7067 113.299L66.9913 113.438C67.0852 113.554 68.3847 113.614 67.5697 113.787C65.9997 113.655 64.9969 114.241 63.1453 114.422C61.6767 114.414 60.5087 114.384 59.9866 114.241C56.2871 114.598 51.5848 114.591 48.1707 114.925C50.4956 114.685 48.0768 114.516 46.6872 114.335C49.3688 114.283 49.3839 113.911 49.1961 113.67C47.566 113.708 46.4994 114.095 47.3256 114.219C46.6383 114.181 46.1801 114.181 45.8383 114.196C45.474 114.204 45.5266 114.234 45.3801 114.26C45.1773 114.313 44.9219 114.35 44.4862 114.226C44.2083 114.166 44.4336 114.072 44.644 113.978C44.8693 113.877 45.0609 113.787 45.0534 113.716C44.7041 113.708 44.4862 113.824 44.2383 113.926C44.1144 113.978 43.9829 114.035 43.8102 114.065C43.5473 114.08 43.7463 113.855 43.9341 113.607C43.9754 113.637 43.9491 113.708 44.1144 113.592C44.2383 113.46 44.3172 113.329 44.3923 113.22C44.5951 112.901 44.7116 112.547 44.6966 112.36C46.0562 111.447 48.0543 108.656 48.1332 109.276C50.9313 106.301 47.5097 109.517 47.9604 108.833C48.982 107.477 51.4045 105.486 52.182 104.897C51.4383 105.595 50.8223 106.301 50.0749 106.929L50.9237 106.572C54.8749 103.331 52.828 103.826 56.8092 100.837C54.9575 102.613 56.3209 101.58 55.4946 102.572C56.0242 102.001 59.0927 99.6199 57.1134 100.908C58.5744 99.7513 59.6223 98.9926 60.6739 98.2565C61.9021 97.141 63.2842 95.9804 63.9378 95.2405C66.0598 93.7081 67.795 92.8105 68.8992 92.2283C73.3199 88.9983 77.9546 86.5795 82.5893 82.9063L82.2287 83.1467C85.962 80.48 80.332 83.9993 84.1743 81.1861C83.9264 81.9148 86.608 79.65 87.9526 78.8312C92.6024 75.143 95.3066 71.5712 98.3864 66.9365C98.439 67.0191 98.33 67.3834 97.7779 68.3149C100.159 64.743 101.447 61.4191 102.349 57.6971V57.8699C102.871 56.4051 103.059 54.9102 103.359 53.453C103.539 51.9882 103.671 50.5234 103.742 49.0661C103.735 47.6014 103.787 46.1441 103.712 44.6493C103.603 43.1544 103.487 41.6258 103.367 40.0559C103.446 40.5592 103.603 40.6831 103.678 41.0775C103.686 39.4737 103.276 37.4193 102.995 35.4812C102.537 33.5695 101.954 31.8005 101.504 30.7789C101.038 28.9273 100.764 28.3451 100.46 27.639C100.313 27.2935 100.152 26.9029 99.9338 26.317C99.6596 25.7498 99.3103 24.9837 98.8371 23.8419C98.7657 23.5564 99.115 24.2475 99.2803 24.533C98.3601 22.2719 97.3272 20.8672 96.0052 18.7903C95.1751 17.7123 94.3488 16.9612 93.6728 16.24C92.9967 15.5302 92.3695 14.933 91.6522 14.3734C90.9611 13.8025 90.27 13.2053 89.47 12.4692C88.6287 11.7856 87.6559 11.0044 86.4503 10.0279C86.5217 9.40065 89.5601 12.2739 89.9132 12.0898C88.9066 11.3199 87.9602 10.779 86.6944 9.58468C87.6409 10.0654 86.9498 9.61473 87.6409 9.91144C87.1677 9.43069 86.0259 8.69454 84.9367 8.23633C84.3996 7.98845 83.9001 7.76309 83.5433 7.59408C83.179 7.43258 82.9536 7.33117 82.9686 7.32366C82.8522 7.37624 83.2015 7.67295 84.2531 8.32272C82.8898 7.76309 79.0025 5.16781 76.1105 4.27016C76.5649 4.46171 77.4964 4.83354 78.1424 5.20912C78.7771 5.60348 79.1602 5.89644 78.6006 5.75747C74.9912 4.02227 73.5452 4.04481 70.8485 3.50396C67.4269 2.22322 73.5527 3.82697 73.0269 3.2711C72.4823 2.95937 71.1452 2.23824 72.6851 2.54247C69.5114 1.42698 67.0626 1.29553 64.1406 0.844825L64.242 0.743417C60.1218 0.210087 55.7049 0.409147 52.2759 0.364076L54.1049 0.442949C53.4364 0.540602 51.3669 0.510554 50.2477 0.837313C50.3641 0.642008 47.6824 0.698346 48.7641 0.465484C47.8702 0.788487 45.5754 1.17158 43.2656 1.61853C42.1238 1.88144 40.9632 2.13684 39.9942 2.41101C39.0215 2.71899 38.2215 3.00819 37.7708 3.2711C36.6816 3.39505 37.459 2.95186 37.7482 2.74153C40.2571 2.12933 41.1435 2.12181 42.4355 1.63355C40.321 2.01289 38.7586 2.26453 39.044 2.06923C37.0083 2.85045 32.1896 4.5556 31.3408 5.34057C29.8084 5.6786 28.4112 6.2232 28.7981 5.72743C22.8826 8.56309 32.0882 5.20912 25.4103 8.30769C22.2854 9.56215 28.1596 6.47108 23.9793 8.47671L24.723 8.04478C23.0366 8.44666 22.5859 8.87858 22.1427 9.40816C21.7145 9.949 21.2413 10.5236 19.6488 11.5227C18.9878 11.4288 21.7145 9.8551 19.3446 11.0044C17.9136 11.9959 16.9596 12.8072 16.0582 13.6936C15.138 14.5462 14.1991 15.3499 12.8395 16.4053L13.1474 15.9246C11.4085 17.2954 8.1484 20.1086 6.64982 21.7198C6.51837 21.7348 6.75874 21.517 7.03667 21.209C4.02073 23.9658 6.00382 22.5724 3.50242 24.8034L3.01041 25.6409C4.23857 24.4879 6.57095 22.2719 7.94935 20.6494C7.28081 21.4795 7.96437 20.9912 8.74183 20.4278C9.55685 19.8907 10.4733 19.286 10.2029 19.7668L10.4207 19.3874C11.9606 18.2494 13.6845 17.0476 15.5136 15.8156C14.7587 16.7396 15.4122 16.349 14.1052 17.7987C13.3653 18.5198 11.7202 20.1874 11.6113 20.0935C12.9784 18.6213 12.092 19.3349 12.5352 18.8128C10.1878 21.1715 7.02916 24.0898 5.04983 26.2982L6.93902 24.6794C6.21414 25.502 4.99349 26.655 4.23106 27.3987L6.13527 29.4005C9.06108 26.3921 11.7503 23.4325 14.0188 20.7433C17.2075 17.6147 13.9437 21.3179 14.5859 20.7658C12.2798 22.9067 13.0798 22.3471 12.6742 22.9142C13.7934 21.6748 15.1794 20.21 15.9493 19.7668C17.5793 18.118 18.3343 17.3893 19.8441 15.6616C19.0817 16.5292 18.2967 17.1414 18.9878 16.3039C20.385 15.0156 23.7464 11.5452 23.7615 11.9396C24.4375 11.2523 25.1511 10.5387 25.861 9.84008C26.2028 9.67858 26.537 9.50956 26.8863 9.35933C30.3905 7.26732 33.3238 6.66263 37.2788 5.34809C36.4562 6.48611 35.8027 7.39127 33.1436 10.0128C31.6525 11.1584 34.4206 8.43915 33.6957 8.81849C30.5858 11.7781 30.4243 12.9649 28.629 14.7152C26.2967 16.9011 26.5821 16.9311 24.2985 19.2335C24.9032 18.3884 22.5633 20.7057 22.0338 21.0137L22.8187 19.9921C22.1577 20.7283 21.4441 21.348 21.5605 21.0626C21.8497 21.0851 18.7324 24.1761 17.2225 25.8287L17.6357 25.686C16.4376 26.9667 14.8038 28.7545 13.4592 30.0278C11.555 32.0184 12.1146 31.6916 10.755 33.3367C10.5221 33.5132 10.3493 33.6221 10.2104 33.6935L11.555 35.1019C19.9192 26.9217 28.3248 18.6813 35.7802 10.9631L35.8403 11.072C38.1914 8.76591 40.505 6.47108 42.8224 4.16875C43.1642 4.14622 43.5548 4.10866 43.8966 4.05983C44.644 3.81194 45.5754 3.65044 46.5069 3.47016C46.8674 3.46265 48.0543 3.46265 49.4064 3.44763C47.4947 5.38564 45.6055 7.30113 43.7876 9.17529L43.7313 9.07389C33.8046 18.8053 24.1333 28.4916 14.462 38.1704L16.6329 40.4502C17.6282 39.4587 18.631 38.4671 19.6188 37.4831C20.6441 36.2437 18.7061 38.3019 19.2582 37.6071C20.7756 35.823 20.6366 36.3751 21.8497 34.9479L21.4141 35.5977C23.4047 33.6597 25.2826 31.3686 27.0891 29.3667C26.9014 29.8099 28.7605 27.9132 27.2506 29.562C28.1596 28.6156 29.8572 28.0522 30.4619 27.2221L28.8844 27.7404C28.8844 27.6315 30.2215 26.3621 30.0563 26.4635C30.9764 25.7498 32.0957 24.8822 32.6628 24.3151C33.0647 24.1761 31.6187 25.5545 30.8412 26.332C30.9502 26.6625 33.6018 23.8682 32.6778 25.1902C34.3116 23.4963 32.3285 25.3067 33.245 24.24L34.736 22.8428L33.5492 23.8832C34.691 22.61 34.9314 22.0316 36.6741 20.5442L38.1351 18.6588C38.4769 18.6588 39.3858 17.4644 40.2872 16.6532L39.8628 17.3029C41.0046 16.1574 41.4778 15.7368 42.2553 15.087C41.767 15.887 41.1811 16.0861 41.0496 16.5067L42.3642 15.3048C42.2553 15.2109 42.9801 14.3358 42.0149 15.1734C43.0027 13.825 43.4834 13.0325 46.4318 10.1368C47.9228 8.9875 45.1548 11.6992 45.8721 11.3199C48.9895 8.36779 49.1435 7.17718 50.9388 5.43071C52.028 4.40912 52.5575 3.8495 53.0383 3.31617C53.3087 3.29364 53.5528 3.2711 53.7782 3.2373C53.7444 3.29364 53.7143 3.34622 53.6768 3.40256C53.4101 3.42509 53.1773 3.44763 53.0683 3.47767C53.2486 3.5265 53.4289 3.51899 53.6054 3.5265C53.35 3.91335 52.9519 4.40912 51.7538 5.5171C53.3012 4.2326 50.9012 6.57249 50.4806 7.0908C51.6148 6.06921 52.9068 4.24011 53.7219 3.83448C53.8458 3.70302 53.9096 3.62791 54.0111 3.51899C54.6646 3.46265 55.2843 3.30115 55.8289 3.45514C55.8289 3.45514 55.7913 3.51148 55.5322 3.5265C57.5378 3.56406 59.104 3.68049 60.719 3.89833C60.4298 4.18377 60.1819 4.43917 60.2608 4.3941C59.3444 5.1002 58.2176 5.97531 57.658 6.53869C57.2523 6.68141 58.6908 5.29175 59.4683 4.52556C59.3669 4.18377 56.7153 6.98939 57.6317 5.66358C56.0092 7.35371 57.981 5.53963 57.0721 6.61756L55.581 8.01098L56.7716 6.97437C55.6261 8.24384 55.3782 8.826 53.643 10.3133L52.182 12.195C51.8402 12.1875 50.9313 13.3818 50.0299 14.2044L50.458 13.5546C49.3162 14.7001 48.8393 15.1095 48.0618 15.7631C48.5538 14.9631 49.136 14.7678 49.2674 14.3433L47.9529 15.5452C48.0618 15.6391 47.3407 16.5142 48.3022 15.6767C47.3181 17.025 46.8336 17.8137 43.889 20.7208C42.3942 21.8663 45.1623 19.1471 44.4487 19.5264C41.3313 22.486 41.1736 23.6729 39.3708 25.4231C37.0384 27.6165 37.3276 27.639 35.0403 29.9414C35.6562 29.0963 33.3088 31.4212 32.7793 31.7329L33.5642 30.7076C32.9032 31.4362 32.1896 32.0634 32.306 31.7705C32.5915 31.8005 29.4741 34.8841 27.968 36.5366L28.3774 36.3977C27.183 37.6747 25.5568 39.4662 24.2047 40.7432C22.3004 42.7263 22.8601 42.4033 21.4967 44.0521C21.3803 44.1385 21.3127 44.176 21.2188 44.2399L20.9145 43.8605C21.4817 43.3648 22.199 42.6098 22.969 41.915C25.3164 39.3423 26.9577 37.1488 29.4816 34.7526C30.229 33.3667 27.8591 36.4503 26.5521 37.5282C26.5671 37.4756 26.646 37.3817 26.7286 37.2878C26.6234 37.3967 26.5295 37.4831 26.4206 37.5733C27.2657 36.6606 28.6516 35.1733 28.7267 34.7714C27.2807 36.2737 27.983 36.1573 26.0075 37.8474C24.7417 39.2934 23.3709 40.146 22.5333 40.9385C21.8798 41.7911 21.8948 42.1629 20.6291 43.4887L20.4713 43.2934L20.4789 43.2784C20.4789 43.2859 20.4713 43.2859 20.4713 43.2934L20.1446 42.884C17.9925 40.8746 17.7371 40.916 17.0498 40.5667C18.2704 41.6446 19.1267 42.5272 20.1596 43.6127C20.107 43.6652 20.0432 43.7291 19.9981 43.7817C18.6385 42.3958 18.3981 42.9291 16.6178 40.9761C17.5643 42.0991 17.23 42.0314 16.5315 41.4793C17.6131 42.6812 19.8666 45.1901 19.6188 44.6117L19.2507 44.1535C19.4535 44.161 20.0995 44.7657 20.4488 45.0361C21.9737 46.6399 20.9859 45.9525 21.2112 46.3394C22.4094 47.6577 22.7173 47.7967 22.7962 47.6652C22.9051 47.5563 22.9915 47.515 24.2497 48.7244C24.3436 48.8633 24.46 49.0061 24.6328 49.0361C24.9032 49.0361 25.0572 48.7582 25.2525 48.5704C25.4403 48.3676 25.6431 48.161 25.8347 47.9507C26.8225 46.7788 27.6488 45.8211 27.7239 45.408C28.9858 44.5892 30.3154 42.5948 31.675 41.6746C32.3436 41.9751 27.5173 45.5394 26.4882 47.3234C27.4985 46.4145 26.8488 47.3084 26.015 48.3826C25.7107 48.7093 25.4253 49.0136 25.245 49.2051L26.0525 48.4765L29.3126 44.7019C29.6919 44.4465 31.1079 43.5939 31.66 42.7188L31.3257 43.0005C32.8882 41.4718 32.2422 41.6258 33.767 40.4878C34.0299 40.3563 33.6581 40.8221 33.5792 40.9535C34.9727 39.8981 34.6121 39.9244 35.491 39.1545C36.9595 38.2193 34.9652 39.8906 36.2008 39.1394C37.6769 37.746 38.905 37.4981 40.4149 36.7132C40.0017 36.7057 41.4703 35.7855 42.7285 35.2672C43.6712 34.8315 44.4487 34.5536 43.9266 34.5686C44.0055 34.4822 44.0731 34.3883 44.1444 34.2982C44.4487 34.2043 44.7604 34.1104 45.0684 34.009C45.7707 33.855 46.4768 33.6784 47.1904 33.562C48.52 33.6221 44.3473 34.531 45.5904 34.7451C44.5088 34.9479 43.4383 35.2033 42.4017 35.5827C42.7435 35.7366 44.3247 35.0568 46.2289 34.7301C48.1106 34.3582 50.3003 34.3582 51.382 34.7451C52.2608 34.809 52.5876 34.8465 53.1172 34.9254C53.628 35.008 54.3603 35.1244 55.9153 35.654L55.4796 35.0568C57.1509 35.5601 57.5303 36.0709 57.5866 36.1573C58.5181 36.4653 59.288 36.8784 60.0354 37.3667C59.7951 37.3028 59.4833 37.1939 58.9688 36.9235C59.9115 37.746 60.2044 37.8625 60.6251 38.0164C61.2335 38.2944 61.9396 39.008 62.5218 39.808L61.8382 39.2183C62.2364 39.6653 62.7472 40.2099 62.826 40.2399C63.0213 40.6042 63.2617 40.916 63.4307 41.254C63.4307 41.1075 63.3932 40.8671 63.2767 40.4878C63.1753 40.0934 62.9725 39.5826 62.5218 38.9704C63.7049 40.5178 64.3096 42.1854 64.6063 43.8267C64.903 45.4793 64.8016 47.1694 64.3885 48.6943C64.2645 48.5403 64.2345 47.2295 64.1706 47.6239C64.118 48.0032 64.0767 48.4014 64.0542 48.7732C64.0091 49.145 63.8927 49.483 63.8439 49.7873C63.7349 50.3844 63.7199 50.8089 63.8363 50.7788C63.7425 51.1356 63.5659 51.376 63.4645 51.6089C63.2054 51.8342 62.9199 52.1121 62.5443 52.7844C62.4054 52.9084 62.195 53.1337 61.8533 53.5844C61.9171 54.2905 59.6298 56.6379 59.1941 57.2201C59.8176 56.7318 60.3922 55.9769 61.0458 55.2746C60.3397 56.4652 59.6786 57.5919 58.7209 58.1628C60.4298 56.2173 56.4599 59.759 59.2016 57.0248C56.888 58.5271 58.4505 58.2868 56.1031 60.022C55.581 60.3788 55.0589 60.7281 54.5068 61.0548C54.6007 60.6905 56.7791 59.0379 56.381 59.2332L55.4007 60.0933C56.2946 59.1468 60.1293 56.0332 61.4664 53.483C60.3622 55.0117 58.9087 56.36 57.4401 57.6595C52.0655 62.9215 43.4609 67.7177 38.4318 72.1045L38.6572 71.9317C38.5783 72.0181 38.5633 72.097 38.5482 72.236L38.2665 72.3524L37.3201 73.2989C35.9567 73.9561 33.6731 75.605 31.6976 76.9796C32.9483 76.1345 32.9821 76.1721 33.2149 76.2247C33.1511 76.6303 33.0271 76.8369 31.2769 78.204C31.1379 78.0613 32.1896 77.1862 30.8337 78.1251C31.5436 77.6519 31.0516 78.2416 30.3304 78.8838C29.2863 79.5824 27.6638 80.8369 27.5248 80.7054C27.9342 80.311 28.3323 80.0707 28.6591 79.8528C29.0722 79.451 26.7286 81.1711 27.9605 79.9843L26.2478 81.4491C25.1211 82.1627 26.7624 80.6904 26.2891 80.9458C23.4723 83.4547 22.2854 85.0509 19.8967 87.4922C19.9418 87.3082 19.6713 86.9664 19.7277 87.0828C17.7108 88.818 16.0394 91.4133 14.1352 93.7081C14.3155 93.2837 15.093 92.4762 15.6601 91.7626C12.5127 95.1091 9.96999 98.4255 7.58878 101.734C5.1888 105.077 3.01041 108.292 0.524036 111.943C0.249859 112.484 0.140939 113.096 0.197277 113.67C0.234835 114.001 0.276149 114.204 0.313708 114.365L0.422628 114.917L0.125916 117.133C-0.0205615 121.588 -0.0205617 125.524 0.0320197 129.407C0.0733343 131.353 0.103381 133.284 0.140939 135.252C0.16723 136.243 0.182254 137.235 0.204789 138.249C0.212301 138.853 0.227324 139.466 0.234835 140.085C0.227324 140.893 0.242347 141.745 0.516524 142.316C0.602909 142.673 0.989761 143.007 1.21511 143.06C1.463 143.169 1.68835 143.24 1.87614 143.3C2.24046 143.394 2.4583 143.447 2.6536 143.496C2.98036 143.597 3.01041 143.714 4.07707 143.774C10.1165 143.822 11.3672 143.323 16.9596 143.225C16.1972 143.357 14.8977 143.744 17.2864 143.759C17.7296 143.635 18.015 143.432 19.5249 143.511L18.7549 143.642C20.1296 143.845 21.4591 143.657 24.3136 143.744C29.3427 143.736 34.1464 143.417 38.2891 142.929C42.736 142.97 37.8234 143.402 38.6722 143.503C35.5323 143.342 36.4863 143.582 35.8102 143.736C37.4665 143.612 39.4797 143.533 40.336 143.852C42.6459 143.83 43.6937 143.845 45.9811 143.627C44.828 143.736 43.8402 143.563 44.9219 143.424C46.8111 143.533 51.6298 143.409 51.3669 143.804C62.3303 143.804 74.5893 143.796 86.3264 143.796C88.3094 143.59 84.8278 143.721 85.917 143.575C88.7902 143.308 88.1855 143.714 90.4954 143.496L89.5376 143.714C92.9667 143.751 96.6061 143.349 99.9338 143.146C99.3742 143.394 102.653 143.349 99.9 143.496C101.519 143.458 103.494 144.559 104.745 144.333L102.916 143.308C103.01 143.21 105.282 143.27 105.057 143.199C105.459 143.248 105.654 143.3 106.345 143.357C106.931 143.394 107.581 143.488 108.159 143.458C108.734 143.379 109.128 143.308 109.511 143.03C109.898 142.696 109.962 142.395 110.086 142.053C110.187 141.929 110.217 142.053 110.157 142.316C110.078 142.564 110.007 142.951 109.534 143.323C109.151 143.582 108.625 143.811 107.892 143.845C107.171 143.845 106.461 143.837 105.872 143.837C105.785 143.946 106.244 144.014 106.961 144.07C107.675 144.138 108.726 144.194 109.301 143.867C109.876 143.68 110.39 143.052 110.473 142.929C110.597 142.76 110.717 142.891 110.296 143.541C110.987 142.729 110.995 142.038 111.01 141.806C111.002 141.558 110.972 141.712 110.893 141.914Z" fill="#719C00"/>
</svg>
