<svg width="102" height="144" viewBox="0 0 102 144" fill="none" xmlns="http://www.w3.org/2000/svg">
<path d="M66.9517 135.987C66.1517 136.257 65.333 136.479 64.5067 136.682C65.1827 135.912 66.1367 134.928 68.1498 133.17L67.9132 133.294C77.6747 123.645 87.7817 113.722 97.6295 103.968C97.4943 105.317 97.1375 106.8 96.8257 108.197L96.7356 106.676C96.2736 108.092 96.7206 107.458 96.7056 107.859C96.2736 110.165 95.7779 110.56 95.2257 111.664C95.1844 111.946 95.1018 112.209 95.0117 112.475C94.6323 112.862 94.238 113.26 93.8661 113.64L93.8098 113.542C86.9854 120.231 80.3 126.89 73.6409 133.549C73.3367 133.647 73.0099 133.745 72.6306 133.846L72.8296 133.884C71.8719 134.259 70.9066 134.646 69.9339 135.033C68.9611 135.397 67.9545 135.66 66.9517 135.987ZM51.8457 138.695C54.4898 136.07 57.1452 133.437 59.7518 130.826C60.7621 129.613 58.8691 131.626 59.41 130.947C60.8898 129.208 60.7546 129.745 61.9377 128.351L61.5133 128.994C63.4513 127.093 65.2954 124.855 67.0494 122.902C66.8653 123.333 68.6832 121.478 67.2071 123.093C68.1048 122.169 69.7611 121.617 70.3433 120.806L68.8109 121.313C68.8109 121.215 70.1179 119.972 69.9564 120.066C70.854 119.375 71.947 118.522 72.4954 117.97C72.8972 117.831 71.485 119.187 70.7264 119.934C70.824 120.261 73.4118 117.531 72.5179 118.823C74.1029 117.166 72.1761 118.943 73.0625 117.891L74.531 116.532L73.3592 117.546C74.4747 116.303 74.7188 115.735 76.4127 114.282L77.8399 112.445C78.1817 112.445 79.0643 111.285 79.9432 110.485L79.5338 111.119C80.6418 110 81.1075 109.598 81.8737 108.964C81.3854 109.734 80.8258 109.933 80.6944 110.35L81.9714 109.166C81.8737 109.076 82.5798 108.22 81.6371 109.046C82.5948 107.728 83.0643 106.958 85.945 104.119C87.4023 102.999 84.7056 105.647 85.4042 105.279C88.4427 102.395 88.6004 101.238 90.3544 99.5252C92.6342 97.3843 92.36 97.3618 94.5948 95.1158C93.9863 95.9383 96.2811 93.6698 96.7957 93.3656L96.0295 94.3646C96.4764 93.8726 96.9234 93.4595 97.1375 93.3205C97.2276 93.7674 97.3065 94.1393 97.3816 94.4961C97.5168 95.1534 97.7309 95.7655 97.7685 96.8623C97.8811 95.9158 97.4267 94.6688 97.3891 93.497L97.5619 94.0041C97.4943 93.7224 97.4041 93.4482 97.314 93.1778C97.4041 93.0426 97.5994 92.8059 97.8661 92.513C98.1628 93.7749 97.9187 93.3205 97.9187 93.5045L98.283 95.0031C98.4971 96.8322 97.9901 95.6153 97.7459 94.9693C98.0351 95.7881 98.0652 96.682 98.0877 97.5984C98.1253 98.3008 98.0652 99.0181 97.9901 99.7467C97.9487 99.7918 97.9112 99.8294 97.8661 99.8745L97.8436 99.6416L97.821 99.9195C96.3037 101.508 94.2004 103.627 92.8633 105.042L93.4154 104.75C91.5488 106.699 88.9798 109.418 86.9216 111.409C83.9469 114.458 84.7507 113.891 82.5648 116.34C81.1676 117.508 81.1676 117.226 81.4493 116.659C82.3207 115.916 83.6577 114.518 85.0173 113.238C88.7244 109.328 91.4098 106.094 95.2783 102.372C96.6154 100.412 92.7469 104.96 90.7901 106.691C90.8277 106.616 90.9478 106.481 91.0943 106.338C90.9253 106.504 90.7826 106.646 90.6211 106.793C91.9431 105.392 94.114 103.127 94.3281 102.597C92.0708 104.907 92.991 104.558 90.0126 107.255C88.0033 109.433 86.0427 110.894 84.7507 112.134C83.4662 113.647 83.6652 113.959 80.1723 117.339L81.5019 115.66C77.5958 119.544 79.9282 117.741 76.3151 121.328C77.6033 120.088 75.2672 122.729 77.6822 120.329C76.5892 121.602 73.9752 124.242 71.9695 126.143C71.485 126.68 71.9245 126.308 71.8869 126.458C74.1817 124.415 75.1996 122.924 77.1564 121.328L78.4709 119.634C80.5592 117.688 80.916 117.643 79.7629 118.943C80.3225 118.368 80.7883 117.846 81.2427 117.471C81.8737 117.407 78.715 119.777 78.2568 120.716L79.6615 119.277C80.469 118.845 76.4953 122.759 74.6512 124.573C72.4878 126.556 70.5498 128.419 70.2757 128.426L73.0024 125.587C71.455 126.92 69.5095 129.208 67.8757 130.819C67.7555 130.902 67.579 131.044 67.3837 131.225C67.4813 131.149 67.5339 131.119 67.5489 131.127C67.1996 131.469 66.8804 131.758 66.5799 131.991C65.1489 133.399 63.1395 135.57 61.7724 136.839L62.0579 136.802L62.1668 136.554C63.4813 135.258 65.3179 133.572 64.4278 134.646C63.1395 136.002 62.2795 136.802 61.6334 137.347C61.3781 137.403 61.1189 137.463 60.8597 137.523C61.825 136.547 63.2522 135.266 64.24 134.199C63.5039 134.684 62.3471 135.912 60.6945 137.553C60.5705 137.576 60.4579 137.591 60.3452 137.613C61.1339 136.832 61.8475 136.122 62.0842 135.705C61.2842 136.486 60.6945 137.091 60.1612 137.643C59.7443 137.711 59.3349 137.778 58.9142 137.839C59.0457 137.703 59.1959 137.553 59.3724 137.373C59.1809 137.546 59.0306 137.696 58.8691 137.846C56.5405 138.225 54.2006 138.53 51.8457 138.695ZM41.4646 138.567C45.7462 134.304 50.1894 129.902 54.5049 125.594C55.5077 124.385 53.6222 126.398 54.1556 125.718C55.6354 123.976 55.5077 124.513 56.6908 123.123L56.2663 123.758C58.2006 121.865 60.0485 119.626 61.8025 117.673C61.6184 118.105 63.4325 116.25 61.9602 117.861C62.8503 116.937 64.5142 116.385 65.0963 115.578L63.564 116.085C63.564 115.987 64.871 114.744 64.702 114.834C65.5996 114.139 66.7001 113.29 67.2484 112.738C67.6503 112.603 66.2381 113.951 65.4757 114.706C65.5771 115.033 68.1649 112.299 67.271 113.595C68.8559 111.938 66.9292 113.707 67.8156 112.663L69.2804 111.3L68.1123 112.314C69.2278 111.074 69.4719 110.507 71.1658 109.054L72.593 107.213C72.9348 107.213 73.8174 106.049 74.6963 105.257L74.2869 105.891C75.3949 104.772 75.8568 104.363 76.6193 103.728C76.1385 104.505 75.5714 104.704 75.4399 105.118L76.7244 103.938C76.6193 103.848 77.3329 102.992 76.3902 103.811C77.3479 102.492 77.8249 101.722 80.6944 98.8904C82.1554 97.7712 79.4512 100.419 80.1573 100.047C83.1958 97.1665 83.3535 95.9984 85.1075 94.297C87.3873 92.1562 87.1056 92.1336 89.3441 89.8876C88.7469 90.7027 91.0305 88.4417 91.5563 88.1374L90.7826 89.1365C91.4361 88.4266 92.1347 87.8107 92.0107 88.0999C91.8079 88.0773 93.3027 86.5412 94.7074 85.0727C94.73 85.1102 94.745 85.1478 94.7675 85.1853C94.5572 85.5947 94.6248 85.5872 94.8577 85.3619C95.1093 85.8614 95.3459 86.3985 95.5675 87.0332L95.1919 86.8154C95.7553 88.6595 96.1647 88.4642 96.6229 89.8388C92.0258 94.3796 87.5375 98.8679 83.3685 103.183L83.3084 103.082C71.1132 115.048 59.286 126.935 47.38 138.83C45.3894 138.86 43.4251 138.77 41.4646 138.567ZM32.9801 137.061C34.9557 135.213 34.0806 135.146 37.1866 132.64L37.0214 132.693C44.4317 125.392 52.2025 117.861 59.5752 110.537C60.1461 110.18 60.8072 109.666 61.6334 108.821C61.7011 108.659 61.8776 108.381 62.0766 108.047C64.9085 105.219 67.6653 102.425 70.2907 99.7017L70.3545 99.8068C77.4005 92.8961 84.3037 86.0191 91.1845 79.1384C91.8906 80.13 92.6492 81.2379 93.3854 82.6201C88.0859 87.852 82.8991 93.0125 78.1216 97.9515L78.0615 97.8538C64.3377 111.3 51.0945 124.667 37.6749 138.045C36.0862 137.771 34.5162 137.455 32.9801 137.061ZM25.0215 134.481L25.4233 134.169L24.9989 134.473C24.8862 134.436 24.7811 134.398 24.6722 134.353C25.2205 133.801 25.9191 133.027 26.6027 132.4L25.9867 133.223C27.5116 131.701 28.1275 131.142 29.1454 130.252C28.4393 131.258 27.7332 131.589 27.5041 132.103L29.228 130.485C29.1228 130.394 30.1106 129.26 28.8562 130.394C30.2233 128.667 30.9219 127.671 34.8355 123.803C36.7622 122.214 33.089 125.839 33.9829 125.271C38.0993 121.313 38.4937 119.912 40.8786 117.583C42.9894 115.57 43.5228 114.928 44.6157 113.752C44.7735 113.76 44.9425 113.775 45.1077 113.782C44.1988 114.905 44.5331 114.973 41.7988 117.546C43.8195 115.78 40.627 118.905 40.0448 119.581C41.5397 118.203 43.3462 115.863 44.3716 115.251C45.0476 114.541 45.4495 114.094 45.6936 113.805C47.6241 113.891 49.5434 113.797 51.087 113.414C50.3021 113.474 49.5284 113.422 48.7547 113.429C49.288 113.32 49.9678 113.253 50.6363 113.185C51.3124 113.088 51.9734 112.982 52.4542 112.915C52.3678 112.96 52.3828 112.99 52.4316 113.02C51.6467 113.959 51.9133 114.079 50.2495 115.495C49.0138 116.907 47.6842 117.733 46.8542 118.515C46.088 119.514 46.3096 119.807 44.0749 121.925L44.8598 120.798C42.3847 123.251 43.9547 122.207 41.6674 124.475C42.4899 123.698 41.0702 125.422 42.5951 123.908C41.9415 124.749 40.3002 126.421 39.012 127.6C38.7153 127.949 39.0045 127.732 39.0045 127.852C40.4993 126.601 41.0552 125.564 42.3509 124.629L43.1134 123.484C44.4655 122.282 44.7434 122.304 44.0373 123.161C44.3866 122.796 44.6758 122.455 44.9725 122.222C45.4796 122.297 43.3387 123.653 43.1434 124.333L44.0223 123.416C44.6007 123.213 42.088 125.673 40.9087 126.815C39.504 128.04 38.2758 129.208 38.0542 129.159L39.7556 127.345C38.7303 128.145 37.5697 129.651 36.5369 130.665C36.443 130.717 36.3378 130.804 36.2101 130.917C36.2702 130.871 36.3153 130.856 36.3228 130.871C36.1012 131.074 35.8909 131.258 35.6918 131.386C34.7904 132.28 33.5435 133.677 32.6608 134.473L32.89 134.488L32.935 134.304C33.7651 133.489 34.9557 132.453 34.4223 133.163C32.6458 135.101 32.0411 135.236 31.4928 135.578C31.7369 134.965 33.3069 133.767 34.1895 132.761C33.4533 133.14 32.3116 134.578 30.3397 136.325C30.3322 136.325 30.3247 136.317 30.3172 136.317C30.9219 135.375 32.4731 134.184 32.7097 133.602C31.4928 134.759 31.0533 135.352 30.1557 136.272C30.0956 136.257 30.0505 136.235 29.9979 136.22C30.3998 135.765 30.7641 135.33 30.6515 135.318L29.7388 136.137C29.7313 136.137 29.7238 136.13 29.7163 136.13C31.9247 133.891 28.8937 136.456 30.8017 134.458C30.1557 135.003 29.859 135.45 29.3595 136.017C27.8872 135.547 26.4337 135.033 25.0215 134.481ZM11.9135 126.755C13.3483 125.347 14.7004 123.983 15.6656 122.714C19.737 119.442 17.7163 119.957 21.4459 116.956L21.2769 117.009C23.9661 114.357 26.7153 111.672 29.4646 108.979C30.6815 109.734 31.9472 110.432 33.2618 111.037C27.2637 117.046 21.2468 123.052 15.1886 129.069C14.5351 128.644 13.8741 128.216 13.2431 127.769L11.9135 126.755ZM5.99809 121.403L5.95302 121.35C7.1624 120.179 8.62718 118.733 8.66474 118.992C13.2506 114.357 18.2947 109.365 23.305 104.378C24.3379 105.279 25.3933 106.154 26.5125 106.988C26.7153 107.146 26.9444 107.292 27.1548 107.442C26.952 107.713 26.6252 108.092 25.9266 108.783C26.7454 108.002 25.3257 109.726 26.8543 108.212C26.1933 109.054 24.552 110.725 23.2675 111.916C22.9708 112.261 23.26 112.043 23.26 112.156C24.7473 110.917 25.3031 109.88 26.6102 108.934L27.3689 107.799C27.4139 107.754 27.4515 107.72 27.5041 107.683C27.6355 107.777 27.7707 107.874 27.9097 107.965C27.6581 108.212 27.4515 108.457 27.3989 108.644L27.9923 108.025C28.0299 108.047 28.075 108.077 28.1125 108.107C27.5304 108.813 26.0092 110.301 25.1679 111.127C23.7632 112.344 22.5313 113.519 22.3022 113.467L24.0111 111.657C22.9858 112.46 21.8177 113.966 20.7924 114.98C20.7022 115.026 20.5858 115.116 20.4581 115.221C20.5257 115.183 20.5633 115.161 20.5783 115.176C20.3529 115.386 20.1464 115.563 19.9511 115.698C19.0384 116.592 17.799 117.993 16.9201 118.778L17.1454 118.8L17.1943 118.62C18.0206 117.801 19.2112 116.757 18.6741 117.471C16.9051 119.405 16.2891 119.551 15.7408 119.882C15.9849 119.277 17.5586 118.083 18.445 117.076C17.6938 117.463 16.5332 118.935 14.4901 120.731C15.0497 119.769 16.721 118.515 16.9576 117.906C15.3764 119.42 15.1135 119.964 13.4347 121.542C13.5473 121.238 15.1286 119.649 14.907 119.634L13.8065 120.618C16.3567 118.045 13.1004 120.813 15.0497 118.77C14.0243 119.634 13.8966 120.246 12.4319 121.456C12.8938 121.178 14.1257 120.261 12.9164 121.625L11.4065 123.014C10.7004 123.521 12.706 121.29 11.6807 122.154L10.2197 123.735C10.3361 123.743 11.0948 123.044 10.7154 123.585C10.2272 124.006 9.9267 124.438 9.61497 124.907C9.13422 124.505 8.67225 124.107 8.23282 123.675C7.47789 122.924 6.66663 122.214 5.99809 121.403ZM39.7331 112.535C40.2927 112.686 41.3256 112.843 42.0242 112.99C41.9641 113.057 41.8965 113.125 41.8289 113.193C41.3331 113.215 41.7613 113.377 41.288 113.365C41.3894 113.384 41.5021 113.399 41.6073 113.414C38.3134 116.712 35.0683 119.979 31.9623 123.161L31.9097 123.052C28.5595 126.353 25.2581 129.636 21.9454 132.922C20.4881 132.209 19.0759 131.431 17.6863 130.612C18.475 129.865 19.1285 129.283 19.1586 129.448C24.5294 124.028 30.52 118.113 36.3604 112.291C36.3904 112.306 36.4129 112.321 36.443 112.329C38.9669 112.915 37.5622 112.209 39.7331 112.535ZM50.7828 115.183C50.7978 115.131 50.8729 115.041 50.9631 114.95C50.8504 115.048 50.7603 115.138 50.6589 115.228C51.2448 114.594 52.0898 113.677 52.5593 113.065C52.642 113.08 52.7171 113.095 52.7959 113.11C52.1725 113.805 51.3687 114.699 50.7828 115.183ZM52.8711 113.253C52.9011 113.223 52.9236 113.2 52.9537 113.17C52.9687 113.193 52.9462 113.223 52.8711 113.253ZM52.5668 114.079C51.4063 115.326 49.8025 117.076 48.4955 118.323C46.6288 120.261 47.1734 119.942 45.8551 121.549C44.9199 122.244 44.8749 122.015 44.995 121.602C45.5734 121.163 46.3997 120.261 47.2824 119.465C49.318 117.241 50.8354 115.296 52.856 113.268C52.9612 113.23 53.0513 113.2 53.1527 113.17C52.7884 113.549 52.4466 113.914 52.165 114.214L52.5668 114.079ZM62.2419 86.0417C62.302 85.9665 62.3621 85.8989 62.4334 85.8163C63.594 87.0332 64.4203 88.3515 65.1752 90.0905C64.9987 90.2632 64.8222 90.4323 64.6494 90.605C64.6344 90.4923 64.6193 90.3947 64.5893 90.2407C64.4654 89.9477 64.3752 89.651 64.24 89.3731C64.3677 89.7938 64.4992 90.2182 64.6269 90.6275C64.5442 90.7102 64.4578 90.7853 64.3827 90.8679C64.3076 90.7252 64.2175 90.5299 64.1086 90.2707C63.5489 88.6745 63.7067 88.3665 62.6062 86.6989C62.6062 86.6989 62.6062 86.6989 62.6137 86.6914C63.0231 87.1985 63.4663 87.7205 63.8081 88.2802C63.5865 87.6154 63.1696 87.0933 62.7827 86.5863C62.7752 86.5788 62.7602 86.5637 62.7414 86.5487C62.7902 86.5036 62.8278 86.4586 62.8729 86.4135C62.8278 86.4586 62.7827 86.4961 62.7339 86.5412C62.5687 86.3759 62.3996 86.2069 62.2419 86.0417ZM56.7058 82.0379C69.3893 69.576 81.7047 57.1705 94.1441 44.7687C94.1065 45.3959 94.0689 46.0269 93.9788 46.6841C93.9863 47.7057 94.3056 45.9968 94.4182 46.8118C94.1591 48.3705 94.114 48.7423 93.6746 50.1132C94.1741 48.9301 93.9638 49.0841 94.0389 49.2719L94.3882 47.0785C94.4408 46.9771 94.4182 47.2212 94.5084 47.0259C94.5647 46.2823 94.6248 45.4034 94.6849 44.4532C94.7225 45.1104 94.7525 45.5874 94.7901 46.102C94.8051 46.609 94.8126 47.1987 94.5159 48.1076C94.5009 47.9536 94.5422 47.7132 94.6173 47.2212C94.238 48.7348 94.4558 48.87 93.9938 49.9592C93.4905 51.3076 93.7121 51.0034 93.5018 51.1348C93.4305 51.2851 93.3553 51.4353 93.2802 51.5968C93.1037 51.7696 92.9234 51.9423 92.7469 52.1189C92.7544 51.7846 92.9535 50.9658 92.7319 51.6494C92.6492 51.9048 92.5441 52.1639 92.4427 52.4193C82.238 62.4324 71.5752 72.7535 62.3771 82.267L62.317 82.1581C61.656 82.8116 61.0025 83.4614 60.3527 84.1036C59.6842 83.514 58.9931 82.9619 59.3123 83.0445C58.2307 82.575 57.4494 82.2896 56.7058 82.0379ZM56.2889 82.4548C56.3565 82.3872 56.4316 82.3196 56.4992 82.2445C56.7959 82.3046 56.995 82.3271 56.9499 82.2445C58.1781 82.8417 56.7959 82.5149 56.2889 82.4548ZM56.1499 82.59C56.1724 82.575 56.1875 82.5525 56.2062 82.5299C56.3565 82.6126 56.7133 82.7666 57.3743 83.0145C56.9274 82.8417 56.5293 82.7102 56.1499 82.59ZM47.9734 81.6661C50.5462 81.6586 47.4777 81.8952 48.8523 82.0379C45.6411 82.0079 48.0561 81.8952 47.0683 81.6511C46.6213 81.6511 46.2495 81.6361 45.9152 81.621L46.2044 81.253C47.9809 81.2755 49.5659 81.2304 49.2166 80.8285C50.3434 80.8736 51.6842 80.7835 53.2279 80.9638C52.8711 81.2454 52.041 81.9854 52.6645 81.129L52.1574 81.7525C51.0269 81.621 49.8025 81.5534 47.9734 81.6661ZM39.5491 81.8577C39.7632 81.8201 40.0524 81.8051 39.643 81.745L38.1594 81.9027C35.2298 81.7675 38.0843 81.4783 36.4054 81.313C39.0345 78.6877 41.6073 76.0812 44.0523 73.5572L44.1162 73.6549C60.1987 57.8841 75.6315 42.226 91.4661 26.5303C91.5563 26.7744 91.669 27.0073 91.7516 27.2514C92.1572 28.4007 92.5065 29.5725 92.8182 30.7706C92.0408 31.5706 91.3272 32.3593 90.7676 33.1068C86.6962 36.3781 88.7094 35.8635 84.9873 38.8682L85.1526 38.8044C74.0052 49.7865 62.0428 61.2906 51.8758 71.7995L51.8232 71.7018C48.7396 74.7215 45.7011 77.7412 42.6627 80.7534C42.5725 80.7534 42.4824 80.7534 42.3922 80.7534C42.4674 80.7685 42.55 80.776 42.6251 80.7835C42.5876 80.821 42.55 80.8661 42.5049 80.9037C40.5293 80.9788 39.9622 81.2379 37.1942 81.3206C39.3613 81.4182 40.0599 81.5384 41.7087 81.6886C41.6298 81.7675 41.5472 81.8501 41.4796 81.9253C40.9387 81.9027 40.3002 81.8426 39.5491 81.8577ZM39.012 60.562C41.6523 60.4193 40.811 60.592 41.0176 60.6972C39.7181 60.6446 38.7002 60.6521 37.7275 60.6521C37.4683 60.6521 37.2054 60.6521 36.9463 60.6446C36.9913 60.5996 37.0364 60.5545 37.089 60.5019C38.4787 60.577 39.5566 60.6672 39.012 60.562ZM41.8815 60.6221C41.8664 60.6371 41.8514 60.6521 41.8289 60.6747L41.3031 60.6221C41.5246 60.6221 41.7087 60.6221 41.8815 60.6221ZM46.3922 60.4944C46.3847 60.5019 46.3547 60.4944 46.3547 60.5019C46.3547 60.4944 46.3547 60.4944 46.3547 60.4944C46.3697 60.4944 46.3772 60.4944 46.3922 60.4944ZM34.6214 67.2512L34.7115 63.9009L35.0308 64.2615C35.0083 63.5592 34.9857 63.0446 34.9557 62.6277C35.5341 62.0531 36.1087 61.4859 36.6796 60.9113C37.089 60.9113 37.4909 60.9038 37.904 60.9038C39.3162 60.8737 40.6345 60.8136 41.3669 60.7498C41.4646 60.7498 41.5998 60.7573 41.7462 60.7573C41.6448 60.8587 41.5472 60.9564 41.4495 61.054C40.0749 61.0765 38.0542 61.2118 37.0139 61.2906C38.0392 61.2418 39.9847 61.2493 41.2805 61.2193C38.997 63.5066 36.7172 65.7826 34.4298 68.0699C34.4862 67.3713 34.5538 67.0108 34.6214 67.2512ZM50.9631 60.3141C50.7678 60.3517 50.4335 60.4043 50.2119 60.4193C51.1246 60.4193 52.4016 60.4568 53.1377 60.2916C52.6119 60.9263 52.1274 61.501 51.0006 62.4549L49.5809 64.2916C49.2392 64.2916 48.3528 65.4521 47.4701 66.2521L47.8871 65.6174C46.7791 66.7366 46.3171 67.146 45.5509 67.7732C46.0279 67.0033 46.5988 66.8042 46.7265 66.3911L45.4495 67.5704C45.5509 67.6605 44.8448 68.5169 45.7838 67.6906C44.8223 69.0164 44.349 69.7864 41.4796 72.6183C40.0223 73.7375 42.7152 71.0896 42.0167 71.4577C38.9819 74.3422 38.8204 75.499 37.0665 77.2117C35.7294 78.4661 35.2674 79.0032 34.659 79.6793C34.6514 79.3825 34.6439 79.1009 34.6364 78.8304C34.9031 78.4736 35.335 77.9891 36.2702 77.129C34.7566 78.3835 37.104 76.0999 37.5209 75.5854C36.5294 76.4755 35.4176 77.9891 34.6289 78.5863C34.6214 78.5412 34.6214 78.4887 34.6214 78.4511C34.5914 77.7337 34.5388 77.1741 34.4148 76.93C34.5313 76.7572 34.3848 75.4765 34.3097 74.9319C34.2571 74.4323 34.1594 73.5723 34.1294 72.6633C38.0993 68.7047 42.1556 64.6709 46.2119 60.6371C47.9058 60.8587 49.0063 60.4268 50.9631 60.3141ZM61.9226 36.5283C61.7799 36.3631 61.6485 36.2091 61.5433 36.0889C64.6794 32.964 67.8081 29.8392 70.9742 26.7068C72.6756 24.8589 71.4325 25.7528 72.8747 24.1415C73.5508 23.4805 75.0381 21.9782 75.1507 22.0683C73.9151 23.4054 74.7263 22.7632 74.3245 23.2401C76.4578 21.0993 79.3385 18.4514 81.1225 16.4308L79.3986 17.9068C80.0897 17.1106 81.2878 15.9838 81.9714 15.3153C81.7535 15.6646 82.869 14.827 82.3131 15.4393C82.5272 15.1876 82.7075 14.9848 82.8915 14.7707C83.8493 15.5519 84.7281 16.3557 85.5319 17.1857C78.1667 24.4495 70.8991 31.672 63.6616 38.8832C62.2344 36.6485 63.4963 39.0109 63.0156 38.8044C63.1245 38.9509 63.1921 39.1086 63.2823 39.2588C63.2071 39.3377 63.132 39.4128 63.0532 39.4879C62.9705 39.2513 62.8954 39.0109 62.7827 38.7969C62.1818 37.3321 61.4231 36.3105 61.9226 36.5283ZM60.8147 36.81C60.9574 36.6711 61.0964 36.5283 61.2391 36.3931C61.4757 36.7011 61.671 37.0203 61.8325 37.3095C62.0691 37.7152 62.2419 38.087 62.317 38.4363C62.332 38.6091 61.5433 37.6626 60.8147 36.81ZM61.2691 36.3631C61.3067 36.318 61.3518 36.2804 61.4006 36.2316C61.5508 36.5058 61.6184 36.6635 61.2691 36.3631ZM58.2532 34.4927C57.7537 34.3875 57.4194 34.3124 56.5067 34.0157C54.456 32.7687 55.7856 33.1668 55.4663 32.6523C55.087 32.4795 54.6926 32.3368 54.2983 32.2016C61.6935 24.8063 69.0775 17.4148 76.5479 10.0121C77.9 10.8834 79.2371 11.875 79.8305 12.5172C80.0596 12.6674 80.2549 12.8289 80.484 12.9792C77.6371 15.8862 75.0306 18.7594 72.8522 21.3697C69.9564 24.2092 72.9123 20.8326 72.3188 21.3247C74.4221 19.3866 73.686 19.8862 74.0503 19.3716C73.04 20.5021 71.7817 21.8317 71.0681 22.2261C69.5846 23.7246 68.9085 24.3894 67.5339 25.9631C68.225 25.1707 68.9461 24.6261 68.3264 25.3885C67.0494 26.5453 63.9959 29.7115 63.9733 29.3396C62.3846 30.9359 60.7396 32.5847 59.0757 34.2523C57.6785 33.1894 59.1583 34.4476 58.5724 34.1283C58.163 33.7828 57.5246 33.2833 57.1377 33.1668C58.963 34.2598 57.1077 33.456 58.7114 34.41C58.8091 34.3725 58.8992 34.3499 59.0006 34.3274C58.8917 34.4251 58.794 34.5302 58.6889 34.6354C58.5274 34.5678 58.3846 34.5227 58.2532 34.4927ZM54.6701 33.9781C54.7603 33.9856 54.8692 34.0006 54.9743 34.0232C54.9743 34.0232 54.9743 34.0232 54.9818 34.0232L54.6701 33.9781ZM51.8006 30.6317C51.7556 30.6166 51.7105 30.6016 51.6692 30.5866C51.8382 30.4589 52.6495 29.6288 52.2701 30.1021C52.0898 30.3162 51.9434 30.4814 51.8006 30.6317ZM48.672 30.9133C50.4035 30.7781 45.1378 30.4964 47.5152 30.3086C46.1706 30.1885 45.8138 30.718 45.1152 30.4363C45.0326 30.4664 45.0026 30.4889 44.9725 30.504C45.1565 30.3237 45.3819 30.1171 45.6786 29.8617C46.9256 28.4533 48.2551 27.6232 49.0739 26.842C49.8401 25.8429 49.626 25.5575 51.8532 23.4279L51.0795 24.5584C53.5396 22.1059 51.9734 23.15 54.2607 20.8852C53.4419 21.6589 54.8617 19.9425 53.333 21.4561C53.9865 20.6148 55.6278 18.9435 56.9274 17.7529C57.2128 17.4073 56.9274 17.6252 56.9274 17.5125C55.4288 18.7519 54.8767 19.7885 53.5772 20.735L52.811 21.8693C51.4664 23.0749 51.1847 23.0524 51.8908 22.196C51.5415 22.5678 51.2523 22.9059 50.9556 23.135C50.456 23.0674 52.5894 21.7115 52.7884 21.0242L51.9058 21.9444C51.3274 22.1509 53.8513 19.6834 55.0194 18.5416C56.4241 17.3134 57.656 16.1491 57.8814 16.1942L56.1724 18.012C57.1978 17.2083 58.3621 15.7022 59.395 14.6881C59.4776 14.6355 59.5978 14.5529 59.7217 14.4477C59.6616 14.4853 59.6128 14.5003 59.6053 14.4928C59.8269 14.2787 60.041 14.1059 60.2363 13.9707C61.1489 13.0768 62.3846 11.6759 63.2672 10.8909L63.0381 10.8684L63.0006 11.0487C62.1668 11.8674 60.9724 12.9116 61.5133 12.198C63.2823 10.2637 63.8907 10.1172 64.4428 9.77919C64.2024 10.3914 62.6212 11.5858 61.7424 12.5923C62.4935 12.2055 63.6466 10.7332 65.6973 8.93788C65.1264 9.89938 63.4663 11.1538 63.2297 11.7623C64.8071 10.2487 65.0663 9.70407 66.7527 8.12662C66.64 8.43084 65.0588 10.0196 65.2804 10.0346L66.3884 9.05056C63.8306 11.6233 67.0869 8.85525 65.1264 10.8984C66.1592 10.0346 66.2832 9.42238 67.7555 8.213C67.2935 8.49093 66.0616 9.40736 67.271 8.04399L68.7057 6.72193L68.8559 6.74447C68.5968 7.15385 67.763 8.14164 68.5067 7.51441L69.1752 6.79705L69.5996 6.85714C70.4822 7.01489 71.0456 7.27404 71.6503 7.567C72.2362 7.88624 72.8447 8.28812 73.855 8.68248C72.7357 9.77168 71.5602 10.9059 71.5226 10.6768C65.4156 16.8364 58.4973 23.6495 51.9283 30.226C51.733 30.4514 51.6692 30.5415 51.6467 30.5791C51.0194 30.3612 50.3659 30.181 49.4157 30.072C49.6598 30.241 50.1293 30.4589 51.6542 30.7932C51.6016 30.8532 51.5565 30.8908 51.5114 30.9434C51.4513 30.9509 51.3837 30.9584 51.3199 30.9659C51.3762 30.9885 51.3988 30.9885 51.4513 31.011C51.3687 31.0936 51.2823 31.1725 51.2147 31.2401C50.5913 31.165 49.8927 31.0936 48.672 30.9133ZM45.5584 30.8608C45.2317 30.8908 44.8824 30.9284 44.5256 30.9734C44.6307 30.8532 44.7584 30.7105 44.9199 30.5565C44.935 30.673 46.4298 30.4739 46.9856 30.5716C47.2523 30.7556 46.5312 30.8082 45.5584 30.8608ZM44.0899 31.026C43.8946 31.0561 43.703 31.0861 43.5152 31.1162C44.6683 29.8842 46.1819 28.2354 47.4401 27.0373C49.303 25.0955 48.7547 25.411 50.0842 23.8073C51.0082 23.12 51.0645 23.3453 50.933 23.7547C50.3584 24.1941 49.5284 25.0955 48.6495 25.8955C46.9706 27.7284 45.6411 29.3697 44.0899 31.026ZM45.2692 30.1246C45.0401 30.3763 44.7735 30.673 44.503 30.9734C44.4317 30.9809 44.3641 30.9885 44.2889 30.996C44.6007 30.688 44.8974 30.3838 45.149 30.1734C45.1378 30.226 45.0551 30.3162 44.9725 30.4138C45.0702 30.3086 45.1716 30.2185 45.2692 30.1246ZM35.1322 34.3875C35.5566 34.1884 36.0036 34.0382 36.4355 33.8729C35.0083 34.9546 33.6862 34.9546 31.7069 36.3856C32.4731 35.6795 33.0252 35.364 33.7087 34.7443C32.7547 35.4166 31.0158 36.7462 29.6712 37.9218C29.0627 38.2523 28.4318 38.5565 27.8383 38.9208C27.7482 39.2062 26.0768 40.4194 26.2609 40.6222C25.3332 41.3546 25.6374 40.979 26.1783 40.3818C26.7454 39.7208 27.643 38.8832 27.6731 38.7293C26.7829 39.3978 26.321 39.8673 25.9867 40.2429C25.72 40.5696 25.5247 40.81 25.2506 41.1368C25.1229 41.272 24.9764 41.4184 24.7961 41.5762C24.6947 41.6513 24.6046 41.7414 24.4844 41.8091C24.3454 41.8804 24.1576 41.749 24.0825 41.5612C24.1576 41.6062 24.2553 41.6588 24.383 41.5837C24.5144 41.5086 24.582 41.3396 24.6571 41.2194C24.5745 41.3321 24.3304 41.5461 24.1726 41.317C24.1651 41.3095 24.1576 41.302 24.1501 41.2945C36.4956 29.088 48.5706 16.9453 60.7997 4.78391C61.1489 4.73884 61.7649 4.82147 62.4635 4.94166C63.41 5.1257 64.4654 5.48626 65.2053 5.5764C65.0362 5.59142 65.1977 5.67029 65.4982 5.77546C65.1414 6.17733 64.8147 6.56794 64.5217 6.95479C60.4504 10.2261 62.471 9.71159 58.7414 12.7125L58.9067 12.6599C52.4166 19.0561 45.6486 25.6326 39.1096 32.0852C38.6552 32.3518 37.1491 32.7762 36.3679 33.1443C37.2956 32.7612 38.6176 32.4044 38.5951 32.5997C38.5387 32.6523 38.4787 32.7161 38.4261 32.7687C37.6449 33.1894 36.9312 33.5011 35.1322 34.3875ZM21.3708 39.4278C19.9173 37.8391 18.6741 36.8851 17.7539 35.4992C17.2919 34.7744 17.829 35.2251 18.4074 35.7584L18.5276 35.9086C18.5351 35.9011 18.5426 35.8936 18.5539 35.8861C18.7867 36.1039 19.0159 36.318 19.1736 36.4532C18.9558 36.179 18.7717 35.9837 18.6065 35.826C18.6666 35.7584 18.7191 35.6945 18.7792 35.6269C19.4027 36.3706 20.0712 37.1856 20.9989 38.2448L19.5605 36.134L20.0938 36.6861L19.2262 35.4241C19.1736 35.364 19.136 35.3265 19.091 35.2739C20.398 33.7453 20.8525 32.7762 22.1294 31.5331C24.4055 29.3997 24.1276 29.3697 26.3585 27.1237C25.7576 27.9462 28.0449 25.6852 28.5707 25.381L27.8008 26.38C28.4468 25.6627 29.1454 25.058 29.0252 25.3359C28.7435 25.3134 31.797 22.2937 33.2693 20.6824L32.8674 20.8176C34.0355 19.5707 35.6242 17.8205 36.9463 16.581C38.8054 14.6355 38.2608 14.9547 39.5791 13.351C40.5143 12.6524 40.5594 12.8815 40.4392 13.2984C39.8608 13.7341 39.0345 14.6355 38.1519 15.4317C35.8608 17.9519 34.2571 20.0927 31.7895 22.4214C31.0609 23.7772 33.3745 20.765 34.6514 19.7134C34.6364 19.766 34.5613 19.8561 34.4712 19.95C34.5763 19.8486 34.674 19.7585 34.7716 19.6683C33.9529 20.5697 32.6008 22.0157 32.5256 22.4063C33.9378 20.9416 33.2543 21.0542 35.1848 19.4017C36.4204 17.9895 37.75 17.1632 38.5801 16.3857C39.3463 15.3867 39.1322 15.09 41.3594 12.9717L40.5744 14.0984C43.042 11.6458 41.4796 12.69 43.7669 10.4214C42.9444 11.1989 44.3641 9.47497 42.8392 10.9886C43.4927 10.1473 45.1378 8.47591 46.4223 7.29657C46.719 6.94728 46.4298 7.16888 46.4298 7.04493C44.935 8.29563 44.3791 9.33224 43.0833 10.2712L42.3134 11.413C40.9763 12.6149 40.6908 12.5923 41.3969 11.736C41.0401 12.1003 40.7584 12.4421 40.4542 12.6749C39.9509 12.5998 42.0955 11.2477 42.2908 10.5642L41.412 11.4806C40.8336 11.6834 43.3462 9.22708 44.5256 8.08155C45.9227 6.85714 47.1584 5.69283 47.38 5.7379L45.6786 7.55197C46.704 6.75198 47.8645 5.24588 48.8974 4.2318C48.9838 4.17922 49.0964 4.09659 49.2241 3.98767C49.164 4.02523 49.119 4.04026 49.1115 4.03274C49.333 3.82242 49.5434 3.64214 49.7424 3.51068C49.7725 3.48063 49.81 3.44308 49.8401 3.40552C49.8626 3.40552 49.8776 3.40552 49.9002 3.40552C49.8476 3.43556 49.795 3.46561 49.7424 3.51068C49.5584 3.68721 49.3856 3.85246 49.2241 3.98767C49.3781 3.89002 49.6448 3.67218 49.9302 3.40552C50.0392 3.40552 50.1593 3.41303 50.2645 3.40552C50.242 3.44308 50.2119 3.49566 50.1819 3.54824C50.1293 3.54824 50.0767 3.55575 50.0467 3.56326C50.0842 3.57077 50.1218 3.57077 50.1593 3.58204C50.0542 3.75481 49.9227 3.95012 49.765 4.17922L49.5284 4.37453C49.7575 4.29941 49.6448 4.45715 50.5161 3.67218C50.5237 3.65716 50.5237 3.64965 50.5312 3.63462C50.6363 3.64214 50.7377 3.64965 50.8429 3.64965C50.7302 3.73228 50.6288 3.84495 50.5086 3.91256L49.318 5.6778C50.6589 4.4196 50.2945 4.37453 50.9931 3.64214C51.519 3.60458 52.0185 3.49566 52.4466 3.61209C52.4466 3.61209 52.4166 3.66467 52.1875 3.67969C54.0617 3.85997 55.4964 3.99519 57.025 4.2318C51.9734 9.27215 46.6138 14.5754 41.427 19.7585C40.4167 20.9716 42.3134 18.966 41.7688 19.6383C40.2927 21.3772 40.4242 20.8402 39.2373 22.2336L39.6655 21.5988C37.7275 23.4993 35.8909 25.7303 34.1294 27.6833C34.3097 27.2514 32.4956 29.103 33.9679 27.4918C33.0815 28.4232 31.4177 28.9678 30.8317 29.7866L32.3754 29.272C32.3754 29.3772 31.0609 30.6166 31.2261 30.519C30.3247 31.2176 29.228 32.0701 28.6834 32.6147C28.2815 32.7537 29.7012 31.4054 30.4524 30.6579C30.3548 30.3237 27.7632 33.0542 28.6609 31.7697C27.0721 33.4185 29.0027 31.6457 28.1125 32.6936L26.6552 34.0607L27.8158 33.0392C26.7003 34.2823 26.4562 34.857 24.7661 36.303L23.3351 38.1471C23.0947 38.1396 22.5539 38.7443 21.9454 39.3828C21.2168 38.6466 20.5783 38.0194 20.4957 38.3311L21.3708 39.4278ZM51.1997 3.36045C51.1396 3.42054 51.072 3.4581 51.0082 3.51068C50.8729 3.51819 50.7377 3.51819 50.6063 3.5257C50.6438 3.4581 50.6701 3.40552 50.6776 3.36796C50.7828 3.36045 50.9105 3.35294 51.0006 3.33791C51.0945 3.34542 51.1246 3.35294 51.1997 3.36045ZM51.2823 3.36796C52.1499 3.47312 51.733 3.49566 51.1246 3.51068C51.1546 3.48063 51.1697 3.4581 51.2072 3.42805C51.2373 3.39801 51.2523 3.39049 51.2823 3.36796ZM73.9451 8.58859C73.9226 8.61863 73.8925 8.64117 73.8625 8.67122L73.4681 8.40079C73.6033 8.44586 73.7761 8.52098 73.9451 8.58859ZM85.6108 17.2683L85.6033 17.2533C85.6033 17.2608 85.6108 17.2608 85.6108 17.2683ZM68.0146 45.7902C66.5311 47.533 66.67 46.9959 65.4832 48.3855L65.9114 47.7433C65.5395 48.1151 65.1639 48.4982 64.7921 48.8926C64.9311 48.0475 65.0287 47.1311 65.1039 46.0795C64.8635 45.2757 64.8334 47.0334 64.6644 47.1611C64.5968 46.4888 64.2701 44.1339 63.8907 43.0147V42.9997C64.0259 42.902 64.1724 42.8006 64.3076 42.7029C64.4203 43.0072 64.5217 43.3076 64.6118 43.6194C64.8222 44.2015 64.9686 44.7987 65.0663 45.4034C64.9386 44.3217 64.7245 43.7621 64.6043 43.2701C64.5593 43.0522 64.4916 42.8457 64.4053 42.6278C65.2729 42.0306 66.1142 41.471 66.5874 40.8738L64.6419 41.779C64.6644 41.6588 66.471 39.9274 66.2607 40.0701C67.4663 39.0635 68.9461 37.8316 69.7085 37.0654C70.208 36.825 68.255 38.7142 67.2071 39.7584C67.2635 40.1377 70.8991 36.3631 69.562 38.0795C71.7893 35.7959 69.1301 38.2898 70.4071 36.8701L72.4165 34.9546L70.824 36.3931C72.4015 34.688 72.8071 33.9631 75.1207 31.8974L77.1864 29.4148C77.5808 29.3622 78.8803 27.796 80.0897 26.6692L79.4587 27.5068C81.0136 25.9481 81.6446 25.381 82.685 24.4721C81.9563 25.4937 81.2352 25.8429 80.9986 26.3575L82.7676 24.7012C82.6624 24.6185 83.6728 23.4505 82.3883 24.6185C83.6277 23.0674 84.3789 22.0533 87.2558 19.1463C87.3347 19.2364 87.4098 19.3266 87.4849 19.428C87.545 19.5031 87.5901 19.5782 87.6464 19.6458L86.7864 20.3331C85.269 22.0157 88.6943 18.6017 87.2971 20.3557L87.7666 19.8111C88.7169 21.0918 89.5356 22.4063 90.2267 23.7622C88.9798 24.9641 87.3122 26.6467 87.2709 26.365C81.1601 32.5321 74.2493 39.3452 67.6729 45.9104C66.6625 47.1236 68.5517 45.1104 68.0146 45.7902ZM93.6145 34.6129C93.1037 34.9396 92.5741 35.2513 93.5093 34.1959L93.5469 34.1584C93.5694 34.3124 93.5919 34.4626 93.6145 34.6129ZM42.1106 81.2905C42.1106 81.2905 42.1106 81.2905 42.1106 81.298V81.2905ZM53.0814 81.2379C53.3105 81.298 53.487 81.3506 53.6297 81.3957C53.5696 81.4558 53.5096 81.5159 53.457 81.576C53.1828 81.5534 52.8861 81.5309 52.6795 81.5309L53.0814 81.2379ZM53.9189 81.0839C53.8513 81.1591 53.7912 81.2304 53.7199 81.298C53.5246 81.2755 53.3255 81.2454 53.1077 81.2229C53.2128 81.0915 53.2654 81.0314 53.3105 80.9713C53.5096 81.0013 53.7124 81.0539 53.9189 81.0839ZM52.7096 81.8201C52.5894 81.8051 52.4692 81.79 52.3452 81.775L52.5668 81.6135C52.811 81.6436 53.0588 81.6886 53.303 81.7299C53.2579 81.7825 53.2053 81.8351 53.1527 81.8877C53.0063 81.8652 52.856 81.8426 52.7096 81.8201ZM78.516 56.2503C77.0287 57.9892 77.1714 57.4522 75.9808 58.8456L76.4052 58.2071C74.4672 60.1075 72.6231 62.3423 70.8691 64.2916C71.0531 63.8634 69.2353 65.715 70.7113 64.1038C69.8137 65.0277 68.1574 65.5798 67.5714 66.3986L69.1076 65.884C69.1076 65.9892 67.8006 67.2286 67.9696 67.131C67.0644 67.8258 65.9715 68.6746 65.4231 69.2267C65.0287 69.3619 66.4334 68.0174 67.1921 67.2587C67.0945 66.9357 64.5067 69.6662 65.4006 68.3704C63.8156 70.0305 65.7423 68.2577 64.856 69.3018L63.3874 70.6652L64.5593 69.6511C63.44 70.8906 63.1996 71.4577 61.5057 72.9112L60.0785 74.7591C59.7367 74.7516 58.8541 75.9159 57.9753 76.7121L58.3846 76.0736C57.2767 77.2042 56.8109 77.6023 56.0523 78.2408C56.5293 77.4595 57.1001 77.2643 57.2203 76.8549L55.9471 78.0267C56.0523 78.1168 55.3462 78.9732 56.2814 78.1581C55.6128 79.0708 55.1584 79.7393 53.9865 81.0088C52.1274 80.5018 49.7875 80.1225 47.7593 80.299L47.6467 80.7609C47.5077 80.7609 47.395 80.7685 47.2748 80.7685L47.6767 80.4793L47.2223 80.7685C47.0608 80.776 46.9105 80.7835 46.7716 80.7985C47.2035 80.4117 47.827 79.6717 48.4579 79.1009L48.041 79.7393C49.149 78.6164 49.6185 78.2182 50.3809 77.5797C49.9002 78.361 49.333 78.5563 49.2016 78.9656L50.4861 77.7938C50.3809 77.7037 51.087 76.8474 50.1443 77.6661C51.1021 76.3478 51.579 75.5741 54.456 72.7384C55.9095 71.6192 53.2128 74.2746 53.9114 73.9028C56.9499 71.0145 57.1077 69.854 58.8616 68.1451C61.1489 66.0117 60.8673 65.9817 63.102 63.7319C62.501 64.5582 64.7846 62.2859 65.3104 61.9855L64.5442 62.992C65.1902 62.2709 65.8888 61.6662 65.7649 61.9479C65.4832 61.9254 68.5367 58.9057 70.0127 57.2944L69.6071 57.4296C70.7789 56.1827 72.3639 54.4325 73.6785 53.1855C75.5489 51.2475 75.0005 51.563 76.3226 49.9517C77.254 49.2644 77.3028 49.4898 77.1789 49.9067C76.6043 50.3461 75.7742 51.2475 74.8953 52.04C72.6005 54.5526 70.9968 56.7047 68.5292 59.0334C67.8006 60.3892 70.1179 57.377 71.3949 56.3254C71.3761 56.378 71.301 56.4681 71.2184 56.5583C71.316 56.4606 71.4099 56.3705 71.5151 56.2803C70.6926 57.178 69.3367 58.624 69.2653 59.0183C70.67 57.5498 69.994 57.6625 71.9245 56.0137C73.1639 54.5977 74.4897 53.7752 75.3198 52.994C76.086 51.9949 75.8719 51.702 78.0916 49.5837L77.3179 50.7104C79.7855 48.2578 78.2118 49.302 80.5066 47.0334C79.6803 47.8109 81.1075 46.087 79.5714 47.6006C80.2324 46.7593 81.8737 45.0879 83.1657 43.9048C83.4587 43.5593 83.1732 43.7771 83.1732 43.6569C81.6747 44.9039 81.1225 45.933 79.8155 46.8794L79.0568 48.025C77.7122 49.2269 77.4305 49.2043 78.1366 48.348C77.7873 48.7123 77.4906 49.0541 77.2014 49.2794C76.6944 49.2118 78.8352 47.856 79.0343 47.1762L78.1517 48.0926C77.5733 48.2954 80.0897 45.8353 81.2653 44.6935C82.6624 43.4691 83.9019 42.3011 84.1272 42.3461L82.4183 44.164C83.4361 43.3602 84.608 41.8541 85.6408 40.84C85.7234 40.7875 85.8361 40.7048 85.9676 40.5922C85.9075 40.6372 85.8587 40.6523 85.8436 40.6372C86.0727 40.4344 86.2868 40.2504 86.4821 40.1227C87.3948 39.2288 88.6305 37.8316 89.5056 37.0354L89.284 37.0203L89.2389 37.2006C88.4126 38.0194 87.2183 39.056 87.7516 38.3462C89.5281 36.4081 90.1366 36.2729 90.6812 35.9312C90.4408 36.5434 88.8671 37.7377 87.9882 38.7443C88.7394 38.3612 89.8924 36.8776 91.9356 35.0823C91.3722 36.0438 89.7122 37.302 89.468 37.9067C91.053 36.4006 91.3121 35.856 92.991 34.2823C92.8783 34.5828 91.2971 36.1715 91.5262 36.1866L92.6267 35.2025C90.069 37.7678 93.3253 34.9997 91.3722 37.0504C92.2999 36.2729 92.5065 35.687 93.622 34.688C93.6896 35.1725 93.7722 35.657 93.8248 36.164C93.9187 36.9678 94.0089 37.7828 94.1065 38.6166C94.129 39.2062 94.1441 39.8185 94.1666 40.4344C89.0061 45.6025 83.5 51.0484 78.1667 56.3705C77.1564 57.5799 79.0493 55.5667 78.516 56.2503ZM65.81 92.7383C65.6447 92.8811 65.4231 93.0876 65.2203 93.2829C65.1902 93.0951 65.1564 92.8961 65.1189 92.7083C66.0165 92.036 66.0165 92.2764 65.81 92.7383ZM88.7244 58.2784C88.807 58.1545 88.9422 58.0118 89.0962 57.839C88.9723 57.9892 88.8446 58.132 88.7244 58.2784ZM91.1845 55.7207C91.0868 55.916 90.9854 56.1038 90.8802 56.2954C90.745 56.4306 90.6136 56.5658 90.4633 56.7047C90.6136 56.5583 90.745 56.4381 90.8577 56.3254C90.7187 56.5733 90.576 56.8174 90.4183 57.0428L89.9225 57.5348C90.2492 57.0202 90.5685 56.5207 90.8802 56.0137C90.9779 55.916 91.0868 55.8184 91.1845 55.7207ZM89.5281 57.6324L89.3065 57.8615C89.5056 57.5874 89.6971 57.3094 89.8549 57.0428C89.9375 56.9601 90.0126 56.8775 90.099 56.7949C90.1516 57.0052 90.3619 56.7799 89.8774 57.5723L89.4004 58.0493L89.8248 57.67C89.7497 57.7789 89.6784 57.8991 89.5882 58.0493C89.6784 57.9141 89.7572 57.7789 89.8474 57.6399L90.2568 57.2794C89.6032 58.1845 88.8821 58.9357 88.4352 59.3601C88.2962 59.4352 88.2511 59.4202 88.2737 59.3301C88.345 59.2136 88.4352 59.0784 88.5328 58.9357C88.5629 58.8906 88.5929 58.8606 88.6305 58.808C88.623 58.823 88.6079 58.8306 88.6004 58.8456C88.6943 58.7066 88.7995 58.5564 88.9122 58.4061C89.2164 58.1245 89.468 57.8465 89.5281 57.6324ZM80.1573 67.8333C80.1648 67.8408 80.1723 67.8559 80.1798 67.8634L80.1047 67.8859C80.1272 67.8709 80.1423 67.8483 80.1573 67.8333ZM85.7234 72.8586C85.6709 72.9262 85.6183 72.9939 85.5657 73.0727C85.5319 73.0427 85.5094 73.0164 85.4868 72.9939C85.5469 72.9338 85.6108 72.8812 85.6709 72.8286C85.6859 72.8361 85.7084 72.8511 85.7234 72.8586ZM87.7516 59.4728C87.7216 59.5329 87.684 59.6005 87.6314 59.6681C87.6389 59.623 87.6765 59.5554 87.7516 59.4728ZM64.4053 84.3628C67.4513 81.4708 67.6052 80.314 69.3592 78.6013C71.6428 76.468 71.3611 76.438 73.5958 74.192C72.9949 75.0145 75.2897 72.7535 75.8043 72.4492L75.0381 73.4483C75.6841 72.7309 76.3827 72.1263 76.2625 72.4042C76.0033 72.3816 78.7301 69.6662 80.2625 68.0098C80.3 68.0549 80.3301 68.1 80.3714 68.1451C79.9357 68.592 79.5113 69.0389 79.0268 69.4934C78.5385 70.3986 79.4211 69.3469 80.439 68.2352C80.4765 68.2803 80.5066 68.3253 80.5441 68.3704C80.1272 68.8624 79.793 69.2943 79.7629 69.4784C80.2099 69.0164 80.439 68.7197 80.6117 68.4643C80.6193 68.4793 80.6268 68.4868 80.6343 68.5019C80.9085 68.8174 81.0775 69.1742 81.4418 69.4784C81.8286 69.7713 82.2305 70.0756 82.6399 70.391C83.0418 70.6953 83.5376 71.0746 83.7028 71.2474C83.7554 71.2849 83.8005 71.3375 83.8493 71.3751C79.8456 74.9244 81.6146 74.3873 77.0437 78.2934L77.2465 78.2032C73.2841 82.113 69.2428 86.0867 65.1977 90.0679C64.9686 89.3881 64.717 88.6445 64.5818 88.7722C64.255 87.7506 62.963 86.1168 62.4635 85.79C63.0231 85.1478 63.7931 84.3403 64.9461 83.2022C66.4034 82.0755 63.7067 84.7309 64.4053 84.3628ZM62.5687 86.6464C62.5762 86.6539 62.5837 86.6614 62.5912 86.6689C62.5837 86.6689 62.5837 86.6689 62.5837 86.6689C62.5762 86.6614 62.5762 86.6539 62.5687 86.6464ZM87.8943 75.0708C88.3601 75.4915 88.8446 75.9084 89.2915 76.3553C89.3629 76.4755 89.438 76.5957 89.5131 76.7197C88.5253 77.8239 87.5526 78.9431 86.6136 79.9872C86.8014 79.5553 84.9798 81.4032 86.4521 79.7919C85.5657 80.7234 83.9094 81.268 83.316 82.083L84.8559 81.576C84.8559 81.6736 83.5526 82.9168 83.7103 82.8267C82.8164 83.514 81.7122 84.3703 81.1676 84.9149C80.7732 85.0501 82.1854 83.7018 82.9366 82.9544C82.839 82.6201 80.2474 85.3619 81.1451 84.0661C79.5564 85.7149 81.4869 83.9459 80.6042 84.99L79.1395 86.3609L80.3 85.3393C79.1845 86.5863 78.9479 87.1534 77.2465 88.6069L75.8268 90.4473C75.485 90.4398 74.5986 91.6041 73.716 92.4041L74.1329 91.7693C73.0174 92.8886 72.5555 93.2905 71.7968 93.9252C72.2738 93.1477 72.8447 92.9524 72.9724 92.543L71.6879 93.7149C71.7968 93.805 71.0907 94.6613 72.0221 93.8426C71.0681 95.1609 70.5949 95.9308 67.7254 98.7702C66.2682 99.8895 68.9611 97.2341 68.2625 97.6059C66.1743 99.589 65.4456 100.753 64.6269 101.843C64.8935 100.442 65.0062 99.0331 64.9461 97.8538C65.0362 97.159 65.0963 96.4679 65.0888 95.7806C65.1564 97.1515 65.1902 97.1515 65.2954 97.2191C65.348 97.2792 65.4607 97.4069 65.3931 98.4134C65.5621 96.8472 65.5132 95.3487 65.3029 93.8651C65.7123 93.4181 66.2456 92.8811 66.9592 92.1937L65.8325 93.6623C69.1977 90.3233 67.1545 91.8369 70.2681 88.7496C69.1527 89.8163 71.1508 87.5252 69.07 89.5909C69.994 88.4792 72.2362 86.1994 73.9752 84.5731C74.3921 84.1112 74.0127 84.4229 74.0277 84.2877C72.0371 86.0191 71.1958 87.3449 69.4869 88.697L68.379 90.1806C66.5724 91.8369 66.2456 91.8595 67.2297 90.7252C66.7527 91.2247 66.3508 91.6792 65.9564 92.006C65.3705 92.0135 68.1423 90.0229 68.4991 89.1815L67.2935 90.4247C66.5799 90.7703 69.994 87.405 71.5902 85.8464C73.4681 84.1487 75.1357 82.545 75.3949 82.56L73.0475 85.0126C74.3996 83.8858 76.0484 81.8952 77.4606 80.5093C77.5658 80.4342 77.7122 80.314 77.885 80.16C77.8024 80.2239 77.7498 80.2464 77.7348 80.2389C78.0465 79.9422 78.3207 79.7018 78.5761 79.5027C79.8155 78.2934 81.5319 76.4154 82.715 75.3187L82.4521 75.3413L82.3657 75.5591C81.2427 76.6746 79.6465 78.1168 80.4014 77.1816C82.854 74.5788 83.5976 74.2971 84.3037 73.8051C83.9094 74.5713 81.8286 76.2652 80.6042 77.6098C81.5094 77.0502 83.0268 75.2812 85.4793 72.9939C85.5019 73.0164 85.5319 73.0502 85.5582 73.0727C84.5704 74.2521 82.854 75.6981 82.5122 76.3553C83.9695 74.9469 84.638 74.1694 85.6258 73.1403C85.6483 73.1629 85.6634 73.1854 85.6934 73.2079C85.6709 73.1854 85.6483 73.1629 85.6258 73.1403C85.6934 73.0727 85.7535 73.0014 85.8286 72.9262C85.8737 72.9563 85.915 72.9788 85.9676 73.0164C85.5019 73.5309 85.13 73.9629 85.2465 73.9553L86.1328 73.1403C86.1404 73.1478 86.1554 73.1553 86.1704 73.1629C83.7629 75.6305 87.4249 72.4042 84.9122 74.992C85.5807 74.4098 85.9976 73.9178 86.4671 73.3882C86.9065 73.7225 87.3798 74.1319 87.7291 74.515C88.2511 75.176 88.3375 75.3713 87.8943 75.0708ZM97.0323 88.7872C97.0098 88.9262 97.0323 89.144 97.0699 89.3956C97.0398 89.4257 97.0173 89.4557 96.9872 89.4858C96.9722 89.174 96.9722 88.9036 97.0323 88.7872ZM32.0186 9.21957C29.6186 11.6909 30.2834 11.2552 28.5444 13.2721C27.3839 14.1961 27.3613 13.9482 27.5604 13.4562C28.289 12.874 29.3519 11.721 30.4749 10.6919C32.6308 8.38577 34.3848 6.33508 36.3679 4.23932C36.5895 4.17922 36.7998 4.12664 37.0289 4.05528C35.5491 5.62522 33.6111 7.69094 32.0186 9.21957ZM35.8683 4.38204C35.9435 4.3595 36.0336 4.32946 36.1237 4.30692C35.7444 4.69377 35.3876 5.04682 35.0759 5.31349C35.0984 5.24588 35.2073 5.13321 35.3125 5.01678C35.1848 5.14823 35.0608 5.26842 34.9331 5.38109C35.2073 5.08438 35.5416 4.73884 35.8683 4.38204ZM101.04 101.79C100.987 101.016 101.04 99.9345 101.134 98.9355C101.149 97.9289 101.156 96.9975 101.164 96.5543C101.194 97.4745 101.412 98.3233 101.299 99.2172C101.427 98.9505 101.543 98.6876 101.633 98.4209C101.656 96.0623 101.434 95.3186 101.149 94.6313C100.837 93.9327 100.728 93.2529 100.349 91.0294C100.987 93.2754 100.784 91.7318 101.186 92.8435C101.025 92.1562 100.326 88.652 100.548 90.8153C100.266 89.129 99.8567 88.0097 99.6126 86.8529C98.9515 85.467 98.283 83.9684 97.6783 83.2886C96.7056 81.129 95.9544 79.5253 95.4361 78.4962C93.9713 76.4605 92.4915 74.5713 90.8427 72.7835C90.0352 71.8746 89.1563 71.0145 88.2436 70.1807C87.7741 69.7638 87.3197 69.3319 86.8164 68.9488C86.3544 68.5845 85.6859 68.0399 85.5244 67.9723L85.6634 68.1C84.9122 67.4803 84.9648 67.653 85.0399 67.8559C85.1375 68.0925 85.1601 68.2352 84.2812 67.5704C84.5629 67.5854 84.5253 67.4728 84.4164 67.3338C84.3188 67.2361 84.5066 67.1084 84.6305 67.0483L85.0098 66.8042C85.1526 66.7216 85.284 66.654 85.3967 66.6239C85.3967 66.639 85.7835 66.3197 85.9901 66.162C86.2305 65.9592 86.4671 65.7676 86.6962 65.5648C87.1507 65.1554 87.5976 64.7761 88.0108 64.3554C88.8446 63.5441 89.5882 62.7103 90.2943 61.8653C91.714 60.1601 92.9685 58.3911 94.2755 56.3329C94.3281 56.4005 94.253 56.7273 93.7797 57.5498C95.8304 54.4099 96.8783 51.4578 97.5619 48.1377L97.5769 48.2879C98.253 45.64 98.3544 42.9396 98.0952 40.4419C98.0051 39.1687 97.9187 37.8992 97.6408 36.611C97.3741 35.334 97.2727 34.0082 96.8633 32.6936C97.0248 33.1068 97.19 33.1894 97.329 33.5161C97.0173 32.1678 96.6905 30.3763 96.1422 28.7575C95.5112 27.1612 94.9516 25.6476 94.3431 24.8514C93.7797 23.2852 93.5018 22.8007 93.175 22.2261C92.8783 21.6214 92.4126 20.9942 91.3873 19.0937C91.3121 18.8496 91.6765 19.4204 91.8455 19.6458C90.8577 17.7604 89.8098 16.6637 88.4652 14.9848C84.9798 11.7773 83.8268 11.3379 79.4061 8.29563C79.4286 7.99892 80.1573 8.40079 80.9235 8.84023C81.6671 9.30971 82.3958 9.90689 82.5798 9.76417C82.1178 9.46745 81.6822 9.20455 81.2202 8.8853C80.7357 8.61112 80.2174 8.29563 79.6089 7.8562C80.4916 8.14164 79.8456 7.84117 80.484 7.99892C80.0296 7.64211 78.9554 7.16136 78.0165 6.767C77.0888 6.34259 76.1986 6.21489 76.2399 6.16982C76.1235 6.24494 76.4653 6.42522 77.4155 6.91723C76.1385 6.64681 72.6681 4.56983 70.1404 3.92758C70.9292 4.22429 73.3667 5.22335 72.3414 5.1257C70.7414 4.47969 69.6221 4.18673 68.6193 3.97265C67.6203 3.77735 66.7076 3.77735 65.532 3.55575C62.5536 2.51914 67.8907 3.71725 67.4287 3.21021C66.9592 2.93604 65.7949 2.31632 67.132 2.51914C65.7499 2.12102 64.5367 1.83933 63.3574 1.64403C62.1593 1.51257 61.0025 1.40741 59.7443 1.21961L59.8344 1.12947C56.2964 0.599899 52.4917 0.73511 49.5434 0.475957L51.1096 0.652481C50.5312 0.697552 48.7547 0.607412 47.7744 0.795204C47.872 0.614923 46.2195 0.490981 46.3096 0.363281C45.4044 0.637459 43.5303 0.727599 41.6523 1.06187C39.6279 1.31727 37.6223 1.85435 36.8073 2.26374C35.8683 2.34637 36.5444 1.94449 36.7998 1.7567C39.027 1.40741 39.7782 1.34731 40.9237 0.998019C39.0721 1.24215 37.7049 1.3999 37.9566 1.20459C36.9988 1.52008 35.5416 2.0121 34.1594 2.47407C32.7848 2.96608 31.5454 3.49566 31.151 3.78486C29.8214 4.04026 28.5782 4.40457 28.92 3.96514C23.6693 6.16231 31.812 3.73979 25.8966 6.11348C23.1022 6.96231 28.3717 4.66373 24.6271 6.13226C24.8412 6.00081 25.0665 5.90315 25.2881 5.79048C22.3323 6.32757 23.6243 7.06747 20.7248 8.55103C20.1389 8.38577 22.614 7.22897 20.4656 8.01394C17.844 9.52004 17.0478 10.7407 14.475 12.243L14.7642 11.8374C13.183 12.9116 10.1145 15.0374 8.69479 16.3294C8.5746 16.3294 8.79244 16.1641 9.06662 15.9162C6.27978 18.1322 8.05629 16.9904 5.75396 18.8195L5.30701 19.5481C6.43001 18.5867 8.60465 16.8214 9.90792 15.5219C9.27319 16.1942 9.91919 15.8411 10.6478 15.4242C11.399 15.0374 12.2478 14.6055 11.9924 15.0148L12.1952 14.6806C13.829 13.7641 15.6656 12.7275 17.5961 11.6909C14.0018 15.2402 10.4713 18.7669 7.12109 22.196L8.95394 24.3894C9.99431 23.0974 10.4713 22.196 11.6243 21.0768C13.9117 18.9359 13.63 18.9134 15.8647 16.6637C15.2638 17.4899 17.5511 15.2177 18.0731 14.9172L17.2994 15.9162C17.9529 15.2026 18.6515 14.5979 18.5276 14.8796C18.2497 14.8496 21.2994 11.8374 22.7755 10.2261L22.3736 10.3613C22.8731 9.82426 23.459 9.18577 24.0637 8.54352C24.3003 8.44586 24.5445 8.35572 24.7886 8.25056C23.7069 9.48999 22.6215 10.6994 21.2919 11.9651C20.5633 13.321 22.8806 10.3088 24.1576 9.25713C24.1426 9.30971 24.0637 9.39985 23.9736 9.48999C24.0825 9.38483 24.1726 9.3022 24.2778 9.21206C23.459 10.1022 22.0994 11.5557 22.0318 11.9501C23.4365 10.4815 22.7604 10.5942 24.6872 8.94539C25.0515 8.52849 25.4233 8.17544 25.7876 7.84117C25.9041 7.7961 26.0168 7.75103 26.1294 7.70596C25.9867 7.78108 25.675 8.0515 25.0891 8.68248L25.5022 8.29563C25.4384 8.43835 26.4862 7.58202 25.4308 8.68248C25.9491 8.213 26.321 7.67591 26.1933 7.68343C26.5275 7.55197 26.8468 7.39423 27.1886 7.27404C30.1632 5.69283 32.6233 5.26842 35.8458 4.38955C35.5416 4.71631 35.1134 5.13321 34.4298 5.74541C32.8148 7.52944 31.1735 8.6637 30.1181 9.67027C29.1003 10.921 29.3144 11.2139 26.4637 13.9557L27.5116 12.5548C24.3529 15.7022 26.2909 14.2937 23.3576 17.2007C24.4055 16.1942 22.5388 18.3651 24.4994 16.4233C23.6318 17.4749 21.5135 19.6158 19.8722 21.1519C19.4853 21.5913 19.8497 21.2946 19.8346 21.4298C21.7201 19.796 22.4938 18.5416 24.12 17.2759L25.1529 15.8712C26.8543 14.305 27.1698 14.2937 26.2534 15.3716C26.7003 14.9022 27.0797 14.4702 27.444 14.166C28.0149 14.1735 25.3783 16.0214 25.059 16.8289L26.1933 15.6571C26.8844 15.3491 23.6543 18.5115 22.1595 19.9876C20.383 21.5763 18.8093 23.0824 18.5614 23.0599L20.7623 20.75C19.4853 21.8092 17.9379 23.6946 16.6159 24.9941C16.5107 25.0655 16.3642 25.1782 16.2065 25.3209C16.2816 25.2683 16.3342 25.2458 16.3492 25.2533C16.06 25.5237 15.7971 25.7603 15.553 25.9406C14.7079 26.7669 13.6375 27.9162 12.6835 28.8777L12.7361 28.9378C13.6074 28.1227 14.3962 27.4542 13.8516 28.1453C13.4872 28.5284 13.183 28.8401 12.8938 29.1293L13.8666 30.3011C14.4225 29.6026 15.1436 28.795 17.0853 27.1612L16.8825 27.2439C24.8036 19.428 33.0252 11.3904 41.0251 3.48063C41.3594 3.49566 41.7537 3.49566 42.1106 3.48063C42.7641 3.30786 43.5678 3.12007 44.3791 3.075C44.7284 3.15763 45.9603 3.2027 47.3124 3.28533C37.104 13.321 26.3135 23.7397 16.875 33.411C16.7961 33.3734 16.721 33.3359 16.6309 33.2908C16.6985 33.3584 16.7436 33.411 16.8112 33.4786C16.7586 33.5312 16.706 33.5913 16.6459 33.6438L18.1257 35.4166C17.5961 35.0373 17.153 34.887 16.1839 33.6589C16.9276 34.688 16.6309 34.6204 16.0375 34.1208C16.9126 35.2175 18.7041 37.5199 18.5426 36.9903L18.2572 36.5659C18.4375 36.5809 18.9708 37.1405 19.26 37.3847C20.4806 38.8607 19.6543 38.2147 19.8196 38.579C21.7877 41.0767 20.383 38.4513 22.2271 40.6973L22.4187 41.0767C22.9708 41.6288 23.5867 42.3612 24.1651 42.7856C24.3604 42.8532 24.552 42.718 24.6571 42.5677C24.7736 42.4325 24.8862 42.2936 24.9839 42.1734C25.183 41.933 25.3031 41.7114 25.3332 41.5687L25.3933 41.5386C26.4111 40.9339 27.6581 39.2213 28.8487 38.5415C29.3069 38.8457 27.1247 40.2579 25.5022 41.8241C25.198 42.1133 24.9163 42.3875 24.6571 42.6353C24.4318 42.9846 24.0111 42.8382 23.8985 42.6954C24.1501 43.0522 24.383 42.9846 24.3379 43.0447C24.3229 43.0973 24.0825 43.1499 23.906 42.9997C23.5116 42.8006 22.828 42.2034 22.5238 41.9255C23.0158 42.5076 23.5492 42.9696 24.0262 43.2626C24.3754 43.4466 24.6722 43.1499 24.9013 42.9245L25.6524 42.2485C26.0017 41.8466 26.4261 41.4109 26.7229 41.0992C27.0646 40.9039 28.3491 40.2654 28.8411 39.5105L28.5444 39.7358C29.9604 38.4964 29.367 38.549 30.7566 37.6701C31.0008 37.5725 30.659 37.9593 30.5801 38.072C31.8421 37.2457 31.5078 37.2081 32.3116 36.5959C33.6111 35.826 31.8496 37.2607 32.9425 36.641C34.2796 35.4917 35.3425 35.2889 36.6796 34.6429C36.3003 34.5828 37.5923 33.8129 38.6477 33.2607C39.3087 32.934 39.8533 32.6448 39.7857 32.5772C40.3866 32.3819 40.9763 32.2091 41.5697 32.0551C41.0477 32.3443 40.6195 32.6147 41.1077 32.6523C40.1801 32.9114 39.2786 33.2232 38.3735 33.5687C38.6927 33.7227 40.0524 33.0917 41.6599 32.5922C43.2561 32.0626 45.1227 31.7922 46.073 32.0476C46.8241 32.0251 47.1058 32.0251 47.564 32.0626C48.0185 32.0852 48.642 32.1528 50.0241 32.487C49.8927 32.2992 49.75 32.1227 49.6035 31.9575C51.0795 32.2992 51.4814 32.6598 51.5265 32.7687C52.3678 32.9415 53.1077 33.1894 53.8438 33.4936C53.6222 33.4861 53.318 33.4485 52.826 33.2983C53.7725 33.8955 54.0842 33.9105 54.4898 33.9556C55.0795 34.0683 55.8645 34.5077 56.6457 34.9697L55.8494 34.718C56.3565 34.9396 56.9424 35.2664 57.0325 35.2438C57.3443 35.4466 57.6335 35.642 57.9227 35.8335C57.7762 35.6344 57.4795 35.0222 56.3865 34.2448C59.2485 36.1189 61.1489 38.2673 61.8926 41.0541C61.7161 41.0015 61.1189 40.01 61.2391 40.333C61.7799 41.5987 62.3546 43.0072 62.5311 42.8382C62.6513 43.1424 62.6588 43.3978 62.7039 43.6119C62.6287 43.9048 62.5987 44.2466 62.6438 44.9114C62.6137 45.0729 62.5912 45.3283 62.5987 45.8128C63.1245 46.2898 62.6513 48.9977 62.6137 49.5837C62.7827 48.9677 62.963 48.1902 62.963 47.379C63.1546 48.5395 63.1846 49.6663 62.7264 50.4738C63.0832 48.3555 61.7499 52.5245 62.5161 49.4447C62.0053 50.4513 61.9903 50.7179 61.9677 51.0409C61.9527 51.3602 62.0203 51.7545 61.3367 52.7311C61.025 53.1404 60.6457 53.486 60.3039 53.8578C60.2813 53.685 60.6006 53.178 60.9048 52.7536C61.1565 52.2841 61.3931 51.8973 61.2616 52.0174C61.0889 52.3142 60.9649 52.6409 60.7621 52.9113C60.9724 52.4419 61.5884 51.3902 61.9602 50.0682C62.3771 48.7499 62.4485 47.1536 62.2419 45.9555C62.2494 47.563 61.9978 49.1292 61.4231 50.5264C60.6381 53.3207 58.0353 55.7432 54.9142 56.9C53.3631 57.5122 51.7255 57.8691 50.1518 58.1019C48.5856 58.3536 47.0532 58.3836 45.596 58.5489L45.8401 58.5414C45.7387 58.5639 45.6861 58.6165 45.611 58.7141L45.3519 58.6465L44.2138 58.8531C42.9293 58.6014 40.5143 58.5489 38.4636 58.3536C39.7556 58.5188 39.7556 58.5188 39.8758 58.7141C39.6279 58.9808 39.4289 59.0935 37.5059 58.9958C37.4909 58.808 38.6702 58.8155 37.258 58.6615C37.9866 58.7554 37.3406 58.8906 36.5031 58.9132C36.0712 58.8606 34.9707 58.808 34.1669 58.778C33.3519 58.808 32.89 58.9432 32.7998 58.9132C33.2768 58.624 33.8552 58.5939 34.3547 58.6165C34.7115 58.5939 33.9303 58.5188 33.4233 58.6014C32.9425 58.6841 32.5632 58.7479 33.4233 58.3911C33.0026 58.5263 32.6383 58.5864 32.3416 58.9883C32.1313 59.3451 32.0486 59.7207 31.9698 60.1902C31.8421 61.0089 31.797 60.7197 31.767 60.2503C31.7444 59.792 31.8721 59.3 31.7294 59.5705C31.5529 60.1226 31.6355 60.8287 31.6505 61.4183C31.6655 61.7188 31.6768 62.008 31.6918 62.2934C31.7069 62.47 31.7219 62.6427 31.7369 62.808C31.8045 63.4615 31.8721 64.0587 31.9397 64.6559C32.0787 65.8352 32.2214 66.9807 32.2815 68.4418C32.1839 68.3028 31.7594 68.2728 31.8871 68.3028C31.7594 70.5526 32.3416 73.1178 32.3829 75.6755C32.2515 75.3037 32.304 74.3422 32.2439 73.5723C32.2064 75.5215 32.1763 77.3919 32.1388 79.2098C32.1388 79.7318 32.1313 80.2614 32.1238 80.7835C32.1162 81.4332 32.0712 82.1506 32.2289 82.6877C32.3116 82.9619 32.3341 83.1947 32.5482 83.4314C32.7698 83.6717 33.0101 83.7093 33.2693 83.8032C33.7801 83.991 34.4787 83.9759 35.1397 83.9835C36.9763 84.0285 38.8054 84.0736 40.6608 84.1187C42.4223 84.1938 44.1988 84.2802 46.0429 84.3553L47.9509 83.9234C48.5631 84.0435 49.1866 84.1337 49.7875 84.2727C53.4419 84.6257 56.5217 85.5046 58.7339 87.3111C59.8344 88.2125 60.702 89.3618 61.3217 90.7252C61.9226 92.1036 62.2569 93.6773 62.4109 95.3862C62.5236 97.527 62.1367 96.667 61.9903 97.6435C61.8325 99.9045 61.5208 101.23 61.1489 102.53C60.702 103.788 60.1536 105.058 58.6025 106.549C58.9518 106.034 59.3724 105.125 58.0804 106.323C57.8889 106.594 57.8663 106.935 56.841 107.495C56.9875 107.352 57.1452 107.228 57.2692 107.071C56.2814 107.442 55.5452 108.197 53.3706 108.798C49.5884 109.91 45.5359 110.211 42.0655 110.18C38.4261 109.501 42.5199 109.812 41.8439 109.576C44.3716 110.098 43.6279 109.703 44.1838 109.628C42.8317 109.658 41.1754 109.471 40.5744 109.001C38.7378 108.629 37.9566 108.329 36.1388 107.882C37.0514 108.107 37.75 108.532 36.8787 108.366C35.4251 107.829 31.8796 106.034 32.289 105.771C30.3773 104.663 28.5144 103.311 26.7078 101.79C25.7801 101.001 24.9689 100.269 23.9736 99.3298C23.1924 98.65 22.4187 98.158 21.6262 97.5608C21.2994 97.2116 20.6947 97.3392 20.368 97.4745C19.9961 97.6134 19.568 97.8538 19.1886 98.2407C15.4065 102.154 11.5643 106.124 7.79714 110.023C6.74926 111.394 8.75488 109.136 8.20277 109.918C6.65912 111.886 6.74174 111.232 5.50607 112.813L5.92297 112.073C4.8826 113.125 3.8873 114.289 2.91454 115.465L1.84412 116.78L1.31455 117.399C0.935206 117.824 0.552109 118.256 0.371829 118.687C0.13521 119.052 0.120187 119.679 0.371829 120.043C0.157746 119.784 0.296712 120.389 0.574645 120.851C0.848822 121.26 1.03286 121.531 0.476993 120.881C0.33427 120.701 0.142722 120.411 0 120.043C0.0976525 120.314 0.210327 120.61 0.386852 120.911C0.646005 121.335 0.88638 121.805 1.15305 122.304C1.29952 122.646 1.39717 122.984 1.5399 123.288C1.8291 123.893 2.12581 124.445 2.52768 124.749L2.17839 122.849C2.30609 122.849 3.62064 124.408 3.53801 124.212C4.22908 125.294 5.23189 126.503 5.85537 127.123C5.99058 127.623 4.43566 126.026 3.56054 125.174C3.12111 125.339 6.33987 128.254 4.79246 127.292C6.78682 129.009 4.63847 126.905 5.93048 127.822L7.60935 129.373L6.35489 128.122C7.87601 129.283 8.58962 129.403 10.4638 131.112L12.8488 132.224C12.8638 132.678 14.4149 133.294 15.5154 134.034L14.6854 133.79C16.2065 134.714 16.8037 135.063 17.7238 135.698C16.6985 135.48 16.3342 134.883 15.8271 134.913L17.5022 135.927C17.5886 135.75 18.7567 136.205 17.5736 135.45C19.3426 135.972 20.3154 136.227 24.4618 137.97C26.2308 139.037 22.3172 137.41 22.9783 138.023C25.1229 139.007 26.5651 139.285 27.7632 139.446C28.9576 139.649 29.9341 139.664 31.2336 140.058C32.8824 140.633 33.7162 140.701 34.5313 140.843C35.3425 140.982 36.1726 141.08 37.9115 141.335C36.7622 141.38 40.3115 141.974 40.9462 142.184L39.519 142.267C40.4617 142.304 41.3519 142.454 41.3669 142.578C41.889 142.409 46.1556 142.751 48.3828 142.417L47.9509 142.177C48.8899 142.101 50.0241 142.011 51.1621 141.917C52.2927 141.782 53.4419 141.632 54.441 141.572C57.3969 141.208 56.6832 140.96 58.8842 140.344C60.1687 140.359 60.0936 140.648 59.7217 140.997C58.9067 141.005 57.5884 141.298 56.2814 141.44C54.4185 141.737 52.7734 142.109 51.1021 142.394C49.4232 142.586 47.7443 142.789 45.8401 142.729C44.995 142.995 45.6486 143.04 46.734 142.947C47.8119 142.849 49.3255 142.684 50.2495 142.759C50.1969 142.796 50.0692 142.811 49.9227 142.826C50.0917 142.819 50.2345 142.819 50.3884 142.826C49.0288 142.947 46.8091 143.123 46.4298 143.446C48.7321 143.303 48.0786 142.774 50.9255 142.947C53.0138 142.624 54.7603 142.894 56.0448 142.819C57.4119 142.402 57.3893 141.872 60.7997 141.403L59.3724 141.996C61.2992 141.692 61.7273 141.448 62.1067 141.223C62.4935 141.005 62.8353 140.791 64.5893 140.374C63.3499 140.633 65.6823 139.762 63.3574 140.314C63.9057 140.088 64.8071 139.807 65.81 139.551C66.8053 139.232 67.8907 138.883 68.8334 138.642C69.2954 138.439 68.8935 138.5 68.9461 138.353C66.8353 138.785 65.7874 139.641 63.9733 139.686L62.6137 140.396C60.6381 140.731 60.3903 140.46 61.5433 140.058C61.0025 140.216 60.5255 140.329 60.1086 140.336C59.887 140.081 60.4879 140.058 61.209 139.968C61.9226 139.852 62.7677 139.724 63.0456 139.416L61.6935 139.777C61.025 139.536 64.7996 138.77 66.5161 138.24C68.4916 137.786 70.2907 137.286 70.5123 137.478L67.9395 138.432C68.6456 138.316 69.4719 138.015 70.3132 137.688C71.1357 137.316 71.9545 136.881 72.6982 136.592C72.8071 136.584 72.9573 136.554 73.1414 136.501C73.055 136.509 73.0024 136.501 72.9874 136.479C73.3141 136.366 73.6033 136.28 73.87 136.235C75.2071 135.788 76.9122 134.586 78.1366 134.109L77.8775 133.974L77.7873 134.169C76.6343 134.744 75.023 135.397 75.8043 134.804C76.116 134.624 76.3902 134.473 76.6418 134.338C76.6644 134.331 76.6944 134.316 76.7169 134.304C76.7169 134.304 76.7169 134.304 76.7169 134.297C78.4859 133.392 79.1395 133.497 79.7254 133.309C79.361 134.019 77.2089 134.616 75.9658 135.412C76.4352 135.375 77.1038 135.048 78.0014 134.586C78.9103 134.154 79.9883 133.489 81.3254 132.768C80.916 133.253 80.1723 133.722 79.4812 134.147C78.7526 134.511 78.0916 134.838 77.87 135.146C80.1197 134.139 80.454 133.444 82.7 132.194C82.5272 132.52 80.4014 133.869 80.6568 133.981L82.1329 133.193C78.6625 135.39 83.0042 133.223 80.315 135.01C81.6972 134.338 81.9563 133.617 83.9244 132.671C83.3084 132.855 81.6897 133.504 83.3385 132.287C84.0296 131.923 84.6305 131.424 85.284 130.999C86.1779 130.552 83.5901 132.824 84.8972 132.021L86.7713 130.417C86.6286 130.372 85.6634 131.044 86.1479 130.47C86.7413 130.083 87.1357 129.643 87.515 129.159C87.8643 128.629 88.1986 128.047 88.7319 127.42C89.6784 126.518 90.4708 125.831 90.8802 125.579C91.7854 124.16 93.0286 122.759 93.9788 121.185C94.8577 119.574 95.9243 118.105 96.3412 116.622C95.6577 118.582 96.7281 116.734 97.4267 115.683C96.4314 117.861 96.7431 118.068 97.0248 118.023C97.6408 116.659 97.7159 115.63 97.2802 116.242C97.8736 115.176 98.0051 114.766 98.1177 114.398C98.253 114.034 98.3619 113.707 98.7938 112.723C99.3459 111.439 98.914 113.512 99.1957 113.103C100.044 110.567 98.9966 112.269 99.9769 109.553C99.9769 109.711 99.9093 109.97 100.044 109.771C100.555 108.291 100.6 106.579 100.51 106.233C101.412 104.697 101.002 101.632 101.453 101.993C101.551 98.2407 101.164 102.537 101.04 101.79Z" fill="#719C00"/>
</svg>
