<svg width="143" height="167" viewBox="0 0 143 167" fill="none" xmlns="http://www.w3.org/2000/svg">
<path d="M86.4179 162.545C94.828 161.827 103.379 162.642 111.846 162.051C118.104 161.65 124.309 162.069 130.457 163.304L130.483 163.282C131.017 163.211 131.529 163.07 132.018 162.854C132.503 162.634 132.953 162.351 133.354 161.999C133.76 161.65 134.104 161.249 134.391 160.795C134.673 160.34 134.885 159.86 135.026 159.344C135.48 154.81 135.066 150.36 133.782 145.99C133.698 145.642 133.5 145.386 133.187 145.214C133.191 138.621 131.793 132.336 128.997 126.361C124.442 117.655 110.881 114.326 102.682 110.718C101.571 110.229 100.076 111.102 99.0131 112.341C98.0297 112.689 97.2359 113.285 96.6229 114.127C92.1114 120.411 77.8536 120.332 70.9694 120.226C60.9056 120.072 54.1009 117.28 46.7052 110.727C46.3612 110.431 45.9643 110.299 45.5145 110.326C46.1583 108.87 46.0657 107.583 44.3767 107.768C41.7218 108.041 39.1198 108.562 36.562 109.325C34.0042 110.088 31.5433 111.075 29.1751 112.297C26.8025 113.519 24.5666 114.947 22.463 116.584C20.3594 118.22 18.4278 120.037 16.6681 122.034C7.56574 132.389 6.93068 145.822 1.2902 157.853C-0.204821 161.046 2.5603 160.909 4.69478 159.542C4.73006 159.802 4.84031 160.023 5.02994 160.204C5.21958 160.389 5.44449 160.49 5.70468 160.517C32.0373 165.425 58.5639 166.704 85.1478 166.325C84.8127 166.043 84.5833 165.685 84.4687 165.262C84.3496 164.843 84.3628 164.424 84.4995 164.005C84.6407 163.591 84.8876 163.251 85.236 162.982C85.5844 162.717 85.9813 162.572 86.4179 162.545Z" fill="#40530E"/>
<path d="M102.131 41.1683C101.201 39.7571 99.3749 40.3613 97.9946 41.5961C97.7785 41.4329 97.5403 41.3359 97.2713 41.305L98.9163 35.7219C99.397 34.0901 98.0254 33.3581 96.6407 33.6756C96.5613 33.6932 96.4863 33.7285 96.4069 33.755C92.6716 30.249 88.7246 25.8653 83.8515 24.3306C78.2462 22.5666 70.3346 23.3736 64.5882 23.872C54.67 24.7275 45.0163 30.2093 43.2876 40.6788C43.239 40.9434 43.2258 41.2124 43.239 41.4814C43.4199 41.4594 43.6007 41.4682 43.7771 41.5167C43.9579 41.5652 44.1166 41.6446 44.2622 41.7593C44.4077 41.8695 44.5268 42.0062 44.6194 42.165C44.7076 42.3238 44.7649 42.4913 44.7914 42.6722C45.2148 42.5972 45.6161 42.4605 45.9953 42.262C45.8278 42.606 45.7396 42.9676 45.7307 43.3469L45.7351 43.3998C45.6469 43.3381 45.5587 43.2896 45.4617 43.2543C45.2412 43.1881 45.0119 43.1617 44.7826 43.1749C44.7385 43.466 44.6238 43.7218 44.443 43.9511C44.2225 44.2201 43.9711 44.4759 43.7374 44.7361C43.7683 45.2432 43.6139 45.6842 43.2699 46.0635C42.2953 47.2983 41.1531 48.3435 39.8345 49.2035C39.7419 49.4019 39.636 49.5916 39.5169 49.7768C39.367 50.5265 39.3494 51.2806 39.4596 52.0347C39.4949 52.1053 39.539 52.1715 39.5743 52.2508C40.4739 54.1913 41.6029 55.9862 42.9568 57.64C43.2523 57.5341 43.5522 57.5165 43.8565 57.5914C44.1607 57.6664 44.4165 57.8208 44.6282 58.0545C45.3603 58.8924 45.8674 59.8494 46.1585 60.9211C46.2732 60.8417 46.379 60.7579 46.4805 60.6697C46.7892 60.3654 47.0626 60.0346 47.3007 59.6774C47.6535 61.5517 48.0901 63.4172 48.6061 65.2518C48.5311 65.534 48.4826 65.8207 48.4606 66.1117C48.4297 66.5836 48.4253 67.0555 48.4253 67.5274C48.5664 67.7038 48.6634 67.9022 48.7208 68.1227C48.9104 68.8548 49.1177 69.5869 49.3161 70.3189C51.8343 72.7621 54.864 77.4368 55.2741 81.4059C55.4109 81.3838 55.5432 81.3485 55.6711 81.3088C55.5652 81.4852 55.4726 81.6705 55.3976 81.8645C55.3579 81.966 55.3315 82.0762 55.3006 82.182C55.3138 82.676 55.2697 83.1655 55.1771 83.6506C55.2036 83.8138 55.2565 83.9637 55.3271 84.1137C54.9919 84.6164 54.8155 85.1721 54.8023 85.7763C54.939 89.5336 54.8199 93.2866 54.4362 97.0264C54.0967 100.634 53.982 101.833 50.7141 103.756C49.4484 104.501 47.5168 106.402 47.8696 108.065C48.1827 109.538 49.4043 109.785 50.6347 109.216C50.5818 109.577 50.6568 109.908 50.8552 110.213C51.0493 110.517 51.3227 110.724 51.6711 110.826C58.3127 113.132 65.8583 115.447 72.9894 114.728C78.0257 114.221 85.1127 112.572 88.6849 108.792C89.4919 107.941 90.4489 106.283 89.9153 105.057L89.7389 104.66C89.6198 104.378 89.4346 104.157 89.1744 103.999C89.148 103.862 89.1039 103.734 89.0465 103.606C87.4898 100.832 86.3167 97.8996 85.5273 94.8169C84.7335 91.0463 85.7522 87.5844 86.8415 83.9902C86.9782 83.9064 87.1017 83.8094 87.234 83.7212C87.6573 81.3 88.4159 78.9847 89.5052 76.7753C91.5426 72.1227 94.8017 67.6905 96.4731 62.9276C96.623 62.5131 96.8921 62.1912 97.2757 61.9662C97.2184 61.8031 97.139 61.6531 97.0288 61.5164C98.0563 59.5054 98.6914 57.3798 98.9383 55.135L98.881 54.9719C98.806 54.769 98.7752 54.5573 98.784 54.3412C98.7972 54.1295 98.8545 53.9223 98.9516 53.7326C99.053 53.5386 99.1853 53.3754 99.3529 53.2387C99.5249 53.102 99.7145 53.005 99.9218 52.952C101.809 49.4549 104.596 44.9125 102.131 41.1683Z" fill="#B26752"/>
<path d="M120.653 53.9476C120.371 53.3831 119.996 52.898 119.52 52.4834C119.048 52.0689 118.514 51.7602 117.919 51.5529C117.324 51.35 116.715 51.2618 116.085 51.2927C115.454 51.3236 114.854 51.4735 114.285 51.7381C114.118 51.8131 113.95 51.8969 113.782 51.9851C115.322 49.9123 116.257 47.5926 116.601 45.0348C117.13 40.9643 117.037 32.8586 110.713 34.8475C110.51 34.9181 110.316 35.0019 110.127 35.1033C110.356 34.5873 110.422 34.0537 110.325 33.5024C110.206 33.0041 110.06 32.5146 109.884 32.0339C110.263 27.7032 110.356 22.7992 106.907 19.6195C106.109 18.8654 105.178 18.3318 104.116 18.0275C103.057 17.7232 101.981 17.6791 100.901 17.8952C100.932 16.7706 100.724 15.6945 100.279 14.6626C99.8334 13.6262 99.1939 12.7354 98.356 11.9857C94.7883 8.80159 90.8148 9.68802 87.3926 11.8666C82.9208 2.92737 75.2781 -2.16186 65.0732 2.05417C61.1085 3.57565 57.7921 5.98796 55.1284 9.2867C54.4625 9.19409 53.801 9.20291 53.1351 9.31757C49.8893 9.89529 47.0183 11.2668 44.531 13.4322C42.9699 14.7376 41.713 16.2943 40.7604 18.0892C39.8078 19.8885 39.2301 21.8025 39.0272 23.8223C37.2412 24.1884 35.5565 24.819 33.9777 25.7275C32.3989 26.6315 31.0053 27.7649 29.7925 29.1232C28.8885 30.0979 28.174 31.196 27.6537 32.4176C27.1333 33.6436 26.8378 34.9181 26.7628 36.2411C25.259 37.1011 23.9316 38.1727 22.7717 39.4604C21.6163 40.7482 20.6901 42.1815 19.9978 43.7647C18.5998 46.984 18.5116 51.1648 20.5711 53.8814C19.7287 54.931 19.1113 56.0953 18.7188 57.383C18.3308 58.6663 18.194 59.9805 18.3131 61.3168C18.8732 66.6839 23.8522 70.2296 28.4739 72.0906C28.5665 72.1215 28.6592 72.1391 28.7562 72.1524C28.5665 73.0785 28.5401 74.009 28.6768 74.9439C28.8135 75.8745 29.1002 76.7609 29.5456 77.5944C29.9866 78.4279 30.5599 79.1644 31.2567 79.7994C31.9535 80.4389 32.7385 80.9372 33.6117 81.3033C35.3228 82.0442 37.1133 82.3926 38.9787 82.3529C41.4263 84.6108 44.0283 87.5082 47.1771 88.4211C47.1771 88.4785 47.1815 88.5402 47.1815 88.5975C47.133 90.3792 49.2233 90.1367 50.2818 89.5854C50.9741 89.2149 51.5563 88.7166 52.0282 88.0904C52.7867 87.742 53.4262 87.2392 53.951 86.5954C54.4757 85.9471 54.833 85.2194 55.0182 84.408L55.0799 83.795C55.2299 83.1423 55.0888 82.5601 54.6566 82.0486C54.6654 81.9119 54.6654 81.7796 54.6522 81.6428C54.6786 81.4753 54.7051 81.3121 54.7183 81.1445C54.6742 79.0056 54.1935 76.977 53.2674 75.0542L50.7933 68.223C50.7228 68.0289 50.6213 67.8569 50.4846 67.707C50.7536 67.2792 50.8771 66.8162 50.8507 66.3134C50.8242 65.8107 50.6566 65.3608 50.3479 64.9639C48.2046 62.7368 44.6986 62.4855 42.3745 60.2055C40.8222 58.6707 39.7681 56.8494 39.2125 54.7458C39.4109 54.2739 39.5124 53.7844 39.5212 53.2772V49.4052C39.5344 49.3655 39.5476 49.3214 39.5653 49.2817C41.4837 49.3919 44.4869 46.5078 44.0724 44.5541L42.8905 38.9401C43.1198 38.5784 43.3535 38.23 43.5608 37.842C43.5696 37.8287 43.574 37.8111 43.5784 37.7979C47.5387 35.3767 50.639 32.1397 52.8837 28.0869C52.9455 29.1673 53.2718 30.1552 53.8716 31.0593C54.4669 31.9589 55.2519 32.6513 56.2266 33.1276C57.5628 33.6788 59.4106 32.3294 60.4426 30.7373C60.9056 31.1563 61.4172 31.5091 61.9773 31.7869C64.4161 32.9997 68.9496 27.1696 65.942 25.6745C64.3587 24.8896 63.5782 22.7859 63.168 20.5809C63.2915 20.5721 63.4106 20.5721 63.534 20.5677C65.1658 22.7551 67.1239 24.6073 69.3995 26.1156C72.5394 27.959 76.3718 27.8752 79.8954 27.5532C80.0454 27.5356 80.1953 27.5047 80.3409 27.4562C80.8568 28.0736 81.4478 28.5984 82.1269 29.035C82.8017 29.4716 83.5293 29.7936 84.3055 30.0052C85.0817 30.2125 85.8711 30.3051 86.6737 30.2698C87.4764 30.2346 88.257 30.0802 89.0155 29.8068C89.4389 29.6568 89.8358 29.454 90.2062 29.1938C90.1886 30.8829 90.7222 32.3823 91.7982 33.6833C92.764 34.6579 93.893 35.3767 95.1852 35.8398C96.4773 36.3028 97.8048 36.466 99.1675 36.3293C99.2733 36.3205 99.3792 36.3072 99.4806 36.2852C99.3924 36.7659 99.3571 37.251 99.3659 37.7361C98.5809 39.1209 98.4663 40.4792 99.8158 40.6909C99.9657 40.7261 100.12 40.7702 100.266 40.8188C100.548 41.0922 100.883 41.2245 101.271 41.2157C103.15 42.2873 103.644 44.6643 103.525 46.9532C103.361 49.9388 101.447 51.9586 99.7496 54.2254C98.4971 55.7116 97.5093 57.3565 96.786 59.1559C96.0628 60.9552 95.635 62.825 95.5071 64.7611C95.4233 65.2241 95.56 65.6166 95.9128 65.9342C95.7232 66.2914 95.5777 66.6706 95.4762 67.0631C94.6471 70.3663 93.1962 73.3695 91.1191 76.0685C90.3076 76.9858 89.6461 78.0001 89.139 79.1115C89.0243 79.4378 88.9361 79.7686 88.8788 80.1037C88.2393 80.8975 87.8997 81.806 87.86 82.8203C87.8644 83.1379 87.8865 83.451 87.9306 83.7641C87.9086 83.8082 87.8909 83.8479 87.8644 83.8876C87.128 85.0121 86.5635 86.9129 88.0982 87.6009C88.6053 87.7288 89.1037 87.7111 89.602 87.5612C90.1004 87.4112 90.5237 87.1422 90.8721 86.7585C93.3241 86.7497 95.5556 86.0441 97.5622 84.6417C99.9569 83.0717 101.875 81.0563 103.317 78.5911C104.195 78.0266 104.971 77.3474 105.646 76.5536C107.017 74.6749 107.979 72.6066 108.526 70.3486C109.747 70.2384 110.938 69.9738 112.089 69.5548C113.244 69.1315 114.325 68.5714 115.33 67.8702C116.336 67.169 117.236 66.3531 118.025 65.4138C118.819 64.4788 119.476 63.4601 120.001 62.3532C121.218 59.8703 121.941 56.5495 120.653 53.9476Z" fill="#382F2C"/>
<path d="M70.5654 71.3439C69.1762 71.2292 67.7959 71.0308 66.4287 70.7441C66.1994 70.9867 65.9921 71.2513 65.8157 71.5335C65.5291 71.9922 65.3174 72.4817 65.1719 73.0065C66.1024 74.0076 67.1564 74.8543 68.3383 75.5423C69.238 75.9524 70.5478 76.1553 71.712 76.5258C72.4529 76.2567 73.1056 75.8466 73.6701 75.3042C74.239 74.7573 74.6712 74.1178 74.9711 73.3902C75.1739 72.8742 75.2533 72.3318 75.2048 71.7761C75.2092 71.732 75.2092 71.6879 75.2136 71.6438C73.6525 71.7188 72.1045 71.6173 70.5654 71.3439Z" fill="#42191E"/>
<path d="M96.015 106.418C95.9401 106.475 95.8607 106.533 95.7901 106.59C93.3205 108.711 90.5421 110.294 87.4551 111.335C87.4242 111.34 87.4021 111.331 87.3669 111.331C83.486 111.697 79.7374 113.62 75.8345 113.456C74.5644 113.399 73.0606 114.753 72.2138 116.208C71.3009 116.103 70.3925 115.988 69.4884 115.825C64.9592 115.67 60.6771 114.502 56.0641 113.849C55.8172 113.818 55.6055 113.708 55.4335 113.527C54.9881 113.933 54.6044 114.391 54.2825 114.903C50.3884 113.642 47.0587 111.512 45.4667 107.829C44.1966 104.901 38.662 109.809 39.7865 112.402C44.5141 123.322 61.3165 123.481 71.5435 123.141C73.1003 123.088 74.7011 122.969 76.3152 122.784C77.3868 122.748 78.4629 122.682 79.539 122.581C80.002 122.51 80.421 122.343 80.8003 122.074C88.6281 120.495 96.2355 117.037 100.8 110.634C98.908 109.562 97.3116 108.16 96.015 106.418Z" fill="#C0DE73"/>
<path d="M142.025 158.4C139.41 150.453 137.337 142.343 134.779 134.383C132.813 128.262 131 121.131 125.324 117.492C118.422 113.073 109.889 110.075 102.154 107.499C99.5473 106.789 97.0027 105.912 94.5198 104.862C94.2817 104.65 94.0127 104.5 93.704 104.412C92.4559 103.618 91.4284 102.608 90.6169 101.378C89.8055 100.148 89.2806 98.8025 89.0469 97.3471C88.5001 94.7717 88.2355 92.1697 88.2531 89.5369C91.5959 90.6967 95.6444 88.5843 98.3434 86.7233C99.7855 85.828 100.985 84.6814 101.942 83.2834C104.822 83.279 107.38 80.2008 108.539 77.8502C109.58 75.848 109.982 73.7223 109.735 71.482C112.822 72.0509 116.949 68.1127 118.727 66.2208C122.727 61.9739 122.197 57.7535 119.6 52.8759C119.476 52.6113 119.291 52.3996 119.044 52.2409C118.797 52.0777 118.533 51.9983 118.237 51.9895C121.54 49.5948 121.726 44.0513 120.301 40.585C119.895 39.5883 119.353 38.6666 118.678 37.8243C118.003 36.9776 117.227 36.2455 116.341 35.6281C115.459 35.0063 114.506 34.5212 113.483 34.1728C112.46 33.8244 111.406 33.6259 110.326 33.5774C112.253 27.2093 109.258 17.1631 101.819 18.5523C101.779 18.0936 101.708 17.635 101.611 17.1807C101.514 16.7309 101.391 16.2855 101.236 15.8489C101.082 15.4123 100.897 14.9889 100.69 14.5744C100.482 14.1598 100.249 13.7629 99.9883 13.3793C99.7281 12.9956 99.4459 12.6295 99.1416 12.2811C98.8373 11.9327 98.5109 11.6064 98.1625 11.2977C97.8141 10.989 97.4481 10.7067 97.0644 10.4466C96.6808 10.1864 96.2839 9.94821 95.8693 9.74094C95.4548 9.52926 95.0314 9.34844 94.5948 9.18968C94.1582 9.03533 93.7128 8.90743 93.2585 8.806C92.8087 8.70457 92.3501 8.63401 91.887 8.58991C91.424 8.55022 90.9609 8.53699 90.4978 8.55463C90.0348 8.56786 89.5717 8.61637 89.1131 8.69134C88.6588 8.76631 88.2046 8.86774 87.7592 9.00005C87.3138 9.13235 86.8816 9.29111 86.4582 9.47633C86.0304 9.66597 85.6203 9.87765 85.2234 10.1158C78.1673 -1.38128 61.678 0.0387666 55.4068 11.4388C55.2481 11.7299 55.2172 12.0298 55.3054 12.3473C55.398 12.6648 55.5832 12.903 55.8699 13.0705C56.1521 13.2337 56.4564 13.2822 56.774 13.2029C57.0959 13.1279 57.3429 12.9471 57.5193 12.6736C63.517 2.60102 76.0857 2.78625 82.9037 11.7828C82.9257 11.8137 82.9566 11.8269 82.9831 11.8534C82.8419 11.9901 82.6964 12.0959 82.5597 12.2415C81.4351 13.4322 83.2168 15.2227 84.3678 14.0408C84.9544 13.3748 85.6291 12.8148 86.3965 12.3605C87.1638 11.9107 87.9797 11.5888 88.8485 11.3947C89.7172 11.2051 90.5948 11.1522 91.4813 11.2404C92.3677 11.3286 93.2188 11.5491 94.0303 11.9107C94.8462 12.2679 95.5826 12.7442 96.2442 13.3396C96.9101 13.9305 97.4613 14.6141 97.9024 15.3814C98.3478 16.1532 98.6609 16.9691 98.8417 17.8378C99.0225 18.7066 99.0622 19.5842 98.9652 20.4662C98.9652 20.6912 99.0181 20.9073 99.1195 21.1057C99.2166 21.3086 99.3577 21.4762 99.5385 21.6129C99.7193 21.7496 99.9222 21.8422 100.143 21.8863C100.363 21.9304 100.584 21.9216 100.804 21.8598C108.914 18.4553 107.23 30.0405 107.344 34.0713C107.344 34.1816 107.358 34.2918 107.384 34.4021C107.41 34.5123 107.455 34.6182 107.507 34.7196C107.56 34.8166 107.627 34.9093 107.706 34.9886C107.785 35.0724 107.874 35.143 107.971 35.2003C108.068 35.2577 108.169 35.3062 108.279 35.337C108.39 35.3679 108.5 35.3855 108.61 35.39C108.725 35.3944 108.839 35.3811 108.95 35.3547C109.06 35.3282 109.166 35.2885 109.263 35.2356C109.399 35.5355 109.624 35.7163 109.946 35.7869C110.775 35.9412 111.569 36.1882 112.337 36.541C113.104 36.8894 113.814 37.3304 114.467 37.8552C115.124 38.3844 115.706 38.9842 116.209 39.6545C116.716 40.3292 117.13 41.0525 117.452 41.8287C118.753 45.489 117.047 48.1395 116.231 51.5838C116.173 51.8087 116.209 52.0159 116.336 52.21C116.46 52.3996 116.636 52.5143 116.866 52.554C116.566 52.823 116.385 53.1537 116.319 53.5507C116.253 53.9476 116.319 54.3224 116.517 54.6708C118.436 58.2871 118.912 60.9552 115.851 64.0555C114.339 65.5858 111.75 68.0201 109.483 68.0907C109.02 68.1216 108.632 68.3112 108.328 68.664C108.16 68.6155 107.993 68.6067 107.821 68.6375C107.649 68.664 107.494 68.7301 107.353 68.8316C107.212 68.933 107.097 69.0609 107.018 69.2152C106.934 69.3652 106.89 69.5284 106.886 69.7048C106.846 72.1524 106.983 74.3662 105.739 76.6021C104.897 77.9252 103.812 79.01 102.493 79.8612C102.414 79.5481 102.308 79.2482 102.176 78.9527C102.039 78.7322 101.849 78.5734 101.607 78.4764C101.364 78.3794 101.117 78.3662 100.866 78.4367C100.61 78.5029 100.407 78.6396 100.244 78.8469C100.081 79.0497 99.9971 79.2835 99.9927 79.5437C100.284 82.2294 97.1923 83.8744 95.1372 84.924C92.9322 85.8633 90.6301 86.3484 88.231 86.3837C88.231 84.9989 88.231 83.6318 88.1825 82.3308C88.1781 82.1809 88.1428 82.0398 88.0723 81.9119C93.5187 76.0729 96.2177 67.4689 97.6818 58.6311C104.676 56.0115 109.025 39.5972 99.5032 40.3116C99.5914 38.8916 99.6796 37.5156 99.7678 36.2102C99.781 36.0867 99.7766 35.9633 99.7546 35.8398C99.7369 35.7163 99.7017 35.6016 99.6532 35.487C99.6002 35.3723 99.5385 35.2665 99.4635 35.1694C99.3841 35.068 99.2959 34.9842 99.1989 34.9093C99.1019 34.8299 98.9961 34.7681 98.8814 34.7196C98.7667 34.6711 98.6477 34.6358 98.5242 34.6182C98.4007 34.6005 98.2772 34.5961 98.1537 34.6094C98.0302 34.6182 97.9068 34.6491 97.7921 34.6888C96.4338 34.1507 95.1902 33.4231 94.0524 32.5102C93.4394 31.9016 92.9895 31.1916 92.6985 30.3801C92.4074 29.5642 92.3104 28.7307 92.3986 27.8708C92.5662 26.2346 89.8187 25.8598 89.51 27.4827C89.4659 27.6988 89.4438 27.9193 89.4174 28.1398C86.5773 28.4176 80.756 29.7936 81.3866 25.2732C81.5542 24.0913 80.3591 22.6713 79.1154 23.5268C74.0659 26.9888 68.4519 25.7142 65.0076 20.7529C64.84 20.4839 64.5974 20.3075 64.2843 20.2325C63.9756 20.1575 63.6801 20.1972 63.4067 20.3604C63.1289 20.5236 62.9481 20.7573 62.8599 21.0616C62.7761 21.3703 62.8069 21.6658 62.9613 21.948C63.2788 22.6448 63.6669 23.3019 64.1212 23.9237C64.571 24.5412 65.0826 25.1145 65.6515 25.6305C66.2204 26.1464 66.8334 26.6051 67.4949 26.9976C68.152 27.3945 68.8443 27.7208 69.572 27.9766C70.2997 28.2324 71.0406 28.4132 71.8035 28.5191C72.5665 28.6249 73.3294 28.6558 74.1012 28.6073C74.8685 28.5632 75.6226 28.4397 76.3679 28.2412C77.1088 28.0428 77.8277 27.7737 78.5156 27.4298C79.7064 31.6458 85.5277 32.616 89.4703 30.583C89.7305 32.1706 90.4052 33.5598 91.4813 34.7549C92.0943 35.4826 92.8175 36.0691 93.6554 36.5145C94.4934 36.9599 95.3842 37.2378 96.328 37.3392C94.9961 52.6995 95.6532 77.1005 79.7769 84.7387C67.217 90.7805 55.7773 82.7321 52.0155 70.5339C49.0828 61.0169 47.6583 50.9399 45.2592 41.273C44.9461 40.0029 43.1159 40.5586 43.3232 41.8066C43.5349 43.037 43.7378 44.3424 43.9495 45.6963C39.2836 44.9995 38.428 51.3412 39.1557 54.8957C39.8701 58.3665 42.9969 64.5803 47.2261 63.5218C48.8623 70.2384 51.1688 76.6947 54.7497 81.4885C54.5557 81.5326 54.3925 81.6296 54.269 81.7884C54.1411 81.9471 54.0794 82.128 54.0838 82.3264C54.0221 84.0949 53.978 85.8589 53.9162 87.6229C51.7862 87.4245 49.5899 87.8522 47.4555 87.2878C46.7322 87.1422 46.0487 86.882 45.4136 86.5072C44.7785 86.1367 44.2185 85.6693 43.7378 85.1092C43.2615 84.5491 42.8866 83.9229 42.6176 83.2393C42.3442 82.5557 42.1942 81.8413 42.1634 81.1092C42.1546 80.849 42.0619 80.6241 41.8899 80.4345C41.718 80.2449 41.5019 80.1302 41.2461 80.0949C40.9903 80.064 40.7521 80.1126 40.5361 80.2537C40.3155 80.3904 40.17 80.58 40.0906 80.827C40.0245 81.0298 39.9716 81.2327 39.9231 81.4312C37.0124 81.3077 34.1944 81.0431 31.8879 79.0012C31.3278 78.5161 30.8515 77.956 30.459 77.3298C30.0621 76.7036 29.7622 76.0332 29.5594 75.3232C29.3609 74.6088 29.2639 73.8811 29.2727 73.1402C29.2815 72.3993 29.3962 71.6761 29.6123 70.9705C29.9078 69.9517 28.3113 69.2152 27.8527 70.2296C27.8218 70.2913 27.813 70.3531 27.7821 70.4148C22.7502 67.3851 14.693 58.9133 23.4249 54.0931C23.6102 53.9828 23.7601 53.8373 23.8792 53.6565C23.9983 53.4757 24.0688 53.2772 24.0997 53.0655C24.1262 52.8494 24.1041 52.6422 24.038 52.4349C23.9674 52.232 23.8615 52.0512 23.7072 51.8969C18.1814 46.0271 23.2089 43.4383 25.7094 38.4373C25.7182 38.5299 25.7182 38.6269 25.7314 38.724C25.8725 39.9323 27.6851 40.8364 28.3466 39.4296C28.9464 38.1551 28.8714 37.3965 28.4216 36.9776C28.3025 30.5741 32.4039 26.3361 39.0631 25.5775C39.1777 25.6481 39.3056 25.6966 39.4379 25.7142C39.5747 25.7319 39.7114 25.7231 39.8393 25.6834C39.9716 25.6437 40.0906 25.5819 40.1965 25.4937C40.2979 25.4055 40.3817 25.2997 40.439 25.1762C42.0972 21.5158 40.858 17.2954 43.8524 14.0011C46.6572 10.9184 50.5513 10.6715 54.3616 11.4741C54.6174 11.5314 54.8556 11.505 55.0893 11.3903C55.323 11.2712 55.4862 11.0948 55.5877 10.8567C55.6891 10.6185 55.7023 10.376 55.6229 10.1246C55.5435 9.87765 55.398 9.68802 55.1775 9.55131C51.4422 7.30658 46.3 8.27679 43.0013 10.8964C42.1413 11.6814 41.3828 12.5502 40.7213 13.5071C40.0642 14.4641 39.5217 15.4829 39.094 16.5633C38.6706 17.6438 38.3707 18.7595 38.2031 19.9106C38.0355 21.0572 38.0003 22.2126 38.0929 23.3681C30.6178 23.7077 25.6432 29.4408 25.6256 36.7306C24.254 37.0085 22.9928 37.5465 21.8373 38.3403C17.2597 42.1682 17.4228 48.1483 20.6378 52.5584C12.3909 58.5252 19.3148 69.0609 26.6223 72.9021C26.7634 72.9726 26.9133 73.0167 27.0721 73.0388C26.3797 79.4599 33.4094 84.5403 39.8172 83.8655C40.6684 89.1223 48.6682 91.861 53.7795 90.8687C53.709 92.2447 53.6252 93.6206 53.4973 94.9922C52.7299 103.182 48.214 104.866 41.4357 107.058C33.2594 109.7 24.2144 112.835 16.9421 117.497C11.553 120.95 9.81545 127.353 7.88824 133.179C5.08344 141.624 2.94014 150.277 0.144148 158.727C-0.345371 160.204 1.48481 160.985 2.48149 160.244C12.6423 163.498 23.6499 164.213 34.1944 165.333C46.2824 166.488 58.3925 166.978 70.5334 166.801C94.2067 166.894 117.682 164.799 140.958 160.504C141.029 160.495 141.099 160.482 141.17 160.464C141.372 160.424 141.58 160.394 141.787 160.354C142.735 160.164 142.726 158.797 142.025 158.4ZM44.6066 59.0588C43.8216 58.2783 43.1468 57.4139 42.5823 56.4613C41.4489 54.5429 39.4027 46.9047 44.2449 47.7514C44.2537 47.7514 44.2626 47.747 44.2714 47.7514C44.8712 51.6146 45.5459 55.8218 46.4323 60.0335C45.7311 59.8835 45.1225 59.5572 44.6066 59.0588ZM101.205 51.4206C100.359 52.6025 99.3797 53.6609 98.2684 54.5958C98.8064 50.3798 99.1195 46.1991 99.3709 42.3314C103.838 43.2884 103.344 48.3027 101.205 51.4206ZM54.3925 104.17C57.4222 98.9921 56.3771 88.9592 55.9537 82.9747C60.743 88.4476 67.5963 91.1245 77.6998 88.258C80.9015 87.3627 83.7592 85.828 86.2686 83.6494C85.8232 89.8015 85.0161 98.9921 87.8782 104.17C88.3678 105.029 89.0116 105.762 89.7966 106.366C76.7913 115.195 63.1862 114.017 49.1048 108.262C51.3187 107.481 53.0827 106.114 54.3925 104.17ZM3.26648 158.647C5.86843 150.008 8.25869 141.289 11.4295 132.839C13.8595 126.357 15.7117 122.136 22.1637 118.613C27.3896 115.865 32.7831 113.51 38.3531 111.548C40.4875 110.763 43.3982 110.163 46.2074 109.303C59.6493 120.624 79.5873 117.982 93.0601 108.244C96.6719 109.784 101.1 110.511 103.918 111.548C109.007 113.44 113.986 115.592 118.855 118C125.796 121.409 128.23 125.894 130.837 132.839C133.999 141.263 136.385 149.951 138.978 158.563C116.654 161.037 94.4801 163.119 71.9887 163.375C49.0563 163.639 25.7579 163.375 3.26648 158.647Z" fill="black"/>
<path d="M69.9403 49.2779C69.9315 49.1148 69.8697 48.9781 69.7507 48.8634C69.6316 48.7487 69.4905 48.6914 69.3273 48.6914C69.1641 48.6914 69.023 48.7487 68.9039 48.8634C68.7849 48.9781 68.7231 49.1148 68.7143 49.2779C68.5864 51.5403 68.066 53.7057 67.1531 55.7784C66.6416 56.8015 66.2932 57.882 66.1079 59.011C65.8566 61.3483 69.001 62.4861 70.9679 62.8301C71.2677 62.9007 71.4927 62.8037 71.647 62.539C71.8014 62.2744 71.7749 62.0319 71.5632 61.807C70.4739 60.7 69.1906 59.8842 67.722 59.3594C67.9999 57.7497 69.2303 55.9328 69.614 54.3936C70.0109 52.709 70.1211 51.0023 69.9403 49.2779Z" fill="black"/>
<path d="M56.9273 43.3194C56.7112 43.95 56.6186 44.5983 56.645 45.2642C56.72 45.9301 57.0022 46.4858 57.505 46.9356C57.7255 47.1473 57.9813 47.1914 58.2635 47.0768C58.5502 46.9577 58.6957 46.746 58.7045 46.4373C58.7486 46.0007 58.7619 45.5597 58.7442 45.1187C58.6869 44.6865 58.7134 44.2587 58.8148 43.8354C58.8765 43.5796 58.8368 43.3414 58.7045 43.1121C58.5722 42.8872 58.3782 42.7417 58.1224 42.6711C57.8666 42.6005 57.6241 42.627 57.3947 42.7549C57.161 42.8784 57.0067 43.068 56.9273 43.3194Z" fill="black"/>
<path d="M83.3113 45.4685C84.0036 44.7012 83.7346 43.5854 83.6861 42.624C83.6773 42.355 83.5759 42.1257 83.3818 41.9404C83.1878 41.7508 82.954 41.6582 82.685 41.6582C82.4116 41.6582 82.1823 41.7508 81.9838 41.9404C81.7898 42.1257 81.6883 42.355 81.6795 42.624C81.6354 43.5898 81.362 44.6967 82.0588 45.4685C82.2308 45.6405 82.4381 45.7243 82.685 45.7243C82.9276 45.7243 83.1348 45.6405 83.3113 45.4685Z" fill="black"/>
<path d="M51.208 26.4715C51.2124 28.015 50.8905 29.488 50.2466 30.8904C49.6027 32.2928 48.6943 33.4968 47.5212 34.5023C45.9115 36.1075 43.4904 37.2233 42.6613 39.3754C42.6216 39.5165 42.6172 39.6576 42.6436 39.8032C42.6745 39.9443 42.7318 40.0766 42.82 40.1913C42.9082 40.3059 43.0185 40.3985 43.1508 40.4647C43.2787 40.5264 43.4198 40.5617 43.5653 40.5617C46.3305 40.3677 49.1132 37.2983 50.7008 35.2167C51.6931 33.9819 52.412 32.6103 52.8662 31.0977C53.316 29.585 53.4704 28.0459 53.3204 26.4715C53.1793 25.1529 51.133 25.0956 51.208 26.4715Z" fill="black"/>
<path d="M62.4397 29.0658C61.5973 28.6601 60.8608 28.1088 60.2258 27.4253C59.5952 26.7373 59.11 25.9611 58.7705 25.0879C58.7175 24.9203 58.6293 24.766 58.5191 24.6293C58.4044 24.4881 58.2677 24.3779 58.1134 24.2941C57.9546 24.2059 57.787 24.153 57.6106 24.1353C57.4298 24.1133 57.2534 24.1265 57.0814 24.175C56.9094 24.2235 56.7551 24.2985 56.6095 24.4088C56.4684 24.519 56.3537 24.6469 56.2611 24.8013C56.1685 24.9556 56.1112 25.1188 56.0847 25.2952C56.0583 25.4716 56.0627 25.648 56.1068 25.82C56.2259 26.5124 56.4596 27.1651 56.808 27.7781C57.152 28.3911 57.593 28.9291 58.1222 29.3921C58.6514 29.8508 59.2468 30.2124 59.8994 30.4726C60.5566 30.7372 61.2357 30.8783 61.9369 30.9092C62.1574 30.9004 62.3559 30.8298 62.5279 30.6975C62.7043 30.5608 62.8189 30.3844 62.8763 30.1727C62.9336 29.961 62.9248 29.7538 62.841 29.5465C62.7616 29.3436 62.6249 29.1849 62.4397 29.0658Z" fill="black"/>
<path d="M64.7112 71.8963C64.6583 72.0639 64.6627 72.2271 64.7245 72.3947C65.7123 75.076 67.9526 77.6956 71.1455 77.1796C71.8291 76.9856 72.4641 76.6945 73.0551 76.3064C73.6505 75.9183 74.1708 75.4553 74.6251 74.9084C75.0749 74.366 75.4365 73.7662 75.7056 73.1135C75.9746 72.4608 76.1421 71.7861 76.2083 71.0805C76.2259 71.0761 76.2436 71.0716 76.2612 71.0628C76.3935 71.0231 76.4994 70.9437 76.5743 70.8247C76.6493 70.7056 76.6802 70.5777 76.6581 70.441C76.6405 70.2999 76.5787 70.1852 76.4729 70.0882C76.3715 69.9956 76.248 69.9471 76.1069 69.9427C72.398 69.8059 68.6979 69.9206 65.0023 70.2778C64.8038 70.2866 64.6274 70.3528 64.4775 70.4807C64.3276 70.613 64.2349 70.7762 64.1997 70.9702C64.1644 71.1643 64.1952 71.3495 64.2923 71.5215C64.3893 71.6979 64.526 71.8214 64.7112 71.8963ZM74.4222 71.592C73.818 72.8136 72.9845 73.8456 71.9129 74.6879C69.7387 76.0418 67.741 73.7486 66.5811 72.0595C69.2139 72.2668 71.8291 72.108 74.4222 71.592Z" fill="black"/>
<path d="M93.3146 113.355C86.1703 117.531 79.8506 121.205 71.2554 121.474C63.1982 121.725 51.6394 119.644 45.1521 114.506C44.9361 114.308 44.6803 114.206 44.3848 114.211C44.0893 114.215 43.8379 114.325 43.6307 114.533C43.419 114.74 43.3131 114.991 43.3087 115.287C43.3043 115.582 43.4013 115.838 43.6042 116.05C48.9669 122.89 61.9016 124.53 70.0779 124.596C78.7922 124.667 88.684 121.655 94.6861 115.132C94.8802 114.929 94.9816 114.687 94.9948 114.409C95.0081 114.131 94.9331 113.88 94.7611 113.659C94.5891 113.439 94.3686 113.298 94.0908 113.24C93.8174 113.183 93.5572 113.223 93.3146 113.355Z" fill="black"/>
</svg>
