<svg width="141" height="167" viewBox="0 0 141 167" fill="none" xmlns="http://www.w3.org/2000/svg">
<path d="M85.468 162.584C93.7655 161.87 102.203 162.68 110.56 162.093C116.735 161.693 122.856 162.109 128.924 163.336L128.951 163.311C129.476 163.245 129.979 163.103 130.461 162.886C130.943 162.67 131.385 162.388 131.784 162.041C132.182 161.693 132.522 161.295 132.805 160.848C133.085 160.399 133.293 159.919 133.433 159.41C133.882 154.919 133.472 150.506 132.203 146.176C132.122 145.832 131.927 145.576 131.615 145.407C131.619 142.18 131.271 138.989 130.575 135.836C129.878 132.685 128.847 129.647 127.485 126.72C122.988 118.097 109.604 114.796 101.517 111.222C100.418 110.735 98.9427 111.599 97.8957 112.829C96.925 113.174 96.1398 113.763 95.5359 114.596C91.0821 120.826 77.0139 120.746 70.2209 120.641C60.2891 120.488 53.5723 117.724 46.2744 111.226C45.9385 110.935 45.5469 110.804 45.1017 110.83C45.7365 109.39 45.6438 108.11 43.9785 108.295C41.359 108.569 38.7889 109.083 36.2684 109.839C33.7457 110.593 31.3138 111.574 28.9766 112.784C26.6374 113.994 24.4301 115.41 22.3547 117.032C20.2793 118.654 18.3729 120.455 16.6355 122.434C7.6517 132.697 7.02722 146.011 1.46052 157.934C-0.0151379 161.095 2.7136 160.964 4.82198 159.607C4.83846 159.731 4.8735 159.851 4.93121 159.962C4.98685 160.075 5.06105 160.176 5.15173 160.263C5.24242 160.351 5.34546 160.422 5.45882 160.473C5.57423 160.527 5.69377 160.56 5.81949 160.57C31.8002 165.436 57.9787 166.701 84.2108 166.328C84.0501 166.19 83.912 166.032 83.7966 165.852C83.6832 165.673 83.5967 165.481 83.541 165.277C83.4833 165.073 83.4586 164.863 83.4648 164.651C83.4689 164.438 83.506 164.232 83.574 164.03C83.642 163.828 83.7368 163.641 83.8605 163.47C83.9841 163.297 84.1305 163.146 84.2995 163.016C84.4685 162.886 84.6519 162.785 84.8518 162.713C85.0496 162.639 85.2557 162.596 85.468 162.584Z" fill="#7AA802"/>
<path d="M102.771 45.0428C101.846 43.6496 100.048 44.2597 98.6901 45.4942C98.4779 45.3334 98.2409 45.2366 97.975 45.2077L99.564 39.6637C100.028 38.0479 98.6695 37.3286 97.3031 37.6522C97.2248 37.6707 97.1527 37.7058 97.0764 37.7305C93.3666 34.2825 89.4425 29.9627 84.626 28.4726C79.082 26.7578 71.2791 27.609 65.6135 28.1366C55.8321 29.0517 46.3393 34.5442 44.7008 44.9295C44.3463 47.178 45.8323 47.2769 47.3821 46.4814C47.2214 46.8215 47.1369 47.1821 47.1307 47.5593L47.1327 47.6088C47.0482 47.5511 46.9576 47.5036 46.8627 47.4665C45.2572 46.9616 43.5075 48.7114 42.7305 49.8676C42.0545 50.7785 41.566 51.7802 41.2651 52.8746C40.9663 53.9669 40.8756 55.0777 40.9931 56.2072C41.0322 56.2793 41.0776 56.3452 41.1106 56.4236C42.0112 58.3361 43.1365 60.1106 44.4823 61.7429C44.7729 61.6358 45.0676 61.6172 45.3685 61.6894C45.6694 61.7635 45.925 61.914 46.1352 62.1407C46.8607 62.9692 47.3697 63.9132 47.6645 64.9746C47.7737 64.8942 47.8767 64.8097 47.9757 64.7211C48.2786 64.4181 48.5486 64.0883 48.7836 63.7318C49.1422 65.5887 49.5853 67.4333 50.1047 69.247C50.0325 69.5273 49.9872 69.8137 49.9666 70.1023C49.6636 75.6051 50.9229 81.1738 55.2612 84.8774C55.5353 85.0918 55.8445 85.2195 56.1887 85.2628C56.5308 85.3061 56.8626 85.2587 57.18 85.1185C57.0749 85.2958 56.9863 85.4792 56.91 85.6709C56.7534 86.0233 56.6689 86.3922 56.6586 86.7797C56.6503 87.1672 56.7163 87.5402 56.8564 87.8988C56.5287 88.4017 56.3597 88.952 56.3515 89.5517C56.5102 93.2759 56.4133 96.9939 56.0609 100.704C55.7456 104.277 55.6404 105.469 52.4315 107.396C51.1867 108.142 49.2926 110.036 49.6512 111.682C49.9686 113.142 51.1784 113.381 52.3841 112.808C52.3614 112.981 52.3697 113.152 52.4088 113.321C52.448 113.492 52.5139 113.649 52.6088 113.795C52.7036 113.939 52.821 114.065 52.9612 114.168C53.1013 114.271 53.2538 114.347 53.4208 114.395C59.987 116.637 67.4478 118.888 74.4798 118.129C79.4468 117.593 86.4314 115.912 89.931 112.146C90.7203 111.297 91.654 109.65 91.1202 108.439L90.9471 108.043C90.8275 107.767 90.64 107.548 90.3844 107.392C90.3576 107.258 90.3143 107.13 90.2566 107.006C88.7026 104.263 87.5258 101.367 86.7262 98.3171C85.9203 94.5826 86.9034 91.1469 87.9566 87.5773C90.5225 86.0316 92.2269 83.0638 93.6923 80.4669C95.473 77.1776 96.6292 73.6801 97.1588 69.9765C97.637 68.9729 97.9832 67.9259 98.1955 66.8356C98.2656 66.5594 98.2718 66.2812 98.2141 66.0009C98.1563 65.7227 98.0389 65.4692 97.8658 65.2445C98.8653 63.2433 99.4795 61.1308 99.7062 58.905L99.6506 58.7422C99.5743 58.5422 99.5413 58.3361 99.5537 58.1218C99.564 57.9075 99.6176 57.7055 99.7145 57.5138C99.8113 57.3242 99.9412 57.1593 100.108 57.0233C100.273 56.8893 100.458 56.7925 100.665 56.7348C102.507 53.2558 105.228 48.7361 102.771 45.0428Z" fill="#A4705E"/>
<path d="M106.416 31.3647C105.756 30.1611 104.425 30.3548 103.201 31.1524C103.232 30.9133 103.289 30.6763 103.308 30.4372C103.499 30.1095 103.617 29.7571 103.66 29.38C103.706 29.0028 103.671 28.6339 103.557 28.2711C102.793 26.408 102.615 24.3388 101.449 22.657C101.206 22.2593 100.911 21.9068 100.567 21.5936C100.222 21.2824 99.8412 21.0268 99.4249 20.8248C99.0065 20.6208 98.5675 20.4827 98.11 20.4065C97.6524 20.3302 97.1928 20.3199 96.7312 20.3755C96.3767 20.4374 96.0325 20.5384 95.7007 20.6826C95.8182 19.6336 95.777 18.5928 95.577 17.5582C95.3792 16.5215 95.0309 15.5405 94.5321 14.611C93.7263 13.0941 92.5783 11.9132 91.0841 11.0682C88.9448 9.90165 86.7437 10.3283 84.4993 10.9198C84.1242 11.0269 83.7738 11.1856 83.4482 11.4C81.8097 6.57936 75.8494 2.97677 70.8865 3.24882C69.9034 3.33538 68.9471 3.53736 68.0135 3.85475C67.0799 4.1742 66.1978 4.60082 65.3693 5.13461C64.5408 5.66841 63.7865 6.29494 63.1105 7.01422C62.4324 7.73144 61.8533 8.5208 61.3689 9.38023C60.9052 9.69968 60.5013 10.083 60.1591 10.5282C59.8088 10.3736 59.444 10.2912 59.0606 10.2788C58.6794 10.2685 58.3084 10.3283 57.9518 10.4602C57.8859 9.86249 57.7045 9.30397 57.4077 8.78254C57.1089 8.26112 56.7194 7.82007 56.2371 7.46146C56.1299 7.24299 55.9712 7.07399 55.761 6.95033C55.4127 6.74011 55.0376 6.59791 54.6357 6.52577C54.2338 6.4557 53.834 6.45982 53.4321 6.53814C49.9717 6.35059 46.6 9.06902 47.0554 12.6098C43.7249 12.7108 40.1326 16.1505 39.0671 18.7968C38.3478 20.5425 37.9026 22.3541 37.7295 24.2337C34.8874 25.967 34.5659 30.431 34.5927 33.5947C34.5556 34.7447 34.7329 35.8597 35.1265 36.9417C35.5181 38.0237 36.0972 38.9924 36.8639 39.8497C35.7242 41.7747 34.4752 44.4354 36.6393 45.8678C36.8763 46.0203 37.1318 46.1336 37.4039 46.212C37.6759 46.2882 37.9521 46.3253 38.2345 46.3212C38.5168 46.3171 38.793 46.2717 39.0609 46.1872C39.3309 46.1027 39.5823 45.9791 39.8152 45.8204C40.3449 45.707 40.8478 45.5215 41.3239 45.2639C41.7999 45.0063 42.2307 44.6868 42.6161 44.3055C43.0015 43.9243 43.3251 43.4956 43.5868 43.0216C43.8506 42.5475 44.0423 42.0467 44.1618 41.5191C44.6544 40.8081 44.978 40.027 45.1305 39.1758C45.8683 38.5554 46.6144 37.9454 47.3934 37.3765C49.1741 36.0987 51.0434 34.9673 53.0014 33.9801C53.6361 33.6317 54.1844 33.1825 54.6481 32.6281C55.1118 32.0737 55.458 31.4533 55.6909 30.7691C56.6184 28.8853 57.3026 26.9171 57.7416 24.8643C58.1435 24.4975 58.4856 24.0812 58.77 23.6175C59.444 24.7469 60.2271 25.798 61.1154 26.7687C61.3071 26.9789 61.54 27.1232 61.8141 27.2015C62.0882 27.2778 62.3603 27.2757 62.6344 27.1974C63.1166 27.6508 63.6319 28.0692 64.176 28.4484C64.7221 28.8276 65.293 29.1635 65.8866 29.4603C66.4822 29.7551 67.0943 30.0044 67.727 30.2085C68.3577 30.4125 69.0007 30.5712 69.6561 30.6804C70.3095 30.7897 70.969 30.8515 71.6326 30.8639C72.2962 30.8762 72.9578 30.8391 73.6153 30.7546C74.2748 30.6681 74.9219 30.5362 75.5608 30.3548C76.1997 30.1734 76.8221 29.9467 77.4281 29.6747C77.9227 29.4253 78.3473 29.0873 78.6997 28.6586C81.2182 31.9232 84.6147 32.6858 88.2317 30.1363C88.3884 30.025 88.5347 29.9034 88.6748 29.7715C89.019 30.1157 89.3941 30.4207 89.7981 30.6887C90.2659 30.9793 90.7688 31.0617 91.3046 30.9381C91.4942 31.4945 91.7498 32.018 92.0734 32.5085C92.3949 32.999 92.7741 33.4421 93.211 33.8358C93.6459 34.2294 94.1241 34.5633 94.6455 34.8354C95.1648 35.1074 95.711 35.3094 96.284 35.4413C96.2407 35.6433 96.2118 35.8494 96.1953 36.0555C96.1624 36.4944 96.1788 36.9293 96.2489 37.3642C96.319 37.797 96.4385 38.2174 96.6075 38.6234C96.7765 39.0294 96.9909 39.4087 97.2485 39.7632C97.5082 40.1197 97.805 40.4392 98.1388 40.7236C98.6046 41.0925 99.1178 41.3748 99.6763 41.5748C100.235 41.7726 100.812 41.8777 101.405 41.886C101.342 42.2714 101.274 42.6568 101.199 43.0442C101.092 43.3575 101.08 43.6728 101.162 43.9923C101.245 44.3117 101.41 44.5817 101.655 44.8022C101.9 45.0228 102.185 45.1588 102.51 45.2062C102.836 45.2557 103.149 45.2103 103.448 45.0722C103.875 44.9177 104.278 44.7116 104.656 44.4581C105.033 44.2025 105.373 43.9057 105.678 43.5677C105.983 43.2297 106.241 42.8587 106.455 42.4569C106.667 42.055 106.828 41.6325 106.939 41.1894C107.553 37.9433 108.073 34.3943 106.416 31.3647Z" fill="#6D473A"/>
<path d="M94.9362 106.959C94.8599 107.017 94.7816 107.072 94.7136 107.13C92.2775 109.234 89.5364 110.801 86.4903 111.835C86.4573 111.837 86.4347 111.827 86.3996 111.829C82.5703 112.19 78.8709 114.098 75.021 113.933C73.7658 113.88 72.284 115.217 71.4472 116.662C70.5486 116.557 69.6501 116.444 68.7597 116.283C64.2874 116.128 60.0624 114.972 55.5117 114.325C55.2665 114.294 55.0583 114.187 54.8873 114.005C54.4503 114.409 54.0711 114.863 53.7537 115.368C49.91 114.119 46.6269 112.008 45.0523 108.36C43.7992 105.454 38.3376 110.318 39.4464 112.893C44.1125 123.711 60.6951 123.871 70.7857 123.533C72.3231 123.482 73.9018 123.362 75.495 123.177C76.5523 123.144 77.6137 123.076 78.6771 122.977C79.1326 122.911 79.5489 122.742 79.924 122.474C87.6444 120.91 95.1546 117.482 99.6579 111.139C97.7906 110.077 96.216 108.686 94.9362 106.959Z" fill="#717D4F"/>
<path d="M140.339 158.476C137.758 150.601 135.714 142.563 133.187 134.672C131.246 128.606 129.461 121.537 123.859 117.935C117.05 113.555 108.627 110.583 100.993 108.028C98.4247 107.327 95.9124 106.455 93.4599 105.416C93.227 105.206 92.959 105.058 92.6561 104.969C92.0481 104.582 91.4875 104.134 90.9743 103.627C90.4611 103.12 90.0057 102.566 89.6099 101.962C89.2142 101.36 88.8845 100.721 88.6248 100.049C88.3631 99.3755 88.1755 98.683 88.0601 97.9699C87.0317 93.6687 87.314 88.6213 87.2295 84.1346C87.9673 83.5266 88.664 82.8733 89.3193 82.1787C89.8882 82.8032 90.5518 83.2999 91.3123 83.6688C92.2933 84.1057 93.6474 83.1391 92.9322 82.0489C92.4129 81.3008 91.8234 80.6144 91.1639 79.9879C92.6128 78.0052 93.7772 75.866 94.6552 73.57C95.1169 73.7534 95.5971 73.8153 96.0917 73.7555C96.5864 73.6978 97.0377 73.5247 97.4458 73.2382C97.5571 73.129 97.6333 72.9991 97.6725 72.8487C97.7137 72.6982 97.7096 72.5478 97.6663 72.3994C97.4808 71.9748 97.2005 71.6265 96.8254 71.3565C96.4503 71.0845 96.032 70.9299 95.5703 70.8866C96.1597 68.8978 96.607 66.876 96.9099 64.8212C97.6725 64.8212 98.365 64.5986 98.9833 64.1513C99.0678 64.0668 99.1317 63.97 99.177 63.8587C99.2223 63.7495 99.245 63.634 99.245 63.5145C99.245 63.395 99.2223 63.2796 99.177 63.1703C99.1317 63.059 99.0678 62.9622 98.9833 62.8777C98.4639 62.4881 97.8807 62.2717 97.2335 62.2305C97.4808 59.7697 97.5983 57.3027 97.5859 54.8316C98.4701 54.4915 99.2677 54.0113 99.9828 53.393C100.698 52.7727 101.287 52.0493 101.751 51.2249C101.984 51.3197 102.217 51.3197 102.45 51.227C103.515 50.6787 104.336 49.877 104.911 48.8239C105.702 47.8552 106.306 46.7835 106.726 45.6046C106.893 44.875 106.823 44.1681 106.516 43.4839C106.667 43.3849 106.792 43.2592 106.893 43.1088C109.696 38.9126 109.911 30.7594 104.4 29.8835C104.48 29.5949 104.544 29.3023 104.591 29.0055C104.639 28.7087 104.667 28.4099 104.682 28.111C104.694 27.8101 104.69 27.5092 104.67 27.2104C104.649 26.9115 104.61 26.6127 104.556 26.318C104.501 26.0233 104.428 25.7306 104.342 25.4441C104.253 25.1576 104.148 24.8753 104.029 24.6012C103.907 24.325 103.773 24.0571 103.62 23.7974C103.47 23.5377 103.305 23.2883 103.126 23.0472C102.947 22.8061 102.755 22.5773 102.549 22.3568C102.343 22.1383 102.126 21.9322 101.897 21.7385C101.667 21.5448 101.428 21.3654 101.178 21.1985C100.929 21.0316 100.669 20.8791 100.403 20.743C100.135 20.6049 99.8613 20.4854 99.581 20.3782C99.3007 20.2731 99.0142 20.1845 98.7236 20.1103C98.433 20.0382 98.1383 19.9825 97.8415 19.9434C97.5426 19.9042 97.2438 19.8815 96.945 19.8754C96.98 19.2055 96.9738 18.5378 96.9223 17.868C96.8522 16.617 96.5657 15.4195 96.0587 14.2736C95.5517 13.1277 94.8593 12.1075 93.9813 11.2151C93.6392 10.8874 93.2702 10.5907 92.8787 10.3248C92.4871 10.0569 92.0749 9.82397 91.6441 9.62612C91.2134 9.4262 90.7703 9.26339 90.3127 9.13767C89.8552 9.01195 89.3915 8.92539 88.9195 8.87592C88.4476 8.82646 87.9756 8.81615 87.5016 8.84501C87.0275 8.87386 86.5618 8.94188 86.098 9.04698C85.6364 9.15416 85.185 9.29636 84.7481 9.47773C84.3091 9.65703 83.8866 9.87344 83.4847 10.1228C80.9806 -0.344892 62.5947 -3.91863 59.6887 8.09069C57.1805 5.61133 53.2522 3.66783 50.2968 4.44688C47.0322 5.30837 45.7626 8.69456 45.7214 11.8149C45.3051 11.7592 44.8888 11.7324 44.4684 11.7366C44.05 11.7407 43.6337 11.7757 43.2173 11.8396C42.8031 11.9056 42.3971 12.0004 41.9952 12.1261C41.5954 12.2518 41.2058 12.4043 40.8287 12.5877C40.4515 12.7691 40.0888 12.9773 39.7405 13.2143C39.3922 13.4492 39.0645 13.7089 38.7553 13.9913C38.4462 14.2757 38.1597 14.5807 37.8938 14.9063C37.63 15.232 37.3889 15.5741 37.1746 15.9368C36.851 16.5675 36.6078 17.2291 36.445 17.9216C36.2822 18.612 36.2018 19.3127 36.208 20.0217C36.2141 20.7327 36.3028 21.4314 36.4779 22.1198C36.6511 22.8081 36.9046 23.4676 37.2384 24.0942C32.8712 26.8806 31.5769 34.6959 35.1424 38.4221C34.7076 39.0239 34.3654 39.6752 34.1161 40.3738C33.8646 41.0705 33.7162 41.7897 33.6668 42.5317C33.6194 43.2716 33.673 44.0053 33.8296 44.7287C33.9883 45.4542 34.2418 46.1446 34.5942 46.7979C35.3485 48.1458 36.3852 49.2278 37.698 50.0419C37.63 50.5077 37.5991 50.9755 37.6094 51.4454C37.6898 54.743 40.3526 60.0397 44.0417 59.4193C44.1201 62.1419 44.3736 64.85 44.8043 67.5417C44.5693 67.822 44.4024 68.1414 44.3097 68.498C44.2149 68.8524 44.2004 69.2111 44.2664 69.5738C44.3014 69.6871 44.355 69.7923 44.4251 69.8871C44.4972 69.9839 44.5817 70.0643 44.6806 70.1302C44.7796 70.1962 44.8888 70.2415 45.0042 70.2704C45.1196 70.2993 45.2371 70.3054 45.3546 70.2931C45.7688 72.115 46.3377 73.8854 47.0569 75.6083C46.7066 76.3214 46.4098 77.0593 46.1666 77.8156C45.8595 78.8028 47.3908 79.483 47.8587 78.5308C47.9617 78.3226 48.0854 78.1289 48.1925 77.9249C48.5491 78.5761 48.9304 79.215 49.3488 79.8313C50.0722 80.8989 50.878 81.8984 51.7683 82.83L51.7539 82.8753C51.7148 83.0093 51.7127 83.1453 51.7519 83.2813C51.7889 83.4174 51.8611 83.5328 51.9662 83.6255C52.0692 83.7203 52.1929 83.7801 52.331 83.8048C52.4691 83.8296 52.603 83.8151 52.7349 83.7616C52.9905 83.9986 53.2502 84.2335 53.516 84.4561C53.4027 88.1865 53.3264 91.9168 52.9802 95.6349C52.2238 103.751 47.7639 105.422 41.078 107.593C33.0093 110.212 24.0853 113.32 16.909 117.937C11.5875 121.36 9.87484 127.708 7.9705 133.479C5.20673 141.852 3.08804 150.426 0.328395 158.8C-0.153873 160.261 1.65154 161.036 2.63669 160.3C12.6633 163.526 23.5247 164.232 33.9326 165.345C45.8575 166.489 57.8111 166.974 69.7895 166.8C93.1507 166.895 116.316 164.814 139.286 160.56C139.358 160.552 139.426 160.539 139.496 160.521C139.698 160.481 139.902 160.451 140.104 160.411C141.042 160.224 141.031 158.87 140.339 158.476ZM97.52 51.5485C97.3984 48.2653 97.1181 45.0131 96.7636 41.8907C99.5686 42.5626 102.079 44.6009 100.653 47.8964C99.9148 49.3783 98.8699 50.5942 97.52 51.5485ZM37.224 45.6232C36.9788 45.178 36.7892 44.7101 36.6572 44.2196C36.5253 43.7291 36.4553 43.2304 36.445 42.7234C36.4347 42.2143 36.4862 41.7135 36.5995 41.2188C36.7108 40.7242 36.8819 40.2481 37.1107 39.7947C37.3003 39.8936 37.494 39.9802 37.6939 40.0585C39.0377 40.5078 39.5838 38.4221 38.2751 37.946C33.7966 36.322 34.6004 27.9812 38.3225 25.6791C38.9841 26.4519 39.7796 27.0414 40.7112 27.4495C40.841 27.5216 40.9812 27.5649 41.1296 27.5834C41.278 27.5999 41.4222 27.5875 41.5665 27.5484C41.7108 27.5092 41.8406 27.4433 41.9601 27.3526C42.0776 27.2598 42.1745 27.1506 42.2487 27.0208C42.3249 26.893 42.3723 26.7549 42.395 26.6065C42.4156 26.4581 42.4094 26.3118 42.3723 26.1675C42.3373 26.0233 42.2755 25.8893 42.1869 25.7698C42.1003 25.6482 41.9931 25.5492 41.8653 25.4689C39.2809 23.4862 37.6445 20.0464 39.5179 16.9385C41.2718 14.0304 45.0125 13.5543 47.9308 14.7415C49.0293 15.1887 49.6558 13.4657 48.714 12.8825C48.376 12.6764 48.0235 12.4991 47.6587 12.3507C48.2049 9.31491 49.2663 5.74118 53.2461 7.11379C56.1603 8.11748 57.8647 11.1203 60.8573 11.8891C61.0015 11.9241 61.1458 11.9159 61.2859 11.8664C61.4281 11.8169 61.5436 11.7324 61.6342 11.615C61.727 11.4954 61.7785 11.3615 61.7888 11.2131C61.8012 11.0626 61.7703 10.9225 61.7002 10.7906C61.56 10.502 61.4013 10.2238 61.2241 9.95588C61.2591 9.90641 61.2901 9.85489 61.3148 9.8013C61.4075 9.46536 61.5209 9.13561 61.6507 8.81409C61.7826 8.49258 61.931 8.17725 62.098 7.87223C62.2649 7.5672 62.4483 7.27248 62.6482 6.98807C62.8482 6.70365 63.0646 6.4316 63.2954 6.16986C63.5262 5.91018 63.7715 5.66492 64.0312 5.43203C64.2908 5.2012 64.5629 4.9848 64.8452 4.78282C65.1297 4.58291 65.4244 4.39948 65.7294 4.23048C66.0344 4.06354 66.3477 3.91515 66.6692 3.78325C66.9907 3.65134 67.3184 3.53799 67.6544 3.44319C67.9882 3.35044 68.3262 3.27419 68.6704 3.21854C69.0125 3.16289 69.3588 3.12786 69.705 3.11137C70.0533 3.09488 70.3996 3.099 70.7479 3.12167C71.0941 3.1464 71.4383 3.18969 71.7804 3.25151C72.1226 3.31334 72.4585 3.39578 72.7924 3.49677C73.1242 3.59776 73.4498 3.71936 73.7693 3.85744C74.0887 3.99553 74.3979 4.1501 74.6988 4.32528C79.1051 6.60885 79.6534 10.7184 81.7453 14.6425C81.8524 14.8157 81.9967 14.9476 82.1822 15.0362C82.3677 15.1248 82.5614 15.1557 82.7634 15.1289C82.9674 15.1021 83.1467 15.0218 83.3034 14.8899C83.4579 14.7559 83.5651 14.5931 83.6249 14.3952C83.7176 13.8181 83.7629 13.237 83.765 12.6516C84.1051 12.4064 84.4637 12.1962 84.845 12.021C85.2242 11.8437 85.6178 11.7077 86.0259 11.6108C86.434 11.5119 86.8462 11.4563 87.2646 11.4398C87.6829 11.4233 88.0993 11.448 88.5135 11.514C88.9278 11.5799 89.3297 11.685 89.7233 11.8293C90.1169 11.9756 90.492 12.157 90.8486 12.3775C91.2051 12.596 91.537 12.8474 91.8461 13.1318C92.1532 13.4183 92.4294 13.7295 92.6767 14.0696C93.1878 14.826 93.565 15.6483 93.804 16.5304C94.0431 17.4146 94.1338 18.3131 94.074 19.2262C94.0493 19.6775 93.9854 20.1227 93.8803 20.5617C93.701 20.7018 93.5835 20.8811 93.5258 21.1016C93.4681 21.3222 93.4846 21.5365 93.5753 21.7467C93.3238 22.532 93.1775 23.3357 93.1383 24.1581C93.1445 24.3786 93.2105 24.5806 93.3362 24.7619C93.4619 24.9433 93.6247 25.0773 93.8288 25.1618C94.0328 25.2463 94.243 25.2689 94.4615 25.2277C94.6779 25.1886 94.8654 25.0938 95.0262 24.9412C95.797 24.2261 96.304 23.3584 96.5493 22.3362C96.7863 22.3424 97.0212 22.363 97.2562 22.4001C97.4891 22.4372 97.7199 22.4887 97.9487 22.5546C98.1754 22.6226 98.3959 22.703 98.6144 22.7999C98.8308 22.8947 99.041 23.0039 99.243 23.1255C99.4449 23.2492 99.6387 23.3852 99.8242 23.5315C100.01 23.6799 100.185 23.8386 100.348 24.0097C100.513 24.1807 100.665 24.3621 100.807 24.5517C100.947 24.7413 101.075 24.9412 101.191 25.1473C101.306 25.3555 101.407 25.5698 101.496 25.7883C101.582 26.0088 101.656 26.2355 101.714 26.4643C101.772 26.6951 101.815 26.926 101.844 27.163C101.873 27.3979 101.885 27.6329 101.883 27.8699C101.881 28.109 101.862 28.3439 101.829 28.5789C101.797 28.8138 101.749 29.0447 101.687 29.2734C101.623 29.5022 101.547 29.7268 101.454 29.9453C101.362 30.1638 101.257 30.374 101.137 30.5801C100.999 30.8336 100.943 31.1056 100.966 31.3962C100.989 31.6848 101.088 31.9444 101.265 32.1732C101.44 32.404 101.665 32.5669 101.939 32.6637C102.211 32.7606 102.489 32.773 102.769 32.7049C105.875 32.2433 106.199 36.4415 105.725 38.5499C105.453 39.7535 104.857 40.9159 104.521 42.1071C104.459 42.3256 104.457 42.5441 104.515 42.7625C104.486 42.779 104.457 42.7893 104.426 42.8058C104.356 42.8491 104.29 42.9027 104.233 42.9624C104.173 43.0222 104.123 43.0882 104.082 43.1603C104.039 43.2324 104.008 43.3087 103.985 43.3911C103.963 43.4715 103.948 43.5539 103.946 43.6364C103.944 43.7209 103.952 43.8033 103.971 43.8858C103.989 43.9661 104.018 44.0444 104.055 44.1186C104.094 44.1949 104.14 44.2629 104.195 44.3268C104.251 44.3886 104.313 44.4443 104.381 44.4917C104.362 44.6277 104.327 44.7617 104.278 44.8895C104.014 45.3429 103.726 45.7798 103.414 46.2044C103.414 46.194 103.416 46.1817 103.416 46.1714C103.41 45.7324 103.363 45.2996 103.268 44.8709C103.175 44.4422 103.039 44.028 102.86 43.6261C102.681 43.2262 102.464 42.847 102.207 42.4925C101.951 42.136 101.66 41.8103 101.337 41.5136C101.013 41.2168 100.665 40.9571 100.288 40.7325C99.9107 40.5078 99.515 40.3244 99.1007 40.1822C98.6865 40.04 98.2619 39.941 97.8271 39.8854C97.3922 39.8298 96.9573 39.8174 96.5204 39.8524C96.5019 39.702 96.4833 39.5536 96.4648 39.4052C96.6915 38.9724 96.8584 38.5169 96.9635 38.0388C97.0707 37.5606 97.114 37.0783 97.0934 36.5899C97.0707 36.1014 96.9862 35.6233 96.8399 35.1575C96.6915 34.6897 96.4854 34.2507 96.2216 33.8405C94.7109 31.4745 91.1371 31.3117 89.8799 28.9107C89.816 28.8118 89.7377 28.7252 89.645 28.651C89.5522 28.5789 89.4492 28.5253 89.3358 28.4882C89.2225 28.4532 89.1071 28.4387 88.9896 28.4428C88.8721 28.449 88.7588 28.4738 88.6495 28.5212C88.5403 28.5665 88.4414 28.6304 88.3569 28.7108C88.2703 28.7912 88.2002 28.886 88.1467 28.9911C88.0931 29.0962 88.0601 29.2095 88.0477 29.327C88.0333 29.4445 88.0415 29.5599 88.0704 29.6753C88.0807 29.7145 88.1034 29.7413 88.1178 29.7784C86.2588 30.646 84.0164 31.5652 81.9534 31.0046C81.7185 30.9346 81.4897 30.8459 81.2692 30.7367C81.0486 30.6275 80.8384 30.4997 80.6385 30.3554C80.4386 30.2112 80.251 30.0525 80.0779 29.8773C79.9048 29.7 79.7482 29.5125 79.608 29.3105C79.4658 29.1085 79.3422 28.8963 79.237 28.6737C79.1299 28.4511 79.0433 28.2203 78.9774 27.9832C78.9093 27.7462 78.8619 27.5051 78.8352 27.2598C78.8084 27.0146 78.8022 26.7693 78.8166 26.522C78.8125 26.3242 78.7486 26.149 78.627 25.9923C78.5033 25.8378 78.3467 25.7347 78.1571 25.6832C77.9654 25.6296 77.7799 25.642 77.5944 25.7141C77.411 25.7862 77.2668 25.9058 77.1637 26.0748C77.005 26.3984 76.8875 26.7364 76.8092 27.0908C76.7309 27.4433 76.6959 27.7998 76.7041 28.1605C76.7123 28.5212 76.7639 28.8777 76.8566 29.226C76.9514 29.5743 77.0833 29.9082 77.2585 30.2256C71.9845 31.5426 65.3275 32.0599 62.8543 26.0686C62.3947 24.9557 60.6635 25.3431 60.9933 26.5838C63.1841 34.8175 72.6543 34.7907 79.3009 32.5504C79.5668 32.7379 79.8471 32.9049 80.1397 33.0512C83.2085 34.5536 86.5906 33.4922 89.1792 31.5735C89.8779 32.3216 90.6734 32.942 91.5699 33.4366C92.1305 33.6674 92.6355 33.9889 93.0827 34.4032C93.5279 34.8154 93.8885 35.2935 94.1626 35.8376C93.9792 35.8603 93.8061 35.916 93.6433 36.0066C93.4825 36.0953 93.3424 36.2127 93.2249 36.3549C93.1074 36.4992 93.0209 36.66 92.9673 36.8372C92.9116 37.0124 92.891 37.1938 92.9034 37.3792C93.0683 38.925 93.2496 40.5346 93.431 42.1875C93.2805 42.2164 93.1342 42.2432 92.9941 42.2658C92.0254 42.4204 90.9496 42.5028 89.9665 42.7584C89.9459 42.5338 89.9232 42.307 89.9005 42.0886C89.6553 39.5247 89.5151 37.6018 86.9472 36.5281C85.1809 35.9283 83.3672 35.5676 81.5062 35.446C79.6451 35.3224 77.8005 35.4419 75.9704 35.8047C75.8241 35.817 75.688 35.8603 75.5623 35.9324C75.4345 36.0046 75.3294 36.1014 75.2449 36.221C75.1604 36.3405 75.1048 36.4724 75.078 36.6167C75.0512 36.761 75.0574 36.9032 75.0924 37.0454C72.1638 35.5697 71.2034 39.3392 70.9354 43.1479C70.5665 42.9769 70.179 42.8594 69.7772 42.7934C69.3753 42.7275 68.9713 42.7172 68.5653 42.7605C68.1614 42.8058 67.7677 42.9027 67.3885 43.0531C67.0113 43.2036 66.6589 43.4014 66.3333 43.6487C66.323 43.5416 66.3127 43.4323 66.3024 43.3293C66.0571 40.7654 65.9149 38.8425 63.349 37.7688C61.5807 37.169 59.767 36.8104 57.908 36.6868C56.0469 36.5652 54.2003 36.6847 52.3722 37.0454C52.2259 37.0577 52.0899 37.101 51.9621 37.1731C51.8363 37.2473 51.7312 37.3421 51.6467 37.4617C51.5622 37.5812 51.5066 37.7131 51.4798 37.8574C51.453 38.0017 51.4571 38.1439 51.4942 38.2861C51.0408 38.0264 50.5524 37.9233 50.033 37.9728C50.7564 36.6229 51.5622 35.3245 52.4505 34.0776C53.8747 32.3608 56.2695 31.7404 57.7225 29.7619C58.382 28.8839 58.887 27.9255 59.2394 26.8847C59.5918 25.844 59.7732 24.7743 59.7835 23.6758C59.7897 22.534 57.9595 22.2146 57.7369 23.3996C57.6091 24.5023 57.3062 25.5534 56.8322 26.5571C56.3561 27.5587 55.7337 28.4593 54.9629 29.2569C53.7036 30.4605 51.7415 30.8068 50.6059 32.066C49.9279 33.1542 49.357 34.294 48.8892 35.4873C48.1328 36.5981 47.2136 37.5503 46.1274 38.3417C45.0434 39.1331 43.8562 39.7185 42.5702 40.0997C41.5294 40.479 41.5727 42.3503 42.8546 42.1999C43.3389 42.1422 43.8191 42.0577 44.2952 41.9443C44.287 42.5502 44.2787 43.1623 44.2643 43.7848C43.9758 43.7435 43.6852 43.725 43.3925 43.7312C43.0999 43.7374 42.8093 43.7683 42.5228 43.8219C42.2363 43.8775 41.956 43.9558 41.6819 44.0589C41.4078 44.1619 41.144 44.2856 40.8905 44.4319C40.6391 44.5803 40.4 44.7472 40.1733 44.9327C39.9486 45.1203 39.7425 45.3243 39.5509 45.5469C39.3613 45.7695 39.1902 46.0065 39.0397 46.2559C38.8893 46.5073 38.7594 46.7691 38.6523 47.0411C38.0711 46.6743 37.595 46.2023 37.224 45.6232ZM75.5747 37.9151C75.8776 38.1913 76.2342 38.2984 76.6402 38.2387C78.5734 37.9275 80.5148 37.8471 82.4666 37.9975C85.7827 38.3211 86.9369 39.2279 87.6149 42.7151C88.3095 46.293 89.0184 52.0225 84.9192 53.5909C83.1137 54.1 81.2774 54.2504 79.4122 54.0423C75.9869 53.8712 74.6184 53.0489 73.9032 49.438C73.7033 48.4385 72.8707 38.0182 74.6534 38.5025C74.7524 38.5272 74.8533 38.5313 74.9564 38.5148C75.0574 38.4984 75.1522 38.4633 75.2408 38.4077C75.3274 38.352 75.3995 38.2799 75.4572 38.1954C75.517 38.1088 75.5541 38.0161 75.5747 37.9151ZM46.4778 45.7324C46.4469 44.1825 46.3933 42.6698 46.3006 41.2127C46.9353 40.9097 47.533 40.5449 48.0916 40.1142C47.5392 41.9876 47.2651 43.9022 47.2651 45.856C47.0054 45.7942 46.7437 45.753 46.4778 45.7324ZM51.9744 39.1558C52.2795 39.432 52.6339 39.5412 53.042 39.4794C54.9732 39.1682 56.9167 39.0878 58.8684 39.2383C62.1845 39.5618 63.3366 40.4687 64.0147 43.9558C64.7113 47.5337 65.4182 53.2632 61.321 54.8316C59.5135 55.3407 57.6772 55.4911 55.812 55.283C52.3887 55.114 51.0202 54.2896 50.303 50.6787C50.1051 49.6792 49.2725 39.2589 51.0532 39.7432C51.1542 39.7679 51.2552 39.772 51.3561 39.7556C51.4592 39.7391 51.554 39.704 51.6406 39.6484C51.7271 39.5927 51.8013 39.5206 51.859 39.4361C51.9167 39.3495 51.9559 39.2568 51.9744 39.1558ZM43.7532 55.8642C43.3719 55.7755 43.0092 55.6375 42.665 55.4499C42.3208 55.2624 42.0096 55.0315 41.7273 54.7595C41.4449 54.4874 41.2038 54.1845 41.0059 53.8465C40.806 53.5105 40.6535 53.1519 40.5504 52.7748C40.3114 52.1688 40.1815 51.5382 40.1609 50.8869C40.8658 50.9384 41.5191 50.7756 42.1168 50.4005C42.224 50.3366 42.3105 50.2542 42.3765 50.1491C42.4445 50.046 42.4857 49.9347 42.5022 49.8111C42.5166 49.6895 42.5063 49.5699 42.4671 49.4545C42.428 49.337 42.3662 49.234 42.2796 49.1454C41.7602 48.7167 41.1955 48.3622 40.5855 48.0798C40.637 47.8902 40.7071 47.7068 40.7957 47.5296C40.8823 47.3544 40.9832 47.1854 41.1007 47.0287C41.2182 46.87 41.348 46.7237 41.4923 46.5898C41.6366 46.4558 41.7911 46.3363 41.9581 46.2291C42.123 46.124 42.2981 46.0333 42.4795 45.9612C42.6609 45.887 42.8484 45.8293 43.0422 45.7901C43.2338 45.7509 43.4296 45.7283 43.6254 45.7241C43.8212 45.72 44.017 45.7345 44.2107 45.7674C44.1118 49.0238 43.9758 52.4491 43.9758 55.8971L43.7532 55.8642ZM50.2576 75.6495C50.136 75.4084 50.0392 75.1529 49.9258 74.9076C50.2803 74.3429 50.6286 73.7761 50.9975 73.2135C51.6014 72.2902 50.2391 71.2638 49.4827 72.0449C49.3096 72.2221 49.1633 72.4221 49.0025 72.6096C48.4646 71.0598 48.038 69.479 47.7226 67.8673C48.5058 67.146 49.1921 66.3422 49.7816 65.4559C49.8764 65.2787 49.9155 65.0912 49.9011 64.8912C49.8846 64.6893 49.8145 64.51 49.6929 64.3513C49.5693 64.1926 49.4147 64.0792 49.2251 64.0112C49.0355 63.9432 48.8438 63.9349 48.648 63.9803C48.108 64.1266 47.632 64.3925 47.2218 64.7738C46.6592 59.3142 46.4242 53.8403 46.5128 48.3519C46.7643 48.3292 47.0116 48.288 47.2569 48.2303C47.2795 49.3556 47.3311 50.2542 47.3578 50.6787C47.5124 53.3292 47.6917 56.2434 50.4411 57.4099C52.164 57.9787 53.9303 58.2899 55.744 58.3414C57.5556 58.393 59.3383 58.1828 61.0901 57.7129C66.8052 56.2496 66.9474 50.8416 66.5394 45.8787C67.7141 45.4913 69.4144 44.5782 70.4676 45.5531C70.5768 45.6541 70.7046 45.7283 70.8468 45.7736C70.8406 47.4574 70.9231 48.8692 70.9581 49.4401C71.1127 52.0884 71.292 55.0027 74.0413 56.1692C75.7622 56.7401 77.5306 57.0492 79.3442 57.1007C81.1558 57.1523 82.9386 56.9441 84.6904 56.4721C90.2942 55.0377 90.5394 49.8111 90.1623 44.9286C91.2505 44.9183 92.3222 44.7843 93.3815 44.5288L93.6721 44.4711C94.4058 50.3943 94.6016 56.3382 94.2595 62.2985C94.2204 62.3006 94.1771 62.3027 94.14 62.3047C93.9895 62.3109 93.8453 62.3418 93.7072 62.4016C93.5691 62.4593 93.4475 62.5417 93.3403 62.6468C93.2331 62.7519 93.1486 62.8715 93.0868 63.0096C93.025 63.1456 92.99 63.2878 92.9817 63.4383C92.9735 63.5887 92.992 63.735 93.0374 63.8772C93.0848 64.0194 93.1548 64.1493 93.2496 64.2647C93.3444 64.3822 93.4578 64.477 93.5876 64.5512C93.7175 64.6254 93.8576 64.6728 94.006 64.6954C93.7628 66.6307 93.3754 68.5371 92.8395 70.4126C92.6416 70.3858 92.4479 70.3549 92.2501 70.3281C90.896 70.1467 90.8568 72.1376 91.9492 72.554C91.9945 72.5725 92.046 72.5952 92.0934 72.6137C91.3741 74.5407 90.424 76.3441 89.2431 78.0279C88.2476 77.2922 86.5721 78.6606 87.3965 79.7839L87.6005 80.0621C86.2526 81.5295 84.7275 82.7805 83.0272 83.8172C82.7716 83.3473 82.5016 82.8836 82.2213 82.4178C81.4176 81.0699 79.5235 82.2488 80.1562 83.6255C80.3726 84.0975 80.5932 84.5571 80.8219 85.0126C80.0079 85.4062 79.1773 85.7586 78.3282 86.0699C77.5697 86.3419 76.803 86.5645 76.0302 86.7603C75.8612 86.3007 75.6983 85.839 75.5314 85.3774C74.9564 83.7842 72.3946 84.4726 72.9758 86.0822C73.118 86.4759 73.2623 86.8675 73.4024 87.2611C71.5578 87.5208 69.7091 87.5661 67.8522 87.3971C67.5802 86.379 67.3493 85.3506 67.1618 84.3139C66.9186 82.9598 64.8679 83.5369 65.1029 84.8827C65.2306 85.6144 65.3832 86.3398 65.5522 87.0632C64.025 86.7665 62.5452 86.3213 61.1087 85.7236C61.086 84.5777 61.0634 83.4318 61.0407 82.2859C61.0366 82.1622 61.0098 82.0427 60.9603 81.9294C60.9088 81.816 60.8408 81.7171 60.7521 81.6305C60.6635 81.5439 60.5605 81.478 60.4471 81.4306C60.3317 81.3853 60.2122 81.3626 60.0885 81.3626C59.9648 81.3626 59.8453 81.3853 59.7299 81.4306C59.6165 81.478 59.5135 81.5439 59.4249 81.6305C59.3363 81.7171 59.2682 81.816 59.2167 81.9294C59.1672 82.0427 59.1405 82.1622 59.1363 82.2859L59.0869 84.7611C57.2938 83.7925 55.676 82.5889 54.2312 81.1503C54.5527 80.1466 54.7712 79.1202 54.8825 78.0712C55.0226 76.882 53.1822 76.9088 53.0317 78.0712C52.9637 78.5576 52.873 79.0399 52.7555 79.518C51.7807 78.3206 50.9481 77.0304 50.2576 75.6495ZM53.8623 104.73C56.4962 100.208 56.0078 91.9457 55.5688 85.9854C56.6735 86.7191 57.8317 87.3497 59.0457 87.8773C59.0292 88.5925 59.2064 89.252 59.5774 89.8621C59.6042 89.9053 59.6351 89.9466 59.6722 89.9816C59.7093 90.0166 59.7505 90.0475 59.7958 90.0723C59.8391 90.097 59.8865 90.1156 59.936 90.1279C59.9855 90.1423 60.037 90.1485 60.0885 90.1485C60.138 90.1485 60.1895 90.1423 60.239 90.1279C60.2884 90.1156 60.3358 90.097 60.3791 90.0723C60.4244 90.0475 60.4657 90.0166 60.5028 89.9816C60.5399 89.9466 60.5708 89.9053 60.5976 89.8621C60.8325 89.4911 60.9809 89.0871 61.0427 88.6523C62.7575 89.217 64.5134 89.5982 66.3065 89.7961C66.5105 90.5257 66.8712 91.1666 67.3885 91.7211C67.5018 91.8282 67.6358 91.8962 67.7904 91.9251C67.9429 91.9539 68.0933 91.9375 68.2376 91.8777C68.3819 91.8179 68.4994 91.7231 68.588 91.5953C68.6766 91.4655 68.7219 91.3233 68.7261 91.1667C68.7425 90.7586 68.7013 90.3567 68.6003 89.961C70.4944 90.0166 72.3761 89.8971 74.2474 89.6044C74.334 90.0682 74.505 90.4968 74.7585 90.8925C75.012 91.2883 75.3294 91.6242 75.7128 91.8962C75.8199 91.9581 75.9354 91.9972 76.059 92.0137C76.1806 92.0302 76.3022 92.022 76.4238 91.991C76.5433 91.9581 76.6526 91.9065 76.7515 91.8303C76.8504 91.7561 76.9329 91.6654 76.9968 91.5582C77.1431 91.1543 77.2049 90.7359 77.1802 90.3031C77.1555 89.8724 77.0483 89.4643 76.8587 89.0768C78.6703 88.6564 80.4262 88.0628 82.1245 87.3003C82.446 87.8732 82.8767 88.3431 83.4188 88.712C83.4806 88.7471 83.5445 88.7739 83.6125 88.7903C83.6785 88.8089 83.7485 88.8171 83.8186 88.8171C83.8866 88.8151 83.9567 88.8068 84.0226 88.7883C84.0906 88.7697 84.1545 88.745 84.2143 88.71C84.2761 88.6749 84.3297 88.6337 84.3792 88.5842C84.4286 88.5348 84.4719 88.4791 84.507 88.4194C84.542 88.3596 84.5709 88.2957 84.5894 88.2298C84.608 88.1617 84.6183 88.0937 84.6183 88.0237C84.6183 87.3909 84.4761 86.7912 84.1916 86.2244C84.5482 86.0183 84.8903 85.8019 85.2304 85.5814C84.7893 91.6242 84.2576 99.9217 86.9039 104.73C87.3903 105.581 88.0209 106.307 88.7979 106.906C75.9663 115.655 62.5411 114.489 48.6418 108.786C49.7074 108.409 50.6863 107.873 51.5787 107.18C52.4711 106.486 53.2337 105.67 53.8623 104.73ZM3.41162 158.719C5.9796 150.158 8.33942 141.518 11.468 133.141C13.8649 126.719 15.693 122.533 22.0614 119.045C27.2159 116.321 32.5394 113.988 38.034 112.042C40.1424 111.261 43.0133 110.672 45.7833 109.814C59.0518 121.036 78.7239 118.419 92.0213 108.767C95.5827 110.295 99.9561 111.014 102.734 112.042C107.757 113.918 112.67 116.049 117.474 118.435C124.325 121.813 126.728 126.259 129.3 133.141C132.421 141.49 134.772 150.102 137.332 158.637C115.302 161.089 93.4248 163.15 71.226 163.406C48.5944 163.668 25.6063 163.402 3.41162 158.719Z" fill="black"/>
<path d="M70.4654 73.4842C71.1291 73.3627 71.768 73.1627 72.3842 72.8866C72.9984 72.6125 73.5734 72.2683 74.1072 71.8561C74.641 71.4418 75.1191 70.9719 75.5395 70.4464C75.962 69.9188 76.3165 69.3499 76.6009 68.7378C76.941 67.8207 75.7292 67.3735 75.1191 67.8743C73.4786 69.218 72.3306 70.5288 70.1604 71.007C69.5813 71.1306 68.9959 71.1924 68.4024 71.1924C67.8088 71.1924 67.2235 71.1306 66.6444 71.007C66.0632 70.8854 65.5026 70.7019 64.9626 70.4608C64.4206 70.2197 63.9094 69.9229 63.4313 69.5746C62.5513 68.9377 61.4054 70.4051 62.2607 71.0915C62.8068 71.5943 63.4004 72.0292 64.0475 72.394C64.6926 72.7588 65.3707 73.0453 66.0817 73.2534C66.7948 73.4616 67.5203 73.5852 68.2602 73.6244C69.0001 73.6636 69.7358 73.6162 70.4654 73.4842Z" fill="black"/>
<path d="M70.2202 63.7585C70.3521 63.7894 70.4799 63.7791 70.6035 63.7275C70.7272 63.674 70.8241 63.5895 70.8921 63.472C70.9601 63.3566 70.9869 63.2309 70.9704 63.0969C70.956 62.9609 70.9024 62.8455 70.8096 62.7465C69.7318 61.648 68.4684 60.8401 67.0195 60.3187C67.2916 58.7235 68.5055 56.9263 68.8826 55.3971C69.2763 53.7277 69.3834 52.0377 69.2062 50.3312C69.2021 50.2529 69.1856 50.1766 69.1526 50.1065C69.1196 50.0344 69.0764 49.9726 69.0207 49.919C68.963 49.8634 68.8991 49.8221 68.827 49.7933C68.7548 49.7644 68.6786 49.75 68.6003 49.75C68.524 49.75 68.4478 49.7644 68.3756 49.7933C68.3035 49.8221 68.2375 49.8634 68.1819 49.919C68.1262 49.9726 68.0809 50.0344 68.05 50.1065C68.017 50.1766 68.0005 50.2529 67.9964 50.3312C67.8686 52.5694 67.3554 54.7149 66.4548 56.7697C65.9499 57.7858 65.6057 58.8554 65.4243 59.9766C65.1749 62.2931 68.2788 63.4163 70.2202 63.7585Z" fill="black"/>
<path d="M58.1153 47.5142C58.1606 47.0814 58.173 46.6445 58.1544 46.2096C58.1008 45.7809 58.1235 45.3564 58.2245 44.938C58.2534 44.8164 58.2575 44.6927 58.2389 44.5691C58.2204 44.4454 58.1812 44.3279 58.1173 44.2208C58.0534 44.1136 57.971 44.0208 57.8721 43.9446C57.7732 43.8683 57.6619 43.8127 57.5423 43.7797C57.4207 43.7467 57.2991 43.7385 57.1734 43.7529C57.0498 43.7673 56.9323 43.8044 56.823 43.8642C56.7138 43.924 56.619 44.0023 56.5386 44.0992C56.4603 44.196 56.4005 44.3032 56.3634 44.4227C56.1491 45.0472 56.0564 45.6902 56.0852 46.3497C56.1573 47.0093 56.4376 47.5616 56.9302 48.0068C57.0312 48.1016 57.1507 48.1634 57.2868 48.1881C57.4228 48.2149 57.5547 48.2005 57.6825 48.1469C57.8103 48.0933 57.9154 48.0109 57.9937 47.8955C58.072 47.7801 58.1132 47.6543 58.1153 47.5142Z" fill="black"/>
<path d="M82.3969 46.5532C83.0812 45.7885 82.8132 44.6859 82.7679 43.7337C82.7638 43.6039 82.7349 43.4823 82.6834 43.3648C82.6298 43.2474 82.5577 43.1443 82.467 43.0536C82.3743 42.965 82.2671 42.897 82.1496 42.8475C82.0301 42.8001 81.9064 42.7754 81.7786 42.7754C81.6488 42.7754 81.5251 42.8001 81.4056 42.8475C81.2881 42.897 81.1809 42.965 81.0903 43.0536C80.9975 43.1443 80.9254 43.2474 80.8718 43.3648C80.8203 43.4823 80.7914 43.6039 80.7873 43.7337C80.742 44.69 80.472 45.7865 81.1603 46.5532C81.2428 46.6356 81.3355 46.6974 81.4427 46.7407C81.5499 46.7861 81.6612 46.8067 81.7786 46.8067C81.894 46.8067 82.0053 46.7861 82.1125 46.7407C82.2197 46.6974 82.3145 46.6356 82.3969 46.5532Z" fill="black"/>
<path d="M92.2699 113.832C85.2214 117.97 78.9869 121.614 70.504 121.88C62.5527 122.13 51.1472 120.066 44.7438 114.974C44.6428 114.879 44.5253 114.805 44.3934 114.755C44.2636 114.704 44.1276 114.679 43.9874 114.681C43.8473 114.685 43.7133 114.712 43.5835 114.768C43.4536 114.823 43.3403 114.9 43.2413 114.999C43.1424 115.097 43.0641 115.213 43.0105 115.343C42.9549 115.47 42.926 115.607 42.9239 115.747C42.9219 115.887 42.9466 116.023 42.9961 116.155C43.0476 116.285 43.1197 116.402 43.2166 116.505C48.5092 123.282 61.2728 124.908 69.3416 124.974C77.942 125.046 87.7008 122.059 93.624 115.592C93.7167 115.495 93.7889 115.384 93.8404 115.262C93.894 115.139 93.9228 115.011 93.929 114.877C93.9352 114.743 93.9187 114.611 93.8796 114.483C93.8383 114.355 93.7786 114.24 93.6961 114.133C93.6158 114.028 93.5168 113.939 93.4055 113.867C93.2922 113.797 93.1685 113.748 93.0387 113.719C92.9068 113.692 92.7769 113.688 92.643 113.708C92.5111 113.727 92.3874 113.768 92.2699 113.832Z" fill="black"/>
</svg>
