<svg width="149" height="167" viewBox="0 0 149 167" fill="none" xmlns="http://www.w3.org/2000/svg">
<path d="M90.0837 161.57C98.7719 160.823 107.61 161.671 116.359 161.056C122.829 160.639 129.238 161.074 135.589 162.356L135.62 162.33C136.169 162.26 136.696 162.115 137.201 161.886C137.707 161.658 138.168 161.364 138.585 160.999C139.007 160.639 139.362 160.222 139.657 159.752C139.947 159.282 140.166 158.781 140.311 158.245C140.786 153.541 140.355 148.92 139.024 144.387C138.941 144.027 138.734 143.754 138.409 143.579C138.418 136.735 136.973 130.213 134.083 124.01C129.374 114.975 115.362 111.518 106.889 107.776C105.738 107.266 104.197 108.171 103.098 109.463C102.084 109.823 101.258 110.438 100.626 111.312C95.9608 117.835 81.2285 117.751 74.1171 117.641C63.7158 117.483 56.6835 114.589 49.0407 107.78C48.6893 107.477 48.2764 107.337 47.8108 107.367C48.4741 105.856 48.3818 104.517 46.6336 104.71C43.8927 105 41.2002 105.536 38.5603 106.326C35.9205 107.117 33.3728 108.145 30.9219 109.414C28.4753 110.679 26.1648 112.164 23.9906 113.864C21.8163 115.559 19.8222 117.448 17.9993 119.521C8.59507 130.265 7.94059 144.211 2.11182 156.699C0.565681 160.011 3.42077 159.87 5.63017 158.452C5.66531 158.72 5.77951 158.948 5.97278 159.141C6.17044 159.33 6.40324 159.435 6.67118 159.462C33.8824 164.557 61.2956 165.884 88.7659 165.493C88.4233 165.194 88.1861 164.829 88.0675 164.39C87.9445 163.951 87.9533 163.516 88.0983 163.086C88.2432 162.651 88.498 162.299 88.8582 162.023C89.2227 161.746 89.6312 161.597 90.0837 161.57Z" fill="#7AA802"/>
<path d="M102.044 36.0317C101.82 35.8604 101.574 35.7593 101.297 35.7286L101.877 33.752C101.556 33.5455 101.35 33.26 101.258 32.8911C101.157 32.7856 101.073 32.6714 100.998 32.5485C100.08 31.8545 99.5621 30.932 99.4523 29.7856C99.3601 28.9203 99.4611 28.077 99.7466 27.26C99.1273 26.6626 98.5036 26.0652 97.8711 25.4547C97.9589 25.1428 98.016 24.8265 98.038 24.5059C98.3454 18.2686 97.5328 10.4676 92.2619 6.27725C87.2897 2.32845 79.5194 1.5993 73.4359 2.24499C61.9189 3.47048 49.4532 10.9113 48.7416 23.4605C48.7108 23.6362 48.7196 23.8075 48.7636 23.9788C48.8119 24.1501 48.8909 24.3038 49.0051 24.44C49.1193 24.5762 49.2555 24.6816 49.4136 24.7563C49.5762 24.8353 49.7431 24.8705 49.9232 24.8749C49.8221 25.2614 49.7211 25.6479 49.6508 26.0432C48.6889 27.1985 47.8719 28.4503 47.213 29.8032C47.2526 30.2161 47.3053 30.6334 47.3448 31.0682C47.4502 32.3069 47.6435 33.5236 47.8236 34.7535C47.9114 35.1971 47.8851 35.632 47.7445 36.058C47.5996 36.4885 47.358 36.8531 47.0198 37.1517C47.4722 37.0771 47.8982 36.9365 48.3067 36.7213C48.1354 37.0771 48.0432 37.4548 48.0344 37.8501V37.8985C47.9466 37.8414 47.8543 37.7886 47.7533 37.7491C46.0754 37.2088 44.2349 39.0317 43.4136 40.2352C42.6976 41.184 42.1793 42.2294 41.8586 43.3758C41.538 44.5179 41.4326 45.6819 41.5512 46.8634C41.5907 46.9381 41.6346 47.0084 41.6698 47.0918C42.601 49.0992 43.7693 50.966 45.1661 52.6834C45.4736 52.5736 45.7811 52.556 46.0973 52.6351C46.4092 52.7098 46.6771 52.8723 46.8968 53.1095C47.6479 53.9836 48.175 54.9763 48.478 56.0876C48.5922 56.0085 48.7021 55.9206 48.8075 55.824C49.1237 55.5121 49.4092 55.1695 49.6596 54.7962C50.0242 56.742 50.4722 58.6791 51.0037 60.581C50.929 60.8753 50.8763 61.174 50.8544 61.4727C50.4986 67.2356 51.7812 73.0775 56.301 76.9868C56.5865 77.2108 56.9071 77.347 57.2673 77.3953C57.6275 77.4436 57.9745 77.3953 58.3083 77.2504C58.1985 77.4348 58.1019 77.6281 58.0228 77.8258C57.6714 78.5944 57.6495 79.3719 57.9525 80.1625C57.6055 80.6852 57.4254 81.2607 57.4123 81.8888C57.5528 85.7893 57.4254 89.681 57.0301 93.5683C56.6787 97.3063 56.5601 98.5537 53.1823 100.548C51.8778 101.321 49.8836 103.293 50.2438 105.019C50.5688 106.552 51.8339 106.807 53.0989 106.219C53.0506 106.592 53.1252 106.934 53.3273 107.251C53.5337 107.567 53.8149 107.782 54.175 107.888C61.036 110.282 68.8326 112.684 76.2031 111.937C81.4082 111.41 88.7348 109.697 92.4244 105.775C93.2546 104.892 94.2429 103.175 93.6938 101.901L93.5138 101.488C93.3908 101.198 93.1975 100.965 92.9296 100.798C92.9032 100.658 92.8593 100.526 92.7978 100.394C91.1902 97.5127 89.9734 94.4731 89.1608 91.271C88.3395 87.3574 89.3936 83.7644 90.5181 80.0308C93.2151 78.4319 95.0204 75.3352 96.5753 72.6251C98.4596 69.1902 99.6939 65.5357 100.274 61.6616C100.783 60.6118 101.152 59.5181 101.381 58.376C101.539 57.7655 101.429 57.212 101.047 56.7069C102.11 54.6205 102.764 52.4111 103.019 50.0831L102.958 49.9118C102.883 49.7009 102.848 49.4857 102.861 49.2617C102.874 49.0377 102.931 48.8269 103.037 48.6248C103.138 48.4271 103.274 48.2558 103.449 48.1153C103.625 47.9747 103.818 47.8737 104.034 47.8166C105.988 44.184 108.865 39.4709 106.322 35.588C105.36 34.121 103.471 34.7491 102.044 36.0317ZM63.9307 10.7619C61.3259 11.7019 58.9408 13.0328 56.771 14.7547C57.7549 13.5687 58.8969 12.5628 60.1927 11.7371C61.4885 10.9069 62.8853 10.2963 64.3699 9.90541C64.203 10.1777 64.058 10.4633 63.9307 10.7619Z" fill="#6D473A"/>
<path d="M73.6971 66.9064C72.2563 66.7922 70.8332 66.5814 69.4188 66.2871C69.1816 66.5375 68.9708 66.8142 68.7863 67.1085C68.492 67.5829 68.268 68.0924 68.123 68.6327C69.0806 69.6737 70.1699 70.5522 71.3954 71.2681C72.3222 71.6942 73.6795 71.905 74.8786 72.2872C75.6429 72.0061 76.3193 71.5844 76.9035 71.0178C77.4921 70.4511 77.9358 69.7923 78.2432 69.0368C78.4585 68.4965 78.5375 67.9387 78.4892 67.3589C78.4936 67.3149 78.4936 67.2666 78.498 67.2227C76.886 67.2974 75.2827 67.192 73.6971 66.9064Z" fill="#42191E"/>
<path d="M99.9972 103.312C99.9181 103.374 99.8347 103.431 99.7644 103.493C97.2124 105.698 94.3441 107.34 91.1552 108.421C91.1201 108.421 91.0937 108.412 91.0586 108.417C87.0483 108.794 83.1741 110.788 79.1419 110.617C77.8285 110.564 76.278 111.966 75.3995 113.477C74.4595 113.367 73.5196 113.248 72.5884 113.077C67.9016 112.919 63.4784 111.706 58.7126 111.03C58.4535 110.995 58.2382 110.885 58.0581 110.692C57.6013 111.118 57.206 111.592 56.8722 112.119C52.8487 110.815 49.405 108.601 47.7579 104.78C46.4489 101.74 40.7256 106.831 41.8896 109.528C46.774 120.86 64.1417 121.027 74.7055 120.671C76.3175 120.619 77.9735 120.491 79.6382 120.298C80.7451 120.263 81.8564 120.193 82.9721 120.092C83.4509 120.021 83.8857 119.846 84.2766 119.565C92.3631 117.926 100.226 114.333 104.943 107.692C102.988 106.58 101.341 105.122 99.9972 103.312Z" fill="#C0DE73"/>
<path d="M147.54 157.268C144.843 149.019 142.699 140.603 140.055 132.336C138.021 125.985 136.15 118.583 130.286 114.81C123.153 110.225 114.333 107.11 106.339 104.431C103.65 103.697 101.019 102.788 98.4498 101.699C98.2038 101.479 97.9271 101.321 97.6109 101.229C96.3195 100.407 95.2565 99.3577 94.4176 98.0795C93.5786 96.8013 93.0383 95.4089 92.7967 93.8979C91.7206 89.3912 92.0149 84.1071 91.927 79.4072C100.435 72.4584 102.794 60.6559 102.772 48.7172C106.115 47.7289 108.921 42.8094 108.877 39.6512C108.873 39.19 108.82 38.7376 108.724 38.2851C108.627 37.8371 108.482 37.4023 108.293 36.985C108.109 36.5633 107.88 36.168 107.612 35.7946C107.345 35.4213 107.041 35.0787 106.699 34.7712C106.361 34.4593 105.996 34.187 105.601 33.9542C105.205 33.717 104.793 33.5237 104.358 33.3744C103.923 33.225 103.479 33.1196 103.022 33.0625C102.57 33.0054 102.113 32.9922 101.656 33.0318C101.525 31.9952 101.393 30.9761 101.252 29.979C101.221 29.7418 101.129 29.5266 100.98 29.3333C99.5919 13.402 93.5479 -2.49869 74.4407 1.0504C67.0658 2.42085 58.5049 4.75762 53.1549 10.3756C47.2471 16.5733 46.2939 25.8677 47.0099 34.0333L47.0143 34.042C46.9967 34.1035 46.9836 34.1694 46.9748 34.2309C46.9704 35.1841 46.9528 36.1592 46.9309 37.1519C42.5692 36.2954 39.8634 41.3379 39.96 45.1725C40.0479 48.625 42.8327 54.1726 46.6981 53.5225C46.9616 61.2752 48.1871 68.9093 52.2545 74.9049C53.4844 76.719 54.9427 78.3354 56.6206 79.7454C56.502 83.6503 56.4229 87.5596 56.0583 91.4513C55.2677 99.9551 50.5985 101.703 43.5926 103.979C35.1459 106.719 25.7988 109.974 18.2833 114.81C12.7093 118.395 10.9172 125.045 8.92305 131.089C6.02843 139.856 3.81024 148.839 0.920017 157.61C0.414886 159.139 2.30803 159.951 3.34025 159.178C13.8382 162.556 25.2102 163.298 36.1123 164.462C48.6 165.662 61.1184 166.171 73.6633 165.987C98.1248 166.088 122.384 163.909 146.442 159.451C146.516 159.442 146.587 159.429 146.661 159.411C146.872 159.372 147.083 159.336 147.298 159.297C148.278 159.099 148.269 157.681 147.54 157.268ZM105.983 41.4565C105.21 43.007 104.116 44.2808 102.702 45.2779C102.574 41.843 102.28 38.4345 101.911 35.1665C104.845 35.8693 107.476 38.004 105.983 41.4565ZM53.6469 13.8939C57.8065 8.55709 64.303 6.70348 70.6632 5.40771C77.5901 3.99334 85.0485 2.84691 90.3985 8.61419C95.8671 14.5132 96.3063 23.2103 96.7499 30.7872C96.7631 31.2133 96.8949 31.5955 97.1409 31.9425C97.3912 32.2895 97.7119 32.5398 98.1116 32.6892C98.2126 33.6028 98.3137 34.534 98.4191 35.4784C98.2609 35.5047 98.1116 35.5355 97.9623 35.5574C96.9476 35.72 95.8231 35.8078 94.7909 36.0757C94.769 35.8386 94.747 35.6014 94.725 35.373C94.4659 32.6892 94.3165 30.673 91.6284 29.5486C87.864 28.2748 84.0338 28.02 80.1333 28.7887C79.984 28.8019 79.839 28.8502 79.7073 28.9248C79.5755 28.9995 79.4613 29.1005 79.3734 29.2279C79.2856 29.3509 79.2285 29.4915 79.2021 29.6408C79.1714 29.7902 79.1802 29.9395 79.2153 30.0888C76.1494 28.5427 75.1435 32.4915 74.8624 36.4842C74.0718 36.1197 73.246 35.9835 72.3807 36.0757C71.5154 36.1724 70.7335 36.4799 70.0395 37.0069L70.0088 36.6731C69.7496 33.9893 69.6046 31.9732 66.9165 30.8487C63.1521 29.5705 59.3175 29.3202 55.4214 30.0888C55.2677 30.102 55.1272 30.1503 54.991 30.225C54.8592 30.2997 54.7494 30.4007 54.6616 30.5281C54.5737 30.6511 54.5122 30.7916 54.4859 30.941C54.4595 31.0903 54.4639 31.2397 54.5034 31.389C51.0378 29.6452 50.2032 34.9074 50.0714 39.3174C49.8035 39.2515 49.5268 39.2076 49.2457 39.19C49.2149 37.4901 49.1578 35.8254 49.048 34.2309C49.0348 34.0069 48.9558 33.8092 48.8108 33.6379C49.4785 26.7594 49.1578 19.6524 53.6469 13.8939ZM79.7204 31.0025C80.0367 31.2924 80.4101 31.4022 80.8361 31.3407C82.861 31.0157 84.8947 30.9322 86.9372 31.0903C90.4117 31.4241 91.6196 32.3773 92.3268 36.0274C93.0559 39.7742 93.7982 45.7787 89.5068 47.4214C87.6137 47.9529 85.6942 48.111 83.7395 47.8914C80.1509 47.7157 78.719 46.8504 77.9679 43.0685C77.7614 42.0231 76.8873 31.1079 78.7541 31.6174C78.9737 31.6701 79.1802 31.6394 79.369 31.5164C79.5623 31.3934 79.6765 31.2221 79.7204 31.0025ZM55.0042 32.2982C55.3248 32.5925 55.6982 32.7024 56.1242 32.6409C58.1448 32.3158 60.1785 32.2324 62.2253 32.3861C65.6954 32.7243 66.9033 33.6775 67.6149 37.3276C68.344 41.0743 69.0863 47.0744 64.7949 48.7216C62.9018 49.2531 60.9779 49.4112 59.0233 49.1916C55.439 49.0115 54.0071 48.1506 53.256 44.3687C53.0495 43.3233 52.1754 32.4081 54.0422 32.9176C54.2618 32.9703 54.4639 32.9395 54.6572 32.8166C54.846 32.6936 54.9646 32.5223 55.0042 32.2982ZM46.395 49.8021C45.5824 49.6089 44.8752 49.2223 44.2734 48.6425C43.6717 48.0627 43.2632 47.3687 43.0435 46.5649C41.941 43.969 42.9206 38.6278 46.8781 39.2251C46.7727 42.6337 46.6278 46.2223 46.6278 49.8373L46.395 49.8021ZM53.2077 70.5213C49.1534 62.3777 49.3731 51.6557 49.2852 41.9309C49.5487 41.9089 49.8079 41.865 50.0671 41.8035C50.089 42.9851 50.1417 43.925 50.1681 44.3687C50.335 47.1447 50.5195 50.1974 53.4009 51.4185C55.2018 52.0159 57.0554 52.341 58.953 52.3937C60.8505 52.4464 62.7173 52.2268 64.5533 51.7348C70.5358 50.2018 70.6852 44.54 70.2591 39.3437C71.489 38.9352 73.2679 37.9777 74.3704 39.0011C74.489 39.1065 74.6208 39.1856 74.7702 39.2295C74.7614 40.9953 74.8492 42.4711 74.8844 43.0729C75.0469 45.8445 75.2358 48.8973 78.1128 50.1184C79.9181 50.7158 81.7673 51.0408 83.6649 51.0979C85.5668 51.1506 87.4336 50.931 89.2652 50.4346C95.1335 48.9368 95.3927 43.4594 94.9974 38.3466C96.135 38.3335 97.2595 38.1929 98.3664 37.9294L98.6738 37.8679C100.404 54.6602 101.098 74.7732 82.6019 81.4321C71.5285 85.4205 58.6367 81.4277 53.2077 70.5213ZM56.9808 100.978C59.7436 96.2434 59.2297 87.5903 58.7685 81.3487C60.3498 82.3282 62.0101 83.1452 63.7495 83.7996C65.4889 84.4497 67.2766 84.9241 69.1127 85.2228C70.9443 85.5215 72.7936 85.6357 74.6472 85.5654C76.5052 85.4951 78.3368 85.2448 80.1465 84.8143C83.6165 84.1247 86.845 82.8289 89.8318 80.9226C89.3706 87.2521 88.8128 95.9447 91.5844 100.978C92.094 101.87 92.7572 102.63 93.5698 103.258C80.1333 112.421 66.0731 111.2 51.5166 105.226C53.805 104.413 55.6279 102.999 56.9852 100.978H56.9808ZM4.14846 157.527C6.84103 148.557 9.30958 139.509 12.5863 130.733C15.0944 124.008 17.0095 119.624 23.6817 115.97C29.0756 113.119 34.654 110.677 40.4081 108.639C42.6131 107.822 45.6219 107.203 48.5209 106.307C62.4142 118.056 83.0192 115.315 96.9432 105.208C100.672 106.807 105.254 107.563 108.162 108.639C113.424 110.602 118.567 112.834 123.597 115.333C130.774 118.869 133.291 123.529 135.983 130.733C139.251 139.478 141.715 148.5 144.395 157.435C121.326 160.004 98.4103 162.165 75.1655 162.433C51.4683 162.705 27.3933 162.429 4.14846 157.527Z" fill="black"/>
<path d="M74.1177 58.0677C74.4251 58.1424 74.6623 58.0414 74.8205 57.769C74.9786 57.4923 74.9522 57.242 74.7326 57.0092C73.6038 55.8583 72.2816 55.0106 70.7662 54.4659C71.0518 52.7968 72.3212 50.9124 72.7165 49.3136C73.1294 47.561 73.2392 45.7909 73.0547 44.0031C73.0503 43.8362 72.9844 43.6913 72.8614 43.5727C72.7385 43.4541 72.5935 43.3926 72.4222 43.3926C72.2509 43.3926 72.1059 43.4541 71.983 43.5727C71.86 43.6913 71.7941 43.8362 71.7897 44.0031C71.6535 46.3487 71.1176 48.5976 70.1733 50.7499C69.6462 51.8129 69.286 52.933 69.0971 54.1057C68.8336 56.5348 72.084 57.7119 74.1177 58.0677Z" fill="black"/>
<path d="M61.4401 41.056C61.4884 40.5992 61.5016 40.1468 61.4796 39.6899C61.4269 39.2419 61.4489 38.7939 61.5543 38.3546C61.6158 38.0911 61.5807 37.8407 61.4401 37.6035C61.3039 37.3707 61.1019 37.217 60.8383 37.1423C60.5792 37.072 60.3244 37.1028 60.0872 37.2302C59.85 37.3619 59.6875 37.5596 59.6084 37.8188C59.38 38.4732 59.2834 39.1453 59.3142 39.8349C59.3888 40.5289 59.6831 41.1043 60.2014 41.5699C60.4298 41.7895 60.6934 41.8378 60.9877 41.7192C61.282 41.5963 61.4313 41.3766 61.4401 41.056Z" fill="black"/>
<path d="M86.867 40.0509C87.5829 39.2514 87.3018 38.0962 87.2535 37.0947C87.2447 36.818 87.1393 36.5808 86.9372 36.3876C86.7352 36.1943 86.498 36.0977 86.2169 36.0977C85.9402 36.0977 85.6986 36.1943 85.4965 36.3876C85.2989 36.5808 85.1934 36.818 85.1803 37.0947C85.1319 38.0962 84.8508 39.247 85.5712 40.0509C85.7513 40.2266 85.9665 40.3144 86.2169 40.3144C86.4716 40.3144 86.6869 40.2266 86.867 40.0509Z" fill="black"/>
<path d="M67.6509 67.4767C67.5938 67.6524 67.5982 67.8237 67.6641 67.995C68.6832 70.7798 70.998 73.4988 74.3011 72.9629C75.0039 72.7608 75.6627 72.4621 76.2733 72.058C76.8838 71.6583 77.4241 71.1751 77.8941 70.6085C78.3597 70.0463 78.7331 69.4226 79.0098 68.7461C79.2909 68.0697 79.4622 67.3625 79.5281 66.6334C79.5457 66.629 79.5676 66.6246 79.5852 66.6158C79.7214 66.5763 79.8312 66.4928 79.9102 66.3698C79.9849 66.2468 80.0157 66.1107 79.9981 65.9701C79.9761 65.8252 79.9146 65.7022 79.8048 65.6055C79.6994 65.5089 79.572 65.4562 79.4271 65.4518C75.5925 65.3112 71.7666 65.4298 67.9496 65.8032C67.7432 65.8076 67.5631 65.8779 67.4093 66.014C67.2512 66.1458 67.1546 66.3171 67.1194 66.5192C67.0843 66.7212 67.1151 66.9145 67.2161 67.0946C67.3127 67.2747 67.4577 67.402 67.6509 67.4767ZM77.6833 67.1648C77.0639 68.4299 76.1986 69.5016 75.0917 70.3801C72.8472 71.7857 70.7783 69.405 69.5792 67.6524C72.3025 67.8632 75.0039 67.7007 77.6833 67.1648Z" fill="black"/>
<path d="M97.2065 110.514C89.8272 114.849 83.2957 118.662 74.4141 118.943C66.0861 119.202 54.143 117.041 47.4358 111.709C47.2117 111.498 46.9482 111.397 46.6451 111.401C46.3376 111.41 46.0785 111.52 45.8633 111.735C45.648 111.95 45.5338 112.214 45.5294 112.517C45.525 112.824 45.6261 113.088 45.8369 113.312C51.3802 120.41 64.7464 122.114 73.193 122.185C82.2019 122.255 92.4188 119.127 98.6253 112.354C98.823 112.143 98.9284 111.897 98.9459 111.608C98.9591 111.318 98.8757 111.059 98.7 110.83C98.5243 110.597 98.2959 110.452 98.0104 110.395C97.7292 110.334 97.4613 110.373 97.2065 110.514Z" fill="black"/>
</svg>
