<svg width="142" height="167" viewBox="0 0 142 167" fill="none" xmlns="http://www.w3.org/2000/svg">
<path d="M56.7658 43.7552C56.5489 44.3757 56.4577 45.0179 56.4881 45.6774C56.5575 46.337 56.8396 46.888 57.3299 47.3306C57.5512 47.5433 57.8029 47.5866 58.0849 47.4738C58.3669 47.3567 58.5101 47.1441 58.5188 46.8403C58.5622 46.4064 58.5752 45.9725 58.5579 45.5386C58.5015 45.109 58.5275 44.6838 58.6273 44.2672C58.688 44.0112 58.649 43.7726 58.5188 43.5513C58.3843 43.3256 58.1934 43.1781 57.9417 43.1087C57.69 43.0392 57.4514 43.0696 57.2258 43.1955C56.9958 43.317 56.8439 43.5035 56.7658 43.7552Z" fill="black"/>
<path d="M85.8697 161.779C94.1704 161.068 102.61 161.875 110.967 161.289C117.146 160.89 123.264 161.306 129.335 162.534L129.361 162.508C129.886 162.439 130.389 162.3 130.871 162.083C131.357 161.866 131.795 161.584 132.194 161.237C132.593 160.89 132.932 160.495 133.214 160.048C133.496 159.597 133.704 159.119 133.843 158.607C134.294 154.125 133.882 149.717 132.615 145.39C132.533 145.048 132.337 144.792 132.029 144.622C132.034 138.096 130.654 131.874 127.894 125.956C123.399 117.342 110.013 114.045 101.924 110.478C100.822 109.992 99.347 110.855 98.3013 112.083C97.3293 112.426 96.5439 113.012 95.9408 113.845C91.4845 120.072 77.4128 119.989 70.6177 119.885C60.6855 119.733 53.9685 116.974 46.6701 110.482C46.3316 110.187 45.9411 110.057 45.4985 110.087C46.132 108.647 46.0409 107.367 44.3704 107.553C41.7539 107.827 39.1808 108.339 36.6598 109.094C34.1387 109.849 31.7045 110.829 29.3657 112.036C27.0269 113.246 24.8183 114.661 22.7442 116.279C20.6701 117.902 18.7609 119.699 17.0252 121.677C8.03893 131.926 7.41409 145.226 1.84701 157.136C0.371705 160.295 3.10101 160.161 5.20982 158.807C5.2402 159.063 5.35301 159.284 5.5396 159.462C5.72618 159.644 5.94747 159.744 6.20348 159.77C32.1948 164.63 58.377 165.893 84.6114 165.52C84.2816 165.238 84.0603 164.89 83.9431 164.47C83.826 164.053 83.839 163.636 83.9778 163.224C84.1124 162.812 84.3553 162.478 84.7025 162.213C85.0453 161.948 85.4358 161.805 85.8697 161.779Z" fill="#7AA802"/>
<path d="M99.2276 38.4887C98.299 37.0958 96.5026 37.7033 95.1445 38.94C94.9319 38.7751 94.6932 38.6796 94.4285 38.6536L96.0166 33.1125C96.4809 31.4984 95.1228 30.7824 93.7559 31.1035C93.6778 31.1209 93.6084 31.1599 93.5303 31.1816C89.8204 27.7407 85.8935 23.4233 81.077 21.935C75.5317 20.221 67.7299 21.0715 62.063 21.6009C52.2783 22.5121 42.7843 28.0011 41.1441 38.3715C40.7883 40.6192 42.2766 40.719 43.8257 39.9249C43.6652 40.2634 43.5784 40.6235 43.574 41.001V41.0488C43.4916 40.9924 43.4005 40.9446 43.305 40.9056C41.6995 40.4023 39.9509 42.1509 39.1742 43.3051C38.4973 44.2163 38.007 45.2143 37.7076 46.3078C37.4082 47.4012 37.317 48.5121 37.4342 49.6359C37.4732 49.7097 37.521 49.7747 37.5513 49.8528C38.4539 51.7664 39.5777 53.5368 40.9272 55.1683C41.2136 55.0598 41.513 55.0424 41.8124 55.1162C42.1118 55.1856 42.3678 55.3375 42.576 55.5631C43.305 56.3919 43.8127 57.3335 44.1078 58.3922C44.2162 58.3141 44.3204 58.2317 44.4202 58.1406C44.7239 57.8412 44.9929 57.5114 45.2272 57.1556C45.5874 59.0084 46.03 60.8525 46.5507 62.6619C46.4769 62.944 46.4335 63.226 46.4118 63.5167C46.1081 69.0144 47.3664 74.5771 51.7056 78.2784C51.9789 78.491 52.2913 78.6169 52.6341 78.6603C52.9769 78.7036 53.3067 78.6559 53.6278 78.5171C53.5193 78.695 53.4325 78.8772 53.3588 79.0681C53.0246 79.8014 53.0073 80.5434 53.3023 81.2941C52.9726 81.7974 52.8077 82.3442 52.799 82.9473C52.9552 86.6659 52.8598 90.3802 52.5083 94.0858C52.1915 97.6526 52.0874 98.8458 48.8764 100.768C47.6311 101.514 45.7393 103.406 46.0951 105.051C46.4118 106.509 47.6224 106.747 48.8287 106.175C48.7853 106.53 48.8591 106.86 49.0543 107.16C49.2496 107.459 49.523 107.659 49.8658 107.758C56.4352 110.002 63.8941 112.249 70.9322 111.49C75.8961 110.956 82.8865 109.277 86.3838 105.515C87.1735 104.665 88.1064 103.02 87.5727 101.809L87.3991 101.415C87.282 101.141 87.0911 100.924 86.8351 100.764C86.809 100.629 86.7656 100.503 86.7092 100.382C85.1558 97.6396 83.9756 94.7454 83.1772 91.6993C82.3701 87.972 83.3551 84.5398 84.4095 80.973C86.9739 79.4283 88.6792 76.4647 90.1458 73.8699C91.9292 70.5852 93.0834 67.0922 93.6128 63.3909C94.0901 62.3886 94.4372 61.3428 94.6498 60.2537C94.7973 59.6679 94.6889 59.1386 94.32 58.6656C95.318 56.6653 95.9342 54.5565 96.1598 52.3348L96.1034 52.1699C96.0296 51.9703 95.9949 51.7621 96.0079 51.5494C96.0166 51.3368 96.073 51.1329 96.1685 50.942C96.264 50.751 96.3941 50.5905 96.5634 50.456C96.7282 50.3171 96.9148 50.2217 97.1188 50.1653C98.9629 46.6896 101.684 42.1769 99.2276 38.4887Z" fill="#B26752"/>
<path d="M132.108 121.019C132.256 120.702 132.364 120.376 132.433 120.038C132.624 118.966 132.789 117.86 132.928 116.74C132.16 114.011 130.086 111.494 129.826 108.591C129.687 108.374 129.57 108.144 129.483 107.897C128.849 105.619 128.559 103.298 128.619 100.937C128.515 100.85 128.415 100.759 128.307 100.681C128.407 100.49 128.485 100.291 128.576 100.1C128.533 98.9629 128.398 97.8347 128.172 96.7239C127.825 96.4115 127.565 96.0427 127.378 95.6131C127.153 95.036 127.018 94.4372 126.975 93.821C126.701 93.3481 126.458 92.9185 126.268 92.5714C125.356 90.9876 124.606 89.3344 124.016 87.6031C123.651 86.8264 123.421 86.015 123.334 85.1602C123.217 84.9562 123.113 84.7523 122.992 84.5527C122.731 84.0841 122.718 83.6154 122.957 83.1338C122.054 81.0727 121.803 78.9335 122.206 76.7162C121.785 76.3908 121.36 76.0871 120.93 75.805C122.488 72.9629 123.69 69.9776 124.545 66.8491C125.959 61.525 125.139 49.7356 118.6 48.1258C118.496 48.1041 118.388 48.0954 118.279 48.0954C117.385 43.9472 115.945 40.003 113.957 36.254C111.97 32.5093 109.514 29.0988 106.581 26.0353C106.503 25.8314 106.394 25.6535 106.247 25.4929C101.986 20.9412 100.554 14.7189 96.1237 10.4015C92.9084 7.27299 87.3804 3.05536 82.7419 2.51297C78.4505 2.00964 72.8573 4.89515 69.3166 7.02132C67.7242 7.94121 66.4571 9.19088 65.5155 10.7703C64.9949 11.0741 64.4872 11.3865 64.0055 11.7206C63.7495 11.9028 63.5109 12.1111 63.2939 12.3411C62.5953 11.9419 61.8707 11.5991 61.1157 11.317C60.3607 11.035 59.5927 10.8094 58.8029 10.6488C58.0132 10.4883 57.2148 10.3928 56.4121 10.3581C55.6093 10.3234 54.8066 10.3538 54.0039 10.4492C53.2055 10.5447 52.4201 10.7009 51.6434 10.9178C50.871 11.1391 50.116 11.4168 49.387 11.7553C48.6537 12.0937 47.9551 12.4886 47.2913 12.9399C46.623 13.3911 45.9939 13.8901 45.4081 14.4412C40.4485 18.9929 39.3073 25.8271 34.1307 30.292C30.1214 33.7503 26.1294 36.1975 24.5716 41.6084C22.6711 48.2256 25.7345 55.064 22.9445 61.5901C21.2305 65.6081 18.4882 69.0881 16.2145 72.8154C15.069 80.7082 15.6895 89.6251 12.1965 96.6805C11.116 98.9065 9.80127 100.985 8.26088 102.92C8.56028 108.019 8.49085 113.113 8.04826 118.198C7.72717 120.741 6.95481 123.14 5.73551 125.392C5.94813 128.191 6.08698 131.385 4.99353 133.207C2.46816 137.416 7.43645 137.742 9.3717 134.513C10.3567 132.877 10.9728 131.111 11.2245 129.224C12.1704 128.708 12.8864 127.97 13.368 127.007C19.1217 113.547 34.6297 113.547 45.6641 107.016C52.8757 102.751 54.2382 93.8948 55.7308 86.041C56.2125 85.516 56.5856 84.9215 56.8503 84.2576C55.0149 82.8995 53.3964 81.32 51.9949 79.515C48.9792 75.5794 45.6337 69.5784 47.9551 64.5971C47.9855 64.545 48.0202 64.4929 48.0593 64.4495C47.1698 62.063 46.2976 59.6765 45.4905 57.264C45.087 56.049 43.8807 56.1879 42.6831 56.9385C42.7135 56.6044 42.6354 56.2963 42.4575 56.0143C42.3577 55.8668 42.2449 55.7062 42.119 55.537H42.1234C41.581 54.8688 41.1514 54.1355 40.826 53.3414C40.5049 52.5473 40.3009 51.7229 40.2185 50.8724C40.136 50.0176 40.1794 49.1715 40.3443 48.3297C40.5135 47.4879 40.7956 46.6852 41.1991 45.9302C41.7849 45.1665 41.9845 44.316 41.7936 43.3744C43.59 42.5544 45.3256 41.6345 47.0092 40.6061C47.6514 40.1809 48.1374 39.6168 48.4585 38.9182C48.7796 38.2152 48.8924 37.4819 48.7926 36.7139C49.4478 36.0196 50.0206 35.256 50.5065 34.4315C50.9795 34.6268 51.4568 34.6268 51.9298 34.4272C52.5242 34.2189 53.0883 33.9629 53.6437 33.7026L53.6784 33.6939C54.9802 33.2426 56.2342 32.6915 57.4448 32.0407C60.135 30.548 62.5129 28.6648 64.5783 26.3825C65.0339 25.9182 65.3854 25.3801 65.6284 24.7683C65.6848 24.8594 65.7542 24.9375 65.828 25.0156C71.4081 29.9058 76.9101 31.6068 83.7398 33.9455C86.1524 34.7743 87.593 36.5447 89.845 37.7206C92.9561 39.3391 97.0002 40.0811 100.324 41.1224C100.727 41.2353 101.122 41.2222 101.522 41.0921C102.029 43.4916 102.541 45.8868 103.053 48.2863C102.472 49.4622 101.721 50.521 100.801 51.4582C100.064 51.9225 99.4735 52.53 99.0266 53.285C98.584 54.0357 98.3366 54.8471 98.2889 55.7192C97.6988 56.1879 97.2519 56.7693 96.9481 57.4636C96.6487 58.1535 96.5272 58.8781 96.5836 59.6288C98.4495 66.0594 92.4528 74.0564 89.6671 79.5757C89.385 80.1007 89.2983 80.6518 89.4111 81.2376C88.8296 81.7019 88.2352 82.1532 87.6147 82.5827C87.0463 82.9993 86.582 83.5113 86.2218 84.1144C85.8617 84.7219 85.6317 85.3771 85.5406 86.0757C85.7228 86.1842 85.8747 86.323 85.9962 86.4966C86.8206 87.7116 86.6644 89.6294 86.8597 91.0397C87.1113 92.9011 87.2892 94.7843 87.3717 96.6675C87.4281 97.7132 87.4238 98.759 87.3457 99.8047C90.2789 103.805 93.9888 106.86 98.4755 108.973C109.623 114.766 125.829 114.623 127.734 130.187C128.181 133.862 133.926 129.567 133.601 126.898C133.362 124.872 132.863 122.91 132.108 121.019Z" fill="#722A2A"/>
<path d="M95.3407 106.217C95.2669 106.273 95.1888 106.33 95.1194 106.386C92.6852 108.49 89.9428 110.053 86.8968 111.085C86.8621 111.09 86.8404 111.077 86.8057 111.081C82.9742 111.441 79.2729 113.346 75.4242 113.185C74.1701 113.129 72.6862 114.465 71.8487 115.91C70.9505 115.802 70.0523 115.689 69.1628 115.529C64.6892 115.377 60.4629 114.218 55.9111 113.576C55.6638 113.541 55.4555 113.437 55.2863 113.255C54.8481 113.658 54.4705 114.114 54.1538 114.613C50.3093 113.368 47.0246 111.259 45.4495 107.614C44.1955 104.715 38.7326 109.571 39.8434 112.144C44.5079 122.948 61.0964 123.109 71.1892 122.775C72.7252 122.723 74.3047 122.601 75.8971 122.415C76.9559 122.384 78.0189 122.315 79.082 122.215C79.5376 122.15 79.9542 121.981 80.3274 121.716C88.051 120.15 95.562 116.726 100.066 110.391C98.2002 109.332 96.6251 107.939 95.3407 106.217Z" fill="#40530E"/>
<path d="M140.751 157.675C138.399 150.503 136.473 143.204 134.238 135.993C139.367 129.189 137.185 119.122 133.913 111.902C131.769 107.172 131.93 103.497 132.416 98.3551C132.75 95.9079 132.438 93.5474 131.483 91.2694C130.75 89.8505 129.86 88.5444 128.806 87.3511C125.543 83.1856 124.119 80.1048 125.226 74.5941C127.053 65.4863 126.45 55.5194 119.997 48.3077C117.416 45.5741 115.767 42.3588 115.046 38.6706C114.669 36.4446 114.04 34.2924 113.154 32.214C112.23 30.3785 111.028 28.7427 109.549 27.3108C108.073 25.8832 106.398 24.7333 104.533 23.8742C104.589 23.6659 104.602 23.4576 104.576 23.245C103.266 13.5384 95.4986 6.65655 86.8725 3.10282C82.7156 1.3932 78.5457 -0.390175 74.0764 1.1155C69.3381 2.71229 65.4372 7.25535 62.491 11.0477C61.788 11.959 62.9596 13.2433 63.797 12.3538C66.0881 9.59848 68.6959 7.18592 71.6205 5.12051C77.1181 1.79674 83.0627 3.9446 88.2176 6.65221C95.6375 10.5531 99.061 16.1549 101.938 23.6789C101.847 23.8091 101.786 23.9523 101.756 24.1085C101.721 24.2604 101.721 24.4166 101.751 24.5728C101.777 24.7246 101.838 24.8678 101.925 25.0023C102.012 25.1325 102.124 25.241 102.255 25.3321C109.575 29.6452 110.66 34.3835 112.187 41.8294C113.042 45.9776 115.007 47.3618 117.771 50.5337C121.75 55.0898 122.965 60.8001 122.696 66.723C122.492 71.3398 120.214 76.1519 120.735 80.786C121.047 83.5718 122.705 85.5808 124.297 87.7633C127.4 92.02 129.027 94.8969 128.302 100.325C127.942 102.126 127.786 103.944 127.838 105.784C128.185 110.405 131.218 114.084 132.464 118.432C133.431 122.173 133.349 125.882 132.221 129.575C130.619 124.75 128.571 119.947 124.267 117.183C117.459 112.809 109.032 109.836 101.4 107.285C98.8267 106.582 96.3144 105.714 93.8628 104.677C93.6285 104.465 93.3638 104.317 93.06 104.23C91.8277 103.445 90.8124 102.447 90.014 101.228C89.2112 100.008 88.6949 98.6806 88.4649 97.24C87.4365 92.9399 87.7186 87.9022 87.6318 83.4199C95.759 76.7897 98.011 65.5297 97.9893 54.1482C101.183 53.2023 103.864 48.5117 103.821 45.5003C103.817 45.0708 103.769 44.6499 103.682 44.2333C103.591 43.8168 103.461 43.4132 103.292 43.0227C103.122 42.6278 102.919 42.259 102.676 41.9075C102.433 41.5604 102.155 41.235 101.847 40.9399C101.539 40.6449 101.205 40.3845 100.849 40.1545C100.489 39.9246 100.107 39.7337 99.7119 39.5774C99.3127 39.4256 98.9048 39.3128 98.4839 39.239C98.063 39.1696 97.6378 39.1392 97.2126 39.1479C97.1432 38.9266 97.0217 38.74 96.8481 38.5838C96.7483 37.8027 96.6441 37.0304 96.54 36.2754C96.3014 34.5397 93.4245 34.8521 93.3334 36.488C90.8297 34.6742 88.5604 32.5437 85.4232 32.5307C81.6568 32.5177 78.7757 32.7694 75.7209 30.027C73.1478 27.7186 70.7006 25.2497 68.2142 22.8458C68.0146 22.6636 67.7803 22.5724 67.5113 22.5768C67.2379 22.5811 67.008 22.6766 66.8171 22.8718C66.6261 23.0628 66.5263 23.2927 66.522 23.5618C66.5177 23.8351 66.6088 24.0694 66.7954 24.2647C70.5704 28.1873 74.3715 34.2577 80.1121 35.2774C83.7743 35.9282 85.7443 35.0517 89.016 37.1779C90.4956 38.1933 92.0403 39.0915 93.6502 39.8768C95.4943 56.5347 97.8591 78.4733 78.7279 85.3508C68.1492 89.1562 55.8391 85.3465 50.6538 74.9456C45.9329 65.4863 47.278 52.3692 46.7617 41.7774C47.803 41.7644 48.788 41.5257 49.7209 41.0614C50.6538 40.5971 51.4436 39.9506 52.0814 39.1305C52.793 38.2974 53.1228 36.961 53.8257 36.2363C55.0928 34.9259 57.6181 35.1168 59.254 34.5571C59.8137 34.3662 60.3518 34.1232 60.8725 33.8325C61.3888 33.5417 61.8748 33.2076 62.3304 32.8301C62.786 32.4526 63.2026 32.0361 63.5844 31.5804C63.9663 31.1248 64.3004 30.6389 64.5911 30.1225C64.8861 29.6061 65.1291 29.0681 65.3244 28.5084C65.5153 27.9486 65.6585 27.3758 65.7496 26.7901C65.8408 26.2043 65.8755 25.6142 65.8581 25.024C65.8408 24.4296 65.7713 23.8438 65.6455 23.2624C65.4285 22.1819 63.7319 22.4423 63.745 23.5227C63.8144 24.23 63.7927 24.9329 63.6799 25.6359C63.5671 26.3388 63.3631 27.0157 63.0724 27.6622C62.7817 28.3131 62.4128 28.9119 61.9616 29.463C61.5147 30.014 61.0026 30.5 60.4255 30.9166C58.1084 32.496 56.0474 31.6542 53.6652 32.4613C52.6715 32.7824 51.9295 33.4029 51.4392 34.3228C49.9205 36.7223 48.7056 38.4015 45.9155 39.4212C45.7723 39.3735 45.6248 39.3648 45.4773 39.3865C45.3297 39.4126 45.1909 39.469 45.0737 39.5601C44.9522 39.6512 44.8568 39.764 44.7917 39.9029C44.7266 40.0374 44.6962 40.1806 44.7006 40.3324C44.6962 41.2393 44.6789 42.1722 44.6572 43.1138C40.4916 42.2981 37.9099 47.1101 38.001 50.768C38.0834 54.0614 40.7433 59.3508 44.4359 58.7303C44.6876 66.1242 45.8591 73.4009 49.7426 79.1198C50.9185 80.8555 52.307 82.3915 53.9125 83.741C53.7997 87.464 53.7216 91.1912 53.3745 94.9055C52.6195 103.011 48.1588 104.682 41.4723 106.851C33.4015 109.468 24.4759 112.57 17.2947 117.183C11.9749 120.602 10.261 126.941 8.35612 132.708C7.84845 134.244 7.37982 135.793 6.90686 137.342C4.22962 131.107 9.55806 125.258 9.50165 118.91C9.47128 115.226 8.12615 111.967 9.09377 108.24C10.274 103.987 12.4262 100.299 15.5504 97.1749C18.0931 94.5758 19.5293 94.0637 19.1475 90.3929C18.1972 81.3198 15.6285 74.2166 22.4799 66.4366C25.2917 63.2387 28.0687 61.3555 28.2683 56.7647C28.5938 49.2754 25.986 43.4045 31.0454 36.488C34.1609 32.227 39.3114 31.0554 41.494 26.0351C42.5744 23.5487 42.8825 20.75 44.1755 18.3418C47.3691 12.3972 53.9646 8.42691 60.061 12.9613C61.0026 13.6599 62.0918 12.1586 61.2934 11.3645C60.8942 10.9653 60.4646 10.5965 60.0046 10.2624C59.5447 9.93259 59.063 9.63753 58.5554 9.38586C58.0477 9.12985 57.527 8.91723 56.9846 8.75235C56.4422 8.58312 55.8912 8.46163 55.3314 8.38352C54.7673 8.30542 54.2032 8.2707 53.6392 8.28372C53.0707 8.30108 52.511 8.35749 51.9512 8.46597C51.3958 8.5701 50.8491 8.72197 50.3197 8.91289C49.786 9.10815 49.274 9.34681 48.7793 9.62451C41.6545 13.2694 42.2012 20.494 38.4175 26.3648C36.2089 29.7971 31.4055 31.2073 28.8932 34.6048C27.3918 36.6746 26.294 38.9439 25.6128 41.4042C24.7667 44.459 24.4499 47.5701 24.6538 50.7333C24.7276 52.1218 25.487 55.8578 25.4002 56.7647C24.9793 61.1081 22.0287 62.3665 19.7073 65.0177C18.7483 66.1719 17.9152 67.4042 17.1992 68.719C16.4833 70.0337 15.9018 71.4049 15.4549 72.8324C15.008 74.26 14.6999 75.718 14.5394 77.2063C14.3745 78.6902 14.3615 80.1829 14.4873 81.6712C14.6782 85.3421 17.1342 90.2063 15.1121 93.4997C13.025 96.8929 9.70993 98.9236 7.90485 102.777C4.42922 110.201 7.69224 116.462 5.60512 123.9C3.99097 129.653 1.31807 134.7 5.55305 139.872C5.68323 140.028 5.84377 140.137 6.03903 140.193C4.28603 146.137 2.65452 152.117 0.714936 158.001C0.233294 159.459 2.03837 160.231 3.02335 159.498C13.051 162.722 23.9162 163.425 34.3257 164.535C46.254 165.681 58.2082 166.163 70.1885 165.989C93.5547 166.084 116.726 164.006 139.697 159.758C139.771 159.749 139.84 159.736 139.909 159.719C140.109 159.68 140.313 159.65 140.517 159.606C141.454 159.424 141.441 158.07 140.751 157.675ZM101.057 47.223C100.319 48.7026 99.2737 49.9176 97.9242 50.8678C97.8027 47.5918 97.5207 44.3418 97.1692 41.222C99.9723 41.8945 102.485 43.9296 101.057 47.223ZM44.1452 55.1809C43.3685 54.9987 42.6959 54.6298 42.1188 54.0788C41.546 53.5234 41.1555 52.8638 40.9429 52.0958C39.8885 49.6225 40.8257 44.5284 44.6051 45.0925C44.5053 48.3468 44.3708 51.7704 44.3708 55.2156L44.1452 55.1809ZM54.2596 103.992C56.8935 99.4746 56.4032 91.2216 55.9649 85.2684C57.4706 86.2056 59.0587 86.9823 60.7206 87.6071C62.3825 88.2276 64.0877 88.6789 65.8408 88.9653C67.5938 89.2473 69.3554 89.3558 71.1301 89.2907C72.9048 89.2256 74.6535 88.987 76.3805 88.5748C79.6956 87.9152 82.7807 86.6829 85.6315 84.8648C85.1932 90.9005 84.6595 99.1882 87.3064 103.992C87.7924 104.842 88.4259 105.567 89.2026 106.166C76.3675 114.905 62.9379 113.737 49.0397 108.044C51.2266 107.268 52.9666 105.918 54.2596 103.992ZM3.79571 157.923C6.36447 149.37 8.72495 140.74 11.8534 132.369C14.253 125.956 16.0798 121.773 22.4496 118.289C27.6044 115.573 32.9285 113.238 38.4262 111.294C40.535 110.518 43.4075 109.928 46.1759 109.073C59.4492 120.281 79.1228 117.664 92.4222 108.023C95.9846 109.55 100.358 110.27 103.14 111.294C108.165 113.169 113.076 115.299 117.88 117.682C124.736 121.057 127.139 125.496 129.708 132.369C130.06 133.311 130.372 134.266 130.706 135.212C130.593 135.646 130.485 136.088 130.381 136.531C130.333 136.739 130.329 136.943 130.376 137.151C130.424 137.359 130.515 137.542 130.65 137.707C130.784 137.871 130.949 137.997 131.144 138.084C131.335 138.171 131.539 138.21 131.752 138.201C133.917 144.693 135.774 151.284 137.744 157.836C115.71 160.287 93.8281 162.348 71.6248 162.604C48.9876 162.865 25.9946 162.6 3.79571 157.923Z" fill="black"/>
<path d="M63.8286 68.8749C62.9477 68.2371 61.8022 69.7037 62.6614 70.3893C63.7635 71.409 65.0392 72.1293 66.4798 72.5502C67.9247 72.9711 69.387 73.0448 70.8666 72.7801C72.2118 72.5328 73.4267 71.9904 74.5072 71.153C75.5919 70.3155 76.4207 69.2785 77.0021 68.0375C77.3406 67.1219 76.13 66.675 75.5182 67.174C73.878 68.5191 72.7325 69.8295 70.5629 70.3068C69.387 70.5542 68.2154 70.5542 67.0439 70.3068C65.868 70.0552 64.7962 69.5779 63.8286 68.8749Z" fill="black"/>
<path d="M69.6086 49.6518C69.6 49.4912 69.5392 49.3524 69.4221 49.2395C69.3049 49.1267 69.1661 49.0703 69.0012 49.0703C68.8406 49.0703 68.7018 49.1267 68.5846 49.2395C68.4675 49.3524 68.4024 49.4912 68.398 49.6518C68.2679 51.8907 67.7558 54.0343 66.8576 56.0867C66.35 57.102 66.0072 58.1694 65.8249 59.2889C65.5733 61.6017 68.6801 62.7255 70.624 63.0683C70.9191 63.1377 71.1404 63.0423 71.2922 62.7819C71.4441 62.5172 71.4181 62.2786 71.2098 62.0573C70.1337 60.9595 68.8667 60.1524 67.4217 59.6317C67.6951 58.0349 68.9057 56.2429 69.2832 54.7155C69.6781 53.0449 69.7866 51.357 69.6086 49.6518Z" fill="black"/>
<path d="M82.8016 45.8801C83.4871 45.1164 83.2181 44.0142 83.1747 43.064C83.1661 42.795 83.0619 42.5693 82.871 42.3871C82.6801 42.2005 82.4501 42.1094 82.1854 42.1094C81.9164 42.1094 81.6864 42.2005 81.4955 42.3871C81.3046 42.5693 81.2048 42.795 81.1918 43.064C81.1484 44.0186 80.8793 45.112 81.5649 45.8801C81.7341 46.0493 81.9424 46.1317 82.1811 46.1317C82.4241 46.1317 82.6323 46.0493 82.8016 45.8801Z" fill="black"/>
<path d="M58.9422 45.5617C59.6278 44.798 59.3587 43.6959 59.3154 42.7456C59.3067 42.4766 59.2025 42.251 59.0116 42.0687C58.8207 41.8821 58.5907 41.791 58.326 41.791C58.057 41.791 57.827 41.8821 57.6361 42.0687C57.4452 42.251 57.3454 42.4766 57.3324 42.7456C57.289 43.7002 57.02 44.7937 57.7055 45.5617C57.8748 45.7309 58.083 45.8134 58.3217 45.8134C58.5647 45.8134 58.773 45.7309 58.9422 45.5617Z" fill="black"/>
<path d="M92.6755 113.086C85.6288 117.217 79.3892 120.857 70.9062 121.122C62.9526 121.374 51.545 119.313 45.1405 114.227C44.9279 114.028 44.6762 113.928 44.3855 113.932C44.0948 113.936 43.8431 114.045 43.6392 114.249C43.4309 114.457 43.3267 114.705 43.3224 114.995C43.3181 115.29 43.4135 115.542 43.6131 115.755C48.9069 122.524 61.6725 124.151 69.7433 124.216C78.3434 124.285 88.1064 121.304 94.0337 114.843C94.2203 114.644 94.3244 114.405 94.3374 114.127C94.3504 113.85 94.2723 113.602 94.1031 113.385C93.9339 113.168 93.7169 113.03 93.4436 112.973C93.1745 112.917 92.9185 112.952 92.6755 113.086Z" fill="black"/>
</svg>
