<svg width="143" height="167" viewBox="0 0 143 167" fill="none" xmlns="http://www.w3.org/2000/svg">
<path d="M86.4594 162.532C94.8808 161.81 103.439 162.628 111.917 162.035C118.184 161.63 124.393 162.052 130.55 163.297L130.576 163.27C131.108 163.2 131.623 163.059 132.111 162.839C132.599 162.619 133.048 162.334 133.452 161.982C133.857 161.63 134.2 161.23 134.486 160.772C134.772 160.32 134.983 159.831 135.124 159.317C135.581 154.765 135.163 150.297 133.879 145.908C133.795 145.561 133.598 145.302 133.281 145.13C133.285 138.507 131.891 132.197 129.09 126.194C124.525 117.456 110.95 114.109 102.744 110.49C101.627 109.997 100.132 110.873 99.0674 112.122C98.0867 112.469 97.2863 113.067 96.6751 113.911C92.1543 120.222 77.884 120.143 70.993 120.033C60.9136 119.879 54.1017 117.078 46.6961 110.494C46.3531 110.2 45.9573 110.068 45.5087 110.094C46.1508 108.634 46.0584 107.337 44.3653 107.526C41.7092 107.803 39.1014 108.322 36.542 109.087C33.9825 109.852 31.5199 110.851 29.1451 112.073C26.7704 113.3 24.532 114.734 22.43 116.378C20.3235 118.023 18.3886 119.848 16.6251 121.853C7.51323 132.249 6.87557 145.741 1.22902 157.822C-0.266173 161.023 2.49993 160.891 4.63718 159.515C4.67236 159.779 4.7867 159.998 4.9758 160.183C5.16489 160.363 5.38917 160.469 5.64863 160.495C32.0124 165.421 58.5696 166.705 85.1841 166.327C84.8499 166.041 84.6256 165.685 84.5069 165.262C84.3881 164.836 84.3969 164.418 84.5376 164C84.6784 163.583 84.9246 163.24 85.2764 162.971C85.6238 162.703 86.0196 162.558 86.4594 162.532Z" fill="#40530E"/>
<path d="M98.4429 53.765C98.4429 53.7563 98.4429 53.7431 98.4429 53.7343C98.2011 50.181 97.7393 46.6585 97.0489 43.1624C96.5915 41.1395 96.3848 39.0858 96.4288 37.0057C96.2573 36.799 96.1034 36.5835 95.9231 36.3812C94.3224 34.5958 92.4666 33.0522 90.901 31.2404C86.9783 30.893 83.0556 30.871 79.1286 31.1788C70.8214 31.4207 62.5803 32.2739 54.3963 33.7295C52.8923 34.4463 51.4631 35.2994 50.113 36.2757C49.8712 36.478 49.5985 36.5967 49.2907 36.6363C48.9828 36.6759 48.6838 36.6319 48.4024 36.4956C48.1825 36.7111 47.9538 36.9133 47.7383 37.1376C47.4437 37.4631 47.0787 37.6697 46.6477 37.7577C45.8078 41.6892 45.5967 45.6558 46.0276 49.6533C46.5246 52.9999 46.8104 56.364 46.872 59.7458C47.0127 59.5743 47.171 59.416 47.2985 59.2313C47.6504 61.1135 48.0857 62.9869 48.6002 64.8295C48.5255 65.1109 48.4771 65.4012 48.4551 65.6914C48.1121 71.2676 49.3522 76.9185 53.7323 80.7005C54.0093 80.916 54.3216 81.0479 54.669 81.0963C55.0164 81.1403 55.355 81.0963 55.676 80.9556C55.5705 81.1359 55.4781 81.3206 55.399 81.5141C55.1483 82.1209 55.0823 82.7454 55.2055 83.3875C55.5177 83.3259 55.8255 83.3479 56.1246 83.4578C56.4236 83.5678 56.6699 83.7481 56.8678 83.9987C61.2698 88.8977 68.2049 87.1166 73.8338 86.0744C74.7001 85.8985 75.5005 86.0568 76.2349 86.5537C80.5578 85.2169 84.4057 83.0356 87.7699 80.0057C89.8764 78.2334 91.719 76.2149 93.2889 73.9501C94.0629 72.8024 94.6082 71.5051 95.3162 70.3397C95.7384 68.8709 96.077 67.3801 96.3365 65.8717C96.829 64.8603 97.1852 63.8004 97.4095 62.6966C97.5634 62.1073 97.4535 61.5664 97.0841 61.0827C97.6514 59.7942 98.1439 58.4749 98.5661 57.1292C98.5529 55.9946 98.5089 54.8776 98.4429 53.765Z" fill="#B26752"/>
<path d="M86.2967 27.2694L81.5648 25.7346C81.5165 25.7214 81.4725 25.7258 81.4285 25.717C81.4461 25.4092 81.3582 25.1365 81.1559 24.9034C80.9536 24.6704 80.6985 24.5384 80.3907 24.512C74.4715 23.4478 68.262 22.4056 62.378 24.2526C58.3234 25.6554 54.7657 27.8586 51.705 30.8622C51.6038 30.9238 51.4939 30.9766 51.3971 31.0381C50.8694 31.4031 50.434 31.8561 50.0954 32.4014C49.6908 32.8016 49.2907 33.2018 48.8949 33.6107C45.7286 36.8914 48.974 39.7806 52.1227 36.5132C52.4789 36.1438 52.8352 35.8051 53.1958 35.4709C60.9927 31.4119 74.4363 30.2026 81.9562 34.1604C83.5526 35.0004 86.09 32.7092 86.7452 30.6159C87.2993 29.5165 87.7787 27.7487 86.2967 27.2694Z" fill="#4E6A03"/>
<path d="M111.988 51.7773C112.313 49.6972 111.082 49.4202 109.67 49.9919C109.903 46.9355 109.846 43.8792 109.494 40.8316C109.142 37.7797 108.505 34.7937 107.577 31.8693C106.649 28.9449 105.453 26.1304 103.988 23.4346C102.52 20.7389 100.809 18.2103 98.8563 15.8443C91.6178 7.22938 78.6756 -1.82093 66.9252 1.69717C66.4942 1.61801 66.072 1.6444 65.6542 1.77193C65.6235 1.77632 65.5927 1.78952 65.5663 1.79831C65.5003 0.975956 64.9418 0.549387 63.5698 1.09469C60.3859 2.35681 57.4966 4.10707 54.9064 6.34546C52.9187 7.57239 51.0629 8.96204 49.3259 10.5232C46.4542 13.1134 42.5139 16.9833 40.9616 21.0819C38.7935 23.8128 37.1796 26.8384 36.1198 30.1586C35.06 33.4788 34.6202 36.8826 34.8049 40.3655C33.9694 43.6637 33.6131 47.0103 33.7319 50.4141C33.9386 56.0694 35.9087 61.2146 37.6282 66.5402C38.6792 69.8384 39.5279 73.1894 40.1832 76.5843C39.5367 76.9317 38.9782 77.3891 38.5077 77.9564C38.0415 78.5237 37.7029 79.1613 37.4874 79.865C35.8603 90.8414 35.3018 104.017 28.8153 113.406C25.9921 117.491 31.0449 117.812 33.2086 114.787C33.5956 114.91 33.9606 115.05 34.3344 115.187C34.6202 115.846 35.2886 115.969 36.0055 115.824C45.3856 119.685 51.0805 126.392 58.8819 133.226C59.137 133.446 59.3964 133.67 59.6603 133.89C60.3023 135.763 61.2698 137.447 62.5627 138.947C63.8556 140.442 65.3772 141.647 67.1362 142.558C68.0553 143.094 69.036 143.481 70.0782 143.718C71.1161 143.956 72.1671 144.035 73.2313 143.956C74.2912 143.872 75.3202 143.635 76.3097 143.239C77.2991 142.848 78.2095 142.316 79.0406 141.643C79.3089 141.748 79.5903 141.797 79.885 141.788C79.9685 142.175 80.0521 142.562 80.14 142.945C80.826 145.821 86.4726 141.141 85.8305 138.367L86.5913 137.892C87.0795 137.725 87.5324 137.491 87.9502 137.197C88.3724 136.898 88.7418 136.55 89.0628 136.146C89.3794 135.741 89.6389 135.301 89.8324 134.826C90.0259 134.347 90.1446 133.855 90.1974 133.34C92.0752 132.694 94.5642 129.87 94.0365 127.984C93.799 127.148 93.5396 126.308 93.2933 125.468C93.5132 125.099 93.7375 124.725 93.9618 124.351C95.6153 122.262 97.3567 120.24 99.1861 118.291L99.2565 118.252L106.178 114.092C106.354 114.369 106.521 114.65 106.719 114.914C107.682 116.229 109.912 114.892 111.178 113.071C113.346 113.005 116.425 109.536 115.369 107.627C105.624 90.0191 109.002 70.7795 111.988 51.7773ZM77.1057 137.456C76.8814 137.72 76.5999 137.887 76.2613 137.958C76.468 137.817 76.6747 137.694 76.877 137.531C77.6686 136.907 78.2051 136.111 78.4909 135.148C78.5569 135.495 78.6316 135.842 78.6976 136.19C78.0863 136.511 77.5586 136.933 77.1057 137.456ZM76.5999 131.92C77.0353 131.291 77.3563 130.605 77.563 129.87C77.7037 130.75 77.8445 131.625 77.9984 132.505C77.563 132.241 77.1101 132.201 76.6395 132.386C76.6439 132.227 76.6307 132.074 76.5999 131.915V131.92ZM96.0946 64.1566C94.6786 68.5103 93.7375 73.1322 91.8245 77.2528C91.0329 77.3451 90.3337 77.6486 89.7312 78.1675C87.9942 79.6759 86.4858 81.3865 85.2061 83.2951C82.1585 87.0595 77.7609 87.4948 72.9763 87.6048C69.0712 87.6708 65.2453 87.1342 61.5073 85.9996C57.7693 84.8651 54.2908 83.1852 51.0805 80.96C51.0409 80.894 50.997 80.8368 50.9618 80.7709C50.8298 80.5422 50.6539 80.3575 50.4297 80.2168C47.5976 74.7021 47.1007 66.9579 45.9397 61.6104C45.3108 58.7124 44.6028 55.7088 44.1103 52.692C44.2686 50.4932 44.4225 48.29 44.5984 46.0912C44.7303 44.4729 44.8667 42.8545 45.0118 41.2362C45.1085 40.1324 44.8887 37.6126 45.4955 36.7287C45.9309 36.1658 46.2035 35.5325 46.3179 34.8333C46.4058 34.6838 46.4806 34.5342 46.5729 34.3891C47.303 34.3539 47.989 34.1516 48.6222 33.7866C49.2555 33.4216 49.77 32.9291 50.1658 32.3178C50.8958 31.2096 51.7138 30.1762 52.6153 29.2043C53.5168 28.2368 54.4931 27.3485 55.5441 26.5394C56.5951 25.7346 57.7033 25.0178 58.8687 24.3977C60.0385 23.7732 61.2522 23.2499 62.5055 22.8278C63.7633 22.4056 65.043 22.0934 66.3491 21.8823C67.6596 21.6756 68.9744 21.5744 70.2981 21.5832C71.6218 21.592 72.9367 21.7108 74.2384 21.9394C75.5445 22.1681 76.8198 22.4979 78.0687 22.9377C85.7558 25.4751 89.9203 32.2871 96.8686 35.77C96.6267 36.3417 96.6047 36.9221 96.8026 37.5114C97.2556 38.6064 97.6514 39.719 97.9856 40.858C97.7789 41.3022 97.7085 41.7683 97.7745 42.2521C98.1527 44.2266 98.6056 46.1747 99.1246 48.1009C99.041 53.6287 98.034 58.9806 96.0946 64.1566Z" fill="#7AA802"/>
<path d="M142.129 158.367C138.558 147.496 136.109 136.212 131.711 125.622C128.466 117.808 121.728 114.852 114.398 111.875C112.273 101.158 109.846 90.7623 109.331 79.7154C108.892 70.2474 110.057 61.1487 111.007 51.8521C111.486 51.5047 111.746 51.0385 111.794 50.4448C114.033 26.8956 94.1245 -0.545624 68.8909 0.584567C47.9714 1.52126 27.4741 24.9298 32.8655 46.1264C32.6149 46.4386 32.5445 46.7904 32.6545 47.173C35.4074 58.3034 37.3687 69.6317 36.7443 81.1359C36.111 92.7808 32.1487 101.857 27.3993 112.13C23.5162 113.793 18.7844 115.503 15.5521 118.142C12.3198 120.785 11.0797 124.307 9.59771 128.142C5.75419 138.094 3.41025 148.573 0.0812509 158.697C-0.406885 160.179 1.42253 160.962 2.42079 160.218C12.5925 163.486 23.6129 164.203 34.176 165.328C46.2739 166.489 58.4026 166.978 70.5532 166.802C94.2564 166.898 117.757 164.792 141.065 160.482C141.135 160.473 141.205 160.46 141.276 160.443C141.482 160.403 141.689 160.368 141.891 160.328C142.846 160.139 142.833 158.767 142.129 158.367ZM35.0732 46.509C34.9764 46.1791 34.7741 45.9329 34.4707 45.7746C30.4864 25.0661 50.3637 1.84669 71.3316 2.70422C81.5385 3.122 92.1939 11.1741 98.6364 18.7819C105.721 27.1462 109.063 39.7278 107.981 50.4448C107.915 50.911 108.03 51.32 108.329 51.6806C106.156 61.3949 105.242 71.2192 105.589 81.1667C105.941 91.1097 107.542 100.85 110.391 110.384C110.176 110.424 109.974 110.503 109.784 110.618C109.595 110.732 109.433 110.873 109.296 111.044C109.16 111.216 109.054 111.405 108.984 111.616C108.914 111.823 108.883 112.038 108.887 112.258C104.283 114.1 100.523 118.014 97.4139 121.827C95.0832 124.848 92.9899 128.023 91.1341 131.357C90.7867 131.942 90.4437 132.491 90.0963 133.023C83.3107 118.225 84.5772 103.863 83.4075 87.596C83.3767 87.3233 83.2667 87.0903 83.0776 86.8924C82.8885 86.6945 82.6555 86.5757 82.3872 86.5318C100.892 78.6732 99.8546 54.3895 97.4491 36.434C97.6074 36.1921 97.6777 35.9239 97.6602 35.638C97.6426 35.3478 97.537 35.0927 97.3479 34.8729C97.3259 34.8421 97.2996 34.8113 97.2732 34.7805C97.1368 34.4991 96.9434 34.2616 96.6927 34.0725C89.9027 25.8269 79.1418 19.5295 68.262 21.0071C57.888 22.4144 49.5457 29.3846 45.0294 38.5888C44.7963 38.7867 44.6864 39.033 44.6996 39.3364C44.6424 51.663 42.4876 67.9034 49.814 78.6864C55.9003 87.6488 66.5558 90.4325 76.833 88.2732C78.3898 87.9478 79.9069 87.5036 81.3933 86.9451C81.323 87.0551 81.279 87.1738 81.2526 87.3057C78.5569 102.104 78.6448 123.173 87.5236 136.454C85.4128 138.82 82.9985 140.82 80.2763 142.448C80.0741 142.571 79.9025 142.725 79.7618 142.914C77.3695 143.028 75.0036 142.804 72.6729 142.245C70.3421 141.682 68.1345 140.807 66.0544 139.615C60.4519 136.146 57.3427 129.457 52.7824 124.835C46.9116 118.889 39.031 114.083 30.636 113.801C30.6799 113.59 30.6755 113.375 30.6228 113.164C44.5368 95.0412 41.4805 66.6501 35.0732 46.509ZM47.4393 39.464C55.9575 36.1306 63.8248 33.4348 73.1478 33.5492C79.6563 33.6283 88.4515 33.2501 94.1421 36.9397C96.0067 54.0333 99.3708 77.7541 79.2165 85.0014C68.4863 88.8625 55.9971 84.997 50.7375 74.4471C45.7462 64.4425 47.4437 50.4053 46.7137 39.4464C46.9511 39.5607 47.193 39.5651 47.4393 39.464ZM47.5536 36.9309C52.6637 28.8481 60.7333 23.3291 70.7379 23.4302C78.315 23.505 83.601 26.7504 88.7154 30.8842C83.7505 30.1278 78.7592 29.8552 73.7415 30.0618C64.0183 30.0882 56.0322 32.6608 47.5536 36.9309ZM3.20356 158.618C5.44635 151.164 7.46486 143.609 10.0639 136.273C11.4887 132.254 12.6804 126.986 15.1431 123.542C17.5222 120.218 21.9287 118.155 25.9877 116.414C28.0545 116.484 30.0994 116.752 32.118 117.214C34.1409 117.676 36.0978 118.322 37.9932 119.162C39.8842 119.998 41.6828 121.005 43.3847 122.188C45.0865 123.366 46.6609 124.699 48.1077 126.181C52.844 130.803 55.8871 136.907 60.8037 141.313C67.0967 146.96 81.9299 151.375 88.7726 144.875C88.9705 144.664 89.098 144.418 89.1508 144.136C89.2079 143.855 89.1815 143.578 89.076 143.309C88.9749 143.041 88.8077 142.821 88.5747 142.65C88.3416 142.478 88.0821 142.386 87.7963 142.364C88.8649 141.397 89.8324 140.337 90.6943 139.18C91.1165 139.048 91.4551 138.802 91.7102 138.441C91.9652 138.076 92.084 137.676 92.0664 137.232C92.9327 135.917 93.7155 134.571 94.4411 133.292C98.632 125.912 103.509 117.834 111.526 114.334L111.79 114.439C111.86 114.624 111.922 114.817 111.992 114.998C112.032 115.121 112.084 115.239 112.155 115.345C112.225 115.455 112.309 115.552 112.405 115.64C112.502 115.728 112.603 115.798 112.722 115.86C112.836 115.921 112.955 115.965 113.083 115.991C113.206 116.018 113.333 116.031 113.465 116.027C113.593 116.022 113.72 116 113.843 115.961C113.967 115.925 114.085 115.873 114.195 115.802C114.305 115.732 114.402 115.653 114.49 115.56C117.348 116.677 120.075 118.05 122.674 119.677C128.092 123.27 129.723 129.285 131.821 135.09C134.6 142.777 136.737 150.702 139.081 158.534C116.728 161.019 94.5335 163.108 72.0088 163.367C49.0488 163.631 25.7238 163.363 3.20356 158.618Z" fill="black"/>
<path d="M71.2392 72.2527C72.6025 72.002 73.8338 71.4523 74.9332 70.6036C76.0326 69.7548 76.877 68.6994 77.4663 67.4417C77.8093 66.5138 76.5779 66.0608 75.9579 66.5665C74.2956 67.9298 73.1302 69.2579 70.9314 69.7416C69.7396 69.9967 68.5523 69.9967 67.3605 69.7416C66.1688 69.491 65.0825 69.0072 64.1019 68.2904C63.2092 67.644 62.0482 69.1304 62.9145 69.8252C64.0359 70.863 65.3288 71.593 66.7932 72.0196C68.2532 72.4462 69.7396 72.5209 71.2392 72.2527Z" fill="black"/>
<path d="M70.993 62.402C71.292 62.4724 71.5163 62.3756 71.6746 62.1118C71.8285 61.8435 71.7977 61.5972 71.591 61.3729C70.496 60.2603 69.2119 59.4424 67.7431 58.9147C68.0202 57.2963 69.2515 55.4757 69.6341 53.9278C70.0343 52.2347 70.1442 50.524 69.9639 48.7957C69.9551 48.6286 69.8935 48.4879 69.7748 48.378C69.6561 48.2636 69.5154 48.2065 69.3482 48.2065C69.1855 48.2065 69.0448 48.2636 68.9261 48.378C68.8029 48.4879 68.7414 48.6286 68.737 48.7957C68.605 51.0605 68.0861 53.2373 67.1714 55.3174C66.6569 56.3465 66.3095 57.4327 66.1248 58.5673C65.8741 60.9156 69.0228 62.0546 70.993 62.402Z" fill="black"/>
<path d="M54.5195 47.0235C54.7701 46.7376 55.0604 46.5046 55.3902 46.3199C55.72 46.1352 56.0718 46.012 56.4412 45.9461C56.815 45.8801 57.1888 45.8801 57.5626 45.9417C57.932 46.0032 58.2882 46.122 58.618 46.3023C58.8335 46.421 59.0622 46.4562 59.2997 46.4034C59.5415 46.355 59.735 46.2319 59.8846 46.0384C60.0341 45.8449 60.1 45.625 60.0912 45.3832C60.0781 45.1369 59.9857 44.9258 59.8186 44.7455C59.5679 44.5037 59.2953 44.2926 58.9918 44.1123C58.6928 43.932 58.3762 43.7912 58.0376 43.6901C57.7033 43.5889 57.3647 43.523 57.0129 43.5054C56.6655 43.4834 56.3181 43.501 55.9751 43.5626C55.6277 43.6241 55.2978 43.7253 54.9768 43.8704C54.6558 44.0111 54.3568 44.187 54.0797 44.3981C53.7983 44.6092 53.552 44.8511 53.3321 45.1237C53.1078 45.3964 52.9231 45.691 52.7736 46.0076C52.3514 47.0367 53.8246 47.6699 54.5195 47.0235Z" fill="#B26752"/>
<path d="M79.3308 46.6365C79.9729 46.166 80.1268 45.238 80.9404 45.0094C81.8287 44.7631 82.2685 45.5459 83.038 45.6558C83.4338 45.713 83.9791 45.5635 84.0495 45.0841C84.3002 43.3383 82.0222 42.4192 80.5798 42.6479C79.0142 42.8941 77.1496 44.5916 77.9192 46.2671C78.0643 46.5134 78.2754 46.6717 78.5481 46.742C78.8251 46.8168 79.0846 46.7816 79.3308 46.6365Z" fill="#B26752"/>
<path d="M58.5969 48.9367C58.6453 48.497 58.6584 48.0528 58.6365 47.613C58.5837 47.1777 58.6057 46.7467 58.7068 46.3245C58.7684 46.0651 58.7332 45.8232 58.5969 45.5989C58.465 45.3703 58.2715 45.2207 58.0164 45.1504C57.7613 45.08 57.5195 45.1108 57.2864 45.2339C57.0533 45.3615 56.8994 45.5506 56.8202 45.8012C56.6048 46.4345 56.508 47.0853 56.5388 47.7538C56.6092 48.4222 56.895 48.9851 57.3963 49.4337C57.6206 49.6447 57.8757 49.6931 58.1571 49.5744C58.443 49.4556 58.5925 49.2446 58.5969 48.9367Z" fill="black"/>
<path d="M83.2344 47.9607C83.9293 47.1867 83.6566 46.0697 83.6082 45.1022C83.5994 44.834 83.4983 44.6053 83.3048 44.4162C83.1113 44.2271 82.8782 44.1348 82.6056 44.1348C82.3329 44.1348 82.0998 44.2271 81.9063 44.4162C81.7128 44.6053 81.6117 44.834 81.6029 45.1022C81.5545 46.0741 81.2819 47.1823 81.9767 47.9607C82.1526 48.1322 82.3593 48.2202 82.6056 48.2202C82.8518 48.2202 83.0585 48.1322 83.2344 47.9607Z" fill="black"/>
</svg>
