<svg width="44" height="91" viewBox="0 0 44 91" fill="none" xmlns="http://www.w3.org/2000/svg">
<path d="M42.5733 87.8316L42.5968 87.655C42.6321 88.0552 42.6604 88.2812 42.5733 87.8316ZM42.4862 88.2506C42.4085 88.4907 42.4697 88.7096 42.3544 88.8414C42.159 88.8367 41.9895 88.8508 41.7988 88.8649C41.4975 88.8791 41.1727 88.8955 40.8172 88.9002C41.4151 88.2553 41.9989 87.5985 42.5733 86.9488C42.5733 87.1583 42.578 87.3914 42.5921 87.5915L42.5286 87.8316C42.538 88.3683 42.505 88.26 42.4862 88.2506ZM34.9301 88.7778C34.7488 88.7731 34.6241 88.7731 34.5252 88.7778C35.5327 87.7868 36.5355 86.7982 37.5335 85.8119C37.5806 85.8119 37.6253 85.8072 37.6842 85.8072C37.5288 85.7978 37.5029 85.7884 37.9266 85.8119C37.8395 85.8119 37.7619 85.8119 37.6842 85.8072C37.7619 85.8119 37.8631 85.8213 37.9855 85.826L37.936 85.8119C38.0632 85.8119 38.1997 85.8166 38.3598 85.8213C38.3197 85.8354 38.1503 85.8354 37.9855 85.826L38.122 85.8802C39.0353 86.0426 39.5226 85.7884 40.4995 85.8425C40.403 85.8472 40.2476 85.8566 40.1511 85.8566C40.4171 85.8755 40.7443 85.939 41.0315 85.9837C40.0475 86.9724 39.0612 87.9587 38.0773 88.9473C37.8819 88.9732 37.6936 89.0015 37.3711 89.0556L37.4982 89.0909L38.0137 89.0109C37.9408 89.0838 37.8678 89.1592 37.7948 89.2321C36.8085 89.0956 34.537 88.9732 34.9301 88.7778ZM34.0356 89.2604C34.045 89.251 34.0497 89.2463 34.0544 89.2416L34.3228 89.1003C34.2733 89.1003 34.238 89.105 34.1909 89.105C34.2828 89.0156 34.3698 88.9285 34.464 88.8414C34.6876 88.8861 35.036 88.9379 34.6288 88.9779L34.4475 88.9685C34.9936 88.992 35.4221 89.065 35.7281 89.1427C35.8434 89.2557 34.4781 89.291 34.0356 89.2604ZM32.2584 89.557C31.7735 89.5287 31.6158 89.4887 31.5687 89.4369H31.7829C32.3125 88.9967 32.409 89.0415 32.0983 89.4369H32.1124C32.249 89.2957 32.3714 89.1639 32.4914 89.0509C32.5456 89.0509 32.5997 89.0509 32.6326 89.0509C32.555 89.1474 32.4043 89.2839 32.2301 89.4369H32.7174C32.6044 89.4793 32.4632 89.5193 32.2584 89.557ZM31.4416 89.943C31.4863 89.9289 31.5381 89.9195 31.5875 89.9054C31.5875 89.9054 31.5875 89.9054 31.5969 89.9054L31.4416 89.943ZM30.3023 89.2416V89.1239C29.5113 89.1545 29.3301 89.2651 28.2308 89.2227C29.0241 89.105 26.5807 89.1097 27.68 88.9544C27.5741 88.9473 27.4917 88.9544 27.4093 88.9638C27.4234 88.9426 27.4422 88.9285 27.4611 88.9097C27.8942 88.9426 28.3179 88.9826 28.4733 88.9238C28.2402 88.8367 27.8989 88.8508 27.5011 88.8649C28.7275 87.6456 29.9492 86.4216 31.1638 85.2022C31.4133 85.4306 31.7193 85.6071 32.2254 85.7248C32.8045 85.9837 33.6119 86.0426 34.2969 86.0167C34.3463 86.0167 34.391 86.0167 34.4381 86.0167C34.3651 86.0708 34.311 86.125 34.2498 86.1791C34.1039 86.1885 33.9673 86.1932 33.8543 86.2026C33.9626 86.1979 34.0921 86.1979 34.2286 86.1932C34.0991 86.3039 33.9579 86.4168 33.8496 86.5204C33.353 87.163 33.4942 87.3537 32.0701 88.719L32.5644 87.9916C31.8017 88.7543 31.6416 88.9967 31.5098 89.2015L30.3023 89.2416ZM27.1763 89.1968C27.2139 89.1592 27.2539 89.1192 27.2869 89.0791C27.3457 89.0838 27.3999 89.0838 27.4375 89.0909C27.5199 89.1545 27.3952 89.1827 27.1763 89.1968ZM23.7842 89.0909C23.7842 89.211 22.8074 89.1144 22.3201 89.1097C22.8686 89.1333 23.6618 89.2227 23.3017 89.324C22.8756 89.3734 22.5108 89.3969 21.5362 89.3828L22.2024 89.4369C21.5504 89.5735 21.0608 89.4275 20.3452 89.3781C20.3875 89.3381 20.4323 89.3004 20.4817 89.2604C20.6017 89.2463 20.7241 89.2369 20.8607 89.2063C20.7642 89.2157 20.6323 89.2274 20.5052 89.2416C20.5547 89.1968 20.6064 89.1545 20.6559 89.1097C21.162 89.1474 21.7269 89.138 21.8281 89.0603C21.0984 89.1097 21.6492 89.0109 21.0396 89.0109L20.7241 89.0556C20.7924 88.9967 20.856 88.9426 20.9336 88.8791L20.8207 88.9191C24.0761 85.6942 27.4375 82.3987 30.7566 79.1244C30.7801 79.5787 30.7801 80.0848 30.6789 80.4708L30.6742 80.4214C30.653 81.4218 30.5942 82.1986 30.5329 81.9844C30.5212 82.3092 30.5165 82.6718 30.5282 83.0366C28.5086 85.0657 26.4889 87.0995 24.4692 89.1333C24.2621 89.1427 24.0126 89.1333 23.7842 89.0909ZM18.8269 89.3781C19.147 89.0956 19.3706 88.9332 19.1588 89.2157C19.1093 89.2698 19.0646 89.3192 19.0175 89.364C18.954 89.3687 18.8904 89.3734 18.8269 89.3781ZM17.4451 89.2321C17.3227 89.3192 16.3505 89.2227 16.3505 89.3428C15.1336 89.2604 17.3227 89.1968 17.4451 89.1097C15.9221 89.0321 16.2234 89.3098 14.764 89.1239L15.2513 89.0109C14.8511 89.0062 14.1331 89.0462 13.8507 89.0321C14.4297 88.486 15.0465 87.8033 16.1952 86.6946C18.7045 84.1689 21.0066 81.6619 22.9133 79.428C25.1519 77.213 22.8356 79.8117 23.2876 79.4233C21.6681 80.944 22.2283 80.5391 21.9364 80.9298C22.7226 80.0565 23.7019 79.0279 24.2315 78.7007C25.3849 77.5355 25.9098 77.0176 26.9856 75.803C26.4465 76.4127 25.8957 76.8529 26.3877 76.2667C27.3693 75.3558 29.7397 72.9006 29.735 73.1642C29.9727 72.9218 30.2199 72.6723 30.4647 72.4228C30.4741 72.5452 30.4788 72.6676 30.4835 72.8135C30.4882 72.6535 30.4976 72.5169 30.5071 72.3851C30.5847 72.3074 30.6624 72.2274 30.7401 72.145L30.7613 72.3498C30.6977 73.8634 30.5377 72.1591 30.4647 73.4091C30.3329 74.2659 30.5377 74.5837 30.46 75.2475C30.4741 75.2028 30.4882 75.1557 30.5023 75.1157C30.4976 75.2616 30.4929 75.3699 30.4929 75.4476L30.5023 75.4334C30.5118 75.7842 30.5165 76.1349 30.5212 76.448C30.2105 76.8764 30.2199 77.0317 29.2971 77.8321C28.5039 78.7407 27.6517 79.2774 27.1221 79.7788C26.6301 80.4214 26.7714 80.6074 25.3402 81.9726L25.8416 81.2523C24.2621 82.8271 25.2672 82.1586 23.7984 83.618C24.328 83.1143 23.4147 84.2277 24.3963 83.2508C23.9749 83.7922 22.9227 84.8703 22.0965 85.6377C21.9058 85.8613 22.0918 85.7201 22.0965 85.7931C23.0498 84.9927 23.4053 84.3242 24.2362 83.7145L24.7282 82.9778C25.5897 82.208 25.7733 82.2222 25.3166 82.7683C25.545 82.5352 25.7309 82.314 25.9193 82.168C26.2417 82.2127 24.8741 83.086 24.747 83.5239L25.3072 82.9354C25.6815 82.8036 24.0667 84.3925 23.3135 85.1293C22.4166 85.9155 21.628 86.6711 21.4821 86.6358L22.5767 85.4706C21.9199 85.9884 21.1714 86.9583 20.5099 87.6126C20.4558 87.6409 20.3828 87.695 20.3004 87.768C20.3404 87.7445 20.3687 87.728 20.3781 87.7398C20.2322 87.8763 20.1003 87.9869 19.9709 88.0764C19.6013 88.4412 19.1423 88.9379 18.7092 89.3875C18.6715 89.3875 18.6268 89.3922 18.5891 89.3969C18.7398 89.2463 18.8857 89.1003 19.0058 88.9638C18.8598 89.0368 18.6715 89.2015 18.462 89.4016C18.4526 89.4016 18.4385 89.4063 18.422 89.4063L18.0195 89.3334C18.6033 88.6225 18.9634 88.1093 19.4789 87.8174L20.2416 86.6805C19.3094 87.5585 19.6743 87.5091 19.0317 88.1282C18.6621 88.4177 19.0458 87.9963 18.768 88.2176C18.3702 88.5683 18.0006 88.9285 17.6687 89.2698L17.4451 89.2321ZM13.6883 89.1827C13.7377 89.1333 13.7918 89.0838 13.8413 89.0368C13.9425 89.0415 14.0931 89.0368 14.272 89.0368C14.1896 89.1097 13.9566 89.1474 13.6883 89.1827ZM10.3221 89.6017C9.8796 89.5429 10.3033 89.4793 10.7082 89.4275C10.7011 89.4322 10.6964 89.4369 10.6964 89.4369H12.2147C12.2147 89.4464 12.2053 89.4511 12.2053 89.4558L12.8761 89.4699C11.8498 89.5193 11.1154 89.6888 10.3221 89.6017ZM13.7236 89.0156L13.5823 89.1921C13.5682 89.1968 13.5541 89.1968 13.5423 89.1968C13.6012 89.138 13.6459 89.0909 13.7236 89.0156ZM30.2293 67.0817C30.2293 66.9758 30.2105 66.8392 30.2058 66.7263C30.3282 66.6039 30.4482 66.4815 30.5706 66.3614C30.5894 66.7216 30.6106 67.1311 30.6483 67.649C30.6153 66.4485 30.766 67.8773 30.8201 67.2347C30.8295 68.7553 30.7566 67.609 30.6436 68.0821C30.6483 68.7059 30.5894 69.0331 30.62 69.4827C30.5565 69.5463 30.4976 69.6051 30.4341 69.6616C30.4435 68.56 30.5212 66.8086 30.2293 67.0817ZM28.1625 65.9306L27.0915 67.2771C26.8585 67.2865 26.1876 68.141 25.5403 68.7365L25.8628 68.2728C25.0389 69.1061 24.6999 69.4097 24.1444 69.8876C24.514 69.3203 24.9118 69.1602 25.0201 68.8683L24.0808 69.7463C24.1491 69.8052 23.6242 70.429 24.3092 69.8146C23.5842 70.775 23.2193 71.3305 21.1031 73.4373C20.0439 74.2871 22.0329 72.3168 21.5315 72.6087C19.2977 74.7555 19.1329 75.57 17.8382 76.8364C16.1646 78.4276 16.3553 78.4323 14.7051 80.1013C15.11 79.5693 13.8413 80.8169 13.281 81.2806C13.2904 81.2429 13.2999 81.2029 13.3093 81.1535L13.6788 80.685C13.5588 80.8169 13.4411 80.944 13.3234 81.057C13.3446 80.9346 13.3587 80.8027 13.3728 80.6662L13.9707 80.0754L13.3775 80.5885C13.3775 80.5744 13.3775 80.5532 13.3822 80.5344C13.3187 80.2072 13.2999 79.807 13.2763 79.4069C13.3587 79.0703 13.5423 76.9682 13.387 76.189C13.4128 76.1584 13.4411 76.1349 13.4693 76.1114C13.4811 76.3114 13.4905 76.5539 13.5094 76.6386C13.5635 76.4433 13.5494 76.2479 13.5188 76.0572C19.1093 70.5443 24.86 64.9161 30.0457 59.6009C30.041 60.0835 30.0786 60.7897 30.1469 60.9262C30.1234 60.4695 30.1045 60.0388 30.0739 59.575C30.2199 59.4244 30.3705 59.2737 30.5165 59.1231C30.4694 59.6786 30.3658 59.8151 30.3564 60.5849L30.2787 59.7327C30.1869 60.3071 30.3093 60.7991 30.3234 61.3311C30.2199 61.5076 30.201 62.7952 30.0833 62.5669C30.1422 63.033 30.1634 63.3813 30.1728 63.7109L29.5725 64.2829L30.1728 63.7415C30.1775 63.7603 30.1775 63.7815 30.1775 63.8003C29.5396 64.5324 29.2665 64.9608 28.1625 65.9306ZM11.3014 14.0289C10.3857 14.0242 11.0095 13.8547 11.3485 13.7747C10.494 13.923 9.55947 13.8194 8.592 13.7959L8.98511 13.7323L8.31424 13.7229C8.81563 13.2192 9.30995 12.7225 9.80192 12.2305C10.6187 11.2795 9.11222 12.8731 9.55005 12.3412C10.6635 11.063 10.6234 11.3125 11.3979 10.458C11.412 10.458 11.4214 10.4533 11.4379 10.4533L11.2072 10.7711C11.3437 10.6393 11.4709 10.4886 11.6074 10.3521C13.8012 9.76597 15.941 8.92797 17.9371 7.62625C18.9587 6.94832 19.912 6.13151 20.7241 5.18052C21.1337 4.71444 21.4986 4.20129 21.8281 3.67401C21.9929 3.41037 22.1436 3.13731 22.2895 2.85955L22.572 2.28519C22.5837 2.26401 22.5884 2.23105 22.6167 2.24047L22.8027 2.24517L24.0479 2.24988C21.6822 4.61087 19.2788 7.01658 16.9202 9.38699C16.2776 10.1614 17.4898 8.86912 17.1438 9.30695C16.1952 10.4298 16.2823 10.079 15.5196 10.9759L15.795 10.5663C14.8228 11.522 13.8883 12.6095 12.9938 13.6452C12.5207 13.5275 11.9864 13.6382 11.6262 13.6288C11.2472 13.6641 10.9553 13.697 10.3904 13.7135C10.6281 13.737 10.9059 13.7229 11.2025 13.7017L11.7133 13.6829C11.9864 13.6782 12.2594 13.6829 12.516 13.6923L12.0358 13.7465C12.323 13.7276 12.6478 13.6829 12.9209 13.7276C12.8291 13.8288 12.7396 13.9277 12.6525 14.0289C12.5419 14.0101 12.4477 14.0054 12.4101 14.0007C12.2971 13.9913 12.4195 13.9654 12.3371 13.9465C11.9275 13.9748 11.4991 14.0054 11.3014 14.0289ZM2.71896 13.5417C2.59185 13.5511 2.4765 13.5605 2.35881 13.5699L2.18462 13.5817L2.15872 13.5864C2.13048 13.5911 2.10694 13.5864 2.08104 13.5817C2.82488 12.8402 3.57108 12.0987 4.31492 11.3525C5.30122 11.3619 6.27103 11.3525 7.08784 11.1524C7.48566 11.176 7.80344 11.176 8.06943 11.1666C7.19377 12.0446 6.32282 12.9226 5.45187 13.7959C5.18116 13.7912 4.90811 13.7818 4.63976 13.7653L5.37889 13.5864C4.62564 13.4922 4.9905 13.6499 4.79512 13.6782C3.60403 13.7653 3.34746 13.6452 2.71896 13.5417ZM11.452 10.4345L11.4261 10.4251C11.4379 10.4157 11.4426 10.4109 11.452 10.4015C11.4614 10.3945 11.4709 10.3898 11.4803 10.3898L11.452 10.4345ZM29.6455 2.22164C29.9539 2.22164 29.9186 2.21693 29.9492 2.21693L30.0457 2.20045C30.0951 2.22634 30.0692 2.30402 30.0904 2.36758H30.0174C30.0174 2.49469 30.0174 2.6171 30.0104 2.74185C29.5631 3.31386 29.4807 3.65047 28.0119 4.84391L28.1178 4.80625C23.4288 9.45525 18.5256 14.2431 13.8554 18.911C13.8248 18.4826 13.8059 18.0094 13.8201 17.4351L13.9472 17.6092C13.9919 17.0184 13.9284 16.7901 13.8601 16.5453C13.8248 16.4252 13.7918 16.3028 13.773 16.1263C13.7565 16.0156 13.7518 15.9897 13.7518 15.7614C13.7518 15.6437 13.7518 15.5119 13.7565 15.3707C18.116 10.99 22.4566 6.62112 26.8161 2.24517C26.8585 2.24517 26.9032 2.24517 26.9456 2.24517C27.8565 2.24047 28.7557 2.23105 29.6455 2.22164ZM30.5471 76.8434C30.5518 76.8858 30.5518 76.9352 30.5565 76.9729C30.5471 76.9847 30.5329 76.9988 30.5282 77.0082L30.5565 76.9941C30.5659 77.0529 30.5753 77.0859 30.5847 77.1353C29.8597 77.9145 28.9464 78.9149 28.172 79.6517C26.9762 80.9063 27.3316 80.7015 26.4795 81.7349C25.8816 82.1774 25.851 82.0315 25.9357 81.7678C26.3053 81.4854 26.8302 80.9016 27.3952 80.3885C28.5509 79.1197 29.4572 77.9945 30.5471 76.8434ZM30.5377 76.7257C30.2246 77.0671 29.8997 77.4131 29.6361 77.6273C29.6455 77.5943 29.695 77.5355 29.7538 77.4766C29.6855 77.5449 29.6267 77.6038 29.5584 77.6626C29.8456 77.3448 30.2246 76.9305 30.5282 76.5751C30.5329 76.6269 30.5377 76.6716 30.5377 76.7257ZM30.347 56.7998C30.347 56.8586 30.347 56.9175 30.347 56.9763C30.0057 57.2305 30.1328 57.0587 30.347 56.7998ZM13.1727 81.2029C13.1727 81.1299 13.1727 81.0711 13.1727 80.9934C13.1727 81.0758 13.1775 81.1394 13.1845 81.1935C13.1845 81.1982 13.1775 81.2029 13.1727 81.2029ZM13.1775 81.3583C13.1775 81.3488 13.1775 81.3347 13.1775 81.3206L13.1986 81.2947C13.1986 81.3112 13.2033 81.3253 13.2081 81.3394C13.1939 81.3441 13.1892 81.3536 13.1775 81.3583ZM13.427 16.3523C13.4599 16.2769 13.4905 16.131 13.5094 15.9615C13.5188 15.8721 13.5282 15.7355 13.5329 15.5943C13.5682 15.5613 13.6012 15.526 13.6365 15.4931C13.6223 15.5849 13.6059 15.6884 13.5917 15.7897C13.5423 16.0886 13.4905 16.2722 13.427 16.3523ZM30.0057 4.4508C29.7491 4.66501 29.5984 4.76152 29.7868 4.5073C29.8644 4.4202 29.9327 4.35194 30.0057 4.27426C30.0057 4.33311 30.0057 4.39195 30.0057 4.4508ZM29.9727 16.7618C29.6714 17.0631 29.4996 17.2632 29.6855 17.1314C28.1578 18.7415 28.5957 18.2189 28.4403 18.3272L27.5741 19.3064C26.4701 20.4081 27.1033 19.5418 27.4564 19.0781C26.5289 20.2103 25.3355 21.2625 24.1538 22.4136L24.5869 21.9028L23.0357 23.4234C22.1059 24.4968 20.71 25.9115 19.3824 27.1638L20.1498 26.1493C19.1776 26.9944 19.7261 26.6577 19.5072 26.9214C18.1301 28.4185 17.7417 28.6421 16.9155 29.3342C15.9174 30.4523 14.8323 31.4574 13.7777 32.4413C13.7871 32.2813 13.8059 32.1494 13.8601 32.1942C13.9025 30.6335 13.8295 29.7296 13.8012 28.7833C19.2365 23.3693 24.6011 17.9694 29.968 12.5766C29.968 13.9701 29.968 15.366 29.9727 16.7618ZM29.9915 36.4407C27.793 38.6463 25.6368 40.8213 23.6148 42.9281L23.5795 42.8598C20.1686 46.2259 16.8119 49.5826 13.4764 52.9276C13.5094 51.7176 13.5541 50.5171 13.6012 49.279C15.8256 46.8756 18.5114 44.5146 20.1121 42.5091C23.3864 39.7385 21.8681 40.294 24.86 37.7494L24.7329 37.8036C26.4654 36.0852 28.2308 34.3386 29.9915 32.5943C29.9963 33.8772 29.9915 35.1578 29.9915 36.4407ZM30.1916 46.1859C30.1328 46.007 30.0057 46.5908 29.9774 46.2801C30.0504 46.2071 30.1234 46.1388 30.1916 46.0659C30.1916 46.1035 30.1916 46.153 30.1916 46.1859ZM13.3681 66.5356C13.3305 65.9118 13.4952 65.521 13.427 64.5748L13.387 64.8431C13.3493 64.4053 13.3728 63.5744 13.4223 62.7858C17.5581 58.7017 21.628 54.6436 25.3261 50.7972L25.3661 50.8655C26.9173 49.3331 28.445 47.8054 29.9774 46.2801C30.2364 48.6269 29.9139 48.3727 29.9445 49.9616C24.328 55.5027 18.841 61.0203 13.3681 66.5356ZM13.5329 60.1847C13.8836 59.8057 14.2485 59.4197 14.6628 59.0289C15.0135 58.3769 14.2673 59.2973 13.5282 60.0882C13.5235 60.0435 13.5235 59.9893 13.5188 59.947C13.8648 59.5515 14.1661 59.1819 14.1896 59.0383C13.7918 59.455 13.6506 59.6739 13.5188 59.8787C13.4458 58.3463 13.4223 56.9528 13.4317 55.6251C14.0202 55.112 14.9288 54.766 15.2748 54.2834L14.2885 54.6106C14.2885 54.5471 15.1241 53.7467 15.0229 53.8103C15.5973 53.363 16.2964 52.8099 16.6518 52.4591C16.9061 52.372 15.9998 53.2406 15.5149 53.7232C15.5808 53.9374 17.2403 52.1766 16.666 53.0052C17.6782 51.9436 16.4423 53.0829 17.012 52.4097L17.9512 51.527L17.2074 52.1861C17.923 51.3857 18.0736 51.0162 19.1635 50.084L20.0768 48.8929C20.291 48.9 20.8607 48.1467 21.4256 47.6359L21.1573 48.0408C21.8729 47.3181 22.1695 47.0592 22.6567 46.6496C22.3483 47.1534 21.9835 47.2805 21.9011 47.5441L22.7226 46.7862C22.6567 46.7273 23.1087 46.1765 22.5037 46.7038C23.1228 45.8564 23.4241 45.3573 25.2625 43.533C26.197 42.808 24.4692 44.5193 24.9188 44.2792C26.8632 42.4173 26.9668 41.6711 28.0943 40.5671C29.1889 39.5337 29.3607 39.2654 29.9868 38.5827C29.9868 38.7145 29.9868 38.8417 29.9868 38.9735C29.9868 38.9829 29.9868 38.9876 29.9868 38.9923C29.735 39.3878 29.7397 39.5737 28.6004 40.6259C29.5678 39.8115 28.066 41.2897 27.7977 41.6169C28.5133 40.972 29.3207 39.8209 29.8315 39.569C29.9044 39.4843 29.9633 39.4278 30.0221 39.3595C30.1045 39.9433 30.2293 39.569 30.3023 40.4117C30.2928 40.8401 30.3023 41.8076 30.2105 41.8123C30.1634 40.9837 30.0786 41.4498 30.0457 41.1673C30.0504 41.8617 30.0269 42.655 30.0174 43.4318C29.9374 43.5001 29.8715 43.5683 29.782 43.6413L28.8687 44.83C28.6545 44.8253 28.0849 45.5762 27.5199 46.0894L27.7883 45.6845C27.0727 46.4072 26.7761 46.6661 26.2888 47.0757C26.5972 46.5719 26.962 46.4448 27.0397 46.1812L26.2206 46.9392C26.2888 46.9957 25.8369 47.5488 26.4395 47.0215C25.8227 47.869 25.5214 48.368 23.6783 50.197C22.7438 50.9173 24.4739 49.206 24.0267 49.4461C22.0776 51.308 21.9741 52.0542 20.8513 53.1559C19.3918 54.5329 19.5707 54.5518 18.1419 56.0018C18.5256 55.4698 17.0567 56.9269 16.7248 57.1222L17.2168 56.4796C16.8025 56.941 16.3553 57.3317 16.4329 57.1528C16.6095 57.167 14.6581 59.1137 13.7141 60.1517L13.9707 60.0647C13.8413 60.2059 13.6953 60.3612 13.5494 60.5166C13.5423 60.406 13.5376 60.293 13.5329 60.1847ZM13.4317 55.4933C13.6153 55.338 13.7518 55.2156 13.4317 55.5757C13.4317 55.5475 13.4317 55.5216 13.4317 55.4933ZM13.4858 42.6762C13.4646 42.4502 13.4364 42.2807 13.4081 42.123C13.427 42.1136 13.4505 42.0995 13.4764 42.0854C13.4811 42.276 13.4905 42.4714 13.4858 42.6762ZM29.3936 26.2081C29.3842 26.2434 29.3348 26.3023 29.276 26.3588C29.3442 26.2976 29.4078 26.2387 29.4713 26.1799C28.9464 26.7542 28.0754 27.6911 28.0307 27.9453C28.937 26.9991 28.4992 27.072 29.735 26.0081C29.8174 25.9115 29.9044 25.8386 29.9868 25.7491C29.9915 27.2038 29.9963 28.6609 29.9963 30.1157C29.8315 30.3393 29.5631 30.6523 28.8828 31.3303C29.5537 30.6853 28.3532 32.0812 29.6126 30.8265C29.0523 31.5045 27.7012 32.8862 26.649 33.8772C26.4018 34.1597 26.6348 33.969 26.6254 34.0561C27.833 33.0086 28.3273 32.1942 29.3701 31.3797L29.9963 30.5158C29.9963 30.6335 29.9963 30.7536 29.9963 30.876L29.3442 31.4762C29.057 31.8858 27.8754 32.8509 27.6023 33.2723L29.9963 30.8807C29.9963 30.9395 29.9963 30.9984 29.9963 31.0572C29.9915 31.0666 29.9774 31.0808 29.9727 31.0902L29.9963 31.0666C29.9963 31.1208 29.9963 31.1749 29.9963 31.2314C29.4078 31.8481 28.6145 32.632 28.1131 33.124C26.9762 34.1503 25.9687 35.1201 25.8086 35.106L27.2186 33.6183C26.3971 34.3009 25.4085 35.5156 24.5634 36.3536C24.4951 36.3983 24.401 36.4713 24.2998 36.5631C24.3539 36.5301 24.3821 36.516 24.3916 36.5207C24.2079 36.6949 24.0361 36.8455 23.8808 36.9632C23.1369 37.7 22.1012 38.8417 21.3856 39.5055L21.5457 39.5008L21.5951 39.3595C22.2754 38.6863 23.2452 37.8083 22.7909 38.3826C21.3173 39.9692 20.8607 40.1293 20.4275 40.4258C20.6606 39.9527 21.9199 38.9288 22.6614 38.1096C22.0706 38.4603 21.089 39.6561 19.4342 41.1626C19.9356 40.4023 21.2632 39.3289 21.4939 38.8605C20.1992 40.1151 19.9615 40.5388 18.5891 41.85C18.6998 41.6169 19.9991 40.3058 19.8391 40.3152L18.9399 41.1391C21.0396 39.0182 18.4079 41.3486 20.0227 39.6655C19.1964 40.3929 19.0458 40.8613 17.8594 41.8853C18.2243 41.6311 19.2059 40.8519 18.2031 41.9583L16.9673 43.1187C16.4047 43.5589 18.0783 41.7346 17.245 42.4596L16.0398 43.759C16.1222 43.7543 16.7389 43.1729 16.4141 43.6013C15.6491 44.2886 15.3784 44.943 14.5851 45.8517C14.2438 46.193 13.9378 46.4943 13.6788 46.7344C13.6788 46.6708 13.6788 46.6026 13.6835 46.539L13.7283 46.4896L14.8087 45.3338L13.6835 46.5037C13.6835 46.4613 13.6835 46.4166 13.6835 46.3719L13.7047 46.353L13.6835 46.3577C13.7141 45.0466 13.7283 43.646 13.7141 42.1042L13.7871 42.0807L14.1943 41.777L13.7141 42.0948C13.7141 42.0265 13.7141 41.963 13.7094 41.8947C13.9872 41.6311 14.3356 41.2215 14.7004 40.8896L14.4344 41.2992C15.143 40.5789 15.4419 40.3199 15.9315 39.9103C15.6255 40.4117 15.2607 40.5341 15.1783 40.8025L15.9951 40.0469C15.9315 39.988 16.3835 39.4372 15.7809 39.9621C16.4 39.1147 16.7013 38.618 18.5397 36.789C19.4742 36.0664 17.7464 37.7777 18.1937 37.5399C20.1404 35.6756 20.2416 34.9294 21.3668 33.8278C22.8262 32.446 22.6497 32.4319 24.0808 30.9843C23.6971 31.5162 25.1613 30.0521 25.4955 29.8567L25.0012 30.5017C25.4179 30.0427 25.8675 29.6519 25.7898 29.8332C25.6085 29.8191 27.5646 27.8724 28.5086 26.8319L28.2496 26.9214C28.751 26.38 29.3748 25.6973 29.9868 25.0618C29.9868 25.1559 29.9868 25.2477 29.9868 25.3442C29.2336 26.2176 28.4897 27.0673 27.5599 27.9548C27.0915 28.8281 28.5768 26.8861 29.3936 26.2081ZM13.4034 39.2277L13.4952 36.9891C13.4128 36.5442 13.3964 36.0664 13.4034 35.6215C13.4223 35.6027 13.4411 35.5885 13.4599 35.5626C13.4999 36.5442 13.4905 37.4411 13.5046 38.5921C13.5682 38.3732 13.6835 39.3383 13.6553 38.8417L13.5917 37.4034L13.66 37.6223C13.7424 36.6078 13.5494 36.9585 13.6012 35.8804C13.5188 35.798 13.5094 35.944 13.4764 35.5485C13.5235 35.5014 13.5635 35.4567 13.6106 35.4073C13.6271 35.6945 13.6459 35.9746 13.7 36.1629L13.8059 35.3578L13.7047 35.3155C14.112 34.9012 14.5945 34.4422 14.804 34.2962L14.4133 34.5693C14.2297 34.7741 13.9425 35.0424 13.6883 35.2849L13.7047 34.7058C14.345 34.0232 14.9688 33.3547 15.4937 32.7544C14.4086 33.9973 15.6703 32.8415 16.4235 32.2036C15.1053 33.5594 15.2112 33.6913 15.3831 33.6771C16.1858 32.8462 16.593 32.1895 16.141 32.559C17.551 31.2479 16.9979 31.5351 18.2713 30.417C19.0858 29.6872 18.0054 30.9254 18.3161 30.7018C19.7896 29.2376 18.5679 30.1557 20.1945 28.5833C20.1215 28.6868 19.9803 28.8375 20.1309 28.7363C21.016 27.8959 21.887 26.912 22.0141 26.6672C23.0828 25.9068 24.5775 24.0614 24.5469 24.3933C26.5925 22.2677 24.1538 24.6192 24.514 24.1555C25.2978 23.2328 26.9314 21.7074 27.447 21.239C26.9361 21.7545 26.503 22.2724 25.9875 22.7455L26.5336 22.4089C28.9794 20.0973 28.1249 20.434 29.9727 18.6332C29.9727 18.6685 29.9727 18.7015 29.9727 18.7368C29.6361 19.1417 30.0504 18.7839 29.6173 19.3323C29.6855 19.2523 29.8174 19.1158 29.9727 18.951C29.9774 20.3116 29.9774 21.6721 29.9821 23.0327C25.4438 27.5052 20.9431 31.9682 16.8896 36.1841L16.8519 36.1205C15.675 37.281 14.5168 38.4415 13.354 39.5973C13.3681 39.1971 13.3399 39.3054 13.4034 39.2277ZM13.4599 35.5109C13.4411 35.525 13.4223 35.5438 13.4081 35.5579C13.4128 35.3578 13.4223 35.1695 13.4317 34.993C13.4858 34.9341 13.5376 34.88 13.5917 34.8235C13.6012 34.993 13.6059 35.179 13.6106 35.3578C13.5588 35.4073 13.5141 35.4567 13.4693 35.4944C13.4646 35.4167 13.4552 35.3296 13.4458 35.2072C13.4505 35.3108 13.4552 35.4073 13.4599 35.5109ZM30.5329 56.3808C30.5329 56.2937 30.5282 56.2442 30.5282 56.1807L30.5471 56.1665L30.5329 56.3808ZM15.4113 19.7466L14.9146 20.3892C15.3289 19.9302 15.7809 19.5371 15.7032 19.7207C15.5243 19.7019 17.4734 17.7599 18.4173 16.7171L18.1607 16.8089C18.9093 16.0039 19.9309 14.874 20.7736 14.0737C21.9647 12.819 21.6139 13.0238 22.466 11.9904C23.0592 11.5479 23.0945 11.6938 23.0098 11.9575C22.6402 12.2399 22.1106 12.8237 21.5504 13.3369C20.0768 14.9564 19.0552 16.3358 17.4687 17.8399C17.0026 18.7109 18.4856 16.776 19.3094 16.098C19.2977 16.131 19.2459 16.1898 19.1917 16.2487C19.26 16.1804 19.3188 16.1216 19.3871 16.0627C18.8551 16.6441 17.9889 17.581 17.9418 17.8329C18.8457 16.8866 18.4079 16.9619 19.6437 15.8932C20.437 14.9846 21.2938 14.4479 21.8187 13.9465C22.3154 13.3016 22.1742 13.118 23.5983 11.7527L23.104 12.473C24.6834 10.8982 23.6783 11.5667 25.1425 10.1073C24.6152 10.611 25.5309 9.49762 24.5469 10.4745C24.9706 9.9331 26.0228 8.855 26.8491 8.08762C27.035 7.864 26.8538 8.00523 26.8491 7.93226C25.8957 8.73259 25.5403 9.40111 24.7046 10.0108L24.2174 10.7476C23.3558 11.5173 23.1769 11.5032 23.6242 10.9571C23.4006 11.1901 23.2146 11.409 23.0263 11.5573C22.7038 11.5126 24.0714 10.6393 24.1985 10.2014L23.6383 10.7899C23.264 10.9217 24.8788 9.33284 25.6274 8.59607C26.5289 7.80986 27.3222 7.05895 27.4611 7.08955L26.3665 8.25946C27.0232 7.73688 27.7741 6.77177 28.4309 6.11267C28.4897 6.08443 28.5627 6.03029 28.6451 5.95732C28.6004 5.98085 28.5768 5.99498 28.5674 5.98556C28.7134 5.84903 28.8428 5.7384 28.9699 5.64895C29.276 5.34765 29.6455 4.9569 30.001 4.57556C30.001 4.61558 30.001 4.65559 30.001 4.69326C29.9821 4.71915 29.9539 4.74269 29.9327 4.76152C29.9586 4.75211 29.9821 4.73327 30.001 4.71915C30.001 4.97102 30.001 5.22524 29.9963 5.47947C29.8315 5.64895 29.662 5.80196 29.4666 5.90788L28.7016 7.04483C29.6361 6.16682 29.2712 6.21625 29.9092 5.59717C29.9492 5.56656 29.9774 5.54773 29.9963 5.53361C29.9868 6.95303 29.9774 8.37244 29.9774 9.7848C27.8707 11.8939 25.7404 14.0242 23.6477 16.1263C23.0004 16.9031 24.2127 15.6108 23.8666 16.0486C22.918 17.1714 23.0051 16.8254 22.2471 17.7222L22.5202 17.3079C21.2797 18.532 20.0956 19.9749 18.9681 21.2343C19.0858 20.9565 17.923 22.15 18.8669 21.1072C18.2972 21.7074 17.2356 22.0629 16.8566 22.5854L17.8429 22.2583C17.8429 22.3218 17.0073 23.1221 17.1085 23.0633C16.5365 23.5058 15.835 24.0567 15.4843 24.4144C15.2277 24.5015 16.1316 23.6282 16.6189 23.1457C16.5506 22.9315 14.8911 24.6969 15.4702 23.8636C14.4533 24.9252 15.6891 23.7836 15.1147 24.4615L14.1802 25.3395L14.9288 24.6875C14.425 25.2477 14.1896 25.5985 13.7236 26.081C13.6835 25.7609 13.6506 25.3113 13.66 24.9606C13.7 24.5416 13.7283 24.438 13.7871 24.7016L13.7141 23.7506C13.8507 23.0139 13.8507 22.2724 13.846 21.4085C13.9872 21.2437 14.1896 21.0201 14.5074 20.6929C14.2297 20.9565 14.0202 21.1613 13.846 21.3402C13.846 21.2343 13.846 21.1354 13.846 21.0248C13.893 20.9707 13.9378 20.9259 13.9966 20.8718C13.6106 21.4038 15.0747 19.942 15.4113 19.7466ZM15.2207 72.8229C15.5479 72.7052 14.3403 73.9152 13.5376 74.7108C13.5376 74.6566 13.5376 74.5931 13.5376 74.5413C13.7 74.3648 13.8648 74.1882 14.0602 74.0187C13.8201 74.2423 13.6694 74.3836 13.5376 74.506C13.5376 74.4471 13.5376 74.3977 13.5423 74.3412L14.7405 73.1501L14.1426 73.6868C14.0437 73.8375 13.7965 74.0729 13.5423 74.3106C13.5423 74.2471 13.5423 74.1882 13.5494 74.1246C13.7283 73.9458 13.9236 73.7692 14.152 73.6044L14.6439 72.8677C15.5031 72.0909 15.6844 72.1073 15.2324 72.6582C15.4561 72.4228 15.6397 72.2038 15.8303 72.0579C16.1552 72.1003 14.7828 72.9736 14.6581 73.4138L15.2207 72.8229ZM27.5741 59.8975C26.1146 61.2793 26.2935 61.2934 24.8647 62.7411C25.2484 62.2091 23.7795 63.6732 23.4476 63.8686L23.9396 63.2236C23.5253 63.6826 23.0781 64.0734 23.1557 63.8921C23.337 63.9063 21.3809 65.853 20.437 66.891L20.6959 66.8039C19.945 67.609 18.9281 68.7365 18.083 69.5416C16.8896 70.7891 17.2403 70.5843 16.3906 71.6224C15.795 72.0673 15.7621 71.9214 15.8444 71.6577C16.214 71.3706 16.7436 70.7891 17.3086 70.2783C18.7774 68.6588 19.8038 67.2724 21.3856 65.7706C21.8517 64.8973 20.3687 66.8392 19.5519 67.5172C19.5613 67.4819 19.6107 67.423 19.6696 67.3642C19.6013 67.4277 19.5378 67.4866 19.4695 67.5454C19.9991 66.9711 20.8701 66.0342 20.9148 65.78C20.0133 66.7263 20.4464 66.6533 19.2106 67.7173C18.4173 68.6282 17.5675 69.1649 17.0355 69.6616C16.5459 70.3066 16.6824 70.4973 15.256 71.8625L15.7526 71.1352C14.1755 72.717 15.183 72.0485 13.7141 73.5056C14.2438 73.0042 13.3305 74.1152 14.3073 73.1407C14.1426 73.3549 13.8648 73.6633 13.5494 73.9999C13.5682 73.2137 13.5964 72.4675 13.6106 71.4624C13.3964 71.3353 13.5141 69.9982 13.4552 69.2473C14.039 68.6588 14.6322 68.0727 15.2112 67.4866C15.8586 66.7074 14.6439 68.0044 14.9876 67.5643C15.941 66.4438 15.8539 66.7898 16.6142 65.893L16.3411 66.3026C17.5816 65.0785 18.7586 63.6379 19.8885 62.3809C19.7708 62.6587 20.9336 61.4629 19.9897 62.5033C20.5594 61.9078 21.6233 61.5523 21.9976 61.0251L21.016 61.357C21.016 61.2887 21.8517 60.4884 21.7457 60.5519C22.3201 60.1023 23.0263 59.5562 23.3747 59.2008C23.6289 59.1137 22.7297 59.9799 22.2424 60.4695C22.306 60.679 23.9631 58.9183 23.3911 59.7516C24.408 58.6829 23.1722 59.8246 23.7395 59.1513L24.6787 58.2733L23.9302 58.9277C24.6458 58.1274 24.7964 57.7625 25.8863 56.8256L26.7996 55.6346C27.0138 55.6393 27.5835 54.8884 28.1484 54.3776L27.8801 54.7872C28.5957 54.0598 28.8923 53.8009 29.3795 53.3913C29.0735 53.8927 28.7087 54.0198 28.6286 54.2834L29.4478 53.5278C29.3795 53.469 29.8315 52.9181 29.2289 53.4454C29.5631 52.9864 29.8174 52.6215 30.2693 52.0943C30.387 53.1229 30.4976 54.4246 30.6012 55.4345L30.5565 56.0347L30.5282 56.0747C30.4976 55.3756 30.3517 56.2395 30.3611 54.8436C30.3329 55.3427 30.3423 55.8158 30.3517 56.289L30.3093 56.3431L30.3517 56.3125C30.3517 56.3996 30.347 56.4985 30.347 56.5903C28.8005 58.1556 28.6145 58.883 27.5741 59.8975ZM30.4929 63.4096C30.4929 63.3766 30.4929 63.346 30.4882 63.3013C30.4929 63.3413 30.4929 63.3696 30.4929 63.4096ZM30.3658 63.5696C30.3658 63.5744 30.3658 63.5744 30.3705 63.5814C30.3423 63.6144 30.314 63.6426 30.2834 63.6779C30.2834 63.6685 30.2787 63.6591 30.2787 63.6497L30.3658 63.5696ZM30.2199 63.5955C30.2552 63.2142 30.3093 63.3413 30.3611 63.5367L30.2646 63.6238C30.2552 63.5955 30.2411 63.5814 30.2199 63.5955ZM33.812 85.8166C34.1321 85.8354 34.4193 85.8566 34.6194 85.866C34.6029 85.8755 34.5888 85.8896 34.5793 85.899C33.972 85.9037 33.4165 85.9108 32.6727 85.7342C32.8586 85.8072 32.8869 85.8613 32.941 85.899C32.4679 85.826 31.9712 85.5836 31.8653 85.4023C32.1901 85.5294 33.0705 85.7789 33.812 85.8166ZM35.3044 85.9837C35.2549 86.0308 35.2126 86.0755 35.1678 86.125C35.109 86.125 35.0572 86.1297 35.0031 86.1297C35.0407 86.0849 35.0854 86.0355 35.1255 85.9931C35.1867 85.9884 35.2455 85.9884 35.3044 85.9837ZM35.3773 85.9037C35.3185 85.9037 35.2596 85.9037 35.2031 85.899C35.222 85.8802 35.2408 85.8566 35.2596 85.8307C35.3397 85.8307 35.4009 85.8307 35.455 85.826C35.4315 85.8566 35.4056 85.8802 35.3773 85.9037ZM32.6444 89.0368C32.5903 89.0321 32.5503 89.0415 32.5032 89.0415C32.5456 88.9967 32.5997 88.9473 32.6444 88.9097C32.7056 88.9191 32.6915 88.9685 32.6444 89.0368ZM33.2023 88.4742C32.6091 88.9238 32.5762 88.7778 32.6585 88.5095C33.0281 88.227 33.5577 87.6456 34.118 87.1348C34.4146 86.8076 34.6923 86.4945 34.9583 86.1885C35.0031 86.1838 35.0478 86.1838 35.0949 86.1838L34.4923 86.7629C34.6241 86.6522 34.7559 86.5298 34.8948 86.3933C34.963 86.3251 35.0266 86.2615 35.0996 86.1838H35.1043C35.036 86.2521 34.9583 86.3298 34.8948 86.3933C33.7037 87.6456 34.0544 87.4408 33.2023 88.4742ZM43.7903 87.9493C43.7832 87.4949 43.7832 87.0359 43.7785 86.5769C43.7691 85.8613 43.8632 85.0657 43.303 84.8374C43.07 84.7197 42.7145 84.6914 42.3591 84.7055C42.0672 84.7103 41.78 84.7103 41.4928 84.715C41.0644 84.7244 40.6454 84.7291 40.2382 84.7385C39.4261 84.7691 38.6611 84.8068 37.9761 84.8797L38.0914 84.875C38.0443 84.8844 38.0184 84.9103 37.9855 84.9598L37.8584 84.9292L37.3193 85.028C36.7002 84.9056 35.5468 84.8797 34.5699 84.7879C35.182 84.8656 35.182 84.8656 35.2455 84.9645C35.1208 85.0892 35.0266 85.1434 34.1133 85.101C34.1039 85.0069 34.657 85.0116 33.9956 84.9339C34.3322 84.9786 34.0309 85.0516 33.6495 85.0469C33.1505 84.9833 32.4443 84.7644 32.5032 84.6608C32.6727 84.7055 32.8233 84.7738 32.9551 84.8162C33.1246 84.8515 32.2301 84.5243 32.7857 84.6114C32.5456 84.5596 32.3572 84.4654 32.2443 84.3736C32.1336 84.143 32.4443 84.3972 32.4043 84.2865C32.176 84.183 31.9524 83.6416 31.8511 83.1637C31.7334 82.6812 31.6887 82.1139 31.6511 81.4124C31.7005 81.476 31.9029 81.4901 31.8464 81.476C31.9076 80.3979 31.6228 79.1597 31.6063 77.9309C31.6699 78.1098 31.6416 78.5689 31.6746 78.9455C31.7523 75.1792 31.7523 72.1003 31.9477 68.5694L31.7382 67.6537L31.8794 66.731C32.0112 63.0188 31.8747 60.1659 31.8158 56.635C31.8017 55.5381 31.9571 55.9759 32.0206 55.4604C32.0442 53.0452 31.8064 52.4544 31.757 50.157C31.8253 50.4748 32.0018 51.0115 32.0112 50.0205C31.9524 49.8392 31.8559 49.7191 31.8935 49.093L31.9571 49.4108C32.0536 48.8411 31.9618 48.2903 32.0018 47.1039C32.0018 45.0113 31.8511 43.0222 31.6228 41.2992C31.6416 39.4513 31.8464 41.4898 31.8888 41.1438C31.8158 42.4455 31.9288 42.0453 32.0018 42.3278C31.9382 41.6405 31.9029 40.8072 32.0536 40.4517C32.0442 39.4913 32.0536 39.0559 31.9524 38.1049C32.0018 38.5827 31.9241 38.9923 31.8559 38.5498C31.9029 37.7589 31.8464 35.758 32.0348 35.871C32.0348 31.3209 32.03 26.227 32.03 21.3496C31.9335 20.5305 31.9924 21.9758 31.9241 21.5262C31.797 20.3304 31.9924 20.5799 31.8888 19.6242L31.9924 20.0197C32.0065 18.5955 31.8158 17.082 31.724 15.7073C31.8417 15.9356 31.8205 14.5703 31.8888 15.7167C31.87 15.0435 32.3902 14.2243 32.2843 13.7017L31.797 14.4644C31.7523 14.4291 31.7829 13.4828 31.7476 13.5746C31.8464 12.9861 31.9571 12.2635 31.9571 11.8586C32.0795 11.6585 32.0536 12.6825 32.0489 13.2451C32.2537 13.3275 32.1807 11.3525 32.3667 12.167C32.3313 10.9665 32.2631 12.3365 32.1854 11.6209L32.2301 10.571L32.1619 11.3808C32.0983 10.5027 31.9429 10.2062 32.0606 9.0339L31.8606 7.82633C32.0206 7.70393 31.8888 6.94126 31.9288 6.31747L32.03 6.70822C32.0253 5.87964 32.0536 5.55715 32.1124 5.03928C32.2537 5.50301 32.0795 5.79019 32.2113 5.99027L32.2584 5.0793C32.1666 5.08401 32.0936 4.50259 32.0395 5.15698C31.9571 4.73327 31.8794 4.40608 31.8253 3.92352C31.797 3.67872 31.7735 3.39624 31.7617 3.0408C31.757 2.86426 31.7523 2.66888 31.7476 2.45467C31.7429 2.14396 31.7429 1.80028 31.7382 1.4213C31.7429 1.06115 31.7193 0.997594 31.7617 1.03055C31.797 1.07057 31.8747 1.24946 31.8888 1.5131C31.9076 1.76733 31.9335 2.04509 31.9477 2.24988C31.9712 2.45938 31.9971 2.44526 32.0348 2.36287C32.03 1.89444 32.0795 1.43072 32.0018 1.08469C31.9147 0.771617 31.7829 0.524455 31.5334 0.430298C31.0955 0.216091 30.4553 0.366742 30.0363 0.402051C29.3748 0.507977 29.01 0.625674 28.3438 0.61155C26.7078 0.547994 26.8043 0.693938 25.1472 0.703353C25.6721 0.597427 23.989 0.592719 23.683 0.489146L24.3398 0.376158C23.8337 0.411467 23.3511 0.366742 23.5018 0.289062C23.5324 0.343202 23.2734 0.37145 22.8686 0.397343C22.7344 0.416174 22.2565 0.402051 21.9011 0.444422C21.7222 0.479731 21.5504 0.512685 21.4044 0.660983C21.2985 0.816342 21.2114 0.992887 21.1125 1.15766C21.049 1.30831 20.9878 1.48956 20.9336 1.60726C20.8889 1.69906 20.856 1.79087 20.8159 1.88032C20.7383 2.0498 20.6653 2.21222 20.597 2.35816L20.7971 2.24517C20.4511 3.02668 19.8155 4.05534 19.1588 4.69326C18.2149 5.67485 18.5067 5.53832 17.7511 6.30805C17.2074 6.57169 17.1862 6.41162 17.2662 6.19506C17.6005 6.0397 18.0736 5.63954 18.535 5.26055C19.1329 4.63912 19.5566 4.00591 19.9356 3.35623C20.1168 3.03139 20.291 2.70419 20.4605 2.36287C20.5452 2.19103 20.6276 2.01684 20.7147 1.8403C20.8207 1.60255 20.9336 1.35774 21.049 1.10352C21.1761 0.703354 21.129 0.738662 20.9431 1.02584C20.8842 1.16708 20.8065 1.36716 20.7147 1.60726C20.6606 1.7485 20.6017 1.91798 20.5193 2.0804C20.3781 2.41701 20.1898 2.74656 20.0133 2.95135C20.0133 2.9231 20.0391 2.86897 20.0721 2.82189C20.0274 2.87367 19.9944 2.92311 19.9497 2.98195C20.2628 2.47351 20.637 1.60255 20.5594 1.38128C20.1639 2.26871 20.5335 2.1722 19.7708 3.1326C19.3188 3.92823 18.6221 4.30957 18.229 4.6603C17.8547 5.12873 18.0195 5.3759 16.7484 6.21154L17.198 5.69838C15.7856 6.64466 16.6824 6.37631 15.2701 7.14605C15.7856 6.89889 14.8558 7.55092 15.8209 7.04954C15.4019 7.38615 14.3168 7.93226 13.4599 8.20531C13.2504 8.30889 13.4364 8.27358 13.4176 8.34184C14.3897 8.08291 14.8228 7.63096 15.6208 7.40969C15.795 7.24962 15.9716 7.08955 16.1363 6.92243C16.9484 6.51284 17.1085 6.56698 16.666 6.93184C16.8849 6.7859 17.0661 6.64466 17.2356 6.56227C17.5228 6.71293 16.254 7.08955 16.0775 7.43087L16.6424 7.08485C16.9932 7.09897 15.3737 8.00052 14.571 8.30889C13.6506 8.62902 12.7985 8.88325 12.6973 8.78673C13.0998 8.62902 13.4952 8.45954 13.8836 8.27829C13.2316 8.44071 12.3701 8.91855 11.6403 9.11864C11.5933 9.11393 11.5156 9.11864 11.4261 9.13747C11.4709 9.13747 11.4944 9.14218 11.4991 9.15159C11.3437 9.19161 11.2025 9.21515 11.0777 9.21044C10.4398 9.37522 9.51003 9.64356 8.89801 9.68829L8.98511 9.7848L9.05808 9.71183C9.65598 9.62944 10.4728 9.51881 10.0397 9.6977C8.70264 10.0343 8.39192 9.82011 8.06472 9.76597C8.3519 9.56118 9.37351 9.60119 10.0397 9.3964C9.60184 9.30224 8.68851 9.65533 7.28793 9.64827C7.82227 9.42465 8.8886 9.47879 9.1593 9.25046C8.06002 9.38228 7.78225 9.55176 6.61 9.57059C6.75594 9.4882 7.88583 9.38699 7.80344 9.274C7.54921 9.28341 7.30205 9.28812 7.05254 9.28341C8.86741 9.11393 6.72299 9.08804 8.11886 8.90208C7.45741 8.89266 7.21025 9.16101 6.26162 9.07862C6.5229 9.14689 7.29734 9.26458 6.38167 9.37522C6.03093 9.37522 5.69667 9.35638 5.34123 9.34226C4.9034 9.25517 6.42639 9.12805 5.75081 9.05979L4.63505 9.12805C4.67507 9.18219 5.20941 9.21044 4.8728 9.28812C4.22782 9.22927 3.80883 9.50704 3.0438 9.59178C2.7425 9.58001 2.4718 9.5753 2.24111 9.57059C1.97041 9.56118 1.65734 9.54235 1.49256 9.50704C1.19597 9.51174 0.922913 9.58707 0.718121 9.68358C0.461543 9.76126 0.438004 10.0696 0.393279 10.3262C0.360324 10.6157 0.402695 10.9476 0.402695 11.2536L0.433296 11.9457C0.456836 12.3765 0.475667 12.8002 0.494498 13.2098C0.534515 13.6052 0.515683 14.2643 0.635734 14.5962C0.499206 14.0737 0.48979 14.0383 0.452127 14.3561C0.438004 14.5068 0.456836 14.7069 0.499206 14.8881C0.548638 15.1164 0.77697 15.1612 0.922913 15.2341C0.748722 15.1753 0.62161 15.1706 0.510976 15.0576C0.416819 14.9517 0.397987 14.8646 0.348555 14.7751C0.270875 14.6009 0.223797 14.4597 0.188488 14.3702C0.124932 14.1866 0.0566679 14.2337 0.000173715 14.3279C-0.00453384 14.6292 0.0872691 14.8528 0.174364 14.994C0.252044 15.1259 0.360324 15.2388 0.480375 15.2742C0.680458 15.3165 0.748722 15.2694 0.588655 15.1706C0.859357 15.3212 1.15595 15.3707 1.38664 15.3565C1.60555 15.3471 1.7562 15.3377 1.89744 15.3212C2.21286 15.2977 2.32585 15.2789 2.82959 15.3377C3.47221 15.3989 2.50946 15.5119 2.73308 15.5802C3.95006 15.5849 3.06499 15.366 4.38789 15.406C4.31492 15.4295 4.19722 15.4389 4.3008 15.4672C5.01404 15.5072 5.78377 15.4248 5.93913 15.3377C6.70415 15.566 8.08591 15.3118 7.9329 15.5354C9.66539 15.4742 7.67633 15.4154 8.02235 15.3377C8.72618 15.2341 10.035 15.3165 10.4493 15.3518C10.0208 15.3565 9.62773 15.4201 9.21815 15.3848L9.58301 15.5425C10.6588 15.5943 11.0001 15.5072 11.3343 15.4201L11.5886 15.3612C11.6309 15.3424 11.6756 15.3259 11.7392 15.3165C11.8028 15.3024 11.8757 15.2977 11.9628 15.2977C12.0264 15.3071 12.21 15.2624 12.1511 15.4389C12.1629 15.3024 11.9958 15.366 11.9722 15.3754C11.9181 15.3942 11.8993 15.4107 11.8851 15.4248C11.8593 15.4578 11.8404 15.4931 11.7392 15.5519C11.7674 15.5472 11.9958 15.4837 11.9534 15.6249C11.9628 15.7073 11.9817 15.7755 12.0405 15.5613C12.0099 16.098 11.9911 16.477 11.9722 16.8536C12.0311 17.5504 12.0735 18.3013 12.177 18.7062C12.1629 19.8055 12.0499 20.6199 11.9817 21.1401C12.0946 23.447 11.904 25.5749 12.0217 28.0042L12.0311 27.8229C12.0005 29.7108 12.2406 26.9944 12.2288 28.9505C12.0405 28.6868 12.1041 30.1251 12.0005 30.7536C11.904 33.1593 12.1417 34.9106 12.017 37.1186C11.9722 37.0998 11.9275 36.9585 11.9228 36.5301C11.8593 38.2226 11.8993 39.5831 11.8899 41.1038L11.864 41.0402C11.7086 43.4789 11.8993 45.6939 11.9416 48.2268C11.9181 48.022 11.8498 47.9678 11.8216 47.8054C11.7769 49.0789 11.7533 51.1174 11.9275 52.0119C11.7392 53.5231 11.9817 53.0099 11.8028 54.9566C11.7674 55.0696 11.7674 54.7613 11.7627 54.6341C11.6992 55.5898 11.718 56.2678 11.6945 57.2352C11.8169 59.3702 12.064 59.8975 11.9864 62.3762C11.7298 62.5033 11.9228 60.8532 11.718 60.7991C11.7627 61.2934 11.8169 61.7218 11.7533 62.4045C11.6568 61.9949 11.6945 62.3174 11.598 62.0349C11.5627 62.2938 11.6309 62.8187 11.7039 63.2778C11.7769 63.7415 11.8404 64.1275 11.8404 64.1275C11.8946 64.1558 11.9181 63.9745 11.9134 63.4873C12.0735 64.064 11.9275 65.9212 11.9911 67.1264C11.9958 66.7357 12.0452 65.5069 12.1676 65.9659C12.1135 67.5807 12.3606 68.1127 12.4642 69.2379C12.3465 70.7256 12.2453 68.1457 12.064 68.4234C12.0005 68.673 11.8545 69.2685 11.7816 68.6471C11.7486 69.9794 11.8993 70.9398 11.9416 72.1309L11.8899 72.0956C11.9087 73.7598 12.1323 75.5347 12.0311 76.9305L12.0899 76.189C12.1229 76.4621 12.1041 77.3001 12.21 77.7638C12.1276 77.7097 12.0499 78.7925 11.9769 78.3499C12.2453 79.082 12.1558 82.1539 12.3912 82.9354C12.2924 83.345 12.2053 83.0037 12.1511 82.8813C12.1912 81.895 12.2359 81.4948 12.1276 80.9581C12.1323 81.8314 12.064 82.4717 12.0005 82.3351C12.0899 82.7589 12.137 83.4415 12.017 83.9688C11.9581 84.2324 11.8687 84.4113 11.7627 84.5337C11.6568 84.6702 11.4991 84.7691 11.4308 84.8421C10.8965 84.9433 10.3221 84.9009 10.5175 84.7479C7.98704 84.9009 11.8545 85.1975 8.88389 85.2116C7.51155 85.0751 10.2256 85.028 8.32836 84.9833L8.6791 84.9598C7.31147 84.5926 7.72105 85.2211 6.16746 85.2069C5.96267 85.0069 7.24791 85.0657 6.18158 84.9245C4.76217 84.9739 4.13838 85.2658 2.71896 85.2022L2.94258 85.1198C2.70954 85.1198 2.42236 85.1198 2.11165 85.1245C1.7256 85.1245 1.25952 85.0963 0.913497 85.1834C0.831109 85.1928 0.725183 85.2258 0.685166 85.3246C0.661627 85.407 0.645149 85.4941 0.626318 85.5836C0.593363 85.7625 0.588655 85.9743 0.588655 86.172C0.588655 86.5251 0.593363 86.8453 0.593363 87.1089C0.553346 87.1489 0.558055 87.0171 0.548638 86.8453C0.470959 88.5236 0.64515 87.5491 0.510976 88.9191L0.607487 89.3145C0.67575 88.5919 0.772262 87.3584 0.661627 86.3486C0.713414 86.8947 0.776969 86.4569 0.845233 86.0708C0.889958 85.8707 0.922913 85.6848 0.962929 85.5788C1.05473 85.4894 1.17714 85.553 1.11829 85.6259C1.13712 85.5694 1.17714 85.5577 1.21009 85.5341C1.29248 85.5435 1.38664 85.553 1.46902 85.5624L0.948806 86.1673V86.172L1.51139 85.5694C1.5467 85.5741 1.58437 85.5788 1.61967 85.5788L1.47373 85.7295L1.62909 85.5836C1.68794 85.5883 1.74208 85.593 1.79857 85.6024C1.63851 85.7436 1.49727 85.866 1.40076 85.9249C1.25952 86.0897 1.09946 86.2709 0.948806 86.4404V88.8908C1.07827 88.7378 1.23599 88.5919 1.35603 88.4365L1.60555 88.3329C2.34468 87.4596 3.20151 86.6075 4.04657 85.7789C5.36006 85.8472 6.78183 85.8849 8.20125 85.9343C7.29734 86.9394 6.36284 87.5726 5.76965 88.1399C5.39537 88.6131 5.30592 88.8696 4.85397 89.411L3.68171 89.4605L3.80412 89.4887L4.84926 89.4205C4.84455 89.4275 4.83985 89.4322 4.83514 89.4369H5.32711C5.55073 89.2227 5.77906 88.9967 6.01681 88.7778C6.93719 87.7727 7.72576 86.857 8.53316 85.9484C8.62967 85.9484 8.72618 85.9531 8.82504 85.9578C8.18242 86.6358 7.50684 87.349 6.90659 87.9234C6.01681 88.8508 5.86145 89.0791 5.59781 89.4369H7.41739C8.6532 88.2223 9.8796 87.0077 11.1013 85.7978C11.3485 85.753 11.6027 85.6942 11.8545 85.6024C12.2924 85.4612 12.7796 85.0375 12.9703 84.5596C13.0856 84.2865 13.1539 84.0017 13.1939 83.7145C16.5294 80.3885 19.7896 77.1118 22.8309 73.9646L22.8639 74.0281C25.2531 71.6719 27.607 69.3203 29.9633 66.9711C29.9633 67.2347 29.9727 67.496 29.9915 67.7502L30.2105 67.8044C30.2152 68.6329 30.3658 68.8048 30.3517 69.4003C30.2976 69.1555 30.2293 69.438 30.2105 69.8876C28.3485 71.759 26.4795 73.6327 24.6011 75.5064C23.2734 76.9352 24.2127 76.2126 23.0828 77.4578C22.5673 77.9686 21.4091 79.1456 21.3362 79.0867C22.3013 78.051 21.6822 78.5594 22.0047 78.1946C20.3499 79.8659 18.1348 81.9397 16.7342 83.4956L18.0524 82.3351C17.5134 82.9448 16.5836 83.8322 16.0587 84.3477C16.2376 84.0865 15.3925 84.7597 15.8256 84.2865C13.0174 87.4855 13.2669 86.7252 11.0377 89.0603L10.7458 89.0321C9.52416 89.1097 9.46766 89.2157 9.16401 89.3334C9.7878 89.2698 10.2845 89.2604 10.8424 89.2604C10.8141 89.2957 10.7859 89.3192 10.7506 89.3522C10.7506 89.364 10.7411 89.3734 10.7364 89.3828C10.1715 89.4369 10.1432 89.637 9.16401 89.6158C9.77367 89.6559 9.65598 89.7477 9.29112 89.8112C9.96199 89.8253 11.3579 89.8748 11.1154 89.7688L10.873 89.743C10.9318 89.6794 11.3014 89.6559 11.4803 89.6253C12.4007 89.6253 11.9087 89.7382 12.0899 89.7877C13.6153 89.8253 12.2147 89.5382 13.6106 89.5429L13.7918 89.5923C14.4627 89.5287 15.4984 89.5193 15.6844 89.3687C16.1905 89.5005 16.9296 89.3781 17.5581 89.3828C17.5369 89.4016 17.5181 89.4205 17.4993 89.4369H17.9065C17.7911 89.71 15.5243 89.3828 14.7687 89.5688C15.4984 89.6417 14.3521 89.7382 14.0437 89.8159L16.3553 89.6653C16.5412 89.7147 17.2168 89.8889 17.6358 89.7641L17.4545 89.7524C18.3702 89.7147 18.1207 89.5688 18.914 89.6158C19.0364 89.6464 18.7916 89.7053 18.7351 89.7288C19.4648 89.7641 19.3424 89.6464 19.8344 89.6158C20.5641 89.6464 19.4648 89.7641 20.0768 89.7971C20.9242 89.6606 21.4138 89.8324 22.1506 89.8206C21.8375 89.6205 25.0695 89.5476 23.4876 89.3734L24.295 89.3098C24.2503 89.3522 24.2079 89.3969 24.1632 89.4369H24.9024C24.5916 89.5146 24.2809 89.6017 24.5234 89.6841L23.1181 89.6794C23.3511 89.9289 26.0558 89.5146 26.9903 89.7924C27.7341 89.8065 27.5552 89.7736 28.9699 89.8936L28.7322 89.67C29.4666 89.7241 29.7044 89.8465 29.7397 89.8842C30.1681 89.8701 30.5565 89.8748 30.959 89.8842C30.8531 89.9195 30.7024 89.9477 30.4435 89.9619C30.9943 90.0843 31.1544 90.0372 31.3498 89.9736C31.6511 89.9148 32.103 89.9242 32.5644 89.9242L32.1525 90.0066C32.4349 89.9925 32.7786 89.9689 32.8092 89.9242C32.9975 89.9242 33.1788 89.9195 33.353 89.9054C33.2329 89.8653 32.9245 89.7382 32.2631 89.6794C33.972 89.7688 35.3091 89.7194 36.7732 89.9054C36.7214 89.9689 36.107 90.0466 36.293 90.056C37.0227 90.089 37.816 89.9783 37.7524 89.8795C37.9172 89.8748 38.0443 89.8701 38.155 89.8701C38.2915 89.9242 38.4657 89.983 38.8117 89.9925C38.8941 90.016 39.0212 90.0301 39.2754 90.0419C39.5179 89.8606 40.9185 89.9477 41.2245 89.8701C40.8949 89.8512 40.4853 89.8559 40.0781 89.8606C40.6666 89.7382 41.1915 89.6064 41.6482 89.7006C40.5489 89.8112 42.8204 89.8842 41.168 89.9336C41.4528 89.9925 41.6388 90.0066 41.7659 90.0066C41.9542 90.0019 42.0672 89.9783 42.1684 89.9477C42.3591 89.8559 42.6415 89.9148 43.2724 89.6841C43.4183 89.4511 43.4866 89.1427 43.5125 88.7684C43.5808 88.8649 43.5996 89.3828 43.4725 89.67C43.4395 89.8512 43.2394 89.9195 43.1618 89.9383C43.0747 89.9689 43.0252 89.983 43.0888 89.983C43.1994 89.9383 43.2889 89.9289 43.3807 89.8465C43.4819 89.7524 43.4866 89.6559 43.5219 89.5523C43.4984 89.637 43.5125 89.743 43.3995 89.8606C43.2889 89.9572 43.1618 89.9878 42.9711 90.0466C42.7875 90.0984 42.5333 90.0937 42.2767 90.0984C42.0484 90.1055 41.8083 90.1055 41.5611 90.1102C40.8172 90.1243 39.9745 90.1431 39.3366 90.2161L41.9895 90.2891C42.6698 90.2702 43.4042 90.3149 43.6537 89.7971C43.7644 89.5688 43.8232 89.2274 43.7997 88.8602L43.7903 87.9493Z" fill="#6973A4"/>
</svg>
