<svg width="70" height="91" viewBox="0 0 70 91" fill="none" xmlns="http://www.w3.org/2000/svg">
<path d="M62.5054 87.1949C63.7542 85.9579 65.003 84.7137 66.2566 83.4649C66.2519 84.6856 66.2472 85.9203 66.2425 87.1363C66.2472 87.1691 66.2378 87.209 66.1932 87.1949H62.5054ZM56.0876 87.209C56.7285 86.4813 56.6181 86.2302 58.2684 84.8992L58.1627 84.9367C60.8294 82.3077 63.5664 79.6293 66.2918 76.9603C66.2871 78.1997 66.2777 79.4344 66.2706 80.6692C64.0993 82.8499 61.9186 85.0236 59.7425 87.1996C58.5219 87.2043 57.3012 87.2043 56.0876 87.209ZM23.1583 87.5236C24.4071 87.4555 23.7029 87.3499 24.1301 87.3006C23.5175 87.3053 22.8532 87.2959 22.1677 87.2865L22.8391 86.6363C23.4893 85.8475 24.4893 84.8358 25.4611 83.9438L24.9376 84.709C25.6559 84.1245 25.2334 84.3311 25.3837 84.1386C26.3555 83.0494 26.663 82.9133 27.2803 82.4391C28.7991 80.6598 30.7686 79.3523 32.0033 77.7607L32.2498 77.6575C33.3343 76.3899 34.6606 75.1551 35.8319 73.9861C37.0361 73.8946 38.2803 73.8805 39.515 73.8899C38.3225 75.0777 37.1371 76.2584 35.9376 77.4438C35.0009 78.4767 35.7052 77.9931 34.9117 78.8969C34.5385 79.2607 33.7075 80.0988 33.6395 80.0448C34.3202 79.2959 33.8625 79.6434 34.0808 79.3781C32.9 80.5682 31.2874 82.0307 30.3061 83.1645L31.2733 82.3546C30.8953 82.8006 30.224 83.425 29.8437 83.7936C29.9611 83.5964 29.3296 84.0518 29.6348 83.7067C27.5902 86.1433 27.7991 85.3687 25.9916 87.324C25.9682 87.3827 25.9189 87.4696 25.8555 87.5658C25.7193 87.5963 25.5456 87.6198 25.2686 87.6433C24.6207 87.6339 23.163 87.6433 23.1583 87.5236ZM16.5762 87.4931C16.8532 87.4109 15.9049 87.2419 16.4682 87.2043C15.9964 87.2513 15.5927 87.2818 15.2499 87.3053C18.7523 83.871 21.6583 80.8405 25.1606 77.2795C26.4728 75.9532 26.0503 76.587 26.7146 76.0119C27.6301 75.1058 28.3038 74.404 28.8977 73.7749C29.8554 73.7889 30.4658 73.8359 31.332 73.8852C31.9587 73.9227 32.5761 73.958 33.177 73.9673L32.123 75.0777L32.5456 74.6645L33.1888 73.9673C33.2615 73.9673 33.3343 73.972 33.4024 73.972C33.3484 74.0448 33.2991 74.1129 33.2357 74.195C32.7075 74.7185 32.278 75.1246 32.0456 75.2655C30.832 76.7044 29.1395 78.3852 28.0221 79.7114C28.7803 78.8006 27.8578 79.6152 27.2991 80.0542C28.2451 79.0776 28.1348 78.9509 27.9893 78.9415C27.4165 79.5377 27.1583 80.0448 27.494 79.7889C26.4635 80.7138 26.9001 80.5448 25.9588 81.3241C25.3602 81.8382 26.1184 80.9274 25.886 81.0729C24.8203 82.1175 25.7381 81.5025 24.5644 82.6222C24.6114 82.5447 24.7099 82.4321 24.5973 82.5001C23.9517 83.0964 23.3438 83.8123 23.2663 84.0072C22.4541 84.5119 21.4236 85.8757 21.4048 85.5964C19.9471 87.1316 21.71 85.4555 21.4682 85.8029C21.1278 86.2255 20.541 86.8006 20.0551 87.256C20.0152 87.256 19.9823 87.256 19.9471 87.256C20.0879 87.101 20.2335 86.9461 20.3954 86.8076L19.9776 87.0142C19.879 87.101 19.8015 87.1785 19.7194 87.256C18.926 87.256 18.1748 87.2724 17.5269 87.324L19.0785 87.479C18.3579 87.5471 17.2264 87.5001 16.5762 87.4931ZM10.1326 87.1902C10.0105 87.2513 9.75233 87.3147 9.40961 87.3733C11.2899 85.4109 13.4424 83.5142 14.7382 81.857C17.703 79.411 16.2875 79.8617 18.994 77.6152L18.879 77.6622C20.6513 75.9086 22.4588 74.1364 24.2663 72.3641C24.2616 72.4134 24.2569 72.4768 24.2522 72.5284C24.2076 72.6739 24.2334 72.8289 24.3344 72.9603C24.4024 73.0331 24.4611 73.0965 24.5198 73.1528C24.7921 73.3758 24.9517 73.7303 25.7733 73.8265C26.1818 73.8124 26.5409 73.803 26.8766 73.7936C26.4916 74.2185 26.1137 74.6364 25.7733 75.019L24.5926 76.1035C26.1043 74.6011 24.4423 76.0119 26.3226 74.1504C24.7099 75.6575 23.3344 77.1786 21.8273 78.6222C22.1583 78.3805 22.1395 78.5096 21.5644 79.1199C20.6325 80.0025 20.4682 79.9978 19.4236 81.0236L20.3954 79.9485C19.6372 80.5729 19.1302 81.2466 18.4987 81.8945C18.2217 82.0307 16.6584 83.5612 16.8532 83.2138C15.5551 84.6997 15.0058 85.1363 13.5622 86.6996C15.2006 85.2137 13.257 87.1949 13.4894 87.0729L15.2241 85.2912C12.6936 87.7208 16.0175 84.472 15.71 84.54C16.9354 83.4297 14.3063 86.3358 16.2452 84.3663C14.9424 85.7372 14.1983 86.4719 13.3791 87.3147C13.203 87.3006 13.0434 87.2818 12.8767 87.2677C13.3673 86.7302 13.9025 86.1433 14.5105 85.5424C13.9847 86.0306 13.3485 86.6175 12.6842 87.2419C12.1209 87.1832 11.473 87.1269 10.1326 87.1902ZM1.95427 87.9391C2.44018 87.9602 2.45426 87.8827 2.49417 87.8287C2.51295 87.7982 2.53877 87.7701 2.61623 87.7513C2.67961 87.7419 2.63032 87.7325 2.84393 87.7278C3.01999 87.7278 3.24768 87.7208 3.53876 87.7208C3.1843 87.7067 2.83924 87.6973 2.49417 87.6879C2.36272 87.6738 2.06225 87.756 2.11624 87.5236L2.1045 87.3194C2.6937 86.7442 3.32045 86.0987 4.13265 85.3499L4.09275 85.4696C4.60213 84.8593 5.16081 84.2208 6.01762 83.4015L5.95424 83.6386C7.03639 82.6762 6.55517 82.6762 7.74295 81.6011C7.64436 81.5189 6.88146 82.1809 6.68193 82.1997C7.04812 82.0307 8.27581 80.8311 7.92605 81.0471C9.01524 79.8851 8.70773 80.2678 8.8298 80.195L9.43777 79.479C10.2335 78.695 9.81101 79.3476 9.56923 79.6926C10.2101 78.8546 11.0856 78.1222 11.9448 77.3007L11.6443 77.6833L12.7664 76.5964C13.4119 75.803 14.419 74.796 15.3837 73.904L14.865 74.6645C15.5833 74.08 15.1607 74.2866 15.311 74.0988C16.2828 73.0096 16.5903 72.8735 17.203 72.3946C18.7288 70.62 20.6959 69.3125 21.9306 67.7209L22.1724 67.6176C23.9517 65.5402 26.386 63.5543 27.7076 61.8055C30.3108 59.7139 29.0245 60.0426 31.4047 58.1201L31.2921 58.16C38.4258 51.1319 46.0783 43.7704 52.5853 37.0428L52.6229 37.1062C55.9233 33.8667 59.1721 30.6414 62.4045 27.4161C62.4139 28.8386 62.3646 30.3597 62.2049 31.9536C61.7918 32.3597 61.3787 32.7776 60.9702 33.1837C60.212 34.0663 61.611 32.5874 61.2096 33.0827C60.1064 34.3503 60.2284 33.9724 59.3435 34.9911L59.6674 34.5311C58.2402 35.9301 56.8646 37.5569 55.5571 38.9911C55.7097 38.6813 54.367 40.0474 55.4609 38.8644C54.7989 39.5428 53.6346 40.0028 53.1909 40.5944L54.2754 40.1672C54.2707 40.2352 53.3083 41.1554 53.4257 41.0826C52.7731 41.6014 51.9773 42.2399 51.5736 42.6484C51.2919 42.7587 52.3318 41.761 52.8905 41.2094C52.8318 40.9864 50.9187 42.9911 51.597 42.0615C50.428 43.2775 51.8412 41.9606 51.1792 42.7258L50.1064 43.7376L50.9609 42.977C50.1299 43.8878 49.9351 44.2892 48.698 45.3737L47.6276 46.7117C47.3952 46.7211 46.7285 47.5685 46.083 48.1577L46.3999 47.7023C45.583 48.5262 45.2426 48.8267 44.684 49.3009C45.0525 48.7399 45.4563 48.5802 45.5642 48.2892L44.6253 49.16C44.6933 49.2187 44.1628 49.8384 44.8483 49.2281C44.1253 50.1835 43.7614 50.7398 41.6464 52.8267C40.5924 53.6694 42.576 51.714 42.0783 52.0051C39.8436 54.1342 39.6793 54.944 38.3906 56.2022C36.7145 57.782 36.9094 57.7867 35.2615 59.444C35.7146 58.8478 34.0291 60.5191 33.6582 60.7515L34.238 60.0238C33.7568 60.5473 33.2451 61.0027 33.339 60.7984C33.5338 60.8031 31.2874 63.0261 30.1958 64.2092L30.4775 64.0965C29.616 65.012 28.4353 66.2914 27.4681 67.2115C26.0949 68.6411 26.4869 68.3923 25.4916 69.5613C24.8203 70.0824 24.7968 69.9275 24.9024 69.6387C25.3203 69.3078 25.9329 68.6505 26.5808 68.0589C28.285 66.2186 29.4846 64.6646 31.2967 62.9393C31.8672 61.9768 30.1277 64.1552 29.1935 64.9439C29.2076 64.9064 29.2662 64.8383 29.3296 64.7702C29.2522 64.8477 29.1841 64.9111 29.1113 64.9792C29.7193 64.3242 30.724 63.2585 30.7921 62.9839C29.7475 64.0637 30.224 63.951 28.8155 65.181C27.8954 66.2139 26.94 66.8477 26.332 67.4251C25.7592 68.1505 25.8907 68.3406 24.2569 69.904L24.8461 69.0895C23.0269 70.9016 24.1607 70.1082 22.4729 71.7796C23.0809 71.2021 22.0175 72.4556 23.1395 71.3383C22.6489 71.9533 21.44 73.1833 20.4964 74.0589C20.2734 74.3124 20.4823 74.1458 20.4776 74.2279C21.5644 73.2983 21.9987 72.5636 22.94 71.8453L23.5175 71.0284C24.5057 70.1317 24.6935 70.1364 24.17 70.7561C24.4283 70.4862 24.6466 70.2373 24.8602 70.0683C25.2052 70.0941 23.6654 71.1293 23.494 71.6082L24.1442 70.9369C24.5527 70.7655 22.7029 72.5824 21.8367 73.4251C20.818 74.3359 19.9095 75.1974 19.7569 75.1786L21.0222 73.8453C20.2781 74.4462 19.4025 75.5378 18.6396 76.2866C18.5809 76.3265 18.4987 76.3899 18.4025 76.472C18.4518 76.4415 18.48 76.4274 18.4893 76.4368C18.325 76.5917 18.1701 76.7232 18.0293 76.8241C17.3579 77.4791 16.4401 78.5049 15.7922 79.0917H15.9495L15.987 78.965C16.5997 78.364 17.4682 77.5894 17.0668 78.1035C15.7499 79.5236 15.3274 79.6527 14.933 79.911C15.1279 79.4743 16.2687 78.5776 16.926 77.8429C16.3908 78.1434 15.5199 79.2185 14.0293 80.5541C14.4659 79.8617 15.6725 78.918 15.865 78.4908C14.7053 79.6058 14.4964 79.9931 13.2617 81.1551C13.3579 80.9462 14.5199 79.7748 14.3697 79.7748L13.5622 80.5049C15.4424 78.6128 13.0715 80.6762 14.5152 79.1739C13.7664 79.8124 13.6443 80.249 12.5762 81.1504C12.9072 80.9321 13.8016 80.249 12.9025 81.2419L11.7946 82.2677C11.2828 82.6551 12.7758 81.0189 12.0223 81.6621L10.9495 82.8264C11.0223 82.8264 11.5809 82.3077 11.2946 82.6997C10.6091 83.3006 10.3791 83.9062 9.67486 84.7184C9.06454 85.3241 8.57158 85.7935 8.31572 85.9649C7.8392 86.5165 7.29929 87.0963 6.75 87.6879C5.40025 87.81 3.88383 87.925 2.67961 88.033C2.41201 88.0024 2.16788 87.9837 1.95427 87.9391ZM1.54582 71.3031C1.58573 71.343 1.64911 71.5613 1.72188 71.2843C1.70779 71.0918 1.79465 70.9509 1.88619 70.8336C2.01765 70.6411 2.13502 70.465 2.25239 70.296C2.47539 69.9533 2.67961 69.6082 2.90731 69.0754C4.04815 67.4205 2.89323 69.4251 3.52468 68.62C3.4566 68.8007 3.22421 69.174 2.93079 69.6434C2.65849 70.0683 2.33455 70.5824 2.02704 71.066C1.99417 71.1246 1.98009 71.1927 1.98009 71.2608C1.98009 71.3523 1.98478 71.4439 1.98478 71.5307C1.8815 71.6669 1.79465 71.789 1.71718 71.9087C1.71718 71.904 1.71718 71.8993 1.71718 71.8946C1.71718 71.8993 1.71718 71.904 1.71718 71.9087C1.64911 72.0049 1.57164 72.1129 1.48948 72.2232C1.48948 71.3523 1.50826 71.2514 1.54582 71.3031ZM4.21012 66.8829C4.15143 67.0214 4.03876 67.1974 4.23359 66.9791L4.73359 66.0355C6.06926 64.2092 4.82279 66.4275 5.94954 64.9533C6.81338 63.9909 6.88146 63.4674 7.53403 62.7257C7.48004 62.7656 7.42136 62.8102 7.37676 62.8477C7.51291 62.6787 7.6068 62.5566 7.67957 62.4651C7.67488 62.4698 7.65845 62.4698 7.65845 62.4698C8.33919 61.4956 9.16078 60.5191 9.24763 60.1553C9.38378 60.106 9.90491 59.3501 10.1185 59.0215C10.4589 58.5473 11.2406 57.4722 12.027 56.8712C11.8767 57.0755 11.7312 57.2727 11.8579 57.1717C10.6772 58.2421 11.0997 57.9816 10.9049 58.2703C11.4589 57.6365 12.1537 56.8947 12.5622 56.6928C13.1396 56.1107 13.4988 55.7468 13.9166 55.2868C14.0739 55.1764 14.1467 55.1483 14.088 55.2445C14.6795 54.7116 15.2969 54.2023 15.9142 53.6952L15.8462 54.0145C17.4753 52.5567 17.2358 52.6154 18.271 51.4957C19.6161 50.6037 21.609 48.7305 22.4118 48.0709C22.5527 47.9746 22.7569 47.8103 23.0996 47.5427L22.3273 48.0333C23.6841 47.0004 23.4752 47.0591 24.3837 46.3854C24.1794 46.5122 24.1442 46.5169 24.6747 46.1742C24.5691 46.2516 24.4752 46.3173 24.3837 46.3854C24.4799 46.322 24.6114 46.2352 24.7616 46.1436L24.6935 46.1624C24.8508 46.0568 25.0151 45.9465 25.2193 45.815C25.1841 45.8619 24.9752 46.0028 24.7616 46.1436L24.9705 46.0756C26.2146 45.4652 26.6231 44.7728 27.8813 44.0075C27.771 44.0897 27.5855 44.2352 27.4588 44.3174C28.1724 43.8972 29.3155 43.4653 29.501 43.1272C29.6747 43.0404 29.893 42.8455 30.1019 42.6531L30.6277 42.3268C30.4141 42.4582 30.2475 42.5592 30.1113 42.6484C30.393 42.3855 30.6465 42.1202 30.7099 42.1296L32.069 41.2141C32.0315 41.315 32.1277 41.2822 32.4728 40.9418C32.562 40.8902 32.6629 40.8127 32.7592 40.7446C32.055 41.4653 31.3367 41.9441 30.8695 42.3855C30.3789 43.0239 30.5198 43.2094 29.0972 44.5709L29.5925 43.8479C28.0127 45.4183 29.0198 44.7493 27.5503 46.2023C28.0808 45.7023 27.1677 46.8079 28.1489 45.8338C27.7264 46.376 26.6771 47.4464 25.8508 48.2023C25.6606 48.4253 25.8461 48.2845 25.8461 48.3619C26.8038 47.5638 27.1583 46.8995 27.994 46.2939L28.4799 45.5685C29.339 44.7986 29.5198 44.8127 29.0667 45.3596C29.2968 45.1225 29.4799 44.9042 29.67 44.7587C29.9916 44.8033 28.6254 45.6695 28.4986 46.1108L29.0573 45.5192C29.4329 45.3925 27.8179 46.9676 27.0667 47.6976C26.1724 48.4793 25.379 49.2281 25.2381 49.1999L26.332 48.038C25.6771 48.5521 24.9283 49.5145 24.2663 50.1647C24.2123 50.1976 24.1395 50.2516 24.0574 50.3197C24.102 50.2938 24.1254 50.2844 24.1348 50.2891C23.9893 50.4253 23.8578 50.5403 23.7264 50.6248C23.1489 51.1952 22.3579 52.0919 21.7898 52.599L21.9353 52.6084L21.9635 52.4933C22.494 51.9699 23.2616 51.3056 22.9165 51.761C21.778 52.998 21.3907 53.0896 21.041 53.3079C21.1959 52.9135 22.2029 52.1483 22.771 51.5051C22.2898 51.7516 21.5457 52.7023 20.2382 53.8501C20.5973 53.2304 21.6677 52.43 21.818 52.0426C20.8062 53.0074 20.6372 53.3548 19.5645 54.3619C19.6372 54.1694 20.6466 53.153 20.5058 53.1412L19.7968 53.7727C21.433 52.1248 19.3508 53.8971 20.5973 52.5896C19.9424 53.1412 19.8602 53.5403 18.9213 54.3149C19.2147 54.1295 20.0058 53.5497 19.2335 54.4159L18.2616 55.3079C17.8133 55.6318 19.0973 54.2023 18.44 54.7539L17.5081 55.768C17.5809 55.7727 18.0668 55.3267 17.825 55.6741C17.2217 56.1928 17.0504 56.7398 16.4448 57.4581C15.9142 57.9816 15.487 58.3924 15.2546 58.5332C14.0387 59.9698 12.3485 61.6459 11.2312 62.9745C11.9894 62.0637 11.0692 62.8759 10.5105 63.3172C11.4542 62.343 11.3415 62.2186 11.196 62.2045C10.6279 62.8031 10.365 63.3078 10.7007 63.0519C9.67486 63.9768 10.1138 63.8125 9.17017 64.5871C8.57158 65.0989 9.32979 64.1904 9.09271 64.3336C8.02934 65.3853 8.95186 64.7702 7.77582 65.8853C7.82042 65.8078 7.92135 65.6951 7.81103 65.7632C7.16315 66.3594 6.55047 67.0754 6.47771 67.2702C5.66316 67.7726 4.63734 69.1434 4.61387 68.8571C3.15614 70.397 4.91903 68.7233 4.6749 69.0707C4.13265 69.7491 2.94018 70.8242 2.56224 71.1528C2.92609 70.7796 3.22891 70.404 3.60684 70.0683L3.18431 70.2772C2.76177 70.6693 2.48009 70.9556 2.27117 71.1833C2.27117 71.1387 2.26178 71.1293 2.32516 70.9838C2.46131 70.6786 2.57163 70.4134 2.82046 70.0448C2.6444 70.4909 3.19369 69.8265 3.71012 68.9744C3.51998 69.1927 3.31576 69.5308 3.32984 69.4157C4.30167 67.85 4.26176 67.5214 5.42842 65.6669C4.36505 67.1294 4.08805 67.3946 3.06694 68.7561C3.1397 68.2679 3.6843 67.7303 4.21012 66.8829ZM21.0104 49.0169C22.44 47.7751 22.041 48.2352 22.1912 48.1976C20.6607 49.2586 19.9917 50.0661 18.6208 51.0215C18.8579 50.8901 18.9424 50.9089 19.0339 50.8854C18.5034 51.2915 17.9541 51.6647 17.7077 51.7187C18.2123 51.0309 21.7405 48.599 21.0104 49.0169ZM40.5197 32.4325C40.7333 32.1672 40.8788 31.6766 41.1136 31.1555C41.3366 30.6273 41.3741 29.9865 41.5056 29.4208C41.6042 28.3058 41.5502 27.402 41.7356 27.7213C41.7286 27.672 41.7192 27.6391 41.7145 27.5945C42.4187 26.8926 42.7168 26.6321 43.2028 26.2283C42.8905 26.7283 42.5314 26.8551 42.4492 27.1156L43.2661 26.3645C43.1981 26.3058 43.6535 25.7588 43.0502 26.2823C43.6628 25.4396 43.9657 24.9466 45.806 23.1344C46.7379 22.4138 45.0103 24.1133 45.4609 23.8762C47.4046 22.0265 47.5079 21.2847 48.6299 20.1908C50.0877 18.8246 49.9069 18.8058 51.3412 17.3669C50.9562 17.895 52.4186 16.4467 52.7496 16.2472L52.259 16.8927C52.6722 16.4326 53.1229 16.0453 53.0454 16.2237C52.867 16.2096 54.8153 14.2754 55.7566 13.2449L55.5008 13.3317C55.9327 12.8763 56.4421 12.32 56.9632 11.773C57.0101 11.8247 57.0547 11.874 57.0993 11.9233C56.3928 12.7355 55.6886 13.5312 54.8153 14.3599C54.3482 15.2261 55.8294 13.2988 56.6463 12.6251C56.6369 12.658 56.5829 12.7167 56.5289 12.7754C56.597 12.712 56.6557 12.6533 56.7238 12.597C56.1956 13.1721 55.3294 14.097 55.2848 14.3481C56.1839 13.4092 55.7519 13.4819 56.982 12.4256C57.0782 12.32 57.1721 12.2284 57.2684 12.1298C57.2824 12.151 57.2965 12.1697 57.313 12.1885C57.2824 12.2143 57.2684 12.2284 57.2449 12.2613L57.3177 12.1885C57.9867 12.9843 58.5899 13.7965 59.104 14.6251C58.1369 15.6462 57.2003 16.7307 56.3106 17.7237C56.428 17.4537 55.2613 18.6345 56.205 17.604C55.6346 18.2002 54.5759 18.5476 54.198 19.0711L55.1839 18.7425C55.1839 18.8105 54.3482 19.604 54.4491 19.5453C53.8764 19.9866 53.1768 20.5335 52.8271 20.8833C52.5689 20.9701 53.4726 20.1086 53.9585 19.6274C53.8905 19.4138 52.2355 21.1626 52.813 20.341C51.7966 21.395 53.0313 20.2636 52.4632 20.9302L51.5243 21.8082L52.2731 21.1532C51.5595 21.949 51.4046 22.3152 50.3154 23.2401L49.4069 24.4232C49.1886 24.4185 48.6205 25.1626 48.0548 25.672L48.3224 25.2706C47.6135 25.9865 47.3177 26.2447 46.8271 26.6508C47.137 26.1508 47.4961 26.0264 47.5807 25.7635L46.7638 26.5147C46.8271 26.5734 46.3741 27.1203 46.9774 26.5969C46.3647 27.4396 46.0595 27.9349 44.2215 29.7447C43.2896 30.4677 45.0149 28.7659 44.5666 29.0053C42.6229 30.855 42.522 31.5945 41.3999 32.6907C40.961 33.0968 40.6793 33.3785 40.4516 33.6203C40.5924 33.3104 40.6699 33.0569 40.7732 32.8597C40.792 32.801 40.8154 32.7376 40.8413 32.6813C40.8554 32.6649 40.8694 32.6508 40.8882 32.632C40.8694 32.6508 40.8647 32.6555 40.846 32.6696C40.8694 32.6085 40.8929 32.5358 40.9234 32.4677C41.2051 32.1719 41.569 31.794 41.691 31.6485C41.4422 31.8715 41.1863 32.1531 40.9328 32.4372C40.9422 32.4043 40.9563 32.3808 40.9657 32.3456C41.0009 32.1485 41.0408 31.9254 41.0924 31.6297L40.9962 31.8034C40.961 32.0757 40.8835 32.3315 40.8014 32.5827C40.5737 32.8409 40.3554 33.0874 40.1511 33.2893C40.2967 32.97 40.4117 32.6555 40.5197 32.4325ZM41.4469 28.0992L41.1699 28.2776C41.1605 28.2001 41.1511 28.1274 41.1417 28.0452C41.2286 27.9536 41.3272 27.8527 41.4281 27.74C41.4375 27.8668 41.4422 27.9865 41.4469 28.0992ZM41.4516 28.1626C41.4375 28.5006 41.3953 28.7917 41.3554 29.0288C41.2873 29.1109 41.2427 28.7612 41.1746 28.2964L41.4469 28.0992C41.4516 28.118 41.4516 28.1414 41.4516 28.1626ZM41.7004 27.4701C41.7873 27.3762 41.8812 27.2893 41.968 27.2025L41.7145 27.5898C41.7098 27.5475 41.7051 27.5076 41.7004 27.4701ZM40.1934 25.1297C39.9211 24.8926 39.7075 24.7518 39.1981 24.3058C38.7849 23.8363 38.63 23.618 38.5948 23.503C38.7521 23.6344 38.9117 23.7588 39.0526 23.9091C39.6511 23.2894 40.1981 22.6884 40.6558 22.118C43.9304 19.3622 42.4093 19.9185 45.4023 17.3904L45.2755 17.4443C48.1229 14.6298 51.0384 11.7683 53.9538 8.90451C54.0571 9.0078 54.1534 9.10404 54.2308 9.1815C54.8529 9.6862 55.4163 10.2026 55.9515 10.7261C51.86 14.7472 47.8224 18.7425 44.1581 22.5335L44.1206 22.4654C42.9774 23.5898 41.8553 24.7025 40.7239 25.8222C40.6957 25.7635 40.6605 25.7119 40.6277 25.6626C40.4798 25.3973 40.3389 25.2401 40.1934 25.1297ZM38.0127 23.8668C38.0713 23.8856 38.1394 23.9091 38.2075 23.949C38.2075 23.949 38.2075 23.949 38.2169 23.9537C38.1535 23.9185 38.0807 23.895 38.0127 23.8668ZM34.7427 21.3997L34.7521 21.3903L34.738 21.3997C34.6465 21.3762 34.5479 21.3575 34.447 21.334C34.5714 21.1978 34.7146 21.0476 34.8648 20.8927C35.1113 21.0171 35.5549 21.1884 36.4587 21.4936L35.9469 21.4819C37.0901 22.0312 35.5596 21.0664 37.1958 21.7589C36.4375 21.3528 35.9094 21.0899 35.0432 20.8575C35.7099 20.1908 36.0103 19.9279 36.4868 19.5359C36.177 20.0359 35.8108 20.1556 35.7333 20.4232L36.5502 19.672C36.4822 19.6133 36.9328 19.0664 36.3366 19.5899C36.9493 18.7472 37.2497 18.2519 39.0901 16.4373C40.0244 15.719 38.2943 17.4185 38.7474 17.1767C40.6887 15.3317 40.7873 14.5923 41.914 13.496C43.3718 12.1251 43.191 12.1111 44.6206 10.6721C44.2426 11.2003 45.7051 9.74723 46.0337 9.55474L45.5431 10.1932C45.9562 9.73784 46.4046 9.35052 46.3318 9.53127C46.1511 9.51014 48.0994 7.58293 49.0431 6.55242L48.7849 6.63927C49.022 6.38106 49.2943 6.09702 49.5712 5.79656C49.6393 5.82942 49.7074 5.86932 49.7802 5.90219C49.2614 6.48434 48.7262 7.06415 48.0947 7.66508C47.6323 8.52188 49.0806 6.64866 49.9022 5.95618L49.9069 5.96087C49.8881 5.99374 49.8576 6.03364 49.8154 6.08294C49.8576 6.04303 49.8928 6.01017 49.9351 5.97026L49.9421 5.97496C49.4116 6.55242 48.6088 7.41391 48.5666 7.6557C49.3881 6.80359 49.1158 6.77542 49.975 5.98904C50.0525 6.02895 50.1252 6.06181 50.2074 6.09702L50.0149 5.96087C50.0196 5.95148 50.029 5.94679 50.0337 5.94209C50.6017 6.18857 51.3928 6.78481 52.2144 7.34584C52.3553 7.45147 52.4914 7.56884 52.6276 7.67917C52.3553 7.98903 51.9867 8.38339 51.4093 8.93972L52.0783 8.04302C50.0525 10.0571 51.2919 9.15803 49.4163 11.0172C50.0924 10.374 48.8905 11.7636 50.1511 10.5172C49.5924 11.1909 48.2403 12.5618 47.191 13.5453C46.9422 13.827 47.1722 13.6369 47.1628 13.7237C48.3717 12.6791 48.867 11.874 49.9022 11.0665L50.5642 10.1651C51.6557 9.16273 51.86 9.15803 51.2684 9.84582C51.5595 9.54535 51.8013 9.26836 52.036 9.07587C52.3999 9.08057 50.7144 10.2613 50.5055 10.7801L51.2332 10.0289C51.6698 9.82939 49.6111 11.8552 48.6487 12.7988C47.5173 13.8153 46.5102 14.78 46.3506 14.766L47.7591 13.2895C46.9375 13.9655 45.9516 15.1721 45.1065 16.0054C45.0384 16.05 44.9469 16.1228 44.8389 16.2143C44.8929 16.1791 44.9257 16.165 44.9304 16.1697C44.752 16.3434 44.5807 16.4937 44.4257 16.611C43.6769 17.3411 42.6488 18.4749 41.9328 19.1345L42.0948 19.1251L42.1417 18.9889C42.8225 18.3199 43.7896 17.449 43.3389 18.0195C41.86 19.5946 41.4046 19.7542 40.9774 20.05C41.2051 19.5805 42.468 18.5617 43.2028 17.7495C42.6182 18.0969 41.637 19.2847 39.9798 20.78C40.4798 20.0241 41.8131 18.9608 42.0408 18.4936C40.7474 19.7401 40.5056 20.1603 39.1347 21.4631C39.2474 21.2307 40.5431 19.9279 40.3835 19.9373L39.4892 20.7565C41.5877 18.6439 38.961 20.9654 40.5737 19.2941C39.7427 20.0147 39.5971 20.4795 38.4117 21.4983C38.7709 21.2448 39.7568 20.4701 38.7521 21.5711L37.7263 22.5288C37.6864 22.51 37.6535 22.4959 37.6136 22.4748C37.8953 22.118 38.299 21.6321 37.799 22.0687L37.4821 22.4091C37.3507 22.341 37.231 22.2636 37.0995 22.2049L37.1676 22.064C36.1911 21.6673 35.8061 21.6321 34.7427 21.3997ZM34.9282 20.8293C35.0338 20.7166 35.1465 20.611 35.2521 20.51L35.0291 20.8528C34.9962 20.8434 34.961 20.8387 34.9282 20.8293ZM29.6841 21.0171C29.5785 20.9068 30.4376 20.8058 29.0832 20.8387C28.8883 20.9349 28.3977 21.0617 27.8484 21.1579C28.1043 20.8152 28.3766 20.4514 28.7522 20.0241C29.4846 19.2988 30.0784 18.7284 30.3789 18.5148C32.1136 16.5617 34.4563 14.2331 36.0502 12.4303C34.9657 13.6674 36.2239 12.5195 36.9775 11.8834C35.6559 13.2308 35.7685 13.3622 35.9376 13.3458C36.7357 12.5242 37.1418 11.8693 36.6958 12.2378C38.0995 10.9303 37.5455 11.2214 38.8249 10.1111C39.6347 9.38103 38.5526 10.6158 38.8624 10.3928C40.3342 8.93972 39.1206 9.85051 40.738 8.28949C40.6699 8.39278 40.5291 8.54301 40.6746 8.43973C41.5596 7.6064 42.4305 6.62988 42.5549 6.3881C43.63 5.63224 45.1206 3.79657 45.0924 4.1299C45.13 4.08765 45.1605 4.05713 45.198 4.01958C45.4703 4.12051 45.7379 4.22615 45.9093 4.32943L47.1769 4.59469C47.6323 4.68624 47.9539 4.82708 48.2544 4.99609C44.4985 8.69325 40.8108 12.3528 37.4446 15.8364L37.4047 15.773C35.7685 17.381 34.1535 18.9842 32.5362 20.5875C32.3132 20.5734 32.0855 20.557 31.846 20.5382C32.0597 20.5429 32.2897 20.5734 32.5174 20.6063C32.4728 20.6509 32.4305 20.6931 32.3812 20.7377C32.0597 20.7706 31.8366 20.8199 31.5597 20.6744C31.0878 20.7753 31.7146 20.7894 32.285 20.834C32.231 20.888 32.177 20.9396 32.123 20.9936C31.3953 20.9701 30.3367 20.9021 29.6841 21.0171ZM25.0386 22.5687C24.5339 22.9255 24.0527 23.1297 23.5245 23.3715C24.0151 23.0758 24.5198 22.8105 25.0386 22.5687ZM21.7593 24.4372C22.3039 23.9279 22.6724 23.6485 23.1747 23.2213C22.4893 23.7119 21.2734 24.7236 20.3555 25.6297C19.933 25.8856 19.5152 26.1602 19.0973 26.4419C19.0386 26.6461 17.8931 27.5851 18.0081 27.7072C16.6325 28.9278 18.9119 26.5241 18.9893 26.3222C17.2546 27.8363 17.8039 27.841 16.1772 29.1837C16.2499 29.0381 16.4095 28.7964 16.5316 28.5921C16.4236 28.7095 16.2945 28.8504 16.1537 29.0006C16.0551 29.1109 15.9542 29.2259 15.8556 29.3339C15.7358 29.4701 15.6232 29.5945 15.5363 29.6931C15.4518 29.7987 15.3368 29.74 15.3368 29.7072C15.3274 29.74 15.3955 29.7987 15.487 29.7447C15.5645 29.6813 15.656 29.5663 15.764 29.4536C15.7241 29.5757 15.6419 29.8574 15.4049 30.0123C15.1607 29.9865 14.9729 29.7025 14.7241 29.5217C14.4025 29.2471 14.0152 28.8973 13.8204 28.8104C13.8603 28.7776 13.8978 28.7377 13.9377 28.7001C13.9659 28.733 13.9941 28.7612 14.0246 28.7917L13.9424 28.6884C19.1701 23.5758 24.4165 18.4326 29.0761 13.6134L29.116 13.6768C32.8085 10.0524 36.4375 6.44444 40.0525 2.83649C40.2615 2.87639 40.4704 2.91395 40.7004 2.95855C40.8929 2.76372 42.2098 3.06888 43.2708 3.34118C42.9821 3.62756 42.7168 3.90221 42.468 4.15338C42.2309 4.60408 42.6582 3.99375 43.353 3.35996C43.3671 3.36465 43.3765 3.36935 43.3905 3.36935C42.468 4.41159 41.1746 5.7097 39.9281 6.88105L40.7004 5.87402C39.7286 6.71204 40.2709 6.37636 40.0525 6.63927C38.684 8.12517 38.2896 8.34818 37.4634 9.03597C35.3014 11.4491 32.6981 13.3857 30.9188 15.5265L30.6066 15.6955C28.454 18.0969 25.7592 20.5147 23.8203 22.6204C23.7123 22.6462 23.7757 22.557 23.2757 22.8574C23.0269 23.057 22.771 23.2354 22.5316 23.449C22.8766 23.2612 23.271 23.0476 23.6114 22.8481C23.3485 23.1391 23.0996 23.4255 22.8719 23.7002H22.8672C22.5269 23.8903 22.163 24.118 21.7593 24.4372ZM11.5997 26.9255C11.1044 26.2635 11.973 27.0288 12.48 27.4396C12.4636 27.4537 12.4448 27.4748 12.4354 27.4889L12.4988 27.5522L12.5434 27.4889C12.5622 27.5076 12.5809 27.5217 12.5997 27.5358C12.5809 27.5616 12.5622 27.5757 12.5434 27.5992L13.7077 28.8292C13.703 28.8339 13.6983 28.8386 13.6983 28.8504L14.3837 29.6039C13.257 28.51 12.3439 27.8715 11.5997 26.9255ZM12.6349 27.3527C12.6584 27.3762 12.6842 27.4067 12.7077 27.4302C12.6725 27.463 12.6443 27.4983 12.6044 27.5311C12.5856 27.5123 12.5669 27.4983 12.5481 27.4795L12.6349 27.3527ZM12.8931 27.6297V27.625C12.9565 27.6907 13.0176 27.7541 13.0809 27.8222C12.8392 27.949 12.8345 27.8222 12.8931 27.6297ZM13.257 27.7119C13.2382 27.726 13.2124 27.74 13.1936 27.7541L13.0129 27.5217C13.0176 27.517 13.0293 27.5076 13.0387 27.5029L13.257 27.7119ZM49.9891 5.91627C49.9844 5.92097 49.9797 5.92801 49.9797 5.9327H49.975C49.9797 5.92801 49.9844 5.92097 49.9891 5.91627ZM53.09 8.08762C52.9914 8.20733 52.8811 8.33879 52.7355 8.50311C51.9961 9.09465 51.9773 8.93503 52.1088 8.62048C52.3271 8.44442 52.5947 8.18855 52.8858 7.89748C52.9585 7.96086 53.0219 8.02424 53.09 8.08762ZM2.12563 78.1528C2.17258 78.1035 2.22657 78.0589 2.28056 78.0119C2.26647 78.1575 2.25239 78.249 2.23596 78.2983C2.22187 78.3124 2.20779 78.3171 2.1937 78.3312C2.17258 78.3124 2.1491 78.249 2.12563 78.1528ZM1.9261 78.4133C1.9261 78.3852 1.9261 78.364 1.9261 78.3359C1.9261 78.3359 1.9261 78.3359 1.9261 78.3312C1.9261 78.3593 1.9261 78.3805 1.9261 78.4133ZM1.9261 77.9251C1.9261 78.0354 1.9261 78.1621 1.9261 78.3265C1.92141 78.1903 1.91671 78.0706 1.91202 77.9438C1.91671 77.9391 1.92141 77.9298 1.9261 77.9251ZM2.11154 73.5026L2.29464 73.2796C2.29934 73.3922 2.30403 73.4979 2.30873 73.6082L1.82751 74.2138C1.82281 74.0542 1.81812 73.8946 1.81342 73.7209C2.16319 73.3664 2.02234 73.5566 2.11154 73.5026ZM2.31342 73.6481C2.28995 73.6669 2.27117 73.6974 2.24535 73.7162L2.31342 73.6246C2.31342 73.634 2.31342 73.6434 2.31342 73.6481ZM33.7427 40.0427L33.9305 39.9582C34.3437 39.6343 34.4845 39.5521 34.5244 39.5521C34.4986 39.5756 34.4704 39.6061 34.447 39.6343C34.4305 39.639 34.4164 39.6484 34.4071 39.6601C34.4024 39.6695 34.4164 39.6601 34.4211 39.6601C33.6841 40.4488 32.7263 41.5005 31.9188 42.2587C30.724 43.5052 31.0784 43.3009 30.2287 44.3268C29.6301 44.7728 29.6019 44.6272 29.6841 44.362C30.0526 44.0803 30.5784 43.5052 31.1418 42.9958C32.1043 41.9394 32.8812 40.9911 33.7427 40.0427ZM33.9024 39.916L33.8108 39.97C33.8718 39.8972 33.9352 39.8291 33.9986 39.7564C34.1981 39.5827 34.2333 39.5615 33.9024 39.916ZM40.792 32.6038C40.7779 32.6508 40.7568 32.7048 40.738 32.7517C40.4915 32.9466 40.5737 32.8362 40.792 32.6038ZM40.7286 32.7869C40.6957 32.8785 40.6605 32.9747 40.6277 33.0686C40.5478 33.2705 40.4751 33.4794 40.3929 33.6836C40.0009 34.0944 39.7615 34.3949 39.2216 34.9653C39.3577 34.7189 39.5713 34.3362 39.8202 33.9348C39.9211 33.7752 40.0103 33.6015 40.0924 33.4254C40.238 33.2611 40.4469 33.0522 40.7286 32.7869ZM5.22419 70.6059L4.92842 70.9838L6.05048 69.8993C6.69836 69.1106 7.70305 68.0965 8.67018 67.2115L8.14905 67.9721C8.86501 67.3852 8.44248 67.5942 8.59741 67.3993C9.56923 66.3148 9.87439 66.174 10.4871 65.6998C12.0129 63.9275 13.98 62.62 15.21 61.0261L15.4589 60.9252C17.2311 58.8478 19.6701 56.8572 20.987 55.113C23.5973 53.0215 22.3039 53.3502 24.6888 51.4276L24.5785 51.4605C31.7099 44.4394 39.3624 37.0733 45.8694 30.3456L45.9093 30.4137C50.6933 25.7166 55.3834 21.0382 60.0571 16.3645C60.4702 17.2167 60.82 18.0781 61.1064 18.9537C57.5547 22.456 54.0712 25.9185 50.8741 29.2259L50.8388 29.1649C40.069 39.7212 29.7709 50.1976 19.1466 60.7069C18.2077 61.7397 18.9119 61.2585 18.1208 62.1646C17.7452 62.5285 16.9142 63.3665 16.8485 63.3078C17.5316 62.5613 17.0715 62.9064 17.2945 62.6388C16.1091 63.8313 14.5011 65.2937 13.5152 66.4275L14.487 65.6223C14.1021 66.0684 13.4307 66.6881 13.0528 67.0613C13.1701 66.8618 12.5434 67.3125 12.8438 66.9744C10.804 69.4064 11.0082 68.6294 9.20069 70.5918C8.99646 71.134 6.77582 73.6293 5.34156 75.2983L4.47772 76.0683C5.56457 74.9885 4.33688 75.9673 5.68663 74.6364C4.51528 75.7068 3.54346 76.8147 2.45426 77.8476C2.689 77.6974 2.6937 77.7936 2.36272 78.1668C2.35802 78.0941 2.35802 78.0166 2.35333 77.9438C2.38854 77.9086 2.4214 77.8805 2.45426 77.8476C2.4261 77.8664 2.38854 77.8992 2.35333 77.9251C2.32516 77.1434 2.33924 76.4626 2.26647 75.2795C2.11624 77.2279 2.08103 74.7772 1.96366 74.9932L2.01765 77.1927C2.11154 74.0941 2.04347 78.2044 2.28056 77.972V77.9767C2.25239 78.0025 2.23126 78.0119 2.1984 78.0401L2.11624 78.1269C2.09042 78.0213 2.06694 77.8992 2.04347 77.7936C2.05755 77.7748 2.07164 77.7607 2.08572 77.7443C2.07164 77.7607 2.05755 77.7701 2.04347 77.7889C1.98009 77.4978 1.93079 77.3241 1.9261 77.8992C1.92141 77.9039 1.91671 77.9086 1.91202 77.9204C1.85333 76.3265 1.86272 75.4298 1.82751 74.2772C2.02234 74.0847 2.18901 73.9181 2.32516 73.7678C2.38149 74.6011 2.47539 75.5378 2.4707 76.5917C2.51295 75.7162 2.60215 74.5824 2.62093 73.4392C2.93548 73.0753 3.19369 72.7608 3.72421 72.2138C3.38383 72.5002 3.01999 72.9415 2.62562 73.3523C2.62562 73.1974 2.63032 73.0425 2.63032 72.8875L2.71717 72.7866C3.51529 71.9955 3.09276 72.6505 2.85332 72.9979C3.49416 72.1599 4.36974 71.4251 5.22419 70.6059ZM61.8998 25.4396C61.8998 25.503 61.0641 26.2964 61.165 26.2377C60.597 26.679 59.8928 27.226 59.543 27.5757C59.2848 27.6673 60.1885 26.8011 60.6744 26.3222C60.6064 26.1086 58.9538 27.8621 59.5266 27.0335C58.5125 28.0898 59.7472 26.956 59.1768 27.625L58.2449 28.5006L58.989 27.8457C58.273 28.6461 58.1181 29.01 57.0313 29.9395L56.1205 31.1156C55.9069 31.1109 55.3341 31.8574 54.7707 32.3691L55.0383 31.963C54.3294 32.6813 54.0313 32.9372 53.5407 33.3433C53.8482 32.8456 54.2167 32.7189 54.2942 32.4583L53.4773 33.2071C53.5407 33.2658 53.09 33.8128 53.6933 33.2893C53.0806 34.132 52.7731 34.6273 50.9374 36.4442C50.0032 37.1601 51.7332 35.4606 51.2825 35.6977C49.3389 37.5475 49.2356 38.2892 48.1135 39.3831C46.6558 40.7493 46.8365 40.7681 45.407 42.2071C45.7872 41.6789 44.3248 43.1319 43.9891 43.3244L44.4844 42.6812C44.0666 43.1413 43.6253 43.5286 43.6981 43.3502C43.8765 43.3643 41.9281 45.2962 40.9868 46.3291L41.2427 46.2399C40.4962 47.0403 39.4751 48.1577 38.6347 48.9582C37.4399 50.1976 37.7943 49.9934 36.9446 51.0262C36.3507 51.4675 36.3178 51.322 36.4 51.0591C36.7685 50.7751 37.2943 50.1976 37.8577 49.6882C39.3295 48.0802 40.3554 46.7117 41.9328 45.2141C42.3952 44.3479 40.9187 46.2751 40.0971 46.9488C40.1065 46.9136 40.1605 46.8549 40.2145 46.7986C40.1464 46.8596 40.0878 46.9183 40.0197 46.977C40.5478 46.4065 41.414 45.4746 41.4633 45.2235C40.5596 46.1624 40.9915 46.0896 39.7615 47.146C38.9657 48.0521 38.1136 48.5802 37.5854 49.0779C37.0995 49.7187 37.2357 49.9065 35.8108 51.2633L36.3061 50.5403C34.7286 52.1107 35.7333 51.4464 34.2709 52.8948C34.7967 52.3971 33.8883 53.5004 34.8648 52.5309C34.447 53.0685 33.393 54.1389 32.5714 54.8947C32.3812 55.1177 32.5667 54.9769 32.5667 55.0544C33.5221 54.2562 33.8718 53.5919 34.7075 52.991L35.1934 52.261C36.0549 51.491 36.238 51.5051 35.7873 52.052C36.0103 51.8149 36.1958 51.6013 36.3859 51.4558C36.7052 51.5004 35.3413 52.3666 35.2146 52.8032L35.7779 52.2164C36.1418 52.0872 34.5338 53.66 33.785 54.3971C32.8859 55.1764 32.0996 55.9229 31.954 55.8924L33.0479 54.7304C32.3906 55.2445 31.6465 56.2069 30.9869 56.8619C30.9282 56.89 30.8554 56.944 30.7733 57.0168C30.8155 56.9886 30.8414 56.9769 30.8507 56.9886C30.7099 57.1224 30.5737 57.2351 30.447 57.3173C29.8648 57.8877 29.0714 58.7844 28.508 59.2938L28.6489 59.3032L28.6794 59.1858C29.2123 58.6623 29.9752 58.0003 29.6301 58.4557C28.4986 59.6952 28.1113 59.7867 27.7545 60.0003C27.9118 59.6083 28.9212 58.8431 29.4846 58.1975C29.0033 58.4464 28.2616 59.3947 26.9541 60.5426C27.3179 59.9276 28.3813 59.1224 28.5339 58.7351C27.5221 59.6999 27.3531 60.0496 26.278 61.0567C26.3508 60.8618 27.3625 59.8454 27.2217 59.836L26.5128 60.4651C28.1489 58.8243 26.0691 60.5966 27.3179 59.2891C26.6583 59.836 26.5808 60.2327 25.6372 61.0074C25.9329 60.8243 26.7217 60.2421 25.947 61.1083L24.9822 62.0003C24.5292 62.3243 25.8109 60.897 25.156 61.4487L24.224 62.4651C24.2968 62.4698 24.7827 62.0238 24.5433 62.3689C23.9353 62.8876 23.7663 63.4346 23.1583 64.1505C22.6302 64.674 22.2029 65.0848 21.9729 65.2256C20.7546 66.6646 19.0668 68.3406 17.9447 69.6716C18.7077 68.7608 17.7851 69.5707 17.2264 70.0096C18.1748 69.0378 18.0574 68.911 17.9166 68.9017C17.3438 69.4979 17.0809 70.0002 17.4213 69.7491C16.3908 70.674 16.8274 70.5049 15.8861 71.2796C15.2875 71.7937 16.0457 70.8829 15.8086 71.0284C14.7429 72.0777 15.6678 71.4627 14.4917 72.5777C14.5387 72.5002 14.6373 72.3946 14.5246 72.4603C13.8791 73.0519 13.2664 73.7749 13.1936 73.9673C12.3767 74.4673 11.3509 75.8359 11.3274 75.5565C9.8697 77.0917 11.6349 75.4157 11.3908 75.7631C10.8462 76.4415 9.65608 77.5166 9.27815 77.8476C9.64669 77.4744 9.94247 77.0964 10.3227 76.7631L9.90021 76.9744C7.96126 78.7584 8.95656 78.3898 7.0669 80.0941C7.93544 79.1152 7.2946 79.7067 7.67957 79.1739C7.42605 79.479 5.9824 80.8546 6.92136 80.0847C6.23592 80.7537 5.74532 81.202 5.25941 81.648C4.70073 82.2889 4.07866 82.9649 3.79698 83.3828C3.34393 83.8194 2.93548 84.1856 2.57633 84.5001C2.57633 84.3405 2.56225 84.2302 2.51295 84.249C2.54816 83.5659 2.48478 82.2114 2.38149 81.972C2.4214 82.8358 2.44957 83.6292 2.51295 84.5541C2.38854 84.6668 2.27586 84.7583 2.16319 84.8499L2.1538 84.5001C2.14441 84.6269 2.13971 84.7489 2.13502 84.8734C2.04347 84.9508 1.95896 85.0189 1.8768 85.087C1.8768 85.0588 1.87211 85.0494 1.87211 85.0189C1.92141 83.8804 2.08572 83.7842 2.1045 82.4908L2.20779 83.7701C2.33455 82.9086 2.16788 82.1668 2.1491 81.3687C2.22657 81.2232 2.26647 80.5635 2.32046 80.0612C3.22421 79.1246 4.14204 78.1762 5.13265 77.1598C6.06926 76.2044 5.79931 76.6903 6.28991 76.2866C8.38849 74.2232 8.73825 73.5566 10.6913 71.5401C10.4636 71.8617 10.1185 72.4462 10.9824 71.5988C11.0997 71.4016 11.1373 71.2303 11.7077 70.7186L11.473 71.0331C12.0316 70.6059 12.4448 70.073 13.4941 69.0801C15.2969 67.2796 16.9213 65.458 18.2523 63.8219C19.8602 62.2421 18.2382 64.1364 18.5715 63.8688C17.3908 64.9393 17.8133 64.674 17.6208 64.9651C18.1748 64.3289 18.8696 63.5895 19.2828 63.3853C20.102 62.552 20.4823 62.1787 21.2358 61.2937C20.8555 61.7397 20.4471 62.0379 20.7874 61.6083C21.5011 60.9628 23.1935 59.2069 23.2217 59.4276C27.1325 55.4816 31.5597 51.1225 35.7638 46.9183C36.4094 46.1436 35.2005 47.4324 35.5432 46.9957C36.4915 45.8831 36.4047 46.2258 37.1629 45.3361L36.8906 45.7422C38.13 44.5263 39.3108 43.0967 40.4375 41.8479C40.3155 42.1249 41.4774 40.9371 40.5385 41.97C41.1065 41.3784 42.1675 41.024 42.5455 40.5028L41.5596 40.8315C41.5596 40.7634 42.3952 39.97 42.2943 40.031C42.8671 39.5874 43.5666 39.0451 43.9164 38.6906C44.1746 38.6038 43.2708 39.4653 42.7849 39.9489C42.853 40.1578 44.5079 38.409 43.9304 39.2376C44.9469 38.1766 43.7121 39.3104 44.2802 38.6414L45.2192 37.7705L44.475 38.4184C45.1887 37.6249 45.3389 37.2611 46.4281 36.3315L47.3365 35.1508C47.5548 35.1555 48.1229 34.409 48.6886 33.8996L48.421 34.3034C49.1299 33.5851 49.4257 33.3292 49.9163 32.9231C49.6111 33.4207 49.2473 33.5475 49.1628 33.8081L49.9797 33.0569C49.9163 33.0006 50.3694 32.4536 49.7661 32.9747C50.3834 32.132 50.6839 31.6391 52.5219 29.8269C53.4538 29.1109 51.7285 30.8057 52.1769 30.5687C54.1205 28.7189 54.2214 27.9771 55.3435 26.8832C56.8012 25.517 56.6275 25.4983 58.0547 24.0593C57.6721 24.5875 59.1345 23.1391 59.4702 22.9466L58.9726 23.5851C59.3904 23.1251 59.8388 22.7377 59.7613 22.9161C59.6251 22.9067 60.6979 21.8082 61.6416 20.8246C61.6463 20.8528 61.6557 20.888 61.665 20.9161C61.6181 20.9654 61.5782 21.0077 61.5289 21.0523C61.3552 21.3762 61.4561 21.3035 61.6956 21.057C61.7871 21.4725 61.8833 21.8903 61.9819 22.3105C62.0923 22.8387 62.1181 23.3903 62.1956 23.9326C62.2237 24.2142 62.2636 24.4959 62.2965 24.78C61.7683 25.1203 61.1791 25.402 60.9115 25.7635L61.8998 25.4396ZM39.9892 56.7985C41.1417 55.6365 42.2732 54.4839 43.3765 53.3502L43.4117 53.4135C49.6158 47.315 55.6886 41.247 61.7472 35.1883C61.7519 35.3526 61.8364 35.1508 61.9139 35.024C61.9326 35.0005 61.9608 34.9747 61.9866 34.9512C62.0101 34.9512 62.0242 34.9865 62.0289 35.1109C61.7472 36.2353 61.719 36.5099 61.3693 37.5029C61.5641 37.0921 61.6181 36.909 61.6322 36.8362C61.6322 36.855 61.6322 36.8738 61.6463 36.8925L61.9866 35.3057C62.0289 35.2329 61.9913 35.4066 62.0735 35.2705C62.097 35.125 62.1181 34.9606 62.1369 34.801C62.1909 34.7423 62.2495 34.6907 62.3059 34.632C62.2965 35.0005 62.2448 35.4113 62.0101 36.0569C62.0101 35.9442 62.05 35.7705 62.1228 35.4113C61.7965 36.5052 61.9186 36.6038 61.5923 37.3972C61.1744 38.362 61.3294 38.1437 61.1932 38.2353C61.0383 38.6554 60.8341 39.0592 60.6204 39.4559C60.5665 39.5146 60.5101 39.5662 60.4514 39.6249C60.5477 39.4277 60.6345 39.2423 60.7378 39.0287C60.5477 39.2916 60.9115 37.9536 60.6885 38.6273C60.5242 39.0733 60.3294 39.5052 60.1345 39.9395C56.6745 43.3972 53.2121 46.8549 49.7332 50.3197C49.2989 50.6084 48.8342 50.9042 48.2708 51.2445C48.7896 50.9957 47.5314 52.1295 46.6041 52.6976C46.0595 53.0027 45.9023 53.0544 46.191 52.775L45.0619 53.6412C43.4751 54.3384 42.0948 55.3994 39.9892 56.7985ZM45.5431 73.7115C45.9234 73.735 46.2731 73.7537 46.6088 73.7678C46.5408 73.8617 46.4469 73.9627 46.2966 74.1082C45.9234 74.3946 46.3107 73.9767 46.0337 74.195C45.2755 74.8594 44.5384 75.6035 44.1934 76.0636C44.4211 75.9251 44.8013 75.7936 44.5619 76.1363C45.6558 74.9697 46.0455 74.1997 46.745 73.7983L46.7591 73.7749C46.7919 73.7749 46.8318 73.7796 46.8647 73.7796C46.8999 73.7796 46.9187 73.7678 46.9539 73.7631C46.8905 73.8171 46.8365 73.8711 46.7379 73.9533C46.3553 74.4814 47.1769 73.8805 46.4562 74.7561C46.6041 74.5918 46.8365 74.3688 47.0642 74.1622C46.7051 74.3993 46.8952 74.0941 47.1511 73.7303C47.3952 73.6857 47.6088 73.6129 47.7591 73.5307C48.0501 73.3429 48.2121 73.134 48.3224 72.9157C48.5454 72.6458 48.7755 72.3453 48.9398 72.1716L48.4586 72.5636C48.4727 72.5096 48.4891 72.4603 48.5032 72.404C48.5313 72.1904 48.5267 71.9815 48.522 71.789C48.6299 71.681 48.7356 71.5847 48.8177 71.5073C48.7614 71.5261 48.644 71.6223 48.522 71.7397C48.5079 71.5401 48.4938 71.357 48.4891 71.1927C48.4727 71.0284 48.4633 70.8688 48.4492 70.7139L48.4046 70.4768C48.3036 69.904 48.191 69.3571 48.3365 67.85C49.6745 66.5238 51.0102 65.1975 52.3271 63.8853C53.7261 63.8947 55.1158 63.9087 56.5148 63.9228C55.7332 64.7984 54.8975 65.3266 54.3764 65.8172C53.8858 66.4557 54.0219 66.6388 52.5994 68.0003L53.0994 67.2796C51.5196 68.8477 52.5266 68.181 51.0595 69.627C51.5877 69.1341 50.6745 70.2326 51.651 69.2655C51.2332 69.8031 50.1839 70.8735 49.3576 71.634C49.1675 71.857 49.3529 71.7162 49.3529 71.789C50.3107 70.9932 50.6651 70.3312 51.4961 69.7256L51.9867 68.9979C52.8459 68.228 53.0266 68.242 52.5736 68.7913C52.8036 68.5519 52.982 68.3359 53.1722 68.1904C53.4984 68.2327 52.1276 69.1012 52.0008 69.5402L52.5642 68.951C52.9351 68.8195 51.3247 70.397 50.5736 71.1293C49.6792 71.9134 48.8858 72.6552 48.7403 72.6317L49.8342 71.4674C49.1792 71.9815 48.4351 72.9462 47.7731 73.5941C47.7215 73.6293 47.6487 73.681 47.5642 73.749C47.6041 73.7256 47.6323 73.7162 47.637 73.7209C47.4961 73.857 47.36 73.972 47.2356 74.0542C46.6558 74.627 45.86 75.5213 45.2966 76.0307L45.4422 76.0401L45.4703 75.9251C46.0009 75.4016 46.7638 74.7326 46.4234 75.188C45.2872 76.4274 44.8976 76.519 44.5478 76.7373C44.7027 76.3453 45.7098 75.58 46.2731 74.9368C45.7919 75.1833 45.0525 76.127 43.745 77.2795C44.1065 76.6598 45.1746 75.8617 45.3248 75.4697C44.3107 76.4368 44.1441 76.7866 43.0713 77.7936C43.1441 77.5988 44.1534 76.5824 44.0079 76.573L43.3037 77.2021C44.9422 75.5565 42.8577 77.3288 44.1065 76.0213C43.4492 76.573 43.3671 76.965 42.4234 77.7443C42.7215 77.5612 43.5079 76.9744 42.7356 77.8476L41.7685 78.7373C41.3225 79.0636 42.6042 77.634 41.9445 78.1856L41.015 79.1973C41.0877 79.202 41.569 78.7584 41.3319 79.1011C40.7286 79.6246 40.5596 80.1715 39.9516 80.8875C39.4211 81.4109 38.9939 81.817 38.7615 81.9579C37.5455 83.4015 35.8554 85.0776 34.738 86.4039C35.4962 85.4931 34.5714 86.3076 34.0197 86.7489C34.961 85.7748 34.8484 85.6433 34.7028 85.6339C34.1301 86.2349 33.8718 86.7395 34.2075 86.4813C33.7756 86.8733 33.6066 87.0682 33.4798 87.2184C31.9446 87.2231 30.4141 87.2231 28.8742 87.2231C29.224 86.8733 29.6254 86.4391 30.2874 85.8147C32.0902 84.0119 33.7122 82.1903 35.0385 80.5588C36.6512 78.979 35.0291 80.8734 35.3601 80.6034C34.184 81.6739 34.6066 81.4109 34.4117 81.702C34.9657 81.0682 35.6606 80.3265 36.069 80.1175C36.8906 79.2842 37.2732 78.918 38.0267 78.0307C37.6488 78.4767 37.2357 78.7772 37.5807 78.3406C38.2896 77.7021 39.9845 75.9392 40.015 76.1622C40.7427 75.4251 41.4962 74.6692 42.2591 73.9087C43.4351 73.8993 44.5478 73.8617 45.5431 73.7115ZM48.3576 63.8994C48.3482 63.7961 48.4797 63.8454 48.5407 63.8407L48.6534 63.8454L49.1299 63.8501L49.5665 63.8548C49.1581 64.2679 48.745 64.674 48.3365 65.0848L48.3436 64.1271L48.3576 63.8994ZM57.1463 63.9275C56.5782 64.5378 55.9656 65.1763 55.4257 65.6904C54.2308 66.9345 54.5853 66.7327 53.7355 67.7585C53.1393 68.2045 53.1088 68.0589 53.1909 67.7937C53.5571 67.512 54.0853 66.9345 54.6487 66.4275C55.4609 65.5402 56.1463 64.728 56.8552 63.9228C56.9515 63.9228 57.0501 63.9275 57.1463 63.9275ZM62.8646 63.9721C56.1275 70.6974 49.4562 77.4157 42.6535 84.1386C41.7098 85.1691 42.4187 84.6903 41.6276 85.5917C41.2544 85.9579 40.4234 86.7959 40.3554 86.7395C41.0338 85.9884 40.5784 86.3358 40.7967 86.0705C40.4375 86.4344 40.0385 86.8217 39.63 87.2184C38.4023 87.2184 37.1723 87.2184 35.9422 87.2184C36.9634 86.2935 37.9727 85.4203 38.7169 84.4579L38.9657 84.3569C40.738 82.2771 43.1769 80.2865 44.4938 78.5448C47.0994 76.4509 45.8107 76.7819 48.191 74.8594L48.0853 74.8922C51.7496 71.289 55.5336 67.5989 59.2402 63.9463C59.7989 63.951 60.3622 63.9557 60.9162 63.9627C61.5735 63.9674 62.219 63.9674 62.8646 63.9721ZM65.5922 63.9862H65.888L65.0664 64.2609C65.0664 64.2374 65.1744 64.1224 65.3059 63.9862C65.4021 63.9862 65.4983 63.9862 65.5922 63.9862ZM41.792 87.2137C42.9891 86.0518 42.3084 86.8945 42.0948 87.2137C41.9915 87.2137 41.8953 87.2137 41.792 87.2137ZM54.9257 78.8288L54.8928 78.7631C52.0266 81.5847 49.1933 84.3992 46.36 87.2137C44.9938 87.2137 43.63 87.2137 42.2591 87.2137C42.4586 87.04 42.6441 86.8851 42.7849 86.817C43.6089 85.9837 43.9891 85.6104 44.7426 84.7231C44.3624 85.1691 43.9539 85.4696 44.2943 85.0377C45.0103 84.3945 46.7004 82.6316 46.7285 82.8546C50.6417 78.9133 55.0665 74.5542 59.2707 70.35C59.9162 69.5754 58.7073 70.8641 59.0524 70.4275C59.9984 69.3125 59.9115 69.6575 60.6697 68.7655L60.3974 69.174C61.6369 67.958 62.8176 66.5284 63.9444 65.2796C63.8223 65.5543 64.9843 64.3688 64.0406 65.3993C64.5899 64.8289 65.5828 64.4792 65.9889 63.9909H66.2096C66.2425 64.0003 66.2918 63.9721 66.3058 64.0097L66.3105 65.0167C66.3105 65.8125 66.3199 66.5918 66.3246 67.3805C62.3857 71.289 58.5266 75.1387 54.9257 78.8288ZM63.2636 77.8382C63.6345 77.5518 64.1627 76.9744 64.7214 76.4673C65.2941 75.8359 65.8058 75.2467 66.3012 74.6692C66.3012 74.7561 66.3012 74.8429 66.3012 74.9368C66.0289 75.2162 65.7566 75.4932 65.4983 75.7349C64.3082 76.9744 64.658 76.7725 63.8082 77.803C63.2167 78.2443 63.1815 78.0988 63.2636 77.8382ZM62.6369 78.9955C63.0124 78.864 61.3974 80.4368 60.651 81.1739C59.7519 81.9532 58.9632 82.6997 58.8176 82.6715L59.9115 81.5072C59.2566 82.0213 58.5078 82.9861 57.8505 83.6339C57.7942 83.6691 57.7191 83.7208 57.6369 83.7936C57.6815 83.7654 57.705 83.756 57.7144 83.7654C57.5688 83.8968 57.4374 84.0119 57.313 84.0987C56.7285 84.6668 55.9374 85.5611 55.374 86.0705L55.5149 86.0799L55.5477 85.9649C56.0782 85.4414 56.8411 84.7771 56.4961 85.2325C55.3646 86.4719 54.9703 86.5635 54.6205 86.7771C54.7754 86.3851 55.7825 85.6198 56.3505 84.9766C55.8834 85.2137 55.1651 86.1128 53.9398 87.209C53.9257 87.209 53.9116 87.209 53.8952 87.209C54.3083 86.6081 55.2566 85.8757 55.3975 85.5142C54.6252 86.2489 54.3435 86.6269 53.7801 87.209C53.7355 87.209 53.6933 87.209 53.6487 87.209C53.9116 86.9086 54.1581 86.6175 54.0853 86.6128L53.421 87.209C53.4163 87.209 53.4163 87.209 53.4163 87.209C54.975 85.6292 52.9398 87.3593 54.1792 86.0658C53.7074 86.4579 53.5266 86.7771 53.1182 87.209C51.7637 87.209 50.4069 87.209 49.0525 87.2137L49.6698 86.4672C49.9257 86.4344 50.7332 85.4508 51.4914 84.7443L51.1017 85.2701C52.0736 84.2982 52.4679 83.9391 53.1229 83.3734C52.6675 84.0166 52.2144 84.2302 52.0689 84.5541L53.1722 83.5189C53.1088 83.4602 53.7402 82.7325 52.9351 83.4602C53.813 82.3546 54.2613 81.7161 56.7637 79.242C57.9914 78.2255 55.6463 80.5448 56.2191 80.1809C58.8482 77.6481 59.104 76.7561 60.6298 75.2608C62.5993 73.3805 62.3904 73.3969 64.3387 71.4392C63.7894 72.127 65.7847 70.1505 66.2143 69.8664L65.5148 70.7092C65.8246 70.3735 66.1368 70.0683 66.3457 69.8899C66.3598 71.2467 66.3786 72.5824 66.4068 73.8993L66.3058 73.8805C66.3058 73.9673 66.3058 74.0589 66.3058 74.1504L66.1016 74.3406C66.1415 74.249 65.4702 74.796 66.1462 74.0941C65.5969 74.5918 65.2941 75.2162 66.3058 74.1575C66.3058 74.1857 66.3058 74.2185 66.3058 74.2537C65.611 74.9556 64.9068 75.4251 64.4538 75.857C63.9584 76.4955 64.0993 76.6833 62.6768 78.0401L63.1721 77.3194C61.5923 78.8875 62.5993 78.2255 61.1369 79.6715C61.6603 79.1739 60.7519 80.2772 61.7284 79.31C61.3059 79.8476 60.2566 80.918 59.4303 81.6739C59.2449 81.8945 59.4303 81.756 59.4303 81.8335C60.3834 81.033 60.7378 80.3757 61.5735 79.7701L62.0594 79.0377C62.9186 78.2678 63.0993 78.2819 62.6463 78.8288C62.8763 78.5964 63.0594 78.3805 63.2495 78.2349C63.5711 78.2772 62.2049 79.1457 62.0782 79.58L62.6369 78.9955ZM33.839 2.16983C33.8671 2.13461 33.9071 2.09706 33.9352 2.06185C34.8014 2.12053 34.3484 2.13931 33.839 2.16983ZM69.3082 88.7583C69.2706 88.8898 69.1978 89.0306 69.1673 89.0353C69.1298 89.0353 69.1908 88.9414 69.1978 88.4438L69.2542 86.2536L69.2119 86.8593L69.1626 87.7701C69.1532 87.5001 69.1439 87.1175 69.1298 87.0095C69.1133 86.8687 69.0993 86.7395 69.0852 86.6081C69.0617 86.3569 69.0359 86.1198 69.0077 85.8757C68.9678 85.3781 68.949 84.8264 69.0265 83.9532L68.7636 82.1339C68.9772 81.9485 68.8035 80.8053 68.8528 79.8711L68.9889 80.4579C68.9819 79.2114 69.0171 78.7326 69.0946 77.9532C69.2847 78.6551 69.05 79.0823 69.2307 79.3828L69.2941 78.0166C69.172 78.0213 69.0758 77.1504 69.003 78.1316C68.773 76.864 68.5899 76.1716 68.6086 72.9932C68.8176 71.5613 68.7894 74.5401 68.9983 73.9439C69.0852 70.6411 68.4537 69.9087 68.4819 67.9815C68.5265 66.7514 68.496 66.174 68.4584 65.5895C68.4396 65.2984 68.4185 65.0026 68.395 64.6294C68.3903 64.4228 68.3809 64.1998 68.3763 63.9369C68.3622 63.6177 68.3856 63.2397 68.3363 62.8477C68.395 63.0754 68.4185 63.0613 68.4279 62.8712C68.395 62.6834 68.449 62.3595 68.2002 62.059C67.6814 61.6412 66.4561 61.7585 66.1415 61.6552C66.6204 61.6271 67.1955 61.5214 67.6955 61.559C67.1321 61.4909 66.4913 61.5496 66.1251 61.5121C65.9514 61.4956 65.8387 61.4721 65.8246 61.4393C65.4796 61.5895 62.4819 61.5848 60.8974 61.667L61.1979 61.8313C59.8482 61.8829 57.982 61.9862 56.5548 61.9463C54.4304 62.0003 54.9116 62.1412 53.2754 62.3196C52.3717 62.174 52.4679 62.0003 52.7684 61.8219C53.3365 61.9041 54.3036 61.8548 55.2379 61.9041C57.9233 61.7632 60.0125 61.4182 62.6955 61.5003C63.8575 61.1036 60.8834 61.5449 59.5806 61.4088C59.6205 61.3853 59.7167 61.3759 59.8153 61.3712C59.6979 61.3712 59.5946 61.3665 59.489 61.3618C60.4514 61.3125 62.0148 61.2491 62.2777 61.052C60.6697 61.0895 61.1111 61.444 59.1158 61.2726C57.6322 61.3853 56.428 61.0754 55.5336 61.0473C54.543 61.1905 54.5031 61.5121 52.0736 61.4487L53.1393 61.2257C50.3928 61.2257 51.8506 61.5496 49.3083 61.5402C50.2027 61.5684 48.4445 61.7585 50.144 61.7632C49.9351 61.7914 49.6651 61.8172 49.3482 61.836C49.022 61.8548 48.7497 61.8642 48.1722 61.8689C47.6534 61.8642 47.1229 61.8829 46.745 62.0637C46.5149 62.2045 46.5008 62.4322 46.4422 62.6341C46.3882 62.8477 46.3647 63.0942 46.3647 63.336C46.3952 63.8454 46.4375 63.458 46.5149 63.5731C46.5408 63.0754 46.5877 62.674 46.691 62.3548C46.7825 62.1646 46.9774 62.1153 47.1229 62.0919C47.2825 62.0543 47.4492 62.0191 47.6229 62.005C47.9821 61.9862 48.3717 61.9768 48.7168 61.9815C49.0032 61.9862 49.2943 62.005 49.6065 62.0637L50.6698 61.8266C52.0947 61.9135 52.2355 62.1012 51.3647 62.1928C51.7637 62.1834 52.1182 62.1552 52.4092 62.1928C52.6534 62.552 50.705 62.0684 50.2074 62.3735L51.2144 62.343C51.6557 62.5825 48.8529 62.552 47.59 62.5332C47.414 62.5379 47.1769 62.451 47.0642 62.6153C46.9774 62.7703 47.0149 62.944 46.9915 63.1036C46.9633 63.444 46.9375 63.7538 46.9187 64.0285C46.8741 64.5731 46.8271 64.9205 46.7379 64.9745L46.7004 63.9627C46.6957 63.5731 46.6605 63.1529 46.7051 62.7843C46.5642 63.2984 46.6323 64.2327 46.6558 64.789C46.691 65.4299 46.745 66.0824 46.7379 66.6552C46.7145 66.7327 46.7004 66.8383 46.6863 66.9744C46.7004 66.9158 46.7145 66.8829 46.7332 66.8829C46.7239 67.1247 46.7051 67.3383 46.6652 67.5261C46.6558 68.505 46.7591 70.0355 46.7051 70.8829C46.7544 70.8594 46.806 70.8336 46.8553 70.8007L46.7685 70.6833C46.7778 69.7679 46.8694 68.5237 46.9821 69.2162C47.083 71.3289 46.806 71.6387 46.6558 71.8617C46.5595 71.5753 46.5454 71.2467 46.5689 70.8336C46.5877 70.3406 46.6276 69.634 46.5877 69.1247C46.4727 69.4392 46.468 69.9674 46.4727 70.6786C46.4727 70.9157 46.4727 71.188 46.4727 71.4885C46.4633 71.5613 46.4821 71.6387 46.4469 71.7068C46.4093 71.7796 46.3154 71.7984 46.2332 71.7843C46.0736 71.7725 45.9023 71.7584 45.7239 71.7444C45.8342 71.681 45.9609 71.6481 46.1065 71.634C46.1746 71.6387 46.2685 71.6082 46.2872 71.5214C46.2919 71.4392 46.2872 71.3617 46.2919 71.2843C46.2966 70.9556 46.2966 70.742 46.1863 70.4181C46.1793 70.5777 46.1793 70.7232 46.1746 70.8594C46.1793 70.9462 46.1863 71.0284 46.1863 71.1059C46.1699 71.2514 46.2685 71.4298 46.1652 71.5401C46.0455 71.5941 45.9023 71.58 45.7332 71.5941C45.6464 71.5988 45.5525 71.5988 45.4563 71.5988C45.2825 71.5941 45.0971 71.5941 44.8882 71.5847C45.4328 71.4674 46.0384 71.458 45.8835 71.3077L45.4563 71.2397C45.9187 71.2303 45.7778 71.1528 45.6699 71.0707C45.5384 70.9697 45.5243 70.9298 45.5337 70.8289C45.4844 70.8383 45.4915 70.8594 45.4609 70.911C45.4234 70.9298 45.4797 70.9509 45.3201 70.9556C45.0525 70.965 44.7473 70.9509 44.3718 70.911C44.7896 71.0237 45.9868 71.2209 44.5525 71.3195L42.9305 71.2467C42.2544 71.1246 44.6206 70.9791 43.5666 70.8735L41.8694 70.9603C41.9281 71.0331 42.7403 71.0707 42.2309 71.1786C41.2497 71.0965 40.623 71.4627 39.4657 71.5753C38.5479 71.5707 37.8178 71.5519 37.4915 71.4627C35.1793 71.6857 32.2404 71.681 30.1066 71.8899C31.5597 71.7397 30.0479 71.634 29.1794 71.5214C30.8554 71.4885 30.8648 71.2561 30.7475 71.1059C29.7287 71.1293 29.062 71.3711 29.5785 71.4486C29.1489 71.4251 28.8625 71.4251 28.6489 71.4345C28.4212 71.4392 28.454 71.458 28.3625 71.4744C28.2357 71.5073 28.0761 71.5307 27.8038 71.4533C27.6301 71.4157 27.771 71.357 27.9024 71.2984C28.0433 71.235 28.163 71.1786 28.1583 71.134C27.94 71.1293 27.8038 71.2021 27.6489 71.2655C27.5714 71.2984 27.4893 71.3336 27.3813 71.3523C27.217 71.3617 27.3414 71.2209 27.4588 71.066C27.4846 71.0847 27.4681 71.1293 27.5714 71.0566C27.6489 70.9744 27.6982 70.8923 27.7451 70.8242C27.8719 70.6247 27.9447 70.404 27.9353 70.2866C28.785 69.7162 30.0338 67.9721 30.0831 68.3594C31.832 66.5003 29.6935 68.5097 29.9752 68.0824C30.6137 67.235 32.1277 65.9909 32.6136 65.6223C32.1489 66.059 31.7639 66.5003 31.2967 66.8923L31.8273 66.6693C34.2967 64.6435 33.0174 64.9533 35.5056 63.0848C34.3484 64.1951 35.2005 63.5496 34.684 64.1693C35.015 63.8125 36.9328 62.3243 35.6958 63.1294C36.6089 62.4064 37.2638 61.9322 37.9211 61.4721C38.6887 60.775 39.5525 60.0496 39.961 59.5872C41.2873 58.6294 42.3718 58.0684 43.0619 57.7046C45.8248 55.6858 48.7215 54.1741 51.6182 51.8783L51.3928 52.0286C53.7261 50.3619 50.2074 52.5614 52.6088 50.8032C52.4538 51.2586 54.1299 49.8431 54.9703 49.3314C57.8763 47.0263 59.5665 44.7939 61.4913 41.8972C61.5242 41.9488 61.4561 42.1765 61.1111 42.7587C62.5993 40.5263 63.4045 38.4489 63.9678 36.1226V36.2306C64.2941 35.3151 64.4115 34.3808 64.5993 33.47C64.712 32.5546 64.7941 31.6391 64.8387 30.7283C64.834 29.8128 64.8669 28.902 64.8199 27.9677C64.7519 27.0335 64.6791 26.0781 64.604 25.0969C64.6533 25.4114 64.7519 25.4889 64.7988 25.7354C64.8035 24.733 64.5476 23.449 64.3716 22.2377C64.0852 21.0429 63.7214 19.9373 63.4397 19.2988C63.1486 18.1415 62.9772 17.7777 62.7871 17.3364C62.6955 17.1204 62.5946 16.8763 62.4585 16.5101C62.2871 16.1556 62.0688 15.6768 61.773 14.9631C61.7284 14.7847 61.9467 15.2167 62.05 15.3951C61.4749 13.9819 60.8294 13.104 60.0031 11.8059C59.4843 11.1322 58.9679 10.6627 58.5453 10.212C58.1228 9.76835 57.7308 9.39512 57.2824 9.04535C56.8505 8.68855 56.4186 8.31531 55.9186 7.85522C55.3928 7.428 54.7848 6.93974 54.0313 6.32942C54.0759 5.9374 55.9749 7.73316 56.1956 7.61814C55.5665 7.13692 54.975 6.79889 54.1839 6.05242C54.7754 6.35289 54.3435 6.0712 54.7754 6.25665C54.4797 5.95618 53.766 5.49609 53.0853 5.20971C52.7496 5.05478 52.4374 4.91393 52.2144 4.8083C51.9867 4.70736 51.8459 4.64398 51.8553 4.63929C51.7825 4.67215 52.0008 4.8576 52.6581 5.2637C51.806 4.91393 49.3764 3.29188 47.5689 2.73085C47.8529 2.85057 48.4351 3.08296 48.8389 3.3177C49.2356 3.56418 49.475 3.74728 49.1252 3.66042C46.8694 2.57593 45.9656 2.59001 44.2802 2.25198C42.1417 1.45152 45.9703 2.45386 45.6417 2.10645C45.3013 1.91161 44.4657 1.46091 45.4281 1.65105C43.4445 0.953873 41.914 0.871714 40.0878 0.590026L40.1511 0.526647C37.576 0.193316 34.8155 0.317728 32.6723 0.289559L33.8155 0.338855C33.3977 0.399887 32.1043 0.381108 31.4047 0.585332C31.4775 0.463266 29.8015 0.498478 30.4775 0.352939C29.9188 0.554815 28.4846 0.79425 27.0409 1.07359C26.3273 1.23791 25.602 1.39753 24.9963 1.56889C24.3884 1.76138 23.8884 1.94213 23.6067 2.10645C22.9259 2.18391 23.4118 1.90692 23.5926 1.77546C25.1606 1.39284 25.7146 1.38814 26.5221 1.08298C25.2006 1.32007 24.224 1.47734 24.4024 1.35528C23.1301 1.84354 20.1184 2.90926 19.5879 3.39986C18.6302 3.61113 17.757 3.9515 17.9987 3.64164C14.3016 5.41393 20.0551 3.3177 15.8814 5.25431C13.9283 6.03834 17.5997 4.10643 14.987 5.35994L15.4518 5.08999C14.3978 5.34116 14.1161 5.61111 13.8391 5.94209C13.5715 6.28012 13.2758 6.63927 12.2805 7.26368C11.8673 7.20499 13.5715 6.22144 12.0903 6.93974C11.196 7.55945 10.5997 8.06649 10.0364 8.62048C9.46125 9.15334 8.8744 9.65568 8.02464 10.3153L8.21713 10.0148C7.13028 10.8716 5.09274 12.6298 4.15613 13.6369C4.07397 13.6463 4.2242 13.5101 4.39791 13.3176C2.51295 15.0406 3.75238 14.1697 2.18901 15.5641L1.8815 16.0876C2.6491 15.3669 4.10683 13.9819 4.96833 12.9679C4.55049 13.4866 4.97772 13.1815 5.46363 12.8294C5.97301 12.4937 6.54578 12.1158 6.37677 12.4162L6.51292 12.1791C7.47535 11.4679 8.5528 10.7167 9.69599 9.94676C9.22416 10.5242 9.63261 10.2801 8.81571 11.1862C8.35328 11.6369 7.32512 12.6791 7.25704 12.6204C8.11149 11.7003 7.55751 12.1463 7.8345 11.82C6.36738 13.2941 4.39322 15.1181 3.15614 16.4983L4.33688 15.4866C3.88383 16.0007 3.12093 16.7213 2.6444 17.1861L3.83453 18.4373C5.66316 16.557 7.3439 14.7073 8.76172 13.0265C10.7547 11.0712 8.71478 13.3857 9.11618 13.0406C7.67488 14.3786 8.17488 14.0289 7.92136 14.3833C8.62088 13.6087 9.48707 12.6932 9.96829 12.4162C10.9871 11.3857 11.4589 10.9303 12.4025 9.85051C11.926 10.3928 11.4354 10.7754 11.8673 10.2519C12.7406 9.44676 14.8415 7.27776 14.8509 7.52424C15.2734 7.09467 15.7194 6.64866 16.1631 6.21205C16.3767 6.11111 16.5856 6.00547 16.8039 5.91158C18.994 4.60408 20.8274 4.22615 23.2992 3.40456C22.7851 4.11582 22.3766 4.68154 20.7147 6.32003C19.7828 7.03598 21.5128 5.33647 21.0597 5.57355C19.1161 7.4233 19.0152 8.16508 17.8931 9.25897C16.4354 10.6252 16.6138 10.6439 15.1866 12.0829C15.5645 11.5547 14.1021 13.0031 13.7711 13.1956L14.2617 12.5571C13.8485 13.0172 13.4025 13.4045 13.4753 13.2261C13.656 13.2402 11.7077 15.1721 10.7641 16.2049L11.0223 16.1157C10.2734 16.9162 9.25233 18.0335 8.41196 18.8293C7.22183 20.0734 7.57159 19.8692 6.72183 20.8974C6.5763 21.0077 6.46832 21.0758 6.38146 21.1204L7.22183 22.0006C12.4495 16.888 17.703 11.7378 22.3625 6.91392L22.4001 6.98199C23.8696 5.54069 25.3156 4.10643 26.7639 2.66747C26.9775 2.65339 27.2217 2.62992 27.4353 2.5994C27.9024 2.44447 28.4846 2.34353 29.0667 2.23086C29.2921 2.22616 30.0338 2.22616 30.8789 2.21677C29.6841 3.42803 28.5033 4.6252 27.3672 5.79656L27.332 5.73318C21.1278 11.8153 15.0833 17.8692 9.03872 23.9185L10.3955 25.3433C11.0176 24.7236 11.6443 24.1039 12.2617 23.4889C12.9025 22.7143 11.6913 24.0006 12.0363 23.5664C12.9847 22.4513 12.8978 22.7964 13.656 21.9044L13.3838 22.3105C14.6279 21.0992 15.8016 19.6673 16.9307 18.4162C16.8133 18.6932 17.9753 17.5077 17.0316 18.5382C17.5997 17.9467 18.6607 17.5946 19.0386 17.0758L18.0527 17.3997C18.0527 17.3317 18.8884 16.5383 18.7851 16.6016C19.3602 16.1556 20.0598 15.6134 20.4142 15.2589C20.6654 15.1721 19.7616 16.0336 19.2757 16.5195C19.3438 16.726 21.0011 14.9796 20.4236 15.8059C21.4447 14.7472 20.2053 15.8786 20.7781 15.212L21.71 14.3387L20.9682 14.989C21.6818 14.1932 21.832 13.8317 22.9212 12.9021L23.8344 11.7237C24.048 11.7237 24.6161 10.9773 25.1794 10.4702L24.9142 10.8763C25.6278 10.1604 25.9236 9.89746 26.4095 9.49136C26.1043 9.99136 25.7381 10.1158 25.6559 10.3787L26.4775 9.62751C26.4095 9.56882 26.8625 9.02188 26.2592 9.54535C26.8766 8.70263 27.1771 8.20733 29.0198 6.39749C29.9517 5.67919 28.2217 7.37401 28.67 7.13692C30.6183 5.29187 30.7146 4.54774 31.8366 3.4562C32.5174 2.81771 32.8484 2.46795 33.1488 2.13461C33.3179 2.12053 33.4704 2.10645 33.6113 2.08532C33.5902 2.12053 33.5714 2.15339 33.5479 2.1886C33.3812 2.20269 33.2357 2.21677 33.1676 2.23555C33.2803 2.26607 33.393 2.26137 33.5033 2.26607C33.3437 2.50785 33.0949 2.81771 32.346 3.51019C33.3132 2.70738 31.8132 4.16981 31.5503 4.49375C32.2592 3.85526 33.0667 2.71207 33.5761 2.45856C33.6535 2.3764 33.6934 2.32945 33.7568 2.26137C34.1653 2.22616 34.5526 2.12523 34.893 2.22147C34.893 2.22147 34.8695 2.25668 34.7075 2.26607C35.961 2.28954 36.9399 2.36231 37.9493 2.49846C37.7685 2.67686 37.6136 2.83649 37.6629 2.80832C37.0901 3.24963 36.3859 3.79657 36.0361 4.14868C35.7826 4.23788 36.6817 3.36935 37.1676 2.89048C37.1042 2.67686 35.4469 4.43037 36.0197 3.60174C35.0056 4.65807 36.238 3.52427 35.67 4.19798L34.738 5.06886L35.4822 4.42098C34.7662 5.2144 34.6113 5.57825 33.5268 6.50782L32.6136 7.68386C32.4 7.67917 31.832 8.42564 31.2686 8.93972L31.5362 8.53362C30.8226 9.24958 30.5245 9.50545 30.0385 9.91389C30.3461 9.4139 30.7099 9.29183 30.7921 9.02658L29.9705 9.77774C30.0385 9.83643 29.5878 10.3834 30.1888 9.8599C29.5738 10.7026 29.2709 11.1956 27.4306 13.0125C26.4963 13.7284 28.2264 12.0289 27.7803 12.266C25.832 14.1157 25.7334 14.8575 24.6067 15.9514C23.1489 17.3223 23.3297 17.3364 21.9001 18.7753C22.2851 18.2472 20.818 19.7002 20.487 19.895L20.9776 19.2542C20.5644 19.7096 20.1184 20.1016 20.1912 19.9185C20.3696 19.9373 18.4213 21.8645 17.48 22.8974L17.7358 22.8105C16.9894 23.6086 15.9729 24.7283 15.1279 25.5264C13.9377 26.7659 14.2875 26.564 13.4354 27.5945C13.3626 27.6485 13.3204 27.672 13.2617 27.7119L13.0715 27.4748C13.426 27.1649 13.8744 26.6931 14.3556 26.2588C15.8227 24.6509 16.8485 23.28 18.426 21.7823C18.8931 20.9161 17.4119 22.8434 16.595 23.5171C16.6044 23.4842 16.6537 23.4255 16.7053 23.3668C16.6396 23.4349 16.5809 23.4889 16.5128 23.5452C17.041 22.9748 17.9072 22.0452 17.9541 21.7941C17.0504 22.733 17.4894 22.6603 16.2546 23.7166C15.4635 24.6203 14.6067 25.1532 14.0833 25.6485C13.6748 26.1814 13.6842 26.4138 12.8931 27.2424L12.7946 27.1203L12.7992 27.1109C12.7992 27.1156 12.7946 27.1156 12.7946 27.1203L12.5903 26.8645C11.2453 25.6086 11.0856 25.6344 10.6561 25.4161C11.419 26.0898 11.9542 26.6415 12.5997 27.3199C12.5669 27.3527 12.527 27.3926 12.4988 27.4255C11.649 26.5593 11.4988 26.8926 10.3861 25.672C10.9777 26.3738 10.7687 26.3316 10.3321 25.9865C11.0082 26.7377 12.4166 28.3058 12.2617 27.9443L12.0316 27.6579C12.1584 27.6626 12.5622 28.0405 12.7805 28.2095C13.7335 29.2119 13.1161 28.7823 13.257 29.0241C14.0058 29.848 14.1983 29.9349 14.2476 29.8527C14.3157 29.7846 14.3697 29.7588 15.156 30.5147C15.2147 30.6015 15.2875 30.6907 15.3955 30.7095C15.5645 30.7095 15.6607 30.5358 15.7828 30.4184C15.9002 30.2917 16.0269 30.1625 16.1466 30.0311C16.764 29.2987 17.2804 28.7001 17.3274 28.4419C18.1161 27.9302 18.9471 26.6837 19.7968 26.1086C20.2147 26.2964 17.1983 28.5241 16.5551 29.6391C17.1865 29.071 16.7804 29.6297 16.2593 30.301C16.0692 30.5053 15.8908 30.6954 15.7781 30.8151L16.2828 30.3597L18.3203 28.0006C18.5574 27.841 19.4424 27.3081 19.7875 26.7612L19.5785 26.9372C20.5551 25.9818 20.1513 26.0781 21.1043 25.3668C21.2687 25.2847 21.0363 25.5757 20.987 25.6579C21.8579 24.9983 21.6325 25.0147 22.1818 24.5335C23.0996 23.949 21.8532 24.9936 22.6255 24.5241C23.548 23.6532 24.3156 23.4983 25.2592 23.0077C25.001 23.003 25.9189 22.4279 26.7052 22.1039C27.2944 21.8316 27.7803 21.6579 27.4541 21.6673C27.5034 21.6133 27.5456 21.5546 27.5902 21.4983C27.7803 21.4396 27.9752 21.3809 28.1677 21.3176C28.6066 21.2213 29.0479 21.111 29.4939 21.0382C30.3249 21.0758 27.717 21.6438 28.494 21.7776C27.8179 21.9044 27.1489 22.064 26.501 22.3011C26.7146 22.3974 27.7029 21.9725 28.893 21.7683C30.0691 21.5359 31.4376 21.5359 32.1136 21.7776C32.6629 21.8176 32.8672 21.841 33.1981 21.8903C33.5174 21.942 33.9751 22.0147 34.947 22.3457L34.6747 21.9725C35.7192 22.287 35.9563 22.6063 35.9915 22.6603C36.5737 22.8528 37.0549 23.111 37.522 23.4161C37.3718 23.3762 37.177 23.3081 36.8554 23.1391C37.4446 23.6532 37.6277 23.726 37.8906 23.8222C38.2709 23.9959 38.7122 24.4419 39.076 24.9419L38.6488 24.5734C38.8976 24.8527 39.2169 25.1931 39.2662 25.2119C39.3882 25.4396 39.5385 25.6344 39.6441 25.8457C39.6441 25.7541 39.6206 25.6039 39.5479 25.3668C39.4845 25.1203 39.3577 24.8011 39.076 24.4185C39.8155 25.3856 40.1934 26.4278 40.3788 27.4537C40.5643 28.4865 40.5009 29.5428 40.2427 30.4959C40.1652 30.3996 40.1464 29.5804 40.1065 29.8269C40.0737 30.064 40.0478 30.3128 40.0338 30.5452C40.0056 30.7776 39.9328 30.9888 39.9023 31.179C39.8342 31.5522 39.8248 31.8175 39.8976 31.7987C39.8389 32.0217 39.7286 32.1719 39.6652 32.3175C39.5033 32.4583 39.3248 32.632 39.0901 33.0522C39.0033 33.1297 38.8718 33.2705 38.6582 33.5522C38.6981 33.9935 37.2685 35.4606 36.9962 35.8245C37.3859 35.5193 37.7451 35.0475 38.1535 34.6085C37.7122 35.3526 37.299 36.0569 36.7005 36.4137C37.7685 35.1977 35.2873 37.4113 37.0009 35.7024C35.5549 36.6414 36.5314 36.4911 35.0643 37.5756C34.738 37.7986 34.4117 38.0169 34.0667 38.2212C34.1254 37.9935 35.4869 36.9606 35.238 37.0827L34.6254 37.6202C35.184 37.0287 37.5807 35.0827 38.4164 33.4888C37.7263 34.4442 36.8178 35.2869 35.9 36.0991C32.5409 39.3878 27.163 42.3855 24.0198 45.1272L24.1607 45.0192C24.1114 45.0732 24.102 45.1225 24.0926 45.2094L23.9165 45.2821L23.325 45.8737C22.4729 46.2845 21.0457 47.315 19.8109 48.1741C20.5926 47.646 20.6137 47.6694 20.7593 47.7023C20.7194 47.9558 20.6419 48.0849 19.548 48.9394C19.4612 48.8502 20.1184 48.3032 19.271 48.8901C19.7147 48.5943 19.4072 48.9629 18.9565 49.3643C18.3039 49.8009 17.2898 50.5849 17.203 50.5028C17.4588 50.2563 17.7077 50.106 17.9119 49.9699C18.1701 49.7187 16.7053 50.7938 17.4753 50.0521L16.4049 50.9675C15.7006 51.4135 16.7264 50.4934 16.4307 50.653C14.6701 52.2211 13.9283 53.2187 12.4354 54.7445C12.4636 54.6295 12.2946 54.4159 12.3298 54.4886C11.0692 55.5731 10.0246 57.1952 8.83449 58.6294C8.94717 58.3642 9.43308 57.8595 9.78754 57.4135C7.82042 59.505 6.23123 61.5778 4.74298 63.6458C3.24299 65.735 1.8815 67.7444 0.327521 70.0261C0.156162 70.3641 0.0880867 70.7467 0.123298 71.1059C0.146771 71.3124 0.172593 71.4392 0.196067 71.5401L0.264142 71.8852L0.0786972 73.2702C-0.0128509 76.0542 -0.012851 78.5143 0.0200123 80.9415C0.0458338 82.1574 0.0646131 83.364 0.0880868 84.594C0.104519 85.2137 0.113908 85.8335 0.127993 86.4672C0.132688 86.8452 0.142077 87.2278 0.146772 87.6151C0.142077 88.1198 0.151467 88.6527 0.322827 89.0095C0.376817 89.2325 0.618599 89.4414 0.759443 89.4743C0.914371 89.5423 1.05521 89.5869 1.17258 89.6245C1.40028 89.6832 1.53643 89.716 1.6585 89.7466C1.86272 89.8099 1.8815 89.8827 2.54816 89.9203C6.32278 89.9508 7.10446 89.6386 10.5997 89.5775C10.1232 89.6597 9.31101 89.9015 10.804 89.9109C11.081 89.8334 11.2594 89.7067 12.203 89.756L11.7218 89.8381C12.5809 89.9649 13.4119 89.8475 15.1959 89.9015C18.3391 89.8968 21.3414 89.6973 23.9306 89.3921C26.7099 89.4179 23.6395 89.6879 24.17 89.7513C22.2076 89.6503 22.8039 89.8006 22.3813 89.8968C23.4165 89.8193 24.6747 89.77 25.2099 89.9696C26.6536 89.9555 27.3085 89.9649 28.7381 89.8287C28.0174 89.8968 27.4001 89.7888 28.0761 89.702C29.2569 89.77 32.2686 89.6926 32.1043 89.939C38.9563 89.939 46.6182 89.9343 53.9538 89.9343C55.1933 89.8052 53.0172 89.8874 53.698 89.7959C55.4937 89.6292 55.1158 89.8827 56.5594 89.7466L55.9609 89.8827C58.104 89.9062 60.3787 89.655 62.4585 89.5283C62.1087 89.6832 64.158 89.655 62.4373 89.7466C63.4491 89.7231 64.6838 90.4109 65.4655 90.27L64.3223 89.6292C64.381 89.5682 65.8012 89.6057 65.6603 89.5611C65.9115 89.5916 66.0335 89.6245 66.4655 89.6597C66.8317 89.6832 67.2378 89.7419 67.5993 89.7231C67.9584 89.6738 68.2049 89.6292 68.4443 89.4555C68.6861 89.2466 68.726 89.0588 68.8035 88.8452C68.8669 88.7677 68.8856 88.8452 68.8481 89.0095C68.7988 89.1644 68.7542 89.4062 68.4584 89.6386C68.219 89.8006 67.8903 89.9437 67.4326 89.9649C66.9819 89.9649 66.5382 89.9602 66.1697 89.9602C66.1157 90.0282 66.4021 90.0705 66.8504 90.1057C67.2964 90.148 67.9537 90.1832 68.3129 89.979C68.672 89.8616 68.9936 89.4696 69.0453 89.3921C69.1227 89.2865 69.1978 89.3686 68.9349 89.7747C69.3669 89.2677 69.3716 88.8358 69.3809 88.6902C69.3762 88.5353 69.3575 88.6315 69.3082 88.7583Z" fill="#6973A4"/>
</svg>
