<svg width="64" height="91" viewBox="0 0 64 91" fill="none" xmlns="http://www.w3.org/2000/svg">
<path d="M42.1131 85.5972C41.6099 85.7673 41.0949 85.9067 40.5751 86.0343C41.0004 85.55 41.6004 84.931 42.8667 83.8254L42.7179 83.9034C48.8579 77.8342 55.2152 71.5926 61.4096 65.4573C61.3245 66.3054 61.1001 67.2386 60.904 68.1174L60.8473 67.1606C60.5568 68.0513 60.8379 67.652 60.8284 67.9048C60.5568 69.3554 60.2449 69.6034 59.8976 70.298C59.8716 70.4752 59.8197 70.6405 59.763 70.8083C59.5244 71.0516 59.2763 71.302 59.0424 71.5406L59.007 71.4792C54.7144 75.6867 50.5092 79.8754 46.3206 84.064C46.1292 84.1254 45.9237 84.1868 45.6851 84.2506L45.8103 84.2743C45.2079 84.5105 44.6007 84.7538 43.9889 84.9972C43.377 85.2263 42.7439 85.3917 42.1131 85.5972ZM32.6113 87.3006C34.2745 85.6492 35.9447 83.9931 37.5843 82.3512C38.2198 81.5882 37.0291 82.8544 37.3693 82.4268C38.3001 81.333 38.215 81.6708 38.9592 80.7944L38.6922 81.1983C39.9113 80.0029 41.0712 78.5949 42.1745 77.3664C42.0587 77.6381 43.2022 76.4711 42.2737 77.4869C42.8384 76.9058 43.8802 76.5585 44.2464 76.0482L43.2825 76.3671C43.2825 76.3057 44.1046 75.5237 44.003 75.5828C44.5677 75.1481 45.2551 74.6118 45.6001 74.2645C45.8528 74.1771 44.9646 75.03 44.4873 75.5001C44.5488 75.7056 46.1765 73.9881 45.6142 74.8008C46.6112 73.759 45.3993 74.8764 45.9568 74.2149L46.8805 73.3597L46.1434 73.9976C46.8451 73.2156 46.9986 72.8589 48.0641 71.9446L48.9618 70.7894C49.1768 70.7894 49.732 70.0594 50.2848 69.5562L50.0273 69.9554C50.7242 69.2514 51.0172 68.9986 51.4991 68.5994C51.192 69.0837 50.84 69.2089 50.7573 69.4711L51.5605 68.727C51.4991 68.6703 51.9432 68.1316 51.3503 68.6514C51.9527 67.8221 52.248 67.3378 54.06 65.5518C54.9766 64.8478 53.2804 66.5133 53.7198 66.2818C55.631 64.4675 55.7303 63.7398 56.8335 62.6625C58.2675 61.3159 58.0951 61.3018 59.5007 59.889C59.118 60.4064 60.5615 58.9795 60.8851 58.7881L60.4032 59.4165C60.6843 59.107 60.9655 58.8472 61.1001 58.7598C61.1568 59.0409 61.2064 59.2748 61.2537 59.4992C61.3387 59.9126 61.4734 60.2977 61.497 60.9876C61.5679 60.3922 61.282 59.6079 61.2584 58.8708L61.3671 59.1897C61.3245 59.0126 61.2678 58.8401 61.2111 58.67C61.2678 58.5849 61.3907 58.4361 61.5584 58.2518C61.7451 59.0456 61.5915 58.7598 61.5915 58.8755L61.8207 59.8181C61.9553 60.9687 61.6364 60.2032 61.4828 59.7969C61.6647 60.3119 61.6836 60.8742 61.6978 61.4506C61.7214 61.8924 61.6836 62.3436 61.6364 62.8019C61.6104 62.8303 61.5868 62.8539 61.5584 62.8822L61.5443 62.7358L61.5301 62.9106C60.5756 63.9099 59.2527 65.2423 58.4116 66.133L58.7589 65.9487C57.5848 67.1748 55.9689 68.8852 54.6742 70.1373C52.8032 72.0556 53.3087 71.6989 51.9338 73.2392C51.055 73.974 51.055 73.7968 51.2321 73.44C51.7802 72.9723 52.6213 72.0935 53.4765 71.2878C55.8082 68.8285 57.4974 66.7945 59.9307 64.4533C60.7717 63.2201 58.3384 66.081 57.1076 67.1701C57.1312 67.1228 57.2068 67.0378 57.2989 66.948C57.1926 67.052 57.1028 67.1417 57.0013 67.2339C57.8328 66.3527 59.1983 64.9281 59.333 64.595C57.9132 66.0479 58.492 65.8282 56.6185 67.5245C55.3546 68.8947 54.1214 69.8137 53.3087 70.5933C52.5008 71.5454 52.626 71.7414 50.4289 73.8677L51.2652 72.8116C48.8083 75.2544 50.2754 74.1204 48.0027 76.3766C48.813 75.597 47.3436 77.2578 48.8626 75.7482C48.1751 76.549 46.5309 78.2098 45.2693 79.4052C44.9646 79.7431 45.241 79.5092 45.2173 79.6037C46.6608 78.3185 47.301 77.3806 48.5319 76.3766L49.3587 75.3111C50.6722 74.0874 50.8967 74.059 50.1714 74.8764C50.5234 74.515 50.8164 74.1866 51.1022 73.9503C51.4991 73.9102 49.5123 75.4009 49.2241 75.9915L50.1076 75.0867C50.6155 74.815 48.1161 77.2767 46.9561 78.4177C45.5953 79.6651 44.3763 80.8369 44.2039 80.8416L45.919 79.0556C44.9457 79.8943 43.7219 81.333 42.6942 82.3465C42.6186 82.3985 42.5076 82.4882 42.3848 82.6016C42.4462 82.5544 42.4793 82.5355 42.4887 82.5402C42.269 82.7552 42.0682 82.9371 41.8792 83.0836C40.9791 83.9695 39.7152 85.335 38.8553 86.1335L39.0348 86.1099L39.1033 85.954C39.9302 85.1389 41.0854 84.0782 40.5255 84.7538C39.7152 85.6067 39.1742 86.1099 38.7678 86.4524C38.6072 86.4879 38.4442 86.5257 38.2812 86.5635C38.8883 85.9492 39.7861 85.1436 40.4074 84.4727C39.9444 84.7775 39.2167 85.55 38.1772 86.5824C38.0993 86.5965 38.0284 86.606 37.9575 86.6202C38.4536 86.1288 38.9025 85.6823 39.0513 85.42C38.5481 85.9114 38.1772 86.2918 37.8418 86.6391C37.5795 86.6816 37.322 86.7241 37.0574 86.7619C37.1401 86.6769 37.2346 86.5824 37.3457 86.469C37.2252 86.5776 37.1307 86.6721 37.0291 86.7666C35.5644 87.0052 34.0926 87.1966 32.6113 87.3006ZM26.0815 87.2202C28.7747 84.5388 31.5695 81.7701 34.2839 79.0603C34.9147 78.2996 33.7287 79.5659 34.0642 79.1383C34.995 78.0421 34.9147 78.3799 35.6589 77.5058L35.3919 77.9051C36.6086 76.7144 37.7709 75.3064 38.8742 74.0779C38.7584 74.3496 39.8995 73.1825 38.9734 74.196C39.5333 73.6149 40.5798 73.2676 40.946 72.7597L39.9822 73.0786C39.9822 73.0172 40.8043 72.2352 40.698 72.2919C41.2626 71.8548 41.9548 71.3209 42.2997 70.9736C42.5525 70.8886 41.6642 71.7367 41.1846 72.2116C41.2484 72.4171 42.8762 70.6972 42.3139 71.5123C43.3108 70.4704 42.0989 71.5832 42.6564 70.9264L43.5778 70.0688L42.8431 70.7067C43.5447 69.9271 43.6983 69.5704 44.7638 68.6561L45.6615 67.4985C45.8765 67.4985 46.4316 66.7661 46.9845 66.2676L46.727 66.6669C47.4239 65.9629 47.7145 65.7054 48.194 65.3061C47.8916 65.7952 47.5349 65.9204 47.4522 66.1802L48.2602 65.4384C48.194 65.3817 48.6429 64.8431 48.0499 65.3581C48.6524 64.5289 48.9524 64.0446 50.7573 62.2633C51.6763 61.5593 49.9753 63.2248 50.4195 62.9909C52.3307 61.1789 52.4299 60.4442 53.5332 59.374C54.9672 58.0274 54.79 58.0132 56.198 56.6005C55.8224 57.1131 57.2588 55.6909 57.5895 55.4996L57.1028 56.128C57.5139 55.6815 57.9533 55.294 57.8754 55.476C57.7478 55.4618 58.688 54.4955 59.5716 53.5718C59.5858 53.5954 59.5952 53.6191 59.6094 53.6427C59.4771 53.9002 59.5196 53.8955 59.6661 53.7537C59.8244 54.0679 59.9732 54.4058 60.1126 54.805L59.8764 54.668C60.2307 55.828 60.4882 55.7051 60.7765 56.5698C57.8848 59.426 55.0617 62.2491 52.4394 64.9636L52.4016 64.8998C44.7307 72.4266 37.2913 79.9037 29.8023 87.3856C28.5502 87.4045 27.3147 87.3478 26.0815 87.2202ZM20.7447 86.2729C21.9873 85.1106 21.4369 85.068 23.3906 83.4923L23.2867 83.5254C27.9478 78.9327 32.8357 74.196 37.4732 69.5892C37.8323 69.3648 38.2481 69.0412 38.7678 68.5096C38.8104 68.408 38.9214 68.2332 39.0466 68.0229C40.8279 66.244 42.5619 64.4864 44.2133 62.7736L44.2535 62.8397C48.6854 58.4928 53.0276 54.1672 57.3556 49.8391C57.7998 50.4628 58.277 51.1598 58.74 52.0291C55.4066 55.32 52.1441 58.566 49.139 61.6727L49.1012 61.6112C40.4688 70.0688 32.1388 78.4768 23.6978 86.8919C22.6984 86.7194 21.7109 86.521 20.7447 86.2729ZM15.7387 84.6499L15.9914 84.4538L15.7245 84.6452C15.6536 84.6215 15.5875 84.5979 15.519 84.5696C15.8639 84.2223 16.3033 83.7356 16.7333 83.3411L16.3458 83.8585C17.305 82.9017 17.6924 82.5497 18.3326 81.9898C17.8885 82.6229 17.4444 82.8308 17.3002 83.1544L18.3846 82.1362C18.3185 82.0795 18.9398 81.3661 18.1507 82.0795C19.0107 80.9928 19.4501 80.3668 21.9117 77.9334C23.1237 76.9341 20.8132 79.2139 21.3755 78.8572C23.9647 76.3671 24.2128 75.4859 25.7129 74.0212C27.0406 72.7549 27.3761 72.351 28.0636 71.6115C28.1628 71.6162 28.2691 71.6257 28.3731 71.6304C27.8013 72.3368 28.0116 72.3793 26.2917 73.9976C27.5627 72.8872 25.5547 74.8528 25.1885 75.278C26.1287 74.411 27.2651 72.9392 27.91 72.5541C28.3353 72.1076 28.588 71.8265 28.7416 71.6446C29.9559 71.6989 31.1631 71.6399 32.1341 71.3989C31.6403 71.4367 31.1537 71.4036 30.667 71.4083C31.0025 71.3398 31.4301 71.2973 31.8506 71.2548C32.2758 71.1934 32.6916 71.1272 32.994 71.0847C32.9397 71.113 32.9491 71.1319 32.9798 71.1508C32.4861 71.7414 32.6538 71.817 31.6073 72.7077C30.83 73.596 29.9937 74.1157 29.4716 74.6071C28.9897 75.2355 29.129 75.4198 27.7234 76.7522L28.2171 76.0435C26.6603 77.5862 27.6478 76.9294 26.209 78.3563C26.7264 77.8673 25.8334 78.9517 26.7926 77.9996C26.3815 78.5288 25.3491 79.5801 24.5388 80.3219C24.3522 80.5416 24.5341 80.4046 24.5341 80.4802C25.4743 79.6935 25.824 79.0414 26.639 78.4532L27.1186 77.7326C27.9691 76.9766 28.1439 76.9908 27.6998 77.5294C27.9195 77.3003 28.1014 77.0853 28.288 76.9388C28.6069 76.9861 27.2603 77.8389 27.1375 78.2665L27.6903 77.6901C28.0541 77.5625 26.4736 79.1099 25.7318 79.8281C24.8483 80.5983 24.0758 81.333 23.9364 81.3023L25.0066 80.1612C24.3616 80.6644 23.6316 81.6118 22.9819 82.2496C22.9229 82.2827 22.8567 82.337 22.7764 82.4079C22.8142 82.3796 22.8426 82.3701 22.8473 82.3796C22.7079 82.5071 22.5756 82.6229 22.4504 82.7032C21.8834 83.2655 21.0991 84.1443 20.5439 84.6452L20.688 84.6546L20.7163 84.5388C21.2384 84.0262 21.9873 83.3742 21.6519 83.8207C20.5344 85.0397 20.1541 85.1247 19.8092 85.3397C19.9627 84.9546 20.9502 84.201 21.5054 83.5679C21.0424 83.8065 20.3242 84.7113 19.0839 85.8099C19.0792 85.8099 19.0744 85.8051 19.0697 85.8051C19.4501 85.2122 20.4258 84.4632 20.5746 84.0971C19.8092 84.8247 19.5328 85.198 18.9681 85.7768C18.9303 85.7673 18.902 85.7532 18.8689 85.7437C19.1217 85.4578 19.3509 85.1838 19.28 85.1767L18.7059 85.6917C18.7012 85.6917 18.6965 85.687 18.6917 85.687C20.0808 84.279 18.1743 85.8925 19.3745 84.6357C18.9681 84.9783 18.7815 85.2594 18.4673 85.6161C17.5412 85.3208 16.6269 84.9972 15.7387 84.6499ZM7.4937 79.7903C8.39616 78.9044 9.24664 78.0468 9.85379 77.2483C12.4147 75.1906 11.1437 75.5143 13.4896 73.6267L13.3833 73.6598C15.0748 71.9919 16.8041 70.3027 18.5334 68.6088C19.2989 69.0837 20.095 69.5231 20.9219 69.9035C17.149 73.6834 13.3644 77.4609 9.55376 81.2456C9.14269 80.9786 8.7269 80.7093 8.33001 80.4282L7.4937 79.7903ZM3.77284 76.4238L3.74449 76.3907C4.5052 75.6537 5.42655 74.7441 5.45018 74.9071C8.33473 71.9919 11.5075 68.8522 14.659 65.7148C15.3087 66.2818 15.9725 66.8323 16.6766 67.3567C16.8041 67.456 16.9482 67.5481 17.0805 67.6426C16.953 67.8127 16.7474 68.0513 16.308 68.486C16.823 67.9946 15.93 69.079 16.8915 68.1269C16.4757 68.6561 15.4434 69.7074 14.6354 70.4563C14.4488 70.6736 14.6307 70.5366 14.6307 70.6075C15.5662 69.8279 15.9158 69.1758 16.738 68.5805L17.2152 67.867C17.2435 67.8387 17.2672 67.8174 17.3002 67.7938C17.3829 67.8528 17.468 67.9143 17.5554 67.971C17.3971 68.1269 17.2672 68.2804 17.2341 68.3986L17.6074 68.0088C17.631 68.0229 17.6593 68.0418 17.683 68.0607C17.3168 68.5049 16.36 69.4404 15.8308 69.9602C14.9472 70.7256 14.1724 71.465 14.0282 71.432L15.1032 70.2933C14.4582 70.7988 13.7235 71.7462 13.0785 72.384C13.0218 72.4124 12.9486 72.4691 12.8683 72.5352C12.9108 72.5116 12.9344 72.4974 12.9439 72.5069C12.8021 72.6392 12.6722 72.7502 12.5493 72.8353C11.9753 73.3975 11.1957 74.2787 10.6428 74.7725L10.7846 74.7866L10.8153 74.6732C11.335 74.1582 12.0839 73.5015 11.7461 73.9503C10.6334 75.167 10.246 75.2591 9.90104 75.467C10.0546 75.0867 11.0445 74.3354 11.602 73.7023C11.1295 73.9456 10.3995 74.8717 9.11434 76.0009C9.46635 75.3962 10.5176 74.6071 10.6665 74.2244C9.67188 75.1765 9.50651 75.519 8.45049 76.5112C8.52137 76.3199 9.51596 75.3206 9.37657 75.3111L8.68438 75.9301C10.2885 74.3118 8.24023 76.0529 9.46635 74.7677C8.8214 75.3111 8.74108 75.6962 7.81972 76.4569C8.1103 76.2821 8.88518 75.7056 8.12447 76.5632L7.17477 77.4373C6.73063 77.7562 7.99218 76.353 7.34723 76.8963L6.42823 77.8909C6.50147 77.8956 6.97869 77.4562 6.74008 77.7964C6.43296 78.061 6.24396 78.3327 6.04788 78.628C5.74548 78.3752 5.4549 78.1248 5.1785 77.8531C4.70364 77.3806 4.19335 76.9341 3.77284 76.4238ZM24.9924 70.8461C25.3444 70.9406 25.9941 71.0398 26.4335 71.1319C26.3957 71.1745 26.3532 71.217 26.3106 71.2595C25.9988 71.2737 26.2681 71.3753 25.9704 71.3682C26.0342 71.38 26.1051 71.3894 26.1713 71.3989C24.0994 73.4731 22.0582 75.5285 20.1045 77.5294L20.0714 77.4609C17.9641 79.5375 15.8875 81.6023 13.8038 83.6695C12.8872 83.2206 11.9989 82.7316 11.1248 82.2166C11.6209 81.7464 12.032 81.3802 12.0509 81.4842C15.4292 78.0752 19.1973 74.3543 22.8709 70.6925C22.8898 70.702 22.904 70.7114 22.9229 70.7161C24.5104 71.0847 23.6269 70.6405 24.9924 70.8461ZM31.9427 72.5116C31.9522 72.4785 31.9994 72.4218 32.0561 72.3651C31.9852 72.4266 31.9285 72.4833 31.8648 72.54C32.2333 72.1407 32.7649 71.5643 33.0602 71.1792C33.1121 71.1886 33.1594 71.1981 33.209 71.2075C32.8168 71.6446 32.3113 72.2068 31.9427 72.5116ZM33.2562 71.2973C33.2751 71.2784 33.2893 71.2642 33.3082 71.2453C33.3177 71.2595 33.3035 71.2784 33.2562 71.2973ZM33.0649 71.817C32.3349 72.6014 31.3261 73.7023 30.504 74.4866C29.3298 75.7056 29.6724 75.5048 28.8432 76.516C28.2549 76.953 28.2266 76.8089 28.3022 76.549C28.666 76.2726 29.1857 75.7056 29.7409 75.2048C31.0214 73.8062 31.9758 72.5825 33.2468 71.3068C33.3129 71.2831 33.3696 71.2642 33.4334 71.2453C33.2043 71.4839 32.9893 71.7131 32.8121 71.9021L33.0649 71.817ZM39.1506 54.1813C39.1884 54.1341 39.2262 54.0916 39.271 54.0396C40.001 54.805 40.5208 55.6342 40.9956 56.7281C40.8846 56.8367 40.7736 56.943 40.6649 57.0517C40.6554 56.9808 40.646 56.9194 40.6271 56.8226C40.5491 56.6383 40.4924 56.4516 40.4074 56.2768C40.4877 56.5414 40.5704 56.8084 40.6507 57.0659C40.5987 57.1179 40.5444 57.1651 40.4972 57.2171C40.4499 57.1273 40.3932 57.0045 40.3247 56.8415C39.9727 55.8374 40.0719 55.6437 39.3797 54.5948C39.3797 54.5948 39.3797 54.5948 39.3844 54.59C39.642 54.909 39.9207 55.2374 40.1357 55.5894C39.9963 55.1712 39.7341 54.8428 39.4908 54.5239C39.486 54.5192 39.4766 54.5097 39.4648 54.5003C39.4955 54.4719 39.5191 54.4436 39.5475 54.4152C39.5191 54.4436 39.4908 54.4672 39.46 54.4955C39.3561 54.3916 39.2498 54.2853 39.1506 54.1813ZM35.6683 51.663C43.6463 43.8243 51.3928 36.0212 59.2172 28.2203C59.1936 28.6149 59.17 29.0118 59.1133 29.4252C59.118 30.0678 59.3188 28.9929 59.3897 29.5055C59.2267 30.4859 59.1983 30.7198 58.9219 31.5821C59.2361 30.8379 59.1038 30.9348 59.1511 31.0529L59.3708 29.6732C59.4039 29.6095 59.3897 29.763 59.4464 29.6402C59.4818 29.1724 59.5196 28.6196 59.5574 28.0219C59.5811 28.4353 59.6 28.7354 59.6236 29.059C59.633 29.3779 59.6378 29.7488 59.4511 30.3206C59.4417 30.2237 59.4677 30.0725 59.5149 29.763C59.2763 30.7151 59.4133 30.8001 59.1227 31.4853C58.8062 32.3334 58.9456 32.142 58.8133 32.2247C58.7684 32.3192 58.7211 32.4137 58.6739 32.5153C58.5628 32.624 58.4494 32.7326 58.3384 32.8437C58.3431 32.6334 58.4683 32.1184 58.329 32.5484C58.277 32.709 58.2108 32.872 58.147 33.0327C51.7283 39.331 45.0213 45.823 39.2356 51.8071L39.1978 51.7386C38.782 52.1496 38.371 52.5583 37.9623 52.9623C37.5417 52.5914 37.107 52.2441 37.3079 52.2961C36.6275 52.0008 36.1361 51.8212 35.6683 51.663ZM35.4061 51.9252C35.4486 51.8827 35.4958 51.8401 35.5384 51.7929C35.725 51.8307 35.8502 51.8449 35.8219 51.7929C36.5944 52.1685 35.725 51.963 35.4061 51.9252ZM35.3187 52.0102C35.3328 52.0008 35.3423 51.9866 35.3541 51.9724C35.4486 52.0244 35.673 52.1213 36.0888 52.2772C35.8077 52.1685 35.5573 52.0858 35.3187 52.0102ZM30.1756 51.4291C31.7939 51.4244 29.8638 51.5732 30.7284 51.663C28.7085 51.6441 30.2276 51.5732 29.6063 51.4196C29.3251 51.4196 29.0912 51.4102 28.881 51.4007L29.0629 51.1692C30.1803 51.1834 31.1773 51.155 30.9576 50.9022C31.6663 50.9306 32.5097 50.8739 33.4807 50.9873C33.2562 51.1645 32.7341 51.6299 33.1263 51.0912L32.8074 51.4834C32.0963 51.4007 31.3261 51.3582 30.1756 51.4291ZM24.8766 51.5496C25.0113 51.5259 25.1932 51.5165 24.9357 51.4787L24.0025 51.5779C22.1598 51.4929 23.9553 51.311 22.8993 51.207C24.553 49.5556 26.1713 47.9161 27.7092 46.3285L27.7494 46.39C37.8654 36.47 47.5727 26.621 57.5328 16.7483C57.5895 16.9018 57.6604 17.0483 57.7124 17.2019C57.9675 17.9248 58.1872 18.6619 58.3833 19.4155C57.8943 19.9187 57.4454 20.4148 57.0934 20.8849C54.5325 22.9426 55.7988 22.619 53.4576 24.5089L53.5615 24.4688C46.5498 31.3766 39.0254 38.6128 32.6302 45.2229L32.5971 45.1615C30.6575 47.0609 28.7463 48.9603 26.8351 50.855C26.7784 50.855 26.7217 50.855 26.665 50.855C26.7123 50.8644 26.7642 50.8692 26.8115 50.8739C26.7879 50.8975 26.7642 50.9259 26.7359 50.9495C25.4932 50.9967 25.1365 51.1598 23.3954 51.2117C24.7585 51.2732 25.1979 51.3488 26.235 51.4432C26.1854 51.4929 26.1335 51.5448 26.0909 51.5921C25.7507 51.5779 25.3491 51.5401 24.8766 51.5496ZM24.5388 38.1545C26.1996 38.0647 25.6704 38.1734 25.8003 38.2395C24.9829 38.2064 24.3427 38.2112 23.7308 38.2112C23.5678 38.2112 23.4025 38.2112 23.2394 38.2064C23.2678 38.1781 23.2961 38.1497 23.3292 38.1167C24.2033 38.1639 24.8814 38.2206 24.5388 38.1545ZM26.3437 38.1923C26.3343 38.2017 26.3248 38.2112 26.3106 38.2253L25.9799 38.1923C26.1193 38.1923 26.235 38.1923 26.3437 38.1923ZM29.181 38.1119C29.1763 38.1167 29.1574 38.1119 29.1574 38.1167C29.1574 38.1119 29.1574 38.1119 29.1574 38.1119C29.1668 38.1119 29.1716 38.1119 29.181 38.1119ZM21.7771 42.362L21.8338 40.2547L22.0346 40.4815C22.0204 40.0397 22.0062 39.716 21.9873 39.4538C22.3512 39.0923 22.7126 38.7356 23.0717 38.3742C23.3292 38.3742 23.582 38.3694 23.8419 38.3694C24.7302 38.3505 25.5594 38.3127 26.0201 38.2726C26.0815 38.2726 26.1665 38.2773 26.2587 38.2773C26.1949 38.3411 26.1335 38.4025 26.072 38.4639C25.2074 38.4781 23.9364 38.5632 23.282 38.6128C23.9269 38.5821 25.1507 38.5868 25.9657 38.5679C24.5293 40.0066 23.0953 41.4383 21.6566 42.877C21.692 42.4376 21.7346 42.2108 21.7771 42.362ZM32.0561 37.9985C31.9333 38.0222 31.723 38.0552 31.5836 38.0647C32.1577 38.0647 32.9609 38.0883 33.424 37.9844C33.0932 38.3836 32.7885 38.7451 32.0797 39.3451L31.1867 40.5004C30.9718 40.5004 30.4142 41.2304 29.859 41.7336L30.1213 41.3343C29.4243 42.0383 29.1338 42.2958 28.6518 42.6904C28.9519 42.2061 29.311 42.0808 29.3913 41.821L28.588 42.5628C28.6518 42.6195 28.2077 43.1581 28.7983 42.6384C28.1935 43.4723 27.8958 43.9566 26.0909 45.7379C25.1743 46.4419 26.8682 44.7764 26.4288 45.0079C24.5199 46.8223 24.4183 47.5499 23.315 48.6272C22.474 49.4163 22.1834 49.7541 21.8007 50.1793C21.796 49.9927 21.7913 49.8155 21.7865 49.6454C21.9543 49.421 22.226 49.1162 22.8142 48.5752C21.8621 49.3643 23.3387 47.9279 23.6009 47.6043C22.9772 48.1642 22.2779 49.1162 21.7818 49.4919C21.7771 49.4635 21.7771 49.4304 21.7771 49.4068C21.7582 48.9556 21.7251 48.6036 21.6472 48.45C21.7204 48.3414 21.6283 47.5358 21.581 47.1932C21.5479 46.879 21.4865 46.338 21.4676 45.7663C23.9647 43.2763 26.5162 40.739 29.0676 38.2017C30.1331 38.3411 30.8253 38.0694 32.0561 37.9985ZM38.9498 23.0371C38.86 22.9332 38.7773 22.8363 38.7112 22.7607C40.6838 20.7952 42.6517 18.8296 44.6433 16.8593C45.7135 15.697 44.9315 16.2592 45.8387 15.2458C46.2639 14.83 47.1994 13.885 47.2703 13.9417C46.4931 14.7827 47.0034 14.3787 46.7506 14.6788C48.0924 13.3322 49.9044 11.6666 51.0266 10.3956L49.9422 11.3241C50.3769 10.8232 51.1306 10.1145 51.5605 9.69399C51.4235 9.91369 52.1252 9.38687 51.7755 9.77195C51.9102 9.61366 52.0236 9.48609 52.1393 9.35143C52.7418 9.84282 53.2946 10.3484 53.8001 10.8705C49.1674 15.4395 44.596 19.9825 40.0436 24.5184C39.1458 23.1127 39.9396 24.5987 39.6372 24.4688C39.7057 24.5609 39.7483 24.6601 39.805 24.7546C39.7577 24.8042 39.7105 24.8515 39.6609 24.8987C39.6089 24.7499 39.5616 24.5987 39.4908 24.464C39.1128 23.5427 38.6356 22.9001 38.9498 23.0371ZM38.2528 23.2143C38.3426 23.1269 38.43 23.0371 38.5198 22.9521C38.6686 23.1458 38.7915 23.3466 38.8931 23.5285C39.0419 23.7837 39.1506 24.0175 39.1978 24.2372C39.2073 24.3459 38.7112 23.7506 38.2528 23.2143ZM38.5387 22.9332C38.5623 22.9048 38.5907 22.8812 38.6214 22.8505C38.7159 23.0229 38.7584 23.1222 38.5387 22.9332ZM36.6416 21.7567C36.3274 21.6905 36.1172 21.6433 35.5431 21.4566C34.2532 20.6723 35.0895 20.9227 34.8887 20.5991C34.6501 20.4904 34.402 20.4006 34.154 20.3156C38.8056 15.6639 43.4502 11.0146 48.1491 6.3582C48.9996 6.90629 49.8407 7.52998 50.2139 7.93396C50.358 8.02846 50.4809 8.13004 50.625 8.22454C48.8343 10.0531 47.1947 11.8604 45.8245 13.5023C44.003 15.2883 45.8623 13.1644 45.489 13.4739C46.812 12.2549 46.349 12.5691 46.5781 12.2454C45.9426 12.9565 45.1512 13.7928 44.7023 14.0409C43.7692 14.9835 43.3439 15.4017 42.4793 16.3915C42.914 15.8931 43.3675 15.5505 42.9777 16.0301C42.1745 16.7577 40.2538 18.7493 40.2397 18.5154C39.2403 19.5194 38.2056 20.5565 37.159 21.6055C36.2802 20.9369 37.211 21.7283 36.8424 21.5275C36.5849 21.3102 36.1833 20.996 35.94 20.9227C37.0881 21.6102 35.9211 21.1046 36.9299 21.7047C36.9913 21.6811 37.048 21.6669 37.1118 21.6527C37.0433 21.7141 36.9818 21.7803 36.9157 21.8464C36.8141 21.8039 36.7243 21.7756 36.6416 21.7567ZM34.3879 21.433C34.4446 21.4377 34.5131 21.4472 34.5792 21.4614C34.5792 21.4614 34.5792 21.4614 34.5839 21.4614L34.3879 21.433ZM32.5829 19.3281C32.5546 19.3186 32.5262 19.3092 32.5003 19.2997C32.6066 19.2194 33.1169 18.6973 32.8783 18.995C32.7649 19.1296 32.6727 19.2336 32.5829 19.3281ZM30.615 19.5053C31.7041 19.4202 28.392 19.243 29.8874 19.1249C29.0416 19.0493 28.8172 19.3824 28.3778 19.2052C28.3258 19.2241 28.3069 19.2383 28.288 19.2477C28.4038 19.1343 28.5455 19.0044 28.7321 18.8438C29.5165 17.9578 30.3528 17.4357 30.8678 16.9444C31.3497 16.3159 31.2151 16.1364 32.616 14.7969L32.1294 15.508C33.6768 13.9653 32.6916 14.6221 34.1304 13.1975C33.6153 13.6842 34.5083 12.6045 33.5468 13.5566C33.9579 13.0274 34.9903 11.9761 35.8077 11.2272C35.9872 11.0099 35.8077 11.1469 35.8077 11.076C34.8651 11.8556 34.5178 12.5077 33.7004 13.103L33.2184 13.8165C32.3727 14.5748 32.1955 14.5606 32.6396 14.022C32.4199 14.2559 32.238 14.4685 32.0514 14.6126C31.7372 14.5701 33.0791 13.7172 33.2043 13.2849L32.6491 13.8637C32.2853 13.9937 33.8728 12.4415 34.6076 11.7233C35.4911 10.9508 36.266 10.2185 36.4078 10.2468L35.3328 11.3902C35.9778 10.8847 36.7102 9.93732 37.3598 9.29946C37.4118 9.26638 37.4874 9.21441 37.5654 9.14826C37.5276 9.17188 37.4968 9.18133 37.4921 9.17661C37.6315 9.04195 37.7662 8.93328 37.889 8.84823C38.4631 8.28596 39.2403 7.40477 39.7955 6.91102L39.6514 6.89684L39.6278 7.01024C39.1033 7.52525 38.3521 8.18202 38.6922 7.73315C39.805 6.51649 40.1877 6.42435 40.535 6.21173C40.3838 6.59681 39.3892 7.34807 38.8364 7.98121C39.3088 7.73788 40.0341 6.81179 41.324 5.68254C40.9649 6.28733 39.9207 7.07639 39.7719 7.45911C40.7641 6.50704 40.9271 6.16448 41.9879 5.17225C41.917 5.36361 40.9224 6.36293 41.0618 6.37238L41.7587 5.75342C40.1499 7.3717 42.1981 5.63057 40.9649 6.91574C41.6146 6.37238 41.6926 5.9873 42.6186 5.22659C42.3281 5.40141 41.5532 5.97785 42.3139 5.12028L43.2163 4.28869L43.3108 4.30287C43.1478 4.56038 42.6234 5.1817 43.0911 4.78717L43.5117 4.33594L43.7786 4.37374C44.3338 4.47297 44.6882 4.63598 45.0685 4.82025C45.4371 5.02106 45.8198 5.27384 46.4553 5.5219C45.7513 6.20701 45.0118 6.92047 44.9882 6.77636C41.1468 10.6508 36.7952 14.9363 32.6633 19.0729C32.5404 19.2147 32.5003 19.2714 32.4861 19.295C32.0916 19.158 31.6805 19.0446 31.0828 18.9761C31.2363 19.0824 31.5317 19.2194 32.4908 19.4297C32.4577 19.4675 32.4294 19.4911 32.401 19.5242C32.3632 19.5289 32.3207 19.5336 32.2806 19.5383C32.316 19.5525 32.3302 19.5525 32.3632 19.5667C32.3113 19.6187 32.2569 19.6683 32.2144 19.7108C31.8222 19.6635 31.3828 19.6187 30.615 19.5053ZM28.6566 19.4722C28.451 19.4911 28.2313 19.5147 28.0069 19.5431C28.073 19.4675 28.1533 19.3777 28.2549 19.2808C28.2644 19.3541 29.2046 19.2288 29.5543 19.2903C29.722 19.406 29.2684 19.4391 28.6566 19.4722ZM27.7328 19.5761C27.61 19.595 27.4895 19.6139 27.3714 19.6328C28.0966 18.8579 29.0487 17.8208 29.8401 17.0672C31.0119 15.8458 30.667 16.0443 31.5033 15.0355C32.0845 14.6032 32.1199 14.7449 32.0372 15.0024C31.6758 15.2788 31.1537 15.8458 30.6008 16.349C29.5448 17.5019 28.7085 18.5343 27.7328 19.5761ZM28.4746 19.0091C28.3305 19.1674 28.1628 19.3541 27.9927 19.5431C27.9478 19.5478 27.9053 19.5525 27.858 19.5572C28.0541 19.3635 28.2408 19.1721 28.399 19.0399C28.392 19.0729 28.34 19.1296 28.288 19.191C28.3494 19.1249 28.4132 19.0682 28.4746 19.0091ZM22.0984 21.6905C22.3653 21.5653 22.6465 21.4708 22.9182 21.3669C22.0204 22.0473 21.1888 22.0473 19.9438 22.9473C20.4258 22.5032 20.773 22.3048 21.203 21.915C20.6029 22.3378 19.5091 23.1741 18.6634 23.9136C18.2807 24.1215 17.8838 24.3128 17.5105 24.542C17.4538 24.7215 16.4025 25.4846 16.5183 25.6122C15.9347 26.0729 16.1261 25.8366 16.4663 25.461C16.823 25.0452 17.3877 24.5184 17.4066 24.4215C16.8467 24.842 16.5561 25.1373 16.3458 25.3736C16.1781 25.5791 16.0552 25.7303 15.8828 25.9358C15.8024 26.0209 15.7103 26.113 15.5969 26.2123C15.5331 26.2595 15.4764 26.3162 15.4008 26.3587C15.3134 26.4036 15.1953 26.3209 15.148 26.2028C15.1953 26.2312 15.2567 26.2642 15.337 26.217C15.4197 26.1697 15.4623 26.0634 15.5095 25.9878C15.4575 26.0587 15.304 26.1934 15.2047 26.0492C15.2 26.0445 15.1953 26.0398 15.1906 26.0351C22.956 18.3571 30.5512 10.7193 38.2434 3.06967C38.4631 3.04132 38.8505 3.09329 39.29 3.16889C39.8853 3.28465 40.5491 3.51145 41.0145 3.56815C40.9082 3.5776 41.0098 3.62721 41.1988 3.69336C40.9744 3.94614 40.7688 4.19183 40.5846 4.43517C38.0237 6.49286 39.2947 6.16921 36.9488 8.05681L37.0527 8.02373C32.9704 12.047 28.7133 16.1836 24.6002 20.2423C24.3144 20.4101 23.367 20.677 22.8756 20.9086C23.4592 20.6676 24.2907 20.4431 24.2766 20.566C24.2411 20.5991 24.2033 20.6392 24.1703 20.6723C23.6789 20.9369 23.23 21.133 22.0984 21.6905ZM13.4424 24.8609C12.5281 23.8616 11.7461 23.2616 11.1673 22.3898C10.8767 21.9339 11.2146 22.2173 11.5784 22.5528L11.654 22.6473C11.6587 22.6426 11.6634 22.6379 11.6705 22.6331C11.817 22.7702 11.9611 22.9048 12.0603 22.9899C11.9233 22.8174 11.8075 22.6946 11.7036 22.5953C11.7414 22.5528 11.7745 22.5127 11.8123 22.4701C12.2044 22.9379 12.6249 23.4505 13.2085 24.1168L12.3037 22.7891L12.6391 23.1363L12.0934 22.3426C12.0603 22.3048 12.0367 22.2811 12.0083 22.2481C12.8305 21.2865 13.1163 20.677 13.9196 19.8951C15.3512 18.5532 15.1764 18.5343 16.5797 17.1215C16.2017 17.6389 17.6404 16.2167 17.9712 16.0254L17.4869 16.6538C17.8932 16.2025 18.3326 15.8222 18.257 15.997C18.0799 15.9828 20.0005 14.0834 20.9266 13.0699L20.6738 13.155C21.4085 12.3706 22.4079 11.2697 23.2394 10.4901C24.4089 9.26638 24.0663 9.46719 24.8955 8.45842C25.4838 8.01901 25.5121 8.16312 25.4365 8.42535C25.0727 8.69939 24.553 9.26638 23.9978 9.76722C22.5567 11.3524 21.5479 12.699 19.9958 14.1637C19.5375 15.0166 20.9928 13.1219 21.796 12.4604C21.7865 12.4935 21.7393 12.5502 21.6826 12.6093C21.7487 12.5455 21.8102 12.4888 21.8716 12.4321C21.3566 12.9991 20.5061 13.9086 20.4588 14.1543C21.3471 13.2329 20.9172 13.3038 22.1315 12.2643C22.9087 11.3761 23.745 10.8563 24.2671 10.3673C24.7491 9.73887 24.6144 9.55224 26.0153 8.21982L25.5216 8.92855C27.0737 7.38587 26.0909 8.04263 27.5297 6.61571C27.0123 7.10474 27.9053 6.02037 26.9461 6.97244C27.3572 6.44325 28.392 5.39196 29.1999 4.65015C29.3865 4.43044 29.2046 4.56983 29.2046 4.49187C28.2644 5.27856 27.9147 5.9306 27.0997 6.52121L26.6154 7.2394C25.7744 7.99538 25.5948 7.98121 26.039 7.44257C25.8145 7.67173 25.6373 7.88671 25.446 8.03318C25.1294 7.98593 26.4784 7.13545 26.6012 6.70548L26.0484 7.28192C25.6846 7.4095 27.2651 5.86445 28.0069 5.1439C28.8857 4.37374 29.663 3.64138 29.8023 3.66973L28.7321 4.8108C29.3771 4.30759 30.1071 3.36025 30.7568 2.72239C30.8111 2.68931 30.882 2.63734 30.9623 2.56883C30.9245 2.59245 30.8962 2.6019 30.8914 2.59718C31.0308 2.46488 31.1631 2.35148 31.2883 2.2688C31.3072 2.2499 31.3308 2.22627 31.3497 2.20265C31.3639 2.20265 31.3734 2.20265 31.3875 2.20265C31.3545 2.22155 31.3214 2.24045 31.2883 2.2688C31.1726 2.37983 31.0639 2.48378 30.9623 2.56883C31.0592 2.50741 31.2269 2.37038 31.4064 2.20265C31.475 2.20265 31.5506 2.20737 31.6167 2.20265C31.6025 2.22627 31.5836 2.25935 31.5647 2.29242C31.5317 2.29242 31.4986 2.29715 31.4797 2.30187C31.5033 2.3066 31.5269 2.3066 31.5506 2.31368C31.4844 2.42236 31.4017 2.5452 31.3025 2.68931L31.1537 2.81216C31.2978 2.76491 31.2269 2.86414 31.775 2.37038C31.7797 2.36093 31.7797 2.35621 31.7844 2.34676C31.8506 2.35148 31.9144 2.35621 31.9805 2.35621C31.9096 2.40818 31.8459 2.47906 31.7703 2.52158L31.0214 3.63193C31.8648 2.84051 31.6356 2.81216 32.075 2.35148C32.4058 2.32786 32.72 2.25935 32.9893 2.33258C32.9893 2.33258 32.9704 2.36566 32.8263 2.37511C34.0051 2.48851 34.9076 2.57355 35.8691 2.72239C32.6916 5.8928 29.3204 9.22858 26.0579 12.4888C25.4224 13.2518 26.6154 11.9903 26.2728 12.4132C25.3444 13.507 25.4271 13.1692 24.6805 14.0456L24.9499 13.6464C23.7308 14.8418 22.5756 16.2451 21.4676 17.4735C21.581 17.2019 20.4399 18.3666 21.366 17.3531C20.8085 17.9389 19.7619 18.2815 19.3934 18.7965L20.3643 18.4729C20.3643 18.539 19.5375 19.3186 19.6414 19.2572C19.0744 19.6966 18.3846 20.2329 18.0421 20.5754C17.7893 20.6629 18.6823 19.8147 19.1548 19.3446C19.0933 19.1343 17.4632 20.8519 18.0279 20.0439C17.0286 21.081 18.2429 19.9659 17.683 20.6251L16.7663 21.485L17.4963 20.8424C16.7947 21.6244 16.6411 21.9858 15.578 22.8954L14.6779 24.0553C14.5267 24.0506 14.1865 24.431 13.8038 24.8326C13.3455 24.3695 12.9439 23.975 12.8919 24.1711L13.4424 24.8609ZM32.205 2.1743C32.1672 2.2121 32.1246 2.23572 32.0845 2.2688C31.9994 2.27352 31.9144 2.27352 31.8317 2.27825C31.8553 2.23572 31.8718 2.20265 31.8766 2.17902C31.9427 2.1743 32.023 2.16958 32.0797 2.16013C32.1388 2.16485 32.1577 2.16958 32.205 2.1743ZM32.2569 2.17902C32.8027 2.24517 32.5404 2.25935 32.1577 2.2688C32.1766 2.2499 32.1861 2.23572 32.2097 2.21682C32.2286 2.19792 32.238 2.1932 32.2569 2.17902ZM46.512 5.46283C46.4978 5.48173 46.4789 5.49591 46.46 5.51481L46.2119 5.34471C46.297 5.37306 46.4057 5.42031 46.512 5.46283ZM53.8497 10.9225L53.845 10.913C53.845 10.9177 53.8497 10.9177 53.8497 10.9225ZM42.7817 28.8629C41.8485 29.9591 41.9359 29.6213 41.1894 30.4954L41.4587 30.0914C41.2248 30.3253 40.9886 30.5663 40.7547 30.8143C40.8421 30.2828 40.9035 29.7063 40.9508 29.0448C40.7996 28.5393 40.7807 29.6449 40.6743 29.7252C40.6318 29.3023 40.4263 27.8211 40.1877 27.1171V27.1076C40.2727 27.0462 40.3649 26.9824 40.4499 26.921C40.5208 27.1124 40.5846 27.3013 40.6413 27.4974C40.7736 27.8636 40.8657 28.2392 40.9271 28.6196C40.8468 27.9392 40.7121 27.5872 40.6365 27.2777C40.6082 27.1407 40.5657 27.0108 40.5113 26.8737C41.0571 26.4981 41.5863 26.1461 41.8839 25.7705L40.6602 26.3398C40.6743 26.2642 41.8107 25.1751 41.6784 25.2649C42.4367 24.6318 43.3675 23.8569 43.8471 23.375C44.1613 23.2238 42.9329 24.4121 42.2737 25.0688C42.3092 25.3074 44.596 22.9332 43.755 24.0128C45.1559 22.5764 43.4833 24.1451 44.2865 23.2521L45.5504 22.0473L44.5488 22.9521C45.541 21.8795 45.7961 21.4236 47.2514 20.1242L48.5508 18.5626C48.7988 18.5296 49.6162 17.5444 50.3769 16.8357L49.98 17.3625C50.9581 16.3821 51.355 16.0254 52.0094 15.4536C51.5511 16.0962 51.0975 16.3159 50.9487 16.6396L52.0614 15.5978C51.9952 15.5458 52.6307 14.8111 51.8228 15.5458C52.6024 14.5701 53.0749 13.9322 54.8845 12.1037C54.9341 12.1604 54.9814 12.2171 55.0286 12.2809C55.0664 12.3281 55.0948 12.3754 55.1302 12.4179L54.5892 12.8502C53.6348 13.9086 55.7893 11.7611 54.9105 12.8644L55.2058 12.5218C55.8035 13.3274 56.3185 14.1543 56.7532 15.0071C55.9689 15.7631 54.9199 16.8215 54.894 16.6443C51.0502 20.5235 46.7033 24.809 42.5667 28.9385C41.9312 29.7016 43.1195 28.4353 42.7817 28.8629ZM58.8841 21.8323C58.5628 22.0378 58.2297 22.2339 58.818 21.57L58.8416 21.5464C58.8558 21.6433 58.87 21.7378 58.8841 21.8323ZM26.4878 51.1928C26.4878 51.1928 26.4878 51.1928 26.4878 51.1976V51.1928ZM33.3885 51.1598C33.5327 51.1976 33.6437 51.2306 33.7335 51.259C33.6957 51.2968 33.6579 51.3346 33.6248 51.3724C33.4523 51.3582 33.2657 51.344 33.1358 51.344L33.3885 51.1598ZM33.9154 51.0629C33.8728 51.1101 33.835 51.155 33.7902 51.1976C33.6673 51.1834 33.5421 51.1645 33.4051 51.1503C33.4712 51.0676 33.5043 51.0298 33.5327 50.992C33.6579 51.0109 33.7854 51.044 33.9154 51.0629ZM33.1547 51.5259C33.0791 51.5165 33.0035 51.507 32.9255 51.4976L33.0649 51.396C33.2184 51.4149 33.3744 51.4433 33.5279 51.4692C33.4996 51.5023 33.4665 51.5354 33.4334 51.5685C33.3413 51.5543 33.2468 51.5401 33.1547 51.5259ZM49.3871 35.4424C48.4515 36.5362 48.5413 36.1983 47.7924 37.0748L48.0594 36.6732C46.8404 37.8686 45.6804 39.2743 44.5771 40.5004C44.6929 40.231 43.5495 41.3957 44.4779 40.3822C43.9133 40.9634 42.8714 41.3107 42.5029 41.8257L43.4691 41.502C43.4691 41.5682 42.647 42.3478 42.7533 42.2864C42.184 42.7234 41.4965 43.2574 41.1516 43.6046C40.9035 43.6897 41.7871 42.8439 42.2643 42.3667C42.2029 42.1635 40.5751 43.881 41.1374 43.066C40.1404 44.1102 41.3524 42.9951 40.7948 43.6519L39.8711 44.5095L40.6082 43.8716C39.9042 44.6512 39.753 45.0079 38.6875 45.9222L37.7898 47.0845C37.5748 47.0798 37.0196 47.8122 36.4668 48.313L36.7243 47.9114C36.0274 48.6225 35.7345 48.8729 35.2572 49.2745C35.5573 48.7831 35.9164 48.6603 35.992 48.4028L35.1911 49.1399C35.2572 49.1966 34.8131 49.7352 35.4014 49.2225C34.9808 49.7966 34.695 50.2171 33.9579 51.0156C32.7885 50.6967 31.3167 50.4581 30.0409 50.5691L29.9701 50.8597C29.8827 50.8597 29.8118 50.8644 29.7362 50.8644L29.989 50.6825L29.7031 50.8644C29.6015 50.8692 29.507 50.8739 29.4196 50.8834C29.6913 50.64 30.0835 50.1746 30.4804 49.8155L30.2181 50.2171C30.9151 49.5108 31.2104 49.2603 31.6899 48.8587C31.3875 49.3501 31.0308 49.473 30.9481 49.7305L31.7561 48.9934C31.6899 48.9367 32.1341 48.398 31.5411 48.9131C32.1435 48.0838 32.4436 47.5972 34.2532 45.8135C35.1675 45.1095 33.4712 46.7798 33.9106 46.5459C35.8219 44.7292 35.9211 43.9992 37.0244 42.9242C38.4631 41.5824 38.2859 41.5635 39.6916 40.1484C39.3136 40.6681 40.7499 39.2388 41.0807 39.0498L40.5988 39.683C41.0051 39.2294 41.4445 38.849 41.3665 39.0262C41.1894 39.012 43.11 37.1126 44.0385 36.0991L43.7833 36.1842C44.5204 35.3998 45.5174 34.2989 46.3442 33.5146C47.5207 32.2956 47.1758 32.494 48.0074 31.4805C48.5933 31.0482 48.624 31.1899 48.546 31.4522C48.1846 31.7286 47.6625 32.2956 47.1097 32.794C45.6662 34.3745 44.6574 35.7282 43.1053 37.1929C42.647 38.0458 44.1046 36.1511 44.9079 35.4896C44.896 35.5227 44.8488 35.5794 44.7968 35.6361C44.8582 35.5747 44.9173 35.518 44.9835 35.4613C44.4661 36.0259 43.6132 36.9354 43.5684 37.1835C44.4519 36.2598 44.0267 36.3306 45.241 35.2935C46.0206 34.4029 46.8545 33.8855 47.3766 33.3941C47.8586 32.7657 47.7239 32.5814 49.1201 31.249L48.6334 31.9577C50.1856 30.4151 49.1957 31.0718 50.6392 29.6449C50.1194 30.1339 51.0172 29.0496 50.0509 30.0016C50.4667 29.4724 51.4991 28.4211 52.3118 27.677C52.4961 27.4596 52.3165 27.5967 52.3165 27.5211C51.3739 28.3054 51.0266 28.9527 50.2045 29.548L49.7273 30.2686C48.8815 31.0246 48.7043 31.0104 49.1485 30.4718C48.9288 30.7009 48.7421 30.9159 48.5602 31.0576C48.2413 31.0151 49.5879 30.1623 49.7131 29.7347L49.1579 30.3111C48.7941 30.4387 50.3769 28.8913 51.1164 28.1731C51.9952 27.4029 52.7748 26.6682 52.9166 26.6966L51.8417 27.84C52.4819 27.3344 53.219 26.3871 53.8686 25.7492C53.9206 25.7161 53.9915 25.6642 54.0742 25.5933C54.0364 25.6216 54.0057 25.6311 53.9962 25.6216C54.1403 25.4941 54.275 25.3783 54.3978 25.298C54.9719 24.7357 55.7492 23.8569 56.2996 23.3561L56.1602 23.3466L56.1319 23.46C55.6121 23.975 54.8609 24.6271 55.1963 24.1805C56.3138 22.9615 56.6965 22.8765 57.0391 22.6615C56.8879 23.0466 55.898 23.7978 55.3452 24.431C55.8177 24.19 56.5429 23.2568 57.8281 22.1276C57.4737 22.7324 56.4295 23.5238 56.276 23.9041C57.2729 22.9568 57.436 22.6142 58.492 21.6244C58.4211 21.8134 57.4265 22.8127 57.5706 22.8221L58.2628 22.2032C56.654 23.8167 58.7022 22.0756 57.4737 23.3655C58.0573 22.8765 58.1872 22.5079 58.8889 21.8795C58.9314 22.1843 58.9834 22.489 59.0164 22.808C59.0755 23.3135 59.1322 23.8262 59.1936 24.3506C59.2078 24.7215 59.2172 25.1066 59.2314 25.4941C55.9854 28.7448 52.522 32.1704 49.1674 35.518C48.5319 36.2787 49.7225 35.0124 49.3871 35.4424ZM41.3949 58.3936C41.2909 58.4834 41.1516 58.6133 41.024 58.7361C41.0051 58.618 40.9838 58.4928 40.9602 58.3747C41.5248 57.9518 41.5248 58.103 41.3949 58.3936ZM55.8082 36.7181C55.8602 36.6401 55.9452 36.5504 56.0421 36.4417C55.9641 36.5362 55.8838 36.6259 55.8082 36.7181ZM57.3556 35.1093C57.2942 35.2321 57.2304 35.3502 57.1643 35.4707C57.0792 35.5558 56.9965 35.6408 56.902 35.7282C56.9965 35.6361 57.0792 35.5605 57.1501 35.4896C57.0627 35.6455 56.9729 35.7991 56.8737 35.9408L56.5618 36.2503C56.7674 35.9267 56.9682 35.6125 57.1643 35.2935C57.2257 35.2321 57.2942 35.1707 57.3556 35.1093ZM56.3138 36.3117L56.1744 36.4558C56.2996 36.2834 56.4201 36.1086 56.5193 35.9408C56.5713 35.8889 56.6185 35.8369 56.6729 35.7849C56.706 35.9172 56.8382 35.7755 56.5335 36.2739L56.2335 36.574L56.5004 36.3354C56.4532 36.4039 56.4083 36.4795 56.3516 36.574C56.4083 36.4889 56.4579 36.4039 56.5146 36.3165L56.7721 36.0897C56.361 36.659 55.9074 37.1315 55.6263 37.3985C55.5389 37.4457 55.5106 37.4363 55.5247 37.3796C55.5696 37.3063 55.6263 37.2213 55.6877 37.1315C55.7066 37.1032 55.7255 37.0843 55.7492 37.0512C55.7444 37.0606 55.735 37.0654 55.7303 37.0748C55.7893 36.9874 55.8555 36.8929 55.9263 36.7984C56.1177 36.6212 56.276 36.4464 56.3138 36.3117ZM50.4195 42.7282C50.4242 42.7329 50.4289 42.7423 50.4336 42.7471L50.3864 42.7612C50.4006 42.7518 50.41 42.7376 50.4195 42.7282ZM53.9206 45.8891C53.8875 45.9316 53.8545 45.9742 53.8214 46.0238C53.8001 46.0049 53.786 45.9883 53.7718 45.9742C53.8096 45.9364 53.8497 45.9033 53.8875 45.8702C53.897 45.875 53.9112 45.8844 53.9206 45.8891ZM55.1963 37.4693C55.1774 37.5071 55.1538 37.5497 55.1207 37.5922C55.1255 37.5638 55.1491 37.5213 55.1963 37.4693ZM40.5113 53.1253C42.4273 51.3062 42.5241 50.5786 43.6274 49.5013C45.0638 48.1594 44.8866 48.1405 46.2923 46.7278C45.9143 47.2452 47.3577 45.823 47.6814 45.6316L47.1994 46.26C47.6058 45.8088 48.0452 45.4284 47.9696 45.6033C47.8066 45.5891 49.5217 43.881 50.4856 42.8392C50.5092 42.8675 50.5281 42.8959 50.5541 42.9242C50.2801 43.2054 50.0131 43.4865 49.7084 43.7724C49.4012 44.3417 49.9564 43.6802 50.5966 42.9809C50.6203 43.0093 50.6392 43.0376 50.6628 43.066C50.4006 43.3755 50.1903 43.6472 50.1714 43.7629C50.4525 43.4723 50.5966 43.2857 50.7053 43.1251C50.71 43.1345 50.7148 43.1392 50.7195 43.1487C50.892 43.3471 50.9983 43.5716 51.2274 43.7629C51.4708 43.9472 51.7235 44.1385 51.981 44.337C52.2338 44.5284 52.5457 44.767 52.6496 44.8756C52.6827 44.8993 52.711 44.9323 52.7418 44.956C50.2234 47.1885 51.3361 46.8506 48.461 49.3076L48.5886 49.2509C46.0962 51.7102 43.5542 54.2097 41.0098 56.7139C40.8657 56.2863 40.7074 55.8185 40.6224 55.8988C40.4168 55.2562 39.6042 54.2286 39.29 54.023C39.642 53.6191 40.1263 53.1111 40.8515 52.3953C41.7682 51.6866 40.0719 53.3568 40.5113 53.1253ZM39.3561 54.5617C39.3608 54.5664 39.3656 54.5711 39.3703 54.5759C39.3656 54.5759 39.3655 54.5759 39.3655 54.5759C39.3608 54.5711 39.3608 54.5664 39.3561 54.5617ZM55.2861 47.2806C55.5791 47.5452 55.8838 47.8074 56.165 48.0886C56.2098 48.1642 56.2571 48.2398 56.3043 48.3177C55.683 49.0123 55.0711 49.7163 54.4805 50.3731C54.5986 50.1014 53.4529 51.2637 54.3789 50.2502C53.8214 50.8361 52.7796 51.1787 52.4063 51.6913L53.3749 51.3724C53.3749 51.4338 52.5551 52.2158 52.6543 52.1591C52.0921 52.5914 51.3975 53.13 51.055 53.4726C50.8069 53.5576 51.6952 52.7095 52.1677 52.2394C52.1063 52.0291 50.4762 53.7537 51.0408 52.9387C50.0415 53.9758 51.2558 52.8631 50.7006 53.5198L49.7792 54.3821L50.5092 53.7396C49.8076 54.5239 49.6588 54.8806 48.5886 55.7949L47.6956 56.9525C47.4806 56.9478 46.923 57.6801 46.3679 58.1833L46.6301 57.7841C45.9284 58.4881 45.6379 58.7409 45.1606 59.1401C45.4607 58.6511 45.8198 58.5282 45.9001 58.2707L45.0921 59.0078C45.1606 59.0645 44.7165 59.6032 45.3024 59.0881C44.7023 59.9174 44.4047 60.4017 42.5997 62.1877C41.6831 62.8917 43.377 61.2214 42.9376 61.4553C41.6241 62.7027 41.1657 63.4351 40.6507 64.1202C40.8185 63.239 40.8893 62.3531 40.8515 61.6112C40.9082 61.1742 40.946 60.7395 40.9413 60.3072C40.9838 61.1695 41.0051 61.1695 41.0712 61.212C41.1043 61.2498 41.1752 61.3301 41.1327 61.9633C41.239 60.9781 41.2083 60.0355 41.076 59.1023C41.3335 58.8212 41.6689 58.4834 42.1178 58.051L41.4091 58.9748C43.5258 56.8745 42.2407 57.8266 44.1991 55.8847C43.4975 56.5556 44.7543 55.1145 43.4455 56.4139C44.0267 55.7146 45.4371 54.2806 46.5309 53.2576C46.7931 52.967 46.5545 53.1631 46.5639 53.0781C45.3118 54.1672 44.7827 55.0011 43.7077 55.8516L43.0108 56.7848C41.8745 57.8266 41.6689 57.8408 42.2879 57.1273C41.9879 57.4415 41.7351 57.7274 41.487 57.9329C41.1185 57.9376 42.862 56.6855 43.0864 56.1563L42.3281 56.9383C41.8792 57.1557 44.0267 55.0389 45.0307 54.0585C46.2119 52.9907 47.2609 51.9819 47.4239 51.9913L45.9473 53.534C46.7978 52.8253 47.8349 51.5732 48.7232 50.7014C48.7894 50.6542 48.8815 50.5786 48.9902 50.4817C48.9382 50.5219 48.9051 50.5361 48.8957 50.5313C49.0918 50.3447 49.2642 50.1935 49.4249 50.0683C50.2045 49.3076 51.2841 48.1264 52.0283 47.4365L51.8629 47.4507L51.8086 47.5877C51.1022 48.2894 50.0982 49.1966 50.573 48.6083C52.1157 46.9711 52.5835 46.7939 53.0276 46.4845C52.7796 46.9664 51.4708 48.0319 50.7006 48.8776C51.2699 48.5256 52.2244 47.4129 53.7671 45.9742C53.7812 45.9883 53.8001 46.0096 53.8167 46.0238C53.1953 46.7656 52.1157 47.6751 51.9007 48.0886C52.8174 47.2026 53.2379 46.7136 53.8592 46.0663C53.8734 46.0805 53.8828 46.0947 53.9017 46.1088C53.8875 46.0947 53.8734 46.0805 53.8592 46.0663C53.9017 46.0238 53.9395 45.9789 53.9868 45.9316C54.0151 45.9505 54.0411 45.9647 54.0742 45.9883C53.7812 46.312 53.5474 46.5837 53.6206 46.579L54.1781 46.0663C54.1829 46.071 54.1923 46.0758 54.2018 46.0805C52.6874 47.6326 54.9908 45.6033 53.4103 47.231C53.8308 46.8648 54.0931 46.5553 54.3884 46.2222C54.6648 46.4325 54.9625 46.69 55.1822 46.931C55.5106 47.3468 55.5649 47.4696 55.2861 47.2806ZM61.034 55.9083C61.0198 55.9957 61.034 56.1327 61.0576 56.291C61.0387 56.3099 61.0245 56.3288 61.0056 56.3477C60.9962 56.1516 60.9962 55.9815 61.034 55.9083ZM20.1399 5.85973C18.6303 7.41422 19.0485 7.14018 17.9546 8.40881C17.2246 8.98997 17.2105 8.83405 17.3357 8.52457C17.794 8.15839 18.4626 7.43312 19.1689 6.78581C20.525 5.33526 21.6283 4.04536 22.8756 2.72711C23.015 2.68931 23.1473 2.65624 23.2914 2.61135C22.3606 3.59886 21.1416 4.89821 20.1399 5.85973ZM22.5614 2.81689C22.6087 2.80271 22.6654 2.78381 22.7221 2.76964C22.4835 3.01297 22.259 3.23504 22.0629 3.40278C22.0771 3.36025 22.1456 3.28938 22.2118 3.21614C22.1315 3.29883 22.0535 3.37443 21.9732 3.4453C22.1456 3.25867 22.3559 3.04132 22.5614 2.81689ZM63.5547 64.0871C63.5216 63.6004 63.5547 62.92 63.6138 62.2916C63.6232 61.6585 63.6279 61.0726 63.6327 60.7938C63.6516 61.3726 63.7886 61.9066 63.7177 62.4688C63.798 62.3011 63.8713 62.1357 63.928 61.968C63.9421 60.4844 63.8028 60.0166 63.6232 59.5843C63.4271 59.1448 63.3586 58.7172 63.12 57.3187C63.5216 58.7314 63.3941 57.7604 63.6468 58.4597C63.5453 58.0274 63.1058 55.8232 63.2452 57.184C63.068 56.1233 62.8105 55.4193 62.657 54.6916C62.2412 53.8199 61.8207 52.8773 61.4403 52.4497C60.8284 51.0912 60.3559 50.0825 60.0299 49.4352C59.1086 48.1547 58.1778 46.9664 57.1406 45.8419C56.6327 45.2702 56.0799 44.7292 55.5058 44.2047C55.2105 43.9425 54.9247 43.6708 54.6081 43.4298C54.3175 43.2007 53.897 42.8581 53.7954 42.8156L53.8828 42.8959C53.4103 42.5061 53.4434 42.6148 53.4907 42.7423C53.5521 42.8912 53.5663 42.9809 53.0134 42.5628C53.1906 42.5722 53.167 42.5014 53.0985 42.414C53.0371 42.3525 53.1552 42.2722 53.2331 42.2344L53.4718 42.0808C53.5615 42.0289 53.6442 41.9864 53.7151 41.9675C53.7151 41.9769 53.9584 41.7761 54.0884 41.6769C54.2396 41.5493 54.3884 41.4288 54.5325 41.3012C54.8184 41.0437 55.0995 40.8051 55.3594 40.5405C55.8838 40.0302 56.3516 39.5058 56.7957 38.9742C57.6887 37.9017 58.4778 36.789 59.2999 35.4943C59.333 35.5369 59.2858 35.7424 58.9881 36.2598C60.278 34.2848 60.9371 32.4279 61.3671 30.3395L61.3765 30.434C61.8018 28.7684 61.8655 27.0698 61.7025 25.4988C61.6458 24.6979 61.5915 23.8994 61.4167 23.0891C61.2489 22.2859 61.1852 21.4519 60.9277 20.6251C61.0292 20.8849 61.1332 20.9369 61.2206 21.1424C61.0245 20.2943 60.819 19.1674 60.4741 18.1492C60.0772 17.1452 59.7252 16.1931 59.3424 15.6923C58.9881 14.7071 58.8133 14.4024 58.6077 14.0409C58.4211 13.6605 58.1281 13.266 57.4832 12.0706C57.436 11.9171 57.6651 12.2761 57.7714 12.4179C57.1501 11.2319 56.491 10.5421 55.6452 9.48609C53.4529 7.46856 52.7276 7.19215 49.947 5.27856C49.9612 5.09193 50.4195 5.34471 50.9014 5.62112C51.3692 5.91642 51.8275 6.29206 51.9432 6.20228C51.6527 6.01565 51.3786 5.85028 51.088 5.64947C50.7833 5.47701 50.4573 5.27856 50.0745 5.00216C50.6297 5.1817 50.2234 4.99271 50.625 5.09193C50.3391 4.8675 49.6635 4.5651 49.0729 4.31704C48.4893 4.05009 47.9294 3.96976 47.9554 3.94141C47.8822 3.98866 48.0972 4.10206 48.6949 4.41154C47.8916 4.24145 45.7087 2.93501 44.1188 2.53103C44.6149 2.71766 46.1482 3.34608 45.5032 3.28465C44.4968 2.87831 43.7928 2.69404 43.162 2.55938C42.5336 2.43653 41.9595 2.43653 41.2201 2.29715C39.3466 1.64511 42.7037 2.39873 42.4131 2.0798C42.1178 1.90734 41.3854 1.51754 42.2265 1.64511C41.3571 1.39469 40.594 1.21751 39.8522 1.09466C39.0986 1.01197 38.371 0.945824 37.5795 0.827702L37.6362 0.771003C35.4108 0.437897 33.0176 0.522945 31.1631 0.359936L32.1483 0.470971C31.7844 0.499321 30.667 0.442622 30.0504 0.560745C30.1118 0.447347 29.0723 0.369386 29.129 0.289062C28.5597 0.461522 27.3808 0.518221 26.1996 0.728479C24.9262 0.889125 23.6647 1.22696 23.152 1.48446C22.5614 1.53644 22.9867 1.28366 23.1473 1.16553C24.5482 0.945825 25.0207 0.908025 25.7413 0.688317C24.5766 0.841876 23.7167 0.9411 23.8749 0.818252C23.2725 1.0167 22.3559 1.32618 21.4865 1.61676C20.6218 1.92624 19.8422 2.25935 19.5942 2.44126C18.7579 2.6019 17.9759 2.83106 18.1909 2.55465C14.8882 3.93669 20.01 2.41291 16.2891 3.90598C14.5314 4.43989 17.846 2.99407 15.4906 3.91779C15.6253 3.8351 15.767 3.77368 15.9064 3.70281C14.0471 4.04064 14.8598 4.50604 13.036 5.43921C12.6675 5.33526 14.2243 4.60763 12.873 5.10138C11.224 6.04872 10.7232 6.81652 9.10489 7.7615L9.2868 7.50636C8.29221 8.18202 6.36208 9.51917 5.46908 10.3318C5.39348 10.3318 5.5305 10.2279 5.70296 10.072C3.95002 11.4658 5.06746 10.7476 3.61928 11.8982L3.33815 12.3565C4.04452 11.7517 5.41238 10.6413 6.23215 9.82392C5.8329 10.2468 6.23924 10.0247 6.69755 9.7625C7.17004 9.51917 7.70396 9.24748 7.54331 9.50499L7.67088 9.29473C8.69855 8.71829 9.85379 8.06626 11.0681 7.41422C8.80722 9.64674 6.58652 11.8651 4.47921 14.022L5.63209 15.4017C6.28649 14.589 6.58652 14.022 7.31179 13.318C8.75052 11.9714 8.57334 11.9572 9.979 10.5421C9.60101 11.0618 11.0397 9.63256 11.3681 9.44357L10.8815 10.072C11.2925 9.62311 11.7319 9.24276 11.654 9.41994C11.4792 9.40104 13.3975 7.50636 14.3259 6.49286L14.0731 6.57791C14.3873 6.24008 14.7559 5.83846 15.1362 5.43448C15.2851 5.37306 15.4386 5.31636 15.5922 5.25021C14.9118 6.02982 14.2291 6.79053 13.3927 7.58668C12.9344 8.43952 14.3921 6.54484 15.1953 5.88335C15.1858 5.91643 15.1362 5.97312 15.0795 6.02982C15.148 5.96367 15.2047 5.9117 15.2709 5.855C14.7559 6.4149 13.9007 7.32917 13.8581 7.57723C14.7417 6.65351 14.3165 6.72438 15.5284 5.68727C15.7576 5.42503 15.9914 5.20296 16.2206 4.99271C16.2938 4.96436 16.3647 4.93601 16.4356 4.90766C16.3458 4.95491 16.1497 5.125 15.7812 5.5219L16.0411 5.27856C16.0009 5.36834 16.66 4.8297 15.9962 5.5219C16.3222 5.22659 16.5561 4.88876 16.4757 4.89348C16.686 4.8108 16.8868 4.71157 17.1018 4.63598C18.9729 3.64138 20.5203 3.37443 22.5472 2.82161C22.3559 3.02715 22.0866 3.28938 21.6566 3.67446C20.6407 4.79662 19.6084 5.51008 18.9445 6.14322C18.3043 6.92992 18.4389 7.11419 16.6458 8.83878L17.305 7.95758C15.3181 9.93732 16.5372 9.0514 14.6921 10.8799C15.3512 10.2468 14.1771 11.6123 15.4103 10.3909C14.8646 11.0524 13.5321 12.399 12.4997 13.3652C12.2564 13.6416 12.4856 13.455 12.4761 13.5401C13.6621 12.5124 14.1487 11.7233 15.1717 10.9272L15.8213 10.0436C16.8915 9.05849 17.09 9.0514 16.5135 9.72942C16.7947 9.43412 17.0333 9.16244 17.2624 8.97108C17.6215 8.9758 15.9631 10.1381 15.7623 10.6461L16.4757 9.90897C16.9104 9.71525 14.8787 11.7044 13.9385 12.6329C12.821 13.6322 11.8312 14.5795 11.6752 14.5654L13.0596 13.1125C12.2564 13.7787 11.2831 14.9646 10.4515 15.782C10.3853 15.8269 10.2932 15.8978 10.194 15.9876C10.2412 15.9545 10.2743 15.9403 10.2838 15.945C10.1018 16.1151 9.93648 16.264 9.78292 16.3774C9.25136 16.8971 8.57807 17.62 7.978 18.2248L8.01108 18.2626C8.55917 17.75 9.05528 17.3294 8.71273 17.7641C8.48357 18.0051 8.29221 18.2012 8.1103 18.3831L8.72218 19.1202C9.07182 18.6808 9.52541 18.1728 10.7468 17.1452L10.6192 17.1971C15.6016 12.2809 20.773 7.22522 25.8051 2.2499C26.0153 2.25935 26.2634 2.25935 26.4878 2.2499C26.8989 2.14123 27.4045 2.0231 27.9147 1.99475C28.1344 2.04673 28.9093 2.07508 29.7598 2.12705C23.3387 8.43952 16.5513 14.993 10.6145 21.0763C10.5649 21.0527 10.5176 21.029 10.4609 21.0007C10.5035 21.0432 10.5318 21.0763 10.5743 21.1188C10.5413 21.1519 10.5082 21.1897 10.4704 21.2228L11.4012 22.3378C11.0681 22.0992 10.7893 22.0047 10.1798 21.2322C10.6476 21.8795 10.4609 21.837 10.0877 21.5228C10.6381 22.2126 11.765 23.6608 11.6634 23.3277L11.4839 23.0607C11.5973 23.0702 11.9327 23.4222 12.1147 23.5758C12.8825 24.5042 12.3627 24.0979 12.4667 24.327C13.7046 25.8981 12.821 24.2467 13.981 25.6594L14.1015 25.8981C14.4488 26.2453 14.8362 26.706 15.2 26.973C15.3229 27.0155 15.4434 26.9304 15.5095 26.8359C15.5827 26.7509 15.6536 26.6635 15.715 26.5879C15.8402 26.4367 15.9158 26.2973 15.9347 26.2075L15.9725 26.1886C16.6128 25.8083 17.3971 24.731 18.146 24.3034C18.4342 24.4948 17.0616 25.383 16.0411 26.3682C15.8497 26.5501 15.6725 26.7225 15.5095 26.8785C15.3678 27.0982 15.1032 27.006 15.0323 26.9163C15.1906 27.1407 15.337 27.0982 15.3087 27.136C15.2992 27.169 15.148 27.2021 15.037 27.1076C14.789 26.9824 14.359 26.6068 14.1676 26.432C14.4771 26.7981 14.8126 27.0887 15.1126 27.273C15.3323 27.3888 15.519 27.2021 15.6631 27.0604L16.1356 26.6351C16.3553 26.3824 16.6222 26.1083 16.8089 25.9122C17.0238 25.7894 17.8318 25.3878 18.1413 24.9129L17.9546 25.0547C18.8453 24.275 18.472 24.3081 19.3461 23.7553C19.4997 23.6939 19.2847 23.9372 19.2351 24.0081C20.0289 23.4883 19.8186 23.4647 20.3242 23.0796C21.1416 22.5953 20.0336 23.4978 20.7211 23.108C21.5621 22.3851 22.2307 22.2575 23.0717 21.8512C22.8331 21.8134 23.6458 21.3291 24.3096 20.9818C24.7254 20.7763 25.068 20.5943 25.0255 20.5518C25.4035 20.429 25.7744 20.3203 26.1476 20.2234C25.8192 20.4053 25.5499 20.5754 25.857 20.5991C25.2735 20.7621 24.7065 20.9582 24.1372 21.1755C24.338 21.2724 25.1932 20.8755 26.2043 20.5613C27.2084 20.2282 28.3825 20.0581 28.9802 20.2187C29.4527 20.2045 29.6299 20.2045 29.9181 20.2282C30.204 20.2423 30.5961 20.2849 31.4655 20.4951C31.3828 20.377 31.293 20.266 31.2009 20.162C32.1294 20.377 32.3821 20.6038 32.4105 20.6723C32.9397 20.781 33.4051 20.9369 33.8681 21.1283C33.7287 21.1235 33.5374 21.0999 33.2279 21.0054C33.8232 21.381 34.0193 21.3905 34.2745 21.4188C34.6454 21.4897 35.1391 21.7661 35.6305 22.0567L35.1297 21.8984C35.4486 22.0378 35.8171 22.2433 35.8738 22.2292C36.0699 22.3567 36.2518 22.4796 36.4337 22.6001C36.3416 22.4749 36.155 22.0898 35.4675 21.6007C37.2677 22.7796 38.4631 24.1309 38.9309 25.8839C38.8198 25.8508 38.4442 25.2271 38.5198 25.4303C38.86 26.2264 39.2214 27.1124 39.3325 27.006C39.4081 27.1974 39.4128 27.358 39.4411 27.4927C39.3939 27.677 39.375 27.892 39.4033 28.3101C39.3844 28.4117 39.3703 28.5723 39.375 28.8771C39.7057 29.1771 39.4081 30.8805 39.3844 31.249C39.4908 30.8616 39.6042 30.3725 39.6042 29.8622C39.7246 30.5922 39.7435 31.301 39.4553 31.8089C39.6798 30.4765 38.8411 33.0988 39.323 31.1616C39.0017 31.7947 38.9923 31.9625 38.9781 32.1656C38.9687 32.3664 39.0112 32.6145 38.5812 33.2287C38.3851 33.4862 38.1465 33.7036 37.9315 33.9375C37.9174 33.8288 38.1182 33.5099 38.3095 33.2429C38.4678 32.9476 38.6167 32.7043 38.534 32.7799C38.4253 32.9665 38.3473 33.172 38.2198 33.3421C38.3521 33.0468 38.7395 32.3853 38.9734 31.5538C39.2356 30.7245 39.2805 29.7205 39.1506 28.9669C39.1553 29.978 38.997 30.9631 38.6356 31.842C38.1418 33.5996 36.5046 35.1234 34.5414 35.8511C33.5657 36.2361 32.5357 36.4606 31.5458 36.607C30.5607 36.7653 29.5968 36.7842 28.6802 36.8882L28.8337 36.8835C28.7699 36.8976 28.7369 36.9307 28.6896 36.9921L28.5266 36.9496L27.8108 37.0795C27.0028 36.9213 25.4838 36.8882 24.1939 36.7653C25.0066 36.8693 25.0066 36.8693 25.0822 36.9921C24.9262 37.1599 24.801 37.2307 23.5915 37.1693C23.582 37.0512 24.3238 37.0559 23.4355 36.9591C23.8938 37.0181 23.4875 37.1032 22.9607 37.1173C22.689 37.0843 21.9968 37.0512 21.4912 37.0323C20.9786 37.0512 20.688 37.1362 20.6313 37.1173C20.9313 36.9354 21.2951 36.9165 21.6094 36.9307C21.8338 36.9165 21.3424 36.8693 21.0235 36.9213C20.7211 36.9732 20.4825 37.0134 21.0235 36.789C20.7589 36.874 20.5297 36.9118 20.3431 37.1646C20.2108 37.389 20.1588 37.6253 20.1092 37.9206C20.0289 38.4356 20.0005 38.2537 19.9816 37.9584C19.9674 37.6702 20.0478 37.3607 19.958 37.5308C19.847 37.878 19.8989 38.3222 19.9084 38.6931C19.9178 38.8821 19.9249 39.064 19.9344 39.2435C19.9438 39.3546 19.9533 39.4633 19.9627 39.5672C20.0052 39.9783 20.0478 40.3539 20.0903 40.7295C20.1777 41.4713 20.2675 42.1919 20.3053 43.1109C20.2439 43.0235 19.9769 43.0046 20.0572 43.0235C19.9769 44.4386 20.3431 46.0521 20.3691 47.661C20.2864 47.4271 20.3195 46.8223 20.2817 46.338C20.258 47.5641 20.2391 48.7406 20.2155 49.884C20.2155 50.2124 20.2108 50.5455 20.2061 50.8739C20.2013 51.2826 20.173 51.7338 20.2722 52.0717C20.3242 52.2441 20.3384 52.3906 20.473 52.5394C20.6124 52.6906 20.7636 52.7142 20.9266 52.7733C21.2479 52.8914 21.6873 52.882 22.1031 52.8867C23.2583 52.9151 24.4089 52.9434 25.5759 52.9718C26.6839 53.019 27.8013 53.0733 28.9613 53.1206L30.1614 52.8489C30.5465 52.9245 30.9387 52.9812 31.3167 53.0686C33.6153 53.2907 35.5526 53.8435 36.944 54.9798C37.6362 55.5468 38.182 56.2697 38.5718 57.1273C38.9498 57.9943 39.16 58.9842 39.2569 60.0591C39.3278 61.4057 39.0844 60.8647 38.9923 61.479C38.8931 62.9011 38.697 63.7351 38.4631 64.5525C38.182 65.3439 37.837 66.1424 36.8614 67.0803C37.0811 66.7567 37.3457 66.185 36.533 66.9386C36.4125 67.1087 36.3983 67.3237 35.7534 67.6757C35.8455 67.5859 35.9447 67.5079 36.0227 67.4087C35.4014 67.6426 34.9383 68.1174 33.5705 68.4954C31.1915 69.1947 28.6424 69.3837 26.4595 69.3648C24.1703 68.9372 26.7453 69.1333 26.3201 68.9845C27.91 69.3128 27.4423 69.0648 27.7919 69.0175C26.9414 69.0364 25.8996 68.9183 25.5216 68.623C24.3663 68.3891 23.8749 68.2001 22.7315 67.919C23.3056 68.0607 23.745 68.3277 23.1969 68.2238C22.2827 67.8859 20.0525 66.7567 20.31 66.5913C19.1075 65.8944 17.9357 65.0439 16.7994 64.0871C16.2159 63.591 15.7056 63.1303 15.0795 62.5397C14.5881 62.1121 14.1015 61.8026 13.603 61.427C13.3975 61.2073 13.0171 61.2876 12.8116 61.3726C12.5777 61.46 12.3084 61.6112 12.0698 61.8546C9.69078 64.3163 7.27399 66.8134 4.90445 69.2656C4.24533 70.1279 5.50688 68.7081 5.1596 69.1994C4.18863 70.4374 4.2406 70.0263 3.46336 71.0209L3.72559 70.5555C3.07119 71.217 2.44514 71.9493 1.83326 72.6888L1.15996 73.5156L0.826858 73.9054C0.588251 74.1724 0.347281 74.4441 0.233883 74.7158C0.0850481 74.9449 0.0755983 75.3395 0.233883 75.5686C0.0992232 75.4056 0.186634 75.786 0.361455 76.0765C0.533915 76.3341 0.649674 76.5042 0.300031 76.0954C0.210258 75.982 0.0897729 75.8001 0 75.5686C0.0614241 75.7387 0.132297 75.9253 0.243333 76.1143C0.406342 76.3813 0.557539 76.6766 0.725273 76.9908C0.817409 77.2058 0.878832 77.4184 0.968606 77.6098C1.15051 77.9901 1.33715 78.3374 1.58993 78.5288L1.37022 77.3334C1.45055 77.3334 2.2774 78.3138 2.22543 78.1909C2.66012 78.8713 3.2909 79.632 3.68306 80.0218C3.76811 80.336 2.79006 79.332 2.23961 78.7957C1.9632 78.8997 3.98782 80.7329 3.01449 80.1282C4.26895 81.2078 2.91763 79.8848 3.73031 80.4613L4.78633 81.437L3.99727 80.6503C4.95406 81.3802 5.40293 81.4558 6.58179 82.5308L8.08195 83.23C8.0914 83.5159 9.06709 83.9034 9.75929 84.3688L9.23719 84.2152C10.194 84.7964 10.5696 85.0161 11.1484 85.4153C10.5035 85.2783 10.2743 84.9027 9.95538 84.9216L11.009 85.5594C11.0634 85.4484 11.7981 85.7343 11.0539 85.2594C12.1666 85.5878 12.7785 85.7484 15.3867 86.8446C16.4994 87.5155 14.0377 86.4926 14.4535 86.8777C15.8024 87.4966 16.7096 87.6715 17.4633 87.773C18.2145 87.9006 18.8287 87.9101 19.6462 88.1581C20.6833 88.5196 21.2077 88.5621 21.7204 88.6519C22.2307 88.7393 22.7528 88.8007 23.8466 88.9614C23.1237 88.9897 25.3562 89.363 25.7555 89.4953L24.8577 89.5472C25.4507 89.5709 26.0106 89.6654 26.0201 89.7433C26.3484 89.637 29.0322 89.852 30.4331 89.6417L30.1614 89.4905C30.752 89.4433 31.4655 89.3866 32.1813 89.3275C32.8924 89.2425 33.6153 89.148 34.2438 89.1102C36.103 88.881 35.6541 88.7251 37.0385 88.3377C37.8465 88.3471 37.7992 88.529 37.5654 88.7487C37.0527 88.7535 36.2235 88.9377 35.4014 89.0275C34.2296 89.2141 33.1948 89.448 32.1435 89.6276C31.0875 89.7481 30.0315 89.8756 28.8337 89.8378C28.3022 90.0056 28.7132 90.0339 29.396 89.9749C30.074 89.9134 31.0261 89.8095 31.6073 89.8567C31.5742 89.8804 31.4939 89.8898 31.4017 89.8993C31.508 89.8945 31.5978 89.8945 31.6947 89.8993C30.8395 89.9749 29.4432 90.0859 29.2046 90.2891C30.6528 90.1993 30.2418 89.8662 32.0325 89.9749C33.346 89.7717 34.4446 89.9418 35.2525 89.8945C36.1124 89.6323 36.0983 89.2992 38.2434 89.0039L37.3457 89.3772C38.5576 89.1858 38.8269 89.0322 39.0655 88.8905C39.3088 88.7535 39.5238 88.6188 40.6271 88.3566C39.8475 88.5196 41.3146 87.9715 39.8522 88.3188C40.1971 88.177 40.7641 87.9998 41.3949 87.8392C42.0209 87.6384 42.7037 87.4187 43.2967 87.2675C43.5873 87.1399 43.3345 87.1777 43.3675 87.0856C42.0398 87.3573 41.3807 87.8959 40.2397 87.9242L39.3844 88.3708C38.1418 88.581 37.9859 88.4109 38.7112 88.1581C38.371 88.2573 38.0709 88.3282 37.8087 88.3329C37.6693 88.1723 38.0473 88.1581 38.5009 88.1014C38.9498 88.0282 39.4813 87.9479 39.6561 87.7542L38.8056 87.9809C38.3851 87.8298 40.7594 87.3478 41.839 87.0147C43.0817 86.7288 44.2133 86.4146 44.3527 86.5351L42.7344 87.1352C43.1785 87.062 43.6983 86.873 44.2275 86.6674C44.7449 86.4335 45.2599 86.1595 45.7276 85.9776C45.7961 85.9729 45.8906 85.954 46.0064 85.9209C45.9521 85.9256 45.919 85.9209 45.9095 85.9067C46.1151 85.8358 46.297 85.7815 46.4647 85.7532C47.3058 85.472 48.3783 84.716 49.1485 84.416L48.9855 84.331L48.9288 84.4538C48.2035 84.8153 47.19 85.2263 47.6814 84.8531C47.8775 84.7397 48.0499 84.6452 48.2082 84.5601C48.2224 84.5554 48.2413 84.5459 48.2555 84.5388C48.2555 84.5388 48.2555 84.5388 48.2555 84.5341C49.3682 83.9648 49.7792 84.0309 50.1478 83.9128C49.9186 84.3593 48.5649 84.7349 47.783 85.2358C48.0783 85.2122 48.4988 85.0066 49.0634 84.716C49.6351 84.4444 50.3132 84.0262 51.1542 83.5726C50.8967 83.8774 50.4289 84.1727 49.9942 84.4396C49.5359 84.6688 49.1201 84.8743 48.9807 85.068C50.3958 84.4349 50.6061 83.9978 52.0188 83.2112C51.9102 83.4167 50.573 84.2648 50.7337 84.3357L51.6621 83.8396C49.4792 85.2216 52.2102 83.8585 50.5187 84.983C51.3881 84.5601 51.5511 84.1065 52.789 83.5112C52.4016 83.6269 51.3833 84.0356 52.4205 83.2702C52.8552 83.0411 53.2331 82.7269 53.6442 82.4599C54.2065 82.1788 52.5787 83.608 53.4009 83.1025L54.5797 82.0937C54.49 82.0654 53.8828 82.4882 54.1876 82.1268C54.5608 81.8835 54.8089 81.607 55.0475 81.3023C55.2672 80.9692 55.4775 80.603 55.8129 80.2085C56.4083 79.6415 56.9068 79.2092 57.1643 79.0509C57.7336 78.1579 58.5156 77.2767 59.1133 76.2868C59.6661 75.2733 60.337 74.3496 60.5993 73.4164C60.1693 74.6496 60.8426 73.4873 61.282 72.8258C60.656 74.196 60.8521 74.326 61.0292 74.2976C61.4167 73.44 61.4639 72.7927 61.1899 73.1778C61.5632 72.5069 61.6458 72.2494 61.7167 72.0179C61.8018 71.7887 61.8703 71.5832 62.142 70.9642C62.4892 70.1562 62.2176 71.4603 62.3947 71.2028C62.9286 69.6081 62.2695 70.6783 62.8861 68.9703C62.8861 69.0695 62.8436 69.2325 62.9287 69.1073C63.2499 68.1765 63.2783 67.0992 63.2216 66.8819C63.7886 65.9156 63.5311 63.9879 63.8146 64.2147C63.876 61.8546 63.6327 64.5572 63.5547 64.0871Z" fill="#6973A4"/>
</svg>
