<svg width="28" height="18" viewBox="0 0 28 18" fill="none" xmlns="http://www.w3.org/2000/svg">
<path d="M18.4194 1.73508H25.0982V3.37758H18.4194V1.73508ZM11.7272 8.23383C13.2036 7.51778 13.9769 6.42843 13.9769 4.7452C13.9769 1.41608 11.5331 0.608398 8.7109 0.608398H0.944092V17.3185H8.92851C11.9214 17.3185 14.7302 15.8593 14.7302 12.4657C14.7302 10.3684 13.7526 8.81753 11.7272 8.23383ZM4.56637 3.45903H7.96435C9.27333 3.45903 10.4484 3.82893 10.4484 5.36963C10.4484 6.78816 9.53445 7.35828 8.23887 7.35828H4.56637V3.45903ZM8.43304 14.4815H4.56302V9.87973H8.51004C10.1036 9.87973 11.1113 10.5551 11.1113 12.2654C11.1113 13.9487 9.9094 14.4815 8.43304 14.4815ZM27.7095 11.4442C27.7095 7.86393 25.6439 4.88095 21.9078 4.88095C18.2755 4.88095 15.8048 7.65352 15.8048 11.2881C15.8048 15.055 18.1449 17.6409 21.9078 17.6409C24.7567 17.6409 26.6014 16.3412 27.4885 13.5686H24.5994C24.2847 14.6036 23.0059 15.1466 22.0116 15.1466C20.09 15.1466 19.0856 14.0064 19.0856 12.0686H27.686C27.6961 11.8684 27.7095 11.658 27.7095 11.4442ZM19.0856 9.97136C19.1894 8.37976 20.2373 7.38543 21.804 7.38543C23.4511 7.38543 24.2747 8.36618 24.4186 9.97136H19.0856Z" fill="#484A56"/>
</svg>
