<svg width="20" height="20" viewBox="0 0 20 20" fill="none" xmlns="http://www.w3.org/2000/svg">
<path fill-rule="evenodd" clip-rule="evenodd" d="M7.23054 6.78283H10.8453V8.58341C11.366 7.54784 12.7014 6.61737 14.7073 6.61737C18.5528 6.61737 19.4657 8.67879 19.4657 12.461V19.4657H15.5726V13.3223C15.5726 11.1685 15.0519 9.9538 13.7263 9.9538C11.8877 9.9538 11.1237 11.2629 11.1237 13.3214V19.4657H7.23054V6.78283ZM0.554773 19.3003H4.44792V6.61737H0.554773V19.3003ZM5.00561 2.48188C5.00576 2.8082 4.94104 3.13129 4.81522 3.43238C4.68941 3.73347 4.505 4.00655 4.27273 4.23574C3.80205 4.70353 3.16494 4.96537 2.50135 4.96376C1.83892 4.96332 1.20328 4.70214 0.731911 4.23672C0.500475 4.00674 0.316694 3.73336 0.191099 3.43223C0.0655036 3.1311 0.000563661 2.80815 0 2.48188C0 1.82297 0.262787 1.19228 0.732885 0.727045C1.20384 0.260995 1.83974 -0.000291218 2.50232 2.43579e-07C3.1661 2.43579e-07 3.80263 0.261814 4.27273 0.727045C4.74185 1.19228 5.00561 1.82297 5.00561 2.48188Z" fill="#484A56"/>
</svg>
