<svg width="71" height="71" viewBox="0 0 71 71" fill="none" xmlns="http://www.w3.org/2000/svg">
<g filter="url(#filter0_b_1614_1299)">
<circle cx="35.5" cy="35.5" r="35.5" fill="white" fill-opacity="0.12"/>
</g>
<path d="M36.9106 15.8643C36.9106 16.8708 36.0995 17.6861 35.0958 17.6861C34.0977 17.6861 33.2866 16.8708 33.2866 15.8643C33.2866 14.8578 34.0977 14.0481 35.0958 14.0481C36.0995 14.0481 36.9106 14.8578 36.9106 15.8643Z" fill="#484A56"/>
<path d="M42.8054 32.5419C42.8054 36.8102 39.348 40.2793 35.0961 40.2793C30.8499 40.2793 27.3924 36.8103 27.3924 32.5419V17.384C27.3924 13.1142 30.8499 9.64517 35.0961 9.64517C39.3479 9.64517 42.8054 13.1143 42.8054 17.384V32.5419ZM35.0961 8.13345C30.0097 8.13345 25.8834 12.2749 25.8834 17.384V32.5419C25.8834 37.651 30.0097 41.7924 35.0961 41.7924C40.188 41.7924 44.3129 37.651 44.3129 32.5419V17.384C44.3129 12.2749 40.188 8.13345 35.0961 8.13345Z" fill="#484A56" stroke="#5E5873" stroke-width="0.3"/>
<path d="M27.1705 44.1384C26.8778 43.844 26.4009 43.8458 26.1043 44.1372L26.1043 44.1372L26.1021 44.1394C25.8124 44.4361 25.811 44.9136 26.1031 45.2074L26.1032 45.2075L34.5642 53.6995L34.5644 53.6996C34.713 53.8483 34.9048 53.9207 35.095 53.9207C35.29 53.9207 35.482 53.8488 35.6312 53.6996L35.6314 53.6995L44.0924 45.2075L44.0925 45.2074C44.3845 44.9136 44.3832 44.4361 44.0934 44.1394L44.0934 44.1394L44.0912 44.1372C43.7946 43.8458 43.3177 43.844 43.025 44.1384L35.095 52.0962L27.1705 44.1384ZM27.1705 44.1384L27.0641 44.2442L27.1704 44.1383L27.1705 44.1384Z" fill="#484A56" stroke="#5E5873" stroke-width="0.3"/>
<path d="M27.1705 52.6304L35.095 60.584L43.025 52.6304L27.1705 52.6304ZM27.1705 52.6304C27.1705 52.6304 27.1705 52.6303 27.1704 52.6303M27.1705 52.6304L27.1704 52.6303M27.1704 52.6303C26.8777 52.3359 26.4009 52.3377 26.1043 52.6291L26.1043 52.6291L26.1031 52.6304C25.8109 52.9243 25.8126 53.4002 26.1018 53.6981L26.1018 53.6981L26.1032 53.6995L34.5642 62.1914L34.5644 62.1916C34.713 62.3402 34.9048 62.4126 35.095 62.4126C35.29 62.4126 35.482 62.3407 35.6312 62.1916L35.6314 62.1914L44.0924 53.6995L44.0937 53.6981C44.3829 53.4002 44.3847 52.9243 44.0925 52.6304L44.0925 52.6304L44.0912 52.6291C43.7946 52.3378 43.3179 52.3359 43.0252 52.6302L27.1704 52.6303Z" fill="#484A56" stroke="#5E5873" stroke-width="0.3"/>
<defs>
<filter id="filter0_b_1614_1299" x="-10" y="-10" width="91" height="91" filterUnits="userSpaceOnUse" color-interpolation-filters="sRGB">
<feFlood flood-opacity="0" result="BackgroundImageFix"/>
<feGaussianBlur in="BackgroundImageFix" stdDeviation="5"/>
<feComposite in2="SourceAlpha" operator="in" result="effect1_backgroundBlur_1614_1299"/>
<feBlend mode="normal" in="SourceGraphic" in2="effect1_backgroundBlur_1614_1299" result="shape"/>
</filter>
</defs>
</svg>
