<svg width="32" height="32" viewBox="0 0 32 32" fill="none" xmlns="http://www.w3.org/2000/svg">
<path opacity="0.2" fill-rule="evenodd" clip-rule="evenodd" d="M8.79981 15.2002C8.79934 16.7405 9.20315 18.2539 9.97088 19.5892C10.7386 20.9245 11.8434 22.0349 13.1747 22.8094C14.5061 23.5839 16.0174 23.9954 17.5576 24.0028C19.0979 24.0102 20.6131 23.6132 21.9518 22.8514C22.0478 23.0098 22.1646 23.1602 22.3038 23.2978L27.1038 28.0978C27.5567 28.5348 28.163 28.7764 28.7923 28.7707C29.4216 28.7649 30.0234 28.5122 30.4682 28.067C30.9129 27.6218 31.1651 27.0198 31.1702 26.3905C31.1754 25.7612 30.9332 25.1551 30.4958 24.7026L25.6958 19.9026C25.5619 19.7682 25.4126 19.65 25.251 19.5506C25.9165 18.3794 26.3042 17.071 26.3843 15.7262C26.4643 14.3815 26.2346 13.0363 25.7127 11.7944C25.1909 10.5525 24.3909 9.4469 23.3743 8.56293C22.3578 7.67896 21.1519 7.04016 19.8496 6.69576C18.5472 6.35136 17.1832 6.31056 15.8626 6.5765C14.542 6.84244 13.3 7.40801 12.2325 8.22965C11.165 9.05128 10.3003 10.107 9.70516 11.3156C9.11002 12.5241 8.80028 13.8531 8.79981 15.2002Z" fill="#8778F7"/>
<path fill-rule="evenodd" clip-rule="evenodd" d="M7.72431 7.72492C6.98135 8.46788 6.39199 9.34991 5.9899 10.3206C5.58781 11.2914 5.38086 12.3318 5.38086 13.3825C5.38086 14.4332 5.58781 15.4737 5.9899 16.4444C6.39199 17.4151 6.98135 18.2971 7.72431 19.0401C8.46728 19.7831 9.34931 20.3724 10.32 20.7745C11.2908 21.1766 12.3312 21.3836 13.3819 21.3836C14.4326 21.3836 15.4731 21.1766 16.4438 20.7745C17.4145 20.3724 18.2965 19.7831 19.0395 19.0401C20.4968 17.5313 21.3031 15.5105 21.2849 13.4129C21.2667 11.3153 20.4253 9.30883 18.9421 7.82557C17.4588 6.3423 15.4523 5.50095 13.3547 5.48272C11.2571 5.4645 9.23633 6.27085 7.72751 7.72812L7.72431 7.72492ZM17.9067 17.9073C17.3148 18.5125 16.6088 18.9942 15.8295 19.3246C15.0501 19.6551 14.213 19.8276 13.3665 19.8323C12.52 19.8369 11.681 19.6736 10.8981 19.3518C10.1152 19.03 9.40389 18.556 8.80538 17.9574C8.20688 17.3588 7.73307 16.6474 7.41139 15.8645C7.08972 15.0815 6.92656 14.2425 6.93137 13.396C6.93618 12.5495 7.10886 11.7124 7.43942 10.9331C7.76998 10.1538 8.25184 9.44788 8.85711 8.85612C10.0619 7.67817 11.6827 7.02288 13.3676 7.03246C15.0526 7.04204 16.6658 7.71571 17.8572 8.90727C19.0485 10.0988 19.7219 11.7122 19.7312 13.3971C19.7404 15.0821 19.0849 16.7027 17.9067 17.9073Z" fill="#8778F7"/>
<path d="M17.9068 20.2032C17.6068 19.903 17.4383 19.4959 17.4385 19.0714C17.4386 18.647 17.6074 18.24 17.9076 17.94C18.2078 17.64 18.6149 17.4715 19.0394 17.4717C19.4638 17.4718 19.8708 17.6406 20.1708 17.9408L24.6956 22.4672C24.8484 22.6148 24.9703 22.7913 25.0542 22.9866C25.138 23.1818 25.1822 23.3917 25.184 23.6042C25.1858 23.8166 25.1454 24.0273 25.0649 24.2239C24.9845 24.4206 24.8657 24.5992 24.7154 24.7494C24.5652 24.8997 24.3866 25.0185 24.1899 25.0989C23.9933 25.1794 23.7826 25.2198 23.5702 25.218C23.3577 25.2162 23.1478 25.172 22.9526 25.0882C22.7573 25.0043 22.5808 24.8824 22.4332 24.7296L17.9068 20.2032Z" fill="#8778F7"/>
</svg>
