<svg width="32" height="32" viewBox="0 0 32 32" fill="none" xmlns="http://www.w3.org/2000/svg">
<path opacity="0.2" d="M21.2797 12.5311L29.7645 22.6431C30.113 23.044 30.3781 23.5103 30.5445 24.0148C30.7108 24.5193 30.775 25.0519 30.7333 25.5814C30.6916 26.111 30.5448 26.6269 30.3016 27.0992C30.0583 27.5714 29.7234 27.9905 29.3165 28.3319C28.9095 28.6733 28.4386 28.9302 27.9313 29.0877C27.4239 29.2451 26.8903 29.2999 26.3616 29.2489C25.8328 29.1979 25.3195 29.0421 24.8516 28.7906C24.3837 28.539 23.9707 28.1968 23.6365 27.7839L15.1517 17.6735C14.9547 17.4394 14.7806 17.1871 14.6317 16.9199C12.4653 16.9839 10.2957 16.0095 8.79966 14.2271C6.91166 11.9711 6.49246 8.89591 7.70046 6.44791C7.75938 6.32876 7.84706 6.22617 7.95557 6.14942C8.06408 6.07266 8.19001 6.02415 8.32198 6.00827C8.45394 5.99239 8.58779 6.00964 8.71141 6.05846C8.83504 6.10728 8.94455 6.18614 9.03006 6.28791L11.8173 9.6079C11.9535 9.77033 12.1487 9.87201 12.3599 9.89061C12.5711 9.90921 12.7811 9.84321 12.9437 9.7071L13.8733 8.92631C14.0357 8.79002 14.1374 8.59484 14.156 8.38363C14.1746 8.17243 14.1086 7.96248 13.9725 7.79991L11.1837 4.4783C11.0983 4.3763 11.0397 4.25462 11.0133 4.12428C10.9868 3.99394 10.9932 3.85906 11.0319 3.73183C11.0707 3.6046 11.1406 3.48904 11.2352 3.3956C11.3299 3.30217 11.4463 3.23381 11.5741 3.1967C14.1949 2.4319 17.1501 3.3775 19.0429 5.6319C20.5581 7.4383 21.1373 9.7791 20.6653 11.9199C20.8877 12.1055 21.0925 12.3103 21.2797 12.5311Z" fill="#00A16B"/>
<path fill-rule="evenodd" clip-rule="evenodd" d="M19.0012 12.118C18.8153 11.8961 18.6096 11.6916 18.3868 11.5068C18.8588 9.36597 18.2812 7.02357 16.7644 5.21877C14.8732 2.96277 11.9164 2.01877 9.29564 2.78197C9.16804 2.81926 9.05176 2.88777 8.95729 2.98128C8.86281 3.0748 8.79313 3.19039 8.75454 3.31759C8.71595 3.4448 8.70967 3.57961 8.73626 3.70986C8.76285 3.8401 8.82147 3.96167 8.90684 4.06357L11.6924 7.38517C11.8287 7.54754 11.895 7.75737 11.8767 7.96856C11.8584 8.17976 11.757 8.37506 11.5948 8.51157L10.6652 9.29237C10.5847 9.36001 10.4916 9.4111 10.3913 9.44273C10.291 9.47435 10.1854 9.48589 10.0807 9.47667C9.9759 9.46746 9.87397 9.43768 9.78072 9.38903C9.68748 9.34038 9.60473 9.27383 9.53724 9.19317L6.75164 5.87317C6.66617 5.77105 6.55657 5.69188 6.43277 5.64283C6.30896 5.59379 6.17488 5.57643 6.04266 5.59232C5.91045 5.60821 5.7843 5.65685 5.67564 5.73383C5.56699 5.81082 5.47927 5.91371 5.42044 6.03317C4.21244 8.48277 4.63004 11.558 6.52284 13.8124C8.01884 15.5948 10.1868 16.5708 12.3548 16.5052C12.502 16.7724 12.6748 17.0252 12.8732 17.2588L21.3564 27.3708C21.6927 27.7775 22.1062 28.1136 22.573 28.3598C23.0397 28.6059 23.5506 28.7573 24.0761 28.8052C24.6017 28.8531 25.1315 28.7965 25.6351 28.6387C26.1387 28.4809 26.606 28.225 27.0103 27.8858C27.4145 27.5466 27.7476 27.1307 27.9904 26.6621C28.2333 26.1936 28.381 25.6817 28.425 25.1558C28.4691 24.6299 28.4087 24.1005 28.2473 23.5981C28.0858 23.0957 27.8266 22.6301 27.4844 22.2284L19.0012 12.118ZM7.74844 12.7836C6.57244 11.3836 6.12284 9.59957 6.43644 7.98837L8.31164 10.222C8.72075 10.7095 9.30674 11.0145 9.94074 11.07C10.5747 11.1256 11.2048 10.927 11.6924 10.518L12.6236 9.73717C13.1109 9.32783 13.4157 8.74172 13.4709 8.10773C13.5261 7.47373 13.3272 6.84377 12.918 6.35637L11.0444 4.12277C12.6844 4.09077 14.3644 4.84597 15.5404 6.24597C16.8412 7.79797 17.2636 9.82997 16.7116 11.59C16.6591 11.7577 16.6632 11.938 16.7233 12.1031C16.7835 12.2683 16.8963 12.409 17.0444 12.5036C17.3194 12.6789 17.566 12.8953 17.7756 13.1452L26.2604 23.2572C26.463 23.4987 26.616 23.7778 26.7107 24.0784C26.8054 24.3791 26.8399 24.6954 26.8124 25.0094C26.7848 25.3234 26.6957 25.629 26.5501 25.9085C26.4044 26.1881 26.2052 26.4362 25.9636 26.6388C25.7221 26.8413 25.4431 26.9943 25.1424 27.089C24.8417 27.1837 24.5254 27.2183 24.2114 27.1907C23.8974 27.1632 23.5918 27.074 23.3123 26.9284C23.0327 26.7828 22.7846 26.5835 22.582 26.342L14.0988 16.23C13.8823 15.972 13.7079 15.6815 13.582 15.3692C13.5165 15.2063 13.3993 15.0695 13.2483 14.9799C13.0974 14.8903 12.9212 14.8528 12.7468 14.8732C10.934 15.086 9.03484 14.3164 7.74844 12.7836Z" fill="#00A16B"/>
</svg>
