<svg width="125" height="98" viewBox="0 0 125 98" fill="none" xmlns="http://www.w3.org/2000/svg">
<path d="M121.61 78.0724C121.326 78.0724 121.094 78.3044 121.094 78.5828C121.094 78.8663 121.326 79.0983 121.61 79.0983C121.893 79.0983 122.12 78.8663 122.12 78.5828C122.12 78.3044 121.893 78.0724 121.61 78.0724ZM121.61 80.1913C120.723 80.1913 120.001 79.4695 120.001 78.5828C120.001 77.7012 120.723 76.9795 121.61 76.9795C122.496 76.9795 123.218 77.7012 123.218 78.5828C123.218 79.4695 122.496 80.1913 121.61 80.1913Z" fill="black"/>
<path d="M19.6989 61.8747C19.0905 61.8747 18.5956 62.3696 18.5956 62.9779C18.5956 63.5811 19.0905 64.0812 19.6989 64.0812C20.302 64.0812 20.8021 63.5811 20.8021 62.9779C20.8021 62.3696 20.302 61.8747 19.6989 61.8747ZM19.6989 65.1741C18.4874 65.1741 17.5027 64.1843 17.5027 62.9779C17.5027 61.7664 18.4874 60.7817 19.6989 60.7817C20.9052 60.7817 21.895 61.7664 21.895 62.9779C21.895 64.1843 20.9052 65.1741 19.6989 65.1741Z" fill="black"/>
<path d="M17.224 17.1054C17.0693 17.1054 16.9456 17.2343 16.9456 17.3838C16.9456 17.5384 17.0693 17.6622 17.224 17.6622C17.3735 17.6622 17.5024 17.5384 17.5024 17.3838C17.5024 17.2343 17.3735 17.1054 17.224 17.1054ZM17.224 18.7551C16.4661 18.7551 15.8527 18.1416 15.8527 17.3838C15.8527 16.6311 16.4661 16.0125 17.224 16.0125C17.9767 16.0125 18.5953 16.6311 18.5953 17.3838C18.5953 18.1416 17.9767 18.7551 17.224 18.7551Z" fill="black"/>
<path d="M8.26915 47.7384C8.11449 47.7384 7.99076 47.8622 7.99076 48.0168C7.99076 48.1663 8.11449 48.2901 8.26915 48.2901C8.41866 48.2901 8.54754 48.1663 8.54754 48.0168C8.54754 47.8622 8.41866 47.7384 8.26915 47.7384ZM8.26915 49.3882C7.51131 49.3882 6.89783 48.7695 6.89783 48.0168C6.89783 47.259 7.51131 46.6455 8.26915 46.6455C9.02183 46.6455 9.64047 47.259 9.64047 48.0168C9.64047 48.7695 9.02183 49.3882 8.26915 49.3882Z" fill="black"/>
<path d="M4.96975 43.0266V43.109L5.01099 43.0678C5.01099 43.042 4.99037 43.0266 4.96975 43.0266ZM4.96975 44.202C4.3408 44.202 3.83557 43.6916 3.83557 43.0678C3.83557 42.4388 4.3408 41.9285 4.96975 41.9285C5.59355 41.9285 6.10393 42.4388 6.10393 43.0678C6.10393 43.6916 5.59355 44.202 4.96975 44.202Z" fill="black"/>
<path d="M44.759 1.67545V1.76309L44.8002 1.72185C44.8002 1.69607 44.7796 1.67545 44.759 1.67545ZM44.759 2.85603C44.13 2.85603 43.6196 2.34565 43.6196 1.72185C43.6196 1.0929 44.13 0.58252 44.759 0.58252C45.3828 0.58252 45.8931 1.0929 45.8931 1.72185C45.8931 2.34565 45.3828 2.85603 44.759 2.85603Z" fill="black"/>
<mask id="mask0_1625_8452" style="mask-type:luminance" maskUnits="userSpaceOnUse" x="24" y="0" width="5" height="3">
<path d="M24.0961 0H28.0554V2.63954H24.0961V0Z" fill="white"/>
</mask>
<g mask="url(#mask0_1625_8452)">
<path d="M26.0602 1.08781C25.9726 1.08781 25.9004 1.15998 25.9004 1.24762C25.9004 1.42291 26.2201 1.42291 26.2201 1.24762C26.2201 1.15998 26.1479 1.08781 26.0602 1.08781ZM26.0602 2.50037C25.3694 2.50037 24.8075 1.93844 24.8075 1.24762C24.8075 0.556807 25.3694 -0.00512695 26.0602 -0.00512695C26.7511 -0.00512695 27.313 0.556807 27.313 1.24762C27.313 1.93844 26.7511 2.50037 26.0602 2.50037Z" fill="black"/>
</g>
<path d="M93.1729 95.6525C93.0182 95.6525 92.8945 95.7814 92.8945 95.9309C92.8945 96.0856 93.0182 96.2093 93.1729 96.2093C93.3224 96.2093 93.4461 96.0856 93.4461 95.9309C93.4461 95.7814 93.3224 95.6525 93.1729 95.6525ZM93.1729 97.3022C92.415 97.3022 91.7964 96.6887 91.7964 95.9309C91.7964 95.1782 92.415 94.5596 93.1729 94.5596C93.9255 94.5596 94.539 95.1782 94.539 95.9309C94.539 96.6887 93.9255 97.3022 93.1729 97.3022Z" fill="black"/>
<path d="M43.6299 14.8732C41.377 15.1464 39.6242 17.0693 39.6242 19.3996C39.6242 21.9102 41.6709 23.9569 44.1867 23.9569C45.1817 23.9569 46.1405 23.6269 46.9242 23.0392C44.5733 22.3381 42.9081 20.1729 42.9081 17.6261C42.9081 16.6569 43.1608 15.7083 43.6299 14.8732ZM44.1867 25.0498C41.0677 25.0498 38.5312 22.5134 38.5312 19.3996C38.5312 16.2806 41.0677 13.7441 44.1867 13.7441C44.3671 13.7441 44.5527 13.7545 44.728 13.7699C44.9342 13.7905 45.1095 13.9194 45.1868 14.1102C45.2641 14.3009 45.2281 14.5174 45.094 14.6721C44.3877 15.497 44.0011 16.5435 44.0011 17.6261C44.0011 19.9873 45.7745 21.936 48.1202 22.1628C48.3264 22.1834 48.5017 22.3123 48.579 22.5031C48.6512 22.6887 48.6203 22.9052 48.4862 23.0599C47.4088 24.3229 45.8415 25.0498 44.1867 25.0498Z" fill="black"/>
<path d="M97.2557 72.7934C96.9928 72.7934 96.7608 72.6027 96.7144 72.3346C96.668 72.0356 96.8691 71.752 97.1681 71.7056L100.447 71.1746L101.298 67.5453C101.365 67.2514 101.658 67.071 101.952 67.138C102.251 67.2102 102.432 67.504 102.365 67.7979L101.432 71.7778C101.38 71.9943 101.205 72.1593 100.988 72.1954L97.3434 72.7883C97.3124 72.7883 97.2815 72.7934 97.2557 72.7934Z" fill="black"/>
<path d="M106.407 72.7934C106.376 72.7934 106.35 72.7883 106.319 72.7883L102.674 72.1954C102.458 72.1593 102.282 71.9943 102.231 71.7778L101.298 67.7979C101.231 67.504 101.411 67.2102 101.705 67.138C101.999 67.071 102.293 67.2514 102.365 67.5453L103.21 71.1746L106.494 71.7056C106.793 71.752 106.994 72.0356 106.948 72.3346C106.902 72.6027 106.67 72.7934 106.407 72.7934Z" fill="black"/>
<path d="M101.829 77.4539C101.788 77.4539 101.746 77.4488 101.705 77.4384C101.411 77.3714 101.231 77.0724 101.298 76.7786L102.231 72.7986C102.282 72.5821 102.458 72.4171 102.674 72.3862L106.319 71.7933C106.618 71.7366 106.896 71.9428 106.948 72.2418C106.994 72.5409 106.793 72.8244 106.494 72.8708L103.21 73.407L102.365 77.0312C102.303 77.2838 102.081 77.4539 101.829 77.4539Z" fill="black"/>
<path d="M101.829 77.4539C101.581 77.4539 101.354 77.2838 101.298 77.0312L100.447 73.407L97.1681 72.8708C96.8691 72.8244 96.668 72.5409 96.7144 72.2418C96.766 71.9428 97.0444 71.7366 97.3434 71.7933L100.988 72.3862C101.205 72.4171 101.38 72.5821 101.432 72.7986L102.365 76.7786C102.432 77.0724 102.251 77.3714 101.952 77.4384C101.911 77.4488 101.87 77.4539 101.829 77.4539Z" fill="black"/>
<path d="M16.3582 37.7322C16.0952 37.7322 15.8632 37.5415 15.822 37.2734C15.7704 36.9744 15.9767 36.696 16.2757 36.6496L20.07 36.031L21.0495 31.8448C21.1165 31.551 21.4104 31.3654 21.7042 31.4324C21.9981 31.5046 22.1837 31.7984 22.1167 32.0923L21.0495 36.6341C20.998 36.8507 20.8227 37.0156 20.6062 37.0517L16.4509 37.7271C16.42 37.7322 16.3891 37.7322 16.3582 37.7322Z" fill="black"/>
<path d="M26.8026 37.7322C26.7717 37.7322 26.7459 37.7322 26.715 37.7271L22.5546 37.0517C22.3381 37.0156 22.1628 36.8507 22.1112 36.6341L21.0492 32.0923C20.9822 31.7984 21.1627 31.5046 21.4565 31.4324C21.7504 31.3654 22.0442 31.551 22.1164 31.8448L23.0959 36.031L26.8903 36.6496C27.1893 36.696 27.3903 36.9744 27.3439 37.2734C27.2975 37.5415 27.0655 37.7322 26.8026 37.7322Z" fill="black"/>
<path d="M21.5802 43.0522C21.539 43.0522 21.4978 43.047 21.4565 43.0367C21.1627 42.9697 20.9822 42.6707 21.0492 42.3768L22.1112 37.835C22.1628 37.6184 22.3381 37.4535 22.5546 37.4225L26.715 36.742C27.0088 36.6905 27.2924 36.8967 27.3439 37.1957C27.3903 37.4947 27.1893 37.7731 26.8903 37.8247L23.0959 38.4381L22.1164 42.6294C22.0545 42.8821 21.8329 43.0522 21.5802 43.0522Z" fill="black"/>
<path d="M21.5805 43.0522C21.3331 43.0522 21.1062 42.8821 21.0495 42.6294L20.07 38.4381L16.2757 37.8247C15.9767 37.7731 15.7704 37.4947 15.822 37.1957C15.8684 36.8967 16.1519 36.6905 16.4509 36.742L20.6062 37.4225C20.8227 37.4535 20.998 37.6184 21.0495 37.835L22.1167 42.3768C22.1837 42.6707 21.9981 42.9697 21.7042 43.0367C21.663 43.047 21.6218 43.0522 21.5805 43.0522Z" fill="black"/>
<path d="M84.3879 33.2316C84.125 33.2316 83.893 33.0408 83.8466 32.7727C83.8002 32.4737 84.0013 32.1902 84.3003 32.1438L85.8727 31.886L86.2851 30.1229C86.3573 29.829 86.6511 29.6486 86.945 29.7156C87.2388 29.7878 87.4193 30.0817 87.3523 30.3755L86.8573 32.4944C86.8058 32.7057 86.6305 32.8707 86.414 32.9068L84.4756 33.2213C84.4446 33.2264 84.4137 33.2316 84.3879 33.2316Z" fill="black"/>
<path d="M89.2548 33.2316C89.2238 33.2316 89.1929 33.2264 89.1671 33.2213L87.2287 32.9068C87.007 32.8707 86.8318 32.7057 86.7854 32.4944L86.2853 30.3755C86.2183 30.0817 86.4039 29.7878 86.6977 29.7156C86.9916 29.6486 87.2854 29.829 87.3525 30.1229L87.7649 31.886L89.3424 32.1438C89.6414 32.1902 89.8425 32.4737 89.7909 32.7727C89.7497 33.0408 89.5177 33.2316 89.2548 33.2316Z" fill="black"/>
<path d="M86.8215 35.7058C86.7802 35.7058 86.739 35.7006 86.6977 35.6903C86.4039 35.6233 86.2183 35.3294 86.2853 35.0356L86.7854 32.9167C86.8318 32.7002 87.007 32.5404 87.2287 32.5043L89.1671 32.1898C89.461 32.1331 89.7445 32.3393 89.7909 32.6383C89.8425 32.9373 89.6414 33.2209 89.3424 33.2673L87.7649 33.5251L87.3525 35.283C87.2957 35.5356 87.0689 35.7058 86.8215 35.7058Z" fill="black"/>
<path d="M86.8213 35.7058C86.5686 35.7058 86.347 35.5356 86.2851 35.283L85.8727 33.5251L84.3003 33.2673C84.0013 33.2209 83.8002 32.9373 83.8466 32.6383C83.893 32.3393 84.1766 32.1331 84.4756 32.1898L86.414 32.5043C86.6305 32.5404 86.8058 32.7002 86.8573 32.9167L87.3523 35.0356C87.4193 35.3294 87.2388 35.6233 86.945 35.6903C86.9037 35.7006 86.8625 35.7058 86.8213 35.7058Z" fill="black"/>
<path d="M108.154 93.6315C108.598 93.9151 108.974 94.2914 109.252 94.7296C109.536 94.2914 109.912 93.9151 110.356 93.6315C109.912 93.3531 109.536 92.9768 109.252 92.5334C108.974 92.9768 108.598 93.3531 108.154 93.6315ZM109.252 97.1681C108.953 97.1681 108.706 96.9206 108.706 96.6165C108.706 95.2709 107.613 94.178 106.268 94.178C105.969 94.178 105.721 93.9357 105.721 93.6315C105.721 93.3273 105.969 93.085 106.268 93.085C107.613 93.085 108.706 91.9921 108.706 90.6466C108.706 90.3424 108.953 90.1001 109.252 90.1001C109.557 90.1001 109.804 90.3424 109.804 90.6466C109.804 91.9921 110.897 93.085 112.243 93.085C112.547 93.085 112.789 93.3273 112.789 93.6315C112.789 93.9357 112.547 94.178 112.243 94.178C110.897 94.178 109.804 95.2709 109.804 96.6165C109.804 96.9206 109.557 97.1681 109.252 97.1681Z" fill="black"/>
<mask id="mask1_1625_8452" style="mask-type:luminance" maskUnits="userSpaceOnUse" x="0" y="47" width="125" height="37">
<path d="M0 47.5117H124.399V83.1455H0V47.5117Z" fill="white"/>
</mask>
<g mask="url(#mask1_1625_8452)">
<path d="M5.00063 83.0371C0.695913 83.0371 0.453612 82.0989 0.329884 81.6297C0.061804 80.5935 0.907284 79.0572 9.20224 75.5413C14.935 73.1131 23.1784 70.2106 33.0354 67.1587C33.3241 67.0659 33.6283 67.2308 33.7211 67.5195C33.8087 67.8031 33.6489 68.1124 33.3602 68.2C6.62972 76.4898 1.18567 80.578 1.39189 81.3565C1.39189 81.372 2.0827 83.2021 19.7604 80.3357C31.5919 78.4128 47.1095 75.0257 63.4571 70.788C79.8048 66.5503 95.0182 61.9775 106.293 57.91C123.135 51.8318 122.847 49.8985 122.847 49.8831C122.646 49.1046 115.939 48.1766 88.6977 53.8682C88.4039 53.9352 88.1152 53.7444 88.0533 53.4454C87.9915 53.1516 88.1822 52.8629 88.4761 52.801C98.529 50.6976 107.092 49.2387 113.248 48.5891C122.161 47.6405 123.636 48.5685 123.904 49.6047C124.105 50.3831 124.641 52.4504 106.664 58.9359C95.3585 63.0189 80.1089 67.602 63.7304 71.85C47.3518 76.0929 31.7981 79.4903 19.9357 81.4132C12.4398 82.6299 7.84123 83.0371 5.00063 83.0371Z" fill="black"/>
</g>
<path d="M13.2596 79.3976C11.7645 79.3976 11.6717 79.047 11.5995 78.7532C11.4191 78.0572 11.1201 76.8921 33.3706 70.3293C33.6593 70.2468 33.9634 70.4118 34.0511 70.7005C34.1336 70.9892 33.9686 71.2934 33.6799 71.381C21.1318 75.0826 15.0485 77.3303 13.208 78.3407C13.2132 78.3407 13.2183 78.3407 13.2235 78.3407C17.3941 78.3407 36.768 74.402 62.4107 67.7929C88.0792 61.1734 106.958 55.2499 110.577 53.2393C108.505 53.2496 102.225 54.1931 89.7495 56.9409C89.4556 57.0079 89.1669 56.8223 89.0999 56.5284C89.0329 56.2294 89.2185 55.9407 89.5175 55.8737C111.711 50.9813 112.005 52.1309 112.186 52.8217C112.356 53.4765 112.583 54.3735 97.7042 59.0288C88.4194 61.9364 75.9847 65.4214 62.6839 68.8497C49.3779 72.2832 36.804 75.2424 27.2718 77.1859C18.9253 78.8924 15.0691 79.3976 13.2596 79.3976Z" fill="black"/>
<path d="M62.2355 37.5773C46.6045 37.5773 33.8863 50.2904 33.8863 65.9214C33.8863 81.5473 46.6045 94.2604 62.2355 94.2604C77.8614 94.2604 90.5797 81.5473 90.5797 65.9214C90.5797 50.2904 77.8614 37.5773 62.2355 37.5773ZM62.2355 95.3533C46.0013 95.3533 32.7933 82.1505 32.7933 65.9214C32.7933 49.6872 46.0013 36.4844 62.2355 36.4844C78.4646 36.4844 91.6726 49.6872 91.6726 65.9214C91.6726 82.1505 78.4646 95.3533 62.2355 95.3533Z" fill="black"/>
<path d="M78.6296 48.3158C77.8202 48.3158 77.1655 48.9757 77.1655 49.78C77.1655 50.5893 77.8202 51.2492 78.6296 51.2492C79.439 51.2492 80.0989 50.5893 80.0989 49.78C80.0989 48.9757 79.439 48.3158 78.6296 48.3158ZM78.6296 52.3422C77.217 52.3422 76.0674 51.1925 76.0674 49.78C76.0674 48.3725 77.217 47.2229 78.6296 47.2229C80.0422 47.2229 81.1918 48.3725 81.1918 49.78C81.1918 51.1925 80.0422 52.3422 78.6296 52.3422Z" fill="black"/>
<path d="M78.2169 55.4768C77.7426 55.4768 77.356 55.8582 77.356 56.3325C77.356 56.8068 77.7426 57.1935 78.2169 57.1935C78.6861 57.1935 79.0727 56.8068 79.0727 56.3325C79.0727 55.8582 78.6861 55.4768 78.2169 55.4768ZM78.2169 58.2864C77.1395 58.2864 76.2631 57.41 76.2631 56.3325C76.2631 55.2551 77.1395 54.3787 78.2169 54.3787C79.2893 54.3787 80.1657 55.2551 80.1657 56.3325C80.1657 57.41 79.2893 58.2864 78.2169 58.2864Z" fill="black"/>
<path d="M78.7273 79.248C76.9848 79.248 75.5671 80.6657 75.5671 82.4082C75.5671 84.1507 76.9848 85.5684 78.7273 85.5684C80.4698 85.5684 81.8875 84.1507 81.8875 82.4082C81.8875 80.6657 80.4698 79.248 78.7273 79.248ZM78.7273 86.6614C76.3816 86.6614 74.469 84.7539 74.469 82.4082C74.469 80.0625 76.3816 78.155 78.7273 78.155C81.073 78.155 82.9805 80.0625 82.9805 82.4082C82.9805 84.7539 81.073 86.6614 78.7273 86.6614Z" fill="black"/>
<path d="M46.2537 54.9613C42.944 54.9613 39.8096 53.5178 37.6598 50.9969C37.4639 50.7649 37.4948 50.4195 37.7216 50.2236C37.9536 50.0328 38.299 50.0586 38.4949 50.2854C40.4385 52.5641 43.2636 53.8684 46.2537 53.8684C51.8731 53.8684 56.4459 49.3008 56.4459 43.6814C56.4459 41.7276 55.8942 39.8355 54.8477 38.2013C54.6879 37.9435 54.7601 37.6084 55.0127 37.4435C55.2705 37.2836 55.6055 37.3558 55.7705 37.6136C56.9253 39.4231 57.5388 41.5213 57.5388 43.6814C57.5388 49.9039 52.4763 54.9613 46.2537 54.9613Z" fill="black"/>
<path d="M38.7425 74.1752C38.6033 74.1752 38.4641 74.1237 38.361 74.0206C37.5413 73.2266 37.0876 72.1595 37.0876 71.015C37.0876 68.7054 38.9693 66.8289 41.2789 66.8289C43.5885 66.8289 45.4702 68.7054 45.4702 71.015C45.4702 71.68 45.3207 72.3142 45.0217 72.9019C44.8877 73.1699 44.5577 73.2782 44.2897 73.1442C44.0216 73.005 43.9133 72.6802 44.0474 72.4069C44.2639 71.9739 44.3773 71.5048 44.3773 71.015C44.3773 69.3086 42.9854 67.9218 41.2789 67.9218C39.5725 67.9218 38.1806 69.3086 38.1806 71.015C38.1806 71.8605 38.5157 72.6492 39.124 73.237C39.3354 73.4483 39.3405 73.7937 39.1343 74.0103C39.0261 74.1185 38.8817 74.1752 38.7425 74.1752Z" fill="black"/>
<path d="M48.3623 91.7294C48.3262 91.7294 48.2901 91.7294 48.254 91.7191C47.955 91.6572 47.7643 91.3685 47.8262 91.0747C47.8622 90.9045 47.8777 90.7292 47.8777 90.554C47.8777 89.1259 46.7178 87.966 45.2949 87.966C44.7742 87.966 44.2741 88.1206 43.8462 88.4093C43.5988 88.5795 43.2585 88.5176 43.0884 88.265C42.9183 88.0175 42.9801 87.6773 43.2327 87.5072C43.8411 87.0896 44.5577 86.873 45.2949 86.873C47.3261 86.873 48.9758 88.5228 48.9758 90.554C48.9758 90.8014 48.95 91.0489 48.8985 91.2912C48.8469 91.549 48.6201 91.7294 48.3623 91.7294Z" fill="black"/>
</svg>
