<svg width="162" height="162" viewBox="0 0 162 162" fill="none" xmlns="http://www.w3.org/2000/svg">
<path d="M127.628 41.8915C127.144 41.8915 126.749 42.2857 126.749 42.7698C126.749 43.2539 127.144 43.655 127.628 43.655C128.112 43.655 128.499 43.2539 128.499 42.7698C128.499 42.2857 128.112 41.8915 127.628 41.8915ZM127.628 45.6607C126.044 45.6607 124.751 44.3674 124.751 42.7698C124.751 41.1722 126.044 39.8789 127.628 39.8789C129.211 39.8789 130.498 41.1722 130.498 42.7698C130.498 44.3674 129.211 45.6607 127.628 45.6607Z" fill="black"/>
<path d="M60.66 120.872C60.3627 120.872 60.1206 121.114 60.1206 121.412C60.1206 121.709 60.3627 121.951 60.66 121.951C60.9574 121.951 61.1926 121.709 61.1926 121.412C61.1926 121.114 60.9574 120.872 60.66 120.872ZM60.66 123.964C59.263 123.964 58.1288 122.816 58.1288 121.412C58.1288 120.008 59.263 118.86 60.66 118.86C62.0571 118.86 63.1913 120.008 63.1913 121.412C63.1913 122.816 62.0571 123.964 60.66 123.964Z" fill="black"/>
<path d="M73.9526 96.0992C72.6731 96.0992 71.6219 97.1505 71.6219 98.4438C71.6219 99.737 72.6731 100.788 73.9526 100.788C75.239 100.788 76.2902 99.737 76.2902 98.4438C76.2902 97.1505 75.239 96.0992 73.9526 96.0992ZM73.9526 102.801C71.5666 102.801 69.6232 100.851 69.6232 98.4438C69.6232 96.0439 71.5666 94.0867 73.9526 94.0867C76.3455 94.0867 78.282 96.0439 78.282 98.4438C78.282 100.851 76.3455 102.801 73.9526 102.801Z" fill="black"/>
<path d="M40.3129 77.2115C40.2023 77.2115 40.1193 77.3014 40.1193 77.4052C40.1193 77.6265 40.5066 77.6265 40.5066 77.4052C40.5066 77.3014 40.4167 77.2115 40.3129 77.2115ZM40.3129 79.6114C39.1026 79.6114 38.1205 78.6224 38.1205 77.4052C38.1205 76.188 39.1026 75.199 40.3129 75.199C41.5232 75.199 42.5053 76.188 42.5053 77.4052C42.5053 78.6224 41.5232 79.6114 40.3129 79.6114Z" fill="black"/>
<path d="M11.8259 116.605C11.7153 116.605 11.6254 116.695 11.6254 116.806C11.6254 117.02 12.0196 117.02 12.0196 116.806C12.0196 116.695 11.9297 116.605 11.8259 116.605ZM11.8259 119.012C10.6156 119.012 9.63354 118.023 9.63354 116.806C9.63354 115.588 10.6156 114.599 11.8259 114.599C13.0293 114.599 14.0114 115.588 14.0114 116.806C14.0114 118.023 13.0293 119.012 11.8259 119.012Z" fill="black"/>
<path d="M39.9395 36.5318C39.8358 36.5318 39.7459 36.6218 39.7459 36.7255C39.7459 36.9399 40.1332 36.9399 40.1332 36.7255C40.1332 36.6218 40.0502 36.5318 39.9395 36.5318ZM39.9395 38.9317C38.7292 38.9317 37.7471 37.9427 37.7471 36.7255C37.7471 35.5083 38.7292 34.5193 39.9395 34.5193C41.1498 34.5193 42.1319 35.5083 42.1319 36.7255C42.1319 37.9427 41.1498 38.9317 39.9395 38.9317Z" fill="black"/>
<path d="M111.887 127.186C111.776 127.186 111.693 127.269 111.693 127.38C111.693 127.594 112.081 127.594 112.081 127.38C112.081 127.269 111.998 127.186 111.887 127.186ZM111.887 129.586C110.677 129.586 109.695 128.597 109.695 127.38C109.695 126.163 110.677 125.174 111.887 125.174C113.097 125.174 114.079 126.163 114.079 127.38C114.079 128.597 113.097 129.586 111.887 129.586Z" fill="black"/>
<path d="M128.734 101.874L128.762 101.901C128.762 101.888 128.748 101.874 128.734 101.874ZM128.734 103.935C127.621 103.935 126.715 103.022 126.715 101.901C126.715 100.781 127.621 99.8682 128.734 99.8682C129.848 99.8682 130.754 100.781 130.754 101.901C130.754 103.022 129.848 103.935 128.734 103.935Z" fill="black"/>
<path d="M60.0788 88.2774C59.9751 88.2774 59.8852 88.3674 59.8852 88.4711C59.8852 88.6924 60.2725 88.6924 60.2725 88.4711C60.2725 88.3674 60.1895 88.2774 60.0788 88.2774ZM60.0788 90.6773C58.8754 90.6773 57.8934 89.6883 57.8934 88.4711C57.8934 87.2539 58.8754 86.2649 60.0788 86.2649C61.2891 86.2649 62.2712 87.2539 62.2712 88.4711C62.2712 89.6883 61.2891 90.6773 60.0788 90.6773Z" fill="black"/>
<path d="M59.1803 58.4483C59.0973 58.4483 59.035 58.5175 59.035 58.6005C59.035 58.7595 59.3255 58.7595 59.3255 58.6005C59.3255 58.5175 59.2633 58.4483 59.1803 58.4483ZM59.1803 60.4609C58.1567 60.4609 57.3268 59.624 57.3268 58.6005C57.3268 57.57 58.1567 56.7332 59.1803 56.7332C60.2038 56.7332 61.0338 57.57 61.0338 58.6005C61.0338 59.624 60.2038 60.4609 59.1803 60.4609Z" fill="black"/>
<path d="M91.0975 59.5688C83.2271 59.8108 76.899 66.3257 76.899 74.2999C76.899 82.4262 83.4692 89.0379 91.5402 89.0379C95.1987 89.0379 98.6913 87.6547 101.375 85.1995C93.8017 83.5535 88.3035 76.838 88.3035 68.8362C88.3035 65.5304 89.2856 62.3075 91.0975 59.5688ZM91.5402 91.0435C82.3626 91.0435 74.9003 83.5327 74.9003 74.2999C74.9003 65.067 82.3626 57.5493 91.5402 57.5493C92.045 57.5493 92.5707 57.577 93.1378 57.6323C93.5112 57.6669 93.8294 57.9089 93.9746 58.2547C94.1129 58.6075 94.0507 59.0017 93.8086 59.2852C91.5471 61.9548 90.3022 65.3437 90.3022 68.8362C90.3022 76.4715 95.9872 82.772 103.526 83.5051C103.899 83.5397 104.217 83.7748 104.356 84.1275C104.501 84.4733 104.432 84.8675 104.19 85.158C101.022 88.8996 96.409 91.0435 91.5402 91.0435Z" fill="black"/>
<path d="M68.9936 18.7988C68.5094 18.7988 68.0876 18.453 68.0046 17.955C67.9147 17.4086 68.2881 16.8899 68.8345 16.8L75.4047 15.7281L77.106 8.41784C77.2305 7.87839 77.77 7.54642 78.3025 7.67091C78.8419 7.7954 79.1739 8.34176 79.0494 8.88121L77.2029 16.8415C77.106 17.2357 76.7879 17.5331 76.3868 17.6023L69.1526 18.7849C69.0973 18.7988 69.0489 18.7988 68.9936 18.7988Z" fill="black"/>
<path d="M87.1622 18.7988C87.1069 18.7988 87.0585 18.7988 87.0031 18.7849L79.769 17.6023C79.3679 17.5331 79.0497 17.2357 78.9529 16.8415L77.1063 8.88121C76.9818 8.34176 77.3138 7.7954 77.8533 7.67091C78.3858 7.54642 78.9252 7.87839 79.0497 8.41784L80.7511 15.7281L87.3213 16.8C87.8676 16.8899 88.2342 17.4086 88.1443 17.955C88.0682 18.453 87.6463 18.7988 87.1622 18.7988Z" fill="black"/>
<path d="M78.0815 28.115C78.0054 28.115 77.9293 28.1081 77.8533 28.0873C77.3138 27.9629 76.9818 27.4234 77.1063 26.884L78.9529 18.9236C79.0497 18.5225 79.3679 18.2251 79.769 18.156L87.0031 16.9733C87.5495 16.8765 88.0613 17.2569 88.1443 17.8032C88.2342 18.3496 87.8676 18.8683 87.3213 18.9582L80.7511 20.0371L79.0497 27.3404C78.946 27.8038 78.531 28.115 78.0815 28.115Z" fill="black"/>
<path d="M78.0743 28.115C77.6247 28.115 77.2098 27.8038 77.106 27.3404L75.4047 20.0371L68.8345 18.9582C68.2881 18.8683 67.9147 18.3496 68.0046 17.8032C68.0945 17.2569 68.6063 16.8765 69.1526 16.9733L76.3868 18.156C76.7879 18.2251 77.106 18.5225 77.2029 18.9236L79.0494 26.884C79.1739 27.4234 78.8419 27.9629 78.3025 28.0873C78.2264 28.1081 78.1503 28.115 78.0743 28.115Z" fill="black"/>
<path d="M85.3918 135.361C84.9146 135.361 84.4927 135.015 84.4097 134.524C84.3198 133.971 84.6933 133.459 85.2327 133.369L92.8265 132.125L94.7837 123.701C94.9082 123.154 95.4546 122.823 95.9871 122.947C96.5197 123.078 96.8585 123.618 96.7271 124.157L94.6178 133.238C94.5278 133.632 94.2097 133.937 93.8086 133.999L85.5578 135.354C85.5025 135.361 85.4471 135.361 85.3918 135.361Z" fill="black"/>
<path d="M106.119 135.361C106.064 135.361 106.015 135.361 105.96 135.354L97.709 133.999C97.3079 133.936 96.9898 133.632 96.893 133.238L94.7836 124.157C94.6591 123.618 94.9911 123.078 95.5305 122.947C96.063 122.822 96.6025 123.161 96.727 123.701L98.6911 132.124L106.278 133.369C106.824 133.459 107.198 133.971 107.108 134.524C107.025 135.015 106.603 135.361 106.119 135.361Z" fill="black"/>
<path d="M95.7587 145.991C95.6827 145.991 95.6066 145.984 95.5305 145.964C94.9911 145.839 94.6591 145.293 94.7836 144.753L96.893 135.673C96.9898 135.278 97.3079 134.981 97.709 134.912L105.96 133.563C106.499 133.466 107.018 133.84 107.108 134.393C107.198 134.939 106.824 135.458 106.278 135.541L98.6911 136.793L96.727 145.217C96.6232 145.68 96.2152 145.991 95.7587 145.991Z" fill="black"/>
<path d="M95.7589 145.991C95.3024 145.991 94.8944 145.68 94.7837 145.217L92.8265 136.793L85.2327 135.541C84.6933 135.458 84.3198 134.939 84.4097 134.393C84.4996 133.84 85.0045 133.466 85.5578 133.563L93.8086 134.912C94.2097 134.981 94.5278 135.278 94.6178 135.673L96.7271 144.753C96.8585 145.293 96.5197 145.839 95.9871 145.964C95.911 145.984 95.835 145.991 95.7589 145.991Z" fill="black"/>
<path d="M3.4921 70.7864C3.00798 70.7864 2.5861 70.4337 2.50311 69.9358C2.4132 69.3894 2.78666 68.8707 3.33303 68.7877L7.946 68.027L9.14247 62.8814C9.26696 62.342 9.80641 62.0031 10.3389 62.1345C10.8784 62.259 11.2104 62.8054 11.0859 63.3448L9.73725 69.1404C9.64734 69.5416 9.32229 69.8389 8.92807 69.9081L3.65116 70.7726C3.59584 70.7795 3.54051 70.7864 3.4921 70.7864Z" fill="black"/>
<path d="M16.7364 70.7864C16.681 70.7864 16.6257 70.7795 16.5704 70.7726L11.3004 69.9081C10.8993 69.839 10.5811 69.5416 10.4912 69.1404L9.1426 63.3448C9.0112 62.8054 9.35008 62.259 9.88261 62.1345C10.4221 62.01 10.9615 62.342 11.086 62.8815L12.2825 68.027L16.8954 68.7877C17.4349 68.8707 17.8084 69.3894 17.7184 69.9358C17.6354 70.4337 17.2136 70.7864 16.7364 70.7864Z" fill="black"/>
<path d="M10.1108 77.5712C10.0348 77.5712 9.95869 77.5643 9.88261 77.5435C9.35008 77.419 9.0112 76.8796 9.1426 76.3332L10.4912 70.5376C10.5811 70.1365 10.8993 69.8391 11.3004 69.7699L16.5704 68.9054C17.1168 68.8086 17.6285 69.189 17.7184 69.7423C17.8084 70.2887 17.4349 70.8074 16.8954 70.8903L12.2825 71.6511L11.086 76.7966C10.9753 77.26 10.5673 77.5712 10.1108 77.5712Z" fill="black"/>
<path d="M10.1107 77.5712C9.65426 77.5712 9.24621 77.26 9.14247 76.7966L7.946 71.6511L3.33303 70.8903C2.78666 70.8074 2.4132 70.2887 2.50311 69.7423C2.59302 69.189 3.1048 68.8086 3.65116 68.9054L8.92807 69.7699C9.32229 69.8391 9.64734 70.1365 9.73725 70.5376L11.0859 76.3332C11.2104 76.8796 10.8784 77.419 10.3389 77.5435C10.2629 77.5643 10.1868 77.5712 10.1107 77.5712Z" fill="black"/>
<path d="M58.8961 138.598C58.8892 138.598 58.8822 138.598 58.8753 138.598L53.5362 138.501C52.9829 138.494 52.5472 138.031 52.5541 137.477C52.5679 136.924 52.9898 136.474 53.5707 136.488L58.246 136.571L60.3346 131.723C60.549 131.211 61.1369 130.976 61.6417 131.198C62.1535 131.419 62.3817 132.014 62.1673 132.525L59.809 137.989C59.6499 138.356 59.2903 138.598 58.8961 138.598Z" fill="black"/>
<path d="M66.5873 140.873C66.4766 140.873 66.3659 140.852 66.2553 140.818L61.2204 139.02C60.8331 138.888 60.5703 138.529 60.5496 138.128L60.2522 132.173C60.2245 131.62 60.6464 131.149 61.1997 131.122C61.7391 131.101 62.2163 131.516 62.244 132.069L62.5137 137.353L66.9192 138.923C67.4379 139.103 67.7146 139.677 67.5278 140.202C67.3826 140.617 66.9953 140.873 66.5873 140.873Z" fill="black"/>
<path d="M58.869 146.365C58.7375 146.365 58.5992 146.337 58.4747 146.282C57.9699 146.06 57.7347 145.472 57.956 144.961L60.3075 139.497C60.4665 139.124 60.8262 138.868 61.2411 138.888L66.5803 138.985C67.1336 138.992 67.5693 139.449 67.5624 140.009C67.5555 140.562 67.0852 141.005 66.5457 140.998L61.8774 140.915L59.7888 145.763C59.6228 146.143 59.2562 146.365 58.869 146.365Z" fill="black"/>
<path d="M58.8687 146.365C58.3431 146.365 57.9005 145.95 57.8728 145.41L57.6031 140.133L53.1976 138.563C52.6789 138.384 52.4092 137.803 52.589 137.284C52.7757 136.758 53.3498 136.482 53.8685 136.668L58.9033 138.467C59.2837 138.598 59.5465 138.951 59.5672 139.359L59.8715 145.313C59.8992 145.867 59.4704 146.337 58.9241 146.365C58.9033 146.365 58.8895 146.365 58.8687 146.365Z" fill="black"/>
<path d="M133.969 116.674C133.492 116.674 133.063 116.322 132.987 115.831C132.897 115.277 133.271 114.766 133.81 114.676L138.423 113.915L139.62 108.776C139.751 108.23 140.284 107.898 140.823 108.022C141.363 108.147 141.695 108.693 141.57 109.233L140.222 115.035C140.125 115.429 139.807 115.727 139.405 115.796L134.135 116.661C134.08 116.667 134.025 116.674 133.969 116.674Z" fill="black"/>
<path d="M147.214 116.674C147.165 116.674 147.11 116.667 147.055 116.661L141.785 115.796C141.384 115.727 141.065 115.429 140.969 115.035L139.62 109.233C139.496 108.693 139.827 108.147 140.367 108.022C140.906 107.898 141.439 108.23 141.57 108.776L142.767 113.915L147.373 114.676C147.919 114.766 148.293 115.277 148.203 115.831C148.12 116.322 147.698 116.674 147.214 116.674Z" fill="black"/>
<path d="M140.595 123.459C140.519 123.459 140.443 123.452 140.367 123.431C139.827 123.307 139.496 122.767 139.62 122.228L140.969 116.425C141.065 116.031 141.384 115.727 141.785 115.664L147.055 114.8C147.601 114.703 148.113 115.077 148.203 115.63C148.293 116.176 147.919 116.695 147.373 116.785L142.767 117.539L141.57 122.684C141.46 123.148 141.045 123.459 140.595 123.459Z" fill="black"/>
<path d="M140.595 123.459C140.139 123.459 139.73 123.148 139.62 122.684L138.423 117.539L133.81 116.785C133.271 116.695 132.897 116.176 132.987 115.63C133.077 115.077 133.589 114.703 134.135 114.8L139.405 115.664C139.807 115.727 140.125 116.031 140.222 116.425L141.57 122.228C141.695 122.767 141.363 123.307 140.823 123.431C140.747 123.452 140.671 123.459 140.595 123.459Z" fill="black"/>
<path d="M39.7117 105.014C39.2276 105.014 38.8057 104.661 38.7227 104.163C38.6328 103.617 39.0063 103.098 39.5457 103.015L44.9056 102.137L46.2888 96.1686C46.4133 95.6291 46.9597 95.2972 47.4922 95.4216C48.0247 95.5461 48.3636 96.0925 48.2322 96.6319L46.6969 103.251C46.607 103.645 46.2819 103.949 45.8877 104.011L39.8708 105C39.8154 105.007 39.7601 105.014 39.7117 105.014Z" fill="black"/>
<path d="M54.8158 105.014C54.7674 105.014 54.712 105.007 54.6567 105L48.6398 104.011C48.2456 103.949 47.9205 103.645 47.8306 103.251L46.2883 96.6319C46.1639 96.0925 46.4958 95.5461 47.0353 95.4216C47.5678 95.2972 48.1072 95.6291 48.2317 96.1686L49.6219 102.137L54.9748 103.015C55.5212 103.098 55.8947 103.617 55.8048 104.163C55.7218 104.661 55.2999 105.014 54.8158 105.014Z" fill="black"/>
<path d="M47.2635 112.76C47.1874 112.76 47.1113 112.746 47.0353 112.732C46.4958 112.601 46.1639 112.061 46.2883 111.522L47.8306 104.903C47.9205 104.509 48.2456 104.204 48.6398 104.142L54.6567 103.153C55.2031 103.056 55.7149 103.437 55.8048 103.983C55.8947 104.53 55.5212 105.048 54.9748 105.138L49.6219 106.016L48.2317 111.978C48.128 112.441 47.72 112.76 47.2635 112.76Z" fill="black"/>
<path d="M47.264 112.76C46.8075 112.76 46.3995 112.441 46.2888 111.978L44.9056 106.016L39.5457 105.138C39.0063 105.048 38.6328 104.53 38.7227 103.983C38.8126 103.437 39.3244 103.056 39.8708 103.153L45.8877 104.142C46.2819 104.204 46.607 104.509 46.6969 104.903L48.2322 111.522C48.3636 112.061 48.0247 112.601 47.4922 112.732C47.4161 112.746 47.3401 112.76 47.264 112.76Z" fill="black"/>
<path d="M32.7399 64.7213C32.2627 64.7213 31.834 64.3686 31.7579 63.8776C31.668 63.3243 32.0414 62.8125 32.5809 62.7226L34.7248 62.3699L35.292 59.9424C35.4164 59.396 35.9628 59.0709 36.4953 59.1885C37.0279 59.3199 37.3598 59.8594 37.2353 60.3988L36.523 63.4834C36.4262 63.8776 36.108 64.1819 35.7069 64.2441L32.9059 64.7075C32.8506 64.7144 32.7953 64.7213 32.7399 64.7213Z" fill="black"/>
<path d="M39.7873 64.7212C39.732 64.7212 39.6766 64.7142 39.6213 64.7073L36.8203 64.244C36.4192 64.1817 36.1011 63.8774 36.0042 63.4832L35.2919 60.3987C35.1674 59.8592 35.4994 59.3198 36.0388 59.1884C36.5713 59.0639 37.1108 59.4028 37.2353 59.9422L37.8024 62.3697L39.9464 62.7224C40.4927 62.8123 40.8593 63.3241 40.7694 63.8774C40.6933 64.3684 40.2645 64.7212 39.7873 64.7212Z" fill="black"/>
<path d="M36.267 68.3315C36.191 68.3315 36.1149 68.3246 36.0388 68.3038C35.4994 68.1793 35.1674 67.633 35.2919 67.0935L36.0042 64.009C36.1011 63.6148 36.4192 63.3105 36.8203 63.2482L39.6213 62.7848C40.1677 62.688 40.6794 63.0684 40.7694 63.6217C40.8593 64.168 40.4927 64.6867 39.9464 64.7697L37.8024 65.1225L37.2353 67.55C37.1315 68.0133 36.7166 68.3315 36.267 68.3315Z" fill="black"/>
<path d="M36.2602 68.3315C35.8107 68.3315 35.3957 68.0133 35.292 67.55L34.7248 65.1224L32.5809 64.7697C32.0414 64.6867 31.668 64.168 31.7579 63.6217C31.8478 63.0684 32.3527 62.6949 32.9059 62.7848L35.7069 63.2482C36.108 63.3105 36.4262 63.6148 36.523 64.009L37.2353 67.0935C37.3598 67.633 37.0279 68.1793 36.4953 68.3038C36.4123 68.3246 36.3363 68.3315 36.2602 68.3315Z" fill="black"/>
<path d="M103.885 61.5124C103.394 61.5124 102.965 61.1458 102.896 60.641C102.827 60.0877 103.207 59.5828 103.754 59.5137L106.797 59.1056L107.682 55.7237C107.82 55.1912 108.367 54.873 108.899 55.0113C109.432 55.1566 109.75 55.7029 109.612 56.2424L108.553 60.2675C108.45 60.6617 108.125 60.9522 107.724 61.0075L104.023 61.5055C103.975 61.5124 103.934 61.5124 103.885 61.5124Z" fill="black"/>
<path d="M113.139 61.782C113.077 61.782 113.015 61.775 112.952 61.7612L109.287 61.0489C108.886 60.9728 108.574 60.6616 108.491 60.2674L107.668 56.1869C107.558 55.6406 107.904 55.108 108.443 54.9974C108.989 54.8867 109.515 55.2394 109.626 55.7789L110.317 59.2023L113.326 59.7832C113.872 59.8939 114.225 60.4195 114.121 60.9659C114.031 61.4431 113.609 61.782 113.139 61.782Z" fill="black"/>
<path d="M108.381 66.3882C108.298 66.3882 108.215 66.3813 108.125 66.3536C107.592 66.2153 107.274 65.6689 107.412 65.1295L108.47 61.1044C108.574 60.7102 108.906 60.4128 109.307 60.3644L113.007 59.8595C113.554 59.7834 114.059 60.1776 114.128 60.724C114.204 61.2773 113.817 61.7822 113.27 61.8582L110.234 62.2663L109.349 65.6413C109.224 66.0908 108.823 66.3882 108.381 66.3882Z" fill="black"/>
<path d="M108.38 66.3878C107.917 66.3878 107.495 66.0627 107.398 65.5855L106.707 62.1621L103.698 61.5812C103.152 61.4774 102.799 60.9518 102.903 60.4054C103.007 59.8591 103.532 59.4994 104.072 59.6101L107.737 60.3155C108.138 60.3916 108.45 60.7028 108.533 61.104L109.356 65.1844C109.473 65.7238 109.12 66.2564 108.581 66.367C108.512 66.3809 108.443 66.3878 108.38 66.3878Z" fill="black"/>
<path d="M66.1303 59.7005C65.6462 59.7005 65.2243 59.3547 65.1413 58.8568C65.0514 58.3104 65.4248 57.7917 65.9712 57.7018L69.7681 57.0794L70.7571 52.8329C70.8816 52.2866 71.421 51.9546 71.9536 52.0791C72.493 52.2036 72.825 52.7499 72.7005 53.2894L71.5593 58.1928C71.4694 58.594 71.1513 58.8914 70.7502 58.9605L66.2893 59.6867C66.234 59.7005 66.1856 59.7005 66.1303 59.7005Z" fill="black"/>
<path d="M77.3276 59.7005C77.2723 59.7005 77.2239 59.7005 77.1685 59.6867L72.7077 58.9605C72.3066 58.8914 71.9884 58.594 71.8985 58.1928L70.7574 53.2894C70.6329 52.7499 70.9649 52.2036 71.5043 52.0791C72.0369 51.9546 72.5763 52.2866 72.7008 52.8329L73.6898 57.0794L77.4867 57.7018C78.033 57.7917 78.3996 58.3104 78.3097 58.8568C78.2336 59.3547 77.8117 59.7005 77.3276 59.7005Z" fill="black"/>
<path d="M71.7256 65.4406C71.6565 65.4406 71.5735 65.4337 71.5043 65.413C70.9649 65.2885 70.6329 64.749 70.7574 64.2096L71.8985 59.2992C71.9884 58.905 72.3066 58.6007 72.7077 58.5385L77.1685 57.8054C77.708 57.7154 78.2267 58.0889 78.3097 58.6353C78.3996 59.1886 78.033 59.7003 77.4867 59.7902L73.6898 60.4127L72.7008 64.666C72.5901 65.1294 72.1821 65.4406 71.7256 65.4406Z" fill="black"/>
<path d="M71.7253 65.4406C71.2758 65.4406 70.8608 65.1294 70.7571 64.666L69.7681 60.4127L65.9712 59.7902C65.4248 59.7003 65.0514 59.1886 65.1413 58.6353C65.2312 58.0889 65.743 57.7154 66.2893 57.8054L70.7502 58.5385C71.1513 58.6007 71.4694 58.905 71.5593 59.2992L72.7005 64.2096C72.825 64.749 72.493 65.2885 71.9536 65.413C71.8775 65.4337 71.8014 65.4406 71.7253 65.4406Z" fill="black"/>
<path d="M110.524 27.7486C110.047 27.7486 109.618 27.3959 109.542 26.9049C109.452 26.3585 109.819 25.8398 110.365 25.7499L114.162 25.1275L115.151 20.8741C115.276 20.3347 115.815 19.9958 116.355 20.1272C116.887 20.2517 117.226 20.7911 117.095 21.3375L115.96 26.2409C115.864 26.6352 115.545 26.9395 115.144 27.0017L110.69 27.7348C110.635 27.7417 110.58 27.7486 110.524 27.7486Z" fill="black"/>
<path d="M121.728 27.7486C121.673 27.7486 121.617 27.7417 121.562 27.7348L117.108 27.0017C116.707 26.9395 116.389 26.6352 116.292 26.2409L115.151 21.3375C115.027 20.7911 115.358 20.2517 115.898 20.1272C116.43 19.9958 116.97 20.3347 117.094 20.8741L118.083 25.1275L121.887 25.7499C122.427 25.8398 122.8 26.3585 122.71 26.9049C122.627 27.3959 122.205 27.7486 121.728 27.7486Z" fill="black"/>
<path d="M116.126 33.4887C116.05 33.4887 115.974 33.4818 115.898 33.4611C115.358 33.3366 115.027 32.7902 115.151 32.2508L116.292 27.3473C116.389 26.9531 116.707 26.6488 117.108 26.5796L121.562 25.8535C122.109 25.7566 122.62 26.137 122.71 26.6834C122.8 27.2297 122.427 27.7484 121.887 27.8383L118.083 28.4608L117.094 32.7072C116.991 33.1706 116.583 33.4887 116.126 33.4887Z" fill="black"/>
<path d="M116.126 33.4887C115.67 33.4887 115.262 33.1706 115.151 32.7072L114.162 28.4608L110.365 27.8383C109.819 27.7484 109.452 27.2297 109.542 26.6834C109.632 26.137 110.137 25.7635 110.69 25.8534L115.144 26.5796C115.545 26.6488 115.864 26.9531 115.96 27.3473L117.095 32.2508C117.226 32.7902 116.887 33.3366 116.355 33.4611C116.278 33.4818 116.202 33.4887 116.126 33.4887Z" fill="black"/>
<path d="M61.345 38.3298C61.8153 38.6756 62.2302 39.0906 62.5691 39.5608C62.908 39.0906 63.3229 38.6756 63.7932 38.3298C63.3229 37.9909 62.908 37.576 62.5691 37.1057C62.2302 37.576 61.8153 37.9909 61.345 38.3298ZM62.5691 43.6897C62.0158 43.6897 61.5663 43.2402 61.5663 42.6869C61.5663 40.8403 60.0793 39.3395 58.2466 39.3395C57.6933 39.3395 57.2438 38.89 57.2438 38.3298C57.2438 37.7765 57.6933 37.327 58.2466 37.327C60.0793 37.327 61.5663 35.8262 61.5663 33.9796C61.5663 33.4263 62.0158 32.9768 62.5691 32.9768C63.1224 32.9768 63.565 33.4263 63.565 33.9796C63.565 35.8262 65.0589 37.327 66.8916 37.327C67.4449 37.327 67.8875 37.7765 67.8875 38.3298C67.8875 38.89 67.4449 39.3395 66.8916 39.3395C65.0589 39.3395 63.565 40.8403 63.565 42.6869C63.565 43.2402 63.1224 43.6897 62.5691 43.6897Z" fill="black"/>
<path d="M142.117 71.25C142.4 71.3053 142.677 71.3814 142.947 71.4851C143.223 71.5819 143.486 71.7064 143.735 71.8516C143.846 71.2776 144.046 70.7313 144.33 70.2195C143.763 70.1088 143.216 69.9083 142.718 69.6178C142.656 69.9013 142.58 70.1849 142.483 70.4615C142.38 70.7313 142.255 71.001 142.117 71.25ZM145.028 75.6969C144.655 75.6969 144.288 75.4756 144.122 75.1091C143.355 73.4354 141.377 72.6954 139.717 73.47C139.212 73.7051 138.617 73.4838 138.389 72.979C138.327 72.8406 138.299 72.6954 138.299 72.5571C138.299 72.1767 138.513 71.8102 138.88 71.6442C139.682 71.2707 140.298 70.5999 140.609 69.763C140.913 68.9262 140.879 68.0133 140.505 67.2041C140.443 67.0658 140.415 66.9275 140.415 66.7822C140.415 66.4018 140.63 66.0422 140.996 65.8693C141.501 65.6342 142.089 65.8624 142.324 66.3603C142.691 67.1764 143.355 67.792 144.192 68.1032C145.021 68.4144 145.927 68.3729 146.73 67.9994C147.235 67.7712 147.822 67.9925 148.058 68.4974C148.12 68.6288 148.147 68.774 148.147 68.9193C148.147 69.2927 147.933 69.6593 147.567 69.8322C146.757 70.2056 146.149 70.8696 145.838 71.7064C145.533 72.5502 145.568 73.4562 145.941 74.2653C145.997 74.4037 146.031 74.5489 146.031 74.6872C146.031 75.0676 145.817 75.4341 145.45 75.6001C145.312 75.6624 145.174 75.6969 145.028 75.6969Z" fill="black"/>
<path d="M73.482 113.839C68.5578 113.839 63.6336 112.829 59.1105 110.823C58.5987 110.602 58.3705 110.007 58.5918 109.502C58.8201 108.99 59.4079 108.762 59.9128 108.984C67.7901 112.476 76.9469 112.767 85.0317 109.786C85.5504 109.599 86.1244 109.862 86.3112 110.387C86.5048 110.906 86.2351 111.48 85.7164 111.674C81.8019 113.119 77.6385 113.839 73.482 113.839Z" fill="black"/>
<path d="M56.4963 99.087C56.2612 99.087 56.0261 99.004 55.8324 98.8311C51.5998 95.0549 47.6439 87.5926 46.6341 81.4857C45.6866 75.7731 46.0739 71.5267 46.7655 65.6965C46.8278 65.1432 47.3188 64.749 47.8721 64.8182C48.4185 64.8804 48.8127 65.3784 48.7435 65.9317C48.0727 71.5889 47.7061 75.704 48.6052 81.1538C49.5458 86.8664 53.2251 93.817 57.1603 97.3234C57.5752 97.6969 57.6098 98.3331 57.2433 98.7481C57.0496 98.9694 56.773 99.087 56.4963 99.087Z" fill="black"/>
<path d="M39.8501 97.8558C39.5734 97.8558 39.2899 97.7382 39.0962 97.51C35.9287 93.7961 33.9922 89.0725 33.6464 84.1898C33.6049 83.6365 34.0199 83.1593 34.5732 83.1178C35.1334 83.0763 35.6036 83.4982 35.6382 84.0515C35.9564 88.4985 37.7199 92.814 40.6108 96.196C40.9705 96.6178 40.922 97.2541 40.5002 97.6138C40.3134 97.7797 40.0783 97.8558 39.8501 97.8558Z" fill="black"/>
<path d="M108.36 125.755C108.124 125.755 107.889 125.672 107.703 125.506C107.288 125.139 107.246 124.503 107.613 124.088C119.647 110.291 123.478 94.7089 118.996 77.7855C118.858 77.246 119.176 76.6927 119.709 76.5544C120.241 76.4092 120.788 76.7273 120.933 77.2668C125.594 94.8818 121.618 111.079 109.107 125.416C108.913 125.637 108.636 125.755 108.36 125.755Z" fill="black"/>
<path d="M36.6128 144.435C36.592 144.435 36.5713 144.435 36.5505 144.435C26.9719 143.847 16.1206 142.651 8.51996 135.921C8.105 135.555 8.0635 134.919 8.43005 134.504C8.78968 134.082 9.42596 134.04 9.84092 134.407C16.9644 140.721 27.4283 141.855 36.675 142.429C37.2283 142.464 37.6432 142.941 37.6156 143.494C37.581 144.027 37.1384 144.435 36.6128 144.435Z" fill="black"/>
<path d="M72.5003 39.6784C72.1684 39.6784 71.8433 39.5124 71.6566 39.2081C71.3592 38.7447 71.4975 38.1223 71.9609 37.8249C82.0098 31.3861 94.0644 28.5851 105.898 29.9476C106.451 30.0098 106.838 30.5078 106.776 31.0541C106.721 31.6074 106.216 32.0085 105.676 31.9394C94.2857 30.6392 82.7014 33.3226 73.0329 39.5193C72.8669 39.6231 72.6801 39.6784 72.5003 39.6784Z" fill="black"/>
<path d="M37.0557 114.011C36.9588 114.011 36.862 113.998 36.7652 113.97C31.018 112.234 25.5267 108.368 21.3148 103.077C17.7047 98.5403 14.8622 92.8484 12.8704 86.1468C12.7113 85.6143 13.0156 85.0541 13.5412 84.895C14.0738 84.7359 14.6271 85.0402 14.7861 85.5728C16.7019 92.0185 19.4268 97.4891 22.8778 101.818C26.8338 106.791 31.9724 110.422 37.3392 112.04C37.8717 112.199 38.1691 112.76 38.0101 113.292C37.8856 113.728 37.4844 114.011 37.0557 114.011Z" fill="black"/>
<path d="M111.935 154.277C111.728 154.277 111.506 154.207 111.327 154.069C110.891 153.723 110.815 153.094 111.147 152.658C120.165 140.97 126.438 127.124 129.287 112.608C129.398 112.061 129.924 111.709 130.463 111.812C131.003 111.923 131.355 112.449 131.252 112.995C128.333 127.816 121.936 141.952 112.731 153.889C112.53 154.145 112.233 154.277 111.935 154.277Z" fill="black"/>
<path d="M129.398 57.3834C129.184 57.3834 128.977 57.3143 128.79 57.1829C123.056 52.8189 117.316 48.9667 105.103 45.979C96.8655 43.9664 87.6534 44.5473 79.1468 47.6111C78.6281 47.7979 78.054 47.5281 77.8673 47.0025C77.6806 46.4769 77.9572 45.9029 78.4759 45.7161C87.3422 42.5279 96.9693 41.9262 105.573 44.0286C118.139 47.0993 124.294 51.242 130 55.5784C130.436 55.9103 130.526 56.5397 130.194 56.9823C129.993 57.2451 129.696 57.3834 129.398 57.3834Z" fill="black"/>
<path d="M51.0673 158.322C50.5763 158.322 50.1475 157.956 50.0783 157.451C50.0023 156.905 50.3895 156.393 50.9359 156.324C59.5809 155.155 68.0461 151.434 74.7823 145.853C75.2042 145.5 75.8335 145.562 76.1862 145.991C76.539 146.42 76.4767 147.056 76.0479 147.409C69.0351 153.225 60.2103 157.098 51.1987 158.315C51.1572 158.322 51.1088 158.322 51.0673 158.322Z" fill="black"/>
<path d="M47.2427 40.3906C47.1251 40.3906 47.0076 40.3699 46.8969 40.3284C46.3782 40.1347 46.1154 39.5538 46.309 39.0351C49.5457 30.1964 55.0509 22.3329 62.2366 16.2953C62.6585 15.9425 63.2878 15.9979 63.6405 16.4267C64.0002 16.8485 63.9379 17.4848 63.5161 17.8375C56.6001 23.647 51.2955 31.22 48.1764 39.7267C48.0311 40.1347 47.6507 40.3906 47.2427 40.3906Z" fill="black"/>
<path d="M22.0688 70.2609C21.6676 70.2609 21.2873 70.0188 21.1351 69.6177C18.0022 61.4292 16.9094 52.4868 17.9814 43.7795C18.0506 43.2262 18.5485 42.832 19.0949 42.9012C19.6413 42.9703 20.0285 43.4752 19.9663 44.0285C18.9289 52.4107 19.9801 61.0142 23.0024 68.8984C23.1961 69.4171 22.9402 69.9981 22.4284 70.1986C22.3108 70.2401 22.1863 70.2609 22.0688 70.2609Z" fill="black"/>
<path d="M140.367 101.867C140.346 101.867 140.325 101.867 140.305 101.86C139.751 101.826 139.336 101.348 139.371 100.795C139.945 91.7145 136.584 82.3364 130.38 75.7177C130.007 75.3097 130.021 74.6734 130.422 74.293C130.823 73.9127 131.459 73.9334 131.833 74.3345C138.41 81.3543 141.978 91.2926 141.363 100.92C141.328 101.452 140.893 101.867 140.367 101.867Z" fill="black"/>
<path d="M157.588 51.9751C157.352 51.9751 157.117 51.8921 156.924 51.7192C151.923 47.2031 146.287 43.4961 140.159 40.709C139.661 40.4807 139.433 39.886 139.661 39.3811C139.889 38.8762 140.484 38.648 140.982 38.8762C147.297 41.7533 153.106 45.564 158.258 50.2185C158.666 50.5919 158.701 51.2282 158.334 51.6362C158.141 51.8576 157.864 51.9751 157.588 51.9751Z" fill="black"/>
<path d="M90.9452 104.143C90.4887 104.143 90.0807 103.838 89.97 103.375C89.8386 102.835 90.1706 102.296 90.7031 102.165C94.7352 101.176 98.456 97.9458 100.655 93.5196C100.904 93.0216 101.506 92.8211 101.997 93.07C102.488 93.319 102.689 93.9276 102.44 94.4187C99.9844 99.3705 95.7726 102.995 91.1803 104.115C91.0973 104.136 91.0213 104.143 90.9452 104.143Z" fill="black"/>
<path d="M95.3989 116.322C95.0324 116.322 94.6866 116.121 94.5068 115.775C94.2578 115.284 94.4514 114.676 94.9425 114.427C103.906 109.793 109.805 99.8615 109.618 89.7157C109.604 89.1624 110.047 88.706 110.593 88.6921C111.126 88.706 111.603 89.1209 111.617 89.6811C111.818 100.574 105.482 111.238 95.8554 116.211C95.7102 116.287 95.5511 116.322 95.3989 116.322Z" fill="black"/>
<path d="M33.7224 128.577C28.7982 128.577 23.8256 126.875 19.9388 123.832C19.5031 123.493 19.427 122.864 19.7659 122.422C20.1048 121.986 20.7272 121.903 21.1629 122.249C24.9667 125.216 29.8978 126.786 34.7044 126.537C35.2508 126.516 35.7211 126.938 35.7557 127.491C35.7833 128.044 35.3545 128.521 34.8013 128.549C34.4486 128.563 34.0889 128.577 33.7224 128.577Z" fill="black"/>
<mask id="mask0_2739_1787" style="mask-type:luminance" maskUnits="userSpaceOnUse" x="152" y="63" width="10" height="14">
<path d="M152.733 63.7046H162V76.0981H152.733V63.7046Z" fill="white"/>
</mask>
<g mask="url(#mask0_2739_1787)">
<path d="M160.845 74.3553C160.478 74.3553 160.126 74.1478 159.953 73.7881C158.583 70.9664 156.633 68.3591 154.323 66.2428C153.915 65.8693 153.887 65.2331 154.254 64.825C154.627 64.41 155.257 64.3824 155.665 64.7558C158.162 67.0381 160.264 69.8599 161.744 72.9098C161.986 73.4078 161.779 74.0095 161.288 74.2515C161.142 74.3207 160.997 74.3553 160.845 74.3553Z" fill="black"/>
</g>
<path d="M36.599 25.5213C36.5091 25.5213 36.4122 25.5074 36.3154 25.4798C35.7898 25.3207 35.4855 24.7605 35.6446 24.228C37.1523 19.1516 39.9256 14.4902 43.6602 10.7556C44.0544 10.3614 44.6838 10.3683 45.0711 10.7625C45.4653 11.1567 45.4584 11.793 45.0711 12.1803C41.5647 15.6798 38.9712 20.0438 37.5603 24.802C37.4289 25.2377 37.0278 25.5213 36.599 25.5213Z" fill="black"/>
<path d="M49.9888 56.0762C49.9473 56.0762 49.9127 56.0693 49.8712 56.0693C49.3179 56.0001 48.9307 55.5021 48.9998 54.9489C49.2211 53.0677 49.8851 51.235 50.9086 49.6443C51.206 49.1809 51.8285 49.0495 52.2918 49.3538C52.7552 49.6581 52.8866 50.2806 52.5823 50.7439C51.7247 52.0787 51.1714 53.6141 50.9778 55.1909C50.9155 55.6958 50.4868 56.0762 49.9888 56.0762Z" fill="black"/>
<path d="M21.0385 35.584C21.0316 35.584 21.0178 35.5841 21.004 35.5771C20.4576 35.5633 20.0219 35.093 20.0426 34.5397C20.098 32.9491 20.5406 31.3722 21.3359 29.989C21.6057 29.5049 22.2212 29.3458 22.6984 29.6155C23.1756 29.8922 23.3416 30.5077 23.0649 30.9918C22.4356 32.0915 22.0829 33.3433 22.0414 34.6089C22.0206 35.1553 21.578 35.584 21.0385 35.584Z" fill="black"/>
<path d="M148.341 59.0571C148.141 59.0571 147.94 58.9949 147.767 58.8773L144.482 56.5742C144.033 56.2561 143.922 55.6268 144.233 55.1703C144.551 54.7208 145.174 54.6032 145.623 54.9213L148.908 57.2244C149.365 57.5425 149.476 58.1649 149.157 58.6214C148.964 58.9049 148.653 59.0571 148.341 59.0571Z" fill="black"/>
<path d="M81.3526 142.443C81.0621 142.443 80.7716 142.319 80.5711 142.07C80.2322 141.634 80.3013 140.998 80.7301 140.652L82.5836 139.165C83.0124 138.819 83.6418 138.888 83.9876 139.324C84.3334 139.753 84.2642 140.389 83.8285 140.735L81.975 142.229C81.7952 142.374 81.5739 142.443 81.3526 142.443Z" fill="black"/>
<mask id="mask1_2739_1787" style="mask-type:luminance" maskUnits="userSpaceOnUse" x="104" y="157" width="5" height="5">
<path d="M104.929 157.541H108.47V161.912H104.929V157.541Z" fill="white"/>
</mask>
<g mask="url(#mask1_2739_1787)">
<path d="M106.167 161.843C105.96 161.843 105.745 161.773 105.566 161.642C105.13 161.31 105.033 160.681 105.365 160.231L106.478 158.744C106.81 158.302 107.433 158.212 107.875 158.544C108.318 158.876 108.408 159.505 108.076 159.948L106.963 161.441C106.769 161.704 106.472 161.843 106.167 161.843Z" fill="black"/>
</g>
<path d="M95.7727 21.6762C95.3301 21.6762 94.929 21.3788 94.8114 20.9293C94.6662 20.3898 94.9843 19.8434 95.5168 19.6982L102.198 17.907C102.73 17.7617 103.277 18.0799 103.415 18.6193C103.56 19.1518 103.242 19.7051 102.709 19.8504L96.0286 21.6416C95.9456 21.6623 95.8626 21.6762 95.7727 21.6762Z" fill="black"/>
<mask id="mask2_2739_1787" style="mask-type:luminance" maskUnits="userSpaceOnUse" x="0" y="92" width="6" height="11">
<path d="M0 92.0325H5.78178V102.655H0V92.0325Z" fill="white"/>
</mask>
<g mask="url(#mask2_2739_1787)">
<path d="M4.73052 101.943C4.49537 101.943 4.26023 101.86 4.06658 101.694C2.04711 99.8818 0.636243 97.4128 0.0967942 94.7432C-0.0138619 94.1969 0.338853 93.6643 0.878302 93.5606C1.41775 93.4499 1.95028 93.8027 2.05402 94.3421C2.51048 96.5898 3.69311 98.6646 5.39445 100.186C5.80941 100.56 5.84399 101.196 5.47744 101.611C5.2838 101.832 5.00716 101.943 4.73052 101.943Z" fill="black"/>
</g>
<path d="M85.841 5.85916C85.4191 5.85916 85.0249 5.58252 84.8866 5.16064C84.7206 4.62811 85.0111 4.061 85.5367 3.89502C92.3213 1.70956 99.3687 0.402435 106.478 0.00130598C107.032 -0.026358 107.502 0.388601 107.53 0.948798C107.564 1.50208 107.142 1.97237 106.589 2.00695C99.6453 2.40116 92.7708 3.68062 86.1453 5.81075C86.0416 5.83841 85.9447 5.85916 85.841 5.85916Z" fill="black"/>
<path d="M120.587 3.61826C120.56 3.61826 120.525 3.61825 120.491 3.61134L116.79 3.24479C116.244 3.18946 115.843 2.69843 115.898 2.14515C115.954 1.59187 116.445 1.19074 116.991 1.24607L120.684 1.61261C121.237 1.66794 121.639 2.15898 121.583 2.71226C121.535 3.23096 121.099 3.61826 120.587 3.61826Z" fill="black"/>
<path d="M156.481 95.9194C156.467 95.9194 156.453 95.9194 156.44 95.9194C155.886 95.8918 155.464 95.4215 155.485 94.8682C155.596 92.1986 154.877 89.4876 153.452 87.2399C153.161 86.7696 153.3 86.1471 153.763 85.8497C154.226 85.5524 154.842 85.6907 155.139 86.161C156.778 88.7545 157.608 91.8805 157.484 94.9581C157.456 95.4976 157.014 95.9194 156.481 95.9194Z" fill="black"/>
<path d="M56.3926 78.74C55.9638 78.74 55.5696 78.4633 55.4382 78.0345C54.4354 74.8393 54.2902 71.4159 55.0163 68.1377C55.1408 67.5983 55.6734 67.2525 56.2128 67.377C56.7522 67.4945 57.0842 68.034 56.9666 68.5803C56.3165 71.5058 56.441 74.5696 57.3401 77.4328C57.5061 77.9584 57.2156 78.5256 56.69 78.6915C56.5932 78.7261 56.4894 78.74 56.3926 78.74Z" fill="black"/>
</svg>
