<svg width="154" height="79" viewBox="0 0 154 79" fill="none" xmlns="http://www.w3.org/2000/svg">
<mask id="mask0_1625_8448" style="mask-type:luminance" maskUnits="userSpaceOnUse" x="141" y="38" width="13" height="41">
<path d="M141.251 38.283H153.225V78.9584H141.251V38.283Z" fill="white"/>
</mask>
<g mask="url(#mask0_1625_8448)">
<path d="M152.318 78.3128C151.99 78.3128 151.728 78.0509 151.728 77.7282C151.728 64.4207 148.169 51.3471 141.429 39.92C141.265 39.644 141.358 39.2839 141.634 39.1202C141.915 38.9518 142.275 39.05 142.439 39.326C149.282 50.9308 152.902 64.2102 152.902 77.7282C152.902 78.0509 152.64 78.3128 152.318 78.3128Z" fill="black"/>
</g>
<path d="M136.803 32.6044C136.625 32.6044 136.452 32.5249 136.335 32.3752C122.036 13.7308 100.407 3.0427 76.9962 3.0427C76.1403 3.0427 75.2889 3.05673 74.4423 3.0848C74.1243 3.10351 73.8483 2.84157 73.8389 2.51882C73.8249 2.19608 74.0822 1.92478 74.4049 1.91543C75.2656 1.88268 76.1262 1.86865 76.9962 1.86865C100.777 1.86865 122.742 12.7298 137.266 31.6596C137.462 31.9168 137.415 32.2864 137.158 32.4828C137.051 32.567 136.924 32.6044 136.803 32.6044Z" fill="black"/>
<path d="M26.2079 22.7724C26.0489 22.7724 25.8899 22.7069 25.7776 22.5806C25.5578 22.342 25.5765 21.9725 25.815 21.7527C37.3731 11.1909 51.6394 4.53951 67.0705 2.51415C67.3932 2.47673 67.6879 2.69658 67.73 3.01932C67.7721 3.34207 67.5429 3.63675 67.2248 3.67885C52.0324 5.66678 37.9859 12.2199 26.6055 22.618C26.4933 22.7209 26.3529 22.7724 26.2079 22.7724Z" fill="black"/>
<mask id="mask1_1625_8448" style="mask-type:luminance" maskUnits="userSpaceOnUse" x="0" y="29" width="20" height="50">
<path d="M0 29.9009H19.1122V78.9584H0V29.9009Z" fill="white"/>
</mask>
<g mask="url(#mask1_1625_8448)">
<path d="M1.67457 78.3127C1.34714 78.3127 1.08521 78.0508 1.08521 77.728C1.08521 60.7675 6.58593 44.719 16.9887 31.318C17.1851 31.0654 17.5546 31.0186 17.8119 31.2151C18.0645 31.4116 18.1113 31.7811 17.9148 32.0383C7.67111 45.2335 2.25925 61.0294 2.25925 77.728C2.25925 78.0508 1.99732 78.3127 1.67457 78.3127Z" fill="black"/>
</g>
<mask id="mask2_1625_8448" style="mask-type:luminance" maskUnits="userSpaceOnUse" x="108" y="35" width="24" height="44">
<path d="M108.92 35.8879H131.671V78.9583H108.92V35.8879Z" fill="white"/>
</mask>
<g mask="url(#mask2_1625_8448)">
<path d="M130.02 78.3129C129.697 78.3129 129.435 78.051 129.435 77.7282C129.435 61.8669 122.335 47.0205 109.954 36.9967C109.701 36.7909 109.664 36.4213 109.87 36.1734C110.071 35.9209 110.44 35.8788 110.693 36.0846C123.35 46.3329 130.605 61.5114 130.605 77.7282C130.605 78.051 130.343 78.3129 130.02 78.3129Z" fill="black"/>
</g>
<path d="M61.1066 27.7493C60.8587 27.7493 60.6295 27.5903 60.55 27.3424C60.4518 27.0337 60.6248 26.7016 60.9336 26.6033C66.1115 24.9756 71.5187 24.1523 76.996 24.1523C78.5069 24.1523 80.0317 24.2132 81.5332 24.3394C81.856 24.3675 82.0945 24.6528 82.0711 24.9756C82.0431 25.2937 81.7577 25.5322 81.435 25.5088C79.9663 25.3825 78.4741 25.3217 76.996 25.3217C71.6356 25.3217 66.3501 26.1309 61.2844 27.7259C61.2236 27.7447 61.1674 27.7493 61.1066 27.7493Z" fill="black"/>
<path d="M31.4422 51.2116C31.3393 51.2116 31.2364 51.1835 31.1382 51.1274C30.8622 50.9637 30.7687 50.6035 30.9371 50.3275C36.246 41.4497 43.9358 34.3259 53.1832 29.7279C53.4732 29.5829 53.8287 29.6998 53.969 29.9945C54.114 30.2845 53.9971 30.6353 53.7071 30.7803C44.6608 35.2754 37.1347 42.2448 31.9427 50.9263C31.8351 51.1087 31.6387 51.2116 31.4422 51.2116Z" fill="black"/>
<mask id="mask3_1625_8448" style="mask-type:luminance" maskUnits="userSpaceOnUse" x="22" y="56" width="7" height="23">
<path d="M22.7046 56.2446H28.6918V78.9585H22.7046V56.2446Z" fill="white"/>
</mask>
<g mask="url(#mask3_1625_8448)">
<path d="M23.9675 78.3128C23.6448 78.3128 23.3828 78.0509 23.3828 77.7282C23.3828 70.7587 24.7065 63.9763 27.3213 57.5682C27.4429 57.2688 27.7843 57.1238 28.0837 57.2454C28.383 57.3671 28.528 57.7085 28.4064 58.0079C25.8478 64.2757 24.5522 70.9131 24.5522 77.7282C24.5522 78.0509 24.2902 78.3128 23.9675 78.3128Z" fill="black"/>
</g>
<mask id="mask4_1625_8448" style="mask-type:luminance" maskUnits="userSpaceOnUse" x="102" y="62" width="7" height="17">
<path d="M102.933 62.2314H108.92V78.9581H102.933V62.2314Z" fill="white"/>
</mask>
<g mask="url(#mask4_1625_8448)">
<path d="M107.727 78.3126C107.4 78.3126 107.138 78.0507 107.138 77.7279C107.138 72.882 106.025 68.256 103.826 63.9761C103.677 63.6908 103.789 63.3353 104.079 63.1903C104.364 63.0406 104.72 63.1529 104.865 63.4429C107.152 67.8865 108.312 72.6949 108.312 77.7279C108.312 78.0507 108.05 78.3126 107.727 78.3126Z" fill="black"/>
</g>
<path d="M100.37 58.3772C100.206 58.3772 100.042 58.3071 99.9255 58.1714C94.1815 51.4545 85.8275 47.6003 76.9964 47.6003C71.9775 47.6003 67.0053 48.8585 62.6272 51.2394C62.3418 51.3937 61.9864 51.2861 61.832 51.0008C61.6776 50.7155 61.7805 50.3647 62.0659 50.2056C66.6171 47.7359 71.781 46.4309 76.9964 46.4309C86.169 46.4309 94.8551 50.4348 100.819 57.409C101.025 57.6569 100.997 58.0264 100.753 58.2369C100.641 58.3304 100.505 58.3772 100.37 58.3772Z" fill="black"/>
<mask id="mask5_1625_8448" style="mask-type:luminance" maskUnits="userSpaceOnUse" x="45" y="58" width="8" height="21">
<path d="M45.4559 58.6392H52.6406V78.9582H45.4559V58.6392Z" fill="white"/>
</mask>
<g mask="url(#mask5_1625_8448)">
<path d="M46.2651 78.3128C45.9377 78.3128 45.6758 78.0509 45.6758 77.7281C45.6758 71.2077 47.6637 64.9586 51.4244 59.6543C51.6115 59.3924 51.9764 59.3269 52.243 59.514C52.5049 59.7011 52.5657 60.0706 52.3786 60.3325C48.7629 65.4357 46.8498 71.4509 46.8498 77.7281C46.8498 78.0509 46.5879 78.3128 46.2651 78.3128Z" fill="black"/>
</g>
<mask id="mask6_1625_8448" style="mask-type:luminance" maskUnits="userSpaceOnUse" x="83" y="73" width="4" height="6">
<path d="M83.7738 73.0085H86.1687V78.9583H83.7738V73.0085Z" fill="white"/>
</mask>
<g mask="url(#mask6_1625_8448)">
<path d="M85.4297 78.3128C85.1069 78.3128 84.845 78.0509 84.845 77.7281C84.845 76.395 84.5035 75.0807 83.858 73.9253C83.699 73.6447 83.8019 73.2845 84.0872 73.1301C84.3679 72.9711 84.728 73.074 84.8824 73.3547C85.6261 74.6877 86.0143 76.1986 86.0143 77.7281C86.0143 78.0509 85.7524 78.3128 85.4297 78.3128Z" fill="black"/>
</g>
<mask id="mask7_1625_8448" style="mask-type:luminance" maskUnits="userSpaceOnUse" x="67" y="68" width="14" height="11">
<path d="M67.0099 68.2188H80.1817V78.9583H67.0099V68.2188Z" fill="white"/>
</mask>
<g mask="url(#mask7_1625_8448)">
<path d="M68.5582 78.3128C68.2355 78.3128 67.9735 78.0509 67.9735 77.7282C67.9735 72.756 72.0195 68.71 76.9964 68.71C77.7682 68.71 78.5353 68.8082 79.279 69.0046C79.5924 69.0842 79.7795 69.4069 79.7 69.7203C79.6158 70.0337 79.2977 70.2208 78.9843 70.1366C78.3388 69.9682 77.6653 69.884 76.9964 69.884C72.665 69.884 69.1429 73.4015 69.1429 77.7282C69.1429 78.0509 68.8809 78.3128 68.5582 78.3128Z" fill="black"/>
</g>
<path d="M81.4869 71.3994C81.6319 71.4883 81.7675 71.5865 81.8985 71.6941C82.0295 71.8064 82.1511 71.928 82.2587 72.0543C82.3475 71.9093 82.4458 71.769 82.5533 71.6427C82.6656 71.5117 82.7825 71.3901 82.9088 71.2825C82.7685 71.1936 82.6282 71.0954 82.4972 70.9878C82.3709 70.8756 82.2493 70.7586 82.1417 70.6277C82.0528 70.7727 81.9546 70.913 81.8424 71.0393C81.7348 71.1702 81.6132 71.2919 81.4869 71.3994ZM82.4083 74.4538C82.109 74.4538 81.8517 74.2246 81.8283 73.9159C81.7816 73.3967 81.5383 72.9243 81.1407 72.5922C80.7432 72.2554 80.238 72.0917 79.7188 72.1385C79.4007 72.1572 79.1154 71.9233 79.0873 71.6006C79.0873 71.5865 79.0826 71.5725 79.0826 71.5585C79.0826 71.5538 79.0826 71.5538 79.0826 71.5538C79.0826 71.2498 79.3165 70.9925 79.6206 70.9691C80.6917 70.8802 81.4915 69.9354 81.4027 68.8642C81.4027 68.8455 81.4027 68.8315 81.4027 68.8128C81.4027 68.5134 81.6319 68.2562 81.9406 68.2281C82.268 68.2094 82.544 68.4433 82.572 68.766C82.6141 69.2852 82.8574 69.753 83.255 70.0897C83.6525 70.4265 84.1577 70.5902 84.6769 70.5481C85.0137 70.5201 85.285 70.7586 85.3131 71.0814C85.3131 71.0954 85.3131 71.1141 85.3131 71.1281C85.3131 71.4322 85.0839 71.6894 84.7751 71.7128C84.2559 71.7549 83.7835 71.9982 83.4514 72.3957C83.1146 72.7933 82.9509 73.2985 82.993 73.8177C83.0211 74.1404 82.7825 74.4258 82.4598 74.4492C82.4411 74.4538 82.4224 74.4538 82.4083 74.4538Z" fill="black"/>
<path d="M70.5038 2.99115C70.602 2.99115 70.7049 2.99583 70.8078 3.00518C70.9809 3.02389 71.1446 3.05195 71.3083 3.09405C71.299 2.92566 71.299 2.75727 71.3177 2.58888C71.3317 2.41582 71.3645 2.2521 71.4066 2.08839C71.0651 2.11178 70.7283 2.07904 70.3962 1.99016C70.4196 2.32694 70.3869 2.6684 70.3027 3.0005C70.3682 2.99582 70.4336 2.99115 70.5038 2.99115ZM72.4683 5.08666C72.2953 5.08666 72.1269 5.0165 72.0146 4.8715C71.6825 4.47391 71.2148 4.22133 70.6956 4.17455C70.1764 4.1231 69.6712 4.27746 69.2689 4.60956C69.0164 4.81537 68.6468 4.77795 68.441 4.53004C68.3522 4.41778 68.3101 4.28681 68.3101 4.15584C68.3101 3.98745 68.3802 3.81906 68.5205 3.70213C68.9228 3.37002 69.1754 2.90227 69.2268 2.38775C69.2736 1.86855 69.1193 1.3587 68.7872 0.961117C68.6983 0.848857 68.6562 0.717888 68.6562 0.586918C68.6562 0.418528 68.7264 0.250139 68.8667 0.133202C69.1193 -0.0726078 69.4888 -0.0351876 69.6946 0.212719C70.3775 1.04531 71.6077 1.16225 72.4403 0.479336C72.6929 0.273525 73.0624 0.310945 73.2635 0.558853C73.3571 0.671113 73.3992 0.802082 73.3992 0.933052C73.3992 1.10144 73.3243 1.26983 73.184 1.38677C72.3561 2.06968 72.2345 3.29986 72.9174 4.12778C73.0109 4.24004 73.053 4.37101 73.053 4.50198C73.053 4.67037 72.9782 4.83875 72.8379 4.95569C72.7303 5.04456 72.5993 5.08666 72.4683 5.08666Z" fill="black"/>
<path d="M25.0339 56.2584C24.8187 56.2584 24.6129 56.1414 24.51 55.9356C24.365 55.6503 24.4819 55.2948 24.7672 55.1498L27.9666 53.5454L27.6673 49.5509C27.6439 49.2281 27.8871 48.9475 28.2099 48.9241C28.5326 48.896 28.8133 49.1392 28.8413 49.462L29.1688 53.8495C29.1828 54.0833 29.0565 54.3079 28.846 54.4155L25.2958 56.1976C25.2116 56.2397 25.1227 56.2584 25.0339 56.2584Z" fill="black"/>
<path d="M30.4972 53.8777C30.2913 53.8777 30.0996 53.7701 29.992 53.5877L27.7515 49.8036C27.5831 49.5277 27.6766 49.1675 27.9573 49.0038C28.2332 48.8354 28.5934 48.9289 28.7571 49.2096L30.8012 52.6569L34.342 52.1471C34.6648 52.1003 34.9595 52.3201 35.0062 52.6429C35.053 52.9609 34.8285 53.2603 34.5104 53.3071L30.5813 53.873C30.5533 53.873 30.5252 53.8777 30.4972 53.8777Z" fill="black"/>
<path d="M31.2316 59.5654C30.9275 59.5654 30.6703 59.3315 30.6469 59.0228L30.3195 54.64C30.3007 54.4015 30.427 54.1769 30.6422 54.0694L34.1924 52.2872C34.4777 52.1469 34.8332 52.2592 34.9782 52.5492C35.1232 52.8392 35.0063 53.19 34.7163 53.335L31.5169 54.944L31.8162 58.9386C31.8396 59.2614 31.6011 59.542 31.2783 59.5654C31.2596 59.5654 31.2456 59.5654 31.2316 59.5654Z" fill="black"/>
<path d="M31.2316 59.5654C31.0351 59.5654 30.8387 59.4625 30.7264 59.2801L28.687 55.8328L25.1415 56.3426C24.8188 56.3894 24.5241 56.1649 24.482 55.8468C24.4352 55.5241 24.655 55.2294 24.9778 55.1826L28.9069 54.6166C29.1408 54.5839 29.3746 54.6915 29.4962 54.8973L31.7368 58.6814C31.9005 58.962 31.8116 59.3222 31.531 59.4859C31.4374 59.542 31.3345 59.5654 31.2316 59.5654Z" fill="black"/>
<path d="M102.432 59.383C101.754 59.383 101.197 59.9396 101.197 60.6225C101.197 61.3054 101.754 61.8574 102.432 61.8574C103.115 61.8574 103.672 61.3054 103.672 60.6225C103.672 59.9396 103.115 59.383 102.432 59.383ZM102.432 63.0314C101.104 63.0314 100.023 61.9509 100.023 60.6225C100.023 59.2941 101.104 58.2136 102.432 58.2136C103.765 58.2136 104.846 59.2941 104.846 60.6225C104.846 61.9509 103.765 63.0314 102.432 63.0314Z" fill="black"/>
<path d="M57.1591 27.1596C56.4762 27.1596 55.9195 27.7116 55.9195 28.3945C55.9195 29.0774 56.4762 29.6294 57.1591 29.6294C57.8373 29.6294 58.3939 29.0774 58.3939 28.3945C58.3939 27.7116 57.8373 27.1596 57.1591 27.1596ZM57.1591 30.8034C55.8307 30.8034 54.7455 29.7229 54.7455 28.3945C54.7455 27.0661 55.8307 25.9856 57.1591 25.9856C58.4875 25.9856 59.568 27.0661 59.568 28.3945C59.568 29.7229 58.4875 30.8034 57.1591 30.8034Z" fill="black"/>
<path d="M50.8634 56.6794L53.8243 57.395C54.0114 57.4418 54.1657 57.5774 54.2359 57.7552L55.3211 60.6038L56.9208 58.0124C57.019 57.8441 57.1967 57.7412 57.3885 57.7318L60.4289 57.5821L58.4597 55.2574C58.3334 55.1124 58.2913 54.9113 58.338 54.7289L59.1332 51.7867L56.3174 52.9467C56.1396 53.0169 55.9338 52.9982 55.7748 52.8953L53.2209 51.2301L53.4501 54.2658C53.4688 54.4576 53.3846 54.6447 53.2349 54.7663L50.8634 56.6794ZM55.1948 62.5075C55.1761 62.5075 55.1573 62.5028 55.1386 62.5028C54.9188 62.4841 54.727 62.3391 54.6475 62.1286L53.2489 58.4615L49.4321 57.5353C49.2169 57.4839 49.0485 57.3108 48.9971 57.0957C48.9503 56.8758 49.0298 56.6513 49.2029 56.511L52.262 54.0459L51.9626 50.1356C51.9439 49.911 52.0562 49.7006 52.2479 49.5883C52.4397 49.4714 52.683 49.4807 52.8654 49.5976L56.1583 51.7446L59.7881 50.2525C59.9939 50.1683 60.2324 50.2057 60.3961 50.3554C60.5645 50.5004 60.6347 50.7296 60.5786 50.9494L59.5542 54.7335L62.0941 57.7271C62.2391 57.8955 62.2718 58.1341 62.1829 58.3399C62.0987 58.541 61.8976 58.6813 61.6778 58.6907L57.7534 58.8871L55.6953 62.2269C55.5877 62.3999 55.3959 62.5075 55.1948 62.5075Z" fill="black"/>
<path d="M96.8382 20.5273C91.8707 20.5273 87.8293 24.564 87.8293 29.5315C87.8293 34.499 91.8707 38.5357 96.8382 38.5357C101.806 38.5357 105.852 34.499 105.852 29.5315C105.852 24.564 101.806 20.5273 96.8382 20.5273ZM96.8382 39.7097C91.2252 39.7097 86.6553 35.1445 86.6553 29.5315C86.6553 23.9185 91.2252 19.3533 96.8382 19.3533C102.456 19.3533 107.021 23.9185 107.021 29.5315C107.021 35.1445 102.456 39.7097 96.8382 39.7097Z" fill="black"/>
<path d="M104.374 35.2426C101.843 35.2426 98.8729 34.9619 95.8045 34.4287C88.3672 33.1237 81.0844 30.4014 81.5521 27.7118C81.8609 25.9531 85.1445 25.4994 87.8387 25.4292C88.1521 25.4339 88.4327 25.6771 88.4421 25.9999C88.4514 26.3226 88.1942 26.5939 87.8714 26.6032C83.9517 26.7015 82.7823 27.506 82.7075 27.9176C82.497 29.1151 87.5768 31.7953 96.0056 33.2733C99.8084 33.9376 103.433 34.1995 106.221 34.0124C109.332 33.8066 110.272 33.119 110.337 32.7495C110.403 32.3566 109.64 31.262 106.259 29.8915C105.955 29.7699 105.814 29.4285 105.936 29.1291C106.058 28.8297 106.399 28.6847 106.698 28.8063C110.118 30.1909 111.731 31.5848 111.488 32.9506C111.268 34.2182 109.524 34.9666 106.301 35.1818C105.697 35.2239 105.052 35.2426 104.374 35.2426Z" fill="black"/>
<path d="M22.106 16.1443C18.0412 17.613 15.8288 22.0613 17.1572 26.2056C17.812 28.2637 19.234 29.9382 21.1518 30.9252C23.0742 31.9168 25.2633 32.0992 27.3214 31.4397C29.2251 30.8316 30.8248 29.5453 31.8258 27.838C27.5552 28.2216 23.542 25.6256 22.2042 21.4345C21.6522 19.7179 21.6242 17.875 22.106 16.1443ZM24.847 33.002C23.3923 33.002 21.9469 32.6558 20.6138 31.9683C18.4154 30.8363 16.7923 28.9185 16.0393 26.5611C14.4817 21.7012 17.1759 16.4858 22.0358 14.9328C22.3258 14.8393 22.6158 14.7644 22.9011 14.7036C23.1163 14.6569 23.3361 14.7317 23.4765 14.9001C23.6168 15.0685 23.6495 15.2977 23.5653 15.4988C22.8216 17.2716 22.7374 19.2548 23.3221 21.0791C24.5944 25.0643 28.6404 27.403 32.7285 26.5143C32.9437 26.4675 33.1635 26.5424 33.3039 26.7108C33.4442 26.8791 33.4816 27.113 33.3927 27.3141C32.345 29.8213 30.2588 31.7344 27.6769 32.5576C26.7507 32.857 25.7965 33.002 24.847 33.002Z" fill="black"/>
<path d="M138.365 34.9103C138.351 34.9103 138.342 34.9103 138.328 34.9103L133.43 34.611C133.108 34.5876 132.86 34.3116 132.878 33.9889C132.902 33.6661 133.187 33.4229 133.5 33.4416L138.01 33.7176L140.217 29.1851C140.358 28.8951 140.708 28.7735 140.998 28.9138C141.288 29.0541 141.41 29.4049 141.27 29.6949L138.889 34.5829C138.791 34.784 138.585 34.9103 138.365 34.9103Z" fill="black"/>
<path d="M145.33 37.3008C145.255 37.3008 145.18 37.2868 145.11 37.254L140.559 35.4158C140.339 35.3269 140.194 35.1164 140.194 34.8779L140.156 29.4473C140.152 29.1199 140.414 28.8579 140.736 28.8533C140.741 28.8533 140.741 28.8533 140.741 28.8533C141.064 28.8533 141.326 29.1152 141.326 29.438L141.363 34.4803L145.549 36.1689C145.849 36.2905 145.994 36.6319 145.872 36.9313C145.779 37.1605 145.559 37.3008 145.33 37.3008Z" fill="black"/>
<path d="M138.028 41.9922C137.939 41.9922 137.851 41.9735 137.771 41.9314C137.481 41.7911 137.359 41.4403 137.5 41.1503L139.881 36.2623C139.983 36.0518 140.199 35.9208 140.442 35.9349L145.339 36.2389C145.662 36.2576 145.91 36.5336 145.891 36.8563C145.868 37.1838 145.587 37.4223 145.269 37.4083L140.76 37.1276L138.552 41.6648C138.454 41.8706 138.243 41.9922 138.028 41.9922Z" fill="black"/>
<path d="M138.028 41.9922C137.705 41.9922 137.443 41.7302 137.439 41.4075L137.406 36.3698L133.219 34.6766C132.92 34.5549 132.775 34.2135 132.897 33.9141C133.018 33.6148 133.36 33.4698 133.659 33.5914L138.21 35.4296C138.43 35.5185 138.575 35.7337 138.575 35.9675L138.613 41.4028C138.617 41.7255 138.355 41.9875 138.033 41.9922C138.028 41.9922 138.028 41.9922 138.028 41.9922Z" fill="black"/>
<mask id="mask8_1625_8448" style="mask-type:luminance" maskUnits="userSpaceOnUse" x="0" y="76" width="4" height="3">
<path d="M0 76.6008H3.54554V78.9583H0V76.6008Z" fill="white"/>
</mask>
<g mask="url(#mask8_1625_8448)">
<path d="M2.6662 78.4765H0.668915C0.346168 78.4765 0.0842285 78.2146 0.0842285 77.8918C0.0842285 77.5691 0.346168 77.3071 0.668915 77.3071H2.6662C2.99363 77.3071 3.25557 77.5691 3.25557 77.8918C3.25557 78.2146 2.99363 78.4765 2.6662 78.4765Z" fill="black"/>
</g>
<mask id="mask9_1625_8448" style="mask-type:luminance" maskUnits="userSpaceOnUse" x="21" y="76" width="6" height="3">
<path d="M21.5073 76.6008H26.2971V78.9583H21.5073V76.6008Z" fill="white"/>
</mask>
<g mask="url(#mask9_1625_8448)">
<path d="M24.8985 78.7199H23.0977C22.7749 78.7199 22.5083 78.458 22.5083 78.1352C22.5083 77.8125 22.7749 77.5505 23.0977 77.5505H24.8985C25.2212 77.5505 25.4832 77.8125 25.4832 78.1352C25.4832 78.458 25.2212 78.7199 24.8985 78.7199Z" fill="black"/>
</g>
<mask id="mask10_1625_8448" style="mask-type:luminance" maskUnits="userSpaceOnUse" x="44" y="76" width="4" height="3">
<path d="M44.2584 76.6008H47.8507V78.9583H44.2584V76.6008Z" fill="white"/>
</mask>
<g mask="url(#mask10_1625_8448)">
<path d="M47.2099 78.6404H45.409C45.0863 78.6404 44.8243 78.3784 44.8243 78.0557C44.8243 77.7329 45.0863 77.4663 45.409 77.4663H47.2099C47.5373 77.4663 47.7992 77.7329 47.7992 78.0557C47.7992 78.3784 47.5373 78.6404 47.2099 78.6404Z" fill="black"/>
</g>
<mask id="mask11_1625_8448" style="mask-type:luminance" maskUnits="userSpaceOnUse" x="67" y="76" width="4" height="3">
<path d="M67.0099 76.6008H70.6022V78.9583H67.0099V76.6008Z" fill="white"/>
</mask>
<g mask="url(#mask11_1625_8448)">
<path d="M69.5077 78.7199H67.7723C67.4496 78.7199 67.183 78.458 67.183 78.1352C67.183 77.8125 67.4496 77.5505 67.7723 77.5505H69.5077C69.8304 77.5505 70.0971 77.8125 70.0971 78.1352C70.0971 78.458 69.8304 78.7199 69.5077 78.7199Z" fill="black"/>
</g>
<mask id="mask12_1625_8448" style="mask-type:luminance" maskUnits="userSpaceOnUse" x="83" y="76" width="5" height="3">
<path d="M83.7738 76.6008H87.3661V78.9583H83.7738V76.6008Z" fill="white"/>
</mask>
<g mask="url(#mask12_1625_8448)">
<path d="M86.1874 78.9675H84.7093C84.3866 78.9675 84.1246 78.7056 84.1246 78.3781C84.1246 78.0554 84.3866 77.7935 84.7093 77.7935H86.1874C86.5102 77.7935 86.7721 78.0554 86.7721 78.3781C86.7721 78.7056 86.5102 78.9675 86.1874 78.9675Z" fill="black"/>
</g>
<mask id="mask13_1625_8448" style="mask-type:luminance" maskUnits="userSpaceOnUse" x="105" y="76" width="6" height="3">
<path d="M105.328 76.6008H110.117V78.9583H105.328V76.6008Z" fill="white"/>
</mask>
<g mask="url(#mask13_1625_8448)">
<path d="M108.569 78.6965H106.965C106.637 78.6965 106.375 78.4346 106.375 78.1118C106.375 77.7844 106.637 77.5225 106.965 77.5225H108.569C108.892 77.5225 109.158 77.7844 109.158 78.1118C109.158 78.4346 108.892 78.6965 108.569 78.6965Z" fill="black"/>
</g>
<mask id="mask14_1625_8448" style="mask-type:luminance" maskUnits="userSpaceOnUse" x="128" y="76" width="4" height="3">
<path d="M128.079 76.6008H131.671V78.9583H128.079V76.6008Z" fill="white"/>
</mask>
<g mask="url(#mask14_1625_8448)">
<path d="M130.914 78.6965H129.178C128.856 78.6965 128.594 78.4346 128.594 78.1118C128.594 77.7844 128.856 77.5225 129.178 77.5225H130.914C131.241 77.5225 131.503 77.7844 131.503 78.1118C131.503 78.4346 131.241 78.6965 130.914 78.6965Z" fill="black"/>
</g>
<mask id="mask15_1625_8448" style="mask-type:luminance" maskUnits="userSpaceOnUse" x="150" y="76" width="4" height="3">
<path d="M150.831 76.6008H153.572V78.9583H150.831V76.6008Z" fill="white"/>
</mask>
<g mask="url(#mask15_1625_8448)">
<path d="M152.917 78.5795H151.64C151.312 78.5795 151.05 78.3176 151.05 77.9948C151.05 77.6721 151.312 77.4102 151.64 77.4102H152.917C153.244 77.4102 153.506 77.6721 153.506 77.9948C153.506 78.3176 153.244 78.5795 152.917 78.5795Z" fill="black"/>
</g>
</svg>
