<svg width="105" height="98" viewBox="0 0 105 98" fill="none" xmlns="http://www.w3.org/2000/svg">
<path d="M100.849 54.2227C100.746 54.2227 100.662 54.3072 100.662 54.4099C100.662 54.5164 100.746 54.5971 100.849 54.5971C100.952 54.5971 101.036 54.5164 101.036 54.4099C101.036 54.3072 100.952 54.2227 100.849 54.2227ZM100.849 55.6211C100.177 55.6211 99.634 55.0779 99.634 54.4099C99.634 53.7419 100.177 53.1987 100.849 53.1987C101.521 53.1987 102.064 53.7419 102.064 54.4099C102.064 55.0779 101.521 55.6211 100.849 55.6211Z" fill="black"/>
<path d="M81.4989 36.9281C81.4438 36.9281 81.3961 36.9721 81.3961 37.0272C81.3961 37.1373 81.598 37.1373 81.598 37.0272C81.598 36.9721 81.5539 36.9281 81.4989 36.9281ZM81.4989 38.1503C80.8749 38.1503 80.3684 37.6474 80.3684 37.0272C80.3684 36.4069 80.8749 35.9041 81.4989 35.9041C82.1191 35.9041 82.6256 36.4069 82.6256 37.0272C82.6256 37.6474 82.1191 38.1503 81.4989 38.1503Z" fill="black"/>
<path d="M74.8337 59.6617C74.7786 59.6617 74.7346 59.7058 74.7346 59.7608C74.7346 59.8709 74.9365 59.8709 74.9365 59.7608C74.9365 59.7058 74.8887 59.6617 74.8337 59.6617ZM74.8337 60.8839C74.2134 60.8839 73.7069 60.3811 73.7069 59.7608C73.7069 59.1405 74.2134 58.6377 74.8337 58.6377C75.4576 58.6377 75.9641 59.1405 75.9641 59.7608C75.9641 60.3811 75.4576 60.8839 74.8337 60.8839Z" fill="black"/>
<path d="M72.3782 56.0137C72.3378 56.0137 72.3048 56.0467 72.3048 56.0871C72.3048 56.1715 72.4553 56.1715 72.4553 56.0871C72.4553 56.0467 72.4223 56.0137 72.3782 56.0137ZM72.3782 57.0377C71.8534 57.0377 71.4276 56.6119 71.4276 56.0871C71.4276 55.5659 71.8534 55.1401 72.3782 55.1401C72.9031 55.1401 73.3325 55.5659 73.3325 56.0871C73.3325 56.6119 72.9031 57.0377 72.3782 57.0377Z" fill="black"/>
<path d="M88.0725 25.0362L88.0835 25.0472C88.0835 25.0399 88.0798 25.0362 88.0725 25.0362ZM88.0725 26.0859C87.4999 26.0859 87.0338 25.6198 87.0338 25.0472C87.0338 24.4747 87.4999 24.0122 88.0725 24.0122C88.6451 24.0122 89.1112 24.4747 89.1112 25.0472C89.1112 25.6198 88.6451 26.0859 88.0725 26.0859Z" fill="black"/>
<mask id="mask0_1625_8290" style="mask-type:luminance" maskUnits="userSpaceOnUse" x="96" y="33" width="9" height="11">
<path d="M96.7272 33.9111H105V43.3071H96.7272V33.9111Z" fill="white"/>
</mask>
<g mask="url(#mask0_1625_8290)">
<path d="M100.955 35.2985C99.4322 35.5848 98.2761 36.9208 98.2761 38.5211C98.2761 40.3269 99.7479 41.7986 101.561 41.7986C102.211 41.7986 102.835 41.6078 103.363 41.2591C101.678 40.6645 100.504 39.0716 100.504 37.2071C100.504 36.5391 100.662 35.8895 100.955 35.2985ZM101.561 42.8227C99.1827 42.8227 97.2484 40.8921 97.2484 38.5211C97.2484 36.1464 99.1827 34.2195 101.561 34.2195C101.7 34.2195 101.84 34.2268 101.976 34.2378C102.167 34.2562 102.332 34.3773 102.405 34.5571C102.475 34.7333 102.442 34.9352 102.317 35.082C101.811 35.6766 101.532 36.429 101.532 37.2071C101.532 38.9028 102.809 40.3048 104.501 40.4663C104.692 40.4847 104.857 40.6095 104.927 40.7856C105 40.9618 104.967 41.1637 104.842 41.3105C104.02 42.2721 102.824 42.8227 101.561 42.8227Z" fill="black"/>
</g>
<path d="M80.8568 52.237C80.6109 52.237 80.3907 52.0571 80.3503 51.8076C80.3026 51.5286 80.4935 51.2644 80.7724 51.2203L83.5288 50.7725L84.2408 47.7335C84.3069 47.4583 84.5859 47.2894 84.8575 47.3518C85.1364 47.4142 85.3052 47.6932 85.2428 47.9684L84.4501 51.3378C84.4023 51.5396 84.2372 51.6938 84.0316 51.7268L80.9376 52.2296C80.9119 52.2333 80.8825 52.237 80.8568 52.237Z" fill="black"/>
<path d="M88.6267 52.237C88.601 52.237 88.5717 52.2333 88.5423 52.2296L85.4519 51.7268C85.2464 51.6938 85.0812 51.5396 85.0335 51.3378L84.2407 47.9684C84.1783 47.6932 84.3472 47.4142 84.6261 47.3518C84.9014 47.2894 85.1766 47.4583 85.2427 47.7335L85.9548 50.7725L88.7075 51.2203C88.9901 51.2644 89.1809 51.5286 89.1332 51.8076C89.0929 52.0571 88.8763 52.237 88.6267 52.237Z" fill="black"/>
<path d="M84.7436 56.1823C84.7032 56.1823 84.6628 56.1786 84.6261 56.1676C84.3472 56.1052 84.1783 55.8299 84.2407 55.5547L85.0335 52.1817C85.0812 51.9798 85.2464 51.8256 85.4519 51.7926L88.5423 51.2898C88.8249 51.2421 89.0892 51.4329 89.1332 51.7155C89.1809 51.9945 88.9901 52.2551 88.7075 52.3028L85.9548 52.7506L85.2427 55.7859C85.1877 56.0245 84.9748 56.1823 84.7436 56.1823Z" fill="black"/>
<path d="M84.74 56.1823C84.5088 56.1823 84.2959 56.0245 84.2408 55.7859L83.5288 52.7506L80.7724 52.3028C80.4935 52.2551 80.3026 51.9945 80.3503 51.7155C80.3944 51.4329 80.6586 51.2421 80.9376 51.2898L84.0316 51.7926C84.2372 51.8256 84.4023 51.9798 84.4501 52.1817L85.2428 55.5547C85.3052 55.8299 85.1364 56.1052 84.8575 56.1676C84.8208 56.1786 84.7804 56.1823 84.74 56.1823Z" fill="black"/>
<path d="M96.9471 16.3267C96.7012 16.3267 96.481 16.1469 96.4406 15.8973C96.3966 15.6147 96.5875 15.3541 96.8664 15.3064L98.819 14.9907L99.3255 12.8253C99.3916 12.55 99.6705 12.3775 99.9458 12.4435C100.221 12.5059 100.394 12.7849 100.327 13.0602L99.7402 15.5596C99.6925 15.7615 99.5274 15.912 99.3255 15.9487L97.0316 16.3194C97.0022 16.323 96.9765 16.3267 96.9471 16.3267Z" fill="black"/>
<path d="M102.706 16.327C102.68 16.327 102.651 16.3234 102.625 16.3197L100.331 15.949C100.126 15.9123 99.9607 15.7618 99.913 15.5599L99.3257 13.0605C99.2634 12.7852 99.4359 12.5063 99.7111 12.4439C99.9864 12.3815 100.262 12.5503 100.328 12.8256L100.838 14.991L102.791 15.3067C103.069 15.3544 103.26 15.615 103.213 15.8976C103.172 16.1472 102.956 16.327 102.706 16.327Z" fill="black"/>
<path d="M99.8286 19.2518C99.7882 19.2518 99.7515 19.2444 99.7111 19.2371C99.4359 19.171 99.2634 18.8958 99.3257 18.6205L99.913 16.121C99.9607 15.9192 100.126 15.765 100.331 15.732L102.625 15.3613C102.904 15.3099 103.169 15.5044 103.213 15.7834C103.26 16.0623 103.069 16.3266 102.791 16.3706L100.838 16.6899L100.328 18.8554C100.273 19.0903 100.063 19.2518 99.8286 19.2518Z" fill="black"/>
<path d="M99.8283 19.2521C99.5934 19.2521 99.3806 19.0906 99.3255 18.8557L98.819 16.6902L96.8664 16.3709C96.5875 16.3269 96.3966 16.0626 96.4406 15.7836C96.4884 15.5047 96.749 15.3138 97.0316 15.3616L99.3255 15.7323C99.5274 15.7653 99.6925 15.9194 99.7402 16.1213L100.327 18.6208C100.394 18.8961 100.221 19.1713 99.9458 19.2374C99.9054 19.2447 99.865 19.2521 99.8283 19.2521Z" fill="black"/>
<mask id="mask1_1625_8290" style="mask-type:luminance" maskUnits="userSpaceOnUse" x="41" y="0" width="7" height="33">
<path d="M41.2908 0.302246H47.8679V32.0319H41.2908V0.302246Z" fill="white"/>
</mask>
<g mask="url(#mask1_1625_8290)">
<path d="M47.0642 31.9622C46.8146 31.9622 46.5944 31.7787 46.5577 31.5217L42.1827 0.973882C42.1423 0.69127 42.3368 0.434349 42.6158 0.393976C42.9021 0.353602 43.159 0.548129 43.1993 0.827071L47.5743 31.3786C47.6147 31.6575 47.4202 31.9181 47.1376 31.9548C47.1155 31.9585 47.0899 31.9622 47.0642 31.9622Z" fill="black"/>
</g>
<path d="M35.4625 18.0153C35.2606 18.0153 35.0735 17.9015 34.989 17.707L30.9003 8.31472C30.7866 8.05413 30.904 7.75317 31.1646 7.63939C31.4252 7.52928 31.7298 7.64673 31.8399 7.90732L35.9323 17.2996C36.0461 17.5602 35.925 17.8612 35.6644 17.9713C35.5983 18.0006 35.5286 18.0153 35.4625 18.0153Z" fill="black"/>
<path d="M42.3111 32.9092C42.1166 32.9092 41.9258 32.7991 41.8413 32.6083L37.8481 23.7849C37.7306 23.5279 37.8444 23.2233 38.1013 23.1095C38.3619 22.9921 38.6665 23.1059 38.784 23.3628L42.7773 32.1862C42.8947 32.4468 42.7809 32.7477 42.5203 32.8652C42.4506 32.8945 42.3809 32.9092 42.3111 32.9092Z" fill="black"/>
<path d="M38.3143 35.6618C38.1675 35.6618 38.0243 35.5994 37.9216 35.4783L28.2173 24.0013C28.0375 23.7848 28.0632 23.4618 28.2797 23.2783C28.4962 23.0947 28.8229 23.1241 29.0027 23.3407L38.707 34.8177C38.8905 35.0342 38.8612 35.3572 38.6446 35.5407C38.5492 35.6215 38.4317 35.6618 38.3143 35.6618Z" fill="black"/>
<path d="M34.6035 38.7926C34.497 38.7926 34.3906 38.7596 34.2988 38.6935L8.70953 19.8135C8.48197 19.6447 8.43426 19.3217 8.60309 19.0942C8.77192 18.8666 9.09124 18.8189 9.3188 18.9877L34.9081 37.8677C35.1393 38.0366 35.187 38.3595 35.0182 38.5871C34.9154 38.7192 34.7613 38.7926 34.6035 38.7926Z" fill="black"/>
<path d="M32.3208 42.9656C32.2548 42.9656 32.185 42.9546 32.119 42.9252L21.655 38.4658C21.3944 38.3557 21.2733 38.0547 21.387 37.7941C21.4971 37.5335 21.7981 37.4124 22.0587 37.5262L32.5227 41.9819C32.7833 42.0957 32.9044 42.3967 32.7943 42.6573C32.7099 42.8518 32.519 42.9656 32.3208 42.9656Z" fill="black"/>
<path d="M31.5609 47.6161C31.5388 47.6161 31.5168 47.6161 31.4911 47.6124L11.2678 44.9551C10.9889 44.9184 10.7907 44.6615 10.8274 44.3789C10.8641 44.1 11.121 43.9018 11.4036 43.9385L31.6269 46.5958C31.9095 46.6325 32.1077 46.8894 32.071 47.172C32.0343 47.4289 31.8141 47.6161 31.5609 47.6161Z" fill="black"/>
<path d="M7.05432 44.3898C7.0323 44.3898 7.01394 44.3898 6.99192 44.3861L3.13811 43.898C2.85917 43.8613 2.65731 43.6043 2.69401 43.3254C2.73071 43.0465 2.98763 42.8409 3.27025 42.8813L7.12038 43.3694C7.403 43.4061 7.60119 43.6631 7.56449 43.942C7.53146 44.2026 7.31124 44.3898 7.05432 44.3898Z" fill="black"/>
<mask id="mask2_1625_8290" style="mask-type:luminance" maskUnits="userSpaceOnUse" x="0" y="50" width="33" height="8">
<path d="M0 50.8237H32.8344V57.4009H0V50.8237Z" fill="white"/>
</mask>
<g mask="url(#mask2_1625_8290)">
<path d="M0.546839 56.9128C0.293589 56.9128 0.0770415 56.7293 0.0403381 56.4723C-3.44627e-05 56.1934 0.19449 55.9328 0.473433 55.8924L31.6783 51.4367C31.9572 51.3963 32.2178 51.5909 32.2582 51.8698C32.2986 52.1487 32.104 52.4093 31.8251 52.4497L0.620245 56.9091C0.594552 56.9128 0.57253 56.9128 0.546839 56.9128Z" fill="black"/>
</g>
<path d="M23.7617 60.7081C23.5561 60.7081 23.3616 60.587 23.2809 60.3814C23.1781 60.1172 23.3102 59.8235 23.5745 59.7171L32.1336 56.3992C32.3979 56.2964 32.6988 56.4248 32.8016 56.6891C32.9044 56.9534 32.7722 57.2507 32.508 57.3534L23.9452 60.675C23.8865 60.6971 23.8204 60.7081 23.7617 60.7081Z" fill="black"/>
<path d="M23.4751 70.2912C23.3209 70.2912 23.1668 70.2215 23.0677 70.0894C22.8952 69.8655 22.9355 69.5462 23.1631 69.3737L34.5777 60.642C34.8016 60.4732 35.1246 60.5136 35.2971 60.7375C35.4696 60.965 35.4292 61.2843 35.2017 61.4568L23.7871 70.1848C23.6953 70.2582 23.5852 70.2912 23.4751 70.2912Z" fill="black"/>
<path d="M19.6692 89.4574C19.5591 89.4574 19.4526 89.4207 19.3572 89.351C19.1333 89.1785 19.0893 88.8591 19.2618 88.6316L38.094 63.9635C38.2665 63.7396 38.5895 63.6993 38.8171 63.8681C39.041 64.0406 39.085 64.3599 38.9125 64.5875L20.0766 89.2555C19.9775 89.3877 19.8233 89.4574 19.6692 89.4574Z" fill="black"/>
<path d="M45.5447 85.3761C45.5263 85.3761 45.508 85.3761 45.4896 85.3724C45.207 85.343 45.0015 85.0898 45.0345 84.8109L46.9357 66.9732C46.9651 66.6906 47.222 66.4924 47.5009 66.5181C47.7835 66.5475 47.9891 66.8007 47.956 67.0833L46.0548 84.9173C46.0255 85.1816 45.8053 85.3761 45.5447 85.3761Z" fill="black"/>
<mask id="mask3_1625_8290" style="mask-type:luminance" maskUnits="userSpaceOnUse" x="43" y="88" width="3" height="10">
<path d="M43.1702 88.4077H45.989V97.5504H43.1702V88.4077Z" fill="white"/>
</mask>
<g mask="url(#mask3_1625_8290)">
<path d="M44.308 97.5208C44.2933 97.5208 44.2749 97.5208 44.2603 97.5172C43.9776 97.4915 43.7684 97.2419 43.7978 96.9593L44.5208 89.2737C44.5465 88.9947 44.7961 88.7855 45.0787 88.8112C45.3613 88.8406 45.5705 89.0902 45.5412 89.3691L44.8181 97.0547C44.7961 97.3226 44.5722 97.5208 44.308 97.5208Z" fill="black"/>
</g>
<path d="M37.8299 79.1181C37.7675 79.1181 37.7014 79.1071 37.639 79.0814C37.3785 78.9787 37.25 78.6777 37.3564 78.4171L42.4031 65.8867C42.5095 65.6261 42.8105 65.4977 43.0711 65.6041C43.3353 65.7106 43.4638 66.0078 43.3574 66.2684L38.307 78.7988C38.2263 78.997 38.0354 79.1181 37.8299 79.1181Z" fill="black"/>
<path d="M53.3111 46.6361C52.1733 46.6361 50.8484 46.3572 49.3912 45.7919C49.127 45.6892 48.9949 45.3919 49.0976 45.1276C49.2004 44.8634 49.5014 44.7349 49.7619 44.834C50.8373 45.2524 54.4526 46.4636 55.873 44.5771C56.0455 44.3532 56.3648 44.3055 56.5924 44.4743C56.8199 44.6468 56.864 44.9661 56.6951 45.1937C55.9758 46.1516 54.8049 46.6361 53.3111 46.6361Z" fill="black"/>
<path d="M46.4405 40.7048C46.3194 40.7048 46.1946 40.6608 46.0955 40.5727C45.8863 40.3855 45.8679 40.0625 46.0588 39.8496C48.4665 37.1703 52.4267 36.2381 55.418 37.541C55.3923 37.196 55.3153 36.8216 55.1978 36.6858C55.018 36.4656 55.0473 36.1426 55.2639 35.9628C55.4804 35.7793 55.8071 35.8123 55.9869 36.0289C56.4714 36.6088 56.5632 38.0182 56.3429 38.543C56.2842 38.6788 56.1704 38.7852 56.031 38.833C55.8878 38.877 55.7337 38.8623 55.6052 38.7852C53.014 37.2437 49.0721 38.0328 46.8222 40.5323C46.7231 40.6461 46.58 40.7048 46.4405 40.7048Z" fill="black"/>
<path d="M61.8777 53.4409C61.8116 53.4409 61.7492 53.4409 61.6831 53.4372C61.4225 53.4262 61.1032 53.4336 60.7876 53.4372C60.4499 53.4409 60.1122 53.4446 59.8333 53.4336C59.2277 53.4079 58.7873 53.3675 58.2037 53.0629C57.5504 52.7178 56.9962 51.9397 57.2017 51.1176C57.2678 50.846 57.5467 50.6772 57.822 50.7432C58.0973 50.813 58.2661 51.0919 58.2 51.3672C58.1266 51.6571 58.3946 52.0021 58.6845 52.1563C59.0882 52.3692 59.3562 52.3875 59.8737 52.4095C60.1379 52.4205 60.4536 52.4132 60.7729 52.4095C61.1106 52.4059 61.4482 52.4022 61.7272 52.4132C62.2704 52.4389 62.5493 52.3471 62.8466 52.0609C63.1513 51.7636 63.0999 51.1947 62.8907 50.7836C62.5126 50.0128 59.202 43.2815 59.0552 41.8795C58.9891 41.2408 59.2314 40.0737 59.5397 38.5946C59.9361 36.7007 60.4279 34.348 60.2664 32.8432C59.9875 30.1712 60.7215 25.2384 62.0575 23.1243C62.208 22.8857 62.5236 22.8123 62.7659 22.9628C63.0044 23.1133 63.0778 23.4289 62.9274 23.6711C61.8263 25.4145 61.0005 29.9877 61.2904 32.7368C61.4666 34.3994 60.9564 36.8402 60.5453 38.8038C60.2774 40.0847 60.0242 41.2922 60.0755 41.773C60.1746 42.6906 62.4172 47.506 63.8082 50.3248C64.1753 51.0405 64.256 52.1269 63.5623 52.7949C63.0008 53.3381 62.4062 53.4409 61.8777 53.4409Z" fill="black"/>
<path d="M57.4 59.306C56.9742 59.306 56.5412 59.2766 56.086 59.2252C55.8071 59.1959 55.6016 58.9389 55.6346 58.66C55.6676 58.3774 55.9245 58.1755 56.2035 58.2085C57.9762 58.4104 59.4737 58.1792 60.9161 57.4782C61.1621 57.357 61.4116 57.2212 61.5731 57.0341C61.6979 56.8909 61.7566 56.7111 61.7199 56.5899C61.6722 56.4285 61.463 56.267 61.2575 56.1091L61.1988 56.0614C60.0867 55.1952 59.5435 54.1235 59.7123 53.1289C59.76 52.8499 60.0206 52.6591 60.3032 52.7068C60.5821 52.7545 60.773 53.0188 60.7253 53.2977C60.5785 54.1712 61.4483 54.9567 61.83 55.254L61.8888 55.298C62.1897 55.5329 62.5641 55.8229 62.7072 56.2963C62.843 56.7588 62.7072 57.2983 62.3512 57.7057C62.0686 58.0324 61.7126 58.2306 61.3676 58.3994C60.1123 59.0087 58.8277 59.306 57.4 59.306Z" fill="black"/>
<path d="M58.1413 70.9701C57.8844 70.9701 57.6641 70.7793 57.6311 70.5187C57.5981 70.2397 57.7999 69.9828 58.0825 69.9498C59.224 69.814 60.3948 69.3442 61.7602 68.467C62.4465 68.0265 62.9567 67.3696 63.1659 66.6612C63.3825 65.9235 63.265 65.105 62.8503 64.5251C62.7255 64.3489 62.5713 64.1837 62.4025 64.0112C62.2593 63.8608 62.1162 63.7066 61.9877 63.5451C61.3638 62.767 61.4372 61.7393 61.4996 60.8291C61.5253 60.4878 61.5473 60.1684 61.5326 59.8822C61.529 59.8014 61.5179 59.5849 61.4666 59.5261C61.4042 59.4564 61.1289 59.4307 61.0261 59.4197C60.7325 59.394 60.3141 59.3536 59.8957 59.3133L58.8276 59.2105C58.545 59.1848 58.3358 58.9352 58.3615 58.6526C58.3909 58.37 58.6441 58.1645 58.923 58.1902L59.9948 58.2929C60.4095 58.3333 60.8279 58.3737 61.1216 58.3994C61.4188 58.4287 61.9143 58.4728 62.2447 58.8582C62.5236 59.1848 62.5456 59.6032 62.5566 59.8308C62.575 60.1758 62.5493 60.5465 62.5236 60.9025C62.4722 61.6586 62.4172 62.4404 62.7879 62.9065C62.9016 63.046 63.0264 63.1744 63.1512 63.3065C63.3311 63.5011 63.5219 63.6993 63.6871 63.9342C64.289 64.7747 64.4615 65.9051 64.1532 66.9511C63.8706 67.9054 63.2173 68.7496 62.3144 69.3258C60.8132 70.2911 59.5066 70.8123 58.2037 70.9665C58.1816 70.9701 58.1596 70.9701 58.1413 70.9701Z" fill="black"/>
<path d="M73.5859 93.4653C49.05 93.4653 29.0873 73.5539 29.0873 49.0841C29.0873 24.6142 49.05 4.70288 73.5859 4.70288C77.025 4.70288 80.4861 5.11028 83.8701 5.90674C84.0903 5.96179 84.2481 6.14898 84.2665 6.36919C84.2812 6.59308 84.149 6.80229 83.9398 6.88304C75.366 10.2487 67.6621 16.4368 62.8063 23.8581C62.6521 24.0967 62.3328 24.1628 62.0942 24.0086C61.8557 23.8545 61.7896 23.5352 61.9438 23.3003C66.627 16.1432 73.8869 10.1129 82.0423 6.56005C79.2455 6.00951 76.4084 5.72689 73.5859 5.72689C49.6152 5.72689 30.115 25.1758 30.115 49.0841C30.115 72.9887 49.6152 92.4376 73.5859 92.4376C78.5078 92.4376 83.3342 91.6191 87.9588 90.0005C76.9296 86.9505 67.3464 79.6429 61.4923 69.7515C61.3492 69.5093 61.4299 69.1936 61.6721 69.0505C61.9181 68.9073 62.2337 68.9881 62.3768 69.2303C68.3704 79.3567 78.3646 86.7119 89.7903 89.4133C90.0105 89.4647 90.1683 89.6518 90.1867 89.8757C90.2013 90.0959 90.0692 90.3051 89.86 90.3859C84.6555 92.4303 79.1795 93.4653 73.5859 93.4653Z" fill="black"/>
<path d="M60.6923 34.9535C60.4317 34.9535 60.2078 34.7516 60.1821 34.4874C59.9472 31.9328 59.3636 29.7233 58.3433 27.5432C58.2222 27.2862 58.3323 26.9816 58.5892 26.8642C58.8461 26.743 59.1544 26.8531 59.2719 27.1101C60.3473 29.4003 60.9602 31.7163 61.2061 34.3919C61.2318 34.6745 61.0226 34.9241 60.74 34.9498C60.7253 34.9498 60.7106 34.9535 60.6923 34.9535Z" fill="black"/>
<path d="M43.6802 47.6197C40.8981 47.6197 38.6299 49.8806 38.6299 52.659C38.6299 55.4374 40.8981 57.6983 43.6802 57.6983C46.4659 57.6983 48.7342 55.4374 48.7342 52.659C48.7342 49.8806 46.4659 47.6197 43.6802 47.6197ZM43.6802 58.7224C40.3292 58.7224 37.6022 56.0027 37.6022 52.659C37.6022 49.3154 40.3292 46.5957 43.6802 46.5957C47.0348 46.5957 49.7619 49.3154 49.7619 52.659C49.7619 56.0027 47.0348 58.7224 43.6802 58.7224Z" fill="black"/>
<path d="M43.7097 56.3696C38.7805 56.3696 34.9193 54.5822 34.9193 52.2992C34.9193 50.8531 36.3838 49.5979 38.9383 48.8565C39.2099 48.7758 39.4962 48.9336 39.5769 49.2052C39.6577 49.4768 39.4998 49.7594 39.2282 49.8401C37.2022 50.4274 35.947 51.3707 35.947 52.2992C35.947 53.738 39.1365 55.3419 43.7097 55.3419C48.2865 55.3419 51.4723 53.738 51.4723 52.2992C51.4723 51.356 50.1914 50.4054 48.125 49.8218C47.8534 49.741 47.6919 49.4584 47.7727 49.1868C47.8498 48.9152 48.1324 48.7574 48.4076 48.8345C51.0062 49.5722 52.5 50.8348 52.5 52.2992C52.5 54.5822 48.6389 56.3696 43.7097 56.3696Z" fill="black"/>
<path d="M18.6157 62.6312C18.4028 62.6312 18.2046 62.4991 18.1312 62.2899C18.0358 62.022 18.1753 61.732 18.4432 61.6366L20.0985 61.0457C20.3664 60.9502 20.6601 61.0897 20.7555 61.3576C20.8509 61.6256 20.7114 61.9192 20.4435 62.0109L18.7882 62.6019C18.7295 62.6202 18.6708 62.6312 18.6157 62.6312Z" fill="black"/>
<path d="M26.4151 21.3405C26.2719 21.3405 26.1325 21.2817 26.0297 21.1643L24.6974 19.6484C24.5102 19.4356 24.5322 19.1126 24.7451 18.9254C24.958 18.7382 25.2846 18.7602 25.4718 18.9731L26.8041 20.4926C26.9876 20.7055 26.9693 21.0285 26.7527 21.2157C26.6573 21.3001 26.5362 21.3405 26.4151 21.3405Z" fill="black"/>
</svg>
