<svg width="177" height="230" viewBox="0 0 177 230" fill="none" xmlns="http://www.w3.org/2000/svg">
<path d="M89.0649 198.955H67.7085C67.642 198.955 67.5889 198.902 67.5889 198.842C67.5889 198.776 67.642 198.723 67.7085 198.723H89.0649C89.1247 198.723 89.1779 198.776 89.1779 198.842C89.1779 198.902 89.1247 198.955 89.0649 198.955Z" fill="#484A56"/>
<path d="M100.421 230C100.354 230 100.308 229.947 100.308 229.887V209.654C100.308 209.594 100.354 209.541 100.421 209.541C100.487 209.541 100.534 209.594 100.534 209.654V229.887C100.534 229.947 100.487 230 100.421 230Z" fill="#484A56"/>
<path d="M100.421 188.144C100.354 188.144 100.308 188.091 100.308 188.024V167.824C100.308 167.758 100.354 167.705 100.421 167.705C100.487 167.705 100.534 167.758 100.534 167.824V188.024C100.534 188.091 100.487 188.144 100.421 188.144Z" fill="#484A56"/>
<path d="M92.6066 191.652C92.58 191.652 92.5535 191.639 92.5335 191.619L81.8553 181.951C81.8088 181.904 81.8021 181.831 81.8486 181.785C81.8885 181.738 81.9616 181.738 82.0081 181.778L92.6863 191.453C92.7329 191.493 92.7395 191.566 92.693 191.612C92.6731 191.639 92.6398 191.652 92.6066 191.652Z" fill="#484A56"/>
<path d="M91.8024 192.583C91.7759 192.583 91.7559 192.576 91.736 192.563L77.0044 182.35C76.9512 182.316 76.9446 182.243 76.9778 182.197C77.0177 182.144 77.0841 182.13 77.1373 182.164L91.8689 192.377C91.922 192.417 91.9287 192.483 91.8955 192.536C91.8689 192.569 91.8357 192.583 91.8024 192.583Z" fill="#484A56"/>
<path d="M90.9387 193.712C90.9188 193.712 90.9055 193.712 90.8855 193.698L78.3667 187.386C78.3135 187.359 78.2869 187.293 78.3135 187.233C78.3401 187.18 78.4132 187.153 78.4664 187.187L90.9919 193.499C91.045 193.526 91.0649 193.592 91.0384 193.652C91.0184 193.692 90.9786 193.712 90.9387 193.712Z" fill="#484A56"/>
<path d="M81.9284 215.933C81.9018 215.933 81.8686 215.919 81.8486 215.893C81.8021 215.846 81.8088 215.78 81.8553 215.733L92.5335 206.065C92.58 206.018 92.6531 206.025 92.693 206.072C92.7329 206.118 92.7329 206.185 92.6863 206.231L82.0081 215.899C81.9815 215.926 81.955 215.933 81.9284 215.933Z" fill="#484A56"/>
<path d="M77.071 215.541C77.0312 215.541 76.998 215.521 76.978 215.488C76.9381 215.435 76.9514 215.368 77.0046 215.335L91.7362 205.122C91.7827 205.082 91.8558 205.095 91.8957 205.148C91.9289 205.202 91.9156 205.275 91.8691 205.308L77.1375 215.521C77.1176 215.534 77.091 215.541 77.071 215.541Z" fill="#484A56"/>
<path d="M78.4198 210.51C78.3733 210.51 78.3335 210.49 78.3135 210.45C78.2869 210.39 78.3135 210.324 78.3667 210.297L90.8855 203.985C90.9453 203.958 91.0118 203.978 91.0384 204.031C91.0649 204.091 91.045 204.158 90.9919 204.184L78.4664 210.497C78.4531 210.51 78.4331 210.51 78.4198 210.51Z" fill="#484A56"/>
<path d="M110.275 198.842C110.275 199.487 110.209 200.125 110.082 200.763C109.956 201.394 109.77 202.005 109.524 202.603C109.278 203.201 108.973 203.766 108.614 204.304C108.255 204.842 107.843 205.341 107.391 205.793C106.933 206.251 106.434 206.656 105.896 207.015C105.358 207.374 104.786 207.68 104.188 207.926C103.59 208.171 102.979 208.358 102.341 208.484C101.71 208.61 101.065 208.677 100.421 208.677C99.7696 208.677 99.1317 208.61 98.5005 208.484C97.8625 208.358 97.2446 208.171 96.6465 207.926C96.0485 207.68 95.4837 207.374 94.9455 207.015C94.4072 206.656 93.9089 206.251 93.4504 205.793C92.9919 205.341 92.5866 204.842 92.2277 204.304C91.8689 203.766 91.5633 203.201 91.3174 202.603C91.0649 202.005 90.8788 201.394 90.7526 200.763C90.6263 200.125 90.5665 199.487 90.5665 198.842C90.5665 198.198 90.6263 197.56 90.7526 196.922C90.8788 196.291 91.0649 195.673 91.3174 195.081C91.5633 194.483 91.8689 193.918 92.2277 193.38C92.5866 192.842 92.9919 192.344 93.4504 191.892C93.9089 191.433 94.4072 191.021 94.9455 190.662C95.4837 190.304 96.0485 190.005 96.6465 189.759C97.2446 189.513 97.8625 189.32 98.5005 189.201C99.1317 189.074 99.7696 189.008 100.421 189.008C101.065 189.008 101.71 189.074 102.341 189.201C102.979 189.32 103.59 189.513 104.188 189.759C104.786 190.005 105.358 190.31 105.896 190.662C106.434 191.021 106.933 191.433 107.391 191.892C107.843 192.344 108.255 192.842 108.614 193.38C108.973 193.918 109.278 194.483 109.524 195.081C109.77 195.673 109.956 196.291 110.082 196.922C110.209 197.56 110.275 198.198 110.275 198.842Z" fill="#484A56"/>
<path d="M86.4801 221.993C86.4601 221.993 86.4402 221.987 86.4202 221.974C86.3671 221.94 86.3472 221.874 86.3804 221.821L94.5336 207.88C94.5668 207.827 94.6399 207.807 94.6931 207.84C94.7462 207.867 94.7661 207.94 94.7329 207.993L86.5797 221.934C86.5598 221.967 86.5199 221.993 86.4801 221.993Z" fill="#484A56"/>
<path d="M93.3704 217.7C93.3571 217.7 93.3439 217.7 93.3306 217.693C93.2708 217.673 93.2442 217.607 93.2641 217.554L96.1679 208.909C96.1878 208.849 96.2543 208.816 96.3141 208.836C96.3739 208.856 96.4071 208.922 96.3872 208.982L93.4767 217.62C93.4635 217.673 93.4169 217.7 93.3704 217.7Z" fill="#484A56"/>
<path d="M95.7694 223.753H95.7562C95.6897 223.746 95.6498 223.687 95.6565 223.627L97.8094 209.241C97.8161 209.181 97.8759 209.141 97.9357 209.148C98.0021 209.154 98.042 209.214 98.0353 209.274L95.8824 223.66C95.8758 223.713 95.8292 223.753 95.7694 223.753Z" fill="#484A56"/>
<path d="M94.6333 189.858C94.5934 189.858 94.5535 189.838 94.5336 189.805L86.3804 175.864C86.3472 175.811 86.3671 175.738 86.4202 175.705C86.4734 175.678 86.5465 175.692 86.5797 175.751L94.7329 189.686C94.7661 189.745 94.7462 189.812 94.6931 189.845C94.6731 189.858 94.6532 189.858 94.6333 189.858Z" fill="#484A56"/>
<path d="M96.2742 188.855C96.2277 188.855 96.1878 188.822 96.1679 188.775L93.2641 180.13C93.2442 180.07 93.2708 180.011 93.3306 179.991C93.3904 179.971 93.4568 180.004 93.4767 180.057L96.3872 188.702C96.4071 188.762 96.3739 188.828 96.3141 188.848C96.3008 188.848 96.2875 188.855 96.2742 188.855Z" fill="#484A56"/>
<path d="M97.9224 188.536C97.8626 188.536 97.8161 188.496 97.8094 188.437L95.6565 174.057C95.6498 173.997 95.6897 173.938 95.7562 173.931C95.816 173.918 95.8758 173.964 95.8824 174.024L98.0353 188.403C98.042 188.47 98.0021 188.523 97.9357 188.536C97.929 188.536 97.929 188.536 97.9224 188.536Z" fill="#484A56"/>
<path d="M74.2137 204.896C74.1672 204.896 74.1141 204.862 74.1074 204.803C74.0941 204.743 74.134 204.683 74.1938 204.67L89.6829 201.394C89.7427 201.374 89.8025 201.414 89.8158 201.48C89.8291 201.54 89.7892 201.6 89.7294 201.613L74.2403 204.896C74.2337 204.896 74.227 204.896 74.2137 204.896Z" fill="#484A56"/>
<path d="M89.3241 196.257C89.3175 196.257 89.3042 196.257 89.2975 196.25L74.1938 192.848C74.1274 192.835 74.0875 192.768 74.1008 192.709C74.1207 192.649 74.1806 192.609 74.2404 192.622L89.3507 196.031C89.4105 196.044 89.4504 196.104 89.4371 196.164C89.4238 196.217 89.3773 196.257 89.3241 196.257Z" fill="#484A56"/>
<path d="M82.2406 200.796C82.1875 200.796 82.1343 200.749 82.1277 200.69C82.1277 200.63 82.1742 200.577 82.234 200.57L89.0582 200.065C89.118 200.065 89.1712 200.105 89.1778 200.171C89.1845 200.231 89.138 200.291 89.0715 200.291L82.2539 200.796C82.2539 200.796 82.2473 200.796 82.2406 200.796Z" fill="#484A56"/>
<path d="M89.0649 197.52C89.0582 197.52 89.0582 197.52 89.0516 197.52L82.234 196.823C82.1676 196.816 82.1277 196.763 82.1277 196.696C82.141 196.637 82.1941 196.59 82.2539 196.597L89.0715 197.288C89.138 197.301 89.1845 197.354 89.1778 197.414C89.1712 197.474 89.1247 197.52 89.0649 197.52Z" fill="#484A56"/>
<path d="M88.5662 213.095C88.5396 213.095 88.5131 213.088 88.4931 213.075C88.4466 213.035 88.4333 212.962 88.4732 212.915L93.2774 206.855C93.3173 206.809 93.3904 206.802 93.4369 206.842C93.49 206.882 93.4967 206.948 93.4568 207.002L88.6526 213.055C88.6327 213.082 88.5994 213.095 88.5662 213.095Z" fill="#484A56"/>
<path d="M93.3707 190.869C93.3375 190.869 93.3043 190.856 93.2777 190.829L88.4735 184.776C88.4336 184.723 88.4403 184.65 88.4934 184.617C88.54 184.577 88.613 184.583 88.6529 184.63L93.4571 190.69C93.497 190.736 93.4903 190.809 93.4372 190.849C93.4173 190.863 93.3973 190.869 93.3707 190.869Z" fill="#484A56"/>
<path d="M98.9988 218.524C98.9921 218.524 98.9921 218.524 98.9921 218.524C98.9257 218.517 98.8792 218.464 98.8792 218.404L99.2579 209.653C99.2645 209.593 99.3111 209.54 99.3775 209.546C99.444 209.546 99.4905 209.6 99.4905 209.659L99.1117 218.411C99.1051 218.47 99.0586 218.524 98.9988 218.524Z" fill="#484A56"/>
<path d="M99.3775 188.144C99.3111 188.144 99.2645 188.091 99.2579 188.031L98.8792 179.28C98.8792 179.22 98.9257 179.167 98.9921 179.161C99.0586 179.161 99.1051 179.207 99.1117 179.274L99.4905 188.018C99.4905 188.085 99.444 188.138 99.3775 188.138C99.3775 188.144 99.3775 188.144 99.3775 188.144Z" fill="#484A56"/>
<path d="M133.134 198.955H111.777C111.717 198.955 111.664 198.902 111.664 198.842C111.664 198.776 111.717 198.723 111.777 198.723H133.134C133.2 198.723 133.253 198.776 133.253 198.842C133.247 198.902 133.2 198.955 133.134 198.955Z" fill="#484A56"/>
<path d="M108.235 191.652C108.202 191.652 108.169 191.639 108.149 191.612C108.109 191.566 108.109 191.493 108.156 191.453L118.834 181.778C118.88 181.738 118.953 181.738 119 181.785C119.04 181.831 119.033 181.904 118.993 181.951L108.308 191.619C108.289 191.639 108.262 191.652 108.235 191.652Z" fill="#484A56"/>
<path d="M109.039 192.583C109.006 192.583 108.973 192.569 108.946 192.536C108.913 192.483 108.926 192.41 108.973 192.377L123.704 182.164C123.758 182.13 123.831 182.144 123.864 182.197C123.904 182.243 123.891 182.316 123.837 182.35L109.106 192.563C109.086 192.576 109.066 192.583 109.039 192.583Z" fill="#484A56"/>
<path d="M109.903 193.712C109.863 193.712 109.824 193.692 109.797 193.652C109.77 193.592 109.797 193.526 109.85 193.499L122.369 187.187C122.429 187.153 122.495 187.18 122.522 187.233C122.555 187.293 122.529 187.359 122.475 187.386L109.957 193.698C109.937 193.712 109.923 193.712 109.903 193.712Z" fill="#484A56"/>
<path d="M118.913 215.933C118.88 215.933 118.853 215.926 118.834 215.906L108.155 206.231C108.109 206.191 108.102 206.118 108.149 206.072C108.189 206.025 108.262 206.018 108.308 206.065L118.986 215.733C119.033 215.78 119.04 215.853 118.993 215.899C118.973 215.919 118.94 215.933 118.913 215.933Z" fill="#484A56"/>
<path d="M123.771 215.541C123.751 215.541 123.724 215.534 123.704 215.514L108.979 205.308C108.926 205.268 108.913 205.195 108.953 205.149C108.986 205.095 109.059 205.082 109.112 205.115L123.837 215.328C123.89 215.368 123.904 215.435 123.864 215.488C123.844 215.521 123.811 215.541 123.771 215.541Z" fill="#484A56"/>
<path d="M122.422 210.51C122.409 210.51 122.389 210.51 122.369 210.497L109.85 204.184C109.797 204.158 109.77 204.091 109.797 204.031C109.83 203.978 109.897 203.958 109.957 203.985L122.475 210.297C122.529 210.324 122.555 210.39 122.522 210.45C122.509 210.49 122.462 210.51 122.422 210.51Z" fill="#484A56"/>
<path d="M114.362 221.993C114.322 221.993 114.282 221.967 114.262 221.934L106.109 207.993C106.076 207.94 106.096 207.867 106.149 207.84C106.202 207.807 106.275 207.827 106.308 207.88L114.461 221.821C114.495 221.874 114.475 221.94 114.422 221.974C114.402 221.987 114.382 221.993 114.362 221.993Z" fill="#484A56"/>
<path d="M107.471 217.7C107.425 217.7 107.378 217.673 107.365 217.62L104.454 208.982C104.434 208.922 104.468 208.856 104.527 208.836C104.587 208.816 104.654 208.849 104.674 208.909L107.577 217.547C107.597 217.607 107.564 217.673 107.511 217.693C107.498 217.7 107.484 217.7 107.471 217.7Z" fill="#484A56"/>
<path d="M105.072 223.753C105.012 223.753 104.966 223.713 104.959 223.66L102.806 209.274C102.8 209.214 102.84 209.154 102.906 209.148C102.966 209.141 103.026 209.181 103.032 209.241L105.185 223.627C105.192 223.687 105.152 223.746 105.086 223.753C105.079 223.753 105.072 223.753 105.072 223.753Z" fill="#484A56"/>
<path d="M106.209 189.858C106.189 189.858 106.169 189.858 106.149 189.845C106.096 189.812 106.076 189.745 106.109 189.685L114.262 175.751C114.295 175.698 114.362 175.678 114.422 175.705C114.475 175.738 114.495 175.811 114.461 175.864L106.308 189.805C106.288 189.838 106.248 189.858 106.209 189.858Z" fill="#484A56"/>
<path d="M104.561 188.855C104.554 188.855 104.541 188.848 104.527 188.848C104.468 188.828 104.434 188.762 104.454 188.702L107.365 180.064C107.385 180.004 107.451 179.971 107.511 179.991C107.564 180.011 107.597 180.077 107.577 180.137L104.674 188.775C104.654 188.822 104.614 188.855 104.561 188.855Z" fill="#484A56"/>
<path d="M102.919 188.536C102.913 188.536 102.906 188.536 102.906 188.536C102.84 188.523 102.8 188.47 102.806 188.403L104.959 174.024C104.966 173.964 105.026 173.918 105.086 173.931C105.152 173.938 105.192 173.997 105.185 174.057L103.032 188.437C103.026 188.496 102.979 188.536 102.919 188.536Z" fill="#484A56"/>
<path d="M126.621 204.896C126.615 204.896 126.608 204.896 126.601 204.896L111.112 201.613C111.052 201.6 111.013 201.54 111.026 201.48C111.039 201.414 111.099 201.381 111.159 201.394L126.648 204.67C126.708 204.683 126.748 204.743 126.734 204.803C126.728 204.863 126.674 204.896 126.621 204.896Z" fill="#484A56"/>
<path d="M111.518 196.257C111.464 196.257 111.418 196.217 111.405 196.171C111.391 196.104 111.431 196.044 111.491 196.031L126.601 192.622C126.661 192.609 126.721 192.649 126.734 192.709C126.748 192.768 126.714 192.835 126.648 192.848L111.544 196.257C111.531 196.257 111.524 196.257 111.518 196.257Z" fill="#484A56"/>
<path d="M118.595 200.796C118.595 200.796 118.595 200.796 118.588 200.796L111.771 200.291C111.711 200.284 111.664 200.231 111.664 200.171C111.671 200.111 111.724 200.065 111.784 200.065L118.608 200.57C118.668 200.577 118.714 200.63 118.708 200.69C118.708 200.749 118.655 200.796 118.595 200.796Z" fill="#484A56"/>
<path d="M111.777 197.52C111.717 197.52 111.671 197.474 111.664 197.414C111.657 197.354 111.704 197.301 111.764 197.288L118.588 196.597C118.648 196.59 118.701 196.637 118.708 196.696C118.721 196.763 118.668 196.816 118.608 196.823L111.79 197.52C111.784 197.514 111.784 197.52 111.777 197.52Z" fill="#484A56"/>
<path d="M112.275 213.096C112.242 213.096 112.209 213.083 112.189 213.056L107.384 206.996C107.345 206.95 107.351 206.876 107.404 206.837C107.451 206.797 107.524 206.81 107.564 206.857L112.368 212.91C112.408 212.963 112.395 213.036 112.348 213.069C112.321 213.089 112.302 213.096 112.275 213.096Z" fill="#484A56"/>
<path d="M107.471 190.869C107.444 190.869 107.418 190.862 107.398 190.849C107.351 190.809 107.345 190.736 107.378 190.69L112.182 184.63C112.222 184.583 112.295 184.576 112.342 184.61C112.395 184.65 112.401 184.723 112.362 184.769L107.557 190.823C107.537 190.856 107.504 190.869 107.471 190.869Z" fill="#484A56"/>
<path d="M101.843 218.524C101.783 218.524 101.737 218.47 101.73 218.411L101.351 209.659C101.351 209.6 101.398 209.546 101.464 209.546C101.531 209.54 101.577 209.593 101.584 209.653L101.963 218.404C101.963 218.464 101.916 218.517 101.85 218.524C101.85 218.524 101.85 218.524 101.843 218.524Z" fill="#484A56"/>
<path d="M101.464 188.143C101.398 188.137 101.351 188.083 101.351 188.024L101.73 179.272C101.737 179.213 101.783 179.159 101.85 179.166C101.916 179.166 101.963 179.219 101.963 179.286L101.584 188.03C101.577 188.09 101.531 188.143 101.464 188.143Z" fill="#484A56"/>
<path d="M65.0107 172.157C58.1665 172.157 52.5981 166.941 52.5981 160.522C52.5981 154.103 58.1665 148.887 65.0107 148.887C71.8615 148.887 77.4299 154.103 77.4299 160.522C77.4299 166.941 71.8615 172.157 65.0107 172.157ZM65.0107 149.425C58.4655 149.425 53.143 154.402 53.143 160.522C53.143 166.642 58.4655 171.619 65.0107 171.619C71.5625 171.619 76.885 166.642 76.885 160.522C76.885 154.402 71.5558 149.425 65.0107 149.425Z" fill="#484A56"/>
<path d="M65.2696 153.757C61.6083 153.757 58.5516 153.059 56.6379 152.474L56.7974 151.956C59.9604 152.92 66.2995 154.202 73.2766 152.003L73.4361 152.521C70.5522 153.431 67.7747 153.757 65.2696 153.757Z" fill="#484A56"/>
<path d="M65.9875 151.996C63.0771 151.996 60.3129 151.531 58.5254 151.139L58.6384 150.607C61.5554 151.238 67.1105 152.095 71.5094 150.707L71.6755 151.225C69.8814 151.79 67.9012 151.996 65.9875 151.996Z" fill="#484A56"/>
<path d="M65.4359 157.432C60.1931 157.432 55.9936 156.575 53.9071 156.043L54.04 155.518C57.389 156.369 66.2333 158.07 76.0344 155.624L76.1673 156.149C72.3598 157.1 68.6985 157.432 65.4359 157.432Z" fill="#484A56"/>
<path d="M65.2034 164.734C59.728 164.734 55.163 163.08 52.8307 162.03L52.9437 161.791L52.937 161.512H53.0035L53.0566 161.538C56.904 163.259 66.9443 166.681 76.9846 161.239L77.2438 161.711C73.0841 163.964 68.9377 164.734 65.2034 164.734Z" fill="#484A56"/>
<path d="M64.6118 169.332C61.0834 169.332 57.9072 168.641 55.4021 167.824L55.5682 167.312C60.3459 168.86 67.6153 169.977 75.0641 166.495L75.2967 166.986C71.5955 168.714 67.9409 169.332 64.6118 169.332Z" fill="#484A56"/>
<path d="M64.6055 170.203C61.5489 170.203 58.8046 169.691 56.645 169.087L56.7912 168.562C60.9708 169.731 67.3299 170.562 73.9415 167.871L74.1408 168.369C70.8251 169.725 67.5625 170.203 64.6055 170.203Z" fill="#484A56"/>
<path d="M120.189 153.962C108.235 153.962 98.5139 144.899 98.5139 133.756C98.5139 122.612 108.235 113.542 120.189 113.542C132.137 113.542 141.865 122.612 141.865 133.756C141.858 144.899 132.137 153.962 120.189 153.962ZM120.189 114.087C108.534 114.087 99.0588 122.911 99.0588 133.756C99.0588 144.6 108.534 153.424 120.189 153.424C131.838 153.424 141.32 144.6 141.32 133.756C141.32 122.911 131.838 114.087 120.189 114.087Z" fill="#484A56"/>
<path d="M121.717 123.065C114.348 123.065 108.228 120.959 105.192 119.683L105.404 119.178C110.182 121.191 122.674 125.278 135.545 119.729L135.765 120.228C130.901 122.321 126.09 123.065 121.717 123.065Z" fill="#484A56"/>
<path d="M122.362 129.443C112.561 129.443 104.66 126.858 100.82 125.31L101.019 124.812C106.946 127.19 122.588 132.061 139.891 125.915L140.077 126.426C133.831 128.646 127.804 129.443 122.362 129.443Z" fill="#484A56"/>
<path d="M122.588 132.388C111.724 132.388 102.853 129.69 99.5172 128.514L99.6966 128.002C104.767 129.783 122.728 135.125 140.941 128.939L141.114 129.451C134.728 131.623 128.376 132.388 122.588 132.388Z" fill="#484A56"/>
<path d="M110.056 146.607C109.192 146.607 108.541 146.567 108.269 146.488L108.142 146.454C107.458 146.255 106.607 146.016 105.803 145.577C105.318 145.312 104.999 144.826 104.946 144.275C104.893 143.71 105.125 143.165 105.557 142.806C107.451 141.238 110.049 139.504 111.677 140.082C112.667 140.434 113.192 140.873 113.657 141.252C114.335 141.81 114.92 142.281 116.761 142.474C118.149 142.614 119.12 142.494 120.063 142.381C121.279 142.228 122.422 142.082 124.203 142.567C127.273 143.391 130.077 143.385 132.688 143.298C134.17 143.252 136.748 143.438 138.649 143.604L138.602 144.142C136.715 143.983 134.157 143.797 132.702 143.843C130.05 143.923 127.2 143.936 124.063 143.086C122.382 142.634 121.339 142.767 120.13 142.913C119.206 143.026 118.156 143.159 116.707 143.012C114.701 142.806 114.023 142.255 113.312 141.67C112.86 141.298 112.388 140.913 111.491 140.594C110.428 140.215 108.388 141.172 105.903 143.218C105.611 143.464 105.451 143.836 105.484 144.222C105.524 144.601 105.73 144.919 106.062 145.099C106.813 145.511 107.597 145.73 108.288 145.93L108.415 145.963C109.498 146.275 117.591 145.856 119.332 144.753C121.286 143.517 128.927 143.803 130.522 144.222C131.299 144.428 133.944 144.66 137.772 144.866L137.738 145.405C135.472 145.285 131.499 145.039 130.382 144.74C128.701 144.302 121.299 144.149 119.625 145.205C118.123 146.169 112.92 146.607 110.056 146.607Z" fill="#484A56"/>
<path d="M120.953 149.704C113.731 149.704 107.577 148.136 103.717 146.84L103.89 146.328C110.255 148.461 122.927 151.338 136.257 146.567L136.303 146.547H136.35V146.826L136.443 147.079C131.047 149.006 125.764 149.704 120.953 149.704Z" fill="#484A56"/>
<path d="M121.485 134.772C110.853 134.772 102.866 131.995 99.0388 130.327L99.2581 129.829C105.159 132.4 121.073 137.65 141.333 130.978L141.506 131.496C134.183 133.909 127.426 134.772 121.485 134.772Z" fill="#484A56"/>
<path d="M110.966 145.777C108.773 145.777 106.587 145.418 105.983 144.329C105.817 144.023 106.116 143.684 106.215 143.571C106.986 142.687 109.983 140.807 111.092 141.239L111.431 141.365C115.365 142.867 116.84 143.751 116.681 144.528C116.648 144.687 116.555 145.166 114.189 145.531C113.265 145.678 112.116 145.777 110.966 145.777ZM106.488 144.109C106.886 144.734 108.242 145.139 110.235 145.219C113.212 145.339 115.93 144.741 116.156 144.402C116.176 144.275 115.91 143.651 111.239 141.877L110.893 141.744C110.647 141.651 109.936 141.764 108.76 142.395C107.518 143.066 106.601 143.844 106.488 144.109Z" fill="#484A56"/>
<path d="M27.8196 147.391C20.9887 147.391 15.4403 142.268 15.4403 135.976C15.4403 129.69 20.9954 124.566 27.8196 124.566C34.6439 124.566 40.1989 129.69 40.1989 135.976C40.1989 142.268 34.6439 147.391 27.8196 147.391ZM27.8196 125.111C21.2944 125.111 15.9785 129.989 15.9785 135.976C15.9785 141.969 21.2944 146.847 27.8196 146.847C34.3448 146.847 39.6541 141.969 39.6541 135.976C39.6541 129.989 34.3448 125.111 27.8196 125.111Z" fill="#484A56"/>
<path d="M48.558 145.125C45.0761 145.125 40.644 144.693 36.3979 144.069C33.3214 143.623 30.0721 143.045 26.743 142.348C23.0751 141.583 19.5533 140.726 16.2641 139.803C12.3769 138.706 -0.27485 134.905 0.336474 131.955C0.927865 129.151 13.1543 130.506 16.8887 130.985L16.8156 131.523C6.23044 130.161 1.12721 130.852 0.86806 132.068C0.602267 133.357 5.35332 136.168 16.417 139.278C19.6862 140.201 23.2013 141.058 26.856 141.816C30.1717 142.514 33.4078 143.085 36.471 143.53C47.9732 145.211 54.2792 144.68 54.5716 143.284C54.8307 142.049 50.3321 139.337 39.8533 136.307L39.9994 135.782C43.694 136.852 55.7012 140.553 55.1031 143.397C54.844 144.647 52.2259 145.125 48.558 145.125Z" fill="#484A56"/>
<path d="M44.312 143.179C42.1458 143.179 39.5809 142.926 37.6605 142.694C34.4577 142.308 30.8164 141.697 27.1351 140.926C23.0419 140.076 19.1215 139.072 15.7858 138.029C11.5995 136.72 6.68237 134.839 7.00132 133.324C7.30698 131.876 12.2042 132.055 16.2576 132.467L16.2044 133.006C9.57287 132.341 7.63258 132.966 7.5329 133.437C7.43323 133.909 9.06786 135.358 15.9453 137.511C19.2677 138.547 23.1682 139.544 27.2481 140.401C30.9094 141.165 34.5375 141.77 37.727 142.155C45.6941 143.126 47.9999 142.421 48.0996 141.916C48.1992 141.451 46.5713 140.003 39.7138 137.85L39.8799 137.338C44.0462 138.64 48.9501 140.514 48.6312 142.029C48.4517 142.9 46.6045 143.179 44.312 143.179Z" fill="#484A56"/>
<path d="M157.626 174.834C151.932 174.834 147.287 170.588 147.287 165.358C147.287 160.136 151.925 155.883 157.626 155.883C163.334 155.883 167.972 160.136 167.972 165.358C167.972 170.588 163.334 174.834 157.626 174.834ZM157.626 156.428C152.231 156.428 147.832 160.435 147.832 165.358C147.832 170.282 152.231 174.296 157.626 174.296C163.028 174.296 167.427 170.282 167.427 165.358C167.427 160.435 163.028 156.428 157.626 156.428Z" fill="#484A56"/>
<path d="M145.513 170.907C143.021 170.907 140.928 170.634 140.762 169.724C140.589 168.707 142.868 167.505 147.546 166.136L147.699 166.654C142.489 168.176 141.233 169.266 141.3 169.631C141.366 170.03 143.12 170.661 149.247 170.209C152.184 169.997 155.573 169.565 159.035 168.96C161.959 168.455 164.836 167.837 167.367 167.186C173.833 165.518 176.046 164.136 175.959 163.611C175.866 163.119 173.501 162.574 167.334 163.086L167.288 162.541C171.348 162.209 176.245 162.103 176.491 163.518C176.763 165.079 170.976 166.82 167.507 167.711C164.962 168.369 162.065 168.987 159.135 169.498C155.646 170.103 152.244 170.535 149.287 170.754C148.051 170.84 146.735 170.907 145.513 170.907Z" fill="#484A56"/>
<path d="M28.2648 124.155C28.2648 123.557 28.7498 123.072 29.3545 123.072C29.9526 123.072 30.4376 123.557 30.4376 124.155C30.4376 124.753 29.9526 125.244 29.3545 125.244C28.7498 125.244 28.2648 124.753 28.2648 124.155ZM28.2648 120.899C28.2648 120.301 28.7498 119.816 29.3545 119.816C29.9526 119.816 30.4376 120.301 30.4376 120.899C30.4376 121.503 29.9526 121.988 29.3545 121.988C28.7498 121.988 28.2648 121.503 28.2648 120.899ZM28.2648 117.649C28.2648 117.045 28.7498 116.56 29.3545 116.56C29.9526 116.56 30.4376 117.045 30.4376 117.649C30.4376 118.247 29.9526 118.733 29.3545 118.733C28.7498 118.733 28.2648 118.247 28.2648 117.649ZM28.2648 114.393C28.2648 113.795 28.7498 113.304 29.3545 113.304C29.9526 113.304 30.4376 113.795 30.4376 114.393C30.4376 114.991 29.9526 115.477 29.3545 115.477C28.7498 115.477 28.2648 114.991 28.2648 114.393ZM28.2648 111.137C28.2648 110.539 28.7498 110.054 29.3545 110.054C29.9526 110.054 30.4376 110.539 30.4376 111.137C30.4376 111.736 29.9526 112.221 29.3545 112.221C28.7498 112.221 28.2648 111.736 28.2648 111.137ZM28.2648 107.882C28.2648 107.283 28.7498 106.798 29.3545 106.798C29.9526 106.798 30.4376 107.283 30.4376 107.882C30.4376 108.48 29.9526 108.965 29.3545 108.965C28.7498 108.965 28.2648 108.48 28.2648 107.882ZM28.2648 104.626C28.2648 104.028 28.7498 103.542 29.3545 103.542C29.9526 103.542 30.4376 104.028 30.4376 104.626C30.4376 105.224 29.9526 105.709 29.3545 105.709C28.7498 105.709 28.2648 105.224 28.2648 104.626ZM28.2648 101.37C28.2648 100.772 28.7498 100.286 29.3545 100.286C29.9526 100.286 30.4376 100.772 30.4376 101.37C30.4376 101.968 29.9526 102.453 29.3545 102.453C28.7498 102.453 28.2648 101.968 28.2648 101.37ZM28.2648 98.1136C28.2648 97.5156 28.7498 97.0305 29.3545 97.0305C29.9526 97.0305 30.4376 97.5156 30.4376 98.1136C30.4376 98.7117 29.9526 99.1967 29.3545 99.1967C28.7498 99.1967 28.2648 98.7183 28.2648 98.1136ZM28.2648 94.8577C28.2648 94.2596 28.7498 93.7746 29.3545 93.7746C29.9526 93.7746 30.4376 94.2596 30.4376 94.8577C30.4376 95.4557 29.9526 95.9474 29.3545 95.9474C28.7498 95.9474 28.2648 95.4623 28.2648 94.8577ZM28.2648 91.6017C28.2648 91.0037 28.7498 90.5186 29.3545 90.5186C29.9526 90.5186 30.4376 91.0037 30.4376 91.6017C30.4376 92.1997 29.9526 92.6914 29.3545 92.6914C28.7498 92.6914 28.2648 92.2064 28.2648 91.6017ZM28.2648 88.3524C28.2648 87.7477 28.7498 87.2626 29.3545 87.2626C29.9526 87.2626 30.4376 87.7477 30.4376 88.3524C30.4376 88.9504 29.9526 89.4355 29.3545 89.4355C28.7498 89.4355 28.2648 88.9504 28.2648 88.3524ZM28.2648 85.0964C28.2648 84.4984 28.7498 84.0067 29.3545 84.0067C29.9526 84.0067 30.4376 84.4984 30.4376 85.0964C30.4376 85.6944 29.9526 86.1795 29.3545 86.1795C28.7498 86.1795 28.2648 85.6944 28.2648 85.0964ZM28.2648 81.8404C28.2648 81.2424 28.7498 80.7573 29.3545 80.7573C29.9526 80.7573 30.4376 81.2424 30.4376 81.8404C30.4376 82.4385 29.9526 82.9235 29.3545 82.9235C28.7498 82.9235 28.2648 82.4385 28.2648 81.8404ZM28.2648 78.5845C28.2648 77.9864 28.7498 77.5014 29.3545 77.5014C29.9526 77.5014 30.4376 77.9864 30.4376 78.5845C30.4376 79.1825 29.9526 79.6676 29.3545 79.6676C28.7498 79.6676 28.2648 79.1825 28.2648 78.5845ZM28.2648 75.3285C28.2648 74.7305 28.7498 74.2454 29.3545 74.2454C29.9526 74.2454 30.4376 74.7305 30.4376 75.3285C30.4376 75.9265 29.9526 76.4116 29.3545 76.4116C28.7498 76.4116 28.2648 75.9265 28.2648 75.3285ZM28.2648 72.0725C28.2648 71.4745 28.7498 70.9894 29.3545 70.9894C29.9526 70.9894 30.4376 71.4745 30.4376 72.0725C30.4376 72.6706 29.9526 73.1556 29.3545 73.1556C28.7498 73.1623 28.2648 72.6706 28.2648 72.0725ZM28.2648 68.8166C28.2648 68.2185 28.7498 67.7335 29.3545 67.7335C29.9526 67.7335 30.4376 68.2185 30.4376 68.8166C30.4376 69.4146 29.9526 69.8997 29.3545 69.8997C28.7498 69.9063 28.2648 69.4213 28.2648 68.8166ZM28.2648 65.5606C28.2648 64.9626 28.7498 64.4775 29.3545 64.4775C29.9526 64.4775 30.4376 64.9626 30.4376 65.5606C30.4376 66.1586 29.9526 66.6437 29.3545 66.6437C28.7498 66.6504 28.2648 66.1653 28.2648 65.5606ZM28.2648 62.3046C28.2648 61.7066 28.7498 61.2215 29.3545 61.2215C29.9526 61.2215 30.4376 61.7066 30.4376 62.3046C30.4376 62.9027 29.9526 63.3944 29.3545 63.3944C28.7498 63.3944 28.2648 62.9093 28.2648 62.3046ZM28.2648 59.0487C28.2648 58.4506 28.7498 57.9656 29.3545 57.9656C29.9526 57.9656 30.4376 58.4506 30.4376 59.0487C30.4376 59.6534 29.9526 60.1384 29.3545 60.1384C28.7498 60.1384 28.2648 59.6534 28.2648 59.0487ZM28.2648 55.7994C28.2648 55.1947 28.7498 54.7096 29.3545 54.7096C29.9526 54.7096 30.4376 55.1947 30.4376 55.7994C30.4376 56.3974 29.9526 56.8825 29.3545 56.8825C28.7498 56.8825 28.2648 56.3974 28.2648 55.7994ZM28.2648 52.5434C28.2648 51.9454 28.7498 51.4536 29.3545 51.4536C29.9526 51.4536 30.4376 51.9454 30.4376 52.5434C30.4376 53.1414 29.9526 53.6265 29.3545 53.6265C28.7498 53.6265 28.2648 53.1414 28.2648 52.5434ZM28.2648 49.2874C28.2648 48.6894 28.7498 48.2043 29.3545 48.2043C29.9526 48.2043 30.4376 48.6894 30.4376 49.2874C30.4376 49.8855 29.9526 50.3705 29.3545 50.3705C28.7498 50.3705 28.2648 49.8855 28.2648 49.2874ZM28.2648 46.0315C28.2648 45.4334 28.7498 44.9484 29.3545 44.9484C29.9526 44.9484 30.4376 45.4334 30.4376 46.0315C30.4376 46.6295 29.9526 47.1146 29.3545 47.1146C28.7498 47.1146 28.2648 46.6295 28.2648 46.0315ZM28.2648 42.7755C28.2648 42.1775 28.7498 41.6924 29.3545 41.6924C29.9526 41.6924 30.4376 42.1775 30.4376 42.7755C30.4376 43.3735 29.9526 43.8586 29.3545 43.8586C28.7498 43.8586 28.2648 43.3735 28.2648 42.7755ZM28.2648 39.5195C28.2648 38.9215 28.7498 38.4364 29.3545 38.4364C29.9526 38.4364 30.4376 38.9215 30.4376 39.5195C30.4376 40.1176 29.9526 40.6093 29.3545 40.6093C28.7498 40.6093 28.2648 40.1176 28.2648 39.5195ZM28.2648 36.2636C28.2648 35.6655 28.7498 35.1805 29.3545 35.1805C29.9526 35.1805 30.4376 35.6655 30.4376 36.2636C30.4376 36.8682 29.9526 37.3533 29.3545 37.3533C28.7498 37.3533 28.2648 36.8682 28.2648 36.2636ZM28.2648 33.0143C28.2648 32.4096 28.7498 31.9245 29.3545 31.9245C29.9526 31.9245 30.4376 32.4096 30.4376 33.0143C30.4376 33.6123 29.9526 34.0974 29.3545 34.0974C28.7498 34.0974 28.2648 33.6123 28.2648 33.0143ZM28.2648 29.7583C28.2648 29.1602 28.7498 28.6685 29.3545 28.6685C29.9526 28.6685 30.4376 29.1602 30.4376 29.7583C30.4376 30.3563 29.9526 30.8414 29.3545 30.8414C28.7498 30.8414 28.2648 30.3563 28.2648 29.7583ZM28.2648 26.5023C28.2648 25.9043 28.7498 25.4192 29.3545 25.4192C29.9526 25.4192 30.4376 25.9043 30.4376 26.5023C30.4376 27.1004 29.9526 27.5854 29.3545 27.5854C28.7498 27.5854 28.2648 27.1004 28.2648 26.5023ZM28.2648 23.2464C28.2648 22.6483 28.7498 22.1632 29.3545 22.1632C29.9526 22.1632 30.4376 22.6483 30.4376 23.2464C30.4376 23.8444 29.9526 24.3295 29.3545 24.3295C28.7498 24.3295 28.2648 23.8444 28.2648 23.2464ZM28.2648 19.9904C28.2648 19.3924 28.7498 18.9073 29.3545 18.9073C29.9526 18.9073 30.4376 19.3924 30.4376 19.9904C30.4376 20.5884 29.9526 21.0735 29.3545 21.0735C28.7498 21.0735 28.2648 20.5884 28.2648 19.9904ZM28.2648 16.7344C28.2648 16.1364 28.7498 15.6513 29.3545 15.6513C29.9526 15.6513 30.4376 16.1364 30.4376 16.7344C30.4376 17.3325 29.9526 17.8175 29.3545 17.8175C28.7498 17.8175 28.2648 17.3325 28.2648 16.7344ZM28.2648 13.4785C28.2648 12.8804 28.7498 12.3954 29.3545 12.3954C29.9526 12.3954 30.4376 12.8804 30.4376 13.4785C30.4376 14.0765 29.9526 14.5616 29.3545 14.5616C28.7498 14.5616 28.2648 14.0765 28.2648 13.4785ZM28.2648 10.2225C28.2648 9.62446 28.7498 9.13939 29.3545 9.13939C29.9526 9.13939 30.4376 9.62446 30.4376 10.2225C30.4376 10.8205 29.9526 11.3122 29.3545 11.3122C28.7498 11.3122 28.2648 10.8205 28.2648 10.2225ZM28.2648 6.96653C28.2648 6.3685 28.7498 5.88342 29.3545 5.88342C29.9526 5.88342 30.4376 6.3685 30.4376 6.96653C30.4376 7.57121 29.9526 8.05628 29.3545 8.05628C28.7498 8.05628 28.2648 7.57121 28.2648 6.96653ZM28.2648 3.71721C28.2648 3.11253 28.7498 2.62746 29.3545 2.62746C29.9526 2.62746 30.4376 3.11253 30.4376 3.71721C30.4376 4.31524 29.9526 4.80032 29.3545 4.80032C28.7498 4.80032 28.2648 4.31524 28.2648 3.71721ZM28.2648 0.461243C28.2648 -0.136791 28.7498 -0.62851 29.3545 -0.62851C29.9526 -0.62851 30.4376 -0.136791 30.4376 0.461243C30.4376 1.05928 29.9526 1.54435 29.3545 1.54435C28.7498 1.54435 28.2648 1.05928 28.2648 0.461243ZM28.2648 -2.79472C28.2648 -3.39276 28.7498 -3.87783 29.3545 -3.87783C29.9526 -3.87783 30.4376 -3.39276 30.4376 -2.79472C30.4376 -2.19669 29.9526 -1.71162 29.3545 -1.71162C28.7498 -1.71162 28.2648 -2.19669 28.2648 -2.79472ZM28.2648 -6.05069C28.2648 -6.64872 28.7498 -7.13379 29.3545 -7.13379C29.9526 -7.13379 30.4376 -6.64872 30.4376 -6.05069C30.4376 -5.45265 29.9526 -4.96758 29.3545 -4.96758C28.7498 -4.96758 28.2648 -5.45265 28.2648 -6.05069ZM28.2648 -9.30665C28.2648 -9.90469 28.7498 -10.3898 29.3545 -10.3898C29.9526 -10.3898 30.4376 -9.90469 30.4376 -9.30665C30.4376 -8.70862 29.9526 -8.22355 29.3545 -8.22355C28.7498 -8.22355 28.2648 -8.70862 28.2648 -9.30665ZM28.2648 -12.5626C28.2648 -13.1607 28.7498 -13.6457 29.3545 -13.6457C29.9526 -13.6457 30.4376 -13.1607 30.4376 -12.5626C30.4376 -11.9646 29.9526 -11.4795 29.3545 -11.4795C28.7498 -11.4795 28.2648 -11.9646 28.2648 -12.5626ZM28.2648 -15.8186C28.2648 -16.4166 28.7498 -16.9017 29.3545 -16.9017C29.9526 -16.9017 30.4376 -16.4166 30.4376 -15.8186C30.4376 -15.2205 29.9526 -14.7355 29.3545 -14.7355C28.7498 -14.7355 28.2648 -15.2205 28.2648 -15.8186ZM28.2648 -19.0745C28.2648 -19.6726 28.7498 -20.1577 29.3545 -20.1577C29.9526 -20.1577 30.4376 -19.6726 30.4376 -19.0745C30.4376 -18.4765 29.9526 -17.9848 29.3545 -17.9848C28.7498 -17.9848 28.2648 -18.4765 28.2648 -19.0745ZM28.2648 -22.3305C28.2648 -22.9285 28.7498 -23.4136 29.3545 -23.4136C29.9526 -23.4136 30.4376 -22.9285 30.4376 -22.3305C30.4376 -21.7325 29.9526 -21.2408 29.3545 -21.2408C28.7498 -21.2408 28.2648 -21.7325 28.2648 -22.3305ZM28.2648 -25.5798C28.2648 -26.1845 28.7498 -26.6696 29.3545 -26.6696C29.9526 -26.6696 30.4376 -26.1845 30.4376 -25.5798C30.4376 -24.9818 29.9526 -24.4967 29.3545 -24.4967C28.7498 -24.4967 28.2648 -24.9818 28.2648 -25.5798ZM28.2648 -28.8358C28.2648 -29.4338 28.7498 -29.9256 29.3545 -29.9256C29.9526 -29.9256 30.4376 -29.4338 30.4376 -28.8358C30.4376 -28.2378 29.9526 -27.7527 29.3545 -27.7527C28.7498 -27.7527 28.2648 -28.2378 28.2648 -28.8358ZM28.2648 -32.0918C28.2648 -32.6898 28.7498 -33.1749 29.3545 -33.1749C29.9526 -33.1749 30.4376 -32.6898 30.4376 -32.0918C30.4376 -31.4937 29.9526 -31.0087 29.3545 -31.0087C28.7498 -31.0087 28.2648 -31.4937 28.2648 -32.0918ZM28.2648 -35.3477C28.2648 -35.9458 28.7498 -36.4308 29.3545 -36.4308C29.9526 -36.4308 30.4376 -35.9458 30.4376 -35.3477C30.4376 -34.7497 29.9526 -34.2646 29.3545 -34.2646C28.7498 -34.2646 28.2648 -34.7497 28.2648 -35.3477ZM28.2648 -38.6037C28.2648 -39.2017 28.7498 -39.6868 29.3545 -39.6868C29.9526 -39.6868 30.4376 -39.2017 30.4376 -38.6037C30.4376 -38.0057 29.9526 -37.5206 29.3545 -37.5206C28.7498 -37.5206 28.2648 -38.0057 28.2648 -38.6037ZM28.2648 -41.8597C28.2648 -42.4577 28.7498 -42.9428 29.3545 -42.9428C29.9526 -42.9428 30.4376 -42.4577 30.4376 -41.8597C30.4376 -41.2616 29.9526 -40.7766 29.3545 -40.7766C28.7498 -40.7766 28.2648 -41.2616 28.2648 -41.8597ZM28.2648 -45.1156C28.2648 -45.7137 28.7498 -46.1987 29.3545 -46.1987C29.9526 -46.1987 30.4376 -45.7137 30.4376 -45.1156C30.4376 -44.5176 29.9526 -44.0325 29.3545 -44.0325C28.7498 -44.0325 28.2648 -44.5176 28.2648 -45.1156Z" fill="#484A56"/>
<path d="M120.063 112.36C120.063 111.762 120.555 111.277 121.153 111.277C121.751 111.277 122.236 111.762 122.236 112.36C122.236 112.958 121.751 113.443 121.153 113.443C120.555 113.443 120.063 112.958 120.063 112.36ZM120.063 109.104C120.063 108.506 120.555 108.021 121.153 108.021C121.751 108.021 122.236 108.506 122.236 109.104C122.236 109.702 121.751 110.187 121.153 110.187C120.555 110.187 120.063 109.702 120.063 109.104ZM120.063 105.848C120.063 105.25 120.555 104.765 121.153 104.765C121.751 104.765 122.236 105.25 122.236 105.848C122.236 106.446 121.751 106.931 121.153 106.931C120.555 106.938 120.063 106.446 120.063 105.848ZM120.063 102.592C120.063 101.994 120.555 101.509 121.153 101.509C121.751 101.509 122.236 101.994 122.236 102.592C122.236 103.19 121.751 103.675 121.153 103.675C120.555 103.682 120.063 103.197 120.063 102.592ZM120.063 99.3362C120.063 98.7382 120.555 98.2531 121.153 98.2531C121.751 98.2531 122.236 98.7382 122.236 99.3362C122.236 99.9342 121.751 100.426 121.153 100.426C120.555 100.426 120.063 99.9409 120.063 99.3362ZM120.063 96.0802C120.063 95.4822 120.555 94.9971 121.153 94.9971C121.751 94.9971 122.236 95.4822 122.236 96.0802C122.236 96.6783 121.751 97.17 121.153 97.17C120.555 97.17 120.063 96.6849 120.063 96.0802ZM120.063 92.8309C120.063 92.2262 120.555 91.7412 121.153 91.7412C121.751 91.7412 122.236 92.2262 122.236 92.8309C122.236 93.429 121.751 93.914 121.153 93.914C120.555 93.914 120.063 93.429 120.063 92.8309ZM120.063 89.575C120.063 88.9769 120.555 88.4852 121.153 88.4852C121.751 88.4852 122.236 88.9769 122.236 89.575C122.236 90.173 121.751 90.6581 121.153 90.6581C120.555 90.6581 120.063 90.173 120.063 89.575ZM120.063 86.319C120.063 85.721 120.555 85.2359 121.153 85.2359C121.751 85.2359 122.236 85.721 122.236 86.319C122.236 86.917 121.751 87.4021 121.153 87.4021C120.555 87.4021 120.063 86.917 120.063 86.319ZM120.063 83.063C120.063 82.465 120.555 81.9799 121.153 81.9799C121.751 81.9799 122.236 82.465 122.236 83.063C122.236 83.6611 121.751 84.1461 121.153 84.1461C120.555 84.1461 120.063 83.6611 120.063 83.063ZM120.063 79.8071C120.063 79.209 120.555 78.724 121.153 78.724C121.751 78.724 122.236 79.209 122.236 79.8071C122.236 80.4051 121.751 80.8902 121.153 80.8902C120.555 80.8902 120.063 80.4051 120.063 79.8071ZM120.063 76.5511C120.063 75.9531 120.555 75.468 121.153 75.468C121.751 75.468 122.236 75.9531 122.236 76.5511C122.236 77.1491 121.751 77.6342 121.153 77.6342C120.555 77.6409 120.063 77.1491 120.063 76.5511ZM120.063 73.2951C120.063 72.6971 120.555 72.212 121.153 72.212C121.751 72.212 122.236 72.6971 122.236 73.2951C122.236 73.8932 121.751 74.3782 121.153 74.3782C120.555 74.3849 120.063 73.8998 120.063 73.2951ZM120.063 70.0392C120.063 69.4411 120.555 68.9561 121.153 68.9561C121.751 68.9561 122.236 69.4411 122.236 70.0392C122.236 70.6372 121.751 71.1223 121.153 71.1223C120.555 71.1289 120.063 70.6438 120.063 70.0392ZM120.063 66.7832C120.063 66.1852 120.555 65.7001 121.153 65.7001C121.751 65.7001 122.236 66.1852 122.236 66.7832C122.236 67.3812 121.751 67.873 121.153 67.873C120.555 67.873 120.063 67.3879 120.063 66.7832ZM120.063 63.5272C120.063 62.9292 120.555 62.4441 121.153 62.4441C121.751 62.4441 122.236 62.9292 122.236 63.5272C122.236 64.1319 121.751 64.617 121.153 64.617C120.555 64.617 120.063 64.1319 120.063 63.5272ZM120.063 60.2779C120.063 59.6732 120.555 59.1882 121.153 59.1882C121.751 59.1882 122.236 59.6732 122.236 60.2779C122.236 60.876 121.751 61.361 121.153 61.361C120.555 61.361 120.063 60.876 120.063 60.2779ZM120.063 57.0219C120.063 56.4239 120.555 55.9322 121.153 55.9322C121.751 55.9322 122.236 56.4239 122.236 57.0219C122.236 57.62 121.751 58.1051 121.153 58.1051C120.555 58.1051 120.063 57.62 120.063 57.0219ZM120.063 53.766C120.063 53.168 120.555 52.6829 121.153 52.6829C121.751 52.6829 122.236 53.168 122.236 53.766C122.236 54.364 121.751 54.8491 121.153 54.8491C120.555 54.8491 120.063 54.364 120.063 53.766ZM120.063 50.51C120.063 49.912 120.555 49.4269 121.153 49.4269C121.751 49.4269 122.236 49.912 122.236 50.51C122.236 51.1081 121.751 51.5931 121.153 51.5931C120.555 51.5931 120.063 51.1081 120.063 50.51ZM120.063 47.2541C120.063 46.656 120.555 46.171 121.153 46.171C121.751 46.171 122.236 46.656 122.236 47.2541C122.236 47.8521 121.751 48.3372 121.153 48.3372C120.555 48.3372 120.063 47.8521 120.063 47.2541ZM120.063 43.9981C120.063 43.4001 120.555 42.915 121.153 42.915C121.751 42.915 122.236 43.4001 122.236 43.9981C122.236 44.5961 121.751 45.0878 121.153 45.0878C120.555 45.0878 120.063 44.5961 120.063 43.9981ZM120.063 40.7421C120.063 40.1441 120.555 39.659 121.153 39.659C121.751 39.659 122.236 40.1441 122.236 40.7421C122.236 41.3468 121.751 41.8319 121.153 41.8319C120.555 41.8319 120.063 41.3468 120.063 40.7421ZM120.063 37.4928C120.063 36.8881 120.555 36.4031 121.153 36.4031C121.751 36.4031 122.236 36.8881 122.236 37.4928C122.236 38.0908 121.751 38.5759 121.153 38.5759C120.555 38.5759 120.063 38.0908 120.063 37.4928ZM120.063 34.2368C120.063 33.6388 120.555 33.1471 121.153 33.1471C121.751 33.1471 122.236 33.6388 122.236 34.2368C122.236 34.8349 121.751 35.3199 121.153 35.3199C120.555 35.3199 120.063 34.8349 120.063 34.2368ZM120.063 30.9809C120.063 30.3828 120.555 29.8978 121.153 29.8978C121.751 29.8978 122.236 30.3828 122.236 30.9809C122.236 31.5789 121.751 32.064 121.153 32.064C120.555 32.064 120.063 31.5789 120.063 30.9809ZM120.063 27.7249C120.063 27.1269 120.555 26.6418 121.153 26.6418C121.751 26.6418 122.236 27.1269 122.236 27.7249C122.236 28.3229 121.751 28.808 121.153 28.808C120.555 28.808 120.063 28.3229 120.063 27.7249ZM120.063 24.4689C120.063 23.8709 120.555 23.3858 121.153 23.3858C121.751 23.3858 122.236 23.8709 122.236 24.4689C122.236 25.067 121.751 25.5521 121.153 25.5521C120.555 25.5521 120.063 25.067 120.063 24.4689ZM120.063 21.213C120.063 20.6149 120.555 20.1299 121.153 20.1299C121.751 20.1299 122.236 20.6149 122.236 21.213C122.236 21.811 121.751 22.2961 121.153 22.2961C120.555 22.2961 120.063 21.811 120.063 21.213ZM120.063 17.957C120.063 17.359 120.555 16.8739 121.153 16.8739C121.751 16.8739 122.236 17.359 122.236 17.957C122.236 18.555 121.751 19.0401 121.153 19.0401C120.555 19.0401 120.063 18.555 120.063 17.957ZM120.063 14.701C120.063 14.103 120.555 13.6179 121.153 13.6179C121.751 13.6179 122.236 14.103 122.236 14.701C122.236 15.2991 121.751 15.7908 121.153 15.7908C120.555 15.7908 120.063 15.2991 120.063 14.701ZM120.063 11.4451C120.063 10.8471 120.555 10.362 121.153 10.362C121.751 10.362 122.236 10.8471 122.236 11.4451C122.236 12.0498 121.751 12.5348 121.153 12.5348C120.555 12.5348 120.063 12.0498 120.063 11.4451ZM120.063 8.19576C120.063 7.59109 120.555 7.10601 121.153 7.10601C121.751 7.10601 122.236 7.59109 122.236 8.19576C122.236 8.7938 121.751 9.27887 121.153 9.27887C120.555 9.27887 120.063 8.7938 120.063 8.19576ZM120.063 4.9398C120.063 4.34177 120.555 3.85005 121.153 3.85005C121.751 3.85005 122.236 4.34177 122.236 4.9398C122.236 5.53783 121.751 6.0229 121.153 6.0229C120.555 6.0229 120.063 5.53783 120.063 4.9398ZM120.063 1.68383C120.063 1.0858 120.555 0.600727 121.153 0.600727C121.751 0.600727 122.236 1.0858 122.236 1.68383C122.236 2.28187 121.751 2.76694 121.153 2.76694C120.555 2.76694 120.063 2.28187 120.063 1.68383ZM120.063 -1.57213C120.063 -2.17017 120.555 -2.65524 121.153 -2.65524C121.751 -2.65524 122.236 -2.17017 122.236 -1.57213C122.236 -0.974098 121.751 -0.489025 121.153 -0.489025C120.555 -0.489025 120.063 -0.974098 120.063 -1.57213ZM120.063 -4.82809C120.063 -5.42613 120.555 -5.9112 121.153 -5.9112C121.751 -5.9112 122.236 -5.42613 122.236 -4.82809C122.236 -4.23006 121.751 -3.74499 121.153 -3.74499C120.555 -3.74499 120.063 -4.23006 120.063 -4.82809ZM120.063 -8.08406C120.063 -8.68209 120.555 -9.16717 121.153 -9.16717C121.751 -9.16717 122.236 -8.68209 122.236 -8.08406C122.236 -7.48603 121.751 -7.00095 121.153 -7.00095C120.555 -7.00095 120.063 -7.48603 120.063 -8.08406ZM120.063 -11.34C120.063 -11.9381 120.555 -12.4231 121.153 -12.4231C121.751 -12.4231 122.236 -11.9381 122.236 -11.34C122.236 -10.742 121.751 -10.2569 121.153 -10.2569C120.555 -10.2569 120.063 -10.742 120.063 -11.34ZM120.063 -14.596C120.063 -15.194 120.555 -15.6791 121.153 -15.6791C121.751 -15.6791 122.236 -15.194 122.236 -14.596C122.236 -13.998 121.751 -13.5129 121.153 -13.5129C120.555 -13.5129 120.063 -13.998 120.063 -14.596ZM120.063 -17.852C120.063 -18.45 120.555 -18.9351 121.153 -18.9351C121.751 -18.9351 122.236 -18.45 122.236 -17.852C122.236 -17.2539 121.751 -16.7622 121.153 -16.7622C120.555 -16.7622 120.063 -17.2539 120.063 -17.852ZM120.063 -21.1079C120.063 -21.706 120.555 -22.191 121.153 -22.191C121.751 -22.191 122.236 -21.706 122.236 -21.1079C122.236 -20.5032 121.751 -20.0182 121.153 -20.0182C120.555 -20.0182 120.063 -20.5032 120.063 -21.1079ZM120.063 -24.3572C120.063 -24.9553 120.555 -25.447 121.153 -25.447C121.751 -25.447 122.236 -24.9553 122.236 -24.3572C122.236 -23.7592 121.751 -23.2741 121.153 -23.2741C120.555 -23.2741 120.063 -23.7592 120.063 -24.3572ZM120.063 -27.6132C120.063 -28.2112 120.555 -28.6963 121.153 -28.6963C121.751 -28.6963 122.236 -28.2112 122.236 -27.6132C122.236 -27.0152 121.751 -26.5301 121.153 -26.5301C120.555 -26.5301 120.063 -27.0152 120.063 -27.6132ZM120.063 -30.8692C120.063 -31.4672 120.555 -31.9523 121.153 -31.9523C121.751 -31.9523 122.236 -31.4672 122.236 -30.8692C122.236 -30.2711 121.751 -29.7861 121.153 -29.7861C120.555 -29.7861 120.063 -30.2711 120.063 -30.8692ZM120.063 -34.1251C120.063 -34.7232 120.555 -35.2082 121.153 -35.2082C121.751 -35.2082 122.236 -34.7232 122.236 -34.1251C122.236 -33.5271 121.751 -33.042 121.153 -33.042C120.555 -33.042 120.063 -33.5271 120.063 -34.1251ZM120.063 -37.3811C120.063 -37.9791 120.555 -38.4642 121.153 -38.4642C121.751 -38.4642 122.236 -37.9791 122.236 -37.3811C122.236 -36.7831 121.751 -36.298 121.153 -36.298C120.555 -36.298 120.063 -36.7831 120.063 -37.3811ZM120.063 -40.6371C120.063 -41.2351 120.555 -41.7202 121.153 -41.7202C121.751 -41.7202 122.236 -41.2351 122.236 -40.6371C122.236 -40.039 121.751 -39.554 121.153 -39.554C120.555 -39.554 120.063 -40.039 120.063 -40.6371ZM120.063 -43.893C120.063 -44.4911 120.555 -44.9761 121.153 -44.9761C121.751 -44.9761 122.236 -44.4911 122.236 -43.893C122.236 -43.295 121.751 -42.8099 121.153 -42.8099C120.555 -42.8099 120.063 -43.2884 120.063 -43.893ZM120.063 -47.149C120.063 -47.747 120.555 -48.2321 121.153 -48.2321C121.751 -48.2321 122.236 -47.747 122.236 -47.149C122.236 -46.551 121.751 -46.0592 121.153 -46.0592C120.555 -46.0592 120.063 -46.5443 120.063 -47.149ZM120.063 -50.405C120.063 -51.003 120.555 -51.4881 121.153 -51.4881C121.751 -51.4881 122.236 -51.003 122.236 -50.405C122.236 -49.8003 121.751 -49.3152 121.153 -49.3152C120.555 -49.3152 120.063 -49.8003 120.063 -50.405ZM120.063 -53.6543C120.063 -54.259 120.555 -54.744 121.153 -54.744C121.751 -54.744 122.236 -54.259 122.236 -53.6543C122.236 -53.0562 121.751 -52.5712 121.153 -52.5712C120.555 -52.5712 120.063 -53.0562 120.063 -53.6543ZM120.063 -56.9102C120.063 -57.5083 120.555 -58 121.153 -58C121.751 -58 122.236 -57.5083 122.236 -56.9102C122.236 -56.3122 121.751 -55.8271 121.153 -55.8271C120.555 -55.8271 120.063 -56.3122 120.063 -56.9102Z" fill="#484A56"/>
<path d="M63.921 146.946C63.921 146.348 64.4127 145.857 65.0108 145.857C65.6088 145.857 66.1005 146.348 66.1005 146.946C66.1005 147.545 65.6088 148.03 65.0108 148.03C64.4127 148.03 63.921 147.545 63.921 146.946ZM63.921 143.691C63.921 143.092 64.4127 142.601 65.0108 142.601C65.6088 142.601 66.1005 143.092 66.1005 143.691C66.1005 144.289 65.6088 144.774 65.0108 144.774C64.4127 144.774 63.921 144.289 63.921 143.691ZM63.921 140.435C63.921 139.837 64.4127 139.351 65.0108 139.351C65.6088 139.351 66.1005 139.837 66.1005 140.435C66.1005 141.033 65.6088 141.518 65.0108 141.518C64.4127 141.518 63.921 141.033 63.921 140.435ZM63.921 137.179C63.921 136.581 64.4127 136.095 65.0108 136.095C65.6088 136.095 66.1005 136.581 66.1005 137.179C66.1005 137.777 65.6088 138.262 65.0108 138.262C64.4127 138.262 63.921 137.777 63.921 137.179ZM63.921 133.923C63.921 133.325 64.4127 132.84 65.0108 132.84C65.6088 132.84 66.1005 133.325 66.1005 133.923C66.1005 134.521 65.6088 135.006 65.0108 135.006C64.4127 135.006 63.921 134.521 63.921 133.923ZM63.921 130.667C63.921 130.069 64.4127 129.584 65.0108 129.584C65.6088 129.584 66.1005 130.069 66.1005 130.667C66.1005 131.265 65.6088 131.75 65.0108 131.75C64.4127 131.75 63.921 131.265 63.921 130.667ZM63.921 127.411C63.921 126.813 64.4127 126.328 65.0108 126.328C65.6088 126.328 66.1005 126.813 66.1005 127.411C66.1005 128.009 65.6088 128.494 65.0108 128.494C64.4127 128.494 63.921 128.009 63.921 127.411ZM63.921 124.155C63.921 123.557 64.4127 123.072 65.0108 123.072C65.6088 123.072 66.1005 123.557 66.1005 124.155C66.1005 124.753 65.6088 125.244 65.0108 125.244C64.4127 125.244 63.921 124.753 63.921 124.155ZM63.921 120.899C63.921 120.301 64.4127 119.816 65.0108 119.816C65.6088 119.816 66.1005 120.301 66.1005 120.899C66.1005 121.503 65.6088 121.989 65.0108 121.989C64.4127 121.989 63.921 121.503 63.921 120.899ZM63.921 117.649C63.921 117.045 64.4127 116.56 65.0108 116.56C65.6088 116.56 66.1005 117.045 66.1005 117.649C66.1005 118.247 65.6088 118.733 65.0108 118.733C64.4127 118.733 63.921 118.247 63.921 117.649ZM63.921 114.393C63.921 113.795 64.4127 113.304 65.0108 113.304C65.6088 113.304 66.1005 113.795 66.1005 114.393C66.1005 114.992 65.6088 115.477 65.0108 115.477C64.4127 115.477 63.921 114.992 63.921 114.393ZM63.921 111.137C63.921 110.539 64.4127 110.054 65.0108 110.054C65.6088 110.054 66.1005 110.539 66.1005 111.137C66.1005 111.736 65.6088 112.221 65.0108 112.221C64.4127 112.221 63.921 111.736 63.921 111.137ZM63.921 107.882C63.921 107.284 64.4127 106.798 65.0108 106.798C65.6088 106.798 66.1005 107.284 66.1005 107.882C66.1005 108.48 65.6088 108.965 65.0108 108.965C64.4127 108.965 63.921 108.48 63.921 107.882ZM63.921 104.626C63.921 104.028 64.4127 103.542 65.0108 103.542C65.6088 103.542 66.1005 104.028 66.1005 104.626C66.1005 105.224 65.6088 105.709 65.0108 105.709C64.4127 105.709 63.921 105.224 63.921 104.626ZM63.921 101.37C63.921 100.772 64.4127 100.286 65.0108 100.286C65.6088 100.286 66.1005 100.772 66.1005 101.37C66.1005 101.968 65.6088 102.453 65.0108 102.453C64.4127 102.453 63.921 101.968 63.921 101.37ZM63.921 98.1136C63.921 97.5156 64.4127 97.0305 65.0108 97.0305C65.6088 97.0305 66.1005 97.5156 66.1005 98.1136C66.1005 98.7117 65.6088 99.1967 65.0108 99.1967C64.4127 99.1967 63.921 98.7183 63.921 98.1136ZM63.921 94.8577C63.921 94.2596 64.4127 93.7746 65.0108 93.7746C65.6088 93.7746 66.1005 94.2596 66.1005 94.8577C66.1005 95.4557 65.6088 95.9474 65.0108 95.9474C64.4127 95.9474 63.921 95.4624 63.921 94.8577ZM63.921 91.6017C63.921 91.0037 64.4127 90.5186 65.0108 90.5186C65.6088 90.5186 66.1005 91.0037 66.1005 91.6017C66.1005 92.1997 65.6088 92.6915 65.0108 92.6915C64.4127 92.6915 63.921 92.2064 63.921 91.6017ZM63.921 88.3524C63.921 87.7477 64.4127 87.2626 65.0108 87.2626C65.6088 87.2626 66.1005 87.7477 66.1005 88.3524C66.1005 88.9504 65.6088 89.4355 65.0108 89.4355C64.4127 89.4355 63.921 88.9504 63.921 88.3524ZM63.921 85.0964C63.921 84.4984 64.4127 84.0067 65.0108 84.0067C65.6088 84.0067 66.1005 84.4984 66.1005 85.0964C66.1005 85.6945 65.6088 86.1795 65.0108 86.1795C64.4127 86.1795 63.921 85.6945 63.921 85.0964ZM63.921 81.8405C63.921 81.2424 64.4127 80.7573 65.0108 80.7573C65.6088 80.7573 66.1005 81.2424 66.1005 81.8405C66.1005 82.4385 65.6088 82.9236 65.0108 82.9236C64.4127 82.9236 63.921 82.4385 63.921 81.8405ZM63.921 78.5845C63.921 77.9865 64.4127 77.5014 65.0108 77.5014C65.6088 77.5014 66.1005 77.9865 66.1005 78.5845C66.1005 79.1825 65.6088 79.6676 65.0108 79.6676C64.4127 79.6676 63.921 79.1825 63.921 78.5845ZM63.921 75.3285C63.921 74.7305 64.4127 74.2454 65.0108 74.2454C65.6088 74.2454 66.1005 74.7305 66.1005 75.3285C66.1005 75.9266 65.6088 76.4116 65.0108 76.4116C64.4127 76.4116 63.921 75.9266 63.921 75.3285ZM63.921 72.0726C63.921 71.4745 64.4127 70.9894 65.0108 70.9894C65.6088 70.9894 66.1005 71.4745 66.1005 72.0726C66.1005 72.6706 65.6088 73.1557 65.0108 73.1557C64.4127 73.1623 63.921 72.6706 63.921 72.0726ZM63.921 68.8166C63.921 68.2186 64.4127 67.7335 65.0108 67.7335C65.6088 67.7335 66.1005 68.2186 66.1005 68.8166C66.1005 69.4146 65.6088 69.8997 65.0108 69.8997C64.4127 69.9063 63.921 69.4213 63.921 68.8166ZM63.921 65.5606C63.921 64.9626 64.4127 64.4775 65.0108 64.4775C65.6088 64.4775 66.1005 64.9626 66.1005 65.5606C66.1005 66.1587 65.6088 66.6437 65.0108 66.6437C64.4127 66.6504 63.921 66.1653 63.921 65.5606ZM63.921 62.3047C63.921 61.7066 64.4127 61.2216 65.0108 61.2216C65.6088 61.2216 66.1005 61.7066 66.1005 62.3047C66.1005 62.9027 65.6088 63.3944 65.0108 63.3944C64.4127 63.3944 63.921 62.9093 63.921 62.3047ZM63.921 59.0487C63.921 58.4507 64.4127 57.9656 65.0108 57.9656C65.6088 57.9656 66.1005 58.4507 66.1005 59.0487C66.1005 59.6534 65.6088 60.1385 65.0108 60.1385C64.4127 60.1385 63.921 59.6534 63.921 59.0487ZM63.921 55.7994C63.921 55.1947 64.4127 54.7096 65.0108 54.7096C65.6088 54.7096 66.1005 55.1947 66.1005 55.7994C66.1005 56.3974 65.6088 56.8825 65.0108 56.8825C64.4127 56.8825 63.921 56.3974 63.921 55.7994ZM63.921 52.5434C63.921 51.9454 64.4127 51.4537 65.0108 51.4537C65.6088 51.4537 66.1005 51.9454 66.1005 52.5434C66.1005 53.1414 65.6088 53.6265 65.0108 53.6265C64.4127 53.6265 63.921 53.1414 63.921 52.5434ZM63.921 49.2874C63.921 48.6894 64.4127 48.2043 65.0108 48.2043C65.6088 48.2043 66.1005 48.6894 66.1005 49.2874C66.1005 49.8855 65.6088 50.3706 65.0108 50.3706C64.4127 50.3706 63.921 49.8855 63.921 49.2874ZM63.921 46.0315C63.921 45.4334 64.4127 44.9484 65.0108 44.9484C65.6088 44.9484 66.1005 45.4334 66.1005 46.0315C66.1005 46.6295 65.6088 47.1146 65.0108 47.1146C64.4127 47.1146 63.921 46.6295 63.921 46.0315ZM63.921 42.7755C63.921 42.1775 64.4127 41.6924 65.0108 41.6924C65.6088 41.6924 66.1005 42.1775 66.1005 42.7755C66.1005 43.3736 65.6088 43.8586 65.0108 43.8586C64.4127 43.8586 63.921 43.3736 63.921 42.7755ZM63.921 39.5195C63.921 38.9215 64.4127 38.4364 65.0108 38.4364C65.6088 38.4364 66.1005 38.9215 66.1005 39.5195C66.1005 40.1176 65.6088 40.6093 65.0108 40.6093C64.4127 40.6093 63.921 40.1176 63.921 39.5195ZM63.921 36.2636C63.921 35.6656 64.4127 35.1805 65.0108 35.1805C65.6088 35.1805 66.1005 35.6656 66.1005 36.2636C66.1005 36.8683 65.6088 37.3533 65.0108 37.3533C64.4127 37.3533 63.921 36.8683 63.921 36.2636ZM63.921 33.0143C63.921 32.4096 64.4127 31.9245 65.0108 31.9245C65.6088 31.9245 66.1005 32.4096 66.1005 33.0143C66.1005 33.6123 65.6088 34.0974 65.0108 34.0974C64.4127 34.0974 63.921 33.6123 63.921 33.0143ZM63.921 29.7583C63.921 29.1603 64.4127 28.6685 65.0108 28.6685C65.6088 28.6685 66.1005 29.1603 66.1005 29.7583C66.1005 30.3563 65.6088 30.8414 65.0108 30.8414C64.4127 30.8414 63.921 30.3563 63.921 29.7583ZM63.921 26.5023C63.921 25.9043 64.4127 25.4192 65.0108 25.4192C65.6088 25.4192 66.1005 25.9043 66.1005 26.5023C66.1005 27.1004 65.6088 27.5854 65.0108 27.5854C64.4127 27.5854 63.921 27.1004 63.921 26.5023ZM63.921 23.2464C63.921 22.6483 64.4127 22.1633 65.0108 22.1633C65.6088 22.1633 66.1005 22.6483 66.1005 23.2464C66.1005 23.8444 65.6088 24.3295 65.0108 24.3295C64.4127 24.3295 63.921 23.8444 63.921 23.2464ZM63.921 19.9904C63.921 19.3924 64.4127 18.9073 65.0108 18.9073C65.6088 18.9073 66.1005 19.3924 66.1005 19.9904C66.1005 20.5884 65.6088 21.0735 65.0108 21.0735C64.4127 21.0735 63.921 20.5884 63.921 19.9904ZM63.921 16.7344C63.921 16.1364 64.4127 15.6513 65.0108 15.6513C65.6088 15.6513 66.1005 16.1364 66.1005 16.7344C66.1005 17.3325 65.6088 17.8175 65.0108 17.8175C64.4127 17.8175 63.921 17.3325 63.921 16.7344ZM63.921 13.4785C63.921 12.8804 64.4127 12.3954 65.0108 12.3954C65.6088 12.3954 66.1005 12.8804 66.1005 13.4785C66.1005 14.0765 65.6088 14.5616 65.0108 14.5616C64.4127 14.5616 63.921 14.0765 63.921 13.4785ZM63.921 10.2225C63.921 9.62447 64.4127 9.1394 65.0108 9.1394C65.6088 9.1394 66.1005 9.62447 66.1005 10.2225C66.1005 10.8205 65.6088 11.3123 65.0108 11.3123C64.4127 11.3123 63.921 10.8205 63.921 10.2225ZM63.921 6.96654C63.921 6.3685 64.4127 5.88343 65.0108 5.88343C65.6088 5.88343 66.1005 6.3685 66.1005 6.96654C66.1005 7.57122 65.6088 8.05629 65.0108 8.05629C64.4127 8.05629 63.921 7.57122 63.921 6.96654ZM63.921 3.71722C63.921 3.11254 64.4127 2.62746 65.0108 2.62746C65.6088 2.62746 66.1005 3.11254 66.1005 3.71722C66.1005 4.31525 65.6088 4.80032 65.0108 4.80032C64.4127 4.80032 63.921 4.31525 63.921 3.71722ZM63.921 0.46125C63.921 -0.136784 64.4127 -0.628502 65.0108 -0.628502C65.6088 -0.628502 66.1005 -0.136784 66.1005 0.46125C66.1005 1.05928 65.6088 1.54436 65.0108 1.54436C64.4127 1.54436 63.921 1.05928 63.921 0.46125ZM63.921 -2.79472C63.921 -3.39275 64.4127 -3.87782 65.0108 -3.87782C65.6088 -3.87782 66.1005 -3.39275 66.1005 -2.79472C66.1005 -2.19668 65.6088 -1.71161 65.0108 -1.71161C64.4127 -1.71161 63.921 -2.19668 63.921 -2.79472ZM63.921 -6.05068C63.921 -6.64872 64.4127 -7.13379 65.0108 -7.13379C65.6088 -7.13379 66.1005 -6.64872 66.1005 -6.05068C66.1005 -5.45264 65.6088 -4.96758 65.0108 -4.96758C64.4127 -4.96758 63.921 -5.45264 63.921 -6.05068ZM63.921 -9.30665C63.921 -9.90468 64.4127 -10.3898 65.0108 -10.3898C65.6088 -10.3898 66.1005 -9.90468 66.1005 -9.30665C66.1005 -8.70861 65.6088 -8.22354 65.0108 -8.22354C64.4127 -8.22354 63.921 -8.70861 63.921 -9.30665ZM63.921 -12.5626C63.921 -13.1606 64.4127 -13.6457 65.0108 -13.6457C65.6088 -13.6457 66.1005 -13.1606 66.1005 -12.5626C66.1005 -11.9646 65.6088 -11.4795 65.0108 -11.4795C64.4127 -11.4795 63.921 -11.9646 63.921 -12.5626ZM63.921 -15.8186C63.921 -16.4166 64.4127 -16.9017 65.0108 -16.9017C65.6088 -16.9017 66.1005 -16.4166 66.1005 -15.8186C66.1005 -15.2205 65.6088 -14.7355 65.0108 -14.7355C64.4127 -14.7355 63.921 -15.2205 63.921 -15.8186ZM63.921 -19.0745C63.921 -19.6726 64.4127 -20.1576 65.0108 -20.1576C65.6088 -20.1576 66.1005 -19.6726 66.1005 -19.0745C66.1005 -18.4765 65.6088 -17.9848 65.0108 -17.9848C64.4127 -17.9848 63.921 -18.4765 63.921 -19.0745ZM63.921 -22.3305C63.921 -22.9285 64.4127 -23.4136 65.0108 -23.4136C65.6088 -23.4136 66.1005 -22.9285 66.1005 -22.3305C66.1005 -21.7325 65.6088 -21.2408 65.0108 -21.2408C64.4127 -21.2408 63.921 -21.7325 63.921 -22.3305ZM63.921 -25.5798C63.921 -26.1845 64.4127 -26.6696 65.0108 -26.6696C65.6088 -26.6696 66.1005 -26.1845 66.1005 -25.5798C66.1005 -24.9818 65.6088 -24.4967 65.0108 -24.4967C64.4127 -24.4967 63.921 -24.9818 63.921 -25.5798ZM63.921 -28.8358C63.921 -29.4338 64.4127 -29.9255 65.0108 -29.9255C65.6088 -29.9255 66.1005 -29.4338 66.1005 -28.8358C66.1005 -28.2378 65.6088 -27.7527 65.0108 -27.7527C64.4127 -27.7527 63.921 -28.2378 63.921 -28.8358ZM63.921 -32.0918C63.921 -32.6898 64.4127 -33.1749 65.0108 -33.1749C65.6088 -33.1749 66.1005 -32.6898 66.1005 -32.0918C66.1005 -31.4937 65.6088 -31.0087 65.0108 -31.0087C64.4127 -31.0087 63.921 -31.4937 63.921 -32.0918ZM63.921 -35.3477C63.921 -35.9458 64.4127 -36.4308 65.0108 -36.4308C65.6088 -36.4308 66.1005 -35.9458 66.1005 -35.3477C66.1005 -34.7497 65.6088 -34.2646 65.0108 -34.2646C64.4127 -34.2646 63.921 -34.7497 63.921 -35.3477ZM63.921 -38.6037C63.921 -39.2017 64.4127 -39.6868 65.0108 -39.6868C65.6088 -39.6868 66.1005 -39.2017 66.1005 -38.6037C66.1005 -38.0057 65.6088 -37.5206 65.0108 -37.5206C64.4127 -37.5206 63.921 -38.0057 63.921 -38.6037ZM63.921 -41.8597C63.921 -42.4577 64.4127 -42.9428 65.0108 -42.9428C65.6088 -42.9428 66.1005 -42.4577 66.1005 -41.8597C66.1005 -41.2616 65.6088 -40.7766 65.0108 -40.7766C64.4127 -40.7766 63.921 -41.2616 63.921 -41.8597ZM63.921 -45.1156C63.921 -45.7137 64.4127 -46.1987 65.0108 -46.1987C65.6088 -46.1987 66.1005 -45.7137 66.1005 -45.1156C66.1005 -44.5176 65.6088 -44.0325 65.0108 -44.0325C64.4127 -44.0325 63.921 -44.5176 63.921 -45.1156Z" fill="#484A56"/>
<path d="M99.3312 189.313C99.3312 188.715 99.8229 188.23 100.421 188.23C101.019 188.23 101.504 188.715 101.504 189.313C101.504 189.911 101.019 190.396 100.421 190.396C99.8229 190.396 99.3312 189.911 99.3312 189.313ZM99.3312 186.057C99.3312 185.459 99.8229 184.974 100.421 184.974C101.019 184.974 101.504 185.459 101.504 186.057C101.504 186.655 101.019 187.14 100.421 187.14C99.8229 187.14 99.3312 186.655 99.3312 186.057ZM99.3312 182.801C99.3312 182.203 99.8229 181.718 100.421 181.718C101.019 181.718 101.504 182.203 101.504 182.801C101.504 183.399 101.019 183.884 100.421 183.884C99.8229 183.884 99.3312 183.399 99.3312 182.801ZM99.3312 179.545C99.3312 178.947 99.8229 178.462 100.421 178.462C101.019 178.462 101.504 178.947 101.504 179.545C101.504 180.143 101.019 180.629 100.421 180.629C99.8229 180.635 99.3312 180.143 99.3312 179.545ZM99.3312 176.289C99.3312 175.691 99.8229 175.206 100.421 175.206C101.019 175.206 101.504 175.691 101.504 176.289C101.504 176.887 101.019 177.373 100.421 177.373C99.8229 177.379 99.3312 176.894 99.3312 176.289ZM99.3312 173.033C99.3312 172.435 99.8229 171.95 100.421 171.95C101.019 171.95 101.504 172.435 101.504 173.033C101.504 173.632 101.019 174.123 100.421 174.123C99.8229 174.123 99.3312 173.638 99.3312 173.033ZM99.3312 169.778C99.3312 169.179 99.8229 168.694 100.421 168.694C101.019 168.694 101.504 169.179 101.504 169.778C101.504 170.382 101.019 170.867 100.421 170.867C99.8229 170.867 99.3312 170.382 99.3312 169.778ZM99.3312 166.528C99.3312 165.924 99.8229 165.438 100.421 165.438C101.019 165.438 101.504 165.924 101.504 166.528C101.504 167.126 101.019 167.611 100.421 167.611C99.8229 167.611 99.3312 167.126 99.3312 166.528ZM99.3312 163.272C99.3312 162.674 99.8229 162.182 100.421 162.182C101.019 162.182 101.504 162.674 101.504 163.272C101.504 163.87 101.019 164.355 100.421 164.355C99.8229 164.355 99.3312 163.87 99.3312 163.272ZM99.3312 160.016C99.3312 159.418 99.8229 158.933 100.421 158.933C101.019 158.933 101.504 159.418 101.504 160.016C101.504 160.614 101.019 161.099 100.421 161.099C99.8229 161.099 99.3312 160.614 99.3312 160.016ZM99.3312 156.76C99.3312 156.162 99.8229 155.677 100.421 155.677C101.019 155.677 101.504 156.162 101.504 156.76C101.504 157.358 101.019 157.843 100.421 157.843C99.8229 157.843 99.3312 157.358 99.3312 156.76ZM99.3312 153.504C99.3312 152.906 99.8229 152.421 100.421 152.421C101.019 152.421 101.504 152.906 101.504 153.504C101.504 154.102 101.019 154.587 100.421 154.587C99.8229 154.587 99.3312 154.102 99.3312 153.504ZM99.3312 150.248C99.3312 149.65 99.8229 149.165 100.421 149.165C101.019 149.165 101.504 149.65 101.504 150.248C101.504 150.846 101.019 151.331 100.421 151.331C99.8229 151.338 99.3312 150.846 99.3312 150.248ZM99.3312 146.992C99.3312 146.394 99.8229 145.909 100.421 145.909C101.019 145.909 101.504 146.394 101.504 146.992C101.504 147.597 101.019 148.082 100.421 148.082C99.8229 148.082 99.3312 147.597 99.3312 146.992ZM99.3312 143.743C99.3312 143.138 99.8229 142.653 100.421 142.653C101.019 142.653 101.504 143.138 101.504 143.743C101.504 144.341 101.019 144.826 100.421 144.826C99.8229 144.826 99.3312 144.341 99.3312 143.743Z" fill="#484A56"/>
<path d="M99.3312 126.095C99.3312 125.497 99.8229 125.012 100.421 125.012C101.019 125.012 101.504 125.497 101.504 126.095C101.504 126.693 101.019 127.185 100.421 127.185C99.8229 127.185 99.3312 126.693 99.3312 126.095ZM99.3312 122.839C99.3312 122.241 99.8229 121.756 100.421 121.756C101.019 121.756 101.504 122.241 101.504 122.839C101.504 123.437 101.019 123.929 100.421 123.929C99.8229 123.929 99.3312 123.437 99.3312 122.839ZM99.3312 119.59C99.3312 118.985 99.8229 118.5 100.421 118.5C101.019 118.5 101.504 118.985 101.504 119.59C101.504 120.188 101.019 120.673 100.421 120.673C99.8229 120.673 99.3312 120.188 99.3312 119.59ZM99.3312 116.334C99.3312 115.736 99.8229 115.244 100.421 115.244C101.019 115.244 101.504 115.736 101.504 116.334C101.504 116.932 101.019 117.417 100.421 117.417C99.8229 117.417 99.3312 116.932 99.3312 116.334ZM99.3312 113.078C99.3312 112.48 99.8229 111.995 100.421 111.995C101.019 111.995 101.504 112.48 101.504 113.078C101.504 113.676 101.019 114.161 100.421 114.161C99.8229 114.161 99.3312 113.676 99.3312 113.078ZM99.3312 109.822C99.3312 109.224 99.8229 108.739 100.421 108.739C101.019 108.739 101.504 109.224 101.504 109.822C101.504 110.42 101.019 110.905 100.421 110.905C99.8229 110.905 99.3312 110.42 99.3312 109.822ZM99.3312 106.566C99.3312 105.968 99.8229 105.483 100.421 105.483C101.019 105.483 101.504 105.968 101.504 106.566C101.504 107.164 101.019 107.649 100.421 107.649C99.8229 107.649 99.3312 107.164 99.3312 106.566ZM99.3312 103.31C99.3312 102.712 99.8229 102.227 100.421 102.227C101.019 102.227 101.504 102.712 101.504 103.31C101.504 103.908 101.019 104.393 100.421 104.393C99.8229 104.393 99.3312 103.908 99.3312 103.31ZM99.3312 100.054C99.3312 99.456 99.8229 98.971 100.421 98.971C101.019 98.971 101.504 99.456 101.504 100.054C101.504 100.652 101.019 101.137 100.421 101.137C99.8229 101.137 99.3312 100.652 99.3312 100.054ZM99.3312 96.7981C99.3312 96.2001 99.8229 95.715 100.421 95.715C101.019 95.715 101.504 96.2001 101.504 96.7981C101.504 97.3961 101.019 97.8812 100.421 97.8812C99.8229 97.8812 99.3312 97.3961 99.3312 96.7981ZM99.3312 93.5421C99.3312 92.9441 99.8229 92.459 100.421 92.459C101.019 92.459 101.504 92.9441 101.504 93.5421C101.504 94.1402 101.019 94.6319 100.421 94.6319C99.8229 94.6319 99.3312 94.1402 99.3312 93.5421ZM99.3312 90.2862C99.3312 89.6881 99.8229 89.2031 100.421 89.2031C101.019 89.2031 101.504 89.6881 101.504 90.2862C101.504 90.8908 101.019 91.3759 100.421 91.3759C99.8229 91.3759 99.3312 90.8908 99.3312 90.2862ZM99.3312 87.0368C99.3312 86.4322 99.8229 85.9471 100.421 85.9471C101.019 85.9471 101.504 86.4322 101.504 87.0368C101.504 87.6349 101.019 88.1199 100.421 88.1199C99.8229 88.1199 99.3312 87.6349 99.3312 87.0368ZM99.3312 83.7809C99.3312 83.1828 99.8229 82.6911 100.421 82.6911C101.019 82.6911 101.504 83.1828 101.504 83.7809C101.504 84.3789 101.019 84.864 100.421 84.864C99.8229 84.864 99.3312 84.3789 99.3312 83.7809ZM99.3312 80.5249C99.3312 79.9269 99.8229 79.4418 100.421 79.4418C101.019 79.4418 101.504 79.9269 101.504 80.5249C101.504 81.1229 101.019 81.608 100.421 81.608C99.8229 81.608 99.3312 81.1229 99.3312 80.5249ZM99.3312 77.2689C99.3312 76.6709 99.8229 76.1858 100.421 76.1858C101.019 76.1858 101.504 76.6709 101.504 77.2689C101.504 77.867 101.019 78.3521 100.421 78.3521C99.8229 78.3521 99.3312 77.867 99.3312 77.2689ZM99.3312 74.013C99.3312 73.4149 99.8229 72.9299 100.421 72.9299C101.019 72.9299 101.504 73.4149 101.504 74.013C101.504 74.611 101.019 75.0961 100.421 75.0961C99.8229 75.0961 99.3312 74.611 99.3312 74.013ZM99.3312 70.757C99.3312 70.159 99.8229 69.6739 100.421 69.6739C101.019 69.6739 101.504 70.159 101.504 70.757C101.504 71.355 101.019 71.8401 100.421 71.8401C99.8229 71.8401 99.3312 71.355 99.3312 70.757ZM99.3312 67.5011C99.3312 66.903 99.8229 66.4179 100.421 66.4179C101.019 66.4179 101.504 66.903 101.504 67.5011C101.504 68.0991 101.019 68.5842 100.421 68.5842C99.8229 68.5842 99.3312 68.1057 99.3312 67.5011ZM99.3312 64.2451C99.3312 63.647 99.8229 63.162 100.421 63.162C101.019 63.162 101.504 63.647 101.504 64.2451C101.504 64.8431 101.019 65.3348 100.421 65.3348C99.8229 65.3348 99.3312 64.8498 99.3312 64.2451ZM99.3312 60.9891C99.3312 60.3911 99.8229 59.906 100.421 59.906C101.019 59.906 101.504 60.3911 101.504 60.9891C101.504 61.5938 101.019 62.0789 100.421 62.0789C99.8229 62.0789 99.3312 61.5938 99.3312 60.9891ZM99.3312 57.7398C99.3312 57.1351 99.8229 56.65 100.421 56.65C101.019 56.65 101.504 57.1351 101.504 57.7398C101.504 58.3378 101.019 58.8229 100.421 58.8229C99.8229 58.8229 99.3312 58.3378 99.3312 57.7398ZM99.3312 54.4838C99.3312 53.8858 99.8229 53.3941 100.421 53.3941C101.019 53.3941 101.504 53.8858 101.504 54.4838C101.504 55.0819 101.019 55.5669 100.421 55.5669C99.8229 55.5669 99.3312 55.0819 99.3312 54.4838ZM99.3312 51.2279C99.3312 50.6298 99.8229 50.1448 100.421 50.1448C101.019 50.1448 101.504 50.6298 101.504 51.2279C101.504 51.8259 101.019 52.311 100.421 52.311C99.8229 52.311 99.3312 51.8259 99.3312 51.2279ZM99.3312 47.9719C99.3312 47.3739 99.8229 46.8888 100.421 46.8888C101.019 46.8888 101.504 47.3739 101.504 47.9719C101.504 48.5699 101.019 49.055 100.421 49.055C99.8229 49.055 99.3312 48.5699 99.3312 47.9719ZM99.3312 44.7159C99.3312 44.1179 99.8229 43.6328 100.421 43.6328C101.019 43.6328 101.504 44.1179 101.504 44.7159C101.504 45.314 101.019 45.799 100.421 45.799C99.8229 45.799 99.3312 45.314 99.3312 44.7159ZM99.3312 41.46C99.3312 40.8619 99.8229 40.3769 100.421 40.3769C101.019 40.3769 101.504 40.8619 101.504 41.46C101.504 42.058 101.019 42.5431 100.421 42.5431C99.8229 42.5497 99.3312 42.058 99.3312 41.46ZM99.3312 38.204C99.3312 37.606 99.8229 37.1209 100.421 37.1209C101.019 37.1209 101.504 37.606 101.504 38.204C101.504 38.802 101.019 39.2871 100.421 39.2871C99.8229 39.2938 99.3312 38.8087 99.3312 38.204ZM99.3312 34.948C99.3312 34.35 99.8229 33.8649 100.421 33.8649C101.019 33.8649 101.504 34.35 101.504 34.948C101.504 35.5461 101.019 36.0312 100.421 36.0312C99.8229 36.0378 99.3312 35.5527 99.3312 34.948ZM99.3312 31.6921C99.3312 31.094 99.8229 30.609 100.421 30.609C101.019 30.609 101.504 31.094 101.504 31.6921C101.504 32.2901 101.019 32.7818 100.421 32.7818C99.8229 32.7818 99.3312 32.2968 99.3312 31.6921ZM99.3312 28.4361C99.3312 27.8381 99.8229 27.353 100.421 27.353C101.019 27.353 101.504 27.8381 101.504 28.4361C101.504 29.0408 101.019 29.5259 100.421 29.5259C99.8229 29.5259 99.3312 29.0408 99.3312 28.4361ZM99.3312 25.1868C99.3312 24.5888 99.8229 24.097 100.421 24.097C101.019 24.097 101.504 24.5888 101.504 25.1868C101.504 25.7848 101.019 26.2699 100.421 26.2699C99.8229 26.2699 99.3312 25.7848 99.3312 25.1868ZM99.3312 21.9308C99.3312 21.3328 99.8229 20.8411 100.421 20.8411C101.019 20.8411 101.504 21.3328 101.504 21.9308C101.504 22.5289 101.019 23.0139 100.421 23.0139C99.8229 23.0139 99.3312 22.5289 99.3312 21.9308ZM99.3312 18.6749C99.3312 18.0768 99.8229 17.5918 100.421 17.5918C101.019 17.5918 101.504 18.0768 101.504 18.6749C101.504 19.2729 101.019 19.758 100.421 19.758C99.8229 19.758 99.3312 19.2729 99.3312 18.6749ZM99.3312 15.4189C99.3312 14.8209 99.8229 14.3358 100.421 14.3358C101.019 14.3358 101.504 14.8209 101.504 15.4189C101.504 16.0169 101.019 16.502 100.421 16.502C99.8229 16.502 99.3312 16.0169 99.3312 15.4189ZM99.3312 12.1629C99.3312 11.5649 99.8229 11.0798 100.421 11.0798C101.019 11.0798 101.504 11.5649 101.504 12.1629C101.504 12.761 101.019 13.246 100.421 13.246C99.8229 13.246 99.3312 12.761 99.3312 12.1629ZM99.3312 8.90696C99.3312 8.30893 99.8229 7.82386 100.421 7.82386C101.019 7.82386 101.504 8.30893 101.504 8.90696C101.504 9.505 101.019 9.99672 100.421 9.99672C99.8229 9.99672 99.3312 9.505 99.3312 8.90696ZM99.3312 5.651C99.3312 5.05297 99.8229 4.56789 100.421 4.56789C101.019 4.56789 101.504 5.05297 101.504 5.651C101.504 6.25568 101.019 6.74075 100.421 6.74075C99.8229 6.74075 99.3312 6.25568 99.3312 5.651ZM99.3312 2.40168C99.3312 1.80364 99.8229 1.31193 100.421 1.31193C101.019 1.31193 101.504 1.80364 101.504 2.40168C101.504 2.99971 101.019 3.48479 100.421 3.48479C99.8229 3.48479 99.3312 2.99971 99.3312 2.40168ZM99.3312 -0.854287C99.3312 -1.45232 99.8229 -1.94404 100.421 -1.94404C101.019 -1.94404 101.504 -1.45232 101.504 -0.854287C101.504 -0.256254 101.019 0.22882 100.421 0.22882C99.8229 0.22882 99.3312 -0.256254 99.3312 -0.854287ZM99.3312 -4.11025C99.3312 -4.70829 99.8229 -5.19336 100.421 -5.19336C101.019 -5.19336 101.504 -4.70829 101.504 -4.11025C101.504 -3.51222 101.019 -3.02715 100.421 -3.02715C99.8229 -3.02715 99.3312 -3.51222 99.3312 -4.11025Z" fill="#484A56"/>
<path d="M154.689 155.731C154.689 155.133 155.174 154.648 155.772 154.648C156.377 154.648 156.862 155.133 156.862 155.731C156.862 156.329 156.377 156.814 155.772 156.814C155.174 156.814 154.689 156.329 154.689 155.731ZM154.689 152.475C154.689 151.877 155.174 151.392 155.772 151.392C156.377 151.392 156.862 151.877 156.862 152.475C156.862 153.073 156.377 153.565 155.772 153.565C155.174 153.565 154.689 153.073 154.689 152.475ZM154.689 149.219C154.689 148.621 155.174 148.136 155.772 148.136C156.377 148.136 156.862 148.621 156.862 149.219C156.862 149.824 156.377 150.309 155.772 150.309C155.174 150.309 154.689 149.824 154.689 149.219ZM154.689 145.97C154.689 145.365 155.174 144.88 155.772 144.88C156.377 144.88 156.862 145.365 156.862 145.97C156.862 146.568 156.377 147.053 155.772 147.053C155.174 147.053 154.689 146.568 154.689 145.97ZM154.689 142.714C154.689 142.116 155.174 141.624 155.772 141.624C156.377 141.624 156.862 142.116 156.862 142.714C156.862 143.312 156.377 143.797 155.772 143.797C155.174 143.797 154.689 143.312 154.689 142.714ZM154.689 139.458C154.689 138.86 155.174 138.375 155.772 138.375C156.377 138.375 156.862 138.86 156.862 139.458C156.862 140.056 156.377 140.541 155.772 140.541C155.174 140.541 154.689 140.056 154.689 139.458ZM154.689 136.202C154.689 135.604 155.174 135.119 155.772 135.119C156.377 135.119 156.862 135.604 156.862 136.202C156.862 136.8 156.377 137.285 155.772 137.285C155.174 137.285 154.689 136.8 154.689 136.202ZM154.689 132.946C154.689 132.348 155.174 131.863 155.772 131.863C156.377 131.863 156.862 132.348 156.862 132.946C156.862 133.544 156.377 134.029 155.772 134.029C155.174 134.029 154.689 133.544 154.689 132.946ZM154.689 129.69C154.689 129.092 155.174 128.607 155.772 128.607C156.377 128.607 156.862 129.092 156.862 129.69C156.862 130.288 156.377 130.773 155.772 130.773C155.174 130.773 154.689 130.288 154.689 129.69ZM154.689 126.434C154.689 125.836 155.174 125.351 155.772 125.351C156.377 125.351 156.862 125.836 156.862 126.434C156.862 127.032 156.377 127.517 155.772 127.517C155.174 127.517 154.689 127.039 154.689 126.434ZM154.689 123.178C154.689 122.58 155.174 122.095 155.772 122.095C156.377 122.095 156.862 122.58 156.862 123.178C156.862 123.776 156.377 124.268 155.772 124.268C155.174 124.268 154.689 123.783 154.689 123.178ZM154.689 119.922C154.689 119.324 155.174 118.839 155.772 118.839C156.377 118.839 156.862 119.324 156.862 119.922C156.862 120.527 156.377 121.012 155.772 121.012C155.174 121.012 154.689 120.527 154.689 119.922ZM154.689 116.673C154.689 116.068 155.174 115.583 155.772 115.583C156.377 115.583 156.862 116.068 156.862 116.673C156.862 117.271 156.377 117.756 155.772 117.756C155.174 117.756 154.689 117.271 154.689 116.673ZM154.689 113.417C154.689 112.819 155.174 112.327 155.772 112.327C156.377 112.327 156.862 112.819 156.862 113.417C156.862 114.015 156.377 114.5 155.772 114.5C155.174 114.5 154.689 114.015 154.689 113.417ZM154.689 110.161C154.689 109.563 155.174 109.078 155.772 109.078C156.377 109.078 156.862 109.563 156.862 110.161C156.862 110.759 156.377 111.244 155.772 111.244C155.174 111.244 154.689 110.759 154.689 110.161ZM154.689 106.905C154.689 106.307 155.174 105.822 155.772 105.822C156.377 105.822 156.862 106.307 156.862 106.905C156.862 107.503 156.377 107.988 155.772 107.988C155.174 107.988 154.689 107.503 154.689 106.905ZM154.689 103.649C154.689 103.051 155.174 102.566 155.772 102.566C156.377 102.566 156.862 103.051 156.862 103.649C156.862 104.247 156.377 104.732 155.772 104.732C155.174 104.732 154.689 104.247 154.689 103.649ZM154.689 100.393C154.689 99.7949 155.174 99.3098 155.772 99.3098C156.377 99.3098 156.862 99.7949 156.862 100.393C156.862 100.991 156.377 101.476 155.772 101.476C155.174 101.483 154.689 100.991 154.689 100.393ZM154.689 97.1369C154.689 96.5389 155.174 96.0538 155.772 96.0538C156.377 96.0538 156.862 96.5389 156.862 97.1369C156.862 97.735 156.377 98.2201 155.772 98.2201C155.174 98.2267 154.689 97.7416 154.689 97.1369ZM154.689 93.881C154.689 93.283 155.174 92.7979 155.772 92.7979C156.377 92.7979 156.862 93.283 156.862 93.881C156.862 94.479 156.377 94.9641 155.772 94.9641C155.174 94.9707 154.689 94.4857 154.689 93.881ZM154.689 90.625C154.689 90.027 155.174 89.5419 155.772 89.5419C156.377 89.5419 156.862 90.027 156.862 90.625C156.862 91.2231 156.377 91.7148 155.772 91.7148C155.174 91.7148 154.689 91.2297 154.689 90.625ZM154.689 87.3691C154.689 86.771 155.174 86.2859 155.772 86.2859C156.377 86.2859 156.862 86.771 156.862 87.3691C156.862 87.9737 156.377 88.4588 155.772 88.4588C155.174 88.4588 154.689 87.9737 154.689 87.3691ZM154.689 84.1197C154.689 83.5217 155.174 83.03 155.772 83.03C156.377 83.03 156.862 83.5217 156.862 84.1197C156.862 84.7178 156.377 85.2028 155.772 85.2028C155.174 85.2028 154.689 84.7178 154.689 84.1197ZM154.689 80.8638C154.689 80.2657 155.174 79.774 155.772 79.774C156.377 79.774 156.862 80.2657 156.862 80.8638C156.862 81.4618 156.377 81.9469 155.772 81.9469C155.174 81.9469 154.689 81.4618 154.689 80.8638ZM154.689 77.6078C154.689 77.0098 155.174 76.5247 155.772 76.5247C156.377 76.5247 156.862 77.0098 156.862 77.6078C156.862 78.2058 156.377 78.6909 155.772 78.6909C155.174 78.6909 154.689 78.2058 154.689 77.6078ZM154.689 74.3518C154.689 73.7538 155.174 73.2687 155.772 73.2687C156.377 73.2687 156.862 73.7538 156.862 74.3518C156.862 74.9499 156.377 75.4349 155.772 75.4349C155.174 75.4349 154.689 74.9499 154.689 74.3518ZM154.689 71.0959C154.689 70.4978 155.174 70.0128 155.772 70.0128C156.377 70.0128 156.862 70.4978 156.862 71.0959C156.862 71.6939 156.377 72.179 155.772 72.179C155.174 72.179 154.689 71.6939 154.689 71.0959ZM154.689 67.8399C154.689 67.2419 155.174 66.7568 155.772 66.7568C156.377 66.7568 156.862 67.2419 156.862 67.8399C156.862 68.4379 156.377 68.9297 155.772 68.9297C155.174 68.9297 154.689 68.4379 154.689 67.8399ZM154.689 64.5906C154.689 63.9859 155.174 63.5008 155.772 63.5008C156.377 63.5008 156.862 63.9859 156.862 64.5906C156.862 65.1886 156.377 65.6737 155.772 65.6737C155.174 65.6737 154.689 65.1886 154.689 64.5906ZM154.689 61.3346C154.689 60.7366 155.174 60.2449 155.772 60.2449C156.377 60.2449 156.862 60.7366 156.862 61.3346C156.862 61.9327 156.377 62.4177 155.772 62.4177C155.174 62.4177 154.689 61.9327 154.689 61.3346ZM154.689 58.0787C154.689 57.4806 155.174 56.9956 155.772 56.9956C156.377 56.9956 156.862 57.4806 156.862 58.0787C156.862 58.6767 156.377 59.1618 155.772 59.1618C155.174 59.1618 154.689 58.6767 154.689 58.0787ZM154.689 54.8227C154.689 54.2247 155.174 53.7396 155.772 53.7396C156.377 53.7396 156.862 54.2247 156.862 54.8227C156.862 55.4207 156.377 55.9058 155.772 55.9058C155.174 55.9058 154.689 55.4207 154.689 54.8227ZM154.689 51.5667C154.689 50.9687 155.174 50.4836 155.772 50.4836C156.377 50.4836 156.862 50.9687 156.862 51.5667C156.862 52.1648 156.377 52.6498 155.772 52.6498C155.174 52.6498 154.689 52.1648 154.689 51.5667ZM154.689 48.3108C154.689 47.7127 155.174 47.2277 155.772 47.2277C156.377 47.2277 156.862 47.7127 156.862 48.3108C156.862 48.9088 156.377 49.3939 155.772 49.3939C155.174 49.3939 154.689 48.9088 154.689 48.3108ZM154.689 45.0548C154.689 44.4568 155.174 43.9717 155.772 43.9717C156.377 43.9717 156.862 44.4568 156.862 45.0548C156.862 45.6528 156.377 46.1379 155.772 46.1379C155.174 46.1379 154.689 45.6528 154.689 45.0548ZM154.689 41.7988C154.689 41.2008 155.174 40.7157 155.772 40.7157C156.377 40.7157 156.862 41.2008 156.862 41.7988C156.862 42.3969 156.377 42.8819 155.772 42.8819C155.174 42.8819 154.689 42.3969 154.689 41.7988ZM154.689 38.5429C154.689 37.9448 155.174 37.4598 155.772 37.4598C156.377 37.4598 156.862 37.9448 156.862 38.5429C156.862 39.1409 156.377 39.6326 155.772 39.6326C155.174 39.6326 154.689 39.1409 154.689 38.5429ZM154.689 35.2869C154.689 34.6889 155.174 34.2038 155.772 34.2038C156.377 34.2038 156.862 34.6889 156.862 35.2869C156.862 35.8916 156.377 36.3767 155.772 36.3767C155.174 36.3767 154.689 35.8916 154.689 35.2869ZM154.689 32.0376C154.689 31.4329 155.174 30.9478 155.772 30.9478C156.377 30.9478 156.862 31.4329 156.862 32.0376C156.862 32.6356 156.377 33.1207 155.772 33.1207C155.174 33.1207 154.689 32.6356 154.689 32.0376ZM154.689 28.7816C154.689 28.1836 155.174 27.6919 155.772 27.6919C156.377 27.6919 156.862 28.1836 156.862 28.7816C156.862 29.3797 156.377 29.8647 155.772 29.8647C155.174 29.8647 154.689 29.3797 154.689 28.7816ZM154.689 25.5257C154.689 24.9276 155.174 24.4425 155.772 24.4425C156.377 24.4425 156.862 24.9276 156.862 25.5257C156.862 26.1237 156.377 26.6088 155.772 26.6088C155.174 26.6088 154.689 26.1237 154.689 25.5257ZM154.689 22.2697C154.689 21.6717 155.174 21.1866 155.772 21.1866C156.377 21.1866 156.862 21.6717 156.862 22.2697C156.862 22.8677 156.377 23.3528 155.772 23.3528C155.174 23.3528 154.689 22.8677 154.689 22.2697ZM154.689 19.0137C154.689 18.4157 155.174 17.9306 155.772 17.9306C156.377 17.9306 156.862 18.4157 156.862 19.0137C156.862 19.6118 156.377 20.0968 155.772 20.0968C155.174 20.0968 154.689 19.6118 154.689 19.0137ZM154.689 15.7578C154.689 15.1597 155.174 14.6747 155.772 14.6747C156.377 14.6747 156.862 15.1597 156.862 15.7578C156.862 16.3558 156.377 16.8409 155.772 16.8409C155.174 16.8409 154.689 16.3558 154.689 15.7578ZM154.689 12.5018C154.689 11.9038 155.174 11.4187 155.772 11.4187C156.377 11.4187 156.862 11.9038 156.862 12.5018C156.862 13.0998 156.377 13.5849 155.772 13.5849C155.174 13.5849 154.689 13.0998 154.689 12.5018ZM154.689 9.24583C154.689 8.64779 155.174 8.16272 155.772 8.16272C156.377 8.16272 156.862 8.64779 156.862 9.24583C156.862 9.84386 156.377 10.3356 155.772 10.3356C155.174 10.3356 154.689 9.84386 154.689 9.24583ZM154.689 5.98986C154.689 5.39183 155.174 4.90676 155.772 4.90676C156.377 4.90676 156.862 5.39183 156.862 5.98986C156.862 6.59454 156.377 7.07962 155.772 7.07962C155.174 7.07962 154.689 6.59454 154.689 5.98986ZM154.689 2.74054C154.689 2.13586 155.174 1.65079 155.772 1.65079C156.377 1.65079 156.862 2.13586 156.862 2.74054C156.862 3.33858 156.377 3.82365 155.772 3.82365C155.174 3.82365 154.689 3.33858 154.689 2.74054ZM154.689 -0.51542C154.689 -1.11345 155.174 -1.60517 155.772 -1.60517C156.377 -1.60517 156.862 -1.11345 156.862 -0.51542C156.862 0.0826149 156.377 0.567686 155.772 0.567686C155.174 0.567686 154.689 0.0826149 154.689 -0.51542ZM154.689 -3.77139C154.689 -4.36942 155.174 -4.85449 155.772 -4.85449C156.377 -4.85449 156.862 -4.36942 156.862 -3.77139C156.862 -3.17335 156.377 -2.68828 155.772 -2.68828C155.174 -2.68828 154.689 -3.17335 154.689 -3.77139Z" fill="#484A56"/>
</svg>
