<svg width="294" height="225" viewBox="0 0 294 225" fill="none" xmlns="http://www.w3.org/2000/svg">
<path d="M104.027 224.541C105.438 223.8 103.959 220.139 100.933 216.912L99.8533 215.756L100.746 214.999C101.935 213.998 106.898 208.662 108.652 206.499C112.294 202.013 116.864 195.641 122.921 186.607C127.507 179.76 127.687 179.51 127.931 179.659C128.018 179.714 128.14 179.611 128.202 179.431C128.262 179.25 128.547 178.604 128.837 177.99C129.89 175.768 130.571 171.778 132.249 157.987C133.337 149.072 133.79 145.736 134.8 139.315C135.09 137.426 135.426 135.25 135.538 134.479C135.652 133.711 135.798 133.079 135.866 133.079C135.937 133.079 136.93 134.118 138.07 135.388C141.733 139.467 150.385 148.285 160.353 158.106C165.697 163.368 170.099 167.843 170.137 168.052C170.175 168.261 170.299 170.101 170.411 172.142C170.747 178.341 171.304 183.011 173.057 194.472C175.176 208.318 176.403 217.173 176.27 217.683C176.039 218.562 177.391 219.615 179.646 220.316C183.242 221.436 188.238 220.839 189.381 219.16C190.181 217.968 189.6 216.704 187.812 215.751C185.679 214.614 182.542 214.6 179.144 215.71C178.273 215.995 177.559 216.215 177.554 216.201C177.548 216.182 177.193 213.653 176.767 210.567C176.341 207.487 175.437 201.34 174.756 196.914C173.279 187.294 172.715 183.356 172.237 179.374C171.86 176.221 171.312 169.548 171.352 168.59C171.369 168.259 171.209 167.784 170.973 167.453C170.137 166.28 166.275 162.351 157.303 153.555C144.844 141.334 136.39 132.463 136.034 131.233C135.945 130.908 135.863 129.337 135.863 127.746C135.863 125.16 135.825 124.791 135.502 124.308C135.068 123.651 135.019 122.148 135.402 121.233C135.543 120.891 135.627 120.343 135.587 120.014C135.543 119.691 135.34 117.96 135.133 116.169C134.927 114.378 134.36 110.432 133.869 107.4C131.434 92.287 131.147 89.5949 131.033 80.8508C130.981 77.0406 130.997 73.2222 131.071 72.3619L131.198 70.8014L131.538 71.2438C132.078 71.9521 132.976 73.708 133.212 74.5221C133.402 75.1762 133.38 75.4258 133.03 76.5032C132.363 78.5468 132.192 79.8576 132.197 82.9839C132.197 87.3912 132.534 89.9748 134.232 98.4746C136.154 108.103 136.262 108.934 136.363 114.451C136.422 117.979 136.384 119.795 136.224 120.693C135.866 122.696 135.809 123.689 136.026 124.104C136.138 124.316 136.466 125.222 136.754 126.115C137.348 127.952 139.679 134.365 140.021 135.095C140.265 135.608 140.938 136.01 141.242 135.82C141.606 135.592 143.183 131.67 144.792 127.005C145.234 125.719 145.701 124.427 145.829 124.126C146.124 123.431 146.162 123.081 146.179 120.774C146.2 116.942 145.015 112.812 141.06 102.969C137.899 95.0958 136.743 91.5244 135.587 86.018C134.851 82.528 134.577 77.4992 134.984 75.0242L135.193 73.7758L134.156 72.6577C132.93 71.3306 132.33 70.4324 132.173 69.6942C132.067 69.1813 132.105 69.2057 132.827 70.0578C135.361 73.0458 140.073 77.3255 146.358 82.3435C152.657 87.3776 163.173 94.838 165.727 96.0864C166.267 96.3524 167.016 96.7214 167.393 96.906L168.074 97.2452L168.763 96.3089C171.521 92.553 176.604 84.1183 178.897 79.4912C180.886 75.472 183.201 70.0823 184.629 66.1309C185.283 64.3099 186.496 60.9909 187.326 58.7547C188.851 54.6242 189.068 53.9837 189.4 52.6946L189.584 51.9727H191.18C192.624 51.9727 192.887 51.913 194.021 51.3567C196.206 50.2793 197.411 48.6971 198.092 46.0294L198.42 44.7403L208.885 44.6481C214.647 44.5992 226.156 44.5558 234.46 44.5558H249.568L249.604 51.335C249.634 57.0721 249.596 58.1386 249.378 58.2607C249.235 58.3394 249.066 58.7194 249.007 59.0993L248.895 59.7913L219.002 59.6964C202.562 59.6448 188.903 59.6502 188.648 59.7208C188.265 59.8158 187.785 60.5485 187.785 61.0397C187.785 61.1537 232.371 61.1076 241.036 60.9827C248.108 60.8796 249.476 60.8226 249.476 60.6109C249.476 60.4264 249.593 60.3938 249.883 60.4888C250.334 60.6354 252.361 60.6136 253.14 60.4508C253.414 60.3938 253.639 60.2283 253.639 60.0844C253.639 59.8755 253.816 59.8456 254.499 59.9379C256.277 60.1713 261.143 59.4657 264.6 58.4724C267.561 57.6203 274.083 54.8467 274.083 54.4423C274.083 54.3664 274.796 54.3338 275.667 54.3772C277.524 54.4641 279.698 54.171 280.596 53.7096C281.063 53.4681 281.269 53.213 281.394 52.7272C281.809 51.088 280.664 50.4503 277.03 50.2983C274.823 50.2033 274.549 50.1599 274.199 49.7962C273.469 49.0472 267.542 47.0851 261.96 45.7472C257.379 44.6453 251.62 43.5299 251.14 43.6466C250.904 43.7091 250.608 43.6711 250.483 43.5679C250.328 43.4431 241.967 43.3671 224.416 43.3346L198.578 43.2911L198.344 42.249C197.802 39.8717 196.453 38.4415 193.956 37.6002C192.735 37.1904 190.181 37.0954 189.014 37.4184C187.47 37.8471 185.899 39.6139 184.96 41.9831C184.615 42.8406 184.357 43.2341 184.094 43.2966C183.532 43.4323 78.8563 43.2477 77.133 43.1066C76.0501 43.0252 75.5182 43.055 75.141 43.2369C74.7421 43.4268 73.9632 43.4567 71.6428 43.3753C69.9982 43.3156 62.5894 43.2531 55.1779 43.2341C47.7664 43.2151 40.0265 43.1446 37.9775 43.0822L34.2568 42.9628L33.8606 43.3861C33.6435 43.6168 33.4698 44.0347 33.4698 44.317C33.4698 44.7919 33.421 44.8272 32.7018 44.8272C32.2784 44.8299 31.8116 44.9059 31.6624 45.0009C31.3747 45.1854 31.3693 45.2071 31.3232 46.4609L31.296 47.2832L30.0748 47.1475C29.4072 47.0715 25.0134 47.0064 20.313 47.001C12.3208 47.001 11.7617 47.02 11.6016 47.3131C11.5066 47.4895 11.4035 49.4706 11.3736 51.7176C11.3085 56.76 11.2786 56.6786 13.2435 56.798C14.7388 56.8902 30.4954 56.779 30.9812 56.6813C31.239 56.6243 31.296 56.741 31.296 57.2946C31.296 58.1033 31.6895 58.5186 32.5389 58.5973C33.0546 58.6515 33.1848 58.7628 33.421 59.3816C33.8036 60.3857 33.885 62.185 33.5431 62.185C33.4019 62.185 33.288 62.3098 33.288 62.4591C33.288 62.6056 33.3721 62.7277 33.4698 62.7277C33.5675 62.7277 33.6489 62.9421 33.6489 63.1972C33.6489 64.3832 37.0602 66.5543 41.1201 67.9546C43.758 68.8638 49.5331 70.3238 50.4829 70.3238C51.3134 70.3238 51.7964 69.7756 51.7042 68.9397L51.6526 68.4241L85.2609 68.3345C108.896 68.2694 118.91 68.1853 119.002 68.0496C119.073 67.941 119.282 67.7972 119.474 67.7294C119.759 67.6235 119.792 67.4824 119.702 66.8392C119.64 66.4159 119.507 65.7808 119.404 65.4253C119.162 64.565 117.404 62.649 116.071 61.7887L115.002 61.0994H183.41L183.608 60.5377C183.714 60.2256 183.757 59.9026 183.703 59.8103C183.646 59.7208 161.593 59.6502 131.649 59.6502H79.6921V44.6453H183.988V45.5925C183.988 46.2139 184.14 46.8544 184.422 47.446C185.022 48.7053 186.455 50.4068 187.519 51.1287C188.013 51.4625 188.393 51.8289 188.363 51.9429C188.333 52.0514 187.573 54.019 186.669 56.3095C185.768 58.5945 184.241 62.5405 183.269 65.0779C180.251 72.9725 177.421 79.0081 174.161 84.5172C171.456 89.0874 167.941 94.6019 167.146 95.5273C166.875 95.8422 155.748 88.2027 149.704 83.5538C144.005 79.1682 137.199 73.3389 135.182 71.1108C133.074 68.7878 131.709 66.9966 131.936 66.8555C132.297 66.6302 133.025 67.249 134.658 69.1677C135.538 70.2017 136.317 71.0457 136.39 71.0457C136.466 71.0457 136.743 70.5138 137.011 69.8597L137.5 68.6738L136.892 67.9166C136.281 67.1622 134.341 64.1606 133.619 62.858C133.242 62.1768 133.242 62.1768 132.164 62.2257L131.084 62.2745L130.772 63.8323C130.552 64.9341 130.172 65.9654 129.467 67.3576C128.102 70.0606 127.372 71.8897 125.83 76.449C125.103 78.5983 123.803 82.3109 122.94 84.6909C122.072 87.0764 120.956 90.3737 120.46 92.0156C119.143 96.3632 116.229 108.063 115.887 110.378C115.721 111.474 115.52 112.587 115.434 112.858C115.097 113.919 116.126 117.879 118.606 125.084C120.329 130.102 121.553 134.14 122.118 136.691C122.59 138.811 123.195 142.7 123.081 142.884C123.035 142.96 122.78 143.02 122.514 143.02C120.332 143.02 118.636 146.8 118.617 151.699C118.598 155.221 119.268 156.765 120.81 156.765C122.3 156.765 123.442 155.387 124.351 152.491C125.29 149.49 125.402 146.1 124.639 143.712C124.446 143.107 124.286 142.347 124.286 142.021C124.286 141.011 123.586 137.261 122.921 134.702C122.574 133.361 121.23 129.128 119.944 125.298C117.189 117.121 116.223 113.713 116.506 113.189C116.609 112.994 117.553 109.403 118.598 105.216C120.992 95.6223 122.036 92.002 124.172 85.9312C125.108 83.2662 126.49 79.2524 127.233 77.0135C128.71 72.5899 129.711 69.8977 129.831 70.0144C129.871 70.0578 129.814 72.1611 129.698 74.685C129.271 83.9826 129.907 91.557 132.335 106.13C133.741 114.527 134.3 119.314 134.596 125.388C134.829 130.2 134.832 129.999 134.509 129.999C134.197 129.999 134.148 130.579 134.417 131.082C134.547 131.323 134.395 132.607 133.885 135.638C132.935 141.256 131.869 148.836 130.881 157.015C129.698 166.78 129.434 168.712 128.677 173.187L127.996 177.217L127.114 178.159C125.771 179.586 123.624 182.536 119.613 188.458C113.075 198.116 107.531 205.476 102.988 210.529C102.431 211.146 101.617 212.139 101.18 212.736C100.111 214.18 99.05 215.026 98.4828 214.88C98.244 214.823 97.9509 214.855 97.8261 214.953C97.7039 215.048 97.2996 215.184 96.9359 215.249C95.1719 215.566 94.6454 217.917 95.8395 220.115C96.4963 221.32 98.6429 223.282 100.136 224.034C101.514 224.739 103.224 224.959 104.022 224.536L104.027 224.541ZM100.241 223.016C98.7868 222.308 96.9196 220.389 96.5289 219.206C96.0566 217.77 96.4719 216.628 97.6931 215.995C98.1382 215.762 98.2277 215.767 98.4231 215.995C98.5398 216.144 98.7461 216.261 98.8682 216.261C99.1911 216.261 101.273 218.508 102.079 219.729C103.379 221.689 103.786 223.108 103.167 223.491C102.697 223.776 101.36 223.559 100.241 223.01V223.016ZM180.303 219.428C178.859 219.054 177.475 218.438 177.475 218.172C177.475 217.748 178.118 217.387 179.917 216.79C181.6 216.234 181.898 216.188 184.167 216.182C186.382 216.182 186.688 216.215 187.473 216.603C189.223 217.472 188.691 218.79 186.338 219.415C184.998 219.773 181.643 219.778 180.303 219.434V219.428ZM120.091 155.004C119.968 154.714 119.884 153.528 119.884 152.155C119.892 147.907 120.869 145.139 122.699 144.184C123.168 143.937 123.201 143.948 123.472 144.469C123.627 144.77 123.844 145.012 123.955 145.012C124.096 145.012 124.126 145.614 124.053 147.047C123.887 150.464 122.813 153.767 121.51 154.917C120.688 155.631 120.359 155.655 120.091 155.007V155.004ZM46.1326 68.2287C42.4445 67.2544 39.9478 66.4131 37.4483 65.3032C36.2054 64.7523 35.1361 64.2529 35.0764 64.1932C35.014 64.1362 34.9109 63.8648 34.8457 63.5907L34.729 63.0941H36.8024C38.1431 63.0941 38.9192 63.1647 39.0006 63.2949C39.1689 63.569 41.0903 64.4293 42.4309 64.8364C43.4486 65.1431 45.2072 65.1621 73.5045 65.2163C93.1121 65.2543 103.729 65.2163 104.168 65.0888C104.537 64.9911 105.612 64.4592 106.557 63.9028C109.544 62.1497 110.098 61.9326 111.743 61.8566C114.329 61.7399 116.136 62.5649 117.727 64.5813C118.321 65.3303 118.565 65.8161 118.628 66.386L118.717 67.1622H50.5643L50.5155 67.9763C50.4884 68.4214 50.4314 68.8828 50.3934 68.9967C50.3011 69.2545 49.3947 69.0917 46.1326 68.2287ZM42.7865 63.8133C42.3875 63.7047 41.6005 63.4496 41.036 63.2488C40.021 62.8851 40.0129 62.8716 40.1974 62.3505C40.4146 61.729 40.2463 60.8633 39.9288 60.9664C39.8094 61.0099 39.6872 61.2595 39.652 61.5228L39.595 62.0086H34.824L34.7697 61.151C34.7399 60.6788 34.6747 56.646 34.6313 52.198L34.5472 44.1053H36.7916C38.3737 44.1053 39.082 44.1731 39.2042 44.3332C39.3073 44.4662 39.329 47.1719 39.2639 51.2454C39.1797 56.2661 39.2069 58.1142 39.3697 58.6407C39.4918 59.0233 39.5488 59.4467 39.5 59.5797C39.4457 59.7126 39.6194 60.0329 39.8718 60.2907L40.3413 60.7548L59.4739 60.7358C72.8451 60.7113 78.7613 60.7738 79.1168 60.9095C79.4669 61.0424 84.1103 61.1076 93.9507 61.1157C103.086 61.1157 108.177 61.189 108.006 61.2975C107.854 61.3925 106.839 62.0004 105.742 62.649C104.651 63.2976 103.734 63.8893 103.707 63.9598C103.631 64.1769 43.6142 64.0277 42.7865 63.8133ZM38.4144 59.7154C38.637 59.4955 38.5366 58.9745 38.2489 58.8632C37.6057 58.6162 35.0981 58.9663 35.0981 59.3056C35.0981 59.6665 38.0915 60.0383 38.4144 59.7154ZM75.3065 59.4603L74.8995 59.3056V43.9099L76.5712 44.0347C77.4939 44.0999 78.3026 44.2491 78.3786 44.3577C78.4519 44.4662 78.5116 47.8124 78.517 51.7909C78.517 55.7694 78.5659 59.1862 78.6201 59.3897C78.7097 59.7344 78.6446 59.7452 77.2144 59.6828C76.3894 59.6448 75.5291 59.5444 75.3065 59.4603ZM40.6751 59.3354C40.6045 59.2621 40.5312 55.9078 40.515 51.8805L40.4851 44.5558L73.8139 44.4662V59.5688L57.3083 59.5172C48.2304 59.4928 40.7484 59.4087 40.6751 59.3408V59.3354ZM72.8369 57.9541C72.9021 57.7885 72.8966 57.5986 72.8315 57.528C72.7637 57.4656 69.5613 57.3923 65.7104 57.3733C61.8567 57.3516 56.1006 57.281 52.9118 57.2186C47.3919 57.1046 45.56 57.1752 45.8965 57.4981C46.3307 57.9215 49.4652 58.0572 60.7386 58.1576C71.8518 58.2553 72.7284 58.2417 72.8369 57.9595V57.9541ZM43.967 57.9324C44.1597 57.6963 44.1542 57.6013 43.9181 57.3652C43.6956 57.1453 43.4378 57.1073 42.8027 57.205C41.8556 57.3462 41.7525 57.5416 42.4716 57.8157C43.4758 58.2037 43.7282 58.2227 43.967 57.9324ZM72.7881 50.8546C73.0378 50.6077 72.8885 50.4476 72.3186 50.3607C71.1815 50.1897 66.8909 50.0975 67.0483 50.2494C67.4744 50.6619 72.457 51.1884 72.7881 50.8546ZM73.3146 48.8627C73.8302 48.7297 73.6782 48.3172 73.0649 48.1951C72.7555 48.1354 71.8735 48.0811 71.1082 48.0811C70.3402 48.0811 68.8639 48.0051 67.8299 47.9101C64.9233 47.6496 62.7767 47.5682 62.7767 47.7174C62.7767 48.2113 71.9794 49.2128 73.3146 48.8627ZM250.969 58.8334C250.795 58.7818 250.743 57.1915 250.743 51.6959C250.743 43.899 250.638 44.5884 251.783 44.9167L252.19 45.0334L252.22 51.5765C252.236 55.1751 252.258 58.3394 252.269 58.6054C252.293 59.0478 252.247 59.0803 251.745 58.9962C251.444 58.9446 251.094 58.8713 250.969 58.8334ZM253.278 52.046V45.1583L254.046 45.2804C256.073 45.5979 263.452 47.2561 266.031 47.9752C269.23 48.8654 272.59 49.9943 272.975 50.3119C273.165 50.4693 273.195 50.8356 273.103 51.9157C273.04 52.6892 272.94 53.4409 272.883 53.5902C272.758 53.9131 267.2 56.1304 264.305 57.0042C261.189 57.9514 260.237 58.125 254.907 58.7302C254.158 58.8198 253.487 58.8985 253.411 58.9093C253.338 58.9283 253.278 55.8318 253.278 52.046ZM260.112 54.019C260.427 53.7042 260.038 53.327 259.401 53.327C258.817 53.327 258.494 53.8073 258.904 54.0678C259.262 54.2931 259.859 54.2687 260.112 54.019ZM262.223 51.3486C262.28 51.259 262.234 51.126 262.123 51.0555C261.572 50.7189 255.447 50.2657 255.447 50.567C255.447 50.6674 255.751 50.7976 256.128 50.8628C256.5 50.9225 257.376 51.0935 258.071 51.24C259.496 51.5385 262.066 51.6091 262.223 51.3486ZM271.271 50.9849C271.418 50.7434 271.005 50.5588 268.926 49.9184C263.257 48.1761 257.276 47.1936 255.449 47.7011C254.765 47.8911 255.159 48.0132 257.528 48.3443C260.736 48.7867 264.011 49.4434 267.542 50.3526C270.897 51.2156 271.106 51.2509 271.271 50.9849ZM32.4277 51.6335L32.3788 45.9154H33.288V57.6555L32.8809 57.5063L32.4738 57.3543L32.4277 51.6335ZM21.5451 55.6771L12.3913 55.5849L12.4483 55.1371C12.4809 54.8874 12.4917 53.2401 12.4809 51.4734L12.4537 48.2656H31.296V52.2658C31.296 55.9621 31.2743 56.2471 31.0002 56.0164C30.756 55.8183 28.9377 55.7504 21.5451 55.6771ZM28.9458 54.4858C29.0951 54.4288 29.342 54.3419 29.4913 54.2958C29.7138 54.2198 29.7003 54.1601 29.4099 53.9511C29.1629 53.7666 28.5414 53.6879 27.3284 53.6879C26.3785 53.6879 23.9686 53.5658 21.9793 53.4219C17.7864 53.1098 15.4933 53.0718 15.6425 53.3161C15.846 53.6472 17.6698 54.0298 19.9033 54.2117C22.761 54.4478 28.5876 54.6269 28.9458 54.4912V54.4858ZM30.2919 53.1017C30.3489 52.6811 30.414 51.6037 30.4411 50.7108C30.4764 49.3403 30.4384 49.0798 30.1915 49.0282C29.7953 48.9495 29.6677 49.6687 29.6677 51.9944C29.6677 53.5061 29.722 53.8697 29.9309 53.8697C30.0992 53.8697 30.2295 53.6011 30.2919 53.1017ZM274.3 52.274L274.243 51.3377H276.197C278.799 51.3377 278.902 51.3757 278.938 52.255C278.951 52.6458 278.902 52.9742 278.829 52.9877C278.525 53.0366 274.701 53.2591 274.536 53.232C274.435 53.213 274.33 52.7869 274.3 52.2686V52.274ZM279.689 52.7082C279.689 52.3527 280.096 51.6986 280.316 51.6986C280.699 51.6986 280.666 52.3635 280.278 52.5888C279.942 52.7869 279.689 52.8357 279.689 52.7082ZM189.921 50.5235C189.945 50.3254 190.018 49.8587 190.075 49.4869C190.197 48.7433 189.94 48.2656 189.421 48.2656C189.196 48.2656 189.017 48.5723 188.781 49.3484C188.599 49.9455 188.387 50.4313 188.303 50.4313C187.975 50.4313 186.607 49.0255 185.948 48.0105C185.095 46.697 185.055 45.9398 185.72 43.956C187.093 39.8635 189.158 38.0887 192.211 38.3763C195.392 38.6776 197.199 40.3249 197.191 42.922C197.186 45.0443 196.388 47.3402 195.177 48.7161C194.157 49.8804 191.758 51.0175 190.501 50.9306C189.98 50.8926 189.877 50.8194 189.915 50.5235H189.921ZM91.0442 215.01C91.1256 214.155 91.3183 213.64 91.9967 212.502C93.1935 210.489 94.488 208.82 95.1421 208.434C96.0485 207.905 95.8015 207.403 94.6373 207.403C93.815 207.403 91.9506 209.525 91.0876 211.441C90.4525 212.85 90.249 216.087 90.7972 216.087C90.8813 216.087 90.9926 215.599 91.0442 215.01ZM176.568 168.546C176.568 166.277 176.237 165.086 175.241 163.778C174.511 162.82 173.727 162.364 172.739 162.321C171.618 162.269 171.684 162.739 172.845 163.108C174.112 163.507 174.834 164.413 175.431 166.345C175.695 167.192 175.958 168.457 176.015 169.141C176.077 169.9 176.208 170.422 176.346 170.468C176.517 170.525 176.568 170.063 176.568 168.546ZM112.163 152.543C112.163 152.407 112.03 151.937 111.865 151.501C111.469 150.458 111.496 145.915 111.911 144.092C112.182 142.898 112.712 142.149 113.458 141.902C113.591 141.855 113.629 141.695 113.553 141.5C113.45 141.237 113.298 141.191 112.782 141.275C111.987 141.405 111.694 141.636 111.268 142.477C110.72 143.546 110.483 145.207 110.578 147.318C110.649 148.909 110.777 149.587 111.273 151.026C111.827 152.627 112.163 153.202 112.163 152.543ZM115.778 152.239C115.634 151.97 115.634 151.232 115.775 149.544C116.05 146.323 116.514 144.887 117.887 143.001C118.565 142.07 118.647 141.674 118.196 141.5C117.477 141.226 115.794 143.598 115.132 145.826C114.47 148.051 114.861 152.608 115.713 152.608C115.925 152.608 115.938 152.535 115.778 152.239ZM148.168 126.921C149.381 125.624 149.91 124.647 150.176 123.222C150.429 121.882 150.279 119.027 149.894 117.77C149.539 116.603 149.004 115.9 148.705 116.196C148.54 116.356 148.559 116.706 148.781 117.681C149.232 119.67 149.164 122.194 148.605 124.126C148.095 125.876 147.631 126.91 147.186 127.279C146.893 127.524 146.789 128.028 147.039 128.001C147.11 128.001 147.62 127.507 148.168 126.921ZM171.613 100.884C173.439 100.521 174.989 99.3295 175.22 98.1164C175.532 96.4663 174.861 95.758 174.324 97.1692C173.974 98.0784 173.233 98.7921 172.12 99.2887C171.418 99.6008 168.584 100.019 167.111 100.03C166.218 100.03 166.326 100.35 167.358 100.743C168.218 101.072 170.31 101.14 171.613 100.884ZM52.7816 73.2738C53.2755 73.1788 53.6527 72.5817 53.3406 72.389C53.2239 72.3158 51.7802 72.2479 50.1301 72.2316C46.8355 72.2045 45.7744 72.0037 43.9181 71.062C43.237 70.7146 42.876 70.6115 42.876 70.7607C42.876 71.0647 46.2765 72.8341 47.4624 73.1489C48.3336 73.3796 51.7991 73.461 52.7816 73.2738ZM235.939 64.2068C236.922 64.0901 237.34 63.9218 237.142 63.7237C236.995 63.5772 215.645 63.4632 215.645 63.6097C215.645 64.0602 232.881 64.565 235.939 64.2068ZM291.793 58.8008C293.009 57.4194 293.275 56.8061 293.389 55.1371C293.568 52.5725 292.835 49.2697 291.872 48.3118C291.237 47.6713 291.05 47.9671 291.476 48.9495C292.865 52.141 292.458 58.1576 290.784 59.1672C290.515 59.3327 290.458 59.8375 290.713 59.8375C290.803 59.8375 291.291 59.3707 291.793 58.8008ZM246.689 58.1847C246.76 58.0681 246.681 57.8754 246.513 57.7505C246.043 57.4032 237.326 57.262 223.518 57.3733C211.732 57.4683 208.771 57.5606 208.771 57.8265C208.771 57.8971 209.77 58.0545 210.991 58.1766C214.063 58.4806 246.502 58.4833 246.689 58.1766V58.1847ZM183.266 58.0843C183.969 57.9486 184.067 57.7261 183.57 57.4004C183.147 57.1263 181.315 57.1101 159.895 57.2023C136.498 57.3055 132.428 57.376 132.428 57.6691C132.428 57.7587 133.63 57.8727 135.095 57.9242C138.596 58.0545 182.675 58.1983 183.266 58.0843ZM127.635 58.0843C128.254 57.9921 128.669 57.7125 128.525 57.4764C128.368 57.224 125.955 57.2946 124.56 57.5904C123.86 57.7397 123.027 57.8591 122.704 57.8591C122.381 57.8591 122.118 57.9405 122.118 58.0382C122.118 58.2173 126.482 58.2553 127.635 58.0843ZM118.861 57.9541C118.861 57.8102 118.701 57.604 118.511 57.5036C118.131 57.3 88.352 57.2295 87.6057 57.4303C87.3805 57.4873 87.1986 57.6447 87.1986 57.7695C87.1986 57.8944 87.3805 58.0463 87.6057 58.106C87.831 58.163 94.9521 58.2146 103.436 58.2173C116.864 58.2173 118.861 58.1847 118.861 57.9541ZM200.182 57.6935C200.925 57.604 201.083 57.5253 201.083 57.224C201.083 56.9011 200.963 56.8631 199.908 56.8685C198.521 56.8685 195.848 57.3136 196.054 57.4981C196.263 57.6854 199.104 57.8184 200.182 57.6935ZM3.55774 57.6311C2.96069 56.304 1.72318 53.042 1.48434 52.1736C1.06912 50.6565 1.08542 47.4542 1.51419 46.0321C1.85614 44.895 1.80457 44.2193 1.3595 44.0483C0.659332 43.7796 -0.00012207 46.0945 -0.00012207 48.8247C-0.00012207 50.9333 0.358093 52.6811 1.15326 54.4831C1.65262 55.6012 3.21036 57.8564 3.49258 57.8564C3.58487 57.8564 3.612 57.7587 3.55502 57.6311H3.55774ZM83.7032 57.0314C83.8443 56.6623 83.3151 56.2063 82.9216 56.3529C82.7778 56.4099 82.6828 56.627 82.7126 56.8414C82.7805 57.3326 83.5322 57.471 83.7032 57.0314ZM286.382 56.1955C287.41 55.7314 287.79 55.3949 288.186 54.5997C288.642 53.6906 288.754 52.6729 288.542 51.3648C288.328 50.0079 287.817 48.9332 287.204 48.5316C286.507 48.0756 286.333 48.3823 286.843 49.1558C287.421 50.0296 287.741 51.5548 287.576 52.6539C287.451 53.4898 286.653 54.8793 285.728 55.878C284.981 56.6813 285.139 56.7545 286.382 56.1955ZM8.14142 56.2443C8.14142 56.1521 7.71536 55.2484 7.19427 54.228C6.30414 52.4775 6.25259 52.3038 6.25259 51.0039C6.25259 50.0649 6.38556 49.1802 6.68137 48.2195C6.99347 47.2045 7.05859 46.754 6.91748 46.6129C6.2933 45.9914 5.27832 47.8884 5.11819 49.9699C4.99335 51.6389 5.45743 53.308 6.49411 54.9118C7.25128 56.0815 8.14142 56.8034 8.14142 56.2443ZM29.2009 44.1731C29.0652 43.4838 29.5293 41.7931 30.1589 40.6777C30.414 40.2299 31.1196 39.3968 31.7248 38.8241C32.5444 38.0507 32.7723 37.7386 32.6176 37.5812C32.2269 37.1931 30.8021 38.0832 29.9364 39.2556C28.8427 40.7374 28.5496 41.728 28.7585 43.1907C28.8508 43.8258 29.0136 44.4337 29.1222 44.5422C29.2579 44.6779 29.2796 44.5721 29.2009 44.1731ZM160.975 42.2599C161.346 41.6438 161.903 40.0047 162.31 38.3275C162.473 37.6436 162.549 36.0479 162.546 33.2607C162.541 29.7816 162.481 28.8996 162.131 27.1654C160.779 20.3998 157.145 14.1932 152.51 10.7086C151.091 9.6448 149.34 8.80351 146.548 7.84823C143.362 6.75998 143.424 6.79797 144.298 6.35018C146.285 5.33792 151.33 5.03397 154.328 5.745C156.196 6.19007 158.66 7.07207 159.338 7.54156C160.18 8.12233 160.288 8.16032 160.288 7.88622C160.288 7.49543 157.786 5.84812 156.255 5.23479C154.057 4.35822 152.695 4.11668 149.704 4.08412L146.993 4.05427L145.937 2.94159C144.74 1.67693 143.093 0.721657 141.294 0.257588C139.652 -0.168486 136.971 -0.0490772 135.931 0.490979C134.544 1.21286 133.524 2.85203 133.516 4.37179C133.513 5.13709 133.467 5.23479 133.106 5.25107C130.129 5.40034 127.274 6.23892 124.031 7.91336C119.36 10.3287 115.71 13.5636 113.138 17.5665C108.698 24.4841 107.756 33.4833 110.73 40.5583C111.357 42.0509 111.49 42.1866 112.228 42.0916L112.682 42.0319L112.142 40.77C110.891 37.8471 110.625 36.2405 110.638 31.7247C110.649 28.6553 110.684 28.3487 111.23 26.3024C112.142 22.883 113.078 20.7526 114.847 18.0713C118.145 13.0751 124.937 8.3313 130.517 7.12906C133.261 6.53744 137.31 6.36647 139.733 6.73555C141.587 7.02051 142.396 7.41401 141.837 7.76139C141.269 8.11147 142.008 8.36929 143.956 8.50227C150.138 8.92834 155.118 12.801 158.478 19.7919C160.15 23.2602 160.899 26.145 161.214 30.3379C161.496 34.064 161.262 36.7806 160.429 39.4646L160.055 40.6885L159.222 40.5746C156.038 40.1376 150.646 38.0235 147.118 35.828C145.291 34.6964 143.451 33.3232 141.514 31.6487C139.991 30.3325 139.451 30.0665 139.345 30.5794C139.131 31.608 145.346 36.3952 149.739 38.5935C152.82 40.1349 157.379 41.7605 158.608 41.7605C158.874 41.7605 159.265 41.9831 159.563 42.306C160.212 42.998 160.538 42.9899 160.975 42.2599ZM142.871 7.46558C142.993 7.41401 143.237 7.4113 143.416 7.46558C143.59 7.509 143.492 7.55242 143.191 7.55242C142.895 7.55242 142.751 7.52257 142.871 7.471V7.46558ZM140.265 5.745C139.386 5.53331 137.815 5.30807 136.77 5.24836C135 5.14795 134.867 5.11538 134.813 4.74901C134.734 4.17096 135.595 2.60778 136.271 2.10301C136.593 1.86147 137.139 1.57381 137.475 1.45982C138.36 1.16401 140.523 1.20472 141.666 1.54395C142.757 1.86147 145.074 3.01486 146 3.69604C146.646 4.17368 146.662 4.16282 145.186 4.50477C143.972 4.78972 142.656 5.36777 142.271 5.79113C142.1 5.9811 141.94 6.1385 141.913 6.1385C141.885 6.1385 141.145 5.95939 140.265 5.745ZM225.716 38.3004C226.463 38.1321 227.027 37.7033 226.799 37.4753C226.653 37.3315 223.412 37.744 222.669 38.0045C222.27 38.1457 222.191 38.2325 222.37 38.3465C222.685 38.5473 224.747 38.5175 225.716 38.3004ZM153.365 28.2374C153.585 28.2021 153.943 27.9552 154.152 27.6892C154.502 27.2496 154.529 27.0433 154.453 25.396C154.347 23.1951 153.867 21.7839 152.95 20.9778C152.038 20.1773 151.541 20.1067 150.809 20.6685C149.425 21.7214 149.009 24.0146 149.88 25.7732C150.716 27.4477 152.109 28.4301 153.365 28.2374ZM146.358 20.3238C146.358 19.8869 147.533 18.1636 148.103 17.7592C149.473 16.7931 150.206 16.5434 151.739 16.5244C152.562 16.5054 153.278 16.4566 153.338 16.3969C153.577 16.158 152.999 15.542 152.372 15.3683C150.781 14.926 148.591 15.4524 147.099 16.6303C145.715 17.7212 145.359 18.6765 145.831 20.0334C146.04 20.6305 146.358 20.8069 146.358 20.3238Z" fill="#4E6A03"/>
</svg>
