<svg width="199" height="312" viewBox="0 0 199 312" fill="none" xmlns="http://www.w3.org/2000/svg">
<path d="M10.2326 310.894C6.80804 310.075 1.46264 306.628 0.32364 304.515C-0.28909 303.372 -0.488321 303.722 4.03761 298.117C11.4204 288.96 17.4838 280.54 27.4303 265.62C34.6966 254.734 35.1515 254.005 37.4408 249.727C39.0797 246.656 39.2 246.317 40.0082 242.419C40.4743 240.167 41.6885 233.371 42.7035 227.304C44.5492 216.275 46.0077 208.429 48.124 198.194C48.7443 195.198 49.6427 189.818 50.1276 186.243C50.6088 182.661 51.1689 178.955 51.3681 178.007C51.6726 176.564 51.6839 175.613 51.4583 172.252C50.996 165.388 51.5636 151.442 52.7477 140.965C53.898 130.744 55.6196 121.023 59.6381 102.074C60.0478 100.164 60.6117 96.9278 60.8974 94.8828C61.1868 92.8454 61.4688 91.0223 61.5327 90.8418C61.5966 90.6614 61.2771 90.8305 60.826 91.2177C50.8419 99.6869 47.8534 102.393 40.2187 109.874C36.9483 113.081 31.3135 118.542 27.7047 122.016C24.0923 125.485 21.1527 128.496 21.1715 128.703C21.2655 129.658 27.0281 145.39 31.5578 157.073C33.8358 162.941 38.8241 175.331 38.9669 175.466C39.0045 175.511 39.3616 175.353 39.7639 175.12C41.5006 174.128 43.3726 175.816 45.722 180.481C46.455 181.924 46.534 182.308 46.534 184.195C46.5302 189.029 44.8198 191.72 42.0531 191.254C39.0196 190.739 37.1137 186.262 37.452 180.421L37.6024 177.752L36.595 175.462C33.1329 167.606 25.111 146.442 21.9308 136.755C19.1416 128.263 19.213 128.519 19.4461 128.143C19.5626 127.97 22.6601 124.929 26.344 121.392C30.0241 117.847 35.4259 112.614 38.358 109.75C45.3837 102.886 49.3082 99.2734 53.9694 95.3903C61.9349 88.7518 61.886 88.8119 63.1303 84.4514C63.6716 82.5568 64.5023 79.9255 64.9797 78.6098C65.4609 77.2866 65.7729 76.1551 65.6752 76.1025C65.5774 76.0423 64.5437 75.689 63.3897 75.3168C57.1721 73.2907 49.778 68.5655 45.9325 64.1561C42.4554 60.1678 40.6585 56.7094 39.4105 51.5745C38.7264 48.7477 38.8091 39.6019 39.5496 35.8653C41.4028 26.5917 46.3686 18.1037 52.7327 13.3222C54.725 11.8336 57.0669 10.7246 61.48 9.20222L65.397 7.84519L67.3104 6.01452C69.6034 3.82298 70.9679 2.8569 73.3625 1.72917C76.5765 0.210509 77.7944 0 83.3353 0C87.6883 0 88.5679 0.0751811 90.5753 0.578898C93.0149 1.19163 94.1727 1.82691 94.8118 2.90201C95.3268 3.77411 95.0749 3.99214 94.0637 3.52977C91.0903 2.16523 86.8688 1.34575 82.7978 1.34575C77.9711 1.34575 75.3811 1.92089 72.2084 3.69517C70.8326 4.45826 68.2125 6.52576 68.393 6.69491C68.4343 6.7325 69.4117 6.55207 70.5732 6.29645C71.8588 6.01452 73.6707 5.83033 75.2232 5.82657C77.4975 5.82657 77.8734 5.75515 78.6966 5.2176C80.1175 4.29286 82.467 3.61247 85.2524 3.32678C89.7333 2.86442 94.184 3.63503 99.2136 5.74011C101.022 6.49944 101.713 6.95429 103.138 8.34891C104.871 10.048 105.029 10.3412 103.815 9.66834C103.458 9.46535 102.544 9.08569 101.796 8.82631C101.048 8.56693 99.3715 7.90534 98.0746 7.34899C96.7702 6.79641 94.7103 6.04459 93.4886 5.66869C91.4737 5.05596 90.8835 4.99205 87.2974 4.97326C83.5947 4.95446 80.7303 5.31157 80.7303 5.79274C80.7303 5.88671 81.6324 6.10474 82.7301 6.27766C85.3652 6.6874 88.4251 7.78505 91.7368 9.49543C100.954 14.2619 107.281 21.3703 110.325 30.3696C111.814 34.7752 112.258 37.3802 112.269 41.7445C112.28 47.4997 111.513 50.958 109.077 56.0967C106.397 61.7466 102.078 67.107 97.5972 70.3361C93.3382 73.3997 87.2523 75.9446 82.155 76.7904C78.3395 77.4257 71.4905 77.3054 67.799 76.5348C67.1375 76.3957 67.1337 76.407 65.6639 80.9367C63.9272 86.2858 63.5287 87.8759 63.7317 88.6653C63.8708 89.2292 73.7083 98.593 79.1214 103.314C83.606 107.228 91.0377 113.103 104.427 123.32C107.262 125.485 107.048 125.437 111.213 124.873C112.645 124.677 117.603 124.004 122.238 123.38C130.82 122.223 138.387 121.012 143.886 119.93C146.146 119.486 147.029 119.204 147.273 118.858C147.837 118.054 148.875 117.712 155.656 116.11C156.325 115.956 156.438 115.727 157.404 112.727C158.239 110.107 158.543 109.449 159.043 109.205C159.374 109.04 159.731 108.592 159.836 108.213C159.994 107.637 159.911 107.416 159.325 106.901C158.945 106.559 158.502 105.972 158.336 105.592C158.182 105.22 157.795 104.811 157.479 104.694C155.532 103.95 154.085 98.4464 154.085 91.7703C154.077 84.8386 155.833 77.5234 159.348 69.8211C161.415 65.2839 163.761 61.3857 165.637 59.3558C166.836 58.0589 167.681 57.4387 169.602 56.435C174.666 53.7999 178.154 53.6195 182.752 55.7809C183.462 56.1117 184.101 56.5778 184.184 56.8072C184.266 57.0402 184.797 57.45 185.372 57.7206C186.729 58.3672 187.841 60.0287 188.296 62.0887C188.789 64.3065 188.713 71.3397 188.161 74.5725C187.928 75.9333 187.428 78.1625 187.048 79.527C186.672 80.8878 186.108 83.0643 185.796 84.3537C184.714 88.8307 182.549 93.7138 179.951 97.5255C175.636 103.863 171.471 107.468 168.05 107.822C167.238 107.908 166.625 108.1 166.546 108.299C166.479 108.483 166.283 108.637 166.114 108.637C165.945 108.637 165.614 108.848 165.381 109.103C164.975 109.555 164.979 109.596 165.494 109.953C166.065 110.355 166.054 110.697 165.298 114.87C165.185 115.498 165.246 115.543 166.385 115.682C168.166 115.907 170.042 116.501 170.779 117.076C171.279 117.475 171.425 117.809 171.425 118.554C171.425 120.366 169.208 121.869 164.576 123.204L162.137 123.903L160.487 128.816C159.581 131.526 158.896 133.891 158.968 134.079C159.348 135.067 156.863 136.018 154.641 135.725C153.401 135.56 151.871 134.909 151.435 134.357C150.439 133.083 150.634 131.729 152.472 127.076C153.085 125.523 153.585 124.207 153.585 124.147C153.585 124.083 152.95 123.843 152.175 123.621C150.39 123.098 148.706 122.253 147.811 121.418C147.116 120.779 147.1 120.772 145.826 121.14C142.597 122.065 132.579 123.674 117.284 125.719C106.288 127.188 103.777 127.294 103.777 126.256C103.777 125.974 102.864 125.106 101.364 123.956C83.2714 110.141 77.9711 105.668 67.1111 95.0971C64.788 92.8379 62.8897 91.0373 62.8897 91.0937C62.8897 92.5146 61.2507 102.051 60.4952 105.044C59.7659 107.927 57.4691 119.742 56.3527 126.35C53.8566 141.172 52.9808 151.104 52.9808 164.651C52.9808 172.978 53.0522 173.944 53.6912 174.165C54.413 174.421 61.6079 184.529 68.4682 194.927C70.5131 198.024 74.9751 204.768 78.3808 209.907C81.7941 215.049 86.3463 222.079 88.5003 225.53C90.6542 228.984 93.4134 233.224 94.6276 234.95C95.838 236.668 96.8379 238.333 96.8379 238.641C96.8379 238.953 97.2289 240.705 97.7063 242.539C99.1009 247.945 100.168 253.501 102.42 267.112C103.593 274.172 104.826 281.344 105.16 283.047C105.747 286.009 107.487 293.49 107.623 293.651C107.66 293.697 108.453 293.347 109.393 292.881C111.649 291.753 115.118 290.404 117.408 289.768C121.223 288.712 125.52 288.596 126.11 289.528C126.978 290.896 125.324 292.588 121.091 294.678C117.159 296.614 115.318 297.038 110.754 297.042C107.288 297.042 107.194 297.027 106.713 296.441C106.446 296.106 106.277 295.633 106.345 295.384C106.405 295.14 106.247 294.505 105.991 293.971C104.77 291.437 103.157 284.103 101.183 272.022C98.7513 257.158 98.2513 254.271 97.3266 249.727C95.2629 239.634 95.3606 239.923 92.8307 236.314C91.6053 234.563 88.692 230.059 86.3576 226.311C84.0307 222.567 80.4183 216.963 78.3395 213.861C76.2532 210.756 73.0279 205.855 71.1597 202.956C63.9422 191.754 53.5409 176.353 53.2589 176.443C53.0296 176.515 52.5673 179.383 51.7403 185.883C51.3117 189.209 50.2028 195.626 49.1352 200.998C47.1279 211.046 45.7596 218.62 43.9364 229.785C43.3012 233.668 42.399 238.739 41.9291 241.058C41.1322 244.994 40.9668 245.494 39.3241 248.858C37.0235 253.576 36.2191 254.895 28.5618 266.473C19.0664 280.837 13.4278 288.738 6.43966 297.478L2.92492 301.876H4.66537C6.84188 301.876 9.31159 302.376 12.7624 303.519C16.0215 304.602 18.4612 305.681 19.213 306.391C20.6302 307.718 19.2355 310.101 16.5666 310.894C14.9389 311.376 12.2474 311.376 10.2326 310.894ZM17.1793 309.034C17.5853 308.842 17.9161 308.519 17.9161 308.312C17.9161 307.447 11.0145 304.605 6.83812 303.752C4.75183 303.324 1.93252 303.226 1.93252 303.587C1.93252 303.921 3.59028 305.301 5.39463 306.474C7.25913 307.677 9.5221 308.673 11.5445 309.184C13.2285 309.613 16.1418 309.53 17.1793 309.034ZM117.971 294.448C120.652 293.542 124.467 291.494 124.467 290.952C124.467 290.434 119.99 290.528 117.9 291.08C115.802 291.644 112.058 293.046 109.769 294.136C108.431 294.772 108.032 295.061 108.277 295.23C108.461 295.354 110.168 295.414 112.077 295.362C115.201 295.268 115.795 295.181 117.971 294.445V294.448ZM44.0229 189.318C44.5003 188.747 45.098 185.608 44.989 184.255C44.8161 182.082 42.1396 177.425 40.5457 176.537C40.0007 176.233 39.8278 176.222 39.497 176.5C39.1699 176.771 39.1023 177.41 39.1023 180.165C39.1023 183.86 39.4744 185.852 40.5006 187.619C41.463 189.269 43.3162 190.164 44.0229 189.318ZM157.675 129.56C158.874 126.049 159.239 125.23 159.569 125.32C159.825 125.384 160.081 125.188 160.257 124.801C160.415 124.463 160.509 124.159 160.472 124.132C160.434 124.102 159.224 124.132 157.78 124.189L155.164 124.294L153.754 127.97C152.983 129.996 152.348 131.801 152.348 131.992C152.348 132.801 154.077 133.857 155.446 133.891L156.19 133.906L157.675 129.56ZM157.551 133.428C157.551 133.169 157.615 132.752 157.694 132.5C157.769 132.252 157.66 132.327 157.453 132.665C157.013 133.387 156.949 133.906 157.303 133.906C157.438 133.906 157.551 133.688 157.551 133.428ZM164.242 121.76C166.591 121.147 169.159 120.069 169.636 119.486C170.091 118.933 169.794 118.418 168.742 117.941C167.805 117.524 165.012 117.028 164.682 117.223C164.584 117.279 164.388 117.738 164.246 118.245C163.9 119.493 163.787 119.629 162.505 120.305C161.535 120.82 161.058 120.896 158.735 120.896C156.397 120.896 156.021 120.839 155.577 120.392C155.089 119.911 155.089 119.854 155.483 118.847C155.705 118.264 155.84 117.746 155.784 117.685C155.491 117.392 148.879 119.129 148.879 119.501C148.879 120.084 151.514 121.542 153.649 122.144C155.596 122.692 161.475 122.482 164.242 121.76ZM161.55 119.035C162.625 118.738 162.851 118.264 163.986 114.039C164.851 110.81 164.843 110.84 164.4 111.013C164.197 111.088 164.001 111.675 163.926 112.449C163.798 113.708 162.246 117.907 161.72 118.422C161.351 118.783 161.674 116.862 162.419 114.332C162.753 113.178 163.088 112.043 163.152 111.821C163.238 111.505 163.016 111.381 162.08 111.242C161.438 111.145 160.599 110.908 160.238 110.72C159.472 110.325 159.607 110.051 158.427 114.332C158.073 115.629 157.626 117.185 157.442 117.798C157.265 118.411 157.16 118.997 157.22 119.103C157.382 119.373 160.502 119.324 161.55 119.035ZM164.242 109.164C164.242 108.814 163.998 108.66 163.272 108.543C162.738 108.457 162.137 108.322 161.93 108.246C161.701 108.16 161.449 108.306 161.272 108.618C161.039 109.066 161.077 109.175 161.565 109.37C161.881 109.494 162.607 109.603 163.189 109.615C164.058 109.622 164.242 109.543 164.242 109.164ZM162.137 106.156C161.505 105.615 160.768 105.164 160.502 105.164C160.047 105.164 160.043 105.213 160.378 105.871C160.596 106.288 161.073 106.679 161.562 106.837C163.186 107.355 163.325 107.186 162.137 106.156ZM170.715 105.51C173.636 103.953 178.541 98.157 181.086 93.2514C182.988 89.5675 182.97 89.6915 181.801 89.2292L180.808 88.842L180.455 89.6878C179.94 90.917 180.015 91.4245 180.756 91.759C181.579 92.1349 181.319 92.4169 180.229 92.3229C179.459 92.2515 179.338 92.3379 178.842 93.3228C177.823 95.3302 175.831 97.9765 174.117 99.5929C173.177 100.476 172.29 101.206 172.136 101.206C171.801 101.206 172.076 100.83 173.933 98.8073C175.925 96.6421 177.684 93.8604 178.812 91.0824C180.124 87.8646 180.353 87.2181 180.804 85.41C181.052 84.4138 181.319 83.8612 181.545 83.8612C181.823 83.8612 181.868 84.1168 181.752 85.0378C181.673 85.6844 181.534 86.5114 181.447 86.876C181.308 87.4624 181.398 87.5977 182.263 88.0376L183.233 88.53L183.759 86.876C184.699 83.9364 185.763 79.5872 186.165 77.046C186.383 75.6852 186.653 74.0951 186.766 73.5087C186.999 72.3359 186.864 72.1743 185.405 71.866L184.635 71.6969L184.33 73.8771C183.966 76.4822 182.891 80.0082 182.849 78.7263C182.838 78.2828 183.049 76.5573 183.319 74.8883C183.594 73.2118 183.804 71.5127 183.793 71.0992C183.782 70.6932 183.853 70.0466 183.951 69.6632C184.086 69.1294 184.003 68.84 183.582 68.3926L183.037 67.8137L183.582 67.4341C184.109 67.0582 184.12 66.9717 183.917 63.9983C183.804 62.318 183.706 60.8632 183.699 60.7617C183.695 60.6564 183.804 60.5474 183.939 60.5211C184.334 60.4347 184.759 62.7352 184.785 65.0884L184.808 67.2536L185.789 67.7536C186.334 68.0318 186.83 68.2535 186.909 68.2535C187.153 68.2535 187.044 64.081 186.763 62.7503C186.469 61.3744 185.676 59.5813 185.357 59.5813C185.248 59.5813 184.86 59.3408 184.492 59.0476C183.845 58.5213 182.267 57.8597 181.661 57.8522C181.47 57.8522 181.579 58.307 181.97 59.1491C182.451 60.1903 182.567 60.8218 182.549 62.3067C182.534 63.3329 182.47 63.9456 182.41 63.6675C182.346 63.3968 181.895 62.224 181.398 61.0699C180.906 59.9084 180.526 58.7205 180.549 58.4236C180.579 57.9499 180.504 57.9086 179.913 58.0815C175.207 59.446 171.632 63.3028 167.456 71.5164C163.569 79.1511 161.479 86.7144 161.111 94.4806C160.866 99.6681 161.72 103.153 163.689 105.002C165.381 106.592 168.29 106.803 170.715 105.51ZM167.708 104.848C167.708 104.653 171.974 102.409 172.098 102.54C172.328 102.766 171.531 103.672 170.681 104.145C169.824 104.634 167.708 105.126 167.708 104.848ZM165.046 103.867C165.106 103.694 165.366 103.525 165.625 103.487C167.73 103.179 168.17 102.89 171.012 99.9877C172.572 98.3938 174.249 96.4616 174.741 95.6985C175.801 94.0446 176.136 93.7701 176.136 94.5783C176.136 95.5144 174.749 97.4014 172.057 100.123C169.035 103.179 167.546 104.175 166.031 104.175C165.272 104.175 164.975 104.085 165.046 103.867ZM171.425 96.3338C172.88 94.2475 176.733 89.59 176.906 89.7028C177.406 90.0073 177.049 90.8005 175.673 92.4282C174.252 94.1085 170.7 97.3789 171.425 96.3338ZM178.47 87.6316C178.658 87.094 179.117 85.2709 179.477 83.583C180.391 79.3315 180.579 78.6587 180.853 78.6587C181.748 78.6587 179.41 88.1879 178.432 88.5037C178.199 88.5789 178.211 88.3721 178.47 87.6316ZM168.745 84.6581C168.79 84.5491 170.005 83.3575 171.448 81.993C172.892 80.6359 175.752 77.9369 177.808 75.9935C181.263 72.7344 182.082 72.0991 182.082 72.6855C182.082 73.4711 176.621 78.7489 171.892 82.5305C169.185 84.6995 168.539 85.1355 168.745 84.6581ZM165.719 83.1921C165.712 82.9478 182.131 66.7649 182.394 66.7649C182.928 66.7649 182.372 67.6333 180.481 69.7496C178.019 72.5126 172.038 78.2414 168.696 81.0382C166.088 83.2297 165.734 83.4853 165.719 83.1921ZM182.169 74.1966C182.252 73.5839 182.394 72.1028 182.485 70.9112C182.571 69.7121 182.744 68.6746 182.861 68.6031C183.218 68.3813 183.097 71.5841 182.68 73.3772C182.225 75.3582 181.958 75.7867 182.169 74.1966ZM160.302 103.232C160.073 102.803 158.6 102.333 158.31 102.6C158.111 102.784 158.784 103.281 159.596 103.559C160.569 103.89 160.637 103.863 160.302 103.232ZM159.78 101.213C159.78 101.085 159.363 100.905 158.855 100.818C158.344 100.732 157.712 100.608 157.461 100.536C157.145 100.45 157.032 100.514 157.107 100.743C157.167 100.927 157.709 101.145 158.31 101.224C158.919 101.307 159.494 101.394 159.596 101.416C159.701 101.431 159.78 101.345 159.78 101.213ZM159.487 99.2847C159.419 98.6983 159.272 98.578 158.419 98.4539C157.87 98.3713 157.133 98.2246 156.776 98.1232C156.182 97.9615 156.134 97.9991 156.243 98.563C156.34 99.0704 156.603 99.2396 157.761 99.5478C159.645 100.044 159.577 100.055 159.487 99.2847ZM159.408 95.0745C160.024 85.1731 163.4 75.1477 169.046 66.4341C171.395 62.8179 174.715 59.0852 175.594 59.0852C175.722 59.0852 176.365 58.7844 177.019 58.416C177.684 58.0476 178.876 57.5101 179.684 57.2169L181.146 56.6906L179.789 56.138C178.778 55.7245 177.899 55.5779 176.354 55.5704C174.038 55.5516 172.392 56.0478 170.437 57.3485C169.824 57.762 169.151 58.0965 168.952 58.1003C168.414 58.1191 167.742 58.7544 166.407 60.4873C165.761 61.3293 165.144 62.0586 165.028 62.0999C164.723 62.2202 162.825 65.5545 161.829 67.7085C160.941 69.6294 160.979 69.9714 162.08 69.9827C162.625 69.9827 163.78 70.7195 163.633 70.9601C163.573 71.0578 162.821 71.0578 161.964 70.9488C161.107 70.8473 160.389 70.7872 160.378 70.8059C159.63 72.1028 157.528 78.4256 156.671 81.9742C155.934 85.0115 155.498 90.7892 155.754 94.1085L155.938 96.5556L157.427 97.112C158.246 97.4164 158.99 97.6833 159.077 97.6984C159.163 97.7172 159.314 96.5293 159.408 95.0633V95.0745ZM160.216 74.0237C159.25 73.7794 160.035 72.9599 161.235 72.9599C162.141 72.9599 163.749 73.4448 163.749 73.7155C163.749 73.8019 163.253 73.8771 162.652 73.8884C162.043 73.8997 161.351 73.9598 161.099 74.02C160.851 74.0839 160.453 74.0839 160.216 74.02V74.0237ZM163.249 68.0468C163.249 67.7461 165.095 64.9305 166.373 63.2615C167.486 61.8255 170.26 59.3333 170.764 59.3333C170.918 59.3333 170.264 60.1039 169.317 61.0474C168.366 61.9909 166.749 63.9945 165.73 65.4981C164.107 67.8776 163.249 68.761 163.249 68.0468ZM83.7225 74.5876C91.5527 72.9599 99.24 68.3889 102.98 63.1299L103.473 62.4307L99.3527 62.4195C94.8494 62.4044 91.8007 61.9157 88.3462 60.6339C86.7072 60.0212 83.2113 57.9499 82.8541 57.371C82.5421 56.8711 82.9707 56.1117 83.5646 56.1117C83.8729 56.1117 85.181 56.6605 86.4629 57.3259C87.7372 57.995 89.6919 58.822 90.7933 59.1716C96.0071 60.7918 104.533 61.0624 105.42 59.6302C106.924 57.2131 108.72 53.1045 109.382 50.5596C109.983 48.2515 110.1 46.9433 110.1 42.2332C110.1 38.1058 110.059 37.7486 109.258 34.6812C108.382 31.3394 107.093 27.945 106.168 26.5842C105.878 26.1481 105.025 25.4226 104.277 24.9753C103.529 24.528 102.871 24.028 102.815 23.8701C102.766 23.7122 102.98 23.389 103.292 23.1521L103.864 22.7199L102.973 21.5169C100.853 18.6337 96.0598 14.5401 92.1654 12.2696C86.726 9.112 82.6324 7.9091 76.3961 7.6422C72.6934 7.48056 67.6149 8.00683 66.3631 8.68347L65.7428 9.02178L66.3631 9.03306C66.6976 9.04434 67.145 9.15335 67.3517 9.28116C68.1223 9.76984 67.1224 10.1157 64.446 10.2961C58.8412 10.6645 53.368 13.4763 49.5863 17.9233C45.4589 22.7687 42.4554 29.2606 41.3051 35.7939C40.6736 39.3763 40.5382 46.6238 41.0532 49.4206C42.5681 57.7018 47.6692 64.3967 56.4203 69.5993C61.3598 72.5314 65.7278 74.0951 71.5656 75.0161C71.904 75.0725 74.1331 75.1326 76.5201 75.1477C80.2266 75.1815 81.2753 75.0951 83.7225 74.5838V74.5876ZM102.54 42.8084C101.807 42.5527 101.548 41.8911 101.552 40.2747C101.563 34.8955 104.646 30.3733 106.333 33.2678C106.89 34.2301 106.995 37.493 106.518 39.241C105.867 41.6205 103.976 43.3121 102.54 42.8084ZM92.545 41.9588C90.7144 40.8987 91.1392 34.8391 93.2104 32.4408C93.9697 31.5612 94.1088 31.4973 94.6388 31.7529C94.9659 31.9108 95.4207 32.0987 95.65 32.1702C96.5635 32.4634 96.962 33.7941 96.962 36.5608C96.962 39.0117 96.9168 39.2448 96.274 40.2259C95.1614 41.9024 93.6502 42.6016 92.545 41.9588ZM86.4328 28.6442C86.4328 27.742 91.8834 23.9077 93.1578 23.9077C94.0487 23.9077 93.5976 24.4002 91.3271 25.9151C90.0641 26.7496 88.6281 27.7608 88.1319 28.1517C87.2485 28.8434 86.4328 29.084 86.4328 28.6442ZM186.996 69.37C186.95 69.3324 186.439 69.2234 185.86 69.1256C184.823 68.9565 184.808 68.964 184.808 69.6669C184.808 70.2646 184.988 70.4714 185.86 70.8962L186.913 71.4112L186.996 70.4225C187.037 69.885 187.037 69.4076 186.996 69.37ZM132.162 291.813C131.872 289.558 131.346 288.141 130.192 286.573C129.053 285.021 127.516 284.04 126.253 284.04C125.471 284.04 125.381 283.671 126.061 283.303C128.628 281.931 132.872 285.975 133.203 290.122C133.297 291.223 133.218 291.836 132.921 292.415C132.692 292.851 132.47 293.2 132.421 293.2C132.372 293.2 132.252 292.576 132.162 291.813ZM138.222 289.674C138.222 288.855 136.921 286.242 135.462 284.13C134.523 282.776 134.256 282.205 134.459 282.006C135.064 281.397 137.474 283.979 138.327 286.171C138.951 287.761 139.21 289.283 138.94 289.783C138.609 290.404 138.222 290.343 138.222 289.674ZM159.287 143.499C159.287 143.307 159.859 142.89 160.55 142.563C161.956 141.901 163.005 140.965 164.979 138.601C166.655 136.582 167.29 135.191 167.076 134.03C166.948 133.353 167.005 133.131 167.328 133.007C167.569 132.913 167.915 133.007 168.133 133.229C169.163 134.259 167.144 138.326 164.415 140.713C162.87 142.067 159.287 144.014 159.287 143.499ZM11.8866 135.703C10.8829 131.883 10.8152 131.211 11.1986 129.019C11.4092 127.794 11.9091 126.241 12.4579 125.106C13.4992 122.941 15.3975 120.76 15.8486 121.211C16.0591 121.422 15.8674 121.899 15.0743 123.117C13.5443 125.459 12.8865 127.297 12.4091 130.549C12.0068 133.259 12.0068 133.515 12.4128 135.09C12.8902 136.943 12.9466 137.624 12.6158 137.624C12.4955 137.624 12.1685 136.755 11.8866 135.703ZM193.638 70.3285C193.976 68.8174 193.826 63.8705 193.375 61.9383C192.578 58.5363 190.07 54.2811 189.025 54.5555C188.371 54.7284 188.341 53.8826 188.98 53.2999C190.108 52.2812 191.755 53.3714 193.217 56.123C195.547 60.4873 195.927 64.611 194.439 69.4151C193.89 71.1931 193.277 71.8886 193.638 70.3285ZM196.859 68.5016C196.98 67.8889 197.066 65.7688 197.055 63.7915C197.032 59.8595 196.604 57.3146 195.536 54.7509C194.63 52.5895 194.104 51.9429 193.168 51.8564L192.371 51.7775L192.973 51.2174C193.303 50.9129 193.826 50.6648 194.134 50.6648C195.585 50.6648 197.547 54.1946 198.209 57.9762C198.731 60.9722 197.908 68.4265 196.957 69.3174C196.702 69.5579 196.679 69.4038 196.859 68.5016Z" fill="#4E6A03"/>
</svg>
