<svg width="140" height="244" viewBox="0 0 140 244" fill="none" xmlns="http://www.w3.org/2000/svg">
<path d="M-20.9043 243.478C-20.1189 243.238 -19.6672 242.453 -19.8266 241.6C-20.0274 240.513 -21.5893 238.325 -23.5823 236.318L-25.3421 234.546L-23.9455 233.462C-21.9702 231.942 -20.8217 230.905 -13.762 224.241C-4.49092 215.496 -2.57764 213.426 2.18488 207.01C3.57553 205.138 4.95439 203.34 5.24374 203.018C5.86084 202.342 6.23286 200.733 8.14319 190.553C9.52205 183.186 9.68739 182.247 10.5968 176.153C10.9836 173.59 11.6479 169.619 12.0731 167.327C12.5012 165.033 13.1508 161.242 13.5198 158.898C13.8948 156.556 14.4204 153.604 14.6979 152.337C14.9725 151.071 15.3888 149.163 15.6162 148.103L16.0354 146.172L16.434 146.724C22.602 155.296 26.712 160.173 38.1739 172.533C40.8017 175.37 44.646 179.545 46.7098 181.813C48.7707 184.075 50.6633 186.065 50.9173 186.227C51.2745 186.46 51.4221 186.82 51.5964 187.898C52.0127 190.399 53.9082 196.375 57.6462 206.951C59.7514 212.906 64.136 226.683 65.2757 230.932L65.7097 232.541L65.2225 232.993C63.7226 234.381 64.694 236.394 67.3425 237.401C71.0214 238.801 80.6025 237.23 81.8367 235.021C82.1024 234.537 82.0995 234.431 81.7747 233.829C81.2993 232.949 80.322 232.435 78.3468 232.033C76.1205 231.587 71.6651 231.729 69.6219 232.317C68.8099 232.55 67.9832 232.674 67.6554 232.606C67.1122 232.5 67.0502 232.382 66.4656 230.288C64.3928 222.88 61.2631 213.196 58.1599 204.577C55.3579 196.803 53.8049 192.011 52.8896 188.338C52.3847 186.313 52.1308 185.613 51.8119 185.391C51.2273 184.981 48.9272 182.581 45.1863 178.473C43.4325 176.545 40.2791 173.129 38.1769 170.879C27.8103 159.757 21.2025 151.877 17.2401 145.912L16.313 144.519L16.6289 140.946C17.5737 130.338 18.5481 122.965 20.361 112.728C21.4416 106.646 21.9908 104.033 22.8972 100.747C24.9345 93.3653 31.5454 77.5985 36.3463 68.6876C37.5804 66.3934 39.0892 63.5737 39.7004 62.4222C40.3116 61.2677 40.8519 60.3259 40.905 60.3259C40.9582 60.3318 41.2003 61.1408 41.4395 62.1299C41.6816 63.122 42.3164 65.3305 42.8567 67.0489C43.4 68.7614 44.2415 71.6549 44.7286 73.4737C45.2129 75.2984 46.1252 78.3632 46.7571 80.2942C47.3889 82.2222 48.3869 85.4228 48.9774 87.401C51.369 95.4321 54.3039 103.183 55.3018 104.104C56.2408 104.978 56.8431 105.01 61.1775 104.455C66.5837 103.767 70.0913 103.156 74.7298 102.108C82.5424 100.333 85.6012 99.6661 85.6337 99.7192C85.6603 99.7517 85.864 100.053 86.1032 100.395L86.5284 101.012L85.433 102.828C83.6821 105.731 82.3032 107.47 81.754 107.47C81.0159 107.47 80.6793 107.671 80.3575 108.296C79.9382 109.1 80.1508 110.346 80.8742 111.341C81.6802 112.457 82.4243 112.787 83.8533 112.687C84.8277 112.616 85.0964 112.513 85.4772 112.07C86.3483 111.06 85.7873 110.384 84.7332 111.166C83.3986 112.15 81.9341 111.757 81.4499 110.284C81.258 109.711 81.2757 109.513 81.5444 109.108C82.0611 108.32 82.3446 108.35 83.2421 109.28C84.0718 110.142 85.2647 110.682 85.8463 110.458C86.177 110.334 87.8806 108.353 89.165 106.605C89.8353 105.695 90.1984 105.35 90.414 105.435C91.1875 105.748 93.3665 105.92 94.087 105.722C95.7227 105.285 97.1754 103.764 97.6389 102.013C97.9431 100.874 97.7423 98.4319 97.2256 96.8936C97.0071 96.2558 96.8772 95.6063 96.9333 95.4586C96.9923 95.311 97.3968 94.7146 97.8397 94.127C98.5159 93.2354 98.7048 93.0907 99.006 93.2501C99.5906 93.566 101.592 93.4686 102.759 93.0671C104.194 92.574 106.21 91.3929 108.741 89.5771C114.625 85.352 118.83 80.8611 123.731 73.5741C127.289 68.2772 128.101 66.8009 129.022 63.928C130.212 60.2255 130.265 57.9077 129.19 56.3989C128.821 55.8822 124.815 53.3548 122.594 52.2446C121.274 51.5803 120.4 51.6571 118.393 52.6255C115.021 54.2494 111.115 57.1902 107.273 61.0079C102.649 65.6021 98.6074 71.2209 95.7906 76.9578C93.461 81.6967 93.1156 82.8157 93.0004 85.9602L92.9089 88.5112L93.5171 89.0811L94.1283 89.648L93.5378 90.3654C92.9561 91.0711 92.9355 91.077 92.2918 90.8083C91.5802 90.5131 90.4612 90.6016 89.6168 91.0298C88.1021 91.7886 85.7607 95.6358 85.5894 97.6495L85.5038 98.6415L84.4055 98.6652C83.8002 98.6652 80.762 99.2173 77.6529 99.8728C69.737 101.538 67.4163 101.957 61.9363 102.707C59.2967 103.067 56.9287 103.416 56.6718 103.478C56.2408 103.587 56.1463 103.448 55.2487 101.296C53.7665 97.7587 52.5618 94.3367 51.1387 89.648C50.4242 87.2918 49.2815 83.6513 48.5995 81.5608C47.9174 79.4763 46.9578 76.2728 46.4618 74.454C45.9717 72.6293 45.0534 69.5202 44.4157 67.5361C43.1313 63.5058 41.8824 59.1507 41.8824 58.696C41.8824 58.4628 43.276 55.9206 44.3891 54.1254C44.5161 53.9247 44.7759 54.0132 45.6026 54.5388C48.5493 56.4196 52.9073 58.0937 56.3589 58.6665C58.8686 59.0858 63.5484 59.0887 66.3475 58.6665C72.8727 57.6951 80.6911 53.4936 84.8513 48.7281C87.5913 45.5925 89.0026 42.8702 89.9829 38.837C90.5232 36.6107 90.4583 29.4241 89.8707 26.4833C88.1907 18.0626 83.2156 10.4922 77.3163 7.38013C76.7051 7.0583 76.1028 6.75713 75.9758 6.7158C75.5654 6.58293 76.2298 5.79754 77.1332 5.36056L77.9777 4.95311L78.5593 5.65877C79.268 6.52093 79.5042 6.5475 79.5042 5.78278C79.5042 5.38418 79.6016 5.19522 79.8024 5.19522C80.322 5.19522 81.6507 5.9747 82.5512 6.79847C83.3868 7.56909 85.1584 10.1644 85.1584 10.6191C85.1584 10.7461 85.244 10.8494 85.3503 10.8494C85.4595 10.8494 85.5481 10.4951 85.5481 10.0611C85.5481 8.97157 84.7332 7.4628 83.4842 6.24929C82.4154 5.20408 79.9884 3.83408 79.203 3.83408C78.9196 3.83408 78.2936 3.36462 77.4285 2.50246C75.8991 0.978929 74.6915 0.409081 72.294 0.084296C70.5254 -0.151911 69.0077 0.11087 67.8769 0.840157C67.0029 1.41001 66.2471 2.40503 66.2471 2.99554C66.2471 3.38824 66.2234 3.39414 64.9302 3.1225C63.2945 2.77705 58.2308 2.80953 56.0134 3.18451C53.8669 3.54472 51.3395 4.44231 48.8209 5.7503C41.5546 9.50894 36.6445 15.0155 34.2027 22.1608C33.0276 25.6064 32.6732 27.6614 32.6703 31.1071C32.6673 35.6541 33.2697 38.3616 35.18 42.3919C36.7891 45.7814 38.481 48.1996 41.0852 50.8008L43.3409 53.0625L42.1776 54.9256L41.0084 56.7798L39.5439 57.0101C34.5747 57.7925 26.7179 59.8092 16.4901 62.9359C6.29192 66.0568 3.5224 66.9839 -2.21448 69.2013C-6.83823 70.9817 -7.93953 71.4866 -8.0724 71.8646C-8.21707 72.2868 -7.69447 73.5032 -6.30086 75.9745C-5.5627 77.2796 -4.1868 79.8365 -3.24493 81.6583C-1.51767 84.9917 2.41518 92.196 2.71928 92.5769C2.80492 92.6891 4.05977 95.004 5.50653 97.7174L8.13138 102.657L7.51428 103.067C6.47498 103.752 5.93761 105.119 5.85197 107.29C5.76636 109.466 6.01141 110.845 6.77023 112.454C7.83316 114.695 9.40689 115.454 10.8035 114.391C11.828 113.608 12.2532 112.489 12.2502 110.576C12.2502 107.907 10.9836 103.832 9.73463 102.501C9.43642 102.182 8.28491 100.209 7.18065 98.1189C6.07343 96.0285 4.34322 92.8722 3.32457 91.1065C2.31183 89.3409 0.43103 85.8775 -0.859238 83.4151C-2.14656 80.9467 -3.92993 77.6487 -4.82751 76.072C-5.7251 74.5042 -6.4603 73.1312 -6.4603 73.0249C-6.4603 72.7917 -4.81274 72.0949 0.749924 69.9719C5.57149 68.1295 8.27014 67.229 18.0048 64.2203C26.3311 61.6427 28.4776 61.0404 34.2765 59.6586C39.6472 58.3801 39.9336 58.3181 39.9336 58.4628C39.9336 58.5218 39.5026 59.3426 38.9741 60.2816C33.1752 70.5979 29.8476 77.4449 25.9886 87.0202C22.4248 95.8691 20.919 100.75 19.5785 107.857C18.7636 112.2 17.6623 118.675 17.1397 122.277C16.2333 128.466 14.9282 141.531 14.9843 143.863C15.0138 145.151 14.7274 146.736 13.948 149.55C13.5759 150.885 12.95 153.778 12.5573 155.975C12.1587 158.172 11.4087 162.255 10.8891 165.051C10.3635 167.844 9.5309 172.754 9.02896 175.961C8.53293 179.164 7.96898 182.666 7.77116 183.735C6.32735 191.571 5.50653 195.855 4.91602 198.613L4.23102 201.802L3.01454 203.29C2.34431 204.105 0.741058 206.133 -0.549225 207.793C-4.63559 213.045 -7.13348 215.59 -19.9034 227.545C-25.531 232.816 -27.1431 234.091 -28.1677 234.094C-28.8999 234.094 -29.1332 234.233 -29.4521 234.844C-29.8005 235.506 -29.5554 237.112 -28.8911 238.517C-28.1736 240.029 -25.9946 242.232 -24.4829 242.97C-23.3461 243.525 -21.796 243.746 -20.9043 243.478ZM-24.1049 241.91C-25.2151 241.402 -26.9512 239.745 -27.5772 238.594C-28.2267 237.407 -28.4718 235.842 -28.0614 235.506C-27.9108 235.379 -27.4148 235.219 -26.963 235.145L-26.1333 235.012L-24.5951 236.592C-22.8412 238.393 -21.3738 240.357 -21.1642 241.186C-21.0579 241.614 -21.1051 241.809 -21.3797 242.01C-21.8846 242.373 -23.1778 242.329 -24.1049 241.907V241.91ZM67.7115 236.205C66.1703 235.795 65.4322 234.883 66.1526 234.283C66.3947 234.082 66.5128 234.094 66.8022 234.357C67.2569 234.767 67.2569 234.767 68.742 234.174C70.8442 233.332 72.8048 233.058 75.9965 233.167C79.7463 233.291 81.196 233.805 80.012 234.581C77.7149 236.087 70.7291 237.008 67.7115 236.205ZM7.94241 112.371C6.54584 109.566 6.69937 105.742 8.26424 104.37C8.64217 104.039 9.0762 103.767 9.22383 103.767C9.8793 103.767 11.2109 108.97 10.9895 110.664C10.8418 111.781 10.6411 112.232 9.94131 112.982C9.15887 113.821 8.58017 113.647 7.94241 112.371ZM84.1752 108.896C83.9124 108.719 83.6614 108.547 83.626 108.518C83.5876 108.488 83.9685 107.957 84.4793 107.334C84.9871 106.714 85.4418 106.097 85.495 105.961C85.6308 105.604 85.9378 105.66 85.9378 106.038C85.9378 106.218 86.0855 106.531 86.2656 106.732C86.5786 107.074 86.5667 107.154 86.0235 108.158C85.3975 109.318 85.0225 109.466 84.1752 108.896ZM86.614 105.004C86.3483 104.812 86.3896 104.653 86.9683 103.693L87.6238 102.604L88.1523 103.41C88.7517 104.322 88.7517 104.316 87.8688 105.518L87.2311 106.395L87.0746 105.813C86.989 105.489 86.7823 105.128 86.614 105.004ZM90.225 104.154C89.667 103.862 89.2713 103.277 89.0351 102.374C88.8078 101.538 88.8284 101.402 89.3038 100.422C90.4169 98.1514 92.0733 96.8936 94.2671 96.6485C95.0554 96.557 95.4865 96.4241 95.4865 96.2588C95.4865 96.0078 94.521 95.5856 93.9482 95.5856C93.6884 95.5856 93.6352 95.3287 93.6323 94.0739C93.6293 93.0169 93.526 92.3762 93.2868 91.9392C93.0211 91.4431 93.0093 91.3339 93.2248 91.4195C93.4669 91.5081 94.456 93.7166 94.7956 94.9242C94.8576 95.1486 95.1263 95.4262 95.3861 95.5502C96.4992 96.0551 96.9539 100.289 96.0888 102.078C95.7729 102.731 95.5485 102.976 95.3477 102.902C95.1853 102.84 94.7188 103.062 94.2848 103.404C92.9502 104.461 91.3676 104.75 90.225 104.154ZM86.8207 99.7665C86.6612 98.488 87.0126 97.1209 88.0253 95.1102C89.2447 92.6862 90.2722 91.6882 91.5743 91.6882C92.0969 91.6882 92.1855 91.7738 92.3804 92.5179C92.59 93.2826 92.5073 95.2018 92.2534 95.6151C92.1973 95.7096 91.8076 95.9606 91.3854 96.1732C89.8353 96.9645 88.108 98.9722 87.7714 100.384C87.5795 101.181 87.4909 101.281 87.2104 101.042C87.0687 100.927 86.8945 100.354 86.8207 99.7665ZM95.3093 92.819C94.8635 91.4963 94.8251 91.139 95.079 90.7434C95.2119 90.5337 95.4806 90.6489 96.3427 91.2837C96.9451 91.7266 97.4382 92.1429 97.4382 92.2108C97.4382 92.3702 96.0062 93.9853 95.8467 94.0089C95.7759 94.0089 95.5337 93.4834 95.3093 92.819ZM99.0739 91.6646C98.5365 91.0741 98.5011 89.459 98.9883 88.0122C100.06 84.8412 102.487 80.7223 106.255 75.6881C109.585 71.2416 112.228 68.1709 115.487 64.9673C120.663 59.8771 123.973 57.4589 126.27 57.0928C127.253 56.9363 127.268 57.0514 126.586 59.4076C125.319 63.7774 123.501 67.9051 121.54 70.843C120.049 73.0928 115.605 78.5462 114.179 79.8838C112.313 81.6435 108.614 84.6758 105.327 87.1471C102.995 88.898 101.489 90.3448 101.864 90.4688C102.838 90.7965 107.604 87.4867 113.019 82.733C114.726 81.239 119.069 76.4735 120.764 74.2502C123.424 70.7485 124.51 68.7407 126.252 64.1052C127.563 60.6182 128.042 58.9618 128.042 57.9136C128.042 57.1873 128.296 56.9688 128.508 57.518C128.57 57.6862 128.623 58.5071 128.623 59.3426C128.623 61.1378 127.944 64.052 127.156 65.6021C125.922 68.041 121.398 74.7079 118.765 77.9675C115.505 82.0126 110.291 86.784 106.21 89.459C102.236 92.0661 100.051 92.7423 99.0739 91.6646ZM100.91 91.6646C101.542 91.4195 101.341 90.9855 100.636 91.0711C100.084 91.1361 99.2865 91.4638 99.4193 91.573C99.6437 91.762 100.53 91.8152 100.91 91.6646ZM105.711 83.5952C106.255 82.8777 106.284 82.6238 105.797 82.8245C105.345 83.0076 104.778 83.9052 104.988 84.1119C105.106 84.23 105.369 84.041 105.711 83.5952ZM111.206 77.4007C112.334 76.193 114.788 72.7385 114.788 72.3635C114.788 72.021 114.475 72.275 113.09 73.7778C111.743 75.2335 109.718 78.0295 109.718 78.4252C109.718 78.8563 110.099 78.5905 111.206 77.4007ZM117.734 68.6964C118.08 68.2683 118.487 67.9169 118.641 67.9169C118.815 67.9169 118.877 67.8018 118.806 67.6128C118.741 67.4445 118.827 67.043 118.995 66.7152C119.364 66.0037 119.237 65.797 118.729 66.2901C118.23 66.7684 116.733 69.0065 116.733 69.2692C116.733 69.6796 117.12 69.4582 117.734 68.6964ZM121.965 62.3868C122.689 61.2441 123.099 59.9775 122.863 59.6054C122.541 59.0917 122.305 59.3013 121.77 60.5562C120.749 62.9743 120.87 64.114 121.965 62.3868ZM95.0023 88.8803C94.3586 88.3459 93.7474 87.8351 93.6441 87.7495C93.5289 87.652 93.5467 87.5073 93.6854 87.3686C93.8508 87.2062 93.8537 87.0379 93.6972 86.7515C93.4463 86.282 93.8153 84.4544 94.3173 83.6956C94.4944 83.4269 94.8369 82.7242 95.0849 82.1395C95.5426 81.0294 95.8762 80.5156 95.8762 80.9231C95.8762 81.2183 96.7443 82.0362 97.7305 82.6799C99.2629 83.6808 99.2215 83.5745 98.6074 84.9268C97.6803 86.9729 97.1783 88.8803 97.3112 89.8605L97.4352 90.7345L96.8034 90.2946C96.4549 90.0525 95.643 89.4177 94.9964 88.8803H95.0023ZM97.6301 86.657C97.6301 86.3854 96.4756 85.3726 96.3309 85.5114C96.2571 85.5852 96.449 85.91 96.7561 86.2289C97.3082 86.8076 97.6301 86.9641 97.6301 86.657ZM98.0198 84.7998C98.0198 84.3687 96.4668 82.7212 96.0563 82.7212C95.1292 82.7212 96.0032 84.0528 97.388 84.7496C97.9047 85.0095 98.0198 85.0213 98.0198 84.7998ZM97.6507 81.5372C97.1783 81.0028 96.5878 80.5215 96.3398 80.4595C95.891 80.3473 95.9087 80.2942 97.2403 77.6841C101.876 68.602 109.036 60.3554 116.854 55.0939C117.829 54.4355 119.205 53.6264 119.913 53.2987C121.378 52.6137 120.97 52.5104 124.192 54.3439C126.261 55.5161 126.636 55.8379 125.922 55.8379C125.721 55.8379 125.195 55.9649 124.755 56.1214C123.97 56.3989 123.949 56.396 123.383 55.8291C122.78 55.2267 121.998 55.0584 121.998 55.5309C121.998 55.6814 122.266 56.018 122.594 56.2779L123.191 56.7414L121.767 57.6862C118.425 59.9036 113.577 64.3916 109.762 68.7939C106.423 72.644 101.616 79.2696 99.939 82.3374L99.2865 83.5243L98.8967 83.0135C98.6841 82.733 98.1232 82.0687 97.6507 81.5372ZM55.1247 56.9245C49.6034 55.7759 44.3743 52.9237 41.1235 49.2802C38.419 46.2568 35.8768 41.6478 34.9585 38.1136C34.4596 36.1885 34.3769 35.2053 34.3887 31.3905C34.4005 28.0836 34.4389 27.75 35.0235 25.5444C36.0097 21.8655 37.0165 19.5743 38.9239 16.6837C42.5024 11.2657 49.7894 6.19614 55.9012 4.87634C60.0171 3.98761 65.4026 4.07324 69.1022 5.08892L70.05 5.34875L69.1731 5.37237C68.6889 5.37237 68.1633 5.47571 68.0039 5.5761C67.4015 5.95994 68.184 6.23748 70.2862 6.38216C76.9443 6.83981 82.318 11.0177 85.9378 18.5379C87.6356 22.0663 88.604 25.633 88.793 29.058L88.8993 31.0037L88.1966 29.9881C87.1484 28.4734 85.9703 27.7589 85.0757 28.1043C84.6948 28.2519 84.6712 28.5708 85.0403 28.5708C85.5127 28.5708 87.2458 30.2892 87.5529 31.0628C87.9161 31.9574 88.3501 32.359 88.7871 32.1907C89.0823 32.0755 89.103 32.2468 88.9938 34.0744C88.6483 39.6578 87.1897 43.2393 83.5049 47.5382C82.4715 48.7429 79.5278 51.2024 77.7887 52.3125C76.8823 52.8913 76.652 52.9562 75.8813 52.8499C73.6226 52.5399 69.799 50.3255 67.0295 47.7272C64.2866 45.1466 60.7877 40.7325 60.7877 39.8467C60.7877 39.4363 60.1087 39.0112 59.7012 39.1647C58.7682 39.5219 59.9965 41.7069 63.2915 45.5275C66.6427 49.4161 69.9673 52.0321 73.4455 53.5202L74.6915 54.0516L73.4455 54.6835C71.2074 55.8143 68.1751 56.7119 64.6881 57.2699C64.4224 57.3113 62.6685 57.3585 60.7877 57.3703C57.8765 57.3969 57.0498 57.326 55.1247 56.9274V56.9245ZM84.5029 41.1813C85.4418 40.3575 86.5284 38.025 86.6642 36.5546C86.7705 35.3854 86.487 34.5587 85.6839 33.6817C84.68 32.5834 82.9528 33.5873 81.7954 35.9405C81.2432 37.0595 81.1606 37.4197 81.1724 38.6952C81.1901 40.8654 81.7983 41.8132 83.186 41.8132C83.5758 41.8132 84.0275 41.5947 84.5029 41.1813ZM76.9354 37.6943C78.2434 37.0477 79.1705 35.3529 79.4333 33.1414C79.578 31.922 79.265 30.8236 78.5682 30.0737C77.7119 29.1613 76.5486 29.4773 75.3351 30.9565C73.3539 33.3747 73.0853 36.3952 74.7298 37.6913C75.406 38.2199 75.8695 38.2228 76.9354 37.6913V37.6943ZM82.817 23.8201C82.817 23.0997 82.132 22.4029 80.7443 21.7208C79.699 21.21 79.1735 21.0772 77.8743 21.0122C76.0703 20.9266 75.7101 21.086 75.4178 22.1076C75.2672 22.6391 75.279 22.7188 75.4916 22.5416C75.6363 22.4235 76.4896 22.3084 77.3872 22.2907C79.4894 22.2493 80.8653 22.6863 81.5739 23.6164C82.1763 24.4077 82.817 24.5081 82.817 23.8201ZM68.246 3.9699C67.8976 3.85474 67.6141 3.66283 67.6141 3.54472C67.6141 3.11955 68.2312 2.45817 69.1317 1.92966C69.9585 1.44544 70.2271 1.39229 71.8038 1.4041C73.1413 1.4041 73.8263 1.52811 74.6974 1.8647C75.7662 2.28102 77.1657 3.2849 77.1657 3.63921C77.1657 3.72483 76.8705 3.89313 76.5132 4.01123C75.84 4.23268 75.0369 4.97082 74.6501 5.72078L74.4257 6.15481L71.6533 5.16274C70.1268 4.62242 68.5944 4.08209 68.246 3.9699ZM-32.3899 236.512C-32.3899 236.456 -32.7501 236.061 -33.193 235.641L-34.002 234.874L-33.8662 233.356C-33.7924 232.526 -33.6359 231.514 -33.5178 231.112C-33.0749 229.615 -31.3181 228.21 -30.2345 228.493C-29.6735 228.641 -29.4166 228.198 -29.7709 227.69C-30.0012 227.359 -30.267 227.268 -30.9402 227.268C-32.1212 227.268 -32.9332 227.64 -33.7746 228.573C-34.6781 229.571 -35.0088 230.536 -35 232.151C-34.997 233.657 -34.3031 235.308 -33.3347 236.12C-32.7826 236.586 -32.3899 236.752 -32.3899 236.512ZM58.6264 187.588C58.6324 186.203 58.5261 185.563 58.0418 184.125C57.3362 182.014 56.2732 180.041 55.606 179.604C54.7143 179.023 54.6788 179.563 55.5115 181.013C56.3175 182.433 58.0359 187.104 58.2101 188.359C58.3932 189.72 58.6205 189.301 58.6264 187.588ZM85.303 117.692C85.8611 117.449 85.9349 117.325 85.9349 116.673C85.929 116.268 85.8522 115.814 85.7577 115.666C85.5481 115.33 84.9605 115.521 84.9605 115.923C84.9605 117.125 80.3102 116.599 78.0958 115.146C77.6942 114.884 77.3222 114.671 77.2691 114.671C76.5014 114.671 79.8851 117.092 81.382 117.618C82.5985 118.046 84.4084 118.078 85.303 117.692ZM-11.9639 79.6564C-13.0888 78.378 -13.576 76.1399 -13.2837 73.5889C-12.9825 70.8961 -12.3094 69.4493 -10.6648 67.9612C-9.63432 67.0371 -9.60184 66.6355 -10.5496 66.6828C-11.4029 66.7241 -12.7316 68.0291 -13.4904 69.5733C-14.2699 71.15 -14.6094 73.4885 -14.3024 75.1301C-13.9658 76.9459 -12.4452 79.996 -11.8753 79.996C-11.7543 79.996 -11.7956 79.8454 -11.9639 79.6564ZM136.92 65.484C137.003 65.2685 137.508 64.4122 138.036 63.5796C139.259 61.6634 139.542 60.692 139.542 58.4628C139.542 55.6578 138.665 51.8106 137.877 51.1581C137.452 50.8008 137.505 52.0527 138.013 54.2878C138.807 57.8073 138.452 62.1004 137.168 64.365C136.846 64.9289 136.625 65.4988 136.678 65.6287C136.731 65.7822 136.823 65.7291 136.92 65.484ZM134.345 63.9162C134.65 63.4379 134.989 62.7174 135.101 62.3129C135.411 61.1998 135.166 57.704 134.673 56.2454C133.932 54.0398 132.447 52.1413 131.892 52.6905C131.762 52.8233 131.833 53.0773 132.113 53.4729C133.628 55.5958 134.227 58.3919 133.92 61.8789C133.82 63.0038 133.672 64.1229 133.595 64.365C133.365 65.0795 133.752 64.8463 134.345 63.9162Z" fill="#4E6A03"/>
</svg>
