<svg width="428" height="348" viewBox="0 0 428 348" fill="none" xmlns="http://www.w3.org/2000/svg">
<g filter="url(#filter0_d_2293_6846)">
<path d="M382.286 15.4219H45.4045C28.6125 15.4219 15 29.0344 15 45.8263V302.44C15 319.232 28.6125 332.844 45.4045 332.844H382.286C399.078 332.844 412.69 319.232 412.69 302.44V45.8263C412.69 29.0344 399.078 15.4219 382.286 15.4219Z" fill="white"/>
<path d="M63.5078 197.848L68.0867 185.078H71.3522L75.9311 197.848H74.0156L72.8663 194.564H66.5726L65.405 197.848H63.5078ZM70.0387 186.574H69.3819L67.0834 193.086H72.3373L70.0387 186.574ZM80.9989 197.994C80.1232 197.994 79.3449 197.799 78.6638 197.41C77.9949 197.021 77.472 196.473 77.095 195.768C76.7179 195.063 76.5294 194.229 76.5294 193.269C76.5294 192.32 76.7179 191.493 77.095 190.788C77.472 190.082 77.9949 189.535 78.6638 189.146C79.3449 188.757 80.1232 188.562 80.9989 188.562C81.984 188.562 82.8292 188.775 83.5346 189.201C84.24 189.626 84.7569 190.228 85.0852 191.007L83.5346 191.536C83.34 191.073 83.0177 190.727 82.5678 190.496C82.1299 190.265 81.6252 190.149 81.0536 190.149C80.5793 190.149 80.1354 190.277 79.7219 190.532C79.3206 190.776 78.9983 191.128 78.755 191.59C78.5118 192.053 78.3902 192.612 78.3902 193.269C78.3902 193.925 78.5118 194.491 78.755 194.965C78.9983 195.427 79.3206 195.786 79.7219 196.042C80.1354 196.285 80.5793 196.406 81.0536 196.406C81.6131 196.406 82.1178 196.303 82.5678 196.096C83.0177 195.877 83.3583 195.525 83.5894 195.038L85.1035 195.586C84.763 196.315 84.2339 196.899 83.5164 197.337C82.811 197.775 81.9718 197.994 80.9989 197.994ZM91.2245 197.994C90.3489 197.994 89.5705 197.799 88.8895 197.41C88.2206 197.021 87.6976 196.473 87.3206 195.768C86.9436 195.063 86.7551 194.229 86.7551 193.269C86.7551 192.32 86.9436 191.493 87.3206 190.788C87.6976 190.082 88.2206 189.535 88.8895 189.146C89.5705 188.757 90.3489 188.562 91.2245 188.562C92.2096 188.562 93.0549 188.775 93.7603 189.201C94.4656 189.626 94.9825 190.228 95.3109 191.007L93.7603 191.536C93.5657 191.073 93.2434 190.727 92.7934 190.496C92.3556 190.265 91.8509 190.149 91.2792 190.149C90.8049 190.149 90.361 190.277 89.9475 190.532C89.5462 190.776 89.2239 191.128 88.9807 191.59C88.7374 192.053 88.6158 192.612 88.6158 193.269C88.6158 193.925 88.7374 194.491 88.9807 194.965C89.2239 195.427 89.5462 195.786 89.9475 196.042C90.361 196.285 90.8049 196.406 91.2792 196.406C91.8387 196.406 92.3434 196.303 92.7934 196.096C93.2434 195.877 93.5839 195.525 93.815 195.038L95.3291 195.586C94.9886 196.315 94.4596 196.899 93.742 197.337C93.0366 197.775 92.1975 197.994 91.2245 197.994ZM101.468 197.994C100.593 197.994 99.8144 197.799 99.1333 197.41C98.4644 197.021 97.9354 196.473 97.5462 195.768C97.1692 195.05 96.9807 194.211 96.9807 193.25C96.9807 192.302 97.1631 191.475 97.528 190.769C97.8928 190.064 98.4097 189.523 99.0786 189.146C99.7475 188.757 100.532 188.562 101.432 188.562C102.308 188.562 103.068 188.751 103.712 189.128C104.369 189.505 104.874 190.028 105.226 190.696C105.591 191.365 105.774 192.125 105.774 192.977C105.774 193.123 105.768 193.275 105.755 193.433C105.755 193.591 105.737 193.761 105.701 193.944H98.8597C98.9205 194.759 99.1881 195.379 99.6624 195.804C100.149 196.23 100.739 196.443 101.432 196.443C102.076 196.443 102.624 196.333 103.074 196.115C103.536 195.896 103.876 195.561 104.095 195.111L105.591 195.64C105.239 196.358 104.716 196.929 104.022 197.355C103.341 197.781 102.49 197.994 101.468 197.994ZM103.876 192.466C103.864 191.712 103.615 191.134 103.128 190.733C102.642 190.319 102.046 190.113 101.341 190.113C100.72 190.113 100.179 190.319 99.7171 190.733C99.2549 191.146 98.9752 191.724 98.8779 192.466H103.876ZM109.917 201.496H108.093V188.726H109.771L109.899 190.076C110.203 189.651 110.616 189.298 111.139 189.018C111.675 188.726 112.313 188.58 113.055 188.58C113.87 188.58 114.593 188.781 115.226 189.182C115.858 189.572 116.351 190.125 116.703 190.842C117.068 191.548 117.251 192.375 117.251 193.323C117.251 194.26 117.068 195.081 116.703 195.786C116.351 196.492 115.858 197.039 115.226 197.428C114.606 197.805 113.882 197.994 113.055 197.994C112.35 197.994 111.729 197.848 111.194 197.556C110.659 197.264 110.233 196.917 109.917 196.516V201.496ZM115.39 193.323C115.39 192.314 115.129 191.536 114.606 190.988C114.095 190.429 113.462 190.149 112.708 190.149C112.222 190.149 111.766 190.277 111.34 190.532C110.914 190.776 110.568 191.134 110.3 191.609C110.045 192.071 109.917 192.63 109.917 193.287C109.917 193.944 110.045 194.509 110.3 194.983C110.568 195.446 110.914 195.798 111.34 196.042C111.766 196.285 112.222 196.406 112.708 196.406C113.462 196.406 114.095 196.145 114.606 195.622C115.129 195.087 115.39 194.321 115.39 193.323ZM119.205 188.726C119.473 188.726 119.686 188.641 119.844 188.471C120.014 188.301 120.099 188.082 120.099 187.814V186.482H121.777V188.726H124.058V190.313H121.777V194.728C121.777 195.324 121.911 195.744 122.179 195.987C122.458 196.23 122.848 196.352 123.346 196.352C123.541 196.352 123.778 196.333 124.058 196.297V197.775C123.705 197.848 123.364 197.884 123.036 197.884C122.501 197.884 121.996 197.787 121.522 197.592C121.06 197.385 120.677 197.051 120.373 196.589C120.081 196.127 119.935 195.506 119.935 194.728V190.313H118.64V188.726H119.205ZM131.789 195.02C131.898 195.409 132.075 195.707 132.318 195.914C132.561 196.121 132.829 196.26 133.121 196.333C133.425 196.406 133.704 196.443 133.96 196.443C134.495 196.443 134.921 196.34 135.237 196.133C135.553 195.926 135.711 195.665 135.711 195.348C135.711 194.971 135.504 194.692 135.091 194.509C134.69 194.315 134.215 194.15 133.668 194.017C133.291 193.907 132.908 193.792 132.519 193.67C132.129 193.536 131.771 193.372 131.442 193.177C131.126 192.971 130.871 192.709 130.676 192.393C130.482 192.077 130.384 191.675 130.384 191.189C130.384 190.715 130.53 190.277 130.822 189.876C131.114 189.474 131.521 189.158 132.044 188.927C132.567 188.684 133.175 188.562 133.869 188.562C134.61 188.562 135.267 188.732 135.839 189.073C136.41 189.413 136.824 189.912 137.079 190.569L135.583 191.08C135.45 190.727 135.2 190.471 134.835 190.313C134.483 190.143 134.154 190.058 133.85 190.058C133.352 190.058 132.956 190.167 132.665 190.386C132.373 190.605 132.227 190.867 132.227 191.171C132.227 191.451 132.324 191.676 132.519 191.846C132.713 192.016 132.969 192.156 133.285 192.265C133.601 192.375 133.942 192.478 134.306 192.575C134.793 192.709 135.279 192.873 135.766 193.068C136.252 193.25 136.66 193.518 136.988 193.871C137.316 194.223 137.487 194.71 137.499 195.33C137.499 195.841 137.353 196.303 137.061 196.717C136.769 197.118 136.356 197.434 135.821 197.665C135.298 197.896 134.69 198.012 133.996 198.012C133.449 198.012 132.92 197.939 132.409 197.793C131.911 197.635 131.473 197.379 131.096 197.027C130.719 196.662 130.439 196.175 130.257 195.567L131.789 195.02ZM139.265 188.726C139.532 188.726 139.745 188.641 139.903 188.471C140.074 188.301 140.159 188.082 140.159 187.814V186.482H141.837V188.726H144.117V190.313H141.837V194.728C141.837 195.324 141.971 195.744 142.238 195.987C142.518 196.23 142.907 196.352 143.406 196.352C143.6 196.352 143.838 196.333 144.117 196.297V197.775C143.765 197.848 143.424 197.884 143.096 197.884C142.561 197.884 142.056 197.787 141.582 197.592C141.119 197.385 140.736 197.051 140.432 196.589C140.14 196.127 139.994 195.506 139.994 194.728V190.313H138.699V188.726H139.265ZM149.964 197.994C149.088 197.994 148.303 197.799 147.61 197.41C146.929 197.021 146.388 196.473 145.987 195.768C145.585 195.063 145.385 194.229 145.385 193.269C145.385 192.308 145.585 191.475 145.987 190.769C146.4 190.064 146.96 189.523 147.665 189.146C148.37 188.757 149.155 188.562 150.018 188.562C150.882 188.562 151.666 188.757 152.372 189.146C153.077 189.523 153.636 190.064 154.05 190.769C154.463 191.475 154.67 192.308 154.67 193.269C154.67 194.229 154.457 195.063 154.032 195.768C153.618 196.473 153.053 197.021 152.335 197.41C151.618 197.799 150.827 197.994 149.964 197.994ZM149.964 196.425C150.438 196.425 150.888 196.309 151.313 196.078C151.751 195.847 152.104 195.5 152.372 195.038C152.651 194.564 152.791 193.974 152.791 193.269C152.791 192.563 152.657 191.98 152.39 191.517C152.122 191.055 151.776 190.715 151.35 190.496C150.924 190.265 150.468 190.149 149.982 190.149C149.507 190.149 149.057 190.265 148.632 190.496C148.218 190.715 147.884 191.055 147.628 191.517C147.373 191.98 147.245 192.563 147.245 193.269C147.245 193.974 147.367 194.564 147.61 195.038C147.866 195.5 148.2 195.847 148.614 196.078C149.027 196.309 149.477 196.425 149.964 196.425ZM160.899 197.994C160.024 197.994 159.245 197.799 158.564 197.41C157.895 197.021 157.372 196.473 156.995 195.768C156.618 195.063 156.43 194.229 156.43 193.269C156.43 192.32 156.618 191.493 156.995 190.788C157.372 190.082 157.895 189.535 158.564 189.146C159.245 188.757 160.024 188.562 160.899 188.562C161.884 188.562 162.73 188.775 163.435 189.201C164.141 189.626 164.657 190.228 164.986 191.007L163.435 191.536C163.241 191.073 162.918 190.727 162.468 190.496C162.03 190.265 161.526 190.149 160.954 190.149C160.48 190.149 160.036 190.277 159.622 190.532C159.221 190.776 158.899 191.128 158.656 191.59C158.412 192.053 158.291 192.612 158.291 193.269C158.291 193.925 158.412 194.491 158.656 194.965C158.899 195.427 159.221 195.786 159.622 196.042C160.036 196.285 160.48 196.406 160.954 196.406C161.514 196.406 162.018 196.303 162.468 196.096C162.918 195.877 163.259 195.525 163.49 195.038L165.004 195.586C164.663 196.315 164.134 196.899 163.417 197.337C162.711 197.775 161.872 197.994 160.899 197.994ZM175.862 197.848H173.418L170.061 194.035H169.313V197.848H167.489V184.804H169.313V192.539H170.097L173.345 188.726H175.862L171.593 193.287L175.862 197.848ZM182.4 188.726H184.079L184.188 189.894C184.48 189.529 184.826 189.237 185.228 189.018C185.629 188.787 186.073 188.672 186.56 188.672C186.669 188.672 186.791 188.678 186.924 188.69C187.058 188.702 187.198 188.726 187.344 188.763V190.587C187.101 190.526 186.851 190.496 186.596 190.496C186.207 190.496 185.83 190.605 185.465 190.824C185.1 191.031 184.802 191.347 184.571 191.773C184.34 192.186 184.224 192.715 184.224 193.36V197.848H182.4V188.726ZM192.842 197.994C191.967 197.994 191.188 197.799 190.507 197.41C189.838 197.021 189.309 196.473 188.92 195.768C188.543 195.05 188.355 194.211 188.355 193.25C188.355 192.302 188.537 191.475 188.902 190.769C189.267 190.064 189.784 189.523 190.453 189.146C191.121 188.757 191.906 188.562 192.806 188.562C193.681 188.562 194.442 188.751 195.086 189.128C195.743 189.505 196.248 190.028 196.6 190.696C196.965 191.365 197.148 192.125 197.148 192.977C197.148 193.123 197.142 193.275 197.129 193.433C197.129 193.591 197.111 193.761 197.075 193.944H190.234C190.294 194.759 190.562 195.379 191.036 195.804C191.523 196.23 192.113 196.443 192.806 196.443C193.45 196.443 193.998 196.333 194.448 196.115C194.91 195.896 195.25 195.561 195.469 195.111L196.965 195.64C196.612 196.358 196.09 196.929 195.396 197.355C194.715 197.781 193.864 197.994 192.842 197.994ZM195.25 192.466C195.238 191.712 194.989 191.134 194.502 190.733C194.016 190.319 193.42 190.113 192.715 190.113C192.094 190.113 191.553 190.319 191.091 190.733C190.629 191.146 190.349 191.724 190.252 192.466H195.25ZM206.253 188.726H207.913V201.496H206.071V196.516C205.754 196.942 205.329 197.3 204.794 197.592C204.271 197.872 203.657 198.012 202.951 198.012C202.124 198.012 201.394 197.817 200.762 197.428C200.142 197.039 199.649 196.498 199.284 195.804C198.932 195.099 198.755 194.272 198.755 193.323C198.755 192.387 198.932 191.566 199.284 190.861C199.649 190.143 200.142 189.584 200.762 189.182C201.394 188.781 202.124 188.58 202.951 188.58C203.681 188.58 204.313 188.732 204.848 189.036C205.384 189.328 205.809 189.681 206.125 190.094L206.253 188.726ZM200.616 193.323C200.616 194.333 200.872 195.105 201.382 195.64C201.905 196.163 202.538 196.425 203.28 196.425C203.778 196.425 204.24 196.303 204.666 196.06C205.092 195.817 205.432 195.464 205.688 195.002C205.955 194.527 206.089 193.962 206.089 193.305C206.089 192.648 205.955 192.089 205.688 191.627C205.432 191.153 205.092 190.794 204.666 190.551C204.24 190.295 203.778 190.167 203.28 190.167C202.538 190.167 201.905 190.447 201.382 191.007C200.872 191.554 200.616 192.326 200.616 193.323ZM212.476 193.816C212.476 194.667 212.659 195.312 213.024 195.75C213.401 196.188 213.936 196.406 214.629 196.406C215.322 196.406 215.869 196.181 216.271 195.731C216.684 195.281 216.891 194.613 216.891 193.725V188.726H218.715V197.848H217.037L216.928 196.79C216.295 197.58 215.413 197.975 214.282 197.975C213.224 197.975 212.355 197.647 211.674 196.99C210.993 196.333 210.652 195.354 210.652 194.053V188.726H212.476V193.816ZM225.533 197.994C224.658 197.994 223.879 197.799 223.198 197.41C222.529 197.021 222 196.473 221.611 195.768C221.234 195.05 221.046 194.211 221.046 193.25C221.046 192.302 221.228 191.475 221.593 190.769C221.958 190.064 222.475 189.523 223.143 189.146C223.812 188.757 224.597 188.562 225.497 188.562C226.372 188.562 227.132 188.751 227.777 189.128C228.434 189.505 228.939 190.028 229.291 190.696C229.656 191.365 229.838 192.125 229.838 192.977C229.838 193.123 229.832 193.275 229.82 193.433C229.82 193.591 229.802 193.761 229.765 193.944H222.924C222.985 194.759 223.253 195.379 223.727 195.804C224.214 196.23 224.803 196.443 225.497 196.443C226.141 196.443 226.689 196.333 227.139 196.115C227.601 195.896 227.941 195.561 228.16 195.111L229.656 195.64C229.303 196.358 228.78 196.929 228.087 197.355C227.406 197.781 226.555 197.994 225.533 197.994ZM227.941 192.466C227.929 191.712 227.68 191.134 227.193 190.733C226.707 190.319 226.111 190.113 225.405 190.113C224.785 190.113 224.244 190.319 223.782 190.733C223.32 191.146 223.04 191.724 222.943 192.466H227.941ZM232.979 195.02C233.088 195.409 233.264 195.707 233.508 195.914C233.751 196.121 234.018 196.26 234.31 196.333C234.614 196.406 234.894 196.443 235.15 196.443C235.685 196.443 236.11 196.34 236.427 196.133C236.743 195.926 236.901 195.665 236.901 195.348C236.901 194.971 236.694 194.692 236.281 194.509C235.879 194.315 235.405 194.15 234.858 194.017C234.481 193.907 234.098 193.792 233.708 193.67C233.319 193.536 232.96 193.372 232.632 193.177C232.316 192.971 232.06 192.709 231.866 192.393C231.671 192.077 231.574 191.675 231.574 191.189C231.574 190.715 231.72 190.277 232.012 189.876C232.304 189.474 232.711 189.158 233.234 188.927C233.757 188.684 234.365 188.562 235.058 188.562C235.8 188.562 236.457 188.732 237.029 189.073C237.6 189.413 238.014 189.912 238.269 190.569L236.773 191.08C236.639 190.727 236.39 190.471 236.025 190.313C235.672 190.143 235.344 190.058 235.04 190.058C234.541 190.058 234.146 190.167 233.854 190.386C233.562 190.605 233.416 190.867 233.416 191.171C233.416 191.451 233.514 191.676 233.708 191.846C233.903 192.016 234.158 192.156 234.475 192.265C234.791 192.375 235.131 192.478 235.496 192.575C235.983 192.709 236.469 192.873 236.956 193.068C237.442 193.25 237.849 193.518 238.178 193.871C238.506 194.223 238.676 194.71 238.689 195.33C238.689 195.841 238.543 196.303 238.251 196.717C237.959 197.118 237.545 197.434 237.01 197.665C236.487 197.896 235.879 198.012 235.186 198.012C234.639 198.012 234.11 197.939 233.599 197.793C233.1 197.635 232.662 197.379 232.285 197.027C231.908 196.662 231.629 196.175 231.446 195.567L232.979 195.02ZM240.454 188.726C240.722 188.726 240.935 188.641 241.093 188.471C241.263 188.301 241.348 188.082 241.348 187.814V186.482H243.027V188.726H245.307V190.313H243.027V194.728C243.027 195.324 243.16 195.744 243.428 195.987C243.708 196.23 244.097 196.352 244.596 196.352C244.79 196.352 245.027 196.333 245.307 196.297V197.775C244.954 197.848 244.614 197.884 244.285 197.884C243.75 197.884 243.246 197.787 242.771 197.592C242.309 197.385 241.926 197.051 241.622 196.589C241.33 196.127 241.184 195.506 241.184 194.728V190.313H239.889V188.726H240.454ZM253.038 195.02C253.148 195.409 253.324 195.707 253.567 195.914C253.811 196.121 254.078 196.26 254.37 196.333C254.674 196.406 254.954 196.443 255.209 196.443C255.744 196.443 256.17 196.34 256.486 196.133C256.802 195.926 256.96 195.665 256.96 195.348C256.96 194.971 256.754 194.692 256.34 194.509C255.939 194.315 255.465 194.15 254.917 194.017C254.54 193.907 254.157 193.792 253.768 193.67C253.379 193.536 253.02 193.372 252.692 193.177C252.375 192.971 252.12 192.709 251.925 192.393C251.731 192.077 251.634 191.675 251.634 191.189C251.634 190.715 251.78 190.277 252.071 189.876C252.363 189.474 252.771 189.158 253.294 188.927C253.817 188.684 254.425 188.562 255.118 188.562C255.86 188.562 256.517 188.732 257.088 189.073C257.66 189.413 258.073 189.912 258.329 190.569L256.833 191.08C256.699 190.727 256.45 190.471 256.085 190.313C255.732 190.143 255.404 190.058 255.1 190.058C254.601 190.058 254.206 190.167 253.914 190.386C253.622 190.605 253.476 190.867 253.476 191.171C253.476 191.451 253.573 191.676 253.768 191.846C253.963 192.016 254.218 192.156 254.534 192.265C254.85 192.375 255.191 192.478 255.556 192.575C256.042 192.709 256.529 192.873 257.015 193.068C257.502 193.25 257.909 193.518 258.237 193.871C258.566 194.223 258.736 194.71 258.748 195.33C258.748 195.841 258.602 196.303 258.31 196.717C258.019 197.118 257.605 197.434 257.07 197.665C256.547 197.896 255.939 198.012 255.246 198.012C254.698 198.012 254.169 197.939 253.659 197.793C253.16 197.635 252.722 197.379 252.345 197.027C251.968 196.662 251.688 196.175 251.506 195.567L253.038 195.02ZM262.59 193.816C262.59 194.667 262.773 195.312 263.137 195.75C263.514 196.188 264.05 196.406 264.743 196.406C265.436 196.406 265.983 196.181 266.385 195.731C266.798 195.281 267.005 194.613 267.005 193.725V188.726H268.829V197.848H267.151L267.041 196.79C266.409 197.58 265.527 197.975 264.396 197.975C263.338 197.975 262.469 197.647 261.787 196.99C261.106 196.333 260.766 195.354 260.766 194.053V188.726H262.59V193.816ZM280.883 193.232C280.883 194.181 280.7 195.014 280.335 195.731C279.983 196.437 279.49 196.99 278.858 197.392C278.225 197.793 277.502 197.994 276.687 197.994C275.945 197.994 275.307 197.848 274.771 197.556C274.248 197.264 273.835 196.911 273.531 196.498L273.403 197.848H271.725V184.713H273.549V190.003C273.865 189.602 274.291 189.261 274.826 188.982C275.361 188.702 275.981 188.562 276.687 188.562C277.514 188.562 278.237 188.757 278.858 189.146C279.49 189.535 279.983 190.082 280.335 190.788C280.7 191.481 280.883 192.296 280.883 193.232ZM279.022 193.232C279.022 192.247 278.76 191.487 278.238 190.952C277.727 190.417 277.094 190.149 276.34 190.149C275.854 190.149 275.398 190.277 274.972 190.532C274.546 190.776 274.2 191.128 273.932 191.59C273.677 192.053 273.549 192.612 273.549 193.269C273.549 193.925 273.677 194.491 273.932 194.965C274.2 195.44 274.546 195.804 274.972 196.06C275.398 196.303 275.854 196.425 276.34 196.425C277.094 196.425 277.727 196.145 278.238 195.586C278.76 195.026 279.022 194.242 279.022 193.232ZM289.222 192.74C289.222 191.013 288.523 190.149 287.124 190.149C286.431 190.149 285.884 190.38 285.482 190.842C285.081 191.292 284.88 191.961 284.88 192.849V197.848H283.056V188.726H284.734L284.862 189.748C285.154 189.383 285.525 189.097 285.975 188.89C286.425 188.672 286.917 188.562 287.452 188.562C288.134 188.562 288.736 188.702 289.258 188.982C289.781 189.249 290.195 189.657 290.499 190.204C290.803 189.657 291.235 189.249 291.794 188.982C292.366 188.702 292.974 188.562 293.618 188.562C294.677 188.562 295.54 188.897 296.209 189.565C296.878 190.222 297.212 191.207 297.212 192.521V197.848H295.406V192.74C295.406 191.888 295.218 191.244 294.841 190.806C294.476 190.368 293.953 190.149 293.272 190.149C292.591 190.149 292.044 190.38 291.63 190.842C291.229 191.292 291.028 191.961 291.028 192.849V197.848H289.222V192.74ZM301.111 187.121C300.783 187.121 300.503 187.011 300.272 186.793C300.053 186.574 299.944 186.306 299.944 185.99C299.944 185.649 300.053 185.37 300.272 185.151C300.503 184.932 300.783 184.822 301.111 184.822C301.428 184.822 301.695 184.932 301.914 185.151C302.145 185.37 302.261 185.649 302.261 185.99C302.261 186.306 302.145 186.574 301.914 186.793C301.695 187.011 301.428 187.121 301.111 187.121ZM300.181 188.726H302.005V197.848H300.181V188.726ZM304.928 188.726C305.195 188.726 305.408 188.641 305.566 188.471C305.736 188.301 305.822 188.082 305.822 187.814V186.482H307.5V188.726H309.78V190.313H307.5V194.728C307.5 195.324 307.634 195.744 307.901 195.987C308.181 196.23 308.57 196.352 309.069 196.352C309.263 196.352 309.501 196.333 309.78 196.297V197.775C309.428 197.848 309.087 197.884 308.759 197.884C308.224 197.884 307.719 197.787 307.245 197.592C306.782 197.385 306.399 197.051 306.095 196.589C305.803 196.127 305.657 195.506 305.657 194.728V190.313H304.362V188.726H304.928ZM311.626 188.726C311.894 188.726 312.107 188.641 312.265 188.471C312.435 188.301 312.52 188.082 312.52 187.814V186.482H314.199V188.726H316.479V190.313H314.199V194.728C314.199 195.324 314.332 195.744 314.6 195.987C314.88 196.23 315.269 196.352 315.768 196.352C315.962 196.352 316.199 196.333 316.479 196.297V197.775C316.126 197.848 315.786 197.884 315.457 197.884C314.922 197.884 314.418 197.787 313.943 197.592C313.481 197.385 313.098 197.051 312.794 196.589C312.502 196.127 312.356 195.506 312.356 194.728V190.313H311.061V188.726H311.626ZM322.234 197.994C321.358 197.994 320.58 197.799 319.899 197.41C319.23 197.021 318.701 196.473 318.312 195.768C317.935 195.05 317.746 194.211 317.746 193.25C317.746 192.302 317.929 191.475 318.294 190.769C318.658 190.064 319.175 189.523 319.844 189.146C320.513 188.757 321.298 188.562 322.198 188.562C323.073 188.562 323.833 188.751 324.478 189.128C325.135 189.505 325.639 190.028 325.992 190.696C326.357 191.365 326.539 192.125 326.539 192.977C326.539 193.123 326.533 193.275 326.521 193.433C326.521 193.591 326.503 193.761 326.466 193.944H319.625C319.686 194.759 319.954 195.379 320.428 195.804C320.914 196.23 321.504 196.443 322.198 196.443C322.842 196.443 323.389 196.333 323.839 196.115C324.301 195.896 324.642 195.561 324.861 195.111L326.357 195.64C326.004 196.358 325.481 196.929 324.788 197.355C324.107 197.781 323.256 197.994 322.234 197.994ZM324.642 192.466C324.63 191.712 324.381 191.134 323.894 190.733C323.408 190.319 322.812 190.113 322.106 190.113C321.486 190.113 320.945 190.319 320.483 190.733C320.021 191.146 319.741 191.724 319.644 192.466H324.642ZM335.481 184.713H337.305V197.848H335.645L335.517 196.498C335.201 196.911 334.775 197.264 334.24 197.556C333.717 197.848 333.085 197.994 332.343 197.994C331.516 197.994 330.786 197.793 330.154 197.392C329.533 196.99 329.041 196.437 328.676 195.731C328.323 195.014 328.147 194.181 328.147 193.232C328.147 192.296 328.323 191.481 328.676 190.788C329.041 190.082 329.533 189.535 330.154 189.146C330.786 188.757 331.516 188.562 332.343 188.562C333.036 188.562 333.65 188.714 334.185 189.018C334.733 189.31 335.164 189.657 335.481 190.058V184.713ZM330.008 193.232C330.008 194.242 330.263 195.026 330.774 195.586C331.297 196.145 331.929 196.425 332.671 196.425C333.17 196.425 333.632 196.303 334.058 196.06C334.483 195.804 334.824 195.44 335.079 194.965C335.347 194.491 335.481 193.925 335.481 193.269C335.481 192.612 335.347 192.053 335.079 191.59C334.824 191.128 334.483 190.776 334.058 190.532C333.632 190.277 333.17 190.149 332.671 190.149C331.929 190.149 331.297 190.417 330.774 190.952C330.263 191.487 330.008 192.247 330.008 193.232ZM354.156 193.232C354.156 194.181 353.974 195.014 353.609 195.731C353.256 196.437 352.764 196.99 352.131 197.392C351.499 197.793 350.775 197.994 349.96 197.994C349.219 197.994 348.58 197.848 348.045 197.556C347.522 197.264 347.108 196.911 346.804 196.498L346.677 197.848H344.998V184.713H346.823V190.003C347.139 189.602 347.565 189.261 348.1 188.982C348.635 188.702 349.255 188.562 349.96 188.562C350.787 188.562 351.511 188.757 352.131 189.146C352.764 189.535 353.256 190.082 353.609 190.788C353.974 191.481 354.156 192.296 354.156 193.232ZM352.295 193.232C352.295 192.247 352.034 191.487 351.511 190.952C351 190.417 350.368 190.149 349.614 190.149C349.127 190.149 348.671 190.277 348.246 190.532C347.82 190.776 347.473 191.128 347.206 191.59C346.95 192.053 346.823 192.612 346.823 193.269C346.823 193.925 346.95 194.491 347.206 194.965C347.473 195.44 347.82 195.804 348.246 196.06C348.671 196.303 349.127 196.425 349.614 196.425C350.368 196.425 351 196.145 351.511 195.586C352.034 195.026 352.295 194.242 352.295 193.232ZM362.087 188.726H363.984L358.694 201.496H356.797L358.402 197.647L354.79 188.726H356.797L359.442 195.622L362.087 188.726ZM162.763 219.739H160.373L155.429 214.029H154.718V219.739H152.893V206.969H154.718V212.533H155.429L160.391 206.969H162.69L157.034 213.226L162.763 219.739ZM167.265 219.739H165.422L162.558 210.617H164.419L166.334 217.677L168.359 210.617H170.202L172.154 217.641L174.033 210.617H175.857L173.03 219.739H171.169L169.235 213.135L167.265 219.739ZM182.857 219.739L182.712 218.407C182.444 218.845 182.091 219.204 181.653 219.483C181.228 219.763 180.681 219.903 180.012 219.903C179.063 219.903 178.303 219.666 177.731 219.192C177.16 218.717 176.874 218.073 176.874 217.258C176.874 216.735 176.983 216.303 177.202 215.963C177.433 215.61 177.737 215.33 178.114 215.123C178.491 214.905 178.911 214.74 179.373 214.631C179.835 214.509 180.31 214.418 180.796 214.357C181.465 214.284 181.951 214.199 182.255 214.102C182.56 213.992 182.712 213.767 182.712 213.427C182.712 213.062 182.572 212.74 182.292 212.46C182.012 212.168 181.538 212.022 180.869 212.022C180.358 212.022 179.902 212.162 179.501 212.442C179.112 212.709 178.844 213.092 178.698 213.591L177.148 213.044C177.379 212.253 177.829 211.621 178.497 211.147C179.179 210.672 179.999 210.435 180.96 210.435C182.043 210.435 182.912 210.757 183.569 211.402C184.238 212.034 184.572 213.013 184.572 214.339V219.739H182.857ZM182.712 215.598L180.522 215.871C179.878 215.957 179.422 216.102 179.154 216.309C178.887 216.516 178.753 216.802 178.753 217.167C178.753 217.544 178.893 217.829 179.172 218.024C179.452 218.206 179.841 218.298 180.34 218.298C180.985 218.298 181.538 218.073 182 217.623C182.474 217.173 182.712 216.54 182.712 215.725V215.598ZM196.467 215.123C196.467 216.072 196.284 216.905 195.919 217.623C195.567 218.328 195.074 218.881 194.442 219.283C193.809 219.684 193.086 219.885 192.271 219.885C191.529 219.885 190.89 219.739 190.355 219.447C189.832 219.155 189.419 218.802 189.115 218.389L188.987 219.739H187.309V206.604H189.133V211.894C189.449 211.493 189.875 211.153 190.41 210.873C190.945 210.593 191.565 210.453 192.271 210.453C193.098 210.453 193.821 210.648 194.442 211.037C195.074 211.426 195.567 211.974 195.919 212.679C196.284 213.372 196.467 214.187 196.467 215.123ZM194.606 215.123C194.606 214.138 194.344 213.378 193.821 212.843C193.311 212.308 192.678 212.04 191.924 212.04C191.438 212.04 190.982 212.168 190.556 212.423C190.13 212.667 189.784 213.019 189.516 213.482C189.261 213.944 189.133 214.503 189.133 215.16C189.133 215.817 189.261 216.382 189.516 216.856C189.784 217.331 190.13 217.696 190.556 217.951C190.982 218.194 191.438 218.316 191.924 218.316C192.678 218.316 193.311 218.036 193.821 217.477C194.344 216.917 194.606 216.133 194.606 215.123ZM202.561 219.885C201.685 219.885 200.907 219.69 200.226 219.301C199.557 218.912 199.028 218.365 198.639 217.659C198.262 216.942 198.073 216.102 198.073 215.142C198.073 214.193 198.256 213.366 198.62 212.661C198.985 211.955 199.502 211.414 200.171 211.037C200.84 210.648 201.624 210.453 202.524 210.453C203.4 210.453 204.16 210.642 204.805 211.019C205.461 211.396 205.966 211.919 206.319 212.588C206.684 213.257 206.866 214.017 206.866 214.868C206.866 215.014 206.86 215.166 206.848 215.324C206.848 215.482 206.83 215.652 206.793 215.835H199.952C200.013 216.65 200.28 217.27 200.755 217.696C201.241 218.121 201.831 218.334 202.524 218.334C203.169 218.334 203.716 218.225 204.166 218.006C204.628 217.787 204.969 217.452 205.188 217.002L206.684 217.531C206.331 218.249 205.808 218.821 205.115 219.246C204.434 219.672 203.582 219.885 202.561 219.885ZM204.969 214.357C204.957 213.603 204.707 213.026 204.221 212.624C203.734 212.211 203.138 212.004 202.433 212.004C201.813 212.004 201.272 212.211 200.81 212.624C200.347 213.038 200.068 213.615 199.97 214.357H204.969ZM215.424 214.631C215.424 213.78 215.236 213.135 214.859 212.697C214.494 212.259 213.965 212.04 213.272 212.04C212.578 212.04 212.025 212.265 211.612 212.715C211.21 213.165 211.01 213.834 211.01 214.722V219.739H209.185V210.617H210.864L210.991 211.639C211.295 211.262 211.672 210.97 212.122 210.763C212.585 210.557 213.089 210.453 213.637 210.453C214.695 210.453 215.558 210.788 216.227 211.457C216.908 212.113 217.249 213.098 217.249 214.412V219.739H215.424V214.631ZM225.418 219.739L225.272 218.407C225.004 218.845 224.651 219.204 224.214 219.483C223.788 219.763 223.241 219.903 222.572 219.903C221.623 219.903 220.863 219.666 220.291 219.192C219.72 218.717 219.434 218.073 219.434 217.258C219.434 216.735 219.544 216.303 219.762 215.963C219.994 215.61 220.298 215.33 220.675 215.123C221.052 214.905 221.471 214.74 221.933 214.631C222.395 214.509 222.87 214.418 223.356 214.357C224.025 214.284 224.512 214.199 224.816 214.102C225.12 213.992 225.272 213.767 225.272 213.427C225.272 213.062 225.132 212.74 224.852 212.46C224.572 212.168 224.098 212.022 223.429 212.022C222.918 212.022 222.462 212.162 222.061 212.442C221.672 212.709 221.404 213.092 221.258 213.591L219.708 213.044C219.939 212.253 220.389 211.621 221.058 211.147C221.739 210.672 222.56 210.435 223.52 210.435C224.603 210.435 225.472 210.757 226.129 211.402C226.798 212.034 227.132 213.013 227.132 214.339V219.739H225.418ZM225.272 215.598L223.083 215.871C222.438 215.957 221.982 216.102 221.714 216.309C221.447 216.516 221.313 216.802 221.313 217.167C221.313 217.544 221.453 217.829 221.733 218.024C222.012 218.206 222.402 218.298 222.9 218.298C223.545 218.298 224.098 218.073 224.56 217.623C225.035 217.173 225.272 216.54 225.272 215.725V215.598ZM239.24 206.969C240.614 206.969 241.806 207.23 242.815 207.753C243.825 208.276 244.603 209.018 245.15 209.979C245.697 210.94 245.971 212.083 245.971 213.409C245.971 214.71 245.697 215.835 245.15 216.784C244.603 217.732 243.825 218.462 242.815 218.973C241.806 219.483 240.614 219.739 239.24 219.739H234.843V206.969H239.24ZM239.24 218.243C240.833 218.243 242.037 217.817 242.852 216.966C243.679 216.102 244.092 214.917 244.092 213.409C244.092 211.888 243.679 210.684 242.852 209.797C242.037 208.909 240.833 208.465 239.24 208.465H236.667V218.243H239.24ZM253.655 219.739L253.509 218.407C253.241 218.845 252.889 219.204 252.451 219.483C252.025 219.763 251.478 219.903 250.809 219.903C249.86 219.903 249.1 219.666 248.529 219.192C247.957 218.717 247.671 218.073 247.671 217.258C247.671 216.735 247.781 216.303 248 215.963C248.231 215.61 248.535 215.33 248.912 215.123C249.289 214.905 249.708 214.74 250.171 214.631C250.633 214.509 251.107 214.418 251.593 214.357C252.262 214.284 252.749 214.199 253.053 214.102C253.357 213.992 253.509 213.767 253.509 213.427C253.509 213.062 253.369 212.74 253.089 212.46C252.81 212.168 252.335 212.022 251.666 212.022C251.156 212.022 250.7 212.162 250.298 212.442C249.909 212.709 249.642 213.092 249.496 213.591L247.945 213.044C248.176 212.253 248.626 211.621 249.295 211.147C249.976 210.672 250.797 210.435 251.758 210.435C252.84 210.435 253.71 210.757 254.366 211.402C255.035 212.034 255.37 213.013 255.37 214.339V219.739H253.655ZM253.509 215.598L251.32 215.871C250.675 215.957 250.219 216.102 249.952 216.309C249.684 216.516 249.55 216.802 249.55 217.167C249.55 217.544 249.69 217.829 249.97 218.024C250.25 218.206 250.639 218.298 251.137 218.298C251.782 218.298 252.335 218.073 252.798 217.623C253.272 217.173 253.509 216.54 253.509 215.725V215.598ZM258.753 210.617L261.362 217.878L264.007 210.617H265.922L262.383 219.739H260.322L256.783 210.617H258.753ZM271.22 219.885C270.344 219.885 269.566 219.69 268.885 219.301C268.216 218.912 267.687 218.365 267.298 217.659C266.921 216.942 266.732 216.102 266.732 215.142C266.732 214.193 266.915 213.366 267.28 212.661C267.645 211.955 268.161 211.414 268.83 211.037C269.499 210.648 270.284 210.453 271.184 210.453C272.059 210.453 272.819 210.642 273.464 211.019C274.121 211.396 274.625 211.919 274.978 212.588C275.343 213.257 275.525 214.017 275.525 214.868C275.525 215.014 275.519 215.166 275.507 215.324C275.507 215.482 275.489 215.652 275.452 215.835H268.611C268.672 216.65 268.94 217.27 269.414 217.696C269.901 218.121 270.49 218.334 271.184 218.334C271.828 218.334 272.376 218.225 272.826 218.006C273.288 217.787 273.628 217.452 273.847 217.002L275.343 217.531C274.99 218.249 274.467 218.821 273.774 219.246C273.093 219.672 272.242 219.885 271.22 219.885ZM273.628 214.357C273.616 213.603 273.367 213.026 272.88 212.624C272.394 212.211 271.798 212.004 271.092 212.004C270.472 212.004 269.931 212.211 269.469 212.624C269.007 213.038 268.727 213.615 268.63 214.357H273.628Z" fill="#4D4D4D"/>
<path d="M196.211 237.375H57.5667C50.5141 237.375 44.7969 243.092 44.7969 250.145V278.117C44.7969 285.17 50.5141 290.887 57.5667 290.887H196.211C203.264 290.887 208.981 285.17 208.981 278.117V250.145C208.981 243.092 203.264 237.375 196.211 237.375Z" stroke="#8778F7"/>
<path d="M97.4766 263.558C97.4766 262.597 97.6407 261.721 97.9691 260.931C98.2975 260.128 98.7535 259.441 99.3373 258.869C99.9211 258.286 100.602 257.836 101.38 257.519C102.159 257.191 102.992 257.027 103.88 257.027C105.157 257.027 106.3 257.331 107.309 257.939C108.319 258.535 109.079 259.386 109.59 260.493L108.057 261.058C107.632 260.219 107.036 259.611 106.27 259.234C105.516 258.845 104.731 258.65 103.916 258.65C103.053 258.65 102.274 258.851 101.581 259.252C100.888 259.654 100.341 260.219 99.9393 260.949C99.5501 261.679 99.3556 262.548 99.3556 263.558C99.3556 264.567 99.5501 265.443 99.9393 266.185C100.341 266.914 100.888 267.48 101.581 267.881C102.274 268.283 103.053 268.483 103.916 268.483C104.743 268.483 105.552 268.27 106.343 267.845C107.145 267.419 107.772 266.708 108.221 265.71L109.754 266.258C109.207 267.547 108.416 268.508 107.382 269.14C106.361 269.76 105.193 270.07 103.88 270.07C102.992 270.07 102.159 269.912 101.38 269.596C100.602 269.28 99.9211 268.836 99.3373 268.264C98.7535 267.681 98.2975 266.993 97.9691 266.203C97.6407 265.4 97.4766 264.519 97.4766 263.558ZM117.697 269.961L117.551 268.629C117.283 269.067 116.931 269.426 116.493 269.706C116.067 269.985 115.52 270.125 114.851 270.125C113.902 270.125 113.142 269.888 112.571 269.414C111.999 268.939 111.713 268.295 111.713 267.48C111.713 266.957 111.823 266.525 112.042 266.185C112.273 265.832 112.577 265.552 112.954 265.346C113.331 265.127 113.75 264.962 114.212 264.853C114.675 264.731 115.149 264.64 115.635 264.579C116.304 264.506 116.791 264.421 117.095 264.324C117.399 264.214 117.551 263.989 117.551 263.649C117.551 263.284 117.411 262.962 117.131 262.682C116.852 262.39 116.377 262.244 115.708 262.244C115.198 262.244 114.741 262.384 114.34 262.664C113.951 262.931 113.683 263.314 113.537 263.813L111.987 263.266C112.218 262.475 112.668 261.843 113.337 261.369C114.018 260.894 114.839 260.657 115.8 260.657C116.882 260.657 117.751 260.979 118.408 261.624C119.077 262.256 119.412 263.235 119.412 264.561V269.961H117.697ZM117.551 265.82L115.362 266.093C114.717 266.179 114.261 266.325 113.993 266.531C113.726 266.738 113.592 267.024 113.592 267.389C113.592 267.766 113.732 268.052 114.012 268.246C114.291 268.429 114.681 268.52 115.179 268.52C115.824 268.52 116.377 268.295 116.839 267.845C117.314 267.395 117.551 266.762 117.551 265.948V265.82ZM128.387 264.853C128.387 264.002 128.198 263.357 127.821 262.919C127.457 262.481 126.928 262.263 126.234 262.263C125.541 262.263 124.988 262.488 124.574 262.937C124.173 263.387 123.972 264.056 123.972 264.944V269.961H122.148V260.84H123.826L123.954 261.861C124.258 261.484 124.635 261.192 125.085 260.985C125.547 260.779 126.052 260.675 126.599 260.675C127.657 260.675 128.521 261.01 129.19 261.679C129.871 262.335 130.211 263.321 130.211 264.634V269.961H128.387V264.853ZM136.848 270.107C135.972 270.107 135.194 269.912 134.513 269.523C133.844 269.134 133.321 268.587 132.944 267.881C132.567 267.176 132.378 266.343 132.378 265.382C132.378 264.433 132.567 263.606 132.944 262.901C133.321 262.196 133.844 261.648 134.513 261.259C135.194 260.87 135.972 260.675 136.848 260.675C137.833 260.675 138.678 260.888 139.384 261.314C140.089 261.74 140.606 262.342 140.934 263.12L139.384 263.649C139.189 263.187 138.867 262.84 138.417 262.609C137.979 262.378 137.474 262.263 136.903 262.263C136.428 262.263 135.984 262.39 135.571 262.646C135.17 262.889 134.847 263.242 134.604 263.704C134.361 264.166 134.239 264.725 134.239 265.382C134.239 266.039 134.361 266.604 134.604 267.079C134.847 267.541 135.17 267.899 135.571 268.155C135.984 268.398 136.428 268.52 136.903 268.52C137.462 268.52 137.967 268.416 138.417 268.21C138.867 267.991 139.207 267.638 139.438 267.152L140.953 267.699C140.612 268.429 140.083 269.012 139.365 269.45C138.66 269.888 137.821 270.107 136.848 270.107ZM147.092 270.107C146.216 270.107 145.438 269.912 144.757 269.523C144.088 269.134 143.559 268.587 143.17 267.881C142.793 267.164 142.604 266.325 142.604 265.364C142.604 264.415 142.786 263.588 143.151 262.883C143.516 262.177 144.033 261.636 144.702 261.259C145.371 260.87 146.155 260.675 147.055 260.675C147.931 260.675 148.691 260.864 149.336 261.241C149.992 261.618 150.497 262.141 150.85 262.81C151.215 263.479 151.397 264.239 151.397 265.09C151.397 265.236 151.391 265.388 151.379 265.546C151.379 265.704 151.361 265.875 151.324 266.057H144.483C144.544 266.872 144.811 267.492 145.286 267.918C145.772 268.343 146.362 268.556 147.055 268.556C147.7 268.556 148.247 268.447 148.697 268.228C149.159 268.009 149.5 267.674 149.719 267.224L151.215 267.754C150.862 268.471 150.339 269.043 149.646 269.468C148.965 269.894 148.113 270.107 147.092 270.107ZM149.5 264.579C149.488 263.825 149.238 263.248 148.752 262.846C148.265 262.433 147.669 262.226 146.964 262.226C146.344 262.226 145.803 262.433 145.34 262.846C144.878 263.26 144.599 263.837 144.501 264.579H149.5ZM153.716 256.826H155.541V269.961H153.716V256.826Z" fill="#8778F7"/>
<path d="M371.231 236.766H232.587C225.199 236.766 219.209 242.755 219.209 250.144V278.116C219.209 285.504 225.199 291.494 232.587 291.494H371.231C378.62 291.494 384.609 285.504 384.609 278.116V250.144C384.609 242.755 378.62 236.766 371.231 236.766Z" fill="#8778F7"/>
<path d="M270.834 269.961L275.413 257.191H278.678L283.257 269.961H281.342L280.192 266.678H273.899L272.731 269.961H270.834ZM277.365 258.687H276.708L274.41 265.2H279.663L277.365 258.687ZM288.325 270.107C287.449 270.107 286.671 269.913 285.99 269.523C285.321 269.134 284.798 268.587 284.421 267.882C284.044 267.176 283.856 266.343 283.856 265.382C283.856 264.434 284.044 263.607 284.421 262.901C284.798 262.196 285.321 261.649 285.99 261.26C286.671 260.87 287.449 260.676 288.325 260.676C289.31 260.676 290.155 260.889 290.861 261.314C291.566 261.74 292.083 262.342 292.411 263.12L290.861 263.649C290.666 263.187 290.344 262.841 289.894 262.61C289.456 262.378 288.951 262.263 288.38 262.263C287.905 262.263 287.462 262.391 287.048 262.646C286.647 262.889 286.324 263.242 286.081 263.704C285.838 264.166 285.716 264.726 285.716 265.382C285.716 266.039 285.838 266.605 286.081 267.079C286.324 267.541 286.647 267.9 287.048 268.155C287.462 268.399 287.905 268.52 288.38 268.52C288.939 268.52 289.444 268.417 289.894 268.21C290.344 267.991 290.684 267.638 290.916 267.152L292.43 267.699C292.089 268.429 291.56 269.013 290.843 269.451C290.137 269.888 289.298 270.107 288.325 270.107ZM298.551 270.107C297.675 270.107 296.897 269.913 296.216 269.523C295.547 269.134 295.024 268.587 294.647 267.882C294.27 267.176 294.081 266.343 294.081 265.382C294.081 264.434 294.27 263.607 294.647 262.901C295.024 262.196 295.547 261.649 296.216 261.26C296.897 260.87 297.675 260.676 298.551 260.676C299.536 260.676 300.381 260.889 301.086 261.314C301.792 261.74 302.309 262.342 302.637 263.12L301.086 263.649C300.892 263.187 300.57 262.841 300.12 262.61C299.682 262.378 299.177 262.263 298.605 262.263C298.131 262.263 297.687 262.391 297.274 262.646C296.872 262.889 296.55 263.242 296.307 263.704C296.064 264.166 295.942 264.726 295.942 265.382C295.942 266.039 296.064 266.605 296.307 267.079C296.55 267.541 296.872 267.9 297.274 268.155C297.687 268.399 298.131 268.52 298.605 268.52C299.165 268.52 299.67 268.417 300.12 268.21C300.57 267.991 300.91 267.638 301.141 267.152L302.655 267.699C302.315 268.429 301.786 269.013 301.068 269.451C300.363 269.888 299.524 270.107 298.551 270.107ZM308.795 270.107C307.919 270.107 307.141 269.913 306.46 269.523C305.791 269.134 305.262 268.587 304.872 267.882C304.495 267.164 304.307 266.325 304.307 265.364C304.307 264.416 304.489 263.588 304.854 262.883C305.219 262.178 305.736 261.637 306.405 261.26C307.074 260.87 307.858 260.676 308.758 260.676C309.634 260.676 310.394 260.864 311.038 261.241C311.695 261.618 312.2 262.141 312.553 262.81C312.917 263.479 313.1 264.239 313.1 265.09C313.1 265.236 313.094 265.388 313.082 265.547C313.082 265.705 313.063 265.875 313.027 266.057H306.186C306.247 266.872 306.514 267.492 306.989 267.918C307.475 268.344 308.065 268.557 308.758 268.557C309.403 268.557 309.95 268.447 310.4 268.228C310.862 268.009 311.203 267.675 311.421 267.225L312.917 267.754C312.565 268.471 312.042 269.043 311.349 269.469C310.667 269.894 309.816 270.107 308.795 270.107ZM311.203 264.58C311.19 263.826 310.941 263.248 310.455 262.847C309.968 262.433 309.372 262.226 308.667 262.226C308.047 262.226 307.505 262.433 307.043 262.847C306.581 263.26 306.301 263.838 306.204 264.58H311.203ZM317.243 273.61H315.419V260.84H317.097L317.225 262.19C317.529 261.764 317.943 261.412 318.466 261.132C319.001 260.84 319.639 260.694 320.381 260.694C321.196 260.694 321.92 260.895 322.552 261.296C323.184 261.685 323.677 262.239 324.03 262.956C324.394 263.661 324.577 264.489 324.577 265.437C324.577 266.374 324.394 267.194 324.03 267.9C323.677 268.605 323.184 269.153 322.552 269.542C321.932 269.919 321.208 270.107 320.381 270.107C319.676 270.107 319.055 269.961 318.52 269.669C317.985 269.378 317.56 269.031 317.243 268.63V273.61ZM322.716 265.437C322.716 264.428 322.455 263.649 321.932 263.102C321.421 262.543 320.789 262.263 320.034 262.263C319.548 262.263 319.092 262.391 318.666 262.646C318.241 262.889 317.894 263.248 317.626 263.722C317.371 264.184 317.243 264.744 317.243 265.401C317.243 266.057 317.371 266.623 317.626 267.097C317.894 267.559 318.241 267.912 318.666 268.155C319.092 268.399 319.548 268.52 320.034 268.52C320.789 268.52 321.421 268.259 321.932 267.736C322.455 267.201 322.716 266.434 322.716 265.437ZM326.531 260.84C326.799 260.84 327.012 260.755 327.17 260.585C327.34 260.414 327.425 260.195 327.425 259.928V258.596H329.104V260.84H331.384V262.427H329.104V266.842C329.104 267.438 329.237 267.857 329.505 268.101C329.785 268.344 330.174 268.465 330.672 268.465C330.867 268.465 331.104 268.447 331.384 268.411V269.888C331.031 269.961 330.691 269.998 330.362 269.998C329.827 269.998 329.322 269.901 328.848 269.706C328.386 269.499 328.003 269.165 327.699 268.703C327.407 268.24 327.261 267.62 327.261 266.842V262.427H325.966V260.84H326.531Z" fill="white"/>
<path opacity="0.5" d="M252.762 123.054V113.012C252.762 101.009 252.762 95.0018 249.25 91.1015C248.929 90.7428 248.587 90.3998 248.228 90.0763C244.329 86.5689 238.323 86.5688 226.319 86.5688H224.614C219.355 86.5688 216.724 86.5688 214.27 85.8708C212.924 85.4864 211.626 84.9477 210.403 84.2654C208.177 83.0298 206.316 81.1642 202.595 77.4475L200.087 74.9397C198.837 73.6895 198.217 73.0693 197.56 72.522C194.735 70.1809 191.271 68.7457 187.618 68.404C186.769 68.3262 185.885 68.3262 184.124 68.3262C180.097 68.3262 178.085 68.3262 176.407 68.6448C172.803 69.3259 169.489 71.0772 166.895 73.6701C164.302 76.263 162.55 79.577 161.867 83.1806C161.549 84.8625 161.549 86.879 161.549 90.9009V123.054C161.549 140.252 161.549 148.854 166.894 154.194C172.234 159.54 180.836 159.54 198.034 159.54H216.277C233.475 159.54 242.077 159.54 247.417 154.194C252.762 148.854 252.762 140.252 252.762 123.054Z" fill="#8778F7"/>
<path d="M208.933 110.256L207.155 120.926L205.377 110.256C205.335 109.998 205.349 109.734 205.419 109.482C205.489 109.229 205.612 108.996 205.781 108.796C205.95 108.597 206.162 108.436 206.399 108.327C206.636 108.217 206.894 108.16 207.155 108.16C207.417 108.16 207.676 108.217 207.913 108.327C208.15 108.436 208.36 108.597 208.53 108.796C208.699 108.996 208.823 109.229 208.892 109.482C208.962 109.734 208.976 109.998 208.933 110.256Z" stroke="#8778F7" stroke-width="3" stroke-linecap="round" stroke-linejoin="round"/>
<path d="M207.156 130.148C207.939 130.148 208.574 129.513 208.574 128.73C208.574 127.945 207.939 127.311 207.156 127.311C206.371 127.311 205.736 127.945 205.736 128.73C205.736 129.513 206.371 130.148 207.156 130.148Z" stroke="#8778F7" stroke-width="2"/>
<path d="M380.821 58.6909C381.017 58.8879 381.128 59.1543 381.128 59.4316C381.128 59.7101 381.017 59.9764 380.821 60.1734C380.624 60.3692 380.358 60.4799 380.08 60.4799C379.802 60.4799 379.536 60.3692 379.339 60.1734L373.803 54.6362L368.266 60.171C368.07 60.368 367.802 60.4787 367.525 60.4787C367.246 60.4787 366.98 60.368 366.783 60.171C366.587 59.9752 366.477 59.7089 366.477 59.4304C366.477 59.1518 366.587 58.8855 366.783 58.6897L372.322 53.1536L366.785 47.6164C366.588 47.4193 366.478 47.153 366.478 46.8757C366.478 46.5972 366.588 46.3309 366.785 46.1339C366.981 45.938 367.249 45.8274 367.526 45.8274C367.805 45.8274 368.071 45.938 368.268 46.1339L373.803 51.6711L379.34 46.1327C379.537 45.9369 379.803 45.8262 380.082 45.8262C380.359 45.8262 380.627 45.9369 380.823 46.1327C381.02 46.3297 381.13 46.596 381.13 46.8745C381.13 47.1518 381.02 47.4194 380.823 47.6152L375.285 53.1536L380.821 58.6909Z" fill="#939393"/>
</g>
<defs>
<filter id="filter0_d_2293_6846" x="0" y="0.421875" width="427.69" height="347.422" filterUnits="userSpaceOnUse" color-interpolation-filters="sRGB">
<feFlood flood-opacity="0" result="BackgroundImageFix"/>
<feColorMatrix in="SourceAlpha" type="matrix" values="0 0 0 0 0 0 0 0 0 0 0 0 0 0 0 0 0 0 127 0" result="hardAlpha"/>
<feOffset/>
<feGaussianBlur stdDeviation="7.5"/>
<feComposite in2="hardAlpha" operator="out"/>
<feColorMatrix type="matrix" values="0 0 0 0 0 0 0 0 0 0 0 0 0 0 0 0 0 0 0.1 0"/>
<feBlend mode="normal" in2="BackgroundImageFix" result="effect1_dropShadow_2293_6846"/>
<feBlend mode="normal" in="SourceGraphic" in2="effect1_dropShadow_2293_6846" result="shape"/>
</filter>
</defs>
</svg>
