<svg width="436" height="213" viewBox="0 0 436 213" fill="none" xmlns="http://www.w3.org/2000/svg">
<g filter="url(#filter0_d_2293_4722)">
<path d="M416.685 6H18.4074C11.555 6 6 11.555 6 18.4074V194.593C6 201.445 11.555 207 18.4074 207H416.685C423.538 207 429.093 201.445 429.093 194.593V18.4074C429.093 11.555 423.538 6 416.685 6Z" fill="white"/>
</g>
<path d="M18.4067 73.7441H407.999" stroke="#EAEAEA" stroke-width="0.8"/>
<path d="M18.4067 138.262H407.999" stroke="#EAEAEA" stroke-width="0.8"/>
<path d="M35.7771 33.916H22.1289C21.1011 33.916 20.2678 34.7493 20.2678 35.7771V49.4253C20.2678 50.4531 21.1011 51.2864 22.1289 51.2864H35.7771C36.8049 51.2864 37.6382 50.4531 37.6382 49.4253V35.7771C37.6382 34.7493 36.8049 33.916 35.7771 33.916Z" fill="#8778F7" stroke="#8778F7"/>
<path d="M30.8143 38.8789H27.0921C26.0642 38.8789 25.231 39.7122 25.231 40.74V44.4622C25.231 45.4901 26.0642 46.3234 27.0921 46.3234H30.8143C31.8422 46.3234 32.6754 45.4901 32.6754 44.4622V40.74C32.6754 39.7122 31.8422 38.8789 30.8143 38.8789Z" fill="white" stroke="#8778F7"/>
<path d="M47.1111 48.1851L51.8755 35.1574H54.6486L59.3944 48.1851H57.8311L56.5655 44.6862H49.94L48.6558 48.1851H47.1111ZM53.5878 36.3671H52.9364L50.368 43.4766H56.1561L53.5878 36.3671ZM61.1017 34.7852H62.5906V48.1851H61.1017V34.7852ZM65.6813 34.7852H67.1701V48.1851H65.6813V34.7852ZM75.8355 45.3562C75.9844 46.0138 76.3007 46.4667 76.7846 46.7149C77.2685 46.9506 77.7834 47.0684 78.3294 47.0684C78.9249 47.0684 79.4088 46.9382 79.781 46.6776C80.1533 46.4046 80.3394 46.0821 80.3394 45.7099C80.3394 45.3997 80.2339 45.1516 80.023 44.9655C79.812 44.7669 79.5329 44.6056 79.1855 44.4815C78.8381 44.3575 78.4658 44.2458 78.0688 44.1465C77.6718 44.0473 77.2747 43.9356 76.8777 43.8115C76.4931 43.675 76.1332 43.5076 75.7982 43.309C75.4757 43.1105 75.2151 42.85 75.0166 42.5274C74.8181 42.2048 74.7188 41.7953 74.7188 41.299C74.7188 40.84 74.8677 40.4119 75.1655 40.0148C75.4633 39.6178 75.8727 39.3015 76.3938 39.0657C76.9149 38.83 77.5105 38.7121 78.1805 38.7121C78.9373 38.7121 79.6073 38.8796 80.1905 39.2146C80.7736 39.5496 81.1955 40.0645 81.456 40.7593L80.2091 41.206C80.0354 40.7221 79.7376 40.3995 79.3158 40.2382C78.9063 40.0645 78.5155 39.9777 78.1432 39.9777C77.5725 39.9777 77.1072 40.1079 76.7474 40.3685C76.3876 40.6166 76.2077 40.9268 76.2077 41.299C76.2077 41.6465 76.3194 41.9256 76.5427 42.1365C76.766 42.335 77.0576 42.4964 77.4174 42.6204C77.7772 42.7445 78.1619 42.8623 78.5713 42.974C79.0676 43.1105 79.5577 43.2718 80.0416 43.4579C80.5379 43.644 80.9473 43.9108 81.2699 44.2582C81.6049 44.6056 81.7786 45.0833 81.791 45.6912C81.791 46.1999 81.6421 46.6529 81.3444 47.0499C81.0466 47.4469 80.6371 47.7571 80.116 47.9804C79.5949 48.2038 78.9994 48.3154 78.3294 48.3154C77.4733 48.3154 76.6978 48.1355 76.003 47.7757C75.3082 47.4035 74.8243 46.7459 74.5513 45.8029L75.8355 45.3562ZM89.8248 48.1851L89.7131 46.5102C89.4526 47.0561 89.0742 47.4966 88.5779 47.8316C88.094 48.1666 87.4736 48.334 86.7168 48.334C85.749 48.334 84.9735 48.1045 84.3904 47.6454C83.8072 47.1739 83.5157 46.5225 83.5157 45.6912C83.5157 45.0336 83.6956 44.5064 84.0554 44.1093C84.4276 43.7123 84.9115 43.4145 85.507 43.216C86.1026 43.005 86.7354 42.8624 87.4054 42.7879C88.0009 42.7259 88.4662 42.6701 88.8012 42.6204C89.1362 42.5584 89.372 42.4715 89.5084 42.3599C89.6449 42.2482 89.7131 42.0745 89.7131 41.8388C89.7131 41.3797 89.5394 40.9578 89.192 40.5732C88.857 40.1886 88.3111 39.9963 87.5543 39.9963C86.9711 39.9963 86.45 40.1575 85.9909 40.4801C85.5319 40.7903 85.2279 41.2308 85.079 41.8015L83.8134 41.3549C84.0368 40.5608 84.4834 39.9218 85.1534 39.4379C85.8358 38.954 86.6547 38.7121 87.6101 38.7121C88.6523 38.7121 89.5146 39.0285 90.197 39.6613C90.8794 40.2816 91.2207 41.2556 91.2207 42.5832V48.1851H89.8248ZM89.7131 43.7185L87.2007 44.0163C86.4562 44.1155 85.9103 44.2954 85.5629 44.556C85.2155 44.8041 85.0418 45.1639 85.0418 45.6354C85.0418 46.1069 85.2093 46.4605 85.5443 46.6962C85.8917 46.9196 86.3632 47.0313 86.9587 47.0313C87.4798 47.0313 87.9451 46.901 88.3546 46.6404C88.7764 46.3675 89.1052 46.0077 89.3409 45.561C89.5891 45.1019 89.7131 44.587 89.7131 44.0163V43.7185ZM94.1625 34.7852H95.6513V48.1851H94.1625V34.7852ZM102.65 48.3154C101.769 48.3154 100.988 48.1169 100.305 47.7199C99.6229 47.3228 99.0894 46.7645 98.7048 46.0449C98.3202 45.3129 98.1279 44.4567 98.1279 43.4766C98.1279 42.5088 98.314 41.6712 98.6862 40.964C99.0584 40.2444 99.5795 39.6922 100.25 39.3076C100.92 38.9106 101.707 38.7121 102.613 38.7121C103.519 38.7121 104.301 38.9106 104.958 39.3076C105.616 39.6922 106.118 40.2134 106.466 40.8709C106.813 41.5285 106.987 42.273 106.987 43.1043C106.987 43.2408 106.981 43.3835 106.968 43.5324C106.968 43.6813 106.956 43.8426 106.931 44.0163H99.654C99.7036 45.0337 100.014 45.7967 100.585 46.3054C101.155 46.8141 101.831 47.0684 102.613 47.0684C104.102 47.0684 105.088 46.5164 105.572 45.4121L106.782 45.896C106.435 46.628 105.92 47.2174 105.237 47.6641C104.555 48.0983 103.693 48.3154 102.65 48.3154ZM105.461 42.8065C105.473 42.2109 105.349 41.7023 105.088 41.2804C104.828 40.8462 104.474 40.5236 104.028 40.3127C103.593 40.0893 103.103 39.9777 102.557 39.9777C101.825 39.9777 101.18 40.2195 100.622 40.7034C100.076 41.1873 99.7594 41.8884 99.6726 42.8065H105.461ZM109.987 45.3562C110.136 46.0138 110.452 46.4667 110.936 46.7149C111.42 46.9506 111.935 47.0684 112.481 47.0684C113.076 47.0684 113.56 46.9382 113.932 46.6776C114.305 46.4046 114.491 46.0821 114.491 45.7099C114.491 45.3997 114.385 45.1516 114.174 44.9655C113.963 44.7669 113.684 44.6056 113.337 44.4815C112.989 44.3575 112.617 44.2458 112.22 44.1465C111.823 44.0473 111.426 43.9356 111.029 43.8115C110.644 43.675 110.285 43.5076 109.95 43.309C109.627 43.1105 109.366 42.85 109.168 42.5274C108.969 42.2048 108.87 41.7953 108.87 41.299C108.87 40.84 109.019 40.4119 109.317 40.0148C109.615 39.6178 110.024 39.3015 110.545 39.0657C111.066 38.83 111.662 38.7121 112.332 38.7121C113.089 38.7121 113.759 38.8796 114.342 39.2146C114.925 39.5496 115.347 40.0645 115.607 40.7593L114.36 41.206C114.187 40.7221 113.889 40.3995 113.467 40.2382C113.058 40.0645 112.667 39.9777 112.295 39.9777C111.724 39.9777 111.259 40.1079 110.899 40.3685C110.539 40.6166 110.359 40.9268 110.359 41.299C110.359 41.6465 110.471 41.9256 110.694 42.1365C110.917 42.335 111.209 42.4964 111.569 42.6204C111.929 42.7445 112.313 42.8623 112.723 42.974C113.219 43.1105 113.709 43.2718 114.193 43.4579C114.689 43.644 115.099 43.9108 115.421 44.2582C115.756 44.6056 115.93 45.0833 115.942 45.6912C115.942 46.1999 115.794 46.6529 115.496 47.0499C115.198 47.4469 114.789 47.7571 114.267 47.9804C113.746 48.2038 113.151 48.3154 112.481 48.3154C111.625 48.3154 110.849 48.1355 110.154 47.7757C109.46 47.4035 108.976 46.7459 108.703 45.8029L109.987 45.3562Z" fill="#4D4D4D"/>
<path d="M35.7771 98.4355H22.1289C21.1011 98.4355 20.2678 99.2688 20.2678 100.297V113.945C20.2678 114.973 21.1011 115.806 22.1289 115.806H35.7771C36.8049 115.806 37.6382 114.973 37.6382 113.945V100.297C37.6382 99.2688 36.8049 98.4355 35.7771 98.4355Z" stroke="#6C6C6C"/>
<path d="M47.1111 112.703L51.8755 99.6749H54.6486L59.3944 112.703H57.8311L56.5655 109.204H49.94L48.6558 112.703H47.1111ZM53.5878 100.885H52.9364L50.368 107.994H56.1561L53.5878 100.885ZM64.5919 112.833C63.7109 112.833 62.9293 112.641 62.2469 112.256C61.5645 111.859 61.0247 111.301 60.6277 110.581C60.2431 109.861 60.0508 109.011 60.0508 108.031C60.0508 107.051 60.2431 106.201 60.6277 105.482C61.0247 104.762 61.5645 104.21 62.2469 103.825C62.9293 103.428 63.7109 103.23 64.5919 103.23C65.6093 103.23 66.4716 103.453 67.1788 103.9C67.8985 104.346 68.4258 104.954 68.7608 105.724L67.4952 106.17C67.2967 105.637 66.9369 105.233 66.4158 104.961C65.9071 104.675 65.3177 104.532 64.6477 104.532C64.1018 104.532 63.5931 104.669 63.1216 104.942C62.6625 105.202 62.2841 105.593 61.9863 106.114C61.701 106.635 61.5583 107.274 61.5583 108.031C61.5583 108.801 61.701 109.446 61.9863 109.967C62.2841 110.488 62.6625 110.885 63.1216 111.158C63.5931 111.419 64.1018 111.549 64.6477 111.549C65.3177 111.549 65.9071 111.419 66.4158 111.158C66.9369 110.897 67.3091 110.488 67.5324 109.93L68.7794 110.376C68.4444 111.121 67.9109 111.716 67.1788 112.163C66.4592 112.61 65.5969 112.833 64.5919 112.833ZM71.2944 103.397C71.5425 103.397 71.7348 103.323 71.8713 103.174C72.0202 103.025 72.0946 102.826 72.0946 102.578V101.108H73.4719V103.397H75.9471V104.681H73.4719V109.706C73.4719 110.314 73.6269 110.767 73.9371 111.065C74.2597 111.35 74.6878 111.493 75.2213 111.493C75.4446 111.493 75.6866 111.474 75.9471 111.437V112.628C75.5997 112.703 75.2771 112.74 74.9793 112.74C74.4582 112.74 73.9681 112.635 73.5091 112.424C73.05 112.213 72.6778 111.884 72.3924 111.437C72.1195 110.99 71.983 110.414 71.983 109.706V104.681H70.5871V103.397H71.2944ZM79.1731 101.536C78.9001 101.536 78.6644 101.443 78.4658 101.257C78.2797 101.071 78.1867 100.841 78.1867 100.568C78.1867 100.283 78.2797 100.047 78.4658 99.8611C78.6644 99.675 78.9001 99.5819 79.1731 99.5819C79.446 99.5819 79.6756 99.675 79.8617 99.8611C80.0478 100.047 80.1408 100.283 80.1408 100.568C80.1408 100.841 80.0478 101.071 79.8617 101.257C79.6756 101.443 79.446 101.536 79.1731 101.536ZM78.4286 103.397H79.8989V112.703H78.4286V103.397ZM83.7973 103.397L86.7379 111.139L89.697 103.397H91.2604L87.5381 112.703H85.9003L82.2153 103.397H83.7973ZM96.6526 112.833C95.7717 112.833 94.99 112.634 94.3076 112.237C93.6252 111.84 93.0917 111.282 92.7071 110.562C92.3224 109.83 92.1301 108.974 92.1301 107.994C92.1301 107.026 92.3162 106.189 92.6885 105.482C93.0607 104.762 93.5818 104.21 94.2518 103.825C94.9218 103.428 95.7096 103.23 96.6154 103.23C97.5211 103.23 98.3028 103.428 98.9604 103.825C99.618 104.21 100.12 104.731 100.468 105.389C100.815 106.046 100.989 106.791 100.989 107.622C100.989 107.758 100.983 107.901 100.97 108.05C100.97 108.199 100.958 108.36 100.933 108.534H93.6562C93.7059 109.551 94.016 110.314 94.5868 110.823C95.1575 111.332 95.8337 111.586 96.6154 111.586C98.1043 111.586 99.0907 111.034 99.5746 109.93L100.784 110.414C100.437 111.146 99.922 111.735 99.2396 112.182C98.5572 112.616 97.6948 112.833 96.6526 112.833ZM99.4629 107.324C99.4753 106.729 99.3512 106.22 99.0907 105.798C98.8301 105.364 98.4765 105.041 98.0298 104.83C97.5956 104.607 97.1055 104.495 96.5596 104.495C95.8275 104.495 95.1823 104.737 94.624 105.221C94.0781 105.705 93.7617 106.406 93.6748 107.324H99.4629ZM109.414 109.464C109.5 109.824 109.668 110.165 109.916 110.488C110.164 110.811 110.499 111.071 110.921 111.27C111.355 111.468 111.883 111.567 112.503 111.567C113.372 111.567 114.048 111.35 114.532 110.916C115.016 110.469 115.258 109.923 115.258 109.278C115.258 108.757 115.127 108.341 114.867 108.031C114.619 107.721 114.284 107.479 113.862 107.306C113.44 107.119 112.975 106.964 112.466 106.84C111.97 106.704 111.467 106.561 110.958 106.412C110.462 106.251 110.003 106.046 109.581 105.798C109.159 105.537 108.818 105.196 108.558 104.774C108.309 104.34 108.185 103.769 108.185 103.062C108.185 102.367 108.359 101.753 108.706 101.22C109.054 100.686 109.544 100.27 110.177 99.9727C110.809 99.6749 111.554 99.5261 112.41 99.5261C113.489 99.5261 114.377 99.7618 115.071 100.233C115.779 100.705 116.263 101.307 116.523 102.039L115.164 102.56C115.028 102.125 114.718 101.728 114.234 101.369C113.75 100.996 113.117 100.804 112.336 100.792C111.604 100.792 110.977 100.984 110.456 101.369C109.935 101.741 109.674 102.287 109.674 103.006C109.674 103.527 109.804 103.943 110.065 104.253C110.326 104.551 110.661 104.793 111.07 104.979C111.492 105.153 111.951 105.308 112.447 105.444C112.956 105.568 113.458 105.711 113.955 105.872C114.463 106.034 114.929 106.245 115.351 106.505C115.772 106.753 116.107 107.095 116.356 107.529C116.616 107.963 116.746 108.521 116.746 109.204C116.746 109.812 116.585 110.395 116.263 110.953C115.952 111.499 115.481 111.952 114.848 112.312C114.215 112.659 113.434 112.833 112.503 112.833C111.349 112.833 110.369 112.572 109.563 112.051C108.768 111.518 108.254 110.829 108.018 109.985L109.414 109.464ZM125.048 112.703L124.937 111.028C124.676 111.574 124.298 112.014 123.801 112.349C123.317 112.684 122.697 112.852 121.94 112.852C120.972 112.852 120.197 112.622 119.614 112.163C119.031 111.692 118.739 111.04 118.739 110.209C118.739 109.551 118.919 109.024 119.279 108.627C119.651 108.23 120.135 107.932 120.73 107.734C121.326 107.523 121.959 107.38 122.629 107.306C123.224 107.243 123.69 107.188 124.025 107.138C124.36 107.076 124.595 106.989 124.732 106.877C124.868 106.766 124.937 106.592 124.937 106.356C124.937 105.897 124.763 105.475 124.415 105.091C124.08 104.706 123.534 104.514 122.778 104.514C122.194 104.514 121.673 104.675 121.214 104.998C120.755 105.308 120.451 105.748 120.302 106.319L119.037 105.872C119.26 105.078 119.707 104.439 120.377 103.956C121.059 103.472 121.878 103.23 122.833 103.23C123.876 103.23 124.738 103.546 125.42 104.179C126.103 104.799 126.444 105.773 126.444 107.101V112.703H125.048ZM124.937 108.236L122.424 108.534C121.68 108.633 121.134 108.813 120.786 109.074C120.439 109.322 120.265 109.682 120.265 110.153C120.265 110.624 120.433 110.978 120.768 111.214C121.115 111.437 121.587 111.549 122.182 111.549C122.703 111.549 123.168 111.419 123.578 111.158C124 110.885 124.329 110.525 124.564 110.079C124.812 109.619 124.937 109.105 124.937 108.534V108.236ZM129.385 99.3027H130.873V112.703H129.385V99.3027ZM137.874 112.833C136.993 112.833 136.211 112.634 135.529 112.237C134.846 111.84 134.313 111.282 133.928 110.562C133.544 109.83 133.351 108.974 133.351 107.994C133.351 107.026 133.537 106.189 133.91 105.482C134.282 104.762 134.803 104.21 135.473 103.825C136.143 103.428 136.931 103.23 137.837 103.23C138.742 103.23 139.524 103.428 140.182 103.825C140.839 104.21 141.342 104.731 141.689 105.389C142.036 106.046 142.21 106.791 142.21 107.622C142.21 107.758 142.204 107.901 142.192 108.05C142.192 108.199 142.179 108.36 142.154 108.534H134.877C134.927 109.551 135.237 110.314 135.808 110.823C136.379 111.332 137.055 111.586 137.837 111.586C139.325 111.586 140.312 111.034 140.796 109.93L142.005 110.414C141.658 111.146 141.143 111.735 140.461 112.182C139.778 112.616 138.916 112.833 137.874 112.833ZM140.684 107.324C140.696 106.729 140.572 106.22 140.312 105.798C140.051 105.364 139.698 105.041 139.251 104.83C138.817 104.607 138.327 104.495 137.781 104.495C137.049 104.495 136.403 104.737 135.845 105.221C135.299 105.705 134.983 106.406 134.896 107.324H140.684ZM145.209 109.874C145.358 110.531 145.674 110.984 146.158 111.232C146.642 111.468 147.157 111.586 147.703 111.586C148.298 111.586 148.782 111.456 149.155 111.195C149.527 110.922 149.713 110.6 149.713 110.227C149.713 109.917 149.607 109.669 149.397 109.483C149.186 109.285 148.906 109.123 148.559 108.999C148.212 108.875 147.839 108.763 147.442 108.664C147.045 108.565 146.648 108.453 146.251 108.329C145.867 108.193 145.507 108.025 145.172 107.827C144.849 107.628 144.589 107.368 144.39 107.045C144.192 106.722 144.092 106.313 144.092 105.817C144.092 105.358 144.241 104.929 144.539 104.532C144.837 104.135 145.246 103.819 145.767 103.583C146.288 103.348 146.884 103.23 147.554 103.23C148.311 103.23 148.981 103.397 149.564 103.732C150.147 104.067 150.569 104.582 150.83 105.277L149.583 105.724C149.409 105.24 149.111 104.917 148.689 104.756C148.28 104.582 147.889 104.495 147.517 104.495C146.946 104.495 146.481 104.626 146.121 104.886C145.761 105.134 145.581 105.444 145.581 105.817C145.581 106.164 145.693 106.443 145.916 106.654C146.14 106.853 146.431 107.014 146.791 107.138C147.151 107.262 147.535 107.38 147.945 107.492C148.441 107.628 148.931 107.789 149.415 107.975C149.911 108.162 150.321 108.428 150.643 108.776C150.978 109.123 151.152 109.601 151.165 110.209C151.165 110.718 151.016 111.17 150.718 111.567C150.42 111.965 150.011 112.275 149.49 112.498C148.968 112.721 148.373 112.833 147.703 112.833C146.847 112.833 146.071 112.653 145.377 112.293C144.682 111.921 144.198 111.263 143.925 110.321L145.209 109.874Z" fill="#4D4D4D"/>
<path d="M35.7771 162.953H22.1289C21.1011 162.953 20.2678 163.786 20.2678 164.814V178.462C20.2678 179.49 21.1011 180.323 22.1289 180.323H35.7771C36.8049 180.323 37.6382 179.49 37.6382 178.462V164.814C37.6382 163.786 36.8049 162.953 35.7771 162.953Z" stroke="#6C6C6C"/>
<path d="M53.2524 164.193C54.2574 164.193 55.0887 164.366 55.7463 164.714C56.4163 165.049 56.9126 165.508 57.2352 166.091C57.5578 166.662 57.7191 167.301 57.7191 168.008C57.7191 168.876 57.4647 169.658 56.956 170.353C56.4597 171.048 55.6594 171.5 54.5552 171.711L57.868 177.22H56.0999L52.936 171.842H50.1444V177.22H48.6741V164.193H53.2524ZM56.193 168.008C56.193 167.226 55.9634 166.6 55.5044 166.128C55.0453 165.657 54.2946 165.421 53.2524 165.421H50.1444V170.632H53.271C54.2884 170.632 55.0267 170.39 55.4857 169.906C55.9572 169.41 56.193 168.777 56.193 168.008ZM63.9923 177.351C63.1113 177.351 62.3297 177.152 61.6473 176.755C60.9649 176.358 60.4313 175.8 60.0467 175.08C59.6621 174.348 59.4698 173.492 59.4698 172.512C59.4698 171.544 59.6559 170.706 60.0281 169.999C60.4003 169.28 60.9214 168.727 61.5914 168.343C62.2614 167.946 63.0493 167.747 63.955 167.747C64.8608 167.747 65.6424 167.946 66.3 168.343C66.9576 168.727 67.4601 169.249 67.8075 169.906C68.1549 170.564 68.3286 171.308 68.3286 172.139C68.3286 172.276 68.3224 172.419 68.31 172.568C68.31 172.716 68.2976 172.878 68.2728 173.051H60.9959C61.0455 174.069 61.3557 174.832 61.9264 175.341C62.4972 175.849 63.1734 176.104 63.955 176.104C65.4439 176.104 66.4303 175.552 66.9142 174.447L68.1239 174.931C67.7765 175.663 67.2616 176.253 66.5792 176.699C65.8968 177.133 65.0345 177.351 63.9923 177.351ZM66.8025 171.842C66.8149 171.246 66.6909 170.737 66.4303 170.316C66.1698 169.881 65.8161 169.559 65.3695 169.348C64.9352 169.124 64.4451 169.013 63.8992 169.013C63.1672 169.013 62.522 169.255 61.9637 169.739C61.4177 170.222 61.1013 170.924 61.0145 171.842H66.8025ZM70.892 167.915L73.8326 175.657L76.7918 167.915H78.3551L74.6329 177.22H72.9951L69.3101 167.915H70.892ZM83.7486 177.351C82.8677 177.351 82.086 177.152 81.4036 176.755C80.7212 176.358 80.1876 175.8 79.803 175.08C79.4184 174.348 79.2261 173.492 79.2261 172.512C79.2261 171.544 79.4122 170.706 79.7844 169.999C80.1566 169.28 80.6777 168.727 81.3477 168.343C82.0177 167.946 82.8056 167.747 83.7114 167.747C84.6171 167.747 85.3988 167.946 86.0564 168.343C86.714 168.727 87.2164 169.249 87.5639 169.906C87.9113 170.564 88.085 171.308 88.085 172.139C88.085 172.276 88.0788 172.419 88.0664 172.568C88.0664 172.716 88.0539 172.878 88.0291 173.051H80.7522C80.8018 174.069 81.112 174.832 81.6827 175.341C82.2535 175.849 82.9297 176.104 83.7114 176.104C85.2002 176.104 86.1866 175.552 86.6705 174.447L87.8802 174.931C87.5328 175.663 87.0179 176.253 86.3355 176.699C85.6531 177.133 84.7908 177.351 83.7486 177.351ZM86.5589 171.842C86.5713 171.246 86.4472 170.737 86.1866 170.316C85.9261 169.881 85.5725 169.559 85.1258 169.348C84.6915 169.124 84.2015 169.013 83.6555 169.013C82.9235 169.013 82.2783 169.255 81.72 169.739C81.174 170.222 80.8577 170.924 80.7708 171.842H86.5589ZM90.5627 167.915H91.94L92.0144 169.273C92.3122 168.864 92.6782 168.529 93.1124 168.268C93.5467 167.995 94.0368 167.859 94.5827 167.859C94.7068 167.859 94.8371 167.865 94.9736 167.877C95.11 167.89 95.2527 167.909 95.4016 167.933V169.404C95.1162 169.342 94.8557 169.311 94.6199 169.311C94.1981 169.311 93.7887 169.428 93.3916 169.664C92.9946 169.887 92.672 170.235 92.4238 170.706C92.1757 171.165 92.0516 171.742 92.0516 172.437V177.22H90.5627V167.915ZM97.9724 174.391C98.1213 175.049 98.4377 175.502 98.9216 175.75C99.4055 175.986 99.9204 176.104 100.466 176.104C101.062 176.104 101.546 175.973 101.918 175.713C102.29 175.44 102.476 175.117 102.476 174.745C102.476 174.435 102.371 174.187 102.16 174.001C101.949 173.802 101.67 173.641 101.322 173.517C100.975 173.393 100.603 173.281 100.206 173.182C99.8087 173.082 99.4117 172.971 99.0147 172.847C98.63 172.71 98.2702 172.543 97.9352 172.344C97.6126 172.146 97.3521 171.885 97.1535 171.563C96.955 171.24 96.8558 170.83 96.8558 170.334C96.8558 169.875 97.0047 169.447 97.3024 169.05C97.6002 168.653 98.0097 168.337 98.5308 168.101C99.0519 167.865 99.6474 167.747 100.317 167.747C101.074 167.747 101.744 167.915 102.327 168.25C102.911 168.585 103.332 169.1 103.593 169.794L102.346 170.241C102.172 169.757 101.875 169.435 101.453 169.273C101.043 169.1 100.652 169.013 100.28 169.013C99.7095 169.013 99.2442 169.143 98.8844 169.404C98.5246 169.652 98.3446 169.962 98.3446 170.334C98.3446 170.682 98.4563 170.961 98.6796 171.172C98.903 171.37 99.1946 171.532 99.5544 171.656C99.9142 171.78 100.299 171.898 100.708 172.009C101.205 172.146 101.695 172.307 102.179 172.493C102.675 172.679 103.084 172.946 103.407 173.293C103.742 173.641 103.916 174.118 103.928 174.726C103.928 175.235 103.779 175.688 103.481 176.085C103.184 176.482 102.774 176.792 102.253 177.016C101.732 177.239 101.136 177.351 100.466 177.351C99.6102 177.351 98.8347 177.171 98.1399 176.811C97.4451 176.439 96.9612 175.781 96.6883 174.838L97.9724 174.391ZM110.157 177.351C109.276 177.351 108.494 177.152 107.812 176.755C107.129 176.358 106.596 175.8 106.211 175.08C105.826 174.348 105.634 173.492 105.634 172.512C105.634 171.544 105.82 170.706 106.192 169.999C106.565 169.28 107.086 168.727 107.756 168.343C108.426 167.946 109.214 167.747 110.119 167.747C111.025 167.747 111.807 167.946 112.464 168.343C113.122 168.727 113.624 169.249 113.972 169.906C114.319 170.564 114.493 171.308 114.493 172.139C114.493 172.276 114.487 172.419 114.474 172.568C114.474 172.716 114.462 172.878 114.437 173.051H107.16C107.21 174.069 107.52 174.832 108.091 175.341C108.661 175.849 109.338 176.104 110.119 176.104C111.608 176.104 112.595 175.552 113.078 174.447L114.288 174.931C113.941 175.663 113.426 176.253 112.743 176.699C112.061 177.133 111.199 177.351 110.157 177.351ZM112.967 171.842C112.979 171.246 112.855 170.737 112.595 170.316C112.334 169.881 111.98 169.559 111.534 169.348C111.099 169.124 110.609 169.013 110.063 169.013C109.331 169.013 108.686 169.255 108.128 169.739C107.582 170.222 107.266 170.924 107.179 171.842H112.967ZM123.95 163.82H125.439V177.22H124.08L123.987 175.489C123.677 176.023 123.236 176.47 122.666 176.829C122.095 177.189 121.388 177.369 120.544 177.369C119.688 177.369 118.931 177.171 118.273 176.774C117.628 176.364 117.12 175.8 116.747 175.08C116.387 174.348 116.208 173.498 116.208 172.53C116.208 171.562 116.387 170.725 116.747 170.018C117.12 169.298 117.628 168.74 118.273 168.343C118.931 167.946 119.688 167.747 120.544 167.747C121.35 167.747 122.039 167.933 122.61 168.306C123.193 168.665 123.64 169.106 123.95 169.627V163.82ZM117.696 172.53C117.696 173.647 117.988 174.522 118.571 175.154C119.154 175.775 119.899 176.085 120.805 176.085C121.388 176.085 121.915 175.942 122.386 175.657C122.87 175.372 123.249 174.968 123.522 174.447C123.807 173.914 123.95 173.281 123.95 172.549C123.95 171.817 123.807 171.19 123.522 170.669C123.249 170.148 122.87 169.751 122.386 169.478C121.915 169.193 121.388 169.05 120.805 169.05C119.899 169.05 119.154 169.354 118.571 169.962C117.988 170.57 117.696 171.426 117.696 172.53ZM134.476 173.982C134.563 174.342 134.731 174.683 134.979 175.006C135.227 175.328 135.562 175.589 135.984 175.787C136.418 175.986 136.945 176.085 137.566 176.085C138.434 176.085 139.11 175.868 139.594 175.434C140.078 174.987 140.32 174.441 140.32 173.796C140.32 173.275 140.19 172.859 139.929 172.549C139.681 172.239 139.346 171.997 138.924 171.823C138.502 171.637 138.037 171.482 137.528 171.358C137.032 171.221 136.53 171.079 136.021 170.93C135.525 170.768 135.066 170.564 134.644 170.316C134.222 170.055 133.881 169.714 133.62 169.292C133.372 168.858 133.248 168.287 133.248 167.58C133.248 166.885 133.422 166.271 133.769 165.737C134.116 165.204 134.607 164.788 135.239 164.49C135.872 164.193 136.617 164.044 137.473 164.044C138.552 164.044 139.439 164.279 140.134 164.751C140.841 165.222 141.325 165.824 141.586 166.556L140.227 167.077C140.091 166.643 139.78 166.246 139.297 165.886C138.813 165.514 138.18 165.322 137.398 165.309C136.666 165.309 136.04 165.501 135.518 165.886C134.997 166.258 134.737 166.804 134.737 167.524C134.737 168.045 134.867 168.461 135.128 168.771C135.388 169.069 135.723 169.311 136.133 169.497C136.555 169.67 137.014 169.826 137.51 169.962C138.019 170.086 138.521 170.229 139.017 170.39C139.526 170.551 139.991 170.762 140.413 171.023C140.835 171.271 141.17 171.612 141.418 172.046C141.679 172.481 141.809 173.039 141.809 173.721C141.809 174.329 141.648 174.913 141.325 175.471C141.015 176.017 140.543 176.47 139.911 176.829C139.278 177.177 138.496 177.351 137.566 177.351C136.412 177.351 135.432 177.09 134.625 176.569C133.831 176.035 133.316 175.347 133.08 174.503L134.476 173.982ZM150.111 177.22L149.999 175.545C149.739 176.091 149.36 176.532 148.864 176.867C148.38 177.202 147.76 177.369 147.003 177.369C146.035 177.369 145.26 177.14 144.676 176.681C144.093 176.209 143.802 175.558 143.802 174.726C143.802 174.069 143.982 173.542 144.341 173.144C144.714 172.747 145.198 172.45 145.793 172.251C146.389 172.04 147.021 171.898 147.691 171.823C148.287 171.761 148.752 171.705 149.087 171.656C149.422 171.594 149.658 171.507 149.794 171.395C149.931 171.283 149.999 171.11 149.999 170.874C149.999 170.415 149.825 169.993 149.478 169.608C149.143 169.224 148.597 169.031 147.84 169.031C147.257 169.031 146.736 169.193 146.277 169.515C145.818 169.825 145.514 170.266 145.365 170.837L144.099 170.39C144.323 169.596 144.769 168.957 145.439 168.473C146.122 167.989 146.941 167.747 147.896 167.747C148.938 167.747 149.801 168.064 150.483 168.696C151.165 169.317 151.507 170.291 151.507 171.618V177.22H150.111ZM149.999 172.754L147.487 173.051C146.742 173.151 146.196 173.331 145.849 173.591C145.501 173.839 145.328 174.199 145.328 174.671C145.328 175.142 145.495 175.496 145.83 175.731C146.178 175.955 146.649 176.066 147.245 176.066C147.766 176.066 148.231 175.936 148.641 175.676C149.062 175.403 149.391 175.043 149.627 174.596C149.875 174.137 149.999 173.622 149.999 173.051V172.754ZM154.447 163.82H155.936V177.22H154.447V163.82ZM162.936 177.351C162.055 177.351 161.274 177.152 160.591 176.755C159.909 176.358 159.375 175.8 158.991 175.08C158.606 174.348 158.414 173.492 158.414 172.512C158.414 171.544 158.6 170.706 158.972 169.999C159.344 169.28 159.866 168.727 160.536 168.343C161.206 167.946 161.993 167.747 162.899 167.747C163.805 167.747 164.587 167.946 165.244 168.343C165.902 168.727 166.404 169.249 166.752 169.906C167.099 170.564 167.273 171.308 167.273 172.139C167.273 172.276 167.267 172.419 167.254 172.568C167.254 172.716 167.242 172.878 167.217 173.051H159.94C159.99 174.069 160.3 174.832 160.871 175.341C161.441 175.849 162.117 176.104 162.899 176.104C164.388 176.104 165.374 175.552 165.858 174.447L167.068 174.931C166.721 175.663 166.206 176.253 165.523 176.699C164.841 177.133 163.979 177.351 162.936 177.351ZM165.747 171.842C165.759 171.246 165.635 170.737 165.374 170.316C165.114 169.881 164.76 169.559 164.314 169.348C163.879 169.124 163.389 169.013 162.843 169.013C162.111 169.013 161.466 169.255 160.908 169.739C160.362 170.222 160.045 170.924 159.959 171.842H165.747ZM170.272 174.391C170.421 175.049 170.737 175.502 171.221 175.75C171.705 175.986 172.22 176.104 172.766 176.104C173.361 176.104 173.845 175.973 174.217 175.713C174.589 175.44 174.776 175.117 174.776 174.745C174.776 174.435 174.67 174.187 174.459 174.001C174.248 173.802 173.969 173.641 173.622 173.517C173.274 173.393 172.902 173.281 172.505 173.182C172.108 173.082 171.711 172.971 171.314 172.847C170.929 172.71 170.569 172.543 170.234 172.344C169.912 172.146 169.651 171.885 169.453 171.563C169.254 171.24 169.155 170.83 169.155 170.334C169.155 169.875 169.304 169.447 169.602 169.05C169.899 168.653 170.309 168.337 170.83 168.101C171.351 167.865 171.947 167.747 172.617 167.747C173.373 167.747 174.043 167.915 174.627 168.25C175.21 168.585 175.632 169.1 175.892 169.794L174.645 170.241C174.472 169.757 174.174 169.435 173.752 169.273C173.342 169.1 172.952 169.013 172.579 169.013C172.009 169.013 171.543 169.143 171.184 169.404C170.824 169.652 170.644 169.962 170.644 170.334C170.644 170.682 170.756 170.961 170.979 171.172C171.202 171.37 171.494 171.532 171.854 171.656C172.213 171.78 172.598 171.898 173.007 172.009C173.504 172.146 173.994 172.307 174.478 172.493C174.974 172.679 175.383 172.946 175.706 173.293C176.041 173.641 176.215 174.118 176.227 174.726C176.227 175.235 176.078 175.688 175.781 176.085C175.483 176.482 175.073 176.792 174.552 177.016C174.031 177.239 173.436 177.351 172.766 177.351C171.909 177.351 171.134 177.171 170.439 176.811C169.744 176.439 169.26 175.781 168.987 174.838L170.272 174.391Z" fill="#4D4D4D"/>
<defs>
<filter id="filter0_d_2293_4722" x="0" y="0" width="435.093" height="213" filterUnits="userSpaceOnUse" color-interpolation-filters="sRGB">
<feFlood flood-opacity="0" result="BackgroundImageFix"/>
<feColorMatrix in="SourceAlpha" type="matrix" values="0 0 0 0 0 0 0 0 0 0 0 0 0 0 0 0 0 0 127 0" result="hardAlpha"/>
<feOffset/>
<feGaussianBlur stdDeviation="3"/>
<feComposite in2="hardAlpha" operator="out"/>
<feColorMatrix type="matrix" values="0 0 0 0 0 0 0 0 0 0 0 0 0 0 0 0 0 0 0.07 0"/>
<feBlend mode="normal" in2="BackgroundImageFix" result="effect1_dropShadow_2293_4722"/>
<feBlend mode="normal" in="SourceGraphic" in2="effect1_dropShadow_2293_4722" result="shape"/>
</filter>
</defs>
</svg>
