<svg width="409" height="348" viewBox="0 0 409 348" fill="none" xmlns="http://www.w3.org/2000/svg">
<g filter="url(#filter0_d_2293_6867)">
<path d="M363.247 15.4219H45.8244C29.0325 15.4219 15.4199 29.0344 15.4199 45.8263V302.44C15.4199 319.232 29.0325 332.844 45.8244 332.844H363.247C380.039 332.844 393.651 319.232 393.651 302.44V45.8263C393.651 29.0344 380.039 15.4219 363.247 15.4219Z" fill="white"/>
<path fill-rule="evenodd" clip-rule="evenodd" d="M203.318 207.071C234.943 207.071 260.581 181.434 260.581 149.808C260.581 118.183 234.943 92.5469 203.318 92.5469C171.692 92.5469 146.057 118.183 146.057 149.808C146.057 181.434 171.692 207.071 203.318 207.071ZM234.074 131.685C234.341 131.41 234.551 131.083 234.689 130.724C234.828 130.365 234.894 129.982 234.881 129.598C234.868 129.213 234.778 128.835 234.616 128.486C234.455 128.137 234.225 127.825 233.939 127.567C233.653 127.309 233.319 127.111 232.955 126.985C232.593 126.86 232.207 126.808 231.824 126.835C231.44 126.861 231.065 126.965 230.722 127.139C230.379 127.313 230.075 127.555 229.828 127.849L195.531 165.747L176.663 147.736C176.114 147.21 175.379 146.926 174.62 146.943C173.861 146.96 173.14 147.279 172.614 147.827C172.09 148.377 171.804 149.111 171.823 149.87C171.84 150.63 172.157 151.352 172.707 151.876L193.704 171.917L195.831 173.951L197.804 171.769L234.074 131.685Z" fill="#8778F7"/>
<path d="M95.502 244.429H98.0559V262.307H95.502V244.429ZM111.065 255.155C111.065 253.964 110.801 253.061 110.274 252.448C109.763 251.835 109.022 251.529 108.052 251.529C107.081 251.529 106.306 251.844 105.728 252.474C105.166 253.104 104.885 254.04 104.885 255.283V262.307H102.331V249.537H104.68L104.859 250.967C105.285 250.439 105.813 250.031 106.443 249.741C107.09 249.452 107.796 249.307 108.562 249.307C110.044 249.307 111.253 249.775 112.189 250.712C113.143 251.631 113.619 253.01 113.619 254.849V262.307H111.065V255.155ZM118.35 249.537L122.002 259.701L125.706 249.537H128.387L123.433 262.307H120.547L115.592 249.537H118.35ZM135.933 262.511C134.707 262.511 133.608 262.238 132.638 261.694C131.684 261.149 130.927 260.383 130.365 259.395C129.803 258.408 129.522 257.241 129.522 255.896C129.522 254.551 129.803 253.385 130.365 252.397C130.944 251.41 131.727 250.652 132.715 250.124C133.702 249.579 134.8 249.307 136.009 249.307C137.218 249.307 138.316 249.579 139.304 250.124C140.291 250.652 141.075 251.41 141.653 252.397C142.232 253.385 142.522 254.551 142.522 255.896C142.522 257.241 142.224 258.408 141.628 259.395C141.049 260.383 140.257 261.149 139.253 261.694C138.248 262.238 137.141 262.511 135.933 262.511ZM135.933 260.314C136.597 260.314 137.227 260.153 137.823 259.829C138.435 259.506 138.929 259.02 139.304 258.373C139.695 257.709 139.891 256.884 139.891 255.896C139.891 254.909 139.704 254.091 139.329 253.444C138.955 252.797 138.469 252.321 137.874 252.014C137.278 251.691 136.639 251.529 135.958 251.529C135.294 251.529 134.664 251.691 134.068 252.014C133.489 252.321 133.021 252.797 132.663 253.444C132.306 254.091 132.127 254.909 132.127 255.896C132.127 256.884 132.297 257.709 132.638 258.373C132.995 259.02 133.464 259.506 134.043 259.829C134.622 260.153 135.251 260.314 135.933 260.314ZM147.412 247.289C146.952 247.289 146.561 247.136 146.237 246.829C145.931 246.523 145.778 246.148 145.778 245.706C145.778 245.229 145.931 244.837 146.237 244.531C146.561 244.224 146.952 244.071 147.412 244.071C147.855 244.071 148.229 244.224 148.536 244.531C148.859 244.837 149.021 245.229 149.021 245.706C149.021 246.148 148.859 246.523 148.536 246.829C148.229 247.136 147.855 247.289 147.412 247.289ZM146.11 249.537H148.664V262.307H146.11V249.537ZM158.527 262.511C157.301 262.511 156.211 262.238 155.258 261.694C154.321 261.149 153.589 260.383 153.061 259.395C152.533 258.408 152.27 257.241 152.27 255.896C152.27 254.568 152.533 253.41 153.061 252.423C153.589 251.435 154.321 250.669 155.258 250.124C156.211 249.579 157.301 249.307 158.527 249.307C159.906 249.307 161.089 249.605 162.077 250.201C163.064 250.797 163.788 251.639 164.248 252.729L162.077 253.47C161.804 252.823 161.353 252.338 160.723 252.014C160.11 251.691 159.404 251.529 158.603 251.529C157.939 251.529 157.318 251.708 156.739 252.065C156.177 252.406 155.726 252.899 155.385 253.546C155.045 254.193 154.875 254.977 154.875 255.896C154.875 256.816 155.045 257.607 155.385 258.271C155.726 258.918 156.177 259.421 156.739 259.778C157.318 260.119 157.939 260.289 158.603 260.289C159.387 260.289 160.093 260.144 160.723 259.855C161.353 259.548 161.83 259.055 162.153 258.373L164.273 259.14C163.796 260.161 163.056 260.978 162.051 261.591C161.064 262.204 159.889 262.511 158.527 262.511ZM172.868 262.511C171.642 262.511 170.552 262.238 169.599 261.694C168.662 261.149 167.922 260.383 167.377 259.395C166.849 258.391 166.585 257.216 166.585 255.871C166.585 254.543 166.841 253.385 167.351 252.397C167.862 251.41 168.586 250.652 169.522 250.124C170.459 249.579 171.557 249.307 172.817 249.307C174.043 249.307 175.107 249.571 176.009 250.099C176.929 250.626 177.635 251.359 178.129 252.295C178.64 253.231 178.895 254.296 178.895 255.487C178.895 255.692 178.887 255.905 178.87 256.126C178.87 256.347 178.844 256.586 178.793 256.841H169.216C169.301 257.982 169.675 258.85 170.339 259.446C171.021 260.042 171.846 260.34 172.817 260.34C173.719 260.34 174.485 260.187 175.115 259.88C175.762 259.574 176.239 259.106 176.546 258.476L178.64 259.216C178.146 260.221 177.414 261.021 176.443 261.617C175.49 262.213 174.298 262.511 172.868 262.511ZM176.239 254.772C176.222 253.717 175.873 252.908 175.192 252.346C174.511 251.767 173.677 251.478 172.689 251.478C171.821 251.478 171.063 251.767 170.416 252.346C169.769 252.925 169.377 253.734 169.241 254.772H176.239ZM202.668 249.894C202.157 248.805 201.374 247.979 200.318 247.417C199.263 246.855 198.164 246.574 197.024 246.574C195.798 246.574 194.7 246.855 193.729 247.417C192.776 247.962 192.018 248.745 191.456 249.767C190.894 250.771 190.613 251.963 190.613 253.342C190.613 254.721 190.886 255.922 191.43 256.943C191.992 257.965 192.75 258.757 193.703 259.318C194.674 259.88 195.764 260.161 196.973 260.161C198.318 260.161 199.458 259.846 200.395 259.216C201.348 258.569 202.055 257.701 202.515 256.611V254.67H197.075V252.627H205.247V256.713C204.856 257.82 204.26 258.808 203.46 259.676C202.676 260.527 201.731 261.208 200.625 261.719C199.535 262.213 198.318 262.46 196.973 262.46C195.73 262.46 194.563 262.238 193.474 261.796C192.384 261.353 191.422 260.732 190.588 259.931C189.77 259.114 189.132 258.152 188.672 257.045C188.212 255.922 187.983 254.687 187.983 253.342C187.983 252.014 188.212 250.797 188.672 249.69C189.132 248.566 189.77 247.604 190.588 246.804C191.422 245.987 192.384 245.357 193.474 244.914C194.563 244.454 195.73 244.224 196.973 244.224C198.13 244.224 199.22 244.412 200.242 244.786C201.28 245.161 202.2 245.714 203 246.446C203.817 247.161 204.456 248.03 204.915 249.051L202.668 249.894ZM214.121 262.511C212.895 262.511 211.805 262.238 210.852 261.694C209.915 261.149 209.174 260.383 208.63 259.395C208.102 258.391 207.838 257.216 207.838 255.871C207.838 254.543 208.093 253.385 208.604 252.397C209.115 251.41 209.838 250.652 210.775 250.124C211.711 249.579 212.81 249.307 214.07 249.307C215.296 249.307 216.36 249.571 217.262 250.099C218.182 250.626 218.888 251.359 219.382 252.295C219.893 253.231 220.148 254.296 220.148 255.487C220.148 255.692 220.14 255.905 220.123 256.126C220.123 256.347 220.097 256.586 220.046 256.841H210.469C210.554 257.982 210.928 258.85 211.592 259.446C212.273 260.042 213.099 260.34 214.07 260.34C214.972 260.34 215.738 260.187 216.368 259.88C217.015 259.574 217.492 259.106 217.798 258.476L219.893 259.216C219.399 260.221 218.667 261.021 217.696 261.617C216.743 262.213 215.551 262.511 214.121 262.511ZM217.492 254.772C217.475 253.717 217.126 252.908 216.445 252.346C215.764 251.767 214.929 251.478 213.942 251.478C213.074 251.478 212.316 251.767 211.669 252.346C211.022 252.925 210.63 253.734 210.494 254.772H217.492ZM232.13 255.155C232.13 253.964 231.866 253.061 231.338 252.448C230.827 251.835 230.087 251.529 229.116 251.529C228.146 251.529 227.371 251.844 226.792 252.474C226.23 253.104 225.949 254.04 225.949 255.283V262.307H223.395V249.537H225.745L225.924 250.967C226.349 250.439 226.877 250.031 227.507 249.741C228.154 249.452 228.861 249.307 229.627 249.307C231.108 249.307 232.317 249.775 233.254 250.712C234.207 251.631 234.684 253.01 234.684 254.849V262.307H232.13V255.155ZM244 262.511C242.774 262.511 241.684 262.238 240.731 261.694C239.794 261.149 239.054 260.383 238.509 259.395C237.981 258.391 237.717 257.216 237.717 255.871C237.717 254.543 237.972 253.385 238.483 252.397C238.994 251.41 239.718 250.652 240.654 250.124C241.59 249.579 242.689 249.307 243.949 249.307C245.175 249.307 246.239 249.571 247.141 250.099C248.061 250.626 248.767 251.359 249.261 252.295C249.772 253.231 250.027 254.296 250.027 255.487C250.027 255.692 250.019 255.905 250.002 256.126C250.002 256.347 249.976 256.586 249.925 256.841H240.348C240.433 257.982 240.807 258.85 241.471 259.446C242.152 260.042 242.978 260.34 243.949 260.34C244.851 260.34 245.617 260.187 246.247 259.88C246.894 259.574 247.371 259.106 247.677 258.476L249.772 259.216C249.278 260.221 248.546 261.021 247.575 261.617C246.622 262.213 245.43 262.511 244 262.511ZM247.371 254.772C247.354 253.717 247.005 252.908 246.324 252.346C245.643 251.767 244.808 251.478 243.821 251.478C242.953 251.478 242.195 251.767 241.548 252.346C240.901 252.925 240.509 253.734 240.373 254.772H247.371ZM253.274 249.537H255.624L255.777 251.171C256.186 250.66 256.671 250.252 257.233 249.945C257.795 249.622 258.416 249.46 259.097 249.46C259.251 249.46 259.421 249.469 259.608 249.486C259.795 249.503 259.991 249.537 260.196 249.588V252.142C259.855 252.057 259.506 252.014 259.148 252.014C258.604 252.014 258.076 252.167 257.565 252.474C257.054 252.763 256.637 253.206 256.314 253.802C255.99 254.381 255.828 255.121 255.828 256.024V262.307H253.274V249.537ZM269.839 262.307L269.634 260.442C269.26 261.055 268.766 261.557 268.153 261.949C267.557 262.341 266.791 262.536 265.854 262.536C264.526 262.536 263.462 262.204 262.662 261.54C261.862 260.876 261.462 259.974 261.462 258.833C261.462 258.101 261.615 257.497 261.921 257.02C262.245 256.526 262.671 256.134 263.198 255.845C263.726 255.539 264.314 255.309 264.961 255.155C265.608 254.985 266.272 254.857 266.953 254.772C267.889 254.67 268.57 254.551 268.996 254.415C269.422 254.262 269.634 253.947 269.634 253.47C269.634 252.959 269.439 252.508 269.047 252.116C268.655 251.708 267.991 251.503 267.055 251.503C266.34 251.503 265.701 251.699 265.139 252.091C264.594 252.465 264.22 253.002 264.016 253.7L261.845 252.934C262.168 251.827 262.798 250.941 263.735 250.277C264.688 249.613 265.837 249.281 267.183 249.281C268.698 249.281 269.915 249.733 270.835 250.635C271.771 251.52 272.239 252.891 272.239 254.747V262.307H269.839ZM269.634 256.509L266.57 256.892C265.667 257.011 265.029 257.216 264.654 257.505C264.28 257.795 264.092 258.195 264.092 258.705C264.092 259.233 264.288 259.633 264.68 259.906C265.071 260.161 265.616 260.289 266.314 260.289C267.217 260.289 267.991 259.974 268.638 259.344C269.302 258.714 269.634 257.829 269.634 256.688V256.509ZM275.64 249.537C276.014 249.537 276.312 249.418 276.534 249.179C276.772 248.941 276.891 248.634 276.891 248.26V246.395H279.241V249.537H282.433V251.759H279.241V257.939C279.241 258.774 279.428 259.361 279.803 259.701C280.194 260.042 280.739 260.212 281.437 260.212C281.71 260.212 282.042 260.187 282.433 260.136V262.204C281.94 262.307 281.463 262.358 281.003 262.358C280.254 262.358 279.547 262.221 278.883 261.949C278.236 261.66 277.7 261.191 277.274 260.544C276.866 259.897 276.661 259.029 276.661 257.939V251.759H274.848V249.537H275.64ZM290.491 262.511C289.265 262.511 288.175 262.238 287.222 261.694C286.285 261.149 285.544 260.383 285 259.395C284.472 258.391 284.208 257.216 284.208 255.871C284.208 254.543 284.463 253.385 284.974 252.397C285.485 251.41 286.208 250.652 287.145 250.124C288.081 249.579 289.18 249.307 290.44 249.307C291.665 249.307 292.73 249.571 293.632 250.099C294.551 250.626 295.258 251.359 295.752 252.295C296.263 253.231 296.518 254.296 296.518 255.487C296.518 255.692 296.509 255.905 296.492 256.126C296.492 256.347 296.467 256.586 296.416 256.841H286.838C286.924 257.982 287.298 258.85 287.962 259.446C288.643 260.042 289.469 260.34 290.44 260.34C291.342 260.34 292.108 260.187 292.738 259.88C293.385 259.574 293.862 259.106 294.168 258.476L296.263 259.216C295.769 260.221 295.037 261.021 294.066 261.617C293.113 262.213 291.921 262.511 290.491 262.511ZM293.862 254.772C293.845 253.717 293.496 252.908 292.815 252.346C292.134 251.767 291.299 251.478 290.312 251.478C289.444 251.478 288.686 251.767 288.039 252.346C287.392 252.925 287 253.734 286.864 254.772H293.862ZM309.036 243.918H311.59V262.307H309.266L309.087 260.417C308.645 260.996 308.049 261.489 307.299 261.898C306.567 262.307 305.682 262.511 304.643 262.511C303.486 262.511 302.464 262.23 301.579 261.668C300.71 261.106 300.021 260.332 299.51 259.344C299.016 258.339 298.769 257.173 298.769 255.845C298.769 254.534 299.016 253.393 299.51 252.423C300.021 251.435 300.71 250.669 301.579 250.124C302.464 249.579 303.486 249.307 304.643 249.307C305.614 249.307 306.474 249.52 307.223 249.945C307.989 250.354 308.593 250.839 309.036 251.401V243.918ZM301.374 255.845C301.374 257.258 301.732 258.356 302.447 259.14C303.179 259.923 304.064 260.314 305.103 260.314C305.801 260.314 306.448 260.144 307.044 259.804C307.64 259.446 308.117 258.935 308.474 258.271C308.849 257.607 309.036 256.816 309.036 255.896C309.036 254.977 308.849 254.193 308.474 253.546C308.117 252.899 307.64 252.406 307.044 252.065C306.448 251.708 305.801 251.529 305.103 251.529C304.064 251.529 303.179 251.903 302.447 252.653C301.732 253.402 301.374 254.466 301.374 255.845Z" fill="#4D4D4D"/>
</g>
<defs>
<filter id="filter0_d_2293_6867" x="0.419922" y="0.421875" width="408.231" height="347.422" filterUnits="userSpaceOnUse" color-interpolation-filters="sRGB">
<feFlood flood-opacity="0" result="BackgroundImageFix"/>
<feColorMatrix in="SourceAlpha" type="matrix" values="0 0 0 0 0 0 0 0 0 0 0 0 0 0 0 0 0 0 127 0" result="hardAlpha"/>
<feOffset/>
<feGaussianBlur stdDeviation="7.5"/>
<feComposite in2="hardAlpha" operator="out"/>
<feColorMatrix type="matrix" values="0 0 0 0 0 0 0 0 0 0 0 0 0 0 0 0 0 0 0.1 0"/>
<feBlend mode="normal" in2="BackgroundImageFix" result="effect1_dropShadow_2293_6867"/>
<feBlend mode="normal" in="SourceGraphic" in2="effect1_dropShadow_2293_6867" result="shape"/>
</filter>
</defs>
</svg>
