<svg width="347" height="347" viewBox="0 0 347 347" fill="none" xmlns="http://www.w3.org/2000/svg">
<path d="M347 265.385H0V265.558H347V265.385Z" fill="#EBEBEB"/>
<path d="M114.226 276.088H91.2402V276.261H114.226V276.088Z" fill="#EBEBEB"/>
<path d="M179.635 274.207H173.604V274.381H179.635V274.207Z" fill="#EBEBEB"/>
<path d="M49.7251 271.277H36.4072V271.451H49.7251V271.277Z" fill="#EBEBEB"/>
<path d="M288.551 270.111H270.452V270.285H288.551V270.111Z" fill="#EBEBEB"/>
<path d="M264.268 270.111H248.001V270.285H264.268V270.111Z" fill="#EBEBEB"/>
<path d="M312.238 278.439H247.224V278.613H312.238V278.439Z" fill="#EBEBEB"/>
<path d="M164.478 234.433H30.4736C29.4238 234.431 28.4177 234.013 27.676 233.27C26.9344 232.527 26.5178 231.52 26.5178 230.47V42.098C26.527 41.0542 26.9475 40.0562 27.6882 39.3207C28.4289 38.5853 29.4298 38.1717 30.4736 38.1699H164.478C165.529 38.1699 166.537 38.5874 167.28 39.3306C168.023 40.0737 168.441 41.0817 168.441 42.1327V230.47C168.441 231.521 168.023 232.529 167.28 233.272C166.537 234.016 165.529 234.433 164.478 234.433ZM30.4736 38.3087C29.4699 38.3106 28.5078 38.7106 27.7987 39.421C27.0896 40.1314 26.6913 41.0942 26.6913 42.098V230.47C26.6913 231.474 27.0896 232.437 27.7987 233.147C28.5078 233.858 29.4699 234.258 30.4736 234.26H164.478C165.483 234.258 166.445 233.858 167.155 233.148C167.866 232.438 168.266 231.475 168.267 230.47V42.098C168.266 41.0936 167.866 40.1308 167.155 39.4206C166.445 38.7104 165.483 38.3106 164.478 38.3087H30.4736Z" fill="#EBEBEB"/>
<path d="M314.597 234.433H180.586C179.535 234.431 178.529 234.013 177.786 233.27C177.043 232.528 176.625 231.521 176.623 230.47V42.098C176.634 41.0536 177.056 40.0556 177.798 39.3203C178.54 38.585 179.541 38.1717 180.586 38.1699H314.597C315.64 38.1735 316.639 38.5879 317.378 39.3232C318.117 40.0584 318.537 41.0554 318.546 42.098V230.47C318.546 231.519 318.13 232.525 317.39 233.268C316.65 234.01 315.646 234.429 314.597 234.433ZM180.586 38.3087C179.581 38.3106 178.619 38.7104 177.908 39.4206C177.198 40.1308 176.798 41.0936 176.797 42.098V230.47C176.798 231.475 177.198 232.438 177.908 233.148C178.619 233.858 179.581 234.258 180.586 234.26H314.597C315.602 234.258 316.564 233.858 317.275 233.148C317.985 232.438 318.385 231.475 318.386 230.47V42.098C318.385 41.0936 317.985 40.1308 317.275 39.4206C316.564 38.7104 315.602 38.3106 314.597 38.3087H180.586Z" fill="#EBEBEB"/>
<path d="M252.151 117.362H272.61L270.195 68.1504H252.151V117.362Z" fill="#F5F5F5"/>
<path d="M292.979 124.941L297.393 138.696H292.979L265.934 124.941H292.979Z" fill="#F5F5F5"/>
<path d="M297.393 124.941V138.696L270.348 124.941H297.393Z" fill="#E6E6E6"/>
<path d="M175.068 124.941L179.482 138.696H175.068L148.023 124.941H175.068Z" fill="#F5F5F5"/>
<path d="M179.482 124.941V138.696L152.437 124.941H179.482Z" fill="#E6E6E6"/>
<path d="M305.284 117.439H287.83V125.504H305.284V117.439Z" fill="#E6E6E6"/>
<path d="M141.604 125.502L287.83 125.502V117.438L141.604 117.438V125.502Z" fill="#F5F5F5"/>
<path d="M191.967 117.362H266.01L271.437 57.7266H197.394L191.967 117.362Z" fill="#E6E6E6"/>
<path d="M189.691 117.362H263.741L269.168 57.7266H195.118L189.691 117.362Z" fill="#F0F0F0"/>
<path d="M260.049 110.762L265.018 64.3262H198.81L193.841 110.762H260.049Z" fill="white"/>
<path d="M287.149 261.533H304.375V177.767H287.149V261.533Z" fill="#F0F0F0"/>
<path d="M181.169 265.385H299.829V261.533H181.169V265.385Z" fill="#F0F0F0"/>
<path d="M287.149 177.768H176.623V261.533H287.149V177.768Z" fill="#F5F5F5"/>
<path d="M277.836 208.041H185.929V227.973H277.836V208.041Z" fill="#F0F0F0"/>
<path d="M277.836 234.127H185.929V254.059H277.836V234.127Z" fill="#F0F0F0"/>
<path d="M209.949 209.407H253.823C254.192 209.407 254.545 209.261 254.805 209C255.065 208.74 255.211 208.387 255.211 208.019C255.211 207.651 255.065 207.298 254.805 207.037C254.545 206.777 254.192 206.631 253.823 206.631H209.949C209.581 206.631 209.228 206.777 208.967 207.037C208.707 207.298 208.561 207.651 208.561 208.019C208.561 208.387 208.707 208.74 208.967 209C209.228 209.261 209.581 209.407 209.949 209.407Z" fill="#F5F5F5"/>
<path d="M209.949 235.489H253.823C254.192 235.489 254.545 235.343 254.805 235.082C255.065 234.822 255.211 234.469 255.211 234.101C255.211 233.733 255.065 233.38 254.805 233.119C254.545 232.859 254.192 232.713 253.823 232.713H209.949C209.581 232.713 209.228 232.859 208.967 233.119C208.707 233.38 208.561 233.733 208.561 234.101C208.561 234.469 208.707 234.822 208.967 235.082C209.228 235.343 209.581 235.489 209.949 235.489Z" fill="#F5F5F5"/>
<path d="M277.836 181.953H185.929V201.885H277.836V181.953Z" fill="#F0F0F0"/>
<path d="M209.949 183.321H253.823C254.192 183.321 254.545 183.175 254.805 182.914C255.065 182.654 255.211 182.301 255.211 181.933C255.211 181.565 255.065 181.212 254.805 180.951C254.545 180.691 254.192 180.545 253.823 180.545H209.949C209.581 180.545 209.228 180.691 208.967 180.951C208.707 181.212 208.561 181.565 208.561 181.933C208.561 182.301 208.707 182.654 208.967 182.914C209.228 183.175 209.581 183.321 209.949 183.321Z" fill="#F5F5F5"/>
<path d="M51.5017 254.385H144.664L144.664 64.2149H51.5017L51.5017 254.385Z" fill="#E6E6E6"/>
<path d="M47.9761 254.385H144.165L144.165 64.2149H47.9761L47.9761 254.385Z" fill="#F0F0F0"/>
<path d="M51.5017 257.662H144.664V254.386H51.5017V257.662Z" fill="#E6E6E6"/>
<path d="M42.098 257.662H138.286V254.386H42.098V257.662Z" fill="#F0F0F0"/>
<path d="M139.223 249.451V69.1562H52.9037L52.9037 249.451H139.223Z" fill="#FAFAFA"/>
<path d="M89.2693 249.452L97.1739 69.1504H110.846L102.941 249.452H89.2693Z" fill="white"/>
<path d="M136.94 123.394C137.04 123.394 137.136 123.355 137.208 123.285C137.279 123.215 137.32 123.119 137.322 123.019V72.3572C137.32 72.2572 137.279 72.1618 137.208 72.0918C137.136 72.0217 137.04 71.9824 136.94 71.9824C136.841 71.9824 136.745 72.0219 136.675 72.0922C136.605 72.1625 136.565 72.2578 136.565 72.3572V123.019C136.565 123.119 136.605 123.214 136.675 123.284C136.745 123.354 136.841 123.394 136.94 123.394Z" fill="#F0F0F0"/>
<path d="M105.877 249.452L113.781 69.1504H119.111L111.207 249.452H105.877Z" fill="white"/>
<path d="M53.5283 249.451L53.5283 69.1562H52.9037L52.9037 249.451H53.5283Z" fill="#E6E6E6"/>
<path opacity="0.5" d="M46.8035 75.5902H141.118L141.569 71.0723H47.2615L46.8035 75.5902Z" fill="#E0E0E0"/>
<path opacity="0.5" d="M46.8035 83.0307H141.118L141.569 78.5059H47.2615L46.8035 83.0307Z" fill="#E0E0E0"/>
<path opacity="0.5" d="M46.8035 90.4624H141.118L141.569 85.9375H47.2615L46.8035 90.4624Z" fill="#E0E0E0"/>
<path opacity="0.5" d="M46.8035 97.896H141.118L141.569 93.3711H47.2615L46.8035 97.896Z" fill="#E0E0E0"/>
<path opacity="0.5" d="M46.8035 105.328H141.118L141.569 100.811H47.2615L46.8035 105.328Z" fill="#E0E0E0"/>
<path opacity="0.5" d="M46.8035 112.767H141.118L141.569 108.242H47.2615L46.8035 112.767Z" fill="#E0E0E0"/>
<path d="M173.5 296.726C247.815 296.726 308.06 293.209 308.06 288.87C308.06 284.531 247.815 281.014 173.5 281.014C99.1848 281.014 38.9404 284.531 38.9404 288.87C38.9404 293.209 99.1848 296.726 173.5 296.726Z" fill="#F5F5F5"/>
<path d="M249.771 85.5417C249.973 85.3529 250.122 85.1133 250.201 84.8477C250.265 84.6311 250.279 84.4028 250.242 84.18C250.205 83.9572 250.118 83.7456 249.988 83.561C249.858 83.3763 249.688 83.2235 249.491 83.1138C249.293 83.0041 249.074 82.9404 248.848 82.9276C248.623 82.9147 248.397 82.9529 248.189 83.0394C247.98 83.1259 247.794 83.2583 247.644 83.427C247.493 83.5956 247.383 83.796 247.321 84.0131C247.259 84.2303 247.247 84.4587 247.286 84.6812C247.083 84.6937 246.881 84.7239 246.682 84.7714C246.499 84.3548 246.221 83.9868 245.87 83.6965C245.52 83.4061 245.106 83.2015 244.663 83.0988C244.549 83.0747 244.432 83.0608 244.316 83.0572C244.348 82.8901 244.366 82.7207 244.371 82.5506C244.839 82.3707 245.257 82.0829 245.592 81.7106C245.927 81.3384 246.17 80.8922 246.299 80.4084C246.429 79.9247 246.443 79.4171 246.34 78.927C246.236 78.437 246.018 77.9783 245.704 77.5885C246.372 77.2929 246.917 76.7736 247.244 76.1198C247.571 75.4661 247.66 74.7188 247.496 74.0065C247.331 73.2942 246.924 72.6614 246.344 72.217C245.763 71.7726 245.046 71.5444 244.316 71.5715C244.287 70.7047 243.974 69.8714 243.424 69.2004C242.875 68.5293 242.12 68.0578 241.276 67.8586C241.114 67.8242 240.949 67.8033 240.783 67.7961C240.657 67.2657 240.386 66.7809 240 66.396C239.614 66.0112 239.128 65.7414 238.597 65.617C238.222 65.5236 237.832 65.5094 237.452 65.5753C236.919 64.8427 236.145 64.3217 235.266 64.1041C234.761 63.9857 234.236 63.9721 233.726 64.064C233.215 64.1559 232.728 64.3514 232.296 64.6384C231.68 64.3515 231.002 64.2258 230.324 64.2731C229.647 64.3205 228.993 64.5393 228.423 64.9091C227.683 64.4426 226.813 64.2235 225.94 64.2834C225.067 64.3433 224.235 64.679 223.565 65.2422C222.763 65.0572 221.92 65.1981 221.221 65.6339C220.522 66.0698 220.025 66.7651 219.838 67.5671C219.753 67.9287 219.737 68.303 219.79 68.6706C219.444 68.6231 219.092 68.6633 218.766 68.7874C218.44 68.9115 218.15 69.1156 217.923 69.381C217.697 69.6463 217.54 69.9644 217.469 70.3059C217.397 70.6474 217.412 71.0015 217.513 71.3355C216.855 71.5949 216.256 71.9848 215.752 72.4817C215.248 72.9787 214.85 73.5724 214.581 74.2273C214.313 74.8821 214.18 75.5845 214.19 76.2921C214.2 76.9998 214.353 77.698 214.64 78.3449C214.452 78.5669 214.321 78.8313 214.259 79.1153C214.169 79.5014 214.205 79.9059 214.361 80.2702C214.517 80.6346 214.785 80.9398 215.126 81.1418C214.828 81.568 214.619 82.0497 214.511 82.5583C214.403 83.0669 214.397 83.592 214.496 84.1026C214.594 84.6132 214.794 85.0989 215.083 85.5308C215.373 85.9628 215.746 86.3323 216.181 86.6174C216.083 86.9334 216.056 87.2671 216.101 87.5948C216.146 87.9225 216.263 88.2362 216.443 88.5137C216.624 88.7912 216.862 89.0257 217.143 89.2005C217.424 89.3753 217.74 89.4862 218.069 89.5253C217.96 90.2634 218.138 91.0152 218.566 91.6258C218.995 92.2365 219.641 92.6596 220.373 92.8079C220.404 93.1231 220.506 93.4271 220.672 93.6968C220.839 93.9664 221.064 94.1946 221.332 94.3639C221.599 94.5332 221.902 94.6392 222.217 94.6739C222.532 94.7085 222.851 94.6708 223.149 94.5637V94.5984C223.503 95.0186 224.005 95.2868 224.551 95.3475C225.098 95.4082 225.646 95.2568 226.084 94.9246C226.684 95.3846 227.405 95.6588 228.159 95.7132C228.913 95.7675 229.666 95.5997 230.326 95.2305C230.985 94.8612 231.522 94.3068 231.87 93.6357C232.217 92.9646 232.361 92.2063 232.282 91.4546C232.312 91.5002 232.344 91.5442 232.379 91.5865C232.627 91.8861 232.932 92.1334 233.277 92.3137C233.622 92.4941 233.999 92.6039 234.387 92.6369C234.774 92.6698 235.165 92.6252 235.535 92.5056C235.905 92.386 236.248 92.1939 236.543 91.9404L240.013 89.4767C240.468 89.5807 240.945 89.5341 241.372 89.3439C241.799 89.1537 242.152 88.8301 242.379 88.4218C242.683 88.6302 243.022 88.7829 243.379 88.8729C243.67 88.936 243.97 88.9548 244.267 88.9284C244.267 89.0325 244.323 89.1366 244.357 89.2407C244.135 89.4946 243.973 89.7961 243.885 90.1221C243.72 90.7203 243.799 91.3598 244.104 91.8999C244.41 92.4401 244.918 92.8366 245.516 93.0022C246.115 93.1679 246.754 93.0891 247.294 92.7833C247.834 92.4774 248.231 91.9695 248.396 91.3713C248.995 91.2228 249.541 90.9138 249.976 90.4777C250.412 90.0416 250.72 89.495 250.868 88.8966C251.016 88.2982 250.998 87.6709 250.815 87.0821C250.633 86.4934 250.293 85.9656 249.833 85.5556L249.771 85.5417Z" fill="#263238"/>
<path d="M236.314 154.761C236.314 154.761 232.032 185.623 228.208 205.888C224.197 227.173 209.185 275.17 208.54 276.614L214.203 279.119C214.203 279.119 239.742 238.617 240.332 213.578C250.291 198.31 255.926 180.96 257.682 171.077C259.903 158.585 254.906 147.439 254.906 147.439L236.314 154.761Z" fill="#263238"/>
<path opacity="0.2" d="M252.352 168.545C252.352 168.594 252.311 168.656 252.283 168.718C250.125 173.236 248.986 181.294 248.986 188.844C248.977 191.454 249.13 194.061 249.445 196.652C252.379 190.086 254.752 183.284 256.537 176.318L252.352 168.545Z" fill="black"/>
<path d="M205.029 282.658C205.029 282.658 206.59 281.534 208.54 276.586C208.54 276.586 212.045 276.857 214.203 279.091C212.663 282.422 210.872 285.407 210.872 285.407L205.029 282.658Z" fill="#7F3E3B"/>
<path d="M212.121 283.491L205.48 280.833C205.34 280.784 205.189 280.784 205.049 280.833C204.092 281.138 199.497 281.465 194.008 279.924L193.085 280.902C198.139 284.293 203.652 286.943 209.456 288.772C209.67 288.86 209.901 288.899 210.132 288.886C210.362 288.874 210.588 288.811 210.791 288.702C210.995 288.592 211.172 288.439 211.309 288.253C211.447 288.068 211.542 287.854 211.587 287.627C211.791 286.518 212.093 285.429 212.489 284.372C212.552 284.206 212.549 284.022 212.481 283.858C212.412 283.694 212.284 283.563 212.121 283.491Z" fill="#8778F7"/>
<path d="M204.57 128.749L203.509 127.292C202.93 126.49 202.164 125.842 201.277 125.404C200.391 124.966 199.41 124.752 198.422 124.78C197.98 124.792 197.553 124.938 197.196 125.199C196.84 125.459 196.57 125.821 196.423 126.237L195.562 128.708C195.379 129.225 195.398 129.792 195.616 130.295C195.834 130.798 196.233 131.201 196.735 131.421L197.901 131.942C197.901 131.942 201.781 134.204 205.091 133.864L205.334 132.976C205.532 132.259 205.567 131.507 205.435 130.776C205.302 130.044 205.007 129.351 204.57 128.749Z" fill="#7F3E3B"/>
<path d="M233.781 119.43L233.816 119.978V120.429V121.31C233.816 121.887 233.816 122.449 233.816 123.011C233.774 124.142 233.663 125.259 233.517 126.37C233.216 128.619 232.691 130.832 231.949 132.977C230.465 137.471 227.834 141.499 224.315 144.664L223.982 144.962L223.815 145.108L223.732 145.184L223.524 145.351C222.888 145.862 222.16 146.246 221.379 146.482C220.227 146.814 219.011 146.854 217.84 146.6C216.44 146.271 215.104 145.715 213.884 144.955C212.009 143.782 210.256 142.425 208.651 140.902C207.117 139.472 205.695 138.001 204.342 136.467C202.988 134.934 201.725 133.393 200.511 131.7C200.173 131.222 200.017 130.64 200.069 130.057C200.122 129.475 200.38 128.93 200.797 128.521C201.214 128.111 201.763 127.863 202.347 127.821C202.93 127.779 203.509 127.946 203.981 128.292L204.036 128.334C207.09 130.631 210.192 133.018 213.28 135.038C214.708 136.019 216.214 136.881 217.784 137.613C218.261 137.859 218.783 138.007 219.318 138.05C219.374 138.05 219.249 137.946 218.693 138.05C218.384 138.142 218.095 138.29 217.84 138.487H217.791L217.84 138.431L217.937 138.327L218.138 138.119C219.193 136.973 220.102 135.7 220.845 134.33C221.599 132.913 222.206 131.422 222.656 129.881C223.127 128.293 223.463 126.668 223.662 125.023C223.773 124.191 223.836 123.344 223.891 122.511C223.891 122.095 223.926 121.671 223.933 121.269V119.798C223.906 119.152 224.006 118.507 224.228 117.9C224.45 117.293 224.789 116.736 225.226 116.26C225.663 115.784 226.19 115.399 226.776 115.126C227.362 114.854 227.996 114.7 228.642 114.672C229.288 114.645 229.932 114.745 230.539 114.967C231.146 115.189 231.704 115.528 232.18 115.965C232.656 116.403 233.041 116.929 233.313 117.515C233.586 118.101 233.74 118.735 233.767 119.381L233.781 119.43Z" fill="#7F3E3B"/>
<path d="M262.762 145.955C262.762 145.955 269.779 150.563 272.367 162.986C274.449 172.806 273.061 187.859 271.132 208.332C282.513 228.791 272.763 278.238 272.763 278.238H266.579C266.642 276.663 260.541 228.645 256.35 207.395C252.366 187.158 241.838 148.641 241.838 148.641L262.762 145.955Z" fill="#263238"/>
<path d="M265.566 284.962C265.566 284.962 266.6 283.338 266.572 278.022C266.572 278.022 270.271 277.085 272.763 278.244C272.569 281.915 272.27 285.461 272.27 285.461L265.566 284.962Z" fill="#7F3E3B"/>
<path d="M272.742 282.992H265.587C265.437 282.991 265.292 283.042 265.177 283.138C261.89 285.245 258.251 286.747 254.434 287.573L254.08 288.87H272.215C272.446 288.871 272.675 288.821 272.884 288.723C273.094 288.626 273.28 288.483 273.428 288.305C273.577 288.128 273.684 287.92 273.743 287.696C273.802 287.472 273.811 287.238 273.769 287.01C273.55 285.906 273.425 284.784 273.394 283.658C273.388 283.486 273.317 283.323 273.197 283.199C273.076 283.076 272.914 283.002 272.742 282.992Z" fill="#8778F7"/>
<path d="M224.62 122.781C225.314 125.439 222.379 132.532 228.354 135.023C230.11 140.311 232.053 146.585 236.314 154.733L262.762 145.954C258.251 136.862 258.251 132.074 258.217 114.03C258.216 113.042 258.007 112.066 257.604 111.164C257.201 110.263 256.613 109.456 255.878 108.796C255.143 108.136 254.278 107.639 253.338 107.335C252.398 107.032 251.405 106.929 250.423 107.034C249.313 107.152 248.14 107.305 246.953 107.499C242.769 108.067 238.631 108.937 234.572 110.102C233.26 110.504 231.914 110.962 230.63 111.427C228.397 112.234 226.544 113.845 225.433 115.944C224.322 118.043 224.032 120.48 224.62 122.781Z" fill="#8778F7"/>
<path opacity="0.3" d="M234.572 110.102C234.572 110.102 228.652 115.945 235.453 124.78C237.487 117.347 246.953 107.492 246.953 107.492L234.572 110.102Z" fill="white"/>
<path d="M242.782 93.8066C242.844 97.9706 243.601 105.417 246.946 107.492C246.946 107.492 239.243 113.079 234.919 120.255C231.449 115.307 234.565 110.102 234.565 110.102C238.785 108.103 237.973 104.827 236.55 101.899L242.782 93.8066Z" fill="#7F3E3B"/>
<path opacity="0.2" d="M252.429 114.418L258.231 117.652L258.307 125.661C255.684 122.795 252.817 117.541 252.436 114.481C252.436 114.481 252.436 114.432 252.436 114.404L252.429 114.418Z" fill="black"/>
<path opacity="0.2" d="M240.242 97.1113L236.55 101.893C236.894 102.572 237.177 103.281 237.397 104.01C239.042 103.413 240.985 101.053 240.79 99.2419C240.741 98.5039 240.555 97.7814 240.242 97.1113Z" fill="black"/>
<path d="M245.447 85.611C245.26 92.4191 245.322 95.327 242.067 98.9011C237.174 104.307 229.02 102.572 227.209 95.8405C225.585 89.7819 226.168 79.6703 232.601 76.7555C239.034 73.8407 245.676 78.8098 245.447 85.611Z" fill="#7F3E3B"/>
<path d="M240.367 78.1232C235.27 80.1927 229.823 81.2669 224.322 81.2879C224.322 81.2879 238.278 66.1934 240.367 78.1232Z" fill="#263238"/>
<path d="M240.818 75.0069C237.348 78.2618 236.252 87.5683 245.121 89.449C249.222 87.3185 255.024 72.3281 240.818 75.0069Z" fill="#263238"/>
<path d="M235.856 87.7071C235.856 88.2623 235.599 88.7204 235.238 88.7273C234.877 88.7343 234.544 88.304 234.544 87.7488C234.544 87.1936 234.801 86.7355 235.162 86.7286C235.523 86.7217 235.842 87.1519 235.856 87.7071Z" fill="#263238"/>
<path d="M229.062 88.0268C229.062 88.5751 228.798 89.0331 228.437 89.047C228.076 89.0609 227.743 88.6167 227.743 88.0685C227.743 87.5202 228.007 87.0552 228.368 87.0414C228.729 87.0275 229.02 87.4439 229.062 88.0268Z" fill="#263238"/>
<path d="M228.534 87.0686L227.195 86.7285C227.195 86.7285 227.91 87.7418 228.534 87.0686Z" fill="#263238"/>
<path d="M230.984 88.5957C230.533 89.8743 229.907 91.0841 229.124 92.1906C229.412 92.3835 229.74 92.5108 230.083 92.5636C230.425 92.6163 230.776 92.5933 231.109 92.496L230.984 88.5957Z" fill="#630F0F"/>
<path d="M234.357 94.7088C234.054 94.776 233.744 94.8132 233.434 94.8198C233.413 94.8218 233.391 94.8193 233.371 94.8125C233.351 94.8057 233.332 94.7947 233.317 94.7803C233.301 94.766 233.289 94.7485 233.28 94.729C233.272 94.7095 233.267 94.6884 233.267 94.6672C233.265 94.6241 233.28 94.582 233.309 94.5496C233.337 94.5173 233.377 94.4972 233.42 94.4937C234.109 94.4892 234.787 94.3215 235.399 94.0042C236.01 93.6869 236.538 93.2291 236.939 92.6684C236.949 92.6502 236.964 92.6343 236.981 92.6217C236.998 92.609 237.017 92.5998 237.038 92.5947C237.059 92.5895 237.08 92.5885 237.101 92.5916C237.122 92.5947 237.142 92.602 237.161 92.6129C237.179 92.6238 237.195 92.6383 237.207 92.6553C237.22 92.6724 237.229 92.6918 237.234 92.7125C237.24 92.7331 237.241 92.7545 237.237 92.7755C237.234 92.7966 237.227 92.8168 237.216 92.835C236.545 93.8095 235.518 94.4821 234.357 94.7088Z" fill="#263238"/>
<path d="M246.988 89.6437C246.857 90.249 246.599 90.8197 246.232 91.3185C245.865 91.8172 245.396 92.2327 244.857 92.5377C243.469 93.2317 242.386 91.7881 242.463 90.0531C242.525 88.4916 243.33 86.2431 244.878 86.25C246.426 86.257 247.362 88.0405 246.988 89.6437Z" fill="#7F3E3B"/>
<path d="M236.966 83.8631C236.923 83.8617 236.88 83.8511 236.84 83.832C236.801 83.8129 236.766 83.7857 236.737 83.7521C236.478 83.4379 236.147 83.1894 235.774 83.0266C235.4 82.8639 234.993 82.7914 234.586 82.8152C234.501 82.8252 234.415 82.802 234.346 82.7503C234.278 82.6985 234.232 82.6224 234.218 82.5376C234.206 82.452 234.229 82.3652 234.281 82.2963C234.333 82.2273 234.41 82.1818 234.496 82.1698C235.011 82.1299 235.528 82.2144 236.004 82.416C236.48 82.6177 236.9 82.9307 237.23 83.3288C237.259 83.3608 237.28 83.3982 237.294 83.4388C237.308 83.4794 237.313 83.5224 237.31 83.5651C237.307 83.6079 237.295 83.6495 237.275 83.6876C237.256 83.7257 237.228 83.7594 237.195 83.7868C237.164 83.8144 237.128 83.8354 237.089 83.8486C237.049 83.8617 237.008 83.8666 236.966 83.8631Z" fill="#263238"/>
<path d="M226.709 85.0001C226.668 85.0104 226.625 85.012 226.583 85.0048C226.541 84.9977 226.501 84.9819 226.466 84.9584C226.43 84.9364 226.398 84.9074 226.373 84.873C226.348 84.8386 226.33 84.7996 226.321 84.7582C226.311 84.7169 226.31 84.674 226.317 84.6321C226.324 84.5902 226.339 84.5501 226.362 84.5143C226.622 84.0692 226.986 83.6932 227.422 83.4178C227.858 83.1425 228.354 82.9758 228.867 82.9319C228.91 82.9301 228.952 82.9367 228.992 82.9515C229.032 82.9663 229.069 82.9889 229.1 83.018C229.131 83.0471 229.156 83.0821 229.173 83.1209C229.19 83.1598 229.2 83.2017 229.2 83.2442C229.202 83.2867 229.196 83.3292 229.181 83.3691C229.166 83.409 229.143 83.4455 229.114 83.4765C229.085 83.5076 229.05 83.5325 229.011 83.5498C228.973 83.5671 228.931 83.5765 228.888 83.5774C228.482 83.6181 228.091 83.7552 227.748 83.9773C227.405 84.1994 227.12 84.5001 226.917 84.8543C226.894 84.8916 226.864 84.9237 226.828 84.9488C226.792 84.9739 226.752 84.9913 226.709 85.0001Z" fill="#263238"/>
<path d="M235.335 86.7502L233.989 86.4102C233.989 86.4102 234.704 87.4442 235.335 86.7502Z" fill="#263238"/>
<path d="M265.802 144.822L260.868 145.676L265.726 152.214C265.726 152.214 269.459 149.729 270.618 146.606L269.924 145.995C269.368 145.505 268.709 145.145 267.996 144.942C267.283 144.739 266.533 144.698 265.802 144.822Z" fill="#7F3E3B"/>
<path d="M259.993 151.028L261.832 152.895C262.216 153.288 262.735 153.52 263.283 153.546C263.832 153.572 264.37 153.389 264.789 153.034L265.767 152.215L260.909 145.678L259.556 148.599C259.375 149.001 259.32 149.448 259.398 149.882C259.476 150.315 259.683 150.715 259.993 151.028Z" fill="#7F3E3B"/>
<path d="M255.566 108.048C256.204 108.257 256.669 108.423 257.203 108.624C257.738 108.826 258.224 109.02 258.73 109.221C259.737 109.624 260.729 110.068 261.707 110.526C263.672 111.435 265.58 112.462 267.461 113.566C271.309 115.806 274.85 118.535 277.996 121.685C278.398 122.095 278.787 122.518 279.169 122.948L279.738 123.601L279.876 123.767L280.133 124.073C280.374 124.375 280.587 124.698 280.772 125.037C281.094 125.642 281.328 126.289 281.466 126.96C281.57 127.492 281.621 128.034 281.618 128.577C281.6 129.409 281.484 130.236 281.271 131.041C280.934 132.288 280.468 133.497 279.883 134.649C279.356 135.704 278.78 136.669 278.19 137.606C277.025 139.419 275.748 141.157 274.366 142.811C273.02 144.444 271.583 146.001 270.063 147.474C269.642 147.887 269.087 148.135 268.499 148.174C267.911 148.212 267.328 148.039 266.857 147.684C266.386 147.33 266.058 146.818 265.932 146.242C265.805 145.667 265.89 145.065 266.17 144.546L266.212 144.469C268.065 140.999 270.001 137.453 271.458 134.011C271.826 133.157 272.152 132.304 272.409 131.492C272.663 130.789 272.838 130.061 272.929 129.319C272.969 129.136 272.969 128.947 272.929 128.764C272.929 128.764 272.895 128.764 272.929 128.868C272.949 129.044 273.003 129.214 273.089 129.368C273.146 129.491 273.215 129.607 273.297 129.715L273.36 129.791L273.297 129.729L273.179 129.618L272.714 129.16C272.388 128.861 272.069 128.556 271.729 128.265C268.925 125.884 265.872 123.813 262.624 122.088C260.979 121.179 259.272 120.346 257.55 119.548C256.69 119.152 255.822 118.771 254.955 118.403L253.657 117.861L252.443 117.383L252.248 117.306C251.072 116.824 250.128 115.906 249.614 114.743C249.099 113.581 249.053 112.265 249.486 111.07C249.918 109.875 250.796 108.893 251.936 108.33C253.075 107.767 254.388 107.666 255.6 108.048H255.566Z" fill="#7F3E3B"/>
<path d="M225.078 78.5813C224.322 78.8797 224.96 82.0513 226.237 82.1554C227.757 81.5516 242.157 78.3106 249.833 79.8929C250.902 78.9144 249.361 75.6387 247.467 75.4028C239.857 74.6753 232.184 75.7647 225.078 78.5813Z" fill="#8778F7"/>
<path d="M186.526 272.693H97.5208C96.7159 272.697 95.9187 272.537 95.1776 272.223C94.4366 271.909 93.7672 271.447 93.2101 270.866C92.6531 270.285 92.2202 269.597 91.9376 268.843C91.655 268.089 91.5287 267.286 91.5663 266.482L99.0129 86.3959C99.0994 84.7329 99.8165 83.1654 101.018 82.0127C102.22 80.86 103.816 80.2087 105.481 80.1915H194.487C195.291 80.1869 196.088 80.3461 196.829 80.6594C197.57 80.9728 198.24 81.4338 198.797 82.0143C199.354 82.5948 199.787 83.2826 200.07 84.0359C200.352 84.7892 200.479 85.5922 200.441 86.3959L192.994 266.496C192.905 268.157 192.186 269.722 190.985 270.873C189.784 272.024 188.19 272.674 186.526 272.693Z" fill="#8778F7"/>
<path opacity="0.3" d="M186.526 272.693H97.5208C96.7159 272.697 95.9187 272.537 95.1776 272.223C94.4366 271.909 93.7672 271.447 93.2101 270.866C92.6531 270.285 92.2202 269.597 91.9376 268.843C91.655 268.089 91.5287 267.286 91.5663 266.482L99.0129 86.3959C99.0994 84.7329 99.8165 83.1654 101.018 82.0127C102.22 80.86 103.816 80.2087 105.481 80.1915H194.487C195.291 80.1869 196.088 80.3461 196.829 80.6594C197.57 80.9728 198.24 81.4338 198.797 82.0143C199.354 82.5948 199.787 83.2826 200.07 84.0359C200.352 84.7892 200.479 85.5922 200.441 86.3959L192.994 266.496C192.905 268.157 192.186 269.722 190.985 270.873C189.784 272.024 188.19 272.674 186.526 272.693Z" fill="black"/>
<path d="M84.1256 251.987L83.5229 266.486L84.2164 266.515L84.819 252.016L84.1256 251.987Z" fill="#8778F7"/>
<path d="M87.7006 274.053C86.4174 273.323 85.3516 272.264 84.6123 270.986L85.2161 270.639C85.8928 271.8 86.8681 272.758 88.0407 273.415L87.7006 274.053Z" fill="#8778F7"/>
<path d="M180.912 272.693H91.9064C91.1012 272.698 90.3036 272.539 89.562 272.225C88.8205 271.911 88.1507 271.449 87.5935 270.868C87.0363 270.287 86.6033 269.598 86.3211 268.844C86.0389 268.09 85.9132 267.286 85.9519 266.482L93.3985 86.3959C93.4833 84.7335 94.1989 83.1661 95.3995 82.0132C96.6001 80.8603 98.1952 80.2088 99.8597 80.1915H188.872C189.676 80.1868 190.473 80.346 191.214 80.6595C191.955 80.9729 192.624 81.434 193.18 82.0146C193.737 82.5952 194.169 83.2832 194.451 84.0364C194.733 84.7897 194.858 85.5925 194.82 86.3959L187.38 266.496C187.292 268.158 186.574 269.723 185.372 270.875C184.171 272.026 182.576 272.676 180.912 272.693Z" fill="#8778F7"/>
<path d="M92.0104 270.029C91.5505 270.032 91.0947 269.941 90.6709 269.762C90.2472 269.584 89.8644 269.32 89.546 268.988C89.2277 268.656 88.9804 268.263 88.8195 267.832C88.6585 267.401 88.5871 266.942 88.6098 266.482L96.0564 86.3961C96.1041 85.4458 96.5128 84.5497 97.199 83.8906C97.8852 83.2315 98.7971 82.8592 99.7485 82.8498H188.768C189.228 82.8454 189.684 82.9352 190.109 83.1138C190.533 83.2923 190.916 83.5558 191.235 83.888C191.553 84.2203 191.8 84.6141 191.961 85.0455C192.122 85.4768 192.192 85.9364 192.169 86.3961L184.715 266.496C184.667 267.446 184.259 268.342 183.572 269.002C182.886 269.661 181.974 270.033 181.023 270.042L92.0104 270.029Z" fill="white"/>
<path opacity="0.2" d="M178.941 251.228H95.6608C95.3542 251.231 95.0503 251.17 94.7679 251.051C94.4854 250.931 94.2304 250.755 94.0185 250.534C93.8066 250.312 93.6423 250.049 93.5356 249.762C93.429 249.474 93.3823 249.168 93.3984 248.862L99.7623 94.8979C99.7925 94.2632 100.065 93.6642 100.523 93.224C100.981 92.7839 101.591 92.536 102.226 92.5314H185.506C185.813 92.5281 186.118 92.5878 186.401 92.7069C186.684 92.8259 186.94 93.0017 187.153 93.2235C187.366 93.4453 187.531 93.7083 187.638 93.9962C187.745 94.2842 187.792 94.5911 187.775 94.8979L181.411 248.862C181.38 249.497 181.106 250.096 180.647 250.536C180.187 250.976 179.577 251.224 178.941 251.228Z" fill="#8778F7"/>
<path opacity="0.2" d="M136.662 266.975C135.791 266.981 134.927 266.81 134.124 266.471C133.321 266.133 132.595 265.634 131.992 265.005C131.388 264.376 130.919 263.63 130.614 262.814C130.308 261.998 130.173 261.127 130.215 260.257C130.303 258.468 131.07 256.78 132.36 255.537C133.649 254.294 135.364 253.589 137.155 253.567C138.027 253.56 138.892 253.731 139.695 254.07C140.499 254.41 141.225 254.909 141.829 255.539C142.432 256.169 142.901 256.915 143.206 257.732C143.511 258.549 143.646 259.42 143.602 260.291C143.513 262.079 142.745 263.765 141.455 265.007C140.166 266.249 138.452 266.952 136.662 266.975ZM137.176 254.483C135.611 254.498 134.11 255.111 132.982 256.196C131.853 257.281 131.181 258.756 131.103 260.319C131.065 261.07 131.18 261.821 131.442 262.525C131.704 263.23 132.107 263.873 132.628 264.416C133.148 264.959 133.773 265.39 134.466 265.682C135.159 265.974 135.904 266.121 136.655 266.114C138.22 266.098 139.719 265.487 140.847 264.403C141.976 263.32 142.649 261.847 142.728 260.285C142.768 259.533 142.653 258.782 142.392 258.076C142.13 257.371 141.727 256.727 141.207 256.183C140.686 255.64 140.06 255.208 139.367 254.916C138.674 254.623 137.928 254.476 137.176 254.483Z" fill="#8778F7"/>
<path opacity="0.6" d="M162.083 222.634C175.291 209.695 175.933 188.931 163.517 176.257C151.101 163.583 130.329 163.797 117.121 176.736C103.913 189.675 103.271 210.439 115.686 223.113C128.102 235.787 148.875 235.572 162.083 222.634Z" fill="#8778F7"/>
<path d="M154.762 207.978L155.137 198.81C155.491 190.399 149.245 183.244 140.854 182.945C136.598 182.831 132.466 184.389 129.343 187.284C126.221 190.179 124.357 194.182 124.15 198.435L123.754 207.978C123.734 208.434 123.537 208.864 123.206 209.179L120.756 211.524C120.425 211.842 120.229 212.274 120.208 212.732C120.196 212.952 120.23 213.173 120.307 213.379C120.384 213.586 120.503 213.775 120.656 213.934C120.808 214.094 120.992 214.22 121.196 214.306C121.399 214.391 121.618 214.434 121.839 214.432H156.15C156.606 214.427 157.043 214.249 157.372 213.933C157.701 213.617 157.897 213.187 157.92 212.732C157.93 212.51 157.895 212.289 157.818 212.082C157.74 211.874 157.622 211.685 157.469 211.524L155.22 209.179C155.065 209.021 154.945 208.832 154.866 208.626C154.787 208.419 154.752 208.199 154.762 207.978Z" fill="white"/>
<path d="M143.144 177.754C143.11 178.468 142.803 179.14 142.286 179.633C141.769 180.125 141.082 180.399 140.368 180.399C140.026 180.401 139.686 180.333 139.371 180.2C139.056 180.066 138.771 179.869 138.534 179.622C138.298 179.374 138.114 179.081 137.995 178.76C137.876 178.439 137.824 178.096 137.842 177.754C137.878 177.043 138.186 176.372 138.703 175.881C139.219 175.39 139.905 175.116 140.618 175.117C140.96 175.115 141.299 175.182 141.614 175.316C141.928 175.449 142.213 175.645 142.449 175.892C142.686 176.139 142.869 176.431 142.989 176.751C143.108 177.072 143.161 177.413 143.144 177.754Z" fill="white"/>
<path d="M135.399 216.875C135.174 216.872 134.952 216.922 134.749 217.021C134.547 217.12 134.371 217.266 134.236 217.445C134.101 217.625 134.01 217.835 133.971 218.056C133.932 218.278 133.946 218.506 134.011 218.721C134.342 219.687 134.969 220.523 135.802 221.113C136.636 221.702 137.633 222.014 138.654 222.004C139.704 221.994 140.729 221.678 141.603 221.095C142.477 220.512 143.162 219.687 143.575 218.721C143.662 218.52 143.699 218.3 143.68 218.082C143.661 217.863 143.588 217.652 143.468 217.469C143.347 217.286 143.183 217.135 142.989 217.032C142.796 216.928 142.58 216.874 142.36 216.875H135.399Z" fill="white"/>
<path d="M157.83 136.171H54.7636C53.8327 136.175 52.9107 135.989 52.0539 135.625C51.197 135.261 50.4233 134.726 49.7798 134.054C49.1363 133.381 48.6365 132.584 48.311 131.712C47.9854 130.84 47.8408 129.911 47.886 128.981L48.4967 114.143C48.5972 112.217 49.4273 110.402 50.8183 109.067C52.2093 107.731 54.0568 106.975 55.985 106.953H159.037C159.969 106.948 160.892 107.133 161.75 107.497C162.608 107.86 163.383 108.395 164.028 109.067C164.672 109.74 165.174 110.537 165.5 111.41C165.827 112.282 165.973 113.212 165.928 114.143L165.318 128.981C165.216 130.906 164.385 132.72 162.994 134.055C161.604 135.391 159.757 136.147 157.83 136.171Z" fill="#00A16B"/>
<path opacity="0.3" d="M157.83 136.171H54.7636C53.8327 136.175 52.9107 135.989 52.0539 135.625C51.197 135.261 50.4233 134.726 49.7798 134.054C49.1363 133.381 48.6365 132.584 48.311 131.712C47.9854 130.84 47.8408 129.911 47.886 128.981L48.4967 114.143C48.5972 112.217 49.4273 110.402 50.8183 109.067C52.2093 107.731 54.0568 106.975 55.985 106.953H159.037C159.969 106.948 160.892 107.133 161.75 107.497C162.608 107.86 163.383 108.395 164.028 109.067C164.672 109.74 165.174 110.537 165.5 111.41C165.827 112.282 165.973 113.212 165.928 114.143L165.318 128.981C165.216 130.906 164.385 132.72 162.994 134.055C161.604 135.391 159.757 136.147 157.83 136.171Z" fill="black"/>
<path d="M151.292 136.171H48.2608C47.3287 136.175 46.4054 135.99 45.547 135.627C44.6886 135.264 43.9132 134.729 43.2679 134.057C42.6226 133.384 42.1208 132.587 41.7933 131.715C41.4657 130.842 41.3191 129.912 41.3624 128.981L41.9801 114.143C42.0789 112.217 42.9085 110.401 44.2998 109.065C45.6912 107.729 47.5396 106.974 49.4683 106.953H152.527C153.459 106.948 154.383 107.133 155.241 107.497C156.099 107.86 156.875 108.394 157.52 109.067C158.166 109.74 158.667 110.536 158.995 111.409C159.322 112.282 159.469 113.212 159.426 114.143L158.808 128.981C158.709 130.912 157.875 132.732 156.478 134.069C155.081 135.405 153.226 136.157 151.292 136.171Z" fill="#00A16B"/>
<path d="M71.4812 115.953H78.8782V117.396H76.0702V125.053H74.2892V117.396H71.4812V115.953ZM81.1397 122.128C81.1397 122.613 81.2481 122.986 81.4647 123.246C81.6814 123.497 81.9891 123.623 82.3877 123.623C82.7864 123.623 83.0984 123.497 83.3237 123.246C83.5491 122.986 83.6617 122.609 83.6617 122.115V118.553H85.4557V125.053H83.8177L83.7007 124.351C83.4841 124.593 83.2241 124.784 82.9207 124.923C82.6174 125.061 82.2881 125.131 81.9327 125.131C81.1614 125.131 80.5417 124.892 80.0737 124.416C79.6057 123.93 79.3717 123.237 79.3717 122.336V118.553H81.1397V122.128ZM87.1561 118.553H88.7811L88.8981 119.385C89.0974 119.125 89.3358 118.917 89.6131 118.761C89.8904 118.596 90.1981 118.514 90.5361 118.514C90.6054 118.514 90.6878 118.518 90.7831 118.527C90.8871 118.535 90.9954 118.548 91.1081 118.566V120.36C91.0128 120.334 90.9131 120.316 90.8091 120.308C90.7051 120.299 90.6098 120.295 90.5231 120.295C90.1071 120.295 89.7388 120.468 89.4181 120.815C89.0974 121.153 88.9371 121.625 88.9371 122.232V125.053H87.1561V118.553ZM96.5369 121.465C96.5369 120.468 96.1252 119.97 95.3019 119.97C94.9032 119.97 94.5912 120.1 94.3659 120.36C94.1406 120.611 94.0279 120.984 94.0279 121.478V125.053H92.2469V118.553H93.8719L93.9889 119.229C94.2142 118.986 94.4786 118.795 94.7819 118.657C95.0852 118.518 95.4102 118.449 95.7569 118.449C96.5282 118.449 97.1479 118.691 97.6159 119.177C98.0839 119.653 98.3179 120.342 98.3179 121.244V125.053H96.5369V121.465ZM107.327 125.144C106.694 125.144 106.096 125.031 105.533 124.806C104.97 124.58 104.476 124.26 104.051 123.844C103.626 123.428 103.293 122.934 103.05 122.362C102.816 121.79 102.699 121.166 102.699 120.49C102.699 119.805 102.816 119.181 103.05 118.618C103.293 118.046 103.626 117.556 104.051 117.149C104.476 116.733 104.97 116.412 105.533 116.187C106.096 115.953 106.694 115.836 107.327 115.836C107.977 115.836 108.584 115.953 109.147 116.187C109.71 116.412 110.2 116.733 110.616 117.149C111.041 117.556 111.37 118.046 111.604 118.618C111.847 119.181 111.968 119.805 111.968 120.49C111.968 121.166 111.847 121.79 111.604 122.362C111.37 122.934 111.041 123.428 110.616 123.844C110.191 124.26 109.697 124.58 109.134 124.806C108.579 125.031 107.977 125.144 107.327 125.144ZM107.327 123.558C107.882 123.558 108.371 123.432 108.796 123.181C109.221 122.929 109.55 122.574 109.784 122.115C110.027 121.647 110.148 121.105 110.148 120.49C110.148 119.857 110.027 119.315 109.784 118.865C109.55 118.405 109.221 118.054 108.796 117.812C108.371 117.56 107.882 117.435 107.327 117.435C106.772 117.435 106.283 117.56 105.858 117.812C105.442 118.054 105.113 118.405 104.87 118.865C104.636 119.315 104.519 119.857 104.519 120.49C104.519 121.105 104.636 121.647 104.87 122.115C105.113 122.574 105.442 122.929 105.858 123.181C106.283 123.432 106.772 123.558 107.327 123.558ZM117.598 121.465C117.598 120.468 117.187 119.97 116.363 119.97C115.965 119.97 115.653 120.1 115.427 120.36C115.202 120.611 115.089 120.984 115.089 121.478V125.053H113.308V118.553H114.933L115.05 119.229C115.276 118.986 115.54 118.795 115.843 118.657C116.147 118.518 116.472 118.449 116.818 118.449C117.59 118.449 118.209 118.691 118.677 119.177C119.145 119.653 119.379 120.342 119.379 121.244V125.053H117.598V121.465ZM131.964 115.953V125.053H130.17L126.023 118.735V125.053H124.229V115.953H126.01L130.17 122.271V115.953H131.964ZM136.737 125.157C136.113 125.157 135.55 125.018 135.047 124.741C134.553 124.463 134.159 124.073 133.864 123.571C133.57 123.068 133.422 122.474 133.422 121.79C133.422 121.105 133.57 120.516 133.864 120.022C134.168 119.519 134.571 119.129 135.073 118.852C135.585 118.574 136.157 118.436 136.789 118.436C137.413 118.436 137.981 118.574 138.492 118.852C139.004 119.129 139.407 119.519 139.701 120.022C140.005 120.516 140.156 121.105 140.156 121.79C140.156 122.474 140 123.068 139.688 123.571C139.385 124.073 138.973 124.463 138.453 124.741C137.942 125.018 137.37 125.157 136.737 125.157ZM136.737 123.61C137.006 123.61 137.262 123.545 137.504 123.415C137.747 123.285 137.946 123.085 138.102 122.817C138.258 122.539 138.336 122.197 138.336 121.79C138.336 121.382 138.258 121.044 138.102 120.776C137.955 120.507 137.76 120.308 137.517 120.178C137.283 120.048 137.032 119.983 136.763 119.983C136.365 119.983 136.009 120.13 135.697 120.425C135.394 120.719 135.242 121.174 135.242 121.79C135.242 122.405 135.39 122.864 135.684 123.168C135.988 123.462 136.339 123.61 136.737 123.61ZM141.388 118.553C141.587 118.553 141.752 118.488 141.882 118.358C142.012 118.219 142.077 118.046 142.077 117.838V116.954H143.741V118.553H145.171V120.074H143.741V122.661C143.741 123.016 143.819 123.263 143.975 123.402C144.131 123.532 144.352 123.597 144.638 123.597C144.785 123.605 144.967 123.588 145.184 123.545V124.988C144.872 125.048 144.594 125.079 144.352 125.079C143.936 125.079 143.541 125.005 143.169 124.858C142.805 124.702 142.51 124.446 142.285 124.091C142.059 123.735 141.947 123.254 141.947 122.648V120.074H141.037V118.553H141.388ZM147.484 117.721C147.172 117.721 146.916 117.625 146.717 117.435C146.517 117.235 146.418 116.993 146.418 116.707C146.418 116.421 146.517 116.182 146.717 115.992C146.916 115.792 147.172 115.693 147.484 115.693C147.796 115.693 148.051 115.792 148.251 115.992C148.45 116.182 148.55 116.421 148.55 116.707C148.55 116.993 148.45 117.235 148.251 117.435C148.051 117.625 147.796 117.721 147.484 117.721ZM146.587 118.553H148.368V125.053H146.587V118.553ZM149.796 118.553H150.537V117.981C150.537 117.131 150.78 116.52 151.265 116.148C151.759 115.766 152.466 115.615 153.384 115.693V117.175C153.012 117.131 152.743 117.188 152.578 117.344C152.414 117.491 152.331 117.729 152.331 118.059V118.553H153.462V120.087H152.331V125.053H150.537V120.087H149.796V118.553ZM155.748 122.973C155.817 123.189 155.921 123.354 156.06 123.467C156.207 123.571 156.363 123.644 156.528 123.688C156.701 123.722 156.857 123.74 156.996 123.74C157.291 123.74 157.52 123.692 157.685 123.597C157.858 123.493 157.945 123.354 157.945 123.181C157.945 122.981 157.819 122.83 157.568 122.726C157.325 122.622 157.035 122.526 156.697 122.44C156.437 122.37 156.168 122.292 155.891 122.206C155.622 122.119 155.371 122.006 155.137 121.868C154.903 121.72 154.712 121.53 154.565 121.296C154.426 121.062 154.357 120.767 154.357 120.412C154.357 120.048 154.461 119.718 154.669 119.424C154.877 119.12 155.176 118.882 155.566 118.709C155.956 118.527 156.42 118.436 156.957 118.436C157.538 118.436 158.04 118.57 158.465 118.839C158.89 119.099 159.193 119.467 159.375 119.944L157.932 120.36C157.863 120.186 157.724 120.052 157.516 119.957C157.308 119.861 157.122 119.814 156.957 119.814C156.68 119.814 156.467 119.87 156.32 119.983C156.173 120.095 156.099 120.234 156.099 120.399C156.099 120.615 156.22 120.771 156.463 120.867C156.714 120.962 157.005 121.057 157.334 121.153C157.594 121.222 157.858 121.3 158.127 121.387C158.396 121.473 158.643 121.59 158.868 121.738C159.102 121.885 159.288 122.08 159.427 122.323C159.574 122.557 159.652 122.851 159.661 123.207C159.661 123.579 159.553 123.913 159.336 124.208C159.128 124.502 158.825 124.736 158.426 124.91C158.036 125.083 157.577 125.17 157.048 125.17C156.632 125.17 156.233 125.113 155.852 125.001C155.471 124.879 155.141 124.689 154.864 124.429C154.587 124.169 154.387 123.826 154.266 123.402L155.748 122.973Z" fill="white"/>
<path d="M122.894 132.236L141.604 151.752L142.409 132.236H122.894Z" fill="#00A16B"/>
<path opacity="0.2" d="M70.9128 111.041H63.376C63.0999 111.041 62.8351 110.931 62.6399 110.736C62.4446 110.541 62.335 110.276 62.335 110C62.335 109.724 62.4446 109.459 62.6399 109.264C62.8351 109.069 63.0999 108.959 63.376 108.959H70.9128C71.1889 108.959 71.4537 109.069 71.6489 109.264C71.8441 109.459 71.9538 109.724 71.9538 110C71.9538 110.276 71.8441 110.541 71.6489 110.736C71.4537 110.931 71.1889 111.041 70.9128 111.041Z" fill="#C7F4CE"/>
<path opacity="0.2" d="M44.7561 122.589H44.7075C44.5726 122.584 44.4401 122.552 44.3175 122.495C44.1949 122.439 44.0847 122.359 43.9932 122.259C43.9017 122.16 43.8306 122.044 43.7841 121.917C43.7376 121.79 43.7165 121.656 43.7221 121.521L44.0274 114.102C44.0963 112.737 44.6833 111.45 45.6686 110.504C46.6539 109.557 47.9633 109.022 49.3296 109.008H57.7825C58.0586 109.008 58.3234 109.117 58.5186 109.313C58.7138 109.508 58.8235 109.773 58.8235 110.049C58.8235 110.325 58.7138 110.59 58.5186 110.785C58.3234 110.98 58.0586 111.09 57.7825 111.09H49.3365C48.4989 111.098 47.696 111.425 47.0921 112.006C46.4883 112.587 46.1293 113.376 46.0886 114.213L45.8041 121.604C45.795 121.873 45.6797 122.128 45.4834 122.313C45.287 122.497 45.0256 122.597 44.7561 122.589Z" fill="#C7F4CE"/>
<path d="M148.023 151.75H141.604L142.249 136.17H148.669L148.023 151.75Z" fill="#00A16B"/>
<path opacity="0.3" d="M148.023 151.75H141.604L142.249 136.17H148.669L148.023 151.75Z" fill="black"/>
</svg>
