<svg width="603" height="245" viewBox="0 0 603 245" fill="none" xmlns="http://www.w3.org/2000/svg">
<path d="M596.667 0.833984H6.66732C3.44566 0.833984 0.833984 3.44566 0.833984 6.66732V36.6673C0.833984 39.889 3.44566 42.5007 6.66732 42.5007H596.667C599.889 42.5007 602.501 39.889 602.501 36.6673V6.66732C602.501 3.44566 599.889 0.833984 596.667 0.833984Z" fill="white" stroke="#F5F5F5"/>
<path d="M300 0H6.66667C2.98477 0 0 2.98477 0 6.66667V36.6667C0 40.3486 2.98477 43.3333 6.66667 43.3333H300C303.682 43.3333 306.667 40.3486 306.667 36.6667V6.66667C306.667 2.98477 303.682 0 300 0Z" fill="#E6E2FF"/>
<path d="M382.783 17.573C382.783 18.4897 382.575 19.3314 382.158 20.098C381.758 20.8647 381.117 21.4731 380.233 21.923C379.367 22.373 378.233 22.598 376.833 22.598H372.633V29.9981H370.658V12.4981H376.833C378.183 12.4981 379.3 12.723 380.183 13.173C381.067 13.623 381.717 14.2314 382.133 14.9981C382.567 15.7647 382.783 16.623 382.783 17.573ZM376.833 20.9481C378.233 20.9481 379.233 20.648 379.833 20.048C380.433 19.4314 380.733 18.6064 380.733 17.573C380.733 16.5064 380.433 15.673 379.833 15.073C379.233 14.4564 378.233 14.1481 376.833 14.1481H372.633V20.9481H376.833ZM386.008 17.4981H387.858L387.958 19.3231C388.358 18.7731 388.85 18.3231 389.433 17.9731C390.017 17.6064 390.675 17.4231 391.408 17.4231C391.575 17.4231 391.75 17.4314 391.933 17.4481C392.117 17.4647 392.308 17.4897 392.508 17.5231V19.498C392.125 19.4147 391.775 19.3731 391.458 19.3731C390.892 19.3731 390.342 19.5314 389.808 19.8481C389.275 20.1481 388.842 20.6147 388.508 21.2481C388.175 21.8647 388.008 22.6397 388.008 23.5731V29.9981H386.008V17.4981ZM400.15 30.198C398.967 30.198 397.9 29.9397 396.95 29.423C396.017 28.8897 395.275 28.1397 394.725 27.173C394.175 26.1897 393.9 25.0397 393.9 23.7231C393.9 22.4064 394.175 21.2647 394.725 20.298C395.292 19.3314 396.05 18.5897 397 18.0731C397.95 17.5397 399.017 17.2731 400.2 17.2731C401.383 17.2731 402.45 17.5397 403.4 18.0731C404.35 18.5897 405.1 19.3314 405.65 20.298C406.217 21.2647 406.5 22.4064 406.5 23.7231C406.5 25.0397 406.217 26.1897 405.65 27.173C405.083 28.1397 404.317 28.8897 403.35 29.423C402.4 29.9397 401.333 30.198 400.15 30.198ZM400.15 28.4731C400.867 28.4731 401.558 28.3064 402.225 27.9731C402.892 27.6231 403.433 27.098 403.85 26.398C404.267 25.6814 404.475 24.7897 404.475 23.7231C404.475 22.6397 404.267 21.7564 403.85 21.0731C403.45 20.3731 402.917 19.8564 402.25 19.523C401.6 19.1897 400.908 19.023 400.175 19.023C399.442 19.023 398.75 19.1897 398.1 19.523C397.45 19.8564 396.925 20.3731 396.525 21.0731C396.125 21.7564 395.925 22.6397 395.925 23.7231C395.925 24.7897 396.125 25.6814 396.525 26.398C396.925 27.098 397.442 27.6231 398.075 27.9731C398.725 28.3064 399.417 28.4731 400.15 28.4731ZM419.188 11.998H421.188V29.9981H419.363L419.238 27.673C418.822 28.3897 418.23 28.9897 417.463 29.473C416.697 29.9564 415.747 30.198 414.613 30.198C413.463 30.198 412.447 29.9314 411.563 29.3981C410.697 28.8481 410.013 28.0897 409.513 27.123C409.03 26.1397 408.788 24.9981 408.788 23.6981C408.788 22.3981 409.03 21.2731 409.513 20.3231C410.013 19.3564 410.697 18.6064 411.563 18.0731C412.447 17.5397 413.463 17.2731 414.613 17.2731C415.697 17.2731 416.622 17.5231 417.388 18.0231C418.172 18.5064 418.772 19.0981 419.188 19.7981V11.998ZM410.788 23.6981C410.788 25.1981 411.18 26.3731 411.963 27.2231C412.747 28.0564 413.747 28.4731 414.963 28.4731C415.747 28.4731 416.455 28.2814 417.088 27.8981C417.738 27.5147 418.247 26.9731 418.613 26.2731C418.997 25.5564 419.188 24.7064 419.188 23.7231C419.188 22.7397 418.997 21.8981 418.613 21.1981C418.247 20.4981 417.738 19.9647 417.088 19.598C416.455 19.2147 415.747 19.023 414.963 19.023C413.747 19.023 412.747 19.4314 411.963 20.248C411.18 21.0647 410.788 22.2147 410.788 23.6981ZM427.115 24.548C427.115 25.8314 427.407 26.8064 427.99 27.4731C428.573 28.1231 429.39 28.4481 430.44 28.4481C431.523 28.4481 432.382 28.1064 433.015 27.4231C433.665 26.7231 433.99 25.6731 433.99 24.2731V17.4981H435.965V29.9981H434.14L434.015 28.198C433.632 28.8147 433.098 29.298 432.415 29.648C431.748 29.998 430.982 30.173 430.115 30.173C428.665 30.173 427.473 29.7314 426.54 28.848C425.607 27.948 425.14 26.5814 425.14 24.7481V17.4981H427.115V24.548ZM445.385 30.173C444.202 30.173 443.152 29.9147 442.235 29.3981C441.318 28.8647 440.593 28.1147 440.06 27.148C439.543 26.1814 439.285 25.0397 439.285 23.7231C439.285 22.4064 439.543 21.2647 440.06 20.298C440.593 19.3314 441.318 18.5897 442.235 18.0731C443.152 17.5397 444.202 17.2731 445.385 17.2731C446.752 17.2731 447.91 17.573 448.86 18.173C449.827 18.773 450.535 19.5897 450.985 20.6231L449.285 21.2231C449.018 20.5064 448.535 19.9647 447.835 19.598C447.152 19.2147 446.36 19.023 445.46 19.023C444.727 19.023 444.043 19.2064 443.41 19.573C442.793 19.923 442.285 20.4481 441.885 21.1481C441.502 21.8481 441.31 22.7064 441.31 23.7231C441.31 24.7564 441.502 25.623 441.885 26.323C442.285 27.023 442.793 27.5564 443.41 27.9231C444.043 28.2731 444.727 28.4481 445.46 28.4481C446.36 28.4481 447.152 28.2731 447.835 27.9231C448.535 27.5731 449.035 27.0231 449.335 26.2731L451.01 26.8731C450.56 27.8731 449.843 28.6731 448.86 29.2731C447.893 29.8731 446.735 30.173 445.385 30.173ZM454.388 17.4981C454.722 17.4981 454.98 17.3981 455.163 17.1981C455.363 16.9981 455.463 16.7314 455.463 16.398V14.423H457.313V17.4981H460.638V19.2231H457.313V25.9731C457.313 26.7897 457.522 27.398 457.938 27.798C458.372 28.1814 458.947 28.373 459.663 28.373C459.963 28.373 460.288 28.348 460.638 28.298V29.8981C460.172 29.9981 459.738 30.048 459.338 30.048C458.638 30.048 457.98 29.9064 457.363 29.623C456.747 29.3397 456.247 28.898 455.863 28.298C455.497 27.698 455.313 26.9231 455.313 25.9731V19.2231H453.438V17.4981H454.388ZM476.458 12.4981C478.375 12.4981 480.025 12.8564 481.408 13.5731C482.792 14.2731 483.85 15.2814 484.583 16.5981C485.333 17.9147 485.708 19.4814 485.708 21.298C485.708 23.1147 485.333 24.6731 484.583 25.9731C483.85 27.2564 482.792 28.248 481.408 28.948C480.025 29.648 478.375 29.9981 476.458 29.9981H470.683V12.4981H476.458ZM476.458 28.348C478.842 28.348 480.642 27.723 481.858 26.473C483.075 25.223 483.683 23.498 483.683 21.298C483.683 19.0814 483.075 17.3314 481.858 16.0481C480.642 14.7647 478.842 14.1231 476.458 14.1231H472.658V28.348H476.458ZM494.188 30.173C493.005 30.173 491.955 29.9064 491.038 29.3731C490.122 28.8397 489.405 28.0897 488.888 27.123C488.372 26.1397 488.113 24.9897 488.113 23.6731C488.113 22.3731 488.363 21.248 488.863 20.298C489.363 19.3314 490.063 18.5897 490.963 18.0731C491.863 17.5397 492.922 17.2731 494.138 17.2731C495.355 17.2731 496.405 17.5397 497.288 18.0731C498.172 18.5897 498.847 19.2897 499.313 20.173C499.78 21.0564 500.013 22.0564 500.013 23.173C500.013 23.3564 500.005 23.5481 499.988 23.7481C499.988 23.9481 499.972 24.1647 499.938 24.3981H490.163C490.23 25.7647 490.647 26.7897 491.413 27.4731C492.18 28.1564 493.088 28.4981 494.138 28.4981C496.138 28.4981 497.463 27.7564 498.113 26.2731L499.738 26.923C499.272 27.9064 498.58 28.6981 497.663 29.2981C496.747 29.8814 495.588 30.173 494.188 30.173ZM497.963 22.773C497.98 21.973 497.813 21.2897 497.463 20.723C497.113 20.1397 496.638 19.7064 496.038 19.423C495.455 19.123 494.797 18.973 494.063 18.973C493.08 18.973 492.213 19.2981 491.463 19.9481C490.73 20.5981 490.305 21.5397 490.188 22.773H497.963ZM503.143 17.4981C503.477 17.4981 503.735 17.3981 503.918 17.1981C504.118 16.9981 504.218 16.7314 504.218 16.398V14.423H506.068V17.4981H509.393V19.2231H506.068V25.9731C506.068 26.7897 506.277 27.398 506.693 27.798C507.127 28.1814 507.702 28.373 508.418 28.373C508.718 28.373 509.043 28.348 509.393 28.298V29.8981C508.927 29.9981 508.493 30.048 508.093 30.048C507.393 30.048 506.735 29.9064 506.118 29.623C505.502 29.3397 505.002 28.898 504.618 28.298C504.252 27.698 504.068 26.9231 504.068 25.9731V19.2231H502.193V17.4981H503.143ZM520.075 29.9981L519.925 27.748C519.575 28.4814 519.067 29.073 518.4 29.523C517.75 29.973 516.917 30.198 515.9 30.198C514.6 30.198 513.558 29.8897 512.775 29.2731C511.992 28.6397 511.6 27.7647 511.6 26.6481C511.6 25.7647 511.842 25.0564 512.325 24.523C512.825 23.9897 513.475 23.5897 514.275 23.323C515.075 23.0397 515.925 22.848 516.825 22.748C517.625 22.6647 518.25 22.5897 518.7 22.5231C519.15 22.4397 519.467 22.323 519.65 22.173C519.833 22.023 519.925 21.7897 519.925 21.473C519.925 20.8564 519.692 20.2897 519.225 19.7731C518.775 19.2564 518.042 18.998 517.025 18.998C516.242 18.998 515.542 19.2147 514.925 19.648C514.308 20.0647 513.9 20.6564 513.7 21.423L512 20.823C512.3 19.7564 512.9 18.898 513.8 18.248C514.717 17.598 515.817 17.2731 517.1 17.2731C518.5 17.2731 519.658 17.6981 520.575 18.5481C521.492 19.3814 521.95 20.6897 521.95 22.4731V29.9981H520.075ZM519.925 23.998L516.55 24.3981C515.55 24.5314 514.817 24.773 514.35 25.123C513.883 25.4564 513.65 25.9397 513.65 26.5731C513.65 27.2064 513.875 27.6814 514.325 27.9981C514.792 28.2981 515.425 28.4481 516.225 28.4481C516.925 28.4481 517.55 28.2731 518.1 27.9231C518.667 27.5564 519.108 27.073 519.425 26.473C519.758 25.8564 519.925 25.1647 519.925 24.3981V23.998ZM527.227 14.9981C526.86 14.9981 526.543 14.873 526.277 14.623C526.027 14.373 525.902 14.0647 525.902 13.6981C525.902 13.3147 526.027 12.998 526.277 12.748C526.543 12.498 526.86 12.3731 527.227 12.3731C527.593 12.3731 527.902 12.498 528.152 12.748C528.402 12.998 528.527 13.3147 528.527 13.6981C528.527 14.0647 528.402 14.373 528.152 14.623C527.902 14.873 527.593 14.9981 527.227 14.9981ZM526.227 17.4981H528.202V29.9981H526.227V17.4981ZM532.688 11.998H534.688V29.9981H532.688V11.998ZM539.542 26.1981C539.742 27.0814 540.167 27.6897 540.817 28.0231C541.467 28.3397 542.158 28.4981 542.892 28.4981C543.692 28.4981 544.342 28.3231 544.842 27.9731C545.342 27.6064 545.592 27.1731 545.592 26.6731C545.592 26.2564 545.45 25.923 545.167 25.673C544.883 25.4064 544.508 25.1897 544.042 25.0231C543.575 24.8564 543.075 24.7064 542.542 24.573C542.008 24.4397 541.475 24.2897 540.942 24.1231C540.425 23.9397 539.942 23.7147 539.492 23.4481C539.058 23.1814 538.708 22.8314 538.442 22.3981C538.175 21.9647 538.042 21.4147 538.042 20.748C538.042 20.1314 538.242 19.5564 538.642 19.023C539.042 18.4897 539.592 18.0647 540.292 17.748C540.992 17.4314 541.792 17.2731 542.692 17.2731C543.708 17.2731 544.608 17.4981 545.392 17.9481C546.175 18.3981 546.742 19.0897 547.092 20.0231L545.417 20.6231C545.183 19.9731 544.783 19.5397 544.217 19.3231C543.667 19.0897 543.142 18.973 542.642 18.973C541.875 18.973 541.25 19.148 540.767 19.498C540.283 19.8314 540.042 20.248 540.042 20.748C540.042 21.2147 540.192 21.5897 540.492 21.8731C540.792 22.1397 541.183 22.3564 541.667 22.5231C542.15 22.6897 542.667 22.8481 543.217 22.9981C543.883 23.1814 544.542 23.3981 545.192 23.6481C545.858 23.8981 546.408 24.2564 546.842 24.7231C547.292 25.1897 547.525 25.8314 547.542 26.6481C547.542 27.3314 547.342 27.9397 546.942 28.4731C546.542 29.0064 545.992 29.4231 545.292 29.7231C544.592 30.0231 543.792 30.173 542.892 30.173C541.742 30.173 540.7 29.9314 539.767 29.448C538.833 28.948 538.183 28.0647 537.817 26.7981L539.542 26.1981Z" fill="#6C6C6C"/>
<path d="M64.1824 17.748C63.6824 16.6147 62.8824 15.7314 61.7824 15.098C60.6824 14.448 59.4907 14.1231 58.2074 14.1231C56.9407 14.1231 55.7991 14.4147 54.7824 14.9981C53.7824 15.5814 52.9908 16.4064 52.4074 17.4731C51.8241 18.5231 51.5324 19.7814 51.5324 21.2481C51.5324 22.6981 51.8241 23.9564 52.4074 25.0231C52.9908 26.0897 53.7824 26.9147 54.7824 27.4981C55.7991 28.0814 56.9407 28.373 58.2074 28.373C59.6241 28.373 60.8574 28.0147 61.9074 27.2981C62.9574 26.5647 63.7158 25.5647 64.1824 24.2981V22.2731H58.2574V20.6481H66.2824V24.3981C65.8991 25.5147 65.3241 26.5064 64.5574 27.3731C63.7907 28.2397 62.8658 28.923 61.7824 29.423C60.6991 29.923 59.5074 30.173 58.2074 30.173C56.9741 30.173 55.8241 29.9564 54.7574 29.523C53.7074 29.0897 52.7824 28.473 51.9824 27.673C51.1991 26.873 50.5824 25.9314 50.1324 24.8481C49.6991 23.7481 49.4824 22.5481 49.4824 21.2481C49.4824 19.9314 49.6991 18.7314 50.1324 17.648C50.5824 16.548 51.1991 15.6064 51.9824 14.8231C52.7824 14.0231 53.7074 13.4064 54.7574 12.9731C55.8241 12.5397 56.9741 12.3231 58.2074 12.3231C59.9241 12.3231 61.4741 12.7397 62.8574 13.5731C64.2407 14.4064 65.2657 15.5814 65.9324 17.098L64.1824 17.748ZM74.9941 30.173C73.8108 30.173 72.7607 29.9064 71.8441 29.3731C70.9274 28.8397 70.2107 28.0897 69.6941 27.123C69.1774 26.1397 68.9191 24.9897 68.9191 23.6731C68.9191 22.3731 69.1691 21.248 69.6691 20.298C70.1691 19.3314 70.8691 18.5897 71.7691 18.0731C72.6691 17.5397 73.7274 17.2731 74.9441 17.2731C76.1608 17.2731 77.2107 17.5397 78.0941 18.0731C78.9774 18.5897 79.6524 19.2897 80.1191 20.173C80.5857 21.0564 80.8191 22.0564 80.8191 23.1731C80.8191 23.3564 80.8107 23.5481 80.7941 23.7481C80.7941 23.9481 80.7774 24.1647 80.7441 24.3981H70.9691C71.0358 25.7647 71.4524 26.7897 72.2191 27.4731C72.9858 28.1564 73.8941 28.4981 74.9441 28.4981C76.9441 28.4981 78.2691 27.7564 78.9191 26.2731L80.5441 26.9231C80.0774 27.9064 79.3858 28.6981 78.4691 29.2981C77.5524 29.8814 76.3941 30.173 74.9941 30.173ZM78.7691 22.773C78.7857 21.973 78.6191 21.2897 78.2691 20.723C77.9191 20.1397 77.4441 19.7064 76.8441 19.4231C76.2607 19.1231 75.6024 18.973 74.8691 18.973C73.8857 18.973 73.0191 19.2981 72.2691 19.9481C71.5357 20.5981 71.1107 21.5397 70.9941 22.773H78.7691ZM84.1474 17.4981H85.9974L86.1224 19.2731C86.5224 18.6397 87.0558 18.148 87.7224 17.798C88.3891 17.448 89.1558 17.2731 90.0224 17.2731C91.4724 17.2731 92.6558 17.7314 93.5724 18.6481C94.5058 19.5481 94.9724 20.9147 94.9724 22.748V29.9981H93.0224V22.9731C93.0224 21.6731 92.7224 20.6897 92.1224 20.0231C91.5391 19.3397 90.7224 18.998 89.6724 18.998C88.5891 18.998 87.7308 19.3564 87.0974 20.073C86.4641 20.7897 86.1474 21.848 86.1474 23.248V29.9981H84.1474V17.4981ZM104.167 30.173C102.984 30.173 101.934 29.9064 101.017 29.3731C100.101 28.8397 99.3841 28.0897 98.8674 27.123C98.3508 26.1397 98.0924 24.9897 98.0924 23.6731C98.0924 22.3731 98.3424 21.248 98.8424 20.298C99.3424 19.3314 100.042 18.5897 100.942 18.0731C101.842 17.5397 102.901 17.2731 104.117 17.2731C105.334 17.2731 106.384 17.5397 107.267 18.0731C108.151 18.5897 108.826 19.2897 109.292 20.173C109.759 21.0564 109.992 22.0564 109.992 23.1731C109.992 23.3564 109.984 23.5481 109.967 23.7481C109.967 23.9481 109.951 24.1647 109.917 24.3981H100.142C100.209 25.7647 100.626 26.7897 101.392 27.4731C102.159 28.1564 103.067 28.4981 104.117 28.4981C106.117 28.4981 107.442 27.7564 108.092 26.2731L109.717 26.9231C109.251 27.9064 108.559 28.6981 107.642 29.2981C106.726 29.8814 105.567 30.173 104.167 30.173ZM107.942 22.773C107.959 21.973 107.792 21.2897 107.442 20.723C107.092 20.1397 106.617 19.7064 106.017 19.4231C105.434 19.1231 104.776 18.973 104.042 18.973C103.059 18.973 102.192 19.2981 101.442 19.9481C100.709 20.5981 100.284 21.5397 100.167 22.773H107.942ZM113.322 17.4981H115.172L115.272 19.3231C115.672 18.7731 116.164 18.3231 116.747 17.9731C117.331 17.6064 117.989 17.4231 118.722 17.4231C118.889 17.4231 119.064 17.4314 119.247 17.4481C119.431 17.4647 119.622 17.4897 119.822 17.5231V19.498C119.439 19.4147 119.089 19.3731 118.772 19.3731C118.206 19.3731 117.656 19.5314 117.122 19.8481C116.589 20.1481 116.156 20.6147 115.822 21.2481C115.489 21.8647 115.322 22.6397 115.322 23.5731V29.9981H113.322V17.4981ZM129.616 29.9981L129.466 27.748C129.116 28.4814 128.607 29.073 127.941 29.523C127.291 29.973 126.457 30.198 125.441 30.198C124.141 30.198 123.099 29.8897 122.316 29.2731C121.532 28.6397 121.141 27.7647 121.141 26.6481C121.141 25.7647 121.382 25.0564 121.866 24.523C122.366 23.9897 123.016 23.5897 123.816 23.323C124.616 23.0397 125.466 22.848 126.366 22.748C127.166 22.6647 127.791 22.5897 128.241 22.5231C128.691 22.4397 129.007 22.323 129.191 22.173C129.374 22.023 129.466 21.7897 129.466 21.473C129.466 20.8564 129.232 20.2897 128.766 19.7731C128.316 19.2564 127.582 18.998 126.566 18.998C125.782 18.998 125.082 19.2147 124.466 19.648C123.849 20.0647 123.441 20.6564 123.241 21.423L121.541 20.823C121.841 19.7564 122.441 18.898 123.341 18.248C124.257 17.598 125.357 17.2731 126.641 17.2731C128.041 17.2731 129.199 17.6981 130.116 18.5481C131.032 19.3814 131.491 20.6897 131.491 22.4731V29.9981H129.616ZM129.466 23.998L126.091 24.3981C125.091 24.5314 124.357 24.773 123.891 25.123C123.424 25.4564 123.191 25.9397 123.191 26.5731C123.191 27.2064 123.416 27.6814 123.866 27.9981C124.332 28.2981 124.966 28.4481 125.766 28.4481C126.466 28.4481 127.091 28.2731 127.641 27.9231C128.207 27.5564 128.649 27.073 128.966 26.473C129.299 25.8564 129.466 25.1647 129.466 24.3981V23.998ZM135.442 11.998H137.442V29.9981H135.442V11.998ZM149.581 25.6481C149.697 26.1314 149.922 26.5897 150.256 27.023C150.589 27.4564 151.039 27.8064 151.606 28.0731C152.189 28.3397 152.897 28.4731 153.731 28.4731C154.897 28.4731 155.806 28.1814 156.456 27.598C157.106 26.998 157.431 26.2647 157.431 25.3981C157.431 24.6981 157.256 24.1397 156.906 23.7231C156.572 23.3064 156.122 22.9814 155.556 22.748C154.989 22.498 154.364 22.2897 153.681 22.123C153.014 21.9397 152.339 21.748 151.656 21.548C150.989 21.3314 150.372 21.0564 149.806 20.723C149.239 20.373 148.781 19.9147 148.431 19.3481C148.097 18.7647 147.931 17.998 147.931 17.048C147.931 16.1147 148.164 15.2897 148.631 14.573C149.097 13.8564 149.756 13.2981 150.606 12.8981C151.456 12.4981 152.456 12.2981 153.606 12.2981C155.056 12.2981 156.247 12.6147 157.181 13.248C158.131 13.8814 158.781 14.6897 159.131 15.6731L157.306 16.373C157.122 15.7897 156.706 15.2564 156.056 14.7731C155.406 14.2731 154.556 14.0147 153.506 13.998C152.522 13.998 151.681 14.2564 150.981 14.7731C150.281 15.2731 149.931 16.0064 149.931 16.973C149.931 17.673 150.106 18.2314 150.456 18.6481C150.806 19.0481 151.256 19.373 151.806 19.623C152.372 19.8564 152.989 20.0647 153.656 20.248C154.339 20.4147 155.014 20.6064 155.681 20.823C156.364 21.0397 156.989 21.3231 157.556 21.6731C158.122 22.0064 158.572 22.4647 158.906 23.0481C159.256 23.6314 159.431 24.3814 159.431 25.298C159.431 26.1147 159.214 26.898 158.781 27.648C158.364 28.3814 157.731 28.9897 156.881 29.473C156.031 29.9397 154.981 30.173 153.731 30.173C152.181 30.173 150.864 29.8231 149.781 29.1231C148.714 28.4064 148.022 27.4814 147.706 26.348L149.581 25.6481ZM164.682 24.548C164.682 25.8314 164.974 26.8064 165.557 27.4731C166.141 28.1231 166.957 28.4481 168.007 28.4481C169.091 28.4481 169.949 28.1064 170.582 27.4231C171.232 26.7231 171.557 25.6731 171.557 24.2731V17.4981H173.532V29.9981H171.707L171.582 28.198C171.199 28.8147 170.666 29.298 169.982 29.648C169.316 29.998 168.549 30.173 167.682 30.173C166.232 30.173 165.041 29.7314 164.107 28.848C163.174 27.948 162.707 26.5814 162.707 24.7481V17.4981H164.682V24.548ZM177.677 17.4981H179.527L179.652 19.2731C180.036 18.6731 180.544 18.1897 181.177 17.8231C181.827 17.4564 182.586 17.2731 183.452 17.2731C184.419 17.2731 185.277 17.4897 186.027 17.9231C186.777 18.3564 187.352 18.9981 187.752 19.8481C188.136 18.9814 188.719 18.3397 189.502 17.9231C190.286 17.4897 191.152 17.2731 192.102 17.2731C193.519 17.2731 194.686 17.7314 195.602 18.6481C196.519 19.5481 196.977 20.9147 196.977 22.748V29.9981H195.002V22.9731C195.002 21.6731 194.719 20.6897 194.152 20.0231C193.586 19.3397 192.786 18.998 191.752 18.998C190.719 18.998 189.886 19.3647 189.252 20.098C188.619 20.8147 188.302 21.8814 188.302 23.298V29.9981H186.352V22.9731C186.352 21.6731 186.069 20.6897 185.502 20.0231C184.936 19.3397 184.136 18.998 183.102 18.998C182.052 18.998 181.219 19.3647 180.602 20.098C179.986 20.8147 179.677 21.8814 179.677 23.298V29.9981H177.677V17.4981ZM200.921 17.4981H202.771L202.896 19.2731C203.279 18.6731 203.787 18.1897 204.421 17.8231C205.071 17.4564 205.829 17.2731 206.696 17.2731C207.662 17.2731 208.521 17.4897 209.271 17.9231C210.021 18.3564 210.596 18.9981 210.996 19.8481C211.379 18.9814 211.962 18.3397 212.746 17.9231C213.529 17.4897 214.396 17.2731 215.346 17.2731C216.762 17.2731 217.929 17.7314 218.846 18.6481C219.762 19.5481 220.221 20.9147 220.221 22.748V29.9981H218.246V22.9731C218.246 21.6731 217.962 20.6897 217.396 20.0231C216.829 19.3397 216.029 18.998 214.996 18.998C213.962 18.998 213.129 19.3647 212.496 20.098C211.862 20.8147 211.546 21.8814 211.546 23.298V29.9981H209.596V22.9731C209.596 21.6731 209.312 20.6897 208.746 20.0231C208.179 19.3397 207.379 18.998 206.346 18.998C205.296 18.998 204.462 19.3647 203.846 20.098C203.229 20.8147 202.921 21.8814 202.921 23.298V29.9981H200.921V17.4981ZM231.837 29.9981L231.687 27.748C231.337 28.4814 230.829 29.073 230.162 29.523C229.512 29.973 228.679 30.198 227.662 30.198C226.362 30.198 225.321 29.8897 224.537 29.2731C223.754 28.6397 223.362 27.7647 223.362 26.6481C223.362 25.7647 223.604 25.0564 224.087 24.523C224.587 23.9897 225.237 23.5897 226.037 23.323C226.837 23.0397 227.687 22.848 228.587 22.748C229.387 22.6647 230.012 22.5897 230.462 22.5231C230.912 22.4397 231.229 22.323 231.412 22.173C231.596 22.023 231.687 21.7897 231.687 21.473C231.687 20.8564 231.454 20.2897 230.987 19.7731C230.537 19.2564 229.804 18.998 228.787 18.998C228.004 18.998 227.304 19.2147 226.687 19.648C226.071 20.0647 225.662 20.6564 225.462 21.423L223.762 20.823C224.062 19.7564 224.662 18.898 225.562 18.248C226.479 17.598 227.579 17.2731 228.862 17.2731C230.262 17.2731 231.421 17.6981 232.337 18.5481C233.254 19.3814 233.712 20.6897 233.712 22.4731V29.9981H231.837ZM231.687 23.998L228.312 24.3981C227.312 24.5314 226.579 24.773 226.112 25.123C225.646 25.4564 225.412 25.9397 225.412 26.5731C225.412 27.2064 225.637 27.6814 226.087 27.9981C226.554 28.2981 227.187 28.4481 227.987 28.4481C228.687 28.4481 229.312 28.2731 229.862 27.9231C230.429 27.5564 230.871 27.073 231.187 26.473C231.521 25.8564 231.687 25.1647 231.687 24.3981V23.998ZM237.664 17.4981H239.514L239.614 19.3231C240.014 18.7731 240.506 18.3231 241.089 17.9731C241.672 17.6064 242.331 17.4231 243.064 17.4231C243.231 17.4231 243.406 17.4314 243.589 17.4481C243.772 17.4647 243.964 17.4897 244.164 17.5231V19.498C243.781 19.4147 243.431 19.3731 243.114 19.3731C242.547 19.3731 241.997 19.5314 241.464 19.8481C240.931 20.1481 240.497 20.6147 240.164 21.2481C239.831 21.8647 239.664 22.6397 239.664 23.5731V29.9981H237.664V17.4981ZM255.416 17.4981H257.491L250.341 34.9981H248.291L250.416 29.8231L245.366 17.4981H247.541L251.541 27.598L255.416 17.4981Z" fill="#8778F7"/>
<path d="M341.667 201.002H8.33333C3.73096 201.002 0 204.733 0 209.335V236.002C0 240.604 3.73096 244.335 8.33333 244.335H341.667C346.269 244.335 350 240.604 350 236.002V209.335C350 204.733 346.269 201.002 341.667 201.002Z" fill="#F6F7F8"/>
<path d="M166.666 212.668V232.668" stroke="#979797" stroke-width="0.5" stroke-linecap="round"/>
<path d="M166.666 212.668V232.668" stroke="#979797" stroke-width="0.5" stroke-linecap="round"/>
<path d="M266.666 212.668V232.668" stroke="#979797" stroke-width="0.5" stroke-linecap="round"/>
<path d="M266.666 212.668V232.668" stroke="#979797" stroke-width="0.5" stroke-linecap="round"/>
<path d="M117.401 218.868H115.768V217.668H118.734V229.335H117.401V218.868ZM132.716 217.668H134.199L130.432 224.851V229.335H129.116V224.868L125.332 217.668H126.816L129.783 223.651L132.716 217.668ZM134.906 221.001H136.139L136.206 222.218C136.473 221.851 136.801 221.551 137.189 221.318C137.579 221.073 138.018 220.951 138.506 220.951C138.618 220.951 138.734 220.956 138.856 220.968C138.979 220.98 139.106 220.996 139.239 221.018V222.335C138.984 222.28 138.751 222.251 138.539 222.251C138.163 222.251 137.796 222.356 137.439 222.568C137.084 222.768 136.796 223.08 136.573 223.501C136.351 223.913 136.239 224.43 136.239 225.051V229.335H134.906V221.001Z" fill="#4F4F4F"/>
<path d="M196.816 229.485C195.983 229.485 195.254 229.306 194.633 228.951C194.021 228.585 193.544 228.096 193.199 227.485C192.866 226.873 192.699 226.185 192.699 225.418C192.699 224.84 192.794 224.263 192.983 223.685C193.171 223.106 193.488 222.518 193.933 221.918L197.033 217.668H198.466L195.416 221.818C195.894 221.618 196.411 221.518 196.966 221.518C197.754 221.518 198.438 221.685 199.016 222.018C199.604 222.351 200.061 222.813 200.383 223.401C200.716 223.99 200.883 224.673 200.883 225.451C200.883 226.23 200.711 226.923 200.366 227.535C200.021 228.146 199.544 228.623 198.933 228.968C198.321 229.313 197.616 229.485 196.816 229.485ZM193.916 225.435C193.916 226.313 194.178 227.023 194.699 227.568C195.233 228.101 195.938 228.368 196.816 228.368C197.694 228.368 198.388 228.101 198.899 227.568C199.421 227.023 199.683 226.318 199.683 225.451C199.683 224.573 199.421 223.868 198.899 223.335C198.388 222.79 197.694 222.518 196.816 222.518C195.938 222.518 195.233 222.79 194.699 223.335C194.178 223.868 193.916 224.568 193.916 225.435ZM207.844 221.001H209.078L209.161 222.185C209.416 221.785 209.756 221.463 210.178 221.218C210.611 220.973 211.116 220.851 211.694 220.851C212.339 220.851 212.911 220.996 213.411 221.285C213.911 221.573 214.294 222.001 214.561 222.568C214.816 221.99 215.206 221.563 215.728 221.285C216.249 220.996 216.828 220.851 217.461 220.851C218.406 220.851 219.183 221.156 219.794 221.768C220.406 222.368 220.711 223.28 220.711 224.501V229.335H219.394V224.651C219.394 223.785 219.206 223.13 218.828 222.685C218.449 222.23 217.916 222.001 217.228 222.001C216.539 222.001 215.983 222.246 215.561 222.735C215.139 223.213 214.928 223.923 214.928 224.868V229.335H213.628V224.651C213.628 223.785 213.439 223.13 213.061 222.685C212.683 222.23 212.149 222.001 211.461 222.001C210.761 222.001 210.206 222.246 209.794 222.735C209.383 223.213 209.178 223.923 209.178 224.868V229.335H207.844V221.001ZM226.956 229.468C226.166 229.468 225.456 229.296 224.823 228.951C224.199 228.596 223.706 228.096 223.339 227.451C222.973 226.796 222.789 226.03 222.789 225.151C222.789 224.273 222.973 223.513 223.339 222.868C223.716 222.223 224.223 221.73 224.856 221.385C225.489 221.03 226.199 220.851 226.989 220.851C227.778 220.851 228.489 221.03 229.123 221.385C229.756 221.73 230.256 222.223 230.623 222.868C230.999 223.513 231.189 224.273 231.189 225.151C231.189 226.03 230.999 226.796 230.623 227.451C230.244 228.096 229.733 228.596 229.089 228.951C228.456 229.296 227.744 229.468 226.956 229.468ZM226.956 228.318C227.433 228.318 227.894 228.206 228.339 227.985C228.783 227.751 229.144 227.401 229.423 226.935C229.699 226.456 229.839 225.863 229.839 225.151C229.839 224.43 229.699 223.84 229.423 223.385C229.156 222.918 228.799 222.573 228.356 222.351C227.923 222.13 227.461 222.018 226.973 222.018C226.483 222.018 226.023 222.13 225.589 222.351C225.156 222.573 224.806 222.918 224.539 223.385C224.273 223.84 224.139 224.43 224.139 225.151C224.139 225.863 224.273 226.456 224.539 226.935C224.806 227.401 225.149 227.751 225.573 227.985C226.006 228.206 226.466 228.318 226.956 228.318ZM233.398 221.001H234.631L234.714 222.185C234.981 221.763 235.336 221.435 235.781 221.201C236.226 220.968 236.736 220.851 237.314 220.851C238.281 220.851 239.069 221.156 239.681 221.768C240.303 222.368 240.614 223.28 240.614 224.501V229.335H239.314V224.651C239.314 223.785 239.114 223.13 238.714 222.685C238.326 222.23 237.781 222.001 237.081 222.001C236.359 222.001 235.786 222.24 235.364 222.718C234.943 223.196 234.731 223.901 234.731 224.835V229.335H233.398V221.001Z" fill="#4F4F4F"/>
<path d="M294.069 218.868H292.436V217.668H295.402V229.335H294.069V218.868ZM302.867 221.001H304.1L304.184 222.185C304.439 221.785 304.777 221.463 305.201 221.218C305.634 220.973 306.139 220.851 306.717 220.851C307.36 220.851 307.934 220.996 308.434 221.285C308.934 221.573 309.317 222.001 309.584 222.568C309.839 221.99 310.227 221.563 310.75 221.285C311.272 220.996 311.851 220.851 312.484 220.851C313.427 220.851 314.205 221.156 314.817 221.768C315.427 222.368 315.734 223.28 315.734 224.501V229.335H314.417V224.651C314.417 223.785 314.227 223.13 313.851 222.685C313.472 222.23 312.939 222.001 312.251 222.001C311.561 222.001 311.006 222.246 310.584 222.735C310.161 223.213 309.951 223.923 309.951 224.868V229.335H308.651V224.651C308.651 223.785 308.461 223.13 308.084 222.685C307.706 222.23 307.172 222.001 306.484 222.001C305.784 222.001 305.227 222.246 304.817 222.735C304.405 223.213 304.2 223.923 304.2 224.868V229.335H302.867V221.001ZM321.979 229.468C321.189 229.468 320.479 229.296 319.846 228.951C319.222 228.596 318.729 228.096 318.362 227.451C317.995 226.796 317.812 226.03 317.812 225.151C317.812 224.273 317.995 223.513 318.362 222.868C318.739 222.223 319.246 221.73 319.879 221.385C320.512 221.03 321.222 220.851 322.012 220.851C322.8 220.851 323.512 221.03 324.146 221.385C324.779 221.73 325.279 222.223 325.645 222.868C326.022 223.513 326.212 224.273 326.212 225.151C326.212 226.03 326.022 226.796 325.645 227.451C325.267 228.096 324.756 228.596 324.112 228.951C323.479 229.296 322.767 229.468 321.979 229.468ZM321.979 228.318C322.455 228.318 322.917 228.206 323.362 227.985C323.805 227.751 324.167 227.401 324.446 226.935C324.722 226.456 324.862 225.863 324.862 225.151C324.862 224.43 324.722 223.84 324.446 223.385C324.179 222.918 323.822 222.573 323.379 222.351C322.946 222.13 322.484 222.018 321.995 222.018C321.505 222.018 321.046 222.13 320.612 222.351C320.179 222.573 319.829 222.918 319.562 223.385C319.296 223.84 319.162 224.43 319.162 225.151C319.162 225.863 319.296 226.456 319.562 226.935C319.829 227.401 320.172 227.751 320.596 227.985C321.029 228.206 321.489 228.318 321.979 228.318ZM328.421 221.001H329.654L329.737 222.185C330.004 221.763 330.359 221.435 330.804 221.201C331.247 220.968 331.759 220.851 332.337 220.851C333.304 220.851 334.092 221.156 334.704 221.768C335.325 222.368 335.637 223.28 335.637 224.501V229.335H334.337V224.651C334.337 223.785 334.137 223.13 333.737 222.685C333.347 222.23 332.804 222.001 332.104 222.001C331.38 222.001 330.809 222.24 330.387 222.718C329.964 223.196 329.754 223.901 329.754 224.835V229.335H328.421V221.001Z" fill="#4F4F4F"/>
<path d="M81.6673 204.336H11.6673C7.06494 204.336 3.33398 208.067 3.33398 212.669V232.669C3.33398 237.272 7.06494 241.003 11.6673 241.003H81.6673C86.2697 241.003 90.0006 237.272 90.0006 232.669V212.669C90.0006 208.067 86.2697 204.336 81.6673 204.336Z" fill="#8778F7"/>
<path d="M15.1504 229.336L19.4171 217.669H21.9004L26.1503 229.336H24.7503L23.617 226.203H17.6837L16.5337 229.336H15.1504ZM20.9504 218.753H20.367L18.0671 225.119H23.2504L20.9504 218.753ZM27.6787 217.336H29.012V229.336H27.6787V217.336ZM31.7803 217.336H33.1136V229.336H31.7803V217.336ZM39.7904 217.669H48.5404V218.753H44.8403V229.336H43.507V218.753H39.7904V217.669ZM51.122 219.336C50.877 219.336 50.6654 219.253 50.4887 219.086C50.3221 218.919 50.2387 218.714 50.2387 218.469C50.2387 218.214 50.3221 218.003 50.4887 217.836C50.6654 217.669 50.877 217.586 51.122 217.586C51.3653 217.586 51.5721 217.669 51.7387 217.836C51.9054 218.003 51.9887 218.214 51.9887 218.469C51.9887 218.714 51.9054 218.919 51.7387 219.086C51.5721 219.253 51.3653 219.336 51.122 219.336ZM50.4554 221.003H51.772V229.336H50.4554V221.003ZM54.762 221.003H55.9953L56.0786 222.186C56.3353 221.786 56.6737 221.464 57.0954 221.219C57.5287 220.974 58.0353 220.853 58.612 220.853C59.257 220.853 59.8287 220.998 60.3287 221.286C60.8287 221.574 61.2121 222.003 61.4787 222.569C61.7354 221.991 62.1236 221.564 62.6453 221.286C63.1686 220.998 63.7454 220.853 64.3787 220.853C65.3237 220.853 66.102 221.158 66.712 221.769C67.3236 222.369 67.6287 223.281 67.6287 224.503V229.336H66.312V224.653C66.312 223.786 66.1237 223.131 65.7454 222.686C65.3687 222.231 64.8353 222.003 64.1453 222.003C63.457 222.003 62.902 222.248 62.4787 222.736C62.057 223.214 61.8453 223.924 61.8453 224.869V229.336H60.5454V224.653C60.5454 223.786 60.357 223.131 59.9787 222.686C59.602 222.231 59.0686 222.003 58.3786 222.003C57.6786 222.003 57.1236 222.248 56.712 222.736C56.302 223.214 56.0953 223.924 56.0953 224.869V229.336H54.762V221.003ZM73.7571 229.453C72.9687 229.453 72.2687 229.274 71.657 228.919C71.047 228.564 70.5686 228.064 70.2236 227.419C69.8803 226.764 69.707 225.998 69.707 225.119C69.707 224.253 69.8737 223.503 70.2071 222.869C70.5404 222.224 71.007 221.731 71.607 221.386C72.207 221.031 72.9137 220.853 73.7237 220.853C74.5354 220.853 75.2354 221.031 75.8237 221.386C76.4137 221.731 76.8637 222.198 77.1737 222.786C77.4854 223.374 77.6403 224.041 77.6403 224.786C77.6403 224.908 77.6353 225.036 77.6236 225.169C77.6236 225.303 77.6137 225.448 77.5904 225.603H71.0736C71.1186 226.514 71.397 227.198 71.907 227.653C72.4186 228.108 73.0237 228.336 73.7237 228.336C75.057 228.336 75.9403 227.841 76.3736 226.853L77.457 227.286C77.147 227.941 76.6853 228.469 76.0736 228.869C75.4636 229.258 74.6904 229.453 73.7571 229.453ZM76.2736 224.519C76.2853 223.986 76.1737 223.531 75.9404 223.153C75.7071 222.764 75.3904 222.474 74.9904 222.286C74.602 222.086 74.1636 221.986 73.6736 221.986C73.0186 221.986 72.4403 222.203 71.9403 222.636C71.452 223.069 71.1687 223.698 71.0903 224.519H76.2736Z" fill="white"/>
<path d="M325.658 111.168H327.633V128.668H325.658V111.168ZM332 116.168H333.85L333.975 117.943C334.375 117.31 334.908 116.818 335.575 116.468C336.242 116.118 337.008 115.943 337.875 115.943C339.325 115.943 340.508 116.401 341.425 117.318C342.358 118.218 342.825 119.585 342.825 121.418V128.668H340.875V121.643C340.875 120.343 340.575 119.36 339.975 118.693C339.392 118.01 338.575 117.668 337.525 117.668C336.442 117.668 335.583 118.026 334.95 118.743C334.317 119.46 334 120.518 334 121.918V128.668H332V116.168ZM356.145 110.668H358.145V128.668H356.32L356.195 126.343C355.778 127.06 355.187 127.66 354.42 128.143C353.653 128.626 352.703 128.868 351.57 128.868C350.42 128.868 349.403 128.601 348.52 128.068C347.653 127.518 346.97 126.76 346.47 125.793C345.987 124.81 345.745 123.668 345.745 122.368C345.745 121.068 345.987 119.943 346.47 118.993C346.97 118.026 347.653 117.276 348.52 116.743C349.403 116.21 350.42 115.943 351.57 115.943C352.653 115.943 353.578 116.193 354.345 116.693C355.128 117.176 355.728 117.768 356.145 118.468V110.668ZM347.745 122.368C347.745 123.868 348.137 125.043 348.92 125.893C349.703 126.726 350.703 127.143 351.92 127.143C352.703 127.143 353.412 126.951 354.045 126.568C354.695 126.185 355.203 125.643 355.57 124.943C355.953 124.226 356.145 123.376 356.145 122.393C356.145 121.41 355.953 120.568 355.57 119.868C355.203 119.168 354.695 118.635 354.045 118.268C353.412 117.885 352.703 117.693 351.92 117.693C350.703 117.693 349.703 118.101 348.92 118.918C348.137 119.735 347.745 120.885 347.745 122.368ZM363.623 113.668C363.257 113.668 362.94 113.543 362.673 113.293C362.423 113.043 362.298 112.735 362.298 112.368C362.298 111.985 362.423 111.668 362.673 111.418C362.94 111.168 363.257 111.043 363.623 111.043C363.99 111.043 364.298 111.168 364.548 111.418C364.798 111.668 364.923 111.985 364.923 112.368C364.923 112.735 364.798 113.043 364.548 113.293C364.298 113.543 363.99 113.668 363.623 113.668ZM362.623 116.168H364.598V128.668H362.623V116.168ZM369.835 116.168L373.785 126.568L377.76 116.168H379.86L374.86 128.668H372.66L367.71 116.168H369.835ZM383.935 113.668C383.568 113.668 383.252 113.543 382.985 113.293C382.735 113.043 382.61 112.735 382.61 112.368C382.61 111.985 382.735 111.668 382.985 111.418C383.252 111.168 383.568 111.043 383.935 111.043C384.302 111.043 384.61 111.168 384.86 111.418C385.11 111.668 385.235 111.985 385.235 112.368C385.235 112.735 385.11 113.043 384.86 113.293C384.61 113.543 384.302 113.668 383.935 113.668ZM382.935 116.168H384.91V128.668H382.935V116.168ZM398.773 110.668H400.773V128.668H398.948L398.823 126.343C398.407 127.06 397.815 127.66 397.048 128.143C396.282 128.626 395.332 128.868 394.198 128.868C393.048 128.868 392.032 128.601 391.148 128.068C390.282 127.518 389.598 126.76 389.098 125.793C388.615 124.81 388.373 123.668 388.373 122.368C388.373 121.068 388.615 119.943 389.098 118.993C389.598 118.026 390.282 117.276 391.148 116.743C392.032 116.21 393.048 115.943 394.198 115.943C395.282 115.943 396.207 116.193 396.973 116.693C397.757 117.176 398.357 117.768 398.773 118.468V110.668ZM390.373 122.368C390.373 123.868 390.765 125.043 391.548 125.893C392.332 126.726 393.332 127.143 394.548 127.143C395.332 127.143 396.04 126.951 396.673 126.568C397.323 126.185 397.832 125.643 398.198 124.943C398.582 124.226 398.773 123.376 398.773 122.393C398.773 121.41 398.582 120.568 398.198 119.868C397.832 119.168 397.323 118.635 396.673 118.268C396.04 117.885 395.332 117.693 394.548 117.693C393.332 117.693 392.332 118.101 391.548 118.918C390.765 119.735 390.373 120.885 390.373 122.368ZM406.7 123.218C406.7 124.501 406.992 125.476 407.575 126.143C408.158 126.793 408.975 127.118 410.025 127.118C411.108 127.118 411.967 126.776 412.6 126.093C413.25 125.393 413.575 124.343 413.575 122.943V116.168H415.55V128.668H413.725L413.6 126.868C413.217 127.485 412.683 127.968 412 128.318C411.333 128.668 410.567 128.843 409.7 128.843C408.25 128.843 407.058 128.401 406.125 127.518C405.192 126.618 404.725 125.251 404.725 123.418V116.168H406.7V123.218ZM427.37 128.668L427.22 126.418C426.87 127.151 426.362 127.743 425.695 128.193C425.045 128.643 424.212 128.868 423.195 128.868C421.895 128.868 420.853 128.56 420.07 127.943C419.287 127.31 418.895 126.435 418.895 125.318C418.895 124.435 419.137 123.726 419.62 123.193C420.12 122.66 420.77 122.26 421.57 121.993C422.37 121.71 423.22 121.518 424.12 121.418C424.92 121.335 425.545 121.26 425.995 121.193C426.445 121.11 426.762 120.993 426.945 120.843C427.128 120.693 427.22 120.46 427.22 120.143C427.22 119.526 426.987 118.96 426.52 118.443C426.07 117.926 425.337 117.668 424.32 117.668C423.537 117.668 422.837 117.885 422.22 118.318C421.603 118.735 421.195 119.326 420.995 120.093L419.295 119.493C419.595 118.426 420.195 117.568 421.095 116.918C422.012 116.268 423.112 115.943 424.395 115.943C425.795 115.943 426.953 116.368 427.87 117.218C428.787 118.051 429.245 119.36 429.245 121.143V128.668H427.37ZM427.22 122.668L423.845 123.068C422.845 123.201 422.112 123.443 421.645 123.793C421.178 124.126 420.945 124.61 420.945 125.243C420.945 125.876 421.17 126.351 421.62 126.668C422.087 126.968 422.72 127.118 423.52 127.118C424.22 127.118 424.845 126.943 425.395 126.593C425.962 126.226 426.403 125.743 426.72 125.143C427.053 124.526 427.22 123.835 427.22 123.068V122.668ZM433.197 110.668H435.197V128.668H433.197V110.668ZM447.337 124.318C447.453 124.801 447.678 125.26 448.012 125.693C448.345 126.126 448.795 126.476 449.362 126.743C449.945 127.01 450.653 127.143 451.487 127.143C452.653 127.143 453.562 126.851 454.212 126.268C454.862 125.668 455.187 124.935 455.187 124.068C455.187 123.368 455.012 122.81 454.662 122.393C454.328 121.976 453.878 121.651 453.312 121.418C452.745 121.168 452.12 120.96 451.437 120.793C450.77 120.61 450.095 120.418 449.412 120.218C448.745 120.001 448.128 119.726 447.562 119.393C446.995 119.043 446.537 118.585 446.187 118.018C445.853 117.435 445.687 116.668 445.687 115.718C445.687 114.785 445.92 113.96 446.387 113.243C446.853 112.526 447.512 111.968 448.362 111.568C449.212 111.168 450.212 110.968 451.362 110.968C452.812 110.968 454.003 111.285 454.937 111.918C455.887 112.551 456.537 113.36 456.887 114.343L455.062 115.043C454.878 114.46 454.462 113.926 453.812 113.443C453.162 112.943 452.312 112.685 451.262 112.668C450.278 112.668 449.437 112.926 448.737 113.443C448.037 113.943 447.687 114.676 447.687 115.643C447.687 116.343 447.862 116.901 448.212 117.318C448.562 117.718 449.012 118.043 449.562 118.293C450.128 118.526 450.745 118.735 451.412 118.918C452.095 119.085 452.77 119.276 453.437 119.493C454.12 119.71 454.745 119.993 455.312 120.343C455.878 120.676 456.328 121.135 456.662 121.718C457.012 122.301 457.187 123.051 457.187 123.968C457.187 124.785 456.97 125.568 456.537 126.318C456.12 127.051 455.487 127.66 454.637 128.143C453.787 128.61 452.737 128.843 451.487 128.843C449.937 128.843 448.62 128.493 447.537 127.793C446.47 127.076 445.778 126.151 445.462 125.018L447.337 124.318ZM468.337 128.668L468.187 126.418C467.837 127.151 467.328 127.743 466.662 128.193C466.012 128.643 465.178 128.868 464.162 128.868C462.862 128.868 461.82 128.56 461.037 127.943C460.253 127.31 459.862 126.435 459.862 125.318C459.862 124.435 460.103 123.726 460.587 123.193C461.087 122.66 461.737 122.26 462.536 121.993C463.337 121.71 464.187 121.518 465.087 121.418C465.887 121.335 466.512 121.26 466.962 121.193C467.412 121.11 467.728 120.993 467.912 120.843C468.095 120.693 468.187 120.46 468.187 120.143C468.187 119.526 467.953 118.96 467.487 118.443C467.037 117.926 466.303 117.668 465.287 117.668C464.503 117.668 463.803 117.885 463.187 118.318C462.57 118.735 462.162 119.326 461.962 120.093L460.262 119.493C460.562 118.426 461.162 117.568 462.062 116.918C462.978 116.268 464.078 115.943 465.362 115.943C466.762 115.943 467.92 116.368 468.837 117.218C469.753 118.051 470.212 119.36 470.212 121.143V128.668H468.337ZM468.187 122.668L464.812 123.068C463.812 123.201 463.078 123.443 462.612 123.793C462.145 124.126 461.911 124.61 461.911 125.243C461.911 125.876 462.137 126.351 462.587 126.668C463.053 126.968 463.687 127.118 464.487 127.118C465.187 127.118 465.812 126.943 466.362 126.593C466.928 126.226 467.37 125.743 467.687 125.143C468.02 124.526 468.187 123.835 468.187 123.068V122.668ZM474.163 110.668H476.163V128.668H474.163V110.668ZM485.565 128.843C484.382 128.843 483.332 128.576 482.415 128.043C481.498 127.51 480.782 126.76 480.265 125.793C479.748 124.81 479.49 123.66 479.49 122.343C479.49 121.043 479.74 119.918 480.24 118.968C480.74 118.001 481.44 117.26 482.34 116.743C483.24 116.21 484.298 115.943 485.515 115.943C486.732 115.943 487.782 116.21 488.665 116.743C489.548 117.26 490.223 117.96 490.69 118.843C491.157 119.726 491.39 120.726 491.39 121.843C491.39 122.026 491.382 122.218 491.365 122.418C491.365 122.618 491.348 122.835 491.315 123.068H481.54C481.607 124.435 482.023 125.46 482.79 126.143C483.557 126.826 484.465 127.168 485.515 127.168C487.515 127.168 488.84 126.426 489.49 124.943L491.115 125.593C490.648 126.576 489.957 127.368 489.04 127.968C488.123 128.551 486.965 128.843 485.565 128.843ZM489.34 121.443C489.357 120.643 489.19 119.96 488.84 119.393C488.49 118.81 488.015 118.376 487.415 118.093C486.832 117.793 486.173 117.643 485.44 117.643C484.457 117.643 483.59 117.968 482.84 118.618C482.107 119.268 481.682 120.21 481.565 121.443H489.34ZM501.757 111.168H503.732V128.668H501.757V111.168ZM507.898 116.168C508.232 116.168 508.49 116.068 508.673 115.868C508.873 115.668 508.973 115.401 508.973 115.068V113.093H510.823V116.168H514.148V117.893H510.823V124.643C510.823 125.46 511.032 126.068 511.448 126.468C511.882 126.851 512.457 127.043 513.173 127.043C513.473 127.043 513.798 127.018 514.148 126.968V128.568C513.682 128.668 513.248 128.718 512.848 128.718C512.148 128.718 511.49 128.576 510.873 128.293C510.257 128.01 509.757 127.568 509.373 126.968C509.007 126.368 508.823 125.593 508.823 124.643V117.893H506.948V116.168H507.898ZM522.04 128.843C520.857 128.843 519.807 128.576 518.89 128.043C517.973 127.51 517.257 126.76 516.74 125.793C516.223 124.81 515.965 123.66 515.965 122.343C515.965 121.043 516.215 119.918 516.715 118.968C517.215 118.001 517.915 117.26 518.815 116.743C519.715 116.21 520.773 115.943 521.99 115.943C523.206 115.943 524.257 116.21 525.14 116.743C526.023 117.26 526.698 117.96 527.165 118.843C527.632 119.726 527.865 120.726 527.865 121.843C527.865 122.026 527.857 122.218 527.84 122.418C527.84 122.618 527.823 122.835 527.79 123.068H518.015C518.082 124.435 518.498 125.46 519.265 126.143C520.032 126.826 520.94 127.168 521.99 127.168C523.99 127.168 525.315 126.426 525.965 124.943L527.59 125.593C527.123 126.576 526.432 127.368 525.515 127.968C524.598 128.551 523.44 128.843 522.04 128.843ZM525.815 121.443C525.832 120.643 525.665 119.96 525.315 119.393C524.965 118.81 524.49 118.376 523.89 118.093C523.307 117.793 522.648 117.643 521.915 117.643C520.932 117.643 520.065 117.968 519.315 118.618C518.582 119.268 518.157 120.21 518.04 121.443H525.815ZM531.195 116.168H533.045L533.17 117.943C533.553 117.343 534.062 116.86 534.695 116.493C535.345 116.126 536.103 115.943 536.97 115.943C537.937 115.943 538.795 116.16 539.545 116.593C540.295 117.026 540.87 117.668 541.27 118.518C541.653 117.651 542.237 117.01 543.02 116.593C543.803 116.16 544.67 115.943 545.62 115.943C547.037 115.943 548.203 116.401 549.12 117.318C550.037 118.218 550.495 119.585 550.495 121.418V128.668H548.52V121.643C548.52 120.343 548.237 119.36 547.67 118.693C547.103 118.01 546.303 117.668 545.27 117.668C544.237 117.668 543.403 118.035 542.77 118.768C542.137 119.485 541.82 120.551 541.82 121.968V128.668H539.87V121.643C539.87 120.343 539.587 119.36 539.02 118.693C538.453 118.01 537.653 117.668 536.62 117.668C535.57 117.668 534.737 118.035 534.12 118.768C533.503 119.485 533.195 120.551 533.195 121.968V128.668H531.195V116.168ZM555.137 124.868C555.337 125.751 555.762 126.36 556.412 126.693C557.062 127.01 557.753 127.168 558.487 127.168C559.287 127.168 559.937 126.993 560.437 126.643C560.937 126.276 561.187 125.843 561.187 125.343C561.187 124.926 561.045 124.593 560.762 124.343C560.478 124.076 560.103 123.86 559.637 123.693C559.17 123.526 558.67 123.376 558.137 123.243C557.603 123.11 557.07 122.96 556.537 122.793C556.02 122.61 555.537 122.385 555.087 122.118C554.653 121.851 554.303 121.501 554.037 121.068C553.77 120.635 553.637 120.085 553.637 119.418C553.637 118.801 553.837 118.226 554.237 117.693C554.637 117.16 555.187 116.735 555.887 116.418C556.587 116.101 557.387 115.943 558.287 115.943C559.303 115.943 560.203 116.168 560.987 116.618C561.77 117.068 562.337 117.76 562.687 118.693L561.012 119.293C560.778 118.643 560.378 118.21 559.812 117.993C559.262 117.76 558.737 117.643 558.237 117.643C557.47 117.643 556.845 117.818 556.362 118.168C555.878 118.501 555.637 118.918 555.637 119.418C555.637 119.885 555.787 120.26 556.087 120.543C556.387 120.81 556.778 121.026 557.262 121.193C557.745 121.36 558.262 121.518 558.812 121.668C559.478 121.851 560.137 122.068 560.787 122.318C561.453 122.568 562.003 122.926 562.437 123.393C562.887 123.86 563.12 124.501 563.137 125.318C563.137 126.001 562.937 126.61 562.536 127.143C562.137 127.676 561.587 128.093 560.887 128.393C560.187 128.693 559.387 128.843 558.487 128.843C557.337 128.843 556.295 128.601 555.362 128.118C554.428 127.618 553.778 126.735 553.412 125.468L555.137 124.868Z" fill="#6C6C6C"/>
<path d="M230 133.668H1.66667C0.746192 133.668 0 134.414 0 135.335C0 136.255 0.746192 137.001 1.66667 137.001H230C230.92 137.001 231.667 136.255 231.667 135.335C231.667 134.414 230.92 133.668 230 133.668Z" fill="#8778F7"/>
<path d="M10.3672 120.784C10.5172 121.501 10.9088 122.117 11.5421 122.634C12.1921 123.134 13.0588 123.384 14.1421 123.384C15.2088 123.384 16.0421 123.126 16.6421 122.609C17.2421 122.076 17.5422 121.409 17.5422 120.609C17.5422 119.976 17.3672 119.467 17.0172 119.084C16.6838 118.701 16.2422 118.401 15.6922 118.184C15.1422 117.951 14.5338 117.751 13.8672 117.584C13.2005 117.417 12.5338 117.234 11.8672 117.034C11.2005 116.817 10.5922 116.534 10.0422 116.184C9.49215 115.834 9.04216 115.367 8.69216 114.784C8.35883 114.201 8.19218 113.451 8.19218 112.534C8.19218 111.534 8.43384 110.667 8.91718 109.934C9.41718 109.201 10.1088 108.634 10.9922 108.234C11.8755 107.817 12.8921 107.609 14.0421 107.609C15.4921 107.609 16.7088 107.926 17.6921 108.559C18.6921 109.176 19.3755 110.009 19.7422 111.059L17.4172 111.909C17.2505 111.342 16.8672 110.851 16.2672 110.434C15.6672 110.017 14.9088 109.801 13.9921 109.784C13.0921 109.751 12.3255 109.959 11.6922 110.409C11.0589 110.859 10.7422 111.534 10.7422 112.434C10.7422 113.051 10.9088 113.542 11.2422 113.909C11.5922 114.276 12.0422 114.576 12.5922 114.809C13.1422 115.026 13.7505 115.217 14.4172 115.384C15.0838 115.551 15.7422 115.742 16.3922 115.959C17.0588 116.176 17.6672 116.467 18.2172 116.834C18.7838 117.184 19.2338 117.651 19.5671 118.234C19.9005 118.817 20.0672 119.567 20.0672 120.484C20.0672 121.334 19.8422 122.142 19.3922 122.909C18.9422 123.676 18.2755 124.301 17.3922 124.784C16.5255 125.267 15.4589 125.509 14.1922 125.509C13.1589 125.509 12.2088 125.351 11.3422 125.034C10.4755 124.717 9.7505 124.267 9.16717 123.684C8.58383 123.101 8.19219 122.417 7.99219 121.634L10.3672 120.784ZM30.8138 125.334L30.6138 123.509C30.2472 124.109 29.7638 124.601 29.1638 124.984C28.5805 125.367 27.8305 125.559 26.9138 125.559C25.6138 125.559 24.5722 125.234 23.7888 124.584C23.0055 123.934 22.6138 123.051 22.6138 121.934C22.6138 121.217 22.7639 120.626 23.0639 120.159C23.3805 119.676 23.7972 119.292 24.3139 119.009C24.8305 118.709 25.4055 118.484 26.0388 118.334C26.6721 118.167 27.3222 118.042 27.9888 117.959C28.9055 117.859 29.5722 117.742 29.9888 117.609C30.4055 117.459 30.6138 117.151 30.6138 116.684C30.6138 116.184 30.4222 115.742 30.0388 115.359C29.6555 114.959 29.0055 114.759 28.0888 114.759C27.3888 114.759 26.7638 114.951 26.2138 115.334C25.6805 115.701 25.3138 116.226 25.1138 116.909L22.9888 116.159C23.3055 115.076 23.9222 114.209 24.8389 113.559C25.7722 112.909 26.8972 112.584 28.2138 112.584C29.6972 112.584 30.8888 113.026 31.7888 113.909C32.7055 114.776 33.1638 116.117 33.1638 117.934V125.334H30.8138ZM30.6138 119.659L27.6138 120.034C26.7305 120.151 26.1055 120.351 25.7388 120.634C25.3722 120.917 25.1888 121.309 25.1888 121.809C25.1888 122.326 25.3805 122.717 25.7638 122.984C26.1472 123.234 26.6805 123.359 27.3638 123.359C28.2472 123.359 29.0055 123.051 29.6388 122.434C30.2888 121.817 30.6138 120.951 30.6138 119.834V119.659ZM36.9138 107.334H39.4138V125.334H36.9138V107.334ZM48.7588 125.534C47.5588 125.534 46.4921 125.267 45.5588 124.734C44.6422 124.201 43.9172 123.451 43.3838 122.484C42.8672 121.501 42.6088 120.351 42.6088 119.034C42.6088 117.734 42.8589 116.601 43.3589 115.634C43.8589 114.667 44.5672 113.926 45.4838 113.409C46.4005 112.876 47.4755 112.609 48.7088 112.609C49.9088 112.609 50.9505 112.867 51.8338 113.384C52.7338 113.901 53.4255 114.617 53.9088 115.534C54.4088 116.451 54.6589 117.492 54.6589 118.659C54.6589 118.859 54.6505 119.067 54.6338 119.284C54.6338 119.501 54.6088 119.734 54.5588 119.984H45.1838C45.2671 121.101 45.6338 121.951 46.2838 122.534C46.9505 123.117 47.7588 123.409 48.7088 123.409C49.5922 123.409 50.3422 123.259 50.9589 122.959C51.5922 122.659 52.0588 122.201 52.3588 121.584L54.4088 122.309C53.9255 123.292 53.2089 124.076 52.2589 124.659C51.3255 125.242 50.1588 125.534 48.7588 125.534ZM52.0588 117.959C52.0421 116.926 51.7005 116.134 51.0338 115.584C50.3672 115.017 49.5505 114.734 48.5838 114.734C47.7338 114.734 46.9922 115.017 46.3588 115.584C45.7255 116.151 45.3422 116.942 45.2088 117.959H52.0588ZM58.9622 121.459C59.1122 121.992 59.3539 122.401 59.6872 122.684C60.0205 122.967 60.3871 123.159 60.7871 123.259C61.2038 123.359 61.5871 123.409 61.9371 123.409C62.6705 123.409 63.2538 123.267 63.6872 122.984C64.1205 122.701 64.3371 122.342 64.3371 121.909C64.3371 121.392 64.0538 121.009 63.4872 120.759C62.9372 120.492 62.2872 120.267 61.5372 120.084C61.0205 119.934 60.4955 119.776 59.9621 119.609C59.4288 119.426 58.9372 119.201 58.4872 118.934C58.0538 118.651 57.7038 118.292 57.4372 117.859C57.1705 117.426 57.0371 116.876 57.0371 116.209C57.0371 115.559 57.2372 114.959 57.6372 114.409C58.0372 113.859 58.5955 113.426 59.3122 113.109C60.0288 112.776 60.8622 112.609 61.8122 112.609C62.8288 112.609 63.7288 112.842 64.5122 113.309C65.2955 113.776 65.8621 114.459 66.2121 115.359L64.1622 116.059C63.9788 115.576 63.6371 115.226 63.1371 115.009C62.6538 114.776 62.2038 114.659 61.7871 114.659C61.1038 114.659 60.5621 114.809 60.1621 115.109C59.7621 115.409 59.5622 115.767 59.5622 116.184C59.5622 116.567 59.6955 116.876 59.9621 117.109C60.2288 117.342 60.5788 117.534 61.0122 117.684C61.4455 117.834 61.9121 117.976 62.4121 118.109C63.0788 118.292 63.7455 118.517 64.4122 118.784C65.0788 119.034 65.6372 119.401 66.0872 119.884C66.5372 120.367 66.7705 121.034 66.7871 121.884C66.7871 122.584 66.5872 123.217 66.1872 123.784C65.7872 124.334 65.2205 124.767 64.4871 125.084C63.7705 125.401 62.9371 125.559 61.9871 125.559C61.2371 125.559 60.5122 125.459 59.8122 125.259C59.1288 125.042 58.5288 124.692 58.0122 124.209C57.4955 123.709 57.1122 123.042 56.8622 122.209L58.9622 121.459ZM75.4672 107.834H88.8922V109.884H83.4422V125.334H80.9422V109.884H75.4672V107.834ZM90.0872 112.834H92.3872L92.5372 114.434C92.9372 113.934 93.4122 113.534 93.9622 113.234C94.5122 112.917 95.1205 112.759 95.7871 112.759C95.9371 112.759 96.1038 112.767 96.2872 112.784C96.4705 112.801 96.6622 112.834 96.8622 112.884V115.384C96.5288 115.301 96.1872 115.259 95.8372 115.259C95.3039 115.259 94.7871 115.409 94.2871 115.709C93.7871 115.992 93.3788 116.426 93.0622 117.009C92.7455 117.576 92.5872 118.301 92.5872 119.184V125.334H90.0872V112.834ZM106.302 125.334L106.102 123.509C105.736 124.109 105.252 124.601 104.652 124.984C104.069 125.367 103.319 125.559 102.402 125.559C101.102 125.559 100.061 125.234 99.2772 124.584C98.4938 123.934 98.1021 123.051 98.1021 121.934C98.1021 121.217 98.2522 120.626 98.5522 120.159C98.8689 119.676 99.2855 119.292 99.8022 119.009C100.319 118.709 100.894 118.484 101.527 118.334C102.16 118.167 102.81 118.042 103.477 117.959C104.394 117.859 105.061 117.742 105.477 117.609C105.894 117.459 106.102 117.151 106.102 116.684C106.102 116.184 105.911 115.742 105.527 115.359C105.144 114.959 104.494 114.759 103.577 114.759C102.877 114.759 102.252 114.951 101.702 115.334C101.169 115.701 100.802 116.226 100.602 116.909L98.4772 116.159C98.7938 115.076 99.4105 114.209 100.327 113.559C101.261 112.909 102.386 112.584 103.702 112.584C105.186 112.584 106.377 113.026 107.277 113.909C108.194 114.776 108.652 116.117 108.652 117.934V125.334H106.302ZM106.102 119.659L103.102 120.034C102.219 120.151 101.594 120.351 101.227 120.634C100.86 120.917 100.677 121.309 100.677 121.809C100.677 122.326 100.869 122.717 101.252 122.984C101.636 123.234 102.169 123.359 102.852 123.359C103.735 123.359 104.494 123.051 105.127 122.434C105.777 121.817 106.102 120.951 106.102 119.834V119.659ZM120.952 118.334C120.952 117.167 120.694 116.284 120.177 115.684C119.677 115.084 118.952 114.784 118.002 114.784C117.052 114.784 116.294 115.092 115.727 115.709C115.177 116.326 114.902 117.242 114.902 118.459V125.334H112.402V112.834H114.702L114.877 114.234C115.294 113.717 115.81 113.317 116.427 113.034C117.06 112.751 117.752 112.609 118.502 112.609C119.952 112.609 121.135 113.067 122.052 113.984C122.985 114.884 123.452 116.234 123.452 118.034V125.334H120.952V118.334ZM128.322 121.459C128.472 121.992 128.714 122.401 129.047 122.684C129.381 122.967 129.747 123.159 130.147 123.259C130.564 123.359 130.947 123.409 131.297 123.409C132.031 123.409 132.614 123.267 133.047 122.984C133.48 122.701 133.697 122.342 133.697 121.909C133.697 121.392 133.414 121.009 132.847 120.759C132.297 120.492 131.647 120.267 130.897 120.084C130.38 119.934 129.855 119.776 129.322 119.609C128.789 119.426 128.297 119.201 127.847 118.934C127.414 118.651 127.064 118.292 126.797 117.859C126.531 117.426 126.397 116.876 126.397 116.209C126.397 115.559 126.597 114.959 126.997 114.409C127.397 113.859 127.955 113.426 128.672 113.109C129.389 112.776 130.222 112.609 131.172 112.609C132.189 112.609 133.089 112.842 133.872 113.309C134.655 113.776 135.222 114.459 135.572 115.359L133.522 116.059C133.339 115.576 132.997 115.226 132.497 115.009C132.014 114.776 131.564 114.659 131.147 114.659C130.464 114.659 129.922 114.809 129.522 115.109C129.122 115.409 128.922 115.767 128.922 116.184C128.922 116.567 129.055 116.876 129.322 117.109C129.589 117.342 129.939 117.534 130.372 117.684C130.805 117.834 131.272 117.976 131.772 118.109C132.439 118.292 133.105 118.517 133.772 118.784C134.439 119.034 134.997 119.401 135.447 119.884C135.897 120.367 136.13 121.034 136.147 121.884C136.147 122.584 135.947 123.217 135.547 123.784C135.147 124.334 134.581 124.767 133.847 125.084C133.131 125.401 132.297 125.559 131.347 125.559C130.597 125.559 129.872 125.459 129.172 125.259C128.489 125.042 127.889 124.692 127.372 124.209C126.855 123.709 126.472 123.042 126.222 122.209L128.322 121.459ZM146.561 125.334L146.361 123.509C145.994 124.109 145.511 124.601 144.911 124.984C144.327 125.367 143.577 125.559 142.661 125.559C141.361 125.559 140.319 125.234 139.536 124.584C138.752 123.934 138.36 123.051 138.36 121.934C138.36 121.217 138.511 120.626 138.811 120.159C139.127 119.676 139.544 119.292 140.061 119.009C140.577 118.709 141.152 118.484 141.786 118.334C142.419 118.167 143.069 118.042 143.735 117.959C144.652 117.859 145.319 117.742 145.736 117.609C146.152 117.459 146.361 117.151 146.361 116.684C146.361 116.184 146.169 115.742 145.786 115.359C145.402 114.959 144.752 114.759 143.835 114.759C143.135 114.759 142.51 114.951 141.96 115.334C141.427 115.701 141.06 116.226 140.86 116.909L138.735 116.159C139.052 115.076 139.669 114.209 140.586 113.559C141.519 112.909 142.644 112.584 143.961 112.584C145.444 112.584 146.635 113.026 147.535 113.909C148.452 114.776 148.911 116.117 148.911 117.934V125.334H146.561ZM146.361 119.659L143.36 120.034C142.477 120.151 141.852 120.351 141.485 120.634C141.119 120.917 140.936 121.309 140.936 121.809C140.936 122.326 141.127 122.717 141.51 122.984C141.894 123.234 142.427 123.359 143.11 123.359C143.994 123.359 144.752 123.051 145.385 122.434C146.035 121.817 146.361 120.951 146.361 119.834V119.659ZM158.01 125.534C156.811 125.534 155.744 125.267 154.81 124.734C153.894 124.201 153.177 123.451 152.661 122.484C152.144 121.517 151.886 120.376 151.886 119.059C151.886 117.759 152.144 116.626 152.661 115.659C153.177 114.692 153.894 113.942 154.81 113.409C155.744 112.876 156.811 112.609 158.01 112.609C159.36 112.609 160.519 112.901 161.485 113.484C162.452 114.067 163.16 114.892 163.61 115.959L161.485 116.684C161.219 116.051 160.777 115.576 160.161 115.259C159.561 114.942 158.869 114.784 158.086 114.784C157.436 114.784 156.827 114.959 156.261 115.309C155.711 115.642 155.269 116.126 154.935 116.759C154.602 117.392 154.436 118.159 154.436 119.059C154.436 119.959 154.602 120.734 154.935 121.384C155.269 122.017 155.711 122.509 156.261 122.859C156.827 123.192 157.436 123.359 158.086 123.359C158.852 123.359 159.544 123.217 160.161 122.934C160.777 122.634 161.244 122.151 161.561 121.484L163.635 122.234C163.169 123.234 162.444 124.034 161.461 124.634C160.494 125.234 159.344 125.534 158.01 125.534ZM166.741 112.834C167.107 112.834 167.399 112.717 167.615 112.484C167.849 112.251 167.965 111.951 167.965 111.584V109.759H170.265V112.834H173.39V115.009H170.265V121.059C170.265 121.876 170.449 122.451 170.816 122.784C171.199 123.117 171.732 123.284 172.415 123.284C172.682 123.284 173.007 123.259 173.39 123.209V125.234C172.907 125.334 172.44 125.384 171.99 125.384C171.257 125.384 170.566 125.251 169.915 124.984C169.282 124.701 168.757 124.242 168.34 123.609C167.94 122.976 167.741 122.126 167.741 121.059V115.009H165.966V112.834H166.741ZM177.869 110.634C177.419 110.634 177.036 110.484 176.719 110.184C176.419 109.884 176.269 109.517 176.269 109.084C176.269 108.617 176.419 108.234 176.719 107.934C177.036 107.634 177.419 107.484 177.869 107.484C178.302 107.484 178.669 107.634 178.969 107.934C179.286 108.234 179.444 108.617 179.444 109.084C179.444 109.517 179.286 109.884 178.969 110.184C178.669 110.484 178.302 110.634 177.869 110.634ZM176.594 112.834H179.094V125.334H176.594V112.834ZM188.899 125.534C187.699 125.534 186.624 125.267 185.674 124.734C184.74 124.201 183.999 123.451 183.449 122.484C182.899 121.517 182.624 120.376 182.624 119.059C182.624 117.742 182.899 116.601 183.449 115.634C184.015 114.667 184.782 113.926 185.749 113.409C186.715 112.876 187.79 112.609 188.974 112.609C190.157 112.609 191.232 112.876 192.199 113.409C193.165 113.926 193.932 114.667 194.499 115.634C195.066 116.601 195.349 117.742 195.349 119.059C195.349 120.376 195.057 121.517 194.474 122.484C193.907 123.451 193.132 124.201 192.149 124.734C191.165 125.267 190.082 125.534 188.899 125.534ZM188.899 123.384C189.549 123.384 190.165 123.226 190.749 122.909C191.349 122.592 191.832 122.117 192.199 121.484C192.582 120.834 192.774 120.026 192.774 119.059C192.774 118.092 192.591 117.292 192.224 116.659C191.857 116.026 191.382 115.559 190.799 115.259C190.215 114.942 189.59 114.784 188.924 114.784C188.274 114.784 187.657 114.942 187.074 115.259C186.507 115.559 186.049 116.026 185.699 116.659C185.349 117.292 185.174 118.092 185.174 119.059C185.174 120.026 185.34 120.834 185.674 121.484C186.024 122.117 186.482 122.592 187.049 122.909C187.615 123.226 188.232 123.384 188.899 123.384ZM207.086 118.334C207.086 117.167 206.827 116.284 206.311 115.684C205.811 115.084 205.085 114.784 204.135 114.784C203.185 114.784 202.427 115.092 201.86 115.709C201.31 116.326 201.035 117.242 201.035 118.459V125.334H198.535V112.834H200.836L201.01 114.234C201.427 113.717 201.944 113.317 202.561 113.034C203.194 112.751 203.885 112.609 204.635 112.609C206.086 112.609 207.269 113.067 208.186 113.984C209.119 114.884 209.586 116.234 209.586 118.034V125.334H207.086V118.334ZM214.456 121.459C214.605 121.992 214.847 122.401 215.18 122.684C215.514 122.967 215.881 123.159 216.281 123.259C216.697 123.359 217.081 123.409 217.431 123.409C218.164 123.409 218.747 123.267 219.18 122.984C219.614 122.701 219.831 122.342 219.831 121.909C219.831 121.392 219.547 121.009 218.98 120.759C218.43 120.492 217.78 120.267 217.03 120.084C216.514 119.934 215.989 119.776 215.456 119.609C214.922 119.426 214.43 119.201 213.98 118.934C213.547 118.651 213.197 118.292 212.93 117.859C212.664 117.426 212.531 116.876 212.531 116.209C212.531 115.559 212.73 114.959 213.13 114.409C213.53 113.859 214.089 113.426 214.805 113.109C215.522 112.776 216.355 112.609 217.305 112.609C218.322 112.609 219.222 112.842 220.005 113.309C220.789 113.776 221.356 114.459 221.706 115.359L219.655 116.059C219.472 115.576 219.131 115.226 218.631 115.009C218.147 114.776 217.697 114.659 217.281 114.659C216.597 114.659 216.055 114.809 215.656 115.109C215.256 115.409 215.055 115.767 215.055 116.184C215.055 116.567 215.189 116.876 215.456 117.109C215.722 117.342 216.072 117.534 216.506 117.684C216.939 117.834 217.406 117.976 217.906 118.109C218.572 118.292 219.239 118.517 219.905 118.784C220.572 119.034 221.13 119.401 221.58 119.884C222.03 120.367 222.264 121.034 222.281 121.884C222.281 122.584 222.08 123.217 221.68 123.784C221.28 124.334 220.714 124.767 219.98 125.084C219.264 125.401 218.431 125.559 217.48 125.559C216.73 125.559 216.006 125.459 215.306 125.259C214.622 125.042 214.022 124.692 213.505 124.209C212.989 123.709 212.605 123.042 212.355 122.209L214.456 121.459Z" fill="#6C6C6C"/>
</svg>
