<svg width="630" height="298" viewBox="0 0 630 298" fill="none" xmlns="http://www.w3.org/2000/svg">
<g filter="url(#filter0_d_2293_4518)">
<rect x="15" y="11.002" width="600" height="267.161" rx="10" fill="white"/>
</g>
<line x1="91.1953" y1="11.5" x2="91.1953" y2="276.548" stroke="#CECECE" stroke-linecap="round" stroke-dasharray="5 5"/>
<line x1="181.363" y1="11.5" x2="181.363" y2="276.548" stroke="#CECECE" stroke-linecap="round" stroke-dasharray="5 5"/>
<line x1="270.418" y1="11.5" x2="270.418" y2="276.548" stroke="#CECECE" stroke-linecap="round" stroke-dasharray="5 5"/>
<line x1="360.584" y1="11.5" x2="360.584" y2="276.548" stroke="#CECECE" stroke-linecap="round" stroke-dasharray="5 5"/>
<line x1="449.637" y1="11.5" x2="449.637" y2="276.548" stroke="#CECECE" stroke-linecap="round" stroke-dasharray="5 5"/>
<line x1="538.691" y1="11.5" x2="538.691" y2="276.548" stroke="#CECECE" stroke-linecap="round" stroke-dasharray="5 5"/>
<line x1="15.5" y1="77.291" x2="614.5" y2="77.291" stroke="#CECECE" stroke-linecap="round" stroke-dasharray="5 5"/>
<line x1="15.5" y1="144.082" x2="614.5" y2="144.082" stroke="#CECECE" stroke-linecap="round" stroke-dasharray="5 5"/>
<line x1="15.5" y1="210.871" x2="614.5" y2="210.871" stroke="#CECECE" stroke-linecap="round" stroke-dasharray="5 5"/>
<circle cx="316" cy="111" r="19" fill="#F4B7B7"/>
<g clip-path="url(#clip0_2293_4518)">
<path d="M317.521 100.641L327.625 118.142C327.779 118.409 327.86 118.711 327.86 119.02C327.86 119.328 327.779 119.63 327.625 119.897C327.471 120.164 327.249 120.386 326.983 120.54C326.716 120.694 326.413 120.775 326.105 120.775H305.896C305.588 120.775 305.285 120.694 305.019 120.54C304.752 120.386 304.53 120.164 304.376 119.897C304.222 119.63 304.141 119.328 304.141 119.02C304.141 118.711 304.222 118.409 304.376 118.142L314.48 100.641C315.156 99.4711 316.844 99.4711 317.521 100.641ZM316.001 114.512C315.69 114.512 315.392 114.635 315.173 114.854C314.954 115.074 314.83 115.372 314.83 115.682C314.83 115.992 314.954 116.29 315.173 116.509C315.392 116.729 315.69 116.852 316.001 116.852C316.311 116.852 316.609 116.729 316.828 116.509C317.048 116.29 317.171 115.992 317.171 115.682C317.171 115.372 317.048 115.074 316.828 114.854C316.609 114.635 316.311 114.512 316.001 114.512ZM316.001 106.32C315.714 106.32 315.437 106.425 315.223 106.615C315.009 106.806 314.872 107.068 314.838 107.353L314.83 107.49V112.171C314.831 112.469 314.945 112.756 315.15 112.973C315.354 113.19 315.634 113.321 315.932 113.338C316.23 113.356 316.523 113.259 316.752 113.067C316.98 112.876 317.127 112.604 317.163 112.308L317.171 112.171V107.49C317.171 107.18 317.048 106.882 316.828 106.662C316.609 106.443 316.311 106.32 316.001 106.32Z" fill="#CC3C3C"/>
</g>
<circle cx="577" cy="44" r="19" fill="#C7F4CE"/>
<path d="M567.465 45.3624L573.822 51.719L586.535 38.0977" stroke="#00A16B" stroke-width="1.5" stroke-linecap="round" stroke-linejoin="round"/>
<circle cx="225" cy="111" r="19" fill="#CC3C3C" fill-opacity="0.2"/>
<path d="M234.137 118.21C234.392 118.465 234.536 118.813 234.536 119.174C234.536 119.536 234.392 119.883 234.137 120.139C233.881 120.395 233.534 120.539 233.172 120.539C232.81 120.539 232.463 120.395 232.207 120.139L225 112.93L217.791 120.137C217.535 120.393 217.188 120.537 216.826 120.537C216.464 120.537 216.117 120.393 215.861 120.137C215.605 119.881 215.462 119.534 215.462 119.172C215.462 118.81 215.605 118.463 215.861 118.207L223.07 111L215.864 103.791C215.608 103.536 215.464 103.188 215.464 102.827C215.464 102.465 215.608 102.118 215.864 101.862C216.119 101.606 216.467 101.462 216.828 101.462C217.19 101.462 217.537 101.606 217.793 101.862L225 109.071L232.209 101.861C232.465 101.605 232.812 101.461 233.174 101.461C233.536 101.461 233.883 101.605 234.139 101.861C234.395 102.116 234.539 102.464 234.539 102.825C234.539 103.187 234.395 103.534 234.139 103.79L226.93 111L234.137 118.21Z" fill="#CC3C3C"/>
<path opacity="0.5" fill-rule="evenodd" clip-rule="evenodd" d="M49.5 128.5H56.5C63.0992 128.5 66.3997 128.5 68.449 126.449C70.5 124.4 70.5 121.099 70.5 114.5V113.735C70.5 112.207 70.5 111.059 70.4247 110.125H63.3337C61.414 110.125 59.7165 110.125 58.3497 109.941C56.8675 109.742 55.3852 109.285 54.176 108.076C52.965 106.865 52.5082 105.382 52.3087 103.9C52.125 102.533 52.125 100.838 52.125 98.9162L52.1425 93.9567C52.1425 93.8115 52.1547 93.6697 52.1775 93.5297C51.4617 93.5 50.613 93.5 49.5525 93.5C42.9182 93.5 39.6002 93.5 37.551 95.551C35.5 97.6002 35.5 100.901 35.5 107.5V114.5C35.5 121.099 35.5 124.4 37.551 126.449C39.6002 128.5 42.9007 128.5 49.5 128.5Z" fill="#8778F7"/>
<path d="M47.7728 123.332C47.5295 123.56 47.2086 123.687 46.8751 123.687C46.5416 123.687 46.2206 123.56 45.9773 123.332L42.4773 120.051C42.2293 119.812 42.0856 119.484 42.0771 119.139C42.0685 118.795 42.196 118.461 42.4318 118.209C42.6676 117.958 42.9929 117.809 43.3374 117.796C43.6819 117.782 44.0179 117.904 44.2728 118.137L45.5626 119.344V113.625C45.5626 113.277 45.7008 112.943 45.947 112.697C46.1931 112.451 46.527 112.313 46.8751 112.313C47.2232 112.313 47.557 112.451 47.8031 112.697C48.0493 112.943 48.1876 113.277 48.1876 113.625V119.346L49.4773 118.137C49.7322 117.904 50.0682 117.782 50.4127 117.796C50.7572 117.809 51.0825 117.958 51.3183 118.209C51.5541 118.461 51.6816 118.795 51.6731 119.139C51.6645 119.484 51.5208 119.812 51.2728 120.051L47.7728 123.332ZM52.1426 93.955L52.1251 98.9163C52.1251 100.836 52.1251 102.532 52.3088 103.9C52.5083 105.383 52.9651 106.865 54.1761 108.074C55.3836 109.283 56.8676 109.742 58.3498 109.941C59.7166 110.125 61.4141 110.125 63.3338 110.125H70.4248C70.4476 110.396 70.4633 110.687 70.4738 111H70.5001C70.5001 110.531 70.5001 110.297 70.4826 110.02C70.3478 108.357 69.7688 106.761 68.8061 105.398C68.6416 105.174 68.5296 105.041 68.3073 104.774C66.9196 103.115 65.0926 101.046 63.5001 99.625C62.0826 98.358 60.1383 96.9738 58.4426 95.8415C56.9866 94.8703 56.2586 94.3838 55.2593 94.0215C54.9686 93.9181 54.6731 93.8288 54.3738 93.7538C53.7018 93.5875 53.0473 93.5298 52.1251 93.5088L52.1426 93.955Z" fill="#8778F7"/>
<path opacity="0.5" d="M153.5 114.5V110.646C153.5 106.041 153.5 103.736 152.152 102.24C152.029 102.101 151.898 101.97 151.76 101.846C150.264 100.5 147.959 100.5 143.354 100.5H142.699C140.681 100.5 139.672 100.5 138.73 100.232C138.213 100.085 137.715 99.8779 137.246 99.6163C136.392 99.142 135.678 98.4262 134.25 97L133.288 96.0375C132.808 95.558 132.57 95.32 132.318 95.11C131.234 94.2116 129.905 93.6609 128.503 93.5297C128.177 93.5 127.838 93.5 127.163 93.5C125.617 93.5 124.845 93.5 124.201 93.6225C122.819 93.8836 121.547 94.5555 120.552 95.5504C119.556 96.5453 118.884 97.8171 118.622 99.1997C118.5 99.8455 118.5 100.619 118.5 102.163V114.5C118.5 121.099 118.5 124.4 120.551 126.449C122.6 128.5 125.901 128.5 132.5 128.5H139.5C146.099 128.5 149.4 128.5 151.449 126.449C153.5 124.4 153.5 121.099 153.5 114.5Z" fill="#8778F7"/>
<path d="M137.462 109.588L136 113.683L134.538 109.588C134.503 109.489 134.515 109.388 134.572 109.291C134.629 109.195 134.731 109.105 134.87 109.028C135.009 108.952 135.182 108.89 135.377 108.848C135.573 108.806 135.785 108.784 136 108.784C136.215 108.784 136.427 108.806 136.623 108.848C136.818 108.89 136.991 108.952 137.13 109.028C137.269 109.105 137.371 109.195 137.428 109.291C137.485 109.388 137.497 109.489 137.462 109.588Z" stroke="#8778F7" stroke-width="3" stroke-linecap="round" stroke-linejoin="round"/>
<path d="M136 117.222C136.644 117.222 137.167 116.978 137.167 116.677C137.167 116.377 136.644 116.133 136 116.133C135.356 116.133 134.833 116.377 134.833 116.677C134.833 116.978 135.356 117.222 136 117.222Z" stroke="#8778F7" stroke-width="2"/>
<path d="M497.026 31.333H490.677C484.692 31.333 481.699 31.333 479.839 33.1887C478.557 34.4648 478.159 36.2778 478.034 39.2323C478.01 39.8181 477.998 40.1126 478.107 40.3073C478.218 40.5021 478.653 40.7475 479.527 41.2352C480.019 41.5096 480.43 41.9106 480.715 42.3966C481 42.8826 481.151 43.436 481.151 43.9997C481.151 44.5633 481 45.1167 480.715 45.6028C480.43 46.0888 480.019 46.4897 479.527 46.7642C478.653 47.2534 478.216 47.4973 478.107 47.692C477.998 47.8868 478.01 48.1797 478.036 48.7655C478.159 51.7216 478.558 53.5345 479.839 54.8107C481.698 56.6663 484.69 56.6663 490.677 56.6663H497.026C503.011 56.6663 506.004 56.6663 507.864 54.8107C509.147 53.5345 509.544 51.7216 509.669 48.7671C509.693 48.1813 509.705 47.8868 509.596 47.692C509.485 47.4973 509.05 47.2534 508.176 46.7642C507.684 46.4897 507.274 46.0888 506.988 45.6028C506.703 45.1167 506.552 44.5633 506.552 43.9997C506.552 43.436 506.703 42.8826 506.988 42.3966C507.274 41.9106 507.684 41.5096 508.176 41.2352C509.05 40.7475 509.487 40.5021 509.596 40.3073C509.705 40.1126 509.693 39.8197 509.667 39.2323C509.544 36.2778 509.145 34.4664 507.864 33.1887C506.005 31.333 503.013 31.333 497.026 31.333Z" fill="#C7F4CE"/>
<path d="M489.101 48.75L498.601 39.25" stroke="#00A16B" stroke-width="0.7" stroke-linecap="round"/>
<path d="M499.393 47.958C499.393 48.3779 499.226 48.7807 498.929 49.0776C498.632 49.3745 498.229 49.5413 497.81 49.5413C497.39 49.5413 496.987 49.3745 496.69 49.0776C496.393 48.7807 496.226 48.3779 496.226 47.958C496.226 47.5381 496.393 47.1354 496.69 46.8384C496.987 46.5415 497.39 46.3747 497.81 46.3747C498.229 46.3747 498.632 46.5415 498.929 46.8384C499.226 47.1354 499.393 47.5381 499.393 47.958ZM491.476 40.0413C491.476 40.4613 491.309 40.864 491.012 41.1609C490.716 41.4579 490.313 41.6247 489.893 41.6247C489.473 41.6247 489.07 41.4579 488.773 41.1609C488.476 40.864 488.31 40.4613 488.31 40.0413C488.31 39.6214 488.476 39.2187 488.773 38.9218C489.07 38.6248 489.473 38.458 489.893 38.458C490.313 38.458 490.716 38.6248 491.012 38.9218C491.309 39.2187 491.476 39.6214 491.476 40.0413Z" fill="#00A16B"/>
<rect x="384.477" y="25" width="40.375" height="38" rx="4" fill="#C7F4CE"/>
<g clip-path="url(#clip1_2293_4518)">
<path d="M394.25 47.13L408.372 33.0078M408.372 33.0078V39.1863M408.372 33.0078H402.193M413.667 41.8342L399.545 55.9563M399.545 55.9563V49.7779M399.545 55.9563H405.724" stroke="#00A16B" stroke-width="1.5" stroke-linecap="round" stroke-linejoin="round"/>
</g>
<rect x="32" y="25" width="41.6191" height="38" rx="4" fill="#C7F4CE"/>
<g clip-path="url(#clip2_2293_4518)">
<path d="M51.0011 35.8584C51.8776 35.8584 52.6975 36.0233 53.4609 36.3532C54.2243 36.6831 54.8935 37.1354 55.4684 37.7103C56.0433 38.2852 56.4957 38.9544 56.8255 39.7178C57.1554 40.4812 57.3203 41.3058 57.3203 42.1917C57.3203 43.0682 57.1554 43.8882 56.8255 44.6516C56.4957 45.4149 56.0433 46.0841 55.4684 46.659C54.8935 47.2339 54.2243 47.6863 53.4609 48.0161C52.6975 48.346 51.8776 48.5156 51.0011 48.5251H50.0964V46.7155H51.0011C51.6231 46.7155 52.2075 46.5977 52.7541 46.3621C53.3007 46.1265 53.7767 45.8061 54.1819 45.4008C54.5872 44.9956 54.9123 44.5149 55.1574 43.9588C55.4024 43.4028 55.5249 42.8138 55.5249 42.1917C55.5249 41.5697 55.4071 40.9854 55.1715 40.4388C54.9359 39.8921 54.6107 39.4162 54.1961 39.0109C53.7814 38.6057 53.3007 38.2805 52.7541 38.0355C52.2075 37.7904 51.6231 37.6679 51.0011 37.6679H43.763C43.141 37.6679 42.5567 37.7857 42.01 38.0213C41.4634 38.257 40.9828 38.5821 40.5681 38.9968C40.1534 39.4115 39.8282 39.8921 39.5926 40.4388C39.357 40.9854 39.2392 41.5697 39.2392 42.1917C39.2392 42.8138 39.357 43.3981 39.5926 43.9447C39.8282 44.4913 40.1487 44.972 40.5539 45.3867C40.9592 45.8014 41.4399 46.1265 41.9959 46.3621C42.552 46.5977 43.141 46.7155 43.763 46.7155H44.6678V48.5251H43.763C42.8865 48.5251 42.0666 48.3601 41.3032 48.0303C40.5398 47.7004 39.8707 47.248 39.2958 46.6731C38.7209 46.0982 38.2685 45.4291 37.9386 44.6657C37.6088 43.9023 37.4391 43.0776 37.4297 42.1917C37.4297 41.3152 37.5946 40.4953 37.9245 39.7319C38.2543 38.9685 38.7067 38.2994 39.2816 37.7245C39.8565 37.1496 40.5257 36.6972 41.2891 36.3673C42.0525 36.0375 42.8771 35.8678 43.763 35.8584H51.0011ZM64.5443 47.2952C64.4972 46.7014 64.3511 46.1501 64.106 45.6411C63.861 45.1322 63.5358 44.6893 63.1306 44.3123C62.7253 43.9353 62.2588 43.6384 61.731 43.4216C61.2033 43.2049 60.6425 43.0965 60.0487 43.0965H59.144V41.287H60.0487C60.9252 41.287 61.7452 41.4519 62.5086 41.7818C63.272 42.1116 63.9411 42.564 64.516 43.1389C65.0909 43.7138 65.5433 44.383 65.8731 45.1463C66.203 45.9097 66.3726 46.7344 66.3821 47.6203C66.3821 48.0633 66.3302 48.5156 66.2266 48.9774L64.5443 47.2952ZM48.2868 47.6203C48.2868 48.2423 48.4046 48.8267 48.6403 49.3733C48.8759 49.9199 49.1963 50.4006 49.6016 50.8152C50.0068 51.2299 50.4875 51.5551 51.0435 51.7907C51.5996 52.0263 52.1886 52.1441 52.8106 52.1441H55.2987L57.1083 53.9536H52.8106C51.9342 53.9536 51.1142 53.7887 50.3508 53.4588C49.5874 53.129 48.9183 52.6766 48.3434 52.1017C47.7685 51.5268 47.3161 50.8577 46.9862 50.0943C46.6564 49.3309 46.4867 48.5062 46.4773 47.6203C46.4773 46.7438 46.6422 45.9239 46.9721 45.1605C47.302 44.3971 47.7543 43.7279 48.3292 43.153C48.9041 42.5781 49.5733 42.1258 50.3367 41.7959C51.1001 41.466 51.9247 41.2964 52.8106 41.287H53.7154V43.0965H52.8106C52.1886 43.0965 51.6043 43.2143 51.0577 43.4499C50.511 43.6855 50.0304 44.0107 49.6157 44.4254C49.201 44.84 48.8759 45.3207 48.6403 45.8673C48.4046 46.414 48.2868 46.9983 48.2868 47.6203ZM66.3397 51.6635L63.1447 54.8584L66.3397 58.0675L65.0673 59.3398L61.8583 56.1449L58.6492 59.3539L57.3769 58.0675L60.5859 54.8584L57.3769 51.6493L58.6492 50.377L61.8583 53.5861L65.0673 50.377L66.3397 51.6635Z" fill="#00A16B"/>
</g>
<rect x="204.238" y="25" width="41.6191" height="38" rx="4" fill="#C7F4CE"/>
<path d="M214.493 54.5565C213.83 54.5565 213.262 54.32 212.789 53.8471C212.316 53.3743 212.08 52.8065 212.081 52.1438V37.6676C212.081 37.0041 212.317 36.4359 212.79 35.963C213.263 35.4901 213.831 35.2541 214.493 35.2549H220.736C221.058 35.2549 221.365 35.3152 221.657 35.4358C221.949 35.5565 222.205 35.7274 222.425 35.9485L224.144 37.6676H233.795C234.458 37.6676 235.027 37.904 235.499 38.3769C235.972 38.8498 236.208 39.4176 236.208 40.0803V42.2517C236.208 42.5935 236.092 42.8802 235.86 43.1118C235.629 43.3435 235.342 43.4589 235.001 43.4581C234.659 43.4581 234.373 43.3423 234.141 43.1106C233.909 42.879 233.794 42.5927 233.795 42.2517V40.0803H214.493V52.1438H222.938C223.28 52.1438 223.566 52.2596 223.798 52.4912C224.029 52.7228 224.145 53.0091 224.144 53.3501C224.144 53.6919 224.028 53.9786 223.797 54.2103C223.565 54.4419 223.279 54.5573 222.938 54.5565H214.493ZM231.744 47.9517L233.041 49.2485L228.366 53.893V55.1596H229.633L234.308 50.5152L235.574 51.7819L231.081 56.2755C230.859 56.4967 230.603 56.6676 230.311 56.7882C230.019 56.9089 229.713 56.9692 229.392 56.9692H227.763C227.421 56.9692 227.135 56.8534 226.904 56.6217C226.673 56.3901 226.558 56.1038 226.557 55.7628V54.1343C226.557 53.8126 226.617 53.5057 226.738 53.2138C226.858 52.9219 227.029 52.6657 227.25 52.4454L231.744 47.9517ZM235.574 51.7819L231.744 47.9517L233.493 46.2025C233.714 45.9813 233.996 45.8708 234.338 45.8708C234.68 45.8708 234.961 45.9813 235.182 46.2025L237.323 48.3438C237.545 48.5649 237.655 48.8464 237.655 49.1882C237.655 49.53 237.545 49.8115 237.323 50.0327L235.574 51.7819Z" fill="#00A16B"/>
<rect x="294.857" y="25" width="41.6191" height="38" rx="4" fill="#C7F4CE"/>
<g clip-path="url(#clip3_2293_4518)">
<path d="M313.858 48.5247H308.43C307.71 48.5247 307.02 48.8107 306.511 49.3197C306.002 49.8287 305.716 50.5191 305.716 51.239V53.0485H307.525V51.239C307.525 50.999 307.62 50.7689 307.79 50.5992C307.96 50.4295 308.19 50.3342 308.43 50.3342H313.858C314.098 50.3342 314.329 50.4295 314.498 50.5992C314.668 50.7689 314.763 50.999 314.763 51.239V53.0485H316.573V51.239C316.573 50.5191 316.287 49.8287 315.778 49.3197C315.269 48.8107 314.578 48.5247 313.858 48.5247ZM311.144 47.6199C311.86 47.6199 312.56 47.4077 313.155 47.01C313.75 46.6123 314.214 46.0471 314.488 45.3858C314.762 44.7245 314.833 43.9969 314.694 43.2948C314.554 42.5928 314.209 41.948 313.703 41.4418C313.197 40.9357 312.552 40.591 311.85 40.4514C311.148 40.3117 310.42 40.3834 309.759 40.6573C309.098 40.9312 308.533 41.3951 308.135 41.9903C307.737 42.5854 307.525 43.2851 307.525 44.0009C307.525 44.9607 307.906 45.8812 308.585 46.5599C309.264 47.2386 310.184 47.6199 311.144 47.6199ZM311.144 42.1914C311.502 42.1914 311.852 42.2975 312.149 42.4963C312.447 42.6952 312.679 42.9778 312.816 43.3084C312.953 43.6391 312.989 44.0029 312.919 44.3539C312.849 44.7049 312.677 45.0273 312.424 45.2804C312.171 45.5335 311.848 45.7058 311.497 45.7756C311.146 45.8455 310.782 45.8096 310.452 45.6727C310.121 45.5357 309.838 45.3038 309.64 45.0062C309.441 44.7086 309.335 44.3588 309.335 44.0009C309.335 43.521 309.525 43.0607 309.865 42.7214C310.204 42.382 310.664 42.1914 311.144 42.1914Z" fill="#00A16B"/>
<path d="M325.62 47.6203V55.7632H303.906V37.6679H314.763V35.8584H303.906C303.426 35.8584 302.966 36.049 302.627 36.3884C302.287 36.7277 302.097 37.188 302.097 37.6679V55.7632C302.097 56.2431 302.287 56.7033 302.627 57.0427C302.966 57.382 303.426 57.5727 303.906 57.5727H325.62C326.1 57.5727 326.561 57.382 326.9 57.0427C327.239 56.7033 327.43 56.2431 327.43 55.7632V47.6203H325.62Z" fill="#00A16B"/>
<path d="M318.382 47.6202H323.811V49.4297H318.382V47.6202ZM320.192 51.2393H323.811V53.0488H320.192V51.2393ZM329.239 39.4774V37.6678H327.339C327.222 37.1015 326.997 36.5629 326.676 36.0818L328.024 34.7337L326.745 33.4544L325.397 34.8024C324.916 34.4817 324.377 34.2568 323.811 34.1402V32.2393H322.001V34.1402C321.435 34.2568 320.896 34.4817 320.415 34.8024L319.067 33.4544L317.788 34.7337L319.136 36.0818C318.815 36.5629 318.59 37.1015 318.474 37.6678H316.573V39.4774H318.474C318.59 40.0437 318.815 40.5822 319.136 41.0634L317.788 42.4115L319.067 43.6908L320.415 42.3427C320.896 42.6635 321.435 42.8883 322.001 43.005V44.9059H323.811V43.005C324.377 42.8883 324.916 42.6635 325.397 42.3427L326.745 43.6908L328.024 42.4115L326.676 41.0634C326.997 40.5822 327.222 40.0437 327.339 39.4774H329.239ZM322.906 41.2869C322.369 41.2869 321.844 41.1277 321.398 40.8294C320.952 40.5312 320.604 40.1073 320.398 39.6113C320.193 39.1153 320.139 38.5696 320.244 38.0431C320.349 37.5165 320.607 37.0329 320.987 36.6533C321.366 36.2737 321.85 36.0152 322.377 35.9105C322.903 35.8057 323.449 35.8595 323.945 36.0649C324.441 36.2704 324.865 36.6183 325.163 37.0646C325.461 37.511 325.62 38.0358 325.62 38.5726C325.62 39.2922 325.333 39.9822 324.825 40.4911C324.316 41 323.626 41.2862 322.906 41.2869Z" fill="#00A16B"/>
</g>
<rect x="115.619" y="25" width="41.6191" height="38" rx="4" fill="#C7F4CE"/>
<path d="M139.078 31.9375C137.429 31.9375 136.098 31.9375 135.052 32.0786C133.966 32.2234 133.052 32.5371 132.326 33.2621C131.694 33.8954 131.373 34.6735 131.205 35.5879C131.042 36.477 131.011 37.5639 131.004 38.8692C131.002 39.1091 131.096 39.3398 131.265 39.5104C131.434 39.6809 131.664 39.7775 131.904 39.7788C132.144 39.78 132.374 39.686 132.545 39.5172C132.715 39.3484 132.812 39.1188 132.813 38.8788C132.82 37.5603 132.854 36.6254 132.985 35.9148C133.111 35.232 133.313 34.8352 133.606 34.542C133.94 34.2078 134.409 33.9907 135.295 33.8713C136.205 33.7494 137.413 33.747 139.144 33.747H140.35C142.083 33.747 143.29 33.7494 144.201 33.8713C145.087 33.9907 145.555 34.2091 145.89 34.542C146.223 34.8762 146.44 35.3442 146.56 36.2309C146.683 37.1405 146.684 38.3492 146.684 40.0804V49.7312C146.684 51.4623 146.683 52.6698 146.56 53.5818C146.44 54.4673 146.223 54.9353 145.889 55.2695C145.555 55.6037 145.087 55.8208 144.201 55.9402C143.29 56.0621 142.083 56.0645 140.35 56.0645H139.144C137.413 56.0645 136.205 56.0621 135.293 55.9402C134.409 55.8208 133.94 55.6025 133.606 55.2695C133.313 54.9752 133.111 54.5795 132.985 53.8967C132.854 53.1861 132.82 52.2512 132.813 50.9327C132.813 50.8139 132.789 50.6963 132.742 50.5868C132.696 50.4773 132.629 50.3779 132.545 50.2943C132.46 50.2108 132.36 50.1446 132.25 50.0998C132.14 50.0549 132.022 50.0321 131.904 50.0327C131.785 50.0334 131.667 50.0574 131.558 50.1035C131.448 50.1495 131.349 50.2167 131.265 50.3011C131.182 50.3856 131.116 50.4857 131.071 50.5957C131.026 50.7057 131.003 50.8235 131.004 50.9423C131.011 52.2476 131.042 53.3345 131.205 54.2236C131.374 55.138 131.694 55.9161 132.327 56.5494C133.052 57.2757 133.968 57.5869 135.053 57.7341C136.098 57.874 137.429 57.874 139.078 57.874H140.417C142.067 57.874 143.397 57.874 144.442 57.7341C145.528 57.5869 146.443 57.2757 147.169 56.5494C147.895 55.8232 148.206 54.9088 148.353 53.8231C148.493 52.7772 148.493 51.4466 148.493 49.7975V40.014C148.493 38.3649 148.493 37.0343 148.353 35.9884C148.207 34.9027 147.895 33.9883 147.169 33.2621C146.443 32.5358 145.528 32.2246 144.442 32.0786C143.397 31.9375 142.066 31.9375 140.417 31.9375H139.078Z" fill="#00A16B"/>
<path d="M139.144 44.0013C139.384 44.0013 139.614 44.0966 139.784 44.2663C139.954 44.436 140.049 44.6661 140.049 44.9061C140.049 45.146 139.954 45.3762 139.784 45.5458C139.614 45.7155 139.384 45.8108 139.144 45.8108H125.907L128.273 47.8375C128.455 47.9936 128.568 48.2158 128.586 48.4552C128.605 48.6945 128.528 48.9315 128.371 49.1138C128.215 49.2962 127.993 49.4091 127.754 49.4276C127.514 49.4462 127.277 49.3689 127.095 49.2127L122.873 45.5937C122.774 45.5088 122.694 45.4033 122.639 45.2846C122.584 45.1659 122.556 45.0368 122.556 44.9061C122.556 44.7754 122.584 44.6463 122.639 44.5276C122.694 44.4089 122.774 44.3034 122.873 44.2185L127.095 40.5994C127.185 40.5221 127.29 40.4633 127.403 40.4265C127.516 40.3896 127.635 40.3754 127.754 40.3845C127.872 40.3937 127.988 40.4262 128.094 40.48C128.2 40.5339 128.294 40.608 128.371 40.6983C128.449 40.7886 128.508 40.8933 128.544 41.0063C128.581 41.1193 128.595 41.2385 128.586 41.357C128.577 41.4755 128.545 41.591 128.491 41.697C128.437 41.803 128.363 41.8973 128.273 41.9747L125.908 44.0013H139.144Z" fill="#00A16B"/>
<defs>
<filter id="filter0_d_2293_4518" x="0" y="0.00195312" width="630" height="297.161" filterUnits="userSpaceOnUse" color-interpolation-filters="sRGB">
<feFlood flood-opacity="0" result="BackgroundImageFix"/>
<feColorMatrix in="SourceAlpha" type="matrix" values="0 0 0 0 0 0 0 0 0 0 0 0 0 0 0 0 0 0 127 0" result="hardAlpha"/>
<feOffset dy="4"/>
<feGaussianBlur stdDeviation="7.5"/>
<feComposite in2="hardAlpha" operator="out"/>
<feColorMatrix type="matrix" values="0 0 0 0 0 0 0 0 0 0 0 0 0 0 0 0 0 0 0.07 0"/>
<feBlend mode="normal" in2="BackgroundImageFix" result="effect1_dropShadow_2293_4518"/>
<feBlend mode="normal" in="SourceGraphic" in2="effect1_dropShadow_2293_4518" result="shape"/>
</filter>
<clipPath id="clip0_2293_4518">
<rect width="28.087" height="28.087" fill="white" transform="translate(301.957 96.957)"/>
</clipPath>
<clipPath id="clip1_2293_4518">
<rect width="24.7138" height="24.7138" fill="white" transform="translate(391.602 32.125)"/>
</clipPath>
<clipPath id="clip2_2293_4518">
<rect width="28.9524" height="28.9524" fill="white" transform="translate(37.4297 30.4297)"/>
</clipPath>
<clipPath id="clip3_2293_4518">
<rect width="28.9524" height="28.9524" fill="white" transform="translate(300.287 30.4297)"/>
</clipPath>
</defs>
</svg>
