<svg width="347" height="347" viewBox="0 0 347 347" fill="none" xmlns="http://www.w3.org/2000/svg">
<path d="M295.297 282.847C297.762 281.691 300.531 281.353 303.202 281.883C304.638 282.126 306.137 282.577 307.116 283.632C308.094 284.686 308.275 286.609 307.151 287.532C306.428 288.022 305.556 288.243 304.687 288.156C302.605 288.156 300.28 287.768 298.608 289.024C297.657 289.718 297.018 290.932 295.88 291.286C295.31 291.42 294.712 291.363 294.177 291.125C293.642 290.887 293.199 290.481 292.917 289.968C292.374 288.919 292.255 287.701 292.584 286.567C292.717 285.779 293.032 285.033 293.503 284.388C293.974 283.743 294.588 283.215 295.297 282.847Z" fill="#EBEBEB"/>
<path d="M289.78 272.207C291.251 274.289 294.11 273.595 295.436 272.325C296.761 271.055 297.323 269.188 297.837 267.412C299.003 263.366 300.176 259.084 299.308 254.989C299.1 253.738 298.55 252.568 297.719 251.609C297.3 251.137 296.763 250.783 296.164 250.583C295.565 250.383 294.923 250.345 294.304 250.471C292.861 250.853 291.966 252.269 291.32 253.608C289.412 257.576 288.412 261.919 288.392 266.322C288.392 268.37 288.628 270.486 289.78 272.207Z" fill="#EBEBEB"/>
<path d="M285.741 275.22C286.498 274.233 287.002 273.076 287.211 271.85C287.419 270.623 287.324 269.364 286.934 268.183C286.126 265.824 284.686 263.733 282.77 262.138C280.595 260.198 278.06 258.703 275.31 257.738C274.244 257.308 273.099 257.111 271.951 257.162C271.378 257.197 270.822 257.371 270.331 257.668C269.84 257.965 269.429 258.378 269.133 258.869C268.349 260.368 269.133 262.187 269.917 263.665C271.357 266.277 272.998 268.774 274.824 271.132C276.295 273.027 277.975 274.894 280.216 275.747C282.458 276.601 284.783 276.504 285.97 274.949" fill="#EBEBEB"/>
<path d="M289.683 303.903C289.758 303.591 289.802 303.273 289.815 302.952C289.884 302.258 289.967 301.384 290.071 300.343C290.198 299.059 290.392 297.782 290.654 296.519C290.997 294.981 291.461 293.473 292.042 292.008C292.613 290.545 293.389 289.171 294.346 287.927C295.126 286.913 296.122 286.086 297.261 285.505C298.033 285.125 298.86 284.867 299.711 284.742C300.032 284.73 300.351 284.683 300.662 284.603C300.341 284.57 300.018 284.57 299.697 284.603C298.809 284.681 297.942 284.916 297.136 285.297C295.94 285.865 294.89 286.701 294.069 287.74C293.068 289 292.264 290.404 291.681 291.904C291.085 293.389 290.62 294.924 290.293 296.491C290.044 297.768 289.875 299.059 289.787 300.357C289.703 301.467 289.669 302.362 289.655 302.98C289.631 303.288 289.64 303.597 289.683 303.903Z" fill="#E0E0E0"/>
<path d="M289.863 301.89C289.881 301.742 289.881 301.593 289.863 301.446V300.183C289.863 299.079 289.863 297.49 289.918 295.526C290.016 291.598 290.356 287.365 291.008 281.403C291.626 275.796 292.459 269.272 293.333 265.032C293.52 264.067 293.715 263.199 293.888 262.436C294.062 261.673 294.207 261.048 294.346 260.486C294.485 259.924 294.561 259.577 294.645 259.251C294.687 259.111 294.713 258.966 294.721 258.82C294.651 258.949 294.599 259.087 294.568 259.23C294.471 259.549 294.346 259.924 294.2 260.444C294.055 260.965 293.867 261.624 293.673 262.387C293.479 263.151 293.27 264.011 293.062 264.969C291.977 269.988 291.161 275.062 290.619 280.168C289.925 286.143 289.669 291.584 289.641 295.519C289.641 297.49 289.641 299.086 289.71 300.183C289.71 300.703 289.766 301.12 289.787 301.453C289.792 301.601 289.818 301.748 289.863 301.89Z" fill="#E0E0E0"/>
<path d="M289.891 291.405C289.926 290.966 289.926 290.525 289.891 290.086C289.842 289.232 289.724 288.004 289.488 286.498C289.197 284.736 288.808 282.991 288.322 281.272C287.752 279.158 287.021 277.091 286.136 275.089C284.608 271.398 282.421 268.017 279.682 265.109C279.208 264.614 278.703 264.15 278.169 263.721C277.94 263.52 277.732 263.325 277.524 263.173L276.941 262.77C276.587 262.51 276.213 262.278 275.823 262.076C277.108 263.085 278.328 264.174 279.474 265.338C282.108 268.275 284.22 271.641 285.72 275.29C286.586 277.279 287.319 279.324 287.913 281.411C288.416 283.114 288.831 284.842 289.155 286.588C289.433 288.08 289.586 289.295 289.683 290.135C289.721 290.562 289.79 290.987 289.891 291.405Z" fill="#E0E0E0"/>
<path d="M308.545 85.2654L270.875 96.5984C269.996 96.8598 269.05 96.7628 268.242 96.3284C267.435 95.8941 266.832 95.1578 266.565 94.2804L251.297 43.5212C251.036 42.6424 251.133 41.6958 251.567 40.8882C252.002 40.0807 252.738 39.4779 253.615 39.2115L279.987 31.293L298.913 41.1408L310.891 80.9556C311.151 81.8382 311.051 82.788 310.611 83.5962C310.171 84.4044 309.428 85.0048 308.545 85.2654Z" fill="#E0E0E0"/>
<path d="M279.918 31.168L282.958 41.2587C283.136 41.8517 283.429 42.4038 283.82 42.8834C284.212 43.3631 284.694 43.7609 285.239 44.0542C285.784 44.3474 286.382 44.5303 286.998 44.5925C287.614 44.6547 288.236 44.5948 288.829 44.4164L298.885 41.1477L279.918 31.168Z" fill="#EBEBEB"/>
<path d="M299.877 76.9441C299.866 76.9017 299.852 76.8599 299.836 76.8192L299.718 76.4791C299.621 76.1599 299.482 75.7157 299.301 75.1466C298.941 73.9668 298.413 72.2735 297.747 70.1221C296.428 65.7985 294.548 59.6427 292.292 52.2655L292.486 52.3696L266.808 60.1215C266.808 60.1701 267.037 59.6982 266.933 59.8995V59.9411V59.9966L266.968 60.1007L267.03 60.3089L267.155 60.7323L267.412 61.572L267.912 63.2515L268.904 66.548L270.82 72.9328C272.062 77.0968 273.235 81.0109 274.29 84.6197L274.095 84.5156L292.688 79.0053L297.948 77.4646L299.336 77.0621L299.697 76.9649C299.741 76.9587 299.785 76.9587 299.829 76.9649L299.725 77.0066L299.378 77.1176L298.024 77.5409L292.868 79.1163L274.22 84.8071L274.068 84.8557L274.019 84.703C272.929 81.0942 271.75 77.1801 270.493 73.0299C269.869 70.9572 269.226 68.8289 268.564 66.6451L267.572 63.3486L267.072 61.6692L266.815 60.8294L266.69 60.4061L266.628 60.1979L266.593 60.0938V60.0383V59.9966C266.482 60.1979 266.739 59.719 266.711 59.7676L292.389 52.0642L292.542 52.0156L292.583 52.1683C294.79 59.608 296.623 65.8054 297.913 70.1637C298.545 72.3082 299.038 74.0015 299.385 75.1813L299.759 76.493L299.85 76.8261C299.877 76.9094 299.884 76.9441 299.877 76.9441Z" fill="white"/>
<path d="M286.872 81.1989C286.775 81.1989 285.033 75.7163 282.985 68.8943C280.938 62.0723 279.342 56.5064 279.439 56.4786C279.536 56.4509 281.271 61.9612 283.325 68.7902C285.38 75.6191 286.969 81.1434 286.872 81.1989Z" fill="white"/>
<path d="M297.962 70.9128C297.962 71.003 292.236 72.8213 285.116 74.9657C277.996 77.1102 272.187 78.7688 272.159 78.6717C272.131 78.5745 277.885 76.7632 285.012 74.6187C292.139 72.4743 297.927 70.7878 297.962 70.9128Z" fill="white"/>
<path d="M296.338 64.543C296.338 64.6401 290.612 66.4515 283.492 68.5959C276.372 70.7404 270.57 72.399 270.535 72.3019C270.5 72.2047 276.261 70.3934 283.388 68.2489C290.515 66.1045 296.338 64.425 296.338 64.543Z" fill="white"/>
<path d="M294.256 58.2969C294.256 58.3941 288.579 60.1915 281.507 62.3221C274.435 64.4527 268.682 66.0975 268.654 66.0003C268.627 65.9031 274.331 64.0987 281.403 61.9751C288.475 59.8515 294.256 58.1789 294.256 58.2969Z" fill="white"/>
<path d="M33.312 137.489L13.88 134.019C13.4299 133.935 13.0313 133.676 12.7713 133.299C12.5113 132.922 12.4109 132.458 12.492 132.007L17.1765 105.864C17.2175 105.64 17.302 105.427 17.4253 105.237C17.5486 105.046 17.7083 104.882 17.8952 104.753C18.0821 104.624 18.2926 104.533 18.5146 104.486C18.7366 104.438 18.9658 104.435 19.1891 104.476L32.7707 106.877L39.0167 115.573L35.3385 136.081C35.2992 136.307 35.2154 136.523 35.092 136.716C34.9686 136.91 34.808 137.077 34.6195 137.208C34.431 137.339 34.2184 137.432 33.9939 137.48C33.7695 137.528 33.5377 137.531 33.312 137.489Z" fill="#E0E0E0"/>
<path d="M32.7776 106.82L31.8476 112.018C31.7876 112.326 31.7895 112.643 31.8533 112.95C31.9171 113.257 32.0414 113.549 32.2191 113.807C32.3968 114.065 32.6243 114.286 32.8882 114.455C33.1521 114.625 33.4472 114.74 33.7561 114.794L38.9958 115.613L32.7776 106.82Z" fill="#EBEBEB"/>
<path d="M31.3204 131.799C31.3136 131.716 31.3136 131.632 31.3204 131.549L31.4245 130.855C31.5286 130.217 31.6743 129.342 31.8547 128.246C32.2364 125.99 32.7778 122.832 33.4232 119.05L33.5481 119.23L20.3343 116.871L20.5425 116.732V116.774V116.829V116.94L20.5009 117.155L20.4246 117.586C20.369 117.877 20.3205 118.162 20.2719 118.446C20.1678 119.022 20.0637 119.591 19.9596 120.147C19.7583 121.271 19.564 122.367 19.3697 123.436C18.981 125.574 18.6132 127.6 18.2732 129.446L18.1482 129.266L27.6769 131.056L30.3765 131.584L31.0705 131.729L31.3273 131.792H31.0983L30.4043 131.688L27.7254 131.244L18.0441 129.585H17.8845V129.425C18.2176 127.565 18.5785 125.546 18.9463 123.408C19.1407 122.34 19.335 121.243 19.5362 120.119C19.6334 119.557 19.7375 118.995 19.8347 118.419C19.8902 118.134 19.9388 117.849 19.9943 117.558L20.0706 117.128L20.1053 116.906V116.801V116.746V116.704L20.3135 116.559L33.5481 118.96H33.7008V119.113C33.0068 122.923 32.3822 126.108 31.9588 128.377C31.7506 129.453 31.5771 130.314 31.4592 130.938C31.4036 131.209 31.3551 131.424 31.3204 131.632C31.3256 131.688 31.3256 131.743 31.3204 131.799Z" fill="white"/>
<path d="M24.5469 130.743C24.7494 128.594 25.0715 126.457 25.5115 124.344C25.8348 122.209 26.275 120.094 26.8301 118.008C26.6276 120.157 26.3055 122.293 25.8655 124.406C25.5463 126.542 25.1061 128.657 24.5469 130.743Z" fill="white"/>
<path d="M31.8269 128.669C29.5845 128.454 27.3557 128.116 25.1506 127.656C22.9247 127.313 20.7191 126.85 18.5437 126.268C20.7856 126.486 23.0142 126.825 25.22 127.281C27.4451 127.627 29.6505 128.09 31.8269 128.669Z" fill="white"/>
<path d="M32.5626 125.454C30.3211 125.232 28.0927 124.894 25.8863 124.441C23.6585 124.096 21.4508 123.633 19.2725 123.053C21.5145 123.27 23.7431 123.609 25.9487 124.066C28.1772 124.407 30.3852 124.87 32.5626 125.454Z" fill="white"/>
<path d="M33.0415 122.186C30.8181 121.973 28.608 121.639 26.4207 121.187C24.2098 120.838 22.0185 120.374 19.8555 119.799C22.0817 120.008 24.2944 120.341 26.4832 120.798C28.6926 121.143 30.8819 121.606 33.0415 122.186Z" fill="white"/>
<path d="M325.923 303.813C325.923 303.91 257.675 303.994 173.507 303.994C89.3385 303.994 21.0767 303.91 21.0767 303.813C21.0767 303.716 89.3107 303.633 173.507 303.633C257.703 303.633 325.923 303.716 325.923 303.813Z" fill="#263238"/>
<path d="M103.954 74.0287L77.034 83.3283C76.4063 83.5452 75.7182 83.504 75.1209 83.2138C74.5236 82.9236 74.066 82.4082 73.8485 81.7807L61.3565 45.5123C61.1404 44.8891 61.1788 44.2058 61.4634 43.6107C61.7479 43.0156 62.2556 42.5568 62.8764 42.3337L81.6977 35.8379L95.6818 42.4031L105.509 70.8571C105.723 71.4839 105.68 72.17 105.388 72.7647C105.097 73.3595 104.581 73.8141 103.954 74.0287Z" fill="#8778F7"/>
<path d="M81.6699 35.7402L84.1614 42.944C84.4563 43.7996 85.0787 44.5031 85.8921 44.9C86.7054 45.2969 87.643 45.3547 88.4989 45.0607L95.6818 42.3957L81.6699 35.7402Z" fill="#8778F7"/>
<g opacity="0.2">
<path d="M81.6699 35.7402L84.1614 42.944C84.4563 43.7996 85.0787 44.5031 85.8921 44.9C86.7054 45.2969 87.643 45.3547 88.4989 45.0607L95.6818 42.3957L81.6699 35.7402Z" fill="black"/>
</g>
<path d="M97.4444 68.2608C97.391 68.1528 97.3446 68.0416 97.3056 67.9276C97.2223 67.6917 97.1044 67.3724 96.9586 66.9769L95.6816 63.3889C94.5851 60.2867 93.0444 55.9076 91.1915 50.647L91.3927 50.7442L73.0434 57.1082C73.0434 57.1637 73.2516 56.6779 73.1544 56.8861V56.9624L73.203 57.1151L73.3071 57.4135L73.5153 58.0173L73.9317 59.211C74.2023 60.0091 74.473 60.7933 74.7437 61.5706C75.278 63.1252 75.8055 64.652 76.3121 66.1371C77.3323 69.1005 78.2969 71.9043 79.1783 74.4651L78.984 74.368L92.3019 69.9541L96.0772 68.7049L97.0835 68.3718L97.4444 68.2677C97.3418 68.3204 97.235 68.3645 97.1252 68.3995L96.1605 68.7465L92.4615 70.0929L79.1159 74.7496L78.9701 74.8052L78.9215 74.6525C78.0263 72.0777 77.0477 69.2809 76.0206 66.3245L74.4522 61.7649C74.1815 60.9876 73.9109 60.1965 73.6402 59.4053L73.2238 58.2116L73.0156 57.6079L72.9115 57.3094L72.8629 57.1568V57.0804C72.7658 57.2817 73.0017 56.7959 72.9809 56.8445L91.3441 50.529L91.4968 50.4805L91.5454 50.6262C93.3429 55.9422 94.8488 60.3422 95.9107 63.5069L97.1043 67.0879C97.2293 67.4835 97.3334 67.7819 97.4097 68.0248C97.486 68.2677 97.4513 68.2677 97.4444 68.2608Z" fill="white"/>
<path d="M88.1379 71.7035C88.0477 71.7382 86.6041 67.8102 84.9177 62.9314C83.2313 58.0526 81.9405 54.0759 82.0376 54.0412C82.1348 54.0065 83.5714 57.9346 85.2578 62.8134C86.9442 67.6922 88.2559 71.6688 88.1379 71.7035Z" fill="white"/>
<path d="M95.876 63.9575C95.876 64.0477 91.8091 65.5537 86.7221 67.3095C81.6351 69.0653 77.478 70.4186 77.4433 70.3215C77.4086 70.2243 81.5102 68.7253 86.6041 66.9694C91.6981 65.2136 95.8482 63.8464 95.876 63.9575Z" fill="white"/>
<path d="M94.5298 59.3858C94.5298 59.476 90.4629 60.982 85.3759 62.7378C80.2889 64.4936 76.1318 65.8469 76.0971 65.7498C76.0624 65.6526 80.164 64.1536 85.2579 62.3977C90.3519 60.6419 94.502 59.2886 94.5298 59.3858Z" fill="white"/>
<path d="M92.8363 54.9295C92.8363 55.0197 88.7972 56.5118 83.7518 58.2538C78.7065 59.9957 74.5772 61.3421 74.5425 61.2449C74.5078 61.1477 78.5815 59.6626 83.6339 57.9137C88.6862 56.1648 92.8016 54.8254 92.8363 54.9295Z" fill="white"/>
<path d="M294.901 236.071L280.792 243.504C280.63 243.591 280.451 243.646 280.267 243.664C280.083 243.681 279.898 243.662 279.721 243.607C279.545 243.552 279.381 243.463 279.239 243.344C279.098 243.225 278.982 243.078 278.898 242.914L268.883 223.905C268.795 223.743 268.741 223.565 268.722 223.381C268.704 223.197 268.723 223.012 268.777 222.835C268.831 222.659 268.92 222.495 269.039 222.354C269.157 222.212 269.302 222.095 269.466 222.011L279.335 216.812L287.663 219.262L295.519 234.176C295.606 234.341 295.659 234.521 295.674 234.706C295.69 234.891 295.669 235.078 295.611 235.254C295.554 235.431 295.461 235.594 295.339 235.735C295.217 235.875 295.068 235.989 294.901 236.071Z" fill="#455A64"/>
<path d="M279.314 216.764L281.306 220.539C281.422 220.762 281.581 220.959 281.774 221.12C281.967 221.281 282.19 221.403 282.43 221.478C282.67 221.553 282.922 221.579 283.172 221.556C283.422 221.533 283.665 221.461 283.888 221.344L287.635 219.262L279.314 216.764Z" fill="#E0E0E0"/>
<path d="M290.786 233.426C290.64 233.203 290.508 232.972 290.39 232.732L289.356 230.859L285.768 224.217L285.983 224.286L276.365 229.38L276.441 229.138V229.179L276.483 229.255L276.566 229.415L276.732 229.727L277.059 230.359L277.711 231.594L278.967 233.989L281.257 238.368L281.042 238.305L287.982 234.724L289.981 233.725C290.446 233.489 290.675 233.371 290.717 233.371C290.511 233.513 290.295 233.641 290.071 233.753L288.149 234.814L281.16 238.583L281.028 238.659L280.952 238.52C280.258 237.167 279.453 235.703 278.634 234.148C278.218 233.371 277.801 232.573 277.364 231.761L276.712 230.526L276.385 229.901L276.219 229.582L276.136 229.429L276.094 229.346V229.304C276.025 229.519 276.184 229.006 276.17 229.061L285.81 224.009L285.949 223.939L286.018 224.078C287.448 226.854 288.642 229.193 289.488 230.873C289.877 231.657 290.182 232.261 290.432 232.753C290.565 232.97 290.683 233.195 290.786 233.426Z" fill="white"/>
<path d="M285.963 236.119C284.988 234.668 284.118 233.149 283.36 231.574C282.492 230.058 281.731 228.484 281.084 226.861C282.049 228.317 282.916 229.836 283.679 231.407C284.542 232.927 285.304 234.501 285.963 236.119Z" fill="white"/>
<path d="M289.572 231.178C288.051 232.185 286.466 233.089 284.825 233.884C283.239 234.784 281.598 235.581 279.911 236.272C281.431 235.263 283.017 234.359 284.658 233.565C286.242 232.662 287.883 231.865 289.572 231.178Z" fill="white"/>
<path d="M288.44 228.762C286.918 229.763 285.332 230.665 283.693 231.461C282.11 232.374 280.469 233.181 278.78 233.876C281.883 231.967 285.11 230.267 288.44 228.789V228.762Z" fill="white"/>
<path d="M287.122 226.438C284.042 228.336 280.838 230.024 277.531 231.49C280.612 229.595 283.816 227.907 287.122 226.438Z" fill="white"/>
<path d="M320.184 79.3301H51.5295V225.001H320.184V79.3301Z" fill="#F5F5F5"/>
<path d="M320.184 79.3301H51.5295V91.6H320.184V79.3301Z" fill="#263238"/>
<path d="M57.8866 87.153C58.726 87.153 59.4064 86.4725 59.4064 85.6331C59.4064 84.7937 58.726 84.1133 57.8866 84.1133C57.0472 84.1133 56.3667 84.7937 56.3667 85.6331C56.3667 86.4725 57.0472 87.153 57.8866 87.153Z" fill="#FAFAFA"/>
<path d="M63.4178 87.153C64.2572 87.153 64.9377 86.4725 64.9377 85.6331C64.9377 84.7937 64.2572 84.1133 63.4178 84.1133C62.5784 84.1133 61.8979 84.7937 61.8979 85.6331C61.8979 86.4725 62.5784 87.153 63.4178 87.153Z" fill="#FAFAFA"/>
<path d="M68.9491 87.153C69.7885 87.153 70.4689 86.4725 70.4689 85.6331C70.4689 84.7937 69.7885 84.1133 68.9491 84.1133C68.1097 84.1133 67.4292 84.7937 67.4292 85.6331C67.4292 86.4725 68.1097 87.153 68.9491 87.153Z" fill="#FAFAFA"/>
<path d="M60.8985 112.684H51.127V224.994H60.8985V112.684Z" fill="#455A64"/>
<path d="M51.127 108.361V118.133L320.066 118.133V108.361L51.127 108.361Z" fill="#455A64"/>
<path d="M60.8985 218.742C60.8013 218.742 60.718 194.036 60.718 163.555C60.718 133.075 60.8013 108.361 60.8985 108.361C60.9956 108.361 61.0789 133.068 61.0789 163.555C61.0789 194.043 61.0026 218.742 60.8985 218.742Z" fill="#E0E0E0"/>
<path d="M99.3184 224.994C99.2212 224.994 99.1379 198.886 99.1379 166.698C99.1379 134.511 99.2212 108.402 99.3184 108.402C99.4155 108.402 99.4988 134.511 99.4988 166.698C99.4988 198.886 99.4155 224.994 99.3184 224.994Z" fill="#E0E0E0"/>
<path d="M140.07 224.995C139.973 224.995 139.89 198.97 139.89 166.873C139.89 134.775 139.973 108.75 140.07 108.75C140.167 108.75 140.251 134.768 140.251 166.873C140.251 198.977 140.188 224.995 140.07 224.995Z" fill="#E0E0E0"/>
<path d="M179.864 224.995C179.76 224.995 179.684 198.97 179.684 166.873C179.684 134.775 179.76 108.75 179.864 108.75C179.968 108.75 180.044 134.768 180.044 166.873C180.044 198.977 179.961 224.995 179.864 224.995Z" fill="#E0E0E0"/>
<path d="M220.588 224.994C220.491 224.994 220.407 198.886 220.407 166.698C220.407 134.511 220.491 108.402 220.588 108.402C220.685 108.402 220.768 134.511 220.768 166.698C220.768 198.886 220.692 224.994 220.588 224.994Z" fill="#E0E0E0"/>
<path d="M261.319 224.994C261.215 224.994 261.138 198.886 261.138 166.698C261.138 134.511 261.215 108.402 261.319 108.402C261.423 108.402 261.499 134.511 261.499 166.698C261.499 198.886 261.416 224.994 261.319 224.994Z" fill="#E0E0E0"/>
<path d="M302.043 224.995C301.946 224.995 301.862 198.97 301.862 166.873C301.862 134.775 301.946 108.75 302.043 108.75C302.14 108.75 302.223 134.768 302.223 166.873C302.223 198.977 302.147 224.995 302.043 224.995Z" fill="#E0E0E0"/>
<path d="M318.581 127.051C318.581 127.148 258.709 127.231 184.868 127.231C111.026 127.231 51.134 127.148 51.134 127.051C51.134 126.954 110.998 126.863 184.868 126.863C258.737 126.863 318.581 126.947 318.581 127.051Z" fill="#E0E0E0"/>
<path d="M318.581 118.132C318.581 118.236 258.709 118.312 184.868 118.312C111.026 118.312 51.134 118.236 51.134 118.132C51.134 118.028 110.998 117.951 184.868 117.951C258.737 117.951 318.581 118.034 318.581 118.132Z" fill="#E0E0E0"/>
<path d="M318.581 136.432C318.581 136.536 258.709 136.613 184.868 136.613C111.026 136.613 51.134 136.536 51.134 136.432C51.134 136.328 110.998 136.252 184.868 136.252C258.737 136.252 318.581 136.335 318.581 136.432Z" fill="#E0E0E0"/>
<path d="M318.581 145.823C318.581 145.92 258.709 146.003 184.868 146.003C111.026 146.003 51.134 145.92 51.134 145.823C51.134 145.726 110.998 145.643 184.868 145.643C258.737 145.643 318.581 145.74 318.581 145.823Z" fill="#E0E0E0"/>
<path d="M318.581 155.212C318.581 155.309 258.709 155.392 184.868 155.392C111.026 155.392 51.134 155.309 51.134 155.212C51.134 155.115 110.998 155.031 184.868 155.031C258.737 155.031 318.581 155.108 318.581 155.212Z" fill="#E0E0E0"/>
<path d="M318.581 164.596C318.581 164.701 258.709 164.777 184.868 164.777C111.026 164.777 51.134 164.701 51.134 164.596C51.134 164.492 110.998 164.416 184.868 164.416C258.737 164.416 318.581 164.478 318.581 164.596Z" fill="#E0E0E0"/>
<path d="M318.581 173.985C318.581 174.082 258.709 174.166 184.868 174.166C111.026 174.166 51.134 174.082 51.134 173.985C51.134 173.888 110.998 173.805 184.868 173.805C258.737 173.805 318.581 173.888 318.581 173.985Z" fill="#E0E0E0"/>
<path d="M318.581 183.376C318.581 183.473 258.709 183.556 184.868 183.556C111.026 183.556 51.134 183.473 51.134 183.376C51.134 183.279 110.998 183.195 184.868 183.195C258.737 183.195 318.581 183.272 318.581 183.376Z" fill="#E0E0E0"/>
<path d="M318.581 192.759C318.581 192.863 258.709 192.946 184.868 192.946C111.026 192.946 51.134 192.863 51.134 192.759C51.134 192.654 110.998 192.578 184.868 192.578C258.737 192.578 318.581 192.661 318.581 192.759Z" fill="#E0E0E0"/>
<path d="M318.581 202.147C318.581 202.251 258.709 202.328 184.868 202.328C111.026 202.328 51.134 202.251 51.134 202.147C51.134 202.043 110.998 201.967 184.868 201.967C258.737 201.967 318.581 202.05 318.581 202.147Z" fill="#E0E0E0"/>
<path d="M318.581 211.538C318.581 211.635 258.709 211.718 184.868 211.718C111.026 211.718 51.134 211.635 51.134 211.538C51.134 211.441 110.998 211.357 184.868 211.357C258.737 211.357 318.581 211.441 318.581 211.538Z" fill="#E0E0E0"/>
<path d="M318.581 220.927C318.581 221.024 258.709 221.107 184.868 221.107C111.026 221.107 51.134 221.024 51.134 220.927C51.134 220.829 110.998 220.746 184.868 220.746C258.737 220.746 318.581 220.822 318.581 220.927Z" fill="#E0E0E0"/>
<path d="M320.059 118.133H60.8984V136.434H320.059V118.133Z" fill="#8778F7"/>
<path d="M264.928 126.009C264.928 126.106 234.433 126.189 196.818 126.189C159.204 126.189 128.709 126.106 128.709 126.009C128.709 125.911 159.197 125.828 196.818 125.828C234.44 125.828 264.928 125.904 264.928 126.009Z" fill="#FAFAFA"/>
<path d="M277.829 131.221C277.829 131.319 239.694 131.402 192.661 131.402C145.629 131.402 107.48 131.319 107.48 131.221C107.48 131.124 145.608 131.041 192.661 131.041C239.714 131.041 277.829 131.117 277.829 131.221Z" fill="#FAFAFA"/>
<path d="M179.864 145.822H99.3184V155.212H179.864V145.822Z" fill="#8778F7"/>
<path d="M179.864 154.172H99.3184V193.792H179.864V154.172Z" fill="#EBEBEB"/>
<path d="M133.394 159.487C133.394 159.591 126.745 159.668 118.549 159.668C110.353 159.668 103.704 159.591 103.704 159.487C103.704 159.383 110.353 159.307 118.549 159.307C126.745 159.307 133.394 159.39 133.394 159.487Z" fill="#263238"/>
<path d="M121.54 169.794C121.54 169.898 117.543 169.974 112.622 169.974C107.702 169.974 103.704 169.898 103.704 169.794C103.704 169.69 107.695 169.613 112.622 169.613C117.55 169.613 121.54 169.697 121.54 169.794Z" fill="#263238"/>
<path d="M136.26 177.303C136.26 177.401 128.973 177.484 119.986 177.484C110.998 177.484 103.704 177.401 103.704 177.303C103.704 177.206 110.991 177.123 119.986 177.123C128.98 177.123 136.26 177.199 136.26 177.303Z" fill="#263238"/>
<path d="M121.54 162.292C121.54 162.389 117.543 162.472 112.622 162.472C107.702 162.472 103.704 162.389 103.704 162.292C103.704 162.195 107.695 162.111 112.622 162.111C117.55 162.111 121.54 162.188 121.54 162.292Z" fill="#263238"/>
<path d="M176.873 159.487C175.302 159.67 173.72 159.73 172.14 159.668C170.56 159.73 168.977 159.67 167.407 159.487C168.978 159.309 170.56 159.248 172.14 159.307C173.72 159.248 175.302 159.309 176.873 159.487Z" fill="#263238"/>
<path d="M176.873 167.947C175.302 168.125 173.72 168.185 172.14 168.127C170.56 168.185 168.978 168.125 167.407 167.947C168.977 167.764 170.56 167.703 172.14 167.766C173.72 167.703 175.302 167.764 176.873 167.947Z" fill="#263238"/>
<path d="M176.873 177.302C175.302 177.481 173.72 177.541 172.14 177.482C170.56 177.541 168.978 177.481 167.407 177.302C168.977 177.119 170.56 177.059 172.14 177.122C173.72 177.059 175.302 177.119 176.873 177.302Z" fill="#263238"/>
<path d="M176.352 188.768C176.352 188.865 173 188.949 168.864 188.949C164.728 188.949 161.383 188.865 161.383 188.768C161.383 188.671 164.728 188.588 168.864 188.588C173 188.588 176.352 188.671 176.352 188.768Z" fill="#263238"/>
<path d="M140.07 193.105C139.973 193.105 139.89 184.541 139.89 173.985C139.89 163.429 139.973 154.865 140.07 154.865C140.167 154.865 140.251 163.422 140.251 173.985C140.251 184.548 140.188 193.105 140.07 193.105Z" fill="#E0E0E0"/>
<path d="M179.191 182.522C179.191 182.619 170.287 182.703 159.301 182.703C148.315 182.703 139.418 182.619 139.418 182.522C139.418 182.425 148.315 182.342 159.301 182.342C170.287 182.342 179.191 182.439 179.191 182.522Z" fill="#E0E0E0"/>
<path d="M179.864 211.191H99.3184V220.928H179.864V211.191Z" fill="#F5F5F5"/>
<path d="M179.864 202.148H99.1865V211.538H179.864V202.148Z" fill="#8778F7"/>
<path d="M136.94 216.528C136.94 216.632 129.341 216.709 119.972 216.709C110.603 216.709 103.003 216.632 103.003 216.528C103.003 216.424 110.596 216.348 119.972 216.348C129.348 216.348 136.94 216.438 136.94 216.528Z" fill="#263238"/>
<path d="M176.352 216.055C176.352 216.153 173 216.236 168.864 216.236C164.728 216.236 161.383 216.153 161.383 216.055C161.383 215.958 164.728 215.875 168.864 215.875C173 215.875 176.352 215.958 176.352 216.055Z" fill="#263238"/>
<path d="M229.52 178.344H222.552V201.981H229.52V178.344Z" fill="#8778F7"/>
<path d="M271.854 182.633H264.886V201.982H271.854V182.633Z" fill="#8778F7"/>
<path d="M300.079 188.039H293.111V201.982H300.079V188.039Z" fill="#263238"/>
<path d="M243.636 163.846H236.668V201.981H243.636V163.846Z" fill="#455A64"/>
<path d="M257.745 163.846H250.777V201.981H257.745V163.846Z" fill="#263238"/>
<path d="M285.963 155.039H278.995V201.981H285.963V155.039Z" fill="#455A64"/>
<path d="M64.9445 95.8887H58.761V102.072H64.9445V95.8887Z" fill="#8778F7"/>
<path d="M68.5395 104.794H61.6689V97.916H68.5395V104.794ZM62.3629 104.1H67.8455V98.61H62.3629V104.1Z" fill="#8778F7"/>
<path d="M83.3703 97.5273H77.5962V103.301H83.3703V97.5273Z" fill="#E0E0E0"/>
<path d="M92.7531 97.5273H86.979V103.301H92.7531V97.5273Z" fill="#E0E0E0"/>
<path d="M102.136 97.5273H96.3621V103.301H102.136V97.5273Z" fill="#E0E0E0"/>
<path d="M111.526 97.5273H105.752V103.301H111.526V97.5273Z" fill="#E0E0E0"/>
<path d="M120.909 97.5273H115.135V103.301H120.909V97.5273Z" fill="#E0E0E0"/>
<path d="M190.531 97.4727H129.5V103.365H190.531V97.4727Z" fill="#E0E0E0"/>
<path d="M259.938 97.4727H198.907V103.365H259.938V97.4727Z" fill="#E0E0E0"/>
<path d="M320.066 97.4727H267.447V103.365H320.066V97.4727Z" fill="#E0E0E0"/>
<path d="M320.184 224.994C320.184 223.898 320.128 168.933 320.045 79.3308L320.184 79.4627L51.5503 79.5113L51.7307 79.3308C51.7307 130.798 51.7307 180.072 51.7307 224.994L51.5642 224.828L320.219 224.994L51.5642 225.168H51.356V224.994C51.356 180.072 51.356 130.798 51.356 79.3308V79.1504H51.5572L320.191 79.192H320.33V79.3308C320.232 168.933 320.184 223.905 320.184 224.994Z" fill="#263238"/>
<path d="M302.286 67.5605H33.6313V213.231H302.286V67.5605Z" fill="#F5F5F5"/>
<path d="M302.286 67.5605H33.6313V79.8305H302.286V67.5605Z" fill="#263238"/>
<path d="M39.9952 75.3815C40.8346 75.3815 41.5151 74.7011 41.5151 73.8617C41.5151 73.0223 40.8346 72.3418 39.9952 72.3418C39.1558 72.3418 38.4753 73.0223 38.4753 73.8617C38.4753 74.7011 39.1558 75.3815 39.9952 75.3815Z" fill="#FAFAFA"/>
<path d="M45.5265 75.3815C46.3658 75.3815 47.0463 74.7011 47.0463 73.8617C47.0463 73.0223 46.3658 72.3418 45.5265 72.3418C44.6871 72.3418 44.0066 73.0223 44.0066 73.8617C44.0066 74.7011 44.6871 75.3815 45.5265 75.3815Z" fill="#FAFAFA"/>
<path d="M51.0577 75.3815C51.8971 75.3815 52.5776 74.7011 52.5776 73.8617C52.5776 73.0223 51.8971 72.3418 51.0577 72.3418C50.2183 72.3418 49.5378 73.0223 49.5378 73.8617C49.5378 74.7011 50.2183 75.3815 51.0577 75.3815Z" fill="#FAFAFA"/>
<path d="M43.0071 100.914H33.2356V213.224H43.0071V100.914Z" fill="#455A64"/>
<path d="M33.2288 96.5898V106.361L302.168 106.361V96.5898L33.2288 96.5898Z" fill="#455A64"/>
<path d="M43.0281 206.971C42.9309 206.971 42.8477 182.257 42.8477 151.784C42.8477 121.31 42.9309 96.5898 43.0281 96.5898C43.1253 96.5898 43.2085 121.296 43.2085 151.784C43.2085 182.271 43.1044 206.971 43.0281 206.971Z" fill="#E0E0E0"/>
<path d="M81.427 213.225C81.3299 213.225 81.2466 187.117 81.2466 154.929C81.2466 122.741 81.3299 96.6328 81.427 96.6328C81.5242 96.6328 81.6075 122.741 81.6075 154.929C81.6075 187.117 81.5242 213.225 81.427 213.225Z" fill="#E0E0E0"/>
<path d="M122.179 213.224C122.082 213.224 121.998 187.199 121.998 155.101C121.998 123.004 122.082 96.9785 122.179 96.9785C122.276 96.9785 122.359 122.997 122.359 155.101C122.359 187.205 122.283 213.224 122.179 213.224Z" fill="#E0E0E0"/>
<path d="M161.973 213.224C161.869 213.224 161.792 187.199 161.792 155.101C161.792 123.004 161.869 96.9785 161.973 96.9785C162.077 96.9785 162.153 122.997 162.153 155.101C162.153 187.205 162.07 213.224 161.973 213.224Z" fill="#E0E0E0"/>
<path d="M202.697 213.225C202.599 213.225 202.516 187.117 202.516 154.929C202.516 122.741 202.599 96.6328 202.697 96.6328C202.794 96.6328 202.877 122.741 202.877 154.929C202.877 187.117 202.794 213.225 202.697 213.225Z" fill="#E0E0E0"/>
<path d="M243.427 213.225C243.323 213.225 243.24 187.117 243.24 154.929C243.24 122.741 243.323 96.6328 243.427 96.6328C243.531 96.6328 243.608 122.741 243.608 154.929C243.608 187.117 243.525 213.225 243.427 213.225Z" fill="#E0E0E0"/>
<path d="M284.151 213.224C284.054 213.224 283.971 187.199 283.971 155.101C283.971 123.004 284.054 96.9785 284.151 96.9785C284.249 96.9785 284.332 122.997 284.332 155.101C284.332 187.205 284.249 213.224 284.151 213.224Z" fill="#E0E0E0"/>
<path d="M300.689 115.272C300.689 115.376 240.818 115.46 166.976 115.46C93.1349 115.46 33.2427 115.376 33.2427 115.272C33.2427 115.168 93.1071 115.092 166.976 115.092C240.846 115.092 300.689 115.203 300.689 115.272Z" fill="#E0E0E0"/>
<path d="M300.689 106.362C300.689 106.466 240.818 106.543 166.976 106.543C93.1349 106.543 33.2427 106.466 33.2427 106.362C33.2427 106.258 93.1071 106.182 166.976 106.182C240.846 106.182 300.689 106.265 300.689 106.362Z" fill="#E0E0E0"/>
<path d="M300.689 124.663C300.689 124.767 240.818 124.843 166.976 124.843C93.1349 124.843 33.2427 124.767 33.2427 124.663C33.2427 124.559 93.1071 124.482 166.976 124.482C240.846 124.482 300.689 124.566 300.689 124.663Z" fill="#E0E0E0"/>
<path d="M300.689 134.053C300.689 134.151 240.818 134.234 166.976 134.234C93.1349 134.234 33.2427 134.151 33.2427 134.053C33.2427 133.956 93.1071 133.873 166.976 133.873C240.846 133.873 300.689 133.942 300.689 134.053Z" fill="#E0E0E0"/>
<path d="M300.689 143.442C300.689 143.539 240.818 143.623 166.976 143.623C93.1349 143.623 33.2427 143.539 33.2427 143.442C33.2427 143.345 93.1071 143.262 166.976 143.262C240.846 143.262 300.689 143.338 300.689 143.442Z" fill="#E0E0E0"/>
<path d="M300.689 152.825C300.689 152.929 240.818 153.005 166.976 153.005C93.1349 153.005 33.2427 152.929 33.2427 152.825C33.2427 152.721 93.1071 152.645 166.976 152.645C240.846 152.645 300.689 152.728 300.689 152.825Z" fill="#E0E0E0"/>
<path d="M300.689 162.216C300.689 162.313 240.818 162.396 166.976 162.396C93.1349 162.396 33.2427 162.313 33.2427 162.216C33.2427 162.118 93.1071 162.035 166.976 162.035C240.846 162.035 300.689 162.118 300.689 162.216Z" fill="#E0E0E0"/>
<path d="M300.689 171.604C300.689 171.701 240.818 171.785 166.976 171.785C93.1349 171.785 33.2427 171.701 33.2427 171.604C33.2427 171.507 93.1071 171.424 166.976 171.424C240.846 171.424 300.689 171.5 300.689 171.604Z" fill="#E0E0E0"/>
<path d="M300.689 180.987C300.689 181.091 240.818 181.174 166.976 181.174C93.1349 181.174 33.2427 181.091 33.2427 180.987C33.2427 180.883 93.1071 180.807 166.976 180.807C240.846 180.807 300.689 180.89 300.689 180.987Z" fill="#E0E0E0"/>
<path d="M300.689 190.378C300.689 190.482 240.818 190.558 166.976 190.558C93.1349 190.558 33.2427 190.482 33.2427 190.378C33.2427 190.274 93.1071 190.197 166.976 190.197C240.846 190.197 300.689 190.281 300.689 190.378Z" fill="#E0E0E0"/>
<path d="M300.689 199.768C300.689 199.865 240.818 199.949 166.976 199.949C93.1349 199.949 33.2427 199.872 33.2427 199.768C33.2427 199.664 93.1071 199.588 166.976 199.588C240.846 199.588 300.689 199.671 300.689 199.768Z" fill="#E0E0E0"/>
<path d="M300.689 209.157C300.689 209.254 240.818 209.337 166.976 209.337C93.1349 209.337 33.2427 209.254 33.2427 209.157C33.2427 209.06 93.1071 208.977 166.976 208.977C240.846 208.977 300.689 209.053 300.689 209.157Z" fill="#E0E0E0"/>
<path d="M302.168 106.361H43.0073V124.662H302.168V106.361Z" fill="#8778F7"/>
<path d="M247.064 114.238C247.064 114.335 216.563 114.419 178.955 114.419C141.347 114.419 110.846 114.335 110.846 114.238C110.846 114.141 141.333 114.051 178.955 114.051C216.577 114.051 247.064 114.134 247.064 114.238Z" fill="#FAFAFA"/>
<path d="M259.938 119.45C259.938 119.547 221.802 119.63 174.763 119.63C127.724 119.63 89.5884 119.547 89.5884 119.45C89.5884 119.353 127.717 119.27 174.763 119.27C221.809 119.27 259.938 119.367 259.938 119.45Z" fill="#FAFAFA"/>
<path d="M161.973 134.053H81.427V143.443H161.973V134.053Z" fill="#8778F7"/>
<path d="M161.973 142.402H81.427V182.023H161.973V142.402Z" fill="#EBEBEB"/>
<path d="M115.503 147.718C115.503 147.822 108.854 147.898 100.658 147.898C92.4617 147.898 85.8132 147.822 85.8132 147.718C85.8132 147.613 92.4617 147.537 100.658 147.537C108.854 147.537 115.503 147.62 115.503 147.718Z" fill="#263238"/>
<path d="M103.642 158.024C103.642 158.121 99.6516 158.205 94.7311 158.205C89.8107 158.205 85.8132 158.121 85.8132 158.024C85.8132 157.927 89.8037 157.844 94.7311 157.844C99.6585 157.844 103.642 157.927 103.642 158.024Z" fill="#263238"/>
<path d="M118.369 165.532C118.369 165.629 111.082 165.712 102.094 165.712C93.1072 165.712 85.8132 165.629 85.8132 165.532C85.8132 165.435 93.1002 165.352 102.094 165.352C111.089 165.352 118.369 165.428 118.369 165.532Z" fill="#263238"/>
<path d="M103.642 150.521C103.642 150.619 99.6516 150.702 94.7311 150.702C89.8107 150.702 85.8132 150.619 85.8132 150.521C85.8132 150.424 89.8037 150.334 94.7311 150.334C99.6585 150.334 103.642 150.417 103.642 150.521Z" fill="#263238"/>
<path d="M158.982 147.718C157.411 147.9 155.829 147.961 154.249 147.898C152.666 147.961 151.082 147.9 149.509 147.718C151.082 147.539 152.666 147.479 154.249 147.537C155.829 147.479 157.411 147.539 158.982 147.718Z" fill="#263238"/>
<path d="M158.982 156.15C157.411 156.328 155.829 156.388 154.249 156.33C152.666 156.388 151.082 156.328 149.509 156.15C151.082 155.967 152.666 155.907 154.249 155.969C155.829 155.907 157.411 155.967 158.982 156.15Z" fill="#263238"/>
<path d="M158.982 165.532C157.411 165.711 155.829 165.771 154.249 165.713C152.666 165.771 151.082 165.711 149.509 165.532C151.082 165.35 152.666 165.289 154.249 165.352C155.829 165.29 157.411 165.35 158.982 165.532Z" fill="#263238"/>
<path d="M158.461 177.005C158.461 177.102 155.109 177.185 150.973 177.185C146.837 177.185 143.485 177.102 143.485 177.005C143.485 176.908 146.837 176.824 150.973 176.824C155.109 176.824 158.461 176.901 158.461 177.005Z" fill="#263238"/>
<path d="M122.179 181.335C122.082 181.335 121.998 172.771 121.998 162.215C121.998 151.66 122.082 143.096 122.179 143.096C122.276 143.096 122.359 151.653 122.359 162.215C122.359 172.778 122.283 181.335 122.179 181.335Z" fill="#E0E0E0"/>
<path d="M161.3 170.772C161.3 170.869 152.389 170.953 141.41 170.953C130.43 170.953 121.52 170.869 121.52 170.772C121.52 170.675 130.424 170.592 141.41 170.592C152.396 170.592 161.3 170.668 161.3 170.772Z" fill="#E0E0E0"/>
<path d="M161.973 199.42H81.427V209.157H161.973V199.42Z" fill="#F5F5F5"/>
<path d="M161.973 190.377H81.2952V199.767H161.973V190.377Z" fill="#8778F7"/>
<path d="M119.049 204.764C119.049 204.869 111.449 204.945 102.08 204.945C92.7115 204.945 85.1052 204.869 85.1052 204.764C85.1052 204.66 92.7392 204.584 102.08 204.584C111.422 204.584 119.049 204.667 119.049 204.764Z" fill="#263238"/>
<path d="M158.461 204.286C158.461 204.383 155.109 204.466 150.973 204.466C146.837 204.466 143.485 204.383 143.485 204.286C143.485 204.189 146.837 204.105 150.973 204.105C155.109 204.105 158.461 204.189 158.461 204.286Z" fill="#263238"/>
<path d="M211.628 166.574H204.661V190.212H211.628V166.574Z" fill="#00A16B"/>
<path d="M253.962 170.863H246.995V190.212H253.962V170.863Z" fill="#00A16B"/>
<path d="M282.18 176.27H275.213V190.212H282.18V176.27Z" fill="#263238"/>
<path d="M225.738 152.076H218.77V190.211H225.738V152.076Z" fill="#455A64"/>
<path d="M239.853 152.076H232.886V190.211H239.853V152.076Z" fill="#263238"/>
<path d="M268.072 143.27H261.104V190.212H268.072V143.27Z" fill="#455A64"/>
<path d="M47.0463 84.1191H40.8628V90.3027H47.0463V84.1191Z" fill="#00A16B"/>
<path d="M50.6621 92.9956H43.7915V86.125H50.6621V92.9956ZM44.4855 92.3016H49.9681V86.819H44.4855V92.3016Z" fill="#00A16B"/>
<path d="M65.4721 85.7578H59.698V91.5319H65.4721V85.7578Z" fill="#E0E0E0"/>
<path d="M74.8617 85.7578H69.0876V91.5319H74.8617V85.7578Z" fill="#E0E0E0"/>
<path d="M84.2448 85.7578H78.4707V91.5319H84.2448V85.7578Z" fill="#E0E0E0"/>
<path d="M93.6344 85.7578H87.8604V91.5319H93.6344V85.7578Z" fill="#E0E0E0"/>
<path d="M103.017 85.7578H97.2434V91.5319H103.017V85.7578Z" fill="#E0E0E0"/>
<path d="M172.639 85.7012H111.609V91.5932H172.639V85.7012Z" fill="#E0E0E0"/>
<path d="M242.046 85.7012H181.016V91.5932H242.046V85.7012Z" fill="#E0E0E0"/>
<path d="M302.168 85.7012H249.549V91.5932H302.168V85.7012Z" fill="#E0E0E0"/>
<path d="M302.293 213.224C302.293 212.128 302.237 157.163 302.154 67.5604L302.293 67.6923L33.6521 67.7409L33.8325 67.5604C33.8325 119.027 33.8325 168.301 33.8325 213.224L33.659 213.058L302.32 213.224L33.659 213.398H33.4924V213.224C33.4924 168.301 33.4924 119.027 33.4924 67.5604V67.373H33.6937L302.334 67.4216H302.466V67.5604C302.341 157.163 302.293 212.128 302.293 213.224Z" fill="#263238"/>
<path d="M174.944 228.742L193.682 248.736L221.705 240.408L226.64 251.332C226.64 251.332 194.119 263.449 191.273 262.332C188.428 261.214 171.314 246.71 171.314 246.71L174.944 228.742Z" fill="#8778F7"/>
<path d="M186.27 241.512C185.867 242.025 185.424 242.506 184.944 242.948C184.111 243.816 182.98 245.03 181.793 246.418C179.85 248.709 178.4 250.79 177.9 251.422L177.615 251.783L177.81 251.373C177.9 251.179 177.956 251.089 177.969 251.096C177.983 251.103 177.969 251.207 177.907 251.408L177.817 251.36C178.894 249.528 180.132 247.795 181.516 246.182C182.534 244.978 183.618 243.831 184.764 242.747C185.221 242.283 185.725 241.869 186.27 241.512Z" fill="#FAFAFA"/>
<path d="M184.764 239.166C184.289 239.695 183.782 240.194 183.244 240.658C182.3 241.56 181.03 242.844 179.725 244.364C178.421 245.884 177.345 247.327 176.595 248.403C176.222 249.005 175.807 249.58 175.353 250.124C175.626 249.466 175.971 248.84 176.38 248.257C177.307 246.8 178.334 245.408 179.455 244.093C180.574 242.788 181.784 241.563 183.077 240.429C183.593 239.949 184.158 239.525 184.764 239.166Z" fill="#FAFAFA"/>
<path d="M224.599 299.391L224.134 297.219L212.024 299.613L212.829 304.346L213.592 304.27C216.979 303.923 230.783 302.271 232.92 301.237C235.301 300.078 224.599 299.391 224.599 299.391Z" fill="#8778F7"/>
<g opacity="0.5">
<path d="M217.222 303.548C216.911 302.531 216.237 301.664 215.327 301.112C214.869 300.824 214.351 300.643 213.813 300.583C213.274 300.523 212.729 300.585 212.218 300.765L212.815 304.166L217.222 303.548Z" fill="white"/>
</g>
<g opacity="0.5">
<path d="M229.853 299.912C229.853 299.912 233.642 300.377 233.288 301.05C232.934 301.723 219.04 303.91 212.829 304.347V304.069L229.02 301.647C229.02 301.647 229.152 300.051 229.853 299.912Z" fill="white"/>
</g>
<path d="M212.614 304.089H212.829L213.433 304.026L215.66 303.776C217.534 303.547 220.13 303.193 222.975 302.749C225.821 302.305 228.402 301.84 230.262 301.479L232.455 301.035L233.052 300.903C233.124 300.895 233.194 300.876 233.26 300.848H233.045L232.448 300.952L230.241 301.347C228.381 301.68 225.807 302.125 222.954 302.576C220.102 303.027 217.52 303.388 215.647 303.644L213.426 303.943L212.822 304.026L212.614 304.089Z" fill="#263238"/>
<path d="M229.055 301.834C229.097 301.454 229.178 301.08 229.298 300.717C229.466 300.371 229.676 300.047 229.922 299.752C229.585 299.971 229.321 300.287 229.167 300.659C229.012 301.03 228.973 301.44 229.055 301.834Z" fill="#263238"/>
<path d="M225.175 300.584C225.217 300.584 225.356 300.362 225.488 300.057C225.589 299.875 225.648 299.674 225.661 299.467C225.619 299.467 225.481 299.689 225.349 299.994C225.248 300.175 225.188 300.377 225.175 300.584Z" fill="#263238"/>
<path d="M224.107 300.216C224.141 300.216 224.315 300.085 224.495 299.862C224.676 299.64 224.794 299.439 224.759 299.411C224.724 299.384 224.558 299.543 224.377 299.765C224.197 299.987 224.079 300.189 224.107 300.216Z" fill="#263238"/>
<path d="M223.308 299.169C223.74 299.205 224.175 299.141 224.578 298.982C224.146 298.947 223.712 299.011 223.308 299.169Z" fill="#263238"/>
<path d="M222.961 298.419C223.194 298.524 223.453 298.555 223.704 298.509C223.951 298.51 224.193 298.438 224.398 298.301C223.913 298.345 223.427 298.384 222.941 298.419H222.961Z" fill="#263238"/>
<path d="M225.425 299.454C225.69 299.461 225.953 299.418 226.202 299.329C226.48 299.247 226.749 299.14 227.007 299.01C227.167 298.94 227.317 298.849 227.452 298.739C227.494 298.707 227.529 298.666 227.556 298.62C227.582 298.573 227.598 298.522 227.604 298.469C227.608 298.409 227.594 298.35 227.565 298.298C227.535 298.246 227.491 298.204 227.438 298.177C227.117 298.077 226.771 298.092 226.46 298.218C226.148 298.345 225.891 298.575 225.731 298.871C225.637 299.045 225.578 299.236 225.557 299.433C225.542 299.504 225.542 299.577 225.557 299.648C225.603 299.405 225.687 299.171 225.807 298.954C225.953 298.72 226.162 298.532 226.411 298.413C226.554 298.338 226.71 298.292 226.871 298.278C227.032 298.263 227.194 298.281 227.348 298.33C227.486 298.406 227.466 298.559 227.348 298.663C227.22 298.761 227.082 298.847 226.938 298.92C226.688 299.05 226.428 299.161 226.161 299.253C225.717 299.385 225.418 299.433 225.425 299.454Z" fill="#263238"/>
<path d="M225.633 299.461C225.696 299.281 225.696 299.085 225.633 298.906C225.581 298.704 225.475 298.519 225.328 298.371C225.248 298.266 225.142 298.183 225.02 298.131C224.899 298.079 224.766 298.059 224.634 298.073C224.557 298.101 224.495 298.158 224.46 298.232C224.424 298.306 224.42 298.391 224.447 298.468C224.485 298.591 224.549 298.705 224.634 298.801C224.764 298.956 224.913 299.094 225.078 299.211C225.223 299.332 225.394 299.417 225.578 299.461C225.578 299.461 225.398 299.343 225.148 299.128C224.997 299.006 224.861 298.866 224.745 298.711C224.606 298.565 224.488 298.281 224.683 298.212C224.877 298.142 225.106 298.329 225.245 298.461C225.38 298.597 225.484 298.76 225.55 298.94C225.594 299.111 225.622 299.285 225.633 299.461Z" fill="#263238"/>
<path d="M212.364 300.723C212.364 300.723 212.704 300.633 213.266 300.612C213.993 300.583 214.714 300.756 215.348 301.112C215.98 301.478 216.499 302.011 216.847 302.652C217.118 303.138 217.187 303.492 217.215 303.478C217.216 303.396 217.202 303.313 217.173 303.235C217.117 303.015 217.038 302.801 216.937 302.597C216.607 301.917 216.077 301.354 215.419 300.982C214.761 300.61 214.005 300.447 213.252 300.515C213.017 300.532 212.785 300.574 212.558 300.64C212.489 300.656 212.423 300.684 212.364 300.723Z" fill="#263238"/>
<path d="M218.568 302.118C219.172 302.166 219.779 302.131 220.373 302.014C220.974 301.95 221.564 301.807 222.129 301.59C222.129 301.549 221.33 301.722 220.352 301.868C219.373 302.014 218.568 302.076 218.568 302.118Z" fill="#263238"/>
<path d="M216.181 302.492C216.181 302.527 216.271 302.652 216.382 302.818C216.493 302.985 216.563 303.144 216.604 303.137C216.646 303.131 216.639 302.929 216.507 302.735C216.375 302.541 216.202 302.457 216.181 302.492Z" fill="#263238"/>
<path d="M215.14 301.514C215.14 301.549 215.216 301.667 215.362 301.771C215.508 301.875 215.647 301.938 215.668 301.91C215.688 301.882 215.598 301.757 215.452 301.653C215.307 301.549 215.14 301.487 215.14 301.514Z" fill="#263238"/>
<path d="M213.752 301.195C213.752 301.236 213.932 301.195 214.12 301.243C214.307 301.292 214.453 301.354 214.481 301.32C214.508 301.285 214.377 301.132 214.148 301.098C213.919 301.063 213.752 301.195 213.752 301.195Z" fill="#263238"/>
<path d="M212.787 301.111C212.787 301.153 212.857 301.202 212.968 301.229C213.079 301.257 213.169 301.229 213.176 301.195C213.183 301.16 213.107 301.104 212.996 301.084C212.885 301.063 212.794 301.07 212.787 301.111Z" fill="#263238"/>
<path d="M153.485 284.873L195.125 245.599C196.404 244.3 197.929 243.269 199.612 242.567C201.295 241.865 203.101 241.506 204.924 241.512H205.75C208.997 241.724 212.075 243.032 214.48 245.222C216.886 247.412 218.477 250.354 218.992 253.567L227.632 296.824L210.282 301.682L204.036 266.662L183.473 285.248L153.485 284.873Z" fill="#263238"/>
<path d="M140.32 288.981C140.14 289.48 138.988 303.888 156.976 303.888H205.098C211.184 303.888 216.126 299.252 216.126 293.533C216.126 287.808 211.184 283.172 205.098 283.172H160.314C158.717 283.169 157.136 283.498 155.671 284.137L140.32 288.981Z" fill="#263238"/>
<path d="M209.373 283.151C209.373 283.255 199.435 283.346 187.165 283.346C174.895 283.346 164.957 283.255 164.957 283.151C164.957 283.047 174.895 282.957 187.165 282.957C199.435 282.957 209.373 283.068 209.373 283.151Z" fill="#455A64"/>
<path d="M202.766 257.508C202.877 257.508 202.884 259.59 203.259 262.116C203.633 264.642 204.223 266.634 204.112 266.676C202.931 263.773 202.469 260.628 202.766 257.508Z" fill="#455A64"/>
<path d="M204.806 257.209C205.06 260.367 204.8 263.545 204.036 266.62C203.925 266.62 204.217 264.538 204.439 261.914C204.661 259.291 204.73 257.209 204.806 257.209Z" fill="#455A64"/>
<path d="M208.242 303.479C209.512 302.969 210.696 302.266 211.753 301.397C212.874 300.435 213.786 299.254 214.432 297.927C215.204 296.298 215.541 294.498 215.411 292.701C215.281 290.903 214.688 289.17 213.69 287.67C212.858 286.453 211.786 285.421 210.539 284.637C209.368 283.938 208.097 283.423 206.771 283.11C206.865 283.096 206.961 283.096 207.055 283.11C207.329 283.139 207.6 283.188 207.867 283.256C208.844 283.497 209.78 283.883 210.643 284.401C211.948 285.174 213.072 286.217 213.94 287.461C214.988 289.003 215.61 290.794 215.744 292.654C215.878 294.514 215.519 296.376 214.703 298.052C214.026 299.407 213.068 300.601 211.892 301.557C211.101 302.196 210.219 302.716 209.276 303.097C209.022 303.198 208.762 303.284 208.499 303.354C208.418 303.405 208.332 303.447 208.242 303.479Z" fill="#455A64"/>
<path d="M168.33 191.613L167.941 193.695L161.896 224.891C161.202 228.513 163.749 232.004 167.636 232.726C171.557 233.42 175.353 231.088 176.123 227.438C176.935 223.614 177.851 219.595 177.851 219.595C177.851 219.595 182.959 219.804 185.319 213.578C186.492 210.483 187.401 205.195 188.039 200.85C188.176 199.919 188.122 198.969 187.881 198.06C187.639 197.15 187.215 196.298 186.634 195.558C186.053 194.817 185.327 194.202 184.501 193.751C183.675 193.299 182.765 193.021 181.828 192.932L168.33 191.613Z" fill="#B3826A"/>
<path d="M186.367 204.473C186.349 204.582 186.31 204.687 186.252 204.78C186.194 204.874 186.118 204.956 186.028 205.02C185.939 205.085 185.837 205.131 185.73 205.156C185.622 205.181 185.511 205.185 185.402 205.167C185.296 205.153 185.193 205.117 185.101 205.063C185.008 205.009 184.927 204.936 184.862 204.851C184.798 204.765 184.751 204.667 184.725 204.563C184.698 204.459 184.692 204.35 184.708 204.244C184.746 204.024 184.869 203.827 185.051 203.697C185.233 203.567 185.459 203.514 185.68 203.55C185.786 203.565 185.888 203.6 185.981 203.655C186.073 203.709 186.153 203.781 186.217 203.867C186.281 203.953 186.328 204.051 186.353 204.155C186.379 204.259 186.383 204.367 186.367 204.473Z" fill="#263238"/>
<path d="M186.332 203.341C186.207 203.431 185.68 202.834 184.792 202.647C183.903 202.46 183.161 202.779 183.084 202.647C183.008 202.515 183.188 202.418 183.521 202.265C183.96 202.083 184.444 202.037 184.909 202.133C185.374 202.23 185.795 202.474 186.11 202.827C186.339 203.098 186.395 203.341 186.332 203.341Z" fill="#263238"/>
<path d="M177.491 202.453C177.453 202.673 177.33 202.87 177.148 203C176.966 203.13 176.74 203.183 176.519 203.147C176.413 203.134 176.31 203.1 176.217 203.046C176.124 202.993 176.042 202.921 175.977 202.836C175.913 202.75 175.866 202.653 175.84 202.549C175.813 202.445 175.808 202.336 175.825 202.23C175.843 202.121 175.882 202.017 175.94 201.923C175.998 201.829 176.074 201.748 176.164 201.683C176.253 201.619 176.355 201.573 176.462 201.548C176.569 201.522 176.681 201.519 176.79 201.536C177.004 201.566 177.198 201.679 177.329 201.85C177.46 202.022 177.518 202.238 177.491 202.453Z" fill="#263238"/>
<path d="M177.567 201.704C177.442 201.787 176.873 201.197 176.019 201.01C175.166 200.822 174.388 201.134 174.319 201.01C174.249 200.885 174.423 200.774 174.749 200.628C175.188 200.443 175.672 200.397 176.137 200.496C176.602 200.592 177.023 200.836 177.338 201.19C177.574 201.454 177.622 201.669 177.567 201.704Z" fill="#263238"/>
<path d="M179.42 208.963C179.919 208.914 180.423 208.928 180.919 209.005C181.148 209.005 181.377 209.005 181.446 208.88C181.513 208.653 181.513 208.412 181.446 208.186C181.349 207.596 181.245 206.971 181.134 206.319C180.814 204.717 180.624 203.093 180.565 201.461C181.012 203.024 181.333 204.621 181.523 206.236C181.62 206.888 181.717 207.513 181.807 208.109C181.889 208.414 181.864 208.737 181.738 209.026C181.687 209.098 181.621 209.158 181.544 209.201C181.467 209.244 181.382 209.27 181.294 209.275C181.163 209.294 181.029 209.294 180.898 209.275C180.395 209.231 179.898 209.127 179.42 208.963Z" fill="#263238"/>
<path d="M177.851 219.601C174.81 219.019 171.989 217.604 169.704 215.514C169.704 215.514 170.884 220.372 177.449 221.107L177.851 219.601Z" fill="#A77154"/>
<path d="M176.679 209.033C176.824 209.033 176.63 210.018 177.31 210.879C177.99 211.739 179.045 211.836 179.024 211.975C179.004 212.114 178.754 212.114 178.33 212.038C177.765 211.928 177.257 211.623 176.894 211.177C176.545 210.746 176.375 210.196 176.422 209.643C176.457 209.234 176.616 209.012 176.679 209.033Z" fill="#263238"/>
<path d="M178.518 198.267C178.379 198.489 177.518 198.191 176.436 198.101C175.353 198.01 174.465 198.1 174.354 197.871C174.319 197.76 174.513 197.559 174.902 197.4C175.411 197.198 175.961 197.124 176.505 197.184C177.052 197.229 177.581 197.405 178.046 197.698C178.427 197.934 178.58 198.163 178.518 198.267Z" fill="#263238"/>
<path d="M186.54 200.712C186.339 200.885 185.777 200.545 185.041 200.385C184.306 200.226 183.653 200.233 183.556 199.997C183.514 199.879 183.653 199.698 183.966 199.566C184.377 199.405 184.829 199.378 185.256 199.49C185.689 199.583 186.08 199.812 186.374 200.142C186.589 200.406 186.63 200.628 186.54 200.712Z" fill="#263238"/>
<path d="M194.834 193.486C194.943 192.96 194.88 192.412 194.653 191.925C194.565 191.492 194.317 191.108 193.959 190.849C193.503 190.7 193.008 190.727 192.571 190.925C190.996 191.383 189.101 191.307 187.984 190.079C187.13 189.121 186.964 187.65 185.971 186.838C184.979 186.026 183.278 186.185 181.939 186.616C180.6 187.046 179.163 187.622 177.824 187.219C176.893 186.817 176.031 186.271 175.27 185.602C173.74 184.527 171.845 184.102 170.002 184.423C169.094 184.598 168.241 184.99 167.516 185.565C166.791 186.14 166.215 186.881 165.838 187.726C165.484 188.582 165.382 189.522 165.544 190.435C165.706 191.347 166.126 192.194 166.754 192.876C166.817 192.959 166.879 193.035 166.949 193.111C166.31 196.457 165.561 201.786 167.06 202.189C169.274 202.786 170.065 197.109 170.065 197.109C173.056 196.741 173.729 193.812 174.569 193.361C175.408 192.91 178.629 194.201 181.252 196.137C184.507 198.539 190.17 198.913 192.148 198.962C192.321 198.979 192.495 198.979 192.668 198.962H192.856C192.986 198.935 193.114 198.896 193.237 198.844C193.854 198.462 194.305 197.863 194.5 197.164C194.781 196.582 194.908 195.936 194.868 195.291C194.837 195.055 194.752 194.83 194.621 194.631C194.49 194.433 194.316 194.267 194.112 194.146C194.278 194.106 194.432 194.025 194.558 193.909C194.684 193.794 194.779 193.648 194.834 193.486Z" fill="#263238"/>
<path d="M190.975 194.812C191.03 194.695 191.117 194.597 191.225 194.527C191.376 194.415 191.552 194.341 191.738 194.309C191.923 194.278 192.114 194.291 192.294 194.347C192.583 194.452 192.821 194.663 192.962 194.937C193.102 195.211 193.133 195.528 193.05 195.825C192.994 196.012 192.893 196.182 192.757 196.321C192.62 196.46 192.451 196.564 192.266 196.623C191.861 196.761 191.421 196.761 191.017 196.623C190.128 196.331 189.629 195.401 189.254 194.541C189.083 194.063 188.877 193.599 188.636 193.153C188.401 192.7 188.046 192.321 187.609 192.056C187.375 191.941 187.12 191.872 186.859 191.856C186.598 191.839 186.336 191.874 186.089 191.959C185.555 192.105 185.02 192.369 184.431 192.549C183.82 192.744 183.171 192.779 182.543 192.653C181.907 192.517 181.301 192.267 180.752 191.918C179.709 191.221 178.762 190.39 177.935 189.447C177.178 188.601 176.292 187.88 175.311 187.309C174.41 186.837 173.371 186.694 172.376 186.907C171.3 187.124 170.348 187.742 169.71 188.634C169.072 189.527 168.797 190.629 168.94 191.716C169.007 192.189 169.121 192.654 169.28 193.104C169.204 193.002 169.141 192.89 169.093 192.771C168.95 192.439 168.852 192.089 168.802 191.73C168.699 191.063 168.746 190.382 168.938 189.736C169.13 189.089 169.463 188.493 169.912 187.99C170.605 187.245 171.523 186.747 172.525 186.572C173.527 186.397 174.559 186.553 175.464 187.018C176.487 187.592 177.411 188.328 178.198 189.197C179.016 190.118 179.949 190.93 180.974 191.612C181.487 191.939 182.053 192.174 182.647 192.306C183.217 192.42 183.806 192.389 184.361 192.216C184.923 192.049 185.458 191.786 186.034 191.633C186.323 191.538 186.629 191.501 186.932 191.525C187.236 191.549 187.532 191.633 187.803 191.772C188.858 192.396 189.191 193.535 189.566 194.409C189.941 195.283 190.385 196.137 191.141 196.394C191.488 196.524 191.868 196.539 192.224 196.436C192.384 196.395 192.531 196.315 192.652 196.204C192.773 196.093 192.864 195.953 192.918 195.797C192.993 195.544 192.973 195.273 192.86 195.035C192.747 194.796 192.55 194.608 192.307 194.506C192.145 194.451 191.973 194.432 191.803 194.45C191.633 194.468 191.469 194.523 191.322 194.61C191.058 194.707 190.989 194.825 190.975 194.812Z" fill="#455A64"/>
<path d="M193.522 196.06C193.508 196.153 193.477 196.242 193.432 196.324C193.317 196.57 193.16 196.793 192.967 196.983C192.658 197.291 192.272 197.512 191.85 197.622C191.282 197.768 190.682 197.714 190.149 197.469C189.54 197.13 189.03 196.637 188.671 196.039C188.47 195.746 188.221 195.488 187.935 195.276C187.788 195.175 187.621 195.106 187.445 195.073C187.27 195.039 187.089 195.042 186.915 195.082C186.519 195.176 186.131 195.304 185.756 195.463C185.329 195.617 184.878 195.694 184.424 195.692C183.477 195.678 182.547 195.44 181.71 194.998C179.996 194.103 178.719 192.798 177.345 191.979C176.186 191.157 174.753 190.816 173.347 191.029C172.887 191.136 172.455 191.341 172.081 191.631C171.707 191.921 171.4 192.288 171.182 192.708C171.049 193.032 170.96 193.373 170.918 193.721C170.902 193.627 170.902 193.531 170.918 193.437C170.924 193.165 170.981 192.897 171.085 192.646C171.292 192.187 171.599 191.782 171.985 191.46C172.371 191.138 172.825 190.907 173.313 190.786C174.044 190.65 174.794 190.661 175.52 190.817C176.247 190.973 176.936 191.271 177.546 191.695C178.976 192.535 180.26 193.825 181.898 194.672C182.682 195.096 183.554 195.333 184.445 195.366C184.863 195.37 185.278 195.302 185.673 195.165C186.067 195.004 186.473 194.874 186.887 194.776C187.103 194.734 187.324 194.736 187.539 194.781C187.753 194.827 187.957 194.915 188.137 195.04C188.45 195.276 188.722 195.562 188.942 195.887C189.26 196.46 189.725 196.939 190.288 197.275C190.764 197.515 191.308 197.583 191.829 197.469C192.225 197.379 192.593 197.19 192.897 196.921C193.142 196.662 193.352 196.373 193.522 196.06Z" fill="#455A64"/>
<path d="M167.629 199.905C167.546 199.842 164.159 197.857 163.347 201.605C162.535 205.353 166.463 205.401 166.491 205.297C166.518 205.193 167.629 199.905 167.629 199.905Z" fill="#B3826A"/>
<path d="M165.658 203.625C165.658 203.625 165.582 203.625 165.464 203.688C165.293 203.718 165.117 203.683 164.971 203.59C164.763 203.384 164.613 203.127 164.538 202.844C164.462 202.561 164.463 202.263 164.541 201.98C164.6 201.656 164.733 201.35 164.929 201.085C164.989 200.976 165.075 200.883 165.179 200.814C165.283 200.745 165.402 200.702 165.526 200.689C165.606 200.686 165.684 200.71 165.747 200.758C165.811 200.807 165.855 200.876 165.873 200.953C165.873 201.071 165.873 201.141 165.873 201.148C165.873 201.154 165.963 201.106 165.97 200.939C165.971 200.843 165.936 200.749 165.873 200.676C165.787 200.576 165.665 200.513 165.533 200.502C165.373 200.499 165.215 200.537 165.075 200.613C164.934 200.688 164.814 200.798 164.728 200.932C164.498 201.222 164.341 201.562 164.27 201.925C164.179 202.255 164.187 202.605 164.293 202.93C164.399 203.256 164.599 203.544 164.867 203.757C164.965 203.803 165.071 203.827 165.179 203.827C165.287 203.827 165.394 203.803 165.491 203.757C165.63 203.715 165.672 203.639 165.658 203.625Z" fill="#A77154"/>
<path d="M228.923 240.574C229.999 240.726 236.89 241.767 237.542 242.281C238.195 242.795 238.181 243.516 237.404 243.669C236.626 243.822 232.275 243.53 232.275 243.53C232.275 243.53 237.889 243.662 238.063 244.224C238.334 245.113 236.335 245.612 232.58 245.015C232.58 245.015 238.306 244.405 238.243 245.814C238.243 246.508 233.094 246.57 233.094 246.57C232.976 246.966 238.25 245.876 238.403 246.723C238.472 247.125 237.751 247.535 235.072 247.909C233.455 248.138 230.783 248.472 228.132 248.825V248.86L225.231 249.27L221.83 241.601C222.094 241.344 223.697 240.338 224.787 239.581C225.465 239.11 226.291 238.901 227.112 238.991C227.531 239.038 227.927 239.209 228.248 239.482C228.57 239.756 228.802 240.119 228.916 240.525L228.923 240.574Z" fill="#B3826A"/>
<path d="M237.057 243.85C235.265 243.739 233.478 243.563 231.699 243.323C232.593 243.145 233.512 243.128 234.413 243.274C235.322 243.303 236.218 243.498 237.057 243.85Z" fill="#A77154"/>
<path d="M237.258 245.099C236.464 245.186 235.664 245.186 234.871 245.099C234.071 245.131 233.271 245.078 232.483 244.939C233.263 244.719 234.078 244.651 234.884 244.738C235.691 244.704 236.497 244.826 237.258 245.099Z" fill="#A77154"/>
<path d="M237.459 246.369C236.677 246.542 235.88 246.633 235.079 246.639C234.29 246.769 233.49 246.813 232.691 246.771C233.438 246.453 234.24 246.286 235.051 246.278C235.852 246.154 236.67 246.184 237.459 246.369Z" fill="#A77154"/>
<path d="M248.521 261.305L228.763 258.223C228.535 258.189 228.316 258.109 228.118 257.989C227.921 257.87 227.749 257.712 227.613 257.525C227.477 257.339 227.379 257.127 227.325 256.903C227.271 256.678 227.262 256.446 227.299 256.218L231.463 229.596C231.498 229.367 231.579 229.147 231.699 228.95C231.819 228.752 231.978 228.58 232.164 228.443C232.351 228.307 232.563 228.208 232.788 228.153C233.013 228.099 233.247 228.089 233.475 228.124L247.293 230.276L253.803 238.951L250.534 259.833C250.498 260.062 250.418 260.282 250.298 260.479C250.177 260.677 250.019 260.849 249.832 260.986C249.646 261.122 249.434 261.221 249.209 261.276C248.984 261.33 248.75 261.34 248.521 261.305Z" fill="#8778F7"/>
<path d="M247.279 230.213L246.453 235.508C246.357 236.136 246.514 236.775 246.888 237.288C247.263 237.8 247.825 238.143 248.452 238.242L253.782 238.936L247.279 230.213Z" fill="#8778F7"/>
<g opacity="0.2">
<path d="M247.279 230.213L246.453 235.508C246.357 236.136 246.514 236.775 246.888 237.288C247.263 237.8 247.825 238.143 248.452 238.242L253.782 238.936L247.279 230.213Z" fill="black"/>
</g>
<path d="M246.37 255.578C246.361 255.492 246.361 255.406 246.37 255.321C246.37 255.133 246.426 254.897 246.467 254.627C246.557 253.974 246.682 253.086 246.835 251.969C247.175 249.672 247.647 246.458 248.223 242.6L248.355 242.78L234.871 240.698L235.072 240.552V240.65V240.761V240.983L235.002 241.427C234.954 241.718 234.905 242.01 234.864 242.301L234.593 244.036C234.412 245.174 234.239 246.292 234.065 247.381C233.718 249.554 233.371 251.608 233.094 253.502L232.962 253.322L242.678 254.918L245.454 255.39L246.19 255.522C246.279 255.533 246.367 255.551 246.453 255.578H246.217L245.523 255.48L242.796 255.099L232.962 253.648H232.809V253.489C233.101 251.594 233.413 249.54 233.746 247.361C233.92 246.271 234.093 245.154 234.267 244.015L234.537 242.28C234.579 241.989 234.628 241.698 234.669 241.406L234.739 240.962L234.773 240.74V240.629V240.532L234.982 240.379L248.452 242.461H248.612V242.614C247.973 246.5 247.446 249.741 247.064 252.059C246.877 253.155 246.724 254.03 246.613 254.661C246.564 254.939 246.523 255.161 246.495 255.355C246.464 255.435 246.422 255.51 246.37 255.578Z" fill="white"/>
<path d="M239.486 254.696C239.643 252.513 239.921 250.339 240.318 248.187C240.595 246.015 240.991 243.86 241.505 241.732C241.348 243.916 241.07 246.089 240.672 248.242C240.396 250.414 240 252.569 239.486 254.696Z" fill="white"/>
<path d="M246.821 252.394C244.543 252.222 242.275 251.93 240.027 251.519C237.761 251.225 235.512 250.815 233.288 250.291C235.567 250.458 237.835 250.75 240.082 251.165C242.349 251.455 244.598 251.865 246.821 252.394Z" fill="white"/>
<path d="M247.487 249.146C245.211 248.978 242.945 248.686 240.7 248.271C238.434 247.979 236.185 247.569 233.961 247.043C236.24 247.211 238.508 247.503 240.756 247.917C243.019 248.21 245.266 248.62 247.487 249.146Z" fill="white"/>
<path d="M247.904 245.793C245.642 245.621 243.39 245.332 241.158 244.926C238.909 244.64 236.678 244.23 234.475 243.697C236.735 243.869 238.984 244.158 241.214 244.565C243.465 244.85 245.698 245.26 247.904 245.793Z" fill="white"/>
<path d="M172.827 282.853V280.383L208.006 281.104L228.264 248.736L230.124 250.083L209.373 283.173L172.827 282.853Z" fill="#455A64"/>
<path d="M197.165 272.047L198.935 274.677V280.076C198.694 280.137 198.439 280.119 198.208 280.026C197.977 279.932 197.782 279.768 197.651 279.556C197.286 278.501 197 277.42 196.798 276.322L195.944 278.536C195.774 278.969 195.453 279.327 195.039 279.541C194.625 279.756 194.148 279.813 193.695 279.702L187.172 278.064L189.837 270.43L197.165 272.047Z" fill="#B3826A"/>
<path d="M227.375 239.02L233.371 240.928C233.38 241.069 233.358 241.211 233.307 241.343C233.256 241.475 233.177 241.594 233.075 241.693C232.974 241.792 232.852 241.868 232.719 241.915C232.586 241.963 232.444 241.981 232.303 241.969C231.199 241.927 228.257 241.65 228.257 241.65C228.257 241.65 228.257 243.732 226.522 244.169C226.522 244.169 224.343 240.394 224.44 240.29C224.537 240.185 227.375 239.02 227.375 239.02Z" fill="#B3826A"/>
<path d="M227.82 246.946C227.82 246.946 227.729 246.723 227.535 246.383C227.277 245.914 226.876 245.539 226.39 245.315L226.064 245.162L226.404 245.023C227.081 244.748 227.639 244.241 227.979 243.594C228.277 243.042 228.402 242.413 228.34 241.789V241.588H228.541C229.427 241.615 230.307 241.727 231.172 241.921C230.288 242.005 229.398 242.005 228.514 241.921L228.687 241.734C228.785 242.426 228.659 243.131 228.326 243.746C227.949 244.477 227.313 245.041 226.543 245.329V245.037C227.071 245.308 227.487 245.758 227.715 246.307C227.861 246.696 227.847 246.939 227.82 246.946Z" fill="#A77154"/>
<path d="M161.14 219.857C161.14 219.857 153.277 224.355 150.362 228.741C147.447 233.127 142.27 238.325 138.654 252.427C135.524 264.738 134.358 281.436 137.745 286.044C138.881 287.704 140.254 289.188 141.819 290.451L147.898 287.96C155.137 285.371 161.723 283.698 167.4 278.521L178.927 268L172.806 263.184C172.806 263.184 177.449 238.103 176.214 229.344C175.159 221.683 161.14 219.857 161.14 219.857Z" fill="#8778F7"/>
<path d="M158.128 231.982L151.688 262.067C151.144 264.609 151.538 267.262 152.797 269.536C154.056 271.81 156.095 273.553 158.537 274.441L186.513 279.806L189.983 269.396L167.296 262.331L173.958 233.266L158.128 231.982Z" fill="#8778F7"/>
<path d="M151.452 267.786L151.493 267.966C151.521 268.091 151.556 268.265 151.597 268.487L151.674 268.869L151.84 269.32L152.028 269.84C152.125 270.014 152.229 270.201 152.333 270.402C152.899 271.357 153.672 272.173 154.595 272.79C155.848 273.626 157.239 274.232 158.704 274.58L186.374 279.646L186.186 279.75C187.345 276.447 188.56 272.956 189.83 269.34L189.948 269.569L167.254 262.484L167.08 262.428L167.129 262.248C167.518 260.7 167.941 259.042 168.371 257.39C169.69 252.122 170.925 246.98 172.001 241.962C172.528 239.457 173.028 236.993 173.389 234.557C173.486 233.953 173.486 233.35 173.542 232.753C173.538 232.162 173.47 231.573 173.34 230.997C173.076 229.86 172.546 228.801 171.793 227.909C171.063 227.054 170.151 226.373 169.125 225.914C168.098 225.456 166.983 225.231 165.859 225.258C164.801 225.319 163.766 225.597 162.819 226.075C161.873 226.552 161.034 227.219 160.356 228.034C159.057 229.562 158.09 231.344 157.517 233.266C156.979 235.043 156.55 236.851 156.233 238.68C154.845 245.654 153.742 251.303 152.965 255.225L152.062 259.715C151.958 260.221 151.875 260.61 151.812 260.888C151.75 261.165 151.722 261.283 151.722 261.283C151.733 261.148 151.751 261.014 151.778 260.881C151.826 260.596 151.896 260.187 151.986 259.701C152.18 258.66 152.458 257.14 152.819 255.197C153.561 251.269 154.637 245.613 155.963 238.631C156.273 236.788 156.697 234.966 157.233 233.176C157.812 231.213 158.793 229.391 160.113 227.825C160.818 226.972 161.692 226.273 162.679 225.771C163.667 225.27 164.747 224.977 165.852 224.911C167.029 224.882 168.197 225.116 169.272 225.596C170.346 226.076 171.3 226.791 172.063 227.687C172.856 228.62 173.415 229.729 173.694 230.921C173.833 231.524 173.903 232.141 173.903 232.76C173.854 233.377 173.854 234.009 173.75 234.62C173.41 237.069 172.91 239.54 172.362 242.045C171.286 247.063 170.03 252.192 168.732 257.473C168.302 259.146 167.879 260.804 167.483 262.331L167.358 262.102L190.052 269.195L190.225 269.25L190.17 269.424L186.506 279.834L186.457 279.966H186.318C174.867 277.821 165.332 276.072 158.655 274.761C157.168 274.397 155.757 273.77 154.491 272.908C153.56 272.269 152.786 271.426 152.229 270.444C152.118 270.243 152.021 270.048 151.924 269.868L151.743 269.334L151.59 268.882C151.59 268.739 151.57 268.607 151.528 268.487L151.445 267.959C151.44 267.902 151.442 267.843 151.452 267.786Z" fill="#263238"/>
<path d="M163.395 266.238C163.354 266.238 163.312 265.884 163.458 265.342C163.655 264.629 164.044 263.984 164.582 263.476C165.112 262.959 165.771 262.594 166.491 262.421C167.046 262.303 167.393 262.358 167.393 262.421C167.393 262.483 167.06 262.532 166.567 262.705C165.926 262.937 165.341 263.3 164.849 263.772C164.358 264.245 163.971 264.815 163.715 265.447C163.513 265.912 163.458 266.245 163.395 266.238Z" fill="#263238"/>
<g opacity="0.2">
<path d="M157.469 231.58C154.212 242.054 151.955 252.813 150.73 263.712C150.314 266.211 150.265 268.757 150.584 271.27C151.014 273.768 152.243 276.225 154.366 277.599C156.429 278.805 158.873 279.18 161.202 278.647C163.527 278.203 167.282 277.689 169.412 276.683L156.92 274.101C156.92 274.101 148.849 273.602 152.319 258.139C155.789 242.677 157.469 231.58 157.469 231.58Z" fill="black"/>
</g>
<path d="M172.806 263.184C172.815 262.783 172.859 262.384 172.938 261.99C173.056 261.165 173.209 260.068 173.396 258.743C173.799 255.967 174.347 252.184 174.944 248.027C175.541 243.87 176.054 240.053 176.401 237.305L176.811 234.05C176.835 233.65 176.895 233.253 176.991 232.863C177.005 233.264 176.991 233.665 176.949 234.064C176.894 234.841 176.797 235.959 176.651 237.333C176.366 240.109 175.894 243.891 175.298 248.083C174.701 252.274 174.118 256.05 173.653 258.777C173.417 260.165 173.223 261.248 173.077 262.011C173.02 262.409 172.929 262.801 172.806 263.184Z" fill="#263238"/>
<path d="M172.41 241.295C172.41 241.351 171.515 241.011 170.086 240.567C166.353 239.393 162.457 238.824 158.544 238.88C157.045 238.88 156.115 238.977 156.108 238.915C156.317 238.845 156.534 238.803 156.754 238.79C157.17 238.727 157.781 238.665 158.537 238.623C162.489 238.421 166.441 238.999 170.169 240.324C170.863 240.58 171.446 240.809 171.827 241.018C172.033 241.085 172.229 241.178 172.41 241.295Z" fill="#FAFAFA"/>
<path d="M171.661 244.391C171.661 244.446 170.759 244.099 169.301 243.697C165.5 242.569 161.527 242.139 157.573 242.427C156.06 242.538 155.123 242.684 155.116 242.621C155.323 242.535 155.54 242.477 155.761 242.448C156.178 242.358 156.789 242.26 157.552 242.177C159.54 241.959 161.546 241.959 163.534 242.177C165.522 242.395 167.48 242.823 169.378 243.454C170.106 243.704 170.682 243.933 171.071 244.106C171.46 244.28 171.675 244.363 171.661 244.391Z" fill="#FAFAFA"/>
<path d="M181.571 222.224C181.573 221.783 181.442 221.353 181.194 220.988C180.946 220.624 180.594 220.344 180.183 220.184C179.423 220.01 178.633 220.01 177.872 220.184C175.109 220.46 172.334 219.789 170.002 218.282C167.92 216.894 166.22 214.902 163.909 213.958C163.318 213.694 162.674 213.573 162.028 213.604C161.704 213.623 161.389 213.714 161.106 213.873C160.824 214.032 160.581 214.253 160.397 214.521C159.835 215.402 160.21 216.603 160.855 217.428C159.613 218.06 158.975 219.691 159.773 220.836C165.456 221.623 170.601 224.615 174.097 229.164C174.624 230.02 175.336 230.747 176.179 231.295C177.824 232.141 180.003 231.135 180.787 229.462C181.124 228.6 181.237 227.667 181.116 226.75C180.995 225.832 180.643 224.96 180.093 224.216C180.513 224.073 180.879 223.807 181.143 223.451C181.407 223.095 181.557 222.667 181.571 222.224Z" fill="#455A64"/>
<path d="M179.913 224.05C179.705 224.211 179.47 224.334 179.219 224.411C178.577 224.676 177.902 224.853 177.213 224.939C176.184 225.069 175.139 225.008 174.132 224.758C172.906 224.424 171.754 223.862 170.738 223.099C169.648 222.315 168.705 221.469 167.823 220.747C167.053 220.094 166.231 219.505 165.366 218.984C164.553 218.534 163.691 218.176 162.799 217.915C163.054 217.907 163.31 217.94 163.555 218.012C164.231 218.174 164.883 218.426 165.491 218.762C166.388 219.259 167.238 219.835 168.031 220.483C168.934 221.177 169.877 222.038 170.946 222.801C171.927 223.541 173.035 224.093 174.215 224.432C175.182 224.692 176.188 224.776 177.185 224.682C178.115 224.572 179.029 224.36 179.913 224.05Z" fill="#263238"/>
<path d="M177.317 231.676C177.483 231.626 177.646 231.563 177.803 231.489C178.225 231.264 178.572 230.922 178.802 230.503C179.143 229.883 179.29 229.175 179.226 228.47C179.165 227.606 179 226.753 178.733 225.93C178.658 225.692 178.52 225.479 178.335 225.313C178.149 225.147 177.922 225.034 177.678 224.986H177.553L177.664 224.854C178.09 224.323 178.334 223.668 178.358 222.987C178.373 222.449 178.249 221.916 177.997 221.44C177.764 221.011 177.451 220.632 177.074 220.322C177.189 220.387 177.296 220.463 177.393 220.551C177.671 220.792 177.906 221.078 178.087 221.398C178.362 221.882 178.503 222.431 178.497 222.987C178.482 223.697 178.239 224.384 177.803 224.944L177.664 224.854C177.936 224.902 178.189 225.024 178.396 225.206C178.603 225.389 178.756 225.625 178.837 225.888C179.116 226.728 179.284 227.6 179.337 228.484C179.391 229.209 179.227 229.935 178.865 230.566C178.616 230.99 178.246 231.331 177.803 231.544C177.65 231.616 177.486 231.661 177.317 231.676Z" fill="#FAFAFA"/>
<path d="M173.132 219.727C173.469 220.051 173.736 220.44 173.917 220.872C174.388 221.916 174.458 223.097 174.111 224.189L174 224.487V224.425C174.255 224.895 174.408 225.414 174.45 225.947C174.492 226.48 174.421 227.016 174.243 227.52C174.111 227.936 173.885 228.316 173.583 228.631C173.812 228.273 174.001 227.891 174.146 227.492C174.305 227.001 174.363 226.483 174.317 225.969C174.27 225.455 174.12 224.956 173.875 224.501V224.467V224.432L173.979 224.147C174.313 223.086 174.262 221.94 173.833 220.913C173.643 220.494 173.408 220.096 173.132 219.727Z" fill="#FAFAFA"/>
<path d="M170.217 218.27C170.273 218.334 170.317 218.406 170.349 218.485C170.451 218.695 170.527 218.916 170.578 219.144C170.742 219.906 170.644 220.7 170.301 221.399C170.182 221.648 170.033 221.881 169.857 222.093V222.052C169.83 222.349 169.743 222.638 169.601 222.9C169.459 223.163 169.265 223.393 169.031 223.579C168.897 223.689 168.747 223.778 168.587 223.842C168.533 223.873 168.474 223.892 168.413 223.898C168.608 223.782 168.796 223.655 168.975 223.516C169.399 223.137 169.665 222.611 169.718 222.045C169.881 221.845 170.023 221.629 170.141 221.399C170.469 220.725 170.575 219.965 170.447 219.227C170.391 218.903 170.315 218.583 170.217 218.27Z" fill="#FAFAFA"/>
<path d="M166.449 215.562C166.177 215.79 165.932 216.049 165.72 216.333C165.48 216.681 165.314 217.076 165.232 217.491C165.151 217.907 165.157 218.335 165.249 218.748V218.887V218.956H165.179C164.785 219.052 164.426 219.257 164.144 219.548C163.861 219.839 163.667 220.204 163.583 220.601C163.528 220.934 163.528 221.274 163.583 221.607C163.54 221.525 163.511 221.436 163.5 221.344C163.453 221.091 163.453 220.832 163.5 220.58C163.574 220.157 163.771 219.764 164.066 219.451C164.36 219.138 164.74 218.918 165.158 218.817L165.11 218.908L165.068 218.762C164.973 218.329 164.971 217.881 165.063 217.448C165.155 217.014 165.339 216.606 165.602 216.25C165.762 216.037 165.952 215.847 166.165 215.687C166.252 215.631 166.348 215.589 166.449 215.562Z" fill="#FAFAFA"/>
<path d="M160.626 220.94C160.533 220.871 160.455 220.784 160.397 220.683C160.226 220.42 160.111 220.125 160.057 219.816C159.979 219.342 160.054 218.856 160.272 218.428C160.545 217.905 161.007 217.506 161.563 217.31L161.529 217.421L161.417 217.262C161.087 216.743 160.966 216.118 161.077 215.513C161.169 215.029 161.412 214.586 161.771 214.25C162.012 214.022 162.302 213.851 162.618 213.75C162.732 213.707 162.851 213.681 162.972 213.674C162.551 213.801 162.165 214.022 161.841 214.319C161.508 214.652 161.283 215.078 161.195 215.541C161.098 216.109 161.217 216.693 161.529 217.179C161.559 217.232 161.594 217.283 161.633 217.331L161.688 217.414H161.598C161.075 217.596 160.639 217.967 160.376 218.455C160.162 218.852 160.081 219.307 160.147 219.753C160.205 220.183 160.369 220.591 160.626 220.94Z" fill="#FAFAFA"/>
<path d="M74.8061 273.007C76.1657 269.46 77.9408 266.087 80.0944 262.958C80.7433 261.844 81.71 260.95 82.8704 260.39C84.8622 259.634 87.0344 260.855 88.7972 262.028L92.9195 264.741C93.0489 264.804 93.1642 264.892 93.2585 265.001C93.3527 265.109 93.4239 265.236 93.4678 265.373C93.5372 265.886 92.9057 266.178 92.3921 266.24C90.6322 266.443 88.8583 266.004 87.3953 265.005C86.2849 264.242 85.2023 263.11 83.8628 263.249C82.2042 263.423 81.4616 265.331 80.8162 266.9C79.4088 270.25 76.9286 273.038 73.7651 274.825" fill="#00A16B"/>
<path d="M74.7994 273.687C75.1186 265.435 75.4448 257.121 77.4158 249.112C79.3867 241.104 83.1621 233.31 89.3664 227.869C88.5475 234.809 86.0214 241.437 83.523 247.995C80.1501 256.786 76.7796 265.576 73.4114 274.367" fill="#00A16B"/>
<path d="M73.3627 276.685C72.1943 269.174 70.0962 261.837 67.1167 254.844C66.7782 253.775 66.1132 252.838 65.2151 252.166C63.8271 251.319 61.995 251.874 60.489 252.547C56.9084 254.15 53.5944 256.292 50.662 258.897C50.4076 259.079 50.2218 259.34 50.1345 259.64C50.123 259.871 50.1942 260.099 50.3354 260.282C50.4766 260.465 50.6785 260.592 50.9049 260.639C51.3671 260.73 51.8447 260.701 52.2929 260.556L60.5376 258.648C61.3537 258.372 62.2337 258.348 63.0637 258.578C64.0284 258.96 64.5697 259.966 65.0347 260.903L73.1337 277.226" fill="#00A16B"/>
<g opacity="0.4">
<path d="M74.8061 273.007C76.1657 269.46 77.9408 266.087 80.0944 262.958C80.7433 261.844 81.71 260.95 82.8704 260.39C84.8622 259.634 87.0344 260.855 88.7972 262.028L92.9195 264.741C93.0489 264.804 93.1642 264.892 93.2585 265.001C93.3527 265.109 93.4239 265.236 93.4678 265.373C93.5372 265.886 92.9057 266.178 92.3921 266.24C90.6322 266.443 88.8583 266.004 87.3953 265.005C86.2849 264.242 85.2023 263.11 83.8628 263.249C82.2042 263.423 81.4616 265.331 80.8162 266.9C79.4088 270.25 76.9286 273.038 73.7651 274.825" fill="black"/>
</g>
<g opacity="0.4">
<path d="M74.7994 273.687C75.1186 265.435 75.4448 257.121 77.4158 249.112C79.3867 241.104 83.1621 233.31 89.3664 227.869C88.5475 234.809 86.0214 241.437 83.523 247.995C80.1501 256.786 76.7796 265.576 73.4114 274.367" fill="black"/>
</g>
<g opacity="0.3">
<path d="M73.3627 276.685C72.1943 269.174 70.0962 261.837 67.1167 254.844C66.7782 253.775 66.1132 252.838 65.2151 252.166C63.8271 251.319 61.995 251.874 60.489 252.547C56.9084 254.15 53.5944 256.292 50.662 258.897C50.4076 259.079 50.2218 259.34 50.1345 259.64C50.123 259.871 50.1942 260.099 50.3354 260.282C50.4766 260.465 50.6785 260.592 50.9049 260.639C51.3671 260.73 51.8447 260.701 52.2929 260.556L60.5376 258.648C61.3537 258.372 62.2337 258.348 63.0637 258.578C64.0284 258.96 64.5697 259.966 65.0347 260.903L73.1337 277.226" fill="black"/>
</g>
<path d="M85.8893 214.502C79.0034 222.676 74.971 232.873 74.4036 243.546C73.6263 261.104 72.5923 273.756 72.5923 273.756H74.5285C74.5285 273.756 78.4011 238.362 80.9827 232.185C83.5644 226.008 87.5688 217.222 85.8893 214.502Z" fill="#00A16B"/>
<path d="M85.8895 214.502C85.8278 214.697 85.7464 214.885 85.6466 215.064L84.904 216.646C84.2655 218.034 83.3772 220.033 82.3917 222.559C81.4063 225.085 80.3097 228.111 79.2965 231.581C78.1579 235.293 77.2562 239.074 76.5968 242.9C76.2498 244.934 76.0902 246.946 75.9445 248.897C75.7987 250.847 75.6808 252.727 75.5767 254.518C75.3685 258.106 75.1464 261.34 74.848 264.04C74.5495 266.739 74.2025 268.898 73.8972 270.411C73.7584 271.16 73.6126 271.729 73.5224 272.125C73.4891 272.324 73.4356 272.519 73.3628 272.708C73.3772 272.504 73.4073 272.303 73.453 272.104C73.5224 271.715 73.6404 271.139 73.7653 270.383C74.0221 268.891 74.3413 266.719 74.5981 264.012C74.8549 261.305 75.0492 258.085 75.2435 254.497C75.3407 252.707 75.4448 250.819 75.5905 248.869C75.7071 246.849 75.9248 244.836 76.2429 242.838C76.9002 238.99 77.8137 235.19 78.9773 231.463C80.0252 227.993 81.1356 224.974 82.1558 222.441C83.176 219.908 84.099 217.916 84.7791 216.556C85.1122 215.862 85.3968 215.356 85.5841 215.002C85.676 214.829 85.778 214.662 85.8895 214.502Z" fill="#263238"/>
<path d="M93.0861 230.943C93.0861 230.943 80.0111 243.435 78.5121 255.233C77.013 267.031 76.3398 273.284 76.3398 273.284H77.6307C77.6307 273.284 80.6982 256.503 84.6678 251.229C88.6375 245.955 93.9952 232.359 93.0861 230.943Z" fill="#00A16B"/>
<path d="M92.9334 231.754C92.881 231.891 92.8159 232.024 92.7391 232.149L92.1283 233.253L89.852 237.285C87.9366 240.686 85.2855 245.405 82.912 250.853C80.825 255.494 79.2563 260.351 78.2345 265.337C77.8597 267.252 77.6446 268.807 77.5405 269.903C77.4711 270.444 77.4433 270.868 77.4017 271.152C77.3935 271.3 77.3727 271.446 77.3392 271.59C77.3225 271.442 77.3225 271.293 77.3392 271.145C77.3392 270.861 77.3392 270.451 77.4017 269.889C77.5189 268.346 77.7181 266.81 77.9985 265.288C78.9514 260.266 80.4935 255.374 82.5928 250.714C84.6937 246.066 87.0571 241.54 89.6716 237.16C90.6571 235.474 91.476 234.12 92.052 233.19L92.746 232.122C92.795 231.993 92.8579 231.869 92.9334 231.754Z" fill="#263238"/>
<path d="M67.8177 233.137C67.8177 233.137 65.8815 257.795 70.3994 272.507H71.947C71.947 272.507 72.9811 240.625 67.8177 233.137Z" fill="#00A16B"/>
<path d="M68.8863 237.799C68.9254 237.91 68.9465 238.028 68.9488 238.146L69.0529 239.145C69.1362 240.068 69.2472 241.31 69.3791 242.823C69.6289 245.933 69.962 250.228 70.3021 254.968C70.6422 259.708 70.9267 263.99 71.1141 267.127C71.2043 268.647 71.2737 269.903 71.3223 270.819C71.3223 271.215 71.3223 271.513 71.3223 271.819C71.3388 271.936 71.3388 272.055 71.3223 272.173C71.2843 272.061 71.2632 271.944 71.2598 271.826L71.1557 270.826C71.0724 269.903 70.9683 268.661 70.8365 267.148C70.5797 264.039 70.2535 259.743 69.9135 254.996C69.5734 250.249 69.2819 245.974 69.0945 242.837C69.0113 241.324 68.9419 240.061 68.8863 239.152C68.8863 238.75 68.8863 238.416 68.8863 238.146C68.8742 238.03 68.8742 237.914 68.8863 237.799Z" fill="#263238"/>
<path d="M64.7431 271.076C64.7431 271.076 69.4831 274.484 69.2402 276.066C68.9973 277.648 57.6018 286.157 58.2958 292.868C58.9898 299.579 64.5002 304.18 73.8623 303.812C83.2243 303.444 89.5536 297.608 88.7 291.653C87.8463 285.699 78.5537 276.212 78.4218 275.747C78.1165 274.435 82.5858 271.076 82.5858 271.076H64.7431Z" fill="#263238"/>
<path d="M81.7879 279.723C81.7879 279.821 78.3179 279.904 74.0775 279.904C69.8372 279.904 66.3672 279.821 66.3672 279.723C66.3672 279.626 69.8372 279.543 74.0775 279.543C78.3179 279.543 81.7879 279.619 81.7879 279.723Z" fill="#FAFAFA"/>
<path d="M82.8775 281.341C82.8775 281.438 78.8107 281.521 73.7931 281.521C68.7754 281.521 64.7017 281.438 64.7017 281.341C64.7017 281.243 68.7754 281.16 73.7931 281.16C78.8107 281.16 82.8775 281.243 82.8775 281.341Z" fill="#FAFAFA"/>
<path d="M84.5153 283.153C84.5153 283.25 79.7129 283.334 73.7792 283.334C67.8454 283.334 63.043 283.25 63.043 283.153C63.043 283.056 67.8524 282.973 73.7792 282.973C79.7059 282.973 84.5153 283.035 84.5153 283.153Z" fill="#FAFAFA"/>
<path d="M85.9657 285.518C85.9657 285.615 80.4137 285.699 73.5917 285.699C66.7696 285.699 61.2107 285.615 61.2107 285.518C61.2107 285.421 66.7627 285.338 73.5917 285.338C80.4206 285.338 85.9657 285.414 85.9657 285.518Z" fill="#FAFAFA"/>
</svg>
