<svg width="428" height="348" viewBox="0 0 428 348" fill="none" xmlns="http://www.w3.org/2000/svg">
<g filter="url(#filter0_d_2293_6836)">
<path d="M382.286 15H45.4045C28.6125 15 15 28.6125 15 45.4045V302.018C15 318.81 28.6125 332.423 45.4045 332.423H382.286C399.078 332.423 412.69 318.81 412.69 302.018V45.4045C412.69 28.6125 399.078 15 382.286 15Z" fill="white"/>
<path d="M119.727 195.602C121.101 195.602 122.293 195.864 123.302 196.387C124.312 196.91 125.09 197.651 125.637 198.612C126.184 199.573 126.458 200.716 126.458 202.042C126.458 203.343 126.184 204.468 125.637 205.417C125.09 206.365 124.312 207.095 123.302 207.606C122.293 208.117 121.101 208.372 119.727 208.372H115.33V195.602H119.727ZM119.727 206.876C121.32 206.876 122.524 206.45 123.339 205.599C124.166 204.736 124.579 203.55 124.579 202.042C124.579 200.522 124.166 199.318 123.339 198.43C122.524 197.542 121.32 197.098 119.727 197.098H117.154V206.876H119.727ZM132.719 208.518C131.843 208.518 131.059 208.323 130.366 207.934C129.685 207.545 129.143 206.998 128.742 206.292C128.341 205.587 128.14 204.754 128.14 203.793C128.14 202.832 128.341 201.999 128.742 201.294C129.156 200.588 129.715 200.047 130.42 199.67C131.126 199.281 131.91 199.087 132.774 199.087C133.637 199.087 134.422 199.281 135.127 199.67C135.832 200.047 136.392 200.588 136.805 201.294C137.219 201.999 137.426 202.832 137.426 203.793C137.426 204.754 137.213 205.587 136.787 206.292C136.374 206.998 135.808 207.545 135.091 207.934C134.373 208.323 133.582 208.518 132.719 208.518ZM132.719 206.949C133.193 206.949 133.643 206.834 134.069 206.602C134.507 206.371 134.859 206.025 135.127 205.563C135.407 205.088 135.547 204.498 135.547 203.793C135.547 203.088 135.413 202.504 135.145 202.042C134.878 201.58 134.531 201.239 134.105 201.02C133.68 200.789 133.224 200.674 132.737 200.674C132.263 200.674 131.813 200.789 131.387 201.02C130.974 201.239 130.639 201.58 130.384 202.042C130.129 202.504 130.001 203.088 130.001 203.793C130.001 204.498 130.122 205.088 130.366 205.563C130.621 206.025 130.956 206.371 131.369 206.602C131.783 206.834 132.233 206.949 132.719 206.949ZM143.027 208.372H141.185L138.321 199.251H140.181L142.097 206.311L144.122 199.251H145.964L147.916 206.274L149.795 199.251H151.62L148.792 208.372H146.931L144.998 201.768L143.027 208.372ZM159.779 203.264C159.779 202.413 159.59 201.768 159.213 201.33C158.849 200.893 158.32 200.674 157.626 200.674C156.933 200.674 156.38 200.899 155.966 201.349C155.565 201.799 155.364 202.467 155.364 203.355V208.372H153.54V199.251H155.218L155.346 200.272C155.65 199.895 156.027 199.603 156.477 199.397C156.939 199.19 157.444 199.087 157.991 199.087C159.049 199.087 159.913 199.421 160.582 200.09C161.263 200.747 161.603 201.732 161.603 203.045V208.372H159.779V203.264ZM164.335 195.237H166.159V208.372H164.335V195.237ZM173.069 208.518C172.194 208.518 171.409 208.323 170.716 207.934C170.035 207.545 169.494 206.998 169.092 206.292C168.691 205.587 168.49 204.754 168.49 203.793C168.49 202.832 168.691 201.999 169.092 201.294C169.506 200.588 170.065 200.047 170.771 199.67C171.476 199.281 172.261 199.087 173.124 199.087C173.988 199.087 174.772 199.281 175.477 199.67C176.183 200.047 176.742 200.588 177.156 201.294C177.569 201.999 177.776 202.832 177.776 203.793C177.776 204.754 177.563 205.587 177.137 206.292C176.724 206.998 176.158 207.545 175.441 207.934C174.723 208.323 173.933 208.518 173.069 208.518ZM173.069 206.949C173.544 206.949 173.994 206.834 174.419 206.602C174.857 206.371 175.21 206.025 175.477 205.563C175.757 205.088 175.897 204.498 175.897 203.793C175.897 203.088 175.763 202.504 175.496 202.042C175.228 201.58 174.881 201.239 174.456 201.02C174.03 200.789 173.574 200.674 173.088 200.674C172.613 200.674 172.163 200.789 171.738 201.02C171.324 201.239 170.99 201.58 170.734 202.042C170.479 202.504 170.351 203.088 170.351 203.793C170.351 204.498 170.473 205.088 170.716 205.563C170.971 206.025 171.306 206.371 171.719 206.602C172.133 206.834 172.583 206.949 173.069 206.949ZM185.538 208.372L185.392 207.04C185.124 207.478 184.771 207.837 184.334 208.117C183.908 208.396 183.361 208.536 182.692 208.536C181.743 208.536 180.983 208.299 180.411 207.825C179.84 207.35 179.554 206.706 179.554 205.891C179.554 205.368 179.663 204.936 179.882 204.596C180.113 204.243 180.418 203.963 180.795 203.757C181.172 203.538 181.591 203.374 182.053 203.264C182.515 203.142 182.99 203.051 183.476 202.99C184.145 202.917 184.632 202.832 184.936 202.735C185.24 202.626 185.392 202.401 185.392 202.06C185.392 201.695 185.252 201.373 184.972 201.093C184.692 200.801 184.218 200.655 183.549 200.655C183.038 200.655 182.582 200.795 182.181 201.075C181.792 201.343 181.524 201.726 181.378 202.224L179.828 201.677C180.059 200.886 180.509 200.254 181.178 199.78C181.859 199.305 182.68 199.068 183.64 199.068C184.723 199.068 185.592 199.391 186.249 200.035C186.918 200.668 187.252 201.647 187.252 202.972V208.372H185.538ZM185.392 204.231L183.203 204.505C182.558 204.59 182.102 204.736 181.834 204.942C181.567 205.149 181.433 205.435 181.433 205.8C181.433 206.177 181.573 206.463 181.853 206.657C182.132 206.84 182.522 206.931 183.02 206.931C183.665 206.931 184.218 206.706 184.68 206.256C185.155 205.806 185.392 205.173 185.392 204.359V204.231ZM196.611 195.237H198.435V208.372H196.775L196.647 207.022C196.331 207.436 195.906 207.788 195.37 208.08C194.847 208.372 194.215 208.518 193.473 208.518C192.646 208.518 191.916 208.317 191.284 207.916C190.664 207.515 190.171 206.961 189.806 206.256C189.454 205.538 189.277 204.705 189.277 203.757C189.277 202.82 189.454 202.005 189.806 201.312C190.171 200.607 190.664 200.059 191.284 199.67C191.916 199.281 192.646 199.087 193.473 199.087C194.166 199.087 194.781 199.239 195.316 199.543C195.863 199.834 196.295 200.181 196.611 200.582V195.237ZM191.138 203.757C191.138 204.766 191.394 205.55 191.904 206.11C192.427 206.669 193.06 206.949 193.802 206.949C194.3 206.949 194.762 206.827 195.188 206.584C195.614 206.329 195.954 205.964 196.21 205.49C196.477 205.015 196.611 204.45 196.611 203.793C196.611 203.136 196.477 202.577 196.21 202.115C195.954 201.653 195.614 201.3 195.188 201.057C194.762 200.801 194.3 200.674 193.802 200.674C193.06 200.674 192.427 200.941 191.904 201.476C191.394 202.011 191.138 202.772 191.138 203.757ZM205.911 199.251C206.179 199.251 206.391 199.166 206.55 198.995C206.72 198.825 206.805 198.606 206.805 198.339V197.007H208.483V199.251H210.764V200.838H208.483V205.253C208.483 205.848 208.617 206.268 208.885 206.511C209.164 206.755 209.554 206.876 210.052 206.876C210.247 206.876 210.484 206.858 210.764 206.821V208.299C210.411 208.372 210.07 208.409 209.742 208.409C209.207 208.409 208.702 208.311 208.228 208.117C207.766 207.91 207.383 207.575 207.079 207.113C206.787 206.651 206.641 206.031 206.641 205.253V200.838H205.346V199.251H205.911ZM212.864 199.251H214.542L214.652 200.418C214.944 200.053 215.29 199.761 215.692 199.543C216.093 199.312 216.537 199.196 217.023 199.196C217.133 199.196 217.254 199.202 217.388 199.214C217.522 199.226 217.662 199.251 217.808 199.287V201.111C217.564 201.051 217.315 201.02 217.06 201.02C216.671 201.02 216.294 201.13 215.929 201.349C215.564 201.555 215.266 201.872 215.035 202.297C214.804 202.711 214.688 203.24 214.688 203.884V208.372H212.864V199.251ZM224.696 208.372L224.55 207.04C224.283 207.478 223.93 207.837 223.492 208.117C223.066 208.396 222.519 208.536 221.85 208.536C220.902 208.536 220.142 208.299 219.57 207.825C218.998 207.35 218.713 206.706 218.713 205.891C218.713 205.368 218.822 204.936 219.041 204.596C219.272 204.243 219.576 203.963 219.953 203.757C220.33 203.538 220.75 203.374 221.212 203.264C221.674 203.142 222.148 203.051 222.635 202.99C223.304 202.917 223.79 202.832 224.094 202.735C224.398 202.626 224.55 202.401 224.55 202.06C224.55 201.695 224.41 201.373 224.131 201.093C223.851 200.801 223.377 200.655 222.708 200.655C222.197 200.655 221.741 200.795 221.34 201.075C220.95 201.343 220.683 201.726 220.537 202.224L218.986 201.677C219.217 200.886 219.667 200.254 220.336 199.78C221.017 199.305 221.838 199.068 222.799 199.068C223.881 199.068 224.751 199.391 225.408 200.035C226.077 200.668 226.411 201.647 226.411 202.972V208.372H224.696ZM224.55 204.231L222.361 204.505C221.717 204.59 221.26 204.736 220.993 204.942C220.725 205.149 220.592 205.435 220.592 205.8C220.592 206.177 220.731 206.463 221.011 206.657C221.291 206.84 221.68 206.931 222.179 206.931C222.823 206.931 223.377 206.706 223.839 206.256C224.313 205.806 224.55 205.173 224.55 204.359V204.231ZM235.385 203.264C235.385 202.413 235.197 201.768 234.82 201.33C234.455 200.893 233.926 200.674 233.232 200.674C232.539 200.674 231.986 200.899 231.572 201.349C231.171 201.799 230.97 202.467 230.97 203.355V208.372H229.146V199.251H230.824L230.952 200.272C231.256 199.895 231.633 199.603 232.083 199.397C232.545 199.19 233.05 199.087 233.597 199.087C234.655 199.087 235.519 199.421 236.188 200.09C236.869 200.747 237.209 201.732 237.209 203.045V208.372H235.385V203.264ZM240.763 205.544C240.873 205.934 241.049 206.232 241.292 206.438C241.535 206.645 241.803 206.785 242.095 206.858C242.399 206.931 242.679 206.967 242.934 206.967C243.469 206.967 243.895 206.864 244.211 206.657C244.527 206.45 244.685 206.189 244.685 205.873C244.685 205.496 244.479 205.216 244.065 205.034C243.664 204.839 243.189 204.675 242.642 204.541C242.265 204.432 241.882 204.316 241.493 204.194C241.104 204.061 240.745 203.896 240.416 203.702C240.1 203.495 239.845 203.234 239.65 202.917C239.456 202.601 239.358 202.2 239.358 201.713C239.358 201.239 239.504 200.801 239.796 200.4C240.088 199.999 240.496 199.682 241.018 199.451C241.541 199.208 242.15 199.087 242.843 199.087C243.585 199.087 244.241 199.257 244.813 199.597C245.385 199.938 245.798 200.436 246.053 201.093L244.558 201.604C244.424 201.251 244.174 200.996 243.81 200.838C243.457 200.668 243.129 200.582 242.825 200.582C242.326 200.582 241.931 200.692 241.639 200.911C241.347 201.13 241.201 201.391 241.201 201.695C241.201 201.975 241.298 202.2 241.493 202.37C241.687 202.54 241.943 202.68 242.259 202.79C242.575 202.899 242.916 203.003 243.281 203.1C243.767 203.234 244.254 203.398 244.74 203.592C245.226 203.775 245.634 204.042 245.962 204.395C246.291 204.748 246.461 205.234 246.473 205.855C246.473 206.365 246.327 206.827 246.035 207.241C245.743 207.642 245.33 207.959 244.795 208.19C244.272 208.421 243.664 208.536 242.97 208.536C242.423 208.536 241.894 208.463 241.383 208.317C240.885 208.159 240.447 207.904 240.07 207.551C239.693 207.186 239.413 206.7 239.231 206.092L240.763 205.544ZM247.852 199.251H249.02V198.247C249.02 197.201 249.299 196.417 249.859 195.894C250.418 195.359 251.312 195.14 252.541 195.237V196.751C251.908 196.691 251.47 196.794 251.227 197.062C250.984 197.317 250.862 197.712 250.862 198.247V199.251H252.65V200.856H250.862V208.372H249.02V200.856H247.852V199.251ZM258.473 208.518C257.597 208.518 256.819 208.323 256.138 207.934C255.469 207.545 254.94 206.998 254.551 206.292C254.174 205.575 253.985 204.736 253.985 203.775C253.985 202.826 254.168 201.999 254.533 201.294C254.898 200.588 255.414 200.047 256.083 199.67C256.752 199.281 257.537 199.087 258.437 199.087C259.312 199.087 260.072 199.275 260.717 199.652C261.374 200.029 261.878 200.552 262.231 201.221C262.596 201.89 262.778 202.65 262.778 203.501C262.778 203.647 262.772 203.799 262.76 203.957C262.76 204.115 262.742 204.286 262.705 204.468H255.864C255.925 205.283 256.193 205.903 256.667 206.329C257.154 206.755 257.743 206.967 258.437 206.967C259.081 206.967 259.628 206.858 260.078 206.639C260.541 206.42 260.881 206.086 261.1 205.636L262.596 206.165C262.243 206.882 261.72 207.454 261.027 207.879C260.346 208.305 259.495 208.518 258.473 208.518ZM260.881 202.99C260.869 202.236 260.62 201.659 260.133 201.257C259.647 200.844 259.051 200.637 258.345 200.637C257.725 200.637 257.184 200.844 256.722 201.257C256.26 201.671 255.98 202.249 255.883 202.99H260.881ZM265.098 199.251H266.776L266.885 200.418C267.177 200.053 267.524 199.761 267.925 199.543C268.327 199.312 268.77 199.196 269.257 199.196C269.366 199.196 269.488 199.202 269.622 199.214C269.756 199.226 269.895 199.251 270.041 199.287V201.111C269.798 201.051 269.549 201.02 269.293 201.02C268.904 201.02 268.527 201.13 268.162 201.349C267.798 201.555 267.5 201.872 267.268 202.297C267.037 202.711 266.922 203.24 266.922 203.884V208.372H265.098V199.251ZM277.588 205.544C277.697 205.934 277.874 206.232 278.117 206.438C278.36 206.645 278.628 206.785 278.919 206.858C279.223 206.931 279.503 206.967 279.759 206.967C280.294 206.967 280.719 206.864 281.036 206.657C281.352 206.45 281.51 206.189 281.51 205.873C281.51 205.496 281.303 205.216 280.89 205.034C280.488 204.839 280.014 204.675 279.467 204.541C279.09 204.432 278.707 204.316 278.317 204.194C277.928 204.061 277.57 203.896 277.241 203.702C276.925 203.495 276.67 203.234 276.475 202.917C276.28 202.601 276.183 202.2 276.183 201.713C276.183 201.239 276.329 200.801 276.621 200.4C276.913 199.999 277.32 199.682 277.843 199.451C278.366 199.208 278.974 199.087 279.667 199.087C280.409 199.087 281.066 199.257 281.638 199.597C282.209 199.938 282.623 200.436 282.878 201.093L281.382 201.604C281.248 201.251 280.999 200.996 280.634 200.838C280.282 200.668 279.953 200.582 279.649 200.582C279.151 200.582 278.755 200.692 278.463 200.911C278.172 201.13 278.026 201.391 278.026 201.695C278.026 201.975 278.123 202.2 278.317 202.37C278.512 202.54 278.767 202.68 279.084 202.79C279.4 202.899 279.74 203.003 280.105 203.1C280.592 203.234 281.078 203.398 281.565 203.592C282.051 203.775 282.459 204.042 282.787 204.395C283.115 204.748 283.286 205.234 283.298 205.855C283.298 206.365 283.152 206.827 282.86 207.241C282.568 207.642 282.154 207.959 281.619 208.19C281.096 208.421 280.488 208.536 279.795 208.536C279.248 208.536 278.719 208.463 278.208 208.317C277.709 208.159 277.272 207.904 276.895 207.551C276.518 207.186 276.238 206.7 276.055 206.092L277.588 205.544ZM285.46 195.237H287.284V208.372H285.46V195.237ZM291.349 197.645C291.02 197.645 290.741 197.536 290.51 197.317C290.291 197.098 290.181 196.83 290.181 196.514C290.181 196.174 290.291 195.894 290.51 195.675C290.741 195.456 291.02 195.347 291.349 195.347C291.665 195.347 291.933 195.456 292.151 195.675C292.383 195.894 292.498 196.174 292.498 196.514C292.498 196.83 292.383 197.098 292.151 197.317C291.933 197.536 291.665 197.645 291.349 197.645ZM290.418 199.251H292.243V208.372H290.418V199.251ZM297.207 212.021H295.383V199.251H297.061L297.189 200.601C297.493 200.175 297.906 199.822 298.429 199.543C298.965 199.251 299.603 199.105 300.345 199.105C301.16 199.105 301.883 199.305 302.516 199.707C303.148 200.096 303.641 200.649 303.993 201.367C304.358 202.072 304.541 202.899 304.541 203.848C304.541 204.784 304.358 205.605 303.993 206.311C303.641 207.016 303.148 207.563 302.516 207.952C301.896 208.329 301.172 208.518 300.345 208.518C299.639 208.518 299.019 208.372 298.484 208.08C297.949 207.788 297.523 207.442 297.207 207.04V212.021ZM302.68 203.848C302.68 202.838 302.418 202.06 301.895 201.513C301.385 200.953 300.752 200.674 299.998 200.674C299.512 200.674 299.056 200.801 298.63 201.057C298.204 201.3 297.858 201.659 297.59 202.133C297.335 202.595 297.207 203.155 297.207 203.811C297.207 204.468 297.335 205.034 297.59 205.508C297.858 205.97 298.204 206.323 298.63 206.566C299.056 206.809 299.512 206.931 299.998 206.931C300.752 206.931 301.385 206.669 301.895 206.146C302.418 205.611 302.68 204.845 302.68 203.848ZM307.535 205.544C307.644 205.934 307.821 206.232 308.064 206.438C308.307 206.645 308.575 206.785 308.867 206.858C309.171 206.931 309.45 206.967 309.706 206.967C310.241 206.967 310.667 206.864 310.983 206.657C311.299 206.45 311.457 206.189 311.457 205.873C311.457 205.496 311.25 205.216 310.837 205.034C310.436 204.839 309.961 204.675 309.414 204.541C309.037 204.432 308.654 204.316 308.265 204.194C307.875 204.061 307.517 203.896 307.188 203.702C306.872 203.495 306.617 203.234 306.422 202.917C306.228 202.601 306.13 202.2 306.13 201.713C306.13 201.239 306.276 200.801 306.568 200.4C306.86 199.999 307.267 199.682 307.79 199.451C308.313 199.208 308.921 199.087 309.615 199.087C310.356 199.087 311.013 199.257 311.585 199.597C312.156 199.938 312.57 200.436 312.825 201.093L311.329 201.604C311.196 201.251 310.946 200.996 310.581 200.838C310.229 200.668 309.9 200.582 309.596 200.582C309.098 200.582 308.702 200.692 308.411 200.911C308.119 201.13 307.973 201.391 307.973 201.695C307.973 201.975 308.07 202.2 308.265 202.37C308.459 202.54 308.715 202.68 309.031 202.79C309.347 202.899 309.688 203.003 310.052 203.1C310.539 203.234 311.025 203.398 311.512 203.592C311.998 203.775 312.406 204.042 312.734 204.395C313.062 204.748 313.233 205.234 313.245 205.855C313.245 206.365 313.099 206.827 312.807 207.241C312.515 207.642 312.102 207.959 311.567 208.19C311.044 208.421 310.436 208.536 309.742 208.536C309.195 208.536 308.666 208.463 308.155 208.317C307.657 208.159 307.219 207.904 306.842 207.551C306.465 207.186 306.185 206.7 306.003 206.092L307.535 205.544Z" fill="#4D4D4D"/>
<path d="M196.211 235.736H57.5667C50.5141 235.736 44.7969 241.454 44.7969 248.506V276.478C44.7969 283.531 50.5141 289.248 57.5667 289.248H196.211C203.264 289.248 208.981 283.531 208.981 276.478V248.506C208.981 241.454 203.264 235.736 196.211 235.736Z" stroke="#8778F7"/>
<path d="M97.4766 261.919C97.4766 260.958 97.6407 260.083 97.9691 259.292C98.2975 258.489 98.7535 257.802 99.3373 257.231C99.9211 256.647 100.602 256.197 101.38 255.881C102.159 255.552 102.992 255.388 103.88 255.388C105.157 255.388 106.3 255.692 107.309 256.3C108.319 256.896 109.079 257.748 109.59 258.854L108.057 259.42C107.632 258.581 107.036 257.973 106.27 257.596C105.516 257.206 104.731 257.012 103.916 257.012C103.053 257.012 102.274 257.212 101.581 257.614C100.888 258.015 100.341 258.581 99.9393 259.31C99.5501 260.04 99.3556 260.91 99.3556 261.919C99.3556 262.928 99.5501 263.804 99.9393 264.546C100.341 265.276 100.888 265.841 101.581 266.243C102.274 266.644 103.053 266.845 103.916 266.845C104.743 266.845 105.552 266.632 106.343 266.206C107.145 265.78 107.772 265.069 108.221 264.072L109.754 264.619C109.207 265.908 108.416 266.869 107.382 267.501C106.361 268.122 105.193 268.432 103.88 268.432C102.992 268.432 102.159 268.274 101.38 267.957C100.602 267.641 99.9211 267.197 99.3373 266.626C98.7535 266.042 98.2975 265.355 97.9691 264.564C97.6407 263.762 97.4766 262.88 97.4766 261.919ZM117.697 268.322L117.551 266.991C117.283 267.428 116.931 267.787 116.493 268.067C116.067 268.347 115.52 268.486 114.851 268.486C113.902 268.486 113.142 268.249 112.571 267.775C111.999 267.301 111.713 266.656 111.713 265.841C111.713 265.318 111.823 264.887 112.042 264.546C112.273 264.193 112.577 263.914 112.954 263.707C113.331 263.488 113.75 263.324 114.212 263.214C114.675 263.093 115.149 263.001 115.635 262.941C116.304 262.868 116.791 262.783 117.095 262.685C117.399 262.576 117.551 262.351 117.551 262.01C117.551 261.645 117.411 261.323 117.131 261.043C116.852 260.752 116.377 260.606 115.708 260.606C115.198 260.606 114.741 260.745 114.34 261.025C113.951 261.293 113.683 261.676 113.537 262.174L111.987 261.627C112.218 260.837 112.668 260.204 113.337 259.73C114.018 259.256 114.839 259.018 115.8 259.018C116.882 259.018 117.751 259.341 118.408 259.985C119.077 260.618 119.412 261.597 119.412 262.922V268.322H117.697ZM117.551 264.181L115.362 264.455C114.717 264.54 114.261 264.686 113.993 264.893C113.726 265.099 113.592 265.385 113.592 265.75C113.592 266.127 113.732 266.413 114.012 266.607C114.291 266.79 114.681 266.881 115.179 266.881C115.824 266.881 116.377 266.656 116.839 266.206C117.314 265.756 117.551 265.124 117.551 264.309V264.181ZM128.387 263.214C128.387 262.363 128.198 261.718 127.821 261.281C127.457 260.843 126.928 260.624 126.234 260.624C125.541 260.624 124.988 260.849 124.574 261.299C124.173 261.749 123.972 262.418 123.972 263.306V268.322H122.148V259.201H123.826L123.954 260.222C124.258 259.845 124.635 259.554 125.085 259.347C125.547 259.14 126.052 259.037 126.599 259.037C127.657 259.037 128.521 259.371 129.19 260.04C129.871 260.697 130.211 261.682 130.211 262.995V268.322H128.387V263.214ZM136.848 268.468C135.972 268.468 135.194 268.274 134.513 267.884C133.844 267.495 133.321 266.948 132.944 266.243C132.567 265.537 132.378 264.704 132.378 263.743C132.378 262.795 132.567 261.968 132.944 261.262C133.321 260.557 133.844 260.01 134.513 259.62C135.194 259.231 135.972 259.037 136.848 259.037C137.833 259.037 138.678 259.25 139.384 259.675C140.089 260.101 140.606 260.703 140.934 261.481L139.384 262.01C139.189 261.548 138.867 261.202 138.417 260.97C137.979 260.739 137.474 260.624 136.903 260.624C136.428 260.624 135.984 260.752 135.571 261.007C135.17 261.25 134.847 261.603 134.604 262.065C134.361 262.527 134.239 263.087 134.239 263.743C134.239 264.4 134.361 264.966 134.604 265.44C134.847 265.902 135.17 266.261 135.571 266.516C135.984 266.759 136.428 266.881 136.903 266.881C137.462 266.881 137.967 266.778 138.417 266.571C138.867 266.352 139.207 265.999 139.438 265.513L140.953 266.06C140.612 266.79 140.083 267.374 139.365 267.811C138.66 268.249 137.821 268.468 136.848 268.468ZM147.092 268.468C146.216 268.468 145.438 268.274 144.757 267.884C144.088 267.495 143.559 266.948 143.17 266.243C142.793 265.525 142.604 264.686 142.604 263.725C142.604 262.776 142.786 261.949 143.151 261.244C143.516 260.539 144.033 259.998 144.702 259.62C145.371 259.231 146.155 259.037 147.055 259.037C147.931 259.037 148.691 259.225 149.336 259.602C149.992 259.979 150.497 260.502 150.85 261.171C151.215 261.84 151.397 262.6 151.397 263.451C151.397 263.597 151.391 263.749 151.379 263.908C151.379 264.066 151.361 264.236 151.324 264.418H144.483C144.544 265.233 144.811 265.853 145.286 266.279C145.772 266.705 146.362 266.918 147.055 266.918C147.7 266.918 148.247 266.808 148.697 266.589C149.159 266.37 149.5 266.036 149.719 265.586L151.215 266.115C150.862 266.832 150.339 267.404 149.646 267.83C148.965 268.255 148.113 268.468 147.092 268.468ZM149.5 262.941C149.488 262.187 149.238 261.609 148.752 261.208C148.265 260.794 147.669 260.587 146.964 260.587C146.344 260.587 145.803 260.794 145.34 261.208C144.878 261.621 144.599 262.199 144.501 262.941H149.5ZM153.716 255.188H155.541V268.322H153.716V255.188Z" fill="#8778F7"/>
<path d="M371.231 235.129H232.587C225.199 235.129 219.209 241.118 219.209 248.507V276.479C219.209 283.867 225.199 289.857 232.587 289.857H371.231C378.62 289.857 384.609 283.867 384.609 276.479V248.507C384.609 241.118 378.62 235.129 371.231 235.129Z" fill="#8778F7"/>
<path d="M264.281 255.552C265.656 255.552 266.847 255.814 267.857 256.337C268.866 256.86 269.645 257.602 270.192 258.562C270.739 259.523 271.013 260.666 271.013 261.992C271.013 263.293 270.739 264.418 270.192 265.367C269.645 266.316 268.866 267.045 267.857 267.556C266.847 268.067 265.656 268.322 264.281 268.322H259.885V255.552H264.281ZM264.281 266.826C265.874 266.826 267.078 266.401 267.893 265.549C268.72 264.686 269.134 263.5 269.134 261.992C269.134 260.472 268.72 259.268 267.893 258.38C267.078 257.492 265.874 257.048 264.281 257.048H261.709V266.826H264.281ZM277.274 268.468C276.398 268.468 275.614 268.274 274.92 267.884C274.239 267.495 273.698 266.948 273.297 266.243C272.895 265.537 272.695 264.704 272.695 263.743C272.695 262.783 272.895 261.949 273.297 261.244C273.71 260.539 274.27 259.998 274.975 259.62C275.68 259.231 276.465 259.037 277.328 259.037C278.192 259.037 278.976 259.231 279.682 259.62C280.387 259.998 280.947 260.539 281.36 261.244C281.774 261.949 281.98 262.783 281.98 263.743C281.98 264.704 281.767 265.537 281.342 266.243C280.928 266.948 280.363 267.495 279.645 267.884C278.928 268.274 278.137 268.468 277.274 268.468ZM277.274 266.899C277.748 266.899 278.198 266.784 278.624 266.553C279.061 266.322 279.414 265.975 279.682 265.513C279.961 265.039 280.101 264.449 280.101 263.743C280.101 263.038 279.968 262.454 279.7 261.992C279.432 261.53 279.086 261.189 278.66 260.97C278.234 260.739 277.778 260.624 277.292 260.624C276.818 260.624 276.368 260.739 275.942 260.97C275.528 261.189 275.194 261.53 274.939 261.992C274.683 262.454 274.556 263.038 274.556 263.743C274.556 264.449 274.677 265.039 274.92 265.513C275.176 265.975 275.51 266.322 275.924 266.553C276.337 266.784 276.787 266.899 277.274 266.899ZM287.582 268.322H285.74L282.875 259.201H284.736L286.652 266.261L288.677 259.201H290.519L292.471 266.224L294.35 259.201H296.174L293.347 268.322H291.486L289.552 261.718L287.582 268.322ZM304.334 263.214C304.334 262.363 304.145 261.718 303.768 261.281C303.403 260.843 302.874 260.624 302.181 260.624C301.488 260.624 300.934 260.849 300.521 261.299C300.12 261.749 299.919 262.418 299.919 263.306V268.322H298.095V259.201H299.773L299.901 260.222C300.205 259.845 300.582 259.554 301.032 259.347C301.494 259.14 301.999 259.037 302.546 259.037C303.604 259.037 304.467 259.371 305.136 260.04C305.817 260.697 306.158 261.682 306.158 262.995V268.322H304.334V263.214ZM308.891 255.188H310.715V268.322H308.891V255.188ZM317.625 268.468C316.75 268.468 315.965 268.274 315.272 267.884C314.591 267.495 314.05 266.948 313.648 266.243C313.247 265.537 313.046 264.704 313.046 263.743C313.046 262.783 313.247 261.949 313.648 261.244C314.062 260.539 314.621 259.998 315.327 259.62C316.032 259.231 316.817 259.037 317.68 259.037C318.543 259.037 319.328 259.231 320.033 259.62C320.739 259.998 321.298 260.539 321.712 261.244C322.125 261.949 322.332 262.783 322.332 263.743C322.332 264.704 322.119 265.537 321.693 266.243C321.28 266.948 320.714 267.495 319.997 267.884C319.279 268.274 318.489 268.468 317.625 268.468ZM317.625 266.899C318.1 266.899 318.55 266.784 318.975 266.553C319.413 266.322 319.766 265.975 320.033 265.513C320.313 265.039 320.453 264.449 320.453 263.743C320.453 263.038 320.319 262.454 320.052 261.992C319.784 261.53 319.437 261.189 319.012 260.97C318.586 260.739 318.13 260.624 317.643 260.624C317.169 260.624 316.719 260.739 316.294 260.97C315.88 261.189 315.546 261.53 315.29 261.992C315.035 262.454 314.907 263.038 314.907 263.743C314.907 264.449 315.029 265.039 315.272 265.513C315.527 265.975 315.862 266.322 316.275 266.553C316.689 266.784 317.139 266.899 317.625 266.899ZM330.094 268.322L329.948 266.991C329.68 267.428 329.327 267.787 328.889 268.067C328.464 268.347 327.917 268.486 327.248 268.486C326.299 268.486 325.539 268.249 324.967 267.775C324.396 267.301 324.11 266.656 324.11 265.841C324.11 265.318 324.219 264.887 324.438 264.546C324.669 264.193 324.973 263.914 325.35 263.707C325.727 263.488 326.147 263.324 326.609 263.214C327.071 263.093 327.546 263.001 328.032 262.941C328.701 262.868 329.187 262.783 329.492 262.685C329.796 262.576 329.948 262.351 329.948 262.01C329.948 261.645 329.808 261.323 329.528 261.043C329.248 260.752 328.774 260.606 328.105 260.606C327.594 260.606 327.138 260.745 326.737 261.025C326.348 261.293 326.08 261.676 325.934 262.174L324.384 261.627C324.615 260.837 325.065 260.204 325.734 259.73C326.415 259.256 327.235 259.018 328.196 259.018C329.279 259.018 330.148 259.341 330.805 259.985C331.474 260.618 331.808 261.597 331.808 262.922V268.322H330.094ZM329.948 264.181L327.758 264.455C327.114 264.54 326.658 264.686 326.39 264.893C326.123 265.099 325.989 265.385 325.989 265.75C325.989 266.127 326.129 266.413 326.408 266.607C326.688 266.79 327.077 266.881 327.576 266.881C328.221 266.881 328.774 266.656 329.236 266.206C329.71 265.756 329.948 265.124 329.948 264.309V264.181ZM341.167 255.188H342.991V268.322H341.331L341.203 266.972C340.887 267.386 340.461 267.738 339.926 268.03C339.403 268.322 338.771 268.468 338.029 268.468C337.202 268.468 336.472 268.268 335.84 267.866C335.22 267.465 334.727 266.911 334.362 266.206C334.01 265.489 333.833 264.655 333.833 263.707C333.833 262.77 334.01 261.956 334.362 261.262C334.727 260.557 335.22 260.01 335.84 259.62C336.472 259.231 337.202 259.037 338.029 259.037C338.722 259.037 339.336 259.189 339.872 259.493C340.419 259.785 340.851 260.131 341.167 260.533V255.188ZM335.694 263.707C335.694 264.716 335.949 265.501 336.46 266.06C336.983 266.62 337.616 266.899 338.357 266.899C338.856 266.899 339.318 266.778 339.744 266.534C340.17 266.279 340.51 265.914 340.766 265.44C341.033 264.966 341.167 264.4 341.167 263.743C341.167 263.087 341.033 262.527 340.766 262.065C340.51 261.603 340.17 261.25 339.744 261.007C339.318 260.752 338.856 260.624 338.357 260.624C337.616 260.624 336.983 260.891 336.46 261.427C335.949 261.962 335.694 262.722 335.694 263.707Z" fill="white"/>
<path opacity="0.5" fill-rule="evenodd" clip-rule="evenodd" d="M205.331 160.333H223.574C240.772 160.333 249.374 160.333 254.714 154.987C260.059 149.647 260.059 141.045 260.059 123.847V121.854C260.059 117.872 260.059 114.88 259.863 112.445H241.383C236.38 112.445 231.956 112.446 228.395 111.966C224.531 111.447 220.668 110.256 217.517 107.105C214.361 103.949 213.171 100.085 212.651 96.2229C212.172 92.6607 212.172 88.2423 212.172 83.2341L212.217 70.3098C212.217 69.9303 212.25 69.5618 212.308 69.197C210.444 69.1191 208.232 69.1191 205.467 69.1191C188.178 69.1191 179.531 69.1191 174.191 74.4642C168.846 79.8045 168.846 88.4065 168.846 105.604V123.847C168.846 141.045 168.846 149.647 174.191 154.987C179.531 160.333 188.133 160.333 205.331 160.333Z" fill="#8778F7"/>
<path d="M200.829 146.867C200.195 147.462 199.359 147.792 198.489 147.792C197.619 147.792 196.784 147.462 196.149 146.867L187.028 138.316C186.382 137.692 186.007 136.838 185.986 135.939C185.962 135.042 186.294 134.171 186.91 133.516C187.524 132.86 188.372 132.473 189.269 132.438C190.168 132.402 191.044 132.721 191.708 133.326L195.069 136.473V121.569C195.069 120.662 195.429 119.791 196.07 119.15C196.712 118.509 197.582 118.148 198.489 118.148C199.396 118.148 200.266 118.509 200.908 119.15C201.549 119.791 201.91 120.662 201.91 121.569V136.478L205.27 133.326C205.936 132.721 206.811 132.402 207.709 132.438C208.606 132.473 209.454 132.86 210.068 133.516C210.684 134.171 211.016 135.042 210.994 135.939C210.971 136.838 210.596 137.692 209.95 138.316L200.829 146.867ZM212.217 70.3072L212.171 83.2364C212.171 88.2398 212.171 92.6594 212.65 96.2252C213.17 100.088 214.36 103.952 217.516 107.103C220.664 110.254 224.531 111.449 228.394 111.969C231.956 112.448 236.379 112.448 241.382 112.448H259.862C259.922 113.154 259.962 113.912 259.99 114.728H260.058C260.058 113.506 260.058 112.894 260.013 112.174C259.662 107.84 258.152 103.68 255.643 100.129C255.215 99.5453 254.923 99.1987 254.343 98.5007C250.728 94.1771 245.966 88.787 241.815 85.0838C238.122 81.7818 233.054 78.1747 228.636 75.223C224.841 72.6921 222.944 71.4249 220.339 70.4799C219.581 70.2111 218.811 69.9776 218.032 69.783C216.281 69.3489 214.574 69.1993 212.171 69.1445L212.217 70.3072Z" fill="#8778F7"/>
<path d="M380.821 58.2692C381.017 58.4657 381.128 58.7323 381.128 59.0103C381.128 59.2882 381.017 59.5548 380.821 59.7513C380.624 59.948 380.358 60.0584 380.08 60.0584C379.802 60.0584 379.536 59.948 379.339 59.7513L373.803 54.2139L368.266 59.7496C368.07 59.9461 367.802 60.0566 367.525 60.0566C367.246 60.0566 366.98 59.9461 366.783 59.7496C366.587 59.5531 366.477 59.2865 366.477 59.0085C366.477 58.7306 366.587 58.464 366.783 58.2675L372.322 52.7318L366.785 47.1944C366.588 46.9979 366.478 46.7313 366.478 46.4533C366.478 46.1752 366.588 45.9086 366.785 45.7121C366.981 45.5156 367.249 45.4052 367.526 45.4052C367.805 45.4052 368.071 45.5156 368.268 45.7121L373.803 51.2495L379.34 45.7113C379.537 45.5147 379.803 45.4043 380.082 45.4043C380.359 45.4043 380.627 45.5147 380.823 45.7113C381.02 45.9078 381.13 46.1744 381.13 46.4524C381.13 46.7303 381.02 46.9969 380.823 47.1935L375.285 52.7318L380.821 58.2692Z" fill="#939393"/>
</g>
<defs>
<filter id="filter0_d_2293_6836" x="0" y="0" width="427.69" height="347.422" filterUnits="userSpaceOnUse" color-interpolation-filters="sRGB">
<feFlood flood-opacity="0" result="BackgroundImageFix"/>
<feColorMatrix in="SourceAlpha" type="matrix" values="0 0 0 0 0 0 0 0 0 0 0 0 0 0 0 0 0 0 127 0" result="hardAlpha"/>
<feOffset/>
<feGaussianBlur stdDeviation="7.5"/>
<feComposite in2="hardAlpha" operator="out"/>
<feColorMatrix type="matrix" values="0 0 0 0 0 0 0 0 0 0 0 0 0 0 0 0 0 0 0.1 0"/>
<feBlend mode="normal" in2="BackgroundImageFix" result="effect1_dropShadow_2293_6836"/>
<feBlend mode="normal" in="SourceGraphic" in2="effect1_dropShadow_2293_6836" result="shape"/>
</filter>
</defs>
</svg>
