<svg width="347" height="347" viewBox="0 0 347 347" fill="none" xmlns="http://www.w3.org/2000/svg">
<path d="M72.8773 28.7715H13.288C11.6699 28.7715 10.3582 30.0832 10.3582 31.7014V93.8728C10.3582 95.491 11.6699 96.8027 13.288 96.8027H72.8773C74.4955 96.8027 75.8072 95.491 75.8072 93.8728V31.7014C75.8072 30.0832 74.4955 28.7715 72.8773 28.7715Z" fill="#F5F5F5"/>
<path d="M43.682 44.1152C40.1027 44.1152 36.6038 45.1766 33.6277 47.1652C30.6516 49.1537 28.332 51.9801 26.9623 55.287C25.5926 58.5938 25.2342 62.2326 25.9325 65.7431C26.6307 69.2536 28.3543 72.4783 30.8853 75.0092C33.4162 77.5402 36.6409 79.2638 40.1514 79.962C43.6619 80.6603 47.3007 80.3019 50.6075 78.9322C53.9144 77.5625 56.7408 75.2429 58.7293 72.2668C60.7179 69.2907 61.7793 65.7918 61.7793 62.2125C61.7793 57.4128 59.8726 52.8097 56.4787 49.4158C53.0848 46.0219 48.4817 44.1152 43.682 44.1152ZM43.9557 73.059C41.7608 73.059 39.6151 72.4081 37.79 71.1887C35.9649 69.9692 34.5424 68.2359 33.7025 66.208C32.8625 64.1801 32.6427 61.9486 33.0709 59.7958C33.4991 57.643 34.5561 55.6655 36.1082 54.1134C37.6603 52.5613 39.6378 51.5043 41.7906 51.0761C43.9434 50.6479 46.1749 50.8677 48.2028 51.7077C50.2307 52.5476 51.964 53.9701 53.1835 55.7952C54.4029 57.6203 55.0538 59.766 55.0538 61.961C55.0538 64.9043 53.8846 67.7272 51.8033 69.8085C49.722 71.8898 46.8991 73.059 43.9557 73.059Z" fill="#E0E0E0"/>
<path d="M43.9558 44.123V50.8263C45.7077 50.8185 47.4366 51.2256 49.0009 52.0143C50.5653 52.803 51.9207 53.9508 52.9563 55.3638C53.992 56.7769 54.6783 58.415 54.9593 60.1443C55.2403 61.8735 55.1079 63.6447 54.573 65.313L61.1282 67.0887C61.8711 64.4239 61.9926 61.6243 61.4835 58.9052C60.9743 56.1861 59.8481 53.6201 58.1915 51.4046C56.5349 49.1891 54.3921 47.3833 51.9279 46.126C49.4638 44.8688 46.744 44.1937 43.978 44.1526L43.9558 44.123Z" fill="#FAFAFA"/>
<path d="M32.8353 61.9401C32.8336 59.7915 33.4556 57.6887 34.6258 55.8868C35.796 54.0848 37.4641 52.6613 39.4276 51.789L36.6457 45.5371C33.3594 46.9154 30.5531 49.2332 28.5788 52.1999C26.6045 55.1666 25.55 58.6502 25.5476 62.2138C25.5476 62.4728 25.5476 62.7243 25.5476 62.9537H32.8279C32.8575 62.6356 32.8353 62.2878 32.8353 61.9401Z" fill="#EBEBEB"/>
<path d="M43.9557 73.059C43.1647 73.0586 42.376 72.9742 41.6029 72.8074C41.3217 74.4203 40.7964 77.5426 40.3821 80.0064C41.4703 80.2093 42.5749 80.3109 43.6819 80.3097C47.6313 80.31 51.4723 79.0179 54.6184 76.6306C57.7646 74.2432 60.043 70.8919 61.1059 67.0882L54.5728 65.3125C53.8589 67.5662 52.444 69.533 50.5342 70.9264C48.6245 72.3197 46.3197 73.0669 43.9557 73.059Z" fill="#EBEBEB"/>
<path d="M41.5511 62.8418H40.8853V63.7074H39.953V62.8418H37.7334V62.1981L39.6719 59.5938H40.6707L38.8802 62.0353H39.9826V61.2955H40.8853V62.0353H41.5511V62.8418Z" fill="#E0E0E0"/>
<path d="M41.8323 61.6504C41.8323 60.289 42.5722 59.5195 43.5932 59.5195C44.6142 59.5195 45.3615 60.2594 45.3615 61.6504C45.3615 63.0413 44.6216 63.7738 43.5932 63.7738C42.5648 63.7738 41.8323 63.0043 41.8323 61.6504ZM44.3996 61.6504C44.3996 60.7107 44.0741 60.326 43.5932 60.326C43.1123 60.326 42.7941 60.7107 42.7941 61.6504C42.7941 62.59 43.1271 62.9673 43.5932 62.9673C44.0593 62.9673 44.3996 62.5826 44.3996 61.6504Z" fill="#E0E0E0"/>
<path d="M45.7537 60.6821C45.7417 60.5412 45.759 60.3993 45.8047 60.2655C45.8504 60.1317 45.9233 60.0088 46.019 59.9047C46.1146 59.8005 46.2308 59.7174 46.3603 59.6605C46.4898 59.6036 46.6296 59.5742 46.771 59.5742C46.9124 59.5742 47.0523 59.6036 47.1817 59.6605C47.3112 59.7174 47.4274 59.8005 47.5231 59.9047C47.6187 60.0088 47.6917 60.1317 47.7373 60.2655C47.783 60.3993 47.8004 60.5412 47.7883 60.6821C47.8004 60.823 47.783 60.9648 47.7373 61.0986C47.6917 61.2325 47.6187 61.3554 47.5231 61.4595C47.4274 61.5637 47.3112 61.6468 47.1817 61.7037C47.0523 61.7606 46.9124 61.7899 46.771 61.7899C46.6296 61.7899 46.4898 61.7606 46.3603 61.7037C46.2308 61.6468 46.1146 61.5637 46.019 61.4595C45.9233 61.3554 45.8504 61.2325 45.8047 61.0986C45.759 60.9648 45.7417 60.823 45.7537 60.6821ZM47.2334 60.6821C47.2334 60.2382 47.0633 60.031 46.8043 60.031C46.5454 60.031 46.3752 60.2456 46.3752 60.6821C46.3752 61.1186 46.5528 61.3332 46.8043 61.3332C47.0559 61.3332 47.1743 61.1186 47.1743 60.6821H47.2334ZM49.2533 59.5945H49.9932L47.1817 63.7082H46.4344L49.2533 59.5945ZM48.58 62.6205C48.6015 62.4245 48.6792 62.2388 48.804 62.0859C48.9287 61.9331 49.095 61.8197 49.2828 61.7594C49.4707 61.6991 49.6719 61.6945 49.8623 61.7461C50.0527 61.7978 50.224 61.9035 50.3556 62.0504C50.4872 62.1974 50.5734 62.3793 50.6038 62.5742C50.6342 62.7691 50.6075 62.9687 50.5269 63.1487C50.4463 63.3288 50.3153 63.4816 50.1496 63.5888C49.984 63.6959 49.7909 63.7528 49.5936 63.7525C49.4478 63.7566 49.3028 63.7293 49.1685 63.6726C49.0341 63.6159 48.9134 63.5311 48.8145 63.4238C48.7157 63.3166 48.641 63.1894 48.5954 63.0508C48.5498 62.9123 48.5345 62.7655 48.5504 62.6205H48.58ZM50.0598 62.6205C50.0598 62.184 49.8896 61.9695 49.6306 61.9695C49.3717 61.9695 49.2015 62.1766 49.2015 62.6205C49.2015 63.0645 49.3791 63.2716 49.6306 63.2716C49.8822 63.2716 49.9932 63.0497 49.9932 62.6205H50.0598Z" fill="#E0E0E0"/>
<path d="M58.6571 84.8753C58.6571 84.9714 51.9539 85.0528 43.6821 85.0528C35.4103 85.0528 28.6775 84.9714 28.6775 84.8753C28.6775 84.7791 35.3807 84.7051 43.6525 84.7051C51.9243 84.7051 58.6571 84.7865 58.6571 84.8753Z" fill="#E0E0E0"/>
<path d="M51.9908 87.6272C51.9908 87.7234 48.2915 87.7974 43.6821 87.7974C39.0727 87.7974 35.3733 87.7234 35.3733 87.6272C35.3733 87.531 39.0727 87.457 43.6821 87.457C48.2915 87.457 51.9908 87.531 51.9908 87.6272Z" fill="#E0E0E0"/>
<path d="M16.8838 36.2061C17.795 36.2061 18.5337 35.4674 18.5337 34.5562C18.5337 33.6449 17.795 32.9062 16.8838 32.9062C15.9726 32.9062 15.2339 33.6449 15.2339 34.5562C15.2339 35.4674 15.9726 36.2061 16.8838 36.2061Z" fill="#E0E0E0"/>
<path d="M21.1382 36.2061C22.0494 36.2061 22.7881 35.4674 22.7881 34.5562C22.7881 33.6449 22.0494 32.9062 21.1382 32.9062C20.227 32.9062 19.4883 33.6449 19.4883 34.5562C19.4883 35.4674 20.227 36.2061 21.1382 36.2061Z" fill="#E0E0E0"/>
<path d="M27.0349 34.5562C27.0349 34.8825 26.9382 35.2015 26.7569 35.4728C26.5756 35.7442 26.3179 35.9556 26.0164 36.0805C25.7149 36.2054 25.3832 36.2381 25.0631 36.1744C24.7431 36.1107 24.4491 35.9536 24.2184 35.7228C23.9876 35.4921 23.8305 35.1981 23.7668 34.8781C23.7031 34.558 23.7358 34.2263 23.8607 33.9248C23.9856 33.6233 24.1971 33.3656 24.4684 33.1843C24.7397 33.003 25.0587 32.9063 25.385 32.9063C25.602 32.9053 25.817 32.9473 26.0176 33.0299C26.2182 33.1124 26.4005 33.2339 26.5539 33.3873C26.7073 33.5407 26.8288 33.723 26.9113 33.9236C26.9939 34.1242 27.0359 34.3392 27.0349 34.5562Z" fill="#E0E0E0"/>
<path d="M307.853 52.8389C307.687 52.1106 307.603 51.3662 307.602 50.6192C307.57 49.7252 307.471 48.8348 307.306 47.9557C307.157 46.7468 306.922 45.5501 306.603 44.3747C305.833 41.1379 304.586 38.0335 302.904 35.1633C300.689 31.3542 297.765 28.004 294.291 25.2934C289.818 21.7584 284.53 19.4005 278.91 18.435C273.291 17.4696 267.519 17.9274 262.122 19.7666C259.012 20.793 256.077 22.2901 253.421 24.2058C252.042 25.1806 250.73 26.2459 249.492 27.3947C248.268 28.6047 247.126 29.8949 246.074 31.2568C241.65 36.9678 239.17 43.9438 238.994 51.1654C238.818 58.387 240.957 65.4755 245.097 71.3949C246.082 72.8066 247.16 74.1512 248.323 75.4198C249.505 76.6239 250.763 77.7509 252.089 78.7936C254.651 80.8363 257.511 82.4755 260.568 83.6545C267.961 86.5433 276.125 86.7865 283.676 84.3431C291.228 81.8996 297.702 76.9199 302.001 70.2481C303.83 67.4665 305.232 64.4263 306.159 61.229C306.531 60.0693 306.823 58.8851 307.032 57.685C307.241 56.8167 307.385 55.9337 307.461 55.0437C307.496 54.2929 307.615 53.5483 307.816 52.8241C307.901 53.5615 307.901 54.3062 307.816 55.0437C307.81 55.9519 307.726 56.8579 307.565 57.7516C307.413 58.9849 307.166 60.2044 306.825 61.3992C306.005 64.718 304.667 67.8866 302.859 70.7882C300.234 75.0872 296.719 78.775 292.552 81.6041C288.384 84.4332 283.659 86.3382 278.695 87.1911C272.39 88.2461 265.917 87.5868 259.954 85.2823C256.726 84.0675 253.704 82.3631 250.994 80.2289C249.589 79.1359 248.257 77.952 247.006 76.6849C245.773 75.3525 244.631 73.9386 243.588 72.4529C239.193 66.2161 236.921 58.7314 237.106 51.1042C237.291 43.4769 239.924 36.1114 244.616 30.0952C245.732 28.6613 246.943 27.3043 248.242 26.0333C249.55 24.8281 250.936 23.7109 252.392 22.6891C255.205 20.6942 258.306 19.1422 261.589 18.0871C267.656 16.0801 274.151 15.7353 280.397 17.0882C285.329 18.1746 289.972 20.3049 294.013 23.336C298.053 26.367 301.398 30.2284 303.821 34.6602C305.487 37.6474 306.673 40.8782 307.335 44.2341C307.612 45.4513 307.792 46.6882 307.875 47.9335C307.993 48.8335 308.033 49.742 307.994 50.6488C308.029 51.3818 307.982 52.1164 307.853 52.8389Z" fill="#EBEBEB"/>
<path d="M300.876 31.034C300.95 31.1376 300.321 31.6851 299.108 32.5877L296.888 34.2007C296.445 34.504 295.978 34.8517 295.46 35.1773L293.744 36.0725C287.503 39.6388 280.406 41.4298 273.22 41.2516L270.112 41.1111L267.153 40.6449C266.672 40.5635 266.184 40.497 265.71 40.4008L264.319 40.0308C263.402 39.7793 262.492 39.5647 261.634 39.291C258.572 38.2695 255.63 36.92 252.859 35.2661C248.183 32.4398 245.904 29.865 246.081 29.7022C246.259 29.5395 248.812 31.6407 253.525 34.0823C256.274 35.5146 259.146 36.6982 262.107 37.6189C262.943 37.863 263.816 38.048 264.697 38.2699L266.036 38.6029L267.427 38.8175L270.275 39.2318L273.235 39.3502C280.119 39.5048 286.937 37.9812 293.1 34.9109L294.839 34.1711C295.372 33.8973 295.853 33.6014 296.319 33.3424L298.731 31.9662C300.018 31.2634 300.795 30.96 300.876 31.034Z" fill="#EBEBEB"/>
<path d="M245.038 73.4662C244.957 73.3627 245.586 72.8152 246.799 71.9125L249.019 70.2996C249.463 69.9888 249.929 69.6485 250.447 69.323L252.171 68.4277C258.408 64.8603 265.504 63.0691 272.687 63.2486L275.795 63.3892L278.754 63.8553C279.243 63.9367 279.723 64.0033 280.197 64.0995L281.595 64.4694C282.505 64.721 283.415 64.9355 284.274 65.2093C287.312 66.2305 290.231 67.5749 292.982 69.2194C297.658 72.0457 299.937 74.6204 299.759 74.7832C299.582 74.946 297.029 72.8447 292.316 70.4032C289.57 68.9818 286.703 67.8081 283.748 66.8962C282.912 66.652 282.039 66.4671 281.159 66.2377L279.82 65.9121L278.48 65.7346L275.632 65.3203L272.672 65.1945C265.789 65.0407 258.971 66.5643 252.807 69.6337L251.068 70.3736C250.536 70.6473 250.055 70.9433 249.588 71.2022L247.206 72.5118C245.889 73.2369 245.112 73.5772 245.038 73.4662Z" fill="#EBEBEB"/>
<path d="M307.839 53.6462C307.839 54.1789 292.19 54.2307 272.917 53.7645C253.643 53.2984 238.061 52.4846 238.061 51.9518C238.061 51.4191 253.702 51.3747 272.983 51.8409C292.264 52.307 307.846 53.1578 307.839 53.6462Z" fill="#EBEBEB"/>
<path d="M271.355 86.8504C270.823 86.8504 270.771 71.2095 271.244 51.9507C271.718 32.6918 272.517 17.0731 273.05 17.0879C273.582 17.1027 273.627 32.7214 273.161 51.9951C272.695 71.2687 271.859 86.8652 271.355 86.8504Z" fill="#EBEBEB"/>
<path d="M271.355 86.7993C271.222 87.0065 267.375 84.3948 262.943 78.498C260.351 75.0279 258.253 71.2159 256.706 67.1705C254.819 62.1761 253.903 56.8676 254.005 51.5296C254.132 46.1866 255.33 40.9234 257.527 36.0515C259.289 32.0945 261.573 28.3917 264.319 25.0422C269.017 19.36 272.894 16.8444 273.027 17.0442C273.161 17.244 269.705 20.1221 265.392 25.8783C262.875 29.2289 260.771 32.8707 259.125 36.7248C257.122 41.4082 256.027 46.4299 255.899 51.5222C255.806 56.6274 256.633 61.7076 258.341 66.5194C259.763 70.4559 261.672 74.1991 264.023 77.6619C268.063 83.6623 271.526 86.5922 271.355 86.7993Z" fill="#EBEBEB"/>
<path d="M273.804 17.0966C273.938 16.8968 277.785 19.5012 282.224 25.4054C284.816 28.8752 286.915 32.6872 288.461 36.7328C290.345 41.7254 291.262 47.031 291.162 52.3663C291.029 57.7117 289.829 62.9768 287.633 67.8518C285.858 71.7969 283.564 75.4871 280.811 78.8241C276.113 84.5063 272.236 87.0219 272.11 86.8221C271.984 86.6224 275.432 83.7443 279.746 77.9881C282.26 74.6397 284.362 71.0004 286.005 67.1489C288.007 62.4646 289.104 57.4438 289.238 52.3515C289.329 47.2483 288.5 42.1705 286.789 37.3617C285.366 33.4231 283.458 29.6775 281.107 26.2118C277.075 20.241 273.612 17.3112 273.804 17.0966Z" fill="#EBEBEB"/>
<path d="M336.56 330.608C336.56 330.719 264.053 330.801 174.617 330.801C85.1814 330.801 12.6592 330.719 12.6592 330.608C12.6592 330.497 85.1666 330.416 174.617 330.416C264.068 330.416 336.56 330.483 336.56 330.608Z" fill="#263238"/>
<path d="M170.265 197.811H107.391C104.984 197.811 103.033 199.762 103.033 202.168V240.664C103.033 243.071 104.984 245.022 107.391 245.022H170.265C172.672 245.022 174.623 243.071 174.623 240.664V202.168C174.623 199.762 172.672 197.811 170.265 197.811Z" fill="white"/>
<path d="M170.272 245.03C170.272 245.03 170.472 245.03 170.864 244.963C171.437 244.884 171.986 244.685 172.477 244.379C173.282 243.888 173.907 243.151 174.26 242.278C174.712 241.242 174.519 239.917 174.556 238.467C174.556 232.637 174.519 224.21 174.49 213.807C174.49 211.203 174.49 208.48 174.49 205.669C174.49 204.929 174.49 204.241 174.49 203.516C174.524 202.794 174.494 202.071 174.401 201.355C174.253 200.643 173.922 199.981 173.441 199.435C172.96 198.888 172.344 198.477 171.656 198.24C170.937 198.024 170.185 197.944 169.436 198.004H152.183H107.398C106.445 198.004 105.52 198.331 104.779 198.93C104.037 199.529 103.523 200.364 103.321 201.296C103.24 201.765 103.208 202.241 103.225 202.717V218.52C103.225 226.008 103.225 233.236 103.225 240.117C103.159 240.949 103.312 241.783 103.669 242.537C104.032 243.266 104.601 243.872 105.304 244.283C106.002 244.688 106.8 244.885 107.605 244.852H119.562H136.579L161.239 244.912L167.942 244.949H161.239L136.579 245.008H119.562H107.591C106.723 245.037 105.865 244.824 105.112 244.394C104.349 243.948 103.732 243.29 103.336 242.5C102.958 241.697 102.792 240.81 102.855 239.925C102.855 233.044 102.855 225.816 102.855 218.328C102.855 214.574 102.855 210.764 102.855 206.897V202.524C102.837 202.029 102.872 201.533 102.959 201.045C103.179 200.03 103.739 199.12 104.547 198.466C105.354 197.813 106.36 197.454 107.398 197.449H152.183H162.237H169.436C170.225 197.391 171.018 197.479 171.774 197.708C172.517 197.962 173.181 198.405 173.7 198.995C174.219 199.584 174.575 200.298 174.734 201.067C174.829 201.803 174.859 202.545 174.823 203.286V205.439C174.823 208.281 174.823 211.003 174.823 213.578C174.823 223.981 174.778 232.408 174.763 238.238C174.763 238.978 174.763 239.651 174.763 240.302C174.772 240.915 174.659 241.524 174.431 242.093C174.061 242.983 173.412 243.728 172.581 244.216C172.078 244.52 171.515 244.71 170.931 244.771C170.721 244.879 170.5 244.966 170.272 245.03Z" fill="#263238"/>
<path d="M137.866 225.23H135.121V236.166H137.866V225.23Z" fill="#8778F7"/>
<path d="M114.923 223.648H112.178V236.167H114.923V223.648Z" fill="#8778F7"/>
<path d="M120.657 221.035H117.912V236.158H120.657V221.035Z" fill="#8778F7"/>
<path d="M126.391 221.865H123.646V236.16H126.391V221.865Z" fill="#8778F7"/>
<path d="M132.132 217.025H129.387V236.158H132.132V217.025Z" fill="#8778F7"/>
<path d="M143.6 217.121H140.855V236.158H143.6V217.121Z" fill="#8778F7"/>
<path d="M149.342 223.373H146.597V236.158H149.342V223.373Z" fill="#8778F7"/>
<path d="M155.075 217.959H152.331V236.16H155.075V217.959Z" fill="#8778F7"/>
<path d="M160.81 213.859H158.065V236.159H160.81V213.859Z" fill="#8778F7"/>
<path d="M166.551 217.869H163.806V236.166H166.551V217.869Z" fill="#8778F7"/>
<path d="M112.407 204.315C112.407 204.658 112.306 204.992 112.115 205.277C111.925 205.562 111.655 205.784 111.338 205.915C111.022 206.046 110.674 206.08 110.338 206.013C110.002 205.947 109.694 205.782 109.452 205.539C109.21 205.297 109.045 204.989 108.978 204.653C108.911 204.317 108.945 203.969 109.076 203.653C109.207 203.336 109.429 203.066 109.714 202.876C109.999 202.686 110.333 202.584 110.676 202.584C111.135 202.584 111.575 202.766 111.9 203.091C112.225 203.416 112.407 203.856 112.407 204.315Z" fill="#E0E0E0"/>
<path d="M116.905 204.315C116.905 204.658 116.804 204.993 116.613 205.278C116.423 205.563 116.152 205.785 115.835 205.916C115.518 206.046 115.17 206.08 114.834 206.013C114.498 205.945 114.189 205.78 113.947 205.537C113.706 205.294 113.541 204.985 113.475 204.648C113.409 204.312 113.445 203.964 113.577 203.648C113.709 203.331 113.932 203.062 114.218 202.872C114.503 202.683 114.839 202.583 115.182 202.584C115.409 202.584 115.633 202.629 115.843 202.716C116.053 202.803 116.243 202.931 116.403 203.092C116.563 203.252 116.69 203.443 116.776 203.653C116.863 203.863 116.906 204.088 116.905 204.315Z" fill="#E0E0E0"/>
<path d="M121.345 204.315C121.345 204.658 121.243 204.992 121.053 205.277C120.863 205.562 120.592 205.784 120.276 205.915C119.96 206.046 119.611 206.08 119.276 206.013C118.94 205.947 118.631 205.782 118.389 205.539C118.147 205.297 117.982 204.989 117.915 204.653C117.849 204.317 117.883 203.969 118.014 203.653C118.145 203.336 118.367 203.066 118.652 202.876C118.936 202.686 119.271 202.584 119.613 202.584C120.073 202.584 120.513 202.766 120.838 203.091C121.162 203.416 121.345 203.856 121.345 204.315Z" fill="#E0E0E0"/>
<path d="M68.9897 117H20.4097C16.9651 117 14.1726 119.792 14.1726 123.237V206.118C14.1726 209.562 16.9651 212.355 20.4097 212.355H68.9897C72.4344 212.355 75.2268 209.562 75.2268 206.118V123.237C75.2268 119.792 72.4344 117 68.9897 117Z" fill="white"/>
<path d="M68.9898 212.355H69.1896C69.3154 212.355 69.5151 212.355 69.7667 212.303C70.5202 212.198 71.2492 211.96 71.9197 211.601C73.0045 211 73.8894 210.095 74.4649 208.996C74.824 208.305 75.0499 207.552 75.1307 206.777C75.1899 205.941 75.1307 205.031 75.1307 204.076C75.1307 196.426 75.0938 185.365 75.0642 171.707C75.0346 158.049 75.0642 141.764 75.0272 123.696C75.0947 122.579 74.8544 121.465 74.3326 120.475C73.8108 119.485 73.0274 118.657 72.0677 118.081C70.1144 116.823 67.6284 117.341 65.3052 117.223H20.4098C19.1454 117.225 17.9135 117.623 16.8866 118.361C15.8597 119.098 15.0892 120.139 14.6832 121.336C14.3715 122.563 14.264 123.833 14.3651 125.095V128.912C14.3651 133.993 14.3651 138.994 14.3651 143.917C14.3651 153.75 14.3651 163.235 14.3651 172.269C14.3651 181.303 14.3651 189.893 14.3651 197.928V203.847C14.3651 204.809 14.3281 205.793 14.3651 206.71C14.4944 208.067 15.0748 209.342 16.0137 210.33C16.9525 211.319 18.1955 211.964 19.5442 212.163C20.4175 212.239 21.2945 212.264 22.1707 212.237H24.7677L57.1371 212.303L65.9341 212.34H68.2278H69.0046C69.0046 212.34 68.7383 212.34 68.2278 212.34H65.9341L57.1371 212.377L24.7677 212.437H22.1929C21.3044 212.46 20.4153 212.435 19.5294 212.363C18.1135 212.16 16.8069 211.488 15.8193 210.453C14.8317 209.418 14.2205 208.082 14.0839 206.658C14.0247 205.682 14.0839 204.742 14.0839 203.765C14.0839 201.827 14.0839 199.851 14.0839 197.846C14.0839 189.811 14.0839 181.229 14.0839 172.188C14.0839 163.146 14.0839 153.691 14.0839 143.836V123.119C14.0966 122.455 14.2114 121.796 14.4243 121.166C14.8496 119.894 15.6651 118.789 16.7549 118.007C17.8494 117.217 19.1638 116.79 20.5134 116.786H68.9528C70.1499 116.767 71.3288 117.08 72.3582 117.692C73.3876 118.303 74.227 119.188 74.783 120.249C75.05 120.771 75.2489 121.325 75.3749 121.899C75.4778 122.47 75.5224 123.05 75.5081 123.63C75.5081 141.697 75.5081 157.967 75.4637 171.64C75.4193 185.313 75.4193 196.359 75.4045 204.009C75.4045 204.964 75.4045 205.859 75.3601 206.717C75.2829 207.517 75.0491 208.294 74.672 209.004C74.076 210.111 73.1678 211.019 72.0603 211.615C71.3705 211.98 70.6169 212.209 69.8407 212.289C69.5592 212.333 69.2747 212.355 68.9898 212.355Z" fill="#263238"/>
<path d="M22.4002 127.048C23.434 127.048 24.2721 126.21 24.2721 125.177C24.2721 124.143 23.434 123.305 22.4002 123.305C21.3664 123.305 20.5283 124.143 20.5283 125.177C20.5283 126.21 21.3664 127.048 22.4002 127.048Z" fill="#E0E0E0"/>
<path d="M29.1034 125.177C29.1034 125.547 28.9936 125.909 28.7879 126.217C28.5822 126.524 28.2899 126.764 27.9478 126.906C27.6058 127.048 27.2294 127.085 26.8663 127.012C26.5032 126.94 26.1697 126.762 25.9079 126.5C25.6461 126.238 25.4678 125.905 25.3956 125.542C25.3234 125.179 25.3604 124.802 25.5021 124.46C25.6438 124.118 25.8837 123.826 26.1915 123.62C26.4994 123.414 26.8613 123.305 27.2315 123.305C27.7279 123.305 28.2041 123.502 28.5551 123.853C28.9061 124.204 29.1034 124.68 29.1034 125.177Z" fill="#E0E0E0"/>
<path d="M32.0628 127.048C33.0966 127.048 33.9347 126.21 33.9347 125.177C33.9347 124.143 33.0966 123.305 32.0628 123.305C31.029 123.305 30.1909 124.143 30.1909 125.177C30.1909 126.21 31.029 127.048 32.0628 127.048Z" fill="#E0E0E0"/>
<path d="M66.2966 135.001C66.2966 135.105 56.6265 135.193 44.6997 135.193C32.773 135.193 23.0955 135.105 23.0955 135.001C23.0955 134.897 32.7656 134.809 44.6997 134.809C56.6339 134.809 66.2966 134.89 66.2966 135.001Z" fill="#263238"/>
<path d="M66.2966 138.804C66.2966 138.907 56.6265 138.996 44.6997 138.996C32.773 138.996 23.0955 138.907 23.0955 138.804C23.0955 138.7 32.7656 138.611 44.6997 138.611C56.6339 138.611 66.2966 138.693 66.2966 138.804Z" fill="#263238"/>
<path d="M66.2966 142.608C66.2966 142.712 56.6265 142.801 44.6997 142.801C32.773 142.801 23.0955 142.712 23.0955 142.608C23.0955 142.505 32.7656 142.416 44.6997 142.416C56.6339 142.416 66.2966 142.497 66.2966 142.608Z" fill="#263238"/>
<path d="M66.2966 146.411C66.2966 146.514 56.6265 146.603 44.6997 146.603C32.773 146.603 23.0955 146.514 23.0955 146.411C23.0955 146.307 32.7656 146.211 44.6997 146.211C56.6339 146.211 66.2966 146.3 66.2966 146.411Z" fill="#263238"/>
<path d="M66.2966 150.206C66.2966 150.317 56.6265 150.398 44.6997 150.398C32.773 150.398 23.0955 150.317 23.0955 150.206C23.0955 150.095 32.7656 150.014 44.6997 150.014C56.6339 150.014 66.2966 150.102 66.2966 150.206Z" fill="#263238"/>
<path d="M66.2966 153.979C66.2966 154.09 56.6265 154.172 44.6997 154.172C32.773 154.172 23.0955 154.09 23.0955 153.979C23.0955 153.868 32.7656 153.787 44.6997 153.787C56.6339 153.787 66.2966 153.905 66.2966 153.979Z" fill="#263238"/>
<path d="M66.2966 183.108C66.2966 183.212 56.6265 183.301 44.6997 183.301C32.773 183.301 23.0955 183.212 23.0955 183.108C23.0955 183.005 32.7656 182.916 44.6997 182.916C56.6339 182.916 66.2966 182.997 66.2966 183.108Z" fill="#263238"/>
<path d="M66.2966 187.274C66.2966 187.378 56.6265 187.467 44.6997 187.467C32.773 187.467 23.0955 187.378 23.0955 187.274C23.0955 187.171 32.7656 187.082 44.6997 187.082C56.6339 187.082 66.2966 187.141 66.2966 187.274Z" fill="#263238"/>
<path d="M66.2966 191.388C66.2966 191.491 56.6265 191.58 44.6997 191.58C32.773 191.58 23.0955 191.491 23.0955 191.388C23.0955 191.284 32.7656 191.195 44.6997 191.195C56.6339 191.195 66.2966 191.277 66.2966 191.388Z" fill="#263238"/>
<path d="M66.2966 195.522C66.2966 195.626 56.6265 195.715 44.6997 195.715C32.773 195.715 23.0955 195.626 23.0955 195.522C23.0955 195.419 32.7656 195.33 44.6997 195.33C56.6339 195.33 66.2966 195.411 66.2966 195.522Z" fill="#263238"/>
<path d="M66.2966 199.659C66.2966 199.77 56.6265 199.859 44.6997 199.859C32.773 199.859 23.0955 199.77 23.0955 199.659C23.0955 199.548 32.7656 199.467 44.6997 199.467C56.6339 199.467 66.2966 199.556 66.2966 199.659Z" fill="#263238"/>
<path d="M67.4213 159.513H64.0549H54.7621H23.1843L23.2583 159.461C23.2583 161.94 23.2583 164.515 23.2583 167.148C23.2583 169.782 23.2583 172.513 23.2583 175.072L23.1843 175.013H23.1104V174.962C23.1104 172.402 23.1104 169.782 23.1104 167.037C23.1104 164.293 23.1104 161.858 23.1104 159.35V159.291H23.1843H54.7621H64.0549H67.4213V159.513Z" fill="#E0E0E0"/>
<path d="M67.4213 162.118C67.4213 162.118 57.5144 162.177 45.2991 162.177C33.0838 162.177 23.1843 162.177 23.1843 162.118C23.1843 162.059 33.0838 162.059 45.2991 162.059C57.5144 162.059 67.4213 162.118 67.4213 162.118Z" fill="#E0E0E0"/>
<path d="M67.4213 164.294C67.4213 164.294 57.5144 164.345 45.2991 164.345C33.0838 164.345 23.1843 164.345 23.1843 164.294C23.1843 164.242 33.0838 164.234 45.2991 164.234C57.5144 164.234 67.4213 164.257 67.4213 164.294Z" fill="#E0E0E0"/>
<path d="M67.4213 166.439C67.4213 166.439 57.5144 166.498 45.2991 166.498C33.0838 166.498 23.1843 166.498 23.1843 166.439C23.1843 166.38 33.0838 166.387 45.2991 166.387C57.5144 166.387 67.4213 166.409 67.4213 166.439Z" fill="#E0E0E0"/>
<path d="M67.4213 168.592C67.4213 168.592 57.5144 168.644 45.2991 168.644C33.0838 168.644 23.1843 168.644 23.1843 168.592C23.1843 168.541 33.0838 168.533 45.2991 168.533C57.5144 168.533 67.4213 168.563 67.4213 168.592Z" fill="#E0E0E0"/>
<path d="M67.4213 170.738C67.4213 170.738 57.5144 170.797 45.2991 170.797C33.0838 170.797 23.1843 170.797 23.1843 170.738C23.1843 170.678 33.0838 170.686 45.2991 170.686C57.5144 170.686 67.4213 170.708 67.4213 170.738Z" fill="#E0E0E0"/>
<path d="M23.1843 172.891C23.1843 172.891 33.0838 172.832 45.2991 172.832C57.5144 172.832 67.4213 172.832 67.4213 172.891C67.4213 172.95 57.5144 172.95 45.2991 172.95C33.0838 172.95 23.1843 172.921 23.1843 172.891Z" fill="#E0E0E0"/>
<path d="M29.451 175.362C29.451 175.362 29.3992 171.81 29.3992 167.438C29.3992 163.065 29.3992 159.514 29.451 159.514C29.5028 159.514 29.5102 163.058 29.5102 167.438C29.5102 171.818 29.488 175.362 29.451 175.362Z" fill="#E0E0E0"/>
<path d="M35.8213 175.362C35.8213 175.362 35.7695 171.81 35.7695 167.438C35.7695 163.065 35.7695 159.514 35.8213 159.514C35.8731 159.514 35.8805 163.058 35.8805 167.438C35.8805 171.818 35.8583 175.362 35.8213 175.362Z" fill="#E0E0E0"/>
<path d="M42.1695 175.362C42.1325 175.362 42.1104 171.81 42.1104 167.438C42.1104 163.065 42.1103 159.514 42.1695 159.514C42.2287 159.514 42.2213 163.058 42.2213 167.438C42.2213 171.818 42.2287 175.362 42.1695 175.362Z" fill="#E0E0E0"/>
<path d="M48.5694 175.362C48.5694 175.362 48.5103 171.81 48.5103 167.438C48.5103 163.065 48.5102 159.514 48.5694 159.514C48.6286 159.514 48.6212 163.058 48.6212 167.438C48.6212 171.818 48.599 175.362 48.5694 175.362Z" fill="#E0E0E0"/>
<path d="M54.9396 175.362C54.9026 175.362 54.8804 171.81 54.8804 167.438C54.8804 163.065 54.8804 159.514 54.9396 159.514C54.9988 159.514 54.9913 163.058 54.9913 167.438C54.9913 171.818 54.9692 175.362 54.9396 175.362Z" fill="#E0E0E0"/>
<path d="M61.1029 175.362C61.1029 175.362 61.0437 171.81 61.0437 167.438C61.0437 163.065 61.0437 159.514 61.1029 159.514C61.1621 159.514 61.1621 163.058 61.1621 167.438C61.1621 171.818 61.1325 175.362 61.1029 175.362Z" fill="#E0E0E0"/>
<path d="M67.4732 175.362C67.4732 175.362 67.4214 171.81 67.4214 167.438C67.4214 163.065 67.4214 159.514 67.4732 159.514C67.525 159.514 67.5324 163.058 67.5324 167.438C67.5324 171.818 67.5028 175.362 67.4732 175.362Z" fill="#E0E0E0"/>
<path d="M29.8432 172.891C29.8432 172.943 29.833 172.993 29.8132 173.04C29.7934 173.088 29.7644 173.13 29.7279 173.166C29.6914 173.202 29.6481 173.23 29.6006 173.249C29.553 173.268 29.5022 173.277 29.4511 173.276C29.3938 173.293 29.3336 173.295 29.275 173.284C29.2165 173.274 29.1613 173.249 29.1137 173.213C29.0662 173.177 29.0276 173.131 29.0011 173.078C28.9745 173.024 28.9607 172.966 28.9607 172.906C28.9607 172.847 28.9745 172.788 29.0011 172.735C29.0276 172.681 29.0662 172.635 29.1137 172.599C29.1613 172.563 29.2165 172.539 29.275 172.528C29.3336 172.517 29.3938 172.52 29.4511 172.536C29.5495 172.534 29.6449 172.57 29.7179 172.636C29.7908 172.702 29.8357 172.793 29.8432 172.891Z" fill="#8778F7"/>
<path d="M35.8213 168.977C36.0338 168.977 36.206 168.804 36.206 168.592C36.206 168.379 36.0338 168.207 35.8213 168.207C35.6088 168.207 35.4365 168.379 35.4365 168.592C35.4365 168.804 35.6088 168.977 35.8213 168.977Z" fill="#8778F7"/>
<path d="M42.5838 170.7C42.5915 170.755 42.5872 170.812 42.5712 170.865C42.5552 170.919 42.5278 170.969 42.491 171.011C42.4542 171.053 42.4088 171.087 42.3578 171.11C42.3068 171.134 42.2514 171.146 42.1954 171.146C42.1393 171.146 42.0839 171.134 42.0329 171.11C41.9819 171.087 41.9365 171.053 41.8997 171.011C41.8629 170.969 41.8355 170.919 41.8195 170.865C41.8035 170.812 41.7992 170.755 41.8069 170.7C41.8199 170.606 41.8664 170.52 41.9378 170.458C42.0092 170.396 42.1007 170.361 42.1954 170.361C42.29 170.361 42.3815 170.396 42.4529 170.458C42.5243 170.52 42.5708 170.606 42.5838 170.7Z" fill="#8778F7"/>
<path d="M48.9172 166.173C48.9927 166.248 49.0352 166.351 49.0352 166.458C49.0352 166.564 48.9927 166.667 48.9172 166.742C48.8416 166.818 48.7392 166.86 48.6323 166.86C48.5255 166.86 48.423 166.818 48.3475 166.742C48.2719 166.667 48.2295 166.564 48.2295 166.458C48.2295 166.351 48.2719 166.248 48.3475 166.173C48.423 166.097 48.5255 166.055 48.6323 166.055C48.7392 166.055 48.8416 166.097 48.9172 166.173Z" fill="#8778F7"/>
<path d="M55.3613 166.173C55.4368 166.248 55.4793 166.351 55.4793 166.458C55.4793 166.564 55.4368 166.667 55.3613 166.742C55.2857 166.818 55.1833 166.86 55.0764 166.86C54.9696 166.86 54.8671 166.818 54.7916 166.742C54.716 166.667 54.6736 166.564 54.6736 166.458C54.6736 166.351 54.716 166.248 54.7916 166.173C54.8671 166.097 54.9696 166.055 55.0764 166.055C55.1833 166.055 55.2857 166.097 55.3613 166.173Z" fill="#8778F7"/>
<path d="M61.4062 170.397C61.4818 170.471 61.5246 170.573 61.5253 170.679C61.526 170.785 61.4845 170.887 61.4099 170.963C61.3354 171.038 61.2338 171.081 61.1277 171.082C61.0215 171.082 60.9195 171.041 60.8439 170.966C60.7684 170.892 60.7256 170.79 60.7249 170.684C60.7242 170.578 60.7657 170.476 60.8402 170.4C60.9148 170.325 61.0163 170.282 61.1225 170.281C61.2286 170.281 61.3307 170.322 61.4062 170.397Z" fill="#8778F7"/>
<path d="M36.2505 164.294C36.2376 164.387 36.1911 164.473 36.1197 164.535C36.0483 164.598 35.9568 164.632 35.8621 164.632C35.7674 164.632 35.6759 164.598 35.6045 164.535C35.5331 164.473 35.4866 164.387 35.4737 164.294C35.466 164.238 35.4703 164.182 35.4863 164.128C35.5023 164.074 35.5296 164.024 35.5664 163.982C35.6032 163.94 35.6487 163.906 35.6997 163.883C35.7507 163.86 35.8061 163.848 35.8621 163.848C35.9181 163.848 35.9735 163.86 36.0245 163.883C36.0755 163.906 36.121 163.94 36.1578 163.982C36.1946 164.024 36.2219 164.074 36.2379 164.128C36.2539 164.182 36.2582 164.238 36.2505 164.294Z" fill="#455A64"/>
<path d="M29.8431 170.738C29.8431 170.842 29.8018 170.942 29.7282 171.016C29.6547 171.089 29.555 171.13 29.451 171.13C29.3998 171.13 29.3492 171.12 29.302 171.1C29.2548 171.081 29.2121 171.052 29.1763 171.015C29.1404 170.979 29.1122 170.935 29.0934 170.888C29.0745 170.84 29.0652 170.789 29.0662 170.738C29.0662 170.688 29.0762 170.638 29.0955 170.591C29.1149 170.544 29.1432 170.502 29.1789 170.466C29.2146 170.431 29.257 170.402 29.3037 170.383C29.3504 170.364 29.4004 170.354 29.451 170.354C29.5021 170.353 29.5529 170.362 29.6005 170.381C29.648 170.4 29.6913 170.428 29.7278 170.464C29.7643 170.499 29.7933 170.542 29.8131 170.589C29.8329 170.637 29.8431 170.687 29.8431 170.738Z" fill="#455A64"/>
<path d="M61.406 172.609C61.4806 172.685 61.5221 172.787 61.5214 172.893C61.5207 172.999 61.4779 173.101 61.4023 173.175C61.3268 173.25 61.2247 173.291 61.1186 173.291C61.0124 173.29 60.9109 173.247 60.8363 173.172C60.7618 173.096 60.7203 172.994 60.721 172.888C60.7216 172.782 60.7645 172.68 60.84 172.606C60.9156 172.531 61.0176 172.49 61.1238 172.49C61.2299 172.491 61.3315 172.534 61.406 172.609Z" fill="#455A64"/>
<path d="M55.3245 168.591C55.3245 168.693 55.2839 168.791 55.2118 168.863C55.1396 168.936 55.0418 168.976 54.9397 168.976C54.8886 168.977 54.8378 168.968 54.7902 168.949C54.7427 168.93 54.6994 168.902 54.6629 168.866C54.6264 168.83 54.5974 168.787 54.5776 168.74C54.5578 168.693 54.5476 168.643 54.5476 168.591C54.5476 168.487 54.5889 168.388 54.6624 168.314C54.736 168.241 54.8357 168.199 54.9397 168.199C54.9909 168.199 55.0415 168.209 55.0887 168.229C55.1359 168.249 55.1786 168.278 55.2144 168.315C55.2503 168.351 55.2784 168.394 55.2973 168.442C55.3162 168.489 55.3254 168.54 55.3245 168.591Z" fill="#455A64"/>
<path d="M49.0206 168.533C49.0206 168.637 48.9793 168.737 48.9057 168.811C48.8322 168.884 48.7325 168.925 48.6285 168.925C48.5773 168.925 48.5267 168.915 48.4795 168.895C48.4323 168.876 48.3896 168.847 48.3538 168.81C48.3179 168.774 48.2898 168.73 48.2709 168.683C48.252 168.635 48.2427 168.584 48.2437 168.533C48.2437 168.431 48.2843 168.333 48.3564 168.261C48.4286 168.189 48.5264 168.149 48.6285 168.149C48.6796 168.148 48.7304 168.157 48.778 168.176C48.8255 168.195 48.8688 168.223 48.9053 168.259C48.9418 168.294 48.9708 168.337 48.9906 168.384C49.0104 168.431 49.0206 168.482 49.0206 168.533Z" fill="#455A64"/>
<path d="M26.7948 176.915C26.3892 176.993 25.9723 176.993 25.5667 176.915C25.9723 176.836 26.3892 176.836 26.7948 176.915Z" fill="#E0E0E0"/>
<path d="M33.2909 176.915C32.8853 176.993 32.4683 176.993 32.0627 176.915C32.4683 176.836 32.8853 176.836 33.2909 176.915Z" fill="#E0E0E0"/>
<path d="M39.8166 176.915C39.411 176.993 38.994 176.993 38.5884 176.915C38.994 176.836 39.411 176.836 39.8166 176.915Z" fill="#E0E0E0"/>
<path d="M46.3276 176.915C45.922 176.993 45.505 176.993 45.0994 176.915C45.505 176.836 45.922 176.836 46.3276 176.915Z" fill="#E0E0E0"/>
<path d="M52.8385 176.915C52.4329 176.993 52.016 176.993 51.6104 176.915C52.016 176.836 52.4329 176.836 52.8385 176.915Z" fill="#E0E0E0"/>
<path d="M58.6613 176.915C58.2557 176.993 57.8387 176.993 57.4331 176.915C57.8387 176.836 58.2557 176.836 58.6613 176.915Z" fill="#E0E0E0"/>
<path d="M64.484 176.915C64.0784 176.993 63.6615 176.993 63.2559 176.915C63.6615 176.836 64.0784 176.836 64.484 176.915Z" fill="#E0E0E0"/>
<path d="M22.2668 175.036C21.94 175.105 21.6023 175.105 21.2754 175.036C21.6012 174.957 21.941 174.957 22.2668 175.036Z" fill="#E0E0E0"/>
<path d="M22.2668 172.536C21.94 172.605 21.6023 172.605 21.2754 172.536C21.6012 172.457 21.941 172.457 22.2668 172.536Z" fill="#E0E0E0"/>
<path d="M22.2668 170.034C21.94 170.103 21.6023 170.103 21.2754 170.034C21.6012 169.955 21.941 169.955 22.2668 170.034Z" fill="#E0E0E0"/>
<path d="M22.2668 167.534C21.94 167.603 21.6023 167.603 21.2754 167.534C21.6012 167.455 21.941 167.455 22.2668 167.534Z" fill="#E0E0E0"/>
<path d="M22.2668 165.034C21.94 165.103 21.6023 165.103 21.2754 165.034C21.6012 164.955 21.941 164.955 22.2668 165.034Z" fill="#E0E0E0"/>
<path d="M22.2668 162.532C21.94 162.601 21.6023 162.601 21.2754 162.532C21.6012 162.453 21.941 162.453 22.2668 162.532Z" fill="#E0E0E0"/>
<path d="M22.2668 160.032C21.94 160.101 21.6023 160.101 21.2754 160.032C21.6012 159.953 21.941 159.953 22.2668 160.032Z" fill="#E0E0E0"/>
<path d="M23.1401 175.222L23.0735 175.022L29.4068 172.795L35.8067 168.474L42.177 170.583L48.5991 166.351L55.0286 166.336L55.0582 166.351L61.1621 170.672L67.0811 166.758L67.1994 166.935L61.1621 170.931L61.0955 170.886L54.962 166.551L48.6657 166.565L42.214 170.82L35.8437 168.711L29.4882 172.995L23.1401 175.222Z" fill="#8778F7"/>
<path d="M61.199 172.935L54.9618 168.696H48.5324L42.1029 164.456L35.8657 164.397L29.4954 170.849H23.1843V170.634H29.4067L35.7843 164.182L42.1694 164.242L48.5989 168.481H55.0284L61.125 172.632L67.2141 161.926L67.3991 162.029L61.199 172.935Z" fill="#455A64"/>
<path d="M93.1722 40.1719H249.159C250.878 40.1719 252.527 40.8547 253.742 42.0702C254.958 43.2857 255.641 44.9342 255.641 46.6532V173.756C255.641 176.224 254.66 178.592 252.915 180.337C251.169 182.083 248.802 183.063 246.333 183.063H96.6718C94.2033 183.063 91.8359 182.083 90.0904 180.337C88.3449 178.592 87.3643 176.224 87.3643 173.756V45.9799C87.3643 44.4395 87.9762 42.9622 89.0654 41.873C90.1546 40.7838 91.6319 40.1719 93.1722 40.1719Z" fill="white"/>
<path d="M91.9441 40.1719H250.151C251.544 40.1719 252.88 40.7253 253.865 41.7105C254.851 42.6956 255.404 44.0318 255.404 45.425V57.3739H87.3643V44.7517C87.3643 43.537 87.8468 42.3721 88.7056 41.5133C89.5645 40.6544 90.7294 40.1719 91.9441 40.1719Z" fill="#E0E0E0"/>
<path d="M255.404 57.374C255.404 57.4776 217.84 57.5664 171.51 57.5664C125.179 57.5664 87.6008 57.4776 87.6008 57.374C87.6008 57.2704 125.157 57.1816 171.51 57.1816C217.863 57.1816 255.404 57.263 255.404 57.374Z" fill="#263238"/>
<path d="M96.546 49.1474C96.546 49.462 96.4527 49.7695 96.2779 50.0311C96.1031 50.2927 95.8546 50.4966 95.564 50.617C95.2733 50.7374 94.9535 50.7689 94.6449 50.7075C94.3363 50.6462 94.0529 50.4947 93.8304 50.2722C93.6079 50.0497 93.4564 49.7663 93.3951 49.4577C93.3337 49.1491 93.3652 48.8293 93.4856 48.5386C93.606 48.248 93.8099 47.9995 94.0715 47.8247C94.3331 47.65 94.6406 47.5567 94.9552 47.5567C95.1644 47.5557 95.3717 47.5962 95.5651 47.6758C95.7586 47.7553 95.9343 47.8725 96.0822 48.0204C96.2301 48.1683 96.3473 48.344 96.4269 48.5375C96.5065 48.7309 96.5469 48.9382 96.546 49.1474Z" fill="#263238"/>
<path d="M101.607 49.1474C101.607 49.4623 101.513 49.7702 101.338 50.0319C101.163 50.2937 100.914 50.4975 100.623 50.6177C100.332 50.7379 100.012 50.769 99.703 50.707C99.3942 50.645 99.1108 50.4928 98.8886 50.2696C98.6664 50.0463 98.5155 49.7622 98.455 49.4532C98.3944 49.1441 98.427 48.824 98.5485 48.5335C98.6701 48.243 98.8751 47.995 99.1377 47.8211C99.4002 47.6472 99.7085 47.5552 100.023 47.5567C100.232 47.5567 100.438 47.5979 100.631 47.6779C100.824 47.7579 100.999 47.8752 101.146 48.023C101.293 48.1708 101.409 48.3462 101.488 48.5392C101.567 48.7322 101.608 48.9388 101.607 49.1474Z" fill="#263238"/>
<path d="M106.771 49.1474C106.771 49.462 106.678 49.7695 106.503 50.0311C106.328 50.2927 106.08 50.4966 105.789 50.617C105.498 50.7374 105.179 50.7689 104.87 50.7075C104.561 50.6462 104.278 50.4947 104.056 50.2722C103.833 50.0497 103.682 49.7663 103.62 49.4577C103.559 49.1491 103.59 48.8293 103.711 48.5386C103.831 48.248 104.035 47.9995 104.297 47.8247C104.558 47.65 104.866 47.5567 105.18 47.5567C105.389 47.5557 105.597 47.5962 105.79 47.6758C105.984 47.7553 106.159 47.8725 106.307 48.0204C106.455 48.1683 106.572 48.344 106.652 48.5375C106.732 48.7309 106.772 48.9382 106.771 49.1474Z" fill="#263238"/>
<path d="M199.396 70.1748C199.396 70.2784 187.262 70.3672 172.294 70.3672C157.327 70.3672 145.193 70.2784 145.193 70.1748C145.193 70.0712 157.327 69.9824 172.294 69.9824C187.262 69.9824 199.396 70.0934 199.396 70.1748Z" fill="#263238"/>
<path d="M174.277 81.6279C174.277 81.7389 159.753 81.8203 141.848 81.8203C123.943 81.8203 109.42 81.7389 109.42 81.6279C109.42 81.5169 123.936 81.4355 141.848 81.4355C159.761 81.4355 174.277 81.5243 174.277 81.6279Z" fill="#263238"/>
<path d="M174.277 87.7607C174.277 87.8717 159.753 87.9531 141.848 87.9531C123.943 87.9531 109.42 87.8717 109.42 87.7607C109.42 87.6497 123.936 87.5684 141.848 87.5684C159.761 87.5684 174.277 87.6571 174.277 87.7607Z" fill="#263238"/>
<path d="M174.277 93.8955C174.277 94.0065 159.753 94.0953 141.848 94.0953C123.943 94.0953 109.42 94.0065 109.42 93.8955C109.42 93.7845 123.936 93.7031 141.848 93.7031C159.761 93.7031 174.277 93.7919 174.277 93.8955Z" fill="#263238"/>
<path d="M174.277 100.036C174.277 100.139 159.753 100.228 141.848 100.228C123.943 100.228 109.42 100.139 109.42 100.036C109.42 99.9321 123.936 99.8359 141.848 99.8359C159.761 99.8359 174.277 99.9247 174.277 100.036Z" fill="#263238"/>
<path d="M174.277 106.169C174.277 106.272 159.753 106.361 141.848 106.361C123.943 106.361 109.42 106.272 109.42 106.169C109.42 106.065 123.936 105.969 141.848 105.969C159.761 105.969 174.277 106.058 174.277 106.169Z" fill="#263238"/>
<path d="M174.277 123.208C174.277 123.319 159.753 123.4 141.848 123.4C123.943 123.4 109.42 123.319 109.42 123.208C109.42 123.097 123.936 123.016 141.848 123.016C159.761 123.016 174.277 123.104 174.277 123.208Z" fill="#263238"/>
<path d="M174.277 117.03C174.277 117.141 159.753 117.223 141.848 117.223C123.943 117.223 109.42 117.141 109.42 117.03C109.42 116.919 123.936 116.838 141.848 116.838C159.761 116.838 174.277 116.927 174.277 117.03Z" fill="#263238"/>
<path d="M215.769 80.377C212.303 80.3755 208.915 81.402 206.033 83.3266C203.15 85.2511 200.903 87.9873 199.577 91.189C198.25 94.3907 197.902 97.914 198.578 101.313C199.254 104.713 200.922 107.835 203.373 110.286C205.824 112.736 208.946 114.405 212.345 115.081C215.745 115.757 219.268 115.409 222.47 114.082C225.671 112.755 228.408 110.508 230.332 107.626C232.257 104.744 233.283 101.356 233.282 97.8897C233.28 93.2457 231.434 88.7923 228.15 85.5085C224.866 82.2246 220.413 80.3789 215.769 80.377ZM216.035 108.389C213.906 108.39 211.824 107.76 210.053 106.578C208.281 105.396 206.9 103.715 206.084 101.748C205.268 99.7812 205.054 97.6165 205.469 95.5277C205.883 93.439 206.908 91.5202 208.413 90.0139C209.918 88.5076 211.837 87.4816 213.925 87.0656C216.014 86.6496 218.178 86.8624 220.146 87.677C222.113 88.4915 223.795 89.8713 224.978 91.6418C226.162 93.4123 226.793 95.4939 226.793 97.6234C226.794 99.0361 226.517 100.435 225.977 101.741C225.437 103.046 224.646 104.233 223.647 105.232C222.649 106.232 221.464 107.025 220.159 107.567C218.854 108.108 217.456 108.388 216.043 108.389H216.035Z" fill="#00A16B"/>
<path d="M205.27 97.6238C205.27 95.5449 205.873 93.5106 207.005 91.7668C208.136 90.0231 209.749 88.6447 211.648 87.7982L208.955 81.7461C205.788 83.0926 203.088 85.3415 201.191 88.2123C199.293 91.0832 198.283 94.449 198.286 97.8901C198.286 98.1318 198.286 98.3784 198.286 98.63H205.337C205.292 98.2896 205.27 97.9641 205.27 97.6238Z" fill="#E0E0E0"/>
<path d="M230.263 119.828C230.263 119.917 223.774 119.991 215.769 119.991C207.764 119.991 201.275 119.917 201.275 119.828C201.275 119.74 207.764 119.658 215.769 119.658C223.774 119.658 230.263 119.747 230.263 119.828Z" fill="#263238"/>
<path d="M223.804 122.49C223.804 122.579 220.208 122.653 215.769 122.653C211.33 122.653 207.727 122.579 207.727 122.49C207.727 122.402 211.33 122.32 215.769 122.32C220.208 122.32 223.804 122.394 223.804 122.49Z" fill="#263238"/>
<path d="M214.504 95.3301V96.07L213.083 99.392H211.84L213.202 96.2623H212.136V96.8838H211.16V95.3301H214.504Z" fill="#263238"/>
<path d="M217.944 98.0969C217.944 98.8368 217.404 99.4731 216.183 99.4731C215.637 99.485 215.098 99.3495 214.622 99.0809L215.029 98.2153C215.36 98.4351 215.749 98.5534 216.146 98.5556C216.538 98.5556 216.797 98.4003 216.797 98.1265C216.797 97.8527 216.627 97.7196 216.013 97.7196H214.918L215.118 95.3594H217.685V96.2398H216.043L215.991 96.8317H216.257C217.478 96.8095 217.944 97.3792 217.944 98.0969Z" fill="#263238"/>
<path d="M218.144 96.4248C218.16 96.2238 218.234 96.0319 218.357 95.8724C218.481 95.713 218.648 95.593 218.838 95.5272C219.029 95.4613 219.234 95.4525 219.43 95.5018C219.625 95.5511 219.802 95.6564 219.939 95.8047C220.075 95.953 220.166 96.1379 220.198 96.3367C220.231 96.5356 220.206 96.7398 220.124 96.9242C220.043 97.1086 219.91 97.2653 219.741 97.3751C219.571 97.4848 219.374 97.5428 219.172 97.542C219.029 97.5449 218.886 97.5172 218.754 97.4608C218.622 97.4045 218.504 97.3207 218.407 97.2151C218.309 97.1094 218.236 96.9844 218.19 96.8481C218.145 96.7119 218.129 96.5676 218.144 96.4248ZM221.562 95.3594H222.391L219.631 99.3917H218.802L221.562 95.3594ZM219.513 96.4248C219.513 96.0179 219.372 95.8551 219.172 95.8551C218.973 95.8551 218.832 96.0179 218.832 96.4248C218.832 96.8317 218.987 96.9945 219.172 96.9945C219.357 96.9945 219.513 96.8095 219.513 96.4248ZM220.993 98.3263C221.008 98.1253 221.082 97.9333 221.206 97.7739C221.329 97.6145 221.496 97.4945 221.687 97.4286C221.877 97.3628 222.083 97.354 222.278 97.4033C222.474 97.4526 222.651 97.5578 222.787 97.7061C222.924 97.8544 223.014 98.0394 223.047 98.2382C223.08 98.4371 223.054 98.6412 222.973 98.8257C222.892 99.0101 222.758 99.1668 222.589 99.2765C222.42 99.3863 222.222 99.4443 222.021 99.4435C221.877 99.4463 221.735 99.4186 221.603 99.3623C221.471 99.3059 221.352 99.2222 221.255 99.1165C221.158 99.0109 221.084 98.8859 221.039 98.7496C220.994 98.6134 220.978 98.4691 220.993 98.3263ZM222.361 98.3263C222.361 97.9193 222.213 97.7566 222.021 97.7566C221.829 97.7566 221.681 97.9193 221.681 98.3263C221.681 98.7332 221.829 98.896 222.021 98.896C222.213 98.896 222.361 98.7406 222.361 98.3263Z" fill="#263238"/>
<path d="M121.398 158.686H116.397V170.205H121.398V158.686Z" fill="#EBEBEB"/>
<path d="M138.364 158.686H133.362V170.205H138.364V158.686Z" fill="#EBEBEB"/>
<path d="M129.885 148.193H124.883V170.205H129.885V148.193Z" fill="#F5F5F5"/>
<path d="M146.85 148.193H141.848V170.205H146.85V148.193Z" fill="#F5F5F5"/>
<path d="M155.329 148.822H150.327V170.205H155.329V148.822Z" fill="#EBEBEB"/>
<path d="M172.294 148.822H167.292V170.205H172.294V148.822Z" fill="#EBEBEB"/>
<path d="M189.259 148.822H184.258V170.205H189.259V148.822Z" fill="#EBEBEB"/>
<path d="M163.815 137.607H158.813V170.214H163.815V137.607Z" fill="#F5F5F5"/>
<path d="M180.78 140.795H175.779V170.205H180.78V140.795Z" fill="#F5F5F5"/>
<path d="M214.319 148.822H209.317V170.205H214.319V148.822Z" fill="#EBEBEB"/>
<path d="M205.84 152.93H200.838V170.206H205.84V152.93Z" fill="#F5F5F5"/>
<path d="M232.061 137.414H227.059V170.205H232.061V137.414Z" fill="#EBEBEB"/>
<path d="M223.582 152.93H218.581V170.206H223.582V152.93Z" fill="#F5F5F5"/>
<path d="M240.555 152.93H235.553V170.206H240.555V152.93Z" fill="#F5F5F5"/>
<path d="M197.746 145.301H192.744V170.205H197.746V145.301Z" fill="#EBEBEB"/>
<path d="M160.9 138.893C161.611 138.893 162.188 138.317 162.188 137.606C162.188 136.895 161.611 136.318 160.9 136.318C160.189 136.318 159.613 136.895 159.613 137.606C159.613 138.317 160.189 138.893 160.9 138.893Z" fill="#00A16B"/>
<path d="M160.9 139.938C160.437 139.938 159.985 139.8 159.6 139.543C159.216 139.286 158.916 138.92 158.739 138.493C158.563 138.065 158.517 137.595 158.607 137.141C158.698 136.687 158.922 136.271 159.249 135.944C159.577 135.617 159.994 135.395 160.448 135.306C160.902 135.216 161.373 135.264 161.8 135.442C162.227 135.62 162.592 135.921 162.848 136.306C163.104 136.692 163.239 137.144 163.238 137.607C163.236 138.226 162.989 138.819 162.551 139.256C162.112 139.692 161.519 139.938 160.9 139.938ZM160.9 135.454C160.474 135.453 160.057 135.578 159.702 135.813C159.347 136.049 159.07 136.385 158.906 136.778C158.742 137.171 158.698 137.604 158.78 138.023C158.862 138.441 159.067 138.825 159.368 139.127C159.668 139.429 160.052 139.635 160.47 139.718C160.888 139.802 161.321 139.76 161.715 139.597C162.109 139.434 162.445 139.158 162.682 138.804C162.919 138.45 163.046 138.033 163.046 137.607C163.046 137.037 162.82 136.491 162.418 136.087C162.015 135.684 161.47 135.456 160.9 135.454Z" fill="#00A16B"/>
<path d="M161.929 134.322L161.862 131.791L162.491 131.806L161.314 130.363L160.131 131.813L160.782 131.821L160.848 134.322H161.929Z" fill="#EBEBEB"/>
<path d="M120.318 153.418C120.318 153.673 120.243 153.922 120.101 154.133C119.96 154.345 119.759 154.51 119.523 154.608C119.288 154.705 119.029 154.731 118.78 154.681C118.53 154.631 118.301 154.509 118.12 154.329C117.94 154.149 117.818 153.919 117.768 153.669C117.718 153.42 117.744 153.161 117.841 152.926C117.939 152.69 118.104 152.489 118.316 152.348C118.527 152.206 118.776 152.131 119.031 152.131C119.372 152.131 119.7 152.266 119.941 152.508C120.183 152.749 120.318 153.077 120.318 153.418Z" fill="#00A16B"/>
<path d="M119.031 155.801C118.568 155.801 118.116 155.664 117.731 155.406C117.346 155.149 117.047 154.784 116.87 154.356C116.693 153.928 116.647 153.458 116.738 153.004C116.829 152.55 117.052 152.134 117.38 151.807C117.708 151.48 118.125 151.258 118.579 151.169C119.033 151.08 119.503 151.127 119.93 151.305C120.358 151.483 120.722 151.784 120.978 152.169C121.234 152.555 121.37 153.008 121.369 153.47C121.369 153.777 121.308 154.081 121.191 154.364C121.073 154.647 120.901 154.904 120.683 155.121C120.466 155.338 120.208 155.509 119.925 155.626C119.641 155.742 119.337 155.802 119.031 155.801ZM119.031 151.317C118.605 151.317 118.189 151.444 117.834 151.68C117.48 151.917 117.204 152.253 117.041 152.646C116.879 153.04 116.836 153.473 116.919 153.89C117.002 154.308 117.207 154.692 117.508 154.993C117.809 155.294 118.193 155.499 118.611 155.582C119.028 155.665 119.461 155.622 119.855 155.46C120.248 155.297 120.584 155.021 120.821 154.667C121.057 154.312 121.184 153.896 121.184 153.47C121.185 153.187 121.13 152.907 121.022 152.645C120.914 152.384 120.755 152.146 120.555 151.946C120.355 151.746 120.117 151.587 119.856 151.479C119.594 151.371 119.314 151.316 119.031 151.317Z" fill="#00A16B"/>
<path d="M118.261 145.441L118.328 148.075L117.669 148.068L118.898 149.562L120.126 148.053L119.445 148.046L119.379 145.449L118.261 145.441Z" fill="#EBEBEB"/>
<path d="M186.307 139.938L186.374 142.571L185.715 142.564L186.944 144.059L188.172 142.549L187.491 142.542L187.424 139.945L186.307 139.938Z" fill="#EBEBEB"/>
<path d="M201.793 163.258L186.736 149.133C177.192 144.524 162.461 137.739 160.745 137.828C158.821 137.947 122.271 152.344 108.384 157.886L108.11 157.198C110.16 156.384 158.259 137.221 160.7 137.096H160.752C163.423 137.096 184.672 147.328 187.106 148.497L187.195 148.564L201.911 162.362C204.708 160.883 220.711 152.441 220.985 152.322C221.081 152.278 221.333 152.174 243.344 152.174V152.914C234.895 152.914 222.206 152.914 221.244 153.018C220.408 153.439 208.4 159.773 202.007 163.139L201.793 163.258Z" fill="#00A16B"/>
<path d="M188.231 148.512C188.231 148.767 188.156 149.016 188.014 149.227C187.873 149.439 187.672 149.604 187.436 149.701C187.201 149.799 186.942 149.824 186.692 149.775C186.443 149.725 186.213 149.602 186.033 149.422C185.853 149.242 185.731 149.013 185.681 148.763C185.631 148.513 185.657 148.255 185.754 148.019C185.852 147.784 186.017 147.583 186.228 147.442C186.44 147.3 186.689 147.225 186.944 147.225C187.113 147.225 187.28 147.258 187.436 147.323C187.592 147.387 187.734 147.482 187.854 147.602C187.973 147.721 188.068 147.863 188.133 148.019C188.198 148.176 188.231 148.343 188.231 148.512Z" fill="#00A16B"/>
<path d="M186.943 150.895C186.481 150.895 186.029 150.758 185.645 150.501C185.26 150.244 184.96 149.879 184.783 149.451C184.606 149.024 184.56 148.554 184.65 148.101C184.741 147.647 184.963 147.231 185.29 146.904C185.617 146.577 186.034 146.354 186.487 146.264C186.941 146.173 187.411 146.22 187.838 146.397C188.265 146.574 188.631 146.873 188.887 147.258C189.144 147.642 189.281 148.094 189.281 148.557C189.28 149.176 189.033 149.77 188.595 150.208C188.156 150.646 187.563 150.893 186.943 150.895ZM186.943 146.411C186.519 146.411 186.104 146.537 185.751 146.773C185.399 147.008 185.124 147.344 184.961 147.736C184.799 148.128 184.756 148.559 184.839 148.975C184.922 149.392 185.126 149.774 185.426 150.074C185.726 150.374 186.109 150.578 186.525 150.661C186.941 150.744 187.373 150.701 187.765 150.539C188.157 150.377 188.492 150.102 188.727 149.749C188.963 149.396 189.089 148.981 189.089 148.557C189.093 148.273 189.04 147.99 188.934 147.727C188.828 147.463 188.671 147.223 188.471 147.02C188.272 146.818 188.034 146.657 187.771 146.548C187.509 146.438 187.228 146.381 186.943 146.382V146.411Z" fill="#00A16B"/>
<path d="M222.42 152.344C222.42 152.599 222.345 152.848 222.203 153.059C222.062 153.271 221.861 153.436 221.626 153.533C221.39 153.631 221.132 153.656 220.882 153.607C220.632 153.557 220.403 153.434 220.223 153.254C220.043 153.074 219.92 152.845 219.87 152.595C219.821 152.345 219.846 152.087 219.944 151.851C220.041 151.616 220.206 151.415 220.418 151.274C220.63 151.132 220.878 151.057 221.133 151.057C221.302 151.057 221.47 151.09 221.626 151.155C221.782 151.219 221.924 151.314 222.043 151.434C222.163 151.553 222.258 151.695 222.322 151.851C222.387 152.008 222.42 152.175 222.42 152.344Z" fill="#00A16B"/>
<path d="M221.133 154.727C220.671 154.727 220.218 154.59 219.834 154.333C219.45 154.076 219.15 153.711 218.973 153.283C218.796 152.856 218.75 152.386 218.84 151.933C218.93 151.479 219.153 151.063 219.48 150.736C219.807 150.409 220.223 150.186 220.677 150.096C221.13 150.005 221.6 150.052 222.028 150.229C222.455 150.406 222.82 150.705 223.077 151.09C223.334 151.474 223.471 151.926 223.471 152.389C223.469 153.008 223.222 153.602 222.784 154.04C222.346 154.478 221.752 154.725 221.133 154.727ZM221.133 150.243C220.706 150.242 220.289 150.367 219.934 150.603C219.579 150.839 219.302 151.175 219.138 151.569C218.974 151.963 218.931 152.396 219.014 152.814C219.096 153.233 219.302 153.617 219.603 153.919C219.905 154.22 220.289 154.425 220.707 154.508C221.126 154.591 221.559 154.548 221.953 154.384C222.347 154.22 222.683 153.943 222.919 153.588C223.155 153.233 223.28 152.815 223.279 152.389C223.279 151.82 223.052 151.274 222.65 150.872C222.248 150.469 221.702 150.243 221.133 150.243Z" fill="#00A16B"/>
<path d="M220.438 144.701L220.512 147.335L219.853 147.32L221.081 148.822L222.309 147.306H221.629L221.555 144.709L220.438 144.701Z" fill="#EBEBEB"/>
<path d="M246.755 183.042H247.147H247.643L248.316 182.939C248.949 182.817 249.568 182.634 250.165 182.391C250.984 182.036 251.749 181.568 252.437 181C253.303 180.27 254.021 179.381 254.553 178.381C255.184 177.17 255.533 175.832 255.574 174.467C255.574 171.508 255.574 168.067 255.574 164.212C255.574 148.779 255.537 126.479 255.515 98.8743C255.515 85.0831 255.515 69.9749 255.515 53.7421C255.515 51.7148 255.515 49.6654 255.515 47.6085C255.589 46.5905 255.504 45.5671 255.263 44.5751C254.967 43.5984 254.422 42.716 253.68 42.0151C252.944 41.2918 252.026 40.7806 251.024 40.5354C249.993 40.3562 248.946 40.2967 247.901 40.3578H214.777H96.1241C94.8146 40.3578 93.4754 40.3578 92.2028 40.3578C90.9337 40.489 89.7576 41.0841 88.9002 42.0289C88.0427 42.9737 87.5642 44.2018 87.5564 45.4777V64.9068C87.5564 75.1565 87.5564 85.2483 87.5564 95.1823C87.5564 115.026 87.5564 134.174 87.5564 152.411C87.5564 156.974 87.5564 161.477 87.5564 165.921V172.536C87.5033 173.616 87.5553 174.699 87.7118 175.769C88.0084 177.334 88.7269 178.788 89.7895 179.975C90.8522 181.162 92.2188 182.035 93.7417 182.502C94.7456 182.794 95.7899 182.921 96.8344 182.879H112.372H157.504L222.842 182.939L240.599 182.976H245.216C246.259 182.976 246.792 182.976 246.792 182.976H245.216H240.599H222.842L157.504 183.042H112.372H96.8344C95.7574 183.081 94.6811 182.948 93.6456 182.65C92.0635 182.168 90.6434 181.262 89.5389 180.031C88.4343 178.8 87.6874 177.29 87.3789 175.666C87.2177 174.574 87.1632 173.468 87.2161 172.366C87.2161 170.146 87.2161 167.971 87.2161 165.751V152.411C87.2161 134.174 87.2161 115.026 87.2161 95.1823V45.5147C87.2281 44.1455 87.7427 42.8283 88.662 41.8135C89.5814 40.7987 90.8414 40.1569 92.2028 40.0101C93.5568 39.9435 94.8442 40.0101 96.1685 40.0101H214.822H249.5C250.043 40.0057 250.584 40.0678 251.113 40.195C252.166 40.4523 253.134 40.9831 253.917 41.734C254.695 42.48 255.27 43.4119 255.589 44.4419C255.832 45.4662 255.919 46.5212 255.848 47.5716V53.7051C255.848 69.9231 255.848 85.0313 255.848 98.8373C255.848 126.42 255.796 148.742 255.781 164.175C255.781 168.03 255.781 171.463 255.781 174.43C255.747 175.694 255.444 176.935 254.891 178.072C254.339 179.209 253.55 180.215 252.577 181.022C251.883 181.59 251.11 182.056 250.284 182.406C249.683 182.649 249.058 182.827 248.419 182.939L247.739 183.035H247.243L246.755 183.042Z" fill="#263238"/>
<path d="M264.166 114.655C265.148 110.474 262.555 106.288 258.375 105.306C254.194 104.324 250.008 106.917 249.026 111.098C248.044 115.279 250.637 119.464 254.818 120.446C258.999 121.428 263.184 118.835 264.166 114.655Z" fill="#F5F5F5"/>
<path d="M248.834 112.881C248.898 113.513 249.001 114.141 249.145 114.76C249.414 115.794 249.896 116.76 250.561 117.596C251.225 118.432 252.057 119.12 253.004 119.615C253.95 120.111 254.989 120.403 256.055 120.473C257.121 120.542 258.189 120.389 259.192 120.021C260.606 119.506 261.835 118.581 262.721 117.365C263.678 116.065 264.194 114.494 264.194 112.881C264.194 111.268 263.678 109.697 262.721 108.397C262.277 107.777 261.735 107.232 261.116 106.784C260.534 106.338 259.885 105.989 259.192 105.749C257.998 105.309 256.713 105.175 255.454 105.36C254.195 105.545 253.003 106.042 251.986 106.807C250.597 107.849 249.597 109.325 249.145 111.002C249.003 111.621 248.899 112.249 248.834 112.881C248.783 112.237 248.841 111.59 249.004 110.965C249.406 109.225 250.4 107.68 251.816 106.592C252.866 105.781 254.105 105.248 255.416 105.043C256.727 104.837 258.069 104.965 259.318 105.416C260.043 105.666 260.724 106.028 261.338 106.489C261.984 106.961 262.553 107.53 263.025 108.175C264.033 109.538 264.578 111.189 264.578 112.885C264.578 114.58 264.033 116.231 263.025 117.594C262.553 118.24 261.984 118.809 261.338 119.281C260.722 119.738 260.041 120.1 259.318 120.354C257.981 120.835 256.54 120.947 255.145 120.679C253.665 120.391 252.299 119.684 251.21 118.641C250.121 117.598 249.355 116.264 249.004 114.797C248.841 114.173 248.783 113.525 248.834 112.881Z" fill="#263238"/>
<path d="M255.426 115.085C255.35 115.083 255.277 115.058 255.216 115.013C255.155 114.968 255.109 114.906 255.085 114.834C255.061 114.762 255.059 114.684 255.08 114.612C255.102 114.539 255.145 114.474 255.204 114.427L257.202 112.866L255.182 111.342C255.105 111.282 255.054 111.194 255.042 111.096C255.029 110.999 255.056 110.901 255.115 110.824C255.144 110.785 255.181 110.752 255.223 110.727C255.265 110.703 255.311 110.686 255.359 110.679C255.407 110.673 255.456 110.675 255.503 110.687C255.55 110.699 255.594 110.721 255.633 110.75L258.03 112.57C258.075 112.604 258.112 112.647 258.138 112.697C258.163 112.747 258.177 112.802 258.178 112.858C258.179 112.915 258.166 112.971 258.142 113.022C258.118 113.074 258.082 113.119 258.038 113.154L255.655 115.011C255.589 115.061 255.509 115.087 255.426 115.085Z" fill="#263238"/>
<path d="M93.6712 115.127C94.6533 110.946 92.0603 106.761 87.8795 105.779C83.6987 104.797 79.5134 107.39 78.5312 111.571C77.5491 115.751 80.1421 119.937 84.3229 120.919C88.5037 121.901 92.6891 119.308 93.6712 115.127Z" fill="#F5F5F5"/>
<path d="M93.8824 113.354C93.8132 112.722 93.707 112.095 93.5642 111.475C93.1158 109.797 92.1149 108.319 90.7231 107.28C89.7782 106.565 88.6781 106.084 87.5121 105.874C86.1738 105.629 84.7943 105.747 83.5168 106.214C82.8275 106.462 82.1792 106.811 81.5931 107.25C80.9782 107.703 80.4388 108.249 79.995 108.871C79.0383 110.17 78.5223 111.741 78.5223 113.354C78.5223 114.968 79.0383 116.539 79.995 117.838C80.4389 118.457 80.9783 119.001 81.5931 119.451C82.1757 119.895 82.8249 120.245 83.5168 120.487C84.7937 120.957 86.1731 121.077 87.5121 120.834C88.6781 120.625 89.7782 120.143 90.7231 119.429C92.1119 118.387 93.1121 116.91 93.5642 115.233C93.7057 114.614 93.8119 113.986 93.8824 113.354C93.928 113.998 93.8706 114.645 93.7122 115.27C93.363 116.737 92.5977 118.072 91.5083 119.114C90.419 120.156 89.0518 120.861 87.5713 121.145C86.1745 121.416 84.7306 121.306 83.391 120.827C81.9127 120.288 80.626 119.326 79.6916 118.06C78.6785 116.699 78.1313 115.047 78.1313 113.351C78.1313 111.654 78.6785 110.002 79.6916 108.641C80.1597 107.992 80.7293 107.422 81.3785 106.954C81.9912 106.497 82.6697 106.135 83.391 105.881C84.7307 105.404 86.1737 105.291 87.5713 105.556C88.7787 105.784 89.9162 106.291 90.8933 107.036C92.3094 108.124 93.3053 109.669 93.7122 111.408C93.8738 112.043 93.9312 112.701 93.8824 113.354Z" fill="#263238"/>
<path d="M87.3051 115.558C87.2247 115.56 87.1463 115.534 87.0831 115.484L84.6785 113.664C84.6336 113.63 84.5969 113.587 84.5712 113.537C84.5456 113.487 84.5317 113.432 84.5305 113.376C84.5299 113.318 84.5431 113.261 84.5688 113.21C84.5945 113.158 84.6321 113.114 84.6785 113.08L87.0535 111.222C87.0915 111.189 87.1359 111.164 87.184 111.149C87.2321 111.133 87.2828 111.128 87.333 111.133C87.3833 111.137 87.432 111.153 87.4762 111.177C87.5204 111.201 87.5592 111.235 87.59 111.275C87.6209 111.315 87.6432 111.361 87.6557 111.409C87.6682 111.458 87.6705 111.509 87.6625 111.559C87.6545 111.609 87.6364 111.657 87.6093 111.699C87.5822 111.742 87.5466 111.779 87.5048 111.807L85.5072 113.368L87.527 114.892C87.5891 114.939 87.635 115.004 87.6582 115.078C87.6813 115.152 87.6806 115.232 87.656 115.305C87.6315 115.379 87.5844 115.443 87.5214 115.488C87.4584 115.534 87.3827 115.558 87.3051 115.558Z" fill="#263238"/>
<path d="M249.633 102.061C250.094 99.0754 251.662 96.3731 254.025 94.4916C256.388 92.61 259.373 91.6872 262.386 91.9068L263.013 91.9507C269.677 92.8276 272.653 98.9851 271.594 105.625L269.27 129.19L269.158 134.057L253.278 135.498L253.623 125.213C253.623 125.213 247.259 123.747 247.647 117.307C247.81 114.194 248.743 107.817 249.633 102.061Z" fill="#B78063"/>
<path d="M253.567 125.201C256.559 125.416 259.549 124.764 262.18 123.322C262.18 123.322 259.943 127.97 253.567 126.924V125.201Z" fill="#AA765F"/>
<path d="M252.126 108.482C252.106 108.722 252.181 108.959 252.335 109.144C252.488 109.329 252.708 109.447 252.946 109.472C253.062 109.489 253.181 109.482 253.294 109.453C253.408 109.424 253.515 109.373 253.608 109.303C253.702 109.232 253.781 109.144 253.84 109.043C253.9 108.942 253.939 108.83 253.955 108.714C253.976 108.474 253.902 108.235 253.748 108.048C253.595 107.862 253.374 107.743 253.134 107.718C253.018 107.701 252.899 107.708 252.785 107.737C252.671 107.767 252.564 107.818 252.47 107.89C252.377 107.961 252.298 108.05 252.239 108.151C252.18 108.253 252.141 108.366 252.126 108.482Z" fill="#263238"/>
<path d="M250.785 105.312C250.892 105.437 251.625 104.974 252.614 105.049C253.604 105.124 254.293 105.675 254.406 105.556C254.519 105.437 254.362 105.28 254.068 105.03C253.66 104.702 253.161 104.507 252.639 104.472C252.126 104.438 251.614 104.563 251.174 104.829C250.854 105.042 250.735 105.255 250.785 105.312Z" fill="#263238"/>
<path d="M261.397 109.365C261.376 109.604 261.449 109.841 261.601 110.026C261.754 110.211 261.973 110.329 262.211 110.355C262.327 110.373 262.446 110.368 262.56 110.34C262.675 110.311 262.782 110.26 262.876 110.19C262.97 110.119 263.049 110.03 263.108 109.928C263.167 109.826 263.205 109.713 263.219 109.597C263.239 109.358 263.165 109.12 263.013 108.934C262.861 108.749 262.643 108.629 262.405 108.601C262.288 108.582 262.169 108.587 262.054 108.616C261.94 108.645 261.832 108.696 261.738 108.768C261.644 108.839 261.565 108.929 261.506 109.032C261.448 109.134 261.41 109.248 261.397 109.365Z" fill="#263238"/>
<path d="M260.494 106.202C260.601 106.334 261.334 105.87 262.324 105.939C263.313 106.008 264.002 106.566 264.115 106.453C264.228 106.34 264.071 106.177 263.771 105.92C263.365 105.593 262.868 105.401 262.349 105.369C261.834 105.327 261.32 105.453 260.883 105.726C260.563 105.939 260.444 106.165 260.494 106.202Z" fill="#263238"/>
<path d="M256.373 113.274C255.863 113.074 255.331 112.937 254.788 112.867C254.538 112.823 254.3 112.754 254.268 112.579C254.269 112.317 254.347 112.062 254.494 111.846L255.383 109.967C256.636 107.304 257.532 105.106 257.425 105.056C257.319 105.005 256.229 107.129 254.989 109.791C254.694 110.418 254.406 111.044 254.137 111.67C253.954 111.964 253.881 112.312 253.93 112.654C253.96 112.745 254.011 112.828 254.078 112.896C254.146 112.965 254.228 113.017 254.318 113.048C254.456 113.097 254.599 113.129 254.744 113.142C255.279 113.255 255.827 113.299 256.373 113.274Z" fill="#263238"/>
<path d="M259.229 114.17C259.072 114.17 258.991 115.222 258.02 115.918C257.049 116.613 255.909 116.412 255.89 116.544C255.872 116.676 256.128 116.769 256.611 116.82C257.239 116.874 257.867 116.706 258.383 116.344C258.878 115.995 259.218 115.467 259.329 114.871C259.404 114.446 259.304 114.17 259.229 114.17Z" fill="#263238"/>
<path d="M260.52 102.311C260.601 102.586 261.597 102.53 262.743 102.755C263.89 102.981 264.81 103.382 264.986 103.131C265.061 103.018 264.917 102.755 264.554 102.467C264.072 102.114 263.516 101.874 262.928 101.765C262.34 101.657 261.735 101.682 261.159 101.841C260.72 101.979 260.488 102.179 260.52 102.311Z" fill="#263238"/>
<path d="M251.362 102.474C251.518 102.712 252.214 102.53 253.034 102.574C253.855 102.618 254.537 102.837 254.713 102.612C254.794 102.505 254.713 102.274 254.412 102.036C254.022 101.754 253.557 101.592 253.076 101.572C252.595 101.552 252.119 101.674 251.706 101.923C251.405 102.136 251.293 102.361 251.362 102.474Z" fill="#263238"/>
<path d="M270.104 111.801C270.128 111.565 270.2 111.337 270.315 111.131C270.431 110.924 270.587 110.743 270.774 110.599C270.962 110.455 271.177 110.35 271.406 110.292C271.636 110.234 271.874 110.223 272.108 110.26C273.304 110.46 274.614 111.237 274.326 113.711C273.868 118.096 269.552 116.73 269.559 116.605C269.565 116.48 269.891 113.642 270.104 111.801Z" fill="#B78063"/>
<path d="M270.692 115.059C270.692 115.059 270.761 115.122 270.886 115.197C271.061 115.292 271.265 115.317 271.457 115.266C271.76 115.118 272.018 114.891 272.203 114.608C272.388 114.326 272.494 113.999 272.509 113.662C272.557 113.288 272.522 112.907 272.409 112.547C272.379 112.41 272.317 112.281 272.227 112.172C272.138 112.063 272.024 111.977 271.895 111.921C271.809 111.89 271.715 111.889 271.628 111.918C271.542 111.948 271.468 112.006 271.419 112.084C271.35 112.203 271.369 112.29 271.344 112.297C271.319 112.303 271.256 112.215 271.344 112.04C271.376 111.932 271.448 111.841 271.544 111.783C271.609 111.743 271.681 111.716 271.756 111.704C271.832 111.692 271.909 111.696 271.983 111.714C272.148 111.768 272.297 111.862 272.418 111.986C272.539 112.11 272.628 112.262 272.678 112.428C272.825 112.829 272.87 113.259 272.81 113.681C272.691 114.558 272.183 115.341 271.5 115.454C271.379 115.477 271.253 115.473 271.134 115.44C271.014 115.407 270.904 115.348 270.811 115.266C270.686 115.172 270.674 115.072 270.692 115.059Z" fill="#AA765F"/>
<path d="M273.618 107.335C273.254 108.588 273.386 110.687 272.265 110.398C270.028 109.835 270.567 114.414 269.496 113.963C268.425 113.512 267.504 112.221 267.435 109.403C267.354 105.832 268.788 103.251 267.385 99.1546C266.935 98.3384 266.283 97.6519 265.491 97.1614C264.699 96.6709 263.793 96.393 262.862 96.3546C261.924 96.334 260.996 96.5533 260.166 96.9918C259.336 97.4303 258.632 98.0734 258.12 98.8602C257.92 97.6074 257.312 95.7282 256.204 95.1018C255.648 94.7973 255.015 94.6629 254.384 94.7152C253.752 94.7676 253.15 95.0044 252.652 95.3962C252.176 95.8136 251.867 96.389 251.782 97.0164C251.696 97.6438 251.841 98.2808 252.188 98.8101C251.932 98.8877 251.657 98.881 251.404 98.7908C251.152 98.7005 250.935 98.5317 250.785 98.3089C250.762 98.6003 250.799 98.8933 250.895 99.1694C250.991 99.4455 251.144 99.6986 251.343 99.9125C250.881 99.7968 250.478 99.516 250.209 99.1233C250.322 99.6432 250.428 100.157 250.541 100.67C248.662 100.721 246.82 98.8978 246.294 97.2816C245.505 94.8199 246.112 92.3393 247.49 90.1532C248.164 89.0482 249.104 88.1301 250.225 87.4832C251.346 86.8364 252.611 86.4815 253.905 86.4512C256.486 86.4512 258.647 87.704 259.643 90.078C261.321 88.8941 264.716 88.4807 266.583 89.3326C267.517 89.7691 268.323 90.4375 268.925 91.2742C269.527 92.1109 269.905 93.088 270.022 94.1121C270.623 93.9016 271.269 93.8545 271.894 93.9755C272.519 94.0966 273.101 94.3815 273.58 94.8011L273.818 95.0078C274.475 95.634 274.962 96.4161 275.235 97.2814C275.507 98.1467 275.557 99.0669 275.378 99.9564C275.24 100.677 274.989 101.416 274.845 101.992C274.413 103.727 273.618 107.335 273.618 107.335Z" fill="#263238"/>
<path d="M250.491 98.2222C250.491 98.2222 250.435 98.2222 250.341 98.1032C250.204 97.9822 250.081 97.8479 249.971 97.7023C249.558 97.1551 249.302 96.5052 249.232 95.8231C249.169 95.3189 249.215 94.8072 249.367 94.3222C249.518 93.8372 249.771 93.39 250.109 93.0106C250.525 92.5449 251.048 92.1875 251.633 91.9692C252.218 91.751 252.847 91.6784 253.466 91.7578C254.104 91.8557 254.712 92.0954 255.245 92.4593C255.748 92.7805 256.198 93.1778 256.58 93.637C257.65 94.9515 258.206 96.6098 258.146 98.3037C258.146 98.5417 258.146 98.7234 258.089 98.8486C258.085 98.9126 258.072 98.9758 258.052 99.0366C258.113 98.1287 258.026 97.2168 257.795 96.3368C257.529 95.3897 257.068 94.5086 256.442 93.7497C255.704 92.7994 254.643 92.153 253.46 91.9332C252.87 91.8608 252.27 91.9317 251.713 92.14C251.156 92.3482 250.657 92.6877 250.259 93.1296C249.934 93.4905 249.689 93.9157 249.539 94.3775C249.389 94.8394 249.338 95.3276 249.388 95.8106C249.447 96.4697 249.675 97.1022 250.052 97.6459C250.315 98.0218 250.503 98.2097 250.491 98.2222Z" fill="#455A64"/>
<path d="M249.627 100.188C249.574 100.123 249.53 100.051 249.495 99.9751C249.414 99.831 249.295 99.618 249.15 99.3487C248.73 98.5644 248.384 97.7423 248.117 96.8932C247.941 96.301 247.844 95.688 247.829 95.0704C247.806 94.3558 247.936 93.6445 248.211 92.9845C248.527 92.2504 249.052 91.6253 249.72 91.1867C250.435 90.722 251.257 90.4501 252.107 90.3974C252.961 90.3516 253.814 90.4861 254.613 90.7921C255.346 91.0767 256.032 91.4694 256.648 91.9572C257.727 92.7538 258.509 93.8866 258.872 95.1769C259.102 96.0505 259.056 96.9737 258.741 97.8203C258.656 98.0406 258.546 98.2507 258.415 98.4467C258.373 98.5211 258.32 98.5886 258.258 98.6471C258.423 98.3705 258.561 98.0789 258.672 97.7764C258.95 96.942 258.974 96.0438 258.741 95.1957C258.368 93.9388 257.593 92.8388 256.536 92.0636C255.299 91.057 253.745 90.524 252.151 90.5603C251.332 90.6104 250.54 90.8715 249.852 91.3182C249.215 91.7346 248.713 92.3263 248.405 93.022C248.138 93.6603 248.008 94.3474 248.023 95.0391C248.029 95.6429 248.115 96.2432 248.28 96.8243C248.53 97.67 248.855 98.4918 249.251 99.2798L249.564 99.9062C249.596 99.9972 249.617 100.092 249.627 100.188Z" fill="#455A64"/>
<path d="M272.064 104.492C272.064 104.492 272.471 104.16 273.01 103.527C273.704 102.699 274.186 101.714 274.413 100.658C274.627 99.5991 274.576 98.5037 274.263 97.4696C274.025 96.6741 273.755 96.2168 273.787 96.2168C273.87 96.3064 273.94 96.4077 273.994 96.5175C274.153 96.8105 274.287 97.1164 274.394 97.432C274.756 98.4839 274.827 99.6136 274.601 100.703C274.375 101.791 273.86 102.8 273.11 103.621C272.886 103.869 272.641 104.097 272.377 104.304C272.283 104.382 272.178 104.445 272.064 104.492Z" fill="#455A64"/>
<path d="M268.062 104.367C268.062 104.367 268.281 104.267 268.632 104.029C269.117 103.694 269.501 103.233 269.74 102.694L269.922 102.275L269.884 102.732C269.828 103.358 269.765 104.066 269.696 104.837L269.552 104.749C270.181 104.319 270.719 103.769 271.134 103.131C271.549 102.492 271.833 101.777 271.97 101.028C272.09 100.344 272.09 99.6449 271.97 98.9611C271.833 98.3333 271.623 97.7237 271.344 97.1445C271.344 97.1445 271.375 97.1759 271.425 97.251C271.497 97.3596 271.562 97.4726 271.619 97.5893C271.839 98.0151 272.001 98.4679 272.102 98.936C272.335 100.061 272.227 101.23 271.791 102.294C271.356 103.357 270.614 104.266 269.659 104.906L269.496 105.012V104.818C269.577 104.047 269.653 103.333 269.721 102.72L269.866 102.757C269.603 103.312 269.185 103.78 268.663 104.104C268.52 104.187 268.371 104.261 268.218 104.323C268.169 104.347 268.116 104.362 268.062 104.367Z" fill="#455A64"/>
<path d="M266.84 95.1091C266.587 94.6294 266.242 94.2038 265.825 93.8563C265.363 93.4887 264.82 93.2373 264.24 93.1234C263.533 92.9888 262.802 93.0538 262.129 93.3113C261.451 93.5651 260.843 93.9775 260.357 94.514C259.959 94.9533 259.635 95.4548 259.398 95.9985C259.198 96.5091 259.039 97.0348 258.922 97.5708C258.909 97.4218 258.92 97.2717 258.954 97.1261C259.016 96.7209 259.123 96.3239 259.273 95.9422C259.498 95.3745 259.818 94.8492 260.219 94.3887C260.722 93.8276 261.354 93.3976 262.061 93.1359C262.768 92.8677 263.536 92.8047 264.278 92.9542C264.881 93.0815 265.443 93.357 265.913 93.756C266.227 94.0247 266.488 94.3498 266.683 94.7144C266.733 94.8142 266.777 94.9166 266.815 95.0214C266.84 95.0652 266.846 95.1028 266.84 95.1091Z" fill="#455A64"/>
<path d="M265.813 91.7568C265.427 91.5579 265.022 91.4004 264.604 91.287C263.579 91.0676 262.509 91.2186 261.584 91.7129C260.674 92.2345 259.933 93.0063 259.448 93.9366C259.066 94.6507 258.941 95.1456 258.91 95.1331C258.911 95.0135 258.932 94.895 258.972 94.7823C259.062 94.4697 259.179 94.1657 259.323 93.874C259.791 92.8947 260.548 92.0817 261.49 91.5438C262.449 91.0254 263.567 90.8867 264.622 91.1554C264.938 91.2387 265.24 91.3674 265.518 91.5375C265.628 91.5939 265.727 91.668 265.813 91.7568Z" fill="#455A64"/>
<path d="M251.675 299.177L252.12 311.222C252.12 311.222 240.024 315.72 239.886 317.956H263.276L263.357 299.164L251.675 299.177Z" fill="#263238"/>
<path d="M259.348 310.208C259.574 310.275 259.767 310.424 259.89 310.625C260.013 310.827 260.056 311.066 260.012 311.298C259.952 311.526 259.806 311.721 259.606 311.845C259.405 311.968 259.165 312.01 258.935 311.962C258.697 311.888 258.495 311.729 258.368 311.515C258.241 311.301 258.197 311.047 258.246 310.803C258.331 310.572 258.503 310.383 258.725 310.276C258.947 310.17 259.202 310.154 259.436 310.233" fill="#E0E0E0"/>
<path d="M263.276 317.938L263.213 316.059L240.813 316.785C240.813 316.785 239.767 317.243 239.886 317.975L263.276 317.938Z" fill="#263238"/>
<path d="M251.737 311.11C251.737 311.223 252.314 311.273 252.878 311.636C253.441 312 253.736 312.488 253.842 312.438C253.949 312.388 253.78 311.736 253.091 311.304C252.401 310.872 251.712 310.997 251.737 311.11Z" fill="white"/>
<path d="M249.288 312.124C249.288 312.237 249.758 312.425 250.147 312.913C250.535 313.402 250.648 313.903 250.773 313.897C250.898 313.891 250.955 313.271 250.466 312.644C249.977 312.018 249.288 312.011 249.288 312.124Z" fill="white"/>
<path d="M247.898 315.063C247.998 315.063 248.161 314.512 247.898 313.892C247.635 313.272 247.071 313.015 247.021 313.109C246.971 313.203 247.303 313.541 247.534 314.055C247.766 314.568 247.81 315.051 247.898 315.063Z" fill="white"/>
<path d="M251.944 308.348C251.994 308.454 252.514 308.298 253.159 308.348C253.805 308.398 254.312 308.592 254.368 308.492C254.425 308.392 253.942 307.991 253.185 307.947C252.427 307.903 251.888 308.26 251.944 308.348Z" fill="white"/>
<path d="M278.503 300.279L279.431 314.837L276.85 326.563C276.806 326.764 276.805 326.972 276.845 327.173C276.886 327.375 276.967 327.566 277.085 327.735C277.203 327.903 277.354 328.046 277.529 328.154C277.704 328.261 277.899 328.332 278.103 328.361C278.337 328.397 278.577 328.375 278.801 328.299C279.026 328.223 279.229 328.094 279.393 327.922C281.529 325.699 289.353 317.474 289.221 316.415C289.077 315.163 289.259 301 289.259 301L278.503 300.279Z" fill="#263238"/>
<path d="M278.103 328.361L289.184 315.432V316.058C289.206 316.592 289.037 317.116 288.708 317.536C287.831 318.658 285.331 321.714 279.412 327.928C279.243 328.105 279.032 328.238 278.8 328.315C278.567 328.391 278.319 328.409 278.078 328.367L278.103 328.361Z" fill="#263238"/>
<g opacity="0.6">
<path d="M286.02 310.852C285.845 310.99 285.727 311.188 285.69 311.408C285.653 311.628 285.699 311.854 285.82 312.042C285.953 312.22 286.149 312.341 286.368 312.38C286.587 312.418 286.812 312.371 286.998 312.249C287.179 312.101 287.3 311.892 287.337 311.661C287.374 311.43 287.324 311.193 287.198 310.996C287.042 310.821 286.823 310.714 286.588 310.699C286.354 310.684 286.123 310.761 285.945 310.915" fill="white"/>
</g>
<path d="M281.172 321.858C280.801 321.417 280.35 321.05 279.844 320.775C279.302 320.584 278.727 320.499 278.153 320.524C278.153 320.486 278.322 320.367 278.66 320.305C279.107 320.236 279.564 320.297 279.977 320.48C280.39 320.663 280.742 320.961 280.99 321.338C281.172 321.645 281.203 321.839 281.172 321.858Z" fill="white"/>
<path d="M280.214 323.85C279.786 323.633 279.347 323.441 278.898 323.274C278.422 323.208 277.944 323.166 277.464 323.149C277.683 323.002 277.934 322.909 278.197 322.877C278.459 322.846 278.725 322.876 278.973 322.967C279.844 323.18 280.289 323.807 280.214 323.85Z" fill="white"/>
<path d="M283.001 319.278C282.37 318.887 281.71 318.544 281.028 318.25C280.312 318.061 279.584 317.923 278.848 317.837C279.606 317.655 280.399 317.695 281.135 317.95C281.871 318.205 282.519 318.666 283.001 319.278Z" fill="white"/>
<path d="M283.089 314.83C283.051 314.918 282.231 314.611 281.21 314.617C280.188 314.623 279.33 314.911 279.33 314.817C279.906 314.473 280.564 314.291 281.235 314.291C281.905 314.291 282.563 314.473 283.139 314.817L283.089 314.83Z" fill="white"/>
<path d="M282.92 310.546C282.277 310.369 281.613 310.278 280.947 310.277C280.288 310.378 279.645 310.568 279.036 310.84C279.036 310.84 279.161 310.621 279.487 310.414C279.923 310.153 280.414 309.996 280.922 309.957C281.428 309.917 281.937 309.999 282.406 310.195C282.763 310.371 282.939 310.515 282.92 310.546Z" fill="white"/>
<path d="M280.94 309.462C280.883 309.284 280.868 309.095 280.896 308.91C280.926 308.404 281.054 307.909 281.272 307.451C281.408 307.104 281.652 306.81 281.968 306.612C282.079 306.56 282.204 306.543 282.325 306.562C282.446 306.581 282.56 306.635 282.65 306.718C282.811 306.887 282.903 307.111 282.907 307.344C282.895 307.835 282.712 308.307 282.389 308.677C282.067 309.048 281.625 309.294 281.141 309.374C280.659 309.442 280.169 309.366 279.731 309.155C279.292 308.944 278.927 308.608 278.679 308.19C278.619 308.084 278.582 307.967 278.57 307.847C278.558 307.726 278.572 307.604 278.61 307.489C278.668 307.375 278.759 307.282 278.871 307.222C278.982 307.161 279.11 307.136 279.236 307.15C279.597 307.213 279.934 307.371 280.214 307.608C280.623 307.908 280.975 308.279 281.253 308.704C281.454 308.998 281.517 309.186 281.498 309.192C281.098 308.659 280.621 308.188 280.082 307.795C279.83 307.598 279.533 307.467 279.218 307.413C279.151 307.405 279.083 307.418 279.025 307.45C278.966 307.483 278.92 307.534 278.892 307.595C278.854 307.753 278.879 307.919 278.961 308.059C279.185 308.412 279.506 308.694 279.886 308.871C280.266 309.047 280.688 309.111 281.103 309.055C281.513 308.987 281.887 308.782 282.165 308.474C282.443 308.165 282.607 307.771 282.632 307.357C282.634 307.19 282.576 307.028 282.469 306.9C282.423 306.85 282.362 306.816 282.295 306.804C282.229 306.791 282.16 306.801 282.099 306.831C281.822 306.993 281.603 307.239 281.473 307.532C281.182 308.139 281.001 308.792 280.94 309.462Z" fill="white"/>
<path d="M241.427 197.361C240.186 202.326 239.688 207.447 239.949 212.557C240.118 215.802 250.535 309.462 250.535 309.462L263.777 308.272L261.491 220.701L262.042 221.196C262.042 221.196 269.934 258.04 270.461 263.866C270.93 269.096 277.226 311.153 277.226 311.153L290.08 310.527L287.167 257.358L283.271 209.125L281.711 195.068L241.427 197.361Z" fill="#263238"/>
<path d="M264.04 213.153C263.844 213.287 263.634 213.398 263.414 213.485C262.83 213.766 262.21 213.967 261.572 214.08C261.122 214.158 260.662 214.158 260.213 214.08C259.687 213.978 259.201 213.73 258.809 213.366C258.408 212.935 258.124 212.409 257.983 211.838C257.826 211.261 257.738 210.66 257.632 210.052C257.218 207.616 256.949 205.392 256.799 203.788C256.724 202.986 256.68 202.329 256.655 201.878C256.627 201.643 256.627 201.405 256.655 201.17C256.72 201.397 256.762 201.63 256.78 201.865C256.843 202.379 256.924 203.018 257.018 203.744C257.225 205.354 257.525 207.565 257.939 210.008C258.146 211.211 258.283 212.433 259.016 213.14C259.354 213.439 259.755 213.658 260.188 213.782C260.621 213.907 261.077 213.934 261.522 213.861C262.148 213.765 262.761 213.602 263.351 213.372C263.57 213.27 263.802 213.196 264.04 213.153Z" fill="#455A64"/>
<path d="M259.862 201.64C259.862 201.64 259.962 201.565 260.169 201.553C260.466 201.557 260.755 201.658 260.989 201.841C261.17 201.975 261.317 202.149 261.42 202.348C261.523 202.548 261.579 202.769 261.584 202.993C261.556 203.271 261.45 203.534 261.277 203.753C261.105 203.971 260.873 204.136 260.61 204.228C260.348 204.32 260.064 204.336 259.793 204.272C259.521 204.209 259.274 204.069 259.079 203.87C258.946 203.694 258.854 203.49 258.811 203.273C258.767 203.056 258.773 202.832 258.828 202.618C258.891 202.326 259.055 202.066 259.292 201.885C259.461 201.759 259.574 201.747 259.58 201.759C259.306 201.993 259.117 202.31 259.041 202.661C259.005 202.843 259.009 203.03 259.053 203.21C259.097 203.39 259.181 203.558 259.298 203.701C259.451 203.862 259.649 203.973 259.866 204.018C260.083 204.064 260.309 204.043 260.513 203.958C260.724 203.895 260.912 203.771 261.052 203.601C261.192 203.432 261.28 203.225 261.303 203.006C261.301 202.82 261.26 202.637 261.183 202.469C261.105 202.3 260.992 202.15 260.852 202.029C260.573 201.795 260.225 201.659 259.862 201.64Z" fill="#455A64"/>
<path d="M283.089 208.269C282.924 208.315 282.753 208.336 282.581 208.331C282.121 208.365 281.658 208.365 281.197 208.331C278.125 208.083 275.232 206.785 273.004 204.654C272.668 204.335 272.356 203.991 272.07 203.627C271.87 203.37 271.77 203.22 271.789 203.207C271.807 203.195 272.29 203.727 273.154 204.491C275.414 206.489 278.228 207.752 281.222 208.112C282.362 208.212 283.083 208.193 283.089 208.269Z" fill="#455A64"/>
<path d="M247.384 201.621C247.175 202.15 246.897 202.649 246.557 203.106C245.811 204.253 244.927 205.304 243.926 206.238C242.928 207.168 241.82 207.971 240.625 208.631C240.144 208.928 239.626 209.159 239.084 209.32C239.544 209.002 240.021 208.709 240.512 208.443C241.653 207.734 242.724 206.92 243.713 206.012C244.694 205.094 245.585 204.085 246.376 202.999C246.684 202.52 247.021 202.06 247.384 201.621Z" fill="#455A64"/>
<path d="M234.236 148.715C232.269 154.459 232.488 153.964 228.805 171.127C228.128 174.297 229.325 179.271 232.181 180.774C235.038 182.277 240.111 180.624 241.809 177.868L244.54 151.966L234.236 148.715Z" fill="#B78063"/>
<path d="M281.717 179.842L281.636 166.193L281.692 164.852L295.542 161.62C295.542 161.62 292.823 152.662 290.33 143.034C288.889 137.472 284.097 134.678 282.939 134.077L282.682 133.958L269.352 128.32C266.658 131.189 262.737 133.494 258.96 132.392C256.809 131.69 254.905 130.385 253.473 128.634L244.496 131.722C241.902 132.612 239.702 134.386 238.282 136.733C236.403 140.084 230.396 155.337 230.271 155.65L241.396 156.646C241.396 156.646 239.422 192.739 240.143 199.185C240.143 199.185 242.849 201.064 249.664 201.377C263.495 202.004 284.072 201.045 284.072 201.045C283.747 198.966 283.408 195.489 283.22 193.729L281.717 179.842Z" fill="#8778F7"/>
<path d="M241.796 143.234C241.853 143.234 241.558 151.841 241.139 162.452C240.719 173.064 240.331 181.67 240.293 181.67C240.255 181.67 240.531 173.064 240.919 162.446C241.308 151.829 241.74 143.228 241.796 143.234Z" fill="#263238"/>
<path d="M280.195 145.627C280.101 145.627 280.377 153.269 280.821 162.684C281.266 172.099 281.704 179.728 281.805 179.722C281.905 179.716 281.623 172.086 281.178 162.665C280.734 153.244 280.295 145.627 280.195 145.627Z" fill="#263238"/>
<path d="M295.611 168.115C295.159 164.726 294.784 161.732 294.784 161.732L283.709 164.306L284.185 166.091L275.622 157.391L274.263 157.51L269.953 161.988C269.953 161.988 273.712 169.925 275.898 173.013C278.742 177.035 283.208 183.161 289.328 182.647C294.984 182.171 296.419 174.191 295.611 168.115Z" fill="#B78063"/>
<path d="M289.61 170.145C288.938 169.261 288.115 168.504 287.179 167.908C286.312 167.214 285.334 166.672 284.285 166.305C284.235 166.399 285.538 167.138 286.966 168.184C288.395 169.23 289.541 170.22 289.61 170.145Z" fill="#AA765F"/>
<path d="M260.67 146.041L264.478 144.1L269.414 145.666L271.857 147.921L275.616 157.392L278.629 161.207L273.311 168.097L269.947 161.958C269.947 161.958 267.097 160.706 265.95 158.914C264.804 157.122 264.297 156.133 264.297 156.133C264.297 156.133 262.649 155.344 262.342 154.579C262.162 154.153 262.064 153.696 262.054 153.233L262.887 152.011C262.834 151.48 262.921 150.945 263.138 150.458C263.296 150.231 263.512 150.051 263.764 149.938C263.764 149.938 263.52 148.91 263.902 148.541C264.624 148.116 265.388 147.768 266.182 147.501L264.522 146.555C264.522 146.555 260.877 147.726 260.67 146.041Z" fill="#B78063"/>
<path d="M266.32 149.48C266.32 149.53 265.738 149.543 265.067 149.693C264.397 149.844 263.814 150.057 263.814 150.013C264.191 149.761 264.619 149.599 265.067 149.537C265.475 149.425 265.903 149.405 266.32 149.48Z" fill="#AA765F"/>
<path d="M265.18 151.603C264.815 151.672 264.447 151.72 264.077 151.747C263.718 151.832 263.354 151.894 262.988 151.935C263.31 151.736 263.675 151.616 264.052 151.585C264.425 151.505 264.81 151.511 265.18 151.603Z" fill="#AA765F"/>
<path d="M263.57 154.936C263.526 154.936 263.495 154.717 263.501 154.447C263.508 154.178 263.545 153.965 263.589 153.965C263.633 153.965 263.664 154.184 263.664 154.453C263.664 154.723 263.614 154.936 263.57 154.936Z" fill="#AA765F"/>
<path d="M264.297 155.964C264.247 155.649 264.127 155.349 263.946 155.087C263.731 154.852 263.471 154.662 263.182 154.53C263.182 154.53 263.301 154.498 263.483 154.53C263.73 154.603 263.949 154.752 264.109 154.955C264.261 155.151 264.355 155.385 264.378 155.632C264.36 155.851 264.316 155.964 264.297 155.964Z" fill="#AA765F"/>
<path d="M267.272 152.925C267.095 152.674 266.869 152.461 266.608 152.299C266.324 152.168 266.018 152.091 265.706 152.073C265.706 152.073 265.807 152.004 265.994 151.992C266.238 151.98 266.479 152.037 266.692 152.155C266.904 152.273 267.079 152.449 267.197 152.662C267.285 152.806 267.291 152.919 267.272 152.925Z" fill="#AA765F"/>
<path d="M269.007 150.821C268.964 150.821 268.813 150.445 268.381 150.194C268.119 150.056 267.839 149.959 267.548 149.906C267.548 149.906 267.648 149.85 267.823 149.85C268.046 149.865 268.262 149.936 268.45 150.056C268.645 150.176 268.803 150.348 268.907 150.551C269.02 150.708 269.026 150.814 269.007 150.821Z" fill="#AA765F"/>
<path d="M270.172 149.787C270.172 149.787 270.172 149.655 270.128 149.461C270.097 149.21 270.002 148.97 269.853 148.766C269.699 148.562 269.497 148.4 269.264 148.296C269.082 148.214 268.957 148.189 268.963 148.164C268.97 148.139 269.101 148.127 269.302 148.164C269.575 148.245 269.814 148.412 269.984 148.64C270.151 148.87 270.241 149.146 270.241 149.43C270.241 149.668 270.191 149.793 270.172 149.787Z" fill="#AA765F"/>
<path d="M268.556 147.313C268.556 147.37 267.761 147.382 266.802 147.526C265.844 147.67 265.117 148.015 265.092 147.971C265.598 147.635 266.175 147.421 266.777 147.345C267.192 147.279 267.611 147.247 268.03 147.251C268.208 147.24 268.386 147.261 268.556 147.313Z" fill="#AA765F"/>
<g opacity="0.3">
<path d="M257.72 168.699C257.668 167.593 257.345 166.518 256.78 165.567C255.665 163.994 253.479 163.687 251.562 163.756C249.645 163.825 247.641 164.226 245.837 163.568L240.437 179.592C242.462 179.083 244.208 177.804 245.304 176.027C245.856 175.132 246.257 174.092 247.09 173.453C248.242 172.57 249.833 172.695 251.287 172.682C252.802 172.665 254.309 172.444 255.765 172.025C256.402 171.899 256.98 171.569 257.413 171.085C257.908 170.421 257.832 169.519 257.72 168.699Z" fill="black"/>
</g>
<path d="M243.82 149.944L245.498 167.778C245.503 168.183 245.606 168.581 245.798 168.937C245.99 169.294 246.265 169.599 246.601 169.826L257.419 169.6C258.067 168.73 258.362 167.647 258.246 166.569L257.043 149.499C256.974 148.472 256.592 147.733 256.128 147.72L244.734 147.457C244.152 147.445 243.701 148.672 243.82 149.944Z" fill="#263238"/>
<path d="M242.248 153.527C242.036 153.248 241.925 152.905 241.932 152.556C241.939 152.206 242.063 151.868 242.285 151.597C242.517 151.329 242.807 151.115 243.132 150.972C243.457 150.829 243.809 150.76 244.164 150.771C244.865 150.79 245.556 150.95 246.194 151.24C246.979 151.57 247.729 151.975 248.436 152.449C248.709 152.587 248.949 152.78 249.142 153.017C249.335 153.253 249.477 153.527 249.558 153.821C249.645 154.447 248.975 155.074 248.455 154.779C248.824 154.946 249.147 155.198 249.4 155.513C249.652 155.829 249.827 156.2 249.908 156.596C250.002 157.354 249.583 157.755 248.844 157.955C249.121 158.072 249.342 158.293 249.459 158.57C249.576 158.847 249.58 159.16 249.47 159.44C249.295 159.704 249.031 159.896 248.726 159.981C248.422 160.067 248.096 160.039 247.81 159.903C247.243 159.61 246.758 159.18 246.401 158.651C246.756 159.512 246.824 160.466 246.595 161.369C244.979 160.743 243.388 158.983 243.87 157.279C243.474 156.953 243.197 156.505 243.084 156.005C242.971 155.505 243.027 154.981 243.244 154.516C242.873 154.344 242.556 154.074 242.326 153.735C242.097 153.396 241.964 153.002 241.941 152.593" fill="#B78063"/>
<path d="M242.072 151.973L241.94 159.596L239.961 162.571L230.897 170.683C230.897 170.683 232.237 181.702 236.334 180.499C240.431 179.296 241.414 178.513 243.851 174.072C245.141 171.685 245.943 167.808 246.689 165.597C247.127 164.294 246.745 160.097 246.745 160.097L242.072 151.973Z" fill="#B78063"/>
<path d="M248.843 157.968C248.598 157.8 248.365 157.614 248.148 157.41C247.619 156.949 246.994 156.611 246.319 156.421C245.948 156.337 245.563 156.337 245.191 156.421C244.888 156.488 244.603 156.623 244.358 156.815C244.141 157.004 243.955 157.226 243.807 157.473C243.807 157.473 243.807 157.385 243.876 157.241C243.972 157.04 244.108 156.861 244.277 156.715C244.529 156.495 244.829 156.339 245.154 156.258C245.549 156.164 245.961 156.164 246.357 156.258C247.063 156.452 247.709 156.821 248.236 157.329C248.464 157.515 248.669 157.73 248.843 157.968Z" fill="#AA765F"/>
<path d="M248.731 154.86C248.435 154.77 248.15 154.643 247.885 154.484C247.635 154.358 247.334 154.202 246.989 154.064C246.61 153.925 246.221 153.817 245.824 153.738C245.433 153.656 245.03 153.641 244.634 153.694C244.317 153.749 244.015 153.873 243.751 154.058C243.499 154.236 243.286 154.464 243.125 154.728C243.133 154.644 243.159 154.563 243.2 154.49C243.306 154.283 243.456 154.102 243.638 153.958C243.912 153.743 244.235 153.599 244.578 153.538C244.991 153.456 245.417 153.456 245.831 153.538C246.237 153.617 246.636 153.735 247.021 153.889C247.331 154.022 247.632 154.175 247.923 154.346C248.203 154.499 248.473 154.67 248.731 154.86Z" fill="#AA765F"/>
<path d="M231.874 175.068C231.651 174.139 231.613 173.174 231.761 172.23C231.942 171.211 232.305 170.233 232.833 169.343C233.495 168.262 234.299 167.276 235.226 166.411C236.203 165.465 237.205 164.645 238.101 163.905C238.901 163.225 239.666 162.503 240.393 161.744C240.878 161.21 241.32 160.638 241.715 160.034C241.865 159.821 241.991 159.592 242.091 159.352C241.919 159.549 241.762 159.758 241.621 159.978C241.194 160.535 240.732 161.065 240.237 161.563C239.61 162.189 238.827 162.903 237.919 163.661C237.011 164.419 236.04 165.24 235.019 166.167C234.072 167.051 233.256 168.066 232.595 169.18C232.051 170.105 231.687 171.126 231.523 172.187C231.42 172.895 231.445 173.617 231.599 174.316C231.639 174.506 231.694 174.692 231.761 174.874C231.837 174.999 231.862 175.068 231.874 175.068Z" fill="#AA765F"/>
</svg>
