<svg width="1301" height="463" viewBox="0 0 1301 463" fill="none" xmlns="http://www.w3.org/2000/svg">
<path d="M330.373 360.773H239.138C224.582 360.773 212.781 372.574 212.781 387.13C212.781 401.687 224.582 413.487 239.138 413.487H330.373C344.929 413.487 356.729 401.687 356.729 387.13C356.729 372.574 344.929 360.773 330.373 360.773Z" fill="#8778F7"/>
<path d="M328.499 380.352H311.932M308.92 380.352H304.402M328.499 395.412H311.932M308.92 395.412H304.402M320.968 387.883H304.402M328.499 387.883H323.98M310.426 377.34C310.825 377.34 311.208 377.498 311.491 377.781C311.773 378.064 311.932 378.447 311.932 378.846V381.857C311.932 382.256 311.773 382.641 311.491 382.922C311.208 383.205 310.825 383.363 310.426 383.363C310.027 383.363 309.644 383.205 309.361 382.922C309.078 382.641 308.92 382.256 308.92 381.857V378.846C308.92 378.447 309.078 378.064 309.361 377.781C309.644 377.498 310.027 377.34 310.426 377.34ZM310.426 392.4C310.825 392.4 311.208 392.558 311.491 392.841C311.773 393.124 311.932 393.507 311.932 393.906V396.919C311.932 397.318 311.773 397.701 311.491 397.984C311.208 398.265 310.825 398.425 310.426 398.425C310.027 398.425 309.644 398.265 309.361 397.984C309.078 397.701 308.92 397.318 308.92 396.919V393.906C308.92 393.507 309.078 393.124 309.361 392.841C309.644 392.558 310.027 392.4 310.426 392.4ZM322.474 384.869C322.875 384.869 323.258 385.029 323.539 385.312C323.822 385.593 323.98 385.976 323.98 386.377V389.388C323.98 389.787 323.822 390.17 323.539 390.453C323.258 390.736 322.875 390.894 322.474 390.894C322.075 390.894 321.692 390.736 321.409 390.453C321.127 390.17 320.968 389.787 320.968 389.388V386.377C320.968 385.976 321.127 385.593 321.409 385.312C321.692 385.029 322.075 384.869 322.474 384.869Z" stroke="white" stroke-linecap="round" stroke-linejoin="round"/>
<path d="M238.074 377.465H250.33V379.178H240.156V385.767H247.984V387.507H240.156V395.914H238.074V377.465ZM255.192 380.1C254.805 380.1 254.471 379.968 254.19 379.705C253.927 379.441 253.795 379.116 253.795 378.73C253.795 378.326 253.927 377.992 254.19 377.728C254.471 377.465 254.805 377.333 255.192 377.333C255.578 377.333 255.903 377.465 256.167 377.728C256.431 377.992 256.562 378.326 256.562 378.73C256.562 379.116 256.431 379.441 256.167 379.705C255.903 379.968 255.578 380.1 255.192 380.1ZM254.138 382.736H256.22V395.914H254.138V382.736ZM260.95 376.938H263.058V395.914H260.95V376.938ZM267.224 382.736C267.576 382.736 267.848 382.631 268.042 382.42C268.252 382.209 268.358 381.928 268.358 381.576V379.494H270.308V382.736H273.814V384.555H270.308V391.671C270.308 392.532 270.528 393.173 270.967 393.595C271.424 393.999 272.03 394.201 272.786 394.201C273.102 394.201 273.445 394.175 273.814 394.122V395.809C273.322 395.914 272.865 395.967 272.443 395.967C271.705 395.967 271.011 395.818 270.361 395.519C269.711 395.22 269.184 394.755 268.78 394.122C268.393 393.49 268.2 392.672 268.2 391.671V384.555H266.223V382.736H267.224ZM282.134 396.099C280.886 396.099 279.779 395.818 278.813 395.255C277.846 394.693 277.091 393.902 276.546 392.883C276.001 391.847 275.729 390.634 275.729 389.246C275.729 387.875 275.992 386.689 276.52 385.688C277.047 384.669 277.785 383.887 278.734 383.342C279.682 382.78 280.798 382.499 282.081 382.499C283.364 382.499 284.471 382.78 285.402 383.342C286.333 383.887 287.045 384.625 287.537 385.556C288.029 386.487 288.275 387.542 288.275 388.719C288.275 388.912 288.266 389.114 288.248 389.325C288.248 389.536 288.231 389.764 288.196 390.01H277.89C277.96 391.451 278.4 392.532 279.208 393.252C280.016 393.973 280.974 394.333 282.081 394.333C284.189 394.333 285.586 393.551 286.272 391.987L287.985 392.672C287.493 393.709 286.764 394.544 285.797 395.176C284.831 395.791 283.61 396.099 282.134 396.099ZM286.113 388.297C286.131 387.454 285.955 386.733 285.586 386.136C285.217 385.521 284.717 385.064 284.084 384.765C283.469 384.449 282.775 384.291 282.002 384.291C280.965 384.291 280.051 384.634 279.261 385.319C278.488 386.004 278.04 386.997 277.917 388.297H286.113ZM291.785 382.736H293.736L293.841 384.66C294.263 384.08 294.781 383.606 295.396 383.237C296.011 382.85 296.705 382.657 297.478 382.657C297.654 382.657 297.839 382.666 298.032 382.683C298.225 382.701 298.427 382.727 298.638 382.762V384.845C298.234 384.757 297.865 384.713 297.531 384.713C296.934 384.713 296.354 384.88 295.792 385.213C295.229 385.53 294.773 386.022 294.421 386.689C294.07 387.34 293.894 388.157 293.894 389.141V395.914H291.785V382.736Z" fill="white"/>
<path d="M418.948 360.773H393.822C379.411 360.773 367.729 372.456 367.729 386.867C367.729 401.277 379.411 412.96 393.822 412.96H418.948C433.359 412.96 445.042 401.277 445.042 386.867C445.042 372.456 433.359 360.773 418.948 360.773Z" fill="#8778F7"/>
<path d="M419.465 379.499H401.242M397.928 379.499H392.957M419.465 396.067H401.242M397.928 396.067H392.957M411.182 387.783H392.957M419.465 387.783H414.494M399.585 376.186C400.024 376.186 400.446 376.361 400.755 376.672C401.066 376.982 401.242 377.403 401.242 377.842V381.156C401.242 381.596 401.066 382.017 400.755 382.328C400.446 382.639 400.024 382.813 399.585 382.813C399.146 382.813 398.724 382.639 398.413 382.328C398.102 382.017 397.928 381.596 397.928 381.156V377.842C397.928 377.403 398.102 376.982 398.413 376.672C398.724 376.361 399.146 376.186 399.585 376.186ZM399.585 392.753C400.024 392.753 400.446 392.927 400.755 393.238C401.066 393.549 401.242 393.971 401.242 394.41V397.724C401.242 398.164 401.066 398.585 400.755 398.894C400.446 399.206 400.024 399.379 399.585 399.379C399.146 399.379 398.724 399.206 398.413 398.894C398.102 398.585 397.928 398.164 397.928 397.724V394.41C397.928 393.971 398.102 393.549 398.413 393.238C398.724 392.927 399.146 392.753 399.585 392.753ZM412.839 384.47C413.278 384.47 413.698 384.644 414.009 384.955C414.32 385.266 414.494 385.688 414.494 386.127V389.439C414.494 389.879 414.32 390.3 414.009 390.611C413.698 390.922 413.278 391.096 412.839 391.096C412.398 391.096 411.978 390.922 411.667 390.611C411.356 390.3 411.182 389.879 411.182 389.439V386.127C411.182 385.688 411.356 385.266 411.667 384.955C411.978 384.644 412.398 384.47 412.839 384.47Z" stroke="white" stroke-width="1.2" stroke-linecap="round" stroke-linejoin="round"/>
<path d="M737.29 364.773H704.368C699.515 364.773 695.582 368.707 695.582 373.559V401.673C695.582 406.525 699.515 410.458 704.368 410.458H737.29C742.142 410.458 746.076 406.525 746.076 401.673V373.559C746.076 368.707 742.142 364.773 737.29 364.773Z" fill="#8778F7"/>
<path d="M725.551 375.387L733.924 383.481C734.005 383.56 734.07 383.653 734.114 383.757C734.158 383.86 734.181 383.971 734.181 384.083C734.181 384.196 734.158 384.308 734.114 384.412C734.07 384.516 734.005 384.609 733.924 384.688L725.551 392.781C725.476 392.857 725.385 392.916 725.284 392.957C725.186 392.995 725.079 393.017 724.972 393.015C724.748 393.015 724.536 392.927 724.379 392.771C724.223 392.612 724.133 392.4 724.133 392.178V388.004C716.653 388.304 713.506 392.491 713.373 392.669C713.266 392.809 713.118 392.913 712.951 392.967C712.782 393.022 712.603 393.022 712.435 392.971C712.266 392.916 712.12 392.811 712.015 392.669C711.911 392.526 711.855 392.354 711.853 392.178C711.853 383.224 719.21 380.478 724.133 380.198V375.99C724.135 375.825 724.183 375.665 724.274 375.528C724.365 375.391 724.495 375.284 724.648 375.221C724.798 375.156 724.965 375.136 725.125 375.166C725.286 375.196 725.435 375.273 725.551 375.387ZM713.807 376.269C712.401 376.269 711.052 376.828 710.057 377.823C709.063 378.817 708.504 380.165 708.504 381.572V394.41C708.504 395.817 709.063 397.167 710.057 398.16C711.052 399.154 712.401 399.713 713.807 399.713H726.646C728.052 399.713 729.401 399.154 730.396 398.16C731.39 397.167 731.949 395.817 731.949 394.41V393.853C731.949 393.63 731.861 393.417 731.703 393.261C731.547 393.103 731.334 393.015 731.111 393.015C730.89 393.015 730.677 393.103 730.519 393.261C730.362 393.417 730.275 393.63 730.275 393.853V394.41C730.275 395.373 729.892 396.295 729.212 396.977C728.532 397.657 727.609 398.038 726.646 398.038H713.807C712.846 398.038 711.922 397.657 711.242 396.977C710.562 396.295 710.178 395.373 710.178 394.41V381.572C710.178 380.61 710.562 379.687 711.242 379.007C711.922 378.327 712.846 377.944 713.807 377.944H718.83C719.054 377.944 719.266 377.856 719.423 377.698C719.581 377.542 719.669 377.329 719.669 377.106C719.669 376.885 719.581 376.672 719.423 376.514C719.266 376.357 719.054 376.269 718.83 376.269H713.807Z" fill="white"/>
<path d="M675.796 360.773H559.827C554.974 360.773 551.041 364.707 551.041 369.559V406.458C551.041 411.311 554.974 415.244 559.827 415.244H675.796C680.648 415.244 684.582 411.311 684.582 406.458V369.559C684.582 364.707 680.648 360.773 675.796 360.773Z" fill="#8778F7"/>
<path d="M580.337 381.127H572.577V385.808H578.439V387.537H572.577V392.429H580.337V394.158H570.469V379.398H580.337V381.127ZM582.445 383.615H584.828L587.105 387.221L589.319 383.615H591.533L588.138 388.802L591.533 394.158H589.172L586.852 390.532L584.638 394.158H582.445L585.84 388.929L582.445 383.615ZM595.986 398.375H593.877V383.615H595.817L595.964 385.176C596.316 384.684 596.794 384.276 597.398 383.953C598.017 383.615 598.755 383.447 599.612 383.447C600.554 383.447 601.39 383.679 602.121 384.143C602.852 384.592 603.422 385.232 603.829 386.061C604.251 386.877 604.462 387.833 604.462 388.929C604.462 390.011 604.251 390.96 603.829 391.776C603.422 392.591 602.852 393.223 602.121 393.673C601.405 394.109 600.568 394.327 599.612 394.327C598.797 394.327 598.08 394.158 597.462 393.821C596.843 393.483 596.351 393.083 595.986 392.619V398.375ZM602.311 388.929C602.311 387.762 602.009 386.863 601.405 386.23C600.814 385.583 600.083 385.26 599.212 385.26C598.649 385.26 598.122 385.408 597.63 385.703C597.138 385.984 596.738 386.399 596.428 386.947C596.133 387.481 595.986 388.128 595.986 388.887C595.986 389.646 596.133 390.3 596.428 390.848C596.738 391.382 597.138 391.79 597.63 392.071C598.122 392.352 598.649 392.492 599.212 392.492C600.083 392.492 600.814 392.19 601.405 391.586C602.009 390.967 602.311 390.082 602.311 388.929ZM611.612 394.327C610.6 394.327 609.693 394.102 608.892 393.652C608.104 393.202 607.479 392.57 607.015 391.754C606.551 390.939 606.319 389.976 606.319 388.866C606.319 387.755 606.551 386.792 607.015 385.977C607.493 385.162 608.14 384.536 608.955 384.1C609.77 383.651 610.677 383.426 611.675 383.426C612.673 383.426 613.58 383.651 614.395 384.1C615.21 384.536 615.857 385.162 616.335 385.977C616.813 386.792 617.052 387.755 617.052 388.866C617.052 389.976 616.806 390.939 616.314 391.754C615.836 392.57 615.182 393.202 614.353 393.652C613.523 394.102 612.61 394.327 611.612 394.327ZM611.612 392.514C612.16 392.514 612.68 392.38 613.172 392.113C613.678 391.846 614.086 391.445 614.395 390.911C614.718 390.363 614.88 389.681 614.88 388.866C614.88 388.05 614.725 387.376 614.416 386.842C614.107 386.307 613.706 385.914 613.214 385.661C612.722 385.394 612.195 385.26 611.633 385.26C611.084 385.26 610.564 385.394 610.072 385.661C609.594 385.914 609.208 386.307 608.913 386.842C608.617 387.376 608.47 388.05 608.47 388.866C608.47 389.681 608.61 390.363 608.892 390.911C609.187 391.445 609.573 391.846 610.051 392.113C610.529 392.38 611.049 392.514 611.612 392.514ZM619.738 383.615H621.678L621.805 384.965C622.142 384.543 622.543 384.206 623.006 383.953C623.47 383.686 623.983 383.552 624.546 383.552C624.672 383.552 624.813 383.559 624.967 383.573C625.122 383.587 625.284 383.615 625.452 383.658V385.766C625.171 385.696 624.883 385.661 624.588 385.661C624.138 385.661 623.702 385.787 623.281 386.04C622.859 386.279 622.514 386.645 622.247 387.137C621.98 387.615 621.847 388.226 621.847 388.971V394.158H619.738V383.615ZM627.413 383.615C627.723 383.615 627.969 383.517 628.151 383.32C628.348 383.124 628.447 382.87 628.447 382.561V381.022H630.386V383.615H633.022V385.45H630.386V390.553C630.386 391.241 630.541 391.726 630.85 392.007C631.174 392.289 631.623 392.429 632.2 392.429C632.425 392.429 632.699 392.408 633.022 392.366V394.074C632.614 394.158 632.221 394.2 631.841 394.2C631.223 394.2 630.639 394.088 630.091 393.863C629.557 393.624 629.114 393.237 628.763 392.703C628.425 392.169 628.257 391.452 628.257 390.553V385.45H626.76V383.615H627.413Z" fill="white"/>
<path d="M657.241 376.297L664.772 383.577C664.846 383.647 664.902 383.731 664.942 383.824C664.981 383.917 665.002 384.018 665.002 384.12C665.002 384.22 664.981 384.32 664.942 384.413C664.902 384.506 664.846 384.59 664.772 384.661L657.241 391.94C657.173 392.009 657.092 392.062 657.002 392.099C656.912 392.134 656.816 392.153 656.719 392.151C656.521 392.151 656.329 392.072 656.187 391.93C656.046 391.789 655.967 391.598 655.967 391.397V387.643C649.239 387.915 646.408 391.679 646.287 391.84C646.192 391.967 646.059 392.06 645.908 392.109C645.758 392.157 645.595 392.158 645.444 392.111C645.293 392.062 645.161 391.967 645.068 391.839C644.973 391.712 644.922 391.557 644.922 391.397C644.922 383.346 651.539 380.876 655.967 380.625V376.84C655.967 376.69 656.011 376.546 656.094 376.423C656.174 376.3 656.292 376.204 656.429 376.146C656.563 376.088 656.714 376.072 656.858 376.098C657.002 376.125 657.136 376.195 657.241 376.297ZM646.679 377.091C645.414 377.091 644.202 377.594 643.307 378.488C642.413 379.382 641.91 380.595 641.91 381.86V393.406C641.91 394.671 642.413 395.885 643.307 396.78C644.202 397.674 645.414 398.176 646.679 398.176H658.225C659.49 398.176 660.704 397.674 661.599 396.78C662.493 395.885 662.996 394.671 662.996 393.406V392.905C662.996 392.705 662.916 392.513 662.774 392.373C662.634 392.23 662.442 392.151 662.242 392.151C662.041 392.151 661.85 392.23 661.709 392.373C661.569 392.513 661.49 392.705 661.49 392.905V393.406C661.49 394.272 661.145 395.102 660.534 395.713C659.921 396.326 659.091 396.669 658.225 396.669H646.679C645.813 396.669 644.983 396.326 644.372 395.713C643.759 395.102 643.416 394.272 643.416 393.406V381.86C643.416 380.994 643.759 380.164 644.372 379.553C644.983 378.94 645.813 378.597 646.679 378.597H651.197C651.397 378.597 651.588 378.518 651.729 378.376C651.871 378.235 651.95 378.043 651.95 377.843C651.95 377.643 651.871 377.451 651.729 377.311C651.588 377.17 651.397 377.091 651.197 377.091H646.679Z" fill="white"/>
<g filter="url(#filter0_d_2293_4621)">
<path d="M61.8902 338.773L106.781 364.691V416.526L61.8902 442.443L17 416.526V364.691L61.8902 338.773Z" fill="url(#paint0_linear_2293_4621)"/>
</g>
<path d="M61.1683 371.666V408.112M79.3914 389.889H42.9453" stroke="white" stroke-width="2.8125" stroke-linecap="round" stroke-linejoin="round"/>
<g filter="url(#filter1_d_2293_4621)">
<path d="M1276.08 363.773H1241.22C1236.37 363.773 1232.43 367.707 1232.43 372.559V402.43C1232.43 407.282 1236.37 411.215 1241.22 411.215H1276.08C1280.93 411.215 1284.87 407.282 1284.87 402.43V372.559C1284.87 367.707 1280.93 363.773 1276.08 363.773Z" fill="#8778F7"/>
</g>
<path d="M1264.29 383.321H1262.09V376.366C1262.09 375.6 1261.46 374.975 1260.68 374.975H1255.13C1254.36 374.975 1253.74 375.6 1253.74 376.366V383.321H1251.53C1250.28 383.321 1249.67 384.823 1250.53 385.7L1256.92 392.084C1257.47 392.627 1258.35 392.627 1258.87 392.084L1265.27 385.7C1266.15 384.823 1265.53 383.321 1264.29 383.321ZM1248.17 397.232C1248.17 397.996 1248.81 398.622 1249.56 398.622H1266.25C1267.03 398.622 1267.64 397.996 1267.64 397.232C1267.64 396.466 1267.03 395.84 1266.25 395.84H1249.56C1248.81 395.84 1248.17 396.466 1248.17 397.232Z" fill="white"/>
<path d="M975.754 360.773H860.786C855.976 360.773 852.076 364.673 852.076 369.483V406.064C852.076 410.874 855.976 414.773 860.786 414.773H975.754C980.564 414.773 984.463 410.874 984.463 406.064V369.483C984.463 364.673 980.564 360.773 975.754 360.773Z" fill="#8778F7"/>
<path d="M883.617 395.611L888.864 380.979H892.606L897.852 395.611H895.657L894.341 391.848H887.129L885.791 395.611H883.617ZM891.101 382.693H890.348L887.714 390.155H893.734L891.101 382.693ZM903.66 395.778C902.657 395.778 901.765 395.555 900.984 395.109C900.218 394.663 899.619 394.036 899.187 393.228C898.755 392.42 898.539 391.465 898.539 390.364C898.539 389.277 898.755 388.329 899.187 387.521C899.619 386.713 900.218 386.086 900.984 385.64C901.765 385.194 902.657 384.971 903.66 384.971C904.789 384.971 905.757 385.215 906.565 385.703C907.374 386.19 907.966 386.88 908.342 387.772L906.565 388.378C906.342 387.849 905.973 387.452 905.458 387.187C904.956 386.922 904.378 386.79 903.723 386.79C903.179 386.79 902.67 386.936 902.197 387.229C901.737 387.507 901.368 387.911 901.089 388.441C900.81 388.971 900.671 389.612 900.671 390.364C900.671 391.117 900.81 391.765 901.089 392.308C901.368 392.838 901.737 393.249 902.197 393.541C902.67 393.82 903.179 393.959 903.723 393.959C904.364 393.959 904.942 393.841 905.458 393.604C905.973 393.353 906.363 392.949 906.628 392.392L908.363 393.019C907.973 393.855 907.367 394.524 906.545 395.025C905.736 395.527 904.775 395.778 903.66 395.778ZM915.376 395.778C914.373 395.778 913.481 395.555 912.701 395.109C911.934 394.663 911.335 394.036 910.903 393.228C910.471 392.42 910.255 391.465 910.255 390.364C910.255 389.277 910.471 388.329 910.903 387.521C911.335 386.713 911.934 386.086 912.701 385.64C913.481 385.194 914.373 384.971 915.376 384.971C916.505 384.971 917.473 385.215 918.282 385.703C919.09 386.19 919.682 386.88 920.058 387.772L918.282 388.378C918.059 387.849 917.689 387.452 917.174 387.187C916.672 386.922 916.094 386.79 915.439 386.79C914.895 386.79 914.387 386.936 913.913 387.229C913.453 387.507 913.084 387.911 912.805 388.441C912.526 388.971 912.387 389.612 912.387 390.364C912.387 391.117 912.526 391.765 912.805 392.308C913.084 392.838 913.453 393.249 913.913 393.541C914.387 393.82 914.895 393.959 915.439 393.959C916.08 393.959 916.658 393.841 917.174 393.604C917.689 393.353 918.08 392.949 918.344 392.392L920.079 393.019C919.689 393.855 919.083 394.524 918.261 395.025C917.453 395.527 916.491 395.778 915.376 395.778ZM927.115 395.778C926.112 395.778 925.22 395.555 924.439 395.109C923.673 394.663 923.067 394.036 922.621 393.228C922.189 392.406 921.973 391.444 921.973 390.343C921.973 389.256 922.182 388.309 922.6 387.5C923.018 386.692 923.61 386.072 924.377 385.64C925.143 385.194 926.042 384.971 927.073 384.971C928.077 384.971 928.948 385.187 929.686 385.619C930.439 386.051 931.017 386.65 931.421 387.417C931.839 388.183 932.048 389.054 932.048 390.03C932.048 390.197 932.041 390.371 932.027 390.552C932.027 390.733 932.006 390.928 931.965 391.137H924.126C924.196 392.071 924.502 392.782 925.046 393.27C925.603 393.757 926.279 394.001 927.073 394.001C927.812 394.001 928.439 393.876 928.955 393.625C929.484 393.374 929.874 392.991 930.125 392.475L931.839 393.081C931.435 393.904 930.836 394.559 930.042 395.046C929.261 395.534 928.286 395.778 927.115 395.778ZM929.874 389.444C929.86 388.58 929.575 387.918 929.017 387.459C928.46 386.985 927.777 386.748 926.969 386.748C926.258 386.748 925.638 386.985 925.108 387.459C924.579 387.932 924.258 388.594 924.147 389.444H929.874ZM936.795 399.791H934.705V385.159H936.628L936.774 386.706C937.123 386.218 937.596 385.814 938.196 385.494C938.809 385.159 939.54 384.992 940.39 384.992C941.324 384.992 942.153 385.222 942.878 385.682C943.602 386.128 944.167 386.762 944.571 387.584C944.989 388.392 945.198 389.34 945.198 390.427C945.198 391.5 944.989 392.44 944.571 393.249C944.167 394.057 943.602 394.684 942.878 395.13C942.167 395.562 941.338 395.778 940.39 395.778C939.582 395.778 938.871 395.611 938.258 395.276C937.645 394.942 937.157 394.545 936.795 394.085V399.791ZM943.066 390.427C943.066 389.27 942.766 388.378 942.167 387.751C941.582 387.11 940.857 386.79 939.993 386.79C939.436 386.79 938.913 386.936 938.425 387.229C937.938 387.507 937.541 387.918 937.234 388.462C936.941 388.991 936.795 389.632 936.795 390.385C936.795 391.137 936.941 391.785 937.234 392.329C937.541 392.859 937.938 393.263 938.425 393.541C938.913 393.82 939.436 393.959 939.993 393.959C940.857 393.959 941.582 393.66 942.167 393.061C942.766 392.447 943.066 391.569 943.066 390.427ZM947.436 385.159C947.743 385.159 947.987 385.062 948.168 384.867C948.363 384.671 948.461 384.421 948.461 384.114V382.588H950.384V385.159H952.997V386.978H950.384V392.036C950.384 392.719 950.537 393.2 950.844 393.479C951.164 393.757 951.61 393.897 952.181 393.897C952.404 393.897 952.676 393.876 952.997 393.834V395.527C952.593 395.611 952.202 395.653 951.826 395.653C951.213 395.653 950.635 395.541 950.091 395.318C949.562 395.081 949.123 394.698 948.774 394.168C948.44 393.639 948.273 392.928 948.273 392.036V386.978H946.788V385.159H947.436Z" fill="white"/>
<path d="M1118.59 361.645H1003.63C999.297 361.645 995.787 365.154 995.787 369.483V406.064C995.787 410.393 999.297 413.903 1003.63 413.903H1118.59C1122.92 413.903 1126.43 410.393 1126.43 406.064V369.483C1126.43 365.154 1122.92 361.645 1118.59 361.645Z" stroke="#8778F7"/>
<path d="M1029.66 380.979C1031.24 380.979 1032.6 381.278 1033.76 381.877C1034.92 382.477 1035.81 383.327 1036.44 384.428C1037.06 385.529 1037.38 386.839 1037.38 388.357C1037.38 389.849 1037.06 391.138 1036.44 392.225C1035.81 393.312 1034.92 394.148 1033.76 394.733C1032.6 395.318 1031.24 395.611 1029.66 395.611H1024.63V380.979H1029.66ZM1029.66 393.897C1031.49 393.897 1032.87 393.409 1033.8 392.434C1034.75 391.444 1035.22 390.085 1035.22 388.357C1035.22 386.616 1034.75 385.236 1033.8 384.219C1032.87 383.201 1031.49 382.693 1029.66 382.693H1026.72V393.897H1029.66ZM1044.45 395.778C1043.44 395.778 1042.55 395.555 1041.77 395.109C1041 394.663 1040.4 394.036 1039.95 393.228C1039.52 392.406 1039.3 391.444 1039.3 390.343C1039.3 389.256 1039.51 388.309 1039.93 387.5C1040.35 386.692 1040.94 386.072 1041.71 385.64C1042.47 385.194 1043.37 384.971 1044.4 384.971C1045.41 384.971 1046.28 385.187 1047.02 385.619C1047.77 386.051 1048.35 386.65 1048.75 387.417C1049.17 388.183 1049.38 389.054 1049.38 390.03C1049.38 390.197 1049.37 390.371 1049.36 390.552C1049.36 390.733 1049.34 390.929 1049.3 391.138H1041.46C1041.53 392.071 1041.83 392.782 1042.38 393.27C1042.93 393.757 1043.61 394.001 1044.4 394.001C1045.14 394.001 1045.77 393.876 1046.29 393.625C1046.82 393.374 1047.21 392.991 1047.46 392.475L1049.17 393.082C1048.77 393.904 1048.17 394.559 1047.37 395.046C1046.59 395.534 1045.62 395.778 1044.45 395.778ZM1047.21 389.444C1047.19 388.58 1046.91 387.919 1046.35 387.459C1045.79 386.985 1045.11 386.748 1044.3 386.748C1043.59 386.748 1042.97 386.985 1042.44 387.459C1041.91 387.932 1041.59 388.594 1041.48 389.444H1047.21ZM1056.51 395.778C1055.51 395.778 1054.62 395.555 1053.84 395.109C1053.07 394.663 1052.47 394.036 1052.04 393.228C1051.61 392.42 1051.39 391.465 1051.39 390.364C1051.39 389.277 1051.61 388.33 1052.04 387.521C1052.47 386.713 1053.07 386.086 1053.84 385.64C1054.62 385.194 1055.51 384.971 1056.51 384.971C1057.64 384.971 1058.61 385.215 1059.42 385.703C1060.23 386.191 1060.82 386.88 1061.19 387.772L1059.42 388.378C1059.19 387.849 1058.82 387.452 1058.31 387.187C1057.81 386.922 1057.23 386.79 1056.57 386.79C1056.03 386.79 1055.52 386.936 1055.05 387.229C1054.59 387.507 1054.22 387.912 1053.94 388.441C1053.66 388.971 1053.52 389.612 1053.52 390.364C1053.52 391.117 1053.66 391.765 1053.94 392.308C1054.22 392.838 1054.59 393.249 1055.05 393.541C1055.52 393.82 1056.03 393.96 1056.57 393.96C1057.22 393.96 1057.79 393.841 1058.31 393.604C1058.82 393.353 1059.21 392.949 1059.48 392.392L1061.21 393.019C1060.82 393.855 1060.22 394.524 1059.4 395.026C1058.59 395.527 1057.63 395.778 1056.51 395.778ZM1064.06 380.561H1066.15V395.611H1064.06V380.561ZM1070.81 383.32C1070.43 383.32 1070.11 383.194 1069.85 382.944C1069.6 382.693 1069.47 382.386 1069.47 382.024C1069.47 381.634 1069.6 381.313 1069.85 381.062C1070.11 380.811 1070.43 380.686 1070.81 380.686C1071.17 380.686 1071.48 380.811 1071.73 381.062C1071.99 381.313 1072.13 381.634 1072.13 382.024C1072.13 382.386 1071.99 382.693 1071.73 382.944C1071.48 383.194 1071.17 383.32 1070.81 383.32ZM1069.74 385.159H1071.83V395.611H1069.74V385.159ZM1082.58 389.758C1082.58 388.783 1082.36 388.044 1081.93 387.542C1081.51 387.041 1080.91 386.79 1080.11 386.79C1079.32 386.79 1078.68 387.048 1078.21 387.563C1077.75 388.079 1077.52 388.845 1077.52 389.863V395.611H1075.43V385.159H1077.35L1077.5 386.33C1077.85 385.898 1078.28 385.563 1078.8 385.327C1079.33 385.09 1079.9 384.971 1080.53 384.971C1081.74 384.971 1082.73 385.354 1083.5 386.121C1084.28 386.873 1084.67 388.002 1084.67 389.507V395.611H1082.58V389.758ZM1092.3 395.778C1091.29 395.778 1090.4 395.555 1089.62 395.109C1088.85 394.663 1088.25 394.036 1087.8 393.228C1087.37 392.406 1087.15 391.444 1087.15 390.343C1087.15 389.256 1087.36 388.309 1087.78 387.5C1088.2 386.692 1088.79 386.072 1089.56 385.64C1090.32 385.194 1091.22 384.971 1092.25 384.971C1093.26 384.971 1094.13 385.187 1094.87 385.619C1095.62 386.051 1096.2 386.65 1096.6 387.417C1097.02 388.183 1097.23 389.054 1097.23 390.03C1097.23 390.197 1097.22 390.371 1097.21 390.552C1097.21 390.733 1097.19 390.929 1097.15 391.138H1089.31C1089.38 392.071 1089.68 392.782 1090.23 393.27C1090.78 393.757 1091.46 394.001 1092.25 394.001C1092.99 394.001 1093.62 393.876 1094.14 393.625C1094.66 393.374 1095.06 392.991 1095.31 392.475L1097.02 393.082C1096.62 393.904 1096.02 394.559 1095.22 395.046C1094.44 395.534 1093.47 395.778 1092.3 395.778ZM1095.06 389.444C1095.04 388.58 1094.76 387.919 1094.2 387.459C1093.64 386.985 1092.96 386.748 1092.15 386.748C1091.44 386.748 1090.82 386.985 1090.29 387.459C1089.76 387.932 1089.44 388.594 1089.33 389.444H1095.06Z" fill="#8778F7"/>
<path d="M849.483 21L846.651 12.6H847.563L850.215 20.508H849.759L852.495 12.6H853.311L856.011 20.508H855.579L858.255 12.6H859.107L856.275 21H855.339L852.759 13.5H852.999L850.407 21H849.483ZM860.503 15.768V15.06H865.723V15.768H860.503ZM860.503 18.54V17.832H865.723V18.54H860.503ZM868.773 21V12.96L869.157 13.368H866.793V12.6H869.637V21H868.773ZM874.273 21.072C873.665 21.072 873.089 20.976 872.545 20.784C872.009 20.584 871.577 20.32 871.249 19.992L871.669 19.308C871.941 19.588 872.305 19.82 872.761 20.004C873.225 20.188 873.729 20.28 874.273 20.28C874.969 20.28 875.501 20.128 875.869 19.824C876.245 19.52 876.433 19.112 876.433 18.6C876.433 18.088 876.249 17.68 875.881 17.376C875.521 17.072 874.949 16.92 874.165 16.92H873.565V16.284L876.157 13.032L876.277 13.368H871.597V12.6H876.997V13.212L874.405 16.464L873.985 16.188H874.309C875.317 16.188 876.069 16.412 876.565 16.86C877.069 17.308 877.321 17.884 877.321 18.588C877.321 19.06 877.209 19.484 876.985 19.86C876.761 20.236 876.421 20.532 875.965 20.748C875.517 20.964 874.953 21.072 874.273 21.072ZM882.103 21.072C881.359 21.072 880.731 20.908 880.219 20.58C879.707 20.244 879.319 19.764 879.055 19.14C878.791 18.508 878.659 17.752 878.659 16.872C878.659 15.92 878.819 15.124 879.139 14.484C879.467 13.836 879.919 13.348 880.495 13.02C881.071 12.692 881.739 12.528 882.499 12.528C882.875 12.528 883.235 12.564 883.579 12.636C883.923 12.708 884.227 12.824 884.491 12.984L884.143 13.68C883.927 13.536 883.679 13.436 883.399 13.38C883.119 13.316 882.823 13.284 882.511 13.284C881.607 13.284 880.883 13.572 880.339 14.148C879.803 14.724 879.535 15.584 879.535 16.728C879.535 16.904 879.543 17.124 879.559 17.388C879.583 17.644 879.631 17.9 879.703 18.156L879.403 17.928C879.491 17.512 879.663 17.16 879.919 16.872C880.175 16.576 880.495 16.352 880.879 16.2C881.263 16.048 881.683 15.972 882.139 15.972C882.699 15.972 883.191 16.076 883.615 16.284C884.039 16.492 884.371 16.784 884.611 17.16C884.851 17.536 884.971 17.98 884.971 18.492C884.971 19.012 884.847 19.468 884.599 19.86C884.351 20.244 884.007 20.544 883.567 20.76C883.135 20.968 882.647 21.072 882.103 21.072ZM882.067 20.34C882.467 20.34 882.819 20.268 883.123 20.124C883.435 19.972 883.679 19.76 883.855 19.488C884.031 19.208 884.119 18.884 884.119 18.516C884.119 17.964 883.927 17.524 883.543 17.196C883.167 16.868 882.655 16.704 882.007 16.704C881.575 16.704 881.199 16.784 880.879 16.944C880.559 17.104 880.307 17.324 880.123 17.604C879.939 17.876 879.847 18.188 879.847 18.54C879.847 18.844 879.931 19.136 880.099 19.416C880.267 19.688 880.515 19.912 880.843 20.088C881.179 20.256 881.587 20.34 882.067 20.34Z" fill="#2B2B2B"/>
<path d="M927.561 25.3536C927.756 25.1583 927.756 24.8417 927.561 24.6464L924.379 21.4645C924.183 21.2692 923.867 21.2692 923.672 21.4645C923.476 21.6597 923.476 21.9763 923.672 22.1716L926.5 25L923.672 27.8284C923.476 28.0237 923.476 28.3403 923.672 28.5355C923.867 28.7308 924.183 28.7308 924.379 28.5355L927.561 25.3536ZM807.207 25.5H927.207V24.5H807.207V25.5Z" fill="#2B2B2B"/>
<path d="M954.178 64.6H955.054V73H954.178V64.6ZM948.922 73H948.034V64.6H948.922V73ZM954.262 69.124H948.826V68.344H954.262V69.124ZM957.388 67.768V67.06H962.608V67.768H957.388ZM957.388 70.54V69.832H962.608V70.54H957.388ZM966.702 73.072C966.094 73.072 965.518 72.976 964.974 72.784C964.438 72.584 964.006 72.32 963.678 71.992L964.098 71.308C964.37 71.588 964.734 71.82 965.19 72.004C965.654 72.188 966.158 72.28 966.702 72.28C967.398 72.28 967.93 72.128 968.298 71.824C968.674 71.52 968.862 71.112 968.862 70.6C968.862 70.088 968.678 69.68 968.31 69.376C967.95 69.072 967.378 68.92 966.594 68.92H965.994V68.284L968.586 65.032L968.706 65.368H964.026V64.6H969.426V65.212L966.834 68.464L966.414 68.188H966.738C967.746 68.188 968.498 68.412 968.994 68.86C969.498 69.308 969.75 69.884 969.75 70.588C969.75 71.06 969.638 71.484 969.414 71.86C969.19 72.236 968.85 72.532 968.394 72.748C967.946 72.964 967.382 73.072 966.702 73.072ZM972.411 73L976.035 64.984L976.299 65.368H971.103L971.547 64.948V66.94H970.695V64.6H976.863V65.212L973.347 73H972.411Z" fill="#2B2B2B"/>
<path d="M943.312 87.3536C943.508 87.5488 943.824 87.5488 944.02 87.3536L947.202 84.1716C947.397 83.9763 947.397 83.6597 947.202 83.4645C947.006 83.2692 946.69 83.2692 946.494 83.4645L943.666 86.2929L940.838 83.4645C940.642 83.2692 940.326 83.2692 940.13 83.4645C939.935 83.6597 939.935 83.9763 940.13 84.1716L943.312 87.3536ZM943.166 50L943.166 87L944.166 87L944.166 50L943.166 50Z" fill="#2B2B2B"/>
<path d="M910.667 38H724C712.954 38 704 46.9543 704 58V79.6666C704 90.7123 712.954 99.6666 724 99.6666H910.667C921.712 99.6666 930.667 90.7123 930.667 79.6666V58C930.667 46.9543 921.712 38 910.667 38Z" fill="#8778F7"/>
<path d="M773.878 77.166H770.428V59.666H774.303L779.928 72.716L785.528 59.666H789.378V77.166H785.953V65.891L781.203 77.166H778.628L773.878 65.891V77.166ZM798.459 77.366C797.259 77.366 796.184 77.0993 795.234 76.566C794.284 76.0327 793.534 75.2827 792.984 74.316C792.451 73.3493 792.184 72.2077 792.184 70.891C792.184 69.5743 792.443 68.441 792.959 67.491C793.476 66.5244 794.201 65.7744 795.134 65.241C796.068 64.7077 797.159 64.441 798.409 64.441C799.609 64.441 800.668 64.6994 801.584 65.216C802.518 65.7327 803.243 66.4577 803.759 67.391C804.276 68.3243 804.534 69.4077 804.534 70.641C804.534 70.841 804.526 71.0577 804.509 71.291C804.493 71.5077 804.459 71.7494 804.409 72.016H795.684C795.784 72.7994 796.093 73.416 796.609 73.866C797.143 74.2994 797.768 74.516 798.484 74.516C799.184 74.516 799.793 74.416 800.309 74.216C800.843 73.9993 801.234 73.6494 801.484 73.166L804.309 73.991C803.809 75.0577 803.068 75.8827 802.084 76.466C801.101 77.0493 799.893 77.3493 798.459 77.366ZM800.984 69.616C800.934 68.866 800.659 68.2827 800.159 67.866C799.659 67.4493 799.043 67.241 798.309 67.241C797.659 67.241 797.101 67.4577 796.634 67.891C796.168 68.3243 795.859 68.8994 795.709 69.616H800.984ZM815.791 59.166H819.216V77.166H816.091L815.866 75.616C815.433 76.066 814.891 76.4743 814.241 76.841C813.591 77.191 812.824 77.366 811.941 77.366C810.874 77.366 809.916 77.0993 809.066 76.566C808.216 76.016 807.549 75.2577 807.066 74.291C806.583 73.3077 806.341 72.166 806.341 70.866C806.341 69.566 806.583 68.441 807.066 67.491C807.549 66.5244 808.208 65.7744 809.041 65.241C809.891 64.7077 810.858 64.441 811.941 64.441C812.758 64.441 813.491 64.5993 814.141 64.916C814.808 65.2327 815.358 65.6077 815.791 66.041V59.166ZM809.816 70.866C809.816 71.9827 810.099 72.8493 810.666 73.466C811.249 74.0827 811.933 74.391 812.716 74.391C813.249 74.391 813.749 74.2577 814.216 73.991C814.683 73.7077 815.058 73.3077 815.341 72.791C815.641 72.2743 815.791 71.641 815.791 70.891C815.791 70.1577 815.641 69.5327 815.341 69.016C815.058 68.4994 814.683 68.1077 814.216 67.841C813.749 67.5743 813.249 67.441 812.716 67.441C811.933 67.441 811.249 67.7327 810.666 68.316C810.099 68.8994 809.816 69.7494 809.816 70.866ZM824.573 63.066C823.973 63.066 823.481 62.8827 823.098 62.516C822.714 62.1327 822.523 61.666 822.523 61.116C822.523 60.566 822.714 60.1077 823.098 59.741C823.481 59.3577 823.973 59.166 824.573 59.166C825.173 59.166 825.664 59.3577 826.048 59.741C826.431 60.1077 826.623 60.566 826.623 61.116C826.623 61.666 826.431 62.1327 826.048 62.516C825.664 62.8827 825.173 63.066 824.573 63.066ZM822.848 64.666H826.273V77.166H822.848V64.666ZM833.146 71.541C833.146 72.4743 833.354 73.191 833.771 73.691C834.188 74.1743 834.779 74.416 835.546 74.416C836.313 74.416 836.913 74.1743 837.346 73.691C837.779 73.191 837.996 72.466 837.996 71.516V64.666H841.446V77.166H838.296L838.071 75.816C837.654 76.2827 837.154 76.6494 836.571 76.916C835.988 77.1827 835.354 77.316 834.671 77.316C833.188 77.316 831.996 76.8577 831.096 75.941C830.196 75.0077 829.746 73.6744 829.746 71.941V64.666H833.146V71.541ZM852.939 70.266C852.939 68.3827 852.156 67.441 850.589 67.441C849.823 67.441 849.223 67.6827 848.789 68.166C848.356 68.6494 848.139 69.3577 848.139 70.291V77.166H844.714V64.666H847.839L848.064 65.916C848.481 65.466 848.973 65.116 849.539 64.866C850.123 64.5993 850.748 64.466 851.414 64.466C853.248 64.466 854.598 65.1327 855.464 66.466C855.898 65.8494 856.481 65.366 857.214 65.016C857.948 64.6494 858.731 64.466 859.564 64.466C861.081 64.466 862.298 64.9327 863.214 65.866C864.131 66.7827 864.589 68.1077 864.589 69.841V77.166H861.189V70.266C861.189 68.3827 860.398 67.441 858.814 67.441C858.048 67.441 857.439 67.6827 856.989 68.166C856.556 68.6494 856.339 69.366 856.339 70.316V77.166H852.939V70.266Z" fill="white"/>
<path d="M1176.28 22L1173.44 13.6H1174.36L1177.01 21.508H1176.55L1179.29 13.6H1180.1L1182.8 21.508H1182.37L1185.05 13.6H1185.9L1183.07 22H1182.13L1179.55 14.5H1179.79L1177.2 22H1176.28ZM1187.3 16.768V16.06H1192.52V16.768H1187.3ZM1187.3 19.54V18.832H1192.52V19.54H1187.3ZM1195.57 22V13.96L1195.95 14.368H1193.59V13.6H1196.43V22H1195.57ZM1198.4 22V21.388L1201.89 17.968C1202.21 17.656 1202.45 17.384 1202.61 17.152C1202.77 16.912 1202.88 16.688 1202.94 16.48C1202.99 16.272 1203.02 16.076 1203.02 15.892C1203.02 15.404 1202.85 15.02 1202.52 14.74C1202.19 14.46 1201.7 14.32 1201.05 14.32C1200.56 14.32 1200.12 14.396 1199.73 14.548C1199.36 14.7 1199.03 14.936 1198.76 15.256L1198.15 14.728C1198.48 14.344 1198.9 14.048 1199.41 13.84C1199.92 13.632 1200.49 13.528 1201.13 13.528C1201.69 13.528 1202.19 13.62 1202.6 13.804C1203.02 13.98 1203.34 14.24 1203.56 14.584C1203.79 14.928 1203.91 15.332 1203.91 15.796C1203.91 16.068 1203.87 16.336 1203.79 16.6C1203.72 16.864 1203.58 17.144 1203.38 17.44C1203.19 17.728 1202.91 18.056 1202.53 18.424L1199.33 21.568L1199.09 21.232H1204.29V22H1198.4ZM1208.11 13.528C1208.86 13.528 1209.49 13.696 1210 14.032C1210.51 14.36 1210.9 14.836 1211.16 15.46C1211.43 16.084 1211.56 16.84 1211.56 17.728C1211.56 18.672 1211.39 19.468 1211.07 20.116C1210.75 20.764 1210.3 21.252 1209.72 21.58C1209.15 21.908 1208.48 22.072 1207.72 22.072C1207.34 22.072 1206.98 22.036 1206.64 21.964C1206.3 21.892 1206 21.776 1205.73 21.616L1206.07 20.92C1206.29 21.064 1206.54 21.168 1206.82 21.232C1207.11 21.288 1207.4 21.316 1207.71 21.316C1208.61 21.316 1209.33 21.028 1209.87 20.452C1210.41 19.876 1210.68 19.016 1210.68 17.872C1210.68 17.688 1210.67 17.468 1210.65 17.212C1210.63 16.956 1210.59 16.7 1210.51 16.444L1210.81 16.672C1210.73 17.088 1210.56 17.444 1210.3 17.74C1210.04 18.028 1209.72 18.248 1209.34 18.4C1208.96 18.552 1208.54 18.628 1208.08 18.628C1207.53 18.628 1207.03 18.524 1206.6 18.316C1206.18 18.108 1205.85 17.816 1205.61 17.44C1205.37 17.064 1205.25 16.62 1205.25 16.108C1205.25 15.58 1205.37 15.124 1205.62 14.74C1205.87 14.356 1206.21 14.06 1206.64 13.852C1207.08 13.636 1207.57 13.528 1208.11 13.528ZM1208.15 14.26C1207.75 14.26 1207.39 14.336 1207.08 14.488C1206.78 14.632 1206.54 14.84 1206.36 15.112C1206.19 15.384 1206.1 15.708 1206.1 16.084C1206.1 16.636 1206.29 17.076 1206.66 17.404C1207.05 17.732 1207.56 17.896 1208.21 17.896C1208.64 17.896 1209.02 17.816 1209.34 17.656C1209.67 17.496 1209.92 17.276 1210.09 16.996C1210.28 16.716 1210.37 16.404 1210.37 16.06C1210.37 15.748 1210.29 15.456 1210.12 15.184C1209.95 14.912 1209.7 14.692 1209.37 14.524C1209.05 14.348 1208.64 14.26 1208.15 14.26Z" fill="#2B2B2B"/>
<path d="M1254.35 26.3536C1254.55 26.1583 1254.55 25.8417 1254.35 25.6464L1251.17 22.4645C1250.98 22.2692 1250.66 22.2692 1250.46 22.4645C1250.27 22.6597 1250.27 22.9763 1250.46 23.1716L1253.29 26L1250.46 28.8284C1250.27 29.0237 1250.27 29.3403 1250.46 29.5355C1250.66 29.7308 1250.98 29.7308 1251.17 29.5355L1254.35 26.3536ZM1134 26.5H1254V25.5H1134V26.5Z" fill="#2B2B2B"/>
<path d="M1277.51 62.6H1278.39V71H1277.51V62.6ZM1272.26 71H1271.37V62.6H1272.26V71ZM1277.6 67.124H1272.16V66.344H1277.6V67.124ZM1280.72 65.768V65.06H1285.94V65.768H1280.72ZM1280.72 68.54V67.832H1285.94V68.54H1280.72ZM1290.04 71.072C1289.43 71.072 1288.85 70.976 1288.31 70.784C1287.77 70.584 1287.34 70.32 1287.01 69.992L1287.43 69.308C1287.7 69.588 1288.07 69.82 1288.52 70.004C1288.99 70.188 1289.49 70.28 1290.04 70.28C1290.73 70.28 1291.26 70.128 1291.63 69.824C1292.01 69.52 1292.2 69.112 1292.2 68.6C1292.2 68.088 1292.01 67.68 1291.64 67.376C1291.28 67.072 1290.71 66.92 1289.93 66.92H1289.33V66.284L1291.92 63.032L1292.04 63.368H1287.36V62.6H1292.76V63.212L1290.17 66.464L1289.75 66.188H1290.07C1291.08 66.188 1291.83 66.412 1292.33 66.86C1292.83 67.308 1293.08 67.884 1293.08 68.588C1293.08 69.06 1292.97 69.484 1292.75 69.86C1292.52 70.236 1292.18 70.532 1291.73 70.748C1291.28 70.964 1290.72 71.072 1290.04 71.072ZM1296.87 71.072C1296.26 71.072 1295.69 70.976 1295.14 70.784C1294.61 70.584 1294.17 70.32 1293.85 69.992L1294.27 69.308C1294.54 69.588 1294.9 69.82 1295.36 70.004C1295.82 70.188 1296.33 70.28 1296.87 70.28C1297.57 70.28 1298.1 70.128 1298.47 69.824C1298.84 69.52 1299.03 69.112 1299.03 68.6C1299.03 68.088 1298.85 67.68 1298.48 67.376C1298.12 67.072 1297.55 66.92 1296.76 66.92H1296.16V66.284L1298.75 63.032L1298.87 63.368H1294.19V62.6H1299.59V63.212L1297 66.464L1296.58 66.188H1296.91C1297.91 66.188 1298.67 66.412 1299.16 66.86C1299.67 67.308 1299.92 67.884 1299.92 68.588C1299.92 69.06 1299.81 69.484 1299.58 69.86C1299.36 70.236 1299.02 70.532 1298.56 70.748C1298.11 70.964 1297.55 71.072 1296.87 71.072Z" fill="#2B2B2B"/>
<path d="M1266.65 85.3536C1266.84 85.5488 1267.16 85.5488 1267.35 85.3536L1270.54 82.1716C1270.73 81.9763 1270.73 81.6597 1270.54 81.4645C1270.34 81.2692 1270.02 81.2692 1269.83 81.4645L1267 84.2929L1264.17 81.4645C1263.98 81.2692 1263.66 81.2692 1263.46 81.4645C1263.27 81.6597 1263.27 81.9763 1263.46 82.1716L1266.65 85.3536ZM1266.5 48L1266.5 85L1267.5 85L1267.5 48L1266.5 48Z" fill="#2B2B2B"/>
<path d="M1234 39H1059C1047.95 39 1039 47.9543 1039 59V74C1039 85.0457 1047.95 94 1059 94H1234C1245.05 94 1254 85.0457 1254 74V59C1254 47.9543 1245.05 39 1234 39Z" fill="#8778F7"/>
<path d="M1118.31 70.007C1118.46 70.707 1118.82 71.2487 1119.41 71.632C1120.01 72.0154 1120.72 72.207 1121.56 72.207C1122.41 72.207 1123.08 71.9987 1123.58 71.582C1124.1 71.1654 1124.36 70.632 1124.36 69.982C1124.36 69.432 1124.19 68.9987 1123.86 68.682C1123.54 68.3487 1123.11 68.082 1122.56 67.882C1122.02 67.6654 1121.43 67.4737 1120.78 67.307C1120.15 67.1237 1119.51 66.9237 1118.86 66.707C1118.21 66.4737 1117.61 66.182 1117.08 65.832C1116.55 65.4654 1116.11 64.9904 1115.78 64.407C1115.46 63.8237 1115.31 63.0737 1115.31 62.157C1115.31 61.107 1115.56 60.207 1116.08 59.457C1116.61 58.6904 1117.34 58.107 1118.26 57.707C1119.19 57.307 1120.26 57.107 1121.46 57.107C1122.99 57.107 1124.29 57.432 1125.36 58.082C1126.42 58.732 1127.14 59.6487 1127.51 60.832L1124.38 61.707C1124.25 61.1904 1123.91 60.7737 1123.38 60.457C1122.85 60.1237 1122.22 59.9487 1121.51 59.932C1120.79 59.8987 1120.16 60.0654 1119.61 60.432C1119.07 60.782 1118.81 61.3237 1118.81 62.057C1118.81 62.557 1118.96 62.9654 1119.28 63.282C1119.61 63.5987 1120.05 63.8654 1120.58 64.082C1121.13 64.2987 1121.72 64.4987 1122.36 64.682C1123.01 64.8654 1123.65 65.0737 1124.28 65.307C1124.93 65.5404 1125.52 65.8487 1126.06 66.232C1126.61 66.5987 1127.04 67.0737 1127.36 67.657C1127.69 68.2404 1127.86 68.9654 1127.86 69.832C1127.86 70.7654 1127.61 71.6237 1127.13 72.407C1126.66 73.1904 1125.96 73.8237 1125.03 74.307C1124.11 74.7737 1123 75.007 1121.68 75.007C1120.61 75.007 1119.62 74.8487 1118.71 74.532C1117.79 74.1987 1117.01 73.732 1116.38 73.132C1115.75 72.5154 1115.33 71.7654 1115.13 70.882L1118.31 70.007ZM1138.82 67.932C1138.82 66.0487 1138.04 65.107 1136.47 65.107C1135.71 65.107 1135.11 65.3487 1134.67 65.832C1134.24 66.3154 1134.02 67.0237 1134.02 67.957V74.832H1130.6V62.332H1133.72L1133.95 63.582C1134.36 63.132 1134.86 62.782 1135.42 62.532C1136.01 62.2654 1136.63 62.132 1137.3 62.132C1139.13 62.132 1140.48 62.7987 1141.35 64.132C1141.78 63.5154 1142.37 63.032 1143.1 62.682C1143.83 62.3154 1144.62 62.132 1145.45 62.132C1146.97 62.132 1148.18 62.5987 1149.1 63.532C1150.02 64.4487 1150.47 65.7737 1150.47 67.507V74.832H1147.07V67.932C1147.07 66.0487 1146.28 65.107 1144.7 65.107C1143.93 65.107 1143.32 65.3487 1142.87 65.832C1142.43 66.3154 1142.22 67.032 1142.22 67.982V74.832H1138.82V67.932ZM1160.82 74.832L1160.57 73.307C1160.2 73.7737 1159.75 74.182 1159.22 74.532C1158.7 74.882 1158.03 75.057 1157.22 75.057C1155.95 75.057 1154.93 74.732 1154.15 74.082C1153.37 73.432 1152.97 72.532 1152.97 71.382C1152.97 70.4653 1153.23 69.7404 1153.75 69.207C1154.27 68.657 1154.93 68.2487 1155.77 67.982C1156.6 67.7154 1157.48 67.5237 1158.42 67.407C1159.13 67.307 1159.67 67.1904 1160.02 67.057C1160.38 66.9237 1160.57 66.6654 1160.57 66.282C1160.57 65.932 1160.42 65.632 1160.12 65.382C1159.82 65.1154 1159.32 64.982 1158.62 64.982C1158.07 64.982 1157.58 65.1237 1157.15 65.407C1156.72 65.6904 1156.42 66.107 1156.27 66.657L1153.37 65.632C1153.7 64.532 1154.35 63.6654 1155.32 63.032C1156.28 62.3987 1157.43 62.082 1158.75 62.082C1160.38 62.082 1161.67 62.5404 1162.62 63.457C1163.57 64.357 1164.05 65.707 1164.05 67.507V74.832H1160.82ZM1160.57 69.457L1158.27 69.782C1157.57 69.882 1157.08 70.0404 1156.82 70.257C1156.55 70.457 1156.42 70.7487 1156.42 71.132C1156.42 71.4987 1156.57 71.782 1156.85 71.982C1157.15 72.182 1157.55 72.282 1158.07 72.282C1158.73 72.282 1159.32 72.057 1159.82 71.607C1160.32 71.1404 1160.57 70.4487 1160.57 69.532V69.457ZM1167.2 56.832H1170.62V74.832H1167.2V56.832ZM1173.9 56.832H1177.33V74.832H1173.9V56.832Z" fill="white"/>
<path d="M512.276 12L509.444 3.6H510.356L513.008 11.508H512.552L515.288 3.6H516.104L518.804 11.508H518.372L521.048 3.6H521.9L519.068 12H518.132L515.552 4.5H515.792L513.2 12H512.276ZM523.296 6.768V6.06H528.516V6.768H523.296ZM523.296 9.54V8.832H528.516V9.54H523.296ZM532.61 12.072C532.002 12.072 531.426 11.976 530.882 11.784C530.346 11.584 529.914 11.32 529.586 10.992L530.006 10.308C530.278 10.588 530.642 10.82 531.098 11.004C531.562 11.188 532.066 11.28 532.61 11.28C533.306 11.28 533.838 11.128 534.206 10.824C534.582 10.52 534.77 10.112 534.77 9.6C534.77 9.088 534.586 8.68 534.218 8.376C533.858 8.072 533.286 7.92 532.502 7.92H531.902V7.284L534.494 4.032L534.614 4.368H529.934V3.6H535.334V4.212L532.742 7.464L532.322 7.188H532.646C533.654 7.188 534.406 7.412 534.902 7.86C535.406 8.308 535.658 8.884 535.658 9.588C535.658 10.06 535.546 10.484 535.322 10.86C535.098 11.236 534.758 11.532 534.302 11.748C533.854 11.964 533.29 12.072 532.61 12.072ZM536.852 9.792V9.168L541.304 3.6H542.264L537.848 9.168L537.38 9.024H544.136V9.792H536.852ZM541.592 12V9.792L541.616 9.024V7.08H542.456V12H541.592ZM548.397 12.072C547.749 12.072 547.173 11.904 546.669 11.568C546.165 11.224 545.769 10.736 545.481 10.104C545.193 9.464 545.049 8.696 545.049 7.8C545.049 6.904 545.193 6.14 545.481 5.508C545.769 4.868 546.165 4.38 546.669 4.044C547.173 3.7 547.749 3.528 548.397 3.528C549.045 3.528 549.621 3.7 550.125 4.044C550.629 4.38 551.025 4.868 551.313 5.508C551.609 6.14 551.757 6.904 551.757 7.8C551.757 8.696 551.609 9.464 551.313 10.104C551.025 10.736 550.629 11.224 550.125 11.568C549.621 11.904 549.045 12.072 548.397 12.072ZM548.397 11.28C548.893 11.28 549.325 11.148 549.693 10.884C550.061 10.612 550.349 10.22 550.557 9.708C550.765 9.188 550.869 8.552 550.869 7.8C550.869 7.048 550.765 6.416 550.557 5.904C550.349 5.384 550.061 4.992 549.693 4.728C549.325 4.456 548.893 4.32 548.397 4.32C547.917 4.32 547.489 4.456 547.113 4.728C546.737 4.992 546.445 5.384 546.237 5.904C546.029 6.416 545.925 7.048 545.925 7.8C545.925 8.552 546.029 9.188 546.237 9.708C546.445 10.22 546.737 10.612 547.113 10.884C547.489 11.148 547.917 11.28 548.397 11.28Z" fill="#2B2B2B"/>
<path d="M590.354 16.3536C590.549 16.1583 590.549 15.8417 590.354 15.6464L587.172 12.4645C586.976 12.2692 586.66 12.2692 586.464 12.4645C586.269 12.6597 586.269 12.9763 586.464 13.1716L589.293 16L586.464 18.8284C586.269 19.0237 586.269 19.3403 586.464 19.5355C586.66 19.7308 586.976 19.7308 587.172 19.5355L590.354 16.3536ZM470 16.5H590V15.5H470V16.5Z" fill="#2B2B2B"/>
<path d="M618.178 50.6H619.054V59H618.178V50.6ZM612.922 59H612.034V50.6H612.922V59ZM618.262 55.124H612.826V54.344H618.262V55.124ZM621.388 53.768V53.06H626.608V53.768H621.388ZM621.388 56.54V55.832H626.608V56.54H621.388ZM628.05 56.792V56.168L632.502 50.6H633.462L629.046 56.168L628.578 56.024H635.334V56.792H628.05ZM632.79 59V56.792L632.814 56.024V54.08H633.654V59H632.79ZM638.876 59.072C638.276 59.072 637.704 58.976 637.16 58.784C636.616 58.584 636.184 58.32 635.864 57.992L636.284 57.308C636.548 57.588 636.908 57.82 637.364 58.004C637.828 58.188 638.328 58.28 638.864 58.28C639.576 58.28 640.116 58.124 640.484 57.812C640.86 57.492 641.048 57.076 641.048 56.564C641.048 56.204 640.96 55.896 640.784 55.64C640.616 55.376 640.328 55.172 639.92 55.028C639.512 54.884 638.952 54.812 638.24 54.812H636.452L636.884 50.6H641.48V51.368H637.232L637.676 50.948L637.304 54.476L636.86 54.044H638.432C639.28 54.044 639.96 54.148 640.472 54.356C640.984 54.564 641.352 54.856 641.576 55.232C641.808 55.6 641.924 56.032 641.924 56.528C641.924 57 641.812 57.432 641.588 57.824C641.364 58.208 641.028 58.512 640.58 58.736C640.132 58.96 639.564 59.072 638.876 59.072Z" fill="#2B2B2B"/>
<path d="M607.312 73.3536C607.508 73.5488 607.824 73.5488 608.02 73.3536L611.202 70.1716C611.397 69.9763 611.397 69.6597 611.202 69.4645C611.006 69.2692 610.69 69.2692 610.494 69.4645L607.666 72.2929L604.838 69.4645C604.642 69.2692 604.326 69.2692 604.13 69.4645C603.935 69.6597 603.935 69.9763 604.13 70.1716L607.312 73.3536ZM607.166 36L607.166 73L608.166 73L608.166 36L607.166 36Z" fill="#2B2B2B"/>
<path d="M12.7494 39.1781C12.3839 39.6937 11.9613 40.11 11.4817 40.427C10.9955 40.7394 10.4824 40.9444 9.94243 41.0422C9.40246 41.1399 8.85559 41.1298 8.30182 41.0118C7.75268 40.8873 7.22684 40.647 6.72429 40.2907C6.22174 39.9345 5.82081 39.5179 5.52149 39.041C5.2268 38.5575 5.03617 38.0448 4.94958 37.503C4.86763 36.9546 4.89679 36.4016 5.03707 35.844C5.17082 35.2818 5.42043 34.7429 5.78592 34.2273C6.13753 33.7313 6.55316 33.3248 7.03282 33.0078C7.50595 32.6862 8.01535 32.4932 8.56103 32.429L8.69499 33.2153C8.20888 33.2923 7.78354 33.4566 7.41896 33.7081C7.04786 33.955 6.72352 34.2742 6.44593 34.6658C6.15447 35.0769 5.95562 35.5096 5.84938 35.9639C5.73661 36.4135 5.71823 36.8613 5.79424 37.3074C5.86372 37.7489 6.01821 38.1673 6.25771 38.5626C6.49532 38.9468 6.8197 39.2846 7.23088 39.5761C7.64206 39.8675 8.07149 40.0641 8.51918 40.1657C8.96497 40.2561 9.41092 40.2634 9.85704 40.1874C10.2966 40.1067 10.7131 39.9411 11.1065 39.6904C11.4934 39.4351 11.8326 39.1019 12.1241 38.6907C12.4017 38.2991 12.5955 37.8874 12.7055 37.4555C12.8155 37.0236 12.8265 36.5655 12.7382 36.0813L13.5245 35.9473C13.6445 36.4835 13.6344 37.0304 13.4941 37.5879C13.3539 38.1455 13.1056 38.6756 12.7494 39.1781ZM15.7265 34.9574C15.6248 35.101 15.4847 35.188 15.3062 35.2184C15.1324 35.2423 14.9704 35.201 14.8203 35.0946C14.6637 34.9836 14.5711 34.8444 14.5426 34.6771C14.5187 34.5033 14.5577 34.3446 14.6594 34.201C14.7612 34.0574 14.8958 33.9714 15.0631 33.9428C15.235 33.9078 15.3993 33.9458 15.5559 34.0569C15.706 34.1633 15.7963 34.3057 15.8267 34.4841C15.8617 34.6561 15.8283 34.8138 15.7265 34.9574ZM17.2731 32.6719L10.4202 27.8141L12.2384 25.2492C12.6501 24.6683 13.0987 24.2361 13.584 23.9526C14.0629 23.6644 14.5571 23.5343 15.0669 23.5622C15.5747 23.579 16.0766 23.7632 16.5727 24.1148C17.0556 24.4571 17.3924 24.8674 17.5829 25.3457C17.7715 25.8128 17.8124 26.3223 17.7056 26.8742C17.5922 27.4214 17.3297 27.9855 16.9179 28.5663L15.3843 30.7299L15.2804 30.1709L17.7866 31.9474L17.2731 32.6719ZM20.5902 27.9923L16.8545 27.9918L17.4096 27.2086L21.1523 27.1993L20.5902 27.9923ZM15.3392 30.2125L14.7675 30.2927L16.2873 28.1487C16.7731 27.4634 16.9907 26.8381 16.9403 26.2729C16.8946 25.7011 16.6008 25.2232 16.0591 24.8392C15.5109 24.4506 14.9594 24.3294 14.4048 24.4755C13.8547 24.6152 13.3368 25.0276 12.851 25.7129L11.3313 27.8569L11.2176 27.2909L15.3392 30.2125ZM19.6331 24.3624L19.0262 23.9321L20.8443 21.3672L21.4513 21.7974L19.6331 24.3624ZM27.3786 18.4157L20.8194 13.7662L21.3743 13.6889L20.0072 15.6175L19.3807 15.1733L21.0254 12.8531L27.8783 17.7108L27.3786 18.4157ZM29.0186 16.1021L28.5194 15.7482L27.7487 10.9215C27.6792 10.48 27.5961 10.1269 27.4993 9.86224C27.3961 9.59291 27.2758 9.37527 27.1385 9.20929C27.0012 9.04332 26.8574 8.90713 26.7073 8.80072C26.3092 8.51851 25.8988 8.4335 25.476 8.5457C25.0579 8.65136 24.6615 8.96852 24.2868 9.49718C23.9999 9.90183 23.8075 10.3047 23.7094 10.7059C23.616 11.1006 23.6211 11.5014 23.7249 11.9083L22.9402 12.1023C22.8166 11.6126 22.818 11.0988 22.9444 10.5608C23.0708 10.0228 23.3168 9.49603 23.6823 8.98043C24.0107 8.51704 24.3703 8.16886 24.761 7.93588C25.1452 7.69828 25.5423 7.58757 25.9525 7.60376C26.3673 7.61343 26.764 7.75242 27.1425 8.02075C27.3645 8.17805 27.56 8.36567 27.7291 8.58361C27.9028 8.79502 28.0526 9.06789 28.1784 9.40223C28.3023 9.72542 28.4057 10.1468 28.4885 10.6664L29.2006 15.0984L28.7877 15.0999L31.7994 10.8511L32.426 11.2952L29.0186 16.1021Z" fill="#2B2B2B"/>
<path d="M21.6287 41.3295C21.792 41.5522 22.1049 41.6003 22.3276 41.437L25.9564 38.7759C26.1791 38.6126 26.2272 38.2997 26.0639 38.077C25.9006 37.8543 25.5877 37.8062 25.365 37.9695L22.1394 40.3349L19.7739 37.1093C19.6106 36.8866 19.2977 36.8385 19.075 37.0018C18.8524 37.1651 18.8042 37.478 18.9675 37.7007L21.6287 41.3295ZM42.3854 21.3874C42.5807 21.1921 42.5807 20.8755 42.3854 20.6803L39.2036 17.4982C39.0083 17.3029 38.6917 17.3029 38.4964 17.4982C38.3012 17.6934 38.3012 18.01 38.4964 18.2053L41.3248 21.0338L38.4962 23.8621C38.301 24.0574 38.301 24.374 38.4962 24.5692C38.6915 24.7645 39.0081 24.7645 39.2033 24.5693L42.3854 21.3874ZM22.5261 41.1098C23.5142 34.6865 25.8533 29.7961 29.1947 26.5154C32.5299 23.2408 36.9001 21.5337 42.0319 21.5338L42.0319 20.5338C36.6636 20.5337 32.0338 22.3265 28.4941 25.8019C24.9605 29.2713 22.5495 34.381 21.5377 40.9578L22.5261 41.1098Z" fill="#2B2B2B"/>
<path d="M574.666 29H48C36.9543 29 28 37.9543 28 49V84C28 95.0457 36.9543 104 48 104H574.666C585.712 104 594.666 95.0457 594.666 84V49C594.666 37.9543 585.712 29 574.666 29Z" fill="#8778F7"/>
<path d="M283.368 57.334V72.109L291.118 72.134V74.834H279.918V57.334H283.368ZM300.591 74.834L300.341 73.309C299.975 73.7757 299.525 74.184 298.991 74.534C298.475 74.884 297.808 75.059 296.991 75.059C295.725 75.059 294.7 74.734 293.916 74.084C293.133 73.434 292.741 72.534 292.741 71.384C292.741 70.4673 293 69.7423 293.516 69.209C294.033 68.659 294.708 68.2506 295.541 67.984C296.375 67.7173 297.258 67.5256 298.191 67.409C298.908 67.309 299.441 67.1923 299.791 67.059C300.158 66.9257 300.341 66.6673 300.341 66.284C300.341 65.934 300.191 65.634 299.891 65.384C299.591 65.1173 299.091 64.984 298.391 64.984C297.841 64.984 297.35 65.1256 296.916 65.409C296.483 65.6923 296.191 66.109 296.041 66.659L293.141 65.634C293.475 64.534 294.125 63.6673 295.091 63.034C296.058 62.4006 297.2 62.084 298.516 62.084C300.15 62.084 301.441 62.5423 302.391 63.459C303.341 64.359 303.816 65.709 303.816 67.509V74.834H300.591ZM300.341 69.459L298.041 69.784C297.341 69.884 296.858 70.0423 296.591 70.259C296.325 70.459 296.191 70.7506 296.191 71.134C296.191 71.5006 296.333 71.784 296.616 71.984C296.916 72.184 297.325 72.284 297.841 72.284C298.508 72.284 299.091 72.059 299.591 71.609C300.091 71.1423 300.341 70.4507 300.341 69.534V69.459ZM306.965 62.334H310.09L310.315 63.934C310.698 63.434 311.156 63.034 311.69 62.734C312.223 62.4173 312.815 62.259 313.465 62.259C313.598 62.259 313.756 62.2673 313.94 62.284C314.14 62.3007 314.348 62.3256 314.565 62.359V65.809C314.381 65.759 314.19 65.7256 313.99 65.709C313.79 65.6923 313.606 65.684 313.44 65.684C312.64 65.684 311.931 66.0173 311.315 66.684C310.698 67.334 310.39 68.2423 310.39 69.409V74.834H306.965V62.334ZM325.488 62.334H328.638V72.984C328.638 74.484 328.246 75.734 327.463 76.734C326.68 77.734 325.613 78.4923 324.263 79.009C322.93 79.5256 321.405 79.8006 319.688 79.834L319.188 77.059C320.188 77.009 321.13 76.8673 322.013 76.634C322.896 76.4173 323.621 76.0506 324.188 75.534C324.771 75.034 325.096 74.334 325.163 73.434C324.746 73.884 324.213 74.2673 323.563 74.584C322.93 74.884 322.205 75.034 321.388 75.034C320.305 75.034 319.338 74.7673 318.488 74.234C317.638 73.684 316.963 72.9256 316.463 71.959C315.98 70.9756 315.738 69.834 315.738 68.534C315.738 67.234 315.98 66.109 316.463 65.159C316.963 64.1923 317.638 63.4423 318.488 62.909C319.338 62.3756 320.305 62.109 321.388 62.109C322.255 62.109 323.013 62.284 323.663 62.634C324.33 62.984 324.863 63.384 325.263 63.834L325.488 62.334ZM319.263 68.534C319.263 69.6506 319.546 70.5173 320.113 71.134C320.68 71.7506 321.355 72.059 322.138 72.059C322.655 72.059 323.146 71.9256 323.613 71.659C324.08 71.3756 324.455 70.9756 324.738 70.459C325.038 69.9423 325.188 69.309 325.188 68.559C325.188 67.8256 325.038 67.2006 324.738 66.684C324.455 66.1673 324.08 65.7756 323.613 65.509C323.146 65.2423 322.655 65.109 322.138 65.109C321.355 65.109 320.68 65.4007 320.113 65.984C319.546 66.5673 319.263 67.4173 319.263 68.534ZM337.516 75.034C336.316 75.034 335.241 74.7673 334.291 74.234C333.341 73.7006 332.591 72.9506 332.041 71.984C331.508 71.0173 331.241 69.8756 331.241 68.559C331.241 67.2423 331.5 66.109 332.016 65.159C332.533 64.1923 333.258 63.4423 334.191 62.909C335.125 62.3756 336.216 62.109 337.466 62.109C338.666 62.109 339.725 62.3673 340.641 62.884C341.575 63.4007 342.3 64.1256 342.816 65.059C343.333 65.9923 343.591 67.0757 343.591 68.309C343.591 68.509 343.583 68.7257 343.566 68.959C343.55 69.1757 343.516 69.4173 343.466 69.684H334.741C334.841 70.4673 335.15 71.084 335.666 71.534C336.2 71.9673 336.825 72.184 337.541 72.184C338.241 72.184 338.85 72.084 339.366 71.884C339.9 71.6673 340.291 71.3173 340.541 70.834L343.366 71.659C342.866 72.7256 342.125 73.5506 341.141 74.134C340.158 74.7173 338.95 75.0173 337.516 75.034ZM340.041 67.284C339.991 66.534 339.716 65.9506 339.216 65.534C338.716 65.1173 338.1 64.909 337.366 64.909C336.716 64.909 336.158 65.1256 335.691 65.559C335.225 65.9923 334.916 66.5673 334.766 67.284H340.041Z" fill="white"/>
<path d="M425.88 134H196.52C185.739 134 177 142.739 177 153.52V187.68C177 198.461 185.739 207.2 196.52 207.2H425.88C436.661 207.2 445.4 198.461 445.4 187.68V153.52C445.4 142.739 436.661 134 425.88 134Z" fill="#8778F7"/>
<path d="M283.904 161.654V176.075L291.468 176.099V178.734H280.537V161.654H283.904ZM300.714 178.734L300.47 177.246C300.112 177.701 299.673 178.1 299.153 178.442C298.648 178.783 297.998 178.954 297.201 178.954C295.964 178.954 294.964 178.637 294.199 178.002C293.435 177.368 293.053 176.489 293.053 175.367C293.053 174.472 293.305 173.765 293.809 173.244C294.313 172.707 294.972 172.309 295.785 172.049C296.599 171.788 297.461 171.601 298.372 171.488C299.071 171.39 299.592 171.276 299.934 171.146C300.291 171.016 300.47 170.764 300.47 170.389C300.47 170.048 300.324 169.755 300.031 169.511C299.738 169.251 299.25 169.121 298.567 169.121C298.03 169.121 297.55 169.259 297.127 169.535C296.705 169.812 296.42 170.219 296.274 170.755L293.443 169.755C293.768 168.682 294.403 167.836 295.346 167.218C296.29 166.599 297.404 166.29 298.689 166.29C300.283 166.29 301.544 166.738 302.471 167.632C303.398 168.511 303.862 169.828 303.862 171.585V178.734H300.714ZM300.47 173.488L298.225 173.805C297.542 173.903 297.071 174.058 296.81 174.269C296.55 174.464 296.42 174.749 296.42 175.123C296.42 175.481 296.558 175.758 296.835 175.953C297.128 176.148 297.526 176.245 298.03 176.245C298.681 176.245 299.25 176.026 299.738 175.587C300.226 175.131 300.47 174.456 300.47 173.562V173.488ZM306.935 166.534H309.985L310.204 168.096C310.578 167.608 311.026 167.217 311.546 166.925C312.067 166.616 312.644 166.461 313.279 166.461C313.409 166.461 313.563 166.469 313.742 166.485C313.937 166.502 314.141 166.526 314.352 166.559V169.926C314.173 169.877 313.986 169.845 313.791 169.828C313.596 169.812 313.417 169.804 313.254 169.804C312.473 169.804 311.782 170.129 311.18 170.78C310.578 171.414 310.277 172.301 310.277 173.439V178.734H306.935V166.534ZM325.013 166.534H328.088V176.929C328.088 178.393 327.706 179.613 326.941 180.589C326.177 181.565 325.135 182.305 323.818 182.809C322.516 183.313 321.028 183.582 319.353 183.614L318.865 180.906C319.841 180.857 320.76 180.719 321.622 180.491C322.484 180.28 323.192 179.922 323.745 179.418C324.314 178.93 324.631 178.246 324.696 177.368C324.29 177.807 323.769 178.181 323.135 178.49C322.517 178.783 321.809 178.929 321.012 178.929C319.954 178.929 319.011 178.669 318.181 178.149C317.352 177.612 316.693 176.872 316.205 175.928C315.733 174.969 315.497 173.854 315.497 172.585C315.497 171.317 315.733 170.219 316.205 169.292C316.693 168.348 317.352 167.616 318.181 167.095C319.011 166.575 319.954 166.315 321.012 166.315C321.858 166.315 322.598 166.485 323.232 166.827C323.883 167.169 324.403 167.559 324.794 167.998L325.013 166.534ZM318.938 172.585C318.938 173.675 319.214 174.521 319.767 175.123C320.321 175.725 320.979 176.026 321.744 176.026C322.248 176.026 322.728 175.896 323.183 175.635C323.639 175.359 324.005 174.969 324.281 174.464C324.574 173.96 324.721 173.342 324.721 172.61C324.721 171.894 324.574 171.284 324.281 170.78C324.005 170.276 323.639 169.893 323.183 169.633C322.728 169.373 322.248 169.243 321.744 169.243C320.979 169.243 320.321 169.527 319.767 170.097C319.214 170.666 318.938 171.496 318.938 172.585ZM336.753 178.929C335.582 178.929 334.533 178.669 333.605 178.149C332.678 177.628 331.946 176.896 331.409 175.953C330.889 175.009 330.629 173.895 330.629 172.61C330.629 171.325 330.881 170.219 331.385 169.292C331.889 168.348 332.597 167.616 333.508 167.095C334.419 166.575 335.484 166.315 336.704 166.315C337.875 166.315 338.908 166.567 339.803 167.071C340.714 167.575 341.422 168.283 341.926 169.194C342.43 170.105 342.682 171.162 342.682 172.366C342.682 172.561 342.674 172.773 342.658 173C342.642 173.212 342.609 173.448 342.56 173.708H334.045C334.142 174.472 334.443 175.074 334.947 175.513C335.468 175.936 336.078 176.148 336.777 176.148C337.461 176.148 338.054 176.05 338.559 175.855C339.079 175.644 339.461 175.302 339.705 174.83L342.463 175.635C341.975 176.677 341.251 177.482 340.291 178.051C339.331 178.62 338.152 178.913 336.753 178.929ZM339.217 171.365C339.169 170.633 338.9 170.064 338.412 169.658C337.924 169.251 337.322 169.048 336.607 169.048C335.972 169.048 335.427 169.259 334.972 169.682C334.516 170.105 334.215 170.666 334.069 171.365H339.217Z" fill="white"/>
<path d="M404.52 237.199H219.08C209.647 237.199 202 244.846 202 254.279V291.693C202 301.126 209.647 308.773 219.08 308.773H404.52C413.953 308.773 421.6 301.126 421.6 291.693V254.279C421.6 244.846 413.953 237.199 404.52 237.199Z" stroke="#8778F7"/>
<path d="M284.098 264.854V279.957H291.906V281.934H281.658V264.854H284.098ZM301.84 281.934L301.645 280.152C301.287 280.738 300.815 281.218 300.23 281.592C299.661 281.966 298.929 282.153 298.034 282.153C296.765 282.153 295.748 281.836 294.984 281.201C294.219 280.567 293.837 279.705 293.837 278.615C293.837 277.916 293.983 277.338 294.276 276.883C294.585 276.411 294.992 276.037 295.496 275.76C296.001 275.467 296.562 275.248 297.18 275.101C297.798 274.939 298.432 274.817 299.083 274.736C299.978 274.638 300.628 274.524 301.035 274.394C301.442 274.247 301.645 273.947 301.645 273.491C301.645 273.003 301.458 272.572 301.084 272.198C300.71 271.808 300.075 271.612 299.181 271.612C298.497 271.612 297.887 271.799 297.351 272.174C296.83 272.531 296.472 273.044 296.277 273.711L294.203 272.979C294.512 271.921 295.114 271.076 296.009 270.441C296.92 269.807 298.018 269.49 299.303 269.49C300.75 269.49 301.913 269.921 302.792 270.783C303.687 271.629 304.134 272.938 304.134 274.711V281.934H301.84ZM301.645 276.395L298.717 276.761C297.855 276.875 297.245 277.07 296.887 277.346C296.529 277.623 296.35 278.005 296.35 278.493C296.35 278.997 296.537 279.38 296.911 279.64C297.286 279.884 297.806 280.006 298.473 280.006C299.335 280.006 300.075 279.705 300.693 279.103C301.328 278.501 301.645 277.655 301.645 276.566V276.395ZM307.794 269.734H310.039L310.185 271.295C310.575 270.807 311.039 270.417 311.576 270.124C312.113 269.815 312.706 269.66 313.357 269.66C313.503 269.66 313.666 269.668 313.845 269.685C314.024 269.701 314.211 269.734 314.406 269.782V272.222C314.081 272.141 313.747 272.1 313.406 272.1C312.885 272.1 312.381 272.247 311.893 272.54C311.405 272.816 311.007 273.239 310.697 273.808C310.388 274.361 310.234 275.069 310.234 275.931V281.934H307.794V269.734ZM325.809 269.734H328.054V279.933C328.054 281.445 327.68 282.698 326.932 283.69C326.183 284.699 325.159 285.463 323.857 285.984C322.572 286.504 321.116 286.781 319.49 286.814L319.124 284.764C320.262 284.699 321.311 284.512 322.271 284.203C323.247 283.91 324.028 283.438 324.614 282.788C325.215 282.137 325.541 281.258 325.59 280.152C325.183 280.673 324.622 281.136 323.906 281.543C323.19 281.934 322.361 282.129 321.417 282.129C320.327 282.129 319.359 281.86 318.514 281.324C317.668 280.787 317.001 280.047 316.513 279.103C316.041 278.143 315.805 277.029 315.805 275.76C315.805 274.508 316.041 273.418 316.513 272.491C317.001 271.547 317.668 270.815 318.514 270.295C319.359 269.774 320.327 269.514 321.417 269.514C322.393 269.514 323.239 269.717 323.955 270.124C324.67 270.514 325.232 270.978 325.638 271.515L325.809 269.734ZM318.294 275.76C318.294 277.11 318.636 278.16 319.319 278.908C320.018 279.656 320.864 280.03 321.856 280.03C322.507 280.03 323.117 279.868 323.686 279.542C324.256 279.201 324.711 278.713 325.053 278.078C325.411 277.444 325.59 276.687 325.59 275.809C325.59 274.931 325.411 274.182 325.053 273.564C324.711 272.946 324.256 272.474 323.686 272.149C323.117 271.807 322.507 271.637 321.856 271.637C320.864 271.637 320.018 271.995 319.319 272.71C318.636 273.426 318.294 274.443 318.294 275.76ZM337.154 282.129C335.982 282.129 334.941 281.868 334.03 281.348C333.136 280.827 332.428 280.095 331.908 279.152C331.403 278.192 331.151 277.07 331.151 275.785C331.151 274.516 331.395 273.41 331.883 272.466C332.371 271.523 333.062 270.799 333.957 270.295C334.852 269.774 335.901 269.514 337.105 269.514C338.276 269.514 339.293 269.766 340.155 270.27C341.033 270.775 341.708 271.474 342.18 272.369C342.668 273.263 342.912 274.28 342.912 275.419C342.912 275.614 342.904 275.817 342.888 276.029C342.888 276.24 342.863 276.468 342.814 276.712H333.664C333.746 277.802 334.104 278.631 334.738 279.201C335.389 279.77 336.178 280.055 337.105 280.055C337.967 280.055 338.699 279.908 339.301 279.616C339.919 279.323 340.374 278.875 340.667 278.274L342.668 278.981C342.196 279.941 341.497 280.705 340.57 281.275C339.659 281.844 338.52 282.129 337.154 282.129ZM340.374 274.736C340.358 273.727 340.025 272.954 339.374 272.418C338.723 271.864 337.926 271.588 336.983 271.588C336.153 271.588 335.429 271.864 334.811 272.418C334.193 272.971 333.819 273.743 333.689 274.736H340.374Z" fill="#8778F7"/>
<defs>
<filter id="filter0_d_2293_4621" x="4" y="328.773" width="119.781" height="133.67" filterUnits="userSpaceOnUse" color-interpolation-filters="sRGB">
<feFlood flood-opacity="0" result="BackgroundImageFix"/>
<feColorMatrix in="SourceAlpha" type="matrix" values="0 0 0 0 0 0 0 0 0 0 0 0 0 0 0 0 0 0 127 0" result="hardAlpha"/>
<feOffset dx="2" dy="5"/>
<feGaussianBlur stdDeviation="7.5"/>
<feComposite in2="hardAlpha" operator="out"/>
<feColorMatrix type="matrix" values="0 0 0 0 0.356863 0 0 0 0 0.4 0 0 0 0 0.894118 0 0 0 0.35 0"/>
<feBlend mode="normal" in2="BackgroundImageFix" result="effect1_dropShadow_2293_4621"/>
<feBlend mode="normal" in="SourceGraphic" in2="effect1_dropShadow_2293_4621" result="shape"/>
</filter>
<filter id="filter1_d_2293_4621" x="1218.43" y="352.773" width="82.436" height="77.4414" filterUnits="userSpaceOnUse" color-interpolation-filters="sRGB">
<feFlood flood-opacity="0" result="BackgroundImageFix"/>
<feColorMatrix in="SourceAlpha" type="matrix" values="0 0 0 0 0 0 0 0 0 0 0 0 0 0 0 0 0 0 127 0" result="hardAlpha"/>
<feOffset dx="1" dy="4"/>
<feGaussianBlur stdDeviation="7.5"/>
<feComposite in2="hardAlpha" operator="out"/>
<feColorMatrix type="matrix" values="0 0 0 0 0.529412 0 0 0 0 0.470588 0 0 0 0 0.968627 0 0 0 0.19 0"/>
<feBlend mode="normal" in2="BackgroundImageFix" result="effect1_dropShadow_2293_4621"/>
<feBlend mode="normal" in="SourceGraphic" in2="effect1_dropShadow_2293_4621" result="shape"/>
</filter>
<linearGradient id="paint0_linear_2293_4621" x1="130.173" y1="321.858" x2="100.475" y2="461.654" gradientUnits="userSpaceOnUse">
<stop stop-color="#A178F7"/>
<stop offset="0.458333" stop-color="#8778F7"/>
<stop offset="1" stop-color="#4C60DD"/>
</linearGradient>
</defs>
</svg>
