<svg width="429" height="348" viewBox="0 0 429 348" fill="none" xmlns="http://www.w3.org/2000/svg">
<g filter="url(#filter0_d_2293_6857)">
<path d="M382.975 15H46.0939C29.302 15 15.6895 28.6125 15.6895 45.4045V302.018C15.6895 318.81 29.302 332.423 46.0939 332.423H382.975C399.767 332.423 413.38 318.81 413.38 302.018V45.4045C413.38 28.6125 399.767 15 382.975 15Z" fill="white"/>
<path d="M73.4645 184.656C74.4617 184.656 75.2888 184.826 75.9455 185.167C76.6022 185.507 77.0887 185.969 77.4049 186.553C77.7332 187.125 77.8974 187.757 77.8974 188.45C77.8974 188.973 77.7941 189.484 77.5873 189.983C77.3927 190.481 77.0765 190.919 76.6387 191.296C76.2009 191.673 75.6232 191.941 74.9056 192.099L78.0799 197.426H75.8907L72.9172 192.245H70.5274V197.426H68.7031V184.656H73.4645ZM76.0185 188.45C76.0185 187.757 75.8117 187.204 75.3982 186.79C74.9969 186.365 74.3523 186.152 73.4645 186.152H70.5274V190.785H73.4645C74.3523 190.785 74.9969 190.567 75.3982 190.129C75.8117 189.691 76.0185 189.131 76.0185 188.45ZM84.0756 197.572C83.2 197.572 82.4216 197.377 81.7406 196.988C81.0717 196.599 80.5426 196.051 80.1535 195.346C79.7764 194.629 79.5879 193.789 79.5879 192.829C79.5879 191.88 79.7703 191.053 80.1352 190.348C80.5 189.642 81.017 189.101 81.6859 188.724C82.3548 188.335 83.1392 188.14 84.0392 188.14C84.9148 188.14 85.6749 188.329 86.3195 188.706C86.9762 189.083 87.4809 189.606 87.8336 190.275C88.1985 190.944 88.3809 191.704 88.3809 192.555C88.3809 192.701 88.3748 192.853 88.3627 193.011C88.3627 193.169 88.3444 193.339 88.3079 193.522H81.4669C81.5277 194.337 81.7953 194.957 82.2696 195.383C82.7561 195.808 83.3459 196.021 84.0392 196.021C84.6837 196.021 85.231 195.912 85.681 195.693C86.1431 195.474 86.4837 195.139 86.7026 194.689L88.1985 195.218C87.8458 195.936 87.3228 196.508 86.6296 196.933C85.9485 197.359 85.0972 197.572 84.0756 197.572ZM86.4837 192.044C86.4715 191.29 86.2222 190.712 85.7357 190.311C85.2492 189.898 84.6533 189.691 83.9479 189.691C83.3277 189.691 82.7865 189.898 82.3243 190.311C81.8622 190.725 81.5825 191.302 81.4852 192.044H86.4837ZM91.9589 186.699C91.6305 186.699 91.3569 186.59 91.138 186.371C90.919 186.152 90.8096 185.884 90.8096 185.568C90.8096 185.227 90.919 184.948 91.138 184.729C91.3569 184.51 91.6305 184.4 91.9589 184.4C92.2873 184.4 92.5609 184.51 92.7798 184.729C93.0109 184.948 93.1264 185.227 93.1264 185.568C93.1264 185.884 93.0109 186.152 92.7798 186.371C92.5609 186.59 92.2873 186.699 91.9589 186.699ZM91.0285 196.97V188.304H92.871V196.988C92.871 197.9 92.6886 198.654 92.3237 199.25C91.971 199.846 91.5089 200.29 90.9373 200.582C90.3657 200.886 89.7637 201.05 89.1313 201.074L88.8576 199.524C89.563 199.451 90.0981 199.195 90.463 198.757C90.84 198.32 91.0285 197.724 91.0285 196.97ZM99.931 197.572C99.0553 197.572 98.2769 197.377 97.5959 196.988C96.927 196.599 96.3979 196.051 96.0088 195.346C95.6317 194.629 95.4432 193.789 95.4432 192.829C95.4432 191.88 95.6256 191.053 95.9905 190.348C96.3554 189.642 96.8723 189.101 97.5412 188.724C98.2101 188.335 98.9945 188.14 99.8945 188.14C100.77 188.14 101.53 188.329 102.175 188.706C102.832 189.083 103.336 189.606 103.689 190.275C104.054 190.944 104.236 191.704 104.236 192.555C104.236 192.701 104.23 192.853 104.218 193.011C104.218 193.169 104.2 193.339 104.163 193.522H97.3223C97.3831 194.337 97.6506 194.957 98.1249 195.383C98.6114 195.808 99.2012 196.021 99.8945 196.021C100.539 196.021 101.086 195.912 101.536 195.693C101.998 195.474 102.339 195.139 102.558 194.689L104.054 195.218C103.701 195.936 103.178 196.508 102.485 196.933C101.804 197.359 100.953 197.572 99.931 197.572ZM102.339 192.044C102.327 191.29 102.078 190.712 101.591 190.311C101.105 189.898 100.509 189.691 99.8032 189.691C99.183 189.691 98.6418 189.898 98.1797 190.311C97.7175 190.725 97.4378 191.302 97.3405 192.044H102.339ZM110.459 197.572C109.584 197.572 108.805 197.377 108.124 196.988C107.455 196.599 106.932 196.051 106.555 195.346C106.178 194.641 105.99 193.808 105.99 192.847C105.99 191.898 106.178 191.071 106.555 190.366C106.932 189.66 107.455 189.113 108.124 188.724C108.805 188.335 109.584 188.14 110.459 188.14C111.445 188.14 112.29 188.353 112.995 188.779C113.7 189.204 114.217 189.806 114.546 190.585L112.995 191.114C112.801 190.652 112.478 190.305 112.028 190.074C111.59 189.843 111.086 189.727 110.514 189.727C110.04 189.727 109.596 189.855 109.182 190.11C108.781 190.354 108.459 190.706 108.216 191.169C107.972 191.631 107.851 192.19 107.851 192.847C107.851 193.504 107.972 194.069 108.216 194.543C108.459 195.006 108.781 195.364 109.182 195.62C109.596 195.863 110.04 195.985 110.514 195.985C111.074 195.985 111.578 195.881 112.028 195.674C112.478 195.456 112.819 195.103 113.05 194.616L114.564 195.164C114.223 195.893 113.694 196.477 112.977 196.915C112.272 197.353 111.432 197.572 110.459 197.572ZM116.83 188.304C117.097 188.304 117.31 188.219 117.468 188.049C117.639 187.879 117.724 187.66 117.724 187.392V186.061H119.402V188.304H121.682V189.892H119.402V194.306C119.402 194.902 119.536 195.322 119.803 195.565C120.083 195.808 120.472 195.93 120.971 195.93C121.165 195.93 121.403 195.912 121.682 195.875V197.353C121.33 197.426 120.989 197.462 120.661 197.462C120.126 197.462 119.621 197.365 119.147 197.17C118.684 196.964 118.301 196.629 117.997 196.167C117.705 195.705 117.559 195.085 117.559 194.306V189.892H116.264V188.304H116.83ZM129.414 194.598C129.523 194.987 129.699 195.285 129.943 195.492C130.186 195.699 130.453 195.839 130.745 195.912C131.049 195.985 131.329 196.021 131.584 196.021C132.12 196.021 132.545 195.918 132.861 195.711C133.178 195.504 133.336 195.243 133.336 194.927C133.336 194.549 133.129 194.27 132.715 194.087C132.314 193.893 131.84 193.729 131.293 193.595C130.916 193.485 130.532 193.37 130.143 193.248C129.754 193.114 129.395 192.95 129.067 192.756C128.751 192.549 128.495 192.287 128.301 191.971C128.106 191.655 128.009 191.254 128.009 190.767C128.009 190.293 128.155 189.855 128.447 189.454C128.739 189.052 129.146 188.736 129.669 188.505C130.192 188.262 130.8 188.14 131.493 188.14C132.235 188.14 132.892 188.31 133.463 188.651C134.035 188.992 134.449 189.49 134.704 190.147L133.208 190.658C133.074 190.305 132.825 190.05 132.46 189.892C132.107 189.721 131.779 189.636 131.475 189.636C130.976 189.636 130.581 189.746 130.289 189.964C129.997 190.183 129.851 190.445 129.851 190.749C129.851 191.029 129.949 191.254 130.143 191.424C130.338 191.594 130.593 191.734 130.909 191.843C131.226 191.953 131.566 192.056 131.931 192.154C132.417 192.287 132.904 192.452 133.39 192.646C133.877 192.829 134.284 193.096 134.613 193.449C134.941 193.802 135.111 194.288 135.123 194.908C135.123 195.419 134.978 195.881 134.686 196.295C134.394 196.696 133.98 197.012 133.445 197.243C132.922 197.474 132.314 197.59 131.621 197.59C131.074 197.59 130.545 197.517 130.034 197.371C129.535 197.213 129.097 196.958 128.72 196.605C128.343 196.24 128.064 195.754 127.881 195.145L129.414 194.598ZM136.889 188.304C137.157 188.304 137.37 188.219 137.528 188.049C137.698 187.879 137.783 187.66 137.783 187.392V186.061H139.462V188.304H141.742V189.892H139.462V194.306C139.462 194.902 139.595 195.322 139.863 195.565C140.143 195.808 140.532 195.93 141.03 195.93C141.225 195.93 141.462 195.912 141.742 195.875V197.353C141.389 197.426 141.049 197.462 140.72 197.462C140.185 197.462 139.68 197.365 139.206 197.17C138.744 196.964 138.361 196.629 138.057 196.167C137.765 195.705 137.619 195.085 137.619 194.306V189.892H136.324V188.304H136.889ZM147.589 197.572C146.714 197.572 145.929 197.377 145.236 196.988C144.555 196.599 144.014 196.051 143.612 195.346C143.211 194.641 143.01 193.808 143.01 192.847C143.01 191.886 143.211 191.053 143.612 190.348C144.026 189.642 144.585 189.101 145.291 188.724C145.996 188.335 146.781 188.14 147.644 188.14C148.508 188.14 149.292 188.335 149.997 188.724C150.703 189.101 151.262 189.642 151.676 190.348C152.089 191.053 152.296 191.886 152.296 192.847C152.296 193.808 152.083 194.641 151.657 195.346C151.244 196.051 150.678 196.599 149.961 196.988C149.243 197.377 148.453 197.572 147.589 197.572ZM147.589 196.003C148.064 196.003 148.514 195.887 148.939 195.656C149.377 195.425 149.73 195.079 149.997 194.616C150.277 194.142 150.417 193.552 150.417 192.847C150.417 192.141 150.283 191.558 150.016 191.096C149.748 190.633 149.401 190.293 148.976 190.074C148.55 189.843 148.094 189.727 147.608 189.727C147.133 189.727 146.683 189.843 146.258 190.074C145.844 190.293 145.51 190.633 145.254 191.096C144.999 191.558 144.871 192.141 144.871 192.847C144.871 193.552 144.993 194.142 145.236 194.616C145.491 195.079 145.826 195.425 146.239 195.656C146.653 195.887 147.103 196.003 147.589 196.003ZM158.525 197.572C157.65 197.572 156.871 197.377 156.19 196.988C155.521 196.599 154.998 196.051 154.621 195.346C154.244 194.641 154.056 193.808 154.056 192.847C154.056 191.898 154.244 191.071 154.621 190.366C154.998 189.66 155.521 189.113 156.19 188.724C156.871 188.335 157.65 188.14 158.525 188.14C159.51 188.14 160.356 188.353 161.061 188.779C161.766 189.204 162.283 189.806 162.612 190.585L161.061 191.114C160.866 190.652 160.544 190.305 160.094 190.074C159.656 189.843 159.152 189.727 158.58 189.727C158.106 189.727 157.662 189.855 157.248 190.11C156.847 190.354 156.525 190.706 156.281 191.169C156.038 191.631 155.917 192.19 155.917 192.847C155.917 193.504 156.038 194.069 156.281 194.543C156.525 195.006 156.847 195.364 157.248 195.62C157.662 195.863 158.106 195.985 158.58 195.985C159.139 195.985 159.644 195.881 160.094 195.674C160.544 195.456 160.885 195.103 161.116 194.616L162.63 195.164C162.289 195.893 161.76 196.477 161.043 196.915C160.337 197.353 159.498 197.572 158.525 197.572ZM173.488 197.426H171.043L167.687 193.613H166.939V197.426H165.114V184.382H166.939V192.117H167.723L170.97 188.304H173.488L169.219 192.865L173.488 197.426ZM180.025 188.304H181.703L181.813 189.472C182.104 189.107 182.451 188.815 182.852 188.596C183.254 188.365 183.698 188.25 184.184 188.25C184.294 188.25 184.415 188.256 184.549 188.268C184.683 188.28 184.823 188.304 184.969 188.341V190.165C184.725 190.104 184.476 190.074 184.221 190.074C183.831 190.074 183.454 190.183 183.09 190.402C182.725 190.609 182.427 190.925 182.196 191.351C181.965 191.764 181.849 192.293 181.849 192.938V197.426H180.025V188.304ZM190.468 197.572C189.592 197.572 188.814 197.377 188.133 196.988C187.464 196.599 186.935 196.051 186.546 195.346C186.169 194.629 185.98 193.789 185.98 192.829C185.98 191.88 186.163 191.053 186.528 190.348C186.893 189.642 187.409 189.101 188.078 188.724C188.747 188.335 189.532 188.14 190.432 188.14C191.307 188.14 192.067 188.329 192.712 188.706C193.369 189.083 193.873 189.606 194.226 190.275C194.591 190.944 194.773 191.704 194.773 192.555C194.773 192.701 194.767 192.853 194.755 193.011C194.755 193.169 194.737 193.339 194.7 193.522H187.859C187.92 194.337 188.188 194.957 188.662 195.383C189.149 195.808 189.738 196.021 190.432 196.021C191.076 196.021 191.624 195.912 192.074 195.693C192.536 195.474 192.876 195.139 193.095 194.689L194.591 195.218C194.238 195.936 193.715 196.508 193.022 196.933C192.341 197.359 191.49 197.572 190.468 197.572ZM192.876 192.044C192.864 191.29 192.615 190.712 192.128 190.311C191.642 189.898 191.046 189.691 190.34 189.691C189.72 189.691 189.179 189.898 188.717 190.311C188.255 190.725 187.975 191.302 187.878 192.044H192.876ZM203.879 188.304H205.539V201.074H203.697V196.094C203.38 196.52 202.955 196.878 202.42 197.17C201.897 197.45 201.282 197.59 200.577 197.59C199.75 197.59 199.02 197.395 198.388 197.006C197.768 196.617 197.275 196.076 196.91 195.383C196.558 194.677 196.381 193.85 196.381 192.902C196.381 191.965 196.558 191.144 196.91 190.439C197.275 189.721 197.768 189.162 198.388 188.76C199.02 188.359 199.75 188.158 200.577 188.158C201.307 188.158 201.939 188.31 202.474 188.615C203.009 188.906 203.435 189.259 203.751 189.673L203.879 188.304ZM198.242 192.902C198.242 193.911 198.497 194.683 199.008 195.218C199.531 195.741 200.164 196.003 200.905 196.003C201.404 196.003 201.866 195.881 202.292 195.638C202.717 195.395 203.058 195.042 203.313 194.58C203.581 194.106 203.715 193.54 203.715 192.883C203.715 192.227 203.581 191.667 203.313 191.205C203.058 190.731 202.717 190.372 202.292 190.129C201.866 189.873 201.404 189.746 200.905 189.746C200.164 189.746 199.531 190.025 199.008 190.585C198.497 191.132 198.242 191.904 198.242 192.902ZM210.101 193.394C210.101 194.245 210.283 194.89 210.648 195.328C211.025 195.766 211.56 195.985 212.254 195.985C212.947 195.985 213.494 195.76 213.895 195.31C214.309 194.86 214.516 194.191 214.516 193.303V188.304H216.34V197.426H214.662L214.552 196.368C213.92 197.158 213.038 197.553 211.907 197.553C210.849 197.553 209.979 197.225 209.298 196.568C208.617 195.912 208.277 194.933 208.277 193.631V188.304H210.101V193.394ZM223.159 197.572C222.283 197.572 221.505 197.377 220.824 196.988C220.155 196.599 219.626 196.051 219.237 195.346C218.86 194.629 218.671 193.789 218.671 192.829C218.671 191.88 218.854 191.053 219.219 190.348C219.583 189.642 220.1 189.101 220.769 188.724C221.438 188.335 222.223 188.14 223.122 188.14C223.998 188.14 224.758 188.329 225.403 188.706C226.06 189.083 226.564 189.606 226.917 190.275C227.282 190.944 227.464 191.704 227.464 192.555C227.464 192.701 227.458 192.853 227.446 193.011C227.446 193.169 227.428 193.339 227.391 193.522H220.55C220.611 194.337 220.879 194.957 221.353 195.383C221.839 195.808 222.429 196.021 223.122 196.021C223.767 196.021 224.314 195.912 224.764 195.693C225.227 195.474 225.567 195.139 225.786 194.689L227.282 195.218C226.929 195.936 226.406 196.508 225.713 196.933C225.032 197.359 224.181 197.572 223.159 197.572ZM225.567 192.044C225.555 191.29 225.306 190.712 224.819 190.311C224.333 189.898 223.737 189.691 223.031 189.691C222.411 189.691 221.87 189.898 221.408 190.311C220.946 190.725 220.666 191.302 220.569 192.044H225.567ZM230.604 194.598C230.714 194.987 230.89 195.285 231.134 195.492C231.377 195.699 231.644 195.839 231.936 195.912C232.24 195.985 232.52 196.021 232.775 196.021C233.31 196.021 233.736 195.918 234.052 195.711C234.368 195.504 234.527 195.243 234.527 194.927C234.527 194.549 234.32 194.27 233.906 194.087C233.505 193.893 233.031 193.729 232.483 193.595C232.106 193.485 231.723 193.37 231.334 193.248C230.945 193.114 230.586 192.95 230.258 192.756C229.942 192.549 229.686 192.287 229.492 191.971C229.297 191.655 229.2 191.254 229.2 190.767C229.2 190.293 229.346 189.855 229.638 189.454C229.93 189.052 230.337 188.736 230.86 188.505C231.383 188.262 231.991 188.14 232.684 188.14C233.426 188.14 234.083 188.31 234.654 188.651C235.226 188.992 235.639 189.49 235.895 190.147L234.399 190.658C234.265 190.305 234.016 190.05 233.651 189.892C233.298 189.721 232.97 189.636 232.666 189.636C232.167 189.636 231.772 189.746 231.48 189.964C231.188 190.183 231.042 190.445 231.042 190.749C231.042 191.029 231.14 191.254 231.334 191.424C231.529 191.594 231.784 191.734 232.1 191.843C232.417 191.953 232.757 192.056 233.122 192.154C233.608 192.287 234.095 192.452 234.581 192.646C235.068 192.829 235.475 193.096 235.804 193.449C236.132 193.802 236.302 194.288 236.314 194.908C236.314 195.419 236.168 195.881 235.877 196.295C235.585 196.696 235.171 197.012 234.636 197.243C234.113 197.474 233.505 197.59 232.812 197.59C232.265 197.59 231.736 197.517 231.225 197.371C230.726 197.213 230.288 196.958 229.911 196.605C229.534 196.24 229.255 195.754 229.072 195.145L230.604 194.598ZM238.079 188.304C238.347 188.304 238.559 188.219 238.718 188.049C238.888 187.879 238.973 187.66 238.973 187.392V186.061H240.651V188.304H242.932V189.892H240.651V194.306C240.651 194.902 240.785 195.322 241.053 195.565C241.332 195.808 241.722 195.93 242.22 195.93C242.415 195.93 242.652 195.912 242.932 195.875V197.353C242.579 197.426 242.238 197.462 241.91 197.462C241.375 197.462 240.87 197.365 240.396 197.17C239.934 196.964 239.551 196.629 239.247 196.167C238.955 195.705 238.809 195.085 238.809 194.306V189.892H237.514V188.304H238.079ZM250.664 194.598C250.774 194.987 250.95 195.285 251.193 195.492C251.436 195.699 251.704 195.839 251.996 195.912C252.3 195.985 252.58 196.021 252.835 196.021C253.37 196.021 253.796 195.918 254.112 195.711C254.428 195.504 254.586 195.243 254.586 194.927C254.586 194.549 254.38 194.27 253.966 194.087C253.565 193.893 253.09 193.729 252.543 193.595C252.166 193.485 251.783 193.37 251.394 193.248C251.005 193.114 250.646 192.95 250.318 192.756C250.001 192.549 249.746 192.287 249.551 191.971C249.357 191.655 249.259 191.254 249.259 190.767C249.259 190.293 249.405 189.855 249.697 189.454C249.989 189.052 250.397 188.736 250.919 188.505C251.442 188.262 252.051 188.14 252.744 188.14C253.486 188.14 254.142 188.31 254.714 188.651C255.286 188.992 255.699 189.49 255.954 190.147L254.459 190.658C254.325 190.305 254.075 190.05 253.711 189.892C253.358 189.721 253.03 189.636 252.726 189.636C252.227 189.636 251.832 189.746 251.54 189.964C251.248 190.183 251.102 190.445 251.102 190.749C251.102 191.029 251.199 191.254 251.394 191.424C251.588 191.594 251.844 191.734 252.16 191.843C252.476 191.953 252.817 192.056 253.182 192.154C253.668 192.287 254.155 192.452 254.641 192.646C255.127 192.829 255.535 193.096 255.863 193.449C256.192 193.802 256.362 194.288 256.374 194.908C256.374 195.419 256.228 195.881 255.936 196.295C255.644 196.696 255.231 197.012 254.696 197.243C254.173 197.474 253.565 197.59 252.871 197.59C252.324 197.59 251.795 197.517 251.284 197.371C250.786 197.213 250.348 196.958 249.971 196.605C249.594 196.24 249.314 195.754 249.132 195.145L250.664 194.598ZM260.215 193.394C260.215 194.245 260.397 194.89 260.762 195.328C261.139 195.766 261.674 195.985 262.367 195.985C263.061 195.985 263.608 195.76 264.009 195.31C264.423 194.86 264.63 194.191 264.63 193.303V188.304H266.454V197.426H264.775L264.666 196.368C264.034 197.158 263.152 197.553 262.021 197.553C260.963 197.553 260.093 197.225 259.412 196.568C258.731 195.912 258.39 194.933 258.39 193.631V188.304H260.215V193.394ZM278.509 192.81C278.509 193.759 278.326 194.592 277.961 195.31C277.609 196.015 277.116 196.568 276.484 196.97C275.851 197.371 275.128 197.572 274.313 197.572C273.571 197.572 272.932 197.426 272.397 197.134C271.874 196.842 271.461 196.489 271.157 196.076L271.029 197.426H269.351V184.291H271.175V189.581C271.491 189.18 271.917 188.84 272.452 188.56C272.987 188.28 273.607 188.14 274.313 188.14C275.14 188.14 275.863 188.335 276.484 188.724C277.116 189.113 277.609 189.66 277.961 190.366C278.326 191.059 278.509 191.874 278.509 192.81ZM276.648 192.81C276.648 191.825 276.386 191.065 275.863 190.53C275.353 189.995 274.72 189.727 273.966 189.727C273.48 189.727 273.024 189.855 272.598 190.11C272.172 190.354 271.826 190.706 271.558 191.169C271.303 191.631 271.175 192.19 271.175 192.847C271.175 193.504 271.303 194.069 271.558 194.543C271.826 195.018 272.172 195.383 272.598 195.638C273.024 195.881 273.48 196.003 273.966 196.003C274.72 196.003 275.353 195.723 275.863 195.164C276.386 194.604 276.648 193.82 276.648 192.81ZM286.847 192.318C286.847 190.591 286.147 189.727 284.749 189.727C284.055 189.727 283.508 189.958 283.107 190.421C282.706 190.871 282.505 191.539 282.505 192.427V197.426H280.681V188.304H282.359L282.487 189.326C282.779 188.961 283.149 188.675 283.599 188.469C284.049 188.25 284.542 188.14 285.077 188.14C285.758 188.14 286.36 188.28 286.883 188.56C287.406 188.827 287.82 189.235 288.124 189.782C288.428 189.235 288.859 188.827 289.419 188.56C289.99 188.28 290.599 188.14 291.243 188.14C292.301 188.14 293.165 188.475 293.834 189.144C294.502 189.8 294.837 190.785 294.837 192.099V197.426H293.031V192.318C293.031 191.466 292.842 190.822 292.465 190.384C292.101 189.946 291.578 189.727 290.897 189.727C290.215 189.727 289.668 189.958 289.255 190.421C288.853 190.871 288.653 191.539 288.653 192.427V197.426H286.847V192.318ZM298.737 186.699C298.409 186.699 298.129 186.59 297.898 186.371C297.679 186.152 297.57 185.884 297.57 185.568C297.57 185.227 297.679 184.948 297.898 184.729C298.129 184.51 298.409 184.4 298.737 184.4C299.053 184.4 299.321 184.51 299.54 184.729C299.771 184.948 299.887 185.227 299.887 185.568C299.887 185.884 299.771 186.152 299.54 186.371C299.321 186.59 299.053 186.699 298.737 186.699ZM297.807 188.304H299.631V197.426H297.807V188.304ZM302.552 188.304C302.82 188.304 303.033 188.219 303.191 188.049C303.361 187.879 303.446 187.66 303.446 187.392V186.061H305.125V188.304H307.405V189.892H305.125V194.306C305.125 194.902 305.258 195.322 305.526 195.565C305.806 195.808 306.195 195.93 306.693 195.93C306.888 195.93 307.125 195.912 307.405 195.875V197.353C307.052 197.426 306.712 197.462 306.383 197.462C305.848 197.462 305.343 197.365 304.869 197.17C304.407 196.964 304.024 196.629 303.72 196.167C303.428 195.705 303.282 195.085 303.282 194.306V189.892H301.987V188.304H302.552ZM309.251 188.304C309.519 188.304 309.732 188.219 309.89 188.049C310.06 187.879 310.145 187.66 310.145 187.392V186.061H311.823V188.304H314.104V189.892H311.823V194.306C311.823 194.902 311.957 195.322 312.225 195.565C312.504 195.808 312.894 195.93 313.392 195.93C313.587 195.93 313.824 195.912 314.104 195.875V197.353C313.751 197.426 313.41 197.462 313.082 197.462C312.547 197.462 312.042 197.365 311.568 197.17C311.106 196.964 310.723 196.629 310.419 196.167C310.127 195.705 309.981 195.085 309.981 194.306V189.892H308.686V188.304H309.251ZM319.859 197.572C318.983 197.572 318.205 197.377 317.524 196.988C316.855 196.599 316.326 196.051 315.936 195.346C315.559 194.629 315.371 193.789 315.371 192.829C315.371 191.88 315.553 191.053 315.918 190.348C316.283 189.642 316.8 189.101 317.469 188.724C318.138 188.335 318.922 188.14 319.822 188.14C320.698 188.14 321.458 188.329 322.102 188.706C322.759 189.083 323.264 189.606 323.617 190.275C323.981 190.944 324.164 191.704 324.164 192.555C324.164 192.701 324.158 192.853 324.146 193.011C324.146 193.169 324.127 193.339 324.091 193.522H317.25C317.311 194.337 317.578 194.957 318.053 195.383C318.539 195.808 319.129 196.021 319.822 196.021C320.467 196.021 321.014 195.912 321.464 195.693C321.926 195.474 322.267 195.139 322.486 194.689L323.981 195.218C323.629 195.936 323.106 196.508 322.413 196.933C321.732 197.359 320.88 197.572 319.859 197.572ZM322.267 192.044C322.254 191.29 322.005 190.712 321.519 190.311C321.032 189.898 320.436 189.691 319.731 189.691C319.111 189.691 318.569 189.898 318.107 190.311C317.645 190.725 317.365 191.302 317.268 192.044H322.267ZM333.105 184.291H334.93V197.426H333.269L333.142 196.076C332.825 196.489 332.4 196.842 331.865 197.134C331.342 197.426 330.709 197.572 329.967 197.572C329.14 197.572 328.411 197.371 327.778 196.97C327.158 196.568 326.666 196.015 326.301 195.31C325.948 194.592 325.772 193.759 325.772 192.81C325.772 191.874 325.948 191.059 326.301 190.366C326.666 189.66 327.158 189.113 327.778 188.724C328.411 188.335 329.14 188.14 329.967 188.14C330.661 188.14 331.275 188.292 331.81 188.596C332.357 188.888 332.789 189.235 333.105 189.636V184.291ZM327.632 192.81C327.632 193.82 327.888 194.604 328.399 195.164C328.922 195.723 329.554 196.003 330.296 196.003C330.794 196.003 331.257 195.881 331.682 195.638C332.108 195.383 332.448 195.018 332.704 194.543C332.971 194.069 333.105 193.504 333.105 192.847C333.105 192.19 332.971 191.631 332.704 191.169C332.448 190.706 332.108 190.354 331.682 190.11C331.257 189.855 330.794 189.727 330.296 189.727C329.554 189.727 328.922 189.995 328.399 190.53C327.888 191.065 327.632 191.825 327.632 192.81ZM351.782 192.81C351.782 193.759 351.6 194.592 351.235 195.31C350.882 196.015 350.389 196.568 349.757 196.97C349.125 197.371 348.401 197.572 347.586 197.572C346.844 197.572 346.206 197.426 345.671 197.134C345.148 196.842 344.734 196.489 344.43 196.076L344.303 197.426H342.624V184.291H344.448V189.581C344.765 189.18 345.19 188.84 345.725 188.56C346.261 188.28 346.881 188.14 347.586 188.14C348.413 188.14 349.137 188.335 349.757 188.724C350.389 189.113 350.882 189.66 351.235 190.366C351.6 191.059 351.782 191.874 351.782 192.81ZM349.921 192.81C349.921 191.825 349.66 191.065 349.137 190.53C348.626 189.995 347.994 189.727 347.24 189.727C346.753 189.727 346.297 189.855 345.871 190.11C345.446 190.354 345.099 190.706 344.832 191.169C344.576 191.631 344.448 192.19 344.448 192.847C344.448 193.504 344.576 194.069 344.832 194.543C345.099 195.018 345.446 195.383 345.871 195.638C346.297 195.881 346.753 196.003 347.24 196.003C347.994 196.003 348.626 195.723 349.137 195.164C349.66 194.604 349.921 193.82 349.921 192.81ZM359.712 188.304H361.609L356.318 201.074H354.421L356.027 197.225L352.414 188.304H354.421L357.066 195.2L359.712 188.304ZM163.452 219.317H161.062L156.118 213.607H155.407V219.317H153.583V206.547H155.407V212.111H156.118L161.08 206.547H163.379L157.724 212.804L163.452 219.317ZM167.954 219.317H166.112L163.248 210.196H165.108L167.024 217.256L169.049 210.196H170.891L172.843 217.219L174.722 210.196H176.547L173.719 219.317H171.858L169.924 212.713L167.954 219.317ZM183.547 219.317L183.401 217.985C183.133 218.423 182.781 218.782 182.343 219.062C181.917 219.341 181.37 219.481 180.701 219.481C179.752 219.481 178.992 219.244 178.421 218.77C177.849 218.295 177.563 217.651 177.563 216.836C177.563 216.313 177.673 215.881 177.892 215.541C178.123 215.188 178.427 214.908 178.804 214.702C179.181 214.483 179.6 214.318 180.063 214.209C180.525 214.087 180.999 213.996 181.485 213.935C182.154 213.862 182.641 213.777 182.945 213.68C183.249 213.571 183.401 213.346 183.401 213.005C183.401 212.64 183.261 212.318 182.981 212.038C182.702 211.746 182.227 211.6 181.558 211.6C181.048 211.6 180.592 211.74 180.19 212.02C179.801 212.287 179.533 212.671 179.388 213.169L177.837 212.622C178.068 211.831 178.518 211.199 179.187 210.725C179.868 210.25 180.689 210.013 181.65 210.013C182.732 210.013 183.602 210.335 184.258 210.98C184.927 211.612 185.262 212.591 185.262 213.917V219.317H183.547ZM183.401 215.176L181.212 215.45C180.567 215.535 180.111 215.681 179.844 215.887C179.576 216.094 179.442 216.38 179.442 216.745C179.442 217.122 179.582 217.408 179.862 217.602C180.142 217.785 180.531 217.876 181.029 217.876C181.674 217.876 182.227 217.651 182.689 217.201C183.164 216.751 183.401 216.118 183.401 215.304V215.176ZM197.156 214.702C197.156 215.65 196.973 216.483 196.609 217.201C196.256 217.906 195.763 218.46 195.131 218.861C194.499 219.262 193.775 219.463 192.96 219.463C192.218 219.463 191.58 219.317 191.045 219.025C190.522 218.733 190.108 218.381 189.804 217.967L189.676 219.317H187.998V206.182H189.822V211.473C190.139 211.071 190.564 210.731 191.099 210.451C191.634 210.171 192.255 210.031 192.96 210.031C193.787 210.031 194.511 210.226 195.131 210.615C195.763 211.004 196.256 211.552 196.609 212.257C196.973 212.95 197.156 213.765 197.156 214.702ZM195.295 214.702C195.295 213.716 195.034 212.956 194.511 212.421C194 211.886 193.367 211.619 192.613 211.619C192.127 211.619 191.671 211.746 191.245 212.002C190.82 212.245 190.473 212.598 190.205 213.06C189.95 213.522 189.822 214.081 189.822 214.738C189.822 215.395 189.95 215.96 190.205 216.435C190.473 216.909 190.82 217.274 191.245 217.529C191.671 217.772 192.127 217.894 192.613 217.894C193.367 217.894 194 217.614 194.511 217.055C195.034 216.495 195.295 215.711 195.295 214.702ZM203.25 219.463C202.375 219.463 201.596 219.268 200.915 218.879C200.246 218.49 199.717 217.943 199.328 217.237C198.951 216.52 198.762 215.681 198.762 214.72C198.762 213.771 198.945 212.944 199.31 212.239C199.675 211.533 200.191 210.992 200.86 210.615C201.529 210.226 202.314 210.031 203.214 210.031C204.089 210.031 204.849 210.22 205.494 210.597C206.151 210.974 206.655 211.497 207.008 212.166C207.373 212.835 207.555 213.595 207.555 214.446C207.555 214.592 207.549 214.744 207.537 214.902C207.537 215.06 207.519 215.231 207.482 215.413H200.641C200.702 216.228 200.97 216.848 201.444 217.274C201.931 217.699 202.52 217.912 203.214 217.912C203.858 217.912 204.406 217.803 204.856 217.584C205.318 217.365 205.658 217.031 205.877 216.581L207.373 217.11C207.02 217.827 206.497 218.399 205.804 218.824C205.123 219.25 204.272 219.463 203.25 219.463ZM205.658 213.935C205.646 213.181 205.397 212.604 204.91 212.202C204.424 211.789 203.828 211.582 203.123 211.582C202.502 211.582 201.961 211.789 201.499 212.202C201.037 212.616 200.757 213.193 200.66 213.935H205.658ZM216.114 214.209C216.114 213.358 215.925 212.713 215.548 212.275C215.183 211.837 214.654 211.619 213.961 211.619C213.268 211.619 212.715 211.844 212.301 212.294C211.9 212.744 211.699 213.412 211.699 214.3V219.317H209.875V210.196H211.553L211.681 211.217C211.985 210.84 212.362 210.548 212.812 210.342C213.274 210.135 213.779 210.031 214.326 210.031C215.384 210.031 216.247 210.366 216.916 211.035C217.597 211.692 217.938 212.677 217.938 213.99V219.317H216.114V214.209ZM226.107 219.317L225.961 217.985C225.694 218.423 225.341 218.782 224.903 219.062C224.477 219.341 223.93 219.481 223.261 219.481C222.313 219.481 221.552 219.244 220.981 218.77C220.409 218.295 220.123 217.651 220.123 216.836C220.123 216.313 220.233 215.881 220.452 215.541C220.683 215.188 220.987 214.908 221.364 214.702C221.741 214.483 222.161 214.318 222.623 214.209C223.085 214.087 223.559 213.996 224.046 213.935C224.715 213.862 225.201 213.777 225.505 213.68C225.809 213.571 225.961 213.346 225.961 213.005C225.961 212.64 225.821 212.318 225.542 212.038C225.262 211.746 224.787 211.6 224.119 211.6C223.608 211.6 223.152 211.74 222.75 212.02C222.361 212.287 222.094 212.671 221.948 213.169L220.397 212.622C220.628 211.831 221.078 211.199 221.747 210.725C222.428 210.25 223.249 210.013 224.21 210.013C225.292 210.013 226.162 210.335 226.818 210.98C227.487 211.612 227.822 212.591 227.822 213.917V219.317H226.107ZM225.961 215.176L223.772 215.45C223.127 215.535 222.671 215.681 222.404 215.887C222.136 216.094 222.002 216.38 222.002 216.745C222.002 217.122 222.142 217.408 222.422 217.602C222.702 217.785 223.091 217.876 223.59 217.876C224.234 217.876 224.787 217.651 225.25 217.201C225.724 216.751 225.961 216.118 225.961 215.304V215.176ZM239.929 206.547C241.303 206.547 242.495 206.809 243.504 207.332C244.514 207.854 245.292 208.596 245.84 209.557C246.387 210.518 246.66 211.661 246.66 212.987C246.66 214.288 246.387 215.413 245.84 216.362C245.292 217.31 244.514 218.04 243.504 218.551C242.495 219.062 241.303 219.317 239.929 219.317H235.532V206.547H239.929ZM239.929 217.821C241.522 217.821 242.726 217.395 243.541 216.544C244.368 215.681 244.781 214.495 244.781 212.987C244.781 211.467 244.368 210.263 243.541 209.375C242.726 208.487 241.522 208.043 239.929 208.043H237.357V217.821H239.929ZM254.344 219.317L254.198 217.985C253.931 218.423 253.578 218.782 253.14 219.062C252.715 219.341 252.167 219.481 251.498 219.481C250.55 219.481 249.79 219.244 249.218 218.77C248.646 218.295 248.361 217.651 248.361 216.836C248.361 216.313 248.47 215.881 248.689 215.541C248.92 215.188 249.224 214.908 249.601 214.702C249.978 214.483 250.398 214.318 250.86 214.209C251.322 214.087 251.796 213.996 252.283 213.935C252.952 213.862 253.438 213.777 253.742 213.68C254.046 213.571 254.198 213.346 254.198 213.005C254.198 212.64 254.058 212.318 253.779 212.038C253.499 211.746 253.025 211.6 252.356 211.6C251.845 211.6 251.389 211.74 250.988 212.02C250.598 212.287 250.331 212.671 250.185 213.169L248.634 212.622C248.865 211.831 249.315 211.199 249.984 210.725C250.665 210.25 251.486 210.013 252.447 210.013C253.529 210.013 254.399 210.335 255.056 210.98C255.725 211.612 256.059 212.591 256.059 213.917V219.317H254.344ZM254.198 215.176L252.009 215.45C251.365 215.535 250.909 215.681 250.641 215.887C250.373 216.094 250.24 216.38 250.24 216.745C250.24 217.122 250.38 217.408 250.659 217.602C250.939 217.785 251.328 217.876 251.827 217.876C252.471 217.876 253.025 217.651 253.487 217.201C253.961 216.751 254.198 216.118 254.198 215.304V215.176ZM259.442 210.196L262.051 217.456L264.696 210.196H266.612L263.073 219.317H261.011L257.472 210.196H259.442ZM271.91 219.463C271.034 219.463 270.256 219.268 269.574 218.879C268.906 218.49 268.377 217.943 267.987 217.237C267.61 216.52 267.422 215.681 267.422 214.72C267.422 213.771 267.604 212.944 267.969 212.239C268.334 211.533 268.851 210.992 269.52 210.615C270.189 210.226 270.973 210.031 271.873 210.031C272.749 210.031 273.509 210.22 274.153 210.597C274.81 210.974 275.315 211.497 275.668 212.166C276.032 212.835 276.215 213.595 276.215 214.446C276.215 214.592 276.209 214.744 276.197 214.902C276.197 215.06 276.178 215.231 276.142 215.413H269.301C269.362 216.228 269.629 216.848 270.103 217.274C270.59 217.699 271.18 217.912 271.873 217.912C272.518 217.912 273.065 217.803 273.515 217.584C273.977 217.365 274.318 217.031 274.536 216.581L276.032 217.11C275.68 217.827 275.157 218.399 274.464 218.824C273.782 219.25 272.931 219.463 271.91 219.463ZM274.318 213.935C274.305 213.181 274.056 212.604 273.57 212.202C273.083 211.789 272.487 211.582 271.782 211.582C271.162 211.582 270.62 211.789 270.158 212.202C269.696 212.616 269.416 213.193 269.319 213.935H274.318Z" fill="#4D4D4D"/>
<path d="M196.901 236.953H58.2562C51.2036 236.953 45.4863 242.67 45.4863 249.723V277.695C45.4863 284.748 51.2036 290.465 58.2562 290.465H196.901C203.953 290.465 209.67 284.748 209.67 277.695V249.723C209.67 242.67 203.953 236.953 196.901 236.953Z" stroke="#8778F7"/>
<path d="M98.166 263.136C98.166 262.175 98.3302 261.299 98.6586 260.509C98.987 259.706 99.443 259.019 100.027 258.447C100.611 257.864 101.292 257.414 102.07 257.098C102.848 256.769 103.681 256.605 104.569 256.605C105.846 256.605 106.989 256.909 107.999 257.517C109.008 258.113 109.768 258.964 110.279 260.071L108.747 260.637C108.321 259.797 107.725 259.189 106.959 258.812C106.205 258.423 105.421 258.229 104.606 258.229C103.742 258.229 102.964 258.429 102.271 258.831C101.577 259.232 101.03 259.797 100.629 260.527C100.24 261.257 100.045 262.126 100.045 263.136C100.045 264.145 100.24 265.021 100.629 265.763C101.03 266.493 101.577 267.058 102.271 267.459C102.964 267.861 103.742 268.061 104.606 268.061C105.433 268.061 106.241 267.849 107.032 267.423C107.835 266.997 108.461 266.286 108.911 265.288L110.443 265.836C109.896 267.125 109.106 268.086 108.072 268.718C107.05 269.338 105.883 269.648 104.569 269.648C103.681 269.648 102.848 269.49 102.07 269.174C101.292 268.858 100.611 268.414 100.027 267.842C99.443 267.259 98.987 266.572 98.6586 265.781C98.3302 264.978 98.166 264.097 98.166 263.136ZM118.386 269.539L118.24 268.207C117.973 268.645 117.62 269.004 117.182 269.284C116.757 269.563 116.209 269.703 115.54 269.703C114.592 269.703 113.832 269.466 113.26 268.992C112.688 268.517 112.403 267.873 112.403 267.058C112.403 266.535 112.512 266.103 112.731 265.763C112.962 265.41 113.266 265.13 113.643 264.924C114.02 264.705 114.44 264.541 114.902 264.431C115.364 264.309 115.838 264.218 116.325 264.157C116.994 264.084 117.48 263.999 117.784 263.902C118.088 263.793 118.24 263.568 118.24 263.227C118.24 262.862 118.1 262.54 117.821 262.26C117.541 261.968 117.067 261.822 116.398 261.822C115.887 261.822 115.431 261.962 115.03 262.242C114.64 262.51 114.373 262.893 114.227 263.391L112.676 262.844C112.907 262.053 113.357 261.421 114.026 260.947C114.707 260.472 115.528 260.235 116.489 260.235C117.571 260.235 118.441 260.558 119.098 261.202C119.767 261.835 120.101 262.814 120.101 264.139V269.539H118.386ZM118.24 265.398L116.051 265.672C115.407 265.757 114.95 265.903 114.683 266.109C114.415 266.316 114.282 266.602 114.282 266.967C114.282 267.344 114.421 267.63 114.701 267.824C114.981 268.007 115.37 268.098 115.869 268.098C116.513 268.098 117.067 267.873 117.529 267.423C118.003 266.973 118.24 266.34 118.24 265.526V265.398ZM129.076 264.431C129.076 263.58 128.888 262.935 128.511 262.497C128.146 262.06 127.617 261.841 126.924 261.841C126.231 261.841 125.677 262.066 125.264 262.516C124.862 262.966 124.662 263.635 124.662 264.522V269.539H122.837V260.418H124.516L124.643 261.439C124.947 261.062 125.325 260.77 125.775 260.564C126.237 260.357 126.741 260.254 127.289 260.254C128.347 260.254 129.21 260.588 129.879 261.257C130.56 261.914 130.901 262.899 130.901 264.212V269.539H129.076V264.431ZM137.537 269.685C136.662 269.685 135.883 269.49 135.202 269.101C134.533 268.712 134.01 268.165 133.633 267.459C133.256 266.754 133.068 265.921 133.068 264.96C133.068 264.011 133.256 263.184 133.633 262.479C134.01 261.774 134.533 261.226 135.202 260.837C135.883 260.448 136.662 260.254 137.537 260.254C138.523 260.254 139.368 260.466 140.073 260.892C140.778 261.318 141.295 261.92 141.624 262.698L140.073 263.227C139.879 262.765 139.556 262.418 139.106 262.187C138.668 261.956 138.164 261.841 137.592 261.841C137.118 261.841 136.674 261.968 136.26 262.224C135.859 262.467 135.537 262.82 135.294 263.282C135.05 263.744 134.929 264.303 134.929 264.96C134.929 265.617 135.05 266.182 135.294 266.657C135.537 267.119 135.859 267.478 136.26 267.733C136.674 267.976 137.118 268.098 137.592 268.098C138.152 268.098 138.656 267.994 139.106 267.788C139.556 267.569 139.897 267.216 140.128 266.73L141.642 267.277C141.301 268.007 140.772 268.59 140.055 269.028C139.349 269.466 138.51 269.685 137.537 269.685ZM147.781 269.685C146.906 269.685 146.127 269.49 145.446 269.101C144.777 268.712 144.248 268.165 143.859 267.459C143.482 266.742 143.294 265.903 143.294 264.942C143.294 263.993 143.476 263.166 143.841 262.461C144.206 261.755 144.723 261.214 145.391 260.837C146.06 260.448 146.845 260.254 147.745 260.254C148.62 260.254 149.381 260.442 150.025 260.819C150.682 261.196 151.187 261.719 151.539 262.388C151.904 263.057 152.087 263.817 152.087 264.668C152.087 264.814 152.08 264.966 152.068 265.124C152.068 265.282 152.05 265.453 152.014 265.635H145.173C145.233 266.45 145.501 267.07 145.975 267.496C146.462 267.922 147.052 268.134 147.745 268.134C148.389 268.134 148.937 268.025 149.387 267.806C149.849 267.587 150.189 267.253 150.408 266.803L151.904 267.332C151.551 268.049 151.028 268.621 150.335 269.046C149.654 269.472 148.803 269.685 147.781 269.685ZM150.189 264.157C150.177 263.403 149.928 262.826 149.441 262.424C148.955 262.011 148.359 261.804 147.654 261.804C147.033 261.804 146.492 262.011 146.03 262.424C145.568 262.838 145.288 263.416 145.191 264.157H150.189ZM154.406 256.404H156.23V269.539H154.406V256.404Z" fill="#8778F7"/>
<path d="M371.921 236.344H233.276C225.888 236.344 219.898 242.333 219.898 249.722V277.694C219.898 285.082 225.888 291.072 233.276 291.072H371.921C379.309 291.072 385.299 285.082 385.299 277.694V249.722C385.299 242.333 379.309 236.344 371.921 236.344Z" fill="#8778F7"/>
<path d="M271.523 269.539L276.102 256.77H279.368L283.947 269.539H282.031L280.882 266.256H274.588L273.421 269.539H271.523ZM278.054 258.265H277.398L275.099 264.778H280.353L278.054 258.265ZM289.015 269.685C288.139 269.685 287.36 269.491 286.679 269.102C286.011 268.712 285.488 268.165 285.111 267.46C284.734 266.754 284.545 265.921 284.545 264.96C284.545 264.012 284.734 263.185 285.111 262.479C285.488 261.774 286.011 261.227 286.679 260.838C287.36 260.448 288.139 260.254 289.015 260.254C290 260.254 290.845 260.467 291.55 260.892C292.256 261.318 292.773 261.92 293.101 262.698L291.55 263.227C291.356 262.765 291.033 262.419 290.583 262.188C290.146 261.957 289.641 261.841 289.069 261.841C288.595 261.841 288.151 261.969 287.737 262.224C287.336 262.467 287.014 262.82 286.771 263.282C286.527 263.744 286.406 264.304 286.406 264.96C286.406 265.617 286.527 266.183 286.771 266.657C287.014 267.119 287.336 267.478 287.737 267.733C288.151 267.977 288.595 268.098 289.069 268.098C289.629 268.098 290.133 267.995 290.583 267.788C291.033 267.569 291.374 267.216 291.605 266.73L293.119 267.277C292.779 268.007 292.25 268.591 291.532 269.029C290.827 269.466 289.987 269.685 289.015 269.685ZM299.24 269.685C298.364 269.685 297.586 269.491 296.905 269.102C296.236 268.712 295.713 268.165 295.336 267.46C294.959 266.754 294.771 265.921 294.771 264.96C294.771 264.012 294.959 263.185 295.336 262.479C295.713 261.774 296.236 261.227 296.905 260.838C297.586 260.448 298.364 260.254 299.24 260.254C300.225 260.254 301.07 260.467 301.776 260.892C302.481 261.318 302.998 261.92 303.326 262.698L301.776 263.227C301.581 262.765 301.259 262.419 300.809 262.188C300.371 261.957 299.866 261.841 299.295 261.841C298.821 261.841 298.377 261.969 297.963 262.224C297.562 262.467 297.24 262.82 296.996 263.282C296.753 263.744 296.631 264.304 296.631 264.96C296.631 265.617 296.753 266.183 296.996 266.657C297.24 267.119 297.562 267.478 297.963 267.733C298.377 267.977 298.821 268.098 299.295 268.098C299.854 268.098 300.359 267.995 300.809 267.788C301.259 267.569 301.6 267.216 301.831 266.73L303.345 267.277C303.004 268.007 302.475 268.591 301.758 269.029C301.052 269.466 300.213 269.685 299.24 269.685ZM309.484 269.685C308.608 269.685 307.83 269.491 307.149 269.102C306.48 268.712 305.951 268.165 305.562 267.46C305.185 266.742 304.996 265.903 304.996 264.942C304.996 263.994 305.179 263.167 305.544 262.461C305.908 261.756 306.425 261.215 307.094 260.838C307.763 260.448 308.548 260.254 309.448 260.254C310.323 260.254 311.083 260.442 311.728 260.819C312.385 261.196 312.889 261.719 313.242 262.388C313.607 263.057 313.789 263.817 313.789 264.669C313.789 264.815 313.783 264.967 313.771 265.125C313.771 265.283 313.753 265.453 313.716 265.635H306.875C306.936 266.45 307.204 267.071 307.678 267.496C308.164 267.922 308.754 268.135 309.448 268.135C310.092 268.135 310.639 268.025 311.089 267.806C311.552 267.587 311.892 267.253 312.111 266.803L313.607 267.332C313.254 268.05 312.731 268.621 312.038 269.047C311.357 269.473 310.506 269.685 309.484 269.685ZM311.892 264.158C311.88 263.404 311.631 262.826 311.144 262.425C310.658 262.011 310.062 261.804 309.356 261.804C308.736 261.804 308.195 262.011 307.733 262.425C307.271 262.838 306.991 263.416 306.894 264.158H311.892ZM317.933 273.188H316.109V260.418H317.787L317.915 261.768C318.219 261.342 318.632 260.99 319.155 260.71C319.69 260.418 320.329 260.272 321.071 260.272C321.885 260.272 322.609 260.473 323.241 260.874C323.874 261.263 324.366 261.817 324.719 262.534C325.084 263.24 325.266 264.067 325.266 265.015C325.266 265.952 325.084 266.773 324.719 267.478C324.366 268.183 323.874 268.731 323.241 269.12C322.621 269.497 321.898 269.685 321.071 269.685C320.365 269.685 319.745 269.539 319.21 269.247C318.675 268.956 318.249 268.609 317.933 268.208V273.188ZM323.406 265.015C323.406 264.006 323.144 263.227 322.621 262.68C322.11 262.121 321.478 261.841 320.724 261.841C320.237 261.841 319.781 261.969 319.356 262.224C318.93 262.467 318.583 262.826 318.316 263.3C318.06 263.763 317.933 264.322 317.933 264.979C317.933 265.635 318.06 266.201 318.316 266.675C318.583 267.137 318.93 267.49 319.356 267.733C319.781 267.977 320.237 268.098 320.724 268.098C321.478 268.098 322.11 267.837 322.621 267.314C323.144 266.779 323.406 266.012 323.406 265.015ZM327.221 260.418C327.488 260.418 327.701 260.333 327.859 260.163C328.03 259.992 328.115 259.773 328.115 259.506V258.174H329.793V260.418H332.073V262.005H329.793V266.42C329.793 267.016 329.927 267.435 330.194 267.679C330.474 267.922 330.863 268.043 331.362 268.043C331.556 268.043 331.794 268.025 332.073 267.989V269.466C331.721 269.539 331.38 269.576 331.052 269.576C330.517 269.576 330.012 269.479 329.538 269.284C329.075 269.077 328.692 268.743 328.388 268.281C328.096 267.819 327.95 267.198 327.95 266.42V262.005H326.655V260.418H327.221Z" fill="white"/>
<path opacity="0.5" d="M253.452 122.632V112.59C253.452 100.587 253.452 94.58 249.939 90.6797C249.618 90.3209 249.276 89.9779 248.918 89.6544C245.019 86.147 239.012 86.147 227.008 86.147H225.303C220.044 86.147 217.414 86.147 214.96 85.4489C213.613 85.0646 212.316 84.5258 211.092 83.8435C208.867 82.6079 207.006 80.7423 203.284 77.0256L200.777 74.5179C199.526 73.2676 198.906 72.6474 198.249 72.1001C195.424 69.759 191.96 68.3239 188.307 67.9821C187.458 67.9043 186.574 67.9043 184.813 67.9043C180.786 67.9043 178.775 67.9043 177.096 68.2229C173.493 68.904 170.179 70.6553 167.585 73.2482C164.992 75.8411 163.239 79.1552 162.557 82.7587C162.238 84.4407 162.238 86.4571 162.238 90.479V122.632C162.238 139.83 162.238 148.432 167.583 153.773C172.924 159.118 181.526 159.118 198.724 159.118H216.966C234.164 159.118 242.766 159.118 248.107 153.773C253.452 148.432 253.452 139.83 253.452 122.632Z" fill="#8778F7"/>
<path d="M214.739 112.295L201.766 125.268M201.766 112.295L214.739 125.268" stroke="#8778F7" stroke-width="3" stroke-linecap="round"/>
<path d="M381.511 58.2692C381.707 58.4657 381.817 58.7323 381.817 59.0103C381.817 59.2882 381.707 59.5548 381.511 59.7513C381.314 59.948 381.047 60.0584 380.769 60.0584C380.492 60.0584 380.225 59.948 380.028 59.7513L374.492 54.2139L368.955 59.7496C368.759 59.9461 368.492 60.0566 368.214 60.0566C367.936 60.0566 367.67 59.9461 367.473 59.7496C367.277 59.5531 367.166 59.2865 367.166 59.0085C367.166 58.7306 367.277 58.464 367.473 58.2675L373.011 52.7318L367.475 47.1944C367.278 46.9979 367.167 46.7313 367.167 46.4533C367.167 46.1752 367.278 45.9086 367.475 45.7121C367.671 45.5156 367.938 45.4052 368.216 45.4052C368.494 45.4052 368.76 45.5156 368.957 45.7121L374.492 51.2495L380.03 45.7113C380.227 45.5147 380.493 45.4043 380.771 45.4043C381.049 45.4043 381.316 45.5147 381.512 45.7113C381.709 45.9078 381.82 46.1744 381.82 46.4524C381.82 46.7303 381.709 46.9969 381.512 47.1935L375.975 52.7318L381.511 58.2692Z" fill="#939393"/>
</g>
<defs>
<filter id="filter0_d_2293_6857" x="0.689453" y="0" width="427.69" height="347.422" filterUnits="userSpaceOnUse" color-interpolation-filters="sRGB">
<feFlood flood-opacity="0" result="BackgroundImageFix"/>
<feColorMatrix in="SourceAlpha" type="matrix" values="0 0 0 0 0 0 0 0 0 0 0 0 0 0 0 0 0 0 127 0" result="hardAlpha"/>
<feOffset/>
<feGaussianBlur stdDeviation="7.5"/>
<feComposite in2="hardAlpha" operator="out"/>
<feColorMatrix type="matrix" values="0 0 0 0 0 0 0 0 0 0 0 0 0 0 0 0 0 0 0.1 0"/>
<feBlend mode="normal" in2="BackgroundImageFix" result="effect1_dropShadow_2293_6857"/>
<feBlend mode="normal" in="SourceGraphic" in2="effect1_dropShadow_2293_6857" result="shape"/>
</filter>
</defs>
</svg>
