<svg width="347" height="347" viewBox="0 0 347 347" fill="none" xmlns="http://www.w3.org/2000/svg">
<path d="M67.9633 262.789H43.5623V270.555H67.9633V262.789Z" fill="#EBEBEB"/>
<path d="M82.6205 172.215H58.2195V179.981H82.6205V172.215Z" fill="#EBEBEB"/>
<path d="M54.354 280.377C50.2871 280.446 40.0367 280.619 36.1087 280.661H29.9529H29.6406V280.377V272.611V272.264H29.9876L42.1881 272.312C45.2209 272.312 51.3489 272.402 54.3887 272.444H54.5552V272.611L54.354 280.377ZM54.354 280.377L54.1874 272.611L54.354 272.777C51.3073 272.819 45.1932 272.881 42.1534 272.909L29.9529 272.958L30.2999 272.611V280.377L29.9807 280.057H36.0254C39.891 280.106 50.3773 280.279 54.3817 280.349L54.354 280.377Z" fill="#EBEBEB"/>
<path d="M192.411 142.798C188.345 142.867 178.094 143.041 174.166 143.082H168.01H167.691V142.763V134.997V134.65H168.038L180.239 134.699C183.271 134.699 189.399 134.789 192.439 134.831H192.606V134.997L192.446 142.763L192.411 142.798ZM192.411 142.798L192.238 135.032L192.404 135.192C189.358 135.24 183.244 135.303 180.204 135.331L168.003 135.379L168.35 135.032L168.316 142.798L168.003 142.479H174.048C177.914 142.527 188.4 142.701 192.404 142.77L192.411 142.798Z" fill="#EBEBEB"/>
<path d="M178.795 152.59C174.735 152.659 164.485 152.833 160.55 152.874H154.401H154.068V152.562V144.796V144.449H154.422L166.615 144.498C169.655 144.498 175.783 144.588 178.816 144.63H178.989V144.796L178.823 152.562L178.795 152.59ZM178.795 152.59L178.635 144.824L178.795 144.984C175.755 145.032 169.641 145.095 166.595 145.122L154.401 145.171L154.748 144.824V152.59L154.436 152.271H160.48C164.346 152.319 174.832 152.493 178.83 152.562L178.795 152.59Z" fill="#EBEBEB"/>
<path d="M165.241 135.031H140.84V142.797H165.241V135.031Z" fill="#EBEBEB"/>
<path d="M317.047 272.582H292.646V280.348H317.047V272.582Z" fill="#EBEBEB"/>
<path d="M303.437 32.7695H279.036V40.5354H303.437V32.7695Z" fill="#EBEBEB"/>
<path d="M317.047 50.3281C312.98 50.3975 302.73 50.571 298.802 50.6127H292.646H292.334V50.3004L292.299 42.5345V42.1875H292.646L304.846 42.2361C307.886 42.2361 314.007 42.3263 317.047 42.3679H317.213V42.5345L317.047 50.3004V50.3281ZM317.047 50.3281L316.88 42.5623L317.047 42.7219C314 42.7705 307.893 42.8329 304.846 42.8607L292.646 42.9093L292.993 42.5623V50.3281L292.674 50.0089H298.718C302.591 50.0575 313.077 50.231 317.075 50.3004L317.047 50.3281Z" fill="#EBEBEB"/>
<path d="M67.9633 40.5362C63.8965 40.6056 53.6461 40.7791 49.7181 40.8208H43.5623H43.25V40.5015V32.7357V32.3887H43.597L55.7975 32.4373C58.8372 32.4373 64.9583 32.5275 67.998 32.5691H68.1646V32.7357L67.998 40.5015L67.9633 40.5362ZM67.9633 40.5362L67.7968 32.7704L67.9633 32.93C64.9167 32.9786 58.8025 33.041 55.7628 33.0688L43.5623 33.1174L43.9093 32.7704V40.5362L43.5623 40.2517H49.607C53.4726 40.3003 63.959 40.4738 67.9633 40.5432V40.5362Z" fill="#EBEBEB"/>
<path d="M208.665 298.212C204.598 298.281 194.348 298.454 190.42 298.496H184.264H183.951V298.177V290.411V290.092H184.298L196.499 290.14C199.539 290.14 205.66 290.231 208.699 290.272H208.866V290.439L208.706 298.205L208.665 298.212ZM208.665 298.212L208.498 290.446L208.665 290.612C205.618 290.654 199.504 290.716 196.464 290.744L184.264 290.793L184.611 290.446V298.212L184.291 297.892H190.336C194.202 297.941 204.688 298.114 208.693 298.184L208.665 298.212Z" fill="#EBEBEB"/>
<path d="M75.8471 83.079C75.1493 87.7793 73.1164 92.1803 69.9901 95.7589C66.8638 99.3374 62.7756 101.943 58.2116 103.266C53.6475 104.588 48.7997 104.572 44.2444 103.22C39.6891 101.868 35.618 99.2355 32.5151 95.6366C29.4122 92.0378 27.408 87.6236 26.7409 82.9188C26.0737 78.2141 26.7717 73.4167 28.7517 69.0971C30.7318 64.7775 33.9106 61.1173 37.9104 58.5518C41.9101 55.9863 46.5624 54.6234 51.3142 54.625V79.4355L75.8471 83.079Z" fill="#EBEBEB"/>
<path d="M81.1978 74.3886C81.1993 75.6059 81.1088 76.8215 80.9272 78.0252L56.3943 74.3886V49.5781C59.6529 49.5754 62.88 50.2153 65.891 51.4613C68.902 52.7072 71.6378 54.5348 73.9416 56.8393C76.2455 59.1438 78.0722 61.88 79.3174 64.8914C80.5625 67.9027 81.2015 71.13 81.1978 74.3886Z" fill="#DBDBDB"/>
<path d="M80.3789 88.248H54V88.942H80.3789V88.248Z" fill="#C7C7C7"/>
<path d="M82.2321 90.7886C81.7964 90.79 81.3701 90.662 81.0072 90.4208C80.6444 90.1795 80.3613 89.836 80.1939 89.4338C80.0266 89.0315 79.9824 88.5886 80.0671 88.1612C80.1517 87.7338 80.3614 87.3411 80.6695 87.033C80.9776 86.7249 81.3702 86.5153 81.7976 86.4306C82.225 86.3459 82.6679 86.3901 83.0702 86.5575C83.4725 86.7248 83.816 87.0079 84.0572 87.3707C84.2984 87.7336 84.4265 88.1599 84.4251 88.5956C84.4233 89.1767 84.1916 89.7334 83.7807 90.1443C83.3699 90.5551 82.8131 90.7868 82.2321 90.7886ZM82.2321 87.0896C81.9339 87.0882 81.6421 87.1754 81.3935 87.34C81.1449 87.5047 80.9508 87.7394 80.8358 88.0144C80.7207 88.2895 80.6899 88.5925 80.7472 88.8851C80.8046 89.1777 80.9474 89.4467 81.1578 89.658C81.3681 89.8693 81.6364 90.0134 81.9288 90.0721C82.2211 90.1308 82.5242 90.1014 82.7998 89.9876C83.0754 89.8738 83.311 89.6808 83.4768 89.433C83.6426 89.1852 83.7311 88.8937 83.7311 88.5956C83.7311 88.1974 83.5734 87.8154 83.2925 87.5331C83.0115 87.2509 82.6303 87.0914 82.2321 87.0896Z" fill="#C7C7C7"/>
<path d="M109.43 87.207H88.936V88.13H109.43V87.207Z" fill="#C7C7C7"/>
<path d="M100.533 89.0547H88.936V89.9777H100.533V89.0547Z" fill="#C7C7C7"/>
<path d="M161.799 177.469H155.255V224.036H161.799V177.469Z" fill="#EBEBEB"/>
<path d="M173.049 188.74H166.504V224.037H173.049V188.74Z" fill="#EBEBEB"/>
<path d="M184.291 206.389H177.747V224.037H184.291V206.389Z" fill="#EBEBEB"/>
<path d="M195.541 196.305H188.997V224.03H195.541V196.305Z" fill="#EBEBEB"/>
<path d="M206.791 185.721H200.247V224.036H206.791V185.721Z" fill="#EBEBEB"/>
<path d="M218.034 179.496H211.49V224.037H218.034V179.496Z" fill="#EBEBEB"/>
<path d="M151.459 171.543L151.535 184.667L151.57 197.79L151.625 224.037L151.459 223.871C157.473 223.871 163.488 223.871 169.503 223.871L187.547 223.912L205.591 223.947L223.635 224.044L205.591 224.141L187.547 224.176L169.503 224.211C163.488 224.211 157.473 224.211 151.459 224.211H151.292V224.051L151.348 197.804V184.68L151.459 171.543Z" fill="#EBEBEB"/>
<path d="M150.015 174.193C150.961 173.943 151.956 173.943 152.902 174.193C151.955 174.434 150.962 174.434 150.015 174.193Z" fill="#EBEBEB"/>
<path d="M150.015 178.163C150.962 177.922 151.955 177.922 152.902 178.163C152.433 178.297 151.946 178.36 151.458 178.35C150.971 178.356 150.485 178.293 150.015 178.163Z" fill="#EBEBEB"/>
<path d="M150.015 182.153C150.962 181.913 151.955 181.913 152.902 182.153C151.956 182.403 150.961 182.403 150.015 182.153Z" fill="#EBEBEB"/>
<path d="M150.015 186.144C150.961 185.895 151.956 185.895 152.902 186.144C151.956 186.394 150.961 186.394 150.015 186.144Z" fill="#EBEBEB"/>
<path d="M150.015 190.156C150.961 189.906 151.956 189.906 152.902 190.156C151.956 190.406 150.961 190.406 150.015 190.156Z" fill="#EBEBEB"/>
<path d="M150.015 194.125C150.961 193.875 151.956 193.875 152.902 194.125C151.955 194.365 150.962 194.365 150.015 194.125Z" fill="#EBEBEB"/>
<path d="M150.015 198.108C150.962 197.868 151.955 197.868 152.902 198.108C151.956 198.358 150.961 198.358 150.015 198.108Z" fill="#EBEBEB"/>
<path d="M150.015 202.1C150.962 201.86 151.955 201.86 152.902 202.1C151.956 202.35 150.961 202.35 150.015 202.1Z" fill="#EBEBEB"/>
<path d="M150.015 206.117C150.961 205.867 151.956 205.867 152.902 206.117C151.956 206.367 150.961 206.367 150.015 206.117Z" fill="#EBEBEB"/>
<path d="M150.015 210.08C150.961 209.83 151.956 209.83 152.902 210.08C151.956 210.33 150.961 210.33 150.015 210.08Z" fill="#EBEBEB"/>
<path d="M150.015 214.07C150.961 213.82 151.956 213.82 152.902 214.07C151.955 214.311 150.962 214.311 150.015 214.07Z" fill="#EBEBEB"/>
<path d="M150.015 218.061C150.485 217.931 150.971 217.868 151.458 217.874C151.946 217.864 152.433 217.928 152.902 218.061C151.955 218.302 150.962 218.302 150.015 218.061Z" fill="#EBEBEB"/>
<path d="M28.7939 314.208C121.498 313.785 225.501 313.785 318.192 314.208C225.487 314.638 121.485 314.631 28.7939 314.208Z" fill="#263238"/>
<path d="M309.524 29.3496H195.77C194.245 29.3632 192.737 29.6773 191.334 30.2738C189.93 30.8703 188.657 31.7376 187.588 32.8262C186.52 33.9148 185.676 35.2032 185.106 36.618C184.535 38.0327 184.249 39.5459 184.264 41.0713V275.178C184.238 278.258 185.435 281.222 187.593 283.419C189.75 285.617 192.691 286.869 195.77 286.9H309.524C312.605 286.871 315.549 285.62 317.709 283.422C319.869 281.225 321.068 278.26 321.044 275.178V41.0713C321.07 37.9894 319.871 35.0234 317.711 32.8254C315.551 30.6273 312.606 29.3771 309.524 29.3496ZM313.841 267.94C313.841 274.103 309.226 279.092 303.535 279.092H201.767C196.062 279.092 191.447 274.103 191.447 267.94V49.9684C191.447 37.4139 196.062 36.7823 201.767 36.7823H222.149C223.336 36.7823 224.301 38.1287 224.301 39.7943V40.4883C224.301 44.3955 226.445 44.4094 229.069 44.4094H276.212C278.863 44.4094 280.987 44.4094 280.987 40.4883V39.7943C280.987 38.1287 281.944 36.7823 283.145 36.7823H303.521C309.212 36.7823 313.827 38.4549 313.827 49.9684L313.841 267.94Z" fill="#263238"/>
<path d="M313.813 49.9692V267.941C313.813 274.103 309.198 279.093 303.507 279.093H201.767C196.062 279.093 191.447 274.103 191.447 267.941V49.9692C191.447 37.4147 196.062 36.7832 201.767 36.7832H222.149C223.336 36.7832 224.301 38.1296 224.301 39.7952V40.4892C224.301 44.3964 226.445 44.4103 229.069 44.4103H276.212C278.863 44.4103 280.987 44.4103 280.987 40.4892V39.7952C280.987 38.1296 281.944 36.7832 283.145 36.7832H303.521C309.198 36.7832 313.813 38.4488 313.813 49.9692Z" fill="white"/>
<path d="M218.61 41.6746C218.548 41.737 218.478 41.7995 218.416 41.8689L218.305 41.9799C217.801 41.4769 217.118 41.1943 216.407 41.1943C215.695 41.1943 215.012 41.4769 214.508 41.9799L214.397 41.8689L214.203 41.6746L214.446 41.4594C214.835 41.1449 215.295 40.9305 215.785 40.8348C215.917 40.8348 216.042 40.8001 216.167 40.7793H216.528H216.792C217.029 40.8097 217.262 40.8679 217.486 40.9528C217.649 41.0116 217.806 41.0835 217.958 41.1679C218.116 41.2623 218.267 41.3691 218.409 41.4872L218.617 41.6746H218.61Z" fill="#C7C7C7"/>
<path d="M215.14 42.5984L214.828 42.293C215.167 41.9473 215.611 41.7229 216.091 41.6545C216.436 41.6039 216.788 41.6347 217.12 41.7443C217.451 41.854 217.752 42.0395 217.999 42.2861L217.687 42.5984C217.349 42.2614 216.891 42.0723 216.413 42.0723C215.936 42.0723 215.478 42.2614 215.14 42.5984Z" fill="#C7C7C7"/>
<path d="M217.389 42.9101L217.076 43.2224C216.992 43.1351 216.89 43.066 216.778 43.0195C216.666 42.9729 216.545 42.9499 216.424 42.9517C216.303 42.9503 216.182 42.9735 216.07 43.02C215.958 43.0666 215.856 43.1354 215.772 43.2224L215.466 42.9101C215.725 42.662 216.069 42.5234 216.428 42.5234C216.786 42.5234 217.13 42.662 217.389 42.9101Z" fill="#C7C7C7"/>
<path d="M216.708 43.5003C216.71 43.5569 216.694 43.6126 216.664 43.6603C216.633 43.708 216.589 43.7455 216.538 43.7681C216.486 43.7907 216.428 43.7974 216.373 43.7872C216.317 43.777 216.266 43.7505 216.225 43.711C216.185 43.6714 216.157 43.6208 216.145 43.5654C216.134 43.51 216.139 43.4525 216.16 43.4001C216.182 43.3477 216.218 43.3028 216.265 43.2712C216.312 43.2396 216.367 43.2228 216.424 43.2227C216.461 43.2218 216.498 43.2283 216.532 43.2418C216.567 43.2554 216.598 43.2757 216.625 43.3016C216.651 43.3274 216.672 43.3583 216.687 43.3925C216.701 43.4266 216.708 43.4633 216.708 43.5003Z" fill="#C7C7C7"/>
<path d="M199.428 42.2651C199.428 42.1045 199.475 41.9475 199.565 41.814C199.654 41.6805 199.781 41.5764 199.929 41.5149C200.077 41.4535 200.241 41.4374 200.398 41.4687C200.556 41.5001 200.7 41.5774 200.814 41.6909C200.927 41.8045 201.005 41.9492 201.036 42.1067C201.067 42.2642 201.051 42.4275 200.99 42.5758C200.928 42.7242 200.824 42.851 200.691 42.9402C200.557 43.0295 200.4 43.0771 200.24 43.0771C200.133 43.0771 200.028 43.0561 199.929 43.0153C199.83 42.9745 199.741 42.9147 199.666 42.8393C199.59 42.7639 199.53 42.6744 199.49 42.5758C199.449 42.4773 199.428 42.3717 199.428 42.2651Z" fill="#C7C7C7"/>
<path d="M201.954 42.2651C201.954 42.1045 202.002 41.9475 202.091 41.814C202.18 41.6805 202.307 41.5764 202.455 41.5149C202.604 41.4535 202.767 41.4374 202.924 41.4687C203.082 41.5001 203.227 41.5774 203.34 41.6909C203.454 41.8045 203.531 41.9492 203.562 42.1067C203.594 42.2642 203.578 42.4275 203.516 42.5758C203.455 42.7242 203.351 42.851 203.217 42.9402C203.084 43.0295 202.927 43.0771 202.766 43.0771C202.659 43.0771 202.554 43.0561 202.455 43.0153C202.357 42.9745 202.267 42.9147 202.192 42.8393C202.117 42.7639 202.057 42.6744 202.016 42.5758C201.975 42.4773 201.954 42.3717 201.954 42.2651Z" fill="#C7C7C7"/>
<path d="M204.536 42.2651C204.536 42.1045 204.583 41.9475 204.672 41.814C204.762 41.6805 204.889 41.5764 205.037 41.5149C205.185 41.4535 205.349 41.4374 205.506 41.4687C205.664 41.5001 205.808 41.5774 205.922 41.6909C206.035 41.8045 206.113 41.9492 206.144 42.1067C206.175 42.2642 206.159 42.4275 206.098 42.5758C206.036 42.7242 205.932 42.851 205.799 42.9402C205.665 43.0295 205.508 43.0771 205.348 43.0771C205.241 43.0771 205.135 43.0561 205.037 43.0153C204.938 42.9745 204.849 42.9147 204.773 42.8393C204.698 42.7639 204.638 42.6744 204.597 42.5758C204.557 42.4773 204.536 42.3717 204.536 42.2651Z" fill="#C7C7C7"/>
<path d="M207.096 42.2651C207.096 42.1042 207.144 41.9469 207.234 41.8133C207.323 41.6796 207.451 41.5755 207.599 41.5143C207.748 41.453 207.912 41.4373 208.069 41.4692C208.227 41.5011 208.372 41.5792 208.485 41.6934C208.598 41.8077 208.675 41.953 208.706 42.111C208.736 42.2689 208.719 42.4324 208.657 42.5806C208.594 42.7289 208.489 42.8552 208.354 42.9436C208.22 43.032 208.062 43.0784 207.902 43.0771C207.795 43.0771 207.69 43.056 207.592 43.0151C207.494 42.9742 207.405 42.9143 207.33 42.8388C207.255 42.7633 207.196 42.6738 207.156 42.5753C207.116 42.4768 207.096 42.3714 207.096 42.2651Z" fill="#C7C7C7"/>
<path d="M209.65 42.2651C209.65 42.1042 209.698 41.9469 209.788 41.8133C209.877 41.6796 210.005 41.5755 210.153 41.5143C210.302 41.453 210.466 41.4373 210.623 41.4692C210.781 41.5011 210.926 41.5792 211.039 41.6934C211.152 41.8077 211.229 41.953 211.26 42.111C211.29 42.2689 211.273 42.4324 211.211 42.5806C211.148 42.7289 211.043 42.8552 210.908 42.9436C210.774 43.032 210.616 43.0784 210.455 43.0771C210.349 43.0771 210.244 43.056 210.146 43.0151C210.048 42.9742 209.959 42.9143 209.884 42.8388C209.809 42.7633 209.75 42.6738 209.71 42.5753C209.67 42.4768 209.65 42.3714 209.65 42.2651Z" fill="#C7C7C7"/>
<path d="M304.666 44.041H298.066V40.9805H304.666V44.041ZM298.42 43.701H304.354V41.3136H298.42V43.701Z" fill="#C7C7C7"/>
<path d="M302.841 41.502H298.587V43.5215H302.841V41.502Z" fill="#C7C7C7"/>
<path d="M305.235 41.6895H304.645V43.3273H305.235V41.6895Z" fill="#C7C7C7"/>
<path d="M259.063 39.558H246.21C245.999 39.558 245.796 39.4739 245.646 39.3243C245.496 39.1746 245.412 38.9716 245.412 38.7599C245.414 38.5494 245.499 38.3482 245.649 38.2001C245.798 38.0519 246 37.9687 246.21 37.9688H259.063C259.274 37.9687 259.476 38.0519 259.625 38.2001C259.775 38.3482 259.86 38.5494 259.861 38.7599C259.861 38.9716 259.777 39.1746 259.628 39.3243C259.478 39.4739 259.275 39.558 259.063 39.558Z" fill="white"/>
<path d="M207.36 266.26H206.763V269.008H205.639V267.613H203.661V269.008H202.544V266.26H201.947L204.654 263.463L207.36 266.26Z" fill="#EBEBEB"/>
<path d="M304.291 263.463H297.768V264.393H304.291V263.463Z" fill="#EBEBEB"/>
<path d="M304.291 265.775H297.768V266.705H304.291V265.775Z" fill="#EBEBEB"/>
<path d="M304.291 268.078H297.768V269.008H304.291V268.078Z" fill="#EBEBEB"/>
<path d="M255.038 266.338L253.185 268.316L251.325 266.338L251.658 266.025L253.185 267.656L254.712 266.025L255.038 266.338Z" fill="#EBEBEB"/>
<path d="M253.185 270.363C252.518 270.364 251.865 270.168 251.309 269.798C250.754 269.428 250.32 268.902 250.064 268.286C249.808 267.669 249.74 266.991 249.869 266.336C249.999 265.682 250.319 265.08 250.791 264.608C251.262 264.135 251.863 263.813 252.518 263.683C253.172 263.552 253.851 263.618 254.467 263.873C255.084 264.128 255.611 264.561 255.982 265.115C256.353 265.67 256.551 266.323 256.551 266.99C256.549 267.883 256.194 268.739 255.564 269.371C254.933 270.002 254.078 270.359 253.185 270.363ZM253.185 264.068C252.605 264.067 252.038 264.238 251.556 264.559C251.073 264.88 250.696 265.338 250.474 265.873C250.251 266.408 250.193 266.998 250.306 267.567C250.418 268.135 250.697 268.658 251.107 269.068C251.517 269.478 252.04 269.757 252.609 269.87C253.177 269.982 253.767 269.924 254.302 269.701C254.838 269.479 255.295 269.102 255.616 268.62C255.938 268.137 256.108 267.57 256.107 266.99C256.105 266.216 255.797 265.474 255.249 264.926C254.702 264.379 253.96 264.07 253.185 264.068Z" fill="#EBEBEB"/>
<path d="M307.445 53.0215V52.9215H307.345H197.929H197.829V53.0215V84.9594V85.0594H197.929H307.345H307.445V84.9594V53.0215Z" fill="#8778F7" stroke="#8778F7" stroke-width="0.2"/>
<path d="M204.154 63.2862L200.538 59.8926L204.154 56.5059L204.716 57.1027L201.739 59.8926L204.716 62.6825L204.154 63.2862Z" fill="white"/>
<path d="M304.742 57.7819C304.742 57.9192 304.702 58.0533 304.625 58.1675C304.549 58.2816 304.441 58.3705 304.314 58.4231C304.187 58.4756 304.047 58.4893 303.913 58.4626C303.778 58.4358 303.655 58.3697 303.558 58.2726C303.46 58.1756 303.394 58.0519 303.368 57.9173C303.341 57.7827 303.355 57.6431 303.407 57.5163C303.46 57.3895 303.549 57.2811 303.663 57.2048C303.777 57.1286 303.911 57.0879 304.048 57.0879C304.232 57.0879 304.409 57.161 304.539 57.2912C304.669 57.4213 304.742 57.5978 304.742 57.7819Z" fill="white"/>
<path d="M304.742 60.3151C304.742 60.4524 304.702 60.5865 304.625 60.7007C304.549 60.8148 304.441 60.9037 304.314 60.9563C304.187 61.0088 304.047 61.0225 303.913 60.9958C303.778 60.969 303.655 60.9029 303.558 60.8058C303.46 60.7088 303.394 60.5851 303.368 60.4505C303.341 60.3159 303.355 60.1763 303.407 60.0495C303.46 59.9227 303.549 59.8143 303.663 59.7381C303.777 59.6618 303.911 59.6211 304.048 59.6211C304.232 59.6211 304.409 59.6942 304.539 59.8244C304.669 59.9545 304.742 60.131 304.742 60.3151Z" fill="white"/>
<path d="M304.742 62.8424C304.742 62.9797 304.702 63.1139 304.625 63.228C304.549 63.3421 304.441 63.4311 304.314 63.4836C304.187 63.5361 304.047 63.5499 303.913 63.5231C303.778 63.4963 303.655 63.4302 303.558 63.3332C303.46 63.2361 303.394 63.1124 303.368 62.9778C303.341 62.8432 303.355 62.7037 303.407 62.5769C303.46 62.45 303.549 62.3417 303.663 62.2654C303.777 62.1891 303.911 62.1484 304.048 62.1484C304.232 62.1484 304.409 62.2216 304.539 62.3517C304.669 62.4819 304.742 62.6584 304.742 62.8424Z" fill="white"/>
<path d="M209.65 59.8917C222.24 59.4267 234.919 59.4267 247.515 59.8917C234.919 60.3567 222.24 60.3567 209.65 59.8917Z" fill="white"/>
<path d="M209.65 63.287C218.152 63.058 227.507 63.058 236.022 63.287C227.521 63.516 218.166 63.5091 209.65 63.287Z" fill="white"/>
<path d="M222.17 74.9524C241.685 74.7372 263.581 74.7372 283.089 74.9524C263.581 75.1675 241.685 75.1675 222.17 74.9524Z" fill="white"/>
<path d="M202.912 111.199C220.178 111.074 237.452 111.102 254.719 111.053C271.985 111.005 289.259 111.053 306.533 111.199C289.259 111.317 271.992 111.289 254.719 111.338C237.445 111.386 220.178 111.317 202.912 111.199Z" fill="#455A64"/>
<path d="M202.912 122.839C220.178 122.721 237.452 122.749 254.719 122.7C271.985 122.651 289.259 122.7 306.533 122.839C289.259 122.964 271.992 122.936 254.719 122.985C237.445 123.033 220.178 122.991 202.912 122.839Z" fill="#455A64"/>
<path d="M202.912 134.54C220.178 134.422 237.452 134.45 254.719 134.401C271.985 134.353 289.259 134.401 306.533 134.54C289.259 134.665 271.992 134.637 254.719 134.686C237.445 134.734 220.178 134.637 202.912 134.54Z" fill="#455A64"/>
<path d="M202.912 146.212C220.178 146.094 237.452 146.122 254.719 146.073C271.985 146.024 289.259 146.073 306.533 146.212C289.259 146.337 271.992 146.302 254.719 146.358C237.452 146.302 220.178 146.337 202.912 146.212Z" fill="#455A64"/>
<path d="M202.912 157.886C220.178 157.761 237.452 157.795 254.719 157.747C271.985 157.698 289.259 157.747 306.533 157.886C289.259 158.011 271.992 157.976 254.719 158.031C237.452 157.976 220.178 158.011 202.912 157.886Z" fill="#455A64"/>
<path d="M223.773 103.607C223.926 114.517 223.884 125.42 223.954 136.33C223.891 147.232 223.954 158.142 223.773 169.045C223.621 158.142 223.662 147.232 223.6 136.33C223.662 125.42 223.621 114.51 223.773 103.607Z" fill="#455A64"/>
<path d="M241.693 103.607C241.845 114.517 241.804 125.42 241.873 136.33C241.804 147.232 241.873 158.142 241.693 169.045C241.54 158.142 241.582 147.232 241.519 136.33C241.582 125.42 241.512 114.51 241.693 103.607Z" fill="#455A64"/>
<path d="M259.612 103.607C259.764 114.517 259.723 125.42 259.785 136.33C259.723 147.232 259.785 158.142 259.612 169.045C259.459 158.142 259.501 147.232 259.431 136.33C259.501 125.42 259.459 114.51 259.612 103.607Z" fill="#455A64"/>
<path d="M277.531 103.607C277.683 114.517 277.642 125.42 277.704 136.33C277.642 147.232 277.704 158.142 277.531 169.045C277.378 158.142 277.413 147.232 277.35 136.33C277.419 125.42 277.378 114.51 277.531 103.607Z" fill="#455A64"/>
<path d="M295.45 103.607C295.602 114.517 295.561 125.42 295.623 136.33C295.561 147.232 295.623 158.142 295.45 169.045C295.297 158.142 295.332 147.232 295.269 136.33C295.332 125.42 295.297 114.51 295.45 103.607Z" fill="#455A64"/>
<path opacity="0.5" d="M205.521 149.418C208.686 149.418 210.574 137.565 215.05 137.565C219.526 137.565 220.005 146.212 223.773 146.212C227.542 146.212 227.431 131.02 232.497 131.02C237.563 131.02 236.39 137.183 241.693 137.183C246.995 137.183 244.982 122.838 250.534 122.838C256.086 122.838 253.838 142.561 259.612 142.561C263.269 142.561 264.678 136.315 269.043 136.315C271.93 136.315 273.63 139.445 277.406 139.445C281.181 139.445 282.007 127.397 286.726 127.397C291.445 127.397 291.98 134.525 295.45 134.525C298.92 134.525 300.162 122.852 306.554 122.852V169.031H205.521V149.418Z" fill="#C7F4CE"/>
<path d="M205.521 149.987V148.849C206.479 148.849 207.798 146.073 208.762 144.061C210.414 140.591 212.128 136.996 215.05 136.996C217.826 136.996 219.249 139.626 220.477 141.944C221.442 143.762 222.434 145.643 223.773 145.643C224.953 145.643 225.973 141.993 226.723 139.328C227.944 134.962 229.207 130.451 232.497 130.451C235.433 130.451 236.585 132.221 237.598 133.783C238.611 135.344 239.437 136.614 241.693 136.614C243.733 136.614 244.531 133.269 245.301 130.035C246.21 126.232 247.147 122.297 250.534 122.297C253.921 122.297 254.754 127.252 255.663 132.499C256.398 136.739 257.308 142.02 259.612 142.02C261 142.02 262.11 140.716 263.304 139.342C264.747 137.662 266.392 135.754 269.043 135.754C270.632 135.754 271.875 136.531 273.075 137.287C274.276 138.044 275.636 138.89 277.406 138.89C278.717 138.89 279.911 136.024 280.876 133.72C282.264 130.34 283.742 126.843 286.733 126.843C289.724 126.843 291.161 129.119 292.452 131.125C293.396 132.589 294.284 133.97 295.457 133.97C296.456 133.97 297.58 131.756 298.58 129.806C300.28 126.461 302.397 122.304 306.54 122.304V123.449C303.347 123.449 301.515 127.058 299.891 130.236C298.503 132.964 297.407 135.094 295.457 135.094C293.507 135.094 292.341 133.408 291.196 131.624C290.05 129.841 288.836 127.967 286.733 127.967C284.762 127.967 283.416 131.208 282.222 134.067C280.89 137.253 279.745 140.008 277.413 140.008C275.081 140.008 273.596 139.029 272.215 138.169C271.111 137.475 270.133 136.878 269.05 136.878C267.141 136.878 265.788 138.446 264.47 139.973C263.151 141.5 261.735 143.138 259.612 143.138C256.079 143.138 255.191 138.037 254.254 132.637C253.56 128.529 252.658 123.421 250.534 123.421C248.41 123.421 247.453 127.037 246.696 130.229C245.773 134.088 244.906 137.731 241.693 137.731C238.479 137.731 237.39 135.906 236.342 134.261C235.398 132.804 234.572 131.541 232.497 131.541C230.422 131.541 229.103 135.969 228.104 139.536C226.98 143.554 226.084 146.733 223.773 146.733C221.462 146.733 220.373 144.602 219.172 142.34C218.062 140.258 216.917 138.085 215.05 138.085C213.183 138.085 211.434 141.597 210.088 144.415C208.616 147.552 207.458 149.987 205.521 149.987Z" fill="#00A16B"/>
<path opacity="0.5" d="M259.611 142.589V169.044H241.692V137.183C246.995 137.183 244.982 122.838 250.534 122.838C256.086 122.838 253.837 142.589 259.611 142.589Z" fill="#00A16B"/>
<path d="M250.527 125.337C252.095 125.337 253.365 124.066 253.365 122.499C253.365 120.931 252.095 119.66 250.527 119.66C248.959 119.66 247.688 120.931 247.688 122.499C247.688 124.066 248.959 125.337 250.527 125.337Z" fill="#00A16B"/>
<path d="M252.151 122.499C252.151 122.82 252.056 123.134 251.877 123.401C251.699 123.668 251.445 123.876 251.148 123.999C250.852 124.122 250.525 124.154 250.21 124.092C249.895 124.029 249.606 123.874 249.379 123.647C249.152 123.42 248.997 123.131 248.934 122.816C248.872 122.501 248.904 122.174 249.027 121.877C249.15 121.581 249.358 121.327 249.625 121.149C249.892 120.97 250.206 120.875 250.527 120.875C250.958 120.875 251.371 121.046 251.675 121.351C251.98 121.655 252.151 122.068 252.151 122.499Z" fill="#C7F4CE"/>
<path d="M255.642 110.93H245.343V116.676H255.642V110.93Z" fill="#00A16B"/>
<path d="M249.132 116.676H251.846L250.492 118.626L249.132 116.676Z" fill="#00A16B"/>
<path d="M247.265 113.053C249.438 112.935 251.616 112.935 253.789 113.053C251.616 113.164 249.438 113.164 247.265 113.053Z" fill="white"/>
<path d="M247.265 114.163C249.438 114.045 251.616 114.045 253.789 114.163C251.616 114.277 249.438 114.277 247.265 114.163Z" fill="white"/>
<path d="M205.521 104.316C205.639 115.108 205.736 125.893 205.743 136.685L205.854 169.046L205.521 168.782L256.023 168.845L281.278 168.9L306.533 169.046L281.278 169.192L256.023 169.247L205.521 169.316H205.188V169.046L205.299 136.685C205.306 125.893 205.424 115.108 205.521 104.316Z" fill="#455A64"/>
<path d="M210.927 173.89C213.313 173.529 215.739 173.529 218.124 173.89C215.738 174.244 213.313 174.244 210.927 173.89Z" fill="#DBDBDB"/>
<path d="M197.929 111.2C198.991 110.84 200.142 110.84 201.204 111.2C200.141 111.554 198.992 111.554 197.929 111.2Z" fill="#DBDBDB"/>
<path d="M197.929 122.838C198.992 122.484 200.141 122.484 201.204 122.838C200.142 123.198 198.991 123.198 197.929 122.838Z" fill="#DBDBDB"/>
<path d="M197.929 134.539C198.992 134.185 200.141 134.185 201.204 134.539C200.142 134.9 198.991 134.9 197.929 134.539Z" fill="#DBDBDB"/>
<path d="M197.929 146.213C198.992 145.859 200.141 145.859 201.204 146.213C200.142 146.573 198.991 146.573 197.929 146.213Z" fill="#DBDBDB"/>
<path d="M197.929 157.885C198.991 157.528 200.142 157.528 201.204 157.885C200.142 158.243 198.991 158.243 197.929 157.885Z" fill="#DBDBDB"/>
<path d="M228.583 173.89C230.966 173.529 233.39 173.529 235.773 173.89C233.389 174.244 230.966 174.244 228.583 173.89Z" fill="#DBDBDB"/>
<path d="M246.231 173.89C248.617 173.529 251.043 173.529 253.428 173.89C251.042 174.244 248.617 174.244 246.231 173.89Z" fill="#DBDBDB"/>
<path d="M263.88 173.89C266.265 173.529 268.691 173.529 271.076 173.89C268.691 174.244 266.266 174.244 263.88 173.89Z" fill="#DBDBDB"/>
<path d="M281.528 173.89C283.913 173.529 286.339 173.529 288.725 173.89C286.339 174.244 283.914 174.244 281.528 173.89Z" fill="#DBDBDB"/>
<path d="M299.183 173.89C301.569 173.529 303.995 173.529 306.38 173.89C303.994 174.244 301.569 174.244 299.183 173.89Z" fill="#DBDBDB"/>
<path d="M198.019 93.1C208.179 92.6281 218.416 92.6281 228.555 93.1C218.388 93.572 208.151 93.572 198.019 93.1Z" fill="#DBDBDB"/>
<path d="M198.019 96.3143C204.545 95.8353 211.098 95.8353 217.625 96.3143C211.098 96.7862 204.546 96.7862 198.019 96.3143Z" fill="#DBDBDB"/>
<path d="M286.927 96.3143C293.458 95.9603 300.002 95.9603 306.533 96.3143C300.002 96.6613 293.458 96.6613 286.927 96.3143Z" fill="#A178F7"/>
<path d="M198.699 184.604C208.97 184.132 219.332 184.132 229.61 184.604C219.325 185.076 208.97 185.076 198.699 184.604Z" fill="#263238"/>
<path d="M283.187 184.604C290.964 184.257 298.746 184.257 306.533 184.604C298.756 184.956 290.973 184.956 283.187 184.604Z" fill="#A178F7"/>
<path d="M219.741 194.321C227.831 193.846 235.941 193.846 244.031 194.321C235.941 194.792 227.831 194.792 219.741 194.321Z" fill="#263238"/>
<path d="M219.741 197.881C226.525 197.409 233.333 197.409 240.117 197.881C233.333 198.353 226.525 198.353 219.741 197.881Z" fill="#263238"/>
<path d="M306.533 209.325C306.29 209.089 198.213 210.019 198.463 209.325V190.365V190.102H198.727L252.616 190.157C270.611 190.199 288.607 190.157 306.609 190.268C306.609 190.331 306.505 209.228 306.533 209.305V209.325ZM306.533 209.325L306.456 190.365C288.975 190.685 270.445 190.428 252.616 190.546C252.859 190.358 197.457 191.052 198.956 190.365V209.325C197.485 208.68 306.887 209.527 306.561 209.325H306.533Z" fill="#DBDBDB"/>
<path d="M215.23 193.092H201.489V206.833H215.23V193.092Z" fill="#A178F7"/>
<path d="M303.375 199.963C303.376 201.631 302.769 203.242 301.669 204.496C300.569 205.75 299.05 206.56 297.397 206.777C295.743 206.993 294.067 206.601 292.681 205.673C291.295 204.744 290.294 203.344 289.865 201.732C289.436 200.12 289.608 198.408 290.349 196.913C291.089 195.419 292.348 194.245 293.891 193.61C295.433 192.976 297.154 192.924 298.732 193.465C300.31 194.005 301.637 195.102 302.466 196.549C303.062 197.588 303.375 198.765 303.375 199.963Z" fill="#455A64"/>
<path d="M302.466 196.548L296.505 199.962V193.092C297.715 193.093 298.903 193.413 299.949 194.019C300.996 194.626 301.864 195.498 302.466 196.548Z" fill="#00A16B"/>
<path d="M296.505 204.717C299.13 204.717 301.259 202.588 301.259 199.963C301.259 197.337 299.13 195.209 296.505 195.209C293.879 195.209 291.751 197.337 291.751 199.963C291.751 202.588 293.879 204.717 296.505 204.717Z" fill="white"/>
<path d="M219.741 218.687C227.831 218.216 235.941 218.216 244.031 218.687C235.941 219.158 227.831 219.158 219.741 218.687Z" fill="#263238"/>
<path d="M219.741 222.26C226.525 221.788 233.333 221.788 240.117 222.26C233.333 222.732 226.525 222.732 219.741 222.26Z" fill="#263238"/>
<path d="M306.533 233.704C306.29 233.468 198.213 234.398 198.463 233.704V214.744V214.48H198.727L252.644 214.557C270.639 214.598 288.635 214.557 306.637 214.668C306.637 214.73 306.533 233.628 306.561 233.704H306.533ZM306.533 233.704L306.456 214.744C288.975 215.063 270.445 214.807 252.616 214.925C252.859 214.737 197.457 215.431 198.956 214.744V233.704C197.485 233.059 306.887 233.906 306.561 233.704H306.533Z" fill="#DBDBDB"/>
<path d="M215.23 217.473H201.489V231.214H215.23V217.473Z" fill="#00A16B"/>
<path d="M303.375 224.342C303.376 226.01 302.769 227.621 301.669 228.875C300.569 230.128 299.05 230.939 297.397 231.156C295.743 231.372 294.067 230.98 292.681 230.052C291.295 229.123 290.294 227.723 289.865 226.111C289.436 224.499 289.608 222.786 290.349 221.292C291.089 219.798 292.348 218.624 293.891 217.989C295.433 217.355 297.154 217.303 298.732 217.844C300.31 218.384 301.637 219.48 302.466 220.928C303.062 221.967 303.375 223.144 303.375 224.342Z" fill="#455A64"/>
<path d="M303.375 224.343C303.375 224.68 303.349 225.016 303.299 225.35L296.505 224.343V217.473C298.327 217.473 300.074 218.197 301.363 219.485C302.651 220.774 303.375 222.521 303.375 224.343Z" fill="#00A16B"/>
<path d="M301.251 224.343C301.253 225.283 300.975 226.204 300.453 226.986C299.931 227.769 299.189 228.38 298.32 228.74C297.451 229.101 296.495 229.196 295.572 229.012C294.649 228.829 293.801 228.376 293.136 227.711C292.471 227.046 292.018 226.198 291.835 225.275C291.651 224.353 291.746 223.396 292.107 222.527C292.468 221.658 293.078 220.916 293.861 220.394C294.644 219.872 295.564 219.594 296.504 219.596C297.763 219.598 298.969 220.098 299.859 220.988C300.749 221.878 301.25 223.084 301.251 224.343Z" fill="white"/>
<path d="M219.741 243.066C227.831 242.595 235.941 242.595 244.031 243.066C235.941 243.537 227.831 243.537 219.741 243.066Z" fill="#263238"/>
<path d="M219.741 246.641C226.525 246.169 233.333 246.169 240.117 246.641C233.333 247.113 226.525 247.113 219.741 246.641Z" fill="#263238"/>
<path d="M306.533 258.085C306.29 257.849 198.213 258.779 198.463 258.085V239.125V238.861H198.727L252.644 238.938C270.639 238.979 288.635 238.938 306.637 239.049C306.637 239.111 306.533 258.009 306.561 258.085H306.533ZM306.533 258.085L306.456 239.125C288.975 239.444 270.445 239.188 252.616 239.305C252.859 239.118 197.457 239.812 198.956 239.125V258.085C197.485 257.44 306.887 258.286 306.561 258.085H306.533Z" fill="#DBDBDB"/>
<path d="M215.23 241.852H201.489V255.593H215.23V241.852Z" fill="#00A16B"/>
<path d="M303.375 248.722C303.376 250.111 302.955 251.468 302.168 252.613C301.381 253.758 300.266 254.637 298.968 255.135C298.183 255.439 297.347 255.594 296.505 255.593C295.146 255.593 293.817 255.19 292.688 254.435C291.558 253.68 290.677 252.607 290.157 251.351C289.637 250.096 289.501 248.715 289.766 247.382C290.031 246.049 290.686 244.825 291.646 243.864C292.607 242.903 293.831 242.249 295.164 241.984C296.497 241.718 297.878 241.855 299.134 242.375C300.389 242.895 301.462 243.775 302.217 244.905C302.972 246.035 303.375 247.363 303.375 248.722Z" fill="#455A64"/>
<path d="M303.375 248.722C303.376 250.111 302.955 251.468 302.168 252.613C301.381 253.758 300.266 254.637 298.968 255.135L296.505 248.722V241.852C298.327 241.852 300.074 242.575 301.363 243.864C302.651 245.152 303.375 246.9 303.375 248.722Z" fill="#00A16B"/>
<path d="M301.251 248.724C301.253 249.664 300.975 250.584 300.453 251.367C299.931 252.15 299.189 252.761 298.32 253.121C297.451 253.482 296.495 253.577 295.572 253.393C294.649 253.21 293.801 252.757 293.136 252.092C292.471 251.427 292.018 250.579 291.835 249.656C291.651 248.733 291.746 247.777 292.107 246.908C292.468 246.039 293.078 245.297 293.861 244.775C294.644 244.253 295.564 243.975 296.504 243.977C297.763 243.978 298.969 244.479 299.859 245.369C300.749 246.259 301.25 247.465 301.251 248.724Z" fill="white"/>
<path d="M317.158 251.417C308.58 263.041 299.628 276.526 297.448 291.107C297.443 291.132 297.443 291.158 297.448 291.183C297.453 291.208 297.463 291.232 297.477 291.253C297.491 291.274 297.51 291.292 297.531 291.307C297.552 291.321 297.576 291.331 297.601 291.336C297.626 291.341 297.652 291.341 297.677 291.336C297.702 291.331 297.726 291.321 297.747 291.307C297.768 291.293 297.787 291.275 297.801 291.253C297.815 291.232 297.825 291.208 297.83 291.183C298.815 287.207 300.081 283.306 301.619 279.51C307.262 277.956 312.807 276.679 315.763 271.078C318.789 265.325 318.407 257.816 317.845 251.542C317.769 251.23 317.311 251.23 317.158 251.417Z" fill="#A178F7"/>
<path d="M301.689 279.398C305.54 270.744 310.496 262.048 316.783 254.942C316.825 254.893 316.894 254.942 316.853 255.011C312.73 260.077 309.6 265.601 306.547 271.216C309.392 268.329 312.501 265.747 315.194 262.687C315.25 262.624 315.333 262.687 315.284 262.77C312.605 265.976 309.691 269.467 306.207 271.84C305.27 273.562 304.333 275.31 303.375 277.018C303.611 276.886 303.854 276.768 304.069 276.65C304.111 276.65 304.153 276.691 304.111 276.712C303.84 276.851 303.576 276.99 303.306 277.108C302.855 277.927 302.404 278.746 301.918 279.558C301.89 279.738 301.606 279.579 301.689 279.398Z" fill="#263238"/>
<path d="M304.555 276.379C306.863 275.087 309.065 273.616 311.141 271.979C311.197 271.937 311.28 272.013 311.224 272.062C309.213 273.801 307.007 275.303 304.652 276.538C304.642 276.545 304.63 276.549 304.618 276.551C304.606 276.553 304.594 276.552 304.582 276.549C304.57 276.546 304.558 276.541 304.549 276.534C304.539 276.527 304.53 276.518 304.524 276.507C304.518 276.497 304.513 276.485 304.511 276.473C304.509 276.461 304.51 276.448 304.513 276.436C304.516 276.425 304.521 276.413 304.528 276.403C304.536 276.394 304.545 276.385 304.555 276.379Z" fill="#263238"/>
<path d="M296.435 288.941C296.435 289.114 296.754 289.114 296.747 288.941C296.796 284.138 296.747 279.315 296.824 274.492C298.052 272.014 300.696 270.64 302.528 268.648C303.85 267.197 304.998 265.597 305.95 263.881C308.166 259.784 309.519 255.278 309.926 250.639C310.433 245.503 308.483 228.563 306.318 229.125C305.193 229.423 301.564 237.821 300.599 240.597C299.037 245.185 297.894 249.905 297.185 254.699C295.429 265.969 295.575 277.601 296.435 288.941Z" fill="#A178F7"/>
<path d="M296.4 268.232C296.664 262.159 298.031 256.024 299.315 250.132C300.703 243.789 302.306 237.814 305.561 232.151C305.617 232.047 305.776 232.151 305.721 232.248C303.543 236.65 301.858 241.279 300.696 246.052C300.911 245.705 301.175 245.358 301.39 245.059C301.48 244.934 301.689 245.059 301.605 245.184C301.312 245.696 300.968 246.177 300.578 246.621C300.572 246.624 300.565 246.625 300.557 246.625C300.55 246.625 300.543 246.624 300.537 246.621C299.412 251.159 298.607 255.795 297.92 260.424C297.969 260.369 298.017 260.306 298.073 260.251C298.128 260.195 298.163 260.251 298.142 260.299C298.059 260.459 297.962 260.605 297.865 260.764C297.518 263.11 297.171 265.456 296.872 267.781C301.036 264.207 304.624 259.987 306.644 254.796C306.644 254.796 306.692 254.796 306.679 254.796C304.708 260.181 301.598 264.97 296.803 268.239C296.72 268.863 296.629 269.488 296.539 270.113C296.539 270.237 296.317 270.21 296.317 270.078C296.317 269.53 296.317 268.974 296.366 268.419C296.355 268.405 296.348 268.388 296.344 268.371C296.34 268.354 296.34 268.336 296.343 268.318C296.346 268.301 296.353 268.284 296.363 268.269C296.373 268.254 296.386 268.242 296.4 268.232Z" fill="#263238"/>
<path d="M298.371 259.432C301.571 254.657 304.555 250.028 306.894 244.754C306.899 244.74 306.91 244.729 306.924 244.723C306.937 244.717 306.953 244.717 306.967 244.723C306.98 244.728 306.991 244.739 306.997 244.753C307.003 244.766 307.003 244.782 306.998 244.796C305.027 250.035 302.265 255.344 298.531 259.557C298.513 259.572 298.49 259.58 298.467 259.58C298.443 259.58 298.42 259.572 298.402 259.558C298.383 259.543 298.37 259.523 298.365 259.5C298.359 259.477 298.362 259.453 298.371 259.432Z" fill="#263238"/>
<path d="M302.619 243.595C303.944 241.249 305.339 238.973 306.588 236.586C306.623 236.516 306.713 236.586 306.686 236.641C305.663 239.134 304.366 241.506 302.82 243.713C302.802 243.735 302.777 243.75 302.749 243.755C302.722 243.76 302.693 243.755 302.669 243.741C302.644 243.726 302.626 243.704 302.617 243.677C302.608 243.65 302.608 243.621 302.619 243.595Z" fill="#263238"/>
<path d="M302.098 244.594V244.634C302.098 244.634 302.078 244.594 302.098 244.594Z" fill="#263238"/>
<path d="M293.187 275.055C293.122 278.246 292.745 281.423 292.063 284.542C292.111 284.882 292.16 285.236 292.216 285.576C293.195 282.141 293.761 278.602 293.902 275.034C293.931 274.984 293.947 274.928 293.947 274.871C293.947 274.813 293.931 274.757 293.902 274.708C294.049 269.912 293.703 265.115 292.868 260.39C291.383 251.563 288.135 243.096 281.979 236.489C281.928 236.442 281.867 236.408 281.801 236.389C281.734 236.371 281.664 236.368 281.597 236.382C281.529 236.395 281.465 236.424 281.411 236.467C281.357 236.51 281.314 236.565 281.285 236.628C278.801 242.943 279.668 250.508 281.785 256.754C282.927 260.164 284.564 263.389 286.643 266.324C288.78 269.308 291.48 271.814 293.187 275.055Z" fill="#A178F7"/>
<path d="M282.701 239.431C288.531 248.898 292.59 260.12 293.111 271.3C293.111 271.494 292.785 271.55 292.757 271.342C292.618 270.342 292.466 269.343 292.306 268.35C289.891 266.039 287.413 263.603 285.685 260.716C285.685 260.661 285.734 260.605 285.768 260.647C287.765 263.105 289.903 265.443 292.174 267.649C291.758 265.179 291.26 262.745 290.682 260.349C290.522 260.175 290.37 259.988 290.217 259.807C290.064 259.627 290.286 259.516 290.39 259.634L290.529 259.793C289.71 256.508 288.693 253.275 287.483 250.112C285.997 248.342 284.339 246.809 283.256 244.678C283.256 244.629 283.298 244.588 283.332 244.629C284.2 245.851 285.047 247.079 286.032 248.21C286.421 248.662 286.858 249.085 287.261 249.522C285.908 246.091 284.303 242.764 282.458 239.57C282.389 239.431 282.611 239.3 282.701 239.431Z" fill="#263238"/>
<path d="M283.881 251.118C285.761 253.652 287.913 256.074 289.662 258.697C289.71 258.766 289.606 258.843 289.544 258.787C287.288 256.705 285.38 253.79 283.749 251.188C283.7 251.105 283.846 251.042 283.881 251.118Z" fill="#263238"/>
<path d="M289.926 259.279L290.009 259.362C290.064 259.418 289.974 259.501 289.919 259.446L289.842 259.369C289.787 259.314 289.87 259.224 289.926 259.279Z" fill="#263238"/>
<path d="M273.561 257.634C274.252 262.919 276.382 267.912 279.717 272.069C281.09 273.701 282.79 275.027 284.707 275.962C286.865 277.031 289.127 278.267 291.369 279.141C292.428 281.849 293.216 284.654 293.722 287.518C293.798 287.275 293.867 287.018 293.937 286.775C292.507 274.45 284.526 263.873 274.324 257.148C274.244 257.097 274.151 257.07 274.056 257.07C273.961 257.07 273.868 257.097 273.788 257.148C273.708 257.199 273.644 257.272 273.604 257.358C273.564 257.444 273.549 257.54 273.561 257.634Z" fill="#A178F7"/>
<path d="M277.087 261.278C277.017 261.208 277.087 261.083 277.191 261.139C282.798 265.308 287.27 270.818 290.196 277.163C290.266 277.33 290.037 277.483 289.939 277.309C289.467 276.483 288.982 275.671 288.489 274.88C286.164 274.443 283.957 272.798 282.243 271.243C282.194 271.202 282.243 271.132 282.312 271.174C283.201 271.99 284.19 272.689 285.255 273.256C286.206 273.735 287.226 274.04 288.218 274.422C287.351 273.034 286.456 271.743 285.519 270.466C282.993 269.5 280.626 268.162 278.495 266.497C278.426 266.448 278.495 266.344 278.558 266.385C280.666 267.654 282.839 268.813 285.068 269.855C283.643 267.981 282.109 266.191 280.473 264.498C279.682 264.081 278.877 263.665 278.114 263.214C278.106 263.211 278.099 263.206 278.093 263.2C278.087 263.194 278.082 263.187 278.079 263.179C278.076 263.172 278.074 263.163 278.074 263.155C278.074 263.147 278.076 263.138 278.079 263.131C278.082 263.123 278.087 263.116 278.093 263.11C278.099 263.104 278.106 263.099 278.113 263.096C278.121 263.093 278.129 263.091 278.138 263.091C278.146 263.091 278.154 263.093 278.162 263.096C278.799 263.32 279.407 263.618 279.974 263.984C279.051 263.089 278.107 262.173 277.087 261.278Z" fill="#263238"/>
<path d="M277.309 265.533C277.445 265.615 277.575 265.708 277.697 265.811C277.739 265.845 277.697 265.894 277.649 265.88C277.507 265.811 277.37 265.732 277.239 265.644C277.17 265.602 277.232 265.484 277.309 265.533Z" fill="#263238"/>
<path d="M309.864 314.21H281.903L284.158 288.747L284.658 283.133H307.109L307.609 288.747L309.864 314.21Z" fill="#455A64"/>
<path d="M307.609 288.747H284.158L284.658 283.133H307.109L307.609 288.747Z" fill="#263238"/>
<path d="M308.448 279.211H283.319V284.77H308.448V279.211Z" fill="#455A64"/>
<path d="M179.323 68.9972C179.327 73.43 178.097 77.7765 175.772 81.5506C173.447 85.3247 170.118 88.3777 166.158 90.3682C162.197 92.3587 157.76 93.2081 153.345 92.8216C148.929 92.435 144.707 90.8277 141.153 88.1793L129.445 91.1705L134.303 80.2677C132.587 77.0638 131.624 73.5106 131.488 69.8786C131.352 66.2466 132.046 62.6314 133.517 59.3079C134.989 55.9844 137.198 53.0403 139.979 50.6994C142.759 48.3586 146.037 46.6826 149.562 45.799C153.088 44.9155 156.768 44.8476 160.324 45.6005C163.88 46.3535 167.217 47.9074 170.082 50.1442C172.947 52.3809 175.264 55.2416 176.856 58.5085C178.449 61.7754 179.276 65.3626 179.274 68.9972H179.323Z" fill="white"/>
<path d="M179.323 68.998C179.321 73.4435 178.088 77.8017 175.76 81.5888C173.432 85.3759 170.099 88.4436 166.133 90.4515C162.167 92.4595 157.722 93.329 153.291 92.9635C148.861 92.5981 144.618 91.0121 141.035 88.3814L141.243 88.4231L129.549 91.4628L128.938 91.6224L129.195 91.0464L134.053 80.1298V80.4282C132.302 77.1864 131.328 73.5825 131.208 69.9002C130.708 58.7129 138.64 48.1572 149.564 45.6518C164.492 41.8348 179.455 53.619 179.323 68.998ZM179.323 68.998C179.371 53.6675 164.499 42.0361 149.661 46.0197C139.078 48.5805 131.312 59.0252 131.86 69.8724C132.002 73.4502 132.951 76.9495 134.636 80.1089L134.712 80.2547L134.65 80.4074L129.778 91.2962L129.431 90.8729L141.153 87.9442H141.264C144.786 90.6116 148.982 92.2436 153.381 92.6568C157.78 93.07 162.206 92.2479 166.164 90.283C170.121 88.3182 173.451 85.2884 175.781 81.5343C178.11 77.7803 179.347 73.4508 179.35 69.0327L179.323 68.998Z" fill="#263238"/>
<path d="M151.513 83.2537L151.557 83.2983L151.591 83.2454L167.997 57.5188L168.024 57.4767L167.982 57.4498L163.721 54.7293L163.678 54.7024L163.652 54.7446L150.687 75.0746L144.471 68.7829L144.436 68.7473L144.4 68.7825L140.805 72.3358L140.77 72.3709L140.805 72.4065L151.513 83.2537Z" fill="#C7F4CE" stroke="#00A16B" stroke-width="0.1"/>
<path d="M142.964 158.578C144.705 158.324 146.338 157.578 147.67 156.427C149.002 155.277 149.978 153.77 150.483 152.085C150.988 150.399 151.001 148.604 150.521 146.91C150.041 145.217 149.088 143.696 147.773 142.526C151.452 141.624 154.575 139.008 154.797 134.892C155.033 130.624 151.951 127.383 147.926 126.564C147.926 126.564 147.884 126.606 147.926 126.62C151.5 127.772 154.401 130.902 154.13 134.837C153.901 138.203 151.75 140.264 149.009 141.388C150.076 140.48 150.945 139.362 151.562 138.103C152.18 136.845 152.532 135.473 152.597 134.073C152.621 132.508 152.18 130.971 151.33 129.657C150.48 128.342 149.259 127.31 147.822 126.689C149.252 123.413 149.64 119.416 147.767 116.224C147.006 114.886 145.873 113.799 144.505 113.095C143.137 112.392 141.593 112.102 140.063 112.261C140.472 110.578 140.378 108.813 139.793 107.183C139.208 105.554 138.158 104.132 136.773 103.093C135.388 102.054 133.729 101.445 132 101.34C130.272 101.235 128.551 101.64 127.051 102.503C127.223 101.266 127.08 100.005 126.636 98.8377C126.191 97.6702 125.459 96.6338 124.508 95.8242C123.557 95.0147 122.416 94.4582 121.193 94.2064C119.969 93.9545 118.702 94.0154 117.508 94.3834C117.455 93.4271 117.127 92.5064 116.565 91.7311C116.003 90.9558 115.229 90.3587 114.337 90.0112C112.255 89.1229 109.964 89.6087 107.931 90.4346C107.361 89.6128 106.595 88.9471 105.701 88.4985C104.807 88.0498 103.815 87.8326 102.816 87.8668C101.531 87.9552 100.319 88.4981 99.3968 89.3983C98.475 90.2985 97.9035 91.4973 97.7846 92.7803C94.3146 91.9405 90.4282 91.5172 87.1803 93.2661C84.5084 94.7096 82.5027 97.6036 82.8636 100.685C81.3531 100.525 79.8258 100.687 78.3826 101.16C76.9393 101.634 75.6128 102.408 74.4907 103.432C73.3685 104.456 72.4763 105.706 71.8727 107.1C71.2692 108.493 70.9681 109.999 70.9893 111.518C69.6907 111.774 68.4821 112.366 67.4845 113.236C66.4869 114.105 65.7355 115.222 65.3054 116.473C64.6402 118.171 64.4019 120.006 64.6114 121.817C63.4642 122.129 62.4445 122.794 61.697 123.719C60.9495 124.643 60.5123 125.78 60.4474 126.967C60.3017 129.34 61.4607 131.242 63.0569 132.803C63.2002 133.431 63.2002 134.084 63.0569 134.712C62.7152 136.301 62.7735 137.951 63.2265 139.512C63.6795 141.073 64.5131 142.498 65.6524 143.657C65.1976 144.495 64.9264 145.419 64.8569 146.369C64.7875 147.32 64.9214 148.274 65.2498 149.168C65.5781 150.063 66.0934 150.877 66.7612 151.557C67.4289 152.236 68.2339 152.766 69.1224 153.11C68.7447 155.052 69.1457 157.064 70.2389 158.713C71.3322 160.362 73.03 161.515 74.9659 161.924C74.7783 163.487 74.929 165.073 75.408 166.573C75.887 168.074 76.6829 169.454 77.7419 170.619C79.4144 172.41 82.0447 173.687 84.3904 172.771C84.3488 174.7 86.3128 176.067 88.1797 176.241C88.8897 176.281 89.6021 176.242 90.3033 176.123C91.1292 175.998 92.1632 175.623 92.996 175.804C93.8288 175.984 94.4743 176.81 95.1474 177.316C95.6339 177.68 96.1573 177.992 96.7089 178.246C98.7874 179.157 101.114 179.332 103.306 178.743C105.497 178.154 107.422 176.836 108.764 175.005C111.373 176.949 114.857 176.227 117.55 174.686C118.408 174.163 119.221 173.569 119.979 172.91C120.621 172.279 121.443 171.862 122.331 171.716C122.914 171.646 123.518 171.716 124.108 171.646C126.107 171.431 127.46 170.05 128.633 168.544C135.823 173.451 143.887 166.504 142.964 158.578ZM61.2247 128.098C61.1104 126.864 61.3831 125.625 62.0049 124.553C62.6267 123.481 63.5668 122.629 64.6947 122.116C64.6947 122.303 64.7641 122.421 64.7641 122.421C64.7641 122.421 64.1464 122.969 63.8758 123.268C63.3918 123.819 62.9919 124.439 62.689 125.107C62.0417 126.504 61.8242 128.062 62.0644 129.583C62.1866 130.254 62.3918 130.906 62.6752 131.526C62.6752 131.61 62.7307 131.686 62.7654 131.762C61.9222 130.707 61.3888 129.439 61.2247 128.098ZM103.968 89.5254C102.793 89.4417 101.62 89.721 100.608 90.3254C99.5968 90.9299 98.7952 91.8304 98.3121 92.9052L98.1247 92.8566C98.7701 90.4831 100.012 88.4914 102.858 88.3664C103.736 88.3371 104.607 88.5389 105.383 88.9518C106.158 89.3647 106.812 89.9741 107.279 90.7191H107.244C106.286 90.0217 105.15 89.6081 103.968 89.5254ZM128.869 168.225C128.887 168.203 128.903 168.18 128.917 168.156C131.464 169.042 134.256 168.902 136.701 167.764C139.146 166.627 141.051 164.582 142.013 162.062C140.278 167.781 135.469 171.716 128.869 168.225Z" fill="#263238"/>
<path d="M106.945 200.434C121.006 230.519 144.838 271.222 155.775 272.936C162.382 273.963 173.556 274.859 182.043 266.857C200.573 249.403 213.273 224.467 220.31 211.663C223.503 205.847 187.783 179.975 183.292 185.465C172.764 198.304 160.89 223.19 158.94 223.114C151.736 222.823 141.049 205.285 123.594 189.025C102.573 169.426 100.942 187.581 106.945 200.434Z" fill="#AD6359"/>
<path d="M215.216 219.803C224.044 210.385 235.634 196.352 235.662 190.446C235.662 184.256 234.919 162.464 233.108 157.461C231.296 152.457 221.601 139.548 217.146 137.848C213.585 136.46 211.684 140.888 215.82 148.883C220.449 157.821 219.033 161.43 219.249 164.296C219.471 167.267 214.495 179.898 210.324 180.952C207.86 181.584 202.752 181.556 201.593 177.115C200.434 172.673 201.593 168.662 199.879 160.917C198.533 154.893 193.501 151.152 191.426 152.207C189.351 153.262 191.072 156.864 189.705 165.886C188.851 171.514 188.019 175.553 181.308 183.777C175.436 190.974 175.062 200.94 175.062 200.94L215.216 219.803Z" fill="#AD6359"/>
<path d="M236.071 176.56C235.828 173.167 238.153 162.882 237.348 158.398C236.543 153.915 231.283 137.412 226.244 136.065C219.936 134.379 221.809 147.794 223.149 153.547C224.488 159.301 220.81 169.669 220.81 169.669L229.492 173.361L236.071 176.56Z" fill="#AD6359"/>
<path d="M219.568 172.034C221.122 166.815 223.038 161.513 223.128 156.031C222.857 152.103 222.073 148.237 221.886 144.281C221.83 141.935 221.684 139.375 222.871 137.251C223.073 136.902 223.352 136.604 223.686 136.379C224.02 136.154 224.401 136.009 224.8 135.953C224.422 136.041 224.067 136.211 223.761 136.451C223.456 136.691 223.206 136.994 223.031 137.341C222.038 139.479 222.274 141.942 222.42 144.246C222.684 147.369 223.197 150.492 223.6 153.622C224.412 159.986 221.83 166.212 219.568 172.034Z" fill="#263238"/>
<path d="M235.78 179.516C236.474 176.213 241.533 167.08 242.026 162.569C242.518 158.058 242.067 140.812 237.667 138.071C232.115 134.601 230.214 147.96 229.901 153.838C229.589 159.717 223.211 168.523 223.211 168.523L230.443 174.561L235.78 179.516Z" fill="#AD6359"/>
<path d="M221.344 170.411C224.273 165.886 227.59 161.389 229.152 156.17C229.985 152.36 230.304 148.46 231.234 144.643C231.831 142.394 232.393 139.91 234.114 138.223C234.402 137.946 234.751 137.739 235.132 137.618C235.514 137.498 235.918 137.467 236.314 137.529C235.928 137.499 235.541 137.557 235.18 137.697C234.82 137.838 234.496 138.058 234.232 138.341C232.698 140.104 232.24 142.505 231.74 144.74C231.13 147.793 230.762 150.889 230.276 153.991C229.304 160.272 225.113 165.504 221.344 170.397V170.411Z" fill="#263238"/>
<path d="M222.531 178.357C218.478 181.716 212.815 182.965 207.679 183.305C203.755 183.446 199.908 184.436 196.402 186.206C195.23 186.795 194.092 187.451 192.994 188.17C197.144 184.788 202.276 182.84 207.624 182.618C212.78 182.257 218.138 181.23 222.524 178.35L222.531 178.357Z" fill="#263238"/>
<path d="M235.349 139.646L216.986 189.392C216.722 190.07 216.234 190.637 215.602 190.998C214.971 191.359 214.234 191.493 213.516 191.376L188.567 186.407C188.246 186.35 187.942 186.22 187.678 186.028C187.414 185.836 187.196 185.587 187.042 185.299C186.888 185.012 186.801 184.693 186.787 184.367C186.774 184.041 186.834 183.716 186.964 183.416L205.327 133.677C205.586 132.996 206.074 132.425 206.706 132.062C207.339 131.699 208.077 131.566 208.797 131.685L233.746 136.655C234.067 136.712 234.371 136.842 234.635 137.034C234.899 137.226 235.116 137.475 235.271 137.763C235.425 138.05 235.512 138.369 235.526 138.695C235.539 139.021 235.479 139.346 235.349 139.646Z" fill="#37474F"/>
<path d="M232.212 136.349L207.228 131.387C206.51 131.267 205.772 131.399 205.139 131.76C204.507 132.122 204.019 132.692 203.758 133.372L185.395 183.111C185.266 183.41 185.205 183.735 185.219 184.061C185.233 184.387 185.32 184.706 185.474 184.994C185.628 185.282 185.845 185.531 186.109 185.723C186.373 185.914 186.677 186.044 186.998 186.102L211.982 191.071C212.701 191.19 213.438 191.057 214.07 190.696C214.703 190.334 215.191 189.766 215.452 189.086L233.816 139.347C233.947 139.047 234.008 138.722 233.995 138.395C233.982 138.068 233.895 137.748 233.741 137.46C233.586 137.171 233.369 136.921 233.104 136.729C232.839 136.537 232.535 136.407 232.212 136.349ZM214.446 187.233C214.223 187.863 213.79 188.397 213.22 188.745C212.651 189.094 211.978 189.236 211.316 189.149L188.99 184.707C188.695 184.643 188.418 184.513 188.18 184.327C187.942 184.141 187.749 183.904 187.616 183.633C187.483 183.362 187.412 183.065 187.41 182.763C187.407 182.461 187.473 182.162 187.602 181.889L204.73 135.572C205.716 132.9 206.812 132.976 208.027 133.226L212.496 134.114C212.76 134.163 212.864 134.496 212.732 134.85L212.676 135.003C212.371 135.829 212.836 135.926 213.412 136.044L223.753 138.126C224.336 138.237 224.801 138.327 225.141 137.501L225.196 137.349C225.328 136.988 225.64 136.745 225.89 136.8L230.359 137.689C231.609 137.938 232.49 138.494 231.588 140.937L214.446 187.233Z" fill="#263238"/>
<path d="M231.546 140.915L214.446 187.233C214.223 187.863 213.79 188.396 213.22 188.745C212.65 189.094 211.978 189.236 211.316 189.148L188.99 184.707C188.695 184.643 188.418 184.513 188.18 184.327C187.942 184.141 187.749 183.904 187.616 183.633C187.482 183.362 187.412 183.065 187.409 182.763C187.407 182.461 187.473 182.162 187.602 181.889L204.73 135.572C205.715 132.9 206.812 132.976 208.026 133.226L212.496 134.114C212.76 134.163 212.864 134.496 212.732 134.85L212.676 135.003C212.371 135.828 212.836 135.926 213.412 136.044L223.752 138.126C224.335 138.237 224.8 138.327 225.14 137.501L225.196 137.348C225.328 136.987 225.64 136.745 225.89 136.8L230.359 137.688C231.567 137.917 232.448 138.473 231.546 140.915Z" fill="white"/>
<path d="M211.316 135.004H211.253C211.218 134.938 211.167 134.881 211.106 134.837C211.044 134.794 210.974 134.765 210.9 134.754C210.735 134.727 210.566 134.757 210.421 134.837V134.789L210.49 134.747L210.65 134.698C210.712 134.692 210.775 134.692 210.837 134.698H210.997H211.052C211.101 134.712 211.148 134.733 211.191 134.761L211.281 134.83C211.308 134.857 211.331 134.888 211.351 134.921L211.385 134.969L211.316 135.004Z" fill="#C7C7C7"/>
<path d="M210.476 135.045L210.435 134.969C210.532 134.908 210.646 134.879 210.761 134.886C210.836 134.888 210.909 134.91 210.973 134.949C211.038 134.988 211.091 135.043 211.129 135.108L211.038 135.156C211.013 135.112 210.978 135.074 210.936 135.045C210.894 135.016 210.846 134.997 210.795 134.99C210.686 134.971 210.573 134.99 210.476 135.045Z" fill="#C7C7C7"/>
<path d="M210.976 135.212L210.886 135.261C210.872 135.24 210.855 135.221 210.835 135.207C210.815 135.193 210.792 135.183 210.768 135.177C210.714 135.157 210.655 135.157 210.601 135.177L210.559 135.101C210.593 135.079 210.632 135.064 210.672 135.058C210.712 135.052 210.753 135.054 210.792 135.065C210.831 135.075 210.868 135.094 210.899 135.119C210.931 135.144 210.957 135.176 210.976 135.212Z" fill="#C7C7C7"/>
<path d="M210.744 135.329C210.737 135.344 210.725 135.356 210.71 135.363C210.696 135.37 210.679 135.373 210.663 135.37C210.655 135.368 210.649 135.365 210.643 135.361C210.637 135.356 210.631 135.351 210.628 135.344C210.624 135.338 210.621 135.331 210.62 135.324C210.619 135.316 210.62 135.309 210.622 135.302C210.629 135.286 210.64 135.274 210.655 135.265C210.67 135.256 210.687 135.253 210.703 135.254C210.711 135.256 210.719 135.259 210.726 135.264C210.732 135.268 210.738 135.275 210.742 135.282C210.746 135.289 210.748 135.297 210.748 135.305C210.749 135.313 210.747 135.321 210.744 135.329Z" fill="#C7C7C7"/>
<path d="M207.055 134.287C207.074 134.241 207.109 134.202 207.153 134.177C207.197 134.152 207.248 134.142 207.298 134.149C207.32 134.153 207.341 134.162 207.359 134.176C207.377 134.189 207.392 134.207 207.402 134.227C207.413 134.246 207.419 134.268 207.42 134.291C207.421 134.314 207.417 134.336 207.409 134.357C207.392 134.405 207.358 134.446 207.313 134.471C207.268 134.497 207.216 134.505 207.166 134.496C207.144 134.491 207.123 134.482 207.105 134.468C207.087 134.455 207.072 134.438 207.061 134.418C207.051 134.398 207.044 134.376 207.043 134.353C207.042 134.331 207.046 134.308 207.055 134.287Z" fill="#C7C7C7"/>
<path d="M207.617 134.4C207.636 134.352 207.67 134.312 207.714 134.287C207.758 134.262 207.81 134.253 207.86 134.261C207.882 134.265 207.903 134.274 207.921 134.288C207.939 134.301 207.954 134.319 207.965 134.339C207.975 134.358 207.981 134.381 207.983 134.403C207.984 134.426 207.98 134.448 207.971 134.469C207.953 134.516 207.918 134.556 207.874 134.581C207.83 134.607 207.778 134.616 207.728 134.608C207.706 134.603 207.685 134.594 207.667 134.581C207.649 134.567 207.634 134.55 207.623 134.53C207.613 134.51 207.607 134.488 207.606 134.465C207.605 134.443 207.608 134.42 207.617 134.4Z" fill="#C7C7C7"/>
<path d="M208.2 134.511C208.219 134.466 208.252 134.428 208.295 134.403C208.338 134.378 208.387 134.367 208.436 134.372C208.459 134.376 208.48 134.385 208.499 134.398C208.518 134.411 208.534 134.428 208.545 134.448C208.557 134.468 208.563 134.49 208.565 134.513C208.566 134.536 208.563 134.559 208.554 134.581C208.536 134.628 208.501 134.668 208.457 134.693C208.413 134.718 208.361 134.728 208.311 134.719C208.288 134.716 208.267 134.708 208.248 134.695C208.229 134.681 208.213 134.664 208.202 134.644C208.192 134.623 208.186 134.601 208.185 134.578C208.185 134.555 208.19 134.532 208.2 134.511Z" fill="#C7C7C7"/>
<path d="M208.734 134.635C208.754 134.589 208.789 134.551 208.833 134.527C208.877 134.503 208.928 134.495 208.977 134.503C209 134.507 209.022 134.516 209.041 134.529C209.059 134.542 209.075 134.559 209.087 134.579C209.098 134.599 209.105 134.621 209.106 134.644C209.108 134.667 209.104 134.69 209.095 134.712C209.075 134.757 209.04 134.794 208.996 134.818C208.952 134.842 208.902 134.851 208.852 134.843C208.83 134.84 208.808 134.831 208.789 134.818C208.77 134.805 208.754 134.788 208.743 134.768C208.732 134.748 208.725 134.725 208.723 134.703C208.722 134.68 208.726 134.657 208.734 134.635Z" fill="#C7C7C7"/>
<path d="M209.297 134.733C209.316 134.687 209.351 134.649 209.395 134.625C209.439 134.601 209.49 134.592 209.539 134.601C209.562 134.604 209.584 134.613 209.603 134.626C209.622 134.639 209.637 134.656 209.648 134.677C209.659 134.697 209.665 134.72 209.665 134.743C209.666 134.766 209.661 134.789 209.65 134.809C209.631 134.855 209.596 134.894 209.552 134.918C209.508 134.941 209.457 134.95 209.408 134.941C209.385 134.937 209.365 134.927 209.346 134.914C209.328 134.9 209.314 134.883 209.303 134.863C209.292 134.843 209.286 134.821 209.285 134.799C209.284 134.776 209.288 134.754 209.297 134.733Z" fill="#C7C7C7"/>
<path d="M229.999 139.264L228.548 138.973L228.791 138.32L230.235 138.612L229.999 139.264ZM228.652 138.917L229.95 139.174L230.137 138.667L228.833 138.411L228.652 138.917Z" fill="#C7C7C7"/>
<path d="M229.804 138.646L228.867 138.459L228.708 138.889L229.644 139.07L229.804 138.646Z" fill="#C7C7C7"/>
<path d="M230.186 139.14L230.054 139.113L230.179 138.766L230.311 138.786L230.186 139.14Z" fill="#C7C7C7"/>
<path d="M220.352 136.316L217.527 135.753C217.505 135.75 217.485 135.741 217.467 135.729C217.448 135.716 217.433 135.699 217.423 135.68C217.412 135.66 217.406 135.639 217.405 135.617C217.404 135.595 217.408 135.573 217.416 135.552C217.436 135.507 217.469 135.47 217.512 135.446C217.555 135.422 217.604 135.413 217.652 135.42L220.477 135.982C220.499 135.986 220.52 135.994 220.538 136.007C220.556 136.02 220.571 136.037 220.581 136.056C220.592 136.075 220.598 136.097 220.599 136.119C220.601 136.141 220.597 136.163 220.588 136.184C220.57 136.229 220.536 136.267 220.493 136.291C220.45 136.315 220.4 136.324 220.352 136.316Z" fill="white"/>
<path d="M191.225 182.224L191.093 182.203L190.878 182.786L190.635 182.737L190.746 182.439L190.309 182.348L190.197 182.647L189.955 182.598L190.17 182.015L190.038 181.988L190.85 181.516L191.225 182.224Z" fill="#EBEBEB"/>
<path d="M212.635 186.068L211.205 185.776L211.281 185.582L212.711 185.867L212.635 186.068Z" fill="#EBEBEB"/>
<path d="M212.454 186.553L211.025 186.269L211.101 186.074L212.531 186.352L212.454 186.553Z" fill="#EBEBEB"/>
<path d="M212.274 187.046L210.844 186.762L210.92 186.561L212.35 186.845L212.274 187.046Z" fill="#EBEBEB"/>
<path d="M201.683 184.326L201.121 184.667L200.864 184.16L200.961 184.111L201.17 184.521L201.635 184.243L201.683 184.326Z" fill="#EBEBEB"/>
<path d="M200.955 185.097C200.861 185.081 200.773 185.045 200.696 184.99C200.619 184.935 200.555 184.864 200.51 184.781C200.464 184.698 200.438 184.606 200.434 184.512C200.429 184.417 200.446 184.323 200.483 184.236C200.559 184.04 200.701 183.877 200.885 183.773C201.068 183.669 201.281 183.632 201.489 183.667C201.582 183.683 201.671 183.719 201.748 183.774C201.825 183.829 201.888 183.9 201.934 183.983C201.979 184.066 202.005 184.158 202.01 184.252C202.015 184.347 201.998 184.441 201.961 184.528C201.884 184.724 201.742 184.887 201.559 184.991C201.376 185.095 201.162 185.132 200.955 185.097ZM201.447 183.764C201.268 183.733 201.083 183.765 200.925 183.855C200.767 183.945 200.645 184.087 200.58 184.257C200.548 184.333 200.534 184.415 200.539 184.496C200.543 184.578 200.566 184.658 200.605 184.73C200.644 184.802 200.699 184.864 200.766 184.912C200.832 184.96 200.909 184.992 200.989 185.007C201.17 185.037 201.356 185.003 201.515 184.912C201.675 184.821 201.798 184.678 201.864 184.507C201.895 184.431 201.909 184.349 201.904 184.268C201.899 184.186 201.876 184.106 201.836 184.034C201.796 183.963 201.74 183.901 201.673 183.855C201.605 183.808 201.528 183.777 201.447 183.764Z" fill="#EBEBEB"/>
<path d="M206.444 138.96L205.917 138.086L206.979 137.523L207.055 137.669L206.18 138.134L206.611 138.856L206.444 138.96Z" fill="#DBDBDB"/>
<path d="M228.944 142.185C228.927 142.227 228.896 142.261 228.857 142.283C228.818 142.304 228.772 142.311 228.729 142.303C228.709 142.301 228.689 142.294 228.673 142.283C228.656 142.271 228.642 142.256 228.633 142.238C228.623 142.221 228.618 142.201 228.618 142.181C228.618 142.161 228.622 142.141 228.631 142.123C228.647 142.082 228.676 142.048 228.714 142.026C228.752 142.005 228.797 141.997 228.84 142.005C228.859 142.008 228.878 142.015 228.895 142.026C228.912 142.037 228.926 142.052 228.936 142.07C228.946 142.087 228.952 142.107 228.953 142.127C228.954 142.147 228.951 142.167 228.944 142.185Z" fill="#DBDBDB"/>
<path d="M228.742 142.72C228.727 142.761 228.698 142.796 228.66 142.819C228.622 142.842 228.578 142.851 228.534 142.845C228.514 142.841 228.495 142.833 228.478 142.821C228.462 142.809 228.448 142.794 228.438 142.776C228.428 142.758 228.422 142.738 228.421 142.717C228.419 142.697 228.423 142.677 228.43 142.657C228.448 142.617 228.479 142.583 228.518 142.562C228.556 142.541 228.601 142.533 228.645 142.539C228.664 142.543 228.683 142.551 228.699 142.563C228.714 142.574 228.728 142.589 228.737 142.607C228.746 142.624 228.751 142.643 228.752 142.663C228.753 142.682 228.75 142.702 228.742 142.72Z" fill="#DBDBDB"/>
<path d="M228.541 143.262C228.526 143.303 228.496 143.337 228.458 143.358C228.42 143.38 228.376 143.387 228.333 143.38C228.313 143.377 228.294 143.37 228.277 143.359C228.261 143.347 228.247 143.332 228.237 143.315C228.227 143.298 228.221 143.278 228.219 143.258C228.218 143.238 228.221 143.218 228.229 143.199C228.246 143.158 228.276 143.124 228.315 143.102C228.355 143.081 228.4 143.073 228.444 143.081C228.464 143.084 228.483 143.091 228.5 143.102C228.516 143.113 228.53 143.128 228.54 143.146C228.549 143.164 228.554 143.184 228.555 143.204C228.555 143.224 228.55 143.244 228.541 143.262Z" fill="#DBDBDB"/>
<path d="M212.676 139.494C215.799 140.001 218.922 140.618 221.948 141.34C218.825 140.841 215.702 140.223 212.676 139.494Z" fill="#DBDBDB"/>
<path d="M203.939 141.832C206.195 142.161 208.432 142.606 210.643 143.165C208.387 142.835 206.149 142.391 203.939 141.832Z" fill="#DBDBDB"/>
<path d="M221.573 147.975C223.109 148.162 224.629 148.466 226.119 148.884C224.583 148.699 223.063 148.395 221.573 147.975Z" fill="#DBDBDB"/>
<path d="M221.386 148.467C222.922 148.652 224.442 148.956 225.932 149.376C224.396 149.189 222.876 148.885 221.386 148.467Z" fill="#DBDBDB"/>
<path d="M203.689 142.512C205.142 142.683 206.578 142.971 207.985 143.372C206.532 143.201 205.096 142.913 203.689 142.512Z" fill="#DBDBDB"/>
<path d="M213.113 146.433L208.894 152.436L206.451 159.049C205.588 158.905 204.768 158.566 204.054 158.06C203.34 157.553 202.75 156.891 202.329 156.124C201.908 155.356 201.666 154.503 201.621 153.629C201.576 152.755 201.731 151.882 202.072 151.075C202.78 149.27 204.087 147.763 205.773 146.805C207.46 145.848 209.424 145.498 211.337 145.815C211.956 145.934 212.554 146.142 213.113 146.433Z" fill="#00A16B"/>
<path d="M210.976 158.566C209.547 159.164 207.975 159.333 206.451 159.051L208.894 152.438L210.976 158.566Z" fill="#263238"/>
<path d="M215.716 153.789C215.296 154.869 214.658 155.851 213.841 156.673C213.024 157.494 212.046 158.138 210.969 158.564L208.887 152.436L215.737 149.334C216.286 150.77 216.278 152.359 215.716 153.789Z" fill="#37474F"/>
<path d="M216.66 149.001L208.797 152.561L213.655 145.684C215.019 146.397 216.084 147.573 216.66 149.001Z" fill="#C7C7C7"/>
<path d="M212.301 153.109C211.947 154.013 211.293 154.767 210.449 155.246C209.605 155.724 208.623 155.899 207.666 155.74C207.234 155.667 206.825 155.498 206.468 155.245C206.112 154.992 205.817 154.661 205.606 154.278C205.395 153.895 205.274 153.469 205.25 153.032C205.227 152.596 205.303 152.159 205.472 151.756C205.827 150.853 206.481 150.099 207.325 149.62C208.168 149.141 209.151 148.967 210.108 149.126C210.541 149.196 210.952 149.364 211.31 149.616C211.668 149.869 211.964 150.199 212.175 150.583C212.387 150.967 212.508 151.394 212.53 151.832C212.552 152.269 212.474 152.706 212.301 153.109Z" fill="white"/>
<path d="M220.657 148.44L219.928 148.294L220.185 147.586L220.921 147.732L220.657 148.44Z" fill="#00A16B"/>
<path d="M220.886 149.842C222.423 150.027 223.942 150.331 225.432 150.751C223.896 150.564 222.376 150.26 220.886 149.842Z" fill="#DBDBDB"/>
<path d="M220.692 150.334C222.228 150.52 223.747 150.822 225.238 151.236C223.702 151.051 222.182 150.75 220.692 150.334Z" fill="#DBDBDB"/>
<path d="M219.97 150.306L219.235 150.16L219.498 149.445L220.234 149.598L219.97 150.306Z" fill="#263238"/>
<path d="M220.192 151.707C221.731 151.891 223.253 152.195 224.745 152.616C223.207 152.428 221.685 152.124 220.192 151.707Z" fill="#DBDBDB"/>
<path d="M219.998 152.201C221.534 152.386 223.054 152.688 224.544 153.103C223.008 152.917 221.488 152.616 219.998 152.201Z" fill="#DBDBDB"/>
<path d="M219.283 152.173L218.548 152.027L218.811 151.312L219.547 151.458L219.283 152.173Z" fill="#37474F"/>
<path d="M219.505 153.574C221.041 153.759 222.561 154.061 224.051 154.476C222.515 154.29 220.996 153.989 219.505 153.574Z" fill="#DBDBDB"/>
<path d="M219.304 154.068C220.84 154.253 222.36 154.555 223.85 154.971C222.314 154.784 220.794 154.483 219.304 154.068Z" fill="#DBDBDB"/>
<path d="M218.596 154.04L217.86 153.895L218.124 153.18L218.86 153.325L218.596 154.04Z" fill="#C7C7C7"/>
<path d="M205.139 183.118L203.529 182.799L209.165 167.545L210.768 167.864L205.139 183.118Z" fill="#EBEBEB"/>
<path d="M197.443 159.848C201.773 160.59 206.298 161.492 210.553 162.457C206.222 161.708 201.69 160.812 197.443 159.848Z" fill="#263238"/>
<path d="M197.131 160.695C199.594 161.07 202.037 161.556 204.418 162.146C201.954 161.778 199.511 161.292 197.131 160.695Z" fill="#263238"/>
<path d="M215.98 163.541C217.703 163.794 219.413 164.135 221.101 164.561C219.378 164.307 217.669 163.966 215.98 163.541Z" fill="#A178F7"/>
<path d="M194.348 173.971L193.827 173.867L196.888 165.566L197.415 165.671L194.348 173.971Z" fill="#00A16B"/>
<path d="M192.113 180.03L191.586 179.919L193.557 174.582L194.084 174.693L192.113 180.03Z" fill="#455A64"/>
<path d="M198.144 171.05L197.624 170.939L199.421 166.074L199.948 166.178L198.144 171.05Z" fill="#00A16B"/>
<path d="M194.646 180.529L194.119 180.425L197.36 171.66L197.88 171.764L194.646 180.529Z" fill="#455A64"/>
<path d="M201.649 168.92L201.121 168.816L201.954 166.574L202.474 166.678L201.649 168.92Z" fill="#00A16B"/>
<path d="M197.179 181.036L196.652 180.932L200.858 169.529L201.385 169.64L197.179 181.036Z" fill="#455A64"/>
<path d="M202.731 173.354L202.204 173.25L204.48 167.08L205.008 167.184L202.731 173.354Z" fill="#00A16B"/>
<path d="M199.705 181.535L199.185 181.431L201.94 173.971L202.467 174.075L199.705 181.535Z" fill="#455A64"/>
<path d="M205.743 172.556L205.216 172.452L207.013 167.58L207.541 167.691L205.743 172.556Z" fill="#00A16B"/>
<path d="M202.238 182.043L201.711 181.939L204.952 173.174L205.472 173.278L202.238 182.043Z" fill="#455A64"/>
<path d="M206.146 178.815L205.625 178.711L209.546 168.086L210.067 168.19L206.146 178.815Z" fill="#00A16B"/>
<path d="M204.772 182.549L204.244 182.445L205.355 179.426L205.882 179.53L204.772 182.549Z" fill="#455A64"/>
<path d="M210.934 173.209L210.407 173.105L212.073 168.594L212.6 168.698L210.934 173.209Z" fill="#00A16B"/>
<path d="M207.298 183.049L206.777 182.944L210.143 173.818L210.671 173.922L207.298 183.049Z" fill="#455A64"/>
<path d="M210.428 181.931L209.9 181.827L214.605 169.092L215.133 169.203L210.428 181.931Z" fill="#00A16B"/>
<path d="M209.831 183.555L209.303 183.451L209.637 182.549L210.164 182.653L209.831 183.555Z" fill="#455A64"/>
<path d="M216.653 172.431L216.132 172.327L217.139 169.6L217.659 169.704L216.653 172.431Z" fill="#00A16B"/>
<path d="M212.364 184.062L211.836 183.951L215.862 173.041L216.389 173.152L212.364 184.062Z" fill="#455A64"/>
<path d="M199.289 163.201C200.827 163.389 202.349 163.693 203.842 164.11C202.303 163.926 200.781 163.622 199.289 163.201Z" fill="#DBDBDB"/>
<path d="M199.109 163.693C200.645 163.877 202.165 164.181 203.654 164.602C202.118 164.414 200.599 164.11 199.109 163.693Z" fill="#DBDBDB"/>
<path d="M198.38 163.666L197.644 163.52L197.908 162.812L198.644 162.958L198.38 163.666Z" fill="#00A16B"/>
<path d="M206.881 164.713C208.42 164.897 209.942 165.201 211.434 165.622C209.895 165.438 208.373 165.134 206.881 164.713Z" fill="#DBDBDB"/>
<path d="M206.701 165.207C208.237 165.392 209.757 165.693 211.247 166.109C209.711 165.923 208.191 165.621 206.701 165.207Z" fill="#DBDBDB"/>
<path d="M205.972 165.178L205.237 165.032L205.5 164.324L206.236 164.47L205.972 165.178Z" fill="#455A64"/>
<path d="M234.343 194.548C235.731 191.556 240.533 179.786 240.804 174.803C241.075 169.82 239.59 150.812 234.558 147.952C228.194 144.358 226.82 159.126 226.813 165.608C226.806 172.09 221.018 178.967 221.018 178.967L230.304 187.177L234.343 194.548Z" fill="#AD6359"/>
<path d="M227.632 155.455C227.71 157.612 227.678 159.77 227.535 161.923C227.545 163.972 227.401 166.018 227.104 168.044C226.656 170.009 225.884 171.885 224.821 173.596C224.315 174.45 223.766 175.269 223.183 176.074C222.6 176.879 221.83 177.781 221.219 178.67C221.157 178.76 220.997 178.67 221.06 178.572C222.115 176.897 223.058 175.153 223.884 173.354C224.777 171.506 225.436 169.555 225.848 167.545C226.653 163.547 226.584 159.411 227.354 155.407C227.368 155.247 227.632 155.296 227.632 155.455Z" fill="#263238"/>
<path d="M227.084 168.037C227.014 163.499 225.828 144.643 233.968 147.433C238.507 150.07 239.742 159.925 240.27 164.783C239.395 160.244 237.827 150.403 233.684 148.002C226.667 145.718 227.507 163.88 227.084 168.01V168.037Z" fill="#263238"/>
<path d="M174.708 195.708L214.96 228.895C214.96 228.895 193.536 261.617 179.01 270.854C172.154 275.206 158.246 275.227 153.61 273.492C149.279 271.882 124.975 247.633 106.793 203.981C92.6976 170.03 115.204 178.358 123.636 187.151C132.727 196.624 156.712 220.921 158.031 220.526C159.349 220.13 174.708 195.708 174.708 195.708Z" fill="#A178F7"/>
<path d="M169.475 207.7C175.547 212.433 181.467 217.346 187.352 222.274C190.239 224.696 201.329 234.766 204.529 237.604C204.654 237.722 204.355 238.048 204.216 237.944C201.073 235.522 189.344 225.653 186.499 223.183C180.704 218.144 174.943 213.071 169.336 207.825C169.239 207.755 169.371 207.616 169.475 207.7Z" fill="#263238"/>
<path opacity="0.1" d="M174.888 272.742C167.622 275.164 157.462 274.928 153.638 273.492C149.307 271.875 125.003 247.626 106.814 203.988C99.0685 185.395 102.337 179.489 108.271 179.42C116.842 191.329 152.493 241.151 174.888 272.742Z" fill="black"/>
<path d="M148.377 314.187H42.0493C47.2543 289.002 69.9342 198.289 88.4293 184.874C99.804 176.615 114.801 182.341 117.383 185.866C127.869 200.343 145.33 291.021 148.377 314.187Z" fill="#EBEBEB"/>
<path d="M119.132 188.552C119.132 188.503 119.049 188.517 119.049 188.552C119.569 192.979 120.437 203.257 112.345 203.126C109.09 203.077 106.05 201.515 103.503 199.954C100.94 198.367 98.5569 196.505 96.3966 194.402C93.9528 192.169 91.7074 189.729 89.6856 187.108C89.6023 186.997 89.408 187.108 89.4913 187.24C91.5247 189.835 93.2458 192.556 95.5776 194.971C97.8406 197.372 100.423 199.451 103.253 201.148C105.974 202.744 109.201 204.291 112.643 204.194C114.073 204.219 115.473 203.777 116.63 202.938C117.788 202.098 118.642 200.905 119.063 199.538C120.166 196.04 119.923 192.028 119.132 188.552Z" fill="#263238"/>
<path d="M91.8231 181.334C91.8231 181.334 98.8741 218.963 100.207 232.933C101.539 246.903 97.2987 314.186 97.2987 314.186H40.252C40.252 314.186 57.5326 231.448 74.487 199.399C83.9739 181.514 91.8231 181.334 91.8231 181.334Z" fill="#A178F7"/>
<path d="M116.141 183.91C116.141 183.91 127.529 226.473 128.279 230.998C129.028 235.523 132.811 314.556 132.811 314.556L151.445 314.424C151.445 314.424 131.86 195.292 116.141 183.91Z" fill="#A178F7"/>
<path d="M73.9803 196.555C49.9679 228.881 23.1448 293.562 31.4103 304.729C40.6267 317.221 74.0219 271.902 73.5431 269.605C73.1822 267.863 81.7948 229.666 88.4919 201.815C95.189 173.965 79.914 188.56 73.9803 196.555Z" fill="#AD6359"/>
<path d="M73.8138 269.612C74.4592 265.566 86.396 215.112 89.6023 199.233C92.8086 183.354 87.208 179.378 73.911 195.375C60.6139 211.371 33.7353 262.332 29.5713 288.01C25.553 312.702 37.7327 310.988 52.272 297.816C64.1741 287.01 73.8138 269.612 73.8138 269.612Z" fill="#A178F7"/>
<path d="M73.8137 269.612C77.2698 250.028 81.6652 230.642 86.9997 211.455C83.5529 231.035 79.1575 250.421 73.8137 269.612Z" fill="#263238"/>
<path d="M87.6453 214.32C87.4779 216.965 86.4603 219.484 84.7444 221.503C85.5633 219.067 86.6043 216.68 87.6453 214.32Z" fill="#263238"/>
<path d="M31.4104 304.729C38.9819 312.862 56.3944 312.161 100.359 314.528C106.446 314.854 120.305 272.527 113.823 271.847C105.661 270.986 73.7999 269.418 71.4889 269.591C51.6821 271.104 26.2748 299.218 31.4104 304.729Z" fill="#AD6359"/>
<path d="M106.133 273.359C106.133 273.359 122.317 268.133 131.673 268.015C144.199 267.862 155.074 272.873 159.502 275.267C168.753 280.236 187.678 298.648 183.327 305.026C179.392 310.793 160.994 291 160.994 291C160.994 291 183.084 308.087 177.06 314.166C171.036 320.246 150.994 296.053 150.994 296.053C150.994 296.053 173.292 314.097 166.095 319.406C160.654 323.396 141.257 302.507 141.257 302.507C141.257 302.507 160.314 318.171 154.901 322.515C148.912 327.324 129.806 309.162 129.806 309.162C114.17 317.9 103.149 315.658 95.5013 313.139C93.6483 312.528 106.133 273.359 106.133 273.359Z" fill="#AD6359"/>
<path d="M153.735 284.602C156.4 286.518 159.113 288.433 161.605 290.578C164.096 292.722 166.504 294.957 168.781 297.323C174.367 303.125 176.956 307.629 176.769 307.372C172.265 301.196 163.479 293.381 160.987 291.237C158.496 289.092 156.129 286.837 153.652 284.692C153.589 284.637 153.672 284.54 153.735 284.602Z" fill="#263238"/>
<path d="M145.83 293.444C149.127 296.032 152.5 298.482 155.685 301.223C158.871 303.965 161.626 306.775 164.603 309.746C164.832 309.968 164.603 310.016 164.395 309.801C161.306 306.984 158.232 304.624 155.109 301.848C151.986 299.072 148.974 296.171 145.761 293.52C145.74 293.478 145.782 293.402 145.83 293.444Z" fill="#263238"/>
<path d="M137.683 299.807C142.929 303.506 147.482 308.169 151.84 312.854C152.062 313.083 151.798 313.118 151.563 312.895C146.94 308.468 143.339 304.963 137.551 299.987C137.46 299.918 137.571 299.737 137.683 299.807Z" fill="#263238"/>
<path d="M108.77 270.562L77.1518 317.594C77.1518 317.594 38.0102 314.228 31.0563 305.289C26.4759 299.404 51.3767 269.458 73.3487 269.451L108.77 270.562Z" fill="#A178F7"/>
<path d="M48.58 279.862C51.696 276.85 60.6556 269.604 73.3558 269.41C73.4668 269.41 73.4946 269.591 73.3558 269.604C63.9104 270.659 51.9042 277.363 48.6563 280.014C48.6147 280.07 48.5175 279.938 48.58 279.862Z" fill="#263238"/>
<path d="M65.93 312.049C69.1294 306.691 72.6132 301.507 76.111 296.337C79.6088 291.167 83.0996 285.975 86.7292 280.888C88.8112 278.015 90.8099 275.128 92.9752 272.324C93.0307 272.248 93.1695 272.324 93.1209 272.408C89.9285 277.758 86.4585 282.963 83.0024 288.148C79.5463 293.332 76.0138 298.509 72.4467 303.645C70.4341 306.539 68.359 309.405 66.2007 312.209C66.0827 312.347 65.819 312.202 65.93 312.049Z" fill="#263238"/>
<path d="M108.764 270.014C106.363 269.647 103.94 269.443 101.511 269.403C99.0823 269.292 96.6533 269.223 94.2243 269.174C89.3663 269.084 79.1575 268.334 70.427 269.584C70.3298 269.584 70.892 270 70.9891 269.979C75.1115 269.167 105.731 270.902 108.201 270.736C108.122 270.908 108.057 271.087 108.007 271.27C108.007 271.395 108.118 271.534 108.236 271.43C108.514 271.18 108.694 270.895 108.93 270.625C108.979 270.581 109.015 270.524 109.033 270.461C109.052 270.398 109.053 270.331 109.035 270.268C109.018 270.204 108.984 270.147 108.936 270.102C108.888 270.057 108.828 270.027 108.764 270.014Z" fill="#263238"/>
<path d="M40.946 310.912C44.8186 311.717 50.2456 313.293 54.132 314.306C49.5623 314.014 45.0887 312.863 40.946 310.912Z" fill="#263238"/>
<path d="M111.588 199.463C105.828 200.157 94.8627 192.245 91.7536 183.778C91.5385 183.195 93.211 177.664 94.9252 170.842C95.9454 166.678 97.0072 162.063 97.6318 157.767C97.7636 156.886 123.615 168.357 123.615 168.357C123.615 168.357 119.611 176.977 118.535 184.479C118.453 185.072 118.425 185.672 118.452 186.27C118.452 186.353 118.452 186.45 118.452 186.568C118.493 189.996 117.751 198.706 111.588 199.463Z" fill="#AD6359"/>
<path d="M118.459 186.27C118.459 186.353 118.459 186.464 118.459 186.568C117.528 186.547 116.6 186.456 115.683 186.298C99.8666 183.563 98.659 163.076 98.6035 157.92C103.295 159.308 123.636 168.33 123.636 168.33C123.636 168.33 119.632 176.956 118.549 184.458C118.466 185.058 118.436 185.665 118.459 186.27Z" fill="#263238"/>
<path d="M97.6457 123.531C93.5858 132.789 95.3971 161.125 101.497 168.107C110.339 178.239 126.447 181.001 135.462 170.001C144.206 159.335 141.194 122.448 134.233 115.932C123.969 106.348 103.642 109.873 97.6457 123.531Z" fill="#AD6359"/>
<path d="M122.574 144.671C122.574 144.601 122.429 144.768 122.436 144.851C122.56 146.76 122.387 148.967 120.68 149.661C120.624 149.661 120.638 149.779 120.68 149.765C122.796 149.397 123.005 146.434 122.574 144.671Z" fill="#263238"/>
<path d="M120.798 142.742C117.716 142.617 117.695 148.787 120.548 148.905C123.4 149.023 123.379 142.846 120.798 142.742Z" fill="#263238"/>
<path d="M133.644 145.045C133.644 144.969 133.789 145.135 133.789 145.212C133.72 147.12 133.963 149.327 135.691 149.965C135.746 149.965 135.74 150.083 135.691 150.07C133.567 149.75 133.248 146.829 133.644 145.045Z" fill="#263238"/>
<path d="M135.33 143.039C138.404 142.817 138.626 148.987 135.774 149.188C132.922 149.389 132.776 143.219 135.33 143.039Z" fill="#263238"/>
<path d="M118.376 139.902C119.184 139.671 119.978 139.395 120.756 139.076C121.665 138.743 122.428 138.577 123.032 137.758C123.177 137.508 123.236 137.218 123.2 136.932C123.163 136.646 123.034 136.38 122.831 136.175C121.908 135.356 120.687 135.481 119.569 135.828C118.419 136.137 117.428 136.868 116.793 137.876C116.656 138.115 116.593 138.39 116.612 138.665C116.632 138.94 116.733 139.203 116.903 139.421C117.073 139.638 117.304 139.8 117.566 139.886C117.828 139.972 118.11 139.977 118.376 139.902Z" fill="#263238"/>
<path d="M137.759 139.938C136.931 139.769 136.113 139.554 135.309 139.292C134.365 139.036 133.595 138.924 132.929 138.161C132.765 137.923 132.684 137.637 132.699 137.349C132.714 137.06 132.824 136.785 133.012 136.565C133.872 135.677 135.094 135.704 136.239 135.968C137.397 136.199 138.429 136.852 139.133 137.8C139.282 138.025 139.362 138.288 139.364 138.557C139.366 138.827 139.289 139.091 139.143 139.317C138.998 139.544 138.789 139.723 138.543 139.833C138.298 139.944 138.025 139.98 137.759 139.938Z" fill="#263238"/>
<path d="M120.756 162.396C121.214 162.847 121.672 163.465 122.366 163.521C123.086 163.517 123.797 163.356 124.448 163.049C124.51 163.049 124.573 163.09 124.531 163.146C124.257 163.521 123.886 163.815 123.459 163.997C123.031 164.179 122.563 164.242 122.102 164.18C121.715 164.072 121.367 163.853 121.101 163.552C120.835 163.25 120.662 162.878 120.603 162.48C120.527 162.396 120.673 162.348 120.756 162.396Z" fill="#263238"/>
<path d="M122.769 156.698C123.252 157.456 123.887 158.106 124.633 158.607C125.38 159.109 126.221 159.451 127.106 159.612C127.876 159.761 128.664 159.798 129.445 159.723C129.597 159.725 129.748 159.709 129.896 159.675C130.036 159.663 130.175 159.642 130.312 159.612C130.414 159.593 130.507 159.542 130.577 159.466C130.647 159.389 130.691 159.292 130.701 159.189C130.704 159.124 130.704 159.059 130.701 158.995V158.807C130.743 157.336 130.611 155.101 130.611 155.101C131.145 155.372 133.886 156.614 133.845 155.844C133.491 149.473 133.095 142.394 131.395 136.127C131.389 136.081 131.364 136.04 131.327 136.012C131.29 135.984 131.243 135.972 131.197 135.978C131.151 135.985 131.11 136.009 131.082 136.046C131.054 136.083 131.042 136.13 131.048 136.176C131.145 142.311 132.325 148.39 132.519 154.546C131.545 154.092 130.513 153.775 129.452 153.602C129.244 153.665 129.785 157.926 129.716 158.585C129.719 158.608 129.719 158.632 129.716 158.655C127.238 158.967 125.378 158.211 122.984 156.538C122.838 156.413 122.658 156.545 122.769 156.698Z" fill="#263238"/>
<path d="M128.584 158.973C127.772 160.022 126.704 160.844 125.482 161.361C124.807 161.622 124.067 161.666 123.365 161.486C121.839 161.076 121.811 159.674 122.095 158.481C122.254 157.845 122.487 157.23 122.789 156.648C124.424 158.022 126.454 158.836 128.584 158.973Z" fill="#263238"/>
<path d="M125.482 161.361C124.807 161.622 124.067 161.666 123.365 161.485C121.839 161.076 121.811 159.674 122.095 158.48C123.733 158.654 125.343 159.771 125.482 161.361Z" fill="#FF9BBC"/>
<path d="M140.049 126.619C139.216 124.225 138.106 123.739 138.106 123.739C138.106 123.739 138.106 120.928 135.594 117.326C132.943 113.558 130.042 113.065 130.042 113.065C130.042 113.065 127.64 110.345 122.144 109.311C120.881 109.075 117.057 109.012 115.898 109.491C114.51 110.039 113.122 109.317 111.671 109.29C110.352 109.265 109.042 109.518 107.827 110.032C106.798 110.459 105.846 111.053 105.009 111.788C104.516 112.24 104.053 112.722 103.621 113.232C102.983 113.955 102.129 114.454 101.185 114.654C100.092 114.994 99.0826 115.562 98.2249 116.32C97.3671 117.079 96.68 118.011 96.2091 119.054C95.6043 120.361 95.2781 121.779 95.2514 123.218C95.182 125.016 93.3013 125.856 92.5934 127.382C92.0575 128.597 91.8915 129.942 92.1161 131.251C92.3408 132.559 92.9461 133.772 93.8565 134.739C91.5108 136.418 90.6363 140.173 91.8925 143.136C92.8641 145.426 94.8975 146.446 96.9517 147.009C97.3304 147.112 97.7189 147.174 98.1107 147.196C102.316 147.89 106.439 143.268 104.947 138.271V138.23C107.254 137.509 109.273 136.075 110.714 134.135C112.31 132.053 112.83 129.277 112.851 126.501C118.133 129.832 125.454 126.55 126.391 119.769C127.897 121.421 132.214 124.211 134.206 123.586C135.066 129.679 139.064 131.914 140.119 131.914C140.257 131.956 140.993 129.353 140.049 126.619ZM102.316 145.426C103.538 144.156 104.461 142.359 104.898 138.549C105.17 139.822 105.071 141.146 104.613 142.365C104.156 143.584 103.359 144.646 102.316 145.426ZM118.972 126.841C120.588 126.337 122.058 125.45 123.257 124.256C124.457 123.063 125.351 121.597 125.864 119.984C124.92 124.134 122.227 126.307 118.993 126.841H118.972Z" fill="#263238"/>
<path d="M120.062 153.498C118.626 153.326 117.268 152.753 116.141 151.846C115.015 150.939 114.165 149.734 113.69 148.368C113.215 147.002 113.133 145.53 113.453 144.119C113.774 142.709 114.483 141.417 115.502 140.39C116.52 139.363 117.807 138.643 119.215 138.311C120.622 137.98 122.095 138.05 123.465 138.514C124.835 138.978 126.046 139.818 126.963 140.937C127.879 142.056 128.462 143.41 128.647 144.844C128.797 146.01 128.679 147.195 128.301 148.309C127.924 149.422 127.297 150.435 126.469 151.27C125.642 152.104 124.634 152.739 123.524 153.125C122.413 153.511 121.229 153.639 120.062 153.498ZM121.804 139.195C121.251 139.122 120.691 139.122 120.138 139.195C118.451 139.407 116.908 140.254 115.824 141.563C114.739 142.873 114.195 144.547 114.301 146.243C114.407 147.94 115.156 149.533 116.395 150.697C117.635 151.861 119.271 152.509 120.971 152.509C122.671 152.509 124.308 151.861 125.547 150.697C126.786 149.533 127.535 147.94 127.641 146.243C127.747 144.547 127.203 142.873 126.118 141.563C125.034 140.254 123.491 139.407 121.804 139.195Z" fill="#A178F7"/>
<path d="M137.759 153.484C134.823 153.123 132.533 149.799 132.547 145.767C132.522 143.841 133.099 141.956 134.199 140.375C134.628 139.666 135.232 139.081 135.954 138.675C136.675 138.268 137.489 138.055 138.318 138.055C139.146 138.055 139.96 138.268 140.681 138.675C141.403 139.081 142.007 139.666 142.436 140.375C143.525 141.964 144.085 143.855 144.04 145.781C144.04 150.035 141.43 153.491 138.265 153.477C138.106 153.512 137.925 153.498 137.759 153.484ZM138.717 139.125C138.585 139.119 138.453 139.119 138.321 139.125C137.662 139.152 137.019 139.337 136.447 139.665C135.874 139.992 135.389 140.452 135.031 141.006C134.06 142.412 133.553 144.086 133.581 145.795C133.581 149.48 135.663 152.492 138.265 152.499C140.868 152.506 142.992 149.522 143.012 145.836C143.062 144.13 142.577 142.451 141.624 141.034C141.302 140.529 140.876 140.098 140.374 139.769C139.873 139.44 139.308 139.221 138.717 139.125Z" fill="#A178F7"/>
<path d="M128.39 145.74L127.696 144.949C128.876 143.97 131.589 142.658 133.463 144.685L132.707 145.379C131.034 143.568 128.473 145.65 128.39 145.74Z" fill="#A178F7"/>
<path d="M93.9536 147.578L93.0444 147.099C93.2665 146.676 95.286 142.935 97.5901 142.56C99.7485 142.227 113.552 143.581 114.17 143.636L114.066 144.663C110.103 144.275 99.4223 143.317 97.7567 143.581C96.2299 143.817 94.4949 146.551 93.9536 147.578Z" fill="#A178F7"/>
<path d="M101.969 147.293C101.969 147.293 96.5561 137.688 92.2533 139.535C87.9505 141.381 91.4135 154.865 96.0286 157.114C96.6004 157.443 97.2328 157.653 97.8879 157.732C98.543 157.81 99.2073 157.755 99.8407 157.571C100.474 157.386 101.064 157.075 101.574 156.656C102.084 156.238 102.504 155.721 102.809 155.136L101.969 147.293Z" fill="#AD6359"/>
<path d="M93.3499 143.379C93.3353 143.379 93.3212 143.383 93.3093 143.392C93.2975 143.401 93.2887 143.413 93.2841 143.426C93.2795 143.44 93.2793 143.455 93.2837 143.469C93.288 143.483 93.2966 143.495 93.3083 143.504C96.5354 145.19 97.9997 148.473 98.9227 151.832C98.0483 150.492 96.7505 149.673 94.9739 150.701C94.8767 150.756 94.9739 150.902 95.0433 150.888C95.6546 150.761 96.2902 150.826 96.863 151.075C97.4358 151.323 97.9177 151.743 98.2426 152.276C98.7834 153.167 99.2255 154.114 99.5612 155.101C99.6861 155.413 100.255 155.309 100.165 154.948V154.872C100.63 150.597 97.9026 144.253 93.3499 143.379Z" fill="#263238"/>
</svg>
