<svg width="776" height="201" viewBox="0 0 776 201" fill="none" xmlns="http://www.w3.org/2000/svg">
<rect x="19" y="28" width="217" height="126" rx="5" fill="#DEDAFF"/>
<circle cx="29.4384" cy="29.4384" r="29.4384" fill="#8778F7" fill-opacity="0.44"/>
<path d="M112.576 100.192C111.392 100.192 110.24 100.008 109.12 99.64C108.016 99.272 107.112 98.776 106.408 98.152L107.512 96.256C108.072 96.784 108.8 97.216 109.696 97.552C110.592 97.888 111.544 98.056 112.552 98.056C113.832 98.056 114.816 97.784 115.504 97.24C116.192 96.696 116.536 95.968 116.536 95.056C116.536 94.432 116.384 93.888 116.08 93.424C115.776 92.96 115.248 92.608 114.496 92.368C113.76 92.112 112.744 91.984 111.448 91.984H107.632L108.52 83.2H118V85.288H109.408L110.656 84.112L109.96 91.048L108.712 89.896H111.952C113.632 89.896 114.984 90.112 116.008 90.544C117.032 90.976 117.776 91.576 118.24 92.344C118.704 93.096 118.936 93.968 118.936 94.96C118.936 95.92 118.704 96.8 118.24 97.6C117.776 98.384 117.072 99.016 116.128 99.496C115.2 99.96 114.016 100.192 112.576 100.192ZM135.155 100.144C134.099 100.144 133.131 99.904 132.251 99.424C131.387 98.928 130.691 98.2 130.163 97.24C129.651 96.28 129.395 95.08 129.395 93.64C129.395 92.2 129.643 91 130.139 90.04C130.651 89.08 131.339 88.36 132.203 87.88C133.083 87.4 134.067 87.16 135.155 87.16C136.403 87.16 137.507 87.432 138.467 87.976C139.427 88.52 140.187 89.28 140.747 90.256C141.307 91.216 141.587 92.344 141.587 93.64C141.587 94.936 141.307 96.072 140.747 97.048C140.187 98.024 139.427 98.784 138.467 99.328C137.507 99.872 136.403 100.144 135.155 100.144ZM128.411 104.656V87.28H130.619V90.712L130.475 93.664L130.715 96.616V104.656H128.411ZM134.963 98.128C135.779 98.128 136.507 97.944 137.147 97.576C137.803 97.208 138.315 96.688 138.683 96.016C139.067 95.328 139.259 94.536 139.259 93.64C139.259 92.728 139.067 91.944 138.683 91.288C138.315 90.616 137.803 90.096 137.147 89.728C136.507 89.36 135.779 89.176 134.963 89.176C134.163 89.176 133.435 89.36 132.779 89.728C132.139 90.096 131.627 90.616 131.243 91.288C130.875 91.944 130.691 92.728 130.691 93.64C130.691 94.536 130.875 95.328 131.243 96.016C131.627 96.688 132.139 97.208 132.779 97.576C133.435 97.944 134.163 98.128 134.963 98.128ZM142.5 100L147.972 92.896L147.948 94.072L142.74 87.28H145.308L149.292 92.512H148.308L152.292 87.28H154.812L149.532 94.12L149.556 92.896L155.076 100H152.46L148.26 94.432L149.196 94.576L145.068 100H142.5Z" fill="#8778F7"/>
<rect x="289" y="28" width="217" height="126" rx="5" fill="#DEDAFF"/>
<circle cx="299.438" cy="29.4384" r="29.4384" fill="#8778F7" fill-opacity="0.44"/>
<path d="M380.056 100L387.184 84.208L387.808 85.288H377.824L379.024 84.112V88.288H376.72V83.2H389.392V84.832L382.6 100H380.056ZM405.717 100.144C404.661 100.144 403.693 99.904 402.813 99.424C401.949 98.928 401.253 98.2 400.725 97.24C400.213 96.28 399.957 95.08 399.957 93.64C399.957 92.2 400.205 91 400.701 90.04C401.213 89.08 401.901 88.36 402.765 87.88C403.645 87.4 404.629 87.16 405.717 87.16C406.965 87.16 408.069 87.432 409.029 87.976C409.989 88.52 410.749 89.28 411.309 90.256C411.869 91.216 412.149 92.344 412.149 93.64C412.149 94.936 411.869 96.072 411.309 97.048C410.749 98.024 409.989 98.784 409.029 99.328C408.069 99.872 406.965 100.144 405.717 100.144ZM398.973 104.656V87.28H401.181V90.712L401.037 93.664L401.277 96.616V104.656H398.973ZM405.525 98.128C406.341 98.128 407.069 97.944 407.709 97.576C408.365 97.208 408.877 96.688 409.245 96.016C409.629 95.328 409.821 94.536 409.821 93.64C409.821 92.728 409.629 91.944 409.245 91.288C408.877 90.616 408.365 90.096 407.709 89.728C407.069 89.36 406.341 89.176 405.525 89.176C404.725 89.176 403.997 89.36 403.341 89.728C402.701 90.096 402.189 90.616 401.805 91.288C401.437 91.944 401.253 92.728 401.253 93.64C401.253 94.536 401.437 95.328 401.805 96.016C402.189 96.688 402.701 97.208 403.341 97.576C403.997 97.944 404.725 98.128 405.525 98.128ZM413.063 100L418.535 92.896L418.511 94.072L413.303 87.28H415.871L419.855 92.512H418.871L422.855 87.28H425.375L420.095 94.12L420.119 92.896L425.639 100H423.023L418.823 94.432L419.759 94.576L415.631 100H413.063Z" fill="#8778F7"/>
<rect x="559" y="28" width="217" height="126" rx="5" fill="#DEDAFF"/>
<circle cx="569.438" cy="29.4384" r="29.4384" fill="#8778F7" fill-opacity="0.44"/>
<path d="M649.984 100V84.16L651.016 85.288H646.192V83.2H652.36V100H649.984ZM655.771 100V98.368L662.611 91.768C663.219 91.192 663.667 90.688 663.955 90.256C664.259 89.808 664.459 89.4 664.555 89.032C664.667 88.648 664.723 88.28 664.723 87.928C664.723 87.064 664.419 86.384 663.811 85.888C663.203 85.392 662.315 85.144 661.147 85.144C660.251 85.144 659.443 85.296 658.723 85.6C658.003 85.888 657.379 86.344 656.851 86.968L655.219 85.552C655.859 84.736 656.715 84.112 657.787 83.68C658.875 83.232 660.067 83.008 661.363 83.008C662.531 83.008 663.547 83.2 664.411 83.584C665.275 83.952 665.939 84.488 666.403 85.192C666.883 85.896 667.123 86.728 667.123 87.688C667.123 88.232 667.051 88.768 666.907 89.296C666.763 89.824 666.491 90.384 666.091 90.976C665.691 91.568 665.115 92.232 664.363 92.968L658.267 98.848L657.691 97.912H667.843V100H655.771ZM684.037 100.144C682.981 100.144 682.013 99.904 681.133 99.424C680.269 98.928 679.573 98.2 679.045 97.24C678.533 96.28 678.277 95.08 678.277 93.64C678.277 92.2 678.525 91 679.021 90.04C679.533 89.08 680.221 88.36 681.085 87.88C681.965 87.4 682.949 87.16 684.037 87.16C685.285 87.16 686.389 87.432 687.349 87.976C688.309 88.52 689.069 89.28 689.629 90.256C690.189 91.216 690.469 92.344 690.469 93.64C690.469 94.936 690.189 96.072 689.629 97.048C689.069 98.024 688.309 98.784 687.349 99.328C686.389 99.872 685.285 100.144 684.037 100.144ZM677.293 104.656V87.28H679.501V90.712L679.357 93.664L679.597 96.616V104.656H677.293ZM683.845 98.128C684.661 98.128 685.389 97.944 686.029 97.576C686.685 97.208 687.197 96.688 687.565 96.016C687.949 95.328 688.141 94.536 688.141 93.64C688.141 92.728 687.949 91.944 687.565 91.288C687.197 90.616 686.685 90.096 686.029 89.728C685.389 89.36 684.661 89.176 683.845 89.176C683.045 89.176 682.317 89.36 681.661 89.728C681.021 90.096 680.509 90.616 680.125 91.288C679.757 91.944 679.573 92.728 679.573 93.64C679.573 94.536 679.757 95.328 680.125 96.016C680.509 96.688 681.021 97.208 681.661 97.576C682.317 97.944 683.045 98.128 683.845 98.128ZM691.383 100L696.855 92.896L696.831 94.072L691.623 87.28H694.191L698.175 92.512H697.191L701.175 87.28H703.695L698.415 94.12L698.439 92.896L703.959 100H701.343L697.143 94.432L698.079 94.576L693.951 100H691.383Z" fill="#8778F7"/>
<path d="M30.25 195.125C29.1 195.125 28.0667 194.867 27.15 194.35C26.2333 193.817 25.5083 193.05 24.975 192.05C24.4417 191.05 24.175 189.842 24.175 188.425C24.175 186.992 24.4417 185.783 24.975 184.8C25.525 183.8 26.2583 183.042 27.175 182.525C28.0917 182.008 29.1167 181.75 30.25 181.75C31.5 181.75 32.6167 182.033 33.6 182.6C34.6 183.15 35.3833 183.925 35.95 184.925C36.5167 185.925 36.8 187.092 36.8 188.425C36.8 189.742 36.5167 190.908 35.95 191.925C35.3833 192.925 34.6 193.708 33.6 194.275C32.6167 194.842 31.5 195.125 30.25 195.125ZM23.475 195V176.45H25.25V185.75L25 188.4L25.175 191.05V195H23.475ZM30.125 193.55C31.0583 193.55 31.8917 193.342 32.625 192.925C33.3583 192.492 33.9417 191.892 34.375 191.125C34.8083 190.342 35.025 189.442 35.025 188.425C35.025 187.392 34.8083 186.492 34.375 185.725C33.9417 184.958 33.3583 184.367 32.625 183.95C31.8917 183.517 31.0583 183.3 30.125 183.3C29.1917 183.3 28.35 183.517 27.6 183.95C26.8667 184.367 26.2833 184.958 25.85 185.725C25.4333 186.492 25.225 187.392 25.225 188.425C25.225 189.442 25.4333 190.342 25.85 191.125C26.2833 191.892 26.8667 192.492 27.6 192.925C28.35 193.342 29.1917 193.55 30.125 193.55ZM48.5701 195V192.1L48.4951 191.625V186.775C48.4951 185.658 48.1785 184.8 47.5451 184.2C46.9285 183.6 46.0035 183.3 44.7701 183.3C43.9201 183.3 43.1118 183.442 42.3451 183.725C41.5785 184.008 40.9285 184.383 40.3951 184.85L39.5951 183.525C40.2618 182.958 41.0618 182.525 41.9951 182.225C42.9285 181.908 43.9118 181.75 44.9451 181.75C46.6451 181.75 47.9535 182.175 48.8701 183.025C49.8035 183.858 50.2701 185.133 50.2701 186.85V195H48.5701ZM44.0451 195.125C43.0618 195.125 42.2035 194.967 41.4701 194.65C40.7535 194.317 40.2035 193.867 39.8201 193.3C39.4368 192.717 39.2451 192.05 39.2451 191.3C39.2451 190.617 39.4035 190 39.7201 189.45C40.0535 188.883 40.5868 188.433 41.3201 188.1C42.0701 187.75 43.0701 187.575 44.3201 187.575H48.8451V188.9H44.3701C43.1035 188.9 42.2201 189.125 41.7201 189.575C41.2368 190.025 40.9951 190.583 40.9951 191.25C40.9951 192 41.2868 192.6 41.8701 193.05C42.4535 193.5 43.2701 193.725 44.3201 193.725C45.3201 193.725 46.1785 193.5 46.8951 193.05C47.6285 192.583 48.1618 191.917 48.4951 191.05L48.8951 192.275C48.5618 193.142 47.9785 193.833 47.1451 194.35C46.3285 194.867 45.2951 195.125 44.0451 195.125ZM60.5412 195.125C59.2412 195.125 58.0745 194.842 57.0412 194.275C56.0245 193.692 55.2245 192.9 54.6412 191.9C54.0579 190.883 53.7662 189.725 53.7662 188.425C53.7662 187.108 54.0579 185.95 54.6412 184.95C55.2245 183.95 56.0245 183.167 57.0412 182.6C58.0745 182.033 59.2412 181.75 60.5412 181.75C61.6579 181.75 62.6662 181.967 63.5662 182.4C64.4662 182.833 65.1745 183.483 65.6912 184.35L64.3662 185.25C63.9162 184.583 63.3579 184.092 62.6912 183.775C62.0245 183.458 61.2995 183.3 60.5162 183.3C59.5829 183.3 58.7412 183.517 57.9912 183.95C57.2412 184.367 56.6495 184.958 56.2162 185.725C55.7829 186.492 55.5662 187.392 55.5662 188.425C55.5662 189.458 55.7829 190.358 56.2162 191.125C56.6495 191.892 57.2412 192.492 57.9912 192.925C58.7412 193.342 59.5829 193.55 60.5162 193.55C61.2995 193.55 62.0245 193.392 62.6912 193.075C63.3579 192.758 63.9162 192.275 64.3662 191.625L65.6912 192.525C65.1745 193.375 64.4662 194.025 63.5662 194.475C62.6662 194.908 61.6579 195.125 60.5412 195.125ZM70.3828 191.6L70.4328 189.325L78.6078 181.875H80.7828L75.0078 187.4L74.0078 188.25L70.3828 191.6ZM68.9828 195V176.45H70.7578V195H68.9828ZM79.1578 195L73.6828 188.175L74.8328 186.8L81.3328 195H79.1578ZM89.0848 199.975C87.8848 199.975 86.7348 199.8 85.6348 199.45C84.5348 199.1 83.6431 198.6 82.9598 197.95L83.8598 196.6C84.4764 197.15 85.2348 197.583 86.1348 197.9C87.0514 198.233 88.0181 198.4 89.0348 198.4C90.7014 198.4 91.9264 198.008 92.7098 197.225C93.4931 196.458 93.8848 195.258 93.8848 193.625V190.35L94.1348 188.1L93.9598 185.85V181.875H95.6598V193.4C95.6598 195.667 95.1014 197.325 93.9848 198.375C92.8848 199.442 91.2514 199.975 89.0848 199.975ZM88.7598 194.5C87.5098 194.5 86.3848 194.233 85.3848 193.7C84.3848 193.15 83.5931 192.392 83.0098 191.425C82.4431 190.458 82.1598 189.35 82.1598 188.1C82.1598 186.85 82.4431 185.75 83.0098 184.8C83.5931 183.833 84.3848 183.083 85.3848 182.55C86.3848 182.017 87.5098 181.75 88.7598 181.75C89.9264 181.75 90.9764 181.992 91.9098 182.475C92.8431 182.958 93.5848 183.675 94.1348 184.625C94.6848 185.575 94.9598 186.733 94.9598 188.1C94.9598 189.467 94.6848 190.625 94.1348 191.575C93.5848 192.525 92.8431 193.25 91.9098 193.75C90.9764 194.25 89.9264 194.5 88.7598 194.5ZM88.9348 192.925C89.9014 192.925 90.7598 192.725 91.5098 192.325C92.2598 191.908 92.8514 191.342 93.2848 190.625C93.7181 189.892 93.9348 189.05 93.9348 188.1C93.9348 187.15 93.7181 186.317 93.2848 185.6C92.8514 184.883 92.2598 184.325 91.5098 183.925C90.7598 183.508 89.9014 183.3 88.9348 183.3C87.9848 183.3 87.1264 183.508 86.3598 183.925C85.6098 184.325 85.0181 184.883 84.5848 185.6C84.1681 186.317 83.9598 187.15 83.9598 188.1C83.9598 189.05 84.1681 189.892 84.5848 190.625C85.0181 191.342 85.6098 191.908 86.3598 192.325C87.1264 192.725 87.9848 192.925 88.9348 192.925ZM100.599 195V181.875H102.299V185.45L102.124 184.825C102.491 183.825 103.107 183.067 103.974 182.55C104.841 182.017 105.916 181.75 107.199 181.75V183.475C107.132 183.475 107.066 183.475 106.999 183.475C106.932 183.458 106.866 183.45 106.799 183.45C105.416 183.45 104.332 183.875 103.549 184.725C102.766 185.558 102.374 186.75 102.374 188.3V195H100.599ZM115.666 195.125C114.399 195.125 113.257 194.842 112.241 194.275C111.241 193.692 110.449 192.9 109.866 191.9C109.282 190.883 108.991 189.725 108.991 188.425C108.991 187.108 109.282 185.95 109.866 184.95C110.449 183.95 111.241 183.167 112.241 182.6C113.241 182.033 114.382 181.75 115.666 181.75C116.966 181.75 118.116 182.033 119.116 182.6C120.132 183.167 120.924 183.95 121.491 184.95C122.074 185.95 122.366 187.108 122.366 188.425C122.366 189.725 122.074 190.883 121.491 191.9C120.924 192.9 120.132 193.692 119.116 194.275C118.099 194.842 116.949 195.125 115.666 195.125ZM115.666 193.55C116.616 193.55 117.457 193.342 118.191 192.925C118.924 192.492 119.499 191.892 119.916 191.125C120.349 190.342 120.566 189.442 120.566 188.425C120.566 187.392 120.349 186.492 119.916 185.725C119.499 184.958 118.924 184.367 118.191 183.95C117.457 183.517 116.624 183.3 115.691 183.3C114.757 183.3 113.924 183.517 113.191 183.95C112.457 184.367 111.874 184.958 111.441 185.725C111.007 186.492 110.791 187.392 110.791 188.425C110.791 189.442 111.007 190.342 111.441 191.125C111.874 191.892 112.457 192.492 113.191 192.925C113.924 193.342 114.749 193.55 115.666 193.55ZM131.415 195.125C130.298 195.125 129.323 194.917 128.49 194.5C127.656 194.083 127.006 193.458 126.54 192.625C126.09 191.792 125.865 190.75 125.865 189.5V181.875H127.64V189.3C127.64 190.7 127.981 191.758 128.665 192.475C129.365 193.175 130.34 193.525 131.59 193.525C132.506 193.525 133.298 193.342 133.965 192.975C134.648 192.592 135.165 192.042 135.515 191.325C135.881 190.608 136.065 189.75 136.065 188.75V181.875H137.84V195H136.14V191.4L136.415 192.05C135.998 193.017 135.348 193.775 134.465 194.325C133.598 194.858 132.581 195.125 131.415 195.125ZM149.487 181.75C150.553 181.75 151.487 181.958 152.287 182.375C153.103 182.775 153.737 183.392 154.187 184.225C154.653 185.058 154.887 186.108 154.887 187.375V195H153.112V187.55C153.112 186.167 152.762 185.125 152.062 184.425C151.378 183.708 150.412 183.35 149.162 183.35C148.228 183.35 147.412 183.542 146.712 183.925C146.028 184.292 145.495 184.833 145.112 185.55C144.745 186.25 144.562 187.1 144.562 188.1V195H142.787V181.875H144.487V185.475L144.212 184.8C144.628 183.85 145.295 183.108 146.212 182.575C147.128 182.025 148.22 181.75 149.487 181.75ZM164.906 195.125C163.656 195.125 162.531 194.842 161.531 194.275C160.548 193.708 159.773 192.925 159.206 191.925C158.639 190.908 158.356 189.742 158.356 188.425C158.356 187.092 158.639 185.925 159.206 184.925C159.773 183.925 160.548 183.15 161.531 182.6C162.531 182.033 163.656 181.75 164.906 181.75C166.056 181.75 167.081 182.008 167.981 182.525C168.898 183.042 169.623 183.8 170.156 184.8C170.706 185.783 170.981 186.992 170.981 188.425C170.981 189.842 170.714 191.05 170.181 192.05C169.648 193.05 168.923 193.817 168.006 194.35C167.106 194.867 166.073 195.125 164.906 195.125ZM165.031 193.55C165.964 193.55 166.798 193.342 167.531 192.925C168.281 192.492 168.864 191.892 169.281 191.125C169.714 190.342 169.931 189.442 169.931 188.425C169.931 187.392 169.714 186.492 169.281 185.725C168.864 184.958 168.281 184.367 167.531 183.95C166.798 183.517 165.964 183.3 165.031 183.3C164.114 183.3 163.289 183.517 162.556 183.95C161.823 184.367 161.239 184.958 160.806 185.725C160.373 186.492 160.156 187.392 160.156 188.425C160.156 189.442 160.373 190.342 160.806 191.125C161.239 191.892 161.823 192.492 162.556 192.925C163.289 193.342 164.114 193.55 165.031 193.55ZM169.981 195V191.05L170.156 188.4L169.906 185.75V176.45H171.681V195H169.981ZM185.042 195V178.25L185.842 179.1H180.917V177.5H186.842V195H185.042Z" fill="#484A56"/>
<path d="M298.25 195.125C297.1 195.125 296.067 194.867 295.15 194.35C294.233 193.817 293.508 193.05 292.975 192.05C292.442 191.05 292.175 189.842 292.175 188.425C292.175 186.992 292.442 185.783 292.975 184.8C293.525 183.8 294.258 183.042 295.175 182.525C296.092 182.008 297.117 181.75 298.25 181.75C299.5 181.75 300.617 182.033 301.6 182.6C302.6 183.15 303.383 183.925 303.95 184.925C304.517 185.925 304.8 187.092 304.8 188.425C304.8 189.742 304.517 190.908 303.95 191.925C303.383 192.925 302.6 193.708 301.6 194.275C300.617 194.842 299.5 195.125 298.25 195.125ZM291.475 195V176.45H293.25V185.75L293 188.4L293.175 191.05V195H291.475ZM298.125 193.55C299.058 193.55 299.892 193.342 300.625 192.925C301.358 192.492 301.942 191.892 302.375 191.125C302.808 190.342 303.025 189.442 303.025 188.425C303.025 187.392 302.808 186.492 302.375 185.725C301.942 184.958 301.358 184.367 300.625 183.95C299.892 183.517 299.058 183.3 298.125 183.3C297.192 183.3 296.35 183.517 295.6 183.95C294.867 184.367 294.283 184.958 293.85 185.725C293.433 186.492 293.225 187.392 293.225 188.425C293.225 189.442 293.433 190.342 293.85 191.125C294.283 191.892 294.867 192.492 295.6 192.925C296.35 193.342 297.192 193.55 298.125 193.55ZM316.57 195V192.1L316.495 191.625V186.775C316.495 185.658 316.178 184.8 315.545 184.2C314.928 183.6 314.003 183.3 312.77 183.3C311.92 183.3 311.112 183.442 310.345 183.725C309.578 184.008 308.928 184.383 308.395 184.85L307.595 183.525C308.262 182.958 309.062 182.525 309.995 182.225C310.928 181.908 311.912 181.75 312.945 181.75C314.645 181.75 315.953 182.175 316.87 183.025C317.803 183.858 318.27 185.133 318.27 186.85V195H316.57ZM312.045 195.125C311.062 195.125 310.203 194.967 309.47 194.65C308.753 194.317 308.203 193.867 307.82 193.3C307.437 192.717 307.245 192.05 307.245 191.3C307.245 190.617 307.403 190 307.72 189.45C308.053 188.883 308.587 188.433 309.32 188.1C310.07 187.75 311.07 187.575 312.32 187.575H316.845V188.9H312.37C311.103 188.9 310.22 189.125 309.72 189.575C309.237 190.025 308.995 190.583 308.995 191.25C308.995 192 309.287 192.6 309.87 193.05C310.453 193.5 311.27 193.725 312.32 193.725C313.32 193.725 314.178 193.5 314.895 193.05C315.628 192.583 316.162 191.917 316.495 191.05L316.895 192.275C316.562 193.142 315.978 193.833 315.145 194.35C314.328 194.867 313.295 195.125 312.045 195.125ZM328.541 195.125C327.241 195.125 326.075 194.842 325.041 194.275C324.025 193.692 323.225 192.9 322.641 191.9C322.058 190.883 321.766 189.725 321.766 188.425C321.766 187.108 322.058 185.95 322.641 184.95C323.225 183.95 324.025 183.167 325.041 182.6C326.075 182.033 327.241 181.75 328.541 181.75C329.658 181.75 330.666 181.967 331.566 182.4C332.466 182.833 333.175 183.483 333.691 184.35L332.366 185.25C331.916 184.583 331.358 184.092 330.691 183.775C330.025 183.458 329.3 183.3 328.516 183.3C327.583 183.3 326.741 183.517 325.991 183.95C325.241 184.367 324.65 184.958 324.216 185.725C323.783 186.492 323.566 187.392 323.566 188.425C323.566 189.458 323.783 190.358 324.216 191.125C324.65 191.892 325.241 192.492 325.991 192.925C326.741 193.342 327.583 193.55 328.516 193.55C329.3 193.55 330.025 193.392 330.691 193.075C331.358 192.758 331.916 192.275 332.366 191.625L333.691 192.525C333.175 193.375 332.466 194.025 331.566 194.475C330.666 194.908 329.658 195.125 328.541 195.125ZM338.383 191.6L338.433 189.325L346.608 181.875H348.783L343.008 187.4L342.008 188.25L338.383 191.6ZM336.983 195V176.45H338.758V195H336.983ZM347.158 195L341.683 188.175L342.833 186.8L349.333 195H347.158ZM357.085 199.975C355.885 199.975 354.735 199.8 353.635 199.45C352.535 199.1 351.643 198.6 350.96 197.95L351.86 196.6C352.476 197.15 353.235 197.583 354.135 197.9C355.051 198.233 356.018 198.4 357.035 198.4C358.701 198.4 359.926 198.008 360.71 197.225C361.493 196.458 361.885 195.258 361.885 193.625V190.35L362.135 188.1L361.96 185.85V181.875H363.66V193.4C363.66 195.667 363.101 197.325 361.985 198.375C360.885 199.442 359.251 199.975 357.085 199.975ZM356.76 194.5C355.51 194.5 354.385 194.233 353.385 193.7C352.385 193.15 351.593 192.392 351.01 191.425C350.443 190.458 350.16 189.35 350.16 188.1C350.16 186.85 350.443 185.75 351.01 184.8C351.593 183.833 352.385 183.083 353.385 182.55C354.385 182.017 355.51 181.75 356.76 181.75C357.926 181.75 358.976 181.992 359.91 182.475C360.843 182.958 361.585 183.675 362.135 184.625C362.685 185.575 362.96 186.733 362.96 188.1C362.96 189.467 362.685 190.625 362.135 191.575C361.585 192.525 360.843 193.25 359.91 193.75C358.976 194.25 357.926 194.5 356.76 194.5ZM356.935 192.925C357.901 192.925 358.76 192.725 359.51 192.325C360.26 191.908 360.851 191.342 361.285 190.625C361.718 189.892 361.935 189.05 361.935 188.1C361.935 187.15 361.718 186.317 361.285 185.6C360.851 184.883 360.26 184.325 359.51 183.925C358.76 183.508 357.901 183.3 356.935 183.3C355.985 183.3 355.126 183.508 354.36 183.925C353.61 184.325 353.018 184.883 352.585 185.6C352.168 186.317 351.96 187.15 351.96 188.1C351.96 189.05 352.168 189.892 352.585 190.625C353.018 191.342 353.61 191.908 354.36 192.325C355.126 192.725 355.985 192.925 356.935 192.925ZM368.599 195V181.875H370.299V185.45L370.124 184.825C370.491 183.825 371.107 183.067 371.974 182.55C372.841 182.017 373.916 181.75 375.199 181.75V183.475C375.132 183.475 375.066 183.475 374.999 183.475C374.932 183.458 374.866 183.45 374.799 183.45C373.416 183.45 372.332 183.875 371.549 184.725C370.766 185.558 370.374 186.75 370.374 188.3V195H368.599ZM383.666 195.125C382.399 195.125 381.257 194.842 380.241 194.275C379.241 193.692 378.449 192.9 377.866 191.9C377.282 190.883 376.991 189.725 376.991 188.425C376.991 187.108 377.282 185.95 377.866 184.95C378.449 183.95 379.241 183.167 380.241 182.6C381.241 182.033 382.382 181.75 383.666 181.75C384.966 181.75 386.116 182.033 387.116 182.6C388.132 183.167 388.924 183.95 389.491 184.95C390.074 185.95 390.366 187.108 390.366 188.425C390.366 189.725 390.074 190.883 389.491 191.9C388.924 192.9 388.132 193.692 387.116 194.275C386.099 194.842 384.949 195.125 383.666 195.125ZM383.666 193.55C384.616 193.55 385.457 193.342 386.191 192.925C386.924 192.492 387.499 191.892 387.916 191.125C388.349 190.342 388.566 189.442 388.566 188.425C388.566 187.392 388.349 186.492 387.916 185.725C387.499 184.958 386.924 184.367 386.191 183.95C385.457 183.517 384.624 183.3 383.691 183.3C382.757 183.3 381.924 183.517 381.191 183.95C380.457 184.367 379.874 184.958 379.441 185.725C379.007 186.492 378.791 187.392 378.791 188.425C378.791 189.442 379.007 190.342 379.441 191.125C379.874 191.892 380.457 192.492 381.191 192.925C381.924 193.342 382.749 193.55 383.666 193.55ZM399.415 195.125C398.298 195.125 397.323 194.917 396.49 194.5C395.656 194.083 395.006 193.458 394.54 192.625C394.09 191.792 393.865 190.75 393.865 189.5V181.875H395.64V189.3C395.64 190.7 395.981 191.758 396.665 192.475C397.365 193.175 398.34 193.525 399.59 193.525C400.506 193.525 401.298 193.342 401.965 192.975C402.648 192.592 403.165 192.042 403.515 191.325C403.881 190.608 404.065 189.75 404.065 188.75V181.875H405.84V195H404.14V191.4L404.415 192.05C403.998 193.017 403.348 193.775 402.465 194.325C401.598 194.858 400.581 195.125 399.415 195.125ZM417.487 181.75C418.553 181.75 419.487 181.958 420.287 182.375C421.103 182.775 421.737 183.392 422.187 184.225C422.653 185.058 422.887 186.108 422.887 187.375V195H421.112V187.55C421.112 186.167 420.762 185.125 420.062 184.425C419.378 183.708 418.412 183.35 417.162 183.35C416.228 183.35 415.412 183.542 414.712 183.925C414.028 184.292 413.495 184.833 413.112 185.55C412.745 186.25 412.562 187.1 412.562 188.1V195H410.787V181.875H412.487V185.475L412.212 184.8C412.628 183.85 413.295 183.108 414.212 182.575C415.128 182.025 416.22 181.75 417.487 181.75ZM432.906 195.125C431.656 195.125 430.531 194.842 429.531 194.275C428.548 193.708 427.773 192.925 427.206 191.925C426.639 190.908 426.356 189.742 426.356 188.425C426.356 187.092 426.639 185.925 427.206 184.925C427.773 183.925 428.548 183.15 429.531 182.6C430.531 182.033 431.656 181.75 432.906 181.75C434.056 181.75 435.081 182.008 435.981 182.525C436.898 183.042 437.623 183.8 438.156 184.8C438.706 185.783 438.981 186.992 438.981 188.425C438.981 189.842 438.714 191.05 438.181 192.05C437.648 193.05 436.923 193.817 436.006 194.35C435.106 194.867 434.073 195.125 432.906 195.125ZM433.031 193.55C433.964 193.55 434.798 193.342 435.531 192.925C436.281 192.492 436.864 191.892 437.281 191.125C437.714 190.342 437.931 189.442 437.931 188.425C437.931 187.392 437.714 186.492 437.281 185.725C436.864 184.958 436.281 184.367 435.531 183.95C434.798 183.517 433.964 183.3 433.031 183.3C432.114 183.3 431.289 183.517 430.556 183.95C429.823 184.367 429.239 184.958 428.806 185.725C428.373 186.492 428.156 187.392 428.156 188.425C428.156 189.442 428.373 190.342 428.806 191.125C429.239 191.892 429.823 192.492 430.556 192.925C431.289 193.342 432.114 193.55 433.031 193.55ZM437.981 195V191.05L438.156 188.4L437.906 185.75V176.45H439.681V195H437.981ZM449.667 195V193.725L456.942 186.6C457.609 185.95 458.109 185.383 458.442 184.9C458.776 184.4 459.001 183.933 459.117 183.5C459.234 183.067 459.292 182.658 459.292 182.275C459.292 181.258 458.942 180.458 458.242 179.875C457.559 179.292 456.542 179 455.192 179C454.159 179 453.242 179.158 452.442 179.475C451.659 179.792 450.984 180.283 450.417 180.95L449.142 179.85C449.826 179.05 450.701 178.433 451.767 178C452.834 177.567 454.026 177.35 455.342 177.35C456.526 177.35 457.551 177.542 458.417 177.925C459.284 178.292 459.951 178.833 460.417 179.55C460.901 180.267 461.142 181.108 461.142 182.075C461.142 182.642 461.059 183.2 460.892 183.75C460.742 184.3 460.459 184.883 460.042 185.5C459.642 186.1 459.051 186.783 458.267 187.55L451.592 194.1L451.092 193.4H461.942V195H449.667Z" fill="#484A56"/>
<path d="M568.25 195.125C567.1 195.125 566.067 194.867 565.15 194.35C564.233 193.817 563.508 193.05 562.975 192.05C562.442 191.05 562.175 189.842 562.175 188.425C562.175 186.992 562.442 185.783 562.975 184.8C563.525 183.8 564.258 183.042 565.175 182.525C566.092 182.008 567.117 181.75 568.25 181.75C569.5 181.75 570.617 182.033 571.6 182.6C572.6 183.15 573.383 183.925 573.95 184.925C574.517 185.925 574.8 187.092 574.8 188.425C574.8 189.742 574.517 190.908 573.95 191.925C573.383 192.925 572.6 193.708 571.6 194.275C570.617 194.842 569.5 195.125 568.25 195.125ZM561.475 195V176.45H563.25V185.75L563 188.4L563.175 191.05V195H561.475ZM568.125 193.55C569.058 193.55 569.892 193.342 570.625 192.925C571.358 192.492 571.942 191.892 572.375 191.125C572.808 190.342 573.025 189.442 573.025 188.425C573.025 187.392 572.808 186.492 572.375 185.725C571.942 184.958 571.358 184.367 570.625 183.95C569.892 183.517 569.058 183.3 568.125 183.3C567.192 183.3 566.35 183.517 565.6 183.95C564.867 184.367 564.283 184.958 563.85 185.725C563.433 186.492 563.225 187.392 563.225 188.425C563.225 189.442 563.433 190.342 563.85 191.125C564.283 191.892 564.867 192.492 565.6 192.925C566.35 193.342 567.192 193.55 568.125 193.55ZM583.843 195.125C582.727 195.125 581.752 194.917 580.918 194.5C580.085 194.083 579.435 193.458 578.968 192.625C578.518 191.792 578.293 190.75 578.293 189.5V181.875H580.068V189.3C580.068 190.7 580.41 191.758 581.093 192.475C581.793 193.175 582.768 193.525 584.018 193.525C584.935 193.525 585.727 193.342 586.393 192.975C587.077 192.592 587.593 192.042 587.943 191.325C588.31 190.608 588.493 189.75 588.493 188.75V181.875H590.268V195H588.568V191.4L588.843 192.05C588.427 193.017 587.777 193.775 586.893 194.325C586.027 194.858 585.01 195.125 583.843 195.125ZM599.365 195.125C598.132 195.125 597.182 194.792 596.515 194.125C595.849 193.458 595.515 192.517 595.515 191.3V178.975H597.29V191.2C597.29 191.967 597.482 192.558 597.865 192.975C598.265 193.392 598.832 193.6 599.565 193.6C600.349 193.6 600.999 193.375 601.515 192.925L602.14 194.2C601.79 194.517 601.365 194.75 600.865 194.9C600.382 195.05 599.882 195.125 599.365 195.125ZM593.165 183.35V181.875H601.29V183.35H593.165ZM609.18 195.125C607.946 195.125 606.996 194.792 606.33 194.125C605.663 193.458 605.33 192.517 605.33 191.3V178.975H607.105V191.2C607.105 191.967 607.296 192.558 607.68 192.975C608.08 193.392 608.646 193.6 609.38 193.6C610.163 193.6 610.813 193.375 611.33 192.925L611.955 194.2C611.605 194.517 611.18 194.75 610.68 194.9C610.196 195.05 609.696 195.125 609.18 195.125ZM602.98 183.35V181.875H611.105V183.35H602.98ZM620.072 195.125C618.805 195.125 617.664 194.842 616.647 194.275C615.647 193.692 614.855 192.9 614.272 191.9C613.689 190.883 613.397 189.725 613.397 188.425C613.397 187.108 613.689 185.95 614.272 184.95C614.855 183.95 615.647 183.167 616.647 182.6C617.647 182.033 618.789 181.75 620.072 181.75C621.372 181.75 622.522 182.033 623.522 182.6C624.539 183.167 625.33 183.95 625.897 184.95C626.48 185.95 626.772 187.108 626.772 188.425C626.772 189.725 626.48 190.883 625.897 191.9C625.33 192.9 624.539 193.692 623.522 194.275C622.505 194.842 621.355 195.125 620.072 195.125ZM620.072 193.55C621.022 193.55 621.864 193.342 622.597 192.925C623.33 192.492 623.905 191.892 624.322 191.125C624.755 190.342 624.972 189.442 624.972 188.425C624.972 187.392 624.755 186.492 624.322 185.725C623.905 184.958 623.33 184.367 622.597 183.95C621.864 183.517 621.03 183.3 620.097 183.3C619.164 183.3 618.33 183.517 617.597 183.95C616.864 184.367 616.28 184.958 615.847 185.725C615.414 186.492 615.197 187.392 615.197 188.425C615.197 189.442 615.414 190.342 615.847 191.125C616.28 191.892 616.864 192.492 617.597 192.925C618.33 193.342 619.155 193.55 620.072 193.55ZM637.096 181.75C638.163 181.75 639.096 181.958 639.896 182.375C640.713 182.775 641.346 183.392 641.796 184.225C642.263 185.058 642.496 186.108 642.496 187.375V195H640.721V187.55C640.721 186.167 640.371 185.125 639.671 184.425C638.988 183.708 638.021 183.35 636.771 183.35C635.838 183.35 635.021 183.542 634.321 183.925C633.638 184.292 633.104 184.833 632.721 185.55C632.354 186.25 632.171 187.1 632.171 188.1V195H630.396V181.875H632.096V185.475L631.821 184.8C632.238 183.85 632.904 183.108 633.821 182.575C634.738 182.025 635.829 181.75 637.096 181.75ZM650.815 195.125C649.732 195.125 648.707 194.975 647.74 194.675C646.774 194.358 646.015 193.967 645.465 193.5L646.265 192.1C646.799 192.5 647.482 192.85 648.315 193.15C649.149 193.433 650.024 193.575 650.94 193.575C652.19 193.575 653.09 193.383 653.64 193C654.19 192.6 654.465 192.075 654.465 191.425C654.465 190.942 654.307 190.567 653.99 190.3C653.69 190.017 653.29 189.808 652.79 189.675C652.29 189.525 651.732 189.4 651.115 189.3C650.499 189.2 649.882 189.083 649.265 188.95C648.665 188.817 648.115 188.625 647.615 188.375C647.115 188.108 646.707 187.75 646.39 187.3C646.09 186.85 645.94 186.25 645.94 185.5C645.94 184.783 646.14 184.142 646.54 183.575C646.94 183.008 647.524 182.567 648.29 182.25C649.074 181.917 650.024 181.75 651.14 181.75C651.99 181.75 652.84 181.867 653.69 182.1C654.54 182.317 655.24 182.608 655.79 182.975L655.015 184.4C654.432 184 653.807 183.717 653.14 183.55C652.474 183.367 651.807 183.275 651.14 183.275C649.957 183.275 649.082 183.483 648.515 183.9C647.965 184.3 647.69 184.817 647.69 185.45C647.69 185.95 647.84 186.342 648.14 186.625C648.457 186.908 648.865 187.133 649.365 187.3C649.882 187.45 650.44 187.575 651.04 187.675C651.657 187.775 652.265 187.9 652.865 188.05C653.482 188.183 654.04 188.375 654.54 188.625C655.057 188.858 655.465 189.2 655.765 189.65C656.082 190.083 656.24 190.658 656.24 191.375C656.24 192.142 656.024 192.808 655.59 193.375C655.174 193.925 654.557 194.358 653.74 194.675C652.94 194.975 651.965 195.125 650.815 195.125Z" fill="#484A56"/>
</svg>
