<svg width="329" height="326" viewBox="0 0 329 326" fill="none" xmlns="http://www.w3.org/2000/svg">
<g clip-path="url(#clip0_2293_4323)">
<rect width="328.386" height="325.839" rx="20" fill="url(#paint0_linear_2293_4323)"/>
<path d="M75.5834 84.705H44.7524C39.6444 84.705 35.6309 80.6915 35.6309 75.5834V44.7524C35.6309 39.6444 39.6444 35.6309 44.7524 35.6309H75.5834C80.6915 35.6309 84.705 39.6444 84.705 44.7524V75.5834C84.705 80.6915 80.5091 84.705 75.5834 84.705Z" fill="white" fill-opacity="0.2"/>
<path d="M59.9647 55.4739C60.0735 55.2479 60.1296 55.1348 60.27 54.9794C60.5262 54.7004 61.3686 53.4325 63.0604 50.8966C63.0884 50.8542 63.3025 50.5364 63.5693 50.102C63.7027 49.8865 63.8571 49.6252 64.0396 49.2967C64.2607 48.9011 64.4538 48.5303 64.4432 48.0358C64.4397 47.891 64.4292 47.559 64.2677 47.2906C63.7518 46.4536 61.9267 46.5595 60.6491 47.0151C59.9541 47.2624 59.4838 47.5908 59.203 47.7921C56.5847 49.6534 55.2755 50.5823 53.1591 52.4683C52.8011 52.7862 53.2047 52.433 50.811 54.7322C50.625 54.9123 49.751 55.7529 49.042 56.9326C48.9122 57.148 48.7542 57.4376 48.656 57.8367C48.5928 58.1016 48.4208 58.8115 48.7507 59.5037C49.0561 60.143 49.6247 60.4256 50.0845 60.6516C50.6355 60.9235 51.1199 61.0189 51.9657 61.1213C53.3381 61.2873 54.4367 61.3191 55.4054 61.3438C56.69 61.3756 56.9953 61.305 57.929 61.3968C58.4449 61.4463 58.9854 61.5028 59.6804 61.6864C60.5122 61.9089 61.2387 62.1032 61.9302 62.7071C62.1302 62.8837 62.6497 63.3429 62.9586 64.1128C63.4605 65.3631 63.0674 66.5392 62.8954 67.0584C62.4426 68.4111 61.5687 69.1951 60.8702 69.8238C59.6698 70.9045 58.487 71.3672 58.1045 71.505C56.3285 72.1513 54.8578 71.9959 54.5525 71.957C54.0365 71.8935 53.4188 71.8122 52.7203 71.4237C52.3799 71.233 51.6639 70.8198 51.1936 69.9368C50.7899 69.1739 50.7864 68.464 50.7899 68.125C50.804 66.7793 51.4603 65.8081 51.8815 65.1971C52.9625 63.6395 54.4156 62.8837 55.2264 62.5447C54.6859 62.6789 53.9839 62.8837 53.1837 63.2086C52.6186 63.4382 51.3656 63.9821 49.937 65.0028C49.0982 65.6032 48.0452 66.3555 47.0274 67.687C46.0516 68.9656 45.6901 69.9015 45.6129 70.1311C45.4409 70.6291 45.2444 71.2048 45.2444 71.9252C45.2444 73.9843 46.8414 75.4677 47.4135 76.001C48.2909 76.8169 49.1228 77.2124 49.8563 77.555C50.2775 77.7528 52.043 78.5439 54.6157 78.7205C57.4762 78.9148 59.6523 78.2331 60.6912 77.8941C61.8319 77.5232 64.194 76.7427 66.4754 74.7154C67.3353 73.9525 67.925 73.2391 68.2303 72.8471C68.8691 72.0277 69.9888 70.569 70.5925 68.351C71.2839 65.8116 70.9049 63.742 70.8171 63.304C70.6311 62.3504 70.2941 60.7469 69.0166 59.2106C67.8864 57.8508 66.5877 57.2292 66.0121 56.9608C66.0121 56.9608 64.6012 56.3039 62.7971 56.092C62.0706 56.0072 61.7056 55.9648 61.3019 55.9896C61.1861 55.9966 60.8035 56.0249 60.2876 55.9896C60.249 55.986 60.1402 56.0249 60.0489 55.9684C59.9401 55.9013 59.898 55.7317 59.9155 55.601C59.9331 55.5375 59.9541 55.4916 59.9647 55.4739Z" fill="white"/>
<mask id="mask0_2293_4323" style="mask-type:luminance" maskUnits="userSpaceOnUse" x="36" y="41" width="33" height="32">
<path d="M52.1172 72.8463C61.0185 72.8463 68.2344 65.8587 68.2344 57.2391C68.2344 48.6194 61.0185 41.6318 52.1172 41.6318C43.2159 41.6318 36 48.6194 36 57.2391C36 65.8587 43.2159 72.8463 52.1172 72.8463Z" fill="white"/>
</mask>
<g mask="url(#mask0_2293_4323)">
<path d="M59.9647 55.4749C60.0735 55.2488 60.1296 55.1358 60.27 54.9804C60.5262 54.7014 61.3686 53.4335 63.0604 50.8976C63.0884 50.8552 63.3025 50.5374 63.5693 50.1029C63.7027 49.8875 63.8571 49.6261 64.0396 49.2977C64.2607 48.9021 64.4538 48.5313 64.4432 48.0368C64.4397 47.892 64.4292 47.56 64.2677 47.2916C63.7518 46.4545 61.9267 46.5605 60.6491 47.0161C59.9541 47.2633 59.4838 47.5918 59.203 47.7931C56.5847 49.6544 55.2755 50.5833 53.1591 52.4693C52.8011 52.7871 53.2047 52.434 50.811 54.7332C50.625 54.9133 49.751 55.7539 49.042 56.9335C48.9122 57.149 48.7542 57.4386 48.656 57.8377C48.5928 58.1026 48.4208 58.8125 48.7507 59.5047C49.0561 60.144 49.6247 60.4265 50.0845 60.6526C50.6355 60.9245 51.1199 61.0199 51.9657 61.1223C53.3381 61.2883 54.4367 61.3201 55.4054 61.3448C56.69 61.3766 56.9953 61.306 57.929 61.3978C58.4449 61.4472 58.9854 61.5037 59.6804 61.6874C60.5122 61.9099 61.2387 62.1042 61.9302 62.7081C62.1302 62.8847 62.6497 63.3438 62.9586 64.1138C63.4605 65.3641 63.0674 66.5402 62.8954 67.0593C62.4426 68.412 61.5687 69.1961 60.8702 69.8248C59.6698 70.9055 58.487 71.3682 58.1045 71.5059C56.3285 72.1523 54.8578 71.9969 54.5525 71.958C54.0365 71.8944 53.4188 71.8132 52.7203 71.4247C52.3799 71.234 51.6639 70.8208 51.1936 69.9378C50.7899 69.1749 50.7864 68.465 50.7899 68.126C50.804 66.7803 51.4603 65.8091 51.8815 65.1981C52.9625 63.6405 54.4156 62.8847 55.2264 62.5456C54.6859 62.6798 53.9839 62.8847 53.1837 63.2096C52.6186 63.4392 51.3656 63.9831 49.937 65.0038C49.0982 65.6042 48.0452 66.3565 47.0274 67.688C46.0516 68.9665 45.6901 69.9025 45.6129 70.132C45.4409 70.63 45.2444 71.2057 45.2444 71.9262C45.2444 73.9853 46.8414 75.4687 47.4135 76.002C48.2909 76.8178 49.1228 77.2134 49.8563 77.556C50.2775 77.7538 52.043 78.5449 54.6157 78.7215C57.4762 78.9158 59.6523 78.2341 60.6912 77.895C61.8319 77.5242 64.194 76.7437 66.4754 74.7164C67.3353 73.9535 67.925 73.2401 68.2303 72.848C68.8691 72.0286 69.9888 70.57 70.5925 68.352C71.2839 65.8126 70.9049 63.7429 70.8171 63.305C70.6311 62.3514 70.2941 60.7479 69.0166 59.2116C67.8864 57.8518 66.5877 57.2302 66.0121 56.9618C66.0121 56.9618 64.6012 56.3049 62.7971 56.0929C62.0706 56.0082 61.7056 55.9658 61.3019 55.9905C61.1861 55.9976 60.8035 56.0258 60.2876 55.9905C60.249 55.987 60.1402 56.0258 60.0489 55.9693C59.9401 55.9022 59.898 55.7327 59.9155 55.602C59.9331 55.5384 59.9541 55.4925 59.9647 55.4749Z" fill="url(#paint1_linear_2293_4323)"/>
</g>
<path d="M67.4983 44.9924C69.0956 44.9924 70.3904 43.6894 70.3904 42.0821C70.3904 40.4748 69.0956 39.1719 67.4983 39.1719C65.901 39.1719 64.6062 40.4748 64.6062 42.0821C64.6062 43.6894 65.901 44.9924 67.4983 44.9924Z" fill="white"/>
<path d="M49.3791 152.381C47.6206 152.381 45.9999 152.106 44.5169 151.555C43.055 150.983 41.7732 150.178 40.6716 149.14C39.5911 148.102 38.7436 146.884 38.1292 145.485C37.536 144.087 37.2394 142.551 37.2394 140.877C37.2394 139.204 37.536 137.668 38.1292 136.269C38.7436 134.871 39.6017 133.653 40.7033 132.615C41.805 131.576 43.0974 130.782 44.5804 130.231C46.0635 129.659 47.6948 129.373 49.4744 129.373C51.4448 129.373 53.2138 129.702 54.7816 130.358C56.3705 131.015 57.7053 131.968 58.7858 133.218L55.4807 136.269C54.6756 135.422 53.7964 134.797 52.843 134.394C51.8897 133.971 50.8515 133.759 49.7287 133.759C48.6482 133.759 47.663 133.928 46.7732 134.267C45.8834 134.606 45.1101 135.093 44.4533 135.729C43.8177 136.365 43.3198 137.117 42.9597 137.985C42.6207 138.854 42.4512 139.818 42.4512 140.877C42.4512 141.915 42.6207 142.869 42.9597 143.737C43.3198 144.606 43.8177 145.369 44.4533 146.025C45.1101 146.661 45.8728 147.148 46.7414 147.487C47.6312 147.826 48.6058 147.996 49.6651 147.996C50.682 147.996 51.6672 147.837 52.6206 147.519C53.5952 147.18 54.5379 146.619 55.4489 145.835L58.3726 149.553C57.165 150.464 55.7561 151.163 54.146 151.65C52.557 152.138 50.9681 152.381 49.3791 152.381ZM53.6693 148.886V140.528H58.3726V149.553L53.6693 148.886ZM62.8054 152V134.903H67.5405V139.733L66.8731 138.335C67.3816 137.127 68.1973 136.216 69.3201 135.602C70.443 134.966 71.8095 134.648 73.4197 134.648V139.225C73.2078 139.204 73.0171 139.193 72.8476 139.193C72.6781 139.172 72.4981 139.161 72.3074 139.161C70.9515 139.161 69.8498 139.553 69.0023 140.337C68.1761 141.1 67.7629 142.297 67.7629 143.928V152H62.8054ZM85.7374 152V148.663L85.4196 147.932V141.958C85.4196 140.898 85.0912 140.072 84.4344 139.479C83.7988 138.886 82.8137 138.589 81.4789 138.589C80.5679 138.589 79.6675 138.737 78.7777 139.034C77.9091 139.309 77.1675 139.691 76.5531 140.178L74.7735 136.714C75.7057 136.057 76.8286 135.549 78.1421 135.189C79.4557 134.829 80.7904 134.648 82.1463 134.648C84.7522 134.648 86.7755 135.263 88.2162 136.492C89.6568 137.72 90.3772 139.638 90.3772 142.244V152H85.7374ZM80.5256 152.254C79.1908 152.254 78.0468 152.032 77.0934 151.587C76.14 151.121 75.4091 150.496 74.9006 149.712C74.3922 148.928 74.1379 148.049 74.1379 147.074C74.1379 146.057 74.3816 145.167 74.8688 144.405C75.3773 143.642 76.1718 143.049 77.2523 142.625C78.3328 142.18 79.7417 141.958 81.4789 141.958H86.0234V144.85H82.0192C80.8539 144.85 80.0489 145.04 79.604 145.422C79.1802 145.803 78.9684 146.28 78.9684 146.852C78.9684 147.487 79.212 147.996 79.6993 148.377C80.2078 148.737 80.8963 148.917 81.765 148.917C82.5912 148.917 83.3327 148.727 83.9895 148.345C84.6463 147.943 85.123 147.36 85.4196 146.598L86.1823 148.886C85.8221 149.987 85.1653 150.824 84.212 151.396C83.2586 151.968 82.0298 152.254 80.5256 152.254ZM102.329 152.254C100.719 152.254 99.2677 151.894 97.9754 151.174C96.683 150.432 95.6555 149.405 94.8928 148.091C94.1513 146.778 93.7805 145.231 93.7805 143.451C93.7805 141.651 94.1513 140.093 94.8928 138.78C95.6555 137.466 96.683 136.449 97.9754 135.729C99.2677 135.009 100.719 134.648 102.329 134.648C103.77 134.648 105.03 134.966 106.111 135.602C107.191 136.237 108.028 137.201 108.621 138.494C109.215 139.786 109.511 141.439 109.511 143.451C109.511 145.443 109.225 147.095 108.653 148.409C108.081 149.701 107.255 150.665 106.174 151.301C105.115 151.936 103.833 152.254 102.329 152.254ZM103.187 148.186C103.992 148.186 104.723 147.996 105.38 147.614C106.037 147.233 106.556 146.693 106.937 145.994C107.34 145.273 107.541 144.426 107.541 143.451C107.541 142.456 107.34 141.608 106.937 140.909C106.556 140.21 106.037 139.67 105.38 139.288C104.723 138.907 103.992 138.716 103.187 138.716C102.361 138.716 101.619 138.907 100.963 139.288C100.306 139.67 99.7762 140.21 99.3737 140.909C98.9923 141.608 98.8016 142.456 98.8016 143.451C98.8016 144.426 98.9923 145.273 99.3737 145.994C99.7762 146.693 100.306 147.233 100.963 147.614C101.619 147.996 102.361 148.186 103.187 148.186ZM107.668 152V148.504L107.763 143.42L107.446 138.367V128.42H112.403V152H107.668ZM116.992 152V134.903H121.949V152H116.992ZM119.47 132.519C118.559 132.519 117.818 132.254 117.246 131.725C116.674 131.195 116.388 130.538 116.388 129.754C116.388 128.971 116.674 128.314 117.246 127.784C117.818 127.254 118.559 126.99 119.47 126.99C120.381 126.99 121.123 127.244 121.695 127.752C122.267 128.24 122.553 128.875 122.553 129.659C122.553 130.485 122.267 131.174 121.695 131.725C121.144 132.254 120.403 132.519 119.47 132.519ZM135.035 152.254C133.086 152.254 131.37 151.873 129.887 151.11C128.425 150.347 127.292 149.309 126.487 147.996C125.682 146.661 125.279 145.146 125.279 143.451C125.279 141.735 125.671 140.22 126.455 138.907C127.26 137.572 128.351 136.534 129.728 135.793C131.105 135.03 132.662 134.648 134.4 134.648C136.073 134.648 137.578 135.009 138.912 135.729C140.268 136.428 141.338 137.445 142.122 138.78C142.906 140.093 143.298 141.672 143.298 143.515C143.298 143.706 143.287 143.928 143.266 144.182C143.245 144.415 143.224 144.638 143.203 144.85H129.315V141.958H140.597L138.69 142.816C138.69 141.926 138.51 141.153 138.15 140.496C137.789 139.839 137.292 139.331 136.656 138.97C136.02 138.589 135.279 138.398 134.431 138.398C133.584 138.398 132.832 138.589 132.175 138.97C131.54 139.331 131.042 139.85 130.682 140.528C130.321 141.184 130.141 141.968 130.141 142.879V143.642C130.141 144.574 130.343 145.4 130.745 146.121C131.169 146.82 131.751 147.36 132.493 147.742C133.256 148.102 134.145 148.282 135.162 148.282C136.073 148.282 136.868 148.144 137.546 147.869C138.245 147.593 138.881 147.18 139.453 146.629L142.09 149.489C141.306 150.379 140.321 151.068 139.135 151.555C137.948 152.021 136.582 152.254 135.035 152.254ZM156.99 134.648C158.346 134.648 159.554 134.924 160.613 135.475C161.694 136.004 162.541 136.831 163.156 137.954C163.77 139.055 164.077 140.475 164.077 142.212V152H159.12V142.975C159.12 141.598 158.812 140.581 158.198 139.924C157.605 139.267 156.757 138.939 155.656 138.939C154.872 138.939 154.162 139.108 153.526 139.447C152.912 139.765 152.425 140.263 152.065 140.941C151.726 141.619 151.556 142.487 151.556 143.547V152H146.598V134.903H151.334V139.638L150.444 138.208C151.058 137.064 151.937 136.184 153.081 135.57C154.226 134.956 155.528 134.648 156.99 134.648ZM175.562 152.254C173.55 152.254 171.982 151.746 170.859 150.729C169.736 149.691 169.175 148.155 169.175 146.121V131.121H174.132V146.057C174.132 146.778 174.323 147.339 174.704 147.742C175.086 148.123 175.605 148.314 176.262 148.314C177.045 148.314 177.713 148.102 178.264 147.678L179.598 151.174C179.09 151.534 178.475 151.809 177.755 152C177.056 152.169 176.325 152.254 175.562 152.254ZM166.537 139.098V135.284H178.391V139.098H166.537ZM38.6377 191V168.754H48.7435C51.1587 168.754 53.288 169.221 55.1312 170.153C56.9744 171.064 58.415 172.346 59.4531 173.998C60.4913 175.651 61.0103 177.61 61.0103 179.877C61.0103 182.123 60.4913 184.083 59.4531 185.756C58.415 187.409 56.9744 188.701 55.1312 189.633C53.288 190.544 51.1587 191 48.7435 191H38.6377ZM43.7859 186.773H48.4893C49.9723 186.773 51.2541 186.498 52.3346 185.947C53.4363 185.375 54.2837 184.57 54.8769 183.532C55.4913 182.494 55.7985 181.276 55.7985 179.877C55.7985 178.458 55.4913 177.24 54.8769 176.223C54.2837 175.184 53.4363 174.39 52.3346 173.839C51.2541 173.267 49.9723 172.981 48.4893 172.981H43.7859V186.773ZM73.0284 191.254C71.0792 191.254 69.3632 190.873 67.8801 190.11C66.4183 189.347 65.2848 188.309 64.4797 186.996C63.6747 185.661 63.2721 184.146 63.2721 182.451C63.2721 180.735 63.6641 179.22 64.448 177.907C65.253 176.572 66.3441 175.534 67.7212 174.793C69.0983 174.03 70.6555 173.648 72.3928 173.648C74.0665 173.648 75.5707 174.009 76.9055 174.729C78.2614 175.428 79.3313 176.445 80.1152 177.78C80.8991 179.093 81.291 180.672 81.291 182.515C81.291 182.706 81.2804 182.928 81.2592 183.182C81.238 183.415 81.2168 183.638 81.1957 183.85H67.3081V180.958H78.5898L76.683 181.816C76.683 180.926 76.5029 180.153 76.1427 179.496C75.7826 178.839 75.2847 178.331 74.6491 177.97C74.0135 177.589 73.272 177.398 72.4246 177.398C71.5771 177.398 70.825 177.589 70.1682 177.97C69.5326 178.331 69.0348 178.85 68.6746 179.528C68.3144 180.184 68.1344 180.968 68.1344 181.879V182.642C68.1344 183.574 68.3356 184.4 68.7382 185.121C69.1619 185.82 69.7445 186.36 70.486 186.742C71.2487 187.102 72.1386 187.282 73.1555 187.282C74.0665 187.282 74.861 187.144 75.5389 186.869C76.2381 186.593 76.8737 186.18 77.4457 185.629L80.0834 188.489C79.2995 189.379 78.3143 190.068 77.1279 190.555C75.9415 191.021 74.575 191.254 73.0284 191.254ZM90.3436 191.254C88.8818 191.254 87.4729 191.085 86.117 190.746C84.7823 190.386 83.7229 189.941 82.9391 189.411L84.5916 185.852C85.3755 186.339 86.2971 186.742 87.3564 187.059C88.4369 187.356 89.4962 187.504 90.5343 187.504C91.6784 187.504 92.4834 187.367 92.9495 187.091C93.4368 186.816 93.6805 186.434 93.6805 185.947C93.6805 185.545 93.4898 185.248 93.1084 185.057C92.7483 184.845 92.261 184.687 91.6466 184.581C91.0322 184.475 90.3542 184.369 89.6127 184.263C88.8924 184.157 88.1615 184.019 87.4199 183.85C86.6784 183.659 86.0005 183.384 85.3861 183.023C84.7717 182.663 84.2738 182.176 83.8924 181.562C83.5323 180.947 83.3522 180.153 83.3522 179.178C83.3522 178.098 83.6594 177.144 84.2738 176.318C84.9094 175.492 85.8204 174.846 87.0068 174.379C88.1932 173.892 89.6127 173.648 91.2652 173.648C92.4305 173.648 93.6169 173.776 94.8245 174.03C96.0321 174.284 97.0385 174.655 97.8436 175.142L96.191 178.67C95.3648 178.182 94.5279 177.854 93.6805 177.684C92.8542 177.494 92.0491 177.398 91.2652 177.398C90.1636 177.398 89.3585 177.547 88.85 177.843C88.3415 178.14 88.0873 178.521 88.0873 178.987C88.0873 179.411 88.2674 179.729 88.6276 179.941C89.0089 180.153 89.5068 180.322 90.1212 180.449C90.7356 180.576 91.4029 180.693 92.1233 180.799C92.8648 180.884 93.6063 181.021 94.3478 181.212C95.0893 181.403 95.7567 181.678 96.3499 182.038C96.9643 182.377 97.4622 182.854 97.8436 183.468C98.2249 184.062 98.4156 184.845 98.4156 185.82C98.4156 186.879 98.0978 187.822 97.4622 188.648C96.8266 189.453 95.905 190.089 94.6974 190.555C93.511 191.021 92.0597 191.254 90.3436 191.254ZM101.474 191V173.903H106.432V191H101.474ZM103.953 171.519C103.042 171.519 102.301 171.254 101.729 170.725C101.157 170.195 100.871 169.538 100.871 168.754C100.871 167.971 101.157 167.314 101.729 166.784C102.301 166.254 103.042 165.99 103.953 165.99C104.864 165.99 105.606 166.244 106.178 166.752C106.75 167.24 107.036 167.875 107.036 168.659C107.036 169.485 106.75 170.174 106.178 170.725C105.627 171.254 104.885 171.519 103.953 171.519ZM119.073 197.419C117.463 197.419 115.906 197.218 114.402 196.816C112.919 196.434 111.679 195.852 110.683 195.068L112.654 191.508C113.374 192.102 114.285 192.568 115.387 192.907C116.51 193.267 117.611 193.447 118.692 193.447C120.45 193.447 121.721 193.055 122.505 192.271C123.31 191.487 123.713 190.322 123.713 188.775V186.201L124.031 181.911L123.967 177.589V173.903H128.67V188.14C128.67 191.318 127.844 193.659 126.192 195.163C124.539 196.667 122.166 197.419 119.073 197.419ZM118.31 190.174C116.721 190.174 115.281 189.835 113.988 189.157C112.717 188.458 111.69 187.494 110.906 186.265C110.143 185.015 109.762 183.564 109.762 181.911C109.762 180.237 110.143 178.786 110.906 177.557C111.69 176.307 112.717 175.343 113.988 174.665C115.281 173.987 116.721 173.648 118.31 173.648C119.751 173.648 121.022 173.945 122.124 174.538C123.226 175.11 124.084 176.011 124.698 177.24C125.312 178.447 125.62 180.004 125.62 181.911C125.62 183.797 125.312 185.354 124.698 186.583C124.084 187.79 123.226 188.691 122.124 189.284C121.022 189.877 119.751 190.174 118.31 190.174ZM119.296 186.106C120.164 186.106 120.938 185.936 121.615 185.598C122.293 185.237 122.823 184.739 123.204 184.104C123.586 183.468 123.776 182.737 123.776 181.911C123.776 181.064 123.586 180.333 123.204 179.718C122.823 179.083 122.293 178.595 121.615 178.256C120.938 177.896 120.164 177.716 119.296 177.716C118.427 177.716 117.654 177.896 116.976 178.256C116.298 178.595 115.757 179.083 115.355 179.718C114.974 180.333 114.783 181.064 114.783 181.911C114.783 182.737 114.974 183.468 115.355 184.104C115.757 184.739 116.298 185.237 116.976 185.598C117.654 185.936 118.427 186.106 119.296 186.106ZM143.677 173.648C145.032 173.648 146.24 173.924 147.299 174.475C148.38 175.004 149.227 175.831 149.842 176.954C150.456 178.055 150.763 179.475 150.763 181.212V191H145.806V181.975C145.806 180.598 145.499 179.581 144.884 178.924C144.291 178.267 143.443 177.939 142.342 177.939C141.558 177.939 140.848 178.108 140.213 178.447C139.598 178.765 139.111 179.263 138.751 179.941C138.412 180.619 138.242 181.487 138.242 182.547V191H133.285V173.903H138.02V178.638L137.13 177.208C137.744 176.064 138.624 175.184 139.768 174.57C140.912 173.956 142.215 173.648 143.677 173.648ZM163.018 191V187.663L171.598 179.559C172.276 178.945 172.774 178.394 173.092 177.907C173.41 177.42 173.621 176.975 173.727 176.572C173.854 176.17 173.918 175.799 173.918 175.46C173.918 174.57 173.611 173.892 172.996 173.426C172.403 172.939 171.524 172.695 170.359 172.695C169.427 172.695 168.558 172.875 167.753 173.235C166.969 173.596 166.302 174.157 165.751 174.92L162.001 172.504C162.848 171.233 164.035 170.227 165.56 169.485C167.085 168.744 168.844 168.373 170.835 168.373C172.488 168.373 173.929 168.649 175.157 169.199C176.407 169.729 177.371 170.481 178.049 171.456C178.748 172.43 179.098 173.596 179.098 174.951C179.098 175.672 179.003 176.392 178.812 177.112C178.643 177.812 178.282 178.553 177.732 179.337C177.202 180.121 176.418 181 175.38 181.975L168.261 188.68L167.276 186.805H179.829V191H163.018Z" fill="white"/>
<path d="M108.796 66.4777C107.615 66.4777 106.485 66.3121 105.405 65.981C104.326 65.6355 103.469 65.1964 102.836 64.6638L103.808 62.4829C104.412 62.9579 105.161 63.3538 106.053 63.6705C106.946 63.9872 107.86 64.1456 108.796 64.1456C109.587 64.1456 110.228 64.0592 110.717 63.8864C111.207 63.7137 111.567 63.4834 111.797 63.1954C112.027 62.8931 112.143 62.5548 112.143 62.1805C112.143 61.7199 111.977 61.3528 111.646 61.0793C111.315 60.7914 110.883 60.5682 110.35 60.4099C109.832 60.2371 109.249 60.0788 108.601 59.9348C107.968 59.7909 107.327 59.6253 106.679 59.4382C106.046 59.2366 105.463 58.9847 104.93 58.6824C104.412 58.3657 103.988 57.9482 103.656 57.43C103.325 56.9117 103.16 56.2495 103.16 55.4434C103.16 54.6228 103.376 53.8742 103.808 53.1976C104.254 52.5066 104.923 51.9596 105.816 51.5565C106.723 51.1391 107.867 50.9303 109.249 50.9303C110.156 50.9303 111.056 51.0455 111.948 51.2758C112.841 51.5061 113.618 51.8372 114.28 52.2691L113.395 54.4501C112.718 54.047 112.02 53.7519 111.301 53.5647C110.581 53.3632 109.89 53.2624 109.228 53.2624C108.45 53.2624 107.817 53.356 107.327 53.5431C106.852 53.7303 106.5 53.975 106.269 54.2773C106.053 54.5796 105.945 54.9251 105.945 55.3138C105.945 55.7745 106.104 56.1487 106.42 56.4367C106.751 56.7102 107.176 56.9261 107.694 57.0845C108.227 57.2428 108.817 57.4012 109.465 57.5595C110.113 57.7035 110.753 57.869 111.387 58.0562C112.035 58.2433 112.618 58.488 113.136 58.7904C113.669 59.0927 114.093 59.5029 114.41 60.0212C114.741 60.5394 114.907 61.1944 114.907 61.9862C114.907 62.7924 114.684 63.5409 114.237 64.2319C113.805 64.9085 113.136 65.4556 112.229 65.873C111.322 66.2761 110.178 66.4777 108.796 66.4777ZM131.985 54.6012C132.906 54.6012 133.72 54.7812 134.425 55.1411C135.145 55.5009 135.706 56.0552 136.109 56.8038C136.513 57.5379 136.714 58.488 136.714 59.6541V66.2617H134.015V59.9996C134.015 58.9775 133.792 58.2145 133.345 57.7107C132.899 57.2068 132.259 56.9549 131.424 56.9549C130.833 56.9549 130.308 57.0845 129.847 57.3436C129.401 57.6027 129.048 57.9842 128.789 58.488C128.545 58.9919 128.422 59.6325 128.422 60.4099V66.2617H125.723V59.9996C125.723 58.9775 125.5 58.2145 125.054 57.7107C124.607 57.2068 123.967 56.9549 123.132 56.9549C122.542 56.9549 122.016 57.0845 121.555 57.3436C121.109 57.6027 120.756 57.9842 120.497 58.488C120.253 58.9919 120.13 59.6325 120.13 60.4099V66.2617H117.431V54.7308H120.001V57.7971L119.547 56.8901C119.936 56.1416 120.497 55.5729 121.232 55.1842C121.98 54.7956 122.829 54.6012 123.78 54.6012C124.859 54.6012 125.795 54.8675 126.587 55.4002C127.393 55.9328 127.926 56.739 128.185 57.8186L127.127 57.4516C127.501 56.5878 128.12 55.8968 128.984 55.3786C129.847 54.8603 130.848 54.6012 131.985 54.6012ZM147.268 66.2617V63.9296L147.116 63.433V59.3518C147.116 58.56 146.879 57.9482 146.404 57.5163C145.929 57.0701 145.209 56.8469 144.244 56.8469C143.597 56.8469 142.956 56.9477 142.323 57.1492C141.704 57.3508 141.178 57.6315 140.746 57.9914L139.688 56.0264C140.307 55.5513 141.041 55.1986 141.891 54.9683C142.755 54.7236 143.647 54.6012 144.568 54.6012C146.238 54.6012 147.527 55.0043 148.434 55.8105C149.355 56.6022 149.816 57.833 149.816 59.5029V66.2617H147.268ZM143.64 66.4129C142.776 66.4129 142.02 66.2689 141.373 65.981C140.725 65.6787 140.221 65.2684 139.861 64.7502C139.515 64.2175 139.343 63.6201 139.343 62.9579C139.343 62.3101 139.494 61.7271 139.796 61.2088C140.113 60.6906 140.624 60.2803 141.329 59.978C142.035 59.6757 142.97 59.5245 144.137 59.5245H147.484V61.3168H144.331C143.41 61.3168 142.791 61.468 142.474 61.7703C142.157 62.0582 141.999 62.4181 141.999 62.8499C141.999 63.3394 142.193 63.7281 142.582 64.016C142.97 64.3039 143.51 64.4479 144.201 64.4479C144.863 64.4479 145.454 64.2967 145.972 63.9944C146.505 63.6921 146.886 63.2458 147.116 62.6556L147.57 64.2751C147.311 64.9517 146.843 65.4772 146.166 65.8514C145.504 66.2257 144.662 66.4129 143.64 66.4129ZM153.28 66.2617V54.7308H155.849V57.905L155.547 56.9765C155.892 56.1991 156.432 55.6089 157.167 55.2058C157.915 54.8028 158.844 54.6012 159.952 54.6012V57.1708C159.837 57.1421 159.729 57.1277 159.628 57.1277C159.527 57.1133 159.427 57.1061 159.326 57.1061C158.304 57.1061 157.49 57.4084 156.886 58.013C156.281 58.6032 155.979 59.4885 155.979 60.669V66.2617H153.28ZM167.004 66.4129C165.737 66.4129 164.758 66.089 164.067 65.4412C163.376 64.779 163.031 63.8073 163.031 62.526V52.1827H165.73V62.4613C165.73 63.0083 165.867 63.433 166.14 63.7353C166.428 64.0376 166.824 64.1887 167.328 64.1887C167.932 64.1887 168.436 64.0304 168.839 63.7137L169.595 65.6355C169.278 65.8946 168.89 66.089 168.429 66.2185C167.968 66.3481 167.493 66.4129 167.004 66.4129ZM161.13 56.9765V54.8171H168.818V56.9765H161.13ZM176.696 66.4129C175.717 66.4129 174.853 66.2329 174.104 65.873C173.356 65.4987 172.773 64.9373 172.355 64.1887C171.938 63.4258 171.729 62.4685 171.729 61.3168V54.7308H174.428V60.9497C174.428 61.9862 174.659 62.7636 175.119 63.2818C175.594 63.7857 176.264 64.0376 177.128 64.0376C177.761 64.0376 178.308 63.908 178.769 63.6489C179.244 63.3898 179.611 63.0011 179.87 62.4829C180.143 61.9646 180.28 61.324 180.28 60.561V54.7308H182.979V66.2617H180.41V63.1523L180.863 64.1024C180.475 64.8509 179.906 65.4268 179.157 65.8298C178.409 66.2185 177.588 66.4129 176.696 66.4129ZM192.905 66.4129C191.969 66.4129 191.113 66.1969 190.336 65.7651C189.573 65.3332 188.961 64.6854 188.5 63.8217C188.054 62.9435 187.831 61.835 187.831 60.4962C187.831 59.1431 188.047 58.0346 188.478 57.1708C188.925 56.3071 189.529 55.6665 190.292 55.249C191.055 54.8171 191.926 54.6012 192.905 54.6012C194.042 54.6012 195.043 54.8459 195.907 55.3354C196.785 55.8248 197.476 56.5086 197.98 57.3868C198.498 58.2649 198.757 59.3014 198.757 60.4962C198.757 61.6911 198.498 62.7348 197.98 63.6273C197.476 64.5054 196.785 65.1892 195.907 65.6787C195.043 66.1681 194.042 66.4129 192.905 66.4129ZM186.513 70.4509V54.7308H189.083V57.4516L188.997 60.5178L189.213 63.5841V70.4509H186.513ZM192.603 64.1024C193.251 64.1024 193.826 63.9584 194.33 63.6705C194.849 63.3826 195.259 62.9651 195.561 62.4181C195.863 61.871 196.015 61.2304 196.015 60.4962C196.015 59.7477 195.863 59.1071 195.561 58.5744C195.259 58.0274 194.849 57.6099 194.33 57.322C193.826 57.0341 193.251 56.8901 192.603 56.8901C191.955 56.8901 191.372 57.0341 190.854 57.322C190.336 57.6099 189.925 58.0274 189.623 58.5744C189.321 59.1071 189.169 59.7477 189.169 60.4962C189.169 61.2304 189.321 61.871 189.623 62.4181C189.925 62.9651 190.336 63.3826 190.854 63.6705C191.372 63.9584 191.955 64.1024 192.603 64.1024ZM207.544 66.2617V51.1462H213.763C215.101 51.1462 216.246 51.3622 217.196 51.7941C218.161 52.2259 218.902 52.8449 219.42 53.6511C219.938 54.4573 220.198 55.4146 220.198 56.523C220.198 57.6315 219.938 58.5888 219.42 59.395C218.902 60.1867 218.161 60.7986 217.196 61.2304C216.246 61.6479 215.101 61.8566 213.763 61.8566H209.098L210.351 60.5826V66.2617H207.544ZM217.434 66.2617L213.611 60.777H216.613L220.457 66.2617H217.434ZM210.351 60.8849L209.098 59.5461H213.633C214.871 59.5461 215.8 59.2798 216.419 58.7472C217.052 58.2145 217.369 57.4732 217.369 56.523C217.369 55.5585 217.052 54.8171 216.419 54.2989C215.8 53.7807 214.871 53.5215 213.633 53.5215H209.098L210.351 52.1396V60.8849ZM228.499 66.4129C227.218 66.4129 226.095 66.1609 225.13 65.6571C224.18 65.1389 223.439 64.4335 222.906 63.5409C222.388 62.6484 222.129 61.6335 222.129 60.4962C222.129 59.3446 222.381 58.3297 222.885 57.4516C223.403 56.559 224.108 55.8608 225.001 55.357C225.908 54.8531 226.937 54.6012 228.089 54.6012C229.212 54.6012 230.212 54.8459 231.09 55.3354C231.968 55.8248 232.659 56.5158 233.163 57.4084C233.667 58.3009 233.919 59.3518 233.919 60.561C233.919 60.6762 233.912 60.8058 233.897 60.9497C233.897 61.0937 233.89 61.2304 233.876 61.36H224.267V59.5677H232.451L231.393 60.1292C231.407 59.467 231.27 58.8839 230.982 58.3801C230.694 57.8762 230.299 57.4804 229.795 57.1924C229.305 56.9045 228.737 56.7606 228.089 56.7606C227.427 56.7606 226.844 56.9045 226.34 57.1924C225.85 57.4804 225.462 57.8834 225.174 58.4017C224.9 58.9055 224.763 59.5029 224.763 60.1939V60.6258C224.763 61.3168 224.922 61.9286 225.238 62.4613C225.555 62.9939 226.001 63.4042 226.577 63.6921C227.153 63.98 227.815 64.124 228.564 64.124C229.212 64.124 229.795 64.0232 230.313 63.8217C230.831 63.6201 231.292 63.3034 231.695 62.8715L233.142 64.5342C232.623 65.1389 231.968 65.6067 231.177 65.9378C230.399 66.2545 229.507 66.4129 228.499 66.4129ZM240.852 66.4129C239.585 66.4129 238.606 66.089 237.915 65.4412C237.224 64.779 236.879 63.8073 236.879 62.526V52.1827H239.578V62.4613C239.578 63.0083 239.715 63.433 239.988 63.7353C240.276 64.0376 240.672 64.1887 241.176 64.1887C241.781 64.1887 242.284 64.0304 242.688 63.7137L243.443 65.6355C243.127 65.8946 242.738 66.089 242.277 66.2185C241.817 66.3481 241.342 66.4129 240.852 66.4129ZM234.979 56.9765V54.8171H242.666V56.9765H234.979ZM252.768 66.2617V63.9296L252.617 63.433V59.3518C252.617 58.56 252.379 57.9482 251.904 57.5163C251.429 57.0701 250.709 56.8469 249.745 56.8469C249.097 56.8469 248.456 56.9477 247.823 57.1492C247.204 57.3508 246.679 57.6315 246.247 57.9914L245.189 56.0264C245.808 55.5513 246.542 55.1986 247.391 54.9683C248.255 54.7236 249.147 54.6012 250.069 54.6012C251.739 54.6012 253.027 55.0043 253.934 55.8105C254.855 56.6022 255.316 57.833 255.316 59.5029V66.2617H252.768ZM249.14 66.4129C248.277 66.4129 247.521 66.2689 246.873 65.981C246.225 65.6787 245.721 65.2684 245.361 64.7502C245.016 64.2175 244.843 63.6201 244.843 62.9579C244.843 62.3101 244.994 61.7271 245.297 61.2088C245.613 60.6906 246.124 60.2803 246.83 59.978C247.535 59.6757 248.471 59.5245 249.637 59.5245H252.984V61.3168H249.831C248.91 61.3168 248.291 61.468 247.974 61.7703C247.658 62.0582 247.499 62.4181 247.499 62.8499C247.499 63.3394 247.693 63.7281 248.082 64.016C248.471 64.3039 249.011 64.4479 249.702 64.4479C250.364 64.4479 250.954 64.2967 251.472 63.9944C252.005 63.6921 252.386 63.2458 252.617 62.6556L253.07 64.2751C252.811 64.9517 252.343 65.4772 251.667 65.8514C251.005 66.2257 250.162 66.4129 249.14 66.4129ZM258.78 66.2617V54.7308H261.479V66.2617H258.78ZM260.14 52.8305C259.637 52.8305 259.219 52.6722 258.888 52.3555C258.571 52.0388 258.413 51.6573 258.413 51.211C258.413 50.7504 258.571 50.3689 258.888 50.0666C259.219 49.7499 259.637 49.5915 260.14 49.5915C260.644 49.5915 261.055 49.7427 261.371 50.045C261.702 50.3329 261.868 50.7 261.868 51.1462C261.868 51.6213 261.71 52.0244 261.393 52.3555C261.076 52.6722 260.659 52.8305 260.14 52.8305ZM265.022 66.2617V50.2393H267.721V66.2617H265.022Z" fill="white"/>
<ellipse opacity="0.1" cx="26.522" cy="392.243" rx="173.748" ry="208.091" fill="#242736"/>
<ellipse opacity="0.08" cx="314.478" cy="-53.4037" rx="173.748" ry="208.091" fill="#242736"/>
<path d="M43.489 279.939L45.1454 266.457H46.1854L44.5291 279.939H43.489ZM36.1894 276.28V275.221H47.8418V276.28H36.1894ZM38.4814 279.939L40.1377 266.457H41.1971L39.5214 279.939H38.4814ZM36.8057 271.176V270.117H48.4581V271.176H36.8057ZM49.08 279.939L55.2433 266.457H56.6493L62.8126 279.939H61.3103L55.6478 267.286H56.2256L50.5631 279.939H49.08ZM51.5068 276.338L51.9306 275.182H59.7695L60.1932 276.338H51.5068ZM65.4085 279.939V267.035L66.0248 267.69H62.2305V266.457H66.7952V279.939H65.4085ZM72.387 279.939L78.2036 267.074L78.6273 267.69H70.2876L71.0002 267.016V270.213H69.6328V266.457H79.5325V267.44L73.8893 279.939H72.387ZM86.1255 280.055C85.047 280.055 84.116 279.901 83.3328 279.593C82.5624 279.285 81.9653 278.842 81.5416 278.264C81.1307 277.673 80.9253 276.98 80.9253 276.184C80.9253 275.413 81.1243 274.758 81.5223 274.219C81.9332 273.667 82.5239 273.243 83.2943 272.948C84.0775 272.653 85.0213 272.505 86.1255 272.505C87.2169 272.505 88.1543 272.653 88.9375 272.948C89.7208 273.243 90.3178 273.667 90.7287 274.219C91.1524 274.758 91.3643 275.413 91.3643 276.184C91.3643 276.98 91.1524 277.673 90.7287 278.264C90.305 278.842 89.7015 279.285 88.9183 279.593C88.135 279.901 87.2041 280.055 86.1255 280.055ZM86.1255 278.88C87.3197 278.88 88.2506 278.636 88.9183 278.148C89.5988 277.66 89.939 276.999 89.939 276.164C89.939 275.33 89.5988 274.675 88.9183 274.2C88.2506 273.712 87.3197 273.468 86.1255 273.468C84.9314 273.468 84.0005 273.712 83.3328 274.2C82.6651 274.675 82.3313 275.33 82.3313 276.164C82.3313 276.999 82.6651 277.66 83.3328 278.148C84.0005 278.636 84.9314 278.88 86.1255 278.88ZM86.1255 273.295C85.124 273.295 84.2701 273.16 83.5639 272.89C82.8706 272.621 82.3377 272.235 81.9653 271.735C81.593 271.221 81.4068 270.611 81.4068 269.905C81.4068 269.16 81.5994 268.525 81.9846 267.998C82.3826 267.459 82.9348 267.048 83.641 266.765C84.3472 266.483 85.1754 266.342 86.1255 266.342C87.0757 266.342 87.9039 266.483 88.6101 266.765C89.3291 267.048 89.8877 267.459 90.2857 267.998C90.6838 268.525 90.8828 269.16 90.8828 269.905C90.8828 270.611 90.6966 271.221 90.3242 271.735C89.9519 272.235 89.4062 272.621 88.6871 272.89C87.9809 273.16 87.1271 273.295 86.1255 273.295ZM86.1255 272.37C87.1784 272.37 88.0002 272.152 88.5908 271.715C89.1815 271.279 89.4768 270.695 89.4768 269.963C89.4768 269.192 89.1686 268.595 88.5523 268.171C87.9488 267.735 87.1399 267.517 86.1255 267.517C85.1112 267.517 84.3022 267.735 83.6987 268.171C83.0953 268.595 82.7935 269.186 82.7935 269.943C82.7935 270.688 83.0824 271.279 83.6602 271.715C84.2509 272.152 85.0726 272.37 86.1255 272.37ZM95.7498 272.987H102.876V274.219H95.7498V272.987ZM95.9038 279.939H94.4786V266.457H103.723V267.69H95.9038V279.939ZM108.03 279.939L113.846 267.074L114.27 267.69H105.93L106.643 267.016V270.213H105.275V266.457H115.175V267.44L109.532 279.939H108.03Z" fill="white"/>
<path d="M134.858 279L136.515 265.518H137.555L135.898 279H134.858ZM127.559 275.341V274.281H139.211V275.341H127.559ZM129.851 279L131.507 265.518H132.566L130.891 279H129.851ZM128.175 270.237V269.177H139.827V270.237H128.175ZM141.181 275.456V274.455L148.327 265.518H149.867L142.78 274.455L142.029 274.223H152.872V275.456H141.181ZM148.789 279V275.456L148.827 274.223V271.103H150.176V279H148.789ZM161.383 279.116C160.369 279.116 159.431 278.949 158.571 278.615C157.711 278.268 156.966 277.787 156.337 277.17C155.708 276.554 155.213 275.828 154.854 274.994C154.507 274.159 154.334 273.248 154.334 272.259C154.334 271.27 154.507 270.359 154.854 269.524C155.213 268.689 155.708 267.964 156.337 267.348C156.979 266.731 157.73 266.256 158.59 265.922C159.451 265.576 160.388 265.402 161.402 265.402C162.378 265.402 163.296 265.569 164.157 265.903C165.017 266.224 165.742 266.712 166.333 267.367L165.428 268.272C164.876 267.707 164.266 267.303 163.598 267.059C162.93 266.802 162.211 266.673 161.441 266.673C160.632 266.673 159.881 266.815 159.187 267.097C158.494 267.367 157.891 267.758 157.377 268.272C156.863 268.773 156.459 269.363 156.164 270.044C155.881 270.712 155.74 271.45 155.74 272.259C155.74 273.068 155.881 273.813 156.164 274.493C156.459 275.161 156.863 275.751 157.377 276.265C157.891 276.766 158.494 277.157 159.187 277.44C159.881 277.71 160.632 277.844 161.441 277.844C162.211 277.844 162.93 277.716 163.598 277.459C164.266 277.202 164.876 276.791 165.428 276.227L166.333 277.132C165.742 277.787 165.017 278.281 164.157 278.615C163.296 278.949 162.372 279.116 161.383 279.116ZM173.253 279.116C172.059 279.116 171.051 278.852 170.23 278.326C169.408 277.787 168.785 277.016 168.361 276.015C167.938 275 167.726 273.787 167.726 272.374C167.726 270.847 167.982 269.569 168.496 268.542C169.023 267.502 169.748 266.718 170.672 266.192C171.597 265.666 172.669 265.402 173.889 265.402C174.492 265.402 175.07 265.46 175.622 265.576C176.174 265.691 176.662 265.877 177.086 266.134L176.528 267.251C176.181 267.02 175.783 266.86 175.333 266.77C174.884 266.667 174.409 266.616 173.908 266.616C172.457 266.616 171.295 267.078 170.422 268.002C169.562 268.927 169.132 270.307 169.132 272.143C169.132 272.426 169.145 272.779 169.17 273.203C169.209 273.614 169.286 274.024 169.401 274.435L168.92 274.069C169.061 273.402 169.337 272.837 169.748 272.374C170.159 271.899 170.672 271.54 171.289 271.296C171.905 271.052 172.579 270.93 173.311 270.93C174.21 270.93 175 271.097 175.68 271.431C176.361 271.765 176.894 272.233 177.279 272.837C177.664 273.44 177.857 274.153 177.857 274.975C177.857 275.809 177.658 276.541 177.259 277.17C176.861 277.787 176.309 278.268 175.603 278.615C174.91 278.949 174.126 279.116 173.253 279.116ZM173.196 277.941C173.838 277.941 174.403 277.825 174.89 277.594C175.391 277.35 175.783 277.01 176.065 276.573C176.348 276.124 176.489 275.604 176.489 275.013C176.489 274.127 176.181 273.421 175.565 272.895C174.961 272.368 174.139 272.105 173.099 272.105C172.406 272.105 171.802 272.233 171.289 272.49C170.775 272.747 170.371 273.1 170.075 273.549C169.78 273.986 169.632 274.487 169.632 275.052C169.632 275.54 169.767 276.008 170.037 276.458C170.307 276.894 170.705 277.254 171.231 277.536C171.77 277.806 172.425 277.941 173.196 277.941ZM184.836 279.116C183.796 279.116 182.871 278.846 182.062 278.307C181.254 277.755 180.618 276.971 180.156 275.957C179.693 274.93 179.462 273.697 179.462 272.259C179.462 270.821 179.693 269.595 180.156 268.58C180.618 267.553 181.254 266.77 182.062 266.23C182.871 265.678 183.796 265.402 184.836 265.402C185.876 265.402 186.8 265.678 187.609 266.23C188.418 266.77 189.054 267.553 189.516 268.58C189.991 269.595 190.229 270.821 190.229 272.259C190.229 273.697 189.991 274.93 189.516 275.957C189.054 276.971 188.418 277.755 187.609 278.307C186.8 278.846 185.876 279.116 184.836 279.116ZM184.836 277.844C185.632 277.844 186.325 277.633 186.916 277.209C187.507 276.772 187.969 276.143 188.303 275.321C188.637 274.487 188.804 273.466 188.804 272.259C188.804 271.052 188.637 270.038 188.303 269.216C187.969 268.381 187.507 267.752 186.916 267.328C186.325 266.892 185.632 266.673 184.836 266.673C184.066 266.673 183.379 266.892 182.775 267.328C182.172 267.752 181.703 268.381 181.369 269.216C181.035 270.038 180.868 271.052 180.868 272.259C180.868 273.466 181.035 274.487 181.369 275.321C181.703 276.143 182.172 276.772 182.775 277.209C183.379 277.633 184.066 277.844 184.836 277.844ZM193.409 279V265.518H198.898C200.336 265.518 201.594 265.807 202.673 266.385C203.764 266.95 204.612 267.739 205.215 268.754C205.819 269.768 206.121 270.936 206.121 272.259C206.121 273.581 205.819 274.75 205.215 275.764C204.612 276.779 203.764 277.575 202.673 278.153C201.594 278.718 200.336 279 198.898 279H193.409ZM194.834 277.767H198.821C200.015 277.767 201.049 277.536 201.922 277.074C202.808 276.599 203.495 275.95 203.983 275.129C204.471 274.294 204.715 273.338 204.715 272.259C204.715 271.168 204.471 270.211 203.983 269.389C203.495 268.567 202.808 267.925 201.922 267.463C201.049 266.988 200.015 266.751 198.821 266.751H194.834V277.767ZM209.321 279V265.518H214.81C216.248 265.518 217.507 265.807 218.585 266.385C219.677 266.95 220.524 267.739 221.128 268.754C221.731 269.768 222.033 270.936 222.033 272.259C222.033 273.581 221.731 274.75 221.128 275.764C220.524 276.779 219.677 277.575 218.585 278.153C217.507 278.718 216.248 279 214.81 279H209.321ZM210.746 277.767H214.733C215.927 277.767 216.961 277.536 217.834 277.074C218.72 276.599 219.407 275.95 219.895 275.129C220.383 274.294 220.627 273.338 220.627 272.259C220.627 271.168 220.383 270.211 219.895 269.389C219.407 268.567 218.72 267.925 217.834 267.463C216.961 266.988 215.927 266.751 214.733 266.751H210.746V277.767Z" fill="white"/>
</g>
<defs>
<linearGradient id="paint0_linear_2293_4323" x1="165.325" y1="-54.0207" x2="185.489" y2="366" gradientUnits="userSpaceOnUse">
<stop stop-color="#A178F7"/>
<stop offset="1" stop-color="#4C60DD"/>
</linearGradient>
<linearGradient id="paint1_linear_2293_4323" x1="45.3111" y1="62.7093" x2="71.069" y2="62.7093" gradientUnits="userSpaceOnUse">
<stop offset="0.4148" stop-color="white"/>
<stop offset="0.9715" stop-color="#D1D1D1"/>
</linearGradient>
<clipPath id="clip0_2293_4323">
<rect width="328.386" height="325.839" fill="white"/>
</clipPath>
</defs>
</svg>
