<svg width="120" height="369" viewBox="0 0 120 369" fill="none" xmlns="http://www.w3.org/2000/svg">
<path d="M40.9127 368.747C39.506 368.47 37.8573 367.78 37.23 367.211C36.4729 366.521 36.6118 365.137 37.5571 364.061C39.1924 362.189 43.0677 361.145 48.5021 361.104C50.4331 361.086 52.7672 361.176 53.6812 361.284L55.3478 361.49L55.2044 360.432C54.8057 357.413 57.9821 341.696 66.4541 304.892C71.0149 285.054 71.6062 282.361 74.4511 268.415C76.8122 256.838 79.9348 242.407 80.9474 238.415C81.6373 235.683 81.6418 235.615 81.3371 230.911C81.1669 228.304 80.925 212.641 80.7906 196.105C80.6427 177.969 80.3873 162.015 80.132 155.891C79.4196 138.495 79.1687 133.293 79.0164 132.805C78.9089 132.46 78.7566 132.411 78.4116 132.603C77.4842 133.118 72.1931 133.795 64.5769 134.364C60.818 134.646 51.8757 134.857 36.7462 135.027C12.979 135.291 9.26047 135.399 8.81694 135.838C8.47645 136.183 7.6521 136.205 7.45049 135.878C7.23096 135.533 7.75514 113.993 8.24348 102.537C8.62877 93.7245 8.93342 88.2945 10.5194 61.6466C10.8196 56.6512 11.1959 48.6676 11.3482 43.9052C11.7111 32.9378 11.7873 32.3957 13.0104 32.3957C13.5032 32.3957 13.5166 32.6242 13.3688 38.417C13.0865 49.5368 12.6878 59.8321 12.2935 66.2477C10.9674 87.6225 10.4522 97.7969 9.86977 114.185C9.64576 120.363 9.38591 127.353 9.29183 129.714C9.11711 133.849 9.12607 134.006 9.62336 133.867C10.8778 133.495 15.5416 133.369 35.671 133.132C49.6221 132.971 59.138 132.742 62.8251 132.473C73.8105 131.689 78.7521 131.214 78.9223 130.941C79.1598 130.556 79.5272 115.897 79.3121 115.543C79.2135 115.39 78.3444 115.265 77.3677 115.265C70.6385 115.265 62.0635 112.362 55.1238 107.738C46.8893 102.25 42.4539 96.3364 40.1735 87.8017C39.6538 85.8439 39.5956 84.9434 39.609 79.2446C39.6225 73.7341 39.6986 72.502 40.2183 70.0379C42.7944 57.8698 49.6311 47.6103 57.9597 43.399C59.6084 42.5612 65.9747 40.2001 70.8984 38.5918C71.772 38.3095 73.7343 37.848 75.2531 37.5748C77.7127 37.1357 78.201 36.9431 79.7422 35.8499C84.0655 32.781 89.8136 30.411 92.9094 30.4244C94.5312 30.4244 95.7005 30.868 94.8179 31.1368C88.2455 33.1708 85.7635 34.125 83.062 35.6797C81.9599 36.3024 81.0638 36.8983 81.0638 36.9879C81.0638 37.0819 82.5916 37.288 84.4598 37.4493L87.8602 37.736L89.8494 36.961C92.0985 36.0873 96.1575 35.0345 99.1637 34.5462C101.305 34.1967 106.914 34.3625 107.335 34.7836C107.712 35.16 106.959 35.5766 105.651 35.711C100.853 36.2173 91.6101 37.9825 91.0994 38.4932C91.0367 38.5604 91.2114 38.6948 91.4936 38.7889C102.165 42.5388 111.26 50.4686 115.682 59.8904C118.321 65.5085 119.486 70.5979 119.49 76.5386C119.504 82.7302 118.608 86.7803 116.031 92.2281C113.092 98.4152 108.384 104.266 103.505 107.792C97.7838 111.923 90.3019 114.71 83.5279 115.225L81.1982 115.404V133.271L82.0629 136.044C83.8595 141.792 88.259 163.454 89.6926 173.628C92.0223 190.133 92.9094 201.884 95.1046 245.127C95.5527 253.912 96.041 262.756 96.1888 264.777C96.3412 266.793 96.4621 268.58 96.4621 268.742C96.4621 268.921 96.9549 269.037 97.6538 269.024C100.127 268.992 102.663 271.439 104.836 275.977C106.453 279.351 106.807 281.098 106.677 285.072C106.556 288.781 106.117 290.143 104.679 291.272C102.658 292.863 100.754 290.959 98.4603 285.045C97.2596 281.954 95.7946 277.254 95.3421 275.05C95.1584 274.158 94.903 273.423 94.7731 273.423C94.6477 273.423 94.6208 272.603 94.7193 271.595C94.8134 270.592 94.7641 269.221 94.6073 268.549C94.2265 266.838 93.8636 261.538 93.0886 246.072C90.1182 187.189 89.1998 178.395 82.829 147.898C82.3004 145.367 81.8031 143.172 81.7314 143.024C81.5925 142.728 81.7314 147.007 82.1704 156.836C82.3228 160.259 82.5468 176.168 82.6767 192.176C82.9186 223.797 83.3129 235.512 84.3254 241.063C84.6256 242.698 85.5888 247.515 86.4669 251.762C90.3198 270.395 90.9202 274.387 96.1978 316.218C99.1771 339.859 100.015 345.997 101.516 355.432L102.524 361.754L103.214 361.602C106.811 360.818 109.047 360.589 112.134 360.683C114.956 360.768 115.7 360.88 116.632 361.373C117.855 362.018 118.083 362.39 118.083 363.743C118.083 365.065 116.255 366.597 113.693 367.426C112.062 367.95 111.17 368.058 108.352 368.053C104.473 368.053 102.362 367.538 101.014 366.279C100.293 365.602 100.203 365.365 100.311 364.357C100.382 363.725 100.145 361.557 99.7954 359.545C98.6484 352.977 96.8026 339.492 93.9129 316.621C89.5313 281.85 88.3889 273.706 86.4535 263.267C84.3971 252.196 82.2018 241.605 82.0495 242.009C81.8031 242.667 78.8282 256.744 76.4672 268.415C73.806 281.55 72.7711 286.286 68.5911 304.435C64.5993 321.809 60.6523 339.73 59.2097 347.086C57.4669 355.952 56.4723 361.167 56.4723 361.418C56.4723 361.543 56.7725 361.732 57.1443 361.826C58.5556 362.18 58.3674 364.59 56.8128 366.118C54.7161 368.156 51.3201 369.043 45.711 368.998C43.6815 368.972 41.5176 368.868 40.9127 368.747ZM49.1786 367.139C51.9115 366.848 54.949 365.947 55.6793 365.217C55.9705 364.93 56.1856 364.42 56.1766 364.079C56.1497 363.622 56.1094 363.591 56.0153 363.945C55.9526 364.209 55.7107 364.42 55.4911 364.42C55.2179 364.42 55.1372 364.254 55.2492 363.913C55.4598 363.246 54.7743 363.125 49.7207 362.901C45.4646 362.713 42.0821 363.143 39.7882 364.155C35.9756 365.835 42.3777 367.874 49.1786 367.148V367.139ZM113.621 365.611C116.542 364.881 117.165 363.882 115.324 362.879C114.038 362.171 107.492 362.184 104.437 362.901C103.25 363.174 102.188 363.456 102.071 363.524C101.605 363.801 102.479 364.662 103.81 365.231C106.242 366.283 110.342 366.445 113.621 365.62V365.611ZM104.535 288.468C104.97 286.756 104.912 283.029 104.428 281.129C103.805 278.692 101.776 274.817 100.199 273.038C98.8859 271.56 97.2685 270.525 96.7623 270.838C96.0007 271.309 99.2846 282.057 101.664 286.832C102.416 288.347 103.456 289.677 103.881 289.677C104.078 289.677 104.37 289.14 104.535 288.468ZM88.3799 112.443C96.0231 110.852 103.245 106.896 107.792 101.816C112.407 96.6679 116.273 88.747 116.995 82.9811C117.313 80.4005 117.331 74.3165 117.017 72.3407C116.744 70.5845 115.507 65.97 114.84 64.1465C112.577 58.0804 108.034 51.9964 102.524 47.6775C97.2461 43.5334 88.7518 39.555 86.7805 40.2897C86.4535 40.4062 85.4678 40.9976 84.5852 41.5935C83.7071 42.1938 82.7977 42.6821 82.5647 42.6821C81.7493 42.6821 82.157 41.6383 83.3935 40.5451C84.0879 39.9313 84.4867 39.434 84.2761 39.434C84.07 39.4295 82.5602 39.3579 80.9294 39.2727L77.9546 39.1159L76.2074 40.9035C75.2441 41.8802 74.3033 42.6821 74.1106 42.6821C73.4745 42.6821 73.7612 41.3605 74.6079 40.3928L75.4413 39.434L74.6707 39.4385C73.7657 39.4385 69.6708 40.1419 68.497 40.5003C67.7264 40.7288 67.7444 40.7422 68.9047 40.7691C69.5767 40.796 70.3025 40.917 70.522 41.0558C71.3598 41.5845 70.2756 41.9698 67.3591 42.1714C58.1255 42.8121 50.6884 48.6049 45.6662 59.0705C43.1752 64.2675 42.0552 68.5908 41.5848 74.8631C41.0023 82.6048 41.979 88.187 44.8508 93.5229C48.2915 99.9161 54.958 105.664 63.3941 109.517C67.1082 111.215 70.41 112.174 75.1187 112.917C75.4861 112.976 77.9233 113.043 80.5217 113.061C84.5628 113.083 85.7098 113.003 88.3799 112.443ZM76.2029 96.1438C67.937 95.6823 63.0626 94.6564 58.9095 92.4969C57.7939 91.9145 56.544 91.1305 56.1363 90.7452C54.7922 89.4997 55.4911 88.1288 56.983 89.1055C58.7572 90.2748 63.3045 92.246 65.3878 92.7568C68.7658 93.5811 71.1313 93.8634 77.0631 94.1367C86.5296 94.5712 93.3932 93.9216 99.8222 91.9727C101.292 91.5247 102.869 91.1618 103.312 91.1618H104.123L103.474 91.8787C102.219 93.2451 97.5329 94.7773 91.9865 95.6465C89.379 96.0452 79.8766 96.3543 76.2029 96.1438ZM64.4559 75.2931C62.4623 73.295 63.1119 67.6545 65.5625 65.7235C67.1978 64.4377 68.5105 64.729 69.411 66.5793C70.7281 69.3077 69.8231 73.5414 67.592 75.0557C66.4765 75.8218 65.0876 75.9249 64.4559 75.2931ZM85.8621 75.0423C84.8092 74.4554 84.3075 73.295 84.3075 71.4537C84.3075 69.0209 84.9616 67.202 86.3907 65.6743C87.3764 64.6125 87.7975 64.3526 88.5054 64.3526C90.3154 64.3526 91.2965 66.6196 90.9829 70.0738C90.6469 73.7968 88.0842 76.2833 85.8621 75.0423ZM57.8253 60.6117C57.8253 58.0356 67.1485 54.2499 70.643 55.4102C72.3858 55.9882 71.9378 56.2928 68.6314 56.7767C64.0482 57.4622 59.9847 59.0392 58.9005 60.5579C58.1837 61.5749 57.8253 61.5928 57.8253 60.6162V60.6117ZM97.2327 56.8036C96.6234 56.0867 92.5957 54.7024 90.4542 54.4784C88.4561 54.2678 88.1335 54.0662 88.8369 53.4569C89.5358 52.8431 90.8261 52.6997 92.7167 53.0044C94.9971 53.3673 96.3188 54.1648 97.2865 55.7463C97.7255 56.4586 98.0884 57.1037 98.0884 57.1799C98.0884 57.4756 97.6404 57.2785 97.2327 56.8036ZM2.56713 37.4045C1.97127 37.1939 1.15588 36.6474 0.739225 36.1949C0.116484 35.4915 0 35.1286 0 33.8159C0.00896087 29.7972 3.74541 26.1504 8.53917 25.5008L9.91457 25.3126L10.0893 21.7419C10.4746 13.588 12.3876 5.88665 14.9951 1.9486C16.2853 -0.000267841 17.7504 -0.587168 18.2297 0.644874C18.5792 1.5633 18.3821 11.4286 17.9564 14.5289C17.4905 17.9069 16.0524 25.1244 15.0712 29.0132C14.5919 30.8949 14.3454 31.4638 13.9467 31.54C13.6689 31.5938 13.3374 31.4683 13.2075 31.2712C12.9297 30.8232 13.0104 30.2632 14.332 24.1343C16.0255 16.2851 16.5049 12.8981 16.6751 7.71903C16.8543 2.1278 16.6438 1.57227 15.3938 4.33652C13.539 8.43586 12.3428 14.2511 11.8634 21.5134C11.6977 23.9999 11.4423 26.3565 11.2989 26.7552C10.9808 27.6064 10.3491 27.9245 9.82497 27.4899C9.25151 27.0106 6.77847 27.3376 5.29554 28.0813C2.76425 29.3447 1.14244 32.2031 1.90406 34.0489C2.37896 35.2003 3.96493 35.9037 6.10645 35.9081C7.96571 35.9081 10.0669 35.366 10.833 34.6761C11.7246 33.8652 11.4781 34.9449 10.5149 36.0381C9.09471 37.6644 5.18801 38.3364 2.56713 37.4045Z" fill="#4E6A03"/>
</svg>
