<svg width="180" height="247" viewBox="0 0 180 247" fill="none" xmlns="http://www.w3.org/2000/svg">
<path d="M37.6395 246.895C39.2151 246.5 39.4752 245.648 38.3899 244.443C37.0834 242.996 33.9083 241.863 30.5748 241.651C29.5195 241.588 28.9126 241.477 29.062 241.385C29.1966 241.295 29.4776 241.22 29.6869 241.22C30.4014 241.22 31.5106 240.814 31.8993 240.425C32.1922 240.135 32.258 239.899 32.1713 239.453C32.0069 238.634 31.4 238.057 30.2489 237.63C29.2474 237.253 26.8257 236.84 26.6553 237.017C26.6015 237.068 26.5597 237.34 26.5597 237.621C26.5597 238.105 26.6135 238.135 27.7466 238.246C29.1577 238.386 30.1383 238.649 30.6436 239.02C30.9964 239.286 30.9784 239.31 30.2848 239.603C29.8812 239.773 28.8408 239.962 27.9618 240.024L26.3713 240.135V240.769C26.3713 241.298 26.4431 241.409 26.7959 241.427C27.2054 241.448 27.2054 241.451 26.751 241.597C26.4909 241.681 26.0903 241.759 25.869 241.767C25.4654 241.791 25.4595 241.747 25.5462 239.462C25.594 238.186 25.7554 235.947 25.9019 234.488C26.6703 227.115 26.7959 223.85 26.7959 212.11C26.7959 200.088 26.6733 194.578 25.881 170.771C25.6179 162.95 25.3578 151.553 25.304 145.454C25.2382 138.677 25.1216 134.067 25.002 133.603C24.8824 133.155 24.7808 129.779 24.7449 125.352C24.6433 111.47 23.3966 97.954 20.3979 78.1443C20.3381 77.7735 20.7088 78.6256 21.2171 80.0308C21.7253 81.4389 23.0169 84.8113 24.0872 87.5229C25.1545 90.2346 26.5656 93.903 27.2234 95.6788C27.8781 97.4487 28.7242 99.6671 29.1039 100.609C29.4806 101.545 29.8274 102.498 29.8663 102.723C29.9799 103.35 30.2998 103.856 30.8469 104.286C31.4149 104.732 31.678 104.66 31.678 104.056C31.678 103.712 32.1982 103.377 34.8112 102.068L37.9384 100.492L37.4392 99.8375C37.1671 99.4787 36.8652 99.1858 36.7725 99.1858C36.6828 99.1858 35.3673 99.8315 33.8575 100.624L31.104 102.065L30.802 101.335C30.6346 100.935 29.7885 98.7313 28.9245 96.4352C28.0605 94.1421 26.5238 90.1748 25.5163 87.6156C24.5087 85.0624 23.268 81.8515 22.7657 80.4822C21.8868 78.0845 20.4397 73.6567 20.5892 73.8062C20.6311 73.8451 21.2081 74.7808 21.8778 75.884C24.0513 79.4687 27.1068 83.8097 34.8023 94.2528C41.1584 102.881 43.9298 106.555 45.4994 108.454L47.1288 110.424L49.5923 110.316C51.4489 110.242 52.594 110.08 54.2353 109.653C56.4656 109.082 60.0353 107.766 61.8112 106.869C62.3583 106.594 62.8367 106.397 62.8755 106.436C62.9114 106.475 62.454 107.058 61.8501 107.73C60.3253 109.428 57.3685 113.058 57.1024 113.557C56.92 113.898 56.947 114.03 57.2669 114.35C57.4791 114.562 57.7631 114.735 57.9007 114.735C58.2176 114.735 58.8364 115.429 59.1264 116.11C59.3417 116.613 59.8051 116.774 60.2147 116.487C60.3253 116.409 61.0697 115.536 61.871 114.544C62.6692 113.554 63.9937 112.024 64.8099 111.148L66.2957 109.551L66.9296 109.772C68.7353 110.403 70.7414 109.623 72.6668 107.542C74.8523 105.18 75.7821 102.319 75.0496 100.22L74.7805 99.4489L76.4368 97.6909C77.8988 96.1303 78.1349 95.9539 78.4698 96.1333C79.4444 96.6535 80.6881 96.3336 82.3564 95.1407C82.748 94.8597 82.9125 94.8357 83.2503 95.0151C84.3655 95.6131 91.2507 94.2139 94.8533 92.6563C96.7817 91.8221 99.8491 89.9775 101.556 88.6291C103.389 87.1821 106.391 84.1715 107.628 82.5331C109.82 79.6421 112.131 75.2562 113.33 71.7164C113.88 70.099 114.023 69.3665 114.062 68.0451C114.083 67.1392 114.161 66.311 114.23 66.2004C114.382 65.9523 113.659 64.293 113.395 64.293C113.138 64.293 112.932 65.1361 113.064 65.6384C113.276 66.4515 112.824 69.235 112.155 71.244C111.374 73.579 109.781 76.9574 108.705 78.5449C106.343 82.0309 103.619 85.176 101.344 87.0446C96.6083 90.9282 90.9338 93.308 84.799 93.9837L83.6061 94.1122L82.2368 92.8057C81.4864 92.0852 80.4221 91.1016 79.8749 90.6173C79.3308 90.13 78.8794 89.7084 78.8824 89.6725C78.8824 89.6367 79.5939 89.5948 80.4609 89.5769C81.7824 89.5559 82.4311 89.4214 84.3924 88.7487C87.3342 87.7442 88.6437 87.1104 91.6753 85.2239C98.1868 81.1698 104.298 74.9901 106.932 69.7881C108.693 66.311 109.013 65.172 109.189 61.7368L109.306 59.4676L110.34 60.7891C111.766 62.6098 113.004 63.9073 113.315 63.9073C113.859 63.9073 113.518 63.1838 112.194 61.5215C111.44 60.5708 110.155 58.9235 109.344 57.8592C108.504 56.7649 107.64 55.8381 107.35 55.7215C107.072 55.6079 106.57 55.3956 106.241 55.2551C103.628 54.125 100.008 54.8246 96.0701 57.2134C94.4587 58.191 90.0997 61.2435 88.261 62.6786C86.7632 63.8535 82.0245 68.5264 80.6822 70.1528C79.4534 71.6447 77.5011 74.7539 76.2993 77.1188C75.223 79.2325 75.1034 79.394 74.8224 79.1159C74.5593 78.8498 74.5204 78.8468 74.5204 79.092C74.5204 79.2505 74.6191 79.4777 74.7386 79.6002C74.9091 79.7647 74.8732 80.1743 74.5981 81.2984C74.0779 83.439 74.1437 85.3255 74.7925 86.7247C75.2529 87.7173 75.2738 87.8668 75.0197 88.1478C74.8672 88.3212 74.646 88.7039 74.5294 89.0028L74.3261 89.541L73.2408 88.5933C72.6399 88.079 71.6503 87.1672 71.0374 86.5812C70.4245 85.9922 69.8834 85.5497 69.8326 85.5976C69.6502 85.7859 71.5307 88.1657 72.8073 89.3646C73.9972 90.4857 74.1258 90.6711 74.0271 91.1644C73.9434 91.5859 74.0331 91.852 74.3889 92.2676L74.8582 92.8117L73.3604 94.483C72.5382 95.4008 71.7729 96.3007 71.6563 96.4831C71.4829 96.7641 71.2317 96.806 70.1285 96.7432C66.7562 96.5518 63.5632 98.0527 62.3493 100.394C61.8859 101.293 61.7155 102.959 61.9726 104.068L62.158 104.878L61.0219 105.455C59.2221 106.364 56.2234 107.488 53.9632 108.092C51.703 108.699 48.3366 109.168 47.5802 108.977C47.0301 108.839 42.7339 103.156 29.1069 84.5751C25.9587 80.2819 22.7 75.2652 21.1961 72.407C18.9329 68.1019 18.3111 66.5263 17.5667 63.2107C17.1959 61.5604 16.583 59.073 16.2093 57.6858C15.8296 56.2985 15.5636 55.1236 15.6084 55.0757C15.6562 55.0279 16.3289 55.279 17.1003 55.6348C20.7088 57.2941 24.3204 58.0415 28.6943 58.0475C33.7768 58.0475 37.6425 57.1925 42.0104 55.0787C48.9973 51.7034 53.7749 46.8929 55.8258 41.1826C56.8662 38.2916 56.9858 37.4007 56.9798 32.8025C56.9709 27.9562 56.6659 25.8694 55.4521 22.3326C52.8869 14.8404 48.2111 9.27656 42.5815 7.0014L41.251 6.46923L41.9177 6.19418C42.6951 5.87129 44.1899 5.57232 45.8492 5.4049C49.1498 5.07902 53.7241 6.54696 58.0472 9.31841C58.8394 9.82367 59.5839 10.2392 59.7035 10.2392C60.1459 10.2392 59.9038 9.66821 59.1683 8.95965C57.5718 7.42294 53.5028 5.35108 50.4982 4.54087C47.2603 3.66489 42.9582 3.91603 40.2316 5.13881L38.9161 5.72479L36.8622 4.97737C35.7321 4.56479 34.3598 4.11933 33.8097 3.98778C33.2655 3.86221 32.8141 3.68283 32.8141 3.59314C32.8141 3.36592 34.3209 2.5019 35.4779 2.0654C37.7471 1.20437 40.7757 1.23427 44.3842 2.15509C48.0107 3.07891 48.4323 2.98025 46.3216 1.70365C43.8013 0.178904 38.6769 -0.454912 35.469 0.352307C33.5077 0.851587 31.971 1.73953 31.4239 2.69922L31.0143 3.41077L28.3624 3.4317C26.9035 3.45561 25.4086 3.48551 25.0439 3.52438C22.3113 3.80541 19.6564 4.65747 16.6279 6.22407C9.56323 9.88048 4.78868 15.247 2.41187 22.204C1.26981 25.5555 0.92897 27.5556 0.923004 30.91C0.920013 35.3318 1.50301 37.9717 3.36259 41.8912C5.47331 46.3578 8.78291 50.4058 12.4303 52.9949L14.1913 54.2416L14.7743 56.463C18.2812 69.8419 21.7074 93.2094 23.0527 112.926C23.2082 115.222 23.4175 121.653 23.5161 127.217C23.6776 136.485 23.6597 137.729 23.3278 141.918C22.0063 158.543 21.525 169.65 21.0556 194.183C20.8523 205.111 20.652 210.343 20.1976 216.75C19.8179 222.152 19.0735 229.558 18.5921 232.703C18.3828 234.096 18.1616 236.093 18.1108 237.133C18.0151 238.981 18.0271 239.05 18.5413 239.77C19.2917 240.823 20.2933 241.286 21.9914 241.376C23.3876 241.442 23.3936 241.442 23.274 240.996C23.2082 240.748 23.1544 240.443 23.1514 240.311C23.1514 240.144 22.7837 240.072 21.9615 240.072C20.6819 240.072 19.4532 239.612 19.4532 239.131C19.4532 238.769 20.5803 238.443 22.4279 238.267L23.8869 238.132L23.7762 237.54C23.7105 237.211 23.6447 236.921 23.6238 236.891C23.567 236.826 20.5833 237.172 19.7551 237.343L19.1063 237.48L19.2319 236.739C19.7461 233.647 20.9121 225.237 21.1453 222.911C21.9495 214.935 22.3292 206.878 22.5804 192.195C22.8644 175.623 23.2979 161.978 23.6985 157.015L23.8301 155.401L23.9616 157.966C24.0872 160.337 24.5506 174.338 25.0738 191.624C25.1964 195.589 25.298 205.23 25.307 213.054C25.3189 226.11 25.286 227.686 24.9064 232.299C24.129 241.711 24.132 242.921 24.9452 242.921C25.0947 242.921 25.4176 243.325 25.6657 243.818C26.1531 244.805 27.1456 245.597 28.3385 245.95C30.814 246.695 36.2433 247.242 37.6395 246.892V246.895ZM30.7303 245.197C28.0993 244.724 26.8706 244.189 26.7869 243.469C26.7121 242.835 27.047 242.742 29.3371 242.736C32.1624 242.736 35.4749 243.51 37.0475 244.554C37.6216 244.937 37.7292 245.086 37.5558 245.295C37.4362 245.439 37.1073 245.597 36.8323 245.648C35.8995 245.816 32.9367 245.594 30.7303 245.197ZM59.1683 114.269C58.9381 113.829 58.9889 113.707 59.9636 112.415C60.9352 111.13 63.4944 108.041 63.7216 107.883C63.7724 107.844 64.0923 108.026 64.4272 108.286L65.0371 108.765L63.4735 110.373C62.6154 111.258 61.4106 112.604 60.8007 113.357C60.1878 114.113 59.6317 114.732 59.554 114.732C59.4822 114.732 59.3088 114.523 59.1683 114.269ZM66.2569 108.167C65.2613 107.7 63.9548 106.128 63.6229 105.01C62.6453 101.715 64.5677 99.1768 68.7084 98.3008C71.2616 97.7597 73.3425 98.4353 73.9374 100.002C74.9689 102.711 71.9552 107.375 68.4543 108.496C67.8623 108.684 67.1 108.573 66.2569 108.167ZM73.3993 97.5893L72.9717 97.1348L74.3649 95.4008L75.7522 93.6698L76.389 94.3574L77.0228 95.048L76.389 95.7416C74.6968 97.5922 74.2364 98.0437 74.0391 98.0437C73.9254 98.0437 73.6355 97.8404 73.3993 97.5893ZM78.3054 94.9583C77.6476 94.3873 75.6565 92.0015 76.1348 92.3543C76.3381 92.5098 76.9181 92.9762 77.4204 93.3828C78.2366 94.0614 78.3502 94.1033 78.6163 93.8402C78.8824 93.5741 78.7419 93.4037 77.1902 92.0852C76.2455 91.281 75.4711 90.5904 75.4711 90.5455C75.4711 90.2406 76.1139 88.943 76.2664 88.943C76.4697 88.943 80.1052 92.1032 81.1097 93.1585L81.7286 93.8013L81.301 94.196C80.7778 94.6773 79.4564 95.3769 79.0707 95.3769C78.9123 95.3769 78.5685 95.1885 78.3054 94.9583ZM79.3906 88.2315C79.3428 88.1568 79.2411 87.789 79.1694 87.4273L79.0289 86.7636L79.6746 87.3764C80.0274 87.7173 80.3802 87.9953 80.452 87.9953C80.7898 87.9953 80.5207 87.5379 79.7823 86.8532C78.8375 85.9713 79.0438 85.8308 80.0185 86.6918C80.5925 87.1971 80.6911 87.2329 80.7509 86.934C80.7838 86.7516 80.6971 86.5035 80.5476 86.3928C79.5461 85.6394 79.2202 85.3165 79.3428 85.194C79.4205 85.1162 79.6866 85.3076 79.9347 85.6185C80.3055 86.0819 80.428 86.1417 80.6283 85.9354C80.8287 85.7351 80.742 85.5707 80.159 85.0654C79.7344 84.6947 79.4504 84.2731 79.4504 84.022C79.4504 83.6005 79.4504 83.6005 80.0334 84.0908C80.8586 84.7844 81.0888 84.5033 80.4011 83.6393C79.7165 82.7753 79.6268 82.2401 80.2666 82.8381C81.029 83.5586 81.2562 83.2088 80.5865 82.3567C80.1978 81.8634 80.0753 81.1668 80.3772 81.1668C80.4669 81.1668 80.6822 81.3791 80.8526 81.6422C81.023 81.9023 81.2921 82.1146 81.4445 82.1146C81.8183 82.1146 81.8033 82.0339 81.2323 81.0562C80.6074 79.9919 80.739 79.367 81.4236 80.1623C81.9169 80.7363 82.3295 80.6287 81.9558 80.0218C81.8272 79.8215 81.7256 79.5285 81.7256 79.37C81.7256 79.2116 81.594 79.08 81.4356 79.08C81.1814 79.08 81.1844 79.0023 81.4625 78.4671L81.7764 77.8572L81.9498 78.3266C82.1352 78.8199 83.2055 80.0308 83.4656 80.0308C83.7974 80.0308 83.5732 79.3312 83.044 78.7093C82.7331 78.3476 82.482 77.9469 82.482 77.8244C82.482 77.6958 82.3773 77.5613 82.2458 77.5134C82.0574 77.4536 82.0664 77.3311 82.2697 76.9424L82.5298 76.4551L83.0052 77.0201C83.334 77.4118 83.5433 77.5254 83.6778 77.3909C83.8154 77.2533 83.7765 77.0829 83.5612 76.8408C83.3848 76.6494 83.2413 76.3803 83.2413 76.2488C83.2413 76.1143 83.1158 76.0545 82.9633 76.1143C82.7331 76.2039 82.7271 76.1382 82.9005 75.7525C83.1546 75.1904 83.352 75.1635 83.618 75.6658C83.8662 76.1262 84.3774 76.1681 84.3774 75.7256C84.3774 75.5522 84.1951 75.2114 83.9678 74.9722L83.5642 74.5387L84.6525 72.7299C85.2564 71.7373 86.1862 70.3142 86.7214 69.5698C87.2565 68.8254 87.8245 68.0421 87.98 67.8208L88.261 67.4262L87.696 67.8298C86.6227 68.5922 84.2399 71.2082 83.2862 72.6731C82.0455 74.5775 79.8271 79.092 79.0797 81.2476C78.3083 83.457 78.0482 85.3195 78.2994 86.8712C78.407 87.5259 78.4578 88.1 78.41 88.1478C78.2246 88.3361 77.3247 87.9475 76.7298 87.4243C74.5353 85.4959 75.9256 80.4673 80.6194 73.3458C82.7839 70.0601 84.225 68.2842 86.5868 65.9732C93.1522 59.5573 102.097 55.0728 105.849 56.3105C107.314 56.7918 108.074 58.487 108.071 61.2405C108.068 63.13 107.769 64.5471 106.926 66.6578C105.299 70.7328 103.721 73.0229 99.6877 77.1487C94.961 81.983 89.2536 85.777 84.2818 87.3854C81.6269 88.2465 79.6029 88.5933 79.3906 88.2285V88.2315ZM85.4328 85.6006C85.3551 85.197 85.2205 84.4824 85.1308 84.013C84.5209 80.8051 85.2863 77.2115 87.7528 71.6865C88.9846 68.924 88.9008 69.0645 89.1131 69.4054C89.2207 69.5788 89.152 69.8299 88.9128 70.1378C88.7125 70.392 88.5481 70.7149 88.5481 70.8614C88.5481 71.3128 89.0952 71.1364 89.3822 70.5953C89.5287 70.3112 90.0011 69.7372 90.4286 69.3246C90.8531 68.9151 91.2029 68.4546 91.2029 68.3111C91.2029 68.1646 90.9817 67.782 90.7126 67.4621C90.3628 67.0465 90.2582 66.7535 90.3329 66.3947L90.4405 65.9014L90.1117 66.3768C89.9353 66.6369 89.5526 67.0764 89.2626 67.3514C88.9726 67.6295 88.7394 67.9613 88.7394 68.0929C88.7394 68.2215 88.4494 68.7656 88.0996 69.2977C87.3462 70.4338 86.7034 71.6865 85.9949 73.3936C85.7078 74.0693 85.2953 74.8227 85.071 75.0708C84.7691 75.3937 84.6585 75.7645 84.6435 76.491C84.6375 77.0291 84.5209 78.2369 84.3864 79.1787C83.9678 82.0697 84.4791 85.9713 85.3102 86.2493C85.5225 86.3211 85.5434 86.1895 85.4328 85.6006ZM89.5377 68.652C89.3433 68.341 89.3463 68.1736 89.5466 67.7909L89.7948 67.3156L90.2402 67.9195C90.6707 68.4965 90.6737 68.5324 90.3389 68.7775C89.8845 69.1094 89.8187 69.1034 89.5377 68.652ZM93.0864 80.3148C93.0924 80.0039 92.9698 79.2774 92.8114 78.7003C92.327 76.9065 92.2583 74.8287 92.614 72.5715C92.9848 70.2096 94.1597 66.1257 94.8802 64.7145C95.6994 63.0822 95.0746 63.42 94.1657 65.0912C92.9758 67.2767 92.6499 68.1019 92.1417 70.1707C91.3165 73.5341 91.6364 79.1428 92.7217 80.4523L93.0834 80.8858L93.0864 80.3148ZM101.628 72.111C101.628 71.9287 101.538 71.4832 101.428 71.1155C101.132 70.1289 101.183 66.8163 101.52 65.3573C101.87 63.8445 101.867 63.9133 101.634 63.9133C101.535 63.9133 101.215 64.6577 100.931 65.5726C100.25 67.7401 100.208 70.1707 100.824 71.546C101.227 72.4519 101.628 72.7329 101.628 72.111ZM91.9593 67.7401C91.9593 67.5099 91.6035 67.2408 91.472 67.3754C91.4241 67.4202 91.5138 67.5697 91.6693 67.7012C91.8547 67.8507 91.9593 67.8627 91.9593 67.7401ZM91.9772 66.2213C91.8756 66.03 91.6573 65.7609 91.4959 65.6294C91.0534 65.2587 91.1013 65.8506 91.5467 66.2542C92.0071 66.6668 92.2075 66.6489 91.9772 66.2213ZM90.5482 65.0823C91.8696 63.8236 96.2166 60.9924 98.4709 59.9161C100.6 58.9026 101.93 58.5797 104.432 58.4631C106.815 58.3525 107.114 58.1103 105.404 57.6768C104.582 57.4675 104.017 57.4585 102.573 57.62C99.6697 57.9578 96.8923 59.0849 94.4408 60.9236C93.1821 61.8653 88.9248 65.8088 88.9248 66.03C88.9248 66.4157 89.4868 66.0928 90.5482 65.0823ZM93.4751 64.9657C93.4751 64.6637 92.7725 64.1016 92.3898 64.1016C92.037 64.1016 92.0968 64.4275 92.5273 64.861C92.9698 65.3005 93.4751 65.3603 93.4751 64.9657ZM97.0807 63.9073C97.0807 63.6233 96.109 62.2062 95.9147 62.2062C95.5649 62.2062 95.7742 63.1928 96.2166 63.6353C96.701 64.1226 97.0807 64.2422 97.0807 63.9073ZM98.0762 62.7383C98.2078 62.6576 98.4948 62.5889 98.722 62.5889C98.9462 62.5859 99.1645 62.4483 99.1974 62.2839C99.296 61.7876 103.168 60.7382 106.887 60.1911C107.601 60.0865 107.691 59.8353 107.075 59.6679C106.441 59.4975 104.48 59.5364 103.619 59.7337C103.042 59.8682 102.8 59.8473 102.564 59.635C102.002 59.1238 101.326 59.363 101.849 59.8862C102.017 60.0506 101.942 60.1552 101.55 60.3017C100.901 60.5499 100.543 60.5529 100.393 60.3017C100.187 59.9639 99.876 60.1044 99.9777 60.4871C100.049 60.7681 99.9059 60.9684 99.4156 61.2704L98.7549 61.677L98.2078 61.2734C97.9088 61.0522 97.6158 60.8698 97.559 60.8698C97.3766 60.8698 97.4484 61.6052 97.6457 61.7248C97.9776 61.9281 97.855 62.1464 97.263 62.3885C96.9431 62.5201 96.7398 62.6815 96.8026 62.7473C96.973 62.9117 97.8012 62.9028 98.0762 62.7204V62.7383ZM22.7538 56.0594C17.4172 54.9472 12.2809 52.1339 9.12373 48.6001C6.51074 45.6731 4.03528 41.1766 3.14435 37.7415C2.66002 35.8729 2.57928 34.9162 2.59125 31.2C2.60022 27.9801 2.63908 27.6572 3.21011 25.5106C4.16682 21.926 5.14445 19.6957 7.00105 16.8823C10.4811 11.6085 17.5667 6.67552 23.5132 5.38995C27.5164 4.52593 32.7513 4.60964 36.3509 5.59923L37.2688 5.85036L36.4197 5.87428C35.9473 5.87428 35.4361 5.97294 35.2836 6.0716C34.7006 6.43933 35.451 6.71439 37.4093 6.8549C39.8728 7.0283 41.1942 7.38109 43.3588 8.44542C47.3022 10.3768 50.3068 13.6654 52.7195 18.6881C54.4685 22.3236 55.2518 25.3552 55.5836 29.747C55.9932 35.1733 55.3086 39.0689 53.2816 42.8299C52.1933 44.851 50.1544 47.4012 48.6356 48.6449L47.8344 49.2996L46.7252 48.2533C43.7803 45.4818 39.529 43.3173 35.5616 42.5728C33.6721 42.22 30.3028 41.9121 29.7855 42.0496C29.5763 42.1034 29.3999 42.3038 29.3999 42.4951C29.3999 43.0631 30.1473 43.4339 31.2953 43.4369C32.7752 43.4369 36.052 43.9301 37.7172 44.3995C40.5245 45.1918 43.8521 47.0484 46.0615 49.0515L47.0809 49.9813L45.9688 50.7646C41.5978 53.8201 37.2897 55.5601 32.0577 56.3912C31.7976 56.4331 30.0905 56.4809 28.2638 56.4899C25.4296 56.5138 24.6253 56.451 22.7538 56.0594ZM49.2156 41.5593C50.0108 41.066 50.3577 40.6355 50.8988 39.4456C51.8615 37.3468 52.011 34.103 51.1888 33.2151C50.0736 32.0252 47.9091 32.6859 46.7072 34.5844C44.9882 37.296 45.2961 40.7969 47.3261 41.646C48.1722 41.9988 48.528 41.9868 49.2156 41.5653V41.5593ZM54.3459 25.7289C54.6539 24.9246 52.6687 22.6674 50.8779 21.7855C49.6222 21.1696 46.9554 21.1367 46.1601 21.7316C45.4306 22.2728 45.2513 22.6256 45.3978 23.2086C45.5592 23.8543 46.0555 23.8603 47.0241 23.2295C48.9077 21.9828 51.3772 22.7332 53.0065 25.0472C53.6344 25.9471 54.1635 26.2192 54.3459 25.7408V25.7289ZM79.564 160.167C80.147 159.91 80.4878 159.413 80.2965 159.096C80.2397 159.007 79.3637 158.983 78.3472 159.046C76.9002 159.135 76.2574 159.09 75.3725 158.83C73.9524 158.418 70.2033 156.693 69.6412 156.193C69.0403 155.667 68.8609 155.969 69.414 156.57C70.2392 157.455 72.2243 158.753 73.7162 159.383C76.1677 160.418 78.3203 160.702 79.561 160.161L79.564 160.167ZM80.0394 155.296C80.9243 154.905 81.3339 154.361 81.1994 153.751C81.1007 153.302 80.9004 153.329 79.6746 153.93C78.2695 154.615 76.1737 154.648 74.2364 154.014C72.616 153.482 69.6113 151.93 69.3303 151.473C69.0821 151.081 68.831 151.039 68.831 151.392C68.831 151.87 70.1943 153.231 71.3453 153.909C73.2946 155.048 75.5219 155.697 77.4862 155.688C78.7508 155.688 79.3816 155.586 80.0394 155.296ZM74.7416 151.712C74.7775 151.61 75.8688 151.317 77.1723 151.051C81.1725 150.238 83.4865 148.889 90.4405 143.308C102.836 133.361 109.889 126.521 117.33 117.223C121.468 112.059 124.344 108.185 131.872 97.652C139.633 86.7905 144.611 80.3058 149.409 74.8137C152.309 71.4892 159.039 64.7953 161.718 62.556C165.401 59.4826 168.454 57.6887 170.842 57.2044C171.715 57.025 172.068 56.8636 172.116 56.6304C172.152 56.4211 172.029 56.2597 171.775 56.1939C171.554 56.1371 171.252 55.859 171.106 55.578C170.771 54.9263 169.566 54.2924 165.031 52.382C163.045 51.5419 160.145 50.2862 158.582 49.5896C157.024 48.8871 152.42 46.881 148.357 45.132C132.063 38.1242 128.649 36.5695 118.553 31.5648C114.463 29.5377 111.072 27.8814 111.016 27.8814C110.782 27.8814 110.947 28.3628 111.321 28.7634L111.727 29.1939L110.893 29.5258C105.891 31.5229 101.096 34.8175 96.6322 39.326C91.8038 44.2022 87.7289 49.5089 80.6104 60.1881C75.4562 67.9225 73.8358 70.2485 71.1719 73.7195C69.4828 75.9169 69.3691 76.0275 68.9117 75.8541C68.1852 75.5761 66.0177 75.6329 64.765 75.9588C63.1476 76.3803 61.9248 77.1128 60.7857 78.3476C59.6795 79.5434 59.1683 80.7184 59.1593 82.1026C59.1504 82.8979 59.0816 83.0175 58.3521 83.5616C57.9126 83.8905 56.355 85.2089 54.89 86.5035C50.1842 90.6502 47.2663 92.8087 42.2436 95.8582C40.9162 96.6625 39.8279 97.359 39.8279 97.4069C39.8279 97.4517 40.0223 97.7686 40.2555 98.1005C40.4917 98.4353 40.6949 98.7343 40.7069 98.7672C40.7458 98.8449 44.8447 96.3426 46.6534 95.1377C49.2156 93.4306 52.5641 90.7429 56.1248 87.5439C58.0472 85.8098 59.6736 84.3927 59.7393 84.3927C59.7961 84.3927 60.134 84.6857 60.4838 85.0475L61.1176 85.6992L59.9725 86.9908C58.0561 89.1493 52.3667 94.6295 50.256 96.3455C49.1588 97.2395 47.1766 98.815 45.8492 99.8554C44.5158 100.893 43.4305 101.829 43.4305 101.945C43.4305 102.056 43.5412 102.298 43.6787 102.48C43.9089 102.8 43.9986 102.779 45.0779 102.14C48.7372 99.996 54.9558 94.7341 59.258 90.1359C60.705 88.5933 62.1042 87.2628 62.3733 87.1731C62.6393 87.0864 63.1595 86.925 63.5243 86.8204C64.5258 86.5244 66.8219 85.0475 68.0776 83.8875C68.7772 83.2387 69.411 82.4165 69.7728 81.693C70.275 80.6885 70.3498 80.3357 70.3498 78.9874V77.4327L71.7878 75.5552C74.4277 72.12 77.6626 67.477 81.1545 62.1135C86.4074 54.0503 88.9935 50.4148 93.1343 45.2935C97.3019 40.1392 100.519 37.0748 104.752 34.2375C106.944 32.7696 110.179 31.0296 111.963 30.3599L113.019 29.9653L115.712 31.3764C123.883 35.6696 132.222 39.4217 162.669 52.5315C169.76 55.581 169.931 55.6587 169.999 55.868C170.038 55.9727 169.647 56.17 169.132 56.3015C165.494 57.2343 160.077 61.375 152.803 68.7716C145.977 75.7166 139.594 83.6154 130.915 95.8642C114.274 119.342 107.356 127.074 91.1042 140.36C85.6361 144.829 82.754 146.928 78.2695 149.703C77.0078 150.48 75.3336 151.132 74.5712 151.141C74.4457 151.141 74.0271 150.65 73.6504 150.052C72.0868 147.592 60.8605 133.923 51.1111 122.604C47.8912 118.861 42.1838 111.641 38.7965 107.019C38.1986 106.197 37.7411 105.975 37.7411 106.505C37.7411 107.079 42.6024 113.868 46.2767 118.43C47.2813 119.683 49.972 122.885 52.2442 125.546C56.2982 130.282 65.7636 141.616 69.112 145.738C73.0913 150.638 74.5712 152.211 74.7416 151.712ZM61.3538 84.6498C60.5735 83.6274 60.2237 82.5272 60.409 81.6721C61.0398 78.7601 64.176 76.6076 67.7756 76.6195C68.84 76.6195 69.0134 76.7869 69.1479 77.9051C69.3721 79.7946 68.4663 81.5376 66.4153 83.167C65.1537 84.1685 62.8217 85.5258 62.3464 85.5288C62.1729 85.5288 61.7215 85.1342 61.3538 84.6498ZM82.9394 142.45C83.1726 142.067 81.6359 140.133 77.0945 135.119C69.2197 126.413 62.2028 118.451 61.3209 117.226C61.294 117.187 61.0518 117.226 60.7857 117.321C60.3074 117.483 60.3522 117.545 62.9084 120.526C67.0611 125.37 69.4708 128.081 75.3755 134.551C78.4249 137.89 81.2711 141.065 81.7046 141.616C82.476 142.593 82.7391 142.767 82.9394 142.45ZM89.8755 138.01C89.8755 137.612 88.9098 136.228 87.6631 134.832C87.0592 134.156 84.3804 131.211 81.7166 128.29C79.0528 125.37 75.8987 121.875 74.7177 120.517C71.7041 117.073 66.5499 111.509 66.3735 111.509C66.2927 111.509 66.1223 111.638 65.9878 111.79C65.7935 112.03 66.1851 112.526 68.3945 114.873C69.8475 116.412 72.3947 119.211 74.054 121.088C75.7133 122.966 79.4534 127.086 82.3684 130.243C85.2803 133.403 88.0398 136.476 88.5002 137.071C89.3344 138.15 89.8755 138.515 89.8755 138.01ZM97.275 132.557C97.4843 132.428 96.4737 131.331 92.9758 127.872C90.4674 125.39 86.4583 121.142 84.0695 118.436C80.5506 114.439 77.7313 111.306 74.6071 107.934C74.4068 107.715 74.3291 107.742 74.1467 108.086C73.9464 108.463 74.063 108.648 75.3695 110.053C76.1588 110.905 78.8315 113.862 81.304 116.628C87.684 123.752 90.1685 126.38 93.5947 129.63C95.248 131.202 96.692 132.542 96.8026 132.608C96.9132 132.67 97.1225 132.649 97.275 132.557ZM102.857 127.059C102.794 126.954 102.704 126.867 102.659 126.867C102.612 126.867 102.573 126.954 102.573 127.059C102.573 127.166 102.665 127.247 102.776 127.247C102.887 127.247 102.923 127.166 102.857 127.059ZM102.384 126.837C102.384 126.715 101.293 125.501 99.9567 124.135C96.9401 121.049 94.7696 118.679 89.0294 112.173C84.6106 107.171 77.4533 99.7508 77.0407 99.7508C76.9241 99.7508 76.7806 99.8973 76.7118 100.077C76.6192 100.313 77.534 101.347 80.3653 104.199C82.4401 106.289 86.5569 110.729 89.5078 114.068C96.7219 122.215 101.484 127.059 102.28 127.059C102.34 127.059 102.384 126.957 102.384 126.837ZM107.616 122.293C107.7 122.156 106.603 120.99 104.734 119.232C103.078 117.668 97.3976 112.03 92.1088 106.696C83.5642 98.0796 82.467 97.0362 82.2099 97.2873C81.9588 97.5384 82.9633 98.6147 91.2567 106.959C99.305 115.061 106.373 121.881 107.225 122.368C107.365 122.449 107.539 122.416 107.616 122.293ZM113.189 115.037C113.189 114.705 103.5 105.404 94.1388 96.7521C92.1985 94.9553 91.5736 94.5667 91.3075 94.9912C91.2507 95.0869 92.8443 96.6834 94.8503 98.54C99.2661 102.63 102.354 105.524 108.214 111.085C110.663 113.405 112.786 115.303 112.932 115.303C113.07 115.303 113.189 115.184 113.189 115.037ZM117.234 107.401C117.485 107.153 117.351 106.992 116.573 106.585C115.56 106.056 112.513 103.643 101.565 94.6892C100.121 93.5113 98.8864 92.5486 98.8147 92.5486C98.4828 92.5486 98.136 92.9193 98.3124 93.0778C99.4933 94.1242 112.436 104.457 114.325 105.862C115.548 106.768 116.786 107.53 117.037 107.53C117.076 107.53 117.165 107.47 117.234 107.401ZM52.7883 107.099C52.2442 106.206 49.0362 102.37 48.9764 102.549C48.8479 102.935 49.5983 104.355 50.7344 105.868C51.6612 107.108 51.9213 107.339 52.3817 107.339C52.7733 107.339 52.8899 107.27 52.7883 107.099ZM39.801 105.342C40.3601 104.992 40.8564 104.663 40.9072 104.612C41.0537 104.469 40.5933 103.736 40.3541 103.736C39.8877 103.736 37.7292 105.312 37.783 105.611C37.8817 106.125 38.7337 106.014 39.801 105.342ZM59.4942 104.908C59.6586 104.803 58.962 103.963 57.2728 102.208C55.4013 100.259 54.8243 99.7508 54.8153 100.068C54.8004 100.561 55.7899 101.897 57.503 103.712C58.7587 105.04 59.0278 105.201 59.4942 104.908ZM120.684 100.128C120.747 100.017 120.565 99.7179 120.266 99.4578C119.853 99.102 107.44 89.7473 105.574 88.39C105.257 88.1598 105.168 88.1657 104.926 88.4169C104.68 88.662 105.425 89.2749 111.24 93.6249C120.251 100.364 120.454 100.504 120.684 100.136V100.128ZM63.8561 97.0571C64.0116 96.8687 63.6229 96.3306 62.2268 94.7969C61.0907 93.5412 60.3253 92.8416 60.2147 92.9492C59.9367 93.2094 60.5167 94.1541 61.9457 95.7715C63.2821 97.2783 63.5333 97.4487 63.8561 97.0571ZM70.9836 94.9583C71.2885 94.7401 71.2018 94.6235 70.1226 93.7505C68.4154 92.3752 65.8413 90.4588 65.6948 90.4588C65.3241 90.4588 70.1644 95.1796 70.5501 95.1975C70.6069 95.1975 70.8072 95.0899 70.9836 94.9583ZM126.457 93.2034C126.457 93.0479 126.245 92.8356 125.982 92.737C125.348 92.4948 122.939 90.8714 121.058 89.4214C113.829 83.8426 110.304 81.3074 110.143 81.5615C110.05 81.711 109.972 81.8814 109.972 81.9442C109.963 82.0787 120.953 90.3243 123.145 91.8341C125.492 93.4515 126.457 93.8521 126.457 93.2034ZM132.021 87.4871C132.362 87.1522 131.97 86.7815 129.824 85.4272C127.94 84.2343 122.777 80.7872 115.207 75.6718C114.466 75.1695 114.259 75.0948 114.122 75.31C113.859 75.7256 113.889 75.7645 115.037 76.5567C119.707 79.7587 127.48 84.9249 129.115 85.9115C130.207 86.5722 131.238 87.224 131.402 87.3645C131.743 87.6485 131.842 87.6694 132.021 87.4871ZM137.19 81.3881C137.137 81.2984 135.361 80.1264 133.247 78.7811C131.13 77.4387 128.075 75.2921 126.457 74.0155C122.989 71.2739 117.106 66.7744 116.364 66.2931C115.847 65.9553 115.847 65.9553 115.847 66.4276C115.847 66.8163 116.31 67.2378 118.451 68.7955C119.883 69.8389 122.251 71.6447 123.71 72.8047C125.169 73.9706 127.36 75.6239 128.577 76.479C131.651 78.6465 136.407 81.5495 136.888 81.5495C137.11 81.5495 137.241 81.4778 137.19 81.3881ZM141.053 75.5372C141.053 75.316 140.315 74.6732 139.017 73.7554C137.896 72.9631 135.062 70.951 132.715 69.2798C120.433 60.5499 107.637 51.7333 102.671 48.5851C100.794 47.3952 98.5905 45.9572 97.7773 45.3861C96.9641 44.8211 96.2017 44.3876 96.0881 44.4264C95.8399 44.5072 98.6891 46.5372 108.833 53.5181C120.511 61.5544 125.83 65.2407 131.292 69.0855C137.531 73.4743 140.506 75.5522 140.82 75.7375C140.972 75.8332 141.053 75.7645 141.053 75.5372ZM144.949 68.643C145.149 68.3201 144.689 67.9344 143.263 67.2468C141.481 66.3858 138.808 64.6996 135.086 62.0926C126.245 55.8919 103.395 42.1692 102.836 42.7253C102.63 42.9346 104.905 44.4264 109.491 47.0813C117.228 51.5629 127.659 58.0176 132.527 61.3302C138.557 65.4321 140.907 66.9568 142.596 67.8627C144.506 68.8882 144.748 68.9659 144.949 68.643ZM175.937 66.0121C177.578 65.5098 178.885 64.3588 179.608 62.7862C179.901 62.1434 180.003 61.5514 180 60.4991C179.991 59.0102 179.728 58.2478 178.995 57.5841L178.604 57.2283L178.72 59.1358C178.831 60.9505 178.81 61.094 178.32 62.1045C177.94 62.8699 177.378 63.5306 176.251 64.5172C175.399 65.2676 174.675 65.9493 174.642 66.033C174.565 66.2213 175.288 66.2064 175.937 66.0061V66.0121ZM150.435 61.0791C150.62 60.7771 149.018 59.8174 143.188 56.7709C140.087 55.1475 136.739 53.3686 135.749 52.8185C134.757 52.2714 131.944 50.7766 129.492 49.5C122.672 45.9362 115.7 42.1573 109.279 38.5278C108.325 37.9926 107.449 37.5531 107.335 37.5531C106.845 37.5531 107.186 38.1242 107.93 38.5457C108.373 38.8028 109.847 39.6489 111.204 40.4322C113.934 42.0108 123.674 47.2248 143.523 57.7396C146.494 59.3121 149.134 60.7502 149.394 60.9296C149.915 61.2943 150.267 61.3451 150.435 61.0791ZM175.533 60.0087C176.634 59.0162 176.986 58.1013 176.822 56.6722C176.643 55.1565 175.71 53.6885 175.082 53.9307C174.822 54.0294 174.831 54.131 175.148 54.7558C176.086 56.6035 175.85 57.7186 174.203 59.3271C173.548 59.9669 173.103 60.5499 173.174 60.6695C173.246 60.7831 173.59 60.8787 173.937 60.8787C174.421 60.8787 174.795 60.6725 175.533 60.0087ZM90.7246 58.9833C90.6618 58.8757 90.5272 58.7919 90.4196 58.7919C90.318 58.7919 90.2821 58.8757 90.3479 58.9833C90.4106 59.0849 90.5512 59.1716 90.6528 59.1716C90.7604 59.1716 90.7903 59.0849 90.7246 58.9833ZM158.683 55.1027C158.683 54.5436 157.281 53.7573 149.113 49.7601C141.696 46.1276 129.247 40.205 129.02 40.205C128.975 40.205 126.054 38.7938 122.532 37.0598C119.01 35.3318 115.701 33.7442 115.18 33.5409C114.657 33.3317 113.793 32.9131 113.264 32.6082C112.194 31.9983 111.676 31.9056 111.676 32.3301C111.676 32.6919 112.786 33.3317 115.97 34.7877C117.411 35.4484 120.726 37.0299 123.33 38.3065C125.94 39.5801 128.795 40.9464 129.683 41.3441C133.513 43.0452 137.029 44.7224 146.931 49.5448C152.719 52.3671 157.682 54.8336 157.957 55.0249C158.567 55.4495 158.683 55.4644 158.683 55.1027ZM98.8446 54.6841C98.9133 54.6153 98.2706 54.14 97.4155 53.6228C96.5545 53.1085 95.4931 52.4239 95.0447 52.104C94.5992 51.7841 94.1777 51.5808 94.1089 51.6496C94.0371 51.7183 94.0162 51.802 94.0611 51.8349C94.1059 51.8708 95.0626 52.5524 96.1897 53.3507C98.1569 54.7529 98.5725 54.9562 98.8446 54.6841ZM116.403 25.9979C116.627 25.8514 116.633 25.7767 116.424 25.5256C115.692 24.6436 111.596 24.3446 110.747 25.116C110.525 25.3103 110.349 25.5375 110.349 25.6123C110.349 25.69 111.521 25.7916 112.953 25.8395C114.385 25.8873 115.689 25.98 115.847 26.0488C116.002 26.1205 116.251 26.0936 116.403 26.0009V25.9979Z" fill="#4E6A03"/>
</svg>
