<svg width="109" height="175" viewBox="0 0 109 175" fill="none" xmlns="http://www.w3.org/2000/svg">
<path d="M7.4966 174.431C6.88579 174.296 6.52141 174.022 6.52141 173.677C6.52141 172.971 7.5998 172.211 9.22371 171.771C10.8876 171.303 13.5984 171.36 16.4312 171.889C17.061 172.013 17.6171 172.078 17.6655 172.024C18.0088 171.668 20.7111 159.169 22.1707 151.172C23.167 145.717 24.8815 134.587 25.4143 130.135C26.2568 123.079 26.4906 121.069 26.6528 119.477C26.7476 118.571 26.8487 117.603 26.8803 117.327L26.9371 116.828L26.459 117.28C25.705 118.011 25.1742 118.22 24.1611 118.22C22.4256 118.22 21.3009 117.306 21.2988 115.89C21.2988 115.107 21.5999 114.024 22.0654 113.163C22.3013 112.722 22.4593 112.335 22.413 112.312C22.3687 112.28 21.8274 112.135 21.2082 111.979C19.757 111.604 18.5312 111.151 15.9468 110.035C14.7947 109.54 13.1329 108.822 12.2546 108.436C11.3763 108.059 9.61336 107.385 8.3412 106.945C7.06692 106.503 5.23239 105.808 4.26142 105.399C1.52963 104.251 0.506002 103.853 0.251148 103.853C-0.351235 103.853 0.00261197 103.356 2.72597 100.405C3.64219 99.4132 5.79897 97.0184 7.52187 95.0743C11.9534 90.0699 13.7521 88.2059 18.1457 84.0292C22.4066 79.9874 24.1611 78.2329 24.1611 78.0117C24.1611 77.7484 23.3334 71.2633 23.2049 70.5261C23.1417 70.1597 23.1354 70.1491 22.6762 70.2144C21.7748 70.3597 18.9271 70.2945 17.7097 70.1154C12.7559 69.374 7.39339 65.7871 5.42195 61.8885C5.02809 61.1071 4.58789 59.877 4.34356 58.8723C4.03605 57.6044 4.07396 53.5288 4.40675 51.8712C4.96911 49.0446 6.17177 46.3929 7.90099 44.1624C9.47435 42.132 11.0372 41.0494 13.6974 40.1458C17.6255 38.7978 17.3769 38.9179 18.1478 38.0122C19.6833 36.224 22.413 34.1367 24.6055 33.0646C25.4986 32.6329 26.2105 32.4917 26.122 32.7445C26.0989 32.8203 25.5618 33.1426 24.9278 33.4732C22.7794 34.598 20.6753 36.1482 19.0914 37.7489L18.2679 38.5893L19.2978 38.5093L20.3278 38.444L21.5431 37.6373C22.9227 36.7211 26.2042 35.0087 27.6554 34.4569C28.5505 34.1135 29.8985 33.8608 29.8901 34.0377C29.8901 34.1135 28.9928 34.5327 27.192 35.2867C26.5854 35.5395 25.6439 35.9712 25.0984 36.2345C24.0411 36.7632 21.2629 38.3787 21.3177 38.4208C21.3346 38.444 21.7958 38.4861 22.3413 38.5303C24.2707 38.6756 25.7766 39.1285 27.7839 40.1985C32.525 42.707 35.4295 46.5277 36.5205 51.6859C36.788 52.9538 36.8449 55.7046 36.6279 56.9178C36.074 60.0139 34.4332 63.1691 32.1796 65.5007C30.8906 66.8255 29.6268 67.7522 27.9966 68.5716C26.9666 69.0876 24.991 69.7932 24.0221 70.0038C23.7736 70.0501 23.7272 70.1154 23.7757 70.3155C23.8052 70.4461 24.0558 72.1479 24.3275 74.092C24.5992 76.0234 24.8499 77.7 24.8836 77.8137C24.9425 77.9906 25.1047 78.0117 26.5665 78.0117C29.8501 78.0117 32.9231 77.7358 37.8327 77.0154C47.3508 75.6148 50.7839 75.0967 52.6058 74.7976C55.8073 74.2689 59.7397 73.4285 61.7995 72.8198C64.188 72.1248 75.7681 68.2493 79.1191 67.0235C80.5134 66.5138 82.7461 65.7008 84.0793 65.21C85.4947 64.694 86.552 64.2411 86.6152 64.1295C87.1628 63.2133 88.2117 62.5941 90.9709 61.5788C93.551 60.6268 94.1534 60.5089 96.3734 60.5089C98.2522 60.5089 98.3175 60.5194 98.9177 60.8059C99.6065 61.1492 99.7918 61.4356 99.7876 62.1412C99.7771 63.7441 98.111 64.8477 94.6147 65.5428C92.5021 65.964 88.7636 65.7871 87.1713 65.1889L86.5941 64.9783L84.8965 65.5975C83.9613 65.9409 82.4533 66.4822 81.5434 66.8044C80.6356 67.1225 79.296 67.6069 78.5673 67.887C76.3578 68.7 63.4361 73.0094 62.1408 73.3632C61.4731 73.5381 60.4726 73.8161 59.9124 73.9677C57.5808 74.6312 53.7516 75.341 46.8158 76.3541C33.5886 78.3087 33.1948 78.3677 30.0607 78.5614C29.0918 78.6204 27.5732 78.6752 26.6886 78.6752C25.804 78.6752 25.0584 78.6962 25.0331 78.7173C25.0057 78.751 25.1195 79.9347 25.2859 81.3459C26.7307 93.6947 27.2004 99.1499 27.5732 107.882C27.7754 112.598 27.7101 117.9 27.4132 121.135C27.3163 122.173 27.1941 124.581 27.1393 126.493C26.9287 133.924 25.9556 145.95 24.9847 153.158C24.4476 157.147 22.4782 169.325 22.0128 171.535C21.9201 171.99 21.8611 172.375 21.8822 172.396C21.9054 172.422 22.3898 172.31 22.9585 172.154C25.309 171.535 28.1798 171.303 29.9406 171.592C31.6067 171.868 32.346 172.287 32.346 172.95C32.346 173.947 29.7363 174.507 26.1347 174.296C24.8077 174.21 22.4551 173.843 21.6126 173.601L21.1282 173.445L21.1513 172.906C21.164 172.607 21.3472 171.425 21.562 170.28C22.8089 163.542 24.3296 153.647 24.873 148.743C25.6734 141.508 26.7539 126.756 26.4169 127.651C26.3937 127.717 26.2 129.176 25.9851 130.91C25.606 133.968 24.2454 143.012 23.4471 147.804C22.1181 155.765 18.9019 171.05 18.2742 172.375C18.1878 172.552 18.091 172.794 18.0573 172.895C17.8888 173.424 16.5366 173.812 13.5773 174.199C11.669 174.452 8.18744 174.583 7.4966 174.431ZM12.9707 173.591C15.4434 173.294 17.3685 172.906 17.0926 172.763C17.0084 172.719 16.4439 172.596 15.8373 172.497C12.3283 171.933 10.3674 171.965 8.48021 172.628C7.83781 172.864 7.18277 173.258 7.18277 173.414C7.18277 173.525 7.67773 173.736 8.12004 173.801C8.68873 173.888 11.4732 173.767 12.9707 173.591ZM30.6462 173.479C31.6214 173.247 31.8215 173.127 31.6362 172.906C31.1938 172.363 28.9718 171.922 27.3036 172.045C25.4017 172.175 22.1771 172.763 22.1771 172.971C22.1771 173.058 24.5613 173.5 25.8482 173.645C26.9961 173.78 29.8227 173.677 30.6462 173.479ZM25.4354 117.337C25.9788 117.095 26.6591 116.32 26.8066 115.791C27.0677 114.839 26.8487 112.609 26.4338 111.968C26.1557 111.549 25.349 111.208 24.8393 111.307C23.9989 111.461 23.4324 111.792 23.0848 112.335C22.3456 113.493 21.9559 114.565 21.9559 115.458C21.9559 116.132 22.0696 116.421 22.5119 116.849C23.1923 117.525 24.5403 117.746 25.4354 117.337ZM23.2281 111.307C24.3296 110.568 25.8693 110.368 26.5791 110.896C26.7602 111.031 26.9371 111.141 26.9751 111.141C27.013 111.141 27.013 110.511 26.9751 109.738C26.6718 103.335 26.5559 101.225 26.3643 98.7729C26.1115 95.504 25.7134 91.1736 25.646 90.9314C25.5892 90.7228 25.0794 85.9396 24.9299 84.2061C24.8035 82.7255 24.3886 79.2502 24.3128 79.0037C24.277 78.9069 23.7125 79.4018 22.6404 80.5055C21.7495 81.4112 19.6096 83.5005 17.8888 85.1329C14.1628 88.6798 12.4231 90.5122 7.25227 96.3233C5.11023 98.7413 2.82918 101.267 2.18256 101.962C1.53595 102.661 1.0452 103.265 1.09154 103.314C1.13787 103.345 1.47276 103.487 1.83714 103.621C2.19942 103.765 3.43999 104.262 4.5921 104.736C5.74421 105.21 7.55768 105.905 8.62343 106.271C11.0056 107.088 11.5279 107.288 14.8453 108.744C18.4848 110.336 19.9044 110.875 21.3346 111.252C22.0107 111.429 22.6215 111.57 22.6952 111.57C22.7689 111.581 23.009 111.461 23.2281 111.307ZM23.0322 69.1781C23.188 68.9317 23.4576 68.8791 23.5272 69.0876C23.563 69.2013 23.7694 69.1887 24.4644 69.0455C27.192 68.4683 30.225 66.756 31.9795 64.7909C33.675 62.9058 35.3958 59.5442 35.6843 57.558C35.8023 56.7535 35.8781 53.8721 35.7981 53.2424L35.7244 52.6337L34.4375 53.2424C31.91 54.445 28.9423 56.1679 25.5386 58.409C23.9147 59.4705 22.5541 60.5089 20.372 62.3181C19.7823 62.8131 19.6411 62.8721 19.6411 62.5835C19.6411 62.3518 20.5279 61.5115 22.2866 60.1003C25.0268 57.8908 29.6605 54.999 33.7255 52.9538C34.7113 52.4567 35.5158 51.9934 35.5158 51.9175C35.5158 51.827 35.4169 51.3741 35.2947 50.8897C34.5091 47.7872 32.5482 44.8469 29.8311 42.7175C27.9187 41.2284 25.5555 40.0447 23.624 39.6235C21.4146 39.1496 17.7898 39.1496 17.5202 39.6235C17.4106 39.8341 17.0315 39.8551 16.9704 39.6719C16.9388 39.5792 16.7535 39.5919 16.2733 39.714L15.6161 39.8909L16.1132 39.9015C16.3849 39.9141 16.6819 39.9668 16.7746 40.0215C17.1158 40.2322 16.6714 40.3985 15.4813 40.4744C11.7154 40.7419 8.6803 43.0924 6.63093 47.366C5.61573 49.4891 5.15868 51.2541 4.96701 53.8047C4.729 56.9641 5.12708 59.2367 6.30025 61.4125C7.65667 63.9336 10.1336 66.1199 13.4678 67.7417C15.9679 68.9696 17.8108 69.3635 20.9091 69.3846C22.7837 69.3993 22.9037 69.3846 23.0322 69.1781ZM22.9585 51.8817C22.6973 51.7722 22.533 51.5742 22.3097 51.1003C22.038 50.5127 22.0128 50.3463 22.0212 49.1879C22.0317 48.2401 22.0802 47.7662 22.2402 47.3133L22.453 46.7046L23.0174 46.6709C23.4871 46.6499 23.6346 46.6836 23.9126 46.9152C24.6119 47.5092 24.9215 48.7034 24.7151 50.0072C24.4686 51.5426 23.8136 52.2482 22.9585 51.8817ZM27.5901 49.6955C27.0888 49.1668 26.8613 47.5239 27.1478 46.4961C27.3057 45.919 27.7965 45.4346 28.2114 45.4346C28.8601 45.4346 29.4478 46.4835 29.4499 47.6419C29.4499 48.5792 29.2982 49.112 28.8833 49.5754C28.4663 50.0493 27.9671 50.1041 27.5901 49.6955ZM18.7586 48.2295C18.7586 47.6419 19.3631 46.2307 19.9234 45.4893C20.1782 45.1586 20.8965 44.7816 21.0271 44.9059C21.0565 44.9375 20.9112 45.1376 20.7111 45.3482C20.193 45.8979 19.5401 47.2017 19.3758 48.0084C19.262 48.5686 19.1946 48.7034 18.9987 48.7245C18.7818 48.7582 18.7586 48.714 18.7586 48.2295ZM30.4293 44.7943C30.3387 44.5499 29.1339 43.6253 28.5863 43.3704C28.0914 43.1345 27.8976 43.103 27.4005 43.1598C26.7539 43.2378 26.6654 43.1493 27.0277 42.7828C27.371 42.4395 28.4515 42.4732 29.2056 42.8607C29.9975 43.2588 30.661 43.8886 30.682 44.2551C30.6926 44.4172 30.7031 44.6047 30.7094 44.6847C30.7221 44.8364 30.4819 44.9375 30.4293 44.7943ZM93.4836 64.9678C94.0713 64.9025 95.1097 64.7045 95.79 64.5255C98.09 63.9442 99.0188 63.3355 99.0188 62.4298C99.0188 61.5367 98.1468 61.1702 96.0427 61.1829C94.3114 61.1829 92.7528 61.5683 89.9241 62.6846C87.9927 63.445 87.106 64.0305 87.405 64.3275C87.5504 64.4728 88.7067 64.7487 89.6903 64.8709C91.5922 65.1026 92.1525 65.1236 93.4836 64.9678ZM91.5038 59.0177C90.457 58.4658 90.021 57.0947 90.2969 55.2623C90.5328 53.7163 91.4553 52.3367 92.6011 51.8059C93.3699 51.45 94.5031 51.4879 95.3161 51.8817C96.6472 52.5326 97.3823 54.0933 96.9926 55.4308C96.6556 56.5871 96.4429 57.0399 96.0301 57.5138C94.8064 58.9081 92.6475 59.6243 91.5038 59.0177ZM92.738 46.0433C91.4448 45.801 90.2822 45.1692 89.3449 44.175C87.6978 42.4395 87.1902 40.4428 87.8832 38.4208C88.5066 36.6115 90.3243 34.5011 93.6711 31.7061C95.3771 30.2823 98.3764 27.5105 99.6844 26.1435C101.388 24.3764 103.672 20.8169 105.199 17.548C106.201 15.4081 106.475 14.1928 106.367 12.3603C106.268 10.6269 105.776 9.12517 104.463 6.55135C103.537 4.72945 102.538 3.70161 100.948 2.93073C99.1642 2.05664 97.9109 1.79968 95.5098 1.79968C92.5611 1.81442 90.6781 2.40838 88.93 3.88907C87.4177 5.17176 86.75 6.16169 85.8401 8.4933C85.0419 10.5469 84.5974 11.1324 83.7634 11.2777C83.4327 11.3325 83.3253 11.2777 82.8787 10.8586C82.3985 10.4058 82.3711 10.351 82.3711 9.78652C82.3711 8.81555 83.0641 7.10318 84.0582 5.6225C84.6838 4.69786 86.1497 3.20454 87.0196 2.62954C88.4181 1.69226 90.6613 0.820281 92.9845 0.302147C94.1829 0.0325488 94.5662 0.000955322 96.4282 0.000955322C98.6355 -0.00957626 99.162 0.0599299 100.727 0.565426C102.149 1.01827 103.44 1.73439 104.364 2.60847C105.329 3.51205 105.917 4.36297 106.818 6.17433C108.05 8.64916 108.411 9.97398 108.421 12.0844C108.432 14.1696 108.019 15.5955 106.534 18.5653C105.137 21.3498 103.383 24.2079 102.027 25.8887C100.906 27.2788 97.1738 30.8341 94.3598 33.1973C91.8471 35.2972 90.2358 37.1297 89.9725 38.1786C89.6377 39.5139 90.1663 41.0388 91.3858 42.2773C92.4221 43.3241 93.5237 43.7538 95.6173 43.9433C96.0806 43.9855 96.6767 44.076 96.94 44.1519C97.3802 44.2867 97.4223 44.3309 97.4539 44.6953C97.4855 45.0681 97.4539 45.1165 96.8684 45.4999C95.8995 46.1507 94.4062 46.3381 92.738 46.0433Z" fill="#4E6A03"/>
</svg>
