<svg width="147" height="151" viewBox="0 0 147 151" fill="none" xmlns="http://www.w3.org/2000/svg">
<path d="M143.98 147.999H2.21464C1.60468 147.999 1.07917 147.783 0.647501 147.351C0.215832 146.91 0 146.394 0 145.784C0 145.165 0.215832 144.649 0.647501 144.217C1.07917 143.785 1.60468 143.569 2.21464 143.569H143.98C144.59 143.569 145.106 143.785 145.538 144.217C145.979 144.649 146.194 145.165 146.194 145.784C146.194 146.394 145.979 146.91 145.538 147.351C145.106 147.783 144.59 147.999 143.98 147.999Z" fill="#B4B4B4" fill-opacity="0.25"/>
<path d="M143.98 125.309H2.21464C1.60468 125.309 1.07917 125.093 0.647501 124.662C0.215832 124.221 0 123.704 0 123.095C0 122.475 0.215832 121.959 0.647501 121.527C1.07917 121.096 1.60468 120.88 2.21464 120.88H143.98C144.59 120.88 145.106 121.096 145.538 121.527C145.979 121.959 146.194 122.475 146.194 123.095C146.194 123.704 145.979 124.221 145.538 124.662C145.106 125.093 144.59 125.309 143.98 125.309Z" fill="#B4B4B4" fill-opacity="0.25"/>
<path d="M27.7205 102.61H2.21464C1.60468 102.61 1.07917 102.394 0.647501 101.962C0.215832 101.531 0 101.005 0 100.395C0 99.7853 0.215832 99.2598 0.647501 98.8282C1.07917 98.3965 1.60468 98.1807 2.21464 98.1807H27.7205C28.3399 98.1807 28.856 98.3965 29.2877 98.8282C29.7193 99.2598 29.9352 99.7853 29.9352 100.395C29.9352 101.005 29.7193 101.531 29.2877 101.962C28.856 102.394 28.3399 102.61 27.7205 102.61Z" fill="#B4B4B4" fill-opacity="0.25"/>
<path d="M85.2081 102.61H40.2771C39.6672 102.61 39.1417 102.394 38.71 101.962C38.2783 101.531 38.0625 101.005 38.0625 100.395C38.0625 99.7853 38.2783 99.2598 38.71 98.8282C39.1417 98.3965 39.6672 98.1807 40.2771 98.1807H85.2081C85.8274 98.1807 86.3435 98.3965 86.7752 98.8282C87.2069 99.2598 87.4227 99.7853 87.4227 100.395C87.4227 101.005 87.2069 101.531 86.7752 101.962C86.3435 102.394 85.8274 102.61 85.2081 102.61Z" fill="#B4B4B4" fill-opacity="0.25"/>
<path d="M89.3926 79.9264H2.21464C1.60468 79.9264 1.07917 79.7105 0.647501 79.2789C0.215832 78.8472 0 78.3217 0 77.7117C0 77.1017 0.215832 76.5762 0.647501 76.1446C1.07917 75.7129 1.60468 75.4971 2.21464 75.4971H89.3926C90.012 75.4971 90.5281 75.7129 90.9598 76.1446C91.3915 76.5762 91.6073 77.1017 91.6073 77.7117C91.6073 78.3217 91.3915 78.8472 90.9598 79.2789C90.5281 79.7105 90.012 79.9264 89.3926 79.9264Z" fill="#B4B4B4" fill-opacity="0.25"/>
<path d="M44.8934 57.2291H2.21464C1.60468 57.2291 1.07917 57.0133 0.647501 56.5816C0.215832 56.1405 0 55.6244 0 55.0144C0 54.3951 0.215832 53.879 0.647501 53.4473C1.07917 53.0156 1.60468 52.7998 2.21464 52.7998H44.8934C45.5034 52.7998 46.0195 53.0156 46.4605 53.4473C46.8922 53.879 47.108 54.3951 47.108 55.0144C47.108 55.6244 46.8922 56.1405 46.4605 56.5816C46.0195 57.0133 45.5034 57.2291 44.8934 57.2291Z" fill="#B4B4B4" fill-opacity="0.25"/>
<path d="M99.6105 57.2291H58.1892C57.5699 57.2291 57.0538 57.0133 56.6221 56.5816C56.1904 56.1405 55.9746 55.6244 55.9746 55.0144C55.9746 54.3951 56.1904 53.879 56.6221 53.4473C57.0538 53.0156 57.5699 52.7998 58.1892 52.7998H99.6105C100.221 52.7998 100.737 53.0156 101.178 53.4473C101.609 53.879 101.825 54.3951 101.825 55.0144C101.825 55.6244 101.609 56.1405 101.178 56.5816C100.737 57.0133 100.221 57.2291 99.6105 57.2291Z" fill="#B4B4B4" fill-opacity="0.25"/>
<path d="M87.5517 112.418L106.515 99.6108L85.9418 89.5919L87.5517 112.418Z" fill="#EDEDED" fill-opacity="0.25"/>
<path d="M83.2031 86.5283L120.965 4.54125C122.121 2.03308 125.09 0.936316 127.598 2.09155L142.39 8.9045C144.899 10.0597 145.995 13.0295 144.84 15.5377L107.078 97.5247L83.2031 86.5283Z" fill="#EDEDED" fill-opacity="0.25"/>
<path d="M106.184 102.326C105.462 102.326 104.88 102.045 104.439 101.482C95.3361 89.9018 83.8969 92.0132 83.7843 92.0414C83.4934 92.1071 83.2025 92.1164 82.9116 92.0601C82.6113 92.0038 82.3392 91.9006 82.0858 91.7411C81.8418 91.5722 81.626 91.3657 81.4571 91.1217C81.2975 90.8777 81.1849 90.6056 81.1192 90.3147C81.0629 90.0144 81.0629 89.7235 81.1286 89.4326C81.1849 89.1417 81.2975 88.8696 81.4758 88.6256C81.6448 88.3722 81.8512 88.1751 82.1046 88.0156C82.3579 87.8467 82.6301 87.7435 82.921 87.6965C83.5028 87.5839 97.166 85.0409 107.92 98.751C108.493 99.4735 108.577 100.252 108.174 101.078C107.77 101.913 107.104 102.326 106.184 102.326Z" fill="#B4B4B4" fill-opacity="0.25"/>
<path d="M96.1439 94.1444C95.7685 94.1444 95.4119 94.0506 95.0835 93.8723C94.755 93.694 94.4829 93.45 94.2858 93.1309C94.0794 92.8119 93.9667 92.4741 93.9386 92.0987C93.9104 91.7233 93.9667 91.3667 94.1263 91.0195L124.165 24.1111C124.399 23.5387 124.812 23.1352 125.394 22.9099C125.966 22.6753 126.539 22.6941 127.111 22.9475C127.674 23.2009 128.068 23.6231 128.284 24.2049C128.5 24.7868 128.472 25.3592 128.2 25.9222L98.1614 92.84C97.7673 93.7128 97.0916 94.1444 96.1439 94.1444Z" fill="#B4B4B4" fill-opacity="0.25"/>
<path d="M86.2614 116.149C85.6984 116.149 85.2104 115.962 84.7881 115.596C84.3752 115.22 84.1313 114.76 84.0656 114.207L81.1565 90.1367C81.1096 89.7238 81.1659 89.339 81.3348 88.9637L117.867 7.56623C118.13 6.97503 118.449 6.42138 118.824 5.90525C119.19 5.37974 119.612 4.90115 120.082 4.4601C120.541 4.01905 121.048 3.62492 121.592 3.2871C122.137 2.94927 122.709 2.65836 123.31 2.43315C123.91 2.20793 124.52 2.03901 125.158 1.93579C125.787 1.82318 126.425 1.78565 127.063 1.80441C127.711 1.82318 128.34 1.89825 128.968 2.0484C129.588 2.18916 130.198 2.39561 130.779 2.65836L139.835 6.72167C140.417 6.98442 140.971 7.30348 141.496 7.67884C142.022 8.04482 142.5 8.4671 142.941 8.93631C143.382 9.39612 143.767 9.90287 144.105 10.4471C144.452 10.9914 144.734 11.5638 144.959 12.1644C145.193 12.765 145.353 13.375 145.466 14.0131C145.569 14.6418 145.616 15.2799 145.597 15.9181C145.578 16.5562 145.494 17.1943 145.353 17.8136C145.212 18.4424 145.006 19.0523 144.743 19.6341L108.201 101.022C108.032 101.398 107.779 101.698 107.441 101.932L87.5283 115.755C87.1435 116.018 86.7213 116.149 86.2614 116.149ZM85.6233 90.2117L88.0163 110.022L104.41 98.648L140.689 17.823C140.98 17.1755 141.139 16.4999 141.158 15.7867C141.177 15.0829 141.064 14.3978 140.811 13.7316C140.558 13.0747 140.192 12.4835 139.704 11.9674C139.225 11.4606 138.653 11.0571 138.015 10.7662L128.968 6.7029C128.321 6.41199 127.645 6.26185 126.941 6.23369C126.228 6.21493 125.543 6.32753 124.886 6.5809C124.22 6.83428 123.638 7.20025 123.122 7.68822C122.606 8.1762 122.202 8.73924 121.912 9.38674L85.6233 90.2117Z" fill="#B4B4B4" fill-opacity="0.25"/>
<path d="M15.075 143.999V126.499H23.025C24.925 126.499 26.6 126.866 28.05 127.599C29.5 128.316 30.6333 129.324 31.45 130.624C32.2667 131.924 32.675 133.466 32.675 135.249C32.675 137.016 32.2667 138.557 31.45 139.874C30.6333 141.174 29.5 142.191 28.05 142.924C26.6 143.641 24.925 143.999 23.025 143.999H15.075ZM19.125 140.674H22.825C23.9917 140.674 25 140.457 25.85 140.024C26.7167 139.574 27.3833 138.941 27.85 138.124C28.3333 137.307 28.575 136.349 28.575 135.249C28.575 134.132 28.3333 133.174 27.85 132.374C27.3833 131.557 26.7167 130.932 25.85 130.499C25 130.049 23.9917 129.824 22.825 129.824H19.125V140.674ZM42.8793 144.199C41.346 144.199 39.996 143.899 38.8293 143.299C37.6793 142.699 36.7876 141.882 36.1543 140.849C35.521 139.799 35.2043 138.607 35.2043 137.274C35.2043 135.924 35.5126 134.732 36.1293 133.699C36.7626 132.649 37.621 131.832 38.7043 131.249C39.7876 130.649 41.0126 130.349 42.3793 130.349C43.696 130.349 44.8793 130.632 45.9293 131.199C46.996 131.749 47.8376 132.549 48.4543 133.599C49.071 134.632 49.3793 135.874 49.3793 137.324C49.3793 137.474 49.371 137.649 49.3543 137.849C49.3376 138.032 49.321 138.207 49.3043 138.374H38.3793V136.099H47.2543L45.7543 136.774C45.7543 136.074 45.6126 135.466 45.3293 134.949C45.046 134.432 44.6543 134.032 44.1543 133.749C43.6543 133.449 43.071 133.299 42.4043 133.299C41.7376 133.299 41.146 133.449 40.6293 133.749C40.1293 134.032 39.7376 134.441 39.4543 134.974C39.171 135.491 39.0293 136.107 39.0293 136.824V137.424C39.0293 138.157 39.1876 138.807 39.5043 139.374C39.8376 139.924 40.296 140.349 40.8793 140.649C41.4793 140.932 42.1793 141.074 42.9793 141.074C43.696 141.074 44.321 140.966 44.8543 140.749C45.4043 140.532 45.9043 140.207 46.3543 139.774L48.4293 142.024C47.8126 142.724 47.0376 143.266 46.1043 143.649C45.171 144.016 44.096 144.199 42.8793 144.199ZM53.2008 143.999V130.249C53.2008 128.732 53.6508 127.524 54.5508 126.624C55.4508 125.707 56.7341 125.249 58.4008 125.249C58.9674 125.249 59.5091 125.307 60.0258 125.424C60.5591 125.541 61.0091 125.724 61.3758 125.974L60.3508 128.799C60.1341 128.649 59.8924 128.532 59.6258 128.449C59.3591 128.366 59.0758 128.324 58.7758 128.324C58.2091 128.324 57.7674 128.491 57.4508 128.824C57.1508 129.141 57.0008 129.624 57.0008 130.274V131.524L57.1008 133.199V143.999H53.2008ZM51.1258 133.849V130.849H60.4508V133.849H51.1258ZM62.6508 143.999V130.549H66.5508V143.999H62.6508ZM64.6008 128.674C63.8841 128.674 63.3008 128.466 62.8508 128.049C62.4008 127.632 62.1758 127.116 62.1758 126.499C62.1758 125.882 62.4008 125.366 62.8508 124.949C63.3008 124.532 63.8841 124.324 64.6008 124.324C65.3174 124.324 65.9008 124.524 66.3508 124.924C66.8008 125.307 67.0258 125.807 67.0258 126.424C67.0258 127.074 66.8008 127.616 66.3508 128.049C65.9174 128.466 65.3341 128.674 64.6008 128.674ZM79.0824 130.349C80.1491 130.349 81.0991 130.566 81.9324 130.999C82.7824 131.416 83.4491 132.066 83.9324 132.949C84.4158 133.816 84.6574 134.932 84.6574 136.299V143.999H80.7574V136.899C80.7574 135.816 80.5158 135.016 80.0324 134.499C79.5658 133.982 78.8991 133.724 78.0324 133.724C77.4158 133.724 76.8574 133.857 76.3574 134.124C75.8741 134.374 75.4908 134.766 75.2074 135.299C74.9408 135.832 74.8074 136.516 74.8074 137.349V143.999H70.9074V130.549H74.6324V134.274L73.9324 133.149C74.4158 132.249 75.1074 131.557 76.0074 131.074C76.9074 130.591 77.9324 130.349 79.0824 130.349ZM88.9426 143.999V130.549H92.8426V143.999H88.9426ZM90.8926 128.674C90.1759 128.674 89.5926 128.466 89.1426 128.049C88.6926 127.632 88.4676 127.116 88.4676 126.499C88.4676 125.882 88.6926 125.366 89.1426 124.949C89.5926 124.532 90.1759 124.324 90.8926 124.324C91.6092 124.324 92.1926 124.524 92.6426 124.924C93.0926 125.307 93.3176 125.807 93.3176 126.424C93.3176 127.074 93.0926 127.616 92.6426 128.049C92.2092 128.466 91.6259 128.674 90.8926 128.674ZM105.387 130.349C106.454 130.349 107.404 130.566 108.237 130.999C109.087 131.416 109.754 132.066 110.237 132.949C110.72 133.816 110.962 134.932 110.962 136.299V143.999H107.062V136.899C107.062 135.816 106.82 135.016 106.337 134.499C105.87 133.982 105.204 133.724 104.337 133.724C103.72 133.724 103.162 133.857 102.662 134.124C102.179 134.374 101.795 134.766 101.512 135.299C101.245 135.832 101.112 136.516 101.112 137.349V143.999H97.2121V130.549H100.937V134.274L100.237 133.149C100.72 132.249 101.412 131.557 102.312 131.074C103.212 130.591 104.237 130.349 105.387 130.349ZM121.67 149.049C120.403 149.049 119.178 148.891 117.995 148.574C116.828 148.274 115.853 147.816 115.07 147.199L116.62 144.399C117.187 144.866 117.903 145.232 118.77 145.499C119.653 145.782 120.52 145.924 121.37 145.924C122.753 145.924 123.753 145.616 124.37 144.999C125.003 144.382 125.32 143.466 125.32 142.249V140.224L125.57 136.849L125.52 133.449V130.549H129.22V141.749C129.22 144.249 128.57 146.091 127.27 147.274C125.97 148.457 124.103 149.049 121.67 149.049ZM121.07 143.349C119.82 143.349 118.687 143.082 117.67 142.549C116.67 141.999 115.862 141.241 115.245 140.274C114.645 139.291 114.345 138.149 114.345 136.849C114.345 135.532 114.645 134.391 115.245 133.424C115.862 132.441 116.67 131.682 117.67 131.149C118.687 130.616 119.82 130.349 121.07 130.349C122.203 130.349 123.203 130.582 124.07 131.049C124.937 131.499 125.612 132.207 126.095 133.174C126.578 134.124 126.82 135.349 126.82 136.849C126.82 138.332 126.578 139.557 126.095 140.524C125.612 141.474 124.937 142.182 124.07 142.649C123.203 143.116 122.203 143.349 121.07 143.349ZM121.845 140.149C122.528 140.149 123.137 140.016 123.67 139.749C124.203 139.466 124.62 139.074 124.92 138.574C125.22 138.074 125.37 137.499 125.37 136.849C125.37 136.182 125.22 135.607 124.92 135.124C124.62 134.624 124.203 134.241 123.67 133.974C123.137 133.691 122.528 133.549 121.845 133.549C121.162 133.549 120.553 133.691 120.02 133.974C119.487 134.241 119.062 134.624 118.745 135.124C118.445 135.607 118.295 136.182 118.295 136.849C118.295 137.499 118.445 138.074 118.745 138.574C119.062 139.074 119.487 139.466 120.02 139.749C120.553 140.016 121.162 140.149 121.845 140.149Z" fill="#739D03"/>
</svg>
