<svg width="245" height="348" viewBox="0 0 245 348" fill="none" xmlns="http://www.w3.org/2000/svg">
<path d="M61.646 347.491C59.3223 347.055 57.9618 345.93 58.2429 344.672C58.3178 344.345 58.7264 343.728 59.1499 343.296C60.4204 342.012 62.5792 341.287 66.1847 340.938C67.6801 340.792 67.7738 340.75 67.8787 340.183C68.7145 335.624 72.4661 307.199 73.7292 295.852C75.9779 275.616 78.118 248.274 78.6839 232.446C78.8113 228.965 78.9762 224.615 79.0549 222.781C79.1336 220.948 79.1299 218.679 79.0362 217.743C78.9462 216.804 78.9537 215.927 79.0549 215.789C79.1561 215.646 79.2985 214.027 79.3735 212.194C79.4522 210.36 79.6471 206.682 79.8083 204.022C81.1088 182.725 80.5391 157.388 78.414 141.883L78.1592 140.042L77.1323 139.983C75.2808 139.87 68.5608 138.997 65.8324 138.519C60.2143 137.529 50.5934 135.092 39.5933 131.87C28.0836 128.497 13.5305 123.019 8.35839 120.108C7.48513 119.617 6.63436 119.214 6.4657 119.214C6.29705 119.214 6.05718 118.996 5.92976 118.736C5.80233 118.467 5.20266 115.439 4.59925 112.003C2.77778 101.65 2.47045 98.2691 2.30554 86.8801C2.16687 77.3074 2.39549 71.9924 3.36994 61.7947C3.75598 57.7425 4.17949 53.082 4.31066 51.4376C4.43809 49.789 4.57677 48.3795 4.62174 48.304C4.66297 48.2243 4.2507 48.0942 3.69976 48.0103C1.8408 47.7335 0.832618 46.4876 0.262938 43.7567C-0.336725 40.921 0.131762 34.9265 1.23739 31.1847C1.5747 30.0479 2.36551 27.9505 2.99515 26.5242C4.29942 23.571 5.1352 22.5558 6.24833 22.5558C8.1635 22.5558 10.9782 24.712 12.0613 27.0108C12.5935 28.1434 12.6197 28.3322 12.6048 31.5287C12.6048 34.2092 12.5036 35.237 12.1438 36.7471C11.5179 39.3605 10.4797 42.0201 9.33659 43.9455C8.46708 45.4137 7.94612 46.0178 6.3795 47.3643C5.92601 47.7503 5.88103 48.0103 5.70488 50.9887C5.60369 52.7547 5.24764 57.2559 4.91408 60.9893C4.03332 70.8179 3.8909 73.7921 3.8909 82.3915C3.8909 94.284 4.31441 99.7709 5.95224 109.26C6.49943 112.456 7.0129 115.581 7.08785 116.198C7.15906 116.81 7.279 117.406 7.35021 117.519C7.47764 117.729 8.33216 118.165 12.1025 119.961C16.0453 121.84 27.7163 126.241 34.9085 128.56C38.7126 129.785 53.0258 133.787 58.2316 135.075C64.4494 136.61 72.4736 137.953 76.4127 138.108L77.7507 138.162L77.6945 137.374C77.627 136.308 75.7868 125.209 75.5769 124.588C75.4232 124.122 75.2771 124.093 72.8597 124.08C66.5257 124.047 60.4916 121.962 54.9447 117.893C49.2966 113.748 45.8973 109.281 44.0796 103.605C42.9515 100.094 42.8203 99.0158 42.8278 93.4367C42.8278 89.0194 42.9027 87.8826 43.2963 85.6761C44.8292 77.0599 48.9368 69.1945 54.2251 64.7311C55.4357 63.7076 58.1192 62.1471 59.4647 61.6731C59.9144 61.5178 60.679 60.9809 61.1587 60.4901C62.1782 59.4456 65.4201 57.0419 67.444 55.8296C71.8965 53.1617 82.1807 49.252 84.7442 49.252C85.6325 49.252 86.0747 49.5708 85.7299 49.9568C85.6325 50.0658 84.1633 50.565 82.4693 51.0642C76.6001 52.7925 72.2937 54.5334 68.2685 56.8112C66.3421 57.8977 63.1976 60.0538 63.5162 60.0622C63.5986 60.0622 64.292 59.8021 65.0565 59.4791C67.8037 58.313 69.5578 57.9522 73.3319 57.7592C76.8812 57.5831 76.9636 57.5705 79.6696 56.5259C84.5943 54.6341 91.7828 53.1449 91.0182 54.1768C90.6097 54.7263 88.7732 55.4101 85.3514 56.2826C83.5449 56.7483 81.4161 57.3607 80.6253 57.6418L79.1861 58.1577L80.0106 58.3381C82.563 58.9002 87.3828 61.3794 90.3024 63.6321C95.9879 68.0157 99.852 73.6243 101.97 80.571C103.221 84.6694 103.589 87.073 103.589 91.1379C103.589 96.5115 102.952 99.7122 100.943 104.469C98.7201 109.721 95.1372 114.7 91.423 117.696C87.9749 120.477 82.8178 122.922 78.8788 123.644C77.2147 123.954 77.136 123.992 77.1997 124.525C77.2372 124.835 77.5783 126.95 77.9568 129.227C78.3391 131.505 78.8001 134.328 78.9912 135.499C79.2423 137.059 79.4147 137.625 79.6396 137.625C79.8083 137.625 81.8584 138.745 84.1896 140.109C96.7637 147.471 109.503 154.057 119.356 158.285C125.533 160.941 133.568 164.213 134.797 164.582L135.749 164.867L140.236 160.282C148.612 151.712 163.027 135.918 168.543 129.269L170.781 126.568L170.29 125.972C170.02 125.649 169.256 125.074 168.588 124.697C167.104 123.854 165.62 122.222 165.013 120.77C163.454 117.037 164.263 111.277 166.673 108.97C167.816 107.871 169.866 106.764 171.021 106.617C172.205 106.466 172.524 106.076 172.149 105.228C171.965 104.805 171.83 103.131 171.74 100.115C171.624 96.2137 171.542 95.4166 171.111 94.0239L170.62 92.4257L168.461 91.1001C163.922 88.3147 161.344 84.5477 160.024 78.7714C159.522 76.5691 159.485 72.0092 159.946 69.2868C160.523 65.8595 162.419 60.7544 164.267 57.6334C165.335 55.8338 167.659 53.3253 169.353 52.1423C172.88 49.6883 176.347 48.6731 180.582 48.8703C186.065 49.122 190.896 51.3746 194.449 55.3514C196.544 57.6921 197.814 60.3517 198.98 64.8486C199.883 68.3219 200.157 70.7172 200.011 73.813C199.853 77.1731 199.58 78.4316 198.463 80.9779C196.952 84.4303 195.532 86.427 192.811 88.9397C190.604 90.9701 189.191 92.6103 188.632 93.7848C188.104 94.8923 188.081 95.081 188.044 98.9445C188.006 102.858 187.991 102.984 187.41 104.293L186.818 105.631L187.298 106.135C187.556 106.411 187.774 106.802 187.774 107.003C187.774 107.234 188.145 107.519 188.763 107.762C190.802 108.576 192.271 110.241 193.148 112.737C193.531 113.828 193.606 114.482 193.602 116.798C193.602 119.239 193.531 119.793 192.998 121.563C192.455 123.371 192.238 123.766 190.795 125.536C189.288 127.373 189.101 127.524 187.71 128.015C186.353 128.497 185.847 128.535 181.406 128.535C176.564 128.535 174.802 128.342 172.719 127.583L171.737 127.226L169.518 129.84C168.3 131.274 166.347 133.607 165.178 135.025C162.401 138.393 148.931 153.146 143.699 158.554C141.442 160.882 138.77 163.663 137.766 164.729C135.727 166.889 136.128 166.78 133.197 165.962C131.331 165.437 120.038 160.806 114.323 158.222C106.332 154.606 91.8727 146.896 83.5262 141.791C81.3674 140.478 79.9807 139.752 79.8607 139.887C79.7408 140.021 79.7933 141.053 79.9919 142.605C80.4454 146.158 80.8652 150.969 81.2325 156.96C82.2032 172.661 82.2069 186.857 81.2325 203.334C81.0638 206.245 80.8352 210.503 80.7265 212.798C80.4979 217.559 80.4529 217.248 82.4618 224.162C83.766 228.654 85.8311 236.843 89.639 252.586C91.1644 258.912 93.6567 269.168 95.1746 275.368C96.6925 281.573 98.6452 289.597 99.5109 293.205C100.38 296.813 101.677 302.199 102.397 305.173C103.113 308.147 104.537 314.154 105.56 318.521C107.745 327.863 110.826 340.355 110.987 340.536C111.051 340.603 111.575 340.536 112.153 340.41C113.457 340.091 119.974 340.083 121.916 340.385C125.083 340.888 126.485 341.698 126.237 342.877C125.949 344.269 124.187 345.305 120.859 346.052C118.569 346.564 110.721 346.652 109.342 346.178C108.187 345.788 107.224 344.861 107.224 344.139C107.224 343.539 107.753 342.222 108 342.205C108.082 342.205 108.405 341.966 108.72 341.677L109.285 341.157L108.48 337.948C107.059 332.305 105.875 327.406 103.233 316.21C99.6196 300.877 94.9235 281.279 90.7109 263.929C88.732 255.787 86.412 246.168 85.55 242.564C82.9153 231.54 80.7902 223.461 80.5166 223.461C80.4454 223.461 80.273 226.8 80.1418 230.886C79.5309 249.39 77.136 279.307 74.4413 302.056C73.3506 311.264 69.8688 337.096 69.2992 340.204L69.183 340.834H70.3935C71.9377 340.834 73.2944 341.354 74.1152 342.256C74.6399 342.826 74.7636 343.145 74.7636 343.938C74.7636 345.784 73.3019 346.824 69.8988 347.399C67.7101 347.768 63.4075 347.81 61.6385 347.478L61.646 347.491ZM71.383 345.7C73.9428 344.94 74.074 344.16 71.8777 342.805C70.8695 342.189 70.551 342.113 68.5046 342.033C65.0715 341.908 61.095 342.826 59.7345 344.059C59.2735 344.475 59.2735 344.492 59.6446 344.957C60.0269 345.431 61.3874 346.023 62.5455 346.22C62.8865 346.283 64.6443 346.3 66.4508 346.258C68.9918 346.203 70.1087 346.077 71.383 345.7ZM121.309 344.563C123.288 344.08 124.701 343.497 124.701 343.17C124.701 342.696 121.822 341.815 119.686 341.626C115.717 341.278 113.434 341.278 111.973 341.626C108.847 342.369 107.565 343.669 109.203 344.437C110.608 345.091 111.62 345.2 115.556 345.108C118.434 345.041 119.948 344.903 121.309 344.563ZM184.899 127.033C185.971 126.908 187.392 126.635 188.055 126.425C189.082 126.102 189.378 125.876 190.086 124.873C190.544 124.231 191.271 122.855 191.709 121.819C192.462 120.028 192.504 119.822 192.5 117.675C192.5 114.562 192.013 112.687 190.705 110.732C190.199 109.977 188.523 108.626 188.096 108.63C187.628 108.63 186.919 110.199 186.919 111.231C186.919 112.444 187.287 113.32 188.197 114.268C189.134 115.246 189.614 116.555 189.622 118.132C189.622 119.697 189.314 120.481 188.269 121.505C186.541 123.208 183.749 123.921 179.487 123.753C177.145 123.661 176.279 123.531 175.039 123.073C172.119 122.004 170.601 120.791 169.604 118.74C169.106 117.712 169.012 117.264 169.023 115.871C169.042 113.908 169.492 112.578 170.661 111.118C171.98 109.478 172.16 108.492 171.246 107.943C170.83 107.691 170.609 107.733 169.664 108.228C167.835 109.18 166.921 110.082 166.276 111.546C165.744 112.762 165.688 113.111 165.688 115.305C165.688 118.476 166.089 119.806 167.516 121.404C168.094 122.05 169.147 122.935 169.859 123.371C170.65 123.854 171.193 124.353 171.261 124.647C171.65 126.392 179.176 127.709 184.899 127.033ZM80.0256 121.622C89.4591 119.436 96.5688 112.725 100.219 102.552C101.565 98.7935 101.793 97.1701 101.778 91.4818C101.756 87.5764 101.73 87.1821 101.108 84.5771C100.073 80.2312 99.0087 77.5213 96.9999 74.1067C93.222 67.6927 85.4863 61.6689 79.0849 60.1587C74.6811 59.1142 69.063 59.2191 65.1877 60.4104L64.1908 60.7166L65.1165 60.7418C65.6225 60.7418 66.1772 60.8634 66.3458 60.9809C66.9867 61.4339 66.1584 61.7612 63.9397 61.9247C56.9723 62.4407 51.2493 67.4242 47.4452 76.2922C45.5525 80.7094 44.7017 84.3841 44.3419 89.7158C43.8997 96.2934 44.6418 101.034 46.8268 105.568C49.4278 110.971 54.5025 115.867 60.9039 119.139C63.7748 120.607 66.0947 121.366 69.8426 122.058C70.1237 122.109 72.0201 122.151 74.0515 122.151C77.1023 122.151 78.1517 122.058 80.0256 121.622ZM70.2511 116.211C66.6307 115.711 63.5087 114.096 60.9713 111.428C59.1724 109.532 58.1754 108.022 57.0286 105.472C56.2827 103.811 55.2558 100.262 55.2521 99.3388C55.2521 99.0662 55.1359 98.588 54.9934 98.2733C54.851 97.9545 54.7648 97.4511 54.8061 97.1575C54.8848 96.5492 55.1134 96.5492 57.7182 97.1323C59.8582 97.6147 69.3216 97.5602 72.4099 97.0442C81.6297 95.5089 87.4427 93.4618 93.3644 89.6529C94.6874 88.8013 95.8043 88.1469 95.8493 88.1931C95.8905 88.2434 96.0329 89.1075 96.1603 90.1101C96.7975 95.1985 95.1971 101.55 92.0976 106.206C90.7146 108.278 88.3047 110.892 86.4945 112.28C82.7166 115.166 75.4382 116.928 70.2511 116.206V116.211ZM78.2641 114.025C80.6103 113.526 84.3807 112.074 85.7974 111.126C87.4315 110.036 90.1375 107.108 91.3893 105.082C93.6567 101.407 94.8823 97.2875 94.9647 93.0591C94.991 91.7713 94.946 90.6554 94.886 90.5757C94.8148 90.5002 93.6567 91.1001 92.315 91.9223C86.6969 95.3537 81.0038 97.275 72.305 98.6635C69.3254 99.1417 59.5996 99.2256 57.8231 98.7935C57.2572 98.6551 56.7587 98.5838 56.7137 98.6341C56.5263 98.8397 57.4146 101.877 58.1717 103.634C61.8596 112.179 69.1755 115.963 78.2641 114.025ZM67.2003 85.7139C66.4882 85.1434 66.1434 83.994 66.1434 82.2237C66.1434 79.3754 66.9792 77.5591 68.276 77.5591C68.9581 77.5591 69.9326 78.4609 70.4348 79.5558C71.0307 80.8646 70.5022 84.3673 69.5503 85.3615C68.9056 86.0453 67.815 86.2047 67.2003 85.7139ZM78.4965 83.8597C77.8294 83.3354 77.4396 82.1692 77.4508 80.7304C77.4733 78.4861 78.4815 76.4348 79.827 75.9398C80.4791 75.7007 80.6365 75.7175 81.1125 76.1202C82.057 76.9088 82.4355 77.903 82.428 79.5936C82.4093 82.3328 81.3149 84.2331 79.7333 84.2331C79.3135 84.2331 78.7589 84.0653 78.4965 83.8597ZM62.3393 75.0211C61.8783 74.1906 66.6569 68.1206 67.7663 68.1206C68.2535 68.1206 67.9312 68.6743 66.5182 70.2642C65.7087 71.1744 64.5468 72.6678 63.9434 73.5907C62.849 75.2435 62.5904 75.4742 62.3393 75.0211ZM83.0577 71.573C82.8103 71.4639 82.072 70.9689 81.4161 70.4739C80.0669 69.4587 78.9837 68.9428 77.6982 68.7037C76.8212 68.5401 76.6188 68.2213 77.0723 67.7095C77.4321 67.3068 79.5534 67.3697 80.5728 67.8144C82.5067 68.6659 83.811 70.0796 83.811 71.3339C83.811 71.8498 83.7286 71.875 83.0577 71.573ZM184.521 121.874C186.016 121.521 187.009 121.031 187.725 120.301C188.287 119.722 188.34 118.497 187.856 117.146C187.53 116.232 187.159 115.917 187.159 116.55C187.159 117.045 185.446 118.526 184.877 118.526C184.599 118.526 184.266 118.736 184.116 119C183.614 119.911 182.096 120.464 180.173 120.456C178.127 120.456 176.961 119.973 175.796 118.669C175.387 118.212 174.855 117.834 174.622 117.834C173.712 117.834 172.587 116.773 172.576 115.904C172.576 115.665 172.34 115.233 172.059 114.935C171.493 114.348 171.388 113.404 171.782 112.435C171.917 112.112 171.954 111.772 171.868 111.68C171.605 111.382 170.755 112.809 170.511 113.958C169.859 117.003 171.414 119.332 175.413 121.291L177.194 122.163L180.173 122.188C182.013 122.188 183.677 122.083 184.521 121.882V121.874ZM184.854 116.911C185.192 116.307 185.518 116.328 185.518 116.949C185.518 117.436 185.518 117.436 185.941 117.012C186.204 116.748 186.323 116.412 186.256 116.127C186.2 115.879 186.256 115.535 186.372 115.372C186.653 114.994 186.526 114.998 185.57 115.401C184.618 115.808 182.519 116.311 180.072 116.722L178.224 117.029L180.278 117.159C184.487 117.423 184.573 117.415 184.854 116.911ZM176.661 116.597C176.796 116.412 177.7 116.164 178.79 116.009C179.836 115.862 181.657 115.506 182.845 115.221C184.783 114.759 185.008 114.654 185.072 114.172C185.109 113.878 185.049 113.543 184.948 113.421C184.824 113.287 183.531 113.471 181.489 113.92C179.693 114.315 177.182 114.7 175.912 114.772C173.333 114.927 173.142 115.091 174.154 116.269C174.585 116.773 174.889 116.911 175.563 116.911C176.047 116.911 176.53 116.773 176.661 116.597ZM179.765 113.186C181.74 112.804 183.756 112.444 184.24 112.372C185.113 112.251 185.117 112.246 185.072 111.361C185.015 110.308 185.293 110.338 181.406 110.912C179.768 111.156 177.471 111.424 176.302 111.512C174.296 111.663 174.18 111.651 174.251 111.244C174.33 110.77 173.982 110.841 180.379 109.994C185.394 109.331 185.375 109.339 184.832 107.875C184.678 107.464 184.596 107.007 184.637 106.852C184.704 106.634 183.359 106.558 178.839 106.508L172.951 106.441L173.082 107.133C173.389 108.731 173.423 109.755 173.18 110.262C172.992 110.652 172.985 110.816 173.157 110.879C173.487 111.001 173.449 111.777 173.101 111.928C172.943 111.991 172.749 112.385 172.67 112.796C172.363 114.361 173.326 114.415 179.761 113.186H179.765ZM173.719 109.125C173.543 108.798 174.117 108.488 175.245 108.291C175.751 108.198 177.299 107.871 178.681 107.557C180.061 107.246 181.541 107.028 181.968 107.07L182.744 107.154L182.006 107.531C181.249 107.922 177.081 108.916 175.012 109.205C174.274 109.306 173.805 109.276 173.719 109.125ZM186.492 108.802C186.826 108.505 186.822 107.448 186.492 106.936C186.099 106.327 185.593 106.676 185.608 107.544C185.608 107.951 185.54 108.526 185.446 108.823C185.293 109.314 185.323 109.348 185.758 109.201C186.024 109.109 186.357 108.928 186.5 108.802H186.492ZM186.533 104.36C187.002 103.349 187.036 103.03 187.081 99.1752C187.122 95.4921 187.17 94.9594 187.564 94.0785C188.355 92.3082 189.363 90.9827 191.203 89.2879C194.771 85.9949 196.064 84.3128 197.496 81.1121C198.77 78.2554 198.961 77.2067 198.95 72.9573C198.95 69.4378 198.898 68.9512 198.294 66.3965C197.387 62.5372 195.337 57.9144 193.748 56.1484C189.839 51.8025 183.614 49.3359 178.161 49.9777C172.464 50.6489 168.056 53.2791 165.245 57.6921C164.065 59.5463 162.457 63.2 161.677 65.805C160.995 68.0786 160.452 71.6191 160.452 73.7585C160.452 76.6488 161.827 81.1876 163.607 84.187C165.088 86.6829 167.07 88.6335 170.552 91.0246C171.362 91.5783 172.235 93.4283 172.542 95.2488C172.666 95.962 172.827 98.244 172.906 100.316C173.041 103.995 173.06 104.108 173.607 104.805L174.169 105.522L180.098 105.48L186.031 105.442L186.533 104.36ZM183.689 104.44C183.4 103.924 183.235 101.847 182.845 94.0365C182.692 90.8862 182.684 89.3844 182.827 89.2208C183.145 88.8642 183.231 89.0698 183.561 90.9323C183.921 92.9542 184.401 104.44 184.138 104.733C184.033 104.851 183.839 104.733 183.681 104.44H183.689ZM176.118 102.137C176.002 101.214 175.919 97.6651 175.934 94.2505L175.968 88.0462L174.199 85.9404C172.651 84.0947 171.088 82.0895 169.368 79.7446C167.696 77.4668 168.626 72.8063 171.032 71.401C172.497 70.5452 174.072 70.6795 174.581 71.703C174.769 72.0805 174.836 72.0847 175.608 71.7366C177.546 70.8682 179.562 71.078 180.196 72.219C180.443 72.6594 180.462 72.6594 181.286 72.2441C182.74 71.5016 184.18 71.7659 184.708 72.865C185.027 73.532 185.023 73.532 186.031 72.9573C186.473 72.7056 187.129 72.4958 187.485 72.4958C188.231 72.4958 189.161 73.2257 189.434 74.027C189.58 74.4674 189.719 74.5471 190.12 74.4381C190.469 74.3374 190.746 74.4381 191.046 74.7778C191.848 75.6756 191.424 77.3577 190.161 78.3057C187.137 80.5794 184.824 83.0292 183.246 85.63C182.486 86.8843 182.085 87.2157 181.766 86.8591C181.564 86.6326 183.606 83.5535 185.075 81.8504C186.702 79.9753 189.089 78.0205 189.757 78.0205C190.289 78.0205 190.525 77.3829 190.412 76.267C190.311 75.277 189.719 75.2854 189.191 76.288C188.685 77.257 188.044 77.7268 187.729 77.3745C187.583 77.2109 187.688 76.8082 188.059 76.1034C188.486 75.2812 188.561 74.9498 188.407 74.501C188.201 73.8927 187.167 73.3642 186.59 73.5697C185.54 73.9431 185.356 74.1696 185.229 75.2645C185.057 76.6865 184.345 77.8862 183.61 77.9869C183.1 78.0499 183.052 77.9869 183.052 77.278C183.052 76.8124 183.295 76.0699 183.67 75.4155C184.157 74.5513 184.243 74.2283 184.078 73.8843C183.561 72.8063 182.238 72.4245 181.215 73.0621C180.825 73.3012 180.702 73.5823 180.668 74.2954C180.593 75.923 179.57 77.6555 178.936 77.2193C178.595 76.9802 178.711 75.5245 179.154 74.5639C179.48 73.8424 179.521 73.5446 179.345 73.1796C178.899 72.2441 177.302 71.9966 175.863 72.6427C175.128 72.9741 175.039 73.0999 175.039 73.7837C175.039 74.782 174.319 76.9298 173.817 77.4374C173.251 78.0121 172.689 77.8107 172.606 77.0095C172.497 75.923 172.745 74.9372 173.423 73.7962C174.038 72.7517 174.049 72.7014 173.693 72.2651C172.932 71.3213 171.062 71.9211 170.076 73.4229C169.555 74.2199 169.259 76.1831 169.469 77.4458C169.6 78.2302 169.848 78.7001 170.477 79.3503C170.938 79.8243 172.025 81.1415 172.898 82.2825C173.768 83.4235 174.979 84.9588 175.589 85.7013L176.699 87.052L177.523 86.4102C178.093 85.9698 178.685 85.7432 179.439 85.6677C180.923 85.5335 181.11 85.974 179.708 86.3012C179.112 86.4396 178.322 86.7542 177.958 87.0059C177.257 87.4841 176.421 88.7887 176.605 89.1201C177.066 89.9633 176.995 103.085 176.523 103.613C176.403 103.743 176.249 103.181 176.118 102.145V102.137ZM173.805 75.8895C173.805 75.8559 173.895 75.4826 174 75.0631C174.162 74.4339 174.147 74.3416 173.922 74.5555C173.599 74.8534 173.371 75.9482 173.629 75.9482C173.723 75.9482 173.805 75.9189 173.805 75.8895ZM179.015 102.414C179.15 101.575 181.043 97.2498 181.53 96.6751C181.893 96.243 182.103 96.4947 181.953 97.1659C181.815 97.77 179.431 102.64 179.101 102.988C178.955 103.148 178.925 102.967 179.015 102.414ZM185.638 98.7348C185.473 96.4779 185.638 95.0433 186.106 94.8671C186.372 94.7706 186.338 95.6893 185.941 99.536L185.799 100.92L185.638 98.7348ZM178.61 99.2004C178.745 98.395 180.645 94.4308 181.384 93.4115C181.965 92.6103 182.092 92.992 181.639 94.1791C181.2 95.3202 179.517 98.5166 178.88 99.4227L178.475 99.9974L178.61 99.2004ZM177.299 97.8245C177.299 97.4511 178.58 94.6406 180.248 91.3686C181.519 88.8768 181.725 88.579 181.781 89.1453C181.833 89.6319 181.327 90.8484 179.832 93.8477C178.029 97.4637 177.299 98.6089 177.299 97.8245ZM188.718 89.7871C188.655 89.6739 188.741 89.4515 188.909 89.2963C189.157 89.0656 189.213 89.0782 189.213 89.3676C189.213 89.7997 188.88 90.0807 188.718 89.7871ZM192.815 85.1434C194.048 83.7045 195.12 82.207 195.487 81.4141C196.094 80.0969 196.566 79.6229 196.285 80.6087C195.914 81.9259 193.789 84.7658 191.833 86.5654C191.065 87.266 191.342 86.8675 192.815 85.1434ZM163.308 79.0147C162.794 77.7856 162.476 73.8759 162.884 73.8759C163.199 73.8759 163.529 75.4029 163.536 76.8711C163.536 77.5632 163.626 78.5448 163.731 79.0482C163.997 80.3277 163.851 80.3193 163.308 79.0147ZM196.934 70.6291C196.675 69.9034 196.653 69.614 196.836 69.3623C197.234 68.8253 197.638 69.4336 197.638 70.5662C197.638 71.8288 197.372 71.854 196.934 70.6291ZM163.345 66.9418C163.311 66.2203 164.008 63.1622 164.484 61.9415C165.444 59.4875 167.37 56.6937 167.783 57.1552C167.839 57.2223 167.558 57.7592 167.153 58.3549C166.164 59.8063 163.93 64.7395 163.615 66.1658C163.476 66.7992 163.353 67.1516 163.345 66.9418ZM195.809 63.8628C195.51 62.512 194.04 59.9657 192.916 58.8289C192.429 58.3381 191.447 57.6376 190.723 57.2726C189.412 56.6056 189.056 56.1568 189.843 56.1568C190.592 56.1568 192.47 57.3062 193.583 58.4472C194.633 59.5211 195.584 61.2116 195.584 62.0045C195.584 62.2184 195.708 62.6714 195.862 63.0154C196.252 63.8796 196.45 64.8989 196.229 64.8989C196.128 64.8989 195.941 64.4333 195.809 63.8628ZM173.536 54.3991C173.296 54.1265 173.678 53.5853 174.394 53.1826C176.032 52.2514 180.177 51.6557 180.99 52.2346C181.507 52.5995 181.073 52.7673 179.094 52.9519C176.897 53.1617 175.462 53.514 174.394 54.1097C173.985 54.3362 173.599 54.4663 173.536 54.3991ZM6.13589 45.9213C7.56384 45.0949 9.5802 41.3321 10.5884 37.6154C11.0756 35.8158 11.1506 35.1489 11.1656 32.3341C11.1843 29.2383 11.1656 29.0705 10.6296 28.0637C9.67765 26.2473 7.70626 24.5149 6.10965 24.0828C5.37132 23.8814 5.01527 24.3177 4.07455 26.5787C2.12939 31.2644 1.28986 35.6145 1.47726 40.0443C1.65716 44.2937 2.6541 46.2611 4.62174 46.2611C5.1352 46.2611 5.81357 46.1059 6.13589 45.9213ZM129.629 103.337C129.629 102.993 130.69 102.284 136.514 98.7348C143.354 94.5693 150.479 90.5757 152.098 90.0094C152.791 89.7661 153.537 89.4851 153.754 89.3928C154.403 89.1033 153.964 89.6571 152.892 90.4709C152.36 90.882 149.748 92.4341 147.094 93.9316C144.441 95.425 139.583 98.202 136.308 100.107C130.686 103.37 129.629 103.878 129.629 103.337ZM243.644 99.7835C243.591 99.729 242.726 99.5654 241.71 99.4185C239.326 99.0788 234.986 97.9881 227.43 95.8361C219.38 93.5457 215.947 92.3921 211.284 90.4289C209.148 89.527 206.66 88.4825 205.753 88.1092C203.886 87.3289 203.56 87.0772 204.01 86.7584C204.587 86.3515 205.355 86.5319 208.942 87.9414C216.73 90.9868 219.736 91.9684 230.818 95.0852C237.149 96.8639 242.868 98.4579 243.528 98.6257C244.933 98.9781 245.042 99.062 244.693 99.5318C244.453 99.859 243.842 100.01 243.644 99.7835ZM136.72 70.6291C132.74 70.3648 129.089 69.8489 125.435 69.0267C123.734 68.6407 121.384 68.2674 120.226 68.1919C118.063 68.0535 117.568 67.8269 118.235 67.2816C118.895 66.7405 122.197 66.8999 126.151 67.6633C130.686 68.5359 134.453 68.9637 140.419 69.2784C144.935 69.5217 146.037 69.723 146.217 70.3355C146.255 70.4781 145.996 70.6585 145.64 70.7382C144.808 70.9269 140.408 70.8724 136.72 70.6291ZM207.593 65.8008C207.518 65.6624 207.533 65.4736 207.63 65.3813C207.84 65.18 212.802 63.9635 216.13 63.3007C219.507 62.6295 236.174 59.9112 238.7 59.6218C239.866 59.4875 240.9 59.3239 240.998 59.2568C241.088 59.1939 241.223 59.2358 241.29 59.3617C241.361 59.4833 241.02 59.7015 240.537 59.8441C240.053 59.9825 239.068 60.3013 238.352 60.5446C236.44 61.1948 232.475 61.9625 223.012 63.5146C218.379 64.2781 213.35 65.159 211.835 65.4778C208.826 66.1028 207.803 66.1825 207.593 65.8008ZM151.82 52.8177C151.535 52.6415 150.805 52.3227 150.194 52.1171C148.174 51.4459 142.481 48.0859 139.081 45.5689C136.694 43.7987 135.472 42.7709 131.113 38.8949C129.048 37.0617 126.837 35.2453 126.2 34.8678C125 34.1547 124.588 33.601 125.248 33.601C126.027 33.601 128.197 35.0062 131.48 37.6322C139.658 44.172 142.027 45.8416 147.372 48.8242C148.743 49.5918 150.332 50.5524 150.895 50.9677C151.461 51.3746 152.184 51.8906 152.502 52.1087C152.971 52.4317 153.035 52.566 152.836 52.8345C152.54 53.233 152.469 53.233 151.82 52.8135V52.8177ZM200.925 48.2495C200.925 47.788 201.45 47.3518 203.597 46.0262C204.669 45.3634 208.646 42.6409 212.431 39.9855C216.217 37.326 220.564 34.2847 222.09 33.2318C228.202 29.0118 231.437 26.5536 231.381 26.1844C231.339 25.9201 231.665 25.6684 232.49 25.3245C235.091 24.2338 233.884 26.1257 230.249 28.8314C227.734 30.7065 211.768 41.9404 207.252 45.0152C204.145 47.1336 201.72 48.5599 201.236 48.5599C201.068 48.5599 200.925 48.4214 200.925 48.2495ZM165.62 36.0885C165.384 35.6732 164.915 34.9643 164.574 34.5196C164.237 34.0792 163.184 32.0572 162.236 30.0353C161.287 28.0092 159.511 24.4855 158.289 22.2077C157.067 19.9299 155.032 15.8398 153.769 13.1174C152.506 10.3949 151.138 7.55078 150.726 6.7957C149.943 5.35266 149.976 4.89961 150.853 5.14711C151.49 5.32749 152.716 7.43332 155.677 13.4614C156.921 15.9951 158.836 19.7117 159.931 21.7253C162.307 26.0837 164.327 30.3499 165.073 32.5648C165.365 33.4499 165.789 34.6874 166.01 35.3167C166.486 36.68 166.235 37.175 165.62 36.0885ZM189.352 32.5271C189.123 32.2712 189.198 30.3583 189.509 28.5377C189.835 26.6417 193.163 9.72792 194.153 4.92898C194.498 3.2762 194.722 1.76604 194.659 1.57727C194.516 1.16618 195.288 0 195.701 0C196.342 0 196.068 1.65698 192.069 22.0944C190.161 31.8517 189.843 33.0766 189.352 32.5271Z" fill="#4E6A03"/>
</svg>
