<svg width="641" height="497" viewBox="0 0 641 497" fill="none" xmlns="http://www.w3.org/2000/svg">
<path d="M6.14 413.12C5.1 413.12 4.1 412.953 3.14 412.62C2.19333 412.273 1.46 411.833 0.94 411.3L1.52 410.16C2.01333 410.64 2.67333 411.047 3.5 411.38C4.34 411.7 5.22 411.86 6.14 411.86C7.02 411.86 7.73333 411.753 8.28 411.54C8.84 411.313 9.24667 411.013 9.5 410.64C9.76667 410.267 9.9 409.853 9.9 409.4C9.9 408.853 9.74 408.413 9.42 408.08C9.11333 407.747 8.70667 407.487 8.2 407.3C7.69333 407.1 7.13333 406.927 6.52 406.78C5.90667 406.633 5.29333 406.48 4.68 406.32C4.06667 406.147 3.5 405.92 2.98 405.64C2.47333 405.36 2.06 404.993 1.74 404.54C1.43333 404.073 1.28 403.467 1.28 402.72C1.28 402.027 1.46 401.393 1.82 400.82C2.19333 400.233 2.76 399.767 3.52 399.42C4.28 399.06 5.25333 398.88 6.44 398.88C7.22667 398.88 8.00667 398.993 8.78 399.22C9.55333 399.433 10.22 399.733 10.78 400.12L10.28 401.3C9.68 400.9 9.04 400.607 8.36 400.42C7.69333 400.233 7.04667 400.14 6.42 400.14C5.58 400.14 4.88667 400.253 4.34 400.48C3.79333 400.707 3.38667 401.013 3.12 401.4C2.86667 401.773 2.74 402.2 2.74 402.68C2.74 403.227 2.89333 403.667 3.2 404C3.52 404.333 3.93333 404.593 4.44 404.78C4.96 404.967 5.52667 405.133 6.14 405.28C6.75333 405.427 7.36 405.587 7.96 405.76C8.57333 405.933 9.13333 406.16 9.64 406.44C10.16 406.707 10.5733 407.067 10.88 407.52C11.2 407.973 11.36 408.567 11.36 409.3C11.36 409.98 11.1733 410.613 10.8 411.2C10.4267 411.773 9.85333 412.24 9.08 412.6C8.32 412.947 7.34 413.12 6.14 413.12ZM18.5647 413.1C17.5514 413.1 16.638 412.873 15.8247 412.42C15.0247 411.953 14.3914 411.32 13.9247 410.52C13.458 409.707 13.2247 408.78 13.2247 407.74C13.2247 406.687 13.458 405.76 13.9247 404.96C14.3914 404.16 15.0247 403.533 15.8247 403.08C16.6247 402.627 17.538 402.4 18.5647 402.4C19.6047 402.4 20.5247 402.627 21.3247 403.08C22.138 403.533 22.7714 404.16 23.2247 404.96C23.6914 405.76 23.9247 406.687 23.9247 407.74C23.9247 408.78 23.6914 409.707 23.2247 410.52C22.7714 411.32 22.138 411.953 21.3247 412.42C20.5114 412.873 19.5914 413.1 18.5647 413.1ZM18.5647 411.84C19.3247 411.84 19.998 411.673 20.5847 411.34C21.1714 410.993 21.6314 410.513 21.9647 409.9C22.3114 409.273 22.4847 408.553 22.4847 407.74C22.4847 406.913 22.3114 406.193 21.9647 405.58C21.6314 404.967 21.1714 404.493 20.5847 404.16C19.998 403.813 19.3314 403.64 18.5847 403.64C17.838 403.64 17.1714 403.813 16.5847 404.16C15.998 404.493 15.5314 404.967 15.1847 405.58C14.838 406.193 14.6647 406.913 14.6647 407.74C14.6647 408.553 14.838 409.273 15.1847 409.9C15.5314 410.513 15.998 410.993 16.5847 411.34C17.1714 411.673 17.8314 411.84 18.5647 411.84ZM31.1838 413.1C30.1438 413.1 29.2104 412.873 28.3838 412.42C27.5704 411.953 26.9304 411.32 26.4638 410.52C25.9971 409.707 25.7638 408.78 25.7638 407.74C25.7638 406.687 25.9971 405.76 26.4638 404.96C26.9304 404.16 27.5704 403.533 28.3838 403.08C29.2104 402.627 30.1438 402.4 31.1838 402.4C32.0771 402.4 32.8838 402.573 33.6038 402.92C34.3238 403.267 34.8904 403.787 35.3038 404.48L34.2438 405.2C33.8838 404.667 33.4371 404.273 32.9038 404.02C32.3704 403.767 31.7904 403.64 31.1638 403.64C30.4171 403.64 29.7438 403.813 29.1438 404.16C28.5438 404.493 28.0704 404.967 27.7238 405.58C27.3771 406.193 27.2038 406.913 27.2038 407.74C27.2038 408.567 27.3771 409.287 27.7238 409.9C28.0704 410.513 28.5438 410.993 29.1438 411.34C29.7438 411.673 30.4171 411.84 31.1638 411.84C31.7904 411.84 32.3704 411.713 32.9038 411.46C33.4371 411.207 33.8838 410.82 34.2438 410.3L35.3038 411.02C34.8904 411.7 34.3238 412.22 33.6038 412.58C32.8838 412.927 32.0771 413.1 31.1838 413.1ZM37.937 413V402.5H39.357V413H37.937ZM38.657 400.18C38.3637 400.18 38.117 400.08 37.917 399.88C37.717 399.68 37.617 399.44 37.617 399.16C37.617 398.88 37.717 398.647 37.917 398.46C38.117 398.26 38.3637 398.16 38.657 398.16C38.9504 398.16 39.197 398.253 39.397 398.44C39.597 398.627 39.697 398.86 39.697 399.14C39.697 399.433 39.597 399.68 39.397 399.88C39.2104 400.08 38.9637 400.18 38.657 400.18ZM49.8881 413V410.68L49.8281 410.3V406.42C49.8281 405.527 49.5748 404.84 49.0681 404.36C48.5748 403.88 47.8348 403.64 46.8481 403.64C46.1681 403.64 45.5215 403.753 44.9081 403.98C44.2948 404.207 43.7748 404.507 43.3481 404.88L42.7081 403.82C43.2415 403.367 43.8815 403.02 44.6281 402.78C45.3748 402.527 46.1615 402.4 46.9881 402.4C48.3481 402.4 49.3948 402.74 50.1281 403.42C50.8748 404.087 51.2481 405.107 51.2481 406.48V413H49.8881ZM46.2681 413.1C45.4815 413.1 44.7948 412.973 44.2081 412.72C43.6348 412.453 43.1948 412.093 42.8881 411.64C42.5815 411.173 42.4281 410.64 42.4281 410.04C42.4281 409.493 42.5548 409 42.8081 408.56C43.0748 408.107 43.5015 407.747 44.0881 407.48C44.6881 407.2 45.4881 407.06 46.4881 407.06H50.1081V408.12H46.5281C45.5148 408.12 44.8081 408.3 44.4081 408.66C44.0215 409.02 43.8281 409.467 43.8281 410C43.8281 410.6 44.0615 411.08 44.5281 411.44C44.9948 411.8 45.6481 411.98 46.4881 411.98C47.2881 411.98 47.9748 411.8 48.5481 411.44C49.1348 411.067 49.5615 410.533 49.8281 409.84L50.1481 410.82C49.8815 411.513 49.4148 412.067 48.7481 412.48C48.0948 412.893 47.2681 413.1 46.2681 413.1ZM55.105 413V398.16H56.525V413H55.105ZM66.0105 413V399H67.2305L73.6305 409.92H72.9905L79.3305 399H80.5505V413H79.1305V401.22H79.4705L73.6305 411.22H72.9305L67.0505 401.22H67.4305V413H66.0105ZM89.272 413.1C88.1787 413.1 87.2187 412.873 86.392 412.42C85.5654 411.953 84.9187 411.32 84.452 410.52C83.9854 409.707 83.752 408.78 83.752 407.74C83.752 406.7 83.972 405.78 84.412 404.98C84.8654 404.18 85.4787 403.553 86.252 403.1C87.0387 402.633 87.9187 402.4 88.892 402.4C89.8787 402.4 90.752 402.627 91.512 403.08C92.2854 403.52 92.892 404.147 93.332 404.96C93.772 405.76 93.992 406.687 93.992 407.74C93.992 407.807 93.9854 407.88 93.972 407.96C93.972 408.027 93.972 408.1 93.972 408.18H84.832V407.12H93.212L92.652 407.54C92.652 406.78 92.4854 406.107 92.152 405.52C91.832 404.92 91.392 404.453 90.832 404.12C90.272 403.787 89.6254 403.62 88.892 403.62C88.172 403.62 87.5254 403.787 86.952 404.12C86.3787 404.453 85.932 404.92 85.612 405.52C85.292 406.12 85.132 406.807 85.132 407.58V407.8C85.132 408.6 85.3054 409.307 85.652 409.92C86.012 410.52 86.5054 410.993 87.132 411.34C87.772 411.673 88.4987 411.84 89.312 411.84C89.952 411.84 90.5454 411.727 91.092 411.5C91.652 411.273 92.132 410.927 92.532 410.46L93.332 411.38C92.8654 411.94 92.2787 412.367 91.572 412.66C90.8787 412.953 90.112 413.1 89.272 413.1ZM101.062 413.1C100.062 413.1 99.1623 412.873 98.3623 412.42C97.5757 411.967 96.9557 411.34 96.5023 410.54C96.049 409.727 95.8223 408.793 95.8223 407.74C95.8223 406.673 96.049 405.74 96.5023 404.94C96.9557 404.14 97.5757 403.52 98.3623 403.08C99.1623 402.627 100.062 402.4 101.062 402.4C101.982 402.4 102.802 402.607 103.522 403.02C104.256 403.433 104.836 404.04 105.262 404.84C105.702 405.627 105.922 406.593 105.922 407.74C105.922 408.873 105.709 409.84 105.282 410.64C104.856 411.44 104.276 412.053 103.542 412.48C102.822 412.893 101.996 413.1 101.062 413.1ZM101.162 411.84C101.909 411.84 102.576 411.673 103.162 411.34C103.762 410.993 104.229 410.513 104.562 409.9C104.909 409.273 105.082 408.553 105.082 407.74C105.082 406.913 104.909 406.193 104.562 405.58C104.229 404.967 103.762 404.493 103.162 404.16C102.576 403.813 101.909 403.64 101.162 403.64C100.429 403.64 99.769 403.813 99.1823 404.16C98.5957 404.493 98.129 404.967 97.7823 405.58C97.4357 406.193 97.2623 406.913 97.2623 407.74C97.2623 408.553 97.4357 409.273 97.7823 409.9C98.129 410.513 98.5957 410.993 99.1823 411.34C99.769 411.673 100.429 411.84 101.162 411.84ZM105.122 413V409.84L105.262 407.72L105.062 405.6V398.16H106.482V413H105.122ZM110.437 413V402.5H111.857V413H110.437ZM111.157 400.18C110.864 400.18 110.617 400.08 110.417 399.88C110.217 399.68 110.117 399.44 110.117 399.16C110.117 398.88 110.217 398.647 110.417 398.46C110.617 398.26 110.864 398.16 111.157 398.16C111.45 398.16 111.697 398.253 111.897 398.44C112.097 398.627 112.197 398.86 112.197 399.14C112.197 399.433 112.097 399.68 111.897 399.88C111.71 400.08 111.464 400.18 111.157 400.18ZM122.388 413V410.68L122.328 410.3V406.42C122.328 405.527 122.075 404.84 121.568 404.36C121.075 403.88 120.335 403.64 119.348 403.64C118.668 403.64 118.021 403.753 117.408 403.98C116.795 404.207 116.275 404.507 115.848 404.88L115.208 403.82C115.741 403.367 116.381 403.02 117.128 402.78C117.875 402.527 118.661 402.4 119.488 402.4C120.848 402.4 121.895 402.74 122.628 403.42C123.375 404.087 123.748 405.107 123.748 406.48V413H122.388ZM118.768 413.1C117.981 413.1 117.295 412.973 116.708 412.72C116.135 412.453 115.695 412.093 115.388 411.64C115.081 411.173 114.928 410.64 114.928 410.04C114.928 409.493 115.055 409 115.308 408.56C115.575 408.107 116.001 407.747 116.588 407.48C117.188 407.2 117.988 407.06 118.988 407.06H122.608V408.12H119.028C118.015 408.12 117.308 408.3 116.908 408.66C116.521 409.02 116.328 409.467 116.328 410C116.328 410.6 116.561 411.08 117.028 411.44C117.495 411.8 118.148 411.98 118.988 411.98C119.788 411.98 120.475 411.8 121.048 411.44C121.635 411.067 122.061 410.533 122.328 409.84L122.648 410.82C122.381 411.513 121.915 412.067 121.248 412.48C120.595 412.893 119.768 413.1 118.768 413.1Z" fill="#323232"/>
<path d="M40.46 451.12C39.46 451.12 38.5067 450.96 37.6 450.64C36.6933 450.307 35.9733 449.867 35.44 449.32L36.14 448.18C36.58 448.647 37.18 449.033 37.94 449.34C38.7133 449.647 39.5467 449.8 40.44 449.8C41.6267 449.8 42.5267 449.54 43.14 449.02C43.7667 448.487 44.08 447.793 44.08 446.94C44.08 446.34 43.9333 445.827 43.64 445.4C43.36 444.96 42.88 444.62 42.2 444.38C41.52 444.14 40.5867 444.02 39.4 444.02H36.42L37.14 437H44.8V438.28H37.72L38.46 437.58L37.84 443.46L37.1 442.74H39.72C41.1333 442.74 42.2667 442.913 43.12 443.26C43.9733 443.607 44.5867 444.093 44.96 444.72C45.3467 445.333 45.54 446.053 45.54 446.88C45.54 447.667 45.3533 448.387 44.98 449.04C44.6067 449.68 44.0467 450.187 43.3 450.56C42.5533 450.933 41.6067 451.12 40.46 451.12ZM47.0105 451V449.98L52.8305 444.28C53.3638 443.76 53.7638 443.307 54.0305 442.92C54.2971 442.52 54.4771 442.147 54.5705 441.8C54.6638 441.453 54.7105 441.127 54.7105 440.82C54.7105 440.007 54.4305 439.367 53.8705 438.9C53.3238 438.433 52.5105 438.2 51.4305 438.2C50.6038 438.2 49.8705 438.327 49.2305 438.58C48.6038 438.833 48.0638 439.227 47.6105 439.76L46.5905 438.88C47.1371 438.24 47.8371 437.747 48.6905 437.4C49.5438 437.053 50.4971 436.88 51.5505 436.88C52.4971 436.88 53.3171 437.033 54.0105 437.34C54.7038 437.633 55.2371 438.067 55.6105 438.64C55.9971 439.213 56.1905 439.887 56.1905 440.66C56.1905 441.113 56.1238 441.56 55.9905 442C55.8705 442.44 55.6438 442.907 55.3105 443.4C54.9905 443.88 54.5171 444.427 53.8905 445.04L48.5505 450.28L48.1505 449.72H56.8305V451H47.0105ZM59.913 451.1C59.6196 451.1 59.3663 450.993 59.153 450.78C58.953 450.567 58.853 450.307 58.853 450C58.853 449.68 58.953 449.42 59.153 449.22C59.3663 449.02 59.6196 448.92 59.913 448.92C60.2063 448.92 60.453 449.02 60.653 449.22C60.8663 449.42 60.973 449.68 60.973 450C60.973 450.307 60.8663 450.567 60.653 450.78C60.453 450.993 60.2063 451.1 59.913 451.1ZM68.5964 451.12C67.3564 451.12 66.3097 450.847 65.4564 450.3C64.6031 449.74 63.9564 448.94 63.5164 447.9C63.0764 446.847 62.8564 445.587 62.8564 444.12C62.8564 442.533 63.1231 441.207 63.6564 440.14C64.2031 439.06 64.9564 438.247 65.9164 437.7C66.8764 437.153 67.9897 436.88 69.2564 436.88C69.8831 436.88 70.4831 436.94 71.0564 437.06C71.6297 437.18 72.1364 437.373 72.5764 437.64L71.9964 438.8C71.6364 438.56 71.2231 438.393 70.7564 438.3C70.2897 438.193 69.7964 438.14 69.2764 438.14C67.7697 438.14 66.5631 438.62 65.6564 439.58C64.7631 440.54 64.3164 441.973 64.3164 443.88C64.3164 444.173 64.3297 444.54 64.3564 444.98C64.3964 445.407 64.4764 445.833 64.5964 446.26L64.0964 445.88C64.2431 445.187 64.5297 444.6 64.9564 444.12C65.3831 443.627 65.9164 443.253 66.5564 443C67.1964 442.747 67.8964 442.62 68.6564 442.62C69.5897 442.62 70.4097 442.793 71.1164 443.14C71.8231 443.487 72.3764 443.973 72.7764 444.6C73.1764 445.227 73.3764 445.967 73.3764 446.82C73.3764 447.687 73.1697 448.447 72.7564 449.1C72.3431 449.74 71.7697 450.24 71.0364 450.6C70.3164 450.947 69.5031 451.12 68.5964 451.12ZM68.5364 449.9C69.2031 449.9 69.7897 449.78 70.2964 449.54C70.8164 449.287 71.2231 448.933 71.5164 448.48C71.8097 448.013 71.9564 447.473 71.9564 446.86C71.9564 445.94 71.6364 445.207 70.9964 444.66C70.3697 444.113 69.5164 443.84 68.4364 443.84C67.7164 443.84 67.0897 443.973 66.5564 444.24C66.0231 444.507 65.6031 444.873 65.2964 445.34C64.9897 445.793 64.8364 446.313 64.8364 446.9C64.8364 447.407 64.9764 447.893 65.2564 448.36C65.5364 448.813 65.9497 449.187 66.4964 449.48C67.0564 449.76 67.7364 449.9 68.5364 449.9ZM76.5333 451L86.0933 437H87.2733L77.7133 451H76.5333ZM77.6133 444.5C76.9866 444.5 76.4333 444.347 75.9533 444.04C75.4733 443.72 75.0999 443.273 74.8333 442.7C74.5799 442.127 74.4533 441.46 74.4533 440.7C74.4533 439.94 74.5799 439.273 74.8333 438.7C75.0999 438.127 75.4733 437.687 75.9533 437.38C76.4333 437.06 76.9866 436.9 77.6133 436.9C78.2399 436.9 78.7866 437.06 79.2533 437.38C79.7333 437.687 80.1066 438.127 80.3733 438.7C80.6399 439.273 80.7733 439.94 80.7733 440.7C80.7733 441.46 80.6399 442.127 80.3733 442.7C80.1066 443.273 79.7333 443.72 79.2533 444.04C78.7866 444.347 78.2399 444.5 77.6133 444.5ZM77.6133 443.6C78.2666 443.6 78.7866 443.347 79.1733 442.84C79.5733 442.32 79.7733 441.607 79.7733 440.7C79.7733 439.793 79.5733 439.087 79.1733 438.58C78.7866 438.06 78.2666 437.8 77.6133 437.8C76.9466 437.8 76.4199 438.06 76.0333 438.58C75.6466 439.087 75.4533 439.793 75.4533 440.7C75.4533 441.607 75.6466 442.32 76.0333 442.84C76.4199 443.347 76.9466 443.6 77.6133 443.6ZM86.1933 451.1C85.5799 451.1 85.0333 450.947 84.5533 450.64C84.0733 450.32 83.6999 449.873 83.4333 449.3C83.1666 448.727 83.0333 448.06 83.0333 447.3C83.0333 446.54 83.1666 445.873 83.4333 445.3C83.6999 444.727 84.0733 444.287 84.5533 443.98C85.0333 443.66 85.5799 443.5 86.1933 443.5C86.8333 443.5 87.3866 443.66 87.8533 443.98C88.3333 444.287 88.6999 444.727 88.9533 445.3C89.2199 445.873 89.3533 446.54 89.3533 447.3C89.3533 448.06 89.2199 448.727 88.9533 449.3C88.6999 449.873 88.3333 450.32 87.8533 450.64C87.3866 450.947 86.8333 451.1 86.1933 451.1ZM86.1933 450.2C86.8466 450.2 87.3666 449.947 87.7533 449.44C88.1533 448.92 88.3533 448.207 88.3533 447.3C88.3533 446.393 88.1533 445.687 87.7533 445.18C87.3666 444.66 86.8466 444.4 86.1933 444.4C85.5399 444.4 85.0133 444.66 84.6133 445.18C84.2266 445.687 84.0333 446.393 84.0333 447.3C84.0333 448.207 84.2266 448.92 84.6133 449.44C85.0133 449.947 85.5399 450.2 86.1933 450.2Z" fill="#323232"/>
<path d="M518.28 375V361H519.5L525.9 371.92H525.26L531.6 361H532.82V375H531.4V363.22H531.74L525.9 373.22H525.2L519.32 363.22H519.7V375H518.28ZM541.362 375.1C540.348 375.1 539.435 374.873 538.622 374.42C537.822 373.953 537.188 373.32 536.722 372.52C536.255 371.707 536.022 370.78 536.022 369.74C536.022 368.687 536.255 367.76 536.722 366.96C537.188 366.16 537.822 365.533 538.622 365.08C539.422 364.627 540.335 364.4 541.362 364.4C542.402 364.4 543.322 364.627 544.122 365.08C544.935 365.533 545.568 366.16 546.022 366.96C546.488 367.76 546.722 368.687 546.722 369.74C546.722 370.78 546.488 371.707 546.022 372.52C545.568 373.32 544.935 373.953 544.122 374.42C543.308 374.873 542.388 375.1 541.362 375.1ZM541.362 373.84C542.122 373.84 542.795 373.673 543.382 373.34C543.968 372.993 544.428 372.513 544.762 371.9C545.108 371.273 545.282 370.553 545.282 369.74C545.282 368.913 545.108 368.193 544.762 367.58C544.428 366.967 543.968 366.493 543.382 366.16C542.795 365.813 542.128 365.64 541.382 365.64C540.635 365.64 539.968 365.813 539.382 366.16C538.795 366.493 538.328 366.967 537.982 367.58C537.635 368.193 537.462 368.913 537.462 369.74C537.462 370.553 537.635 371.273 537.982 371.9C538.328 372.513 538.795 372.993 539.382 373.34C539.968 373.673 540.628 373.84 541.362 373.84ZM555.041 375.1C554.121 375.1 553.294 374.893 552.561 374.48C551.827 374.053 551.247 373.44 550.821 372.64C550.394 371.84 550.181 370.873 550.181 369.74C550.181 368.593 550.394 367.627 550.821 366.84C551.261 366.04 551.847 365.433 552.581 365.02C553.314 364.607 554.134 364.4 555.041 364.4C556.041 364.4 556.934 364.627 557.721 365.08C558.521 365.52 559.147 366.14 559.601 366.94C560.054 367.74 560.281 368.673 560.281 369.74C560.281 370.793 560.054 371.727 559.601 372.54C559.147 373.34 558.521 373.967 557.721 374.42C556.934 374.873 556.041 375.1 555.041 375.1ZM549.621 375V360.16H551.041V367.6L550.841 369.72L550.981 371.84V375H549.621ZM554.941 373.84C555.687 373.84 556.354 373.673 556.941 373.34C557.527 372.993 557.994 372.513 558.341 371.9C558.687 371.273 558.861 370.553 558.861 369.74C558.861 368.913 558.687 368.193 558.341 367.58C557.994 366.967 557.527 366.493 556.941 366.16C556.354 365.813 555.687 365.64 554.941 365.64C554.194 365.64 553.521 365.813 552.921 366.16C552.334 366.493 551.867 366.967 551.521 367.58C551.187 368.193 551.021 368.913 551.021 369.74C551.021 370.553 551.187 371.273 551.521 371.9C551.867 372.513 552.334 372.993 552.921 373.34C553.521 373.673 554.194 373.84 554.941 373.84ZM563.175 375V364.5H564.595V375H563.175ZM563.895 362.18C563.602 362.18 563.355 362.08 563.155 361.88C562.955 361.68 562.855 361.44 562.855 361.16C562.855 360.88 562.955 360.647 563.155 360.46C563.355 360.26 563.602 360.16 563.895 360.16C564.189 360.16 564.435 360.253 564.635 360.44C564.835 360.627 564.935 360.86 564.935 361.14C564.935 361.433 564.835 361.68 564.635 361.88C564.449 362.08 564.202 362.18 563.895 362.18ZM568.546 375V360.16H569.966V375H568.546ZM578.378 375.1C577.284 375.1 576.324 374.873 575.498 374.42C574.671 373.953 574.024 373.32 573.558 372.52C573.091 371.707 572.858 370.78 572.858 369.74C572.858 368.7 573.078 367.78 573.518 366.98C573.971 366.18 574.584 365.553 575.358 365.1C576.144 364.633 577.024 364.4 577.998 364.4C578.984 364.4 579.858 364.627 580.618 365.08C581.391 365.52 581.998 366.147 582.438 366.96C582.878 367.76 583.098 368.687 583.098 369.74C583.098 369.807 583.091 369.88 583.078 369.96C583.078 370.027 583.078 370.1 583.078 370.18H573.938V369.12H582.318L581.758 369.54C581.758 368.78 581.591 368.107 581.258 367.52C580.938 366.92 580.498 366.453 579.938 366.12C579.378 365.787 578.731 365.62 577.998 365.62C577.278 365.62 576.631 365.787 576.058 366.12C575.484 366.453 575.038 366.92 574.718 367.52C574.398 368.12 574.238 368.807 574.238 369.58V369.8C574.238 370.6 574.411 371.307 574.758 371.92C575.118 372.52 575.611 372.993 576.238 373.34C576.878 373.673 577.604 373.84 578.418 373.84C579.058 373.84 579.651 373.727 580.198 373.5C580.758 373.273 581.238 372.927 581.638 372.46L582.438 373.38C581.971 373.94 581.384 374.367 580.678 374.66C579.984 374.953 579.218 375.1 578.378 375.1ZM589.282 375L595.682 361H597.142L603.542 375H601.982L596.102 361.86H596.702L590.822 375H589.282ZM591.802 371.26L592.242 370.06H600.382L600.822 371.26H591.802ZM610.978 375.1C610.071 375.1 609.251 374.893 608.518 374.48C607.785 374.053 607.198 373.447 606.758 372.66C606.331 371.86 606.118 370.887 606.118 369.74C606.118 368.593 606.331 367.627 606.758 366.84C607.185 366.04 607.765 365.433 608.498 365.02C609.231 364.607 610.058 364.4 610.978 364.4C611.978 364.4 612.871 364.627 613.658 365.08C614.458 365.52 615.085 366.147 615.538 366.96C615.991 367.76 616.218 368.687 616.218 369.74C616.218 370.807 615.991 371.74 615.538 372.54C615.085 373.34 614.458 373.967 613.658 374.42C612.871 374.873 611.978 375.1 610.978 375.1ZM605.558 378.88V364.5H606.918V367.66L606.778 369.76L606.978 371.88V378.88H605.558ZM610.878 373.84C611.625 373.84 612.291 373.673 612.878 373.34C613.465 372.993 613.931 372.513 614.278 371.9C614.625 371.273 614.798 370.553 614.798 369.74C614.798 368.927 614.625 368.213 614.278 367.6C613.931 366.987 613.465 366.507 612.878 366.16C612.291 365.813 611.625 365.64 610.878 365.64C610.131 365.64 609.458 365.813 608.858 366.16C608.271 366.507 607.805 366.987 607.458 367.6C607.125 368.213 606.958 368.927 606.958 369.74C606.958 370.553 607.125 371.273 607.458 371.9C607.805 372.513 608.271 372.993 608.858 373.34C609.458 373.673 610.131 373.84 610.878 373.84ZM624.533 375.1C623.626 375.1 622.806 374.893 622.073 374.48C621.339 374.053 620.753 373.447 620.313 372.66C619.886 371.86 619.673 370.887 619.673 369.74C619.673 368.593 619.886 367.627 620.313 366.84C620.739 366.04 621.319 365.433 622.053 365.02C622.786 364.607 623.613 364.4 624.533 364.4C625.533 364.4 626.426 364.627 627.213 365.08C628.013 365.52 628.639 366.147 629.093 366.96C629.546 367.76 629.773 368.687 629.773 369.74C629.773 370.807 629.546 371.74 629.093 372.54C628.639 373.34 628.013 373.967 627.213 374.42C626.426 374.873 625.533 375.1 624.533 375.1ZM619.113 378.88V364.5H620.473V367.66L620.333 369.76L620.533 371.88V378.88H619.113ZM624.433 373.84C625.179 373.84 625.846 373.673 626.433 373.34C627.019 372.993 627.486 372.513 627.833 371.9C628.179 371.273 628.353 370.553 628.353 369.74C628.353 368.927 628.179 368.213 627.833 367.6C627.486 366.987 627.019 366.507 626.433 366.16C625.846 365.813 625.179 365.64 624.433 365.64C623.686 365.64 623.013 365.813 622.413 366.16C621.826 366.507 621.359 366.987 621.013 367.6C620.679 368.213 620.513 368.927 620.513 369.74C620.513 370.553 620.679 371.273 621.013 371.9C621.359 372.513 621.826 372.993 622.413 373.34C623.013 373.673 623.686 373.84 624.433 373.84ZM635.488 375.1C634.621 375.1 633.801 374.98 633.028 374.74C632.254 374.487 631.648 374.173 631.208 373.8L631.848 372.68C632.274 373 632.821 373.28 633.488 373.52C634.154 373.747 634.854 373.86 635.588 373.86C636.588 373.86 637.308 373.707 637.748 373.4C638.188 373.08 638.408 372.66 638.408 372.14C638.408 371.753 638.281 371.453 638.028 371.24C637.788 371.013 637.468 370.847 637.068 370.74C636.668 370.62 636.221 370.52 635.728 370.44C635.234 370.36 634.741 370.267 634.248 370.16C633.768 370.053 633.328 369.9 632.928 369.7C632.528 369.487 632.201 369.2 631.948 368.84C631.708 368.48 631.588 368 631.588 367.4C631.588 366.827 631.748 366.313 632.068 365.86C632.388 365.407 632.854 365.053 633.468 364.8C634.094 364.533 634.854 364.4 635.748 364.4C636.428 364.4 637.108 364.493 637.788 364.68C638.468 364.853 639.028 365.087 639.468 365.38L638.848 366.52C638.381 366.2 637.881 365.973 637.348 365.84C636.814 365.693 636.281 365.62 635.748 365.62C634.801 365.62 634.101 365.787 633.648 366.12C633.208 366.44 632.988 366.853 632.988 367.36C632.988 367.76 633.108 368.073 633.348 368.3C633.601 368.527 633.928 368.707 634.328 368.84C634.741 368.96 635.188 369.06 635.668 369.14C636.161 369.22 636.648 369.32 637.128 369.44C637.621 369.547 638.068 369.7 638.468 369.9C638.881 370.087 639.208 370.36 639.448 370.72C639.701 371.067 639.828 371.527 639.828 372.1C639.828 372.713 639.654 373.247 639.308 373.7C638.974 374.14 638.481 374.487 637.828 374.74C637.188 374.98 636.408 375.1 635.488 375.1Z" fill="#323232"/>
<path d="M562.46 413.12C561.46 413.12 560.507 412.96 559.6 412.64C558.693 412.307 557.973 411.867 557.44 411.32L558.14 410.18C558.58 410.647 559.18 411.033 559.94 411.34C560.713 411.647 561.547 411.8 562.44 411.8C563.627 411.8 564.527 411.54 565.14 411.02C565.767 410.487 566.08 409.793 566.08 408.94C566.08 408.34 565.933 407.827 565.64 407.4C565.36 406.96 564.88 406.62 564.2 406.38C563.52 406.14 562.587 406.02 561.4 406.02H558.42L559.14 399H566.8V400.28H559.72L560.46 399.58L559.84 405.46L559.1 404.74H561.72C563.133 404.74 564.267 404.913 565.12 405.26C565.973 405.607 566.587 406.093 566.96 406.72C567.347 407.333 567.54 408.053 567.54 408.88C567.54 409.667 567.353 410.387 566.98 411.04C566.607 411.68 566.047 412.187 565.3 412.56C564.553 412.933 563.607 413.12 562.46 413.12ZM570.448 413.1C570.155 413.1 569.901 412.993 569.688 412.78C569.488 412.567 569.388 412.307 569.388 412C569.388 411.68 569.488 411.42 569.688 411.22C569.901 411.02 570.155 410.92 570.448 410.92C570.741 410.92 570.988 411.02 571.188 411.22C571.401 411.42 571.508 411.68 571.508 412C571.508 412.307 571.401 412.567 571.188 412.78C570.988 412.993 570.741 413.1 570.448 413.1ZM577.982 413.12C576.968 413.12 576.008 412.96 575.102 412.64C574.208 412.307 573.488 411.867 572.942 411.32L573.642 410.18C574.095 410.647 574.702 411.033 575.462 411.34C576.235 411.647 577.075 411.8 577.982 411.8C579.142 411.8 580.028 411.547 580.642 411.04C581.268 410.533 581.582 409.853 581.582 409C581.582 408.147 581.275 407.467 580.662 406.96C580.062 406.453 579.108 406.2 577.802 406.2H576.802V405.14L581.122 399.72L581.322 400.28H573.522V399H582.522V400.02L578.202 405.44L577.502 404.98H578.042C579.722 404.98 580.975 405.353 581.802 406.1C582.642 406.847 583.062 407.807 583.062 408.98C583.062 409.767 582.875 410.473 582.502 411.1C582.128 411.727 581.562 412.22 580.802 412.58C580.055 412.94 579.115 413.12 577.982 413.12ZM586.775 413L596.335 399H597.515L587.955 413H586.775ZM587.855 406.5C587.229 406.5 586.675 406.347 586.195 406.04C585.715 405.72 585.342 405.273 585.075 404.7C584.822 404.127 584.695 403.46 584.695 402.7C584.695 401.94 584.822 401.273 585.075 400.7C585.342 400.127 585.715 399.687 586.195 399.38C586.675 399.06 587.229 398.9 587.855 398.9C588.482 398.9 589.029 399.06 589.495 399.38C589.975 399.687 590.349 400.127 590.615 400.7C590.882 401.273 591.015 401.94 591.015 402.7C591.015 403.46 590.882 404.127 590.615 404.7C590.349 405.273 589.975 405.72 589.495 406.04C589.029 406.347 588.482 406.5 587.855 406.5ZM587.855 405.6C588.509 405.6 589.029 405.347 589.415 404.84C589.815 404.32 590.015 403.607 590.015 402.7C590.015 401.793 589.815 401.087 589.415 400.58C589.029 400.06 588.509 399.8 587.855 399.8C587.189 399.8 586.662 400.06 586.275 400.58C585.889 401.087 585.695 401.793 585.695 402.7C585.695 403.607 585.889 404.32 586.275 404.84C586.662 405.347 587.189 405.6 587.855 405.6ZM596.435 413.1C595.822 413.1 595.275 412.947 594.795 412.64C594.315 412.32 593.942 411.873 593.675 411.3C593.409 410.727 593.275 410.06 593.275 409.3C593.275 408.54 593.409 407.873 593.675 407.3C593.942 406.727 594.315 406.287 594.795 405.98C595.275 405.66 595.822 405.5 596.435 405.5C597.075 405.5 597.629 405.66 598.095 405.98C598.575 406.287 598.942 406.727 599.195 407.3C599.462 407.873 599.595 408.54 599.595 409.3C599.595 410.06 599.462 410.727 599.195 411.3C598.942 411.873 598.575 412.32 598.095 412.64C597.629 412.947 597.075 413.1 596.435 413.1ZM596.435 412.2C597.089 412.2 597.609 411.947 597.995 411.44C598.395 410.92 598.595 410.207 598.595 409.3C598.595 408.393 598.395 407.687 597.995 407.18C597.609 406.66 597.089 406.4 596.435 406.4C595.782 406.4 595.255 406.66 594.855 407.18C594.469 407.687 594.275 408.393 594.275 409.3C594.275 410.207 594.469 410.92 594.855 411.44C595.255 411.947 595.782 412.2 596.435 412.2Z" fill="#323232"/>
<path d="M402.28 70V56H407.52C408.707 56 409.727 56.1933 410.58 56.58C411.433 56.9533 412.087 57.5 412.54 58.22C413.007 58.9267 413.24 59.7867 413.24 60.8C413.24 61.7867 413.007 62.64 412.54 63.36C412.087 64.0667 411.433 64.6133 410.58 65C409.727 65.3733 408.707 65.56 407.52 65.56H403.1L403.76 64.88V70H402.28ZM411.84 70L408.24 64.92H409.84L413.46 70H411.84ZM403.76 65L403.1 64.3H407.48C408.88 64.3 409.94 63.9933 410.66 63.38C411.393 62.7667 411.76 61.9067 411.76 60.8C411.76 59.68 411.393 58.8133 410.66 58.2C409.94 57.5867 408.88 57.28 407.48 57.28H403.1L403.76 56.58V65ZM420.893 70.1C419.8 70.1 418.84 69.8733 418.013 69.42C417.186 68.9533 416.54 68.32 416.073 67.52C415.606 66.7067 415.373 65.78 415.373 64.74C415.373 63.7 415.593 62.78 416.033 61.98C416.486 61.18 417.1 60.5533 417.873 60.1C418.66 59.6333 419.54 59.4 420.513 59.4C421.5 59.4 422.373 59.6267 423.133 60.08C423.906 60.52 424.513 61.1467 424.953 61.96C425.393 62.76 425.613 63.6867 425.613 64.74C425.613 64.8067 425.606 64.88 425.593 64.96C425.593 65.0267 425.593 65.1 425.593 65.18H416.453V64.12H424.833L424.273 64.54C424.273 63.78 424.106 63.1067 423.773 62.52C423.453 61.92 423.013 61.4533 422.453 61.12C421.893 60.7867 421.246 60.62 420.513 60.62C419.793 60.62 419.146 60.7867 418.573 61.12C418 61.4533 417.553 61.92 417.233 62.52C416.913 63.12 416.753 63.8067 416.753 64.58V64.8C416.753 65.6 416.926 66.3067 417.273 66.92C417.633 67.52 418.126 67.9933 418.753 68.34C419.393 68.6733 420.12 68.84 420.933 68.84C421.573 68.84 422.166 68.7267 422.713 68.5C423.273 68.2733 423.753 67.9267 424.153 67.46L424.953 68.38C424.486 68.94 423.9 69.3667 423.193 69.66C422.5 69.9533 421.733 70.1 420.893 70.1ZM431.323 70.1C430.457 70.1 429.637 69.98 428.863 69.74C428.09 69.4867 427.483 69.1733 427.043 68.8L427.683 67.68C428.11 68 428.657 68.28 429.323 68.52C429.99 68.7467 430.69 68.86 431.423 68.86C432.423 68.86 433.143 68.7067 433.583 68.4C434.023 68.08 434.243 67.66 434.243 67.14C434.243 66.7533 434.117 66.4533 433.863 66.24C433.623 66.0133 433.303 65.8467 432.903 65.74C432.503 65.62 432.057 65.52 431.563 65.44C431.07 65.36 430.577 65.2667 430.083 65.16C429.603 65.0533 429.163 64.9 428.763 64.7C428.363 64.4867 428.037 64.2 427.783 63.84C427.543 63.48 427.423 63 427.423 62.4C427.423 61.8267 427.583 61.3133 427.903 60.86C428.223 60.4067 428.69 60.0533 429.303 59.8C429.93 59.5333 430.69 59.4 431.583 59.4C432.263 59.4 432.943 59.4933 433.623 59.68C434.303 59.8533 434.863 60.0867 435.303 60.38L434.683 61.52C434.217 61.2 433.717 60.9733 433.183 60.84C432.65 60.6933 432.117 60.62 431.583 60.62C430.637 60.62 429.937 60.7867 429.483 61.12C429.043 61.44 428.823 61.8533 428.823 62.36C428.823 62.76 428.943 63.0733 429.183 63.3C429.437 63.5267 429.763 63.7067 430.163 63.84C430.577 63.96 431.023 64.06 431.503 64.14C431.997 64.22 432.483 64.32 432.963 64.44C433.457 64.5467 433.903 64.7 434.303 64.9C434.717 65.0867 435.043 65.36 435.283 65.72C435.537 66.0667 435.663 66.5267 435.663 67.1C435.663 67.7133 435.49 68.2467 435.143 68.7C434.81 69.14 434.317 69.4867 433.663 69.74C433.023 69.98 432.243 70.1 431.323 70.1ZM441.589 70.1C440.602 70.1 439.842 69.8333 439.309 69.3C438.776 68.7667 438.509 68.0133 438.509 67.04V57.18H439.929V66.96C439.929 67.5733 440.082 68.0467 440.389 68.38C440.709 68.7133 441.162 68.88 441.749 68.88C442.376 68.88 442.896 68.7 443.309 68.34L443.809 69.36C443.529 69.6133 443.189 69.8 442.789 69.92C442.402 70.04 442.002 70.1 441.589 70.1ZM436.629 60.68V59.5H443.129V60.68H436.629ZM452.974 70V67.68L452.914 67.3V63.42C452.914 62.5267 452.661 61.84 452.154 61.36C451.661 60.88 450.921 60.64 449.934 60.64C449.254 60.64 448.607 60.7533 447.994 60.98C447.381 61.2067 446.861 61.5067 446.434 61.88L445.794 60.82C446.327 60.3667 446.967 60.02 447.714 59.78C448.461 59.5267 449.247 59.4 450.074 59.4C451.434 59.4 452.481 59.74 453.214 60.42C453.961 61.0867 454.334 62.1067 454.334 63.48V70H452.974ZM449.354 70.1C448.567 70.1 447.881 69.9733 447.294 69.72C446.721 69.4533 446.281 69.0933 445.974 68.64C445.667 68.1733 445.514 67.64 445.514 67.04C445.514 66.4933 445.641 66 445.894 65.56C446.161 65.1067 446.587 64.7467 447.174 64.48C447.774 64.2 448.574 64.06 449.574 64.06H453.194V65.12H449.614C448.601 65.12 447.894 65.3 447.494 65.66C447.107 66.02 446.914 66.4667 446.914 67C446.914 67.6 447.147 68.08 447.614 68.44C448.081 68.8 448.734 68.98 449.574 68.98C450.374 68.98 451.061 68.8 451.634 68.44C452.221 68.0667 452.647 67.5333 452.914 66.84L453.234 67.82C452.967 68.5133 452.501 69.0667 451.834 69.48C451.181 69.8933 450.354 70.1 449.354 70.1ZM462.531 70.1C461.638 70.1 460.858 69.9333 460.191 69.6C459.524 69.2667 459.004 68.7667 458.631 68.1C458.271 67.4333 458.091 66.6 458.091 65.6V59.5H459.511V65.44C459.511 66.56 459.784 67.4067 460.331 67.98C460.891 68.54 461.671 68.82 462.671 68.82C463.404 68.82 464.038 68.6733 464.571 68.38C465.118 68.0733 465.531 67.6333 465.811 67.06C466.104 66.4867 466.251 65.8 466.251 65V59.5H467.671V70H466.311V67.12L466.531 67.64C466.198 68.4133 465.678 69.02 464.971 69.46C464.278 69.8867 463.464 70.1 462.531 70.1ZM471.628 70V59.5H472.988V62.36L472.848 61.86C473.142 61.06 473.635 60.4533 474.328 60.04C475.022 59.6133 475.882 59.4 476.908 59.4V60.78C476.855 60.78 476.802 60.78 476.748 60.78C476.695 60.7667 476.642 60.76 476.588 60.76C475.482 60.76 474.615 61.1 473.988 61.78C473.362 62.4467 473.048 63.4 473.048 64.64V70H471.628ZM485.298 70V67.68L485.238 67.3V63.42C485.238 62.5267 484.985 61.84 484.478 61.36C483.985 60.88 483.245 60.64 482.258 60.64C481.578 60.64 480.932 60.7533 480.318 60.98C479.705 61.2067 479.185 61.5067 478.758 61.88L478.118 60.82C478.652 60.3667 479.292 60.02 480.038 59.78C480.785 59.5267 481.572 59.4 482.398 59.4C483.758 59.4 484.805 59.74 485.538 60.42C486.285 61.0867 486.658 62.1067 486.658 63.48V70H485.298ZM481.678 70.1C480.892 70.1 480.205 69.9733 479.618 69.72C479.045 69.4533 478.605 69.0933 478.298 68.64C477.992 68.1733 477.838 67.64 477.838 67.04C477.838 66.4933 477.965 66 478.218 65.56C478.485 65.1067 478.912 64.7467 479.498 64.48C480.098 64.2 480.898 64.06 481.898 64.06H485.518V65.12H481.938C480.925 65.12 480.218 65.3 479.818 65.66C479.432 66.02 479.238 66.4667 479.238 67C479.238 67.6 479.472 68.08 479.938 68.44C480.405 68.8 481.058 68.98 481.898 68.98C482.698 68.98 483.385 68.8 483.958 68.44C484.545 68.0667 484.972 67.5333 485.238 66.84L485.558 67.82C485.292 68.5133 484.825 69.0667 484.158 69.48C483.505 69.8933 482.678 70.1 481.678 70.1ZM495.875 59.4C496.728 59.4 497.475 59.5667 498.115 59.9C498.768 60.22 499.275 60.7133 499.635 61.38C500.008 62.0467 500.195 62.8867 500.195 63.9V70H498.775V64.04C498.775 62.9333 498.495 62.1 497.935 61.54C497.388 60.9667 496.615 60.68 495.615 60.68C494.868 60.68 494.215 60.8333 493.655 61.14C493.108 61.4333 492.682 61.8667 492.375 62.44C492.082 63 491.935 63.68 491.935 64.48V70H490.515V59.5H491.875V62.38L491.655 61.84C491.988 61.08 492.522 60.4867 493.255 60.06C493.988 59.62 494.862 59.4 495.875 59.4ZM507.351 70.1C506.364 70.1 505.604 69.8333 505.071 69.3C504.537 68.7667 504.271 68.0133 504.271 67.04V57.18H505.691V66.96C505.691 67.5733 505.844 68.0467 506.151 68.38C506.471 68.7133 506.924 68.88 507.511 68.88C508.137 68.88 508.657 68.7 509.071 68.34L509.571 69.36C509.291 69.6133 508.951 69.8 508.551 69.92C508.164 70.04 507.764 70.1 507.351 70.1ZM502.391 60.68V59.5H508.891V60.68H502.391ZM520.87 70L516.15 56H517.67L522.09 69.18H521.33L525.89 56H527.25L531.75 69.18H531.03L535.49 56H536.91L532.19 70H530.63L526.33 57.5H526.73L522.41 70H520.87ZM542.983 70.1C541.89 70.1 540.93 69.8733 540.103 69.42C539.276 68.9533 538.63 68.32 538.163 67.52C537.696 66.7067 537.463 65.78 537.463 64.74C537.463 63.7 537.683 62.78 538.123 61.98C538.576 61.18 539.19 60.5533 539.963 60.1C540.75 59.6333 541.63 59.4 542.603 59.4C543.59 59.4 544.463 59.6267 545.223 60.08C545.996 60.52 546.603 61.1467 547.043 61.96C547.483 62.76 547.703 63.6867 547.703 64.74C547.703 64.8067 547.696 64.88 547.683 64.96C547.683 65.0267 547.683 65.1 547.683 65.18H538.543V64.12H546.923L546.363 64.54C546.363 63.78 546.196 63.1067 545.863 62.52C545.543 61.92 545.103 61.4533 544.543 61.12C543.983 60.7867 543.336 60.62 542.603 60.62C541.883 60.62 541.236 60.7867 540.663 61.12C540.09 61.4533 539.643 61.92 539.323 62.52C539.003 63.12 538.843 63.8067 538.843 64.58V64.8C538.843 65.6 539.016 66.3067 539.363 66.92C539.723 67.52 540.216 67.9933 540.843 68.34C541.483 68.6733 542.21 68.84 543.023 68.84C543.663 68.84 544.256 68.7267 544.803 68.5C545.363 68.2733 545.843 67.9267 546.243 67.46L547.043 68.38C546.576 68.94 545.99 69.3667 545.283 69.66C544.59 69.9533 543.823 70.1 542.983 70.1ZM556.013 70.1C555.093 70.1 554.267 69.8933 553.533 69.48C552.8 69.0533 552.22 68.44 551.793 67.64C551.367 66.84 551.153 65.8733 551.153 64.74C551.153 63.5933 551.367 62.6267 551.793 61.84C552.233 61.04 552.82 60.4333 553.553 60.02C554.287 59.6067 555.107 59.4 556.013 59.4C557.013 59.4 557.907 59.6267 558.693 60.08C559.493 60.52 560.12 61.14 560.573 61.94C561.027 62.74 561.253 63.6733 561.253 64.74C561.253 65.7933 561.027 66.7267 560.573 67.54C560.12 68.34 559.493 68.9667 558.693 69.42C557.907 69.8733 557.013 70.1 556.013 70.1ZM550.593 70V55.16H552.013V62.6L551.813 64.72L551.953 66.84V70H550.593ZM555.913 68.84C556.66 68.84 557.327 68.6733 557.913 68.34C558.5 67.9933 558.967 67.5133 559.313 66.9C559.66 66.2733 559.833 65.5533 559.833 64.74C559.833 63.9133 559.66 63.1933 559.313 62.58C558.967 61.9667 558.5 61.4933 557.913 61.16C557.327 60.8133 556.66 60.64 555.913 60.64C555.167 60.64 554.493 60.8133 553.893 61.16C553.307 61.4933 552.84 61.9667 552.493 62.58C552.16 63.1933 551.993 63.9133 551.993 64.74C551.993 65.5533 552.16 66.2733 552.493 66.9C552.84 67.5133 553.307 67.9933 553.893 68.34C554.493 68.6733 555.167 68.84 555.913 68.84ZM566.968 70.1C566.101 70.1 565.281 69.98 564.508 69.74C563.735 69.4867 563.128 69.1733 562.688 68.8L563.328 67.68C563.755 68 564.301 68.28 564.968 68.52C565.635 68.7467 566.335 68.86 567.068 68.86C568.068 68.86 568.788 68.7067 569.228 68.4C569.668 68.08 569.888 67.66 569.888 67.14C569.888 66.7533 569.761 66.4533 569.508 66.24C569.268 66.0133 568.948 65.8467 568.548 65.74C568.148 65.62 567.701 65.52 567.208 65.44C566.715 65.36 566.221 65.2667 565.728 65.16C565.248 65.0533 564.808 64.9 564.408 64.7C564.008 64.4867 563.681 64.2 563.428 63.84C563.188 63.48 563.068 63 563.068 62.4C563.068 61.8267 563.228 61.3133 563.548 60.86C563.868 60.4067 564.335 60.0533 564.948 59.8C565.575 59.5333 566.335 59.4 567.228 59.4C567.908 59.4 568.588 59.4933 569.268 59.68C569.948 59.8533 570.508 60.0867 570.948 60.38L570.328 61.52C569.861 61.2 569.361 60.9733 568.828 60.84C568.295 60.6933 567.761 60.62 567.228 60.62C566.281 60.62 565.581 60.7867 565.128 61.12C564.688 61.44 564.468 61.8533 564.468 62.36C564.468 62.76 564.588 63.0733 564.828 63.3C565.081 63.5267 565.408 63.7067 565.808 63.84C566.221 63.96 566.668 64.06 567.148 64.14C567.641 64.22 568.128 64.32 568.608 64.44C569.101 64.5467 569.548 64.7 569.948 64.9C570.361 65.0867 570.688 65.36 570.928 65.72C571.181 66.0667 571.308 66.5267 571.308 67.1C571.308 67.7133 571.135 68.2467 570.788 68.7C570.455 69.14 569.961 69.4867 569.308 69.74C568.668 69.98 567.888 70.1 566.968 70.1ZM573.914 70V59.5H575.334V70H573.914ZM574.634 57.18C574.34 57.18 574.094 57.08 573.894 56.88C573.694 56.68 573.594 56.44 573.594 56.16C573.594 55.88 573.694 55.6467 573.894 55.46C574.094 55.26 574.34 55.16 574.634 55.16C574.927 55.16 575.174 55.2533 575.374 55.44C575.574 55.6267 575.674 55.86 575.674 56.14C575.674 56.4333 575.574 56.68 575.374 56.88C575.187 57.08 574.94 57.18 574.634 57.18ZM582.605 70.1C581.618 70.1 580.858 69.8333 580.325 69.3C579.791 68.7667 579.525 68.0133 579.525 67.04V57.18H580.945V66.96C580.945 67.5733 581.098 68.0467 581.405 68.38C581.725 68.7133 582.178 68.88 582.765 68.88C583.391 68.88 583.911 68.7 584.325 68.34L584.825 69.36C584.545 69.6133 584.205 69.8 583.805 69.92C583.418 70.04 583.018 70.1 582.605 70.1ZM577.645 60.68V59.5H584.145V60.68H577.645ZM591.499 70.1C590.405 70.1 589.445 69.8733 588.619 69.42C587.792 68.9533 587.145 68.32 586.679 67.52C586.212 66.7067 585.979 65.78 585.979 64.74C585.979 63.7 586.199 62.78 586.639 61.98C587.092 61.18 587.705 60.5533 588.479 60.1C589.265 59.6333 590.145 59.4 591.119 59.4C592.105 59.4 592.979 59.6267 593.739 60.08C594.512 60.52 595.119 61.1467 595.559 61.96C595.999 62.76 596.219 63.6867 596.219 64.74C596.219 64.8067 596.212 64.88 596.199 64.96C596.199 65.0267 596.199 65.1 596.199 65.18H587.059V64.12H595.439L594.879 64.54C594.879 63.78 594.712 63.1067 594.379 62.52C594.059 61.92 593.619 61.4533 593.059 61.12C592.499 60.7867 591.852 60.62 591.119 60.62C590.399 60.62 589.752 60.7867 589.179 61.12C588.605 61.4533 588.159 61.92 587.839 62.52C587.519 63.12 587.359 63.8067 587.359 64.58V64.8C587.359 65.6 587.532 66.3067 587.879 66.92C588.239 67.52 588.732 67.9933 589.359 68.34C589.999 68.6733 590.725 68.84 591.539 68.84C592.179 68.84 592.772 68.7267 593.319 68.5C593.879 68.2733 594.359 67.9267 594.759 67.46L595.559 68.38C595.092 68.94 594.505 69.3667 593.799 69.66C593.105 69.9533 592.339 70.1 591.499 70.1ZM601.929 70.1C601.062 70.1 600.242 69.98 599.469 69.74C598.696 69.4867 598.089 69.1733 597.649 68.8L598.289 67.68C598.716 68 599.262 68.28 599.929 68.52C600.596 68.7467 601.296 68.86 602.029 68.86C603.029 68.86 603.749 68.7067 604.189 68.4C604.629 68.08 604.849 67.66 604.849 67.14C604.849 66.7533 604.722 66.4533 604.469 66.24C604.229 66.0133 603.909 65.8467 603.509 65.74C603.109 65.62 602.662 65.52 602.169 65.44C601.676 65.36 601.182 65.2667 600.689 65.16C600.209 65.0533 599.769 64.9 599.369 64.7C598.969 64.4867 598.642 64.2 598.389 63.84C598.149 63.48 598.029 63 598.029 62.4C598.029 61.8267 598.189 61.3133 598.509 60.86C598.829 60.4067 599.296 60.0533 599.909 59.8C600.536 59.5333 601.296 59.4 602.189 59.4C602.869 59.4 603.549 59.4933 604.229 59.68C604.909 59.8533 605.469 60.0867 605.909 60.38L605.289 61.52C604.822 61.2 604.322 60.9733 603.789 60.84C603.256 60.6933 602.722 60.62 602.189 60.62C601.242 60.62 600.542 60.7867 600.089 61.12C599.649 61.44 599.429 61.8533 599.429 62.36C599.429 62.76 599.549 63.0733 599.789 63.3C600.042 63.5267 600.369 63.7067 600.769 63.84C601.182 63.96 601.629 64.06 602.109 64.14C602.602 64.22 603.089 64.32 603.569 64.44C604.062 64.5467 604.509 64.7 604.909 64.9C605.322 65.0867 605.649 65.36 605.889 65.72C606.142 66.0667 606.269 66.5267 606.269 67.1C606.269 67.7133 606.096 68.2467 605.749 68.7C605.416 69.14 604.922 69.4867 604.269 69.74C603.629 69.98 602.849 70.1 601.929 70.1Z" fill="#323232"/>
<path d="M475.78 108V106.98L481.6 101.28C482.133 100.76 482.533 100.307 482.8 99.92C483.067 99.52 483.247 99.1467 483.34 98.8C483.433 98.4533 483.48 98.1267 483.48 97.82C483.48 97.0067 483.2 96.3667 482.64 95.9C482.093 95.4333 481.28 95.2 480.2 95.2C479.373 95.2 478.64 95.3267 478 95.58C477.373 95.8333 476.833 96.2267 476.38 96.76L475.36 95.88C475.907 95.24 476.607 94.7467 477.46 94.4C478.313 94.0533 479.267 93.88 480.32 93.88C481.267 93.88 482.087 94.0333 482.78 94.34C483.473 94.6333 484.007 95.0667 484.38 95.64C484.767 96.2133 484.96 96.8867 484.96 97.66C484.96 98.1133 484.893 98.56 484.76 99C484.64 99.44 484.413 99.9067 484.08 100.4C483.76 100.88 483.287 101.427 482.66 102.04L477.32 107.28L476.92 106.72H485.6V108H475.78ZM492.727 108.12C491.607 108.12 490.641 107.96 489.827 107.64C489.027 107.32 488.407 106.86 487.967 106.26C487.541 105.647 487.327 104.927 487.327 104.1C487.327 103.3 487.534 102.62 487.947 102.06C488.374 101.487 488.987 101.047 489.787 100.74C490.601 100.433 491.581 100.28 492.727 100.28C493.861 100.28 494.834 100.433 495.647 100.74C496.461 101.047 497.081 101.487 497.507 102.06C497.947 102.62 498.167 103.3 498.167 104.1C498.167 104.927 497.947 105.647 497.507 106.26C497.067 106.86 496.441 107.32 495.627 107.64C494.814 107.96 493.847 108.12 492.727 108.12ZM492.727 106.9C493.967 106.9 494.934 106.647 495.627 106.14C496.334 105.633 496.687 104.947 496.687 104.08C496.687 103.213 496.334 102.533 495.627 102.04C494.934 101.533 493.967 101.28 492.727 101.28C491.487 101.28 490.521 101.533 489.827 102.04C489.134 102.533 488.787 103.213 488.787 104.08C488.787 104.947 489.134 105.633 489.827 106.14C490.521 106.647 491.487 106.9 492.727 106.9ZM492.727 101.1C491.687 101.1 490.801 100.96 490.067 100.68C489.347 100.4 488.794 100 488.407 99.48C488.021 98.9467 487.827 98.3133 487.827 97.58C487.827 96.8067 488.027 96.1467 488.427 95.6C488.841 95.04 489.414 94.6133 490.147 94.32C490.881 94.0267 491.741 93.88 492.727 93.88C493.714 93.88 494.574 94.0267 495.307 94.32C496.054 94.6133 496.634 95.04 497.047 95.6C497.461 96.1467 497.667 96.8067 497.667 97.58C497.667 98.3133 497.474 98.9467 497.087 99.48C496.701 100 496.134 100.4 495.387 100.68C494.654 100.96 493.767 101.1 492.727 101.1ZM492.727 100.14C493.821 100.14 494.674 99.9133 495.287 99.46C495.901 99.0067 496.207 98.4 496.207 97.64C496.207 96.84 495.887 96.22 495.247 95.78C494.621 95.3267 493.781 95.1 492.727 95.1C491.674 95.1 490.834 95.3267 490.207 95.78C489.581 96.22 489.267 96.8333 489.267 97.62C489.267 98.3933 489.567 99.0067 490.167 99.46C490.781 99.9133 491.634 100.14 492.727 100.14ZM501.436 108.1C501.143 108.1 500.89 107.993 500.676 107.78C500.476 107.567 500.376 107.307 500.376 107C500.376 106.68 500.476 106.42 500.676 106.22C500.89 106.02 501.143 105.92 501.436 105.92C501.73 105.92 501.976 106.02 502.176 106.22C502.39 106.42 502.496 106.68 502.496 107C502.496 107.307 502.39 107.567 502.176 107.78C501.976 107.993 501.73 108.1 501.436 108.1ZM508.955 93.88C510.195 93.88 511.241 94.16 512.095 94.72C512.948 95.2667 513.595 96.06 514.035 97.1C514.475 98.14 514.695 99.4 514.695 100.88C514.695 102.453 514.421 103.78 513.875 104.86C513.341 105.94 512.595 106.753 511.635 107.3C510.675 107.847 509.561 108.12 508.295 108.12C507.668 108.12 507.068 108.06 506.495 107.94C505.935 107.82 505.428 107.627 504.975 107.36L505.555 106.2C505.915 106.44 506.328 106.613 506.795 106.72C507.275 106.813 507.768 106.86 508.275 106.86C509.781 106.86 510.981 106.38 511.875 105.42C512.781 104.46 513.235 103.027 513.235 101.12C513.235 100.813 513.215 100.447 513.175 100.02C513.148 99.5933 513.075 99.1667 512.955 98.74L513.455 99.12C513.321 99.8133 513.035 100.407 512.595 100.9C512.168 101.38 511.635 101.747 510.995 102C510.368 102.253 509.668 102.38 508.895 102.38C507.975 102.38 507.155 102.207 506.435 101.86C505.728 101.513 505.175 101.027 504.775 100.4C504.375 99.7733 504.175 99.0333 504.175 98.18C504.175 97.3 504.381 96.54 504.795 95.9C505.208 95.26 505.775 94.7667 506.495 94.42C507.228 94.06 508.048 93.88 508.955 93.88ZM509.015 95.1C508.348 95.1 507.755 95.2267 507.235 95.48C506.728 95.72 506.328 96.0667 506.035 96.52C505.741 96.9733 505.595 97.5133 505.595 98.14C505.595 99.06 505.908 99.7933 506.535 100.34C507.175 100.887 508.035 101.16 509.115 101.16C509.835 101.16 510.461 101.027 510.995 100.76C511.541 100.493 511.961 100.127 512.255 99.66C512.561 99.1933 512.715 98.6733 512.715 98.1C512.715 97.58 512.575 97.0933 512.295 96.64C512.015 96.1867 511.601 95.82 511.055 95.54C510.508 95.2467 509.828 95.1 509.015 95.1ZM518.662 108L528.222 94H529.402L519.842 108H518.662ZM519.742 101.5C519.116 101.5 518.562 101.347 518.082 101.04C517.602 100.72 517.229 100.273 516.962 99.7C516.709 99.1267 516.582 98.46 516.582 97.7C516.582 96.94 516.709 96.2733 516.962 95.7C517.229 95.1267 517.602 94.6867 518.082 94.38C518.562 94.06 519.116 93.9 519.742 93.9C520.369 93.9 520.916 94.06 521.382 94.38C521.862 94.6867 522.236 95.1267 522.502 95.7C522.769 96.2733 522.902 96.94 522.902 97.7C522.902 98.46 522.769 99.1267 522.502 99.7C522.236 100.273 521.862 100.72 521.382 101.04C520.916 101.347 520.369 101.5 519.742 101.5ZM519.742 100.6C520.396 100.6 520.916 100.347 521.302 99.84C521.702 99.32 521.902 98.6067 521.902 97.7C521.902 96.7933 521.702 96.0867 521.302 95.58C520.916 95.06 520.396 94.8 519.742 94.8C519.076 94.8 518.549 95.06 518.162 95.58C517.776 96.0867 517.582 96.7933 517.582 97.7C517.582 98.6067 517.776 99.32 518.162 99.84C518.549 100.347 519.076 100.6 519.742 100.6ZM528.322 108.1C527.709 108.1 527.162 107.947 526.682 107.64C526.202 107.32 525.829 106.873 525.562 106.3C525.296 105.727 525.162 105.06 525.162 104.3C525.162 103.54 525.296 102.873 525.562 102.3C525.829 101.727 526.202 101.287 526.682 100.98C527.162 100.66 527.709 100.5 528.322 100.5C528.962 100.5 529.516 100.66 529.982 100.98C530.462 101.287 530.829 101.727 531.082 102.3C531.349 102.873 531.482 103.54 531.482 104.3C531.482 105.06 531.349 105.727 531.082 106.3C530.829 106.873 530.462 107.32 529.982 107.64C529.516 107.947 528.962 108.1 528.322 108.1ZM528.322 107.2C528.976 107.2 529.496 106.947 529.882 106.44C530.282 105.92 530.482 105.207 530.482 104.3C530.482 103.393 530.282 102.687 529.882 102.18C529.496 101.66 528.976 101.4 528.322 101.4C527.669 101.4 527.142 101.66 526.742 102.18C526.356 102.687 526.162 103.393 526.162 104.3C526.162 105.207 526.356 105.92 526.742 106.44C527.142 106.947 527.669 107.2 528.322 107.2Z" fill="#323232"/>
<path d="M313.501 62C317.736 62 321.968 62.1231 326.197 62.372C330.423 62.6182 334.641 62.9874 338.848 63.4824C343.055 63.9747 347.242 64.5901 351.412 65.3285C355.583 66.0669 359.728 66.9284 363.848 67.9074C367.968 68.8892 372.058 69.9884 376.113 71.208C380.169 72.4275 384.186 73.7617 388.163 75.2162C392.141 76.6706 396.073 78.2398 399.961 79.9236C403.846 81.6075 407.681 83.4004 411.46 85.308C415.242 87.2156 418.964 89.2323 422.629 91.358C426.293 93.4838 429.89 95.7131 433.425 98.0486C436.958 100.384 440.421 102.82 443.811 105.357C447.201 107.894 450.515 110.529 453.752 113.259C456.991 115.992 460.143 118.814 463.217 121.729C466.288 124.646 469.273 127.647 472.17 130.738C475.065 133.826 477.871 136.998 480.581 140.251C483.294 143.504 485.907 146.835 488.424 150.242C490.941 153.646 493.358 157.123 495.671 160.672C497.985 164.219 500.194 167.83 502.298 171.505C504.398 175.183 506.393 178.918 508.278 182.71C510.163 186.503 511.936 190.346 513.595 194.243C515.256 198.139 516.8 202.083 518.23 206.069C519.659 210.054 520.974 214.079 522.168 218.144C523.362 222.205 524.436 226.3 525.393 230.426C526.35 234.554 527.183 238.702 527.896 242.878C528.61 247.054 529.2 251.244 529.667 255.454C530.137 259.663 530.481 263.881 530.702 268.113C530.926 272.342 531.023 276.574 530.998 280.809C530.97 285.044 530.822 289.276 530.551 293.502C530.277 297.729 529.882 301.944 529.362 306.145C528.845 310.349 528.204 314.533 527.44 318.701C526.677 322.866 525.793 327.006 524.786 331.12C523.782 335.235 522.657 339.315 521.413 343.366L313.501 279.5V62Z" fill="#4E6A03"/>
<path d="M524.603 332.905C521.201 346.326 516.558 359.304 510.674 371.841C504.793 384.377 497.775 396.245 489.625 407.441L313.5 279.5L524.603 332.905Z" fill="#C0DE73"/>
<path d="M495.584 398.464C493.503 401.647 491.341 404.774 489.098 407.845C486.852 410.916 484.53 413.926 482.127 416.874C479.725 419.825 477.246 422.709 474.693 425.528C472.139 428.345 469.513 431.097 466.816 433.777C464.117 436.459 461.351 439.066 458.514 441.603C455.681 444.14 452.78 446.599 449.818 448.984C446.854 451.368 443.83 453.672 440.745 455.896C437.66 458.123 434.518 460.265 431.321 462.327C428.124 464.385 424.874 466.36 421.574 468.251C418.273 470.142 414.925 471.943 411.529 473.657C408.134 475.372 404.696 476.997 401.217 478.53C397.734 480.066 394.215 481.506 390.66 482.854C387.105 484.205 383.514 485.461 379.892 486.622C376.269 487.783 372.622 488.848 368.944 489.816C365.266 490.787 361.562 491.659 357.84 492.434C354.117 493.209 350.374 493.886 346.615 494.465C342.856 495.047 339.085 495.525 335.301 495.905C331.516 496.289 327.723 496.571 323.925 496.753C320.124 496.935 316.323 497.016 312.519 496.999C308.715 496.982 304.916 496.865 301.118 496.649C297.319 496.434 293.532 496.118 289.75 495.701C285.969 495.287 282.201 494.773 278.448 494.16C274.694 493.545 270.96 492.834 267.242 492.026C263.525 491.217 259.833 490.311 256.163 489.307C252.494 488.306 248.855 487.206 245.243 486.015C241.63 484.821 238.052 483.531 234.508 482.152C230.964 480.77 227.46 479.296 223.994 477.73C220.526 476.166 217.105 474.511 213.723 472.765C210.344 471.02 207.013 469.188 203.729 467.269C200.446 465.35 197.215 463.345 194.035 461.255C190.857 459.166 187.736 456.995 184.67 454.741C181.605 452.489 178.603 450.156 175.661 447.745C172.718 445.337 169.84 442.851 167.029 440.288C164.218 437.726 161.474 435.094 158.8 432.389C156.126 429.682 153.525 426.91 150.999 424.068C148.47 421.226 146.017 418.32 143.643 415.35C141.265 412.379 138.969 409.347 136.754 406.256C134.535 403.166 132.401 400.019 130.351 396.816C128.298 393.614 126.334 390.358 124.452 387.052C122.572 383.746 120.779 380.392 119.073 376.993C117.37 373.592 115.753 370.149 114.229 366.667C112.704 363.182 111.272 359.657 109.935 356.099C108.595 352.539 107.348 348.944 106.198 345.319C105.046 341.694 103.991 338.042 103.032 334.361C102.073 330.68 101.211 326.976 100.445 323.251C99.6812 319.525 99.0127 315.782 98.4449 312.02C97.8771 308.261 97.4072 304.488 97.0352 300.701C96.6659 296.916 96.3946 293.123 96.2212 289.322C96.0506 285.524 95.9779 281.722 96.0058 277.918C96.0338 274.114 96.1597 270.316 96.389 266.518C96.6156 262.722 96.9429 258.932 97.368 255.153C97.7932 251.374 98.319 247.607 98.94 243.856C99.5637 240.102 100.285 236.371 101.105 232.656C101.924 228.942 102.839 225.25 103.854 221.583C104.867 217.919 105.975 214.28 107.177 210.671C108.383 207.063 109.681 203.491 111.071 199.95C112.461 196.409 113.943 192.907 115.521 189.447C117.096 185.984 118.76 182.566 120.514 179.19C122.268 175.814 124.108 172.489 126.038 169.21C127.968 165.932 129.979 162.707 132.077 159.532C134.177 156.361 136.356 153.245 138.616 150.187C140.879 147.127 143.218 144.132 145.637 141.195C148.057 138.261 150.551 135.391 153.119 132.586C155.69 129.78 158.33 127.045 161.043 124.379L313.5 279.502L495.584 398.464Z" fill="#739D03"/>
<path d="M153.479 132.192C156.019 129.435 158.626 126.744 161.303 124.123C163.98 121.502 166.724 118.951 169.532 116.47C172.34 113.989 175.213 111.584 178.144 109.251C181.078 106.921 184.068 104.664 187.12 102.488C190.169 100.311 193.271 98.2137 196.428 96.197C199.586 94.1803 202.795 92.2447 206.053 90.3959C209.309 88.5442 212.612 86.7764 215.963 85.0982C219.311 83.4172 222.701 81.8256 226.131 80.318C229.563 78.8132 233.031 77.3979 236.533 76.0721C240.038 74.7462 243.573 73.5127 247.142 72.3687C250.708 71.2247 254.303 70.1758 257.925 69.2192C261.547 68.2598 265.192 67.3983 268.859 66.6292C272.523 65.86 276.207 65.1859 279.907 64.6069C283.61 64.0307 287.322 63.5468 291.048 63.1608C294.773 62.7748 298.508 62.4839 302.247 62.2909C305.99 62.0979 309.732 62 313.477 62L313.5 279.5L153.479 132.192Z" fill="#89BC03"/>
<path d="M171.4 25.12C170.347 25.12 169.367 24.9467 168.46 24.6C167.567 24.24 166.787 23.74 166.12 23.1C165.467 22.4467 164.953 21.6933 164.58 20.84C164.22 19.9733 164.04 19.0267 164.04 18C164.04 16.9733 164.22 16.0333 164.58 15.18C164.953 14.3133 165.467 13.56 166.12 12.92C166.787 12.2667 167.567 11.7667 168.46 11.42C169.353 11.06 170.333 10.88 171.4 10.88C172.453 10.88 173.427 11.06 174.32 11.42C175.213 11.7667 175.987 12.26 176.64 12.9C177.307 13.54 177.82 14.2933 178.18 15.16C178.553 16.0267 178.74 16.9733 178.74 18C178.74 19.0267 178.553 19.9733 178.18 20.84C177.82 21.7067 177.307 22.46 176.64 23.1C175.987 23.74 175.213 24.24 174.32 24.6C173.427 24.9467 172.453 25.12 171.4 25.12ZM171.4 23.8C172.24 23.8 173.013 23.66 173.72 23.38C174.44 23.0867 175.06 22.68 175.58 22.16C176.113 21.6267 176.527 21.0133 176.82 20.32C177.113 19.6133 177.26 18.84 177.26 18C177.26 17.16 177.113 16.3933 176.82 15.7C176.527 14.9933 176.113 14.38 175.58 13.86C175.06 13.3267 174.44 12.92 173.72 12.64C173.013 12.3467 172.24 12.2 171.4 12.2C170.56 12.2 169.78 12.3467 169.06 12.64C168.34 12.92 167.713 13.3267 167.18 13.86C166.66 14.38 166.247 14.9933 165.94 15.7C165.647 16.3933 165.5 17.16 165.5 18C165.5 18.8267 165.647 19.5933 165.94 20.3C166.247 21.0067 166.66 21.6267 167.18 22.16C167.713 22.68 168.34 23.0867 169.06 23.38C169.78 23.66 170.56 23.8 171.4 23.8ZM185.175 25.1C184.188 25.1 183.428 24.8333 182.895 24.3C182.362 23.7667 182.095 23.0133 182.095 22.04V12.18H183.515V21.96C183.515 22.5733 183.668 23.0467 183.975 23.38C184.295 23.7133 184.748 23.88 185.335 23.88C185.962 23.88 186.482 23.7 186.895 23.34L187.395 24.36C187.115 24.6133 186.775 24.8 186.375 24.92C185.988 25.04 185.588 25.1 185.175 25.1ZM180.215 15.68V14.5H186.715V15.68H180.215ZM195.34 14.4C196.193 14.4 196.94 14.5667 197.58 14.9C198.233 15.22 198.74 15.7133 199.1 16.38C199.473 17.0467 199.66 17.8867 199.66 18.9V25H198.24V19.04C198.24 17.9333 197.96 17.1 197.4 16.54C196.853 15.9667 196.08 15.68 195.08 15.68C194.333 15.68 193.68 15.8333 193.12 16.14C192.573 16.4333 192.147 16.8667 191.84 17.44C191.547 18 191.4 18.68 191.4 19.48V25H189.98V10.16H191.4V17.38L191.12 16.84C191.453 16.08 191.987 15.4867 192.72 15.06C193.453 14.62 194.327 14.4 195.34 14.4ZM207.956 25.1C206.862 25.1 205.902 24.8733 205.076 24.42C204.249 23.9533 203.602 23.32 203.136 22.52C202.669 21.7067 202.436 20.78 202.436 19.74C202.436 18.7 202.656 17.78 203.096 16.98C203.549 16.18 204.162 15.5533 204.936 15.1C205.722 14.6333 206.602 14.4 207.576 14.4C208.562 14.4 209.436 14.6267 210.196 15.08C210.969 15.52 211.576 16.1467 212.016 16.96C212.456 17.76 212.676 18.6867 212.676 19.74C212.676 19.8067 212.669 19.88 212.656 19.96C212.656 20.0267 212.656 20.1 212.656 20.18H203.516V19.12H211.896L211.336 19.54C211.336 18.78 211.169 18.1067 210.836 17.52C210.516 16.92 210.076 16.4533 209.516 16.12C208.956 15.7867 208.309 15.62 207.576 15.62C206.856 15.62 206.209 15.7867 205.636 16.12C205.062 16.4533 204.616 16.92 204.296 17.52C203.976 18.12 203.816 18.8067 203.816 19.58V19.8C203.816 20.6 203.989 21.3067 204.336 21.92C204.696 22.52 205.189 22.9933 205.816 23.34C206.456 23.6733 207.182 23.84 207.996 23.84C208.636 23.84 209.229 23.7267 209.776 23.5C210.336 23.2733 210.816 22.9267 211.216 22.46L212.016 23.38C211.549 23.94 210.962 24.3667 210.256 24.66C209.562 24.9533 208.796 25.1 207.956 25.1ZM215.566 25V14.5H216.926V17.36L216.786 16.86C217.079 16.06 217.573 15.4533 218.266 15.04C218.959 14.6133 219.819 14.4 220.846 14.4V15.78C220.793 15.78 220.739 15.78 220.686 15.78C220.633 15.7667 220.579 15.76 220.526 15.76C219.419 15.76 218.553 16.1 217.926 16.78C217.299 17.4467 216.986 18.4 216.986 19.64V25H215.566ZM226.374 25.1C225.508 25.1 224.688 24.98 223.914 24.74C223.141 24.4867 222.534 24.1733 222.094 23.8L222.734 22.68C223.161 23 223.708 23.28 224.374 23.52C225.041 23.7467 225.741 23.86 226.474 23.86C227.474 23.86 228.194 23.7067 228.634 23.4C229.074 23.08 229.294 22.66 229.294 22.14C229.294 21.7533 229.168 21.4533 228.914 21.24C228.674 21.0133 228.354 20.8467 227.954 20.74C227.554 20.62 227.108 20.52 226.614 20.44C226.121 20.36 225.628 20.2667 225.134 20.16C224.654 20.0533 224.214 19.9 223.814 19.7C223.414 19.4867 223.088 19.2 222.834 18.84C222.594 18.48 222.474 18 222.474 17.4C222.474 16.8267 222.634 16.3133 222.954 15.86C223.274 15.4067 223.741 15.0533 224.354 14.8C224.981 14.5333 225.741 14.4 226.634 14.4C227.314 14.4 227.994 14.4933 228.674 14.68C229.354 14.8533 229.914 15.0867 230.354 15.38L229.734 16.52C229.268 16.2 228.768 15.9733 228.234 15.84C227.701 15.6933 227.168 15.62 226.634 15.62C225.688 15.62 224.988 15.7867 224.534 16.12C224.094 16.44 223.874 16.8533 223.874 17.36C223.874 17.76 223.994 18.0733 224.234 18.3C224.488 18.5267 224.814 18.7067 225.214 18.84C225.628 18.96 226.074 19.06 226.554 19.14C227.048 19.22 227.534 19.32 228.014 19.44C228.508 19.5467 228.954 19.7 229.354 19.9C229.768 20.0867 230.094 20.36 230.334 20.72C230.588 21.0667 230.714 21.5267 230.714 22.1C230.714 22.7133 230.541 23.2467 230.194 23.7C229.861 24.14 229.368 24.4867 228.714 24.74C228.074 24.98 227.294 25.1 226.374 25.1Z" fill="#323232"/>
<path d="M175.48 65V51.6L176.12 52.28H172.18V51H176.92V65H175.48ZM184.447 65.12C183.433 65.12 182.473 64.96 181.567 64.64C180.673 64.3067 179.953 63.8667 179.407 63.32L180.107 62.18C180.56 62.6467 181.167 63.0333 181.927 63.34C182.7 63.6467 183.54 63.8 184.447 63.8C185.607 63.8 186.493 63.5467 187.107 63.04C187.733 62.5333 188.047 61.8533 188.047 61C188.047 60.1467 187.74 59.4667 187.127 58.96C186.527 58.4533 185.573 58.2 184.267 58.2H183.267V57.14L187.587 51.72L187.787 52.28H179.987V51H188.987V52.02L184.667 57.44L183.967 56.98H184.507C186.187 56.98 187.44 57.3533 188.267 58.1C189.107 58.8467 189.527 59.8067 189.527 60.98C189.527 61.7667 189.34 62.4733 188.967 63.1C188.593 63.7267 188.027 64.22 187.267 64.58C186.52 64.94 185.58 65.12 184.447 65.12ZM192.636 65.1C192.342 65.1 192.089 64.9933 191.876 64.78C191.676 64.5667 191.576 64.3067 191.576 64C191.576 63.68 191.676 63.42 191.876 63.22C192.089 63.02 192.342 62.92 192.636 62.92C192.929 62.92 193.176 63.02 193.376 63.22C193.589 63.42 193.696 63.68 193.696 64C193.696 64.3067 193.589 64.5667 193.376 64.78C193.176 64.9933 192.929 65.1 192.636 65.1ZM195.729 65V63.98L201.549 58.28C202.083 57.76 202.483 57.3067 202.749 56.92C203.016 56.52 203.196 56.1467 203.289 55.8C203.383 55.4533 203.429 55.1267 203.429 54.82C203.429 54.0067 203.149 53.3667 202.589 52.9C202.043 52.4333 201.229 52.2 200.149 52.2C199.323 52.2 198.589 52.3267 197.949 52.58C197.323 52.8333 196.783 53.2267 196.329 53.76L195.309 52.88C195.856 52.24 196.556 51.7467 197.409 51.4C198.263 51.0533 199.216 50.88 200.269 50.88C201.216 50.88 202.036 51.0333 202.729 51.34C203.423 51.6333 203.956 52.0667 204.329 52.64C204.716 53.2133 204.909 53.8867 204.909 54.66C204.909 55.1133 204.843 55.56 204.709 56C204.589 56.44 204.363 56.9067 204.029 57.4C203.709 57.88 203.236 58.4267 202.609 59.04L197.269 64.28L196.869 63.72H205.549V65H195.729ZM209.432 65L218.992 51H220.172L210.612 65H209.432ZM210.512 58.5C209.885 58.5 209.332 58.3467 208.852 58.04C208.372 57.72 207.998 57.2733 207.732 56.7C207.478 56.1267 207.352 55.46 207.352 54.7C207.352 53.94 207.478 53.2733 207.732 52.7C207.998 52.1267 208.372 51.6867 208.852 51.38C209.332 51.06 209.885 50.9 210.512 50.9C211.138 50.9 211.685 51.06 212.152 51.38C212.632 51.6867 213.005 52.1267 213.272 52.7C213.538 53.2733 213.672 53.94 213.672 54.7C213.672 55.46 213.538 56.1267 213.272 56.7C213.005 57.2733 212.632 57.72 212.152 58.04C211.685 58.3467 211.138 58.5 210.512 58.5ZM210.512 57.6C211.165 57.6 211.685 57.3467 212.072 56.84C212.472 56.32 212.672 55.6067 212.672 54.7C212.672 53.7933 212.472 53.0867 212.072 52.58C211.685 52.06 211.165 51.8 210.512 51.8C209.845 51.8 209.318 52.06 208.932 52.58C208.545 53.0867 208.352 53.7933 208.352 54.7C208.352 55.6067 208.545 56.32 208.932 56.84C209.318 57.3467 209.845 57.6 210.512 57.6ZM219.092 65.1C218.478 65.1 217.932 64.9467 217.452 64.64C216.972 64.32 216.598 63.8733 216.332 63.3C216.065 62.7267 215.932 62.06 215.932 61.3C215.932 60.54 216.065 59.8733 216.332 59.3C216.598 58.7267 216.972 58.2867 217.452 57.98C217.932 57.66 218.478 57.5 219.092 57.5C219.732 57.5 220.285 57.66 220.752 57.98C221.232 58.2867 221.598 58.7267 221.852 59.3C222.118 59.8733 222.252 60.54 222.252 61.3C222.252 62.06 222.118 62.7267 221.852 63.3C221.598 63.8733 221.232 64.32 220.752 64.64C220.285 64.9467 219.732 65.1 219.092 65.1ZM219.092 64.2C219.745 64.2 220.265 63.9467 220.652 63.44C221.052 62.92 221.252 62.2067 221.252 61.3C221.252 60.3933 221.052 59.6867 220.652 59.18C220.265 58.66 219.745 58.4 219.092 58.4C218.438 58.4 217.912 58.66 217.512 59.18C217.125 59.6867 216.932 60.3933 216.932 61.3C216.932 62.2067 217.125 62.92 217.512 63.44C217.912 63.9467 218.438 64.2 219.092 64.2Z" fill="#323232"/>
</svg>
