<svg width="601" height="517" viewBox="0 0 601 517" fill="none" xmlns="http://www.w3.org/2000/svg">
<path d="M6.87082 361.12C5.63082 361.12 4.58415 360.847 3.73082 360.3C2.87749 359.74 2.23082 358.94 1.79082 357.9C1.35082 356.847 1.13082 355.587 1.13082 354.12C1.13082 352.533 1.39749 351.207 1.93082 350.14C2.47749 349.06 3.23082 348.247 4.19082 347.7C5.15082 347.153 6.26415 346.88 7.53082 346.88C8.15749 346.88 8.75749 346.94 9.33082 347.06C9.90415 347.18 10.4108 347.373 10.8508 347.64L10.2708 348.8C9.91082 348.56 9.49749 348.393 9.03082 348.3C8.56415 348.193 8.07082 348.14 7.55082 348.14C6.04415 348.14 4.83749 348.62 3.93082 349.58C3.03749 350.54 2.59082 351.973 2.59082 353.88C2.59082 354.173 2.60415 354.54 2.63082 354.98C2.67082 355.407 2.75082 355.833 2.87082 356.26L2.37082 355.88C2.51749 355.187 2.80415 354.6 3.23082 354.12C3.65749 353.627 4.19082 353.253 4.83082 353C5.47082 352.747 6.17082 352.62 6.93082 352.62C7.86415 352.62 8.68415 352.793 9.39082 353.14C10.0975 353.487 10.6508 353.973 11.0508 354.6C11.4508 355.227 11.6508 355.967 11.6508 356.82C11.6508 357.687 11.4442 358.447 11.0308 359.1C10.6175 359.74 10.0442 360.24 9.31082 360.6C8.59082 360.947 7.77749 361.12 6.87082 361.12ZM6.81082 359.9C7.47749 359.9 8.06415 359.78 8.57082 359.54C9.09082 359.287 9.49749 358.933 9.79082 358.48C10.0842 358.013 10.2308 357.473 10.2308 356.86C10.2308 355.94 9.91082 355.207 9.27082 354.66C8.64415 354.113 7.79082 353.84 6.71082 353.84C5.99082 353.84 5.36415 353.973 4.83082 354.24C4.29749 354.507 3.87749 354.873 3.57082 355.34C3.26415 355.793 3.11082 356.313 3.11082 356.9C3.11082 357.407 3.25082 357.893 3.53082 358.36C3.81082 358.813 4.22415 359.187 4.77082 359.48C5.33082 359.76 6.01082 359.9 6.81082 359.9ZM18.8983 361.12C17.8183 361.12 16.8583 360.84 16.0183 360.28C15.1783 359.707 14.5183 358.893 14.0383 357.84C13.5583 356.773 13.3183 355.493 13.3183 354C13.3183 352.507 13.5583 351.233 14.0383 350.18C14.5183 349.113 15.1783 348.3 16.0183 347.74C16.8583 347.167 17.8183 346.88 18.8983 346.88C19.9783 346.88 20.9383 347.167 21.7783 347.74C22.6183 348.3 23.2783 349.113 23.7583 350.18C24.2517 351.233 24.4983 352.507 24.4983 354C24.4983 355.493 24.2517 356.773 23.7583 357.84C23.2783 358.893 22.6183 359.707 21.7783 360.28C20.9383 360.84 19.9783 361.12 18.8983 361.12ZM18.8983 359.8C19.725 359.8 20.445 359.58 21.0583 359.14C21.6717 358.687 22.1517 358.033 22.4983 357.18C22.845 356.313 23.0183 355.253 23.0183 354C23.0183 352.747 22.845 351.693 22.4983 350.84C22.1517 349.973 21.6717 349.32 21.0583 348.88C20.445 348.427 19.725 348.2 18.8983 348.2C18.0983 348.2 17.385 348.427 16.7583 348.88C16.1317 349.32 15.645 349.973 15.2983 350.84C14.9517 351.693 14.7783 352.747 14.7783 354C14.7783 355.253 14.9517 356.313 15.2983 357.18C15.645 358.033 16.1317 358.687 16.7583 359.14C17.385 359.58 18.0983 359.8 18.8983 359.8ZM27.4257 361.1C27.1323 361.1 26.879 360.993 26.6657 360.78C26.4657 360.567 26.3657 360.307 26.3657 360C26.3657 359.68 26.4657 359.42 26.6657 359.22C26.879 359.02 27.1323 358.92 27.4257 358.92C27.719 358.92 27.9657 359.02 28.1657 359.22C28.379 359.42 28.4857 359.68 28.4857 360C28.4857 360.307 28.379 360.567 28.1657 360.78C27.9657 360.993 27.719 361.1 27.4257 361.1ZM35.0039 361.12C34.0039 361.12 33.0506 360.96 32.1439 360.64C31.2373 360.307 30.5173 359.867 29.9839 359.32L30.6839 358.18C31.1239 358.647 31.7239 359.033 32.4839 359.34C33.2573 359.647 34.0906 359.8 34.9839 359.8C36.1706 359.8 37.0706 359.54 37.6839 359.02C38.3106 358.487 38.6239 357.793 38.6239 356.94C38.6239 356.34 38.4773 355.827 38.1839 355.4C37.9039 354.96 37.4239 354.62 36.7439 354.38C36.0639 354.14 35.1306 354.02 33.9439 354.02H30.9639L31.6839 347H39.3439V348.28H32.2639L33.0039 347.58L32.3839 353.46L31.6439 352.74H34.2639C35.6773 352.74 36.8106 352.913 37.6639 353.26C38.5173 353.607 39.1306 354.093 39.5039 354.72C39.8906 355.333 40.0839 356.053 40.0839 356.88C40.0839 357.667 39.8973 358.387 39.5239 359.04C39.1506 359.68 38.5906 360.187 37.8439 360.56C37.0973 360.933 36.1506 361.12 35.0039 361.12ZM43.5968 361L53.1568 347H54.3368L44.7768 361H43.5968ZM44.6768 354.5C44.0501 354.5 43.4968 354.347 43.0168 354.04C42.5368 353.72 42.1634 353.273 41.8968 352.7C41.6434 352.127 41.5168 351.46 41.5168 350.7C41.5168 349.94 41.6434 349.273 41.8968 348.7C42.1634 348.127 42.5368 347.687 43.0168 347.38C43.4968 347.06 44.0501 346.9 44.6768 346.9C45.3034 346.9 45.8501 347.06 46.3168 347.38C46.7968 347.687 47.1701 348.127 47.4368 348.7C47.7034 349.273 47.8368 349.94 47.8368 350.7C47.8368 351.46 47.7034 352.127 47.4368 352.7C47.1701 353.273 46.7968 353.72 46.3168 354.04C45.8501 354.347 45.3034 354.5 44.6768 354.5ZM44.6768 353.6C45.3301 353.6 45.8501 353.347 46.2368 352.84C46.6368 352.32 46.8368 351.607 46.8368 350.7C46.8368 349.793 46.6368 349.087 46.2368 348.58C45.8501 348.06 45.3301 347.8 44.6768 347.8C44.0101 347.8 43.4834 348.06 43.0968 348.58C42.7101 349.087 42.5168 349.793 42.5168 350.7C42.5168 351.607 42.7101 352.32 43.0968 352.84C43.4834 353.347 44.0101 353.6 44.6768 353.6ZM53.2568 361.1C52.6434 361.1 52.0968 360.947 51.6168 360.64C51.1368 360.32 50.7634 359.873 50.4968 359.3C50.2301 358.727 50.0968 358.06 50.0968 357.3C50.0968 356.54 50.2301 355.873 50.4968 355.3C50.7634 354.727 51.1368 354.287 51.6168 353.98C52.0968 353.66 52.6434 353.5 53.2568 353.5C53.8968 353.5 54.4501 353.66 54.9168 353.98C55.3968 354.287 55.7634 354.727 56.0168 355.3C56.2834 355.873 56.4168 356.54 56.4168 357.3C56.4168 358.06 56.2834 358.727 56.0168 359.3C55.7634 359.873 55.3968 360.32 54.9168 360.64C54.4501 360.947 53.8968 361.1 53.2568 361.1ZM53.2568 360.2C53.9101 360.2 54.4301 359.947 54.8168 359.44C55.2168 358.92 55.4168 358.207 55.4168 357.3C55.4168 356.393 55.2168 355.687 54.8168 355.18C54.4301 354.66 53.9101 354.4 53.2568 354.4C52.6034 354.4 52.0768 354.66 51.6768 355.18C51.2901 355.687 51.0968 356.393 51.0968 357.3C51.0968 358.207 51.2901 358.92 51.6768 359.44C52.0768 359.947 52.6034 360.2 53.2568 360.2Z" fill="#323232"/>
<path d="M502.351 279L496.151 265H497.751L503.551 278.18H502.671L508.511 265H510.011L503.811 279H502.351ZM515.402 279.1C514.309 279.1 513.349 278.873 512.522 278.42C511.695 277.953 511.049 277.32 510.582 276.52C510.115 275.707 509.882 274.78 509.882 273.74C509.882 272.7 510.102 271.78 510.542 270.98C510.995 270.18 511.609 269.553 512.382 269.1C513.169 268.633 514.049 268.4 515.022 268.4C516.009 268.4 516.882 268.627 517.642 269.08C518.415 269.52 519.022 270.147 519.462 270.96C519.902 271.76 520.122 272.687 520.122 273.74C520.122 273.807 520.115 273.88 520.102 273.96C520.102 274.027 520.102 274.1 520.102 274.18H510.962V273.12H519.342L518.782 273.54C518.782 272.78 518.615 272.107 518.282 271.52C517.962 270.92 517.522 270.453 516.962 270.12C516.402 269.787 515.755 269.62 515.022 269.62C514.302 269.62 513.655 269.787 513.082 270.12C512.509 270.453 512.062 270.92 511.742 271.52C511.422 272.12 511.262 272.807 511.262 273.58V273.8C511.262 274.6 511.435 275.307 511.782 275.92C512.142 276.52 512.635 276.993 513.262 277.34C513.902 277.673 514.629 277.84 515.442 277.84C516.082 277.84 516.675 277.727 517.222 277.5C517.782 277.273 518.262 276.927 518.662 276.46L519.462 277.38C518.995 277.94 518.409 278.367 517.702 278.66C517.009 278.953 516.242 279.1 515.402 279.1ZM523.012 279V268.5H524.372V271.36L524.232 270.86C524.526 270.06 525.019 269.453 525.712 269.04C526.406 268.613 527.266 268.4 528.292 268.4V269.78C528.239 269.78 528.186 269.78 528.132 269.78C528.079 269.767 528.026 269.76 527.972 269.76C526.866 269.76 525.999 270.1 525.372 270.78C524.746 271.447 524.432 272.4 524.432 273.64V279H523.012ZM531.413 282.98C530.919 282.98 530.446 282.9 529.993 282.74C529.553 282.58 529.173 282.34 528.853 282.02L529.513 280.96C529.779 281.213 530.066 281.407 530.373 281.54C530.693 281.687 531.046 281.76 531.433 281.76C531.899 281.76 532.299 281.627 532.633 281.36C532.979 281.107 533.306 280.653 533.613 280L534.293 278.46L534.453 278.24L538.773 268.5H540.173L534.913 280.26C534.619 280.94 534.293 281.48 533.933 281.88C533.586 282.28 533.206 282.56 532.793 282.72C532.379 282.893 531.919 282.98 531.413 282.98ZM534.213 279.3L529.373 268.5H530.853L535.133 278.14L534.213 279.3ZM553.847 279.12C552.78 279.12 551.793 278.947 550.887 278.6C549.993 278.24 549.213 277.74 548.547 277.1C547.893 276.46 547.38 275.707 547.007 274.84C546.647 273.973 546.467 273.027 546.467 272C546.467 270.973 546.647 270.027 547.007 269.16C547.38 268.293 547.9 267.54 548.567 266.9C549.233 266.26 550.013 265.767 550.907 265.42C551.813 265.06 552.8 264.88 553.867 264.88C554.933 264.88 555.907 265.047 556.787 265.38C557.68 265.713 558.44 266.22 559.067 266.9L558.147 267.84C557.56 267.253 556.913 266.833 556.207 266.58C555.5 266.327 554.74 266.2 553.927 266.2C553.06 266.2 552.26 266.347 551.527 266.64C550.807 266.92 550.173 267.327 549.627 267.86C549.093 268.38 548.673 268.993 548.367 269.7C548.073 270.393 547.927 271.16 547.927 272C547.927 272.827 548.073 273.593 548.367 274.3C548.673 275.007 549.093 275.627 549.627 276.16C550.173 276.68 550.807 277.087 551.527 277.38C552.26 277.66 553.053 277.8 553.907 277.8C554.707 277.8 555.46 277.68 556.167 277.44C556.887 277.2 557.547 276.793 558.147 276.22L558.987 277.34C558.32 277.927 557.54 278.373 556.647 278.68C555.753 278.973 554.82 279.12 553.847 279.12ZM557.567 277.16V272H558.987V277.34L557.567 277.16ZM567.156 279.1C566.142 279.1 565.229 278.873 564.416 278.42C563.616 277.953 562.982 277.32 562.516 276.52C562.049 275.707 561.816 274.78 561.816 273.74C561.816 272.687 562.049 271.76 562.516 270.96C562.982 270.16 563.616 269.533 564.416 269.08C565.216 268.627 566.129 268.4 567.156 268.4C568.196 268.4 569.116 268.627 569.916 269.08C570.729 269.533 571.362 270.16 571.816 270.96C572.282 271.76 572.516 272.687 572.516 273.74C572.516 274.78 572.282 275.707 571.816 276.52C571.362 277.32 570.729 277.953 569.916 278.42C569.102 278.873 568.182 279.1 567.156 279.1ZM567.156 277.84C567.916 277.84 568.589 277.673 569.176 277.34C569.762 276.993 570.222 276.513 570.556 275.9C570.902 275.273 571.076 274.553 571.076 273.74C571.076 272.913 570.902 272.193 570.556 271.58C570.222 270.967 569.762 270.493 569.176 270.16C568.589 269.813 567.922 269.64 567.176 269.64C566.429 269.64 565.762 269.813 565.176 270.16C564.589 270.493 564.122 270.967 563.776 271.58C563.429 272.193 563.256 272.913 563.256 273.74C563.256 274.553 563.429 275.273 563.776 275.9C564.122 276.513 564.589 276.993 565.176 277.34C565.762 277.673 566.422 277.84 567.156 277.84ZM579.695 279.1C578.681 279.1 577.768 278.873 576.955 278.42C576.155 277.953 575.521 277.32 575.055 276.52C574.588 275.707 574.355 274.78 574.355 273.74C574.355 272.687 574.588 271.76 575.055 270.96C575.521 270.16 576.155 269.533 576.955 269.08C577.755 268.627 578.668 268.4 579.695 268.4C580.735 268.4 581.655 268.627 582.455 269.08C583.268 269.533 583.901 270.16 584.355 270.96C584.821 271.76 585.055 272.687 585.055 273.74C585.055 274.78 584.821 275.707 584.355 276.52C583.901 277.32 583.268 277.953 582.455 278.42C581.641 278.873 580.721 279.1 579.695 279.1ZM579.695 277.84C580.455 277.84 581.128 277.673 581.715 277.34C582.301 276.993 582.761 276.513 583.095 275.9C583.441 275.273 583.615 274.553 583.615 273.74C583.615 272.913 583.441 272.193 583.095 271.58C582.761 270.967 582.301 270.493 581.715 270.16C581.128 269.813 580.461 269.64 579.715 269.64C578.968 269.64 578.301 269.813 577.715 270.16C577.128 270.493 576.661 270.967 576.315 271.58C575.968 272.193 575.795 272.913 575.795 273.74C575.795 274.553 575.968 275.273 576.315 275.9C576.661 276.513 577.128 276.993 577.715 277.34C578.301 277.673 578.961 277.84 579.695 277.84ZM592.134 279.1C591.134 279.1 590.234 278.873 589.434 278.42C588.647 277.967 588.027 277.34 587.574 276.54C587.12 275.727 586.894 274.793 586.894 273.74C586.894 272.673 587.12 271.74 587.574 270.94C588.027 270.14 588.647 269.52 589.434 269.08C590.234 268.627 591.134 268.4 592.134 268.4C593.054 268.4 593.874 268.607 594.594 269.02C595.327 269.433 595.907 270.04 596.334 270.84C596.774 271.627 596.994 272.593 596.994 273.74C596.994 274.873 596.78 275.84 596.354 276.64C595.927 277.44 595.347 278.053 594.614 278.48C593.894 278.893 593.067 279.1 592.134 279.1ZM592.234 277.84C592.98 277.84 593.647 277.673 594.234 277.34C594.834 276.993 595.3 276.513 595.634 275.9C595.98 275.273 596.154 274.553 596.154 273.74C596.154 272.913 595.98 272.193 595.634 271.58C595.3 270.967 594.834 270.493 594.234 270.16C593.647 269.813 592.98 269.64 592.234 269.64C591.5 269.64 590.84 269.813 590.254 270.16C589.667 270.493 589.2 270.967 588.854 271.58C588.507 272.193 588.334 272.913 588.334 273.74C588.334 274.553 588.507 275.273 588.854 275.9C589.2 276.513 589.667 276.993 590.254 277.34C590.84 277.673 591.5 277.84 592.234 277.84ZM596.194 279V275.84L596.334 273.72L596.134 271.6V264.16H597.554V279H596.194Z" fill="#323232"/>
<path d="M519.871 317V315.98L525.691 310.28C526.224 309.76 526.624 309.307 526.891 308.92C527.157 308.52 527.337 308.147 527.431 307.8C527.524 307.453 527.571 307.127 527.571 306.82C527.571 306.007 527.291 305.367 526.731 304.9C526.184 304.433 525.371 304.2 524.291 304.2C523.464 304.2 522.731 304.327 522.091 304.58C521.464 304.833 520.924 305.227 520.471 305.76L519.451 304.88C519.997 304.24 520.697 303.747 521.551 303.4C522.404 303.053 523.357 302.88 524.411 302.88C525.357 302.88 526.177 303.033 526.871 303.34C527.564 303.633 528.097 304.067 528.471 304.64C528.857 305.213 529.051 305.887 529.051 306.66C529.051 307.113 528.984 307.56 528.851 308C528.731 308.44 528.504 308.907 528.171 309.4C527.851 309.88 527.377 310.427 526.751 311.04L521.411 316.28L521.011 315.72H529.691V317H519.871ZM536.818 317.12C535.698 317.12 534.731 316.96 533.918 316.64C533.118 316.32 532.498 315.86 532.058 315.26C531.631 314.647 531.418 313.927 531.418 313.1C531.418 312.3 531.625 311.62 532.038 311.06C532.465 310.487 533.078 310.047 533.878 309.74C534.691 309.433 535.671 309.28 536.818 309.28C537.951 309.28 538.925 309.433 539.738 309.74C540.551 310.047 541.171 310.487 541.598 311.06C542.038 311.62 542.258 312.3 542.258 313.1C542.258 313.927 542.038 314.647 541.598 315.26C541.158 315.86 540.531 316.32 539.718 316.64C538.905 316.96 537.938 317.12 536.818 317.12ZM536.818 315.9C538.058 315.9 539.025 315.647 539.718 315.14C540.425 314.633 540.778 313.947 540.778 313.08C540.778 312.213 540.425 311.533 539.718 311.04C539.025 310.533 538.058 310.28 536.818 310.28C535.578 310.28 534.611 310.533 533.918 311.04C533.225 311.533 532.878 312.213 532.878 313.08C532.878 313.947 533.225 314.633 533.918 315.14C534.611 315.647 535.578 315.9 536.818 315.9ZM536.818 310.1C535.778 310.1 534.891 309.96 534.158 309.68C533.438 309.4 532.885 309 532.498 308.48C532.111 307.947 531.918 307.313 531.918 306.58C531.918 305.807 532.118 305.147 532.518 304.6C532.931 304.04 533.505 303.613 534.238 303.32C534.971 303.027 535.831 302.88 536.818 302.88C537.805 302.88 538.665 303.027 539.398 303.32C540.145 303.613 540.725 304.04 541.138 304.6C541.551 305.147 541.758 305.807 541.758 306.58C541.758 307.313 541.565 307.947 541.178 308.48C540.791 309 540.225 309.4 539.478 309.68C538.745 309.96 537.858 310.1 536.818 310.1ZM536.818 309.14C537.911 309.14 538.765 308.913 539.378 308.46C539.991 308.007 540.298 307.4 540.298 306.64C540.298 305.84 539.978 305.22 539.338 304.78C538.711 304.327 537.871 304.1 536.818 304.1C535.765 304.1 534.925 304.327 534.298 304.78C533.671 305.22 533.358 305.833 533.358 306.62C533.358 307.393 533.658 308.007 534.258 308.46C534.871 308.913 535.725 309.14 536.818 309.14ZM545.527 317.1C545.234 317.1 544.981 316.993 544.767 316.78C544.567 316.567 544.467 316.307 544.467 316C544.467 315.68 544.567 315.42 544.767 315.22C544.981 315.02 545.234 314.92 545.527 314.92C545.821 314.92 546.067 315.02 546.267 315.22C546.481 315.42 546.587 315.68 546.587 316C546.587 316.307 546.481 316.567 546.267 316.78C546.067 316.993 545.821 317.1 545.527 317.1ZM553.046 302.88C554.286 302.88 555.332 303.16 556.186 303.72C557.039 304.267 557.686 305.06 558.126 306.1C558.566 307.14 558.786 308.4 558.786 309.88C558.786 311.453 558.512 312.78 557.966 313.86C557.432 314.94 556.686 315.753 555.726 316.3C554.766 316.847 553.652 317.12 552.386 317.12C551.759 317.12 551.159 317.06 550.586 316.94C550.026 316.82 549.519 316.627 549.066 316.36L549.646 315.2C550.006 315.44 550.419 315.613 550.886 315.72C551.366 315.813 551.859 315.86 552.366 315.86C553.872 315.86 555.072 315.38 555.966 314.42C556.872 313.46 557.326 312.027 557.326 310.12C557.326 309.813 557.306 309.447 557.266 309.02C557.239 308.593 557.166 308.167 557.046 307.74L557.546 308.12C557.412 308.813 557.126 309.407 556.686 309.9C556.259 310.38 555.726 310.747 555.086 311C554.459 311.253 553.759 311.38 552.986 311.38C552.066 311.38 551.246 311.207 550.526 310.86C549.819 310.513 549.266 310.027 548.866 309.4C548.466 308.773 548.266 308.033 548.266 307.18C548.266 306.3 548.472 305.54 548.886 304.9C549.299 304.26 549.866 303.767 550.586 303.42C551.319 303.06 552.139 302.88 553.046 302.88ZM553.106 304.1C552.439 304.1 551.846 304.227 551.326 304.48C550.819 304.72 550.419 305.067 550.126 305.52C549.832 305.973 549.686 306.513 549.686 307.14C549.686 308.06 549.999 308.793 550.626 309.34C551.266 309.887 552.126 310.16 553.206 310.16C553.926 310.16 554.552 310.027 555.086 309.76C555.632 309.493 556.052 309.127 556.346 308.66C556.652 308.193 556.806 307.673 556.806 307.1C556.806 306.58 556.666 306.093 556.386 305.64C556.106 305.187 555.692 304.82 555.146 304.54C554.599 304.247 553.919 304.1 553.106 304.1ZM562.753 317L572.313 303H573.493L563.933 317H562.753ZM563.833 310.5C563.206 310.5 562.653 310.347 562.173 310.04C561.693 309.72 561.32 309.273 561.053 308.7C560.8 308.127 560.673 307.46 560.673 306.7C560.673 305.94 560.8 305.273 561.053 304.7C561.32 304.127 561.693 303.687 562.173 303.38C562.653 303.06 563.206 302.9 563.833 302.9C564.46 302.9 565.006 303.06 565.473 303.38C565.953 303.687 566.326 304.127 566.593 304.7C566.86 305.273 566.993 305.94 566.993 306.7C566.993 307.46 566.86 308.127 566.593 308.7C566.326 309.273 565.953 309.72 565.473 310.04C565.006 310.347 564.46 310.5 563.833 310.5ZM563.833 309.6C564.486 309.6 565.006 309.347 565.393 308.84C565.793 308.32 565.993 307.607 565.993 306.7C565.993 305.793 565.793 305.087 565.393 304.58C565.006 304.06 564.486 303.8 563.833 303.8C563.166 303.8 562.64 304.06 562.253 304.58C561.866 305.087 561.673 305.793 561.673 306.7C561.673 307.607 561.866 308.32 562.253 308.84C562.64 309.347 563.166 309.6 563.833 309.6ZM572.413 317.1C571.8 317.1 571.253 316.947 570.773 316.64C570.293 316.32 569.92 315.873 569.653 315.3C569.386 314.727 569.253 314.06 569.253 313.3C569.253 312.54 569.386 311.873 569.653 311.3C569.92 310.727 570.293 310.287 570.773 309.98C571.253 309.66 571.8 309.5 572.413 309.5C573.053 309.5 573.606 309.66 574.073 309.98C574.553 310.287 574.92 310.727 575.173 311.3C575.44 311.873 575.573 312.54 575.573 313.3C575.573 314.06 575.44 314.727 575.173 315.3C574.92 315.873 574.553 316.32 574.073 316.64C573.606 316.947 573.053 317.1 572.413 317.1ZM572.413 316.2C573.066 316.2 573.586 315.947 573.973 315.44C574.373 314.92 574.573 314.207 574.573 313.3C574.573 312.393 574.373 311.687 573.973 311.18C573.586 310.66 573.066 310.4 572.413 310.4C571.76 310.4 571.233 310.66 570.833 311.18C570.446 311.687 570.253 312.393 570.253 313.3C570.253 314.207 570.446 314.92 570.833 315.44C571.233 315.947 571.76 316.2 572.413 316.2Z" fill="#323232"/>
<path d="M13.6908 317.78H21.0908V319.06H13.6908V317.78ZM13.8508 325H12.3708V311H21.9708V312.28H13.8508V325ZM30.8774 325V322.68L30.8174 322.3V318.42C30.8174 317.527 30.564 316.84 30.0574 316.36C29.564 315.88 28.824 315.64 27.8374 315.64C27.1574 315.64 26.5107 315.753 25.8974 315.98C25.284 316.207 24.764 316.507 24.3374 316.88L23.6974 315.82C24.2307 315.367 24.8707 315.02 25.6174 314.78C26.364 314.527 27.1507 314.4 27.9774 314.4C29.3374 314.4 30.384 314.74 31.1174 315.42C31.864 316.087 32.2374 317.107 32.2374 318.48V325H30.8774ZM27.2574 325.1C26.4707 325.1 25.784 324.973 25.1974 324.72C24.624 324.453 24.184 324.093 23.8774 323.64C23.5707 323.173 23.4174 322.64 23.4174 322.04C23.4174 321.493 23.544 321 23.7974 320.56C24.064 320.107 24.4907 319.747 25.0774 319.48C25.6774 319.2 26.4774 319.06 27.4774 319.06H31.0974V320.12H27.5174C26.504 320.12 25.7974 320.3 25.3974 320.66C25.0107 321.02 24.8174 321.467 24.8174 322C24.8174 322.6 25.0507 323.08 25.5174 323.44C25.984 323.8 26.6374 323.98 27.4774 323.98C28.2774 323.98 28.964 323.8 29.5374 323.44C30.1241 323.067 30.5507 322.533 30.8174 321.84L31.1374 322.82C30.8707 323.513 30.4041 324.067 29.7374 324.48C29.084 324.893 28.2574 325.1 27.2574 325.1ZM36.0943 325V314.5H37.5143V325H36.0943ZM36.8143 312.18C36.5209 312.18 36.2743 312.08 36.0743 311.88C35.8743 311.68 35.7743 311.44 35.7743 311.16C35.7743 310.88 35.8743 310.647 36.0743 310.46C36.2743 310.26 36.5209 310.16 36.8143 310.16C37.1076 310.16 37.3543 310.253 37.5543 310.44C37.7543 310.627 37.8543 310.86 37.8543 311.14C37.8543 311.433 37.7543 311.68 37.5543 311.88C37.3676 312.08 37.1209 312.18 36.8143 312.18ZM41.4654 325V314.5H42.8254V317.36L42.6854 316.86C42.9787 316.06 43.472 315.453 44.1654 315.04C44.8587 314.613 45.7187 314.4 46.7454 314.4V315.78C46.692 315.78 46.6387 315.78 46.5854 315.78C46.532 315.767 46.4787 315.76 46.4254 315.76C45.3187 315.76 44.452 316.1 43.8254 316.78C43.1987 317.447 42.8854 318.4 42.8854 319.64V325H41.4654Z" fill="#323232"/>
<path d="M327.691 33.26H335.091V34.52H327.691V33.26ZM327.851 39.72H336.271V41H326.371V27H335.971V28.28H327.851V39.72ZM337.557 41L341.997 35.24L341.977 35.94L337.757 30.5H339.357L342.817 35L342.217 34.98L345.677 30.5H347.237L342.977 36L342.997 35.24L347.477 41H345.857L342.197 36.2L342.757 36.28L339.157 41H337.557ZM353.829 41.1C352.789 41.1 351.856 40.8733 351.029 40.42C350.216 39.9533 349.576 39.32 349.109 38.52C348.643 37.7067 348.409 36.78 348.409 35.74C348.409 34.6867 348.643 33.76 349.109 32.96C349.576 32.16 350.216 31.5333 351.029 31.08C351.856 30.6267 352.789 30.4 353.829 30.4C354.723 30.4 355.529 30.5733 356.249 30.92C356.969 31.2667 357.536 31.7867 357.949 32.48L356.889 33.2C356.529 32.6667 356.083 32.2733 355.549 32.02C355.016 31.7667 354.436 31.64 353.809 31.64C353.063 31.64 352.389 31.8133 351.789 32.16C351.189 32.4933 350.716 32.9667 350.369 33.58C350.023 34.1933 349.849 34.9133 349.849 35.74C349.849 36.5667 350.023 37.2867 350.369 37.9C350.716 38.5133 351.189 38.9933 351.789 39.34C352.389 39.6733 353.063 39.84 353.809 39.84C354.436 39.84 355.016 39.7133 355.549 39.46C356.083 39.2067 356.529 38.82 356.889 38.3L357.949 39.02C357.536 39.7 356.969 40.22 356.249 40.58C355.529 40.9267 354.723 41.1 353.829 41.1ZM365.023 41.1C363.93 41.1 362.97 40.8733 362.143 40.42C361.316 39.9533 360.67 39.32 360.203 38.52C359.736 37.7067 359.503 36.78 359.503 35.74C359.503 34.7 359.723 33.78 360.163 32.98C360.616 32.18 361.23 31.5533 362.003 31.1C362.79 30.6333 363.67 30.4 364.643 30.4C365.63 30.4 366.503 30.6267 367.263 31.08C368.036 31.52 368.643 32.1467 369.083 32.96C369.523 33.76 369.743 34.6867 369.743 35.74C369.743 35.8067 369.736 35.88 369.723 35.96C369.723 36.0267 369.723 36.1 369.723 36.18H360.583V35.12H368.963L368.403 35.54C368.403 34.78 368.236 34.1067 367.903 33.52C367.583 32.92 367.143 32.4533 366.583 32.12C366.023 31.7867 365.376 31.62 364.643 31.62C363.923 31.62 363.276 31.7867 362.703 32.12C362.13 32.4533 361.683 32.92 361.363 33.52C361.043 34.12 360.883 34.8067 360.883 35.58V35.8C360.883 36.6 361.056 37.3067 361.403 37.92C361.763 38.52 362.256 38.9933 362.883 39.34C363.523 39.6733 364.25 39.84 365.063 39.84C365.703 39.84 366.296 39.7267 366.843 39.5C367.403 39.2733 367.883 38.9267 368.283 38.46L369.083 39.38C368.616 39.94 368.03 40.3667 367.323 40.66C366.63 40.9533 365.863 41.1 365.023 41.1ZM372.633 41V26.16H374.053V41H372.633ZM378.004 41V26.16H379.424V41H378.004ZM387.836 41.1C386.742 41.1 385.782 40.8733 384.956 40.42C384.129 39.9533 383.482 39.32 383.016 38.52C382.549 37.7067 382.316 36.78 382.316 35.74C382.316 34.7 382.536 33.78 382.976 32.98C383.429 32.18 384.042 31.5533 384.816 31.1C385.602 30.6333 386.482 30.4 387.456 30.4C388.442 30.4 389.316 30.6267 390.076 31.08C390.849 31.52 391.456 32.1467 391.896 32.96C392.336 33.76 392.556 34.6867 392.556 35.74C392.556 35.8067 392.549 35.88 392.536 35.96C392.536 36.0267 392.536 36.1 392.536 36.18H383.396V35.12H391.776L391.216 35.54C391.216 34.78 391.049 34.1067 390.716 33.52C390.396 32.92 389.956 32.4533 389.396 32.12C388.836 31.7867 388.189 31.62 387.456 31.62C386.736 31.62 386.089 31.7867 385.516 32.12C384.942 32.4533 384.496 32.92 384.176 33.52C383.856 34.12 383.696 34.8067 383.696 35.58V35.8C383.696 36.6 383.869 37.3067 384.216 37.92C384.576 38.52 385.069 38.9933 385.696 39.34C386.336 39.6733 387.062 39.84 387.876 39.84C388.516 39.84 389.109 39.7267 389.656 39.5C390.216 39.2733 390.696 38.9267 391.096 38.46L391.896 39.38C391.429 39.94 390.842 40.3667 390.136 40.66C389.442 40.9533 388.676 41.1 387.836 41.1ZM400.806 30.4C401.659 30.4 402.406 30.5667 403.046 30.9C403.699 31.22 404.206 31.7133 404.566 32.38C404.939 33.0467 405.126 33.8867 405.126 34.9V41H403.706V35.04C403.706 33.9333 403.426 33.1 402.866 32.54C402.319 31.9667 401.546 31.68 400.546 31.68C399.799 31.68 399.146 31.8333 398.586 32.14C398.039 32.4333 397.612 32.8667 397.306 33.44C397.012 34 396.866 34.68 396.866 35.48V41H395.446V30.5H396.806V33.38L396.586 32.84C396.919 32.08 397.452 31.4867 398.186 31.06C398.919 30.62 399.792 30.4 400.806 30.4ZM412.281 41.1C411.295 41.1 410.535 40.8333 410.001 40.3C409.468 39.7667 409.201 39.0133 409.201 38.04V28.18H410.621V37.96C410.621 38.5733 410.775 39.0467 411.081 39.38C411.401 39.7133 411.855 39.88 412.441 39.88C413.068 39.88 413.588 39.7 414.001 39.34L414.501 40.36C414.221 40.6133 413.881 40.8 413.481 40.92C413.095 41.04 412.695 41.1 412.281 41.1ZM407.321 31.68V30.5H413.821V31.68H407.321Z" fill="#323232"/>
<path d="M351.591 79L357.631 65.64L358.071 66.28H349.411L350.151 65.58V68.9H348.731V65H359.011V66.02L353.151 79H351.591ZM360.933 79.1C360.64 79.1 360.387 78.9933 360.173 78.78C359.973 78.5667 359.873 78.3067 359.873 78C359.873 77.68 359.973 77.42 360.173 77.22C360.387 77.02 360.64 76.92 360.933 76.92C361.227 76.92 361.473 77.02 361.673 77.22C361.887 77.42 361.993 77.68 361.993 78C361.993 78.3067 361.887 78.5667 361.673 78.78C361.473 78.9933 361.227 79.1 360.933 79.1ZM368.452 64.88C369.692 64.88 370.738 65.16 371.592 65.72C372.445 66.2667 373.092 67.06 373.532 68.1C373.972 69.14 374.192 70.4 374.192 71.88C374.192 73.4533 373.918 74.78 373.372 75.86C372.838 76.94 372.092 77.7533 371.132 78.3C370.172 78.8467 369.058 79.12 367.792 79.12C367.165 79.12 366.565 79.06 365.992 78.94C365.432 78.82 364.925 78.6267 364.472 78.36L365.052 77.2C365.412 77.44 365.825 77.6133 366.292 77.72C366.772 77.8133 367.265 77.86 367.772 77.86C369.278 77.86 370.478 77.38 371.372 76.42C372.278 75.46 372.732 74.0267 372.732 72.12C372.732 71.8133 372.712 71.4467 372.672 71.02C372.645 70.5933 372.572 70.1667 372.452 69.74L372.952 70.12C372.818 70.8133 372.532 71.4067 372.092 71.9C371.665 72.38 371.132 72.7467 370.492 73C369.865 73.2533 369.165 73.38 368.392 73.38C367.472 73.38 366.652 73.2067 365.932 72.86C365.225 72.5133 364.672 72.0267 364.272 71.4C363.872 70.7733 363.672 70.0333 363.672 69.18C363.672 68.3 363.878 67.54 364.292 66.9C364.705 66.26 365.272 65.7667 365.992 65.42C366.725 65.06 367.545 64.88 368.452 64.88ZM368.512 66.1C367.845 66.1 367.252 66.2267 366.732 66.48C366.225 66.72 365.825 67.0667 365.532 67.52C365.238 67.9733 365.092 68.5133 365.092 69.14C365.092 70.06 365.405 70.7933 366.032 71.34C366.672 71.8867 367.532 72.16 368.612 72.16C369.332 72.16 369.958 72.0267 370.492 71.76C371.038 71.4933 371.458 71.1267 371.752 70.66C372.058 70.1933 372.212 69.6733 372.212 69.1C372.212 68.58 372.072 68.0933 371.792 67.64C371.512 67.1867 371.098 66.82 370.552 66.54C370.005 66.2467 369.325 66.1 368.512 66.1ZM378.159 79L387.719 65H388.899L379.339 79H378.159ZM379.239 72.5C378.613 72.5 378.059 72.3467 377.579 72.04C377.099 71.72 376.726 71.2733 376.459 70.7C376.206 70.1267 376.079 69.46 376.079 68.7C376.079 67.94 376.206 67.2733 376.459 66.7C376.726 66.1267 377.099 65.6867 377.579 65.38C378.059 65.06 378.613 64.9 379.239 64.9C379.866 64.9 380.413 65.06 380.879 65.38C381.359 65.6867 381.733 66.1267 381.999 66.7C382.266 67.2733 382.399 67.94 382.399 68.7C382.399 69.46 382.266 70.1267 381.999 70.7C381.733 71.2733 381.359 71.72 380.879 72.04C380.413 72.3467 379.866 72.5 379.239 72.5ZM379.239 71.6C379.893 71.6 380.413 71.3467 380.799 70.84C381.199 70.32 381.399 69.6067 381.399 68.7C381.399 67.7933 381.199 67.0867 380.799 66.58C380.413 66.06 379.893 65.8 379.239 65.8C378.573 65.8 378.046 66.06 377.659 66.58C377.273 67.0867 377.079 67.7933 377.079 68.7C377.079 69.6067 377.273 70.32 377.659 70.84C378.046 71.3467 378.573 71.6 379.239 71.6ZM387.819 79.1C387.206 79.1 386.659 78.9467 386.179 78.64C385.699 78.32 385.326 77.8733 385.059 77.3C384.793 76.7267 384.659 76.06 384.659 75.3C384.659 74.54 384.793 73.8733 385.059 73.3C385.326 72.7267 385.699 72.2867 386.179 71.98C386.659 71.66 387.206 71.5 387.819 71.5C388.459 71.5 389.013 71.66 389.479 71.98C389.959 72.2867 390.326 72.7267 390.579 73.3C390.846 73.8733 390.979 74.54 390.979 75.3C390.979 76.06 390.846 76.7267 390.579 77.3C390.326 77.8733 389.959 78.32 389.479 78.64C389.013 78.9467 388.459 79.1 387.819 79.1ZM387.819 78.2C388.473 78.2 388.993 77.9467 389.379 77.44C389.779 76.92 389.979 76.2067 389.979 75.3C389.979 74.3933 389.779 73.6867 389.379 73.18C388.993 72.66 388.473 72.4 387.819 72.4C387.166 72.4 386.639 72.66 386.239 73.18C385.853 73.6867 385.659 74.3933 385.659 75.3C385.659 76.2067 385.853 76.92 386.239 77.44C386.639 77.9467 387.166 78.2 387.819 78.2Z" fill="#323232"/>
<path d="M242.371 25V11H247.611C248.797 11 249.817 11.1933 250.671 11.58C251.524 11.9533 252.177 12.5 252.631 13.22C253.097 13.9267 253.331 14.7867 253.331 15.8C253.331 16.7867 253.097 17.64 252.631 18.36C252.177 19.0667 251.524 19.6133 250.671 20C249.817 20.3867 248.797 20.58 247.611 20.58H243.191L243.851 19.88V25H242.371ZM243.851 20L243.191 19.28H247.571C248.971 19.28 250.031 18.98 250.751 18.38C251.484 17.7667 251.851 16.9067 251.851 15.8C251.851 14.68 251.484 13.8133 250.751 13.2C250.031 12.5867 248.971 12.28 247.571 12.28H243.191L243.851 11.58V20ZM260.452 25.1C259.439 25.1 258.526 24.8733 257.712 24.42C256.912 23.9533 256.279 23.32 255.812 22.52C255.346 21.7067 255.112 20.78 255.112 19.74C255.112 18.6867 255.346 17.76 255.812 16.96C256.279 16.16 256.912 15.5333 257.712 15.08C258.512 14.6267 259.426 14.4 260.452 14.4C261.492 14.4 262.412 14.6267 263.212 15.08C264.026 15.5333 264.659 16.16 265.112 16.96C265.579 17.76 265.812 18.6867 265.812 19.74C265.812 20.78 265.579 21.7067 265.112 22.52C264.659 23.32 264.026 23.9533 263.212 24.42C262.399 24.8733 261.479 25.1 260.452 25.1ZM260.452 23.84C261.212 23.84 261.886 23.6733 262.472 23.34C263.059 22.9933 263.519 22.5133 263.852 21.9C264.199 21.2733 264.372 20.5533 264.372 19.74C264.372 18.9133 264.199 18.1933 263.852 17.58C263.519 16.9667 263.059 16.4933 262.472 16.16C261.886 15.8133 261.219 15.64 260.472 15.64C259.726 15.64 259.059 15.8133 258.472 16.16C257.886 16.4933 257.419 16.9667 257.072 17.58C256.726 18.1933 256.552 18.9133 256.552 19.74C256.552 20.5533 256.726 21.2733 257.072 21.9C257.419 22.5133 257.886 22.9933 258.472 23.34C259.059 23.6733 259.719 23.84 260.452 23.84ZM272.991 25.1C271.978 25.1 271.065 24.8733 270.251 24.42C269.451 23.9533 268.818 23.32 268.351 22.52C267.885 21.7067 267.651 20.78 267.651 19.74C267.651 18.6867 267.885 17.76 268.351 16.96C268.818 16.16 269.451 15.5333 270.251 15.08C271.051 14.6267 271.965 14.4 272.991 14.4C274.031 14.4 274.951 14.6267 275.751 15.08C276.565 15.5333 277.198 16.16 277.651 16.96C278.118 17.76 278.351 18.6867 278.351 19.74C278.351 20.78 278.118 21.7067 277.651 22.52C277.198 23.32 276.565 23.9533 275.751 24.42C274.938 24.8733 274.018 25.1 272.991 25.1ZM272.991 23.84C273.751 23.84 274.425 23.6733 275.011 23.34C275.598 22.9933 276.058 22.5133 276.391 21.9C276.738 21.2733 276.911 20.5533 276.911 19.74C276.911 18.9133 276.738 18.1933 276.391 17.58C276.058 16.9667 275.598 16.4933 275.011 16.16C274.425 15.8133 273.758 15.64 273.011 15.64C272.265 15.64 271.598 15.8133 271.011 16.16C270.425 16.4933 269.958 16.9667 269.611 17.58C269.265 18.1933 269.091 18.9133 269.091 19.74C269.091 20.5533 269.265 21.2733 269.611 21.9C269.958 22.5133 270.425 22.9933 271.011 23.34C271.598 23.6733 272.258 23.84 272.991 23.84ZM281.251 25V14.5H282.611V17.36L282.471 16.86C282.764 16.06 283.257 15.4533 283.951 15.04C284.644 14.6133 285.504 14.4 286.531 14.4V15.78C286.477 15.78 286.424 15.78 286.371 15.78C286.317 15.7667 286.264 15.76 286.211 15.76C285.104 15.76 284.237 16.1 283.611 16.78C282.984 17.4467 282.671 18.4 282.671 19.64V25H281.251Z" fill="#323232"/>
<path d="M242.871 65V63.98L248.691 58.28C249.224 57.76 249.624 57.3067 249.891 56.92C250.157 56.52 250.337 56.1467 250.431 55.8C250.524 55.4533 250.571 55.1267 250.571 54.82C250.571 54.0067 250.291 53.3667 249.731 52.9C249.184 52.4333 248.371 52.2 247.291 52.2C246.464 52.2 245.731 52.3267 245.091 52.58C244.464 52.8333 243.924 53.2267 243.471 53.76L242.451 52.88C242.997 52.24 243.697 51.7467 244.551 51.4C245.404 51.0533 246.357 50.88 247.411 50.88C248.357 50.88 249.177 51.0333 249.871 51.34C250.564 51.6333 251.097 52.0667 251.471 52.64C251.857 53.2133 252.051 53.8867 252.051 54.66C252.051 55.1133 251.984 55.56 251.851 56C251.731 56.44 251.504 56.9067 251.171 57.4C250.851 57.88 250.377 58.4267 249.751 59.04L244.411 64.28L244.011 63.72H252.691V65H242.871ZM255.773 65.1C255.48 65.1 255.227 64.9933 255.013 64.78C254.813 64.5667 254.713 64.3067 254.713 64C254.713 63.68 254.813 63.42 255.013 63.22C255.227 63.02 255.48 62.92 255.773 62.92C256.067 62.92 256.313 63.02 256.513 63.22C256.727 63.42 256.833 63.68 256.833 64C256.833 64.3067 256.727 64.5667 256.513 64.78C256.313 64.9933 256.067 65.1 255.773 65.1ZM264.457 65.12C263.217 65.12 262.17 64.8467 261.317 64.3C260.463 63.74 259.817 62.94 259.377 61.9C258.937 60.8467 258.717 59.5867 258.717 58.12C258.717 56.5333 258.983 55.2067 259.517 54.14C260.063 53.06 260.817 52.2467 261.777 51.7C262.737 51.1533 263.85 50.88 265.117 50.88C265.743 50.88 266.343 50.94 266.917 51.06C267.49 51.18 267.997 51.3733 268.437 51.64L267.857 52.8C267.497 52.56 267.083 52.3933 266.617 52.3C266.15 52.1933 265.657 52.14 265.137 52.14C263.63 52.14 262.423 52.62 261.517 53.58C260.623 54.54 260.177 55.9733 260.177 57.88C260.177 58.1733 260.19 58.54 260.217 58.98C260.257 59.4067 260.337 59.8333 260.457 60.26L259.957 59.88C260.103 59.1867 260.39 58.6 260.817 58.12C261.243 57.6267 261.777 57.2533 262.417 57C263.057 56.7467 263.757 56.62 264.517 56.62C265.45 56.62 266.27 56.7933 266.977 57.14C267.683 57.4867 268.237 57.9733 268.637 58.6C269.037 59.2267 269.237 59.9667 269.237 60.82C269.237 61.6867 269.03 62.4467 268.617 63.1C268.203 63.74 267.63 64.24 266.897 64.6C266.177 64.9467 265.363 65.12 264.457 65.12ZM264.397 63.9C265.063 63.9 265.65 63.78 266.157 63.54C266.677 63.2867 267.083 62.9333 267.377 62.48C267.67 62.0133 267.817 61.4733 267.817 60.86C267.817 59.94 267.497 59.2067 266.857 58.66C266.23 58.1133 265.377 57.84 264.297 57.84C263.577 57.84 262.95 57.9733 262.417 58.24C261.883 58.5067 261.463 58.8733 261.157 59.34C260.85 59.7933 260.697 60.3133 260.697 60.9C260.697 61.4067 260.837 61.8933 261.117 62.36C261.397 62.8133 261.81 63.1867 262.357 63.48C262.917 63.76 263.597 63.9 264.397 63.9ZM272.394 65L281.954 51H283.134L273.574 65H272.394ZM273.474 58.5C272.847 58.5 272.294 58.3467 271.814 58.04C271.334 57.72 270.96 57.2733 270.694 56.7C270.44 56.1267 270.314 55.46 270.314 54.7C270.314 53.94 270.44 53.2733 270.694 52.7C270.96 52.1267 271.334 51.6867 271.814 51.38C272.294 51.06 272.847 50.9 273.474 50.9C274.1 50.9 274.647 51.06 275.114 51.38C275.594 51.6867 275.967 52.1267 276.234 52.7C276.5 53.2733 276.634 53.94 276.634 54.7C276.634 55.46 276.5 56.1267 276.234 56.7C275.967 57.2733 275.594 57.72 275.114 58.04C274.647 58.3467 274.1 58.5 273.474 58.5ZM273.474 57.6C274.127 57.6 274.647 57.3467 275.034 56.84C275.434 56.32 275.634 55.6067 275.634 54.7C275.634 53.7933 275.434 53.0867 275.034 52.58C274.647 52.06 274.127 51.8 273.474 51.8C272.807 51.8 272.28 52.06 271.894 52.58C271.507 53.0867 271.314 53.7933 271.314 54.7C271.314 55.6067 271.507 56.32 271.894 56.84C272.28 57.3467 272.807 57.6 273.474 57.6ZM282.054 65.1C281.44 65.1 280.894 64.9467 280.414 64.64C279.934 64.32 279.56 63.8733 279.294 63.3C279.027 62.7267 278.894 62.06 278.894 61.3C278.894 60.54 279.027 59.8733 279.294 59.3C279.56 58.7267 279.934 58.2867 280.414 57.98C280.894 57.66 281.44 57.5 282.054 57.5C282.694 57.5 283.247 57.66 283.714 57.98C284.194 58.2867 284.56 58.7267 284.814 59.3C285.08 59.8733 285.214 60.54 285.214 61.3C285.214 62.06 285.08 62.7267 284.814 63.3C284.56 63.8733 284.194 64.32 283.714 64.64C283.247 64.9467 282.694 65.1 282.054 65.1ZM282.054 64.2C282.707 64.2 283.227 63.9467 283.614 63.44C284.014 62.92 284.214 62.2067 284.214 61.3C284.214 60.3933 284.014 59.6867 283.614 59.18C283.227 58.66 282.707 58.4 282.054 58.4C281.4 58.4 280.874 58.66 280.474 59.18C280.087 59.6867 279.894 60.3933 279.894 61.3C279.894 62.2067 280.087 62.92 280.474 63.44C280.874 63.9467 281.4 64.2 282.054 64.2Z" fill="#323232"/>
<path d="M275.592 82C285.505 82 295.37 82.6741 305.19 84.0223C315.011 85.3733 324.694 87.3844 334.238 90.0556C343.784 92.7296 353.104 96.0385 362.195 99.9851C371.288 103.932 380.071 108.48 388.54 113.626L275.592 299.5V82Z" fill="#4E6A03"/>
<path d="M379.11 108.215C382.833 110.232 386.497 112.355 390.097 114.584C393.7 116.813 397.233 119.146 400.695 121.582C404.161 124.018 407.551 126.552 410.868 129.187C414.183 131.822 417.419 134.549 420.577 137.374C423.735 140.197 426.806 143.111 429.793 146.112C432.78 149.116 435.675 152.202 438.484 155.373C441.289 158.545 444.002 161.798 446.618 165.127C449.233 168.458 451.75 171.862 454.17 175.339C456.586 178.816 458.899 182.362 461.112 185.973C463.322 189.587 465.425 193.26 467.422 196.997C469.416 200.731 471.302 204.521 473.078 208.367C474.851 212.213 476.513 216.106 478.059 220.05C479.606 223.991 481.038 227.977 482.353 232.002C483.668 236.03 484.862 240.088 485.939 244.186C487.016 248.281 487.972 252.407 488.809 256.557C489.645 260.708 490.361 264.881 490.951 269.074C491.544 273.27 492.014 277.477 492.361 281.697C492.708 285.918 492.931 290.145 493.029 294.379C493.13 298.614 493.108 302.849 492.959 307.081C492.811 311.313 492.54 315.536 492.145 319.754C491.751 323.972 491.234 328.174 490.593 332.361C489.955 336.545 489.195 340.71 488.311 344.852C487.427 348.995 486.423 353.107 485.301 357.19C484.177 361.274 482.935 365.321 481.575 369.332C480.216 373.343 478.739 377.312 477.148 381.237C475.556 385.161 473.853 389.038 472.035 392.861C470.216 396.688 468.289 400.455 466.25 404.17C464.211 407.882 462.066 411.532 459.817 415.118C457.565 418.706 455.21 422.225 452.754 425.674C450.296 429.123 447.742 432.499 445.088 435.799C442.433 439.1 439.684 442.319 436.842 445.46C434 448.601 431.069 451.656 428.048 454.623L275.591 299.501L379.11 108.215Z" fill="#C0DE73"/>
<path d="M435.612 446.809C432.655 450.023 429.603 453.141 426.46 456.171C423.313 459.2 420.079 462.131 416.759 464.965C413.436 467.798 410.032 470.528 406.547 473.157C403.062 475.786 399.499 478.309 395.862 480.723C392.223 483.137 388.517 485.439 384.741 487.629C380.965 489.822 377.125 491.898 373.223 493.858C369.324 495.816 365.366 497.657 361.352 499.38C357.341 501.1 353.28 502.7 349.171 504.177C345.062 505.654 340.914 507.007 336.724 508.232C332.534 509.46 328.31 510.56 324.056 511.533C319.799 512.506 315.517 513.351 311.209 514.064C306.902 514.78 302.577 515.365 298.236 515.818C293.893 516.274 289.54 516.598 285.18 516.789C280.819 516.982 276.453 517.043 272.089 516.973C267.723 516.903 263.363 516.702 259.01 516.369C254.658 516.036 250.317 515.572 245.993 514.979C241.666 514.383 237.364 513.659 233.081 512.806C228.799 511.953 224.548 510.971 220.324 509.863C216.103 508.753 211.916 507.516 207.768 506.157C203.62 504.795 199.517 503.31 195.458 501.701C191.4 500.093 187.391 498.364 183.436 496.513C179.481 494.664 175.588 492.698 171.75 490.611C167.915 488.527 164.145 486.329 160.439 484.018C156.735 481.708 153.105 479.286 149.547 476.754C145.989 474.226 142.51 471.591 139.111 468.85C135.71 466.111 132.398 463.272 129.168 460.333C125.94 457.393 122.804 454.358 119.758 451.231C116.712 448.104 113.761 444.887 110.911 441.581C108.058 438.275 105.309 434.885 102.66 431.414C100.014 427.943 97.4712 424.396 95.0378 420.771C92.6015 417.146 90.2799 413.451 88.0675 409.689C85.855 405.924 83.76 402.098 81.7769 398.207C79.7965 394.316 77.9337 390.37 76.1911 386.367C74.4457 382.364 72.8234 378.311 71.3242 374.211C69.825 370.11 68.4516 365.968 67.2013 361.786C65.951 357.602 64.8266 353.387 63.8309 349.135C62.8351 344.884 61.9652 340.607 61.2268 336.305C60.4884 332 59.8814 327.679 59.4003 323.341C58.922 319 58.5752 314.65 58.3598 310.29C58.1416 305.929 58.0577 301.565 58.1025 297.199C58.15 292.833 58.3262 288.472 58.6367 284.117C58.9444 279.762 59.3835 275.421 59.9541 271.094C60.5247 266.764 61.224 262.457 62.0547 258.169C62.8827 253.884 63.8421 249.627 64.9273 245.398C66.0154 241.168 67.2265 236.976 68.5635 232.819C69.9033 228.665 71.3662 224.554 72.9521 220.484C74.538 216.417 76.2443 212.401 78.0735 208.437C79.9 204.471 81.8468 200.566 83.911 196.717C85.9725 192.869 88.1514 189.087 90.4422 185.37C92.733 181.655 95.1329 178.011 97.6446 174.439C100.154 170.867 102.769 167.373 105.49 163.958C108.212 160.543 111.031 157.214 113.954 153.97C116.874 150.725 119.893 147.57 123.003 144.507C126.113 141.444 129.316 138.477 132.605 135.607C135.895 132.737 139.268 129.968 142.725 127.303C146.182 124.634 149.715 122.075 153.326 119.619C156.937 117.166 160.618 114.822 164.371 112.59C168.122 110.355 171.938 108.238 175.817 106.235C179.697 104.232 183.635 102.35 187.626 100.582C191.621 98.8172 195.662 97.1725 199.754 95.6509C203.847 94.1293 207.981 92.7307 212.157 91.4581C216.333 90.1826 220.542 89.0386 224.788 88.0177C229.034 86.9967 233.305 86.1073 237.604 85.3437C241.903 84.5829 246.222 83.9479 250.558 83.4473L275.591 299.501L435.612 446.809Z" fill="#739D03"/>
<path d="M239.792 84.9677C251.652 82.9902 263.575 82 275.569 82L275.592 299.5L239.792 84.9677Z" fill="#89BC03"/>
</svg>
