<svg width="175" height="152" viewBox="0 0 175 152" fill="none" xmlns="http://www.w3.org/2000/svg">
<path d="M49.202 81.1483C47.0484 79.4896 45.0553 77.6169 43.1826 75.5703L49.202 81.1483Z" fill="#EDEDED" fill-opacity="0.4"/>
<path d="M49.202 81.1483C47.0484 79.4896 45.0553 77.6169 43.1826 75.5703" stroke="#B4B4B4" stroke-opacity="0.4" stroke-width="3" stroke-miterlimit="10" stroke-linecap="round" stroke-linejoin="round"/>
<path d="M34.8358 61.8327C32.9631 56.9369 32 51.6532 32 46.1422C32 21.7703 51.757 2 76.102 2C100.461 2 120.217 21.7703 120.217 46.1422C120.217 70.514 100.461 90.2843 76.102 90.2843C68.4374 90.2843 61.2408 88.3581 54.9272 84.8936" fill="#EDEDED" fill-opacity="0.4"/>
<path d="M34.8358 61.8327C32.9631 56.9369 32 51.6532 32 46.1422C32 21.7703 51.757 2 76.102 2C100.461 2 120.217 21.7703 120.217 46.1422C120.217 70.514 100.461 90.2843 76.102 90.2843C68.4374 90.2843 61.2408 88.3581 54.9272 84.8936" stroke="#B4B4B4" stroke-opacity="0.4" stroke-width="3" stroke-miterlimit="10" stroke-linecap="round" stroke-linejoin="round"/>
<path d="M111.015 46.1431C111.015 48.4438 110.801 50.7178 110.346 52.9784C109.905 55.2257 109.236 57.4194 108.353 59.5463C107.484 61.6597 106.4 63.6796 105.129 65.5924C103.845 67.5052 102.4 69.2709 100.782 70.8895C99.15 72.5214 97.3843 73.966 95.4715 75.2502C93.5721 76.5209 91.5522 77.6044 89.4387 78.4739C87.3119 79.3567 85.1182 80.0255 82.8709 80.467C80.6237 80.9218 78.3497 81.1492 76.049 81.1492C73.7482 81.1492 71.4742 80.9218 69.227 80.467C66.9797 80.0255 64.786 79.3567 62.6725 78.4739C60.5457 77.6044 58.5392 76.5209 56.6264 75.2502C54.7136 73.966 52.9479 72.5214 51.3293 70.8895C49.6974 69.2709 48.2528 67.5052 46.982 65.5924C45.6979 63.6796 44.6278 61.6597 43.7449 59.5463C42.8621 57.4194 42.2066 55.2257 41.7518 52.9784C41.3104 50.7178 41.083 48.4438 41.083 46.1431C41.083 43.8557 41.3104 41.5684 41.7518 39.3211C42.2066 37.0605 42.8621 34.8802 43.7449 32.7533C44.6278 30.6265 45.6979 28.62 46.982 26.7072C48.2528 24.7943 49.6974 23.0286 51.3293 21.3967C52.9479 19.7782 54.7136 18.3201 56.6264 17.0494C58.5392 15.7786 60.5457 14.6951 62.6725 13.8123C64.786 12.9295 66.9797 12.274 69.227 11.8192C71.4742 11.3778 73.7482 11.1504 76.049 11.1504C78.3497 11.1504 80.6237 11.3778 82.8709 11.8192C85.1182 12.274 87.3119 12.9295 89.4387 13.8123C91.5522 14.6951 93.5721 15.7786 95.4715 17.0494C97.3843 18.3201 99.15 19.7782 100.782 21.3967C102.4 23.0286 103.845 24.7943 105.129 26.7072C106.4 28.62 107.484 30.6265 108.353 32.7533C109.236 34.8802 109.905 37.0605 110.346 39.3211C110.801 41.5684 111.015 43.8557 111.015 46.1431Z" fill="#EDEDED" fill-opacity="0.4" stroke="#B4B4B4" stroke-opacity="0.4" stroke-width="3" stroke-miterlimit="10" stroke-linecap="round" stroke-linejoin="round"/>
<path d="M94.2129 31.375C97.5035 35.4147 99.4431 40.5245 99.4431 46.1426L94.2129 31.375Z" fill="#EDEDED" fill-opacity="0.4"/>
<path d="M94.2129 31.375C97.5035 35.4147 99.4431 40.5245 99.4431 46.1426" stroke="#B4B4B4" stroke-opacity="0.4" stroke-width="3" stroke-miterlimit="10" stroke-linecap="round" stroke-linejoin="round"/>
<path d="M76.0488 22.7324C80.0216 22.7324 83.767 23.7089 87.0041 25.4612L76.0488 22.7324Z" fill="#EDEDED" fill-opacity="0.4"/>
<path d="M76.0488 22.7324C80.0216 22.7324 83.767 23.7089 87.0041 25.4612" stroke="#B4B4B4" stroke-opacity="0.4" stroke-width="3" stroke-miterlimit="10" stroke-linecap="round" stroke-linejoin="round"/>
<path d="M106.481 80.627L143.092 138.239C143.774 139.256 143.427 140.687 142.41 141.302L134.063 146.653C133.047 147.322 131.629 146.987 131 145.971L94.3887 88.3585" fill="#EDEDED" fill-opacity="0.4"/>
<path d="M106.481 80.627L143.092 138.239C143.774 139.256 143.427 140.687 142.41 141.302L134.063 146.653C133.047 147.322 131.629 146.987 131 145.971L94.3887 88.3585" stroke="#B4B4B4" stroke-opacity="0.4" stroke-width="3" stroke-miterlimit="10" stroke-linecap="round" stroke-linejoin="round"/>
<path d="M5.8 135.55H14.225V138.7H5.8V135.55ZM6.1 142.75H15.625V146H2.075V128.5H15.3V131.75H6.1V142.75ZM36.5475 132.35C37.6141 132.35 38.5558 132.567 39.3725 133C40.2058 133.417 40.8558 134.067 41.3225 134.95C41.8058 135.817 42.0475 136.933 42.0475 138.3V146H38.1475V138.9C38.1475 137.817 37.9225 137.017 37.4725 136.5C37.0225 135.983 36.3891 135.725 35.5725 135.725C35.0058 135.725 34.4975 135.858 34.0475 136.125C33.5975 136.375 33.2475 136.758 32.9975 137.275C32.7475 137.792 32.6225 138.45 32.6225 139.25V146H28.7225V138.9C28.7225 137.817 28.4975 137.017 28.0475 136.5C27.6141 135.983 26.9891 135.725 26.1725 135.725C25.6058 135.725 25.0975 135.858 24.6475 136.125C24.1975 136.375 23.8475 136.758 23.5975 137.275C23.3475 137.792 23.2225 138.45 23.2225 139.25V146H19.3225V132.55H23.0475V136.225L22.3475 135.15C22.8141 134.233 23.4725 133.542 24.3225 133.075C25.1891 132.592 26.1725 132.35 27.2725 132.35C28.5058 132.35 29.5808 132.667 30.4975 133.3C31.4308 133.917 32.0475 134.867 32.3475 136.15L30.9725 135.775C31.4225 134.725 32.1391 133.892 33.1225 133.275C34.1225 132.658 35.2641 132.35 36.5475 132.35ZM54.2432 146.2C53.1098 146.2 52.1182 145.95 51.2682 145.45C50.4182 144.95 49.7515 144.192 49.2682 143.175C48.8015 142.142 48.5682 140.842 48.5682 139.275C48.5682 137.692 48.7932 136.392 49.2432 135.375C49.6932 134.358 50.3432 133.6 51.1932 133.1C52.0432 132.6 53.0598 132.35 54.2432 132.35C55.5098 132.35 56.6432 132.642 57.6432 133.225C58.6598 133.792 59.4598 134.592 60.0432 135.625C60.6432 136.658 60.9432 137.875 60.9432 139.275C60.9432 140.692 60.6432 141.917 60.0432 142.95C59.4598 143.983 58.6598 144.783 57.6432 145.35C56.6432 145.917 55.5098 146.2 54.2432 146.2ZM46.2932 150.85V132.55H50.0182V135.3L49.9432 139.3L50.1932 143.275V150.85H46.2932ZM53.5682 143C54.2182 143 54.7932 142.85 55.2932 142.55C55.8098 142.25 56.2182 141.825 56.5182 141.275C56.8348 140.708 56.9932 140.042 56.9932 139.275C56.9932 138.492 56.8348 137.825 56.5182 137.275C56.2182 136.725 55.8098 136.3 55.2932 136C54.7932 135.7 54.2182 135.55 53.5682 135.55C52.9182 135.55 52.3348 135.7 51.8182 136C51.3015 136.3 50.8932 136.725 50.5932 137.275C50.2932 137.825 50.1432 138.492 50.1432 139.275C50.1432 140.042 50.2932 140.708 50.5932 141.275C50.8932 141.825 51.3015 142.25 51.8182 142.55C52.3348 142.85 52.9182 143 53.5682 143ZM72.3342 146V143.375L72.0842 142.8V138.1C72.0842 137.267 71.8258 136.617 71.3092 136.15C70.8092 135.683 70.0342 135.45 68.9842 135.45C68.2675 135.45 67.5592 135.567 66.8592 135.8C66.1758 136.017 65.5925 136.317 65.1092 136.7L63.7092 133.975C64.4425 133.458 65.3258 133.058 66.3592 132.775C67.3925 132.492 68.4425 132.35 69.5092 132.35C71.5592 132.35 73.1508 132.833 74.2842 133.8C75.4175 134.767 75.9842 136.275 75.9842 138.325V146H72.3342ZM68.2342 146.2C67.1842 146.2 66.2842 146.025 65.5342 145.675C64.7842 145.308 64.2092 144.817 63.8092 144.2C63.4092 143.583 63.2092 142.892 63.2092 142.125C63.2092 141.325 63.4008 140.625 63.7842 140.025C64.1842 139.425 64.8092 138.958 65.6592 138.625C66.5092 138.275 67.6175 138.1 68.9842 138.1H72.5592V140.375H69.4092C68.4925 140.375 67.8592 140.525 67.5092 140.825C67.1758 141.125 67.0092 141.5 67.0092 141.95C67.0092 142.45 67.2008 142.85 67.5842 143.15C67.9842 143.433 68.5258 143.575 69.2092 143.575C69.8592 143.575 70.4425 143.425 70.9592 143.125C71.4758 142.808 71.8508 142.35 72.0842 141.75L72.6842 143.55C72.4008 144.417 71.8842 145.075 71.1342 145.525C70.3842 145.975 69.4175 146.2 68.2342 146.2ZM85.7639 146.2C84.1805 146.2 82.9472 145.8 82.0639 145C81.1805 144.183 80.7389 142.975 80.7389 141.375V129.575H84.6389V141.325C84.6389 141.892 84.7889 142.333 85.0889 142.65C85.3889 142.95 85.7972 143.1 86.3139 143.1C86.9305 143.1 87.4555 142.933 87.8889 142.6L88.9389 145.35C88.5389 145.633 88.0555 145.85 87.4889 146C86.9389 146.133 86.3639 146.2 85.7639 146.2ZM78.6639 135.85V132.85H87.9889V135.85H78.6639ZM100.053 132.35C101.12 132.35 102.07 132.567 102.903 133C103.753 133.417 104.42 134.067 104.903 134.95C105.386 135.817 105.628 136.933 105.628 138.3V146H101.728V138.9C101.728 137.817 101.486 137.017 101.003 136.5C100.536 135.983 99.8698 135.725 99.0031 135.725C98.3865 135.725 97.8281 135.858 97.3281 136.125C96.8448 136.375 96.4615 136.767 96.1781 137.3C95.9115 137.833 95.7781 138.517 95.7781 139.35V146H91.8781V127.45H95.7781V136.275L94.9031 135.15C95.3865 134.25 96.0781 133.558 96.9781 133.075C97.8781 132.592 98.9031 132.35 100.053 132.35ZM109.913 146V132.55H113.813V146H109.913ZM111.863 130.675C111.147 130.675 110.563 130.467 110.113 130.05C109.663 129.633 109.438 129.117 109.438 128.5C109.438 127.883 109.663 127.367 110.113 126.95C110.563 126.533 111.147 126.325 111.863 126.325C112.58 126.325 113.163 126.525 113.613 126.925C114.063 127.308 114.288 127.808 114.288 128.425C114.288 129.075 114.063 129.617 113.613 130.05C113.18 130.467 112.597 130.675 111.863 130.675ZM122.708 146.2C121.558 146.2 120.449 146.067 119.383 145.8C118.333 145.517 117.499 145.167 116.883 144.75L118.183 141.95C118.799 142.333 119.524 142.65 120.358 142.9C121.208 143.133 122.041 143.25 122.858 143.25C123.758 143.25 124.391 143.142 124.758 142.925C125.141 142.708 125.333 142.408 125.333 142.025C125.333 141.708 125.183 141.475 124.883 141.325C124.599 141.158 124.216 141.033 123.733 140.95C123.249 140.867 122.716 140.783 122.133 140.7C121.566 140.617 120.991 140.508 120.408 140.375C119.824 140.225 119.291 140.008 118.808 139.725C118.324 139.442 117.933 139.058 117.633 138.575C117.349 138.092 117.208 137.467 117.208 136.7C117.208 135.85 117.449 135.1 117.933 134.45C118.433 133.8 119.149 133.292 120.083 132.925C121.016 132.542 122.133 132.35 123.433 132.35C124.349 132.35 125.283 132.45 126.233 132.65C127.183 132.85 127.974 133.142 128.608 133.525L127.308 136.3C126.658 135.917 125.999 135.658 125.333 135.525C124.683 135.375 124.049 135.3 123.433 135.3C122.566 135.3 121.933 135.417 121.533 135.65C121.133 135.883 120.933 136.183 120.933 136.55C120.933 136.883 121.074 137.133 121.358 137.3C121.658 137.467 122.049 137.6 122.533 137.7C123.016 137.8 123.541 137.892 124.108 137.975C124.691 138.042 125.274 138.15 125.858 138.3C126.441 138.45 126.966 138.667 127.433 138.95C127.916 139.217 128.308 139.592 128.608 140.075C128.908 140.542 129.058 141.158 129.058 141.925C129.058 142.758 128.808 143.5 128.308 144.15C127.808 144.783 127.083 145.283 126.133 145.65C125.199 146.017 124.058 146.2 122.708 146.2ZM132.214 146V132.55H136.114V146H132.214ZM134.164 130.675C133.447 130.675 132.864 130.467 132.414 130.05C131.964 129.633 131.739 129.117 131.739 128.5C131.739 127.883 131.964 127.367 132.414 126.95C132.864 126.533 133.447 126.325 134.164 126.325C134.881 126.325 135.464 126.525 135.914 126.925C136.364 127.308 136.589 127.808 136.589 128.425C136.589 129.075 136.364 129.617 135.914 130.05C135.481 130.467 134.897 130.675 134.164 130.675ZM148.659 132.35C149.725 132.35 150.675 132.567 151.509 133C152.359 133.417 153.025 134.067 153.509 134.95C153.992 135.817 154.234 136.933 154.234 138.3V146H150.334V138.9C150.334 137.817 150.092 137.017 149.609 136.5C149.142 135.983 148.475 135.725 147.609 135.725C146.992 135.725 146.434 135.858 145.934 136.125C145.45 136.375 145.067 136.767 144.784 137.3C144.517 137.833 144.384 138.517 144.384 139.35V146H140.484V132.55H144.209V136.275L143.509 135.15C143.992 134.25 144.684 133.558 145.584 133.075C146.484 132.592 147.509 132.35 148.659 132.35ZM164.941 151.05C163.675 151.05 162.45 150.892 161.266 150.575C160.1 150.275 159.125 149.817 158.341 149.2L159.891 146.4C160.458 146.867 161.175 147.233 162.041 147.5C162.925 147.783 163.791 147.925 164.641 147.925C166.025 147.925 167.025 147.617 167.641 147C168.275 146.383 168.591 145.467 168.591 144.25V142.225L168.841 138.85L168.791 135.45V132.55H172.491V143.75C172.491 146.25 171.841 148.092 170.541 149.275C169.241 150.458 167.375 151.05 164.941 151.05ZM164.341 145.35C163.091 145.35 161.958 145.083 160.941 144.55C159.941 144 159.133 143.242 158.516 142.275C157.916 141.292 157.616 140.15 157.616 138.85C157.616 137.533 157.916 136.392 158.516 135.425C159.133 134.442 159.941 133.683 160.941 133.15C161.958 132.617 163.091 132.35 164.341 132.35C165.475 132.35 166.475 132.583 167.341 133.05C168.208 133.5 168.883 134.208 169.366 135.175C169.85 136.125 170.091 137.35 170.091 138.85C170.091 140.333 169.85 141.558 169.366 142.525C168.883 143.475 168.208 144.183 167.341 144.65C166.475 145.117 165.475 145.35 164.341 145.35ZM165.116 142.15C165.8 142.15 166.408 142.017 166.941 141.75C167.475 141.467 167.891 141.075 168.191 140.575C168.491 140.075 168.641 139.5 168.641 138.85C168.641 138.183 168.491 137.608 168.191 137.125C167.891 136.625 167.475 136.242 166.941 135.975C166.408 135.692 165.8 135.55 165.116 135.55C164.433 135.55 163.825 135.692 163.291 135.975C162.758 136.242 162.333 136.625 162.016 137.125C161.716 137.608 161.566 138.183 161.566 138.85C161.566 139.5 161.716 140.075 162.016 140.575C162.333 141.075 162.758 141.467 163.291 141.75C163.825 142.017 164.433 142.15 165.116 142.15Z" fill="#739D03"/>
</svg>
