<svg width="465" height="478" viewBox="0 0 465 478" fill="none" xmlns="http://www.w3.org/2000/svg">
<path d="M403.544 25V19.8L403.884 20.72L397.944 11H399.524L404.744 19.54H403.904L409.124 11H410.604L404.664 20.72L405.004 19.8V25H403.544ZM415.868 25.1C414.774 25.1 413.814 24.8733 412.988 24.42C412.161 23.9533 411.514 23.32 411.048 22.52C410.581 21.7067 410.348 20.78 410.348 19.74C410.348 18.7 410.568 17.78 411.008 16.98C411.461 16.18 412.074 15.5533 412.848 15.1C413.634 14.6333 414.514 14.4 415.488 14.4C416.474 14.4 417.348 14.6267 418.108 15.08C418.881 15.52 419.488 16.1467 419.928 16.96C420.368 17.76 420.588 18.6867 420.588 19.74C420.588 19.8067 420.581 19.88 420.568 19.96C420.568 20.0267 420.568 20.1 420.568 20.18H411.428V19.12H419.808L419.248 19.54C419.248 18.78 419.081 18.1067 418.748 17.52C418.428 16.92 417.988 16.4533 417.428 16.12C416.868 15.7867 416.221 15.62 415.488 15.62C414.768 15.62 414.121 15.7867 413.548 16.12C412.974 16.4533 412.528 16.92 412.208 17.52C411.888 18.12 411.728 18.8067 411.728 19.58V19.8C411.728 20.6 411.901 21.3067 412.248 21.92C412.608 22.52 413.101 22.9933 413.728 23.34C414.368 23.6733 415.094 23.84 415.908 23.84C416.548 23.84 417.141 23.7267 417.688 23.5C418.248 23.2733 418.728 22.9267 419.128 22.46L419.928 23.38C419.461 23.94 418.874 24.3667 418.168 24.66C417.474 24.9533 416.708 25.1 415.868 25.1ZM426.298 25.1C425.431 25.1 424.611 24.98 423.838 24.74C423.065 24.4867 422.458 24.1733 422.018 23.8L422.658 22.68C423.085 23 423.631 23.28 424.298 23.52C424.965 23.7467 425.665 23.86 426.398 23.86C427.398 23.86 428.118 23.7067 428.558 23.4C428.998 23.08 429.218 22.66 429.218 22.14C429.218 21.7533 429.091 21.4533 428.838 21.24C428.598 21.0133 428.278 20.8467 427.878 20.74C427.478 20.62 427.031 20.52 426.538 20.44C426.045 20.36 425.551 20.2667 425.058 20.16C424.578 20.0533 424.138 19.9 423.738 19.7C423.338 19.4867 423.011 19.2 422.758 18.84C422.518 18.48 422.398 18 422.398 17.4C422.398 16.8267 422.558 16.3133 422.878 15.86C423.198 15.4067 423.665 15.0533 424.278 14.8C424.905 14.5333 425.665 14.4 426.558 14.4C427.238 14.4 427.918 14.4933 428.598 14.68C429.278 14.8533 429.838 15.0867 430.278 15.38L429.658 16.52C429.191 16.2 428.691 15.9733 428.158 15.84C427.625 15.6933 427.091 15.62 426.558 15.62C425.611 15.62 424.911 15.7867 424.458 16.12C424.018 16.44 423.798 16.8533 423.798 17.36C423.798 17.76 423.918 18.0733 424.158 18.3C424.411 18.5267 424.738 18.7067 425.138 18.84C425.551 18.96 425.998 19.06 426.478 19.14C426.971 19.22 427.458 19.32 427.938 19.44C428.431 19.5467 428.878 19.7 429.278 19.9C429.691 20.0867 430.018 20.36 430.258 20.72C430.511 21.0667 430.638 21.5267 430.638 22.1C430.638 22.7133 430.465 23.2467 430.118 23.7C429.785 24.14 429.291 24.4867 428.638 24.74C427.998 24.98 427.218 25.1 426.298 25.1Z" fill="#323232"/>
<path d="M388.107 61.6094V60.5894L393.927 54.8894C394.46 54.3694 394.86 53.916 395.127 53.5294C395.394 53.1294 395.574 52.756 395.667 52.4094C395.76 52.0627 395.807 51.736 395.807 51.4294C395.807 50.616 395.527 49.976 394.967 49.5094C394.42 49.0427 393.607 48.8094 392.527 48.8094C391.7 48.8094 390.967 48.936 390.327 49.1894C389.7 49.4427 389.16 49.836 388.707 50.3694L387.687 49.4894C388.234 48.8494 388.934 48.356 389.787 48.0094C390.64 47.6627 391.594 47.4894 392.647 47.4894C393.594 47.4894 394.414 47.6427 395.107 47.9494C395.8 48.2427 396.334 48.676 396.707 49.2494C397.094 49.8227 397.287 50.496 397.287 51.2694C397.287 51.7227 397.22 52.1694 397.087 52.6094C396.967 53.0494 396.74 53.516 396.407 54.0094C396.087 54.4894 395.614 55.036 394.987 55.6494L389.647 60.8894L389.247 60.3294H397.927V61.6094H388.107ZM402.174 61.6094V48.2094L402.814 48.8894H398.874V47.6094H403.614V61.6094H402.174ZM408.041 61.7094C407.748 61.7094 407.494 61.6027 407.281 61.3894C407.081 61.176 406.981 60.916 406.981 60.6094C406.981 60.2894 407.081 60.0294 407.281 59.8294C407.494 59.6294 407.748 59.5294 408.041 59.5294C408.334 59.5294 408.581 59.6294 408.781 59.8294C408.994 60.0294 409.101 60.2894 409.101 60.6094C409.101 60.916 408.994 61.176 408.781 61.3894C408.581 61.6027 408.334 61.7094 408.041 61.7094ZM413.405 61.6094V48.2094L414.045 48.8894H410.105V47.6094H414.845V61.6094H413.405ZM420.071 61.6094L429.631 47.6094H430.811L421.251 61.6094H420.071ZM421.151 55.1094C420.525 55.1094 419.971 54.956 419.491 54.6494C419.011 54.3294 418.638 53.8827 418.371 53.3094C418.118 52.736 417.991 52.0694 417.991 51.3094C417.991 50.5494 418.118 49.8827 418.371 49.3094C418.638 48.736 419.011 48.296 419.491 47.9894C419.971 47.6694 420.525 47.5094 421.151 47.5094C421.778 47.5094 422.325 47.6694 422.791 47.9894C423.271 48.296 423.645 48.736 423.911 49.3094C424.178 49.8827 424.311 50.5494 424.311 51.3094C424.311 52.0694 424.178 52.736 423.911 53.3094C423.645 53.8827 423.271 54.3294 422.791 54.6494C422.325 54.956 421.778 55.1094 421.151 55.1094ZM421.151 54.2094C421.805 54.2094 422.325 53.956 422.711 53.4494C423.111 52.9294 423.311 52.216 423.311 51.3094C423.311 50.4027 423.111 49.696 422.711 49.1894C422.325 48.6694 421.805 48.4094 421.151 48.4094C420.485 48.4094 419.958 48.6694 419.571 49.1894C419.185 49.696 418.991 50.4027 418.991 51.3094C418.991 52.216 419.185 52.9294 419.571 53.4494C419.958 53.956 420.485 54.2094 421.151 54.2094ZM429.731 61.7094C429.118 61.7094 428.571 61.556 428.091 61.2494C427.611 60.9294 427.238 60.4827 426.971 59.9094C426.705 59.336 426.571 58.6694 426.571 57.9094C426.571 57.1494 426.705 56.4827 426.971 55.9094C427.238 55.336 427.611 54.896 428.091 54.5894C428.571 54.2694 429.118 54.1094 429.731 54.1094C430.371 54.1094 430.925 54.2694 431.391 54.5894C431.871 54.896 432.238 55.336 432.491 55.9094C432.758 56.4827 432.891 57.1494 432.891 57.9094C432.891 58.6694 432.758 59.336 432.491 59.9094C432.238 60.4827 431.871 60.9294 431.391 61.2494C430.925 61.556 430.371 61.7094 429.731 61.7094ZM429.731 60.8094C430.385 60.8094 430.905 60.556 431.291 60.0494C431.691 59.5294 431.891 58.816 431.891 57.9094C431.891 57.0027 431.691 56.296 431.291 55.7894C430.905 55.2694 430.385 55.0094 429.731 55.0094C429.078 55.0094 428.551 55.2694 428.151 55.7894C427.765 56.296 427.571 57.0027 427.571 57.9094C427.571 58.816 427.765 59.5294 428.151 60.0494C428.551 60.556 429.078 60.8094 429.731 60.8094Z" fill="#323232"/>
<path d="M15.7683 364.031V350.031H16.9883L26.6483 362.191H26.0083V350.031H27.4683V364.031H26.2483L16.6083 351.871H17.2483V364.031H15.7683ZM36.0178 364.131C35.0045 364.131 34.0911 363.905 33.2778 363.451C32.4778 362.985 31.8445 362.351 31.3778 361.551C30.9111 360.738 30.6778 359.811 30.6778 358.771C30.6778 357.718 30.9111 356.791 31.3778 355.991C31.8445 355.191 32.4778 354.565 33.2778 354.111C34.0778 353.658 34.9911 353.431 36.0178 353.431C37.0578 353.431 37.9778 353.658 38.7778 354.111C39.5911 354.565 40.2245 355.191 40.6778 355.991C41.1445 356.791 41.3778 357.718 41.3778 358.771C41.3778 359.811 41.1445 360.738 40.6778 361.551C40.2245 362.351 39.5911 362.985 38.7778 363.451C37.9645 363.905 37.0445 364.131 36.0178 364.131ZM36.0178 362.871C36.7778 362.871 37.4511 362.705 38.0378 362.371C38.6245 362.025 39.0845 361.545 39.4178 360.931C39.7645 360.305 39.9378 359.585 39.9378 358.771C39.9378 357.945 39.7645 357.225 39.4178 356.611C39.0845 355.998 38.6245 355.525 38.0378 355.191C37.4511 354.845 36.7845 354.671 36.0378 354.671C35.2911 354.671 34.6245 354.845 34.0378 355.191C33.4511 355.525 32.9845 355.998 32.6378 356.611C32.2911 357.225 32.1178 357.945 32.1178 358.771C32.1178 359.585 32.2911 360.305 32.6378 360.931C32.9845 361.545 33.4511 362.025 34.0378 362.371C34.6245 362.705 35.2845 362.871 36.0178 362.871Z" fill="#323232"/>
<path d="M3.5 400.641L9.54 387.281L9.98 387.921H1.32L2.06 387.221V390.541H0.64V386.641H10.92V387.661L5.06 400.641H3.5ZM17.7663 400.761C16.6463 400.761 15.6796 400.601 14.8663 400.281C14.0663 399.961 13.4463 399.501 13.0063 398.901C12.5796 398.287 12.3663 397.567 12.3663 396.741C12.3663 395.941 12.5729 395.261 12.9863 394.701C13.4129 394.127 14.0263 393.687 14.8263 393.381C15.6396 393.074 16.6196 392.921 17.7663 392.921C18.8996 392.921 19.8729 393.074 20.6863 393.381C21.4996 393.687 22.1196 394.127 22.5463 394.701C22.9863 395.261 23.2063 395.941 23.2063 396.741C23.2063 397.567 22.9863 398.287 22.5463 398.901C22.1063 399.501 21.4796 399.961 20.6663 400.281C19.8529 400.601 18.8863 400.761 17.7663 400.761ZM17.7663 399.541C19.0063 399.541 19.9729 399.287 20.6663 398.781C21.3729 398.274 21.7263 397.587 21.7263 396.721C21.7263 395.854 21.3729 395.174 20.6663 394.681C19.9729 394.174 19.0063 393.921 17.7663 393.921C16.5263 393.921 15.5596 394.174 14.8663 394.681C14.1729 395.174 13.8263 395.854 13.8263 396.721C13.8263 397.587 14.1729 398.274 14.8663 398.781C15.5596 399.287 16.5263 399.541 17.7663 399.541ZM17.7663 393.741C16.7263 393.741 15.8396 393.601 15.1063 393.321C14.3863 393.041 13.8329 392.641 13.4463 392.121C13.0596 391.587 12.8663 390.954 12.8663 390.221C12.8663 389.447 13.0663 388.787 13.4663 388.241C13.8796 387.681 14.4529 387.254 15.1863 386.961C15.9196 386.667 16.7796 386.521 17.7663 386.521C18.7529 386.521 19.6129 386.667 20.3463 386.961C21.0929 387.254 21.6729 387.681 22.0863 388.241C22.4996 388.787 22.7062 389.447 22.7062 390.221C22.7062 390.954 22.5129 391.587 22.1263 392.121C21.7396 392.641 21.1729 393.041 20.4263 393.321C19.6929 393.601 18.8063 393.741 17.7663 393.741ZM17.7663 392.781C18.8596 392.781 19.7129 392.554 20.3263 392.101C20.9396 391.647 21.2463 391.041 21.2463 390.281C21.2463 389.481 20.9263 388.861 20.2863 388.421C19.6596 387.967 18.8196 387.741 17.7663 387.741C16.7129 387.741 15.8729 387.967 15.2463 388.421C14.6196 388.861 14.3063 389.474 14.3063 390.261C14.3063 391.034 14.6063 391.647 15.2063 392.101C15.8196 392.554 16.6729 392.781 17.7663 392.781ZM26.4755 400.741C26.1821 400.741 25.9288 400.634 25.7155 400.421C25.5155 400.207 25.4155 399.947 25.4155 399.641C25.4155 399.321 25.5155 399.061 25.7155 398.861C25.9288 398.661 26.1821 398.561 26.4755 398.561C26.7688 398.561 27.0155 398.661 27.2155 398.861C27.4288 399.061 27.5355 399.321 27.5355 399.641C27.5355 399.947 27.4288 400.207 27.2155 400.421C27.0155 400.634 26.7688 400.741 26.4755 400.741ZM33.9938 386.521C35.2338 386.521 36.2804 386.801 37.1338 387.361C37.9871 387.907 38.6338 388.701 39.0738 389.741C39.5138 390.781 39.7338 392.041 39.7338 393.521C39.7338 395.094 39.4604 396.421 38.9138 397.501C38.3804 398.581 37.6338 399.394 36.6738 399.941C35.7138 400.487 34.6004 400.761 33.3338 400.761C32.7071 400.761 32.1071 400.701 31.5337 400.581C30.9738 400.461 30.4671 400.267 30.0138 400.001L30.5938 398.841C30.9538 399.081 31.3671 399.254 31.8338 399.361C32.3138 399.454 32.8071 399.501 33.3138 399.501C34.8204 399.501 36.0204 399.021 36.9138 398.061C37.8204 397.101 38.2738 395.667 38.2738 393.761C38.2738 393.454 38.2538 393.087 38.2138 392.661C38.1871 392.234 38.1138 391.807 37.9938 391.381L38.4938 391.761C38.3604 392.454 38.0738 393.047 37.6338 393.541C37.2071 394.021 36.6738 394.387 36.0338 394.641C35.4071 394.894 34.7071 395.021 33.9338 395.021C33.0138 395.021 32.1938 394.847 31.4738 394.501C30.7671 394.154 30.2138 393.667 29.8138 393.041C29.4138 392.414 29.2138 391.674 29.2138 390.821C29.2138 389.941 29.4204 389.181 29.8338 388.541C30.2471 387.901 30.8138 387.407 31.5337 387.061C32.2671 386.701 33.0871 386.521 33.9938 386.521ZM34.0538 387.741C33.3871 387.741 32.7938 387.867 32.2738 388.121C31.7671 388.361 31.3671 388.707 31.0738 389.161C30.7804 389.614 30.6338 390.154 30.6338 390.781C30.6338 391.701 30.9471 392.434 31.5738 392.981C32.2138 393.527 33.0738 393.801 34.1538 393.801C34.8738 393.801 35.5004 393.667 36.0338 393.401C36.5804 393.134 37.0004 392.767 37.2938 392.301C37.6004 391.834 37.7538 391.314 37.7538 390.741C37.7538 390.221 37.6138 389.734 37.3338 389.281C37.0538 388.827 36.6404 388.461 36.0938 388.181C35.5471 387.887 34.8671 387.741 34.0538 387.741ZM43.7013 400.641L53.2613 386.641H54.4413L44.8813 400.641H43.7013ZM44.7813 394.141C44.1546 394.141 43.6013 393.987 43.1213 393.681C42.6413 393.361 42.2679 392.914 42.0013 392.341C41.7479 391.767 41.6213 391.101 41.6213 390.341C41.6213 389.581 41.7479 388.914 42.0013 388.341C42.2679 387.767 42.6413 387.327 43.1213 387.021C43.6013 386.701 44.1546 386.541 44.7813 386.541C45.4079 386.541 45.9546 386.701 46.4213 387.021C46.9013 387.327 47.2746 387.767 47.5413 388.341C47.8079 388.914 47.9413 389.581 47.9413 390.341C47.9413 391.101 47.8079 391.767 47.5413 392.341C47.2746 392.914 46.9013 393.361 46.4213 393.681C45.9546 393.987 45.4079 394.141 44.7813 394.141ZM44.7813 393.241C45.4346 393.241 45.9546 392.987 46.3413 392.481C46.7413 391.961 46.9413 391.247 46.9413 390.341C46.9413 389.434 46.7413 388.727 46.3413 388.221C45.9546 387.701 45.4346 387.441 44.7813 387.441C44.1146 387.441 43.5879 387.701 43.2013 388.221C42.8146 388.727 42.6213 389.434 42.6213 390.341C42.6213 391.247 42.8146 391.961 43.2013 392.481C43.5879 392.987 44.1146 393.241 44.7813 393.241ZM53.3613 400.741C52.7479 400.741 52.2013 400.587 51.7213 400.281C51.2413 399.961 50.8679 399.514 50.6013 398.941C50.3346 398.367 50.2013 397.701 50.2013 396.941C50.2013 396.181 50.3346 395.514 50.6013 394.941C50.8679 394.367 51.2413 393.927 51.7213 393.621C52.2013 393.301 52.7479 393.141 53.3613 393.141C54.0013 393.141 54.5546 393.301 55.0213 393.621C55.5013 393.927 55.8679 394.367 56.1213 394.941C56.3879 395.514 56.5213 396.181 56.5213 396.941C56.5213 397.701 56.3879 398.367 56.1213 398.941C55.8679 399.514 55.5013 399.961 55.0213 400.281C54.5546 400.587 54.0013 400.741 53.3613 400.741ZM53.3613 399.841C54.0146 399.841 54.5346 399.587 54.9213 399.081C55.3213 398.561 55.5213 397.847 55.5213 396.941C55.5213 396.034 55.3213 395.327 54.9213 394.821C54.5346 394.301 54.0146 394.041 53.3613 394.041C52.7079 394.041 52.1813 394.301 51.7813 394.821C51.3946 395.327 51.2013 396.034 51.2013 396.941C51.2013 397.847 51.3946 398.561 51.7813 399.081C52.1813 399.587 52.7079 399.841 53.3613 399.841Z" fill="#323232"/>
<path d="M246.285 41C249.407 41 252.528 41.0674 255.647 41.2021C258.766 41.3341 261.879 41.5362 264.992 41.8029C268.103 42.0695 271.204 42.4036 274.301 42.805C277.397 43.2064 280.482 43.6724 283.559 44.2058C286.635 44.7392 289.698 45.3371 292.75 46.0024C295.798 46.6677 298.833 47.3976 301.853 48.192C304.871 48.9864 307.872 49.8454 310.856 50.769C313.837 51.6925 316.799 52.6778 319.738 53.7305C322.677 54.7804 325.593 55.8921 328.485 57.0683C331.376 58.2445 334.242 59.4824 337.083 60.7794C339.921 62.0791 342.731 63.4378 345.513 64.8554C348.292 66.2758 351.041 67.7524 353.758 69.2907C356.475 70.829 359.159 72.4235 361.809 74.0741C364.456 75.7276 367.069 77.4343 369.644 79.2C372.221 80.963 374.758 82.782 377.254 84.6544C379.752 86.5296 382.209 88.4553 384.623 90.4344C387.037 92.4106 389.409 94.4402 391.736 96.5203C394.066 98.6004 396.348 100.731 398.583 102.909C400.82 105.088 403.01 107.311 405.149 109.585C407.291 111.856 409.382 114.172 411.423 116.535C413.466 118.896 415.457 121.302 417.394 123.747C419.333 126.195 421.217 128.682 423.05 131.211C424.88 133.741 426.657 136.306 428.378 138.909C430.102 141.514 431.766 144.155 433.375 146.831C434.983 149.506 436.533 152.215 438.026 154.957C439.517 157.7 440.949 160.473 442.324 163.275C443.697 166.079 445.008 168.912 446.26 171.772C447.512 174.633 448.702 177.519 449.831 180.43C450.956 183.341 452.023 186.274 453.025 189.23C454.025 192.186 454.965 195.164 455.838 198.16C456.711 201.158 457.522 204.173 458.266 207.204C459.013 210.236 459.692 213.282 460.304 216.342L246.285 259.286V41Z" fill="#4E6A03"/>
<path d="M457.893 205.7C458.814 209.346 459.645 213.012 460.377 216.701C461.11 220.39 461.747 224.092 462.292 227.815C462.834 231.534 463.277 235.268 463.628 239.013C463.976 242.757 464.229 246.508 464.386 250.264C464.54 254.023 464.599 257.781 464.56 261.54C464.521 265.302 464.386 269.058 464.153 272.811C463.92 276.564 463.589 280.309 463.162 284.045C462.735 287.782 462.213 291.504 461.596 295.212C460.975 298.923 460.262 302.612 459.451 306.284C458.643 309.958 457.739 313.605 456.739 317.232C455.743 320.859 454.651 324.455 453.466 328.022C452.282 331.593 451.007 335.13 449.64 338.631C448.273 342.134 446.816 345.601 445.269 349.029C443.725 352.456 442.091 355.842 440.371 359.185C438.65 362.528 436.842 365.827 434.95 369.077C433.061 372.328 431.085 375.525 429.03 378.675C426.972 381.822 424.836 384.915 422.618 387.953C420.403 390.99 418.11 393.969 415.738 396.888C413.368 399.808 410.923 402.662 408.405 405.456C405.887 408.249 403.299 410.975 400.641 413.633C397.982 416.294 395.257 418.882 392.463 421.4C389.67 423.918 386.813 426.363 383.896 428.733C380.976 431.105 377.998 433.398 374.961 435.613C371.923 437.831 368.83 439.967 365.68 442.025C362.533 444.082 359.333 446.056 356.082 447.948C352.835 449.84 349.536 451.645 346.193 453.366C342.849 455.086 339.464 456.72 336.036 458.267C332.609 459.814 329.142 461.271 325.639 462.638C322.138 464.005 318.601 465.279 315.03 466.464C311.462 467.649 307.866 468.741 304.24 469.737C300.615 470.736 296.966 471.64 293.294 472.452C289.62 473.26 285.931 473.976 282.22 474.594C278.512 475.214 274.789 475.736 271.053 476.163C267.317 476.589 263.572 476.918 259.819 477.151C256.066 477.384 252.31 477.521 248.548 477.561C244.789 477.6 241.03 477.541 237.272 477.387C233.516 477.229 229.765 476.98 226.02 476.629C222.276 476.281 218.545 475.834 214.823 475.293C211.1 474.751 207.398 474.113 203.709 473.378C200.02 472.645 196.354 471.817 192.708 470.894C189.064 469.973 185.443 468.954 181.85 467.845C178.259 466.736 174.697 465.532 171.165 464.238C167.634 462.944 164.139 461.56 160.681 460.086C157.222 458.612 153.803 457.049 150.423 455.395C147.046 453.745 143.711 452.007 140.424 450.185C137.134 448.36 133.895 446.452 130.706 444.461C127.517 442.471 124.378 440.399 121.296 438.246C118.214 436.093 115.188 433.861 112.22 431.551C109.253 429.241 106.348 426.858 103.501 424.396C100.658 421.937 97.8785 419.404 95.1639 416.802C92.4522 414.2 89.8078 411.528 87.2308 408.788C84.6567 406.048 82.1527 403.244 79.7216 400.372C77.2906 397.503 74.9382 394.572 72.6588 391.583C70.3794 388.59 68.1785 385.544 66.0563 382.44C63.9369 379.335 61.8961 376.177 59.9367 372.965C57.9801 369.757 56.1049 366.498 54.3139 363.191C52.5257 359.884 50.8218 356.532 49.2048 353.135C47.5879 349.742 46.0608 346.306 44.6207 342.833C43.1806 339.358 41.8332 335.849 40.5756 332.306C39.318 328.761 38.1502 325.187 37.0778 321.583C36.0055 317.981 35.0258 314.352 34.1387 310.697C33.2545 307.042 32.4628 303.367 31.7667 299.67C31.0733 295.976 30.4726 292.265 29.9673 288.537C29.4648 284.812 29.0577 281.075 28.7461 277.328C28.4346 273.577 28.2212 269.824 28.1061 266.065C27.9882 262.306 27.9686 258.548 28.0472 254.786C28.1258 251.027 28.2998 247.271 28.5721 243.521C28.8444 239.77 29.2121 236.029 29.6781 232.298C30.1413 228.564 30.7027 224.848 31.3624 221.145C32.0193 217.442 32.7716 213.759 33.6194 210.093C34.4672 206.43 35.4076 202.792 36.4434 199.176C37.4793 195.56 38.6078 191.973 39.8289 188.416C41.05 184.859 42.3609 181.336 43.7645 177.847C45.1681 174.358 46.6587 170.908 48.2392 167.497C49.8224 164.083 51.4899 160.715 53.2444 157.388C55.0017 154.065 56.8404 150.786 58.7661 147.555C60.689 144.324 62.6961 141.146 64.7847 138.019C66.876 134.892 69.0432 131.821 71.2917 128.806C73.5374 125.791 75.8618 122.835 78.2619 119.941C80.6649 117.046 83.138 114.217 85.6841 111.449C88.2302 108.681 90.8465 105.983 93.533 103.35C96.2194 100.72 98.9705 98.1597 101.789 95.6697C104.607 93.1798 107.49 90.7656 110.432 88.4244C113.374 86.0832 116.378 83.8207 119.438 81.6367C122.497 79.4499 125.611 77.3473 128.78 75.3233C131.949 73.2966 135.169 71.3568 138.437 69.4984C141.707 67.6401 145.022 65.8688 148.382 64.1817C151.743 62.4945 155.145 60.8973 158.589 59.387C162.034 57.8767 165.512 56.4563 169.029 55.1257C172.547 53.7923 176.095 52.5543 179.677 51.4062C183.256 50.2609 186.866 49.2054 190.501 48.2453C194.137 47.2853 197.794 46.4178 201.472 45.6459C205.152 44.8739 208.852 44.1974 212.566 43.6163C216.279 43.038 220.007 42.5524 223.749 42.165C227.489 41.7776 231.236 41.4856 234.992 41.2919C238.745 41.0983 242.504 41 246.263 41L246.285 259.286L457.893 205.7Z" fill="#739D03"/>
</svg>
