<svg width="142" height="151" viewBox="0 0 142 151" fill="none" xmlns="http://www.w3.org/2000/svg">
<path d="M12.075 144V126.5H16.125V144H12.075ZM26.5281 144.2C25.2615 144.2 24.1198 143.917 23.1031 143.35C22.0865 142.767 21.2781 141.958 20.6781 140.925C20.0948 139.892 19.8031 138.675 19.8031 137.275C19.8031 135.858 20.0948 134.633 20.6781 133.6C21.2781 132.567 22.0865 131.767 23.1031 131.2C24.1198 130.633 25.2615 130.35 26.5281 130.35C27.6615 130.35 28.6531 130.6 29.5031 131.1C30.3531 131.6 31.0115 132.358 31.4781 133.375C31.9448 134.392 32.1781 135.692 32.1781 137.275C32.1781 138.842 31.9531 140.142 31.5031 141.175C31.0531 142.192 30.4031 142.95 29.5531 143.45C28.7198 143.95 27.7115 144.2 26.5281 144.2ZM27.2031 141C27.8365 141 28.4115 140.85 28.9281 140.55C29.4448 140.25 29.8531 139.825 30.1531 139.275C30.4698 138.708 30.6281 138.042 30.6281 137.275C30.6281 136.492 30.4698 135.825 30.1531 135.275C29.8531 134.725 29.4448 134.3 28.9281 134C28.4115 133.7 27.8365 133.55 27.2031 133.55C26.5531 133.55 25.9698 133.7 25.4531 134C24.9365 134.3 24.5198 134.725 24.2031 135.275C23.9031 135.825 23.7531 136.492 23.7531 137.275C23.7531 138.042 23.9031 138.708 24.2031 139.275C24.5198 139.825 24.9365 140.25 25.4531 140.55C25.9698 140.85 26.5531 141 27.2031 141ZM30.7281 144V141.25L30.8031 137.25L30.5531 133.275V125.45H34.4531V144H30.7281ZM45.4877 144.2C43.9544 144.2 42.6044 143.9 41.4377 143.3C40.2877 142.7 39.396 141.883 38.7627 140.85C38.1294 139.8 37.8127 138.608 37.8127 137.275C37.8127 135.925 38.121 134.733 38.7377 133.7C39.371 132.65 40.2294 131.833 41.3127 131.25C42.396 130.65 43.621 130.35 44.9877 130.35C46.3044 130.35 47.4877 130.633 48.5377 131.2C49.6044 131.75 50.446 132.55 51.0627 133.6C51.6794 134.633 51.9877 135.875 51.9877 137.325C51.9877 137.475 51.9794 137.65 51.9627 137.85C51.946 138.033 51.9294 138.208 51.9127 138.375H40.9877V136.1H49.8627L48.3627 136.775C48.3627 136.075 48.221 135.467 47.9377 134.95C47.6544 134.433 47.2627 134.033 46.7627 133.75C46.2627 133.45 45.6794 133.3 45.0127 133.3C44.346 133.3 43.7544 133.45 43.2377 133.75C42.7377 134.033 42.346 134.442 42.0627 134.975C41.7794 135.492 41.6377 136.108 41.6377 136.825V137.425C41.6377 138.158 41.796 138.808 42.1127 139.375C42.446 139.925 42.9044 140.35 43.4877 140.65C44.0877 140.933 44.7877 141.075 45.5877 141.075C46.3044 141.075 46.9294 140.967 47.4627 140.75C48.0127 140.533 48.5127 140.208 48.9627 139.775L51.0377 142.025C50.421 142.725 49.646 143.267 48.7127 143.65C47.7794 144.017 46.7044 144.2 45.4877 144.2ZM63.218 144V141.375L62.968 140.8V136.1C62.968 135.267 62.7096 134.617 62.193 134.15C61.693 133.683 60.918 133.45 59.868 133.45C59.1513 133.45 58.443 133.567 57.743 133.8C57.0596 134.017 56.4763 134.317 55.993 134.7L54.593 131.975C55.3263 131.458 56.2096 131.058 57.243 130.775C58.2763 130.492 59.3263 130.35 60.393 130.35C62.443 130.35 64.0346 130.833 65.168 131.8C66.3013 132.767 66.868 134.275 66.868 136.325V144H63.218ZM59.118 144.2C58.068 144.2 57.168 144.025 56.418 143.675C55.668 143.308 55.093 142.817 54.693 142.2C54.293 141.583 54.093 140.892 54.093 140.125C54.093 139.325 54.2846 138.625 54.668 138.025C55.068 137.425 55.693 136.958 56.543 136.625C57.393 136.275 58.5013 136.1 59.868 136.1H63.443V138.375H60.293C59.3763 138.375 58.743 138.525 58.393 138.825C58.0596 139.125 57.893 139.5 57.893 139.95C57.893 140.45 58.0846 140.85 58.468 141.15C58.868 141.433 59.4096 141.575 60.093 141.575C60.743 141.575 61.3263 141.425 61.843 141.125C62.3596 140.808 62.7346 140.35 62.968 139.75L63.568 141.55C63.2846 142.417 62.768 143.075 62.018 143.525C61.268 143.975 60.3013 144.2 59.118 144.2ZM76.6477 144.2C75.0643 144.2 73.831 143.8 72.9477 143C72.0643 142.183 71.6227 140.975 71.6227 139.375V127.575H75.5227V139.325C75.5227 139.892 75.6727 140.333 75.9727 140.65C76.2727 140.95 76.681 141.1 77.1977 141.1C77.8143 141.1 78.3393 140.933 78.7727 140.6L79.8227 143.35C79.4227 143.633 78.9393 143.85 78.3727 144C77.8227 144.133 77.2477 144.2 76.6477 144.2ZM69.5477 133.85V130.85H78.8727V133.85H69.5477ZM82.7619 144V130.55H86.6619V144H82.7619ZM84.7119 128.675C83.9952 128.675 83.4119 128.467 82.9619 128.05C82.5119 127.633 82.2869 127.117 82.2869 126.5C82.2869 125.883 82.5119 125.367 82.9619 124.95C83.4119 124.533 83.9952 124.325 84.7119 124.325C85.4286 124.325 86.0119 124.525 86.4619 124.925C86.9119 125.308 87.1369 125.808 87.1369 126.425C87.1369 127.075 86.9119 127.617 86.4619 128.05C86.0286 128.467 85.4452 128.675 84.7119 128.675ZM97.4314 144.2C95.9981 144.2 94.7231 143.9 93.6064 143.3C92.5064 142.7 91.6314 141.883 90.9814 140.85C90.3481 139.8 90.0314 138.608 90.0314 137.275C90.0314 135.925 90.3481 134.733 90.9814 133.7C91.6314 132.65 92.5064 131.833 93.6064 131.25C94.7231 130.65 95.9981 130.35 97.4314 130.35C98.8481 130.35 100.115 130.65 101.231 131.25C102.348 131.833 103.223 132.642 103.856 133.675C104.49 134.708 104.806 135.908 104.806 137.275C104.806 138.608 104.49 139.8 103.856 140.85C103.223 141.883 102.348 142.7 101.231 143.3C100.115 143.9 98.8481 144.2 97.4314 144.2ZM97.4314 141C98.0814 141 98.6648 140.85 99.1814 140.55C99.6981 140.25 100.106 139.825 100.406 139.275C100.706 138.708 100.856 138.042 100.856 137.275C100.856 136.492 100.706 135.825 100.406 135.275C100.106 134.725 99.6981 134.3 99.1814 134C98.6648 133.7 98.0814 133.55 97.4314 133.55C96.7814 133.55 96.1981 133.7 95.6814 134C95.1648 134.3 94.7481 134.725 94.4314 135.275C94.1314 135.825 93.9814 136.492 93.9814 137.275C93.9814 138.042 94.1314 138.708 94.4314 139.275C94.7481 139.825 95.1648 140.25 95.6814 140.55C96.1981 140.85 96.7814 141 97.4314 141ZM116.338 130.35C117.405 130.35 118.355 130.567 119.188 131C120.038 131.417 120.705 132.067 121.188 132.95C121.672 133.817 121.913 134.933 121.913 136.3V144H118.013V136.9C118.013 135.817 117.772 135.017 117.288 134.5C116.822 133.983 116.155 133.725 115.288 133.725C114.672 133.725 114.113 133.858 113.613 134.125C113.13 134.375 112.747 134.767 112.463 135.3C112.197 135.833 112.063 136.517 112.063 137.35V144H108.163V130.55H111.888V134.275L111.188 133.15C111.672 132.25 112.363 131.558 113.263 131.075C114.163 130.592 115.188 130.35 116.338 130.35Z" fill="#739D03"/>
<path d="M97.8278 43.971C90.6169 36.6319 80.9863 32.5938 70.6827 32.5938C60.6355 32.5938 51.1491 36.4876 43.9703 43.5543C43.9542 43.5543 43.5696 43.955 43.5536 43.955C30.0291 57.6877 30.2214 79.8653 43.9382 93.3738C44.3228 93.7423 44.7074 94.1109 45.108 94.4634C51.3574 100.088 54.8347 108.132 54.5943 116.545C54.5783 117.298 54.8668 118.035 55.3955 118.596C55.9244 119.125 56.6615 119.429 57.4146 119.429H83.9668C84.736 119.429 85.4571 119.125 85.9859 118.596C86.5147 118.035 86.8031 117.298 86.7871 116.545C86.5627 108.132 90.024 100.088 96.2895 94.4634C110.615 81.5799 111.801 59.4504 98.9175 45.1247C98.5649 44.7401 98.1964 44.3556 97.8278 43.971Z" fill="#A8A8A8" fill-opacity="0.2" stroke="#A8A8A8" stroke-opacity="0.2" stroke-width="3"/>
<path d="M83.9522 121.416H57.416C55.8616 121.416 54.5957 122.682 54.5957 124.236C54.5957 125.807 55.8616 127.073 57.416 127.073H83.9522C85.5225 127.073 86.7885 125.807 86.7885 124.236C86.7885 122.682 85.5225 121.416 83.9522 121.416Z" fill="#A8A8A8" fill-opacity="0.2"/>
<path d="M86.7885 131.864C86.7885 130.293 85.5225 129.027 83.9522 129.027H57.416C55.8616 129.027 54.5957 130.293 54.5957 131.864C54.5957 133.402 55.8616 134.684 57.416 134.684H83.9522C85.5225 134.684 86.7885 133.402 86.7885 131.864Z" fill="#A8A8A8" fill-opacity="0.2"/>
<path d="M85.2657 139.475C85.2657 137.921 83.9998 136.639 82.4455 136.639H58.9379C57.3675 136.639 56.1016 137.921 56.1016 139.475C56.1016 141.029 57.3675 142.295 58.9379 142.295H82.4455C84.0158 142.295 85.2657 141.029 85.2657 139.475Z" fill="#A8A8A8" fill-opacity="0.2"/>
<path d="M66.6777 142.344C65.1233 142.344 63.8574 143.61 63.8574 145.164C63.8574 146.718 65.1233 148 66.6777 148H74.6898C76.2442 148 77.5101 146.718 77.5101 145.164C77.5101 143.61 76.2442 142.344 74.6898 142.344H66.6777Z" fill="#A8A8A8" fill-opacity="0.2"/>
<path d="M73.5019 21.5847V2.82027C73.5019 1.24989 72.236 0 70.6816 0C69.1272 0 67.8613 1.24989 67.8613 2.82027V21.5847C67.8613 23.139 69.1272 24.405 70.6816 24.405C72.236 24.405 73.5019 23.139 73.5019 21.5847Z" fill="#A8A8A8" fill-opacity="0.2"/>
<path d="M35.975 38.78C36.6961 38.78 37.4172 38.5076 37.978 37.9468C39.0837 36.8571 39.0837 35.0624 37.978 33.9567L24.7099 20.6886C23.6042 19.583 21.8095 19.583 20.7199 20.6886C19.6142 21.7943 19.6142 23.589 20.7199 24.6787L33.988 37.9468C34.5168 38.5076 35.2539 38.78 35.975 38.78Z" fill="#A8A8A8" fill-opacity="0.2"/>
<path d="M0 70.684C0 72.2383 1.26592 73.5042 2.82027 73.5042H21.5847C23.139 73.5042 24.405 72.2383 24.405 70.684C24.405 69.1136 23.139 67.8477 21.5847 67.8477H2.82027C1.26592 67.8477 0 69.1136 0 70.684Z" fill="#A8A8A8" fill-opacity="0.2"/>
<path d="M22.7069 121.479C23.428 121.479 24.1491 121.207 24.7099 120.662L37.978 107.394C39.0837 106.288 39.0837 104.494 37.978 103.388C36.8723 102.282 35.0776 102.282 33.988 103.388L20.7199 116.656C19.6142 117.762 19.6142 119.556 20.7199 120.662C21.2647 121.207 21.9858 121.479 22.7069 121.479Z" fill="#A8A8A8" fill-opacity="0.2"/>
<path d="M103.403 103.388C102.298 104.494 102.298 106.288 103.403 107.394L116.672 120.662C117.232 121.207 117.954 121.479 118.675 121.479C119.396 121.479 120.117 121.207 120.678 120.662C121.767 119.556 121.767 117.762 120.678 116.656L107.394 103.388C106.304 102.282 104.509 102.282 103.403 103.388Z" fill="#A8A8A8" fill-opacity="0.2"/>
<path d="M138.546 67.8457H119.781C118.227 67.8457 116.961 69.1116 116.961 70.682C116.961 72.2364 118.227 73.5023 119.781 73.5023H138.546C140.1 73.5023 141.366 72.2364 141.366 70.682C141.366 69.1116 140.1 67.8457 138.546 67.8457Z" fill="#A8A8A8" fill-opacity="0.2"/>
<path d="M120.662 20.6886C119.572 19.583 117.761 19.583 116.672 20.6886L103.403 33.9567C102.298 35.0624 102.298 36.8571 103.403 37.9468C103.964 38.5076 104.685 38.78 105.407 38.78C106.128 38.78 106.849 38.5076 107.41 37.9468L120.678 24.6787C121.767 23.589 121.767 21.7943 120.662 20.6886Z" fill="#A8A8A8" fill-opacity="0.2"/>
</svg>
