<svg width="303" height="174" viewBox="0 0 303 174" fill="none" xmlns="http://www.w3.org/2000/svg">
<path d="M28.1165 173.989C0.271014 173.959 0 173.954 0 173.713C0 173.58 0.108405 173.412 0.241449 173.343C0.39913 173.26 3.4542 173.215 9.30317 173.215H18.1284L19.2124 171.638C24.5736 163.814 29.5405 156.777 36.4292 147.237C45.9048 134.115 50.246 127.867 55.4248 119.895C56.7257 117.889 58.4257 115.341 59.1993 114.238L60.6037 112.232L59.9828 110.981C59.1353 109.256 58.5982 107.94 57.7654 105.541C57.3761 104.417 56.7405 102.614 56.3611 101.53C55.9767 100.441 55.4692 98.7752 55.2277 97.8143C54.8187 96.1833 54.0944 92.3546 53.9909 91.2508C53.9663 90.9798 53.848 89.8415 53.7298 88.7181C53.439 85.9488 53.4538 75.3645 53.7544 71.8856C54.1979 66.8251 55.1144 62.1193 56.4793 57.9112C56.775 56.9947 57.2234 55.5755 57.4697 54.7576C58.0808 52.7521 58.6277 51.3723 59.6329 49.3126C61.3379 45.819 62.9689 43.3306 65.1173 40.9358C65.5903 40.4037 66.2013 39.7187 66.4674 39.4034C67.0538 38.7234 68.67 37.4866 69.5422 37.0431C69.892 36.8657 70.3503 36.57 70.5622 36.3877C71.5575 35.5205 77.1848 33.6382 80.7819 32.9779C82.2897 32.7019 85.7685 32.8793 88.0155 33.3524C89.6564 33.6973 89.681 33.7072 91.1001 34.2344C96.7865 36.3385 102.601 41.8179 106.715 48.9431C107.381 50.0961 109.041 53.3926 109.519 54.5112C114.792 66.8694 116.462 81.8245 114.112 95.6462C112.195 106.935 107.607 116.662 101.453 122.496L100.6 123.299L100.852 125.527C101.349 129.907 102.36 138.117 103.079 143.65C103.833 149.465 104.784 157.181 105.971 167.154C106.351 170.318 106.686 172.974 106.715 173.063C106.76 173.186 118.103 173.215 162.874 173.215H218.974L218.767 172.846C218.575 172.511 218.575 172.447 218.743 172.136C219.014 171.648 219.994 171.165 221.211 170.919C222.365 170.687 224.892 170.722 226.371 170.998C226.799 171.077 227.179 171.111 227.213 171.077C227.248 171.042 227.962 168.293 228.8 164.972C231.766 153.2 232.619 150.026 236.62 135.855C237.763 131.814 242.291 116.613 243.558 112.582L244.277 110.286L244.051 108.936C243.927 108.192 243.76 107.078 243.676 106.462L243.523 105.339L243.858 104.806C244.041 104.521 244.208 104.304 244.228 104.324C244.322 104.422 245.046 109.946 244.992 110.153C244.957 110.281 245.031 110.724 245.149 111.148C247.189 118.244 247.855 121.043 249.796 130.696C251.792 140.575 252.979 145.661 255.625 155.525C256.438 158.551 257.705 163.454 258.444 166.41C259.178 169.372 259.794 171.811 259.804 171.831C259.814 171.85 260.509 171.717 261.346 171.535C262.603 171.259 263.199 171.195 264.722 171.185C266.796 171.175 267.678 171.353 268.368 171.939C268.752 172.264 268.787 172.442 268.555 172.998C268.466 173.205 269.314 173.215 285.388 173.215H302.314V173.959H192.045C131.402 173.959 76.0317 173.974 69.0051 173.989C61.9784 174.004 43.5791 174.004 28.1165 173.989ZM24.3617 169.505C27.5153 164.814 30.7281 160.128 35.3501 153.481C41.8298 144.172 46.7672 136.914 53.1483 127.315C56.568 122.181 59.9434 117.199 60.6579 116.248C61.7666 114.77 61.9341 114.489 61.8208 114.277C61.6926 114.041 61.6877 114.041 61.5152 114.277C61.0126 114.982 59.9581 116.194 59.9039 116.14C59.83 116.066 60.446 115.056 61.0619 114.233C61.4167 113.76 61.4955 113.341 61.2344 113.341C61.1851 113.341 60.8648 113.661 60.5248 114.055C60.1848 114.445 59.5541 115.125 59.1254 115.568C58.6031 116.105 57.6324 117.48 56.2034 119.688C50.4086 128.675 46.9298 133.672 32.3295 153.983C28.0475 159.941 19.2174 172.619 19.0547 173.038C18.9907 173.205 19.173 173.225 20.4443 173.196L21.9127 173.161L24.3617 169.51V169.505ZM19.8727 172.171C19.8727 172.131 20.2817 171.609 20.7794 171.018C21.282 170.421 21.8684 169.667 22.0901 169.342C22.3118 169.012 23.2826 167.692 24.2434 166.405C25.2092 165.119 26.2144 163.695 26.4855 163.247C26.9782 162.419 27.1901 162.256 27.2542 162.665C27.3281 163.143 25.0466 166.396 22.6962 169.16C22.0458 169.929 21.213 170.914 20.8484 171.353C20.2521 172.062 19.8727 172.383 19.8727 172.171ZM22.5287 170.618C22.7159 170.259 23.0017 170.136 23.1347 170.352C23.2234 170.495 22.7455 170.988 22.5237 170.988C22.3611 170.988 22.3611 170.944 22.5336 170.618H22.5287ZM39.908 145.217C40.0411 144.867 44.9588 137.525 45.0918 137.476C45.3431 137.382 45.0327 137.885 42.5788 141.551C40.3121 144.936 39.6912 145.789 39.908 145.217ZM52.3303 172.984C52.5225 172.624 54.2471 166.489 56.2329 159.083C57.2283 155.392 58.5834 150.366 59.2535 147.917C61.0915 141.206 62.0967 137.432 63.2005 133.13C64.2254 129.158 65.3981 125.019 66.2802 122.245L66.7729 120.698L66.3196 120.235C66.0732 119.978 65.7677 119.737 65.6494 119.702C65.5263 119.663 65.4228 119.555 65.4228 119.456C65.4228 119.362 65.0384 118.801 64.5605 118.204C64.0874 117.613 63.3828 116.662 63.0083 116.095C62.6289 115.534 62.279 115.07 62.2347 115.07C62.077 115.07 58.81 119.776 55.9373 124.137C50.177 132.893 41.9579 145.02 36.6017 152.677C30.9695 160.729 22.7159 172.865 22.7159 173.092C22.7159 173.176 27.8208 173.215 37.4591 173.215C51.7538 173.215 52.2121 173.205 52.3303 172.984ZM55.2277 173.117C55.3263 172.959 57.455 165.587 58.3271 162.39C59.4112 158.398 67.3987 126.463 67.3987 126.103C67.3987 126.064 67.1179 126.35 66.768 126.739C65.8465 127.779 65.886 127.498 66.8222 126.359C67.4874 125.541 67.6648 125.226 67.8767 124.462L68.128 123.541L67.512 124.226C67.1721 124.6 66.7187 125.152 66.5068 125.453C66.295 125.758 66.0978 125.936 66.0732 125.857C66.0141 125.684 67.1474 123.975 67.9605 123.009C68.4828 122.398 68.5764 122.058 68.2068 122.146C68.0442 122.181 66.6152 123.837 66.4231 124.211C66.2161 124.6 65.0532 128.818 63.8213 133.628C63.1315 136.313 61.875 141.073 61.0274 144.202C60.1799 147.336 58.8199 152.372 58.0069 155.402C57.1938 158.428 56.2231 162.04 55.8486 163.424C55.4741 164.809 55.1883 165.967 55.2179 165.996C55.277 166.056 55.6564 165.169 56.1837 163.75C56.3906 163.207 57.2776 160.453 58.1596 157.63C59.0416 154.806 59.8153 152.441 59.8793 152.377C60.1454 152.101 60.1109 152.5 59.7463 153.811C58.475 158.433 55.7303 166.08 55.1834 166.548C55.0208 166.686 54.6611 167.746 54.0747 169.791C53.5967 171.466 53.2025 172.92 53.2025 173.023C53.2025 173.181 53.3848 173.215 54.1831 173.215C54.7251 173.215 55.1932 173.171 55.2277 173.117ZM103.606 173.117C103.66 173.018 102.902 164.272 102.399 159.167C101.793 153.081 100.147 139.486 99.3636 134.115C99.0926 132.243 98.7033 129.543 98.5013 128.114C98.2992 126.685 98.1218 125.453 98.1071 125.379C98.0874 125.3 97.7474 125.453 97.3334 125.724C95.732 126.778 92.8543 127.99 90.9129 128.424C89.2769 128.794 85.8129 128.917 84.1868 128.67C81.8512 128.311 76.3372 126.754 73.8784 125.758C72.8978 125.364 71.321 124.408 69.7294 123.25C69.35 122.974 69.0051 122.772 68.9755 122.807C68.9361 122.841 68.3152 125.305 67.586 128.276C64.728 139.954 60.3228 157.694 59.6724 160.157C59.0318 162.592 57.7013 167.322 56.5483 171.279C56.2674 172.225 56.0457 173.048 56.0457 173.107C56.0457 173.235 103.532 173.25 103.606 173.117ZM105.789 172.994C105.789 172.476 103.246 151.47 102.089 142.403C101.325 136.451 100.186 126.832 100.049 125.206C99.9303 123.797 99.9303 123.797 99.0876 124.507L98.7476 124.792L99.5508 130.168C100.566 136.929 100.837 138.925 101.596 145.064C102.951 156.033 103.36 159.867 104.064 168.199C104.271 170.648 104.469 172.782 104.503 172.934C104.552 173.176 104.641 173.21 105.178 173.21C105.681 173.21 105.789 173.171 105.789 172.994ZM259.848 173.087C259.848 173.018 259.75 172.964 259.631 172.964C259.286 172.964 259.119 172.57 258.602 170.456C257.951 167.82 256.138 160.857 254.832 156.013C251.925 145.222 250.954 141.029 248.618 129.227C247.998 126.098 247.244 122.452 246.948 121.126C246.49 119.072 244.745 111.912 244.617 111.537C244.568 111.39 244.415 111.907 242.952 117.106C242.341 119.284 241.01 123.846 239.995 127.251C238.98 130.651 237.669 135.135 237.093 137.21C236.511 139.284 235.427 143.152 234.678 145.808C233.19 151.105 232.2 154.875 229.603 165.09C228.652 168.82 227.839 171.934 227.79 172.013C227.563 172.383 227.154 172.762 226.765 172.969C226.341 173.196 226.681 173.201 243.09 173.205C254.182 173.205 259.848 173.171 259.848 173.087ZM267.254 172.92C267.629 172.841 267.924 172.723 267.919 172.654C267.87 172.161 265.825 171.673 264.229 171.772C262.913 171.855 260.282 172.338 260.425 172.466C260.533 172.57 262.016 172.929 262.627 173.003C263.47 173.107 266.624 173.053 267.254 172.92ZM226.252 172.432C227.287 172.126 227.277 172.038 226.183 171.772C225.794 171.678 224.69 171.565 223.734 171.52C222.325 171.456 221.818 171.486 221.024 171.663C219.378 172.028 219.122 172.264 220.049 172.555C220.763 172.782 225.375 172.688 226.252 172.432ZM89.1882 127.917C90.5187 127.784 90.8587 127.71 92.4601 127.227C96.2198 126.088 99.9795 123.501 103.128 119.89C105.203 117.51 106.839 115.061 108.371 112.03C109.366 110.069 109.578 109.606 110.431 107.487C111.515 104.792 112.87 100.125 113.382 97.3117C113.491 96.6957 113.634 95.9467 113.698 95.6412C113.836 94.9612 114.235 92.1181 114.457 90.2604C114.718 88.0578 114.673 77.5227 114.393 75.2906C114.033 72.3932 113.767 70.6488 113.318 68.2393C113.087 67.0025 112.476 64.5042 111.948 62.6712C108.864 51.9045 103.493 43.1926 96.8456 38.1814C94.9781 36.7721 92.4306 35.4072 90.3019 34.668C89.8929 34.5301 88.8384 34.259 87.9564 34.0718C85.6207 33.5741 82.4129 33.5741 80.3335 34.0718C79.9393 34.1654 79.6239 34.2147 79.6239 34.1802C79.6239 34.1506 79.5401 34.195 79.4367 34.2738C79.3332 34.3576 79.2494 34.397 79.2494 34.3576C79.2494 34.2541 77.0025 35.0869 76.1648 35.5008C74.5486 36.304 72.7155 37.4767 71.3851 38.5558C70.2665 39.4625 67.9999 41.808 67.0292 43.0596C66.7926 43.3651 66.5068 43.7248 66.3935 43.8628C65.7184 44.6758 64.0234 47.3466 63.1709 48.9332C60.1158 54.6393 57.795 62.3065 56.977 69.412C56.9524 69.5796 56.8784 70.2201 56.8045 70.8361C56.3611 74.4824 56.3216 81.5929 56.7158 85.6778C57.5929 94.6557 59.8054 102.732 63.2842 109.621C64.3141 111.666 64.999 112.893 65.5065 113.607C65.7332 113.932 65.9205 114.228 65.9205 114.272C65.9205 114.479 68.5321 117.983 69.4978 119.077C69.9906 119.633 71.666 121.314 72.4741 122.063C73.0358 122.58 75.5242 124.452 76.288 124.93C77.2883 125.556 80.3285 126.98 80.979 127.128C81.0825 127.153 81.5555 127.291 82.0285 127.434C82.9598 127.715 83.0732 127.734 84.374 127.921C85.9903 128.153 86.8871 128.153 89.1882 127.921V127.917ZM84.4972 121.516C77.8254 120.279 71.597 114.814 67.2065 106.344C63.6981 99.5685 61.5744 91.4528 61.0915 82.9233C60.9239 80.0555 61.0225 74.9555 61.2886 72.4424C62.5451 60.5917 67.0341 50.2883 73.3265 44.8384C77.9042 40.8767 82.7972 39.3985 88.0056 40.4185C90.6517 40.9358 92.7459 41.8277 95.1111 43.439C102.562 48.5193 108.386 59.2712 110.465 71.7625C111.229 76.3352 111.283 77.1285 111.278 83.145C111.278 89.0778 111.214 89.7479 110.342 94.4636C108.08 106.708 102.089 116.391 94.4952 120.077C92.1891 121.195 90.4546 121.604 87.6607 121.683C86.1233 121.732 85.4778 121.698 84.4972 121.516ZM90.3955 113.149C92.1053 112.794 94.032 111.917 95.6581 110.754C96.6682 110.035 98.6984 108.088 99.4818 107.093C102.808 102.88 105.109 97.2525 106.218 90.63C106.316 90.0189 106.435 89.2404 106.474 88.8955C106.513 88.5555 106.592 87.8902 106.651 87.4123C106.784 86.3184 106.789 78.6511 106.661 77.5769C106.607 77.1335 106.528 76.4387 106.484 76.0297C106.366 74.9308 106.075 73.2506 105.715 71.5752C103.517 61.3309 98.3387 53.1955 92.0019 50.0468C90.4152 49.2584 89.7648 49.0564 87.8085 48.741C86.2909 48.4947 85.9706 48.4799 84.8126 48.6031C83.2309 48.7657 83.0141 48.81 81.8758 49.1944C79.7175 49.9187 77.8451 51.1407 75.8494 53.1364C74.4451 54.5407 73.77 55.3489 72.9077 56.6694C69.8674 61.3112 67.99 66.8645 67.1376 73.7433C66.9158 75.5172 66.9158 83.4801 67.1376 85.2491C67.9013 91.3937 69.4535 96.6908 71.7842 101.145C73.3955 104.22 74.6126 105.945 76.6526 108.054C79.3578 110.848 81.8758 112.355 85.123 113.134C86.143 113.38 89.2474 113.385 90.4053 113.149H90.3955ZM85.6749 105.472C84.5071 105.201 82.3143 104.072 81.1465 103.131C76.2288 99.1792 72.8338 91.5218 72.2031 82.9381C72.0306 80.5926 72.1242 76.7393 72.4002 74.7337C73.2526 68.6039 75.4257 63.4645 78.5596 60.168C80.3926 58.2364 82.2355 57.0883 84.3642 56.5462C85.5862 56.2358 86.5668 56.2309 88.4245 56.5364C89.612 56.7286 90.09 56.8764 91.0262 57.3297C96.7224 60.1088 101.039 67.712 102.266 77.1384C102.532 79.1636 102.532 85.0421 102.266 87.0476C101.049 96.3557 96.8555 103.175 91.0853 105.245C90.2772 105.536 89.9569 105.58 88.321 105.61C87.0152 105.639 86.2317 105.595 85.6749 105.467V105.472ZM90.903 95.7102C93.692 94.3157 95.87 90.7679 96.7865 86.1508C97.161 84.2685 97.2497 80.6714 96.9787 78.6068C96.1903 72.6445 93.4506 67.8993 89.8535 66.2683C88.9369 65.8494 87.03 65.6326 86.0691 65.8297C82.6938 66.5245 79.9048 70.2201 78.7468 75.5369C78.5251 76.5569 78.4709 77.3059 78.4216 79.8091C78.3674 82.4946 78.392 83.0169 78.6236 84.3769C79.5204 89.6691 81.9891 93.9265 85.1132 95.5575C86.3401 96.1981 86.6161 96.2572 88.3259 96.2276C89.9224 96.1981 89.9323 96.1931 90.903 95.7102ZM87.5769 88.7131C87.2369 88.6639 86.7688 88.521 86.5323 88.4027C85.4039 87.8163 84.1227 85.9192 83.5659 84.0074C83.3491 83.2731 83.2801 82.6572 83.2407 81.041C83.1865 79.1537 83.2062 78.9074 83.4969 77.7839C84.0094 75.7882 85.0343 74.2656 86.3056 73.6053C87.0891 73.1964 88.4294 73.2456 89.2769 73.7088C90.5778 74.4184 91.8097 76.2908 92.3468 78.3801C92.6671 79.6268 92.7853 81.9082 92.5932 83.145C92.1743 85.8749 90.7946 88.0824 89.1587 88.6392C88.5477 88.8511 88.5181 88.8511 87.5769 88.7131ZM75.8544 125.502C75.3813 125.137 75.1793 125.064 75.1793 125.256C75.1793 125.354 75.332 125.492 75.5144 125.561C76.012 125.743 76.1352 125.724 75.8544 125.502ZM74.992 125.083C75.0364 125.009 74.8886 124.96 74.6225 124.96C74.3564 124.96 74.2086 125.009 74.2529 125.083C74.2923 125.152 74.4599 125.206 74.6225 125.206C74.7851 125.206 74.9526 125.152 74.992 125.083ZM74.4352 124.531C74.4352 124.502 74.2283 124.334 73.977 124.162C73.5975 123.906 73.3709 123.846 72.7106 123.851H71.9074L72.277 124.088C72.4839 124.221 73.0112 124.379 73.4497 124.443C73.8932 124.507 74.2923 124.566 74.3465 124.576C74.3958 124.586 74.4352 124.561 74.4352 124.531ZM72.6761 123.137C72.3804 122.841 72.208 122.792 71.321 122.723C70.7593 122.679 70.2862 122.654 70.2715 122.669C70.2567 122.679 70.4242 122.826 70.641 122.989C70.917 123.196 71.2767 123.314 71.7842 123.364C73.1294 123.501 73.0506 123.521 72.6761 123.137ZM67.5761 121.486C67.2706 121.146 67.2115 121.181 67.0538 121.836C66.975 122.161 66.8764 122.565 66.8271 122.733C66.768 122.959 66.8912 122.861 67.2657 122.383C67.7732 121.752 67.7831 121.718 67.5761 121.486ZM70.4735 121.033C69.759 120.304 68.9115 119.402 68.601 119.032L68.0294 118.362L66.8518 118.308C66.1865 118.278 65.6741 118.308 65.6741 118.367C65.6741 118.633 66.3836 119.126 66.8764 119.205C67.5022 119.308 67.6549 119.481 67.2164 119.589C66.8961 119.668 66.8961 119.673 67.1474 119.85C67.2854 119.949 67.3987 120.101 67.3987 120.19C67.3987 120.402 67.7929 120.506 68.606 120.506C68.9607 120.506 69.2515 120.565 69.2515 120.629C69.2515 120.698 69.0002 120.757 68.6947 120.757C68.3941 120.757 68.1428 120.801 68.1428 120.86C68.1428 121.018 68.5468 121.338 68.7587 121.353C69.3747 121.383 70.8578 121.673 70.8578 121.762C70.8578 121.821 70.4833 121.87 70.03 121.87C68.9016 121.87 69.1726 122.151 70.3996 122.25C70.8874 122.289 71.3999 122.334 71.5329 122.344C71.7004 122.358 71.3605 121.939 70.4735 121.033ZM67.2706 117.332C66.5955 116.45 64.5605 113.395 64.5605 113.262C64.5605 113.223 64.457 113.035 64.3289 112.858C63.9494 112.316 62.5254 109.537 61.8405 108.014C59.835 103.53 58.1153 98.0114 57.2628 93.3352L56.9819 91.8027H54.8089L54.8237 92.1427C54.8385 92.7439 54.9567 92.8523 55.617 92.8917C56.435 92.9311 56.7897 93.0198 56.7897 93.1726C56.7897 93.2465 56.6173 93.276 56.3857 93.2415C55.0257 93.0346 54.9567 93.0346 55.0011 93.2563C55.0257 93.3795 55.1095 93.8427 55.1883 94.296C55.3115 95.0154 55.3608 95.1091 55.5677 95.0549C55.8683 94.976 56.9129 95.2618 56.9129 95.4195C56.9129 95.4885 56.5927 95.5181 56.1689 95.4983C55.6022 95.4639 55.4298 95.4983 55.4298 95.6215C55.4298 95.7201 55.6515 96.6662 55.9176 97.7256C56.4645 99.8888 57.1445 101.968 58.2089 104.752L58.9283 106.63L60.2637 107.226C61.4167 107.743 61.8552 108.019 61.5103 108.009C61.3724 108.009 59.5984 107.551 59.3471 107.453C59.0367 107.329 59.0811 107.571 59.5393 108.507L59.9384 109.31L60.8303 109.616C61.3674 109.798 61.7271 109.99 61.7271 110.094C61.7271 110.212 61.6581 110.237 61.5103 110.168C61.3921 110.118 61.0521 110.049 60.7613 110.02L60.2292 109.966L60.5593 110.626C60.9781 111.473 61.2935 111.813 61.7419 111.912C62.1755 112.01 62.21 112.217 61.7863 112.217C61.6187 112.217 61.4808 112.247 61.4808 112.282C61.4808 112.434 62.5155 114.075 62.6092 114.075C62.6683 114.075 62.7126 114.149 62.7126 114.243C62.7126 114.42 64.3929 116.894 64.8463 117.381C65.0286 117.584 65.2454 117.662 65.6051 117.662C65.881 117.662 66.4428 117.776 66.8468 117.904C67.2558 118.037 67.6599 118.145 67.7486 118.15C67.8323 118.15 67.6205 117.786 67.2755 117.332H67.2706ZM60.6037 113.321C60.8254 113.045 60.9831 112.794 60.9535 112.769C60.9239 112.74 60.7219 112.966 60.5002 113.272C60.0025 113.962 60.0666 113.996 60.6037 113.321ZM56.8489 91.1572C56.7651 90.7778 56.4793 88.5702 56.2034 86.2395C56.0211 84.6529 55.9816 83.3372 55.9866 78.6314C55.9866 73.4674 56.0112 72.7135 56.2724 70.5256C56.568 68.0372 57.0263 65.1201 57.3466 63.7355C57.4451 63.297 57.5092 62.9225 57.4895 62.9028C57.4648 62.8781 57.2332 62.9225 56.9721 62.9915C56.7109 63.0654 56.3167 63.1048 56.095 63.0801C55.7155 63.0309 55.6811 63.0604 55.5677 63.5236C55.4248 64.0755 55.4692 64.2135 55.7747 64.2184C56.0358 64.2184 56.435 64.519 56.3315 64.6323C56.2871 64.6767 56.0654 64.7112 55.8437 64.7112C55.5825 64.7112 55.3953 64.79 55.3213 64.928C55.0553 65.4257 54.3802 70.2694 54.2471 72.6395C54.0895 75.4778 54.05 82.6523 54.1782 85.2491C54.3161 87.9888 54.6069 91.0242 54.7498 91.167C54.8286 91.2459 55.8289 91.3888 56.5089 91.4184C56.8686 91.4331 56.908 91.4036 56.8489 91.1572ZM57.0903 62.4839H57.588L57.997 60.843C58.5144 58.7784 59.9335 54.526 60.7613 52.5599C61.9095 49.83 63.5109 46.8587 64.9596 44.7547C65.2306 44.3605 65.4326 44.0155 65.408 43.9958C65.3834 43.9712 64.9744 44.055 64.5013 44.1732C64.0234 44.2915 63.4863 44.4295 63.299 44.4689C63.0034 44.5379 62.3381 45.2918 62.3381 45.5628C62.3381 45.6121 62.6732 45.6219 63.0822 45.5776C63.6045 45.5234 63.8213 45.5431 63.8213 45.6416C63.8213 45.8289 63.4074 45.9816 62.6387 46.095C62.3037 46.1442 61.9637 46.2379 61.8799 46.3068C61.3231 46.7503 58.5883 52.4071 58.4553 53.3926C58.4355 53.5257 58.1941 54.3338 57.9182 55.1862C56.8144 58.5912 55.7993 62.1242 55.7993 62.5677C55.7993 62.6761 55.9077 62.681 56.1984 62.5972C56.4153 62.5381 56.8193 62.4839 57.0903 62.4839ZM64.3141 43.7396C64.6886 43.6411 65.1665 43.5573 65.3735 43.5573C65.6692 43.5573 65.8416 43.444 66.1471 43.0695C66.359 42.7984 66.5364 42.5521 66.5364 42.5176C66.5364 42.4831 66.3048 42.5324 66.0289 42.6309C65.748 42.7295 65.2207 42.8132 64.861 42.8132C64.2648 42.8132 64.1761 42.8477 63.9051 43.2173C63.3089 44.0254 63.3039 44.0155 64.3141 43.7396ZM66.6152 42.1874C66.8764 42.0889 67.9161 41.059 67.8373 40.9802C67.8176 40.9605 67.4431 41.0344 67.0144 41.1477C66.5807 41.2611 66.0535 41.3202 65.8416 41.2857C65.5065 41.2315 65.4031 41.2857 65.0926 41.6799C64.4373 42.5028 64.4274 42.4782 65.4425 42.3796C65.9402 42.3303 66.4723 42.2416 66.6152 42.1874ZM67.3741 40.5613C68.4138 40.3051 68.4828 40.2608 69.4387 39.3689C69.9807 38.8564 70.5376 38.339 70.6706 38.2109C70.912 37.9843 70.9071 37.9843 70.301 38.1715C69.0396 38.5558 68.7193 38.6248 68.4335 38.5509C68.2019 38.4918 67.9654 38.6347 67.2607 39.2556C66.7778 39.6793 66.2407 40.2115 66.0732 40.4332C65.7677 40.8324 65.7677 40.8324 66.0338 40.8324C66.1767 40.8324 66.7828 40.7141 67.3741 40.5613ZM70.5474 37.5605C70.8874 37.457 71.2767 37.3732 71.4146 37.3683C71.5477 37.3683 72.1045 37.0677 72.6465 36.7031C73.1886 36.3335 74.0804 35.7767 74.6225 35.4663C75.1645 35.1558 75.5686 34.8996 75.5144 34.8996C75.3419 34.8996 72.341 36.0132 71.3112 36.4616C70.4686 36.8361 68.7587 37.9005 68.7587 38.0532C68.7587 38.0976 69.0987 37.999 70.5474 37.5605ZM222.493 137.013C222.158 136.072 222.172 136.091 219.428 132.322C211.805 121.856 203.334 103.964 199.254 89.7036C197.712 84.3227 196.451 78.8039 196.559 77.9317C196.618 77.4833 196.618 77.4833 196.076 77.4094C194.977 77.2566 194.056 76.5619 193.465 75.4285C193.159 74.852 193.13 74.6697 193.13 73.4329C193.13 72.0088 193.307 71.0381 193.706 70.2349C193.839 69.9738 193.928 69.7471 193.908 69.7274C193.864 69.6929 185.881 70.363 185.61 70.4222C185.462 70.4567 185.492 70.639 185.787 71.3929C185.98 71.9004 186.359 72.9056 186.625 73.6201C186.896 74.3346 187.157 75.0245 187.207 75.1526C187.295 75.3694 187.261 75.3842 186.758 75.3103C185.906 75.1871 176.189 71.728 175.001 71.1219C174.533 70.8853 174.528 70.8755 174.755 70.6291C174.991 70.368 185.038 65.268 186.167 64.8393C186.596 64.6767 186.867 64.6323 186.941 64.7112C187.103 64.8738 186.807 65.7656 185.98 67.6184C185.507 68.6778 185.364 69.1114 185.477 69.141C185.802 69.2198 194.864 68.4117 195.204 68.2738C195.48 68.1654 195.539 68.0816 195.475 67.8796C195.11 66.697 194.928 57.8964 195.165 53.0181C195.618 43.6706 197.076 33.3327 199.259 24.0098C200.368 19.2695 202.043 13.455 202.999 11.0159C203.226 10.4394 203.699 9.21242 204.044 8.2959C204.389 7.37938 204.813 6.27562 204.98 5.85185C205.148 5.42316 205.286 4.84663 205.286 4.57562C205.286 4.12229 205.315 4.07794 205.562 4.11243C206.059 4.18142 206.301 4.87127 206.217 5.96026L206.148 6.90634L208.523 8.80837C212.041 11.6171 221.443 19.3434 222.818 20.5457C223.256 20.935 224.207 21.7431 224.927 22.3492C225.646 22.9553 226.982 24.0936 227.888 24.882C230.643 27.262 234.624 30.6817 236.014 31.8544C239.675 34.9538 240.444 35.5895 242.38 37.1367C245.026 39.2408 246.795 40.6205 249.604 42.7689C250.313 43.3109 251.816 44.3999 252.935 45.1784C255.556 47.0066 259.562 50.1109 261.76 52.0277C262.711 52.8506 264.52 54.3831 265.771 55.4228C267.028 56.4674 268.264 57.517 268.516 57.7584L268.969 58.192L270.368 57.9802C271.132 57.8619 272.064 57.7141 272.428 57.65C273.32 57.4973 273.295 57.4923 273.414 57.8126C273.493 58.0294 273.379 58.2955 272.847 59.1233C272.482 59.69 272.226 60.1384 272.28 60.1138C272.335 60.0891 272.739 59.8773 273.177 59.6358C273.941 59.2268 274.039 59.2071 275.217 59.2071C276.346 59.2071 276.523 59.2367 277.277 59.5964C278.174 60.0251 279.135 60.8332 279.44 61.4196L279.632 61.7941L279.923 61.4245C280.307 60.9465 280.293 60.8775 279.805 60.8775C279.479 60.8775 279.361 60.8086 279.248 60.5622C279.169 60.3848 279.105 60.2222 279.105 60.1877C279.105 60.1581 279.519 60.1335 280.022 60.1335C280.839 60.1335 280.948 60.1631 281.022 60.3848C281.12 60.6952 280.716 61.5181 280.169 62.1144C279.943 62.3558 279.755 62.7057 279.741 62.9175C279.568 64.7604 277.208 66.1943 274.325 66.1943C273.419 66.1943 273.177 66.2338 273.177 66.3717C273.177 66.4654 273.226 66.5639 273.286 66.5885C273.345 66.6083 273.428 66.8349 273.478 67.0912L273.562 67.5543H272.537C271.975 67.5543 271.453 67.5987 271.384 67.648C271.31 67.6972 270.649 68.6039 269.91 69.6584C269.176 70.7129 268.255 71.994 267.87 72.5016C267.486 73.014 266.353 74.6007 265.342 76.0297C263.263 78.9862 260.154 82.9923 258.242 85.1801C256.335 87.3729 255.448 88.4569 252.925 91.6894C248.643 97.1737 247.061 99.332 241.459 107.265C234.432 117.229 229.091 124.571 223.833 131.489L222.212 133.628L222.665 134.519C223.227 135.623 223.296 136.535 222.852 136.978C222.586 137.244 222.576 137.244 222.493 137.013ZM222 134.717C221.887 134.485 221.763 134.372 221.739 134.455C221.689 134.593 222.089 135.249 222.177 135.165C222.197 135.145 222.118 134.943 222 134.717ZM221.285 133.534C221.152 133.288 221.093 133.253 221.093 133.406C221.078 133.667 221.374 134.17 221.433 134.002C221.453 133.938 221.389 133.726 221.285 133.534ZM220.65 132.425C220.492 132.184 220.418 132.144 220.339 132.268C220.28 132.371 220.339 132.573 220.507 132.81C220.729 133.12 220.783 133.145 220.817 132.962C220.842 132.844 220.768 132.598 220.65 132.425ZM224.079 129.833C225.252 128.261 226.962 125.95 227.888 124.699C228.81 123.447 230.204 121.565 230.978 120.506C232.584 118.342 236.502 112.838 241.809 105.289C243.612 102.727 246.46 98.7505 247.258 97.6911C250.033 93.9856 253.906 89.0581 256.212 86.2987C257.237 85.0766 258.715 83.2633 259.498 82.2778C261.588 79.6613 270.344 67.8155 270.344 67.6085C270.344 67.5691 269.299 67.5494 268.023 67.5593C265.209 67.579 265.402 67.5938 265.402 67.3868C265.402 67.2981 264.815 66.49 264.096 65.5932L262.79 63.9622L262.213 64.0312C261.617 64.1051 236.546 66.1894 215.407 67.9239C201.23 69.0917 200.979 69.1114 200.895 69.1903C200.866 69.2248 201.028 69.5697 201.265 69.9639C201.501 70.3581 201.758 70.979 201.832 71.3436C201.965 71.9842 201.989 72.0088 202.364 72.0088C203.463 71.994 211.312 71.2795 213.741 70.9642C214.49 70.8706 215.629 70.7277 216.274 70.6439C217.595 70.4764 220.211 69.8506 225.533 68.4216C227.928 67.781 229.593 67.4016 230.406 67.3129C231.086 67.239 231.894 67.1503 232.195 67.1109C232.5 67.0714 232.717 67.0714 232.678 67.1109C232.609 67.1848 228.854 68.2688 224.68 69.4219C221.625 70.2694 217.481 71.2795 216.58 71.3978C212.436 71.9595 205.69 72.5903 203.192 72.6543L202.019 72.6888L201.92 73.3639C201.728 74.7042 200.792 76.1184 199.649 76.7885C199.2 77.0546 199.107 77.163 199.166 77.3749C199.205 77.5178 199.407 78.4688 199.619 79.4888C200.378 83.2534 201.994 89.1369 202.778 90.9995C202.95 91.4036 203.132 92.0195 203.192 92.3595C203.458 94.0004 206.69 102.407 209.543 108.877C212.958 116.618 221.349 132.893 221.837 132.726C221.896 132.706 222.907 131.4 224.079 129.828V129.833ZM243.134 101.875C243.095 101.677 242.967 100.485 242.843 99.2285C242.538 96.0157 242.543 82.5242 242.843 76.4042C243.075 71.8117 243.4 66.8448 243.484 66.5984C243.513 66.5097 243.711 66.4407 243.918 66.4407C244.277 66.4407 244.297 66.4654 244.233 66.8448C244.144 67.3671 243.834 72.9648 243.671 76.8329C243.42 82.9923 243.287 89.5952 243.361 92.3595C243.435 95.0795 243.715 99.6523 243.863 100.608C243.918 100.968 243.863 101.175 243.568 101.643L243.203 102.234L243.129 101.875H243.134ZM218.95 129.454C216.86 125.699 212.894 118.007 211.209 114.445C206.656 104.802 203.182 95.7694 200.959 87.8114C199.777 83.5589 199.673 83.15 199.363 81.5337C199.215 80.7552 199.047 80.0555 198.993 79.9914C198.939 79.9224 198.826 79.2966 198.737 78.5969L198.579 77.3256L197.954 77.4045C197.609 77.4488 197.278 77.5277 197.219 77.5819C197.101 77.6853 197.288 78.7201 197.643 79.9421C197.776 80.3905 197.88 80.9079 197.88 81.0903C197.88 81.9969 199.969 89.5557 201.452 94.0299C205.261 105.491 210.667 117.066 217.161 127.66C219.157 130.912 219.876 131.937 220.004 131.711C220.073 131.588 219.733 130.863 218.95 129.454ZM199.22 76.1529C200.555 75.4236 201.156 74.2558 201.068 72.5853C200.969 70.8361 199.841 69.2297 198.377 68.7567C197.471 68.461 196.106 68.4758 195.608 68.7862C194.504 69.4711 193.854 71.2007 193.947 73.2013C194.031 74.9111 194.677 75.8966 196.032 76.3894C196.919 76.7146 198.392 76.6013 199.22 76.1529ZM185.536 73.8911C185.536 73.8369 184.994 73.6398 184.334 73.4477C182.309 72.8564 180.313 72.1616 179.539 71.7822C178.48 71.2648 177.514 70.9691 177.366 71.1169C177.283 71.2007 177.46 71.314 177.903 71.4569C178.263 71.5752 179.259 71.9645 180.111 72.3242C180.963 72.679 182.299 73.1471 183.072 73.359C183.851 73.5758 184.654 73.7975 184.856 73.8567C185.349 73.9995 185.536 74.0094 185.536 73.8911ZM185.137 71.6935C185.048 71.4175 184.901 71.2056 184.797 71.2056C184.551 71.2056 184.62 71.5752 184.96 72.132C185.28 72.6543 185.374 72.4178 185.137 71.6935ZM177.761 70.5897C179.18 70.5207 182.047 70.1906 183.235 69.9688C183.767 69.8653 184.225 69.7816 184.255 69.7816C184.28 69.7816 184.299 69.7372 184.299 69.6781C184.299 69.343 176.46 70.2842 176.1 70.6587C176.006 70.7622 176.07 70.7769 176.336 70.7227C176.543 70.6784 177.184 70.6193 177.761 70.5897ZM181.486 67.983C182.181 67.6775 183.393 67.0369 184.186 66.5639C184.974 66.0909 185.65 65.7016 185.689 65.7016C185.753 65.7016 185.541 66.4851 185.349 66.968C185.3 67.0862 185.31 67.1848 185.374 67.1848C185.502 67.1848 186.152 65.9036 186.152 65.6474C186.152 65.5538 186.068 65.4454 185.96 65.4059C185.758 65.3271 183.629 66.352 182.151 67.2341C181.668 67.5248 180.431 68.1703 179.392 68.6729C178.357 69.1804 177.509 69.6633 177.509 69.752C177.509 69.8456 178.036 69.6436 178.869 69.2248C179.618 68.8503 180.796 68.2935 181.486 67.983ZM202.019 67.8007C207 67.3622 233.53 65.1251 247.505 63.972C254.94 63.3561 261.405 62.8141 261.883 62.7648L262.746 62.6712L263.302 61.9123C263.608 61.4935 264.175 60.7149 264.564 60.1778C264.953 59.6457 265.436 59.0248 265.633 58.8129C265.973 58.4384 266.032 58.4187 266.653 58.4828C267.018 58.5173 267.446 58.4975 267.609 58.4335C267.895 58.3251 267.885 58.3054 267.18 57.6894C266.776 57.3445 265.594 56.3541 264.539 55.4918C263.485 54.6294 261.888 53.3138 260.982 52.5648C256.867 49.155 255.064 47.7506 251.146 44.9124C250.264 44.2718 248.234 42.7492 246.638 41.5222C243.952 39.4527 242.942 38.6642 241.04 37.1466C239.759 36.1216 235.758 32.7808 234.294 31.5193C233.516 30.8443 232.737 30.1692 232.569 30.0263C232.397 29.8785 231.096 28.755 229.677 27.533C228.258 26.3109 226.701 24.9756 226.213 24.5666C225.73 24.1576 224.976 23.5072 224.538 23.1278C223.079 21.8515 220.167 19.3878 218.186 17.7617C217.107 16.8747 214.944 15.0959 213.372 13.7999C208.139 9.48836 206.128 7.86228 205.98 7.82779C205.892 7.80808 205.729 8.19242 205.572 8.81822C205.429 9.37996 205.113 10.5675 204.872 11.4495C204.221 13.8394 201.96 24.1872 201.102 28.7106C199.688 36.1512 198.284 47.2628 198.19 51.7813C198.17 52.7373 198.092 54.5161 198.018 55.7431C197.85 58.601 197.845 61.5132 198.008 64.5683C198.175 67.6726 198.21 67.8401 198.683 67.9436C198.885 67.988 199.072 68.0274 199.112 68.0372C199.146 68.0471 200.452 67.9387 202.014 67.8007H202.019ZM240.961 63.9178C240.961 63.8932 241.597 63.6665 242.375 63.4152L243.789 62.957L243.858 62.4445C243.898 62.1587 244.041 60.9268 244.184 59.6999C244.322 58.4778 244.489 57.2016 244.548 56.8665C244.765 55.7381 244.74 55.679 244.095 55.679C242.158 55.679 239.172 54.8906 236.827 53.7573C232.55 51.6976 229.298 48.5144 227.987 45.1144C227.159 42.9611 227.075 42.419 227.085 39.226C227.095 35.9689 227.243 34.9341 228.076 32.4211C228.504 31.1301 229.672 28.5825 229.83 28.5875C229.874 28.5875 230.012 28.6663 230.13 28.755C230.332 28.9127 230.308 29.0014 229.8 30.0854C228.691 32.4703 228.199 34.4167 227.987 37.2254C227.671 41.399 228.465 44.6857 230.406 47.2332C231.244 48.3271 232.663 48.6868 236.147 48.6819C238.704 48.6819 240.261 48.4454 242.36 47.7457C244.346 47.0805 247.12 45.5529 248.2 44.5182C248.53 44.2077 248.628 44.1732 248.85 44.2915C248.993 44.3654 249.111 44.4787 249.111 44.5379C249.111 44.7153 247.214 46.095 245.943 46.8439C242.695 48.7657 239.103 49.6231 235.053 49.4506C234.062 49.4112 232.998 49.3422 232.688 49.2979L232.136 49.2239L232.505 49.5492C233.969 50.8451 236.073 52.2002 237.95 53.0526C240.557 54.2352 242.094 54.5703 245.302 54.6541C247.475 54.7132 247.874 54.6886 249.126 54.4422C251.811 53.91 254.556 52.6929 256.384 51.2294C256.813 50.8894 257.202 50.6086 257.246 50.6086C257.296 50.6086 257.439 50.6923 257.572 50.7958C257.803 50.9732 257.789 50.9979 257.256 51.4857C254.704 53.8164 249.9 55.679 246.44 55.679C245.879 55.679 245.386 55.7332 245.342 55.8022C245.253 55.95 244.543 62.7697 244.612 62.8436C244.657 62.888 246.135 62.7648 249.604 62.4149C252.418 62.1341 256.704 61.7694 259.602 61.5575C261.06 61.4541 262.435 61.3457 262.657 61.3161C263.13 61.252 263.15 61.3161 262.78 61.7694C262.47 62.1488 263.445 62.0404 253.984 62.7352C252.082 62.8732 250.111 63.0407 249.604 63.1048C248.278 63.2723 244.716 63.6271 243.987 63.6616C243.277 63.6961 241.799 63.8291 241.301 63.908C241.114 63.9375 240.961 63.9425 240.961 63.9228V63.9178ZM230.475 40.1327C230.116 39.6744 230.056 39.3393 230.13 38.2996C230.239 36.8657 230.771 36.0625 231.549 36.1561C232.037 36.2153 232.348 36.8411 232.417 37.9202C232.505 39.3098 232.042 40.1573 231.062 40.384C230.8 40.448 230.682 40.3987 230.475 40.1327ZM235.546 40.1671C235.068 39.9011 234.92 39.4921 234.92 38.4228C234.92 36.8756 235.516 35.8851 236.452 35.8851C237.142 35.8851 237.61 36.7277 237.625 37.9744C237.635 38.9106 237.408 39.5463 236.925 39.975C236.472 40.3692 236.024 40.4332 235.546 40.1671ZM229.233 34.8159C229.233 34.2098 231.722 31.677 232.313 31.677C232.614 31.677 232.387 31.9973 231.421 32.9532C230.855 33.5101 230.194 34.2048 229.948 34.4906C229.475 35.0474 229.233 35.1558 229.233 34.8159ZM197.461 66.968C197.15 63.6025 197.15 55.6987 197.461 50.855C197.909 43.7199 199.126 34.4956 200.6 27.0895C201.733 21.3933 202.773 16.7762 204.256 10.804C204.561 9.56228 204.586 8.94634 204.31 9.39474C203.955 9.96633 201.955 16.584 200.861 20.7921C198.806 28.7156 196.953 39.7729 196.283 48.135C195.904 52.8407 195.766 59.8132 195.958 64.7112C196.076 67.7367 196.086 67.781 196.559 67.8401C197.633 67.9732 197.559 68.0422 197.461 66.968ZM267.831 65.5094C267.175 64.3219 266.5 63.4251 266.229 63.3709C265.929 63.3117 265.968 63.6665 266.313 64.1297C266.476 64.3465 266.732 64.7703 266.88 65.0659C267.156 65.6129 268.097 66.5935 268.259 66.4949C268.304 66.4654 268.112 66.0219 267.831 65.5094ZM266.436 66.1549C266.392 66.0761 266.146 65.7312 265.899 65.3912C265.648 65.0512 265.278 64.5288 265.081 64.2283C264.667 63.5877 264.416 63.4497 264.416 63.8587C264.416 64.4599 266.082 66.5738 266.402 66.3767C266.466 66.3372 266.481 66.2387 266.436 66.1549ZM271.822 66.2683C271.822 66.1648 270.595 63.8143 270.452 63.6468C270.235 63.3857 270.093 63.4399 270.093 63.7848C270.093 64.2233 270.792 65.5587 271.236 65.9726C271.566 66.283 271.822 66.4112 271.822 66.2683ZM270.344 66.081C270.344 66.017 270.29 65.9283 270.221 65.8888C270.157 65.8494 269.964 65.5439 269.797 65.2088C269.284 64.1839 268.609 63.2083 268.452 63.2575C267.964 63.4201 268.6 64.79 269.575 65.6671C270.162 66.1943 270.344 66.2929 270.344 66.081ZM277.055 64.9625C279.002 64.2036 279.479 62.7254 278.193 61.4393C277.228 60.4735 275.848 59.8871 274.537 59.8871C273.399 59.8871 271.758 61.1141 271.462 62.1883C271.073 63.5975 271.536 64.5485 272.886 65.0856C273.754 65.4404 276.015 65.3714 277.055 64.9625ZM265.594 61.0746C266.53 60.0941 267.151 59.0199 266.776 59.0199C266.643 59.0199 264.983 61.0993 264.874 61.3999C264.731 61.7842 265.057 61.6364 265.594 61.0746ZM267.762 60.1187C268.378 59.2859 268.486 59.0149 268.21 59.0248C267.959 59.0248 266.515 61.0106 266.515 61.3506C266.515 61.6167 267.013 61.1239 267.762 60.1187ZM269.979 59.5126C270.605 58.6897 270.713 58.4039 270.418 58.4039C270.137 58.4039 268.595 60.3897 268.259 61.183C268.117 61.5181 268.161 61.4935 268.737 60.9367C269.087 60.5967 269.644 59.9561 269.979 59.5126ZM271.724 59.5471C271.955 59.2859 272.315 58.5862 272.315 58.4089C272.315 58.3349 272.246 58.2758 272.162 58.2758C271.99 58.2758 271.206 59.3697 271.206 59.6112C271.206 59.8329 271.507 59.7935 271.724 59.5471ZM204.98 8.27619C205.025 8.0988 205.005 7.91648 204.941 7.87706C204.793 7.78837 204.512 8.51764 204.625 8.69011C204.724 8.85764 204.882 8.67532 204.98 8.27619ZM205.399 6.73388C205.586 6.0046 205.503 5.91098 205.241 6.56141C205.015 7.13301 204.99 7.30547 205.148 7.30547C205.207 7.30547 205.32 7.04924 205.399 6.73388ZM171.754 73.0633C171.01 72.6149 170.783 72.0729 170.783 70.7129C170.783 69.481 171.01 68.8109 171.552 68.4561C172.025 68.1456 172.143 68.4167 171.808 69.0523C171.586 69.4761 171.527 69.7914 171.527 70.4616C171.527 71.2401 171.591 71.4323 172.054 72.3143C172.34 72.8564 172.572 73.3146 172.572 73.3343C172.572 73.4526 172.197 73.3245 171.754 73.0633ZM287.501 63.0851C287.501 63.0506 287.61 62.7943 287.748 62.5135C288.048 61.8877 288.063 61.05 287.792 59.8477C287.551 58.7735 286.836 57.3396 286.398 57.0636C286.225 56.9552 286.058 56.8518 286.033 56.832C286.004 56.8123 286.053 56.7138 286.142 56.6103C286.979 55.5952 288.822 58.7538 288.551 60.7544C288.448 61.523 288.019 62.6712 287.733 62.9274C287.605 63.0457 287.501 63.1146 287.501 63.0851ZM283.55 62.7746C283.55 62.7057 283.658 62.548 283.791 62.4248C284.757 61.5526 283.973 58.0294 282.815 58.0294C282.673 58.0294 282.564 57.9555 282.564 57.8717C282.564 57.3544 283.461 57.246 283.954 57.7042C284.51 58.2216 284.821 58.9952 284.88 60.0251C284.91 60.5573 284.88 61.1535 284.796 61.39C284.663 61.8039 283.55 63.0358 283.55 62.7746ZM259.217 48.9529L258.892 48.815L259.853 47.3613C260.878 45.8092 261.76 43.8924 262.194 42.2564C262.519 41.0442 262.667 37.5605 262.46 36.1956C262.302 35.1953 261.804 33.2735 261.45 32.3274C260.149 28.8289 257.296 25.493 253.851 23.4382C250.998 21.7382 248.855 21.0828 245.716 20.9547C243.903 20.8808 241.434 21.1321 240.651 21.477L240.281 21.6396L240.651 21.6495C240.858 21.6643 241.104 21.7136 241.207 21.7776C241.592 22.024 241.094 22.1965 239.759 22.2901C238.99 22.3443 238.069 22.497 237.566 22.6498C235.585 23.2707 233.56 24.6307 232.254 26.2222C231.855 26.7051 231.495 27.1043 231.456 27.1043C231.352 27.1043 231.086 26.8234 231.086 26.7101C231.086 26.4735 232.688 24.7785 233.57 24.0788C234.747 23.1475 235.93 22.5414 237.778 21.9156L239.172 21.4425L238.616 21.275C238.31 21.1863 237.561 21.1075 236.95 21.1075C236.004 21.1075 235.738 21.1518 235.151 21.4228C234.363 21.7973 233.58 22.4428 233.422 22.8567C233.284 23.2263 232.934 23.2312 232.934 22.8715C232.934 22.1866 233.826 21.3194 235.156 20.6936C235.758 20.4176 236.004 20.3782 237.196 20.3733C238.3 20.3733 238.734 20.4176 239.502 20.664L240.453 20.9596L241.242 20.7034C242.114 20.4127 243.809 20.0825 244.662 20.0283L245.218 19.9939L244.627 19.5996C244.297 19.3828 243.494 18.964 242.833 18.6733C241.685 18.1559 241.597 18.1362 240.394 18.1362C239.231 18.1362 239.098 18.1657 238.369 18.5402C237.482 18.9985 237.251 18.9591 237.852 18.4515C239.015 17.471 240.567 17.1211 242.05 17.5054C243.085 17.7715 245.43 18.9788 246.046 19.5701C246.514 20.0136 246.598 20.0431 247.549 20.122C249.673 20.2994 251.333 20.8118 253.536 21.9796C260.351 25.5964 264.125 32.224 263.544 39.5463C263.317 42.3796 262.312 45.1045 260.469 47.8639C260.055 48.4848 259.676 49.017 259.626 49.0466C259.577 49.0712 259.395 49.0318 259.217 48.9579V48.9529ZM240.636 33.7466C240.577 33.6431 239.709 33.0272 238.709 32.3718C237.709 31.7164 236.886 31.1202 236.886 31.0561C236.886 30.8344 237.26 30.7753 237.733 30.9182C237.985 30.9921 238.709 31.3961 239.345 31.815C240.311 32.4506 240.532 32.6625 240.739 33.1306C240.902 33.4953 240.941 33.7269 240.862 33.8057C240.779 33.8895 240.705 33.8648 240.636 33.7466ZM201.974 3.35359C201.61 2.30896 202.694 0.663164 204.088 0.135919C204.65 -0.0759639 205.65 -0.0316168 205.744 0.209832C205.887 0.584324 205.616 0.806062 205.059 0.766642C204.778 0.746933 204.354 0.79128 204.113 0.87012C203.645 1.0278 202.763 1.94925 202.645 2.40751C202.605 2.56519 202.472 2.93968 202.344 3.23041L202.117 3.77243L201.974 3.35359Z" fill="#4E6A03"/>
</svg>
