<svg width="364" height="348" viewBox="0 0 364 348" fill="none" xmlns="http://www.w3.org/2000/svg">
<path d="M102.684 347.855C96.8746 347.367 88.3137 344.969 86.583 343.347C86.1714 342.965 84.9154 342.604 82.5504 342.188C77.9003 341.381 74.0903 340.541 64.0801 338.109C59.4132 336.979 53.8852 335.648 51.7974 335.148C44.5429 333.417 33.764 329.426 33.3356 328.305C33.218 327.994 35.3855 325.066 40.0188 319.282C51.7932 304.596 62.7065 292.007 81.1936 271.785C90.3384 261.779 92.8504 258.813 93.1528 257.662C93.7409 255.428 95.228 249.412 95.228 249.282C95.228 249.207 94.2744 248.988 93.1066 248.799C84.1214 247.312 72.3428 240.78 66.4367 234.004C62.3285 229.291 60.2113 225.2 58.7411 219.138C57.9262 215.786 58.0228 204.982 58.9049 200.571C60.0013 195.077 62.0722 189.658 64.8573 185.004C68.6378 178.682 73.0485 174.25 78.1187 171.692C79.8914 170.797 86.751 168.252 92.0733 166.513C93.2074 166.139 94.4214 165.395 95.8749 164.173C99.3908 161.207 104.23 158.582 108.683 157.225C112.993 155.906 115.37 155.582 120.818 155.57C125.51 155.57 126.208 155.62 127.237 156.141C127.871 156.46 128.438 156.872 128.493 157.057C128.64 157.54 126.565 157.674 123.158 157.401C114.181 156.687 104.717 159.287 97.9878 164.324L96.7948 165.215L101.932 165.122L107.07 165.034L109.267 163.908C114.643 161.157 122.49 159.523 130.417 159.51C133.609 159.51 134.71 159.762 134.71 160.527C134.71 161.064 133.777 161.195 128.422 161.409C123.36 161.61 119.625 162.14 115.727 163.194C112.761 163.996 109.85 165.093 109.85 165.408C109.85 165.513 110.409 165.693 111.094 165.811C114.526 166.387 121.566 169.596 125.821 172.528C135.596 179.266 141.591 188.301 144.103 200.076C144.905 203.831 144.972 210.8 144.245 214.618C143.977 216.03 143.691 217.357 143.611 217.571C143.527 217.786 143.779 218.101 144.191 218.286C145.825 219.033 146.577 221.545 146.123 224.742C145.703 227.741 143.888 231.131 141.33 233.719C138.516 236.563 133.261 240.024 130.072 241.133C129.245 241.419 129.115 241.582 129.257 242.154C129.883 244.64 131.009 252.214 131.509 257.293C132.53 267.622 133.219 273.659 135.159 289.201C136.193 297.493 137.373 307.18 137.776 310.721C138.184 314.266 138.705 318.547 138.94 320.235C139.902 327.192 139.868 330.485 138.848 330.485C137.646 330.485 135.869 328.645 133.534 324.978C132.227 322.932 130.207 319.878 129.043 318.185C127.88 316.497 125.8 313.464 124.418 311.456C123.036 309.44 119.344 303.513 116.21 298.279C113.077 293.045 109.271 286.853 107.746 284.517C103.213 277.561 101.042 273.864 97.7315 267.463C96.0051 264.123 94.4886 261.388 94.3542 261.388C94.2282 261.388 93.9804 262.149 93.8123 263.073C89.179 288.52 88.5531 293.826 88.2969 309.889L88.1247 320.769L87.1333 320.886C86.2806 320.983 86.1168 320.912 85.9613 320.277C85.7345 319.378 86.0873 304.853 86.4696 299.156C87.0241 290.99 88.6665 279.724 91.1533 267.047C91.6406 264.547 91.9935 262.447 91.9305 262.384C91.8716 262.321 90.582 263.686 89.0614 265.417C87.545 267.148 84.2643 270.802 81.7691 273.541C64.6808 292.284 53.5953 305.109 41.6991 319.903C36.3012 326.612 35.7762 327.36 36.2382 327.7C36.7549 328.074 46.5046 331.396 50.3314 332.501C51.4614 332.829 53.9608 333.434 55.8889 333.85C57.8212 334.261 63.1476 335.513 67.7347 336.626C72.3218 337.744 78.2783 339.079 80.9794 339.6L85.8857 340.545L86.3352 339.899C86.9653 339 88.6371 338.21 91.7918 337.324C94.077 336.681 95.2826 336.538 99.5798 336.416C105.2 336.257 107.813 336.542 111.283 337.697C115.404 339.067 118.332 341.701 118.332 344.045C118.332 345.687 116.731 347.262 114.589 347.716C113.194 348.018 105.65 348.102 102.684 347.855ZM114.887 345.695C116.252 345.317 116.412 345.049 115.883 344.032C114.816 341.995 112.11 340.289 108.237 339.218C106.208 338.655 105.15 338.567 100.202 338.554C95.1313 338.525 94.224 338.609 92.0439 339.205C90.6955 339.575 89.1286 340.071 88.5573 340.31L87.524 340.743L88.4145 341.617C89.9477 343.116 97.0342 345.149 102.613 345.687C106.204 346.036 113.644 346.044 114.887 345.687V345.695ZM137.087 323.995C136.924 323.138 136.714 321.71 136.625 320.823C136.239 316.871 135.122 307.558 133.387 293.742C131.362 277.658 130.337 268.353 129.593 259.339C129.199 254.567 127.573 241.847 127.321 241.599C127.279 241.557 126.523 241.986 125.641 242.544C120.97 245.535 114.375 248.085 109.12 248.942C107.481 249.207 104.133 249.442 101.516 249.475L96.8452 249.53L95.8665 253.806L94.8835 258.078L95.8917 259.662C96.4462 260.531 98.3616 263.905 100.147 267.156C103.671 273.575 104.742 275.343 109.733 282.971C111.547 285.744 115.093 291.473 117.609 295.708C121.902 302.916 126.3 309.696 131.824 317.602C133.118 319.454 134.844 322.058 135.659 323.39C136.474 324.717 137.201 325.747 137.272 325.679C137.335 325.608 137.243 324.852 137.087 323.995ZM111.052 246.333C115.114 245.485 119.68 243.813 122.835 242.019L125.141 240.709L125.174 238.52C125.204 236.617 125.347 236.038 126.288 234.139C128.358 229.942 131.677 226.204 138.108 220.819C141.561 217.929 141.523 217.992 141.969 214.694C142.078 213.887 142.162 210.859 142.149 207.96C142.124 202.974 142.082 202.495 141.191 199.177C140.07 194.985 139.461 193.3 138.049 190.469C134.525 183.412 128.316 176.934 121.003 172.692C114.005 168.634 109.275 167.34 101.222 167.29C96.4378 167.264 94.098 167.504 90.2544 168.428L88.6455 168.815L89.9603 168.848C90.6871 168.878 91.4726 169.004 91.7162 169.155C92.6278 169.734 91.4474 170.146 88.2885 170.356C83.2855 170.688 78.4296 172.62 74.2541 175.947C68.4236 180.593 63.0384 190.179 61.1565 199.269C60.0769 204.507 59.9383 212.539 60.8498 217.298C62.862 227.834 70.5113 236.613 82.9453 242.662C89.5487 245.875 94.5138 246.968 102.684 247.01C106.881 247.039 108.187 246.93 111.052 246.333ZM84.113 231.417C84.113 230.913 89.6537 225.548 92.7454 223.058C101.647 215.891 114.404 210.023 123.889 208.729C128.325 208.124 131.593 208.036 132.223 208.498C132.778 208.914 132.782 208.956 132.29 209.498C131.858 209.977 131.211 210.098 128.258 210.267C121.982 210.619 117.727 211.577 111.606 214.009C102.743 217.529 95.0221 222.507 87.4316 229.59C85.1506 231.719 84.113 232.291 84.113 231.417ZM96.799 202.546C94.5475 201.638 93.4217 196.644 94.5097 192.431C95.1776 189.843 95.8497 188.709 97.072 188.1C98.1222 187.579 98.1852 187.579 99.248 188.1C100.071 188.503 100.554 189.066 101.218 190.372C102.029 191.964 102.1 192.359 102.1 195.081C102.1 197.807 102.029 198.19 101.218 199.773C100.344 201.483 98.8447 202.857 97.887 202.819C97.6307 202.819 97.1393 202.684 96.799 202.546ZM111.312 200.87C110.552 200.588 109.808 199.799 109.174 198.589C108.674 197.644 108.557 196.908 108.561 194.783C108.561 191.397 109.031 189.822 110.43 188.427C111.653 187.205 112.329 187.079 113.845 187.797C116.181 188.906 117.353 194.039 115.992 197.211C115.395 198.601 113.442 200.786 112.799 200.786C112.652 200.786 112.354 200.84 112.14 200.907C111.926 200.975 111.552 200.958 111.312 200.87ZM87.5072 187.079C87.3181 186.768 87.9902 185.47 88.9564 184.29C91.649 180.996 97.7946 177.535 98.6053 178.85C98.8447 179.236 98.1306 179.757 95.5766 181.043C93.2537 182.21 90.6199 184.344 89.3555 186.075C88.4985 187.251 87.839 187.608 87.5072 187.079ZM119.062 179.211C118.743 179.135 117.533 178.757 116.382 178.363C114.198 177.627 111.459 177.455 109.111 177.913C107.569 178.211 107.137 178.064 107.511 177.363C108.103 176.258 112.421 175.502 115.639 175.939C117.668 176.22 119.625 177.077 119.907 177.812C120.159 178.472 120.134 179.417 119.869 179.379C119.747 179.35 119.386 179.283 119.062 179.211ZM132.143 238.226C136.919 235.815 141.267 232.127 142.721 229.253C143.808 227.107 144.455 224.389 144.233 222.915C143.998 221.352 143.065 219.815 142.351 219.815C141.481 219.815 138.385 222.251 134.748 225.796C130.06 230.362 128.111 233.118 127.271 236.34C126.859 237.919 126.859 238.142 127.271 238.789C127.682 239.423 127.884 239.482 129.018 239.327C129.724 239.23 131.123 238.734 132.131 238.226H132.143ZM159.279 324.617C149.387 324.512 141.259 324.407 141.217 324.381C141.179 324.352 141.145 323.987 141.145 323.558V322.777L155.549 322.974C163.472 323.083 173.81 323.256 178.523 323.361C186.991 323.55 187.088 323.562 187.004 324.163C186.92 324.755 186.756 324.776 182.089 324.793C179.438 324.793 169.168 324.726 159.279 324.617ZM4.4183 324.062C1.22581 323.923 0.604113 323.823 0.528502 323.419C0.385679 322.684 1.51985 322.6 11.3536 322.621C18.1838 322.651 20.4102 322.731 20.6412 323.012C20.8597 323.277 20.8134 323.495 20.4606 323.785C19.9229 324.234 11.5384 324.381 4.4183 324.062ZM25.913 324.062C23.9849 323.886 23.2792 323.642 23.2792 323.142C23.2792 322.978 25.745 322.869 29.3492 322.873H35.4149L34.5958 323.596C33.8313 324.276 33.5792 324.318 30.7942 324.276C29.1559 324.247 26.9548 324.15 25.913 324.054V324.062ZM40.5901 323.558L41.3588 322.785L85.9571 322.638L130.56 322.491L131.03 323.407L131.509 324.331H39.8172L40.5901 323.558ZM139.973 175.052C138.465 174.557 137.348 173.813 136.554 172.772C135.806 171.789 135.735 171.482 135.735 169.184C135.735 166.227 136.184 165.097 138.108 163.169C140.099 161.178 141.981 160.375 144.67 160.375C148.181 160.375 149.925 161.195 151.416 163.551C152.126 164.673 152.26 165.185 152.256 166.802C152.256 170.028 150.362 172.587 146.703 174.343C144.993 175.162 141.452 175.536 139.973 175.052ZM145.905 172.797C146.648 172.545 147.85 171.81 148.58 171.167C150.782 169.226 151.055 166.899 149.353 164.547C148.286 163.072 146.43 162.169 143.998 161.942C142.216 161.774 142.015 161.82 140.813 162.648C139.129 163.816 138.348 164.689 137.797 166.008C135.819 170.751 140.469 174.649 145.905 172.797ZM280.246 171.184C275.738 170.57 271.504 169.062 267.526 166.66C266.068 165.782 264.791 165.059 264.686 165.059C264.581 165.059 263.724 165.53 262.779 166.105C259.452 168.134 253.143 169.915 246.729 170.646C243.133 171.058 235.53 170.839 230.51 170.18C224.385 169.377 218.492 167.491 213.825 164.841C204.642 159.628 196.602 149.302 195.082 140.771C194.863 139.557 194.683 138.549 194.674 138.532C194.674 138.503 192.99 138.423 190.94 138.33C181.803 137.91 169.138 133.273 163.228 128.182C158.759 124.334 156.192 119.495 155.621 113.824C155.196 109.632 156.406 102.196 158.145 98.3402C158.847 96.786 158.918 96.4163 158.586 96.1433C157.595 95.3451 154.428 90.9723 153.676 89.3676C150.017 81.567 153.827 72.5482 163.812 65.3693C166.807 63.2102 172.377 60.2739 174.948 59.4884C175.901 59.1985 176.729 58.9255 176.792 58.8835C176.855 58.8415 176.494 58.3332 175.99 57.7577C173.784 55.2415 172.541 51.1417 172.864 47.4241C173.066 45.1222 173.906 42.0641 174.851 40.1948C178.157 33.667 185.794 27.1518 194.401 23.5098C199.076 21.5313 202.017 20.9096 205.827 21.107L208.948 21.2667L210.023 19.6326C211.645 17.1962 215.715 13.1132 218.521 11.1179C224.251 7.03486 233.345 3.27948 241.679 1.55301C248.232 0.2004 256.882 -0.312079 264.863 0.187797C276.066 0.893506 284.871 4.24983 286.937 8.6017C287.277 9.32421 287.567 9.58045 287.912 9.47544C290.789 8.6059 300.283 8.44207 304.656 9.18979C315.422 11.0255 328.94 17.8221 336.929 25.4169C339.954 28.2943 342.092 31.1886 343.633 34.4819C345.393 38.2457 345.877 40.3838 345.877 44.4795C345.877 48.7893 345.183 51.65 343.381 54.7542C342.663 55.9976 342.075 57.0688 342.075 57.1444C342.075 57.2158 342.566 57.4301 343.171 57.6191C345.074 58.224 348.578 60.2403 350.607 61.8996C356.391 66.6379 360.919 74.3923 362.549 82.3483C364.107 89.9893 363.36 95.3913 360.058 100.361C357.13 104.767 350.388 109.485 345.352 110.644C343.381 111.102 343.037 111.732 343.982 113.135C345.356 115.164 345.734 117.058 345.704 121.876C345.675 125.762 345.587 126.569 344.885 128.875C341.525 139.969 333.438 147.664 324.126 148.635L322.416 148.811L321.719 150.676C320.664 153.482 318.598 156.393 315.334 159.67C309.751 165.273 303.055 168.789 294.423 170.654C291.193 171.348 283.531 171.637 280.246 171.184ZM295.255 168.432C302.559 166.79 309.054 163.459 313.809 158.935C317.174 155.729 321.416 149.357 320.736 148.538C320.471 148.219 320.542 147.996 321.063 147.513C321.429 147.173 321.899 146.963 322.118 147.043C322.777 147.299 328.578 145.787 330.523 144.858C335.824 142.325 339.996 137.415 342.319 130.979C343.52 127.665 343.932 124.733 343.751 120.797C343.554 116.449 343.033 114.832 341.218 112.967C339.639 111.35 339.676 111.169 341.689 110.627C343.503 110.14 351.132 106.439 353.093 105.095C355.194 103.654 357.806 100.982 359.02 99.0417C360.659 96.4289 361.234 93.9799 361.192 89.8171C361.133 84.205 359.89 79.2272 357.206 73.8588C355.416 70.284 353.938 68.2803 350.72 65.05C347.544 61.8659 344.306 59.6942 341.743 59.0389C340.958 58.8373 340.319 58.56 340.319 58.4256C340.319 58.287 340.63 57.5561 341.008 56.8C341.39 56.0396 342.146 54.0989 342.688 52.4859C343.638 49.6925 343.68 49.3732 343.68 45.3154C343.68 41.6482 343.587 40.7913 342.999 39.0186C341.306 33.9484 338.437 29.773 333.867 25.732C325.865 18.6581 313.149 12.5083 303.286 10.9457C298.325 10.1601 289.172 10.4206 287.189 11.4035C286.286 11.853 286.047 11.6892 284.976 9.8997C283.808 7.9464 281.741 6.43416 278.57 5.21177C276.011 4.22462 271.697 3.09885 268.37 2.55276C265.363 2.05709 251.211 2.02768 247.607 2.51076C231.375 4.68669 218.303 10.9415 211.893 19.5948C211.036 20.75 210.523 21.7161 210.624 21.9808C210.716 22.2202 210.624 22.5185 210.443 22.6361C210.25 22.7537 207.906 22.8713 205.23 22.8881C200.534 22.9259 200.278 22.9553 197.594 23.8921C196.065 24.4213 193.456 25.5639 191.801 26.4335C183.631 30.6971 177.872 36.599 175.788 42.8286C175.087 44.9247 175.019 45.4918 175.129 48.2474C175.238 50.793 175.393 51.6164 176.04 53.0362C177.22 55.6154 179.367 58.1442 180.69 58.5012C182.181 58.9129 182.274 59.2279 181.215 60.2907C180.535 60.9754 180.216 61.1224 179.968 60.8746C179.048 59.9547 175.41 60.904 170.537 63.3278C162.014 67.5746 156.079 73.6992 154.877 79.4961C154.407 81.7686 154.671 85.2846 155.453 87.0488C156.784 90.0607 158.771 93.0348 160.174 94.1017C161.649 95.2317 161.695 95.4585 160.678 96.8532C159.111 99.0081 157.994 104.477 157.99 110.018C157.99 116.319 159.321 119.86 163.308 124.099C167.425 128.48 173.541 131.66 182.677 134.168C187.004 135.356 194.141 136.78 195.439 136.713C196.602 136.654 196.88 137.024 197.127 138.944C198.199 147.366 207.163 158.414 216.891 163.299C224.352 167.05 232.194 168.478 243.755 168.201C248.758 168.079 250.379 167.928 253.181 167.315C258.902 166.063 263.649 164.261 263.913 163.236C264.119 162.463 265.371 162.782 267.908 164.261C272.201 166.76 276.091 168.205 280.237 168.852C282.976 169.281 292.709 169.008 295.255 168.432ZM256.575 138.007C256.214 137.616 255.613 136.423 255.235 135.356C254.672 133.764 254.575 133.008 254.685 131.156C254.853 128.308 255.605 126.573 257.503 124.674C259.465 122.712 260.662 122.023 262.12 122.023C263.157 122.023 263.477 122.187 264.371 123.179C266.379 125.401 266.518 128.736 264.749 132.416C263.401 135.222 262.162 136.822 260.553 137.847C258.843 138.931 257.482 138.986 256.575 138.007ZM259.289 108.094C258.503 107.141 258.793 101.39 259.822 97.4118C261.847 89.6028 266.816 80.3824 274.499 70.2084C276.02 68.1921 278.561 64.8274 280.149 62.7355C281.741 60.6352 283.64 57.6947 284.4 56.1783C285.706 53.5613 285.778 53.2882 285.87 50.6082C286.076 44.8449 283.661 39.6487 279.242 36.3302C275.314 33.3813 271.223 32.1463 265.363 32.1463C259.255 32.1463 255.231 33.2931 250.53 36.3974C248.018 38.0567 244.137 41.6524 242.872 43.4881C238.962 49.18 238.361 55.6952 240.995 63.9075C241.411 65.1929 241.751 66.5581 241.751 66.9361C241.751 67.8099 240.167 69.3221 239.247 69.3221C238.197 69.3221 237.542 68.3896 236.542 65.4365C232.862 54.5988 235.836 44.5635 245.116 36.4772C249.312 32.8227 254.092 30.0838 258.49 28.8068C267.505 26.1898 276.721 27.5088 283.287 32.348C288.735 36.3638 292.007 45.0844 290.491 51.5323C289.491 55.7666 287.483 59.1439 280.708 67.9821C269.143 83.0624 264.51 92.4425 263.838 102.112C263.556 106.132 262.582 108.031 260.582 108.43C259.952 108.556 259.595 108.464 259.289 108.094ZM166.299 160.564C163.169 159.712 160.225 157.494 158.901 154.986C158.414 154.07 158.267 153.272 158.263 151.592C158.263 147.967 159.427 145.232 161.619 143.753C162.438 143.199 162.934 143.094 164.383 143.165C165.383 143.212 166.114 143.375 166.068 143.543C166.026 143.703 165.198 143.976 164.236 144.152C162.993 144.375 162.233 144.711 161.619 145.295C159.721 147.118 159.17 151.672 160.561 154.049C162.535 157.418 166.87 159.43 171.52 159.136C175.523 158.876 178.527 157.149 179.791 154.377C180.379 153.079 180.493 150.819 180.043 149.252C179.611 147.736 177.83 145.312 176.515 144.442C174.255 142.943 170.621 142.489 167.177 143.275C165.719 143.602 168.08 141.956 169.785 141.451C172.747 140.578 176.38 141.372 178.686 143.401C181.11 145.526 182.173 147.87 182.144 151.016C182.089 156.83 177.057 160.997 170.142 160.942C168.752 160.942 167.021 160.762 166.299 160.564Z" fill="#4E6A03"/>
</svg>
