<svg width="614" height="509" viewBox="0 0 614 509" fill="none" xmlns="http://www.w3.org/2000/svg">
<path d="M2.28 300.58V286.58H7.52C8.70667 286.58 9.72667 286.773 10.58 287.16C11.4333 287.533 12.0867 288.08 12.54 288.8C13.0067 289.507 13.24 290.367 13.24 291.38C13.24 292.367 13.0067 293.22 12.54 293.94C12.0867 294.647 11.4333 295.193 10.58 295.58C9.72667 295.953 8.70667 296.14 7.52 296.14H3.1L3.76 295.46V300.58H2.28ZM11.84 300.58L8.24 295.5H9.84L13.46 300.58H11.84ZM3.76 295.58L3.1 294.88H7.48C8.88 294.88 9.94 294.573 10.66 293.96C11.3933 293.347 11.76 292.487 11.76 291.38C11.76 290.26 11.3933 289.393 10.66 288.78C9.94 288.167 8.88 287.86 7.48 287.86H3.1L3.76 287.16V295.58ZM22.9155 300.58V298.26L22.8555 297.88V294C22.8555 293.107 22.6021 292.42 22.0955 291.94C21.6021 291.46 20.8621 291.22 19.8755 291.22C19.1955 291.22 18.5488 291.333 17.9355 291.56C17.3221 291.787 16.8021 292.087 16.3755 292.46L15.7355 291.4C16.2688 290.947 16.9088 290.6 17.6555 290.36C18.4021 290.107 19.1888 289.98 20.0155 289.98C21.3755 289.98 22.4221 290.32 23.1555 291C23.9021 291.667 24.2755 292.687 24.2755 294.06V300.58H22.9155ZM19.2955 300.68C18.5088 300.68 17.8221 300.553 17.2355 300.3C16.6621 300.033 16.2221 299.673 15.9155 299.22C15.6088 298.753 15.4555 298.22 15.4555 297.62C15.4555 297.073 15.5821 296.58 15.8355 296.14C16.1021 295.687 16.5288 295.327 17.1155 295.06C17.7155 294.78 18.5155 294.64 19.5155 294.64H23.1355V295.7H19.5555C18.5421 295.7 17.8355 295.88 17.4355 296.24C17.0488 296.6 16.8555 297.047 16.8555 297.58C16.8555 298.18 17.0888 298.66 17.5555 299.02C18.0221 299.38 18.6755 299.56 19.5155 299.56C20.3155 299.56 21.0021 299.38 21.5755 299.02C22.1621 298.647 22.5888 298.113 22.8555 297.42L23.1755 298.4C22.9088 299.093 22.4421 299.647 21.7755 300.06C21.1221 300.473 20.2955 300.68 19.2955 300.68ZM28.1323 300.58V290.08H29.4923V292.94L29.3523 292.44C29.6457 291.64 30.139 291.033 30.8323 290.62C31.5257 290.193 32.3857 289.98 33.4123 289.98V291.36C33.359 291.36 33.3057 291.36 33.2523 291.36C33.199 291.347 33.1457 291.34 33.0923 291.34C31.9857 291.34 31.119 291.68 30.4923 292.36C29.8657 293.027 29.5523 293.98 29.5523 295.22V300.58H28.1323ZM40.3658 300.68C39.2724 300.68 38.3124 300.453 37.4858 300C36.6591 299.533 36.0124 298.9 35.5458 298.1C35.0791 297.287 34.8458 296.36 34.8458 295.32C34.8458 294.28 35.0658 293.36 35.5058 292.56C35.9591 291.76 36.5724 291.133 37.3458 290.68C38.1324 290.213 39.0124 289.98 39.9858 289.98C40.9724 289.98 41.8458 290.207 42.6058 290.66C43.3791 291.1 43.9858 291.727 44.4258 292.54C44.8658 293.34 45.0858 294.267 45.0858 295.32C45.0858 295.387 45.0791 295.46 45.0658 295.54C45.0658 295.607 45.0658 295.68 45.0658 295.76H35.9258V294.7H44.3058L43.7458 295.12C43.7458 294.36 43.5791 293.687 43.2458 293.1C42.9258 292.5 42.4858 292.033 41.9258 291.7C41.3658 291.367 40.7191 291.2 39.9858 291.2C39.2658 291.2 38.6191 291.367 38.0458 291.7C37.4724 292.033 37.0258 292.5 36.7058 293.1C36.3858 293.7 36.2258 294.387 36.2258 295.16V295.38C36.2258 296.18 36.3991 296.887 36.7458 297.5C37.1058 298.1 37.5991 298.573 38.2258 298.92C38.8658 299.253 39.5924 299.42 40.4058 299.42C41.0458 299.42 41.6391 299.307 42.1858 299.08C42.7458 298.853 43.2258 298.507 43.6258 298.04L44.4258 298.96C43.9591 299.52 43.3724 299.947 42.6658 300.24C41.9724 300.533 41.2058 300.68 40.3658 300.68ZM47.9761 300.58V285.74H49.3961V300.58H47.9761ZM53.4272 304.56C52.9339 304.56 52.4605 304.48 52.0072 304.32C51.5672 304.16 51.1872 303.92 50.8672 303.6L51.5272 302.54C51.7939 302.793 52.0805 302.987 52.3872 303.12C52.7072 303.267 53.0605 303.34 53.4472 303.34C53.9139 303.34 54.3139 303.207 54.6472 302.94C54.9939 302.687 55.3205 302.233 55.6272 301.58L56.3072 300.04L56.4672 299.82L60.7872 290.08H62.1872L56.9272 301.84C56.6339 302.52 56.3072 303.06 55.9472 303.46C55.6005 303.86 55.2205 304.14 54.8072 304.3C54.3939 304.473 53.9339 304.56 53.4272 304.56ZM56.2272 300.88L51.3872 290.08H52.8672L57.1472 299.72L56.2272 300.88Z" fill="#323232"/>
<path d="M8.11063 337.309C7.09729 337.309 6.13729 337.149 5.23063 336.829C4.33729 336.496 3.61729 336.056 3.07063 335.509L3.77063 334.369C4.22396 334.836 4.83063 335.223 5.59063 335.529C6.36396 335.836 7.20396 335.989 8.11063 335.989C9.27063 335.989 10.1573 335.736 10.7706 335.229C11.3973 334.723 11.7106 334.043 11.7106 333.189C11.7106 332.336 11.404 331.656 10.7906 331.149C10.1906 330.643 9.23729 330.389 7.93063 330.389H6.93063V329.329L11.2506 323.909L11.4506 324.469H3.65063V323.189H12.6506V324.209L8.33063 329.629L7.63063 329.169H8.17062C9.85063 329.169 11.104 329.543 11.9306 330.289C12.7706 331.036 13.1906 331.996 13.1906 333.169C13.1906 333.956 13.004 334.663 12.6306 335.289C12.2573 335.916 11.6906 336.409 10.9306 336.769C10.184 337.129 9.24396 337.309 8.11063 337.309ZM19.5797 323.069C20.8197 323.069 21.8664 323.349 22.7197 323.909C23.573 324.456 24.2197 325.249 24.6597 326.289C25.0997 327.329 25.3197 328.589 25.3197 330.069C25.3197 331.643 25.0464 332.969 24.4997 334.049C23.9664 335.129 23.2197 335.943 22.2597 336.489C21.2997 337.036 20.1864 337.309 18.9197 337.309C18.293 337.309 17.693 337.249 17.1197 337.129C16.5597 337.009 16.053 336.816 15.5997 336.549L16.1797 335.389C16.5397 335.629 16.953 335.803 17.4197 335.909C17.8997 336.003 18.393 336.049 18.8997 336.049C20.4064 336.049 21.6064 335.569 22.4997 334.609C23.4064 333.649 23.8597 332.216 23.8597 330.309C23.8597 330.003 23.8397 329.636 23.7997 329.209C23.773 328.783 23.6997 328.356 23.5797 327.929L24.0797 328.309C23.9464 329.003 23.6597 329.596 23.2197 330.089C22.793 330.569 22.2597 330.936 21.6197 331.189C20.993 331.443 20.293 331.569 19.5197 331.569C18.5997 331.569 17.7797 331.396 17.0597 331.049C16.353 330.703 15.7997 330.216 15.3997 329.589C14.9997 328.963 14.7997 328.223 14.7997 327.369C14.7997 326.489 15.0064 325.729 15.4197 325.089C15.833 324.449 16.3997 323.956 17.1197 323.609C17.853 323.249 18.673 323.069 19.5797 323.069ZM19.6397 324.289C18.973 324.289 18.3797 324.416 17.8597 324.669C17.353 324.909 16.953 325.256 16.6597 325.709C16.3664 326.163 16.2197 326.703 16.2197 327.329C16.2197 328.249 16.533 328.983 17.1597 329.529C17.7997 330.076 18.6597 330.349 19.7397 330.349C20.4597 330.349 21.0864 330.216 21.6197 329.949C22.1664 329.683 22.5864 329.316 22.8797 328.849C23.1864 328.383 23.3397 327.863 23.3397 327.289C23.3397 326.769 23.1997 326.283 22.9197 325.829C22.6397 325.376 22.2264 325.009 21.6797 324.729C21.133 324.436 20.453 324.289 19.6397 324.289ZM28.2723 337.289C27.979 337.289 27.7257 337.183 27.5123 336.969C27.3123 336.756 27.2123 336.496 27.2123 336.189C27.2123 335.869 27.3123 335.609 27.5123 335.409C27.7257 335.209 27.979 335.109 28.2723 335.109C28.5657 335.109 28.8123 335.209 29.0123 335.409C29.2257 335.609 29.3323 335.869 29.3323 336.189C29.3323 336.496 29.2257 336.756 29.0123 336.969C28.8123 337.183 28.5657 337.289 28.2723 337.289ZM35.8506 337.309C34.8506 337.309 33.8973 337.149 32.9906 336.829C32.084 336.496 31.364 336.056 30.8306 335.509L31.5306 334.369C31.9706 334.836 32.5706 335.223 33.3306 335.529C34.104 335.836 34.9373 335.989 35.8306 335.989C37.0173 335.989 37.9173 335.729 38.5306 335.209C39.1573 334.676 39.4706 333.983 39.4706 333.129C39.4706 332.529 39.324 332.016 39.0306 331.589C38.7506 331.149 38.2706 330.809 37.5906 330.569C36.9106 330.329 35.9773 330.209 34.7906 330.209H31.8106L32.5306 323.189H40.1906V324.469H33.1106L33.8506 323.769L33.2306 329.649L32.4906 328.929H35.1106C36.524 328.929 37.6573 329.103 38.5106 329.449C39.364 329.796 39.9773 330.283 40.3506 330.909C40.7373 331.523 40.9306 332.243 40.9306 333.069C40.9306 333.856 40.744 334.576 40.3706 335.229C39.9973 335.869 39.4373 336.376 38.6906 336.749C37.944 337.123 36.9973 337.309 35.8506 337.309ZM44.4434 337.189L54.0034 323.189H55.1834L45.6234 337.189H44.4434ZM45.5234 330.689C44.8968 330.689 44.3434 330.536 43.8634 330.229C43.3834 329.909 43.0101 329.463 42.7434 328.889C42.4901 328.316 42.3634 327.649 42.3634 326.889C42.3634 326.129 42.4901 325.463 42.7434 324.889C43.0101 324.316 43.3834 323.876 43.8634 323.569C44.3434 323.249 44.8968 323.089 45.5234 323.089C46.1501 323.089 46.6968 323.249 47.1634 323.569C47.6434 323.876 48.0168 324.316 48.2834 324.889C48.5501 325.463 48.6834 326.129 48.6834 326.889C48.6834 327.649 48.5501 328.316 48.2834 328.889C48.0168 329.463 47.6434 329.909 47.1634 330.229C46.6968 330.536 46.1501 330.689 45.5234 330.689ZM45.5234 329.789C46.1768 329.789 46.6968 329.536 47.0834 329.029C47.4834 328.509 47.6834 327.796 47.6834 326.889C47.6834 325.983 47.4834 325.276 47.0834 324.769C46.6968 324.249 46.1768 323.989 45.5234 323.989C44.8568 323.989 44.3301 324.249 43.9434 324.769C43.5568 325.276 43.3634 325.983 43.3634 326.889C43.3634 327.796 43.5568 328.509 43.9434 329.029C44.3301 329.536 44.8568 329.789 45.5234 329.789ZM54.1034 337.289C53.4901 337.289 52.9434 337.136 52.4634 336.829C51.9834 336.509 51.6101 336.063 51.3434 335.489C51.0768 334.916 50.9434 334.249 50.9434 333.489C50.9434 332.729 51.0768 332.063 51.3434 331.489C51.6101 330.916 51.9834 330.476 52.4634 330.169C52.9434 329.849 53.4901 329.689 54.1034 329.689C54.7434 329.689 55.2968 329.849 55.7634 330.169C56.2434 330.476 56.6101 330.916 56.8634 331.489C57.1301 332.063 57.2634 332.729 57.2634 333.489C57.2634 334.249 57.1301 334.916 56.8634 335.489C56.6101 336.063 56.2434 336.509 55.7634 336.829C55.2968 337.136 54.7434 337.289 54.1034 337.289ZM54.1034 336.389C54.7568 336.389 55.2768 336.136 55.6634 335.629C56.0634 335.109 56.2634 334.396 56.2634 333.489C56.2634 332.583 56.0634 331.876 55.6634 331.369C55.2768 330.849 54.7568 330.589 54.1034 330.589C53.4501 330.589 52.9234 330.849 52.5234 331.369C52.1368 331.876 51.9434 332.583 51.9434 333.489C51.9434 334.396 52.1368 335.109 52.5234 335.629C52.9234 336.136 53.4501 336.389 54.1034 336.389Z" fill="#323232"/>
<path d="M355.706 55.3047L349.506 41.3047H351.106L356.906 54.4847H356.026L361.866 41.3047H363.366L357.166 55.3047H355.706ZM368.757 55.4047C367.664 55.4047 366.704 55.178 365.877 54.7247C365.051 54.258 364.404 53.6247 363.937 52.8247C363.471 52.0114 363.237 51.0847 363.237 50.0447C363.237 49.0047 363.457 48.0847 363.897 47.2847C364.351 46.4847 364.964 45.858 365.737 45.4047C366.524 44.938 367.404 44.7047 368.377 44.7047C369.364 44.7047 370.237 44.9314 370.997 45.3847C371.771 45.8247 372.377 46.4514 372.817 47.2647C373.257 48.0647 373.477 48.9914 373.477 50.0447C373.477 50.1114 373.471 50.1847 373.457 50.2647C373.457 50.3314 373.457 50.4047 373.457 50.4847H364.317V49.4247H372.697L372.137 49.8447C372.137 49.0847 371.971 48.4114 371.637 47.8247C371.317 47.2247 370.877 46.758 370.317 46.4247C369.757 46.0914 369.111 45.9247 368.377 45.9247C367.657 45.9247 367.011 46.0914 366.437 46.4247C365.864 46.758 365.417 47.2247 365.097 47.8247C364.777 48.4247 364.617 49.1114 364.617 49.8847V50.1047C364.617 50.9047 364.791 51.6114 365.137 52.2247C365.497 52.8247 365.991 53.298 366.617 53.6447C367.257 53.978 367.984 54.1447 368.797 54.1447C369.437 54.1447 370.031 54.0314 370.577 53.8047C371.137 53.578 371.617 53.2314 372.017 52.7647L372.817 53.6847C372.351 54.2447 371.764 54.6714 371.057 54.9647C370.364 55.258 369.597 55.4047 368.757 55.4047ZM376.368 55.3047V44.8047H377.728V47.6647L377.588 47.1647C377.881 46.3647 378.374 45.758 379.068 45.3447C379.761 44.918 380.621 44.7047 381.648 44.7047V46.0847C381.594 46.0847 381.541 46.0847 381.488 46.0847C381.434 46.0714 381.381 46.0647 381.328 46.0647C380.221 46.0647 379.354 46.4047 378.728 47.0847C378.101 47.7514 377.788 48.7047 377.788 49.9447V55.3047H376.368ZM384.768 59.2847C384.275 59.2847 383.801 59.2047 383.348 59.0447C382.908 58.8847 382.528 58.6447 382.208 58.3247L382.868 57.2647C383.135 57.518 383.421 57.7114 383.728 57.8447C384.048 57.9914 384.401 58.0647 384.788 58.0647C385.255 58.0647 385.655 57.9314 385.988 57.6647C386.335 57.4114 386.661 56.958 386.968 56.3047L387.648 54.7647L387.808 54.5447L392.128 44.8047H393.528L388.268 56.5647C387.975 57.2447 387.648 57.7847 387.288 58.1847C386.941 58.5847 386.561 58.8647 386.148 59.0247C385.735 59.198 385.275 59.2847 384.768 59.2847ZM387.568 55.6047L382.728 44.8047H384.208L388.488 54.4447L387.568 55.6047ZM407.182 55.4247C406.129 55.4247 405.149 55.2514 404.242 54.9047C403.349 54.5447 402.569 54.0447 401.902 53.4047C401.249 52.7514 400.736 51.998 400.362 51.1447C400.002 50.278 399.822 49.3314 399.822 48.3047C399.822 47.278 400.002 46.338 400.362 45.4847C400.736 44.618 401.249 43.8647 401.902 43.2247C402.569 42.5714 403.349 42.0714 404.242 41.7247C405.136 41.3647 406.116 41.1847 407.182 41.1847C408.236 41.1847 409.209 41.3647 410.102 41.7247C410.996 42.0714 411.769 42.5647 412.422 43.2047C413.089 43.8447 413.602 44.598 413.962 45.4647C414.336 46.3314 414.522 47.278 414.522 48.3047C414.522 49.3314 414.336 50.278 413.962 51.1447C413.602 52.0114 413.089 52.7647 412.422 53.4047C411.769 54.0447 410.996 54.5447 410.102 54.9047C409.209 55.2514 408.236 55.4247 407.182 55.4247ZM407.182 54.1047C408.022 54.1047 408.796 53.9647 409.502 53.6847C410.222 53.3914 410.842 52.9847 411.362 52.4647C411.896 51.9314 412.309 51.318 412.602 50.6247C412.896 49.918 413.042 49.1447 413.042 48.3047C413.042 47.4647 412.896 46.698 412.602 46.0047C412.309 45.298 411.896 44.6847 411.362 44.1647C410.842 43.6314 410.222 43.2247 409.502 42.9447C408.796 42.6514 408.022 42.5047 407.182 42.5047C406.342 42.5047 405.562 42.6514 404.842 42.9447C404.122 43.2247 403.496 43.6314 402.962 44.1647C402.442 44.6847 402.029 45.298 401.722 46.0047C401.429 46.698 401.282 47.4647 401.282 48.3047C401.282 49.1314 401.429 49.898 401.722 50.6047C402.029 51.3114 402.442 51.9314 402.962 52.4647C403.496 52.9847 404.122 53.3914 404.842 53.6847C405.562 53.9647 406.342 54.1047 407.182 54.1047ZM417.78 55.3047V43.4847C417.78 42.5514 418.053 41.798 418.6 41.2247C419.146 40.6514 419.933 40.3647 420.96 40.3647C421.36 40.3647 421.746 40.418 422.12 40.5247C422.493 40.6314 422.806 40.798 423.06 41.0247L422.58 42.0847C422.38 41.9114 422.146 41.7847 421.88 41.7047C421.613 41.6114 421.326 41.5647 421.02 41.5647C420.42 41.5647 419.96 41.7314 419.64 42.0647C419.32 42.398 419.16 42.8914 419.16 43.5447V45.1447L419.2 45.8047V55.3047H417.78ZM415.9 45.9847V44.8047H422.4V45.9847H415.9ZM427.637 55.4047C426.65 55.4047 425.89 55.138 425.357 54.6047C424.824 54.0714 424.557 53.318 424.557 52.3447V42.4847H425.977V52.2647C425.977 52.878 426.13 53.3514 426.437 53.6847C426.757 54.018 427.21 54.1847 427.797 54.1847C428.424 54.1847 428.944 54.0047 429.357 53.6447L429.857 54.6647C429.577 54.918 429.237 55.1047 428.837 55.2247C428.45 55.3447 428.05 55.4047 427.637 55.4047ZM422.677 45.9847V44.8047H429.177V45.9847H422.677ZM436.531 55.4047C435.437 55.4047 434.477 55.178 433.651 54.7247C432.824 54.258 432.177 53.6247 431.711 52.8247C431.244 52.0114 431.011 51.0847 431.011 50.0447C431.011 49.0047 431.231 48.0847 431.671 47.2847C432.124 46.4847 432.737 45.858 433.511 45.4047C434.297 44.938 435.177 44.7047 436.151 44.7047C437.137 44.7047 438.011 44.9314 438.771 45.3847C439.544 45.8247 440.151 46.4514 440.591 47.2647C441.031 48.0647 441.251 48.9914 441.251 50.0447C441.251 50.1114 441.244 50.1847 441.231 50.2647C441.231 50.3314 441.231 50.4047 441.231 50.4847H432.091V49.4247H440.471L439.911 49.8447C439.911 49.0847 439.744 48.4114 439.411 47.8247C439.091 47.2247 438.651 46.758 438.091 46.4247C437.531 46.0914 436.884 45.9247 436.151 45.9247C435.431 45.9247 434.784 46.0914 434.211 46.4247C433.637 46.758 433.191 47.2247 432.871 47.8247C432.551 48.4247 432.391 49.1114 432.391 49.8847V50.1047C432.391 50.9047 432.564 51.6114 432.911 52.2247C433.271 52.8247 433.764 53.298 434.391 53.6447C435.031 53.978 435.757 54.1447 436.571 54.1447C437.211 54.1447 437.804 54.0314 438.351 53.8047C438.911 53.578 439.391 53.2314 439.791 52.7647L440.591 53.6847C440.124 54.2447 439.537 54.6714 438.831 54.9647C438.137 55.258 437.371 55.4047 436.531 55.4047ZM449.501 44.7047C450.354 44.7047 451.101 44.8714 451.741 45.2047C452.394 45.5247 452.901 46.018 453.261 46.6847C453.634 47.3514 453.821 48.1914 453.821 49.2047V55.3047H452.401V49.3447C452.401 48.238 452.121 47.4047 451.561 46.8447C451.014 46.2714 450.241 45.9847 449.241 45.9847C448.494 45.9847 447.841 46.138 447.281 46.4447C446.734 46.738 446.308 47.1714 446.001 47.7447C445.708 48.3047 445.561 48.9847 445.561 49.7847V55.3047H444.141V44.8047H445.501V47.6847L445.281 47.1447C445.614 46.3847 446.148 45.7914 446.881 45.3647C447.614 44.9247 448.488 44.7047 449.501 44.7047Z" fill="#323232"/>
<path d="M377.975 91.9141V78.5141L378.615 79.1941H374.675V77.9141H379.415V91.9141H377.975ZM386.942 92.0341C385.928 92.0341 384.968 91.8741 384.062 91.5541C383.168 91.2207 382.448 90.7807 381.902 90.2341L382.602 89.0941C383.055 89.5607 383.662 89.9474 384.422 90.2541C385.195 90.5607 386.035 90.7141 386.942 90.7141C388.102 90.7141 388.988 90.4607 389.602 89.9541C390.228 89.4474 390.542 88.7674 390.542 87.9141C390.542 87.0607 390.235 86.3807 389.622 85.8741C389.022 85.3674 388.068 85.1141 386.762 85.1141H385.762V84.0541L390.082 78.6341L390.282 79.1941H382.482V77.9141H391.482V78.9341L387.162 84.3541L386.462 83.8941H387.002C388.682 83.8941 389.935 84.2674 390.762 85.0141C391.602 85.7607 392.022 86.7207 392.022 87.8941C392.022 88.6807 391.835 89.3874 391.462 90.0141C391.088 90.6407 390.522 91.1341 389.762 91.4941C389.015 91.8541 388.075 92.0341 386.942 92.0341ZM395.131 92.0141C394.837 92.0141 394.584 91.9074 394.371 91.6941C394.171 91.4807 394.071 91.2207 394.071 90.9141C394.071 90.5941 394.171 90.3341 394.371 90.1341C394.584 89.9341 394.837 89.8341 395.131 89.8341C395.424 89.8341 395.671 89.9341 395.871 90.1341C396.084 90.3341 396.191 90.5941 396.191 90.9141C396.191 91.2207 396.084 91.4807 395.871 91.6941C395.671 91.9074 395.424 92.0141 395.131 92.0141ZM398.224 91.9141V90.8941L404.044 85.1941C404.578 84.6741 404.978 84.2207 405.244 83.8341C405.511 83.4341 405.691 83.0607 405.784 82.7141C405.878 82.3674 405.924 82.0407 405.924 81.7341C405.924 80.9207 405.644 80.2807 405.084 79.8141C404.538 79.3474 403.724 79.1141 402.644 79.1141C401.818 79.1141 401.084 79.2407 400.444 79.4941C399.818 79.7474 399.278 80.1407 398.824 80.6741L397.804 79.7941C398.351 79.1541 399.051 78.6607 399.904 78.3141C400.758 77.9674 401.711 77.7941 402.764 77.7941C403.711 77.7941 404.531 77.9474 405.224 78.2541C405.918 78.5474 406.451 78.9807 406.824 79.5541C407.211 80.1274 407.404 80.8007 407.404 81.5741C407.404 82.0274 407.338 82.4741 407.204 82.9141C407.084 83.3541 406.858 83.8207 406.524 84.3141C406.204 84.7941 405.731 85.3407 405.104 85.9541L399.764 91.1941L399.364 90.6341H408.044V91.9141H398.224ZM411.927 91.9141L421.487 77.9141H422.667L413.107 91.9141H411.927ZM413.007 85.4141C412.38 85.4141 411.827 85.2607 411.347 84.9541C410.867 84.6341 410.494 84.1874 410.227 83.6141C409.974 83.0407 409.847 82.3741 409.847 81.6141C409.847 80.8541 409.974 80.1874 410.227 79.6141C410.494 79.0407 410.867 78.6007 411.347 78.2941C411.827 77.9741 412.38 77.8141 413.007 77.8141C413.634 77.8141 414.18 77.9741 414.647 78.2941C415.127 78.6007 415.5 79.0407 415.767 79.6141C416.034 80.1874 416.167 80.8541 416.167 81.6141C416.167 82.3741 416.034 83.0407 415.767 83.6141C415.5 84.1874 415.127 84.6341 414.647 84.9541C414.18 85.2607 413.634 85.4141 413.007 85.4141ZM413.007 84.5141C413.66 84.5141 414.18 84.2607 414.567 83.7541C414.967 83.2341 415.167 82.5207 415.167 81.6141C415.167 80.7074 414.967 80.0007 414.567 79.4941C414.18 78.9741 413.66 78.7141 413.007 78.7141C412.34 78.7141 411.814 78.9741 411.427 79.4941C411.04 80.0007 410.847 80.7074 410.847 81.6141C410.847 82.5207 411.04 83.2341 411.427 83.7541C411.814 84.2607 412.34 84.5141 413.007 84.5141ZM421.587 92.0141C420.974 92.0141 420.427 91.8607 419.947 91.5541C419.467 91.2341 419.094 90.7874 418.827 90.2141C418.56 89.6407 418.427 88.9741 418.427 88.2141C418.427 87.4541 418.56 86.7874 418.827 86.2141C419.094 85.6407 419.467 85.2007 419.947 84.8941C420.427 84.5741 420.974 84.4141 421.587 84.4141C422.227 84.4141 422.78 84.5741 423.247 84.8941C423.727 85.2007 424.094 85.6407 424.347 86.2141C424.614 86.7874 424.747 87.4541 424.747 88.2141C424.747 88.9741 424.614 89.6407 424.347 90.2141C424.094 90.7874 423.727 91.2341 423.247 91.5541C422.78 91.8607 422.227 92.0141 421.587 92.0141ZM421.587 91.1141C422.24 91.1141 422.76 90.8607 423.147 90.3541C423.547 89.8341 423.747 89.1207 423.747 88.2141C423.747 87.3074 423.547 86.6007 423.147 86.0941C422.76 85.5741 422.24 85.3141 421.587 85.3141C420.934 85.3141 420.407 85.5741 420.007 86.0941C419.62 86.6007 419.427 87.3074 419.427 88.2141C419.427 89.1207 419.62 89.8341 420.007 90.3541C420.407 90.8607 420.934 91.1141 421.587 91.1141Z" fill="#323232"/>
<path d="M503.854 378.647C502.801 378.647 501.821 378.474 500.914 378.127C500.021 377.767 499.241 377.267 498.574 376.627C497.921 375.974 497.407 375.221 497.034 374.367C496.674 373.501 496.494 372.554 496.494 371.527C496.494 370.501 496.674 369.561 497.034 368.707C497.407 367.841 497.921 367.087 498.574 366.447C499.241 365.794 500.021 365.294 500.914 364.947C501.807 364.587 502.787 364.407 503.854 364.407C504.907 364.407 505.881 364.587 506.774 364.947C507.667 365.294 508.441 365.787 509.094 366.427C509.761 367.067 510.274 367.821 510.634 368.687C511.007 369.554 511.194 370.501 511.194 371.527C511.194 372.554 511.007 373.501 510.634 374.367C510.274 375.234 509.761 375.987 509.094 376.627C508.441 377.267 507.667 377.767 506.774 378.127C505.881 378.474 504.907 378.647 503.854 378.647ZM508.434 381.307C508.007 381.307 507.594 381.254 507.194 381.147C506.794 381.041 506.387 380.867 505.974 380.627C505.574 380.401 505.161 380.101 504.734 379.727C504.307 379.354 503.841 378.901 503.334 378.367L504.954 377.967C505.367 378.461 505.767 378.867 506.154 379.187C506.554 379.507 506.941 379.741 507.314 379.887C507.701 380.047 508.081 380.127 508.454 380.127C509.494 380.127 510.381 379.701 511.114 378.847L511.834 379.707C510.954 380.774 509.821 381.307 508.434 381.307ZM503.854 377.327C504.694 377.327 505.467 377.187 506.174 376.907C506.894 376.614 507.514 376.201 508.034 375.667C508.567 375.134 508.981 374.521 509.274 373.827C509.567 373.121 509.714 372.354 509.714 371.527C509.714 370.687 509.567 369.921 509.274 369.227C508.981 368.521 508.567 367.907 508.034 367.387C507.514 366.854 506.894 366.447 506.174 366.167C505.467 365.874 504.694 365.727 503.854 365.727C503.014 365.727 502.234 365.874 501.514 366.167C500.794 366.447 500.167 366.854 499.634 367.387C499.114 367.907 498.701 368.521 498.394 369.227C498.101 369.921 497.954 370.687 497.954 371.527C497.954 372.354 498.101 373.121 498.394 373.827C498.701 374.521 499.114 375.134 499.634 375.667C500.167 376.201 500.794 376.614 501.514 376.907C502.234 377.187 503.014 377.327 503.854 377.327ZM518.551 378.627C517.658 378.627 516.878 378.461 516.211 378.127C515.545 377.794 515.025 377.294 514.651 376.627C514.291 375.961 514.111 375.127 514.111 374.127V368.027H515.531V373.967C515.531 375.087 515.805 375.934 516.351 376.507C516.911 377.067 517.691 377.347 518.691 377.347C519.425 377.347 520.058 377.201 520.591 376.907C521.138 376.601 521.551 376.161 521.831 375.587C522.125 375.014 522.271 374.327 522.271 373.527V368.027H523.691V378.527H522.331V375.647L522.551 376.167C522.218 376.941 521.698 377.547 520.991 377.987C520.298 378.414 519.485 378.627 518.551 378.627ZM527.649 378.527V368.027H529.069V378.527H527.649ZM528.369 365.707C528.076 365.707 527.829 365.607 527.629 365.407C527.429 365.207 527.329 364.967 527.329 364.687C527.329 364.407 527.429 364.174 527.629 363.987C527.829 363.787 528.076 363.687 528.369 363.687C528.662 363.687 528.909 363.781 529.109 363.967C529.309 364.154 529.409 364.387 529.409 364.667C529.409 364.961 529.309 365.207 529.109 365.407C528.922 365.607 528.676 365.707 528.369 365.707ZM536.34 378.627C535.353 378.627 534.593 378.361 534.06 377.827C533.527 377.294 533.26 376.541 533.26 375.567V365.707H534.68V375.487C534.68 376.101 534.833 376.574 535.14 376.907C535.46 377.241 535.913 377.407 536.5 377.407C537.127 377.407 537.647 377.227 538.06 376.867L538.56 377.887C538.28 378.141 537.94 378.327 537.54 378.447C537.153 378.567 536.753 378.627 536.34 378.627ZM531.38 369.207V368.027H537.88V369.207H531.38ZM545.234 378.627C544.141 378.627 543.181 378.401 542.354 377.947C541.527 377.481 540.881 376.847 540.414 376.047C539.947 375.234 539.714 374.307 539.714 373.267C539.714 372.227 539.934 371.307 540.374 370.507C540.827 369.707 541.441 369.081 542.214 368.627C543.001 368.161 543.881 367.927 544.854 367.927C545.841 367.927 546.714 368.154 547.474 368.607C548.247 369.047 548.854 369.674 549.294 370.487C549.734 371.287 549.954 372.214 549.954 373.267C549.954 373.334 549.947 373.407 549.934 373.487C549.934 373.554 549.934 373.627 549.934 373.707H540.794V372.647H549.174L548.614 373.067C548.614 372.307 548.447 371.634 548.114 371.047C547.794 370.447 547.354 369.981 546.794 369.647C546.234 369.314 545.587 369.147 544.854 369.147C544.134 369.147 543.487 369.314 542.914 369.647C542.341 369.981 541.894 370.447 541.574 371.047C541.254 371.647 541.094 372.334 541.094 373.107V373.327C541.094 374.127 541.267 374.834 541.614 375.447C541.974 376.047 542.467 376.521 543.094 376.867C543.734 377.201 544.461 377.367 545.274 377.367C545.914 377.367 546.507 377.254 547.054 377.027C547.614 376.801 548.094 376.454 548.494 375.987L549.294 376.907C548.827 377.467 548.241 377.894 547.534 378.187C546.841 378.481 546.074 378.627 545.234 378.627ZM564.499 378.647C563.445 378.647 562.465 378.474 561.559 378.127C560.665 377.767 559.885 377.267 559.219 376.627C558.565 375.974 558.052 375.221 557.679 374.367C557.319 373.501 557.139 372.554 557.139 371.527C557.139 370.501 557.319 369.561 557.679 368.707C558.052 367.841 558.565 367.087 559.219 366.447C559.885 365.794 560.665 365.294 561.559 364.947C562.452 364.587 563.432 364.407 564.499 364.407C565.552 364.407 566.525 364.587 567.419 364.947C568.312 365.294 569.085 365.787 569.739 366.427C570.405 367.067 570.919 367.821 571.279 368.687C571.652 369.554 571.839 370.501 571.839 371.527C571.839 372.554 571.652 373.501 571.279 374.367C570.919 375.234 570.405 375.987 569.739 376.627C569.085 377.267 568.312 377.767 567.419 378.127C566.525 378.474 565.552 378.647 564.499 378.647ZM564.499 377.327C565.339 377.327 566.112 377.187 566.819 376.907C567.539 376.614 568.159 376.207 568.679 375.687C569.212 375.154 569.625 374.541 569.919 373.847C570.212 373.141 570.359 372.367 570.359 371.527C570.359 370.687 570.212 369.921 569.919 369.227C569.625 368.521 569.212 367.907 568.679 367.387C568.159 366.854 567.539 366.447 566.819 366.167C566.112 365.874 565.339 365.727 564.499 365.727C563.659 365.727 562.879 365.874 562.159 366.167C561.439 366.447 560.812 366.854 560.279 367.387C559.759 367.907 559.345 368.521 559.039 369.227C558.745 369.921 558.599 370.687 558.599 371.527C558.599 372.354 558.745 373.121 559.039 373.827C559.345 374.534 559.759 375.154 560.279 375.687C560.812 376.207 561.439 376.614 562.159 376.907C562.879 377.187 563.659 377.327 564.499 377.327ZM575.096 378.527V366.707C575.096 365.774 575.369 365.021 575.916 364.447C576.463 363.874 577.249 363.587 578.276 363.587C578.676 363.587 579.063 363.641 579.436 363.747C579.809 363.854 580.123 364.021 580.376 364.247L579.896 365.307C579.696 365.134 579.463 365.007 579.196 364.927C578.929 364.834 578.643 364.787 578.336 364.787C577.736 364.787 577.276 364.954 576.956 365.287C576.636 365.621 576.476 366.114 576.476 366.767V368.367L576.516 369.027V378.527H575.096ZM573.216 369.207V368.027H579.716V369.207H573.216ZM584.953 378.627C583.967 378.627 583.207 378.361 582.673 377.827C582.14 377.294 581.873 376.541 581.873 375.567V365.707H583.293V375.487C583.293 376.101 583.447 376.574 583.753 376.907C584.073 377.241 584.527 377.407 585.113 377.407C585.74 377.407 586.26 377.227 586.673 376.867L587.173 377.887C586.893 378.141 586.553 378.327 586.153 378.447C585.767 378.567 585.367 378.627 584.953 378.627ZM579.993 369.207V368.027H586.493V369.207H579.993ZM593.847 378.627C592.754 378.627 591.794 378.401 590.967 377.947C590.141 377.481 589.494 376.847 589.027 376.047C588.561 375.234 588.327 374.307 588.327 373.267C588.327 372.227 588.547 371.307 588.987 370.507C589.441 369.707 590.054 369.081 590.827 368.627C591.614 368.161 592.494 367.927 593.467 367.927C594.454 367.927 595.327 368.154 596.087 368.607C596.861 369.047 597.467 369.674 597.907 370.487C598.347 371.287 598.567 372.214 598.567 373.267C598.567 373.334 598.561 373.407 598.547 373.487C598.547 373.554 598.547 373.627 598.547 373.707H589.407V372.647H597.787L597.227 373.067C597.227 372.307 597.061 371.634 596.727 371.047C596.407 370.447 595.967 369.981 595.407 369.647C594.847 369.314 594.201 369.147 593.467 369.147C592.747 369.147 592.101 369.314 591.527 369.647C590.954 369.981 590.507 370.447 590.187 371.047C589.867 371.647 589.707 372.334 589.707 373.107V373.327C589.707 374.127 589.881 374.834 590.227 375.447C590.587 376.047 591.081 376.521 591.707 376.867C592.347 377.201 593.074 377.367 593.887 377.367C594.527 377.367 595.121 377.254 595.667 377.027C596.227 376.801 596.707 376.454 597.107 375.987L597.907 376.907C597.441 377.467 596.854 377.894 596.147 378.187C595.454 378.481 594.687 378.627 593.847 378.627ZM606.818 367.927C607.671 367.927 608.418 368.094 609.058 368.427C609.711 368.747 610.218 369.241 610.578 369.907C610.951 370.574 611.138 371.414 611.138 372.427V378.527H609.718V372.567C609.718 371.461 609.438 370.627 608.878 370.067C608.331 369.494 607.558 369.207 606.558 369.207C605.811 369.207 605.158 369.361 604.598 369.667C604.051 369.961 603.624 370.394 603.318 370.967C603.024 371.527 602.878 372.207 602.878 373.007V378.527H601.458V368.027H602.818V370.907L602.598 370.367C602.931 369.607 603.464 369.014 604.198 368.587C604.931 368.147 605.804 367.927 606.818 367.927Z" fill="#323232"/>
<path d="M530.937 411.459V410.419L538.357 401.139H539.957L532.597 410.419L531.817 410.179H543.077V411.459H530.937ZM538.837 415.139V411.459L538.877 410.179V406.939H540.277V415.139H538.837ZM544.1 415.139V414.119L549.92 408.419C550.454 407.899 550.854 407.445 551.12 407.059C551.387 406.659 551.567 406.285 551.66 405.939C551.754 405.592 551.8 405.265 551.8 404.959C551.8 404.145 551.52 403.505 550.96 403.039C550.414 402.572 549.6 402.339 548.52 402.339C547.694 402.339 546.96 402.465 546.32 402.719C545.694 402.972 545.154 403.365 544.7 403.899L543.68 403.019C544.227 402.379 544.927 401.885 545.78 401.539C546.634 401.192 547.587 401.019 548.64 401.019C549.587 401.019 550.407 401.172 551.1 401.479C551.794 401.772 552.327 402.205 552.7 402.779C553.087 403.352 553.28 404.025 553.28 404.799C553.28 405.252 553.214 405.699 553.08 406.139C552.96 406.579 552.734 407.045 552.4 407.539C552.08 408.019 551.607 408.565 550.98 409.179L545.64 414.419L545.24 413.859H553.92V415.139H544.1ZM557.003 415.239C556.709 415.239 556.456 415.132 556.243 414.919C556.043 414.705 555.943 414.445 555.943 414.139C555.943 413.819 556.043 413.559 556.243 413.359C556.456 413.159 556.709 413.059 557.003 413.059C557.296 413.059 557.543 413.159 557.743 413.359C557.956 413.559 558.063 413.819 558.063 414.139C558.063 414.445 557.956 414.705 557.743 414.919C557.543 415.132 557.296 415.239 557.003 415.239ZM562.367 415.139V401.739L563.007 402.419H559.067V401.139H563.807V415.139H562.367ZM569.033 415.139L578.593 401.139H579.773L570.213 415.139H569.033ZM570.113 408.639C569.487 408.639 568.933 408.485 568.453 408.179C567.973 407.859 567.6 407.412 567.333 406.839C567.08 406.265 566.953 405.599 566.953 404.839C566.953 404.079 567.08 403.412 567.333 402.839C567.6 402.265 567.973 401.825 568.453 401.519C568.933 401.199 569.487 401.039 570.113 401.039C570.74 401.039 571.287 401.199 571.753 401.519C572.233 401.825 572.607 402.265 572.873 402.839C573.14 403.412 573.273 404.079 573.273 404.839C573.273 405.599 573.14 406.265 572.873 406.839C572.607 407.412 572.233 407.859 571.753 408.179C571.287 408.485 570.74 408.639 570.113 408.639ZM570.113 407.739C570.767 407.739 571.287 407.485 571.673 406.979C572.073 406.459 572.273 405.745 572.273 404.839C572.273 403.932 572.073 403.225 571.673 402.719C571.287 402.199 570.767 401.939 570.113 401.939C569.447 401.939 568.92 402.199 568.533 402.719C568.147 403.225 567.953 403.932 567.953 404.839C567.953 405.745 568.147 406.459 568.533 406.979C568.92 407.485 569.447 407.739 570.113 407.739ZM578.693 415.239C578.08 415.239 577.533 415.085 577.053 414.779C576.573 414.459 576.2 414.012 575.933 413.439C575.667 412.865 575.533 412.199 575.533 411.439C575.533 410.679 575.667 410.012 575.933 409.439C576.2 408.865 576.573 408.425 577.053 408.119C577.533 407.799 578.08 407.639 578.693 407.639C579.333 407.639 579.887 407.799 580.353 408.119C580.833 408.425 581.2 408.865 581.453 409.439C581.72 410.012 581.853 410.679 581.853 411.439C581.853 412.199 581.72 412.865 581.453 413.439C581.2 414.012 580.833 414.459 580.353 414.779C579.887 415.085 579.333 415.239 578.693 415.239ZM578.693 414.339C579.347 414.339 579.867 414.085 580.253 413.579C580.653 413.059 580.853 412.345 580.853 411.439C580.853 410.532 580.653 409.825 580.253 409.319C579.867 408.799 579.347 408.539 578.693 408.539C578.04 408.539 577.513 408.799 577.113 409.319C576.727 409.825 576.533 410.532 576.533 411.439C576.533 412.345 576.727 413.059 577.113 413.579C577.513 414.085 578.04 414.339 578.693 414.339Z" fill="#323232"/>
<path d="M215.357 25V11H216.577L226.237 23.16H225.597V11H227.057V25H225.837L216.197 12.84H216.837V25H215.357ZM235.787 25.1C234.693 25.1 233.733 24.8733 232.907 24.42C232.08 23.9533 231.433 23.32 230.967 22.52C230.5 21.7067 230.267 20.78 230.267 19.74C230.267 18.7 230.487 17.78 230.927 16.98C231.38 16.18 231.993 15.5533 232.767 15.1C233.553 14.6333 234.433 14.4 235.407 14.4C236.393 14.4 237.267 14.6267 238.027 15.08C238.8 15.52 239.407 16.1467 239.847 16.96C240.287 17.76 240.507 18.6867 240.507 19.74C240.507 19.8067 240.5 19.88 240.487 19.96C240.487 20.0267 240.487 20.1 240.487 20.18H231.347V19.12H239.727L239.167 19.54C239.167 18.78 239 18.1067 238.667 17.52C238.347 16.92 237.907 16.4533 237.347 16.12C236.787 15.7867 236.14 15.62 235.407 15.62C234.687 15.62 234.04 15.7867 233.467 16.12C232.893 16.4533 232.447 16.92 232.127 17.52C231.807 18.12 231.647 18.8067 231.647 19.58V19.8C231.647 20.6 231.82 21.3067 232.167 21.92C232.527 22.52 233.02 22.9933 233.647 23.34C234.287 23.6733 235.013 23.84 235.827 23.84C236.467 23.84 237.06 23.7267 237.607 23.5C238.167 23.2733 238.647 22.9267 239.047 22.46L239.847 23.38C239.38 23.94 238.793 24.3667 238.087 24.66C237.393 24.9533 236.627 25.1 235.787 25.1ZM245.902 25L241.242 14.5H242.722L247.002 24.24H246.302L250.642 14.5H252.042L247.362 25H245.902ZM258.209 25.1C257.115 25.1 256.155 24.8733 255.329 24.42C254.502 23.9533 253.855 23.32 253.389 22.52C252.922 21.7067 252.689 20.78 252.689 19.74C252.689 18.7 252.909 17.78 253.349 16.98C253.802 16.18 254.415 15.5533 255.189 15.1C255.975 14.6333 256.855 14.4 257.829 14.4C258.815 14.4 259.689 14.6267 260.449 15.08C261.222 15.52 261.829 16.1467 262.269 16.96C262.709 17.76 262.929 18.6867 262.929 19.74C262.929 19.8067 262.922 19.88 262.909 19.96C262.909 20.0267 262.909 20.1 262.909 20.18H253.769V19.12H262.149L261.589 19.54C261.589 18.78 261.422 18.1067 261.089 17.52C260.769 16.92 260.329 16.4533 259.769 16.12C259.209 15.7867 258.562 15.62 257.829 15.62C257.109 15.62 256.462 15.7867 255.889 16.12C255.315 16.4533 254.869 16.92 254.549 17.52C254.229 18.12 254.069 18.8067 254.069 19.58V19.8C254.069 20.6 254.242 21.3067 254.589 21.92C254.949 22.52 255.442 22.9933 256.069 23.34C256.709 23.6733 257.435 23.84 258.249 23.84C258.889 23.84 259.482 23.7267 260.029 23.5C260.589 23.2733 261.069 22.9267 261.469 22.46L262.269 23.38C261.802 23.94 261.215 24.3667 260.509 24.66C259.815 24.9533 259.049 25.1 258.209 25.1ZM265.819 25V14.5H267.179V17.36L267.039 16.86C267.332 16.06 267.826 15.4533 268.519 15.04C269.212 14.6133 270.072 14.4 271.099 14.4V15.78C271.046 15.78 270.992 15.78 270.939 15.78C270.886 15.7667 270.832 15.76 270.779 15.76C269.672 15.76 268.806 16.1 268.179 16.78C267.552 17.4467 267.239 18.4 267.239 19.64V25H265.819Z" fill="#323232"/>
<path d="M224.317 61.7294C223.317 61.7294 222.364 61.5694 221.457 61.2494C220.551 60.916 219.831 60.476 219.297 59.9294L219.997 58.7894C220.437 59.256 221.037 59.6427 221.797 59.9494C222.571 60.256 223.404 60.4094 224.297 60.4094C225.484 60.4094 226.384 60.1494 226.997 59.6294C227.624 59.096 227.937 58.4027 227.937 57.5494C227.937 56.9494 227.791 56.436 227.497 56.0094C227.217 55.5694 226.737 55.2294 226.057 54.9894C225.377 54.7494 224.444 54.6294 223.257 54.6294H220.277L220.997 47.6094H228.657V48.8894H221.577L222.317 48.1894L221.697 54.0694L220.957 53.3494H223.577C224.991 53.3494 226.124 53.5227 226.977 53.8694C227.831 54.216 228.444 54.7027 228.817 55.3294C229.204 55.9427 229.397 56.6627 229.397 57.4894C229.397 58.276 229.211 58.996 228.837 59.6494C228.464 60.2894 227.904 60.796 227.157 61.1694C226.411 61.5427 225.464 61.7294 224.317 61.7294ZM232.306 61.7094C232.012 61.7094 231.759 61.6027 231.546 61.3894C231.346 61.176 231.246 60.916 231.246 60.6094C231.246 60.2894 231.346 60.0294 231.546 59.8294C231.759 59.6294 232.012 59.5294 232.306 59.5294C232.599 59.5294 232.846 59.6294 233.046 59.8294C233.259 60.0294 233.366 60.2894 233.366 60.6094C233.366 60.916 233.259 61.176 233.046 61.3894C232.846 61.6027 232.599 61.7094 232.306 61.7094ZM239.839 61.7294C238.826 61.7294 237.866 61.5694 236.959 61.2494C236.066 60.916 235.346 60.476 234.799 59.9294L235.499 58.7894C235.952 59.256 236.559 59.6427 237.319 59.9494C238.092 60.256 238.932 60.4094 239.839 60.4094C240.999 60.4094 241.886 60.156 242.499 59.6494C243.126 59.1427 243.439 58.4627 243.439 57.6094C243.439 56.756 243.132 56.076 242.519 55.5694C241.919 55.0627 240.966 54.8094 239.659 54.8094H238.659V53.7494L242.979 48.3294L243.179 48.8894H235.379V47.6094H244.379V48.6294L240.059 54.0494L239.359 53.5894H239.899C241.579 53.5894 242.832 53.9627 243.659 54.7094C244.499 55.456 244.919 56.416 244.919 57.5894C244.919 58.376 244.732 59.0827 244.359 59.7094C243.986 60.336 243.419 60.8294 242.659 61.1894C241.912 61.5494 240.972 61.7294 239.839 61.7294ZM248.633 61.6094L258.193 47.6094H259.373L249.813 61.6094H248.633ZM249.713 55.1094C249.086 55.1094 248.533 54.956 248.053 54.6494C247.573 54.3294 247.2 53.8827 246.933 53.3094C246.68 52.736 246.553 52.0694 246.553 51.3094C246.553 50.5494 246.68 49.8827 246.933 49.3094C247.2 48.736 247.573 48.296 248.053 47.9894C248.533 47.6694 249.086 47.5094 249.713 47.5094C250.34 47.5094 250.886 47.6694 251.353 47.9894C251.833 48.296 252.206 48.736 252.473 49.3094C252.74 49.8827 252.873 50.5494 252.873 51.3094C252.873 52.0694 252.74 52.736 252.473 53.3094C252.206 53.8827 251.833 54.3294 251.353 54.6494C250.886 54.956 250.34 55.1094 249.713 55.1094ZM249.713 54.2094C250.366 54.2094 250.886 53.956 251.273 53.4494C251.673 52.9294 251.873 52.216 251.873 51.3094C251.873 50.4027 251.673 49.696 251.273 49.1894C250.886 48.6694 250.366 48.4094 249.713 48.4094C249.046 48.4094 248.52 48.6694 248.133 49.1894C247.746 49.696 247.553 50.4027 247.553 51.3094C247.553 52.216 247.746 52.9294 248.133 53.4494C248.52 53.956 249.046 54.2094 249.713 54.2094ZM258.293 61.7094C257.68 61.7094 257.133 61.556 256.653 61.2494C256.173 60.9294 255.8 60.4827 255.533 59.9094C255.266 59.336 255.133 58.6694 255.133 57.9094C255.133 57.1494 255.266 56.4827 255.533 55.9094C255.8 55.336 256.173 54.896 256.653 54.5894C257.133 54.2694 257.68 54.1094 258.293 54.1094C258.933 54.1094 259.486 54.2694 259.953 54.5894C260.433 54.896 260.8 55.336 261.053 55.9094C261.32 56.4827 261.453 57.1494 261.453 57.9094C261.453 58.6694 261.32 59.336 261.053 59.9094C260.8 60.4827 260.433 60.9294 259.953 61.2494C259.486 61.556 258.933 61.7094 258.293 61.7094ZM258.293 60.8094C258.946 60.8094 259.466 60.556 259.853 60.0494C260.253 59.5294 260.453 58.816 260.453 57.9094C260.453 57.0027 260.253 56.296 259.853 55.7894C259.466 55.2694 258.946 55.0094 258.293 55.0094C257.64 55.0094 257.113 55.2694 256.713 55.7894C256.326 56.296 256.133 57.0027 256.133 57.9094C256.133 58.816 256.326 59.5294 256.713 60.0494C257.113 60.556 257.64 60.8094 258.293 60.8094Z" fill="#323232"/>
<path d="M289.212 72C293.2 72 297.182 72.1094 301.164 72.3283C305.143 72.5472 309.116 72.8727 313.079 73.3105C317.041 73.7455 320.99 74.2899 324.921 74.9409C328.855 75.5948 332.767 76.3525 336.66 77.2196C340.549 78.0867 344.413 79.0605 348.252 80.1381C352.091 81.2185 355.896 82.3999 359.668 83.6879C363.442 84.976 367.177 86.3651 370.873 87.858C374.572 89.3481 378.225 90.942 381.834 92.6342C385.443 94.3263 389.004 96.1139 392.518 98.0025C396.028 99.8883 399.485 101.872 402.889 103.949C406.29 106.025 409.636 108.195 412.919 110.454C416.205 112.716 419.424 115.062 422.578 117.5C425.735 119.936 428.822 122.456 431.838 125.063C434.855 127.667 437.799 130.355 440.67 133.122C443.538 135.889 446.33 138.732 449.046 141.653C451.76 144.572 454.392 147.566 456.943 150.63L289.212 290.212V72Z" fill="#4E6A03"/>
<path d="M449.756 142.422C451.83 144.675 453.859 146.971 455.837 149.311C457.816 151.652 459.744 154.031 461.621 156.453C463.498 158.872 465.325 161.333 467.102 163.831C468.875 166.328 470.595 168.862 472.265 171.433C473.932 174.003 475.546 176.607 477.103 179.245C478.66 181.883 480.162 184.555 481.61 187.254C483.055 189.957 484.441 192.687 485.774 195.448C487.104 198.207 488.376 200.993 489.588 203.808C490.803 206.62 491.956 209.46 493.048 212.322C494.142 215.185 495.175 218.067 496.149 220.974C497.12 223.878 498.032 226.802 498.879 229.749C499.73 232.693 500.515 235.653 501.239 238.631C501.963 241.605 502.626 244.597 503.223 247.602C503.821 250.608 504.357 253.624 504.829 256.652C505.3 259.68 505.707 262.716 506.049 265.761C506.394 268.806 506.672 271.856 506.888 274.912C507.102 277.968 507.253 281.027 507.337 284.091C507.424 287.153 507.447 290.217 507.402 293.279C507.36 296.343 507.253 299.405 507.079 302.464C506.908 305.523 506.672 308.579 506.372 311.626C506.069 314.676 505.704 317.718 505.278 320.752C504.848 323.785 504.354 326.808 503.799 329.822C503.243 332.836 502.623 335.835 501.941 338.821C501.259 341.81 500.513 344.782 499.704 347.737C498.899 350.692 498.029 353.63 497.097 356.548C496.166 359.467 495.172 362.365 494.12 365.242C493.065 368.121 491.951 370.972 490.778 373.804C489.605 376.635 488.373 379.439 487.079 382.217C485.788 384.995 484.439 387.745 483.03 390.467C481.624 393.189 480.159 395.877 478.638 398.538C477.117 401.198 475.54 403.825 473.91 406.418C472.276 409.011 470.59 411.57 468.853 414.093C467.113 416.615 465.32 419.099 463.476 421.546C461.632 423.993 459.738 426.401 457.791 428.766C455.846 431.135 453.851 433.458 451.808 435.743C449.765 438.024 447.674 440.264 445.536 442.458C443.397 444.655 441.217 446.802 438.986 448.907C436.758 451.009 434.488 453.066 432.173 455.072C429.857 457.078 427.503 459.037 425.104 460.945C422.707 462.854 420.271 464.711 417.796 466.516C415.318 468.32 412.807 470.074 410.259 471.772C407.708 473.472 405.123 475.117 402.505 476.708C399.887 478.299 397.235 479.834 394.552 481.313C391.87 482.792 389.156 484.215 386.411 485.578C383.67 486.945 380.9 488.25 378.099 489.499C375.302 490.748 372.478 491.935 369.63 493.065C366.782 494.194 363.911 495.263 361.018 496.27C358.125 497.28 355.212 498.226 352.279 499.113C349.344 499.997 346.395 500.822 343.426 501.582C340.459 502.343 337.476 503.042 334.479 503.679C331.48 504.313 328.471 504.885 325.449 505.393C322.429 505.904 319.399 506.347 316.357 506.729C313.318 507.111 310.27 507.428 307.217 507.68C304.164 507.933 301.105 508.121 298.043 508.244C294.982 508.368 291.92 508.43 288.856 508.424C285.791 508.418 282.73 508.348 279.668 508.216C276.607 508.082 273.551 507.882 270.497 507.621C267.444 507.358 264.399 507.029 261.36 506.639C258.321 506.249 255.293 505.795 252.271 505.275C249.251 504.756 246.246 504.173 243.249 503.527C240.255 502.884 237.274 502.174 234.308 501.403C231.342 500.634 228.396 499.8 225.466 498.905C222.533 498.01 219.623 497.053 216.733 496.034C213.845 495.019 210.977 493.941 208.132 492.802L289.212 290.212L449.756 142.422Z" fill="#C0DE73"/>
<path d="M218.358 496.603C215.639 495.669 212.939 494.681 210.257 493.64C207.577 492.602 204.916 491.507 202.278 490.362C199.641 489.215 197.025 488.019 194.435 486.77C191.845 485.519 189.28 484.22 186.74 482.87C184.201 481.52 181.689 480.12 179.206 478.669C176.722 477.218 174.269 475.719 171.845 474.173C169.42 472.627 167.027 471.033 164.664 469.391C162.304 467.75 159.975 466.063 157.682 464.329C155.386 462.595 153.127 460.816 150.902 458.994C148.677 457.17 146.491 455.304 144.338 453.396C142.189 451.485 140.076 449.535 138.002 447.542C135.928 445.55 133.896 443.515 131.901 441.441C129.909 439.368 127.958 437.257 126.047 435.108C124.139 432.955 122.273 430.769 120.449 428.544C118.625 426.321 116.846 424.06 115.114 421.767C113.38 419.471 111.691 417.142 110.049 414.782C108.407 412.422 106.813 410.028 105.267 407.604C103.718 405.179 102.22 402.724 100.772 400.24C99.3208 397.757 97.9205 395.245 96.5679 392.708C95.2181 390.169 93.9188 387.604 92.6672 385.014C91.4185 382.424 90.2202 379.808 89.0753 377.17C87.9303 374.533 86.8359 371.875 85.7948 369.192C84.7537 366.512 83.7659 363.81 82.8314 361.091C81.8969 358.371 81.0186 355.633 80.1908 352.88C79.3657 350.124 78.594 347.354 77.8784 344.568C77.1628 341.784 76.5006 338.986 75.8944 336.174C75.2883 333.362 74.7383 330.539 74.2444 327.705C73.7505 324.874 73.3127 322.031 72.931 319.18C72.5494 316.329 72.2239 313.472 71.9545 310.609C71.6879 307.747 71.4746 304.879 71.3203 302.006C71.1631 299.135 71.0649 296.261 71.0228 293.385C70.9807 290.508 70.9976 287.635 71.0677 284.759C71.1407 281.885 71.2698 279.011 71.455 276.141C71.6402 273.273 71.8815 270.408 72.1818 267.545C72.4792 264.686 72.8356 261.832 73.2453 258.986C73.6579 256.138 74.1265 253.301 74.6485 250.475C75.1732 247.646 75.7513 244.829 76.3883 242.025C77.0225 239.219 77.7129 236.427 78.4593 233.652C79.203 230.873 80.0055 228.112 80.8586 225.365C81.7145 222.617 82.6238 219.89 83.5863 217.182C84.5488 214.471 85.5647 211.78 86.631 209.111C87.7002 206.44 88.8227 203.793 89.9957 201.167C91.1687 198.54 92.395 195.939 93.6719 193.363C94.9487 190.786 96.2732 188.236 97.6511 185.71C99.0289 183.184 100.457 180.69 101.933 178.22C103.409 175.751 104.933 173.315 106.505 170.904C108.076 168.497 109.695 166.123 111.362 163.776C113.029 161.433 114.741 159.124 116.501 156.848C118.257 154.569 120.059 152.33 121.905 150.124C123.752 147.919 125.64 145.752 127.574 143.622C129.505 141.492 131.48 139.399 133.492 137.347C135.507 135.296 137.564 133.284 139.657 131.311C141.751 129.341 143.884 127.413 146.056 125.525C148.225 123.639 150.433 121.795 152.676 119.997C154.918 118.195 157.196 116.441 159.509 114.732C161.824 113.023 164.167 111.359 166.547 109.743C168.926 108.126 171.334 106.558 173.776 105.037C176.217 103.516 178.686 102.042 181.184 100.617C183.684 99.194 186.21 97.819 188.764 96.4972C191.317 95.1727 193.893 93.8987 196.498 92.6779C199.102 91.4544 201.728 90.2842 204.377 89.1674C207.027 88.0505 209.698 86.9841 212.389 85.9711C215.083 84.958 217.794 84.0011 220.522 83.0947C223.252 82.1883 225.999 81.338 228.764 80.541L289.213 290.214L218.358 496.603Z" fill="#739D03"/>
<path d="M218.358 83.8226C229.766 79.9079 241.409 76.9614 253.296 74.9774C265.183 72.9934 277.149 72 289.19 72L289.213 290.212L218.358 83.8226Z" fill="#89BC03"/>
</svg>
