<svg width="147" height="150" viewBox="0 0 147 150" fill="none" xmlns="http://www.w3.org/2000/svg">
<path d="M12.8289 144V126.5H20.7789C22.6789 126.5 24.3539 126.867 25.8039 127.6C27.2539 128.317 28.3872 129.325 29.2039 130.625C30.0206 131.925 30.4289 133.467 30.4289 135.25C30.4289 137.017 30.0206 138.558 29.2039 139.875C28.3872 141.175 27.2539 142.192 25.8039 142.925C24.3539 143.642 22.6789 144 20.7789 144H12.8289ZM16.8789 140.675H20.5789C21.7456 140.675 22.7539 140.458 23.6039 140.025C24.4706 139.575 25.1372 138.942 25.6039 138.125C26.0872 137.308 26.3289 136.35 26.3289 135.25C26.3289 134.133 26.0872 133.175 25.6039 132.375C25.1372 131.558 24.4706 130.933 23.6039 130.5C22.7539 130.05 21.7456 129.825 20.5789 129.825H16.8789V140.675ZM40.6332 144.2C39.0999 144.2 37.7499 143.9 36.5832 143.3C35.4332 142.7 34.5415 141.883 33.9082 140.85C33.2749 139.8 32.9582 138.608 32.9582 137.275C32.9582 135.925 33.2665 134.733 33.8832 133.7C34.5165 132.65 35.3749 131.833 36.4582 131.25C37.5415 130.65 38.7665 130.35 40.1332 130.35C41.4499 130.35 42.6332 130.633 43.6832 131.2C44.7499 131.75 45.5915 132.55 46.2082 133.6C46.8249 134.633 47.1332 135.875 47.1332 137.325C47.1332 137.475 47.1249 137.65 47.1082 137.85C47.0915 138.033 47.0749 138.208 47.0582 138.375H36.1332V136.1H45.0082L43.5082 136.775C43.5082 136.075 43.3665 135.467 43.0832 134.95C42.7999 134.433 42.4082 134.033 41.9082 133.75C41.4082 133.45 40.8249 133.3 40.1582 133.3C39.4915 133.3 38.8999 133.45 38.3832 133.75C37.8832 134.033 37.4915 134.442 37.2082 134.975C36.9249 135.492 36.7832 136.108 36.7832 136.825V137.425C36.7832 138.158 36.9415 138.808 37.2582 139.375C37.5915 139.925 38.0499 140.35 38.6332 140.65C39.2332 140.933 39.9332 141.075 40.7332 141.075C41.4499 141.075 42.0749 140.967 42.6082 140.75C43.1582 140.533 43.6582 140.208 44.1082 139.775L46.1832 142.025C45.5665 142.725 44.7915 143.267 43.8582 143.65C42.9249 144.017 41.8499 144.2 40.6332 144.2ZM55.0047 144.2C53.8547 144.2 52.7464 144.067 51.6797 143.8C50.6297 143.517 49.7964 143.167 49.1797 142.75L50.4797 139.95C51.0964 140.333 51.8214 140.65 52.6547 140.9C53.5047 141.133 54.338 141.25 55.1547 141.25C56.0547 141.25 56.688 141.142 57.0547 140.925C57.438 140.708 57.6297 140.408 57.6297 140.025C57.6297 139.708 57.4797 139.475 57.1797 139.325C56.8964 139.158 56.513 139.033 56.0297 138.95C55.5464 138.867 55.013 138.783 54.4297 138.7C53.863 138.617 53.288 138.508 52.7047 138.375C52.1214 138.225 51.588 138.008 51.1047 137.725C50.6214 137.442 50.2297 137.058 49.9297 136.575C49.6464 136.092 49.5047 135.467 49.5047 134.7C49.5047 133.85 49.7464 133.1 50.2297 132.45C50.7297 131.8 51.4464 131.292 52.3797 130.925C53.313 130.542 54.4297 130.35 55.7297 130.35C56.6464 130.35 57.5797 130.45 58.5297 130.65C59.4797 130.85 60.2714 131.142 60.9047 131.525L59.6047 134.3C58.9547 133.917 58.2964 133.658 57.6297 133.525C56.9797 133.375 56.3464 133.3 55.7297 133.3C54.863 133.3 54.2297 133.417 53.8297 133.65C53.4297 133.883 53.2297 134.183 53.2297 134.55C53.2297 134.883 53.3714 135.133 53.6547 135.3C53.9547 135.467 54.3464 135.6 54.8297 135.7C55.313 135.8 55.838 135.892 56.4047 135.975C56.988 136.042 57.5714 136.15 58.1547 136.3C58.738 136.45 59.263 136.667 59.7297 136.95C60.213 137.217 60.6047 137.592 60.9047 138.075C61.2047 138.542 61.3547 139.158 61.3547 139.925C61.3547 140.758 61.1047 141.5 60.6047 142.15C60.1047 142.783 59.3797 143.283 58.4297 143.65C57.4964 144.017 56.3547 144.2 55.0047 144.2ZM64.5109 144V130.55H68.4109V144H64.5109ZM66.4609 128.675C65.7443 128.675 65.1609 128.467 64.7109 128.05C64.2609 127.633 64.0359 127.117 64.0359 126.5C64.0359 125.883 64.2609 125.367 64.7109 124.95C65.1609 124.533 65.7443 124.325 66.4609 124.325C67.1776 124.325 67.7609 124.525 68.2109 124.925C68.6609 125.308 68.8859 125.808 68.8859 126.425C68.8859 127.075 68.6609 127.617 68.2109 128.05C67.7776 128.467 67.1943 128.675 66.4609 128.675ZM79.1055 149.05C77.8388 149.05 76.6138 148.892 75.4305 148.575C74.2638 148.275 73.2888 147.817 72.5055 147.2L74.0555 144.4C74.6221 144.867 75.3388 145.233 76.2055 145.5C77.0888 145.783 77.9555 145.925 78.8055 145.925C80.1888 145.925 81.1888 145.617 81.8055 145C82.4388 144.383 82.7555 143.467 82.7555 142.25V140.225L83.0055 136.85L82.9555 133.45V130.55H86.6555V141.75C86.6555 144.25 86.0055 146.092 84.7055 147.275C83.4055 148.458 81.5388 149.05 79.1055 149.05ZM78.5055 143.35C77.2555 143.35 76.1221 143.083 75.1055 142.55C74.1055 142 73.2971 141.242 72.6805 140.275C72.0805 139.292 71.7805 138.15 71.7805 136.85C71.7805 135.533 72.0805 134.392 72.6805 133.425C73.2971 132.442 74.1055 131.683 75.1055 131.15C76.1221 130.617 77.2555 130.35 78.5055 130.35C79.6388 130.35 80.6388 130.583 81.5055 131.05C82.3721 131.5 83.0471 132.208 83.5305 133.175C84.0138 134.125 84.2555 135.35 84.2555 136.85C84.2555 138.333 84.0138 139.558 83.5305 140.525C83.0471 141.475 82.3721 142.183 81.5055 142.65C80.6388 143.117 79.6388 143.35 78.5055 143.35ZM79.2805 140.15C79.9638 140.15 80.5721 140.017 81.1055 139.75C81.6388 139.467 82.0555 139.075 82.3555 138.575C82.6555 138.075 82.8055 137.5 82.8055 136.85C82.8055 136.183 82.6555 135.608 82.3555 135.125C82.0555 134.625 81.6388 134.242 81.1055 133.975C80.5721 133.692 79.9638 133.55 79.2805 133.55C78.5971 133.55 77.9888 133.692 77.4555 133.975C76.9221 134.242 76.4971 134.625 76.1805 135.125C75.8805 135.608 75.7305 136.183 75.7305 136.85C75.7305 137.5 75.8805 138.075 76.1805 138.575C76.4971 139.075 76.9221 139.467 77.4555 139.75C77.9888 140.017 78.5971 140.15 79.2805 140.15ZM99.2104 130.35C100.277 130.35 101.227 130.567 102.06 131C102.91 131.417 103.577 132.067 104.06 132.95C104.544 133.817 104.785 134.933 104.785 136.3V144H100.885V136.9C100.885 135.817 100.644 135.017 100.16 134.5C99.6937 133.983 99.027 133.725 98.1604 133.725C97.5437 133.725 96.9854 133.858 96.4854 134.125C96.002 134.375 95.6187 134.767 95.3354 135.3C95.0687 135.833 94.9354 136.517 94.9354 137.35V144H91.0354V130.55H94.7604V134.275L94.0604 133.15C94.5437 132.25 95.2354 131.558 96.1354 131.075C97.0354 130.592 98.0604 130.35 99.2104 130.35Z" fill="#739D03"/>
<path d="M138.722 89.9297C136.339 91.6754 133.361 91.8603 130.784 90.4432L125.691 87.65C121.09 85.1034 115.268 85.9351 111.55 89.6525C107.895 93.3082 107.001 98.8636 109.363 103.474L119.468 123.262C121.131 126.507 121.275 130.317 119.878 133.695C118.543 136.94 115.894 139.426 112.608 140.504C90.8484 147.6 62.4961 139.682 39.8431 120.336C53.5828 109.399 85.981 83.0393 99.9671 66.64L121.45 41.4711C131.708 53.9477 138.865 68.4062 141.628 82.5567C142.182 85.432 141.104 88.1943 138.722 89.9297ZM4.92904 142.968V142.866C4.92904 131.416 11.6243 121.25 22.0061 116.803L28.9581 123.755C25.4256 134.414 15.9475 141.972 4.92904 142.968ZM17.991 18.1197C38.1385 -2.00721 76.4207 1.78199 106.457 26.4272L72.0462 55.8988C60.6888 65.6336 36.4236 93.2568 25.631 105.713C1.33495 75.5431 -2.01269 38.1234 17.991 18.1197ZM64.7142 93.3903L53.3055 81.9816C54.5686 80.6056 55.8214 79.2501 57.0639 77.9254L68.9039 89.7654C67.5176 90.9874 66.1108 92.1889 64.7142 93.3903ZM32.9732 119.483L26.1855 112.624C30.3239 107.808 39.9458 96.7174 49.9887 85.6373L60.9456 96.6045C48.931 106.801 37.7585 115.704 32.9732 119.483ZM135.764 7.8098C136.966 6.78292 138.773 6.83426 139.903 7.95356C141.053 9.12421 141.084 10.9726 139.882 12.2665L96.219 63.4464C90.6636 69.9568 81.9145 78.254 72.611 86.4999L60.4321 74.3108C66.2032 68.1906 71.5122 62.861 75.2603 59.6366L135.764 7.8098ZM124.695 37.6613L143.548 15.5628C146.516 12.4 146.434 7.53254 143.374 4.4827C140.437 1.53554 135.672 1.37124 132.55 4.08221L110.236 23.1823C77.7043 -4.00963 36.9678 -7.82964 14.5099 14.6386C-7.45518 36.5831 -4.03565 77.258 22.345 109.523C21.2052 110.837 20.4966 111.679 20.3015 111.895C20.2091 112.008 20.1577 112.151 20.0961 112.285C7.86593 117.491 0 129.413 0 142.866V145.535C0 146.891 1.10903 148 2.46452 148C16.6663 148 29.2251 138.707 33.6613 125.224C33.9693 124.977 34.7395 124.371 35.8999 123.457C54.0654 139.251 75.9586 147.979 95.7466 147.979C102.165 147.979 108.367 147.066 114.128 145.176C118.79 143.656 122.548 140.165 124.438 135.575C126.389 130.861 126.173 125.563 123.852 121.024L113.758 101.225C112.382 98.535 112.885 95.2798 115.032 93.1336C117.209 90.9566 120.618 90.474 123.318 91.9629L128.402 94.7561C132.643 97.0871 137.715 96.7688 141.628 93.9037C145.53 91.0593 147.378 86.3459 146.454 81.6119C143.445 66.1779 135.908 51.0519 124.695 37.6613Z" fill="#A8A8A8" fill-opacity="0.1"/>
<path d="M78.8636 19.8451C82.9506 19.8451 86.2572 23.1516 86.2572 27.2386C86.2572 31.3153 82.9506 34.6322 78.8636 34.6322C74.7869 34.6322 71.4701 31.3153 71.4701 27.2386C71.4701 23.1516 74.7869 19.8451 78.8636 19.8451ZM78.8636 39.5612C85.6616 39.5612 91.1862 34.0366 91.1862 27.2386C91.1862 20.4406 85.6616 14.916 78.8636 14.916C72.0656 14.916 66.541 20.4406 66.541 27.2386C66.541 34.0366 72.0656 39.5612 78.8636 39.5612Z" fill="#A8A8A8" fill-opacity="0.1"/>
<path d="M71.471 125.82C67.3943 125.82 64.0775 122.503 64.0775 118.426C64.0775 114.339 67.3943 111.033 71.471 111.033C75.558 111.033 78.8646 114.339 78.8646 118.426C78.8646 122.503 75.558 125.82 71.471 125.82ZM71.471 106.104C64.6731 106.104 59.1484 111.628 59.1484 118.426C59.1484 125.224 64.6731 130.749 71.471 130.749C78.269 130.749 83.7936 125.224 83.7936 118.426C83.7936 111.628 78.269 106.104 71.471 106.104Z" fill="#A8A8A8" fill-opacity="0.1"/>
<path d="M138.722 89.9297C136.339 91.6754 133.361 91.8603 130.784 90.4432L125.691 87.65C121.09 85.1034 115.268 85.9351 111.55 89.6525C107.895 93.3082 107.001 98.8636 109.363 103.474L119.468 123.262C121.131 126.507 121.275 130.317 119.878 133.695C118.543 136.94 115.894 139.426 112.608 140.504C90.8484 147.6 62.4961 139.682 39.8431 120.336C53.5828 109.399 85.981 83.0393 99.9671 66.64L121.45 41.4711C131.708 53.9477 138.865 68.4062 141.628 82.5567C142.182 85.432 141.104 88.1943 138.722 89.9297ZM4.92904 142.968V142.866C4.92904 131.416 11.6243 121.25 22.0061 116.803L28.9581 123.755C25.4256 134.414 15.9475 141.972 4.92904 142.968ZM17.991 18.1197C38.1385 -2.00721 76.4207 1.78199 106.457 26.4272L72.0462 55.8988C60.6888 65.6336 36.4236 93.2568 25.631 105.713C1.33495 75.5431 -2.01269 38.1234 17.991 18.1197ZM64.7142 93.3903L53.3055 81.9816C54.5686 80.6056 55.8214 79.2501 57.0639 77.9254L68.9039 89.7654C67.5176 90.9874 66.1108 92.1889 64.7142 93.3903ZM32.9732 119.483L26.1855 112.624C30.3239 107.808 39.9458 96.7174 49.9887 85.6373L60.9456 96.6045C48.931 106.801 37.7585 115.704 32.9732 119.483ZM135.764 7.8098C136.966 6.78292 138.773 6.83426 139.903 7.95356C141.053 9.12421 141.084 10.9726 139.882 12.2665L96.219 63.4464C90.6636 69.9568 81.9145 78.254 72.611 86.4999L60.4321 74.3108C66.2032 68.1906 71.5122 62.861 75.2603 59.6366L135.764 7.8098ZM124.695 37.6613L143.548 15.5628C146.516 12.4 146.434 7.53254 143.374 4.4827C140.437 1.53554 135.672 1.37124 132.55 4.08221L110.236 23.1823C77.7043 -4.00963 36.9678 -7.82964 14.5099 14.6386C-7.45518 36.5831 -4.03565 77.258 22.345 109.523C21.2052 110.837 20.4966 111.679 20.3015 111.895C20.2091 112.008 20.1577 112.151 20.0961 112.285C7.86593 117.491 0 129.413 0 142.866V145.535C0 146.891 1.10903 148 2.46452 148C16.6663 148 29.2251 138.707 33.6613 125.224C33.9693 124.977 34.7395 124.371 35.8999 123.457C54.0654 139.251 75.9586 147.979 95.7466 147.979C102.165 147.979 108.367 147.066 114.128 145.176C118.79 143.656 122.548 140.165 124.438 135.575C126.389 130.861 126.173 125.563 123.852 121.024L113.758 101.225C112.382 98.535 112.885 95.2798 115.032 93.1336C117.209 90.9566 120.618 90.474 123.318 91.9629L128.402 94.7561C132.643 97.0871 137.715 96.7688 141.628 93.9037C145.53 91.0593 147.378 86.3459 146.454 81.6119C143.445 66.1779 135.908 51.0519 124.695 37.6613Z" fill="#A8A8A8" fill-opacity="0.1"/>
<path d="M78.8636 19.8451C82.9506 19.8451 86.2572 23.1516 86.2572 27.2386C86.2572 31.3153 82.9506 34.6322 78.8636 34.6322C74.7869 34.6322 71.4701 31.3153 71.4701 27.2386C71.4701 23.1516 74.7869 19.8451 78.8636 19.8451ZM78.8636 39.5612C85.6616 39.5612 91.1862 34.0366 91.1862 27.2386C91.1862 20.4406 85.6616 14.916 78.8636 14.916C72.0656 14.916 66.541 20.4406 66.541 27.2386C66.541 34.0366 72.0656 39.5612 78.8636 39.5612Z" fill="#C0DE73" fill-opacity="0.07"/>
<circle cx="79.2844" cy="27.4543" r="8.87228" fill="#C0DE73" fill-opacity="0.07"/>
<path d="M71.471 125.82C67.3943 125.82 64.0775 122.503 64.0775 118.426C64.0775 114.339 67.3943 111.033 71.471 111.033C75.558 111.033 78.8646 114.339 78.8646 118.426C78.8646 122.503 75.558 125.82 71.471 125.82ZM71.471 106.104C64.6731 106.104 59.1484 111.628 59.1484 118.426C59.1484 125.224 64.6731 130.749 71.471 130.749C78.269 130.749 83.7936 125.224 83.7936 118.426C83.7936 111.628 78.269 106.104 71.471 106.104Z" fill="#C0DE73" fill-opacity="0.07"/>
<circle cx="71.3996" cy="118.15" r="8.87228" fill="#C0DE73" fill-opacity="0.07"/>
</svg>
