<svg width="479" height="84" viewBox="0 0 479 84" fill="none" xmlns="http://www.w3.org/2000/svg">
<rect y="0.709961" width="479" height="83" fill="#EDEEFF"/>
<path d="M134.384 36.59V38.078H131.424V47.71H129.6V38.078H126.624V36.59H134.384ZM140.791 38.75C141.463 38.75 142.061 38.894 142.583 39.182C143.117 39.47 143.533 39.8966 143.831 40.462C144.141 41.0273 144.295 41.71 144.295 42.51V47.71H142.487V42.782C142.487 41.9926 142.29 41.39 141.895 40.974C141.501 40.5473 140.962 40.334 140.279 40.334C139.597 40.334 139.053 40.5473 138.647 40.974C138.253 41.39 138.055 41.9926 138.055 42.782V47.71H136.231V35.87H138.055V39.918C138.365 39.5446 138.754 39.2566 139.223 39.054C139.703 38.8513 140.226 38.75 140.791 38.75ZM147.55 37.726C147.219 37.726 146.942 37.614 146.718 37.39C146.494 37.166 146.382 36.8886 146.382 36.558C146.382 36.2273 146.494 35.95 146.718 35.726C146.942 35.502 147.219 35.39 147.55 35.39C147.87 35.39 148.142 35.502 148.366 35.726C148.59 35.95 148.702 36.2273 148.702 36.558C148.702 36.8886 148.59 37.166 148.366 37.39C148.142 37.614 147.87 37.726 147.55 37.726ZM148.446 38.894V47.71H146.622V38.894H148.446ZM154.041 47.854C153.347 47.854 152.723 47.7313 152.169 47.486C151.625 47.23 151.193 46.8886 150.873 46.462C150.553 46.0246 150.382 45.5393 150.361 45.006H152.249C152.281 45.3793 152.457 45.694 152.777 45.95C153.107 46.1953 153.518 46.318 154.009 46.318C154.521 46.318 154.915 46.222 155.193 46.03C155.481 45.8273 155.625 45.5713 155.625 45.262C155.625 44.9313 155.465 44.686 155.145 44.526C154.835 44.366 154.339 44.19 153.657 43.998C152.995 43.8166 152.457 43.6406 152.041 43.47C151.625 43.2993 151.262 43.038 150.953 42.686C150.654 42.334 150.505 41.87 150.505 41.294C150.505 40.8246 150.643 40.398 150.921 40.014C151.198 39.6193 151.593 39.31 152.105 39.086C152.627 38.862 153.225 38.75 153.897 38.75C154.899 38.75 155.705 39.006 156.313 39.518C156.931 40.0193 157.262 40.7073 157.305 41.582H155.481C155.449 41.1873 155.289 40.8726 155.001 40.638C154.713 40.4033 154.323 40.286 153.833 40.286C153.353 40.286 152.985 40.3766 152.729 40.558C152.473 40.7393 152.345 40.9793 152.345 41.278C152.345 41.5126 152.43 41.71 152.601 41.87C152.771 42.03 152.979 42.158 153.225 42.254C153.47 42.3393 153.833 42.4513 154.313 42.59C154.953 42.7606 155.475 42.9366 155.881 43.118C156.297 43.2886 156.654 43.5446 156.953 43.886C157.251 44.2273 157.406 44.6806 157.417 45.246C157.417 45.7473 157.278 46.1953 157.001 46.59C156.723 46.9846 156.329 47.294 155.817 47.518C155.315 47.742 154.723 47.854 154.041 47.854ZM164.472 37.726C164.141 37.726 163.864 37.614 163.64 37.39C163.416 37.166 163.304 36.8886 163.304 36.558C163.304 36.2273 163.416 35.95 163.64 35.726C163.864 35.502 164.141 35.39 164.472 35.39C164.792 35.39 165.064 35.502 165.288 35.726C165.512 35.95 165.624 36.2273 165.624 36.558C165.624 36.8886 165.512 37.166 165.288 37.39C165.064 37.614 164.792 37.726 164.472 37.726ZM165.368 38.894V47.71H163.544V38.894H165.368ZM169.891 40.382V45.262C169.891 45.5926 169.965 45.8326 170.115 45.982C170.275 46.1206 170.541 46.19 170.915 46.19H172.035V47.71H170.595C169.773 47.71 169.144 47.518 168.707 47.134C168.269 46.75 168.051 46.126 168.051 45.262V40.382H167.011V38.894H168.051V36.702H169.891V38.894H172.035V40.382H169.891ZM181.796 43.086C181.796 43.4166 181.774 43.7153 181.732 43.982H174.996C175.049 44.686 175.31 45.2513 175.78 45.678C176.249 46.1046 176.825 46.318 177.508 46.318C178.489 46.318 179.182 45.9073 179.588 45.086H181.556C181.289 45.8966 180.804 46.5633 180.1 47.086C179.406 47.598 178.542 47.854 177.508 47.854C176.665 47.854 175.908 47.6673 175.236 47.294C174.574 46.91 174.052 46.3766 173.668 45.694C173.294 45.0006 173.108 44.2006 173.108 43.294C173.108 42.3873 173.289 41.5926 173.652 40.91C174.025 40.2166 174.542 39.6833 175.204 39.31C175.876 38.9366 176.644 38.75 177.508 38.75C178.34 38.75 179.081 38.9313 179.732 39.294C180.382 39.6566 180.889 40.1686 181.252 40.83C181.614 41.4806 181.796 42.2326 181.796 43.086ZM179.892 42.51C179.881 41.838 179.641 41.2993 179.172 40.894C178.702 40.4886 178.121 40.286 177.428 40.286C176.798 40.286 176.26 40.4886 175.812 40.894C175.364 41.2886 175.097 41.8273 175.012 42.51H179.892ZM194.263 38.75C194.956 38.75 195.575 38.894 196.119 39.182C196.673 39.47 197.105 39.8966 197.415 40.462C197.735 41.0273 197.895 41.71 197.895 42.51V47.71H196.087V42.782C196.087 41.9926 195.889 41.39 195.495 40.974C195.1 40.5473 194.561 40.334 193.879 40.334C193.196 40.334 192.652 40.5473 192.247 40.974C191.852 41.39 191.655 41.9926 191.655 42.782V47.71H189.847V42.782C189.847 41.9926 189.649 41.39 189.255 40.974C188.86 40.5473 188.321 40.334 187.639 40.334C186.956 40.334 186.412 40.5473 186.007 40.974C185.612 41.39 185.415 41.9926 185.415 42.782V47.71H183.591V38.894H185.415V39.902C185.713 39.5393 186.092 39.2566 186.551 39.054C187.009 38.8513 187.5 38.75 188.023 38.75C188.727 38.75 189.356 38.8993 189.911 39.198C190.465 39.4966 190.892 39.9286 191.191 40.494C191.457 39.9606 191.873 39.5393 192.439 39.23C193.004 38.91 193.612 38.75 194.263 38.75ZM205.3 37.726C204.969 37.726 204.692 37.614 204.468 37.39C204.244 37.166 204.132 36.8886 204.132 36.558C204.132 36.2273 204.244 35.95 204.468 35.726C204.692 35.502 204.969 35.39 205.3 35.39C205.62 35.39 205.892 35.502 206.116 35.726C206.34 35.95 206.452 36.2273 206.452 36.558C206.452 36.8886 206.34 37.166 206.116 37.39C205.892 37.614 205.62 37.726 205.3 37.726ZM206.196 38.894V47.71H204.372V38.894H206.196ZM211.791 47.854C211.097 47.854 210.473 47.7313 209.919 47.486C209.375 47.23 208.943 46.8886 208.623 46.462C208.303 46.0246 208.132 45.5393 208.111 45.006H209.999C210.031 45.3793 210.207 45.694 210.527 45.95C210.857 46.1953 211.268 46.318 211.759 46.318C212.271 46.318 212.665 46.222 212.943 46.03C213.231 45.8273 213.375 45.5713 213.375 45.262C213.375 44.9313 213.215 44.686 212.895 44.526C212.585 44.366 212.089 44.19 211.407 43.998C210.745 43.8166 210.207 43.6406 209.791 43.47C209.375 43.2993 209.012 43.038 208.703 42.686C208.404 42.334 208.255 41.87 208.255 41.294C208.255 40.8246 208.393 40.398 208.671 40.014C208.948 39.6193 209.343 39.31 209.855 39.086C210.377 38.862 210.975 38.75 211.647 38.75C212.649 38.75 213.455 39.006 214.063 39.518C214.681 40.0193 215.012 40.7073 215.055 41.582H213.231C213.199 41.1873 213.039 40.8726 212.751 40.638C212.463 40.4033 212.073 40.286 211.583 40.286C211.103 40.286 210.735 40.3766 210.479 40.558C210.223 40.7393 210.095 40.9793 210.095 41.278C210.095 41.5126 210.18 41.71 210.351 41.87C210.521 42.03 210.729 42.158 210.975 42.254C211.22 42.3393 211.583 42.4513 212.063 42.59C212.703 42.7606 213.225 42.9366 213.631 43.118C214.047 43.2886 214.404 43.5446 214.703 43.886C215.001 44.2273 215.156 44.6806 215.167 45.246C215.167 45.7473 215.028 46.1953 214.751 46.59C214.473 46.9846 214.079 47.294 213.567 47.518C213.065 47.742 212.473 47.854 211.791 47.854ZM220.686 43.262C220.686 42.3766 220.867 41.5926 221.23 40.91C221.603 40.2273 222.104 39.6993 222.734 39.326C223.374 38.942 224.078 38.75 224.846 38.75C225.539 38.75 226.142 38.8886 226.654 39.166C227.176 39.4326 227.592 39.7686 227.902 40.174V38.894H229.742V47.71H227.902V46.398C227.592 46.814 227.171 47.1606 226.638 47.438C226.104 47.7153 225.496 47.854 224.814 47.854C224.056 47.854 223.363 47.662 222.734 47.278C222.104 46.8833 221.603 46.3393 221.23 45.646C220.867 44.942 220.686 44.1473 220.686 43.262ZM227.902 43.294C227.902 42.686 227.774 42.158 227.518 41.71C227.272 41.262 226.947 40.9206 226.542 40.686C226.136 40.4513 225.699 40.334 225.23 40.334C224.76 40.334 224.323 40.4513 223.918 40.686C223.512 40.91 223.182 41.246 222.926 41.694C222.68 42.1313 222.558 42.654 222.558 43.262C222.558 43.87 222.68 44.4033 222.926 44.862C223.182 45.3206 223.512 45.6726 223.918 45.918C224.334 46.1526 224.771 46.27 225.23 46.27C225.699 46.27 226.136 46.1526 226.542 45.918C226.947 45.6833 227.272 45.342 227.518 44.894C227.774 44.4353 227.902 43.902 227.902 43.294ZM233.962 35.87V47.71H232.138V35.87H233.962ZM238.18 40.174C238.447 39.726 238.799 39.3793 239.236 39.134C239.684 38.878 240.212 38.75 240.82 38.75V40.638H240.356C239.642 40.638 239.098 40.8193 238.724 41.182C238.362 41.5446 238.18 42.174 238.18 43.07V47.71H236.356V38.894H238.18V40.174ZM250.577 43.086C250.577 43.4166 250.556 43.7153 250.513 43.982H243.777C243.83 44.686 244.092 45.2513 244.561 45.678C245.03 46.1046 245.606 46.318 246.289 46.318C247.27 46.318 247.964 45.9073 248.369 45.086H250.337C250.07 45.8966 249.585 46.5633 248.881 47.086C248.188 47.598 247.324 47.854 246.289 47.854C245.446 47.854 244.689 47.6673 244.017 47.294C243.356 46.91 242.833 46.3766 242.449 45.694C242.076 45.0006 241.889 44.2006 241.889 43.294C241.889 42.3873 242.07 41.5926 242.433 40.91C242.806 40.2166 243.324 39.6833 243.985 39.31C244.657 38.9366 245.425 38.75 246.289 38.75C247.121 38.75 247.862 38.9313 248.513 39.294C249.164 39.6566 249.67 40.1686 250.033 40.83C250.396 41.4806 250.577 42.2326 250.577 43.086ZM248.673 42.51C248.662 41.838 248.422 41.2993 247.953 40.894C247.484 40.4886 246.902 40.286 246.209 40.286C245.58 40.286 245.041 40.4886 244.593 40.894C244.145 41.2886 243.878 41.8273 243.793 42.51H248.673ZM251.764 43.262C251.764 42.3766 251.945 41.5926 252.308 40.91C252.681 40.2273 253.183 39.6993 253.812 39.326C254.452 38.942 255.156 38.75 255.924 38.75C256.617 38.75 257.22 38.8886 257.732 39.166C258.255 39.4326 258.671 39.7686 258.98 40.174V38.894H260.82V47.71H258.98V46.398C258.671 46.814 258.249 47.1606 257.716 47.438C257.183 47.7153 256.575 47.854 255.892 47.854C255.135 47.854 254.441 47.662 253.812 47.278C253.183 46.8833 252.681 46.3393 252.308 45.646C251.945 44.942 251.764 44.1473 251.764 43.262ZM258.98 43.294C258.98 42.686 258.852 42.158 258.596 41.71C258.351 41.262 258.025 40.9206 257.62 40.686C257.215 40.4513 256.777 40.334 256.308 40.334C255.839 40.334 255.401 40.4513 254.996 40.686C254.591 40.91 254.26 41.246 254.004 41.694C253.759 42.1313 253.636 42.654 253.636 43.262C253.636 43.87 253.759 44.4033 254.004 44.862C254.26 45.3206 254.591 45.6726 254.996 45.918C255.412 46.1526 255.849 46.27 256.308 46.27C256.777 46.27 257.215 46.1526 257.62 45.918C258.025 45.6833 258.351 45.342 258.596 44.894C258.852 44.4353 258.98 43.902 258.98 43.294ZM262.608 43.262C262.608 42.3766 262.789 41.5926 263.152 40.91C263.525 40.2273 264.026 39.6993 264.656 39.326C265.296 38.942 266.005 38.75 266.784 38.75C267.36 38.75 267.925 38.878 268.48 39.134C269.045 39.3793 269.493 39.71 269.824 40.126V35.87H271.664V47.71H269.824V46.382C269.525 46.8086 269.109 47.1606 268.576 47.438C268.053 47.7153 267.45 47.854 266.768 47.854C266 47.854 265.296 47.662 264.656 47.278C264.026 46.8833 263.525 46.3393 263.152 45.646C262.789 44.942 262.608 44.1473 262.608 43.262ZM269.824 43.294C269.824 42.686 269.696 42.158 269.44 41.71C269.194 41.262 268.869 40.9206 268.464 40.686C268.058 40.4513 267.621 40.334 267.152 40.334C266.682 40.334 266.245 40.4513 265.84 40.686C265.434 40.91 265.104 41.246 264.848 41.694C264.602 42.1313 264.48 42.654 264.48 43.262C264.48 43.87 264.602 44.4033 264.848 44.862C265.104 45.3206 265.434 45.6726 265.84 45.918C266.256 46.1526 266.693 46.27 267.152 46.27C267.621 46.27 268.058 46.1526 268.464 45.918C268.869 45.6833 269.194 45.342 269.44 44.894C269.696 44.4353 269.824 43.902 269.824 43.294ZM281.995 38.894L276.587 51.854H274.699L276.491 47.566L273.019 38.894H275.051L277.531 45.614L280.107 38.894H281.995ZM288.456 37.726C288.125 37.726 287.848 37.614 287.624 37.39C287.4 37.166 287.288 36.8886 287.288 36.558C287.288 36.2273 287.4 35.95 287.624 35.726C287.848 35.502 288.125 35.39 288.456 35.39C288.776 35.39 289.048 35.502 289.272 35.726C289.496 35.95 289.608 36.2273 289.608 36.558C289.608 36.8886 289.496 37.166 289.272 37.39C289.048 37.614 288.776 37.726 288.456 37.726ZM289.352 38.894V47.71H287.528V38.894H289.352ZM296.195 38.75C296.888 38.75 297.507 38.894 298.051 39.182C298.606 39.47 299.038 39.8966 299.347 40.462C299.656 41.0273 299.811 41.71 299.811 42.51V47.71H298.003V42.782C298.003 41.9926 297.806 41.39 297.411 40.974C297.016 40.5473 296.478 40.334 295.795 40.334C295.112 40.334 294.568 40.5473 294.163 40.974C293.768 41.39 293.571 41.9926 293.571 42.782V47.71H291.747V38.894H293.571V39.902C293.87 39.5393 294.248 39.2566 294.707 39.054C295.176 38.8513 295.672 38.75 296.195 38.75ZM314.23 38.894L308.822 51.854H306.934L308.726 47.566L305.254 38.894H307.286L309.766 45.614L312.342 38.894H314.23ZM319.43 47.854C318.598 47.854 317.846 47.6673 317.174 47.294C316.502 46.91 315.974 46.3766 315.59 45.694C315.206 45.0006 315.014 44.2006 315.014 43.294C315.014 42.398 315.212 41.6033 315.606 40.91C316.001 40.2166 316.54 39.6833 317.222 39.31C317.905 38.9366 318.668 38.75 319.51 38.75C320.353 38.75 321.116 38.9366 321.798 39.31C322.481 39.6833 323.02 40.2166 323.414 40.91C323.809 41.6033 324.006 42.398 324.006 43.294C324.006 44.19 323.804 44.9846 323.398 45.678C322.993 46.3713 322.438 46.91 321.734 47.294C321.041 47.6673 320.273 47.854 319.43 47.854ZM319.43 46.27C319.9 46.27 320.337 46.158 320.742 45.934C321.158 45.71 321.494 45.374 321.75 44.926C322.006 44.478 322.134 43.934 322.134 43.294C322.134 42.654 322.012 42.1153 321.766 41.678C321.521 41.23 321.196 40.894 320.79 40.67C320.385 40.446 319.948 40.334 319.478 40.334C319.009 40.334 318.572 40.446 318.166 40.67C317.772 40.894 317.457 41.23 317.222 41.678C316.988 42.1153 316.87 42.654 316.87 43.294C316.87 44.2433 317.11 44.9793 317.59 45.502C318.081 46.014 318.694 46.27 319.43 46.27ZM333.793 38.894V47.71H331.969V46.67C331.681 47.0326 331.303 47.3206 330.833 47.534C330.375 47.7366 329.884 47.838 329.361 47.838C328.668 47.838 328.044 47.694 327.489 47.406C326.945 47.118 326.513 46.6913 326.193 46.126C325.884 45.5606 325.729 44.878 325.729 44.078V38.894H327.537V43.806C327.537 44.5953 327.735 45.2033 328.129 45.63C328.524 46.046 329.063 46.254 329.745 46.254C330.428 46.254 330.967 46.046 331.361 45.63C331.767 45.2033 331.969 44.5953 331.969 43.806V38.894H333.793ZM338.024 40.174C338.291 39.726 338.643 39.3793 339.08 39.134C339.528 38.878 340.056 38.75 340.664 38.75V40.638H340.2C339.485 40.638 338.941 40.8193 338.568 41.182C338.205 41.5446 338.024 42.174 338.024 43.07V47.71H336.2V38.894H338.024V40.174ZM345.889 43.294C345.889 42.3873 346.07 41.5926 346.433 40.91C346.806 40.2166 347.318 39.6833 347.969 39.31C348.62 38.9366 349.366 38.75 350.209 38.75C351.276 38.75 352.156 39.006 352.849 39.518C353.553 40.0193 354.028 40.7393 354.273 41.678H352.305C352.145 41.2406 351.889 40.8993 351.537 40.654C351.185 40.4086 350.742 40.286 350.209 40.286C349.462 40.286 348.865 40.5526 348.417 41.086C347.98 41.6086 347.761 42.3446 347.761 43.294C347.761 44.2433 347.98 44.9846 348.417 45.518C348.865 46.0513 349.462 46.318 350.209 46.318C351.265 46.318 351.964 45.854 352.305 44.926H354.273C354.017 45.822 353.537 46.5366 352.833 47.07C352.129 47.5926 351.254 47.854 350.209 47.854C349.366 47.854 348.62 47.6673 347.969 47.294C347.318 46.91 346.806 46.3766 346.433 45.694C346.07 45.0006 345.889 44.2006 345.889 43.294ZM355.483 43.262C355.483 42.3766 355.664 41.5926 356.027 40.91C356.4 40.2273 356.901 39.6993 357.531 39.326C358.171 38.942 358.875 38.75 359.643 38.75C360.336 38.75 360.939 38.8886 361.451 39.166C361.973 39.4326 362.389 39.7686 362.699 40.174V38.894H364.539V47.71H362.699V46.398C362.389 46.814 361.968 47.1606 361.435 47.438C360.901 47.7153 360.293 47.854 359.611 47.854C358.853 47.854 358.16 47.662 357.531 47.278C356.901 46.8833 356.4 46.3393 356.027 45.646C355.664 44.942 355.483 44.1473 355.483 43.262ZM362.699 43.294C362.699 42.686 362.571 42.158 362.315 41.71C362.069 41.262 361.744 40.9206 361.339 40.686C360.933 40.4513 360.496 40.334 360.027 40.334C359.557 40.334 359.12 40.4513 358.715 40.686C358.309 40.91 357.979 41.246 357.723 41.694C357.477 42.1313 357.355 42.654 357.355 43.262C357.355 43.87 357.477 44.4033 357.723 44.862C357.979 45.3206 358.309 45.6726 358.715 45.918C359.131 46.1526 359.568 46.27 360.027 46.27C360.496 46.27 360.933 46.1526 361.339 45.918C361.744 45.6833 362.069 45.342 362.315 44.894C362.571 44.4353 362.699 43.902 362.699 43.294ZM368.758 40.174C369.025 39.726 369.377 39.3793 369.814 39.134C370.262 38.878 370.79 38.75 371.398 38.75V40.638H370.934C370.22 40.638 369.676 40.8193 369.302 41.182C368.94 41.5446 368.758 42.174 368.758 43.07V47.71H366.934V38.894H368.758V40.174ZM375.203 40.382V45.262C375.203 45.5926 375.278 45.8326 375.427 45.982C375.587 46.1206 375.854 46.19 376.227 46.19H377.347V47.71H375.907C375.086 47.71 374.456 47.518 374.019 47.134C373.582 46.75 373.363 46.126 373.363 45.262V40.382H372.323V38.894H373.363V36.702H375.203V38.894H377.347V40.382H375.203Z" fill="#9196F7"/>
<path d="M110.416 46.0679C110.378 46.1175 110.343 46.1711 110.312 46.2297C110.282 46.2883 110.256 46.3497 110.236 46.415C110.214 46.4798 110.199 46.5468 110.188 46.616C110.178 46.6852 110.172 46.7544 110.172 46.8247C110.172 46.8951 110.178 46.9648 110.188 47.0341C110.199 47.1027 110.214 47.1697 110.236 47.235C110.256 47.2997 110.282 47.3617 110.312 47.4203C110.343 47.4784 110.378 47.5325 110.416 47.5822C110.455 47.633 110.498 47.6787 110.544 47.7178C110.589 47.7558 110.637 47.787 110.688 47.811C110.738 47.8395 110.79 47.8613 110.844 47.8752C110.897 47.8897 110.951 47.897 111.005 47.8964C111.087 47.8964 111.168 47.8813 111.247 47.8506C111.326 47.8199 111.399 47.7753 111.468 47.7161C111.536 47.6575 111.597 47.5872 111.649 47.5051C111.701 47.4231 111.743 47.3332 111.774 47.2356C111.806 47.1373 111.826 47.0357 111.834 46.9302C111.842 46.8247 111.838 46.7198 111.822 46.616C111.806 46.5122 111.778 46.4134 111.739 46.3202C111.701 46.2264 111.652 46.1427 111.594 46.0679C111.554 46.0199 111.512 45.9774 111.466 45.9401C111.42 45.9027 111.372 45.8708 111.322 45.8452C111.271 45.8195 111.22 45.8 111.166 45.7871C111.113 45.7743 111.059 45.7676 111.005 45.7676C110.951 45.7676 110.897 45.7743 110.844 45.7871C110.791 45.8 110.739 45.8195 110.689 45.8452C110.638 45.8708 110.59 45.9027 110.544 45.9401C110.499 45.9774 110.456 46.0199 110.416 46.0679Z" fill="#9196F7"/>
<path d="M110.89 35.5544C110.808 35.5628 110.727 35.5798 110.649 35.6047C110.57 35.6302 110.495 35.6641 110.422 35.7054C110.349 35.7473 110.281 35.796 110.217 35.8522C110.154 35.9089 110.095 35.9715 110.043 36.0398C109.99 36.1087 109.945 36.1824 109.905 36.2614C109.866 36.3398 109.834 36.422 109.81 36.5073C109.786 36.5926 109.769 36.6801 109.761 36.7686C109.752 36.8576 109.752 36.9467 109.759 37.0357L110.33 43.8196C110.334 43.8652 110.341 43.9097 110.353 43.9537C110.364 43.9977 110.379 44.0401 110.398 44.0809C110.417 44.1217 110.439 44.1599 110.464 44.1965C110.489 44.233 110.517 44.2664 110.548 44.2972C110.579 44.3279 110.612 44.3555 110.648 44.3793C110.683 44.4032 110.72 44.4233 110.759 44.4403C110.798 44.4567 110.838 44.4689 110.88 44.4774C110.92 44.4858 110.962 44.4901 111.003 44.4901C111.045 44.4901 111.087 44.4858 111.128 44.4774C111.169 44.4689 111.209 44.4567 111.248 44.4403C111.287 44.4233 111.324 44.4032 111.36 44.3793C111.395 44.3555 111.429 44.3279 111.459 44.2972C111.491 44.2664 111.518 44.233 111.544 44.1965C111.569 44.1599 111.591 44.1217 111.609 44.0809C111.628 44.0401 111.643 43.9977 111.654 43.9537C111.666 43.9097 111.673 43.8652 111.677 43.8196L112.248 37.0357C112.255 36.953 112.255 36.8698 112.248 36.7871C112.241 36.6976 112.225 36.6101 112.202 36.5248C112.178 36.4389 112.148 36.3562 112.11 36.2773C112.072 36.1978 112.027 36.1236 111.975 36.0541C111.923 35.9847 111.866 35.9211 111.803 35.8639C111.74 35.8066 111.672 35.7568 111.6 35.7139C111.528 35.6715 111.453 35.637 111.374 35.61C111.296 35.5835 111.216 35.5655 111.134 35.5565C111.053 35.5469 110.971 35.5464 110.89 35.5544Z" fill="#9196F7"/>
<path d="M111 31.71C110.836 31.71 110.673 31.7142 110.509 31.7227C110.346 31.7307 110.183 31.743 110.02 31.7595C109.857 31.776 109.695 31.7962 109.533 31.8207C109.371 31.8452 109.21 31.8739 109.049 31.9064C108.889 31.9394 108.729 31.9756 108.57 32.0166C108.411 32.0571 108.254 32.1018 108.097 32.1502C107.941 32.1987 107.785 32.2514 107.631 32.3078C107.477 32.3643 107.324 32.4244 107.173 32.4883C107.022 32.5522 106.872 32.6198 106.724 32.6917C106.577 32.763 106.431 32.8381 106.286 32.9174C106.142 32.9962 105.999 33.0782 105.859 33.1645C105.719 33.2507 105.581 33.3401 105.444 33.4328C105.308 33.5259 105.174 33.6223 105.043 33.7219C104.912 33.8214 104.783 33.9242 104.656 34.0307C104.53 34.1366 104.406 34.2457 104.284 34.3581C104.164 34.4704 104.045 34.5859 103.929 34.7041C103.814 34.8223 103.701 34.9437 103.591 35.0672C103.481 35.1913 103.374 35.318 103.27 35.4473C103.166 35.5767 103.066 35.7087 102.968 35.8429C102.871 35.9771 102.777 36.1139 102.685 36.2528C102.595 36.3923 102.507 36.5334 102.423 36.6772C102.339 36.8204 102.258 36.9657 102.181 37.1137C102.104 37.2612 102.03 37.4103 101.96 37.5615C101.89 37.7127 101.824 37.866 101.761 38.0204C101.699 38.1748 101.64 38.3308 101.585 38.4884C101.53 38.6459 101.478 38.8046 101.431 38.9648C101.383 39.1251 101.34 39.2859 101.3 39.4483C101.26 39.6106 101.224 39.7735 101.192 39.9381C101.16 40.102 101.132 40.2665 101.108 40.4321C101.084 40.5977 101.065 40.7638 101.048 40.9299C101.032 41.0965 101.02 41.2632 101.013 41.4303C101.004 41.5975 101 41.7647 101 41.9319C101 42.0996 101.004 42.2667 101.013 42.4334C101.02 42.6005 101.032 42.7677 101.048 42.9338C101.065 43.1005 101.084 43.2666 101.108 43.4321C101.132 43.5972 101.16 43.7622 101.192 43.9262C101.224 44.0902 101.26 44.2536 101.3 44.416C101.34 44.5778 101.383 44.7392 101.431 44.8994C101.478 45.0597 101.53 45.2183 101.585 45.3759C101.64 45.5335 101.699 45.6895 101.761 45.8439C101.824 45.9983 101.89 46.1511 101.96 46.3023C102.03 46.4535 102.104 46.6031 102.181 46.7505C102.258 46.898 102.339 47.0439 102.423 47.1871C102.507 47.3308 102.595 47.4719 102.685 47.6109C102.777 47.7504 102.871 47.8866 102.968 48.0213C103.066 48.1555 103.166 48.2875 103.27 48.4169C103.374 48.5463 103.481 48.6725 103.591 48.7965C103.701 48.9205 103.814 49.0419 103.929 49.1601C104.045 49.2783 104.164 49.3938 104.284 49.5062C104.406 49.6185 104.53 49.7277 104.656 49.8336C104.783 49.9401 104.912 50.0428 105.043 50.1424C105.174 50.2419 105.308 50.3383 105.444 50.4315C105.581 50.5241 105.719 50.6136 105.859 50.6998C105.999 50.7855 106.142 50.868 106.286 50.9468C106.431 51.0256 106.577 51.1012 106.724 51.1726C106.872 51.2439 107.022 51.312 107.173 51.3759C107.324 51.4398 107.477 51.5 107.631 51.5564C107.785 51.6128 107.941 51.665 108.097 51.714C108.254 51.7625 108.411 51.8072 108.57 51.8476C108.729 51.8881 108.889 51.9248 109.049 51.9573C109.21 51.9903 109.371 52.0185 109.533 52.0436C109.695 52.068 109.857 52.0883 110.02 52.1048C110.183 52.1213 110.346 52.1335 110.509 52.1415C110.673 52.15 110.836 52.1538 111 52.1538C111.164 52.1538 111.328 52.15 111.491 52.1415C111.654 52.1335 111.818 52.1213 111.98 52.1048C112.143 52.0883 112.306 52.068 112.468 52.0436C112.629 52.0185 112.791 51.9903 112.951 51.9573C113.111 51.9248 113.271 51.8881 113.43 51.8476C113.589 51.8072 113.746 51.7625 113.903 51.714C114.06 51.665 114.215 51.6128 114.369 51.5564C114.523 51.5 114.676 51.4398 114.827 51.3759C114.978 51.312 115.128 51.2439 115.276 51.1726C115.423 51.1012 115.57 51.0256 115.714 50.9468C115.858 50.868 116.001 50.7855 116.141 50.6998C116.282 50.6136 116.42 50.5241 116.556 50.4315C116.692 50.3383 116.826 50.2419 116.957 50.1424C117.089 50.0428 117.218 49.9401 117.344 49.8336C117.471 49.7277 117.594 49.6185 117.716 49.5062C117.837 49.3938 117.956 49.2783 118.071 49.1601C118.187 49.0419 118.3 48.9205 118.41 48.7965C118.52 48.6725 118.627 48.5463 118.73 48.4169C118.834 48.2875 118.935 48.1555 119.032 48.0213C119.13 47.8866 119.224 47.7504 119.315 47.6109C119.406 47.4719 119.493 47.3308 119.578 47.1871C119.661 47.0439 119.742 46.898 119.819 46.7505C119.896 46.6031 119.97 46.4535 120.04 46.3023C120.11 46.1511 120.177 45.9983 120.239 45.8439C120.302 45.6895 120.36 45.5335 120.416 45.3759C120.471 45.2183 120.522 45.0597 120.57 44.8994C120.617 44.7392 120.661 44.5778 120.701 44.416C120.74 44.2536 120.776 44.0902 120.808 43.9262C120.84 43.7622 120.868 43.5972 120.892 43.4321C120.916 43.2666 120.936 43.1005 120.952 42.9338C120.968 42.7677 120.98 42.6005 120.988 42.4334C120.996 42.2667 121 42.0996 121 41.9319C121 41.7647 120.996 41.5975 120.988 41.4309C120.979 41.2637 120.967 41.0971 120.951 40.9304C120.935 40.7643 120.915 40.5982 120.891 40.4326C120.866 40.2676 120.838 40.1026 120.806 39.9386C120.774 39.7746 120.738 39.6117 120.698 39.4493C120.658 39.2869 120.615 39.1262 120.567 38.9659C120.519 38.8062 120.468 38.6475 120.413 38.49C120.358 38.3324 120.298 38.1764 120.236 38.022C120.173 37.8676 120.107 37.7148 120.037 37.5636C119.967 37.4124 119.893 37.2633 119.816 37.1159C119.739 36.9684 119.658 36.823 119.574 36.6793C119.49 36.5361 119.403 36.395 119.311 36.256C119.22 36.1166 119.126 35.9803 119.029 35.8456C118.931 35.7114 118.831 35.5799 118.727 35.4505C118.623 35.3212 118.516 35.1945 118.406 35.0709C118.296 34.9469 118.184 34.8255 118.068 34.7073C117.952 34.5891 117.834 34.4741 117.713 34.3618C117.591 34.2495 117.468 34.1403 117.341 34.0338C117.215 33.9279 117.086 33.8251 116.954 33.7256C116.823 33.6255 116.689 33.5291 116.553 33.4365C116.417 33.3433 116.279 33.2539 116.139 33.1682C115.998 33.0819 115.856 32.9994 115.712 32.9206C115.568 32.8418 115.421 32.7662 115.274 32.6949C115.126 32.6235 114.977 32.5554 114.826 32.4915C114.674 32.4271 114.521 32.3669 114.368 32.3105C114.214 32.2541 114.058 32.2014 113.902 32.1529C113.745 32.1045 113.588 32.0597 113.429 32.0187C113.27 31.9783 113.111 31.941 112.951 31.9085C112.79 31.8755 112.629 31.8468 112.467 31.8223C112.305 31.7978 112.143 31.777 111.98 31.7605C111.817 31.744 111.654 31.7313 111.491 31.7233C111.327 31.7148 111.164 31.7105 111 31.71ZM111 50.7908C110.858 50.7908 110.717 50.7876 110.575 50.7802C110.433 50.7733 110.292 50.7626 110.151 50.7482C110.009 50.7344 109.869 50.7163 109.729 50.695C109.588 50.6737 109.448 50.6492 109.309 50.621C109.17 50.5928 109.032 50.5608 108.894 50.5257C108.757 50.4906 108.62 50.4517 108.484 50.4096C108.348 50.3676 108.214 50.3218 108.081 50.2734C107.947 50.2244 107.815 50.1722 107.684 50.1168C107.553 50.0615 107.423 50.0024 107.295 49.9406C107.167 49.8783 107.04 49.8134 106.915 49.7452C106.79 49.6765 106.666 49.6052 106.545 49.5307C106.423 49.4561 106.303 49.3784 106.185 49.298C106.067 49.2176 105.952 49.134 105.838 49.0478C105.723 48.9615 105.612 48.8721 105.502 48.78C105.393 48.6884 105.285 48.5937 105.18 48.4962C105.075 48.3988 104.972 48.2987 104.872 48.1965C104.772 48.0937 104.674 47.9889 104.579 47.8813C104.483 47.7738 104.391 47.6641 104.301 47.5523C104.211 47.44 104.123 47.326 104.039 47.2094C103.955 47.0929 103.873 46.9747 103.794 46.8538C103.715 46.7335 103.64 46.611 103.567 46.4865C103.494 46.3619 103.424 46.2362 103.357 46.1079C103.29 45.9802 103.226 45.8508 103.166 45.7198C103.105 45.5889 103.047 45.4563 102.993 45.3221C102.939 45.1885 102.888 45.0533 102.84 44.9164C102.792 44.7801 102.748 44.6423 102.707 44.5038C102.666 44.3649 102.628 44.2254 102.593 44.0848C102.559 43.9438 102.528 43.8027 102.5 43.6605C102.472 43.5184 102.448 43.3752 102.427 43.232C102.407 43.0887 102.389 42.9445 102.376 42.8002C102.361 42.6559 102.351 42.5116 102.344 42.3668C102.337 42.222 102.333 42.0772 102.333 41.9319C102.333 41.787 102.337 41.6422 102.344 41.4974C102.351 41.3526 102.361 41.2078 102.376 41.0635C102.389 40.9193 102.407 40.7755 102.427 40.6323C102.448 40.4885 102.472 40.3459 102.5 40.2037C102.528 40.0616 102.559 39.92 102.593 39.7794C102.628 39.6389 102.666 39.4994 102.707 39.3604C102.748 39.2215 102.792 39.0841 102.84 38.9478C102.888 38.811 102.939 38.6758 102.993 38.5421C103.047 38.408 103.105 38.2754 103.166 38.1444C103.226 38.0135 103.29 37.8841 103.357 37.7558C103.424 37.628 103.494 37.5018 103.567 37.3778C103.64 37.2532 103.715 37.1308 103.794 37.0104C103.873 36.8896 103.955 36.7714 104.039 36.6548C104.123 36.5382 104.211 36.4243 104.301 36.3119C104.391 36.2001 104.483 36.0899 104.579 35.9829C104.674 35.8754 104.772 35.7705 104.872 35.6678C104.972 35.5655 105.075 35.4654 105.18 35.368C105.285 35.2706 105.393 35.1758 105.502 35.0837C105.612 34.9921 105.723 34.9027 105.838 34.8165C105.952 34.7302 106.067 34.6466 106.185 34.5662C106.303 34.4853 106.423 34.4081 106.545 34.3336C106.666 34.259 106.79 34.1877 106.915 34.119C107.04 34.0509 107.167 33.9854 107.295 33.9236C107.423 33.8619 107.553 33.8028 107.684 33.7474C107.815 33.6921 107.947 33.6399 108.081 33.5909C108.214 33.5419 108.348 33.4967 108.484 33.4546C108.62 33.4125 108.757 33.3737 108.894 33.3385C109.032 33.3034 109.17 33.2715 109.309 33.2432C109.448 33.215 109.588 33.19 109.729 33.1687C109.869 33.1479 110.009 33.1298 110.151 33.116C110.292 33.1016 110.433 33.091 110.575 33.0835C110.717 33.0766 110.858 33.0729 111 33.0729C111.142 33.0729 111.284 33.0766 111.426 33.0835C111.567 33.091 111.708 33.1016 111.849 33.116C111.991 33.1298 112.132 33.1479 112.272 33.1687C112.412 33.19 112.552 33.215 112.691 33.2432C112.83 33.2715 112.968 33.3034 113.106 33.3385C113.244 33.3737 113.38 33.4125 113.516 33.4546C113.652 33.4967 113.786 33.5419 113.92 33.5909C114.054 33.6399 114.186 33.6921 114.317 33.7474C114.448 33.8028 114.578 33.8619 114.706 33.9236C114.834 33.9854 114.96 34.0509 115.085 34.119C115.211 34.1877 115.334 34.259 115.456 34.3336C115.578 34.4081 115.697 34.4853 115.815 34.5662C115.933 34.6466 116.049 34.7302 116.163 34.8165C116.277 34.9027 116.389 34.9921 116.498 35.0837C116.608 35.1758 116.715 35.2706 116.82 35.368C116.926 35.4654 117.028 35.5655 117.129 35.6678C117.229 35.7705 117.327 35.8754 117.422 35.9829C117.517 36.0899 117.61 36.2001 117.699 36.3119C117.79 36.4243 117.877 36.5382 117.961 36.6548C118.046 36.7714 118.128 36.8896 118.206 37.0104C118.285 37.1308 118.361 37.2532 118.434 37.3778C118.507 37.5018 118.577 37.628 118.644 37.7558C118.71 37.8841 118.774 38.0135 118.835 38.1444C118.895 38.2754 118.953 38.408 119.007 38.5421C119.061 38.6758 119.113 38.811 119.16 38.9478C119.208 39.0841 119.253 39.2215 119.294 39.3604C119.335 39.4994 119.373 39.6389 119.407 39.7794C119.442 39.92 119.473 40.0616 119.501 40.2037C119.528 40.3459 119.552 40.4885 119.573 40.6323C119.594 40.7755 119.611 40.9193 119.625 41.0635C119.639 41.2078 119.649 41.3526 119.656 41.4974C119.664 41.6422 119.667 41.787 119.667 41.9319C119.667 42.0772 119.663 42.222 119.656 42.3668C119.649 42.5116 119.639 42.6559 119.624 42.8002C119.61 42.9445 119.593 43.0882 119.572 43.2314C119.551 43.3746 119.527 43.5173 119.499 43.6595C119.471 43.8016 119.44 43.9432 119.405 44.0838C119.371 44.2243 119.333 44.3638 119.292 44.5028C119.251 44.6412 119.206 44.7791 119.158 44.9154C119.11 45.0517 119.059 45.1869 119.005 45.3205C118.951 45.4547 118.893 45.5873 118.832 45.7182C118.771 45.8492 118.708 45.9786 118.641 46.1063C118.574 46.2341 118.504 46.3603 118.431 46.4843C118.358 46.6089 118.282 46.7308 118.203 46.8517C118.124 46.972 118.043 47.0907 117.958 47.2068C117.874 47.3234 117.786 47.4373 117.697 47.5496C117.607 47.6614 117.514 47.7711 117.419 47.8787C117.323 47.9862 117.226 48.0911 117.126 48.1933C117.026 48.2961 116.923 48.3956 116.818 48.493C116.713 48.5905 116.605 48.6852 116.496 48.7773C116.386 48.8689 116.274 48.9583 116.16 49.0446C116.047 49.1308 115.931 49.2144 115.813 49.2948C115.695 49.3757 115.576 49.4529 115.454 49.5275C115.332 49.602 115.209 49.6739 115.084 49.742C114.959 49.8107 114.832 49.8757 114.704 49.9379C114.576 49.9997 114.446 50.0583 114.315 50.1142C114.184 50.1695 114.052 50.2217 113.919 50.2707C113.785 50.3197 113.651 50.3655 113.515 50.4075C113.379 50.4496 113.243 50.4884 113.105 50.5236C112.968 50.5587 112.829 50.5907 112.69 50.6194C112.551 50.6476 112.411 50.6726 112.271 50.6939C112.131 50.7152 111.991 50.7333 111.849 50.7477C111.708 50.7621 111.567 50.7727 111.426 50.7797C111.284 50.7871 111.142 50.7908 111 50.7908Z" fill="#9196F7"/>
</svg>
