<svg width="248" height="97" viewBox="0 0 248 97" fill="none" xmlns="http://www.w3.org/2000/svg">
<path d="M43.5474 85.9457C43.5474 85.8563 43.5474 85.7588 43.5474 85.6694C43.5474 85.6531 43.5474 85.6369 43.5474 85.6206C43.7424 82.3454 46.0505 79.5903 49.2282 78.8182L49.277 78.8101C49.6265 78.7288 49.9759 78.6719 50.3254 78.6394H50.4392C50.618 78.6313 50.7887 78.6232 50.9675 78.6232C51.1463 78.6232 51.3169 78.6232 51.4876 78.6394H51.6014C51.959 78.6719 52.3084 78.7288 52.6579 78.8101H52.6985C55.8762 79.5741 58.1843 82.3291 58.3794 85.5963C58.3794 85.6206 58.3794 85.6369 58.3794 85.6613C58.3794 85.7425 58.3794 85.8238 58.3794 85.9051C58.3794 85.9864 58.3794 85.9945 58.3794 86.0433C58.3794 86.1814 58.3794 86.3114 58.3794 86.4415C58.1762 90.3181 55.0229 93.382 51.1544 93.4796H50.7399C46.8714 93.3658 43.7424 90.3019 43.5393 86.4333C43.5393 86.3033 43.5393 86.1652 43.5393 86.0433C43.5474 86.0189 43.5474 85.9864 43.5474 85.9457ZM89.8233 78.8182L89.872 78.8101C90.2134 78.7288 90.5628 78.6719 90.9204 78.6394H91.0342C91.2049 78.6394 91.3837 78.6232 91.5625 78.6232C91.7331 78.6232 91.9038 78.6232 92.0826 78.6394H92.2045C92.554 78.6719 92.9035 78.7288 93.2529 78.8101L93.3017 78.8182C96.4956 79.5903 98.8038 82.3698 98.9826 85.6613V85.6694C98.9826 85.7994 98.9826 85.9295 98.9826 86.0595C98.9826 90.0174 95.8861 93.2845 91.9363 93.4877C91.8063 93.4877 91.6763 93.4877 91.5544 93.4877C91.4406 93.4877 91.2943 93.4877 91.1724 93.4877C87.3039 93.2845 84.2318 90.1393 84.1343 86.2546C84.1343 86.1895 84.1343 86.1245 84.1343 86.0514V86.0189C84.1343 85.9051 84.1343 85.7832 84.1343 85.6694C84.1343 85.6613 84.1343 85.6531 84.1343 85.645C84.3131 82.3617 86.6293 79.5822 89.8233 78.8182ZM35.8185 49.7962H47.5134V66.465H40.0852L35.8185 49.7962ZM31.0885 31.2908H47.5216V46.6185H35.022L31.0885 31.2908ZM27.0818 15.6298H47.5216V28.1049H30.2758L27.0818 15.6298ZM50.7074 49.8044H69.0991V66.4731H50.7074V49.8044ZM50.7074 31.2989H69.0991V46.6267H50.7074V31.2989ZM50.7074 15.6379H69.0991V28.1131H50.7074V15.6379ZM72.2768 49.8125H90.6766V66.4812H72.2768V49.8125ZM72.2768 31.307H90.6766V46.6348H72.2768V31.307ZM72.2768 15.646H90.6766V28.1212H72.2768V15.646ZM93.8462 49.8206H112.067V57.4439C112.059 62.4339 108.028 66.4731 103.046 66.4812H93.8625L93.8462 49.8206ZM93.8462 31.3151H112.067V46.6429H93.8462V31.3151ZM93.8462 15.6542H112.067V28.1293H93.8462V15.6542ZM33.998 69.6752H103.046C109.784 69.659 115.237 64.1975 115.245 57.452V14.0694C115.245 13.1998 114.53 12.4927 113.66 12.4927H25.9521L24.5218 7.01502C24.3674 6.42174 23.8879 5.96662 23.2864 5.86097L15.972 4.44685C15.6144 3.69102 14.9236 3.15463 14.1028 2.99209L3.16367 0.830274C1.72516 0.545824 0.335427 1.48045 0.0509771 2.91895C-0.233473 4.34932 0.701148 5.74719 2.13965 6.03164L13.0788 8.19346C13.2494 8.23409 13.4201 8.25035 13.5989 8.25035C14.2491 8.25035 14.8749 8.00653 15.3625 7.56767L21.7179 8.79486L36.81 66.4894H33.998C29.4143 66.4894 25.6921 70.2197 25.7002 74.8116C25.7002 79.4034 29.4143 83.1256 33.998 83.1337H41.3287C39.7195 88.4651 42.7265 94.0972 48.0579 95.7145C53.3812 97.3318 59.0052 94.3167 60.6225 88.9853C61.1995 87.0754 61.1995 85.0355 60.6225 83.1337H81.9156C80.2983 88.4651 83.3053 94.1054 88.6286 95.7227C93.9519 97.34 99.584 94.3248 101.201 88.9934C101.778 87.0835 101.778 85.0436 101.201 83.1337H113.66C114.538 83.0931 115.221 82.3535 115.188 81.4758C115.147 80.6468 114.489 79.9804 113.66 79.9479H99.5677C96.2112 75.5105 89.9045 74.649 85.4753 78.0136C84.7438 78.5663 84.0936 79.2165 83.541 79.9479H58.9889C55.6324 75.5105 49.3176 74.649 44.8884 78.0136C44.165 78.5663 43.5149 79.2165 42.9541 79.9479H33.998C31.1698 79.9479 28.8698 77.6479 28.8698 74.8116C28.8698 71.9752 31.1698 69.6752 33.998 69.6752Z" fill="#D64F4F"/>
<path d="M58.4033 86.0501C58.4114 90.1624 55.0793 93.4945 50.9751 93.5027C46.8709 93.5027 43.5469 90.1706 43.5469 86.0582C43.5469 81.9459 46.8709 78.6138 50.9751 78.6138C55.0793 78.6138 58.4033 81.9378 58.4033 86.0501Z" fill="#D64F4F"/>
<path d="M83.8617 85.6355C83.9023 81.5232 87.2588 78.2317 91.363 78.2723C95.4672 78.313 98.7587 81.6776 98.7181 85.7818C98.6775 89.8941 95.321 93.1938 91.2168 93.1531C87.1126 93.1125 83.8211 89.7479 83.8617 85.6355Z" fill="#D64F4F"/>
<path d="M95.2804 86.0513C95.2885 88.1156 93.6225 89.7898 91.5582 89.7898C89.502 89.7898 87.8359 88.1237 87.8359 86.0595C87.8359 83.9952 89.502 82.3291 91.5582 82.3291C93.6143 82.3291 95.2804 83.9952 95.2804 86.0513Z" fill="white"/>
<path d="M91.5528 83.6527C90.2281 83.6527 89.1553 84.7255 89.1553 86.0502C89.1553 87.383 90.2281 88.4558 91.5528 88.4558C92.8857 88.4558 93.9584 87.383 93.9584 86.0502C93.9503 84.7255 92.8775 83.6527 91.5528 83.6527ZM91.5528 91.1053C88.7652 91.1053 86.5059 88.8459 86.5059 86.0502C86.5059 83.2626 88.7652 80.9951 91.5528 80.9951C94.3404 80.9951 96.5998 83.2626 96.5998 86.0502C96.5998 88.8459 94.3404 91.1053 91.5528 91.1053Z" fill="#D64F4F"/>
<path d="M54.6984 86.0513C54.7065 88.1156 53.0404 89.7898 50.9761 89.7898C48.92 89.7898 47.2539 88.1237 47.2539 86.0595C47.2539 83.9952 48.92 82.3291 50.9761 82.3291C53.0323 82.3291 54.6984 83.9952 54.6984 86.0513Z" fill="white"/>
<path d="M50.9708 83.6527C49.6461 83.6527 48.5733 84.7255 48.5733 86.0583C48.5733 87.383 49.6542 88.4558 50.9789 88.4558C52.3036 88.4558 53.3764 87.3749 53.3764 86.0502C53.3683 84.7255 52.2955 83.6527 50.9708 83.6527ZM50.9708 91.1053C48.1832 91.1053 45.9238 88.8459 45.9238 86.0502C45.932 83.2545 48.1913 80.9951 50.9789 80.9951C53.7665 80.9951 56.0177 83.2626 56.0177 86.0502C56.0177 88.8459 53.7584 91.1053 50.9708 91.1053Z" fill="#D64F4F"/>
<path d="M126.576 27.7815C127.289 26.9414 131.24 24.3448 134.259 25.4089C136.973 26.3661 139.752 27.7102 141.076 30.2966C142.298 32.6947 142.721 35.8004 142.593 38.4377C142.318 44.135 139.92 46.6654 134.02 48.2132C133.2 48.427 130.802 48.2488 129.682 47.9485C127.553 47.3782 126.652 46.5789 125.451 44.802C123.883 42.4701 123.75 39.787 123.669 37.0172C123.557 33.4482 124.219 30.5563 126.576 27.7815ZM118.506 39.2524C118.796 42.7145 119.865 46.2174 122.07 49.0889C124.331 52.0317 128.2 53.2079 131.723 53.437C132.691 53.5032 134.417 53.381 135.155 53.2028C140.73 51.8841 143.861 49.3486 146.056 44.6543C148.596 39.2269 148.036 30.4952 144.223 25.694C140.832 21.4172 131.703 19.0803 126.102 21.4427C123.129 22.6952 121.337 25.8009 120.003 28.4077C118.363 31.6255 118.211 35.7342 118.506 39.2524Z" fill="#D64F4F"/>
<path d="M172.806 44.7252C172.17 45.6468 168.667 48.0957 165.215 47.9837C162.251 47.8921 159.319 46.2985 157.669 43.8444C156.137 41.5737 155.342 38.4985 155.164 35.8306C154.782 30.062 157.975 25.5612 163.952 24.5022C164.94 24.324 165.983 24.2069 166.747 24.2069C169.074 24.2069 170.963 24.8026 172.098 26.7883C173.514 29.2678 174.517 32.3583 174.929 35.1381C175.459 38.7225 174.893 41.6602 172.806 44.7252ZM179.73 32.2564C179.033 28.8045 177.409 24.8485 174.817 22.2111C172.159 19.5076 168.183 19.3192 164.553 19.4923C163.555 19.533 161.803 19.8538 161.07 20.1186C155.51 22.0838 152.598 24.991 150.898 29.9653C148.927 35.7186 150.516 44.4401 154.981 48.8391C158.947 52.7543 168.565 54.0628 174.023 51.0487C176.92 49.445 178.401 46.1203 179.46 43.3404C180.764 39.919 180.443 35.7644 179.73 32.2564Z" fill="#D64F4F"/>
<path d="M200.124 46.7055C196.045 47.9682 190.771 48.9814 187.263 45.8807C187.242 45.8655 187.227 45.8553 187.207 45.84C187.375 39.5572 187.161 33.081 187.319 26.8186C191.249 24.8889 197.608 25.9989 201.447 27.8572C205.128 29.6392 206.371 32.9792 206.488 36.9352C206.625 41.4767 204.044 45.4938 200.124 46.7055ZM204.237 23.6925C199.472 21.2028 192.252 19.9401 187.13 21.5694C186.479 18.8302 181.968 19.0288 182.212 22.0836C182.904 30.5709 182.176 39.043 182.202 47.4794C182.232 56.3384 182.579 65.2025 182.864 74.0565C182.966 77.259 187.955 77.1826 187.848 73.9699C187.609 66.5365 187.329 59.0878 187.227 51.6493C191.651 53.5636 196.86 52.9374 201.529 51.4914C207.348 49.6891 211.218 44.1038 211.467 37.6276C211.696 31.9405 209.405 26.3909 204.237 23.6925Z" fill="#D64F4F"/>
<path d="M247.49 3.10801C247.302 -0.0791979 242.312 -0.0995634 242.505 3.10801C242.898 9.63008 243.015 16.1623 242.801 22.6946C242.597 28.9672 242.175 35.978 243.157 42.22C243.651 45.3818 248.457 44.0377 247.963 40.8963C247.016 34.8783 247.648 27.7758 247.816 21.7119C247.989 15.5106 247.867 9.30423 247.49 3.10801Z" fill="#D64F4F"/>
<path d="M245.484 49.2974C242.276 49.2974 242.271 54.2818 245.484 54.2818C248.691 54.2818 248.696 49.2974 245.484 49.2974Z" fill="#D64F4F"/>
<path d="M239.706 41.212C239.069 38.0604 236.89 35.2296 233.922 33.8447C232.176 33.0301 230.271 32.8672 228.408 32.8672C226.606 32.8621 224.126 33.3305 222.563 32.0679C219.941 29.9447 221.412 26.1822 223.785 24.8635C226.219 23.5092 231.442 23.2241 232.344 26.7881C233.143 29.9193 237.852 28.4733 237.058 25.3523C235.378 18.7335 226.565 17.7814 221.57 20.3118C216.255 23.0001 214.106 30.5048 218.846 35.25C221.479 37.8822 224.971 37.8568 228.347 37.8415C232.165 37.8262 235.892 40.0766 234.762 44.4399C233.749 48.3501 229.1 49.8623 225.414 49.9946C222.049 50.1168 217.029 48.3399 217.411 44.0784C217.701 40.932 212.803 39.6948 212.513 42.8667C210.945 60.2029 243.081 57.9117 239.706 41.212Z" fill="#D64F4F"/>
</svg>
