<svg width="231" height="189" viewBox="0 0 231 189" fill="none" xmlns="http://www.w3.org/2000/svg">
<path fill-rule="evenodd" clip-rule="evenodd" d="M117.532 98.3099C116.244 96.2673 121.839 82.9901 130.887 77.8492C135.211 75.3901 141.906 74.5685 146.869 77.2216C153.82 80.9303 154.817 82.448 161.563 88.1252C170.086 95.3087 189.697 92.5186 198.238 78.4255C206.778 64.3267 204.83 48.3793 196.17 36.8937C188.296 26.4637 173.835 23.9304 162.001 25.4024C141.826 27.9129 129.189 49.1153 122.386 66.0442C116.786 79.9718 114.945 96.9177 114.945 96.9177L117.532 98.3099Z" fill="#C8CAFA"/>
<path fill-rule="evenodd" clip-rule="evenodd" d="M36.5176 166.754C19.7393 164.498 11.4445 147.496 10.0897 137.765C8.73485 128.028 9.54662 117.111 19.8708 106.331C30.195 95.5512 40.6679 93.9559 52.6556 95.1011C73.9958 97.1294 76.7454 112.405 75.1048 120.427C72.8238 131.56 61.2248 128.631 57.9263 132.774C54.6336 136.916 54.908 143.12 59.8871 147.405C65.8553 152.533 87.8128 154.875 87.8128 154.875C87.8128 154.875 65.5352 170.651 36.5176 166.754Z" fill="#574B9E"/>
<path fill-rule="evenodd" clip-rule="evenodd" d="M92.4463 54.6266C90.1803 48.2597 83.5485 48.721 82.2553 54.7362C81.9463 56.1779 82.5986 58.2484 83.1708 59.7074C84.8245 63.929 89.8427 64.5115 92.0228 61.6798C93.4362 59.8458 93.3275 57.1065 92.4463 54.6266Z" fill="#9196F7"/>
<path fill-rule="evenodd" clip-rule="evenodd" d="M80.8569 30.4214C74.3199 22.0022 64.0409 17.1766 53.528 17.65C44.6294 18.055 25.6172 19.8176 18.6638 41.3903C13.8836 56.2151 19.6335 73.2873 32.0687 80.212C46.5859 88.2946 59.1124 83.8455 69.9618 81.6038C86.4471 78.1985 92.2083 97.9573 92.2083 97.9573C94.5356 88.8365 93.1894 75.1468 91.4725 66.3169C91.2044 64.9423 83.1728 66.7904 81.1878 58.742C78.5866 48.161 88.3066 46.9289 87.4795 44.6245C85.734 39.7418 83.749 34.1518 80.8569 30.4214Z" fill="#9196F7"/>
<path fill-rule="evenodd" clip-rule="evenodd" d="M177.242 166.979C187.066 164.373 195.999 155.508 199.556 145.918C202.564 137.807 206.64 120.071 190.434 105.553C179.302 95.5761 161.8 94.4637 151.057 102.918C138.522 112.792 138.864 128.913 145.2 137.538C154.671 150.436 148.848 154.966 144.338 157.099C137.015 160.556 123.754 158.212 123.754 158.212C138.824 170.106 159.152 171.788 177.242 166.979Z" fill="#6C5BCD"/>
<path fill-rule="evenodd" clip-rule="evenodd" d="M159.695 161.649L159.493 163.497L153.705 161.415L157.091 160.678L159.695 161.649Z" fill="white"/>
<path fill-rule="evenodd" clip-rule="evenodd" d="M180.021 160.678L180.837 162.236L174.494 163.497L177.145 161.219L180.021 160.678Z" fill="white"/>
<path fill-rule="evenodd" clip-rule="evenodd" d="M89.0352 34.1792C86.0975 34.1792 86.8113 38.8426 89.2274 39.1036C90.7539 39.2603 92.1432 37.2592 91.5501 35.8033C91.303 35.1884 90.6715 34.1792 89.0352 34.1792Z" fill="#9196F7"/>
<path fill-rule="evenodd" clip-rule="evenodd" d="M93.7752 40.172C92.969 40.221 92.3556 40.9678 92.3965 41.6656C92.4432 42.3634 93.1267 42.9205 93.781 42.9817C94.7567 43.0735 95.3058 42.2043 95.2007 41.2739C95.1189 40.6189 94.5814 40.1292 93.7752 40.172Z" fill="#9196F7"/>
<path fill-rule="evenodd" clip-rule="evenodd" d="M91.3207 46.1616C90.9183 46.1829 90.6124 46.5551 90.6339 46.9061C90.6553 47.2571 90.9988 47.5336 91.3261 47.5655C91.8144 47.6134 92.0935 47.1773 92.0345 46.7093C91.9969 46.385 91.7286 46.135 91.3207 46.1616Z" fill="#9196F7"/>
<path fill-rule="evenodd" clip-rule="evenodd" d="M139.873 87.7341C145.869 84.7992 144.73 78.2114 138.706 77.5394C137.26 77.3786 135.301 78.2516 133.934 78.9753C129.971 81.0716 129.92 86.1489 132.921 88.0443C134.868 89.2676 137.533 88.8771 139.873 87.7341Z" fill="#C8CAFA"/>
<path fill-rule="evenodd" clip-rule="evenodd" d="M149.289 81.0439C146.351 81.0439 147.065 85.3791 149.481 85.6161C151.008 85.7669 152.397 83.9035 151.804 82.5518C151.557 81.981 150.925 81.0439 149.289 81.0439Z" fill="#C8CAFA"/>
<path fill-rule="evenodd" clip-rule="evenodd" d="M126.544 86.332C125.738 86.3695 125.125 87.0281 125.166 87.6332C125.213 88.2437 125.896 88.7363 126.55 88.7898C127.531 88.8702 128.08 88.1044 127.969 87.2905C127.887 86.7229 127.35 86.2892 126.544 86.332Z" fill="#C8CAFA"/>
<path fill-rule="evenodd" clip-rule="evenodd" d="M134.837 139.537C134.328 139.564 133.947 139.935 133.974 140.285C134.001 140.635 134.429 140.91 134.837 140.942C135.452 140.99 135.793 140.555 135.726 140.089C135.679 139.765 135.338 139.516 134.837 139.537Z" fill="#6C5BCD"/>
<path fill-rule="evenodd" clip-rule="evenodd" d="M68.4855 137.313C66.2142 131.109 59.5836 131.564 58.2964 137.42C57.9818 138.823 58.6397 140.839 59.2061 142.259C60.8651 146.369 65.8767 146.936 68.0621 144.179C69.4752 142.388 69.3665 139.727 68.4855 137.313Z" fill="#574B9E"/>
<path fill-rule="evenodd" clip-rule="evenodd" d="M72.4735 83.5103C69.5345 83.5103 70.2487 87.8451 72.6657 88.0824C74.1929 88.2333 75.5772 86.3732 74.9894 85.0145C74.7422 84.443 74.1105 83.5103 72.4735 83.5103Z" fill="#9196F7"/>
<path fill-rule="evenodd" clip-rule="evenodd" d="M135.352 153.282C134.546 153.325 133.939 154.073 133.974 154.772C134.021 155.471 134.704 156.029 135.358 156.091C136.339 156.183 136.888 155.312 136.777 154.379C136.702 153.729 136.158 153.233 135.352 153.282Z" fill="#6C5BCD"/>
<path fill-rule="evenodd" clip-rule="evenodd" d="M128.319 82.1024C127.917 82.1289 127.61 82.5001 127.632 82.8501C127.653 83.1948 127.997 83.4758 128.325 83.5077C128.813 83.5501 129.087 83.1152 129.034 82.6539C128.996 82.3251 128.728 82.0811 128.319 82.1024Z" fill="#C8CAFA"/>
<path fill-rule="evenodd" clip-rule="evenodd" d="M146.356 144.831C144.09 138.466 137.459 138.927 136.165 144.941C135.856 146.388 136.509 148.458 137.081 149.911C138.735 154.132 143.753 154.72 145.933 151.883C147.346 150.05 147.238 147.311 146.356 144.831Z" fill="#6C5BCD"/>
<path fill-rule="evenodd" clip-rule="evenodd" d="M138.012 131.784C135.074 131.784 135.788 136.453 138.204 136.708C139.736 136.871 141.119 134.867 140.526 133.404C140.279 132.794 139.648 131.784 138.012 131.784Z" fill="#6C5BCD"/>
<path fill-rule="evenodd" clip-rule="evenodd" d="M69.4574 130.378C68.6501 130.415 68.0358 131.07 68.0826 131.682C68.1235 132.294 68.808 132.787 69.4632 132.836C70.4461 132.916 70.996 132.154 70.8848 131.344C70.8088 130.77 70.2647 130.335 69.4574 130.378Z" fill="#574B9E"/>
<path fill-rule="evenodd" clip-rule="evenodd" d="M74.2312 102.187C73.723 102.22 73.3418 102.684 73.3685 103.121C73.3953 103.552 73.8233 103.903 74.2312 103.943C74.8465 104.003 75.1876 103.459 75.1207 102.876C75.0739 102.472 74.7328 102.161 74.2312 102.187Z" fill="#574B9E"/>
<path fill-rule="evenodd" clip-rule="evenodd" d="M120.935 137.774C120.82 131.928 118.91 127.308 115.674 123.593C115.674 123.593 91.8264 111.207 85.9875 108.942C84.2719 108.283 82.3104 107.194 80.6462 110.032C79.1594 112.554 80.8006 114.073 82.2704 115.202C87.0569 118.899 109.377 132.214 109.377 132.214L120.935 137.774Z" fill="#AB6243"/>
<path fill-rule="evenodd" clip-rule="evenodd" d="M121.289 139.889L112.238 129.352C112.238 129.352 86.0173 124.444 79.838 124.055C77.9825 123.936 75.5993 124.196 75.1738 127.007C74.7993 129.481 76.8477 130.112 78.4251 130.619C84.1108 132.445 109.259 137.967 109.259 137.967L121.289 139.889Z" fill="#AB6243"/>
<path fill-rule="evenodd" clip-rule="evenodd" d="M123.755 148.345L114.14 138.228C114.14 138.228 87.045 135.13 80.7492 134.987C79.0302 134.947 77.0378 134.627 76.3548 137.371C75.6489 140.2 77.2655 141.12 79.0871 141.646C84.8477 143.327 110.913 147.425 110.913 147.425L123.755 148.345Z" fill="#AB6243"/>
<path fill-rule="evenodd" clip-rule="evenodd" d="M124.812 156.802L115.211 146.817C115.211 146.817 88.6123 144.516 82.5298 144.47C81.0461 144.459 79.119 144.647 78.7154 146.543C78.3572 148.238 79.5737 149.78 81.1427 150.225C86.7136 151.807 112.158 156.037 112.158 156.037L124.812 156.802Z" fill="#AB6243"/>
<path fill-rule="evenodd" clip-rule="evenodd" d="M115.27 181.82C115.27 181.82 106.332 173.5 103.459 169.679C101.041 166.462 98.0312 158.894 98.0312 158.894L99.0155 129.67L119.902 131.168L134.677 181.404L115.27 181.82Z" fill="#AB6243"/>
<path fill-rule="evenodd" clip-rule="evenodd" d="M115.285 111.08C115.463 108.617 113.638 106.479 111.217 106.299L98.5138 105.369C96.0926 105.189 93.9868 107.042 93.8147 109.5C93.6368 111.957 95.4614 114.101 97.8827 114.276L110.586 115.211C113.001 115.391 115.113 113.538 115.285 111.08Z" fill="white"/>
<path fill-rule="evenodd" clip-rule="evenodd" d="M114.228 124.261C114.406 121.891 112.582 119.829 110.161 119.655L97.4611 118.759C95.0404 118.585 92.9352 120.372 92.7573 122.742C92.5852 125.112 94.4094 127.18 96.8301 127.348L109.525 128.25C111.945 128.418 114.056 126.636 114.228 124.261Z" fill="white"/>
<path fill-rule="evenodd" clip-rule="evenodd" d="M113.171 137.507C113.346 135.05 111.552 132.906 109.171 132.732L96.6787 131.796C94.2977 131.616 92.227 133.47 92.0521 135.927C91.8828 138.391 93.677 140.529 96.0524 140.709L108.544 141.638C110.925 141.818 113.002 139.965 113.171 137.507Z" fill="white"/>
<path fill-rule="evenodd" clip-rule="evenodd" d="M112.467 151.045C112.645 148.675 110.82 146.608 108.399 146.44L95.6955 145.538C93.2742 145.364 91.1685 147.152 90.9964 149.521C90.8185 151.897 92.6431 153.958 95.0643 154.132L107.762 155.029C110.183 155.202 112.295 153.415 112.467 151.045Z" fill="white"/>
<path fill-rule="evenodd" clip-rule="evenodd" d="M122.339 98.4286C122.454 96.8831 121.104 95.5258 119.33 95.4003L91.5045 93.3871C89.7311 93.256 88.1979 94.408 88.0892 95.9535L83.5927 158.093C83.4783 159.639 84.8284 160.996 86.6018 161.122L114.433 163.135C116.207 163.266 117.734 162.114 117.848 160.569L122.339 98.4286Z" fill="#2D4D67"/>
<path fill-rule="evenodd" clip-rule="evenodd" d="M120.931 99.8882C121.04 98.4146 119.795 97.1181 118.154 96.9981L92.4602 95.1476C90.8253 95.0277 89.4084 96.13 89.2994 97.6093L85.0027 156.986C84.8937 158.46 86.1386 159.756 87.7735 159.87L113.467 161.727C115.108 161.847 116.525 160.744 116.628 159.271L120.931 99.8882Z" fill="white"/>
<path fill-rule="evenodd" clip-rule="evenodd" d="M113.536 96.6851C113.564 96.2737 113.259 95.9137 112.853 95.8851L97.9102 94.788C97.5036 94.7594 97.1478 95.068 97.1196 95.4794L96.9784 97.4679C96.9501 97.8794 97.2551 98.2394 97.6617 98.2679L112.604 99.3651C113.011 99.3936 113.366 99.0794 113.395 98.6679L113.536 96.6851Z" fill="#2D4D67"/>
<path fill-rule="evenodd" clip-rule="evenodd" d="M118.811 104.533C118.965 102.457 117.41 100.65 115.355 100.501L95.0495 99.0252C92.9939 98.8708 91.2003 100.432 91.0523 102.508L87.4707 152.342C87.3226 154.412 88.8771 156.22 90.9327 156.374L111.238 157.85C113.293 157.998 115.087 156.437 115.235 154.361L118.811 104.533Z" fill="#FBF3E5"/>
<path fill-rule="evenodd" clip-rule="evenodd" d="M117.764 99.2074C117.775 99.0474 117.669 98.9067 117.536 98.8939L114.891 98.6635C114.759 98.6507 114.642 98.7723 114.631 98.9386L114.594 99.5273C114.589 99.6872 114.69 99.828 114.822 99.8408L117.467 100.071C117.6 100.084 117.717 99.9624 117.727 99.796L117.764 99.2074Z" fill="#ABC8BD"/>
<path fill-rule="evenodd" clip-rule="evenodd" d="M112.128 109.271C112.134 109.142 112.026 109.034 111.884 109.029L103.991 108.53C103.843 108.52 103.718 108.614 103.707 108.737L103.673 109.192C103.661 109.32 103.769 109.429 103.911 109.439L111.81 109.938C111.952 109.943 112.077 109.849 112.089 109.726L112.128 109.271Z" fill="#ABC8BD"/>
<path fill-rule="evenodd" clip-rule="evenodd" d="M110.014 111.329C110.025 111.189 109.921 111.07 109.779 111.059L103.973 110.644C103.837 110.633 103.716 110.741 103.705 110.876L103.673 111.372C103.662 111.507 103.766 111.626 103.902 111.636L109.708 112.052C109.844 112.063 109.97 111.96 109.975 111.825L110.014 111.329Z" fill="#ABC8BD"/>
<path fill-rule="evenodd" clip-rule="evenodd" d="M98.5188 105.37C100.943 105.551 102.774 107.663 102.603 110.087C102.431 112.51 100.323 114.335 97.899 114.154C95.4753 113.973 93.6492 111.861 93.8152 109.437C93.9922 107.014 96.095 105.189 98.5188 105.37Z" fill="#6C5BCD"/>
<path fill-rule="evenodd" clip-rule="evenodd" d="M110.366 121.572C110.377 121.437 110.269 121.323 110.122 121.318L103.279 120.862C103.137 120.852 103.013 120.95 103.002 121.085L102.968 121.561C102.956 121.691 103.064 121.805 103.205 121.815L110.049 122.271C110.19 122.276 110.32 122.177 110.326 122.048L110.366 121.572Z" fill="#ABC8BD"/>
<path fill-rule="evenodd" clip-rule="evenodd" d="M111.071 123.705C111.077 123.579 110.974 123.469 110.826 123.459L103.287 122.976C103.144 122.966 103.019 123.061 103.008 123.192L102.968 123.655C102.956 123.78 103.065 123.891 103.213 123.901L110.752 124.384C110.894 124.394 111.02 124.298 111.031 124.168L111.071 123.705Z" fill="#ABC8BD"/>
<path fill-rule="evenodd" clip-rule="evenodd" d="M107.9 125.725C107.911 125.575 107.804 125.448 107.656 125.436L102.928 125.09C102.786 125.079 102.661 125.188 102.65 125.333L102.616 125.863C102.605 126.013 102.712 126.14 102.854 126.152L107.583 126.498C107.724 126.51 107.855 126.4 107.86 126.256L107.9 125.725Z" fill="#ABC8BD"/>
<path fill-rule="evenodd" clip-rule="evenodd" d="M97.6541 118.759C100.176 118.94 102.076 121.053 101.898 123.476C101.719 125.9 99.5313 127.725 97.0092 127.544C94.4814 127.363 92.5812 125.25 92.7597 122.827C92.9382 120.403 95.132 118.579 97.6541 118.759Z" fill="#C8CAFA"/>
<path fill-rule="evenodd" clip-rule="evenodd" d="M110.365 135.334C110.377 135.208 110.263 135.097 110.12 135.087L102.582 134.604C102.439 134.594 102.314 134.69 102.302 134.821L102.263 135.283C102.251 135.409 102.365 135.52 102.508 135.53L110.046 136.013C110.189 136.018 110.314 135.927 110.325 135.796L110.365 135.334Z" fill="#ABC8BD"/>
<path fill-rule="evenodd" clip-rule="evenodd" d="M108.603 138.1C108.615 137.959 108.509 137.84 108.37 137.835L102.569 137.423C102.43 137.412 102.307 137.515 102.296 137.656L102.263 138.154C102.251 138.29 102.357 138.409 102.496 138.42L108.292 138.832C108.436 138.837 108.559 138.734 108.57 138.599L108.603 138.1Z" fill="#ABC8BD"/>
<path fill-rule="evenodd" clip-rule="evenodd" d="M96.7574 131.797C99.181 131.978 101.012 134.091 100.841 136.514C100.669 138.938 98.5612 140.762 96.1377 140.581C93.7141 140.401 91.8826 138.288 92.0541 135.864C92.2256 133.441 94.3338 131.616 96.7574 131.797Z" fill="#574B9E"/>
<path fill-rule="evenodd" clip-rule="evenodd" d="M108.957 148.906C108.968 148.748 108.86 148.61 108.717 148.598L101.168 147.994C101.026 147.982 100.9 148.101 100.889 148.258L100.854 148.843C100.843 149 100.951 149.138 101.094 149.151L108.638 149.754C108.786 149.767 108.911 149.647 108.917 149.484L108.957 148.906Z" fill="#ABC8BD"/>
<path fill-rule="evenodd" clip-rule="evenodd" d="M108.604 151.547C108.615 151.416 108.507 151.305 108.358 151.295L100.815 150.812C100.672 150.807 100.546 150.903 100.535 151.029L100.501 151.491C100.489 151.617 100.598 151.733 100.74 151.738L108.284 152.221C108.427 152.231 108.552 152.135 108.564 152.009L108.604 151.547Z" fill="#ABC8BD"/>
<path fill-rule="evenodd" clip-rule="evenodd" d="M95.8924 145.187C98.4145 145.375 100.315 147.573 100.136 150.093C99.9634 152.614 97.7696 154.506 95.2475 154.324C92.7254 154.136 90.8194 151.938 90.9979 149.418C91.1764 146.897 93.3703 144.999 95.8924 145.187Z" fill="#9196F7"/>
<path fill-rule="evenodd" clip-rule="evenodd" d="M113.256 170.723C113.256 170.723 109.499 166.117 108.27 163.443C106.898 160.454 106.789 156.049 105.022 152.786C103.066 149.169 98.0516 146.306 96.5363 141.763C95.3068 138.1 98.7263 135.66 98.7263 135.66C105.622 139.197 112.33 142.929 118.683 147.026C121.325 149.752 124.824 153.734 127.066 157.386L132.915 179.706L117.351 178.706L113.256 170.723Z" fill="#AB6243"/>
<path fill-rule="evenodd" clip-rule="evenodd" d="M104.392 138.773C104.392 138.773 104.017 140.534 102.699 140.638C100.935 140.784 97.3262 138.127 97.3262 138.127C97.3262 138.127 100.525 140.982 102.494 140.946C104.31 140.909 104.726 138.929 104.726 138.929L104.392 138.773Z" fill="#7F4730"/>
<path fill-rule="evenodd" clip-rule="evenodd" d="M32.3188 169.505C39.4457 174.62 51.4381 174.528 57.5485 173.527C59.4787 173.212 67.5593 171.262 65.6862 168.401C63.973 165.781 57.3829 168.882 48.1431 169.832C46.2528 170.02 41.907 169.952 38.8176 169.397C36.796 169.031 33.1526 167.475 30.8398 167.486C29.5435 167.486 31.2738 168.756 32.3188 169.505Z" fill="#574B9E"/>
<path fill-rule="evenodd" clip-rule="evenodd" d="M15.7438 45.4551C11.7824 55.9926 11.6579 65.5214 16.0155 73.8533C17.1473 76.0019 22.0256 83.3422 23.6951 80.3274C24.1874 79.4441 24.0856 78.31 23.7686 77.3867C22.8009 74.5828 20.5146 72.8674 19.0828 70.2801C14.363 61.76 14.6742 51.2681 15.7438 45.4551Z" fill="#9196F7"/>
<path fill-rule="evenodd" clip-rule="evenodd" d="M114.329 90.5576C111.848 77.1548 115.487 60.6006 121.024 50.8676C122.456 48.3545 127.97 39.3509 129.219 43.2487C129.584 44.3884 129.322 45.7731 128.872 46.8672C127.508 50.2122 125.587 52.6797 123.859 55.7398C117.922 66.225 114.072 83.292 114.329 90.5576Z" fill="#C8CAFA"/>
<path fill-rule="evenodd" clip-rule="evenodd" d="M139.16 125.794C137.508 119.619 136.949 112.183 140.3 106.345C141.106 104.941 143.375 102.088 144.618 101.032C146.104 99.7651 149.293 98.3726 149.765 100.37C150.393 103.041 146.167 104.211 143.714 107.789C140.519 112.457 139.471 119.482 139.16 125.794Z" fill="#6C5BCD"/>
<path d="M102.973 81.0501C103.727 80.9806 104.616 81.4569 104.921 82.3453C105.226 82.0616 105.579 81.8476 106.007 81.7566C106.708 81.6174 107.361 81.9171 107.811 82.4951C108.378 83.2123 108.389 84.3522 107.688 85.2941C106.949 86.2842 104.187 87.5633 103.593 87.3974C103.005 87.2369 101.56 85.3423 101.33 83.817C101.158 82.6824 101.608 81.1679 102.973 81.0501Z" fill="#4CB2CE"/>
<path d="M118.209 32.8342C113.807 35.5965 109.105 37.7766 104.091 39.1827C102.766 36.8961 101.512 34.6379 100.544 32.1879C101.975 32.3655 103.414 32.4933 104.86 32.5714C105.658 32.614 106.456 32.6353 107.253 32.6495C107.823 32.6566 108.764 32.8626 109.205 32.4578C109.775 31.9323 110.217 31.1299 110.665 30.5049C111.143 29.8516 111.613 29.1841 112.076 28.5166C112.881 27.3378 113.736 26.1377 114.441 24.8737C116.008 27.4088 117.119 30.0718 118.209 32.8342ZM113.372 24.8737C112.674 25.9033 112.026 26.9685 111.314 27.984C110.423 29.248 109.483 30.4765 108.557 31.7122C105.772 31.7974 102.958 31.5985 100.194 31.2577C100.194 31.2577 100.194 31.2577 100.194 31.2506C104.276 28.5024 108.707 26.4146 113.372 24.8737ZM115.174 24.0357C115.117 23.9434 115.039 23.8795 114.961 23.8369C114.882 23.6735 114.718 23.567 114.491 23.6238C109.17 25.0228 104.112 27.4585 99.5819 30.5618C99.5178 30.6115 99.4679 30.6683 99.4323 30.7251C99.1972 30.8387 99.012 31.1157 99.1189 31.4352C100.145 34.4106 101.519 37.4571 103.478 39.9496C103.507 39.978 103.535 40.0064 103.564 40.0277C103.671 40.1413 103.834 40.2053 104.02 40.1484C109.333 38.7282 114.469 36.4842 118.992 33.3525C119.163 33.2318 119.199 33.0614 119.156 32.9123C119.17 32.8555 119.17 32.7986 119.149 32.7276C118.415 29.6528 116.877 26.6845 115.174 24.0357Z" fill="#4CB2CE"/>
<path d="M14.702 98.7618C13.2255 98.7618 11.8839 98.6901 10.7197 98.6328C10.1093 98.5969 9.67627 98.4176 9.5343 98.6256C9.0374 99.2996 8.66118 99.8303 8.15719 100.519C7.79517 101.021 7.42605 101.523 7.06402 102.025C6.66651 100.691 6.2264 99.3785 5.7508 98.0734C5.67982 97.8727 5.37458 97.7651 5.34619 97.7579C3.83421 97.3564 2.40031 97.0193 0.952222 96.5174C1.17937 93.4053 1.44202 90.372 2.15187 87.3245C6.87946 87.1524 11.5077 87.8694 16.0223 89.2606C15.9087 92.5089 15.3338 95.5995 14.702 98.7618ZM16.9877 89.2892C16.9877 89.1745 16.9664 89.0741 16.9238 88.9881C16.9522 88.8088 16.8883 88.6152 16.6896 88.5435C12.0188 86.8082 7.01433 86.1484 2.05249 86.3707C1.9815 86.3779 1.91052 86.3994 1.86083 86.4353C1.61948 86.3994 1.34264 86.5428 1.25746 86.887C0.483722 90.0924 -0.0699624 93.5559 0.107501 96.8472C0.107501 96.8903 0.114601 96.9261 0.128797 96.962C0.150093 97.1269 0.235274 97.2703 0.405638 97.3349C1.96021 97.9013 3.55027 98.3674 5.16163 98.7403C5.66562 100.153 6.13412 101.573 6.56713 103.007C6.65231 103.279 7.05692 103.322 7.21309 103.1C7.73838 102.376 8.27077 101.652 8.80315 100.927C9.14388 100.461 9.513 100.002 9.83953 99.5219C11.5574 99.694 13.2894 99.7442 15.0143 99.6582C15.206 99.651 15.3196 99.5148 15.3622 99.357C15.3977 99.314 15.4331 99.2638 15.4544 99.1993C16.4979 96.0656 16.8812 92.5806 16.9877 89.2892Z" fill="#4CB2CE"/>
<path d="M124.509 120.086C125.265 119.419 126.591 119.225 127.618 119.935C127.725 119.39 127.932 118.881 128.324 118.444C128.958 117.735 129.899 117.541 130.833 117.799C132.01 118.129 132.929 119.34 132.915 120.917C132.908 122.573 130.955 126.142 130.192 126.443C129.436 126.737 126.385 125.841 124.93 124.379C123.846 123.29 123.141 121.304 124.509 120.086Z" fill="#4CB2CE"/>
<path d="M214.99 104.186C210.122 103.899 205.354 103.01 200.767 101.355C201.007 98.8871 201.282 96.4775 201.885 94.0797C202.879 94.9979 203.903 95.881 204.962 96.7173C205.547 97.1852 206.138 97.6355 206.741 98.08C207.174 98.4016 207.77 99.0684 208.332 98.9982C209.052 98.9046 209.824 98.5362 210.514 98.3022C211.234 98.0624 211.954 97.811 212.667 97.5478C213.931 97.0858 215.236 96.6354 216.459 96.0564C216.271 98.8403 215.663 101.484 214.99 104.186ZM215.651 95.4775C214.557 95.881 213.475 96.3372 212.381 96.729C211.012 97.2144 209.631 97.6355 208.25 98.08C206.08 96.6296 204.044 94.9453 202.125 93.1849C202.125 93.179 202.125 93.179 202.125 93.179C206.741 93.296 211.252 94.1148 215.651 95.4775ZM217.483 95.8167C217.488 95.7114 217.465 95.6237 217.424 95.5476C217.453 95.378 217.389 95.2084 217.184 95.1266C212.363 93.296 207.185 92.4129 202.037 92.3193C201.961 92.3193 201.896 92.331 201.838 92.3603C201.586 92.3193 201.3 92.4305 201.206 92.7346C200.364 95.5652 199.749 98.6414 199.884 101.607C199.884 101.642 199.89 101.677 199.901 101.706C199.925 101.852 200.012 101.993 200.182 102.057C205.003 103.858 210.146 104.934 215.3 105.004C215.499 105.004 215.616 104.899 215.663 104.759C215.704 104.724 215.739 104.677 215.762 104.618C216.886 101.87 217.33 98.7642 217.483 95.8167Z" fill="#4CB2CE"/>
<path d="M80.7334 177.117C81.3037 176.397 82.4727 176.005 83.5135 176.482C83.5206 175.976 83.6276 175.477 83.9127 175.021C84.3689 174.28 85.1887 173.959 86.0798 174.037C87.1918 174.144 88.2112 175.092 88.4535 176.504C88.7102 177.994 87.5268 181.515 86.8853 181.9C86.2437 182.292 83.3495 181.979 81.8027 180.902C80.6479 180.097 79.6926 178.429 80.7334 177.117Z" fill="#4CB2CE"/>
<path d="M81.1975 187.596C84.997 185.785 89.1458 183.012 91.7477 181.087C92.2609 180.702 94.1215 180.71 95.6042 180.289C96.3242 180.082 97.1297 179.854 97.8069 179.548C96.7091 179.262 95.6755 178.956 94.6419 178.393C94.4494 178.293 94.2854 177.972 94.2141 177.815C92.4891 174.044 90.9279 172.155 88.8535 169.546C83.7994 171.721 79.28 174.772 75.2096 178.45C76.8991 181.743 78.9948 184.645 81.1975 187.596ZM74.2045 178.956C74.1617 178.87 73.9621 178.286 74.1546 178.036C76.8278 174.608 84.5052 170.174 88.4971 168.513C88.882 168.356 89.3311 168.434 89.5806 168.648C91.541 170.309 94.15 175.67 95.1337 177.43C95.3405 177.808 98.0849 178.635 99.2469 178.863C99.4678 178.906 99.6461 179.655 99.475 179.769C97.6786 180.98 92.7885 181.622 92.3964 181.864C90.265 183.169 84.4125 187.624 81.2973 188.665C81.0478 188.751 80.8055 188.587 80.6843 188.465C78.6669 186.313 75.566 181.465 74.2045 178.956Z" fill="#4CB2CE"/>
<path d="M27.4212 9.63915C26.9607 11.9859 24.6161 14.8193 23.7023 15.0268C22.7814 15.2343 18.6446 13.0663 17.5749 11.4851C16.562 9.97543 16.6612 8.21533 17.5749 7.13495C18.3116 6.28352 19.3317 5.85422 20.3942 6.12611C21.0459 6.29067 21.5701 6.65557 22.0235 7.10633C22.5476 5.75406 23.936 5.0815 25.0907 5.23891C27.1732 5.51795 27.7683 7.88621 27.4212 9.63915ZM32.4718 0.903056C32.4293 0.738494 32.3443 0.616861 32.2522 0.523848C32.2026 0.251962 32.0255 0.0230071 31.7138 0.0158527C24.4461 -0.170173 17.2208 1.28942 10.4559 3.95103C10.3567 3.99396 10.2788 4.0512 10.2151 4.1299C9.86797 4.19429 9.54921 4.52342 9.59171 5.03857C10.0096 9.83948 10.8597 14.898 12.6306 19.3698C12.6518 19.427 12.6802 19.4699 12.7085 19.5129C12.8148 19.7275 13.006 19.8921 13.2681 19.8992C15.6836 19.9422 18.0991 19.842 20.5005 19.5916C21.8534 21.3016 23.171 23.0402 24.4319 24.8218C24.6727 25.1581 25.2536 25.0364 25.374 24.6501C25.7636 23.398 26.1603 22.1459 26.557 20.8866C26.8191 20.0781 27.1095 19.2696 27.3362 18.4468C29.7942 17.8744 32.2097 17.1231 34.5685 16.1859C34.8235 16.0857 34.9227 15.8496 34.9086 15.6135C34.9369 15.5348 34.9581 15.4489 34.9581 15.3416C34.944 10.5192 33.8602 5.51079 32.4718 0.903056Z" fill="#4CB2CE"/>
<path d="M223.802 40.5123C223.154 39.9634 222.027 39.828 221.179 40.4553C221.072 39.9991 220.887 39.5713 220.545 39.2149C219.989 38.6304 219.19 38.4949 218.406 38.7302C217.415 39.0367 216.674 40.0775 216.717 41.4034C216.767 42.7934 218.499 45.7517 219.147 45.9798C219.796 46.208 222.355 45.3882 223.546 44.1264C224.437 43.1855 224.993 41.5032 223.802 40.5123Z" fill="#4CB2CE"/>
<path d="M225.349 50.0502C221.586 49.1307 217.316 47.4056 214.607 46.151C214.072 45.9086 212.397 46.2579 210.978 46.1581C210.287 46.1082 209.517 46.0512 208.854 45.9015C209.788 45.4381 210.658 44.9676 211.492 44.269C211.641 44.1407 211.734 43.8128 211.77 43.6631C212.618 39.9349 213.673 37.9389 215.056 35.1945C220.032 36.2139 224.679 38.1172 229.042 40.6763C228.137 43.9625 226.782 46.9707 225.349 50.0502ZM230.04 40.9472C230.069 40.8616 230.14 40.2985 229.912 40.106C226.854 37.5112 219.105 34.945 215.191 34.1965C214.806 34.1252 214.421 34.282 214.236 34.5244C212.775 36.3849 211.42 41.717 210.864 43.492C210.743 43.8698 208.434 45.1316 207.421 45.5522C207.229 45.6306 207.207 46.3434 207.386 46.4147C209.232 47.1632 213.766 46.8353 214.165 46.9779C216.332 47.7549 222.455 50.6847 225.456 51.0411C225.699 51.0696 225.891 50.8771 225.977 50.7417C227.395 48.4178 229.284 43.4635 230.04 40.9472Z" fill="#4CB2CE"/>
<path d="M65.8538 42.1635C64.7566 42.6791 63.5778 43.0275 62.3386 43.1849C63.6172 42.3736 64.5738 41.0967 65.0299 39.5924C63.8286 40.3491 62.5138 40.8817 61.1428 41.1671C60.2208 40.1232 58.9995 39.4312 57.6687 39.1987C56.3378 38.9662 54.9718 39.2061 53.7827 39.8812C52.5936 40.5563 51.648 41.6289 51.0926 42.9323C50.5373 44.2357 50.4032 45.6971 50.7113 47.0896C48.2772 46.96 45.8959 46.2891 43.7221 45.1204C41.5483 43.9517 39.6305 42.3114 38.0932 40.3059C37.5676 41.2674 37.2653 42.3823 37.2653 43.5696C37.2648 44.6384 37.513 45.6909 37.9879 46.6336C38.4629 47.5763 39.15 48.3801 39.9882 48.9737C39.0161 48.9409 38.0655 48.6623 37.2154 48.1613V48.2449C37.2153 49.7439 37.7043 51.1969 38.5994 52.3572C39.4945 53.5175 40.7406 54.3136 42.1262 54.6105C41.2245 54.8693 40.279 54.9075 39.3614 54.722C39.7523 56.0119 40.5138 57.1398 41.5393 57.9479C42.5648 58.7561 43.8029 59.2039 45.0804 59.2287C42.9119 61.0339 40.2338 62.0131 37.4769 62.0088C36.9886 62.009 36.5006 61.9787 36.0156 61.9182C38.814 63.8262 42.0715 64.8388 45.3984 64.8349C56.6603 64.8349 62.8169 54.9436 62.8169 46.365C62.8169 46.0863 62.8104 45.8048 62.7985 45.5261C63.9961 44.6077 65.0298 43.4705 65.8512 42.1677L65.8538 42.1635Z" fill="#666DFF"/>
<path d="M169.898 52.2652C167.441 52.2652 165.437 54.1925 165.437 56.5542C165.437 58.9158 167.441 60.8431 169.898 60.8431C172.354 60.8431 174.358 58.9158 174.358 56.5542C174.358 54.1925 172.354 52.2652 169.898 52.2652ZM183.275 56.5542C183.275 54.7781 183.292 53.0181 183.188 51.2453C183.085 49.1861 182.596 47.3586 181.03 45.8528C179.461 44.3438 177.564 43.8772 175.422 43.7775C173.575 43.6777 171.745 43.6938 169.901 43.6938C168.054 43.6938 166.223 43.6777 164.38 43.7775C162.238 43.8772 160.338 44.347 158.772 45.8528C157.202 47.3618 156.717 49.1861 156.613 51.2453C156.51 53.0214 156.526 54.7813 156.526 56.5542C156.526 58.327 156.51 60.0902 156.613 61.8631C156.717 63.9223 157.206 65.7498 158.772 67.2556C160.341 68.7646 162.238 69.2311 164.38 69.3309C166.227 69.4306 168.057 69.4145 169.901 69.4145C171.748 69.4145 173.578 69.4306 175.422 69.3309C177.564 69.2311 179.464 68.7614 181.03 67.2556C182.599 65.7466 183.085 63.9223 183.188 61.8631C183.295 60.0902 183.275 58.3302 183.275 56.5542ZM169.898 63.1533C166.1 63.1533 163.035 60.206 163.035 56.5542C163.035 52.9023 166.1 49.9551 169.898 49.9551C173.695 49.9551 176.76 52.9023 176.76 56.5542C176.76 60.206 173.695 63.1533 169.898 63.1533ZM177.042 51.226C176.155 51.226 175.439 50.5375 175.439 49.6848C175.439 48.8322 176.155 48.1436 177.042 48.1436C177.928 48.1436 178.644 48.8322 178.644 49.6848C178.645 49.8873 178.603 50.0878 178.523 50.2749C178.442 50.462 178.324 50.632 178.175 50.7752C178.027 50.9183 177.85 51.0318 177.655 51.1092C177.461 51.1866 177.252 51.2262 177.042 51.226Z" fill="#574B9E"/>
<path d="M184.043 120.509H162.831C161.625 120.509 160.469 120.989 159.617 121.844C158.764 122.699 158.285 123.858 158.285 125.068V140.263C158.285 141.472 158.764 142.632 159.617 143.487C160.469 144.342 161.625 144.822 162.831 144.822H184.043C185.249 144.822 186.405 144.342 187.257 143.487C188.11 142.632 188.589 141.472 188.589 140.263V125.068C188.589 123.858 188.11 122.699 187.257 121.844C186.405 120.989 185.249 120.509 184.043 120.509ZM184.043 123.548L174.194 130.34C173.964 130.474 173.703 130.544 173.437 130.544C173.171 130.544 172.91 130.474 172.679 130.34L162.831 123.548H184.043Z" fill="#45369B"/>
<path d="M45.9942 132.691H48.7019C48.7019 125.746 43.4585 120.508 36.5039 120.508V123.216C42.0031 123.216 45.9942 127.2 45.9942 132.691Z" fill="#3C217E"/>
<path d="M36.5171 128.631C39.3642 128.631 40.5786 129.845 40.5786 132.693H43.2862C43.2862 128.326 40.8832 125.923 36.5171 125.923V128.631ZM41.1499 136C40.8898 135.763 40.5479 135.637 40.1966 135.648C39.8452 135.659 39.5118 135.806 39.2667 136.058L36.027 139.39C35.2472 139.241 33.6795 138.752 32.0658 137.143C30.452 135.527 29.9633 133.956 29.8184 133.181L33.1475 129.94C33.3998 129.695 33.547 129.362 33.5579 129.01C33.5688 128.659 33.4424 128.317 33.2057 128.057L28.2033 122.556C27.9664 122.296 27.6372 122.137 27.2856 122.115C26.934 122.093 26.5876 122.209 26.3201 122.439L23.3823 124.958C23.1483 125.193 23.0086 125.506 22.9897 125.837C22.9694 126.175 22.5822 134.193 28.799 140.412C34.2224 145.834 41.0159 146.231 42.8869 146.231C43.1603 146.231 43.3282 146.223 43.3729 146.22C43.7039 146.201 44.0164 146.061 44.2502 145.826L46.7683 142.887C46.9977 142.619 47.1139 142.273 47.0921 141.922C47.0704 141.57 46.9125 141.241 46.6519 141.004L41.1499 136Z" fill="#3C217E"/>
</svg>
