<svg width="1103" height="302" viewBox="0 0 1103 302" fill="none" xmlns="http://www.w3.org/2000/svg">
<path d="M535.1 155V141H541.38C542.993 141 544.233 141.327 545.1 141.98C545.967 142.62 546.4 143.5 546.4 144.62C546.4 145.38 546.227 146.02 545.88 146.54C545.547 147.06 545.093 147.46 544.52 147.74C543.947 148.02 543.327 148.16 542.66 148.16L543.02 147.56C543.82 147.56 544.527 147.7 545.14 147.98C545.753 148.26 546.24 148.673 546.6 149.22C546.96 149.753 547.14 150.42 547.14 151.22C547.14 152.42 546.687 153.353 545.78 154.02C544.887 154.673 543.553 155 541.78 155H535.1ZM537.1 153.38H541.7C542.807 153.38 543.653 153.193 544.24 152.82C544.827 152.447 545.12 151.86 545.12 151.06C545.12 150.247 544.827 149.653 544.24 149.28C543.653 148.907 542.807 148.72 541.7 148.72H536.92V147.1H541.2C542.213 147.1 543 146.913 543.56 146.54C544.12 146.167 544.4 145.607 544.4 144.86C544.4 144.113 544.12 143.553 543.56 143.18C543 142.807 542.213 142.62 541.2 142.62H537.1V153.38ZM554.417 155.12C553.51 155.12 552.71 154.953 552.017 154.62C551.337 154.287 550.803 153.78 550.417 153.1C550.043 152.407 549.857 151.54 549.857 150.5V144.4H551.777V150.28C551.777 151.32 552.023 152.1 552.517 152.62C553.023 153.14 553.73 153.4 554.637 153.4C555.303 153.4 555.883 153.267 556.377 153C556.87 152.72 557.25 152.32 557.517 151.8C557.783 151.267 557.917 150.627 557.917 149.88V144.4H559.837V155H558.017V152.14L558.317 152.9C557.97 153.607 557.45 154.153 556.757 154.54C556.063 154.927 555.283 155.12 554.417 155.12ZM567.132 155.12C566.065 155.12 565.239 154.833 564.652 154.26C564.065 153.687 563.772 152.867 563.772 151.8V142.08H565.692V151.72C565.692 152.293 565.832 152.733 566.112 153.04C566.405 153.347 566.819 153.5 567.352 153.5C567.952 153.5 568.452 153.333 568.852 153L569.452 154.38C569.159 154.633 568.805 154.82 568.392 154.94C567.992 155.06 567.572 155.12 567.132 155.12ZM561.972 145.98V144.4H568.732V145.98H561.972ZM575.159 155.12C574.093 155.12 573.266 154.833 572.679 154.26C572.093 153.687 571.799 152.867 571.799 151.8V142.08H573.719V151.72C573.719 152.293 573.859 152.733 574.139 153.04C574.433 153.347 574.846 153.5 575.379 153.5C575.979 153.5 576.479 153.333 576.879 153L577.479 154.38C577.186 154.633 576.833 154.82 576.419 154.94C576.019 155.06 575.599 155.12 575.159 155.12ZM569.999 145.98V144.4H576.759V145.98H569.999ZM583.989 155.12C582.922 155.12 581.976 154.887 581.149 154.42C580.322 153.953 579.669 153.313 579.189 152.5C578.709 151.673 578.469 150.74 578.469 149.7C578.469 148.647 578.709 147.713 579.189 146.9C579.669 146.087 580.322 145.453 581.149 145C581.976 144.533 582.922 144.3 583.989 144.3C585.042 144.3 585.982 144.533 586.809 145C587.649 145.453 588.302 146.087 588.769 146.9C589.249 147.7 589.489 148.633 589.489 149.7C589.489 150.753 589.249 151.687 588.769 152.5C588.302 153.313 587.649 153.953 586.809 154.42C585.982 154.887 585.042 155.12 583.989 155.12ZM583.989 153.44C584.669 153.44 585.276 153.287 585.809 152.98C586.356 152.673 586.782 152.24 587.089 151.68C587.396 151.107 587.549 150.447 587.549 149.7C587.549 148.94 587.396 148.287 587.089 147.74C586.782 147.18 586.356 146.747 585.809 146.44C585.276 146.133 584.669 145.98 583.989 145.98C583.309 145.98 582.702 146.133 582.169 146.44C581.636 146.747 581.209 147.18 580.889 147.74C580.569 148.287 580.409 148.94 580.409 149.7C580.409 150.447 580.569 151.107 580.889 151.68C581.209 152.24 581.636 152.673 582.169 152.98C582.702 153.287 583.309 153.44 583.989 153.44ZM597.804 144.3C598.671 144.3 599.431 144.467 600.084 144.8C600.751 145.133 601.271 145.64 601.644 146.32C602.018 147 602.204 147.86 602.204 148.9V155H600.284V149.12C600.284 148.093 600.031 147.32 599.524 146.8C599.031 146.28 598.331 146.02 597.424 146.02C596.744 146.02 596.151 146.153 595.644 146.42C595.138 146.687 594.744 147.08 594.464 147.6C594.198 148.12 594.064 148.767 594.064 149.54V155H592.144V144.4H593.984V147.26L593.684 146.5C594.031 145.807 594.564 145.267 595.284 144.88C596.004 144.493 596.844 144.3 597.804 144.3ZM613.209 147.62H620.429V149.34H613.209V147.62ZM613.409 155H611.409V141H621.289V142.74H613.409V155ZM628.032 155.12C626.965 155.12 626.019 154.887 625.192 154.42C624.365 153.953 623.712 153.313 623.232 152.5C622.752 151.673 622.512 150.74 622.512 149.7C622.512 148.647 622.752 147.713 623.232 146.9C623.712 146.087 624.365 145.453 625.192 145C626.019 144.533 626.965 144.3 628.032 144.3C629.085 144.3 630.025 144.533 630.852 145C631.692 145.453 632.345 146.087 632.812 146.9C633.292 147.7 633.532 148.633 633.532 149.7C633.532 150.753 633.292 151.687 632.812 152.5C632.345 153.313 631.692 153.953 630.852 154.42C630.025 154.887 629.085 155.12 628.032 155.12ZM628.032 153.44C628.712 153.44 629.319 153.287 629.852 152.98C630.399 152.673 630.825 152.24 631.132 151.68C631.439 151.107 631.592 150.447 631.592 149.7C631.592 148.94 631.439 148.287 631.132 147.74C630.825 147.18 630.399 146.747 629.852 146.44C629.319 146.133 628.712 145.98 628.032 145.98C627.352 145.98 626.745 146.133 626.212 146.44C625.679 146.747 625.252 147.18 624.932 147.74C624.612 148.287 624.452 148.94 624.452 149.7C624.452 150.447 624.612 151.107 624.932 151.68C625.252 152.24 625.679 152.673 626.212 152.98C626.745 153.287 627.352 153.44 628.032 153.44ZM641.847 144.3C642.714 144.3 643.474 144.467 644.127 144.8C644.794 145.133 645.314 145.64 645.687 146.32C646.061 147 646.247 147.86 646.247 148.9V155H644.327V149.12C644.327 148.093 644.074 147.32 643.567 146.8C643.074 146.28 642.374 146.02 641.467 146.02C640.787 146.02 640.194 146.153 639.687 146.42C639.181 146.687 638.787 147.08 638.507 147.6C638.241 148.12 638.107 148.767 638.107 149.54V155H636.187V144.4H638.027V147.26L637.727 146.5C638.074 145.807 638.607 145.267 639.327 144.88C640.047 144.493 640.887 144.3 641.847 144.3ZM653.44 155.12C652.374 155.12 651.547 154.833 650.96 154.26C650.374 153.687 650.08 152.867 650.08 151.8V142.08H652V151.72C652 152.293 652.14 152.733 652.42 153.04C652.714 153.347 653.127 153.5 653.66 153.5C654.26 153.5 654.76 153.333 655.16 153L655.76 154.38C655.467 154.633 655.114 154.82 654.7 154.94C654.3 155.06 653.88 155.12 653.44 155.12ZM648.28 145.98V144.4H655.04V145.98H648.28ZM657.206 150.34V148.68H662.586V150.34H657.206ZM666.691 155V141.8L667.551 142.74H663.531V141H668.671V155H666.691ZM677.613 155.16C676.373 155.16 675.313 154.887 674.433 154.34C673.553 153.793 672.88 153.007 672.413 151.98C671.96 150.94 671.733 149.673 671.733 148.18C671.733 146.593 672.013 145.253 672.573 144.16C673.133 143.067 673.913 142.24 674.913 141.68C675.913 141.12 677.06 140.84 678.353 140.84C679.02 140.84 679.653 140.907 680.253 141.04C680.867 141.173 681.393 141.38 681.833 141.66L681.073 143.22C680.713 142.967 680.3 142.793 679.833 142.7C679.38 142.607 678.9 142.56 678.393 142.56C676.967 142.56 675.833 143.007 674.993 143.9C674.153 144.78 673.733 146.093 673.733 147.84C673.733 148.12 673.747 148.453 673.773 148.84C673.8 149.227 673.867 149.607 673.973 149.98L673.293 149.3C673.493 148.687 673.807 148.173 674.233 147.76C674.673 147.333 675.193 147.02 675.793 146.82C676.407 146.607 677.067 146.5 677.773 146.5C678.707 146.5 679.533 146.673 680.253 147.02C680.973 147.367 681.54 147.86 681.953 148.5C682.367 149.127 682.573 149.873 682.573 150.74C682.573 151.633 682.353 152.413 681.913 153.08C681.473 153.747 680.88 154.26 680.133 154.62C679.387 154.98 678.547 155.16 677.613 155.16ZM677.533 153.54C678.147 153.54 678.68 153.427 679.133 153.2C679.6 152.973 679.967 152.66 680.233 152.26C680.5 151.847 680.633 151.367 680.633 150.82C680.633 149.993 680.347 149.34 679.773 148.86C679.2 148.367 678.42 148.12 677.433 148.12C676.793 148.12 676.233 148.24 675.753 148.48C675.273 148.72 674.893 149.047 674.613 149.46C674.347 149.86 674.213 150.32 674.213 150.84C674.213 151.32 674.34 151.767 674.593 152.18C674.847 152.58 675.22 152.907 675.713 153.16C676.207 153.413 676.813 153.54 677.533 153.54Z" fill="#574B9E"/>
<path d="M716.9 147.62H724.12V149.34H716.9V147.62ZM717.1 155H715.1V141H724.98V142.74H717.1V155ZM731.723 155.12C730.657 155.12 729.71 154.887 728.883 154.42C728.057 153.953 727.403 153.313 726.923 152.5C726.443 151.673 726.203 150.74 726.203 149.7C726.203 148.647 726.443 147.713 726.923 146.9C727.403 146.087 728.057 145.453 728.883 145C729.71 144.533 730.657 144.3 731.723 144.3C732.777 144.3 733.717 144.533 734.543 145C735.383 145.453 736.037 146.087 736.503 146.9C736.983 147.7 737.223 148.633 737.223 149.7C737.223 150.753 736.983 151.687 736.503 152.5C736.037 153.313 735.383 153.953 734.543 154.42C733.717 154.887 732.777 155.12 731.723 155.12ZM731.723 153.44C732.403 153.44 733.01 153.287 733.543 152.98C734.09 152.673 734.517 152.24 734.823 151.68C735.13 151.107 735.283 150.447 735.283 149.7C735.283 148.94 735.13 148.287 734.823 147.74C734.517 147.18 734.09 146.747 733.543 146.44C733.01 146.133 732.403 145.98 731.723 145.98C731.043 145.98 730.437 146.133 729.903 146.44C729.37 146.747 728.943 147.18 728.623 147.74C728.303 148.287 728.143 148.94 728.143 149.7C728.143 150.447 728.303 151.107 728.623 151.68C728.943 152.24 729.37 152.673 729.903 152.98C730.437 153.287 731.043 153.44 731.723 153.44ZM745.539 144.3C746.405 144.3 747.165 144.467 747.819 144.8C748.485 145.133 749.005 145.64 749.379 146.32C749.752 147 749.939 147.86 749.939 148.9V155H748.019V149.12C748.019 148.093 747.765 147.32 747.259 146.8C746.765 146.28 746.065 146.02 745.159 146.02C744.479 146.02 743.885 146.153 743.379 146.42C742.872 146.687 742.479 147.08 742.199 147.6C741.932 148.12 741.799 148.767 741.799 149.54V155H739.879V144.4H741.719V147.26L741.419 146.5C741.765 145.807 742.299 145.267 743.019 144.88C743.739 144.493 744.579 144.3 745.539 144.3ZM757.132 155.12C756.065 155.12 755.239 154.833 754.652 154.26C754.065 153.687 753.772 152.867 753.772 151.8V142.08H755.692V151.72C755.692 152.293 755.832 152.733 756.112 153.04C756.405 153.347 756.819 153.5 757.352 153.5C757.952 153.5 758.452 153.333 758.852 153L759.452 154.38C759.159 154.633 758.805 154.82 758.392 154.94C757.992 155.06 757.572 155.12 757.132 155.12ZM751.972 145.98V144.4H758.732V145.98H751.972ZM769.384 155L765.444 144.4H767.264L770.764 154H769.904L773.544 144.4H775.164L778.724 154H777.884L781.464 144.4H783.184L779.224 155H777.384L774.044 146.24H774.604L771.224 155H769.384ZM789.56 155.12C788.426 155.12 787.426 154.887 786.56 154.42C785.706 153.953 785.04 153.313 784.56 152.5C784.093 151.687 783.86 150.753 783.86 149.7C783.86 148.647 784.086 147.713 784.54 146.9C785.006 146.087 785.64 145.453 786.44 145C787.253 144.533 788.166 144.3 789.18 144.3C790.206 144.3 791.113 144.527 791.9 144.98C792.686 145.433 793.3 146.073 793.74 146.9C794.193 147.713 794.42 148.667 794.42 149.76C794.42 149.84 794.413 149.933 794.4 150.04C794.4 150.147 794.393 150.247 794.38 150.34H785.36V148.96H793.38L792.6 149.44C792.613 148.76 792.473 148.153 792.18 147.62C791.886 147.087 791.48 146.673 790.96 146.38C790.453 146.073 789.86 145.92 789.18 145.92C788.513 145.92 787.92 146.073 787.4 146.38C786.88 146.673 786.473 147.093 786.18 147.64C785.886 148.173 785.74 148.787 785.74 149.48V149.8C785.74 150.507 785.9 151.14 786.22 151.7C786.553 152.247 787.013 152.673 787.6 152.98C788.186 153.287 788.86 153.44 789.62 153.44C790.246 153.44 790.813 153.333 791.32 153.12C791.84 152.907 792.293 152.587 792.68 152.16L793.74 153.4C793.26 153.96 792.66 154.387 791.94 154.68C791.233 154.973 790.44 155.12 789.56 155.12ZM797.086 155V144.4H799.006V155H797.086ZM798.046 142.36C797.672 142.36 797.359 142.24 797.106 142C796.866 141.76 796.746 141.467 796.746 141.12C796.746 140.76 796.866 140.46 797.106 140.22C797.359 139.98 797.672 139.86 798.046 139.86C798.419 139.86 798.726 139.98 798.966 140.22C799.219 140.447 799.346 140.733 799.346 141.08C799.346 141.44 799.226 141.747 798.986 142C798.746 142.24 798.432 142.36 798.046 142.36ZM807.312 159C806.338 159 805.392 158.86 804.472 158.58C803.565 158.313 802.825 157.927 802.252 157.42L803.172 155.94C803.665 156.367 804.272 156.7 804.992 156.94C805.712 157.193 806.465 157.32 807.252 157.32C808.505 157.32 809.425 157.027 810.012 156.44C810.598 155.853 810.892 154.96 810.892 153.76V151.52L811.092 149.42L810.992 147.3V144.4H812.812V153.56C812.812 155.427 812.345 156.8 811.412 157.68C810.478 158.56 809.112 159 807.312 159ZM807.072 154.56C806.045 154.56 805.125 154.347 804.312 153.92C803.512 153.48 802.872 152.873 802.392 152.1C801.925 151.327 801.692 150.433 801.692 149.42C801.692 148.393 801.925 147.5 802.392 146.74C802.872 145.967 803.512 145.367 804.312 144.94C805.125 144.513 806.045 144.3 807.072 144.3C807.978 144.3 808.805 144.487 809.552 144.86C810.298 145.22 810.892 145.78 811.332 146.54C811.785 147.3 812.012 148.26 812.012 149.42C812.012 150.567 811.785 151.52 811.332 152.28C810.892 153.04 810.298 153.613 809.552 154C808.805 154.373 807.978 154.56 807.072 154.56ZM807.292 152.88C807.998 152.88 808.625 152.733 809.172 152.44C809.718 152.147 810.145 151.74 810.452 151.22C810.772 150.7 810.932 150.1 810.932 149.42C810.932 148.74 810.772 148.14 810.452 147.62C810.145 147.1 809.718 146.7 809.172 146.42C808.625 146.127 807.998 145.98 807.292 145.98C806.585 145.98 805.952 146.127 805.392 146.42C804.845 146.7 804.412 147.1 804.092 147.62C803.785 148.14 803.632 148.74 803.632 149.42C803.632 150.1 803.785 150.7 804.092 151.22C804.412 151.74 804.845 152.147 805.392 152.44C805.952 152.733 806.585 152.88 807.292 152.88ZM822.14 144.3C823.007 144.3 823.767 144.467 824.42 144.8C825.087 145.133 825.607 145.64 825.98 146.32C826.353 147 826.54 147.86 826.54 148.9V155H824.62V149.12C824.62 148.093 824.367 147.32 823.86 146.8C823.367 146.28 822.667 146.02 821.76 146.02C821.08 146.02 820.487 146.153 819.98 146.42C819.473 146.687 819.08 147.08 818.8 147.6C818.533 148.12 818.4 148.767 818.4 149.54V155H816.48V140.16H818.4V147.26L818.02 146.5C818.367 145.807 818.9 145.267 819.62 144.88C820.34 144.493 821.18 144.3 822.14 144.3ZM833.733 155.12C832.667 155.12 831.84 154.833 831.253 154.26C830.667 153.687 830.373 152.867 830.373 151.8V142.08H832.293V151.72C832.293 152.293 832.433 152.733 832.713 153.04C833.007 153.347 833.42 153.5 833.953 153.5C834.553 153.5 835.053 153.333 835.453 153L836.053 154.38C835.76 154.633 835.407 154.82 834.993 154.94C834.593 155.06 834.173 155.12 833.733 155.12ZM828.573 145.98V144.4H835.333V145.98H828.573ZM837.499 150.34V148.68H842.879V150.34H837.499ZM851.487 155V141H857.767C859.38 141 860.62 141.327 861.487 141.98C862.353 142.62 862.787 143.5 862.787 144.62C862.787 145.38 862.613 146.02 862.267 146.54C861.933 147.06 861.48 147.46 860.907 147.74C860.333 148.02 859.713 148.16 859.047 148.16L859.407 147.56C860.207 147.56 860.913 147.7 861.527 147.98C862.14 148.26 862.627 148.673 862.987 149.22C863.347 149.753 863.527 150.42 863.527 151.22C863.527 152.42 863.073 153.353 862.167 154.02C861.273 154.673 859.94 155 858.167 155H851.487ZM853.487 153.38H858.087C859.193 153.38 860.04 153.193 860.627 152.82C861.213 152.447 861.507 151.86 861.507 151.06C861.507 150.247 861.213 149.653 860.627 149.28C860.04 148.907 859.193 148.72 858.087 148.72H853.307V147.1H857.587C858.6 147.1 859.387 146.913 859.947 146.54C860.507 146.167 860.787 145.607 860.787 144.86C860.787 144.113 860.507 143.553 859.947 143.18C859.387 142.807 858.6 142.62 857.587 142.62H853.487V153.38ZM870.883 155.12C869.817 155.12 868.87 154.887 868.043 154.42C867.217 153.953 866.563 153.313 866.083 152.5C865.603 151.673 865.363 150.74 865.363 149.7C865.363 148.647 865.603 147.713 866.083 146.9C866.563 146.087 867.217 145.453 868.043 145C868.87 144.533 869.817 144.3 870.883 144.3C871.937 144.3 872.877 144.533 873.703 145C874.543 145.453 875.197 146.087 875.663 146.9C876.143 147.7 876.383 148.633 876.383 149.7C876.383 150.753 876.143 151.687 875.663 152.5C875.197 153.313 874.543 153.953 873.703 154.42C872.877 154.887 871.937 155.12 870.883 155.12ZM870.883 153.44C871.563 153.44 872.17 153.287 872.703 152.98C873.25 152.673 873.677 152.24 873.983 151.68C874.29 151.107 874.443 150.447 874.443 149.7C874.443 148.94 874.29 148.287 873.983 147.74C873.677 147.18 873.25 146.747 872.703 146.44C872.17 146.133 871.563 145.98 870.883 145.98C870.203 145.98 869.597 146.133 869.063 146.44C868.53 146.747 868.103 147.18 867.783 147.74C867.463 148.287 867.303 148.94 867.303 149.7C867.303 150.447 867.463 151.107 867.783 151.68C868.103 152.24 868.53 152.673 869.063 152.98C869.597 153.287 870.203 153.44 870.883 153.44ZM879.039 155V140.16H880.959V155H879.039ZM889.005 155.12C887.978 155.12 887.058 154.893 886.245 154.44C885.445 153.987 884.811 153.353 884.345 152.54C883.878 151.727 883.645 150.78 883.645 149.7C883.645 148.62 883.878 147.68 884.345 146.88C884.811 146.067 885.445 145.433 886.245 144.98C887.058 144.527 887.978 144.3 889.005 144.3C889.898 144.3 890.705 144.5 891.425 144.9C892.145 145.3 892.718 145.9 893.145 146.7C893.585 147.5 893.805 148.5 893.805 149.7C893.805 150.9 893.591 151.9 893.165 152.7C892.751 153.5 892.185 154.107 891.465 154.52C890.745 154.92 889.925 155.12 889.005 155.12ZM889.165 153.44C889.831 153.44 890.431 153.287 890.965 152.98C891.511 152.673 891.938 152.24 892.245 151.68C892.565 151.107 892.725 150.447 892.725 149.7C892.725 148.94 892.565 148.287 892.245 147.74C891.938 147.18 891.511 146.747 890.965 146.44C890.431 146.133 889.831 145.98 889.165 145.98C888.485 145.98 887.878 146.133 887.345 146.44C886.811 146.747 886.385 147.18 886.065 147.74C885.745 148.287 885.585 148.94 885.585 149.7C885.585 150.447 885.745 151.107 886.065 151.68C886.385 152.24 886.811 152.673 887.345 152.98C887.878 153.287 888.485 153.44 889.165 153.44ZM892.785 155V152.14L892.905 149.68L892.705 147.22V140.16H894.625V155H892.785Z" fill="#574B9E"/>
<path d="M935.36 155.16C934.293 155.16 933.307 154.987 932.4 154.64C931.507 154.28 930.727 153.78 930.06 153.14C929.407 152.487 928.893 151.727 928.52 150.86C928.147 149.993 927.96 149.04 927.96 148C927.96 146.96 928.147 146.007 928.52 145.14C928.893 144.273 929.413 143.52 930.08 142.88C930.747 142.227 931.527 141.727 932.42 141.38C933.327 141.02 934.313 140.84 935.38 140.84C936.46 140.84 937.453 141.027 938.36 141.4C939.28 141.76 940.06 142.3 940.7 143.02L939.4 144.28C938.867 143.72 938.267 143.307 937.6 143.04C936.933 142.76 936.22 142.62 935.46 142.62C934.673 142.62 933.94 142.753 933.26 143.02C932.593 143.287 932.013 143.66 931.52 144.14C931.027 144.62 930.64 145.193 930.36 145.86C930.093 146.513 929.96 147.227 929.96 148C929.96 148.773 930.093 149.493 930.36 150.16C930.64 150.813 931.027 151.38 931.52 151.86C932.013 152.34 932.593 152.713 933.26 152.98C933.94 153.247 934.673 153.38 935.46 153.38C936.22 153.38 936.933 153.247 937.6 152.98C938.267 152.7 938.867 152.273 939.4 151.7L940.7 152.96C940.06 153.68 939.28 154.227 938.36 154.6C937.453 154.973 936.453 155.16 935.36 155.16ZM947.364 155.12C946.297 155.12 945.351 154.887 944.524 154.42C943.697 153.953 943.044 153.313 942.564 152.5C942.084 151.673 941.844 150.74 941.844 149.7C941.844 148.647 942.084 147.713 942.564 146.9C943.044 146.087 943.697 145.453 944.524 145C945.351 144.533 946.297 144.3 947.364 144.3C948.417 144.3 949.357 144.533 950.184 145C951.024 145.453 951.677 146.087 952.144 146.9C952.624 147.7 952.864 148.633 952.864 149.7C952.864 150.753 952.624 151.687 952.144 152.5C951.677 153.313 951.024 153.953 950.184 154.42C949.357 154.887 948.417 155.12 947.364 155.12ZM947.364 153.44C948.044 153.44 948.651 153.287 949.184 152.98C949.731 152.673 950.157 152.24 950.464 151.68C950.771 151.107 950.924 150.447 950.924 149.7C950.924 148.94 950.771 148.287 950.464 147.74C950.157 147.18 949.731 146.747 949.184 146.44C948.651 146.133 948.044 145.98 947.364 145.98C946.684 145.98 946.077 146.133 945.544 146.44C945.011 146.747 944.584 147.18 944.264 147.74C943.944 148.287 943.784 148.94 943.784 149.7C943.784 150.447 943.944 151.107 944.264 151.68C944.584 152.24 945.011 152.673 945.544 152.98C946.077 153.287 946.684 153.44 947.364 153.44ZM955.519 155V144.4H957.359V147.28L957.179 146.56C957.473 145.827 957.966 145.267 958.659 144.88C959.353 144.493 960.206 144.3 961.219 144.3V146.16C961.139 146.147 961.059 146.14 960.979 146.14C960.913 146.14 960.846 146.14 960.779 146.14C959.753 146.14 958.939 146.447 958.339 147.06C957.739 147.673 957.439 148.56 957.439 149.72V155H955.519ZM969.246 144.3C970.112 144.3 970.872 144.467 971.526 144.8C972.192 145.133 972.712 145.64 973.086 146.32C973.459 147 973.646 147.86 973.646 148.9V155H971.726V149.12C971.726 148.093 971.472 147.32 970.966 146.8C970.472 146.28 969.772 146.02 968.866 146.02C968.186 146.02 967.592 146.153 967.086 146.42C966.579 146.687 966.186 147.08 965.906 147.6C965.639 148.12 965.506 148.767 965.506 149.54V155H963.586V144.4H965.426V147.26L965.126 146.5C965.472 145.807 966.006 145.267 966.726 144.88C967.446 144.493 968.286 144.3 969.246 144.3ZM981.919 155.12C980.786 155.12 979.786 154.887 978.919 154.42C978.066 153.953 977.399 153.313 976.919 152.5C976.452 151.687 976.219 150.753 976.219 149.7C976.219 148.647 976.446 147.713 976.899 146.9C977.366 146.087 977.999 145.453 978.799 145C979.612 144.533 980.526 144.3 981.539 144.3C982.566 144.3 983.472 144.527 984.259 144.98C985.046 145.433 985.659 146.073 986.099 146.9C986.552 147.713 986.779 148.667 986.779 149.76C986.779 149.84 986.772 149.933 986.759 150.04C986.759 150.147 986.752 150.247 986.739 150.34H977.719V148.96H985.739L984.959 149.44C984.972 148.76 984.832 148.153 984.539 147.62C984.246 147.087 983.839 146.673 983.319 146.38C982.812 146.073 982.219 145.92 981.539 145.92C980.872 145.92 980.279 146.073 979.759 146.38C979.239 146.673 978.832 147.093 978.539 147.64C978.246 148.173 978.099 148.787 978.099 149.48V149.8C978.099 150.507 978.259 151.14 978.579 151.7C978.912 152.247 979.372 152.673 979.959 152.98C980.546 153.287 981.219 153.44 981.979 153.44C982.606 153.44 983.172 153.333 983.679 153.12C984.199 152.907 984.652 152.587 985.039 152.16L986.099 153.4C985.619 153.96 985.019 154.387 984.299 154.68C983.592 154.973 982.799 155.12 981.919 155.12ZM989.445 155V144.4H991.285V147.28L991.105 146.56C991.398 145.827 991.892 145.267 992.585 144.88C993.278 144.493 994.132 144.3 995.145 144.3V146.16C995.065 146.147 994.985 146.14 994.905 146.14C994.838 146.14 994.772 146.14 994.705 146.14C993.678 146.14 992.865 146.447 992.265 147.06C991.665 147.673 991.365 148.56 991.365 149.72V155H989.445ZM1003.3 155V141H1008.76C1009.99 141 1011.03 141.193 1011.9 141.58C1012.77 141.967 1013.43 142.527 1013.9 143.26C1014.37 143.993 1014.6 144.867 1014.6 145.88C1014.6 146.893 1014.37 147.767 1013.9 148.5C1013.43 149.22 1012.77 149.773 1011.9 150.16C1011.03 150.547 1009.99 150.74 1008.76 150.74H1004.4L1005.3 149.82V155H1003.3ZM1012.66 155L1009.1 149.92H1011.24L1014.84 155H1012.66ZM1005.3 150.02L1004.4 149.04H1008.7C1009.98 149.04 1010.95 148.767 1011.6 148.22C1012.27 147.66 1012.6 146.88 1012.6 145.88C1012.6 144.88 1012.27 144.107 1011.6 143.56C1010.95 143.013 1009.98 142.74 1008.7 142.74H1004.4L1005.3 141.74V150.02ZM1024.03 155V152.76L1023.93 152.34V148.52C1023.93 147.707 1023.69 147.08 1023.21 146.64C1022.75 146.187 1022.04 145.96 1021.09 145.96C1020.47 145.96 1019.85 146.067 1019.25 146.28C1018.65 146.48 1018.15 146.753 1017.73 147.1L1016.93 145.66C1017.48 145.22 1018.13 144.887 1018.89 144.66C1019.67 144.42 1020.47 144.3 1021.31 144.3C1022.77 144.3 1023.89 144.653 1024.67 145.36C1025.46 146.067 1025.85 147.147 1025.85 148.6V155H1024.03ZM1020.55 155.12C1019.77 155.12 1019.07 154.987 1018.47 154.72C1017.89 154.453 1017.43 154.087 1017.11 153.62C1016.79 153.14 1016.63 152.6 1016.63 152C1016.63 151.427 1016.77 150.907 1017.03 150.44C1017.31 149.973 1017.76 149.6 1018.37 149.32C1019 149.04 1019.84 148.9 1020.89 148.9H1024.25V150.28H1020.97C1020.01 150.28 1019.37 150.44 1019.03 150.76C1018.7 151.08 1018.53 151.467 1018.53 151.92C1018.53 152.44 1018.74 152.86 1019.15 153.18C1019.57 153.487 1020.14 153.64 1020.87 153.64C1021.59 153.64 1022.22 153.48 1022.75 153.16C1023.3 152.84 1023.69 152.373 1023.93 151.76L1024.31 153.08C1024.06 153.707 1023.61 154.207 1022.97 154.58C1022.33 154.94 1021.53 155.12 1020.55 155.12ZM1033.79 155.12C1032.76 155.12 1031.84 154.893 1031.03 154.44C1030.23 153.987 1029.59 153.353 1029.13 152.54C1028.66 151.727 1028.43 150.78 1028.43 149.7C1028.43 148.62 1028.66 147.68 1029.13 146.88C1029.59 146.067 1030.23 145.433 1031.03 144.98C1031.84 144.527 1032.76 144.3 1033.79 144.3C1034.68 144.3 1035.49 144.5 1036.21 144.9C1036.93 145.3 1037.5 145.9 1037.93 146.7C1038.37 147.5 1038.59 148.5 1038.59 149.7C1038.59 150.9 1038.37 151.9 1037.95 152.7C1037.53 153.5 1036.97 154.107 1036.25 154.52C1035.53 154.92 1034.71 155.12 1033.79 155.12ZM1033.95 153.44C1034.61 153.44 1035.21 153.287 1035.75 152.98C1036.29 152.673 1036.72 152.24 1037.03 151.68C1037.35 151.107 1037.51 150.447 1037.51 149.7C1037.51 148.94 1037.35 148.287 1037.03 147.74C1036.72 147.18 1036.29 146.747 1035.75 146.44C1035.21 146.133 1034.61 145.98 1033.95 145.98C1033.27 145.98 1032.66 146.133 1032.13 146.44C1031.59 146.747 1031.17 147.18 1030.85 147.74C1030.53 148.287 1030.37 148.94 1030.37 149.7C1030.37 150.447 1030.53 151.107 1030.85 151.68C1031.17 152.24 1031.59 152.673 1032.13 152.98C1032.66 153.287 1033.27 153.44 1033.95 153.44ZM1037.57 155V152.14L1037.69 149.68L1037.49 147.22V140.16H1039.41V155H1037.57ZM1043.04 155V144.4H1044.96V155H1043.04ZM1044 142.36C1043.63 142.36 1043.31 142.24 1043.06 142C1042.82 141.76 1042.7 141.467 1042.7 141.12C1042.7 140.76 1042.82 140.46 1043.06 140.22C1043.31 139.98 1043.63 139.86 1044 139.86C1044.37 139.86 1044.68 139.98 1044.92 140.22C1045.17 140.447 1045.3 140.733 1045.3 141.08C1045.3 141.44 1045.18 141.747 1044.94 142C1044.7 142.24 1044.39 142.36 1044 142.36ZM1053.08 155.12C1052.18 155.12 1051.38 154.953 1050.68 154.62C1050 154.287 1049.47 153.78 1049.08 153.1C1048.71 152.407 1048.52 151.54 1048.52 150.5V144.4H1050.44V150.28C1050.44 151.32 1050.69 152.1 1051.18 152.62C1051.69 153.14 1052.4 153.4 1053.3 153.4C1053.97 153.4 1054.55 153.267 1055.04 153C1055.54 152.72 1055.92 152.32 1056.18 151.8C1056.45 151.267 1056.58 150.627 1056.58 149.88V144.4H1058.5V155H1056.68V152.14L1056.98 152.9C1056.64 153.607 1056.12 154.153 1055.42 154.54C1054.73 154.927 1053.95 155.12 1053.08 155.12ZM1065.2 155.12C1064.32 155.12 1063.48 155 1062.68 154.76C1061.89 154.52 1061.27 154.227 1060.82 153.88L1061.62 152.36C1062.07 152.667 1062.63 152.927 1063.3 153.14C1063.97 153.353 1064.65 153.46 1065.34 153.46C1066.23 153.46 1066.87 153.333 1067.26 153.08C1067.66 152.827 1067.86 152.473 1067.86 152.02C1067.86 151.687 1067.74 151.427 1067.5 151.24C1067.26 151.053 1066.94 150.913 1066.54 150.82C1066.15 150.727 1065.72 150.647 1065.24 150.58C1064.76 150.5 1064.28 150.407 1063.8 150.3C1063.32 150.18 1062.88 150.02 1062.48 149.82C1062.08 149.607 1061.76 149.32 1061.52 148.96C1061.28 148.587 1061.16 148.093 1061.16 147.48C1061.16 146.84 1061.34 146.28 1061.7 145.8C1062.06 145.32 1062.57 144.953 1063.22 144.7C1063.89 144.433 1064.67 144.3 1065.58 144.3C1066.27 144.3 1066.97 144.387 1067.68 144.56C1068.4 144.72 1068.99 144.953 1069.44 145.26L1068.62 146.78C1068.14 146.46 1067.64 146.24 1067.12 146.12C1066.6 146 1066.08 145.94 1065.56 145.94C1064.72 145.94 1064.09 146.08 1063.68 146.36C1063.27 146.627 1063.06 146.973 1063.06 147.4C1063.06 147.76 1063.18 148.04 1063.42 148.24C1063.67 148.427 1063.99 148.573 1064.38 148.68C1064.78 148.787 1065.22 148.88 1065.7 148.96C1066.18 149.027 1066.66 149.12 1067.14 149.24C1067.62 149.347 1068.05 149.5 1068.44 149.7C1068.84 149.9 1069.16 150.18 1069.4 150.54C1069.65 150.9 1069.78 151.38 1069.78 151.98C1069.78 152.62 1069.59 153.173 1069.22 153.64C1068.85 154.107 1068.32 154.473 1067.64 154.74C1066.96 154.993 1066.15 155.12 1065.2 155.12ZM1071.5 150.34V148.68H1076.88V150.34H1071.5ZM1086.71 155V141.8L1087.57 142.74H1083.55V141H1088.69V155H1086.71ZM1091.53 155V153.64L1097.23 148.14C1097.74 147.66 1098.11 147.24 1098.35 146.88C1098.6 146.507 1098.77 146.167 1098.85 145.86C1098.94 145.54 1098.99 145.233 1098.99 144.94C1098.99 144.22 1098.74 143.653 1098.23 143.24C1097.72 142.827 1096.98 142.62 1096.01 142.62C1095.26 142.62 1094.59 142.747 1093.99 143C1093.39 143.24 1092.87 143.62 1092.43 144.14L1091.07 142.96C1091.6 142.28 1092.32 141.76 1093.21 141.4C1094.12 141.027 1095.11 140.84 1096.19 140.84C1097.16 140.84 1098.01 141 1098.73 141.32C1099.45 141.627 1100 142.073 1100.39 142.66C1100.79 143.247 1100.99 143.94 1100.99 144.74C1100.99 145.193 1100.93 145.64 1100.81 146.08C1100.69 146.52 1100.46 146.987 1100.13 147.48C1099.8 147.973 1099.32 148.527 1098.69 149.14L1093.61 154.04L1093.13 153.26H1101.59V155H1091.53Z" fill="#574B9E"/>
<rect x="114" y="183" width="171.037" height="56" rx="12" fill="#4CB2CE"/>
<path d="M174.056 217.112C173.235 217.112 172.499 216.979 171.848 216.712C171.197 216.445 170.675 216.051 170.28 215.528C169.896 215.005 169.693 214.376 169.672 213.64H172.584C172.627 214.056 172.771 214.376 173.016 214.6C173.261 214.813 173.581 214.92 173.976 214.92C174.381 214.92 174.701 214.829 174.936 214.648C175.171 214.456 175.288 214.195 175.288 213.864C175.288 213.587 175.192 213.357 175 213.176C174.819 212.995 174.589 212.845 174.312 212.728C174.045 212.611 173.661 212.477 173.16 212.328C172.435 212.104 171.843 211.88 171.384 211.656C170.925 211.432 170.531 211.101 170.2 210.664C169.869 210.227 169.704 209.656 169.704 208.952C169.704 207.907 170.083 207.091 170.84 206.504C171.597 205.907 172.584 205.608 173.8 205.608C175.037 205.608 176.035 205.907 176.792 206.504C177.549 207.091 177.955 207.912 178.008 208.968H175.048C175.027 208.605 174.893 208.323 174.648 208.12C174.403 207.907 174.088 207.8 173.704 207.8C173.373 207.8 173.107 207.891 172.904 208.072C172.701 208.243 172.6 208.493 172.6 208.824C172.6 209.187 172.771 209.469 173.112 209.672C173.453 209.875 173.987 210.093 174.712 210.328C175.437 210.573 176.024 210.808 176.472 211.032C176.931 211.256 177.325 211.581 177.656 212.008C177.987 212.435 178.152 212.984 178.152 213.656C178.152 214.296 177.987 214.877 177.656 215.4C177.336 215.923 176.867 216.339 176.248 216.648C175.629 216.957 174.899 217.112 174.056 217.112ZM181.212 207.144C180.732 207.144 180.337 207.005 180.028 206.728C179.729 206.44 179.58 206.088 179.58 205.672C179.58 205.245 179.729 204.893 180.028 204.616C180.337 204.328 180.732 204.184 181.212 204.184C181.681 204.184 182.065 204.328 182.364 204.616C182.673 204.893 182.828 205.245 182.828 205.672C182.828 206.088 182.673 206.44 182.364 206.728C182.065 207.005 181.681 207.144 181.212 207.144ZM182.572 208.072V217H179.836V208.072H182.572ZM187.947 207.944C188.576 207.944 189.125 208.072 189.595 208.328C190.075 208.584 190.443 208.92 190.699 209.336V208.072H193.435V216.984C193.435 217.805 193.269 218.547 192.939 219.208C192.619 219.88 192.123 220.413 191.451 220.808C190.789 221.203 189.963 221.4 188.971 221.4C187.648 221.4 186.576 221.085 185.755 220.456C184.933 219.837 184.464 218.995 184.347 217.928H187.051C187.136 218.269 187.339 218.536 187.659 218.728C187.979 218.931 188.373 219.032 188.843 219.032C189.408 219.032 189.856 218.867 190.187 218.536C190.528 218.216 190.699 217.699 190.699 216.984V215.72C190.432 216.136 190.064 216.477 189.595 216.744C189.125 217 188.576 217.128 187.947 217.128C187.211 217.128 186.544 216.941 185.947 216.568C185.349 216.184 184.875 215.645 184.523 214.952C184.181 214.248 184.011 213.437 184.011 212.52C184.011 211.603 184.181 210.797 184.523 210.104C184.875 209.411 185.349 208.877 185.947 208.504C186.544 208.131 187.211 207.944 187.947 207.944ZM190.699 212.536C190.699 211.853 190.507 211.315 190.123 210.92C189.749 210.525 189.291 210.328 188.747 210.328C188.203 210.328 187.739 210.525 187.355 210.92C186.981 211.304 186.795 211.837 186.795 212.52C186.795 213.203 186.981 213.747 187.355 214.152C187.739 214.547 188.203 214.744 188.747 214.744C189.291 214.744 189.749 214.547 190.123 214.152C190.507 213.757 190.699 213.219 190.699 212.536ZM200.854 207.976C201.899 207.976 202.731 208.317 203.35 209C203.979 209.672 204.294 210.6 204.294 211.784V217H201.574V212.152C201.574 211.555 201.419 211.091 201.11 210.76C200.801 210.429 200.385 210.264 199.862 210.264C199.339 210.264 198.923 210.429 198.614 210.76C198.305 211.091 198.15 211.555 198.15 212.152V217H195.414V208.072H198.15V209.256C198.427 208.861 198.801 208.552 199.27 208.328C199.739 208.093 200.267 207.976 200.854 207.976ZM212.274 205.768V212.488C212.274 213.16 212.439 213.677 212.77 214.04C213.1 214.403 213.586 214.584 214.226 214.584C214.866 214.584 215.356 214.403 215.698 214.04C216.039 213.677 216.21 213.16 216.21 212.488V205.768H218.946V212.472C218.946 213.475 218.732 214.323 218.306 215.016C217.879 215.709 217.303 216.232 216.578 216.584C215.863 216.936 215.063 217.112 214.178 217.112C213.292 217.112 212.498 216.941 211.794 216.6C211.1 216.248 210.551 215.725 210.146 215.032C209.74 214.328 209.538 213.475 209.538 212.472V205.768H212.274ZM223.603 209.336C223.87 208.92 224.238 208.584 224.707 208.328C225.176 208.072 225.726 207.944 226.355 207.944C227.091 207.944 227.758 208.131 228.355 208.504C228.952 208.877 229.422 209.411 229.763 210.104C230.115 210.797 230.291 211.603 230.291 212.52C230.291 213.437 230.115 214.248 229.763 214.952C229.422 215.645 228.952 216.184 228.355 216.568C227.758 216.941 227.091 217.128 226.355 217.128C225.736 217.128 225.187 217 224.707 216.744C224.238 216.488 223.87 216.157 223.603 215.752V221.256H220.867V208.072H223.603V209.336ZM227.507 212.52C227.507 211.837 227.315 211.304 226.931 210.92C226.558 210.525 226.094 210.328 225.539 210.328C224.995 210.328 224.531 210.525 224.147 210.92C223.774 211.315 223.587 211.853 223.587 212.536C223.587 213.219 223.774 213.757 224.147 214.152C224.531 214.547 224.995 214.744 225.539 214.744C226.083 214.744 226.547 214.547 226.931 214.152C227.315 213.747 227.507 213.203 227.507 212.52Z" fill="white"/>
<rect y="33" width="400" height="56" rx="12" fill="#4CB2CE"/>
<path d="M171.944 59.816L171.416 62.28H173.448V64.28H170.984L170.408 67H168.28L168.856 64.28H165.944L165.368 67H163.256L163.832 64.28H161.416V62.28H164.264L164.792 59.816H162.392V57.816H165.224L165.784 55.16H167.896L167.336 57.816H170.248L170.808 55.16H172.936L172.376 57.816H174.424V59.816H171.944ZM169.816 59.816H166.904L166.376 62.28H169.288L169.816 59.816ZM175.94 64.728V62.968L181.172 55.48H183.78V62.776H185.188V64.728H183.78V67H181.54V64.728H175.94ZM181.684 57.88L178.404 62.776H181.684V57.88ZM186.326 61.4C186.326 60.3013 186.571 59.32 187.062 58.456C187.563 57.5813 188.24 56.904 189.094 56.424C189.958 55.9333 190.923 55.688 191.99 55.688C193.238 55.688 194.331 56.008 195.27 56.648C196.208 57.288 196.864 58.1733 197.238 59.304H194.662C194.406 58.7707 194.043 58.3707 193.574 58.104C193.115 57.8373 192.582 57.704 191.974 57.704C191.323 57.704 190.742 57.8587 190.23 58.168C189.728 58.4667 189.334 58.8933 189.046 59.448C188.768 60.0027 188.63 60.6533 188.63 61.4C188.63 62.136 188.768 62.7867 189.046 63.352C189.334 63.9067 189.728 64.3387 190.23 64.648C190.742 64.9467 191.323 65.096 191.974 65.096C192.582 65.096 193.115 64.9627 193.574 64.696C194.043 64.4187 194.406 64.0133 194.662 63.48H197.238C196.864 64.6213 196.208 65.512 195.27 66.152C194.342 66.7813 193.248 67.096 191.99 67.096C190.923 67.096 189.958 66.856 189.094 66.376C188.24 65.8853 187.563 65.208 187.062 64.344C186.571 63.48 186.326 62.4987 186.326 61.4ZM205.487 61.272C206.116 61.3893 206.634 61.704 207.039 62.216C207.444 62.728 207.647 63.3147 207.647 63.976C207.647 64.5733 207.498 65.1013 207.199 65.56C206.911 66.008 206.49 66.36 205.935 66.616C205.38 66.872 204.724 67 203.967 67H199.151V55.832H203.759C204.516 55.832 205.167 55.9547 205.711 56.2C206.266 56.4453 206.682 56.7867 206.959 57.224C207.247 57.6613 207.391 58.1573 207.391 58.712C207.391 59.3627 207.215 59.9067 206.863 60.344C206.522 60.7813 206.063 61.0907 205.487 61.272ZM201.391 60.44H203.439C203.972 60.44 204.383 60.3227 204.671 60.088C204.959 59.8427 205.103 59.496 205.103 59.048C205.103 58.6 204.959 58.2533 204.671 58.008C204.383 57.7627 203.972 57.64 203.439 57.64H201.391V60.44ZM203.647 65.176C204.191 65.176 204.612 65.048 204.911 64.792C205.22 64.536 205.375 64.1733 205.375 63.704C205.375 63.224 205.215 62.8507 204.895 62.584C204.575 62.3067 204.143 62.168 203.599 62.168H201.391V65.176H203.647ZM209.88 64.472C210.904 63.6187 211.72 62.9093 212.328 62.344C212.936 61.768 213.443 61.1707 213.848 60.552C214.253 59.9333 214.456 59.3253 214.456 58.728C214.456 58.184 214.328 57.7573 214.072 57.448C213.816 57.1387 213.421 56.984 212.888 56.984C212.355 56.984 211.944 57.1653 211.656 57.528C211.368 57.88 211.219 58.3653 211.208 58.984H209.032C209.075 57.704 209.453 56.7333 210.168 56.072C210.893 55.4107 211.811 55.08 212.92 55.08C214.136 55.08 215.069 55.4053 215.72 56.056C216.371 56.696 216.696 57.544 216.696 58.6C216.696 59.432 216.472 60.2267 216.024 60.984C215.576 61.7413 215.064 62.4027 214.488 62.968C213.912 63.5227 213.16 64.1947 212.232 64.984H216.952V66.84H209.048V65.176L209.88 64.472ZM218.076 61.4C218.076 60.3013 218.321 59.32 218.812 58.456C219.313 57.5813 219.99 56.904 220.844 56.424C221.708 55.9333 222.673 55.688 223.74 55.688C224.988 55.688 226.081 56.008 227.02 56.648C227.958 57.288 228.614 58.1733 228.988 59.304H226.412C226.156 58.7707 225.793 58.3707 225.324 58.104C224.865 57.8373 224.332 57.704 223.724 57.704C223.073 57.704 222.492 57.8587 221.98 58.168C221.478 58.4667 221.084 58.8933 220.796 59.448C220.518 60.0027 220.38 60.6533 220.38 61.4C220.38 62.136 220.518 62.7867 220.796 63.352C221.084 63.9067 221.478 64.3387 221.98 64.648C222.492 64.9467 223.073 65.096 223.724 65.096C224.332 65.096 224.865 64.9627 225.324 64.696C225.793 64.4187 226.156 64.0133 226.412 63.48H228.988C228.614 64.6213 227.958 65.512 227.02 66.152C226.092 66.7813 224.998 67.096 223.74 67.096C222.673 67.096 221.708 66.856 220.844 66.376C219.99 65.8853 219.313 65.208 218.812 64.344C218.321 63.48 218.076 62.4987 218.076 61.4ZM233.141 57.64V60.44H236.901V62.216H233.141V65.176H237.381V67H230.901V55.816H237.381V57.64H233.141Z" fill="white"/>
<path d="M0.456 9.936V9.096L4.752 3.6H6.048L1.788 9.096L1.176 8.904H7.884V9.936H0.456ZM5.124 12V9.936L5.16 8.904V7.08H6.288V12H5.124ZM12.0353 12.096C11.3793 12.096 10.7913 11.928 10.2713 11.592C9.75934 11.256 9.35134 10.768 9.04734 10.128C8.75134 9.488 8.60334 8.712 8.60334 7.8C8.60334 6.888 8.75134 6.112 9.04734 5.472C9.35134 4.832 9.75934 4.344 10.2713 4.008C10.7913 3.672 11.3793 3.504 12.0353 3.504C12.6833 3.504 13.2673 3.672 13.7873 4.008C14.3073 4.344 14.7153 4.832 15.0113 5.472C15.3073 6.112 15.4553 6.888 15.4553 7.8C15.4553 8.712 15.3073 9.488 15.0113 10.128C14.7153 10.768 14.3073 11.256 13.7873 11.592C13.2673 11.928 12.6833 12.096 12.0353 12.096ZM12.0353 11.028C12.4753 11.028 12.8593 10.908 13.1873 10.668C13.5233 10.428 13.7833 10.068 13.9673 9.588C14.1593 9.108 14.2553 8.512 14.2553 7.8C14.2553 7.088 14.1593 6.492 13.9673 6.012C13.7833 5.532 13.5233 5.172 13.1873 4.932C12.8593 4.692 12.4753 4.572 12.0353 4.572C11.5953 4.572 11.2073 4.692 10.8713 4.932C10.5353 5.172 10.2713 5.532 10.0793 6.012C9.89534 6.492 9.80334 7.088 9.80334 7.8C9.80334 8.512 9.89534 9.108 10.0793 9.588C10.2713 10.068 10.5353 10.428 10.8713 10.668C11.2073 10.908 11.5953 11.028 12.0353 11.028ZM20.0393 12.096C19.3833 12.096 18.7953 11.928 18.2753 11.592C17.7633 11.256 17.3553 10.768 17.0513 10.128C16.7553 9.488 16.6073 8.712 16.6073 7.8C16.6073 6.888 16.7553 6.112 17.0513 5.472C17.3553 4.832 17.7633 4.344 18.2753 4.008C18.7953 3.672 19.3833 3.504 20.0393 3.504C20.6873 3.504 21.2713 3.672 21.7913 4.008C22.3113 4.344 22.7193 4.832 23.0153 5.472C23.3113 6.112 23.4593 6.888 23.4593 7.8C23.4593 8.712 23.3113 9.488 23.0153 10.128C22.7193 10.768 22.3113 11.256 21.7913 11.592C21.2713 11.928 20.6873 12.096 20.0393 12.096ZM20.0393 11.028C20.4793 11.028 20.8633 10.908 21.1913 10.668C21.5273 10.428 21.7873 10.068 21.9713 9.588C22.1633 9.108 22.2593 8.512 22.2593 7.8C22.2593 7.088 22.1633 6.492 21.9713 6.012C21.7873 5.532 21.5273 5.172 21.1913 4.932C20.8633 4.692 20.4793 4.572 20.0393 4.572C19.5993 4.572 19.2113 4.692 18.8753 4.932C18.5393 5.172 18.2753 5.532 18.0833 6.012C17.8993 6.492 17.8073 7.088 17.8073 7.8C17.8073 8.512 17.8993 9.108 18.0833 9.588C18.2753 10.068 18.5393 10.428 18.8753 10.668C19.2113 10.908 19.5993 11.028 20.0393 11.028ZM31.7218 12.072C31.1938 12.072 30.7098 11.952 30.2698 11.712C29.8378 11.464 29.4898 11.1 29.2258 10.62C28.9698 10.14 28.8418 9.54 28.8418 8.82C28.8418 8.1 28.9658 7.5 29.2138 7.02C29.4698 6.54 29.8138 6.18 30.2458 5.94C30.6858 5.7 31.1778 5.58 31.7218 5.58C32.3458 5.58 32.8978 5.716 33.3778 5.988C33.8578 6.26 34.2378 6.64 34.5178 7.128C34.7978 7.608 34.9378 8.172 34.9378 8.82C34.9378 9.468 34.7978 10.036 34.5178 10.524C34.2378 11.012 33.8578 11.392 33.3778 11.664C32.8978 11.936 32.3458 12.072 31.7218 12.072ZM28.3498 14.328V5.64H29.4538V7.356L29.3818 8.832L29.5018 10.308V14.328H28.3498ZM31.6258 11.064C32.0338 11.064 32.3978 10.972 32.7178 10.788C33.0458 10.604 33.3018 10.344 33.4858 10.008C33.6778 9.664 33.7738 9.268 33.7738 8.82C33.7738 8.364 33.6778 7.972 33.4858 7.644C33.3018 7.308 33.0458 7.048 32.7178 6.864C32.3978 6.68 32.0338 6.588 31.6258 6.588C31.2258 6.588 30.8618 6.68 30.5338 6.864C30.2138 7.048 29.9578 7.308 29.7658 7.644C29.5818 7.972 29.4898 8.364 29.4898 8.82C29.4898 9.268 29.5818 9.664 29.7658 10.008C29.9578 10.344 30.2138 10.604 30.5338 10.788C30.8618 10.972 31.2258 11.064 31.6258 11.064ZM35.3946 12L38.1306 8.448L38.1186 9.036L35.5146 5.64H36.7986L38.7906 8.256H38.2986L40.2906 5.64H41.5506L38.9106 9.06L38.9226 8.448L41.6826 12H40.3746L38.2746 9.216L38.7426 9.288L36.6786 12H35.3946Z" fill="#5E5873"/>
<path d="M59.2828 21.2828C59.439 21.1266 59.439 20.8734 59.2828 20.7172L56.7373 18.1716C56.581 18.0154 56.3278 18.0154 56.1716 18.1716C56.0154 18.3278 56.0154 18.581 56.1716 18.7373L58.4343 21L56.1716 23.2627C56.0154 23.419 56.0154 23.6722 56.1716 23.8284C56.3278 23.9846 56.581 23.9846 56.7373 23.8284L59.2828 21.2828ZM0 21.4H59V20.6H0V21.4Z" fill="#5E5873"/>
<path d="M418.288 57.096C417.696 57.096 417.12 57.004 416.56 56.82C416.008 56.636 415.556 56.388 415.204 56.076L415.756 55.128C416.036 55.392 416.4 55.608 416.848 55.776C417.296 55.944 417.772 56.028 418.276 56.028C418.916 56.028 419.408 55.892 419.752 55.62C420.096 55.348 420.268 54.984 420.268 54.528C420.268 54.216 420.192 53.944 420.04 53.712C419.888 53.48 419.624 53.304 419.248 53.184C418.88 53.056 418.372 52.992 417.724 52.992H415.816L416.26 48.6H421V49.644H416.704L417.328 49.056L416.98 52.524L416.356 51.948H417.976C418.816 51.948 419.492 52.056 420.004 52.272C420.516 52.488 420.888 52.788 421.12 53.172C421.352 53.548 421.468 53.984 421.468 54.48C421.468 54.96 421.352 55.4 421.12 55.8C420.888 56.192 420.536 56.508 420.064 56.748C419.6 56.98 419.008 57.096 418.288 57.096ZM425.995 57.096C425.251 57.096 424.615 56.932 424.087 56.604C423.559 56.276 423.155 55.804 422.875 55.188C422.603 54.564 422.467 53.804 422.467 52.908C422.467 51.956 422.635 51.152 422.971 50.496C423.307 49.84 423.775 49.344 424.375 49.008C424.975 48.672 425.663 48.504 426.439 48.504C426.839 48.504 427.219 48.544 427.579 48.624C427.947 48.704 428.263 48.828 428.527 48.996L428.071 49.932C427.855 49.78 427.607 49.676 427.327 49.62C427.055 49.564 426.767 49.536 426.463 49.536C425.607 49.536 424.927 49.804 424.423 50.34C423.919 50.868 423.667 51.656 423.667 52.704C423.667 52.872 423.675 53.072 423.691 53.304C423.707 53.536 423.747 53.764 423.811 53.988L423.403 53.58C423.523 53.212 423.711 52.904 423.967 52.656C424.231 52.4 424.543 52.212 424.903 52.092C425.271 51.964 425.667 51.9 426.091 51.9C426.651 51.9 427.147 52.004 427.579 52.212C428.011 52.42 428.351 52.716 428.599 53.1C428.847 53.476 428.971 53.924 428.971 54.444C428.971 54.98 428.839 55.448 428.575 55.848C428.311 56.248 427.955 56.556 427.507 56.772C427.059 56.988 426.555 57.096 425.995 57.096ZM425.947 56.124C426.315 56.124 426.635 56.056 426.907 55.92C427.187 55.784 427.407 55.596 427.567 55.356C427.727 55.108 427.807 54.82 427.807 54.492C427.807 53.996 427.635 53.604 427.291 53.316C426.947 53.02 426.479 52.872 425.887 52.872C425.503 52.872 425.167 52.944 424.879 53.088C424.591 53.232 424.363 53.428 424.195 53.676C424.035 53.916 423.955 54.192 423.955 54.504C423.955 54.792 424.031 55.06 424.183 55.308C424.335 55.548 424.559 55.744 424.855 55.896C425.151 56.048 425.515 56.124 425.947 56.124ZM436.984 57.072C436.456 57.072 435.972 56.952 435.532 56.712C435.1 56.464 434.752 56.1 434.488 55.62C434.232 55.14 434.104 54.54 434.104 53.82C434.104 53.1 434.228 52.5 434.476 52.02C434.732 51.54 435.076 51.18 435.508 50.94C435.948 50.7 436.44 50.58 436.984 50.58C437.608 50.58 438.16 50.716 438.64 50.988C439.12 51.26 439.5 51.64 439.78 52.128C440.06 52.608 440.2 53.172 440.2 53.82C440.2 54.468 440.06 55.036 439.78 55.524C439.5 56.012 439.12 56.392 438.64 56.664C438.16 56.936 437.608 57.072 436.984 57.072ZM433.612 59.328V50.64H434.716V52.356L434.644 53.832L434.764 55.308V59.328H433.612ZM436.888 56.064C437.296 56.064 437.66 55.972 437.98 55.788C438.308 55.604 438.564 55.344 438.748 55.008C438.94 54.664 439.036 54.268 439.036 53.82C439.036 53.364 438.94 52.972 438.748 52.644C438.564 52.308 438.308 52.048 437.98 51.864C437.66 51.68 437.296 51.588 436.888 51.588C436.488 51.588 436.124 51.68 435.796 51.864C435.476 52.048 435.22 52.308 435.028 52.644C434.844 52.972 434.752 53.364 434.752 53.82C434.752 54.268 434.844 54.664 435.028 55.008C435.22 55.344 435.476 55.604 435.796 55.788C436.124 55.972 436.488 56.064 436.888 56.064ZM440.656 57L443.392 53.448L443.38 54.036L440.776 50.64H442.06L444.052 53.256H443.56L445.552 50.64H446.812L444.172 54.06L444.184 53.448L446.944 57H445.636L443.536 54.216L444.004 54.288L441.94 57H440.656Z" fill="#5E5873"/>
<path d="M411.717 70.2828C411.873 70.4391 412.127 70.4391 412.283 70.2828L414.828 67.7373C414.985 67.581 414.985 67.3278 414.828 67.1716C414.672 67.0154 414.419 67.0154 414.263 67.1716L412 69.4343L409.737 67.1716C409.581 67.0154 409.328 67.0154 409.172 67.1716C409.015 67.3278 409.015 67.581 409.172 67.7373L411.717 70.2828ZM411.6 39L411.6 70L412.4 70L412.4 39L411.6 39Z" fill="#5E5873"/>
<rect x="103" y="108" width="194" height="56" rx="12" fill="#4CB2CE"/>
<path d="M185.056 142.112C184.235 142.112 183.499 141.979 182.848 141.712C182.197 141.445 181.675 141.051 181.28 140.528C180.896 140.005 180.693 139.376 180.672 138.64H183.584C183.627 139.056 183.771 139.376 184.016 139.6C184.261 139.813 184.581 139.92 184.976 139.92C185.381 139.92 185.701 139.829 185.936 139.648C186.171 139.456 186.288 139.195 186.288 138.864C186.288 138.587 186.192 138.357 186 138.176C185.819 137.995 185.589 137.845 185.312 137.728C185.045 137.611 184.661 137.477 184.16 137.328C183.435 137.104 182.843 136.88 182.384 136.656C181.925 136.432 181.531 136.101 181.2 135.664C180.869 135.227 180.704 134.656 180.704 133.952C180.704 132.907 181.083 132.091 181.84 131.504C182.597 130.907 183.584 130.608 184.8 130.608C186.037 130.608 187.035 130.907 187.792 131.504C188.549 132.091 188.955 132.912 189.008 133.968H186.048C186.027 133.605 185.893 133.323 185.648 133.12C185.403 132.907 185.088 132.8 184.704 132.8C184.373 132.8 184.107 132.891 183.904 133.072C183.701 133.243 183.6 133.493 183.6 133.824C183.6 134.187 183.771 134.469 184.112 134.672C184.453 134.875 184.987 135.093 185.712 135.328C186.437 135.573 187.024 135.808 187.472 136.032C187.931 136.256 188.325 136.581 188.656 137.008C188.987 137.435 189.152 137.984 189.152 138.656C189.152 139.296 188.987 139.877 188.656 140.4C188.336 140.923 187.867 141.339 187.248 141.648C186.629 141.957 185.899 142.112 185.056 142.112ZM190.292 137.52C190.292 136.603 190.462 135.797 190.804 135.104C191.156 134.411 191.63 133.877 192.228 133.504C192.825 133.131 193.492 132.944 194.228 132.944C194.857 132.944 195.406 133.072 195.876 133.328C196.356 133.584 196.724 133.92 196.98 134.336V133.072H199.716V142H196.98V140.736C196.713 141.152 196.34 141.488 195.86 141.744C195.39 142 194.841 142.128 194.212 142.128C193.486 142.128 192.825 141.941 192.228 141.568C191.63 141.184 191.156 140.645 190.804 139.952C190.462 139.248 190.292 138.437 190.292 137.52ZM196.98 137.536C196.98 136.853 196.788 136.315 196.404 135.92C196.03 135.525 195.572 135.328 195.028 135.328C194.484 135.328 194.02 135.525 193.636 135.92C193.262 136.304 193.076 136.837 193.076 137.52C193.076 138.203 193.262 138.747 193.636 139.152C194.02 139.547 194.484 139.744 195.028 139.744C195.572 139.744 196.03 139.547 196.404 139.152C196.788 138.757 196.98 138.219 196.98 137.536ZM205.711 139.44L207.647 133.072H210.559L207.391 142H204.015L200.847 133.072H203.775L205.711 139.44ZM220.127 137.392C220.127 137.648 220.111 137.915 220.079 138.192H213.887C213.929 138.747 214.105 139.173 214.415 139.472C214.735 139.76 215.124 139.904 215.583 139.904C216.265 139.904 216.74 139.616 217.007 139.04H219.919C219.769 139.627 219.497 140.155 219.103 140.624C218.719 141.093 218.233 141.461 217.647 141.728C217.06 141.995 216.404 142.128 215.679 142.128C214.804 142.128 214.025 141.941 213.343 141.568C212.66 141.195 212.127 140.661 211.743 139.968C211.359 139.275 211.167 138.464 211.167 137.536C211.167 136.608 211.353 135.797 211.727 135.104C212.111 134.411 212.644 133.877 213.327 133.504C214.009 133.131 214.793 132.944 215.679 132.944C216.543 132.944 217.311 133.125 217.983 133.488C218.655 133.851 219.177 134.368 219.551 135.04C219.935 135.712 220.127 136.496 220.127 137.392ZM217.327 136.672C217.327 136.203 217.167 135.829 216.847 135.552C216.527 135.275 216.127 135.136 215.647 135.136C215.188 135.136 214.799 135.269 214.479 135.536C214.169 135.803 213.977 136.181 213.903 136.672H217.327Z" fill="white"/>
<path d="M537.444 12V11.184L540.864 7.884C541.168 7.596 541.392 7.344 541.536 7.128C541.688 6.904 541.788 6.7 541.836 6.516C541.892 6.324 541.92 6.14 541.92 5.964C541.92 5.532 541.768 5.192 541.464 4.944C541.16 4.696 540.716 4.572 540.132 4.572C539.684 4.572 539.28 4.648 538.92 4.8C538.56 4.944 538.248 5.172 537.984 5.484L537.168 4.776C537.488 4.368 537.916 4.056 538.452 3.84C538.996 3.616 539.592 3.504 540.24 3.504C540.824 3.504 541.332 3.6 541.764 3.792C542.196 3.976 542.528 4.244 542.76 4.596C543 4.948 543.12 5.364 543.12 5.844C543.12 6.116 543.084 6.384 543.012 6.648C542.94 6.912 542.804 7.192 542.604 7.488C542.404 7.784 542.116 8.116 541.74 8.484L538.692 11.424L538.404 10.956H543.48V12H537.444ZM547.179 12.096C546.587 12.096 546.011 12.004 545.451 11.82C544.899 11.636 544.447 11.388 544.095 11.076L544.647 10.128C544.927 10.392 545.291 10.608 545.739 10.776C546.187 10.944 546.663 11.028 547.167 11.028C547.807 11.028 548.299 10.892 548.643 10.62C548.987 10.348 549.159 9.984 549.159 9.528C549.159 9.216 549.083 8.944 548.931 8.712C548.779 8.48 548.515 8.304 548.139 8.184C547.771 8.056 547.263 7.992 546.615 7.992H544.707L545.151 3.6H549.891V4.644H545.595L546.219 4.056L545.871 7.524L545.247 6.948H546.867C547.707 6.948 548.383 7.056 548.895 7.272C549.407 7.488 549.779 7.788 550.011 8.172C550.243 8.548 550.359 8.984 550.359 9.48C550.359 9.96 550.243 10.4 550.011 10.8C549.779 11.192 549.427 11.508 548.955 11.748C548.491 11.98 547.899 12.096 547.179 12.096ZM551.237 9.936V9.096L555.533 3.6H556.829L552.569 9.096L551.957 8.904H558.665V9.936H551.237ZM555.905 12V9.936L555.941 8.904V7.08H557.069V12H555.905ZM566.495 12.072C565.967 12.072 565.483 11.952 565.043 11.712C564.611 11.464 564.263 11.1 563.999 10.62C563.743 10.14 563.615 9.54 563.615 8.82C563.615 8.1 563.739 7.5 563.987 7.02C564.243 6.54 564.587 6.18 565.019 5.94C565.459 5.7 565.951 5.58 566.495 5.58C567.119 5.58 567.671 5.716 568.151 5.988C568.631 6.26 569.011 6.64 569.291 7.128C569.571 7.608 569.711 8.172 569.711 8.82C569.711 9.468 569.571 10.036 569.291 10.524C569.011 11.012 568.631 11.392 568.151 11.664C567.671 11.936 567.119 12.072 566.495 12.072ZM563.123 14.328V5.64H564.227V7.356L564.155 8.832L564.275 10.308V14.328H563.123ZM566.399 11.064C566.807 11.064 567.171 10.972 567.491 10.788C567.819 10.604 568.075 10.344 568.259 10.008C568.451 9.664 568.547 9.268 568.547 8.82C568.547 8.364 568.451 7.972 568.259 7.644C568.075 7.308 567.819 7.048 567.491 6.864C567.171 6.68 566.807 6.588 566.399 6.588C565.999 6.588 565.635 6.68 565.307 6.864C564.987 7.048 564.731 7.308 564.539 7.644C564.355 7.972 564.263 8.364 564.263 8.82C564.263 9.268 564.355 9.664 564.539 10.008C564.731 10.344 564.987 10.604 565.307 10.788C565.635 10.972 565.999 11.064 566.399 11.064ZM570.168 12L572.904 8.448L572.892 9.036L570.288 5.64H571.572L573.564 8.256H573.072L575.064 5.64H576.324L573.684 9.06L573.696 8.448L576.456 12H575.148L573.048 9.216L573.516 9.288L571.452 12H570.168Z" fill="#5E5873"/>
<path d="M596.283 21.2828C596.439 21.1266 596.439 20.8734 596.283 20.7172L593.737 18.1716C593.581 18.0154 593.328 18.0154 593.172 18.1716C593.015 18.3278 593.015 18.581 593.172 18.7373L595.434 21L593.172 23.2627C593.015 23.419 593.015 23.6722 593.172 23.8284C593.328 23.9846 593.581 23.9846 593.737 23.8284L596.283 21.2828ZM537 21.4H596V20.6H537V21.4Z" fill="#5E5873"/>
<path d="M829.288 68.096C828.696 68.096 828.12 68.004 827.56 67.82C827.008 67.636 826.556 67.388 826.204 67.076L826.756 66.128C827.036 66.392 827.4 66.608 827.848 66.776C828.296 66.944 828.772 67.028 829.276 67.028C829.916 67.028 830.408 66.892 830.752 66.62C831.096 66.348 831.268 65.984 831.268 65.528C831.268 65.216 831.192 64.944 831.04 64.712C830.888 64.48 830.624 64.304 830.248 64.184C829.88 64.056 829.372 63.992 828.724 63.992H826.816L827.26 59.6H832V60.644H827.704L828.328 60.056L827.98 63.524L827.356 62.948H828.976C829.816 62.948 830.492 63.056 831.004 63.272C831.516 63.488 831.888 63.788 832.12 64.172C832.352 64.548 832.468 64.984 832.468 65.48C832.468 65.96 832.352 66.4 832.12 66.8C831.888 67.192 831.536 67.508 831.064 67.748C830.6 67.98 830.008 68.096 829.288 68.096ZM836.995 68.096C836.251 68.096 835.615 67.932 835.087 67.604C834.559 67.276 834.155 66.804 833.875 66.188C833.603 65.564 833.467 64.804 833.467 63.908C833.467 62.956 833.635 62.152 833.971 61.496C834.307 60.84 834.775 60.344 835.375 60.008C835.975 59.672 836.663 59.504 837.439 59.504C837.839 59.504 838.219 59.544 838.579 59.624C838.947 59.704 839.263 59.828 839.527 59.996L839.071 60.932C838.855 60.78 838.607 60.676 838.327 60.62C838.055 60.564 837.767 60.536 837.463 60.536C836.607 60.536 835.927 60.804 835.423 61.34C834.919 61.868 834.667 62.656 834.667 63.704C834.667 63.872 834.675 64.072 834.691 64.304C834.707 64.536 834.747 64.764 834.811 64.988L834.403 64.58C834.523 64.212 834.711 63.904 834.967 63.656C835.231 63.4 835.543 63.212 835.903 63.092C836.271 62.964 836.667 62.9 837.091 62.9C837.651 62.9 838.147 63.004 838.579 63.212C839.011 63.42 839.351 63.716 839.599 64.1C839.847 64.476 839.971 64.924 839.971 65.444C839.971 65.98 839.839 66.448 839.575 66.848C839.311 67.248 838.955 67.556 838.507 67.772C838.059 67.988 837.555 68.096 836.995 68.096ZM836.947 67.124C837.315 67.124 837.635 67.056 837.907 66.92C838.187 66.784 838.407 66.596 838.567 66.356C838.727 66.108 838.807 65.82 838.807 65.492C838.807 64.996 838.635 64.604 838.291 64.316C837.947 64.02 837.479 63.872 836.887 63.872C836.503 63.872 836.167 63.944 835.879 64.088C835.591 64.232 835.363 64.428 835.195 64.676C835.035 64.916 834.955 65.192 834.955 65.504C834.955 65.792 835.031 66.06 835.183 66.308C835.335 66.548 835.559 66.744 835.855 66.896C836.151 67.048 836.515 67.124 836.947 67.124ZM847.984 68.072C847.456 68.072 846.972 67.952 846.532 67.712C846.1 67.464 845.752 67.1 845.488 66.62C845.232 66.14 845.104 65.54 845.104 64.82C845.104 64.1 845.228 63.5 845.476 63.02C845.732 62.54 846.076 62.18 846.508 61.94C846.948 61.7 847.44 61.58 847.984 61.58C848.608 61.58 849.16 61.716 849.64 61.988C850.12 62.26 850.5 62.64 850.78 63.128C851.06 63.608 851.2 64.172 851.2 64.82C851.2 65.468 851.06 66.036 850.78 66.524C850.5 67.012 850.12 67.392 849.64 67.664C849.16 67.936 848.608 68.072 847.984 68.072ZM844.612 70.328V61.64H845.716V63.356L845.644 64.832L845.764 66.308V70.328H844.612ZM847.888 67.064C848.296 67.064 848.66 66.972 848.98 66.788C849.308 66.604 849.564 66.344 849.748 66.008C849.94 65.664 850.036 65.268 850.036 64.82C850.036 64.364 849.94 63.972 849.748 63.644C849.564 63.308 849.308 63.048 848.98 62.864C848.66 62.68 848.296 62.588 847.888 62.588C847.488 62.588 847.124 62.68 846.796 62.864C846.476 63.048 846.22 63.308 846.028 63.644C845.844 63.972 845.752 64.364 845.752 64.82C845.752 65.268 845.844 65.664 846.028 66.008C846.22 66.344 846.476 66.604 846.796 66.788C847.124 66.972 847.488 67.064 847.888 67.064ZM851.656 68L854.392 64.448L854.38 65.036L851.776 61.64H853.06L855.052 64.256H854.56L856.552 61.64H857.812L855.172 65.06L855.184 64.448L857.944 68H856.636L854.536 65.216L855.004 65.288L852.94 68H851.656Z" fill="#5E5873"/>
<path d="M822.717 81.2828C822.873 81.4391 823.127 81.4391 823.283 81.2828L825.828 78.7373C825.985 78.581 825.985 78.3278 825.828 78.1716C825.672 78.0154 825.419 78.0154 825.263 78.1716L823 80.4343L820.737 78.1716C820.581 78.0154 820.328 78.0154 820.172 78.1716C820.015 78.3278 820.015 78.581 820.172 78.7373L822.717 81.2828ZM822.6 50L822.6 81L823.4 81L823.4 50L822.6 50Z" fill="#5E5873"/>
<rect x="179" y="258" width="55" height="44" rx="12" fill="#4CB2CE"/>
<path d="M197.089 289.196L200.864 287.938L201.525 288.268C203.043 289.025 204.73 289.429 206.5 289.429C212.411 289.429 217.214 284.775 217.214 279.607C217.214 274.439 212.411 269.786 206.5 269.786C200.589 269.786 195.786 274.439 195.786 279.607C195.786 281.536 196.482 283.493 197.763 285.166L198.379 285.97L197.088 289.195L197.089 289.196ZM195.827 291.5C195.665 291.554 195.491 291.561 195.326 291.519C195.161 291.478 195.011 291.39 194.894 291.266C194.777 291.142 194.698 290.988 194.666 290.82C194.634 290.653 194.651 290.48 194.714 290.321L196.343 286.25C194.857 284.304 194 281.975 194 279.607C194 273.689 199.357 268 206.5 268C213.643 268 219 273.689 219 279.607C219 285.525 213.643 291.214 206.5 291.214C204.497 291.22 202.52 290.758 200.727 289.864L195.827 291.498V291.5Z" fill="white"/>
<path d="M206.501 281.036C206.313 281.036 206.127 280.999 205.954 280.927C205.781 280.855 205.623 280.75 205.49 280.617C205.358 280.485 205.253 280.327 205.181 280.154C205.109 279.981 205.072 279.795 205.072 279.607C205.072 279.42 205.109 279.234 205.181 279.061C205.253 278.887 205.358 278.73 205.49 278.597C205.623 278.464 205.781 278.359 205.954 278.287C206.127 278.216 206.313 278.179 206.501 278.179C206.879 278.179 207.243 278.329 207.511 278.597C207.779 278.865 207.929 279.228 207.929 279.607C207.929 279.986 207.779 280.35 207.511 280.617C207.243 280.885 206.879 281.036 206.501 281.036ZM211.858 281.036C211.67 281.036 211.484 280.999 211.311 280.927C211.138 280.855 210.98 280.75 210.848 280.617C210.715 280.485 210.61 280.327 210.538 280.154C210.466 279.981 210.429 279.795 210.429 279.607C210.429 279.42 210.466 279.234 210.538 279.061C210.61 278.887 210.715 278.73 210.848 278.597C210.98 278.464 211.138 278.359 211.311 278.287C211.484 278.216 211.67 278.179 211.858 278.179C212.237 278.179 212.6 278.329 212.868 278.597C213.136 278.865 213.286 279.228 213.286 279.607C213.286 279.986 213.136 280.35 212.868 280.617C212.6 280.885 212.237 281.036 211.858 281.036ZM201.143 281.036C200.956 281.036 200.77 280.999 200.597 280.927C200.423 280.855 200.266 280.75 200.133 280.617C200.001 280.485 199.895 280.327 199.824 280.154C199.752 279.981 199.715 279.795 199.715 279.607C199.715 279.42 199.752 279.234 199.824 279.061C199.895 278.887 200.001 278.73 200.133 278.597C200.266 278.464 200.423 278.359 200.597 278.287C200.77 278.216 200.956 278.179 201.143 278.179C201.522 278.179 201.886 278.329 202.154 278.597C202.421 278.865 202.572 279.228 202.572 279.607C202.572 279.986 202.421 280.35 202.154 280.617C201.886 280.885 201.522 281.036 201.143 281.036Z" fill="white"/>
<rect x="533" y="33" width="278" height="56" rx="12" fill="#574B9E"/>
<path d="M646.44 59.992L645.992 62.088H647.912V64.552H645.464L644.936 67H642.376L642.904 64.552H640.248L639.72 67H637.16L637.688 64.552H635.32V62.088H638.216L638.664 59.992H636.344V57.528H639.176L639.688 55.16H642.248L641.736 57.528H644.392L644.904 55.16H647.464L646.952 57.528H648.936V59.992H646.44ZM643.88 59.992H641.224L640.776 62.088H643.432L643.88 59.992ZM658.413 57.704H653.421V59.912C653.634 59.6773 653.933 59.4853 654.317 59.336C654.701 59.1867 655.117 59.112 655.565 59.112C656.365 59.112 657.026 59.2933 657.549 59.656C658.082 60.0187 658.471 60.488 658.717 61.064C658.962 61.64 659.085 62.264 659.085 62.936C659.085 64.184 658.733 65.176 658.029 65.912C657.325 66.6373 656.333 67 655.053 67C654.199 67 653.458 66.856 652.829 66.568C652.199 66.2693 651.714 65.8587 651.373 65.336C651.031 64.8133 650.845 64.2107 650.813 63.528H653.485C653.549 63.8587 653.703 64.136 653.949 64.36C654.194 64.5733 654.53 64.68 654.957 64.68C655.458 64.68 655.831 64.52 656.077 64.2C656.322 63.88 656.445 63.4533 656.445 62.92C656.445 62.3973 656.317 61.9973 656.061 61.72C655.805 61.4427 655.431 61.304 654.941 61.304C654.578 61.304 654.279 61.3947 654.045 61.576C653.81 61.7467 653.655 61.976 653.581 62.264H650.941V55.304H658.413V57.704ZM668.051 57.368L664.035 67H661.235L665.299 57.672H660.323V55.336H668.051V57.368ZM669.222 64.92V62.712L674.278 55.48H677.334V62.552H678.646V64.92H677.334V67H674.598V64.92H669.222ZM674.79 58.488L672.102 62.552H674.79V58.488ZM687.058 61.24C687.708 61.3787 688.231 61.704 688.626 62.216C689.02 62.7173 689.218 63.2933 689.218 63.944C689.218 64.8827 688.887 65.6293 688.226 66.184C687.575 66.728 686.663 67 685.49 67H680.258V55.768H685.314C686.455 55.768 687.346 56.0293 687.986 56.552C688.636 57.0747 688.962 57.784 688.962 58.68C688.962 59.3413 688.786 59.8907 688.434 60.328C688.092 60.7653 687.634 61.0693 687.058 61.24ZM682.994 60.312H684.786C685.234 60.312 685.575 60.216 685.81 60.024C686.055 59.8213 686.178 59.528 686.178 59.144C686.178 58.76 686.055 58.4667 685.81 58.264C685.575 58.0613 685.234 57.96 684.786 57.96H682.994V60.312ZM685.01 64.792C685.468 64.792 685.82 64.6907 686.066 64.488C686.322 64.2747 686.45 63.9707 686.45 63.576C686.45 63.1813 686.316 62.872 686.05 62.648C685.794 62.424 685.436 62.312 684.978 62.312H682.994V64.792H685.01ZM693.477 63.576C693.637 64.4187 694.127 64.84 694.949 64.84C695.514 64.84 695.914 64.5893 696.149 64.088C696.383 63.5867 696.501 62.7707 696.501 61.64C696.266 61.9707 695.946 62.2267 695.541 62.408C695.135 62.5893 694.682 62.68 694.181 62.68C693.498 62.68 692.89 62.5413 692.357 62.264C691.823 61.976 691.402 61.5547 691.093 61C690.794 60.4347 690.645 59.752 690.645 58.952C690.645 58.1627 690.805 57.4747 691.125 56.888C691.455 56.3013 691.919 55.848 692.517 55.528C693.125 55.208 693.839 55.048 694.661 55.048C696.239 55.048 697.343 55.5387 697.973 56.52C698.602 57.5013 698.917 58.9467 698.917 60.856C698.917 62.2427 698.789 63.3893 698.533 64.296C698.287 65.192 697.866 65.8747 697.269 66.344C696.682 66.8133 695.877 67.048 694.853 67.048C694.042 67.048 693.349 66.888 692.773 66.568C692.207 66.248 691.77 65.8267 691.461 65.304C691.162 64.7813 690.991 64.2053 690.949 63.576H693.477ZM694.805 60.52C695.253 60.52 695.61 60.3867 695.877 60.12C696.143 59.8427 696.277 59.4693 696.277 59C696.277 58.488 696.138 58.0933 695.861 57.816C695.583 57.5387 695.21 57.4 694.741 57.4C694.271 57.4 693.898 57.544 693.621 57.832C693.354 58.1093 693.221 58.4933 693.221 58.984C693.221 59.4427 693.354 59.816 693.621 60.104C693.898 60.3813 694.293 60.52 694.805 60.52ZM703.384 57.96V60.232H707.048V62.344H703.384V64.808H707.528V67H700.648V55.768H707.528V57.96H703.384Z" fill="white"/>
</svg>
