<svg width="184" height="216" viewBox="0 0 184 216" fill="none" xmlns="http://www.w3.org/2000/svg">
<path d="M11.9198 174.866C5.7658 174.866 0.753906 170.315 0.753906 164.709V14.7803H182.915V164.709C182.915 170.315 177.917 174.866 171.763 174.866H11.9198Z" fill="white"/>
<path d="M183.707 14.0181H0V164.053C0 170.028 5.33437 174.866 11.9318 174.866H171.775C178.359 174.866 183.707 170.028 183.707 164.053V14.0181ZM182.161 15.4109V164.053C182.161 169.246 177.499 173.473 171.775 173.473H11.9318C6.19432 173.473 1.53178 169.246 1.53178 164.053V15.4109H182.161Z" fill="#7484CA"/>
<path d="M51.3398 70.1657V69.4805H14.3082C13.1526 69.4805 12.1046 68.9967 11.3387 68.2443C10.5728 67.4784 10.1025 66.4303 10.1025 65.2748V37.098C10.1025 35.9424 10.5728 34.8944 11.3387 34.1285C12.1046 33.3626 13.1526 32.8923 14.3082 32.8923H51.3398C52.4953 32.8923 53.5434 33.3626 54.3093 34.1285C55.0752 34.8944 55.5455 35.9424 55.5455 37.098V65.2748C55.5455 66.4303 55.0752 67.4784 54.3093 68.2443C53.5434 68.9967 52.4953 69.4805 51.3398 69.4805V70.8644C54.4168 70.851 56.9294 68.3518 56.9429 65.2748V37.098C56.9294 34.021 54.4168 31.5217 51.3398 31.5083H14.3082C11.2312 31.5217 8.71851 34.021 8.70508 37.098V65.2748C8.71851 68.3518 11.2312 70.851 14.3082 70.8644H51.3398V70.1657Z" fill="#C0EAF2"/>
<path d="M16.2263 75.7431C16.1726 75.6893 16.1054 75.649 16.0382 75.6222C15.7561 75.5147 14.7886 75.4878 14.6677 75.4744L14.4796 75.4475C14.3721 75.125 14.2915 74.8831 14.1437 74.5338C14.0765 74.3457 13.9555 74.1038 13.8212 73.956C13.6868 73.8082 13.5121 73.6738 13.3106 73.7007C13.0553 73.7276 12.7194 74.2113 12.585 74.5338C12.4641 74.8294 12.37 75.125 12.2625 75.4475L12.0744 75.4744C11.9535 75.4878 10.986 75.5147 10.7173 75.6222C10.6367 75.649 10.5829 75.6893 10.5292 75.7431C10.3948 75.8775 10.3814 76.1059 10.462 76.2671C10.5426 76.4418 10.7039 76.5627 10.8517 76.6702C10.9995 76.7912 11.1473 76.8987 11.3085 77.0061C11.4429 77.1002 11.5638 77.1943 11.6982 77.2749L11.725 77.2883V77.3152C11.6713 77.6108 11.5907 77.893 11.5235 78.1751C11.4832 78.3633 11.4294 78.5245 11.416 78.7126C11.416 78.9276 11.416 79.1963 11.6444 79.3038C11.725 79.3307 11.8191 79.3307 11.9132 79.3038C12.2088 79.2232 12.5044 79.1023 12.8134 78.9276C12.9881 78.847 13.1762 78.6992 13.3778 78.5514C13.5659 78.6992 13.754 78.847 13.9287 78.9276C14.2377 79.1023 14.5333 79.2232 14.8289 79.3038C14.923 79.3307 15.017 79.3307 15.0977 79.3038C15.3395 79.1963 15.3261 78.9276 15.3261 78.7126C15.3126 78.5245 15.2589 78.3633 15.2186 78.1751C15.1514 77.893 15.0842 77.6108 15.017 77.3152V77.2883L15.0439 77.2749C15.1783 77.1943 15.2992 77.1002 15.4336 77.0061C15.5948 76.8987 15.7426 76.7912 15.8904 76.6702C16.0382 76.5627 16.1995 76.4418 16.2801 76.2671C16.3607 76.1059 16.3473 75.8775 16.2263 75.7431Z" fill="#FBC94F"/>
<path d="M25.9783 75.7431C25.9246 75.6893 25.8574 75.649 25.7902 75.6222C25.5214 75.5147 24.5406 75.4878 24.4331 75.4744L24.245 75.4475C24.1375 75.125 24.0434 74.8831 23.909 74.5338C23.8284 74.3457 23.7209 74.1038 23.5731 73.956C23.4388 73.8082 23.2641 73.6738 23.0625 73.7007C22.8072 73.7276 22.4713 74.2113 22.3369 74.5338C22.216 74.8294 22.122 75.125 22.0279 75.4475L21.8264 75.4744C21.7189 75.4878 20.738 75.5147 20.4692 75.6222C20.4021 75.649 20.3349 75.6893 20.2811 75.7431C20.1468 75.8775 20.1333 76.1059 20.2139 76.2671C20.308 76.4418 20.4692 76.5627 20.6036 76.6702C20.7514 76.7912 20.9127 76.8987 21.0605 77.0061C21.1948 77.1002 21.3292 77.1943 21.4636 77.2749L21.477 77.2883V77.3152C21.4232 77.6108 21.3426 77.893 21.2754 78.1751C21.2351 78.3633 21.1814 78.5245 21.1814 78.7126C21.168 78.9276 21.168 79.1963 21.3964 79.3038C21.4904 79.3307 21.5845 79.3307 21.6651 79.3038C21.9607 79.2232 22.2563 79.1023 22.5788 78.9276C22.7535 78.847 22.9282 78.6992 23.1297 78.5514C23.3313 78.6992 23.5194 78.847 23.6806 78.9276C24.0031 79.1023 24.2987 79.2232 24.5943 79.3038C24.6749 79.3307 24.7824 79.3307 24.8631 79.3038C25.0915 79.1963 25.0915 78.9276 25.078 78.7126C25.078 78.5245 25.0243 78.3633 24.984 78.1751C24.9168 77.893 24.8362 77.6108 24.7824 77.3152V77.2883L24.7959 77.2749C24.9302 77.1943 25.0646 77.1002 25.199 77.0061C25.3468 76.8987 25.508 76.7912 25.6558 76.6702C25.7902 76.5627 25.9514 76.4418 26.0455 76.2671C26.1261 76.1059 26.1127 75.8775 25.9783 75.7431Z" fill="#FBC94F"/>
<path d="M35.7168 75.7431C35.6765 75.6893 35.6093 75.649 35.5287 75.6222C35.26 75.5147 34.2925 75.4878 34.1716 75.4744L33.9835 75.4475C33.876 75.125 33.7954 74.8831 33.6476 74.5338C33.5669 74.3457 33.4594 74.1038 33.3116 73.956C33.1907 73.8082 33.016 73.6738 32.801 73.7007C32.5592 73.7276 32.2233 74.2113 32.0889 74.5338C31.9545 74.8294 31.8739 75.125 31.7664 75.4475L31.5783 75.4744C31.4574 75.4878 30.4899 75.5147 30.2078 75.6222C30.1406 75.649 30.0734 75.6893 30.0331 75.7431C29.8987 75.8775 29.8853 76.1059 29.9659 76.2671C30.0465 76.4418 30.2078 76.5627 30.3556 76.6702C30.5034 76.7912 30.6512 76.8987 30.8124 77.0061C30.9468 77.1002 31.0677 77.1943 31.2021 77.2749L31.229 77.2883V77.3152C31.1752 77.6108 31.0946 77.893 31.0274 78.1751C30.9871 78.3633 30.9333 78.5245 30.9199 78.7126C30.9199 78.9276 30.9065 79.1963 31.1483 79.3038C31.229 79.3307 31.323 79.3307 31.4171 79.3038C31.7127 79.2232 32.0083 79.1023 32.3173 78.9276C32.492 78.847 32.6801 78.6992 32.8682 78.5514C33.0698 78.6992 33.2579 78.847 33.4326 78.9276C33.7416 79.1023 34.0372 79.2232 34.3328 79.3038C34.4269 79.3307 34.5209 79.3307 34.6016 79.3038C34.8434 79.1963 34.83 78.9276 34.83 78.7126C34.8166 78.5245 34.7628 78.3633 34.7225 78.1751C34.6553 77.893 34.5747 77.6108 34.5209 77.3152V77.2883L34.5478 77.2749C34.6822 77.1943 34.8031 77.1002 34.9375 77.0061C35.0987 76.8987 35.2465 76.7912 35.3943 76.6702C35.5421 76.5627 35.7034 76.4418 35.784 76.2671C35.8646 76.1059 35.8512 75.8775 35.7168 75.7431Z" fill="#FBC94F"/>
<path d="M45.4666 75.7431C45.4128 75.6893 45.3457 75.649 45.2785 75.6222C44.9963 75.5147 44.0289 75.4878 43.9214 75.4744L43.7198 75.4475C43.6257 75.125 43.5317 74.8831 43.3973 74.5338C43.3167 74.3457 43.1958 74.1038 43.0614 73.956C42.927 73.8082 42.7524 73.6738 42.5508 73.7007C42.2955 73.7276 41.9596 74.2113 41.8252 74.5338C41.7043 74.8294 41.6102 75.125 41.5027 75.4475L41.3146 75.4744C41.1937 75.4878 40.2263 75.5147 39.9575 75.6222C39.8903 75.649 39.8232 75.6893 39.7694 75.7431C39.635 75.8775 39.6216 76.1059 39.7022 76.2671C39.7828 76.4418 39.9575 76.5627 40.0919 76.6702C40.2397 76.7912 40.4009 76.8987 40.5487 77.0061C40.6831 77.1002 40.804 77.1943 40.9518 77.2749L40.9653 77.2883V77.3152C40.9115 77.6108 40.8309 77.893 40.7637 78.1751C40.7234 78.3633 40.6697 78.5245 40.6697 78.7126C40.6562 78.9276 40.6562 79.1963 40.8847 79.3038C40.9653 79.3307 41.0728 79.3307 41.1534 79.3038C41.449 79.2232 41.7446 79.1023 42.0671 78.9276C42.2283 78.847 42.4164 78.6992 42.618 78.5514C42.8195 78.6992 42.9942 78.847 43.1689 78.9276C43.4914 79.1023 43.7736 79.2232 44.0826 79.3038C44.1632 79.3307 44.2573 79.3307 44.3513 79.3038C44.5798 79.1963 44.5798 78.9276 44.5663 78.7126C44.5663 78.5245 44.5126 78.3633 44.4588 78.1751C44.4051 77.893 44.3245 77.6108 44.2707 77.3152V77.2883L44.2841 77.2749C44.4185 77.1943 44.5529 77.1002 44.6738 77.0061C44.8351 76.8987 44.9963 76.7912 45.1307 76.6702C45.2785 76.5627 45.4397 76.4418 45.5338 76.2671C45.6009 76.1059 45.5875 75.8775 45.4666 75.7431Z" fill="#C0EAF2"/>
<path d="M55.208 75.7431C55.1542 75.6893 55.087 75.649 55.0199 75.6222C54.7511 75.5147 53.7837 75.4878 53.6628 75.4744L53.4746 75.4475C53.3671 75.125 53.2731 74.8831 53.1387 74.5338C53.0581 74.3457 52.9506 74.1038 52.8028 73.956C52.6819 73.8082 52.4938 73.6738 52.2922 73.7007C52.0369 73.7276 51.7144 74.2113 51.5666 74.5338C51.4457 74.8294 51.3516 75.125 51.2576 75.4475L51.056 75.4744C50.9485 75.4878 49.9811 75.5147 49.6989 75.6222C49.6317 75.649 49.5646 75.6893 49.5108 75.7431C49.3899 75.8775 49.3764 76.1059 49.4571 76.2671C49.5377 76.4418 49.6989 76.5627 49.8467 76.6702C49.9945 76.7912 50.1423 76.8987 50.3036 77.0061C50.4245 77.1002 50.5589 77.1943 50.6932 77.2749L50.7067 77.2883V77.3152C50.6529 77.6108 50.5857 77.893 50.5186 78.1751C50.4648 78.3633 50.4111 78.5245 50.4111 78.7126C50.4111 78.9276 50.3976 79.1963 50.6395 79.3038C50.7201 79.3307 50.8142 79.3307 50.9082 79.3038C51.2038 79.2232 51.4994 79.1023 51.8085 78.9276C51.9832 78.847 52.1713 78.6992 52.3594 78.5514C52.5609 78.6992 52.7491 78.847 52.9237 78.9276C53.2328 79.1023 53.5284 79.2232 53.824 79.3038C53.9181 79.3307 54.0121 79.3307 54.0927 79.3038C54.3212 79.1963 54.3212 78.9276 54.3077 78.7126C54.3077 78.5245 54.254 78.3633 54.2137 78.1751C54.1465 77.893 54.0659 77.6108 54.0121 77.3152V77.2883L54.039 77.2749C54.1733 77.1943 54.2943 77.1002 54.4286 77.0061C54.5765 76.8987 54.7377 76.7912 54.8855 76.6702C55.0333 76.5627 55.1945 76.4418 55.2752 76.2671C55.3558 76.1059 55.3423 75.8775 55.208 75.7431Z" fill="#C0EAF2"/>
<path d="M55.331 84.4913H10.4121V83.2686H55.331V84.4913Z" fill="#C0EAF2"/>
<path d="M55.331 87.8324H10.4121V86.5962H55.331V87.8324Z" fill="#C0EAF2"/>
<path d="M55.331 91.1664H10.4121V89.9302H55.331V91.1664Z" fill="#C0EAF2"/>
<path d="M24.4518 51.244C24.734 55.5035 24.2906 59.8838 23.9412 64.103C23.8606 65.1107 24.2906 65.0435 25.0968 65.2048C24.9893 65.581 25.258 65.9707 25.6074 66.1453C25.9567 66.32 26.3598 66.32 26.7495 66.32C31.0627 66.3335 35.3759 66.3335 39.689 66.3469C40.0653 66.3469 40.5087 66.3066 40.6699 65.9841C40.8446 65.6751 40.6565 65.2988 40.6699 64.9495C40.979 64.7882 41.3821 64.9764 41.6374 64.6807C41.7717 64.5329 41.7852 64.3045 41.7852 64.103C41.8792 58.6208 41.5971 52.5071 41.6911 47.0249C42.981 51.9159 43.3035 54.0926 44.15 57.4249C44.3247 58.1102 44.271 58.8761 44.6741 59.4539C45.0772 60.0316 45.8968 60.3944 46.5283 60.0585C46.5149 60.3541 46.6358 60.6632 46.8508 60.8782C47.8854 60.7169 48.8798 60.2198 49.6322 59.4942C49.4307 59.1851 49.2157 58.8761 49.0007 58.567C49.8069 57.734 49.9009 56.4172 49.6188 55.3019C49.3366 54.1732 48.6245 53.1924 48.3557 52.0637C47.6033 48.7717 47.2136 45.3991 45.6953 42.5505C45.6953 41.5293 43.7469 40.0244 42.981 39.5541C41.8927 38.8957 40.643 38.7882 39.4203 38.5732C38.5738 38.412 37.5392 38.0895 37.566 37.028C37.566 36.8802 37.5929 36.7055 37.5123 36.5846C37.4048 36.4099 37.1764 36.383 36.9748 36.3696C35.2818 36.2621 33.5888 36.1949 31.8823 36.1546C31.0895 36.1412 28.1872 35.6575 27.7707 36.5846C27.7035 36.7458 27.7169 36.9205 27.7304 37.0952C27.7976 37.9686 27.5423 37.8611 26.7361 38.0358C25.9702 38.197 25.2177 38.3851 24.4518 38.5329C19.3056 39.5138 18.2978 44.2838 18.2978 48.8389C18.2978 50.2094 17.6125 51.7009 17.1691 52.9639C16.7123 54.2942 16.457 55.6244 16.1345 56.995C16.027 57.4921 15.9061 58.0161 16.027 58.5267C16.1345 58.9433 16.4167 59.3195 16.7929 59.5479C16.8601 59.5748 16.9407 59.6151 16.9676 59.6957C16.9944 59.7495 16.981 59.8032 16.9676 59.8704C16.9138 60.1391 16.8601 60.4213 16.8063 60.69C17.4513 61.2544 18.58 61.0394 19.3593 61.026C19.4399 61.026 19.534 61.026 19.6012 60.9722C19.6549 60.9185 19.6683 60.8379 19.6952 60.7572C19.749 60.4751 19.8027 60.1929 19.8565 59.8973C20.2327 59.8435 20.5955 59.6689 20.8642 59.4001C21.5629 58.7552 21.6704 57.7205 21.8317 56.78C22.3019 53.9851 23.5381 51.2037 24.1428 48.3148C24.2906 49.2823 24.3846 50.2632 24.4518 51.244Z" fill="#7BD2CE"/>
<path d="M28.5666 38.5335C31.2673 39.4607 34.1025 39.716 36.8704 38.8963C36.9511 38.8695 36.9376 38.5739 36.8704 38.5873C34.0353 38.9501 31.3345 38.9366 28.5666 38.117C28.4859 38.0901 28.4456 38.4932 28.5666 38.5335Z" fill="#69CCC8"/>
<path d="M46.6896 59.8323C47.0255 59.7114 47.3614 59.5904 47.6704 59.4157C47.9929 59.2142 48.3154 58.9992 48.611 58.7573C48.6513 58.7305 48.6648 58.5155 48.5976 58.5424C47.872 58.7573 47.2808 59.1201 46.6627 59.5367C46.5955 59.5904 46.5955 59.8726 46.6896 59.8323Z" fill="#69CCC8"/>
<path d="M17.4001 59.7132C18.0585 60.0894 18.7841 60.2775 19.4962 59.9685C19.5634 59.9416 19.55 59.7535 19.4828 59.7401C18.811 59.6057 18.0988 59.6191 17.4135 59.4713C17.3464 59.4444 17.3464 59.6863 17.4001 59.7132Z" fill="#69CCC8"/>
<path d="M17.9937 52.5361C18.9745 51.7433 20.0092 51.0177 20.8288 50.0637C20.8691 50.0234 20.8691 49.795 20.7885 49.8353C19.6733 50.4131 18.7999 51.4612 17.9668 52.3883L17.9937 52.5361Z" fill="#69CCC8"/>
<path d="M26.7752 60.3958C31.263 60.0733 36.0599 56.9963 39.1235 53.8656C39.1772 53.8118 39.1772 53.5162 39.0966 53.57C37.1617 54.833 35.294 56.1633 33.2517 57.2516C31.1421 58.3669 28.8713 59.1193 26.7617 60.2346L26.7752 60.3958Z" fill="#69CCC8"/>
<path d="M29.7144 58.2194C31.7299 56.4458 33.6379 54.4706 35.0756 52.1998C35.1025 52.146 35.0891 51.931 35.0353 51.9982C33.3154 54.0272 31.6493 56.0024 29.6606 57.7626C29.5397 57.8566 29.6203 58.3135 29.7144 58.2194Z" fill="#69CCC8"/>
<path d="M25.6348 65.0622C29.8136 65.6131 34.6239 66.0027 38.7759 65.21C38.8431 65.1965 38.8431 64.9278 38.7759 64.9278C34.4896 64.5516 29.9479 64.8741 25.6348 64.8875V65.0622Z" fill="#69CCC8"/>
<path d="M111.301 70.1662V69.4809H74.2828C73.1138 69.4809 72.0657 68.9972 71.2998 68.2448C70.534 67.4789 70.0637 66.4308 70.0637 65.2752V37.0985C70.0637 35.9429 70.534 34.8948 71.2998 34.1289C72.0657 33.3631 73.1138 32.8928 74.2828 32.8928H111.301C112.456 32.8928 113.505 33.3631 114.27 34.1289C115.036 34.8948 115.507 35.9429 115.507 37.0985V65.2752C115.507 66.4308 115.036 67.4789 114.27 68.2448C113.505 68.9972 112.456 69.4809 111.301 69.4809V70.8649C114.391 70.8515 116.904 68.3523 116.904 65.2752V37.0985C116.904 34.0215 114.391 31.5222 111.301 31.5088H74.2828C71.1924 31.5222 68.6797 34.0215 68.6797 37.0985V65.2752C68.6797 68.3523 71.1924 70.8515 74.2828 70.8649H111.301V70.1662Z" fill="#C0EAF2"/>
<path d="M76.1289 75.7431C76.0886 75.6893 76.0214 75.649 75.9408 75.6222C75.6721 75.5147 74.7046 75.4878 74.5837 75.4744L74.3956 75.4475C74.2881 75.125 74.2075 74.8831 74.0597 74.5338C73.979 74.3457 73.8716 74.1038 73.7238 73.956C73.6028 73.8082 73.4147 73.6738 73.2132 73.7007C72.9713 73.7276 72.6354 74.2113 72.501 74.5338C72.3666 74.8294 72.286 75.125 72.1785 75.4475L71.9904 75.4744C71.8695 75.4878 70.902 75.5147 70.6199 75.6222C70.5527 75.649 70.4855 75.6893 70.4452 75.7431C70.3108 75.8775 70.2974 76.1059 70.378 76.2671C70.4586 76.4418 70.6199 76.5627 70.7677 76.6702C70.9155 76.7912 71.0633 76.8987 71.2245 77.0061C71.3589 77.1002 71.4798 77.1943 71.6142 77.2749L71.6411 77.2883V77.3152C71.5873 77.6108 71.5067 77.893 71.4395 78.1751C71.3992 78.3633 71.3455 78.5245 71.332 78.7126C71.332 78.9276 71.3186 79.1963 71.5604 79.3038C71.6411 79.3307 71.7351 79.3307 71.8292 79.3038C72.1248 79.2232 72.4204 79.1023 72.7294 78.9276C72.9041 78.847 73.0922 78.6992 73.2803 78.5514C73.4819 78.6992 73.67 78.847 73.8447 78.9276C74.1537 79.1023 74.4493 79.2232 74.7449 79.3038C74.839 79.3307 74.9331 79.3307 75.0137 79.3038C75.2555 79.1963 75.2421 78.9276 75.2421 78.7126C75.2287 78.5245 75.1749 78.3633 75.1346 78.1751C75.0674 77.893 74.9868 77.6108 74.9331 77.3152V77.2883L74.9599 77.2749C75.0943 77.1943 75.2152 77.1002 75.3496 77.0061C75.5108 76.8987 75.6586 76.7912 75.8064 76.6702C75.9542 76.5627 76.1155 76.4418 76.1961 76.2671C76.2767 76.1059 76.2633 75.8775 76.1289 75.7431Z" fill="#FBC94F"/>
<path d="M85.8904 75.7431C85.8367 75.6893 85.7695 75.649 85.7023 75.6222C85.4201 75.5147 84.4527 75.4878 84.3452 75.4744L84.1436 75.4475C84.0496 75.125 83.9555 74.8831 83.8212 74.5338C83.7405 74.3457 83.6196 74.1038 83.4852 73.956C83.3509 73.8082 83.1762 73.6738 82.9746 73.7007C82.7193 73.7276 82.3834 74.2113 82.2491 74.5338C82.1281 74.8294 82.0341 75.125 81.9266 75.4475L81.7385 75.4744C81.6175 75.4878 80.6501 75.5147 80.3814 75.6222C80.3142 75.649 80.247 75.6893 80.1932 75.7431C80.0589 75.8775 80.0454 76.1059 80.1261 76.2671C80.2067 76.4418 80.3679 76.5627 80.5157 76.6702C80.6635 76.7912 80.8248 76.8987 80.9726 77.0061C81.1069 77.1002 81.2279 77.1943 81.3757 77.2749L81.3891 77.2883V77.3152C81.3354 77.6108 81.2547 77.893 81.1876 78.1751C81.1473 78.3633 81.0935 78.5245 81.0935 78.7126C81.0801 78.9276 81.0801 79.1963 81.3085 79.3038C81.3891 79.3307 81.4966 79.3307 81.5772 79.3038C81.8728 79.2232 82.1684 79.1023 82.4909 78.9276C82.6522 78.847 82.8403 78.6992 83.0418 78.5514C83.2434 78.6992 83.4181 78.847 83.5927 78.9276C83.9152 79.1023 84.1974 79.2232 84.5064 79.3038C84.587 79.3307 84.6811 79.3307 84.7752 79.3038C85.0036 79.1963 85.0036 78.9276 84.9901 78.7126C84.9901 78.5245 84.9364 78.3633 84.8827 78.1751C84.8289 77.893 84.7483 77.6108 84.6945 77.3152V77.2883L84.708 77.2749C84.8423 77.1943 84.9767 77.1002 85.0976 77.0061C85.2589 76.8987 85.4067 76.7912 85.5545 76.6702C85.7023 76.5627 85.8635 76.4418 85.9576 76.2671C86.0248 76.1059 86.0113 75.8775 85.8904 75.7431Z" fill="#FBC94F"/>
<path d="M95.6357 75.7431C95.582 75.6893 95.5148 75.649 95.4476 75.6222C95.1789 75.5147 94.2114 75.4878 94.0905 75.4744L93.9024 75.4475C93.7949 75.125 93.7008 74.8831 93.5665 74.5338C93.4858 74.3457 93.3783 74.1038 93.2305 73.956C93.1096 73.8082 92.9215 73.6738 92.7199 73.7007C92.4646 73.7276 92.1422 74.2113 91.9944 74.5338C91.8734 74.8294 91.7794 75.125 91.6853 75.4475L91.4838 75.4744C91.3763 75.4878 90.4088 75.5147 90.1267 75.6222C90.0595 75.649 89.9923 75.6893 89.9385 75.7431C89.8176 75.8775 89.8042 76.1059 89.8848 76.2671C89.9654 76.4418 90.1267 76.5627 90.2745 76.6702C90.4223 76.7912 90.5701 76.8987 90.7313 77.0061C90.8522 77.1002 90.9866 77.1943 91.121 77.2749L91.1344 77.2883V77.3152C91.0807 77.6108 91.0135 77.893 90.9463 78.1751C90.8926 78.3633 90.8388 78.5245 90.8388 78.7126C90.8388 78.9276 90.8254 79.1963 91.0672 79.3038C91.1479 79.3307 91.2419 79.3307 91.336 79.3038C91.6316 79.2232 91.9272 79.1023 92.2362 78.9276C92.4109 78.847 92.599 78.6992 92.7871 78.5514C92.9887 78.6992 93.1768 78.847 93.3515 78.9276C93.6605 79.1023 93.9561 79.2232 94.2517 79.3038C94.3458 79.3307 94.4398 79.3307 94.5205 79.3038C94.7489 79.1963 94.7489 78.9276 94.7355 78.7126C94.7355 78.5245 94.6817 78.3633 94.6414 78.1751C94.5742 77.893 94.4936 77.6108 94.4398 77.3152V77.2883L94.4667 77.2749C94.6011 77.1943 94.722 77.1002 94.8564 77.0061C95.0042 76.8987 95.1654 76.7912 95.3132 76.6702C95.461 76.5627 95.6223 76.4418 95.7029 76.2671C95.7835 76.1059 95.7701 75.8775 95.6357 75.7431Z" fill="#C0EAF2"/>
<path d="M105.392 75.7431C105.339 75.6893 105.271 75.649 105.204 75.6222C104.922 75.5147 103.955 75.4878 103.847 75.4744L103.646 75.4475C103.552 75.125 103.457 74.8831 103.323 74.5338C103.242 74.3457 103.122 74.1038 102.987 73.956C102.853 73.8082 102.678 73.6738 102.477 73.7007C102.221 73.7276 101.885 74.2113 101.751 74.5338C101.63 74.8294 101.536 75.125 101.429 75.4475L101.24 75.4744C101.119 75.4878 100.152 75.5147 99.8833 75.6222C99.8161 75.649 99.7489 75.6893 99.6952 75.7431C99.5608 75.8775 99.5474 76.1059 99.628 76.2671C99.7086 76.4418 99.8699 76.5627 100.018 76.6702C100.165 76.7912 100.327 76.8987 100.475 77.0061C100.609 77.1002 100.73 77.1943 100.864 77.2749L100.891 77.2883V77.3152C100.837 77.6108 100.757 77.893 100.69 78.1751C100.649 78.3633 100.595 78.5245 100.582 78.7126C100.582 78.9276 100.582 79.1963 100.81 79.3038C100.891 79.3307 100.985 79.3307 101.079 79.3038C101.375 79.2232 101.67 79.1023 101.979 78.9276C102.154 78.847 102.342 78.6992 102.544 78.5514C102.732 78.6992 102.92 78.847 103.095 78.9276C103.404 79.1023 103.699 79.2232 103.995 79.3038C104.089 79.3307 104.183 79.3307 104.264 79.3038C104.506 79.1963 104.492 78.9276 104.492 78.7126C104.479 78.5245 104.425 78.3633 104.385 78.1751C104.317 77.893 104.25 77.6108 104.196 77.3152V77.2883L104.21 77.2749C104.344 77.1943 104.479 77.1002 104.6 77.0061C104.761 76.8987 104.909 76.7912 105.056 76.6702C105.204 76.5627 105.365 76.4418 105.446 76.2671C105.527 76.1059 105.513 75.8775 105.392 75.7431Z" fill="#C0EAF2"/>
<path d="M115.133 75.7431C115.079 75.6893 115.012 75.649 114.945 75.6222C114.676 75.5147 113.708 75.4878 113.587 75.4744L113.399 75.4475C113.292 75.125 113.198 74.8831 113.063 74.5338C112.983 74.3457 112.875 74.1038 112.728 73.956C112.593 73.8082 112.418 73.6738 112.217 73.7007C111.962 73.7276 111.639 74.2113 111.491 74.5338C111.37 74.8294 111.276 75.125 111.182 75.4475L110.981 75.4744C110.873 75.4878 109.892 75.5147 109.624 75.6222C109.556 75.649 109.489 75.6893 109.436 75.7431C109.301 75.8775 109.301 76.1059 109.368 76.2671C109.462 76.4418 109.624 76.5627 109.758 76.6702C109.919 76.7912 110.067 76.8987 110.215 77.0061C110.349 77.1002 110.484 77.1943 110.618 77.2749L110.631 77.2883V77.3152C110.578 77.6108 110.497 77.893 110.43 78.1751C110.39 78.3633 110.336 78.5245 110.336 78.7126C110.322 78.9276 110.322 79.1963 110.551 79.3038C110.645 79.3307 110.739 79.3307 110.82 79.3038C111.115 79.2232 111.411 79.1023 111.733 78.9276C111.908 78.847 112.083 78.6992 112.284 78.5514C112.486 78.6992 112.674 78.847 112.835 78.9276C113.158 79.1023 113.453 79.2232 113.749 79.3038C113.829 79.3307 113.937 79.3307 114.017 79.3038C114.246 79.1963 114.246 78.9276 114.232 78.7126C114.232 78.5245 114.179 78.3633 114.138 78.1751C114.071 77.893 113.991 77.6108 113.937 77.3152V77.2883L113.95 77.2749C114.098 77.1943 114.219 77.1002 114.353 77.0061C114.501 76.8987 114.662 76.7912 114.81 76.6702C114.945 76.5627 115.119 76.4418 115.2 76.2671C115.281 76.1059 115.267 75.8775 115.133 75.7431Z" fill="#C0EAF2"/>
<path d="M115.247 84.4913H70.3281V83.2686H115.247V84.4913Z" fill="#C0EAF2"/>
<path d="M115.247 87.8324H70.3281V86.5962H115.247V87.8324Z" fill="#C0EAF2"/>
<path d="M115.247 91.1664H70.3281V89.9302H115.247V91.1664Z" fill="#C0EAF2"/>
<path d="M84.4991 66.7146L84.5663 66.6877C85.1037 66.4324 85.6278 66.0696 86.2324 66.0696C87.173 66.0562 87.9523 66.9296 88.9063 66.9296C89.8872 66.9161 90.68 65.9487 91.6608 65.9756C92.4133 65.989 93.0583 66.5937 93.8107 66.6205C94.926 66.6608 95.8397 65.465 96.9549 65.5993C97.7746 65.7068 98.4464 66.5399 99.2795 66.4459C99.6826 66.4055 100.032 66.1234 100.395 65.9487C101.107 65.6128 101.859 66.2712 102.477 65.6397C103.216 64.8872 102.625 62.8851 102.383 61.9983C101.994 60.5874 101.483 59.2035 100.932 57.8464C99.8304 55.1187 98.5808 52.4179 97.9224 49.5425C97.8552 49.2066 97.788 48.8706 97.8014 48.5347C97.8283 48.1047 97.9895 47.7016 98.1373 47.2985C99.0779 44.7724 99.4944 42.0851 99.7229 39.4246C99.7363 39.129 100.301 37.3419 100.032 37.1404C100.354 37.3823 100.502 37.7854 100.623 38.175C100.825 38.7931 101.026 39.4112 101.228 40.0427C101.564 38.8334 100.865 37.5972 100.207 36.5357C100.381 36.5492 100.556 36.5626 100.731 36.576C101.107 36.6029 101.537 36.6029 101.752 36.3073C102.021 35.9311 101.671 35.3667 101.214 35.2727C100.771 35.1786 100.314 35.4339 99.9647 35.7295C99.8976 35.7833 99.8169 35.8505 99.7229 35.8236C99.6691 35.8102 99.6288 35.7698 99.6019 35.7161C99.4273 35.4877 99.2526 35.2458 99.0779 35.004C99.0107 34.9233 98.9301 34.8293 98.8361 34.7755C98.5539 34.6546 98.2448 34.9771 98.2448 35.2861C98.2583 35.7967 98.7554 36.0789 98.8898 36.5357C98.3792 37.2344 98.0299 38.0541 97.8552 38.9006C98.2448 38.2959 98.6479 37.7047 99.0645 37.127C98.9704 37.9332 98.4464 38.7394 98.4464 39.5321C98.3792 39.8949 98.2986 40.298 98.003 40.513C97.7477 40.7011 97.4252 40.7146 97.1162 40.728C94.1735 40.8221 91.2443 40.9027 88.3017 40.9967C87.3611 41.0236 86.8774 40.0965 86.6086 39.3306C86.4474 38.8603 86.3399 38.3766 86.2593 37.8794C86.1921 37.5301 86.2055 36.7776 86.0309 36.482C86.1787 36.7239 86.3265 36.9657 86.4743 37.2076C86.528 37.2882 86.5683 37.3688 86.649 37.4226C86.7296 37.4763 86.8505 37.4763 86.9177 37.4091C86.6758 36.8851 86.3533 36.3879 86.1518 35.8639C86.2996 35.7161 86.5012 35.7161 86.7027 35.6624C86.9311 35.6086 87.173 35.5011 87.3342 35.313C87.4955 35.1249 87.5492 34.8293 87.4014 34.6412C87.2402 34.4262 86.9311 34.4127 86.6624 34.453C86.004 34.574 85.4128 35.0308 85.1306 35.6489C84.2438 34.8024 82.9673 35.2996 82.4164 36.267C82.2551 36.5492 82.1611 36.9254 82.3626 37.1941C82.5373 37.436 82.9001 37.4629 83.1688 37.3419C83.6929 37.127 83.9213 36.5626 84.3916 36.2939C84.4319 36.6164 84.1632 36.8985 84.1094 37.221C84.0422 37.5704 84.2438 37.9197 84.2572 38.2825C84.2572 38.605 84.096 38.914 83.9347 39.2096C84.2169 39.0484 84.4453 38.7931 84.526 38.4975C84.62 38.1885 84.5394 37.8794 84.526 37.5704C84.4991 37.2613 84.5528 36.912 84.7947 36.7239C84.9156 37.2882 85.144 37.8928 85.144 38.4706C85.1844 39.7337 84.9962 40.9833 84.9291 42.2463C84.8484 44.1812 85.265 46.0221 85.9906 47.8226C86.1115 48.1316 86.2459 48.4541 86.2593 48.79C86.2727 49.0722 86.2055 49.3678 86.1518 49.65C85.4397 52.7942 84.4185 55.898 83.8676 59.0422C83.6257 60.3859 81.0593 68.1792 84.4991 66.7146Z" fill="#7EC4ED"/>
<path d="M87.8574 48.5993C90.3029 49.5399 93.8905 49.7817 96.3897 49.0159C96.4838 48.9755 96.4972 48.6128 96.3897 48.5993C94.9789 48.4784 93.5411 48.6531 92.1169 48.5993C90.6926 48.559 89.2817 48.3037 87.8709 48.3037C87.7902 48.3037 87.7902 48.5724 87.8574 48.5993Z" fill="#6EB8E8"/>
<path d="M85.6096 65.4919C86.0127 63.6108 86.4023 61.7296 86.8592 59.8754C87.0607 59.0423 87.5982 55.3875 88.391 55.065C88.1357 55.1725 87.8535 60.9369 87.8132 61.434C87.746 62.7777 87.7863 64.0676 87.9744 65.4113C87.9879 65.4651 88.0147 65.4247 88.0147 65.3844C87.4638 61.6625 88.391 57.9942 88.4581 54.2588C88.4581 54.232 88.4178 54.1513 88.391 54.2051C87.0876 57.833 86.2545 61.5415 85.4886 65.3038C85.4618 65.4247 85.5693 65.7069 85.6096 65.4919Z" fill="#6EB8E8"/>
<path d="M92.7935 65.0578C92.9413 62.1286 93.116 59.186 93.3041 56.2568C93.3175 55.9612 93.0622 55.6118 93.0354 56.0821C92.8204 59.0785 92.7129 62.0614 92.7129 65.0578C92.7129 65.1653 92.7935 65.1653 92.7935 65.0578Z" fill="#6EB8E8"/>
<path d="M98.1498 65.3398C97.9483 63.6871 97.7198 62.0478 97.4914 60.3951C97.3705 59.5754 97.2495 58.7558 97.1421 57.9362C97.0614 57.3987 96.9808 56.8478 96.9002 56.2969C96.6583 55.4369 96.6718 55.2354 96.9674 55.7325C97.9348 56.6731 98.2707 59.1589 98.647 60.4085C99.1441 62.0344 99.5607 63.7005 100.004 65.3398C100.098 65.6623 100.259 65.2457 100.219 65.0845C99.4129 61.5506 98.432 57.6809 96.618 54.5098C96.5105 54.3351 96.4433 54.7517 96.4568 54.8054C96.9539 58.3527 97.4242 61.9 97.9886 65.4338C98.0289 65.6891 98.1767 65.501 98.1498 65.3398Z" fill="#6EB8E8"/>
<path d="M51.3398 145.924V145.239H14.3082C13.1526 145.239 12.1046 144.768 11.3387 144.003C10.5728 143.237 10.1025 142.189 10.1025 141.033V112.856C10.1025 111.701 10.5728 110.653 11.3387 109.9C12.1046 109.134 13.1526 108.664 14.3082 108.664H51.3398C52.4953 108.664 53.5434 109.134 54.3093 109.9C55.0752 110.653 55.5455 111.701 55.5455 112.856V141.033C55.5455 142.189 55.0752 143.237 54.3093 144.003C53.5434 144.768 52.4953 145.239 51.3398 145.239V146.623C54.4168 146.623 56.9294 144.11 56.9429 141.033V112.856C56.9294 109.779 54.4168 107.28 51.3398 107.267H14.3082C11.2312 107.28 8.71851 109.779 8.70508 112.856V141.033C8.71851 144.11 11.2312 146.623 14.3082 146.623H51.3398V145.924Z" fill="#C0EAF2"/>
<path d="M16.2263 151C16.1726 150.947 16.1054 150.906 16.0382 150.879C15.7561 150.772 14.7886 150.745 14.6677 150.732L14.4796 150.705C14.3721 150.382 14.2915 150.14 14.1437 149.791C14.0765 149.603 13.9555 149.375 13.8212 149.213C13.6868 149.066 13.5121 148.931 13.3106 148.958C13.0553 148.985 12.7194 149.469 12.585 149.791C12.4641 150.087 12.37 150.382 12.2625 150.705L12.0744 150.732C11.9535 150.745 10.986 150.772 10.7173 150.879C10.6367 150.906 10.5829 150.947 10.5292 151C10.3948 151.135 10.3814 151.363 10.462 151.524C10.5426 151.699 10.7039 151.82 10.8517 151.928C10.9995 152.048 11.1473 152.156 11.3085 152.263C11.4429 152.358 11.5638 152.452 11.6982 152.532L11.725 152.546V152.573C11.6713 152.868 11.5907 153.15 11.5235 153.432C11.4832 153.621 11.4294 153.795 11.416 153.983C11.416 154.185 11.416 154.454 11.6444 154.561C11.725 154.588 11.8191 154.588 11.9132 154.575C12.2088 154.481 12.5044 154.36 12.8134 154.198C12.9881 154.104 13.1762 153.956 13.3778 153.809C13.5659 153.956 13.754 154.104 13.9287 154.198C14.2377 154.36 14.5333 154.481 14.8289 154.575C14.923 154.588 15.017 154.588 15.0977 154.561C15.3395 154.454 15.3261 154.185 15.3261 153.983C15.3126 153.795 15.2589 153.621 15.2186 153.432C15.1514 153.15 15.0842 152.868 15.017 152.573V152.546L15.0439 152.532C15.1783 152.452 15.2992 152.358 15.4336 152.263C15.5948 152.156 15.7426 152.048 15.8904 151.928C16.0382 151.82 16.1995 151.699 16.2801 151.524C16.3607 151.363 16.3473 151.135 16.2263 151Z" fill="#FBC94F"/>
<path d="M25.9783 151C25.9246 150.947 25.8574 150.906 25.7902 150.879C25.5214 150.772 24.5406 150.745 24.4331 150.732L24.245 150.705C24.1375 150.382 24.0434 150.14 23.909 149.791C23.8284 149.603 23.7209 149.375 23.5731 149.213C23.4388 149.066 23.2641 148.931 23.0625 148.958C22.8072 148.985 22.4713 149.469 22.3369 149.791C22.216 150.087 22.122 150.382 22.0279 150.705L21.8264 150.732C21.7189 150.745 20.738 150.772 20.4692 150.879C20.4021 150.906 20.3349 150.947 20.2811 151C20.1468 151.135 20.1333 151.363 20.2139 151.524C20.308 151.699 20.4692 151.82 20.6036 151.928C20.7514 152.048 20.9127 152.156 21.0605 152.263C21.1948 152.358 21.3292 152.452 21.4636 152.532L21.477 152.546V152.573C21.4232 152.868 21.3426 153.15 21.2754 153.432C21.2351 153.621 21.1814 153.795 21.1814 153.983C21.168 154.185 21.168 154.454 21.3964 154.561C21.4904 154.588 21.5845 154.588 21.6651 154.575C21.9607 154.481 22.2563 154.36 22.5788 154.198C22.7535 154.104 22.9282 153.956 23.1297 153.809C23.3313 153.956 23.5194 154.104 23.6806 154.198C24.0031 154.36 24.2987 154.481 24.5943 154.575C24.6749 154.588 24.7824 154.588 24.8631 154.561C25.0915 154.454 25.0915 154.185 25.078 153.983C25.078 153.795 25.0243 153.621 24.984 153.432C24.9168 153.15 24.8362 152.868 24.7824 152.573V152.546L24.7959 152.532C24.9302 152.452 25.0646 152.358 25.199 152.263C25.3468 152.156 25.508 152.048 25.6558 151.928C25.7902 151.82 25.9514 151.699 26.0455 151.524C26.1261 151.363 26.1127 151.135 25.9783 151Z" fill="#FBC94F"/>
<path d="M35.7168 151C35.6765 150.946 35.6093 150.906 35.5287 150.879C35.26 150.772 34.2925 150.745 34.1716 150.731L33.9835 150.704C33.876 150.382 33.7954 150.14 33.6476 149.791C33.5669 149.603 33.4594 149.374 33.3116 149.213C33.1907 149.065 33.016 148.931 32.801 148.958C32.5592 148.984 32.2233 149.468 32.0889 149.791C31.9545 150.086 31.8739 150.382 31.7664 150.704L31.5783 150.731C31.4574 150.745 30.4899 150.772 30.2078 150.879C30.1406 150.906 30.0734 150.946 30.0331 151C29.8987 151.134 29.8853 151.363 29.9659 151.524C30.0465 151.699 30.2078 151.82 30.3556 151.927C30.5034 152.048 30.6512 152.155 30.8124 152.263C30.9468 152.357 31.0677 152.451 31.2021 152.532L31.229 152.545V152.572C31.1752 152.868 31.0946 153.15 31.0274 153.432C30.9871 153.62 30.9333 153.795 30.9199 153.983C30.9199 154.184 30.9065 154.453 31.1483 154.561C31.229 154.588 31.323 154.588 31.4171 154.574C31.7127 154.48 32.0083 154.359 32.3173 154.198C32.492 154.104 32.6801 153.956 32.8682 153.808C33.0698 153.956 33.2579 154.104 33.4326 154.198C33.7416 154.359 34.0372 154.48 34.3328 154.574C34.4269 154.588 34.5209 154.588 34.6016 154.561C34.8434 154.453 34.83 154.184 34.83 153.983C34.8166 153.795 34.7628 153.62 34.7225 153.432C34.6553 153.15 34.5747 152.868 34.5209 152.572V152.545L34.5478 152.532C34.6822 152.451 34.8031 152.357 34.9375 152.263C35.0987 152.155 35.2465 152.048 35.3943 151.927C35.5421 151.82 35.7034 151.699 35.784 151.524C35.8646 151.363 35.8512 151.134 35.7168 151Z" fill="#FBC94F"/>
<path d="M45.4666 151C45.4128 150.946 45.3457 150.906 45.2785 150.879C44.9963 150.772 44.0289 150.745 43.9214 150.731L43.7198 150.704C43.6257 150.382 43.5317 150.14 43.3973 149.791C43.3167 149.603 43.1958 149.374 43.0614 149.213C42.927 149.065 42.7524 148.931 42.5508 148.958C42.2955 148.984 41.9596 149.468 41.8252 149.791C41.7043 150.086 41.6102 150.382 41.5027 150.704L41.3146 150.731C41.1937 150.745 40.2263 150.772 39.9575 150.879C39.8903 150.906 39.8232 150.946 39.7694 151C39.635 151.134 39.6216 151.363 39.7022 151.524C39.7828 151.699 39.9575 151.82 40.0919 151.927C40.2397 152.048 40.4009 152.155 40.5487 152.263C40.6831 152.357 40.804 152.451 40.9518 152.532L40.9653 152.545V152.572C40.9115 152.868 40.8309 153.15 40.7637 153.432C40.7234 153.62 40.6697 153.795 40.6697 153.983C40.6562 154.184 40.6562 154.453 40.8847 154.561C40.9653 154.588 41.0728 154.588 41.1534 154.574C41.449 154.48 41.7446 154.359 42.0671 154.198C42.2283 154.104 42.4164 153.956 42.618 153.808C42.8195 153.956 42.9942 154.104 43.1689 154.198C43.4914 154.359 43.7736 154.48 44.0826 154.574C44.1632 154.588 44.2573 154.588 44.3513 154.561C44.5798 154.453 44.5798 154.184 44.5663 153.983C44.5663 153.795 44.5126 153.62 44.4588 153.432C44.4051 153.15 44.3245 152.868 44.2707 152.572V152.545L44.2841 152.532C44.4185 152.451 44.5529 152.357 44.6738 152.263C44.8351 152.155 44.9963 152.048 45.1307 151.927C45.2785 151.82 45.4397 151.699 45.5338 151.524C45.6009 151.363 45.5875 151.134 45.4666 151Z" fill="#FBC94F"/>
<path d="M55.208 151C55.1542 150.946 55.087 150.906 55.0199 150.879C54.7511 150.772 53.7837 150.745 53.6628 150.731L53.4746 150.704C53.3671 150.382 53.2731 150.14 53.1387 149.791C53.0581 149.603 52.9506 149.374 52.8028 149.213C52.6819 149.065 52.4938 148.931 52.2922 148.958C52.0369 148.984 51.7144 149.468 51.5666 149.791C51.4457 150.086 51.3516 150.382 51.2576 150.704L51.056 150.731C50.9485 150.745 49.9811 150.772 49.6989 150.879C49.6317 150.906 49.5646 150.946 49.5108 151C49.3899 151.134 49.3764 151.363 49.4571 151.524C49.5377 151.699 49.6989 151.82 49.8467 151.927C49.9945 152.048 50.1423 152.155 50.3036 152.263C50.4245 152.357 50.5589 152.451 50.6932 152.532L50.7067 152.545V152.572C50.6529 152.868 50.5857 153.15 50.5186 153.432C50.4648 153.62 50.4111 153.795 50.4111 153.983C50.4111 154.184 50.3976 154.453 50.6395 154.561C50.7201 154.588 50.8142 154.588 50.9082 154.574C51.2038 154.48 51.4994 154.359 51.8085 154.198C51.9832 154.104 52.1713 153.956 52.3594 153.808C52.5609 153.956 52.7491 154.104 52.9237 154.198C53.2328 154.359 53.5284 154.48 53.824 154.574C53.9181 154.588 54.0121 154.588 54.0927 154.561C54.3212 154.453 54.3212 154.184 54.3077 153.983C54.3077 153.795 54.254 153.62 54.2137 153.432C54.1465 153.15 54.0659 152.868 54.0121 152.572V152.545L54.039 152.532C54.1733 152.451 54.2943 152.357 54.4286 152.263C54.5765 152.155 54.7377 152.048 54.8855 151.927C55.0333 151.82 55.1945 151.699 55.2752 151.524C55.3558 151.363 55.3423 151.134 55.208 151Z" fill="#C0EAF2"/>
<path d="M55.331 158.85H10.4121V157.614H55.331V158.85Z" fill="#C0EAF2"/>
<path d="M55.331 162.181H10.4121V160.945H55.331V162.181Z" fill="#C0EAF2"/>
<path d="M55.331 165.513H10.4121V164.276H55.331V165.513Z" fill="#C0EAF2"/>
<path d="M165.434 59.0116C164.48 56.069 163.781 53.0591 162.962 50.0762C162.25 47.4426 161.752 44.7284 160.946 42.1082C160.771 41.5439 160.583 40.9661 160.234 40.4958C159.522 39.5284 157.856 39.1387 156.781 38.7625C155.491 38.3056 154.161 37.9294 152.79 37.8622C150.466 37.7413 148.154 38.0638 145.843 38.1578C143.935 38.8969 142.054 39.7165 140.2 40.6168C139.703 40.8586 139.179 41.1139 138.829 41.5573C138.453 42.0545 138.346 42.6994 138.252 43.3175C137.432 48.6788 136.814 54.0535 136.357 59.455C136.357 59.5625 136.344 59.6566 136.397 59.7506C136.464 59.885 136.612 59.9253 136.76 59.9656C137.244 60.0865 139.179 60.5568 139.353 60.0731C139.595 59.4013 140.469 54.9134 140.71 53.825C141.194 51.6349 141.772 49.1356 142.363 47.4963C142.323 52.0783 141.92 56.7274 141.987 61.3496C142 61.7661 142 62.1961 142.188 62.5723C142.457 63.1501 143.075 63.486 143.653 63.7682C145.212 64.5072 147.563 65.1253 149.216 65.609C149.673 65.7434 150.143 65.8643 150.627 65.8778C151.352 65.9046 152.064 65.6628 152.75 65.4209C153.972 64.9775 155.706 64.5744 156.915 64.0773C157.157 63.9832 157.399 63.8623 157.547 63.6607C157.681 63.4726 157.721 63.2307 157.748 62.9889C158.192 58.5816 157.587 55.4106 157.412 51.0705C157.385 50.3181 157.426 48.625 157.144 47.2142C159.132 51.6483 160.933 56.0555 162.438 60.5165C162.451 60.5837 162.478 60.6509 162.545 60.6912C162.599 60.7315 162.679 60.7315 162.76 60.7181C163.526 60.6106 164.278 60.315 164.977 59.9925C165.192 59.885 165.421 59.7506 165.488 59.5222C165.541 59.361 165.488 59.1863 165.434 59.0116Z" fill="#FBC94F"/>
<path d="M150.007 37.8626C151.082 37.2177 152.143 36.5458 153.178 35.8471C153.258 35.7934 153.339 35.7396 153.42 35.7531C153.487 35.7665 153.541 35.8202 153.594 35.8606C154.078 36.3174 154.468 36.828 154.925 37.2983C154.992 37.3789 155.072 37.473 155.086 37.5939C155.113 37.7551 154.992 37.9029 154.884 38.0239C154.696 38.2523 151.686 41.1546 151.579 41.0337C151.015 40.429 150.517 39.7706 150.074 39.0719C149.778 39.8781 149.416 40.6575 148.986 41.4099C147.736 40.3619 146.5 39.3272 145.264 38.2792C145.196 38.2254 145.129 38.1717 145.116 38.0911C145.076 37.997 145.129 37.8895 145.17 37.7954C145.411 37.2848 145.747 36.6802 146.124 36.2502C146.177 36.1965 146.231 36.1427 146.298 36.1159C146.365 36.1024 146.446 36.1159 146.527 36.1427C147.669 36.5055 148.529 37.4595 149.657 37.9029C149.711 37.9164 149.765 37.9432 149.819 37.9432C149.872 37.9298 149.926 37.9029 149.98 37.8761L150.007 37.8626Z" fill="#FBC94F"/>
<path d="M145.716 39.1104C146.764 39.9435 147.812 40.79 148.873 41.6365C149.008 41.744 149.088 41.2603 148.968 41.1528C147.906 40.2928 146.845 39.4463 145.783 38.5863C145.649 38.4654 145.568 38.9894 145.716 39.1104Z" fill="#FAB63F"/>
<path d="M148.971 41.5719C149.442 40.8732 149.831 40.1476 150.248 39.4086C150.194 39.422 150.14 39.4489 150.087 39.4624C150.557 39.9461 150.947 40.6179 151.484 41.0344C151.578 41.1016 151.565 40.8195 151.551 40.7926C151.283 40.1073 150.718 39.5161 150.221 38.9786C150.154 38.9114 150.1 38.9652 150.06 39.0324C149.63 39.7848 149.227 40.5238 148.877 41.3301C148.851 41.3838 148.891 41.6928 148.971 41.5719Z" fill="#FAB63F"/>
<path d="M151.651 41.141C152.699 40.3616 153.841 39.542 154.634 38.4939C154.661 38.4536 154.674 38.2386 154.593 38.2789C154.042 38.588 153.586 39.0717 153.102 39.4882C152.591 39.9317 152.108 40.4154 151.61 40.8857C151.557 40.9394 151.57 41.1947 151.651 41.141Z" fill="#FAB63F"/>
<path d="M150.371 40.8609C150.963 48.8691 150.439 56.7565 150.398 64.7513C150.385 64.8588 150.492 64.926 150.506 64.7916C151.124 56.8371 151.191 48.6676 150.586 40.7265C150.56 40.3637 150.345 40.6324 150.371 40.8609Z" fill="#FAB63F"/>
<path d="M152.689 47.0522C153.402 47.0925 154.087 47.0925 154.799 47.0656C154.987 47.0522 155.699 46.9044 155.847 47.0119C156.264 47.2806 155.807 48.6915 155.887 48.5706C155.525 49.1483 154.947 49.323 154.329 49.1349C153.388 48.8527 153.361 48.06 153.294 47.2134C153.281 47.1194 153.2 47.0253 153.173 47.1731C153.066 47.8718 153.119 48.8527 153.724 49.323C154.463 49.9008 155.471 49.3364 155.901 48.6377C156.035 48.3959 156.156 48.1137 156.183 47.845C156.21 47.5762 156.21 46.8641 156.049 46.6625C155.834 46.3938 155.242 46.555 154.92 46.5685C154.167 46.5819 153.442 46.6357 152.689 46.7297C152.609 46.7432 152.609 47.0522 152.689 47.0522Z" fill="#FAB63F"/>
<path d="M162.354 59.7111C163.053 59.4558 163.845 59.308 164.463 58.8915C164.504 58.8646 164.517 58.663 164.45 58.663C163.738 58.6093 162.945 59.0661 162.314 59.3617C162.233 59.4021 162.246 59.7514 162.354 59.7111Z" fill="#FAB63F"/>
<path d="M136.972 58.5138C137.348 58.5675 137.711 58.6078 138.073 58.6481C138.436 58.7019 138.799 58.6616 139.175 58.6347V58.46C138.812 58.366 138.45 58.2316 138.073 58.2047C137.711 58.1644 137.348 58.1241 136.972 58.0838C136.878 58.0704 136.851 58.5003 136.972 58.5138Z" fill="#FAB63F"/>
<path d="M150.076 43.2504C150.076 43.3982 149.941 43.5326 149.794 43.5326C149.632 43.5326 149.498 43.3982 149.498 43.2504C149.498 43.0892 149.632 42.9683 149.794 42.9683C149.941 42.9683 150.076 43.0892 150.076 43.2504Z" fill="#FAB63F"/>
<path d="M150.076 45.4565C150.076 45.6177 149.941 45.7387 149.794 45.7387C149.632 45.7387 149.498 45.6177 149.498 45.4565C149.498 45.2952 149.632 45.1743 149.794 45.1743C149.941 45.1743 150.076 45.2952 150.076 45.4565Z" fill="#FAB63F"/>
<path d="M150.076 48.0776C150.076 48.2388 149.941 48.3732 149.794 48.3732C149.632 48.3732 149.498 48.2388 149.498 48.0776C149.498 47.9298 149.632 47.7954 149.794 47.7954C149.941 47.7954 150.076 47.9298 150.076 48.0776Z" fill="#FAB63F"/>
<path d="M150.076 50.708C150.076 50.8692 149.941 50.9901 149.794 50.9901C149.632 50.9901 149.498 50.8692 149.498 50.708C149.498 50.5467 149.632 50.4258 149.794 50.4258C149.941 50.4258 150.076 50.5467 150.076 50.708Z" fill="#FAB63F"/>
<path d="M150.076 53.3281C150.076 53.4893 149.941 53.6102 149.794 53.6102C149.632 53.6102 149.498 53.4893 149.498 53.3281C149.498 53.1803 149.632 53.0459 149.794 53.0459C149.941 53.0459 150.076 53.1803 150.076 53.3281Z" fill="#FAB63F"/>
<path d="M150.076 55.9594C150.076 56.1072 149.941 56.2416 149.794 56.2416C149.632 56.2416 149.498 56.1072 149.498 55.9594C149.498 55.7982 149.632 55.6772 149.794 55.6772C149.941 55.6772 150.076 55.7982 150.076 55.9594Z" fill="#FAB63F"/>
<path d="M149.914 58.5544C149.914 58.7022 149.779 58.8366 149.632 58.8366C149.47 58.8366 149.336 58.7022 149.336 58.5544C149.336 58.3932 149.47 58.2588 149.632 58.2588C149.779 58.2588 149.914 58.3932 149.914 58.5544Z" fill="#FAB63F"/>
<path d="M149.914 61.2136C149.914 61.3614 149.779 61.4957 149.632 61.4957C149.47 61.4957 149.336 61.3614 149.336 61.2136C149.336 61.0523 149.47 60.918 149.632 60.918C149.779 60.918 149.914 61.0523 149.914 61.2136Z" fill="#FAB63F"/>
<path d="M149.802 63.8349C149.802 63.9961 149.668 64.1171 149.507 64.1171C149.359 64.1171 149.225 63.9961 149.225 63.8349C149.225 63.6737 149.359 63.5527 149.507 63.5527C149.668 63.5527 149.802 63.6737 149.802 63.8349Z" fill="#FAB63F"/>
<path d="M160.406 51.852C160.795 51.8117 161.279 51.852 161.642 51.6774C161.696 51.6505 161.682 51.4624 161.628 51.4489C161.252 51.3683 160.769 51.5564 160.392 51.6236C160.339 51.637 160.339 51.852 160.406 51.852Z" fill="#FAB63F"/>
<path d="M160.22 52.4567C160.663 52.4971 161.093 52.5239 161.523 52.5642C161.966 52.6045 162.369 52.5374 162.813 52.4702V52.3627C162.383 52.2686 161.966 52.1611 161.523 52.1611C161.093 52.1611 160.65 52.1611 160.22 52.1746C160.152 52.1746 160.139 52.4433 160.22 52.4567Z" fill="#FAB63F"/>
<path d="M138.285 51.6456C138.553 51.78 138.822 51.9278 139.118 52.0218C139.36 52.1025 139.628 52.089 139.884 52.089C139.951 52.089 139.951 51.8875 139.897 51.8606C139.655 51.7397 139.4 51.5784 139.145 51.4978C138.862 51.4172 138.58 51.3769 138.298 51.3097C138.217 51.2828 138.204 51.6053 138.285 51.6456Z" fill="#FAB63F"/>
<path d="M169.387 70.8647V70.1794H132.369C131.213 70.1794 130.152 69.7091 129.386 68.9432C128.62 68.1773 128.15 67.1293 128.15 65.9737V37.7969C128.15 36.6414 128.62 35.5933 129.386 34.8409C130.152 34.075 131.213 33.6047 132.369 33.6047H169.387C170.542 33.6047 171.59 34.075 172.356 34.8409C173.122 35.5933 173.593 36.6414 173.593 37.7969V65.9737C173.593 67.1293 173.122 68.1773 172.356 68.9432C171.59 69.7091 170.542 70.1794 169.387 70.1794V71.5634C172.477 71.5634 174.99 69.0507 174.99 65.9737V37.7969C174.99 34.7199 172.477 32.2207 169.387 32.2207H132.369C129.278 32.2207 126.766 34.7199 126.766 37.7969V65.9737C126.766 69.0507 129.278 71.5634 132.369 71.5634H169.387V70.8647Z" fill="#C0EAF2"/>
<path d="M134.217 75.9435C134.177 75.8898 134.109 75.8495 134.042 75.8226C133.76 75.7151 132.793 75.6882 132.672 75.6748L132.483 75.6479C132.376 75.3254 132.295 75.0836 132.148 74.7342C132.08 74.5461 131.959 74.3177 131.812 74.1564C131.691 74.0221 131.516 73.8743 131.301 73.9011C131.059 73.928 130.723 74.4117 130.589 74.7342C130.468 75.0298 130.374 75.3254 130.266 75.6479L130.078 75.6748C129.957 75.6882 128.99 75.7151 128.721 75.8226C128.641 75.8495 128.573 75.8898 128.533 75.9435C128.399 76.0779 128.385 76.3063 128.466 76.4676C128.547 76.6422 128.708 76.7632 128.856 76.8707C129.003 76.9916 129.151 77.0991 129.312 77.2066C129.447 77.3006 129.568 77.3947 129.702 77.4753L129.729 77.5022V77.5156C129.675 77.8112 129.595 78.0934 129.527 78.3756C129.487 78.5637 129.433 78.7384 129.42 78.9265C129.42 79.128 129.406 79.3968 129.648 79.5042C129.729 79.5446 129.823 79.5446 129.917 79.5177C130.213 79.4236 130.508 79.3027 130.817 79.1415C130.992 79.0474 131.18 78.913 131.382 78.7518C131.57 78.913 131.758 79.0474 131.933 79.1415C132.242 79.3027 132.537 79.4236 132.833 79.5177C132.927 79.5446 133.021 79.5446 133.102 79.5042C133.343 79.3968 133.33 79.128 133.33 78.9265C133.317 78.7384 133.263 78.5637 133.222 78.3756C133.155 78.0934 133.075 77.8112 133.021 77.5156V77.5022L133.048 77.4753C133.182 77.3947 133.303 77.3006 133.437 77.2066C133.599 77.0991 133.747 76.9916 133.894 76.8707C134.042 76.7632 134.203 76.6422 134.284 76.4676C134.365 76.3063 134.351 76.0779 134.217 75.9435Z" fill="#FBC94F"/>
<path d="M143.974 75.9435C143.921 75.8898 143.853 75.8495 143.786 75.8226C143.518 75.7151 142.537 75.6882 142.429 75.6748L142.228 75.6479C142.134 75.3254 142.04 75.0836 141.905 74.7342C141.825 74.5461 141.717 74.3177 141.569 74.1564C141.435 74.0221 141.26 73.8743 141.059 73.9011C140.803 73.928 140.467 74.4117 140.333 74.7342C140.212 75.0298 140.118 75.3254 140.024 75.6479L139.822 75.6748C139.715 75.6882 138.734 75.7151 138.465 75.8226C138.398 75.8495 138.331 75.8898 138.277 75.9435C138.143 76.0779 138.129 76.3063 138.21 76.4676C138.304 76.6422 138.465 76.7632 138.6 76.8707C138.748 76.9916 138.909 77.0991 139.057 77.2066C139.191 77.3006 139.325 77.3947 139.46 77.4753L139.473 77.5022V77.5156C139.419 77.8112 139.339 78.0934 139.272 78.3756C139.231 78.5637 139.177 78.7384 139.177 78.9265C139.164 79.128 139.164 79.3968 139.392 79.5042C139.487 79.5446 139.581 79.5446 139.661 79.5177C139.957 79.4236 140.252 79.3027 140.575 79.1415C140.736 79.0474 140.924 78.913 141.126 78.7518C141.327 78.913 141.502 79.0474 141.677 79.1415C141.999 79.3027 142.295 79.4236 142.59 79.5177C142.671 79.5446 142.765 79.5446 142.859 79.5042C143.088 79.3968 143.088 79.128 143.074 78.9265C143.074 78.7384 143.02 78.5637 142.98 78.3756C142.913 78.0934 142.832 77.8112 142.779 77.5156V77.5022L142.792 77.4753C142.926 77.3947 143.061 77.3006 143.195 77.2066C143.343 77.0991 143.504 76.9916 143.652 76.8707C143.786 76.7632 143.948 76.6422 144.042 76.4676C144.122 76.3063 144.109 76.0779 143.974 75.9435Z" fill="#FBC94F"/>
<path d="M153.72 75.944C153.666 75.8903 153.612 75.85 153.532 75.8231C153.263 75.7156 152.295 75.6887 152.174 75.6753L151.986 75.6484C151.879 75.3259 151.785 75.0841 151.65 74.7347C151.57 74.5466 151.462 74.3182 151.315 74.1569C151.194 74.0226 151.005 73.8748 150.804 73.9016C150.562 73.9285 150.226 74.4122 150.078 74.7347C149.957 75.0303 149.877 75.3259 149.769 75.6484L149.581 75.6753C149.46 75.6887 148.493 75.7156 148.211 75.8231C148.143 75.85 148.076 75.8903 148.023 75.944C147.902 76.0784 147.888 76.3068 147.969 76.468C148.049 76.6427 148.211 76.7636 148.358 76.8711C148.506 76.9921 148.654 77.0996 148.815 77.2071C148.95 77.3011 149.071 77.3952 149.205 77.4758L149.232 77.5027V77.5161C149.165 77.8117 149.097 78.0939 149.03 78.3761C148.99 78.5642 148.936 78.7388 148.923 78.927C148.923 79.1285 148.909 79.3972 149.151 79.5047C149.232 79.545 149.326 79.545 149.42 79.5182C149.716 79.4241 150.011 79.3032 150.32 79.1419C150.495 79.0479 150.683 78.9135 150.871 78.7523C151.073 78.9135 151.261 79.0479 151.435 79.1419C151.744 79.3032 152.04 79.4241 152.336 79.5182C152.43 79.545 152.524 79.545 152.604 79.5047C152.833 79.3972 152.833 79.1285 152.833 78.927C152.819 78.7388 152.766 78.5642 152.725 78.3761C152.658 78.0939 152.578 77.8117 152.524 77.5161V77.5027L152.551 77.4758C152.685 77.3952 152.806 77.3011 152.94 77.2071C153.102 77.0996 153.249 76.9921 153.397 76.8711C153.545 76.7636 153.706 76.6427 153.787 76.468C153.868 76.3068 153.854 76.0784 153.72 75.944Z" fill="#FBC94F"/>
<path d="M163.48 75.9438C163.426 75.89 163.359 75.8497 163.292 75.8228C163.023 75.7154 162.043 75.6885 161.935 75.675L161.733 75.6482C161.639 75.3257 161.545 75.0838 161.411 74.7345C161.33 74.5464 161.209 74.3179 161.075 74.1567C160.941 74.0089 160.766 73.8745 160.564 73.9014C160.309 73.9283 159.973 74.412 159.839 74.7345C159.718 75.0301 159.624 75.3257 159.516 75.6482L159.328 75.675C159.207 75.6885 158.24 75.7154 157.971 75.8228C157.904 75.8497 157.837 75.89 157.783 75.9438C157.649 76.0781 157.635 76.3066 157.716 76.4678C157.797 76.6425 157.958 76.7634 158.106 76.8709C158.253 76.9918 158.415 77.0993 158.562 77.2068C158.697 77.3009 158.831 77.3949 158.966 77.4756L158.979 77.489V77.5159C158.925 77.8115 158.845 78.0937 158.777 78.3758C158.737 78.5639 158.683 78.7386 158.683 78.9267C158.67 79.1283 158.67 79.397 158.898 79.5045C158.979 79.5448 159.086 79.5448 159.167 79.5179C159.463 79.4239 159.758 79.303 160.081 79.1417C160.242 79.0477 160.43 78.9133 160.632 78.7521C160.833 78.9133 161.008 79.0477 161.183 79.1417C161.505 79.303 161.801 79.4239 162.096 79.5179C162.177 79.5448 162.271 79.5448 162.352 79.5045C162.593 79.397 162.593 79.1283 162.58 78.9267C162.58 78.7386 162.526 78.5639 162.472 78.3758C162.405 78.0937 162.338 77.8115 162.284 77.5159V77.489L162.298 77.4756C162.432 77.3949 162.567 77.3009 162.687 77.2068C162.849 77.0993 163.01 76.9918 163.144 76.8709C163.292 76.7634 163.453 76.6425 163.534 76.4678C163.615 76.3066 163.601 76.0781 163.48 75.9438Z" fill="#FBC94F"/>
<path d="M173.217 75.944C173.163 75.8903 173.096 75.85 173.029 75.8231C172.76 75.729 171.792 75.6887 171.671 75.6887L171.483 75.6484C171.376 75.3259 171.282 75.0841 171.147 74.7347C171.067 74.5466 170.959 74.3182 170.812 74.1569C170.677 74.0226 170.502 73.8748 170.301 73.9016C170.046 73.9285 169.723 74.4122 169.575 74.7347C169.454 75.0303 169.36 75.3259 169.266 75.6484L169.065 75.6887C168.957 75.6887 167.99 75.729 167.708 75.8231C167.64 75.85 167.573 75.8903 167.52 75.944C167.399 76.0784 167.385 76.3068 167.452 76.468C167.546 76.6427 167.708 76.7636 167.855 76.8711C168.003 76.9921 168.151 77.0996 168.312 77.2071C168.433 77.3011 168.568 77.3952 168.702 77.4758L168.715 77.5027V77.5161C168.662 77.8117 168.581 78.0939 168.514 78.3761C168.474 78.5642 168.42 78.7388 168.42 78.927C168.406 79.1285 168.406 79.4107 168.635 79.5047C168.729 79.545 168.823 79.545 168.904 79.5182C169.213 79.4241 169.495 79.3032 169.817 79.1419C169.992 79.0479 170.167 78.9135 170.368 78.7523C170.57 78.9135 170.758 79.0479 170.932 79.1419C171.241 79.3032 171.537 79.4241 171.833 79.5182C171.913 79.545 172.021 79.545 172.101 79.5047C172.33 79.4107 172.33 79.1285 172.316 78.927C172.316 78.7388 172.263 78.5642 172.222 78.3761C172.155 78.0939 172.075 77.8117 172.021 77.5161V77.5027L172.034 77.4758C172.182 77.3952 172.303 77.3011 172.437 77.2071C172.585 77.0996 172.746 76.9921 172.894 76.8711C173.029 76.7636 173.203 76.6427 173.284 76.468C173.364 76.3068 173.351 76.0784 173.217 75.944Z" fill="#C0EAF2"/>
<path d="M173.335 83.7904H128.416V82.5542H173.335V83.7904Z" fill="#C0EAF2"/>
<path d="M173.335 87.1244H128.416V85.8882H173.335V87.1244Z" fill="#C0EAF2"/>
<path d="M173.335 90.4561H128.416V89.2334H173.335V90.4561Z" fill="#C0EAF2"/>
<path d="M36.5631 117.675C36.5228 117.339 36.3884 116.976 36.1062 116.775C35.8644 116.614 35.5553 116.6 35.2732 116.6C32.1693 116.587 29.0654 116.64 25.9615 116.761C25.7734 116.775 25.5853 116.788 25.4509 116.896C25.2762 117.03 25.2359 117.272 25.2091 117.487C25.1284 118.132 25.1016 119.193 25.1016 119.852H36.6437C36.5228 118.831 36.6437 118.669 36.5631 117.675Z" fill="#F47276"/>
<path d="M44.2065 136.901C41.6535 131.365 39.9068 125.561 37.3538 119.998C37.2463 119.769 37.1254 119.514 36.9372 119.339C36.6551 119.098 36.2654 119.03 35.9026 118.977C33.9005 118.721 31.885 118.748 29.8695 118.789C28.714 118.815 25.7042 118.291 24.8845 119.205C24.5083 119.595 24.3739 120.159 24.253 120.697C22.7481 127.536 20.9341 134.254 19.4561 141.134C19.3217 141.792 19.2277 142.504 19.8189 142.867C20.3967 143.216 21.6328 143.297 22.3047 143.311C23.1781 143.337 24.0783 143.122 24.7367 142.558C24.6561 142.625 26.1207 143.485 26.2551 143.539C26.8597 143.781 27.5181 143.915 28.1631 143.915C28.7946 143.915 29.4799 143.808 30.0711 143.552C30.3936 143.405 30.7026 143.055 31.0654 142.988C31.6432 142.894 31.7238 143.257 32.1403 143.539C32.9869 144.117 34.344 144.117 35.3517 144.144C36.5073 144.17 37.8241 143.969 38.469 143.015C38.5631 142.881 38.6706 142.719 38.8318 142.706C38.9124 142.706 38.9796 142.746 39.0468 142.773C41.022 143.714 43.36 143.216 45.268 142.357C45.4292 142.276 45.5905 142.195 45.7114 142.061C45.9802 141.752 45.913 141.295 45.8055 140.905C45.4427 139.508 44.8112 138.205 44.2065 136.901Z" fill="#F47276"/>
<path d="M26.0402 119.381C29.2919 119.703 32.5033 119.703 35.7684 119.529C35.849 119.529 35.849 119.206 35.7684 119.206C32.5301 119.381 29.265 119.287 26.0402 119.059C25.9596 119.045 25.9462 119.368 26.0402 119.381Z" fill="#E65760"/>
<path d="M24.7605 142.077C25.6742 137.253 26.1848 132.161 26.6282 127.27C26.6417 127.068 26.4804 126.853 26.4267 127.149C25.513 131.972 24.8009 137.159 24.6934 142.063C24.6934 142.131 24.7471 142.157 24.7605 142.077Z" fill="#E65760"/>
<path d="M30.798 142.548C30.8518 140.465 30.7846 138.382 30.8249 136.299C30.8518 134.929 30.9055 133.572 31.0265 132.215C31.0533 132.04 31.0533 128.976 31.2146 130.629C31.5908 134.633 31.3355 138.705 31.8327 142.709C31.8461 142.816 31.9267 142.776 31.9267 142.695C31.8596 138.14 31.4833 133.599 31.4161 129.044C31.4161 128.815 31.228 128.667 31.1743 128.976C30.5024 133.451 30.3949 138.046 30.6906 142.548C30.704 142.668 30.798 142.682 30.798 142.548Z" fill="#E65760"/>
<path d="M38.4021 142.304C37.8512 137.95 37.3003 133.583 36.4538 129.27C36.4269 129.069 36.306 129.216 36.3194 129.351C36.8703 133.691 37.6362 138.017 38.3483 142.344C38.3618 142.425 38.4021 142.358 38.4021 142.304Z" fill="#E65760"/>
<path d="M36.6778 131.513C37.4437 134.939 38.2365 138.393 39.3517 141.725C39.4055 141.873 39.4727 141.685 39.4458 141.604C38.6262 138.137 37.6721 134.724 36.8928 131.244C36.8122 130.908 36.6375 131.338 36.6778 131.513Z" fill="#E65760"/>
<path d="M35.1947 123.628C35.4769 125.093 35.7053 126.584 36.0816 128.022C36.1219 128.156 36.2025 128.009 36.1891 127.928C36.0009 126.45 35.6919 124.972 35.4097 123.494C35.356 123.171 35.1544 123.4 35.1947 123.628Z" fill="#E65760"/>
<path d="M31.0131 122.635C30.9325 124.166 30.9459 125.658 31.1878 127.19C31.2012 127.244 31.2415 127.217 31.2415 127.163C31.2012 125.658 31.1475 124.14 31.2012 122.635C31.2012 122.379 31.0265 122.393 31.0131 122.635Z" fill="#E65760"/>
<path d="M162.753 153.289H70.1534C67.6745 153.289 65.6699 151.284 65.6699 148.817V107.766C65.6699 105.298 67.6745 103.294 70.1534 103.294H162.753C165.232 103.294 167.237 105.298 167.237 107.766V148.817C167.237 151.284 165.232 153.289 162.753 153.289Z" fill="#7484CA"/>
<path d="M67.5737 150.723V109.37C67.5737 106.872 69.5762 104.852 72.0527 104.852H164.559C165.223 104.852 165.851 105.007 166.42 105.27C165.626 104.015 164.228 103.19 162.652 103.19H70.145C67.6685 103.19 65.666 105.21 65.666 107.696V149.062C65.666 150.878 66.7443 152.444 68.2847 153.161C67.8344 152.456 67.5737 151.619 67.5737 150.723Z" fill="#8496D4"/>
<path d="M158.559 141.258C157.424 134.117 156.121 126.435 154.532 119.388C154.305 118.422 154.018 117.385 153.193 116.819C152.572 116.407 151.771 116.348 151.03 116.313C145.581 116.053 140.108 116.206 134.683 116.76C134.109 116.819 133.511 116.89 133.01 117.173C132.066 117.691 131.647 118.822 131.54 119.883C130.679 127.519 129.221 135.296 128.277 143.014C128.218 143.568 128.158 144.181 128.457 144.652C128.887 145.312 129.795 145.418 130.596 145.453C138.602 145.854 147.254 145.972 154.651 145.701C156.014 145.654 157.567 145.383 158.296 144.251C158.858 143.379 158.714 142.272 158.559 141.258Z" fill="#C0EAF2"/>
<path d="M137.524 120.225C137.339 119.57 137.246 118.857 137.246 118.121C137.246 116.601 137.651 115.012 138.392 113.714C139.145 112.405 140.21 111.388 141.565 110.921C142.167 110.71 142.827 110.593 143.487 110.593C144.24 110.593 144.992 110.745 145.664 111.026C146.335 111.318 146.926 111.739 147.377 112.3C148.026 113.106 148.362 114.123 148.663 115.269C148.952 116.402 149.195 117.641 149.74 118.822C149.89 119.149 150.272 119.301 150.596 119.149C150.932 118.997 151.071 118.6 150.921 118.273C150.457 117.291 150.226 116.122 149.925 114.941C149.612 113.749 149.23 112.534 148.396 111.482C147.794 110.734 147.019 110.184 146.173 109.822C145.328 109.46 144.402 109.284 143.487 109.284C142.688 109.284 141.889 109.413 141.137 109.682C139.434 110.266 138.126 111.54 137.258 113.06C136.389 114.591 135.949 116.379 135.949 118.121C135.949 118.962 136.053 119.804 136.273 120.587C136.378 120.938 136.737 121.136 137.084 121.043C137.431 120.938 137.628 120.575 137.524 120.225Z" fill="#C0EAF2"/>
<path d="M138.679 131.237C140.826 133.416 140.671 134.064 142.52 132.203C145.885 128.811 145.957 128.575 149.273 125.124C149.464 124.924 149.691 124.7 149.977 124.724C150.18 124.736 150.359 124.865 150.514 125.007C152.137 126.514 152.614 126.573 151.814 127.456C150.955 128.41 145.348 134.806 144.119 136.078C143.248 136.985 142.127 138.198 141.351 138.481C140.206 138.881 138.571 136.962 137.7 136.102C136.722 135.136 135.923 134.347 134.766 133.216C134.587 133.028 134.384 132.827 134.336 132.58C134.193 131.932 134.956 131.426 135.326 131.084C136.507 130.012 136.937 130.012 137.581 130.236C137.808 130.319 137.987 130.495 138.154 130.66C138.273 130.778 138.44 130.99 138.679 131.237Z" fill="#7484CA"/>
<path d="M114.131 136.754H82.0854C79.8279 136.754 77.998 134.972 77.998 132.771V126.924C77.998 124.723 79.8279 122.941 82.0854 122.941H114.131C116.388 122.941 118.218 124.723 118.218 126.924V132.771C118.218 134.972 116.388 136.754 114.131 136.754Z" fill="#F47276"/>
<path d="M85.0073 127.504C85.1623 127.504 85.3104 127.519 85.4517 127.548C85.5952 127.576 85.7285 127.613 85.8516 127.661C85.9746 127.707 86.0863 127.759 86.1865 127.818C86.2868 127.878 86.3722 127.937 86.4429 127.996L87.3315 127.384L86.3096 129.346L86.231 128.317C86.1649 128.272 86.0931 128.232 86.0156 128.198C85.9404 128.161 85.8641 128.132 85.7866 128.109C85.7114 128.084 85.6385 128.064 85.5679 128.051C85.4972 128.035 85.4346 128.022 85.3799 128.013C85.3252 128.004 85.2808 127.998 85.2466 127.996C85.2147 127.992 85.1976 127.989 85.1953 127.989C85.0404 127.989 84.9105 128.006 84.8057 128.041C84.7008 128.075 84.6154 128.119 84.5493 128.174C84.4855 128.229 84.4388 128.291 84.4092 128.362C84.3818 128.43 84.3682 128.5 84.3682 128.57C84.3682 128.714 84.3978 128.836 84.457 128.936C84.5163 129.034 84.6063 129.122 84.7271 129.199C84.8478 129.277 85.0016 129.35 85.1885 129.418C85.3753 129.484 85.5952 129.556 85.8481 129.633C86.0008 129.681 86.1444 129.746 86.2788 129.828C86.4155 129.908 86.534 130.002 86.6343 130.112C86.7345 130.219 86.8132 130.34 86.8701 130.474C86.9294 130.606 86.959 130.749 86.959 130.901C86.959 131.079 86.9339 131.237 86.8838 131.376C86.8337 131.513 86.7664 131.634 86.6821 131.739C86.6001 131.841 86.5044 131.929 86.395 132.002C86.2856 132.073 86.1717 132.13 86.0532 132.173C85.937 132.218 85.8185 132.25 85.6978 132.269C85.5793 132.289 85.4676 132.299 85.3628 132.299C85.0552 132.299 84.776 132.247 84.5254 132.142C84.2747 132.037 84.0412 131.894 83.8247 131.711L82.936 132.32L83.9272 130.563C83.9546 130.727 84.0024 130.885 84.0708 131.038C84.1414 131.188 84.228 131.323 84.3306 131.441C84.4331 131.56 84.5516 131.654 84.686 131.725C84.8205 131.796 84.9674 131.831 85.127 131.831C85.2546 131.831 85.3708 131.812 85.4756 131.773C85.5827 131.734 85.6738 131.683 85.749 131.619C85.8242 131.553 85.8823 131.478 85.9233 131.394C85.9666 131.307 85.9883 131.217 85.9883 131.124C85.9883 130.994 85.9518 130.882 85.8789 130.789C85.806 130.693 85.7103 130.609 85.5918 130.536C85.4733 130.46 85.3377 130.392 85.1851 130.331C85.0347 130.267 84.8797 130.202 84.7202 130.136C84.5607 130.07 84.4046 129.997 84.252 129.917C84.1016 129.837 83.9671 129.744 83.8486 129.637C83.7301 129.527 83.6344 129.4 83.5615 129.254C83.4886 129.108 83.4521 128.936 83.4521 128.738C83.4521 128.585 83.4818 128.436 83.541 128.29C83.6025 128.142 83.696 128.01 83.8213 127.894C83.9489 127.777 84.1107 127.684 84.3066 127.613C84.5026 127.54 84.7362 127.504 85.0073 127.504ZM87.0991 132.091L87.6255 131.664L87.8682 127.856L87.106 127.477L88.3159 127.275L88.3296 129.199C88.4071 129.088 88.4925 128.996 88.5859 128.926C88.6794 128.853 88.7705 128.796 88.8594 128.755C88.9505 128.714 89.0337 128.685 89.1089 128.669C89.1864 128.653 89.2467 128.646 89.29 128.646C89.5042 128.646 89.6854 128.684 89.8335 128.762C89.9816 128.837 90.1012 128.942 90.1924 129.076C90.2858 129.211 90.353 129.37 90.394 129.555C90.4373 129.737 90.459 129.935 90.459 130.149C90.459 130.268 90.4487 130.394 90.4282 130.529C90.41 130.663 90.3849 130.799 90.353 130.936C90.3211 131.07 90.2847 131.201 90.2437 131.329C90.2049 131.454 90.165 131.568 90.124 131.67L90.8008 132.046L89.0303 132.231L89.7788 131.551C89.8107 131.382 89.8335 131.224 89.8472 131.076C89.8631 130.928 89.8711 130.79 89.8711 130.662C89.8711 130.598 89.8665 130.521 89.8574 130.43C89.8506 130.339 89.8358 130.244 89.813 130.146C89.7902 130.046 89.7594 129.947 89.7207 129.849C89.682 129.751 89.6307 129.663 89.5669 129.585C89.5054 129.508 89.4302 129.445 89.3413 129.397C89.2547 129.35 89.151 129.326 89.0303 129.326C88.9118 129.326 88.7899 129.352 88.6646 129.404C88.5415 129.457 88.4299 129.54 88.3296 129.654L88.3535 131.711L88.8081 132.091H87.0991ZM91.0161 130.416C91.0161 130.161 91.056 129.925 91.1357 129.708C91.2178 129.49 91.3306 129.301 91.4741 129.141C91.62 128.982 91.792 128.857 91.9902 128.769C92.1908 128.677 92.4095 128.632 92.6465 128.632C92.8766 128.632 93.0874 128.675 93.2788 128.762C93.4702 128.846 93.6366 128.966 93.7778 129.121C93.9191 129.276 94.0319 129.461 94.1162 129.678C94.2005 129.894 94.2507 130.133 94.2666 130.396C94.2826 130.676 94.2529 130.93 94.1777 131.158C94.1048 131.383 93.9966 131.576 93.853 131.735C93.7095 131.893 93.5374 132.014 93.3369 132.101C93.1387 132.188 92.9233 132.231 92.6909 132.231C92.4676 132.231 92.2546 132.191 92.0518 132.111C91.8512 132.029 91.6735 131.911 91.5186 131.756C91.3659 131.601 91.244 131.412 91.1528 131.188C91.0617 130.963 91.0161 130.705 91.0161 130.416ZM91.8569 130.474C91.8569 130.675 91.8854 130.856 91.9424 131.018C91.9993 131.179 92.0757 131.317 92.1714 131.431C92.2671 131.543 92.3776 131.629 92.5029 131.691C92.6283 131.752 92.7604 131.783 92.8994 131.783C93.0384 131.783 93.1683 131.754 93.2891 131.694C93.4098 131.633 93.5146 131.547 93.6035 131.438C93.6924 131.326 93.7619 131.193 93.812 131.038C93.8621 130.883 93.8872 130.711 93.8872 130.522C93.8872 130.335 93.8621 130.16 93.812 129.996C93.7619 129.829 93.6912 129.685 93.6001 129.562C93.5112 129.438 93.4053 129.342 93.2822 129.271C93.1592 129.2 93.0247 129.165 92.8789 129.165C92.749 129.165 92.6226 129.195 92.4995 129.254C92.3787 129.313 92.2705 129.4 92.1748 129.514C92.0791 129.625 92.0016 129.762 91.9424 129.924C91.8854 130.086 91.8569 130.269 91.8569 130.474ZM95.6987 129.145C95.7511 129.081 95.8081 129.023 95.8696 128.97C95.9312 128.916 95.9984 128.869 96.0713 128.83C96.1442 128.789 96.2217 128.757 96.3037 128.734C96.388 128.712 96.478 128.7 96.5737 128.7C96.7492 128.707 96.9155 128.748 97.0728 128.823C97.2323 128.898 97.3713 129.007 97.4897 129.148C97.6105 129.287 97.7062 129.459 97.7769 129.664C97.8475 129.867 97.8828 130.099 97.8828 130.361C97.8828 130.68 97.8452 130.959 97.77 131.199C97.6948 131.438 97.5923 131.637 97.4624 131.797C97.3325 131.954 97.1799 132.073 97.0044 132.152C96.8312 132.232 96.6455 132.272 96.4473 132.272C96.2741 132.272 96.1134 132.242 95.9653 132.183C95.8172 132.124 95.6885 132.042 95.5791 131.937L95.5449 132.706L96.2285 133.075L94.5503 133.362L95.0664 132.846L94.9263 129.186L94.3042 128.939L95.7192 128.7L95.6987 129.145ZM96.4678 129.134C96.4359 129.134 96.3903 129.14 96.3311 129.151C96.2718 129.163 96.2046 129.189 96.1294 129.23C96.0565 129.271 95.979 129.33 95.897 129.408C95.8172 129.485 95.7409 129.59 95.668 129.722L95.5996 131.424C95.6725 131.538 95.7614 131.633 95.8662 131.708C95.9733 131.781 96.0918 131.817 96.2217 131.817C96.3766 131.817 96.5099 131.779 96.6216 131.701C96.7332 131.624 96.8244 131.517 96.895 131.38C96.9679 131.241 97.0203 131.078 97.0522 130.891C97.0864 130.704 97.1035 130.501 97.1035 130.283C97.1035 130.123 97.0898 129.974 97.0625 129.835C97.0352 129.694 96.9953 129.572 96.9429 129.469C96.8905 129.364 96.8244 129.282 96.7446 129.223C96.6649 129.164 96.5726 129.134 96.4678 129.134ZM105.238 127.562L104.268 127.842L103.769 132.2L101.557 128.792L101.208 131.438L102.159 131.944L99.9131 132.111L100.809 131.438L100.874 128.017L99.8516 127.658L102.083 127.289L103.413 130.724L103.82 127.931L103.071 127.224L105.238 127.562ZM104.996 130.416C104.996 130.161 105.035 129.925 105.115 129.708C105.197 129.49 105.31 129.301 105.454 129.141C105.599 128.982 105.771 128.857 105.97 128.769C106.17 128.677 106.389 128.632 106.626 128.632C106.856 128.632 107.067 128.675 107.258 128.762C107.45 128.846 107.616 128.966 107.757 129.121C107.899 129.276 108.011 129.461 108.096 129.678C108.18 129.894 108.23 130.133 108.246 130.396C108.262 130.676 108.232 130.93 108.157 131.158C108.084 131.383 107.976 131.576 107.833 131.735C107.689 131.893 107.517 132.014 107.316 132.101C107.118 132.188 106.903 132.231 106.67 132.231C106.447 132.231 106.234 132.191 106.031 132.111C105.831 132.029 105.653 131.911 105.498 131.756C105.345 131.601 105.223 131.412 105.132 131.188C105.041 130.963 104.996 130.705 104.996 130.416ZM105.836 130.474C105.836 130.675 105.865 130.856 105.922 131.018C105.979 131.179 106.055 131.317 106.151 131.431C106.247 131.543 106.357 131.629 106.482 131.691C106.608 131.752 106.74 131.783 106.879 131.783C107.018 131.783 107.148 131.754 107.269 131.694C107.389 131.633 107.494 131.547 107.583 131.438C107.672 131.326 107.741 131.193 107.792 131.038C107.842 130.883 107.867 130.711 107.867 130.522C107.867 130.335 107.842 130.16 107.792 129.996C107.741 129.829 107.671 129.685 107.58 129.562C107.491 129.438 107.385 129.342 107.262 129.271C107.139 129.2 107.004 129.165 106.858 129.165C106.729 129.165 106.602 129.195 106.479 129.254C106.358 129.313 106.25 129.4 106.154 129.514C106.059 129.625 105.981 129.762 105.922 129.924C105.865 130.086 105.836 130.269 105.836 130.474ZM112.758 128.772L112.245 129.192L112.009 131.657L112.484 131.971L111.001 132.146L111.322 131.783L110.567 130.396L110.013 131.776L110.348 132.07L108.971 132.21L109.453 131.77L108.858 129.292L108.25 129.039L110.119 128.659L109.706 129.134L109.853 131.271L110.755 129.073L111.462 131.13L111.903 129.107L111.216 128.745L112.758 128.772Z" fill="white"/>
<path d="M180.777 0H2.91577C1.30336 0 0 1.30336 0 2.90233V14.0145H183.707V2.90233C183.707 1.30336 182.39 0 180.777 0Z" fill="#7484CA"/>
<path d="M15.2552 7.84596C15.2552 9.67335 13.7771 11.1648 11.9363 11.1648C10.1089 11.1648 8.63086 9.67335 8.63086 7.84596C8.63086 6.032 10.1089 4.54053 11.9363 4.54053C13.7771 4.54053 15.2552 6.032 15.2552 7.84596Z" fill="white"/>
<path d="M27.5459 7.84547C27.5459 9.67286 26.0679 11.1643 24.2271 11.1643C22.3997 11.1643 20.9082 9.67286 20.9082 7.84547C20.9082 6.03151 22.3997 4.54004 24.2271 4.54004C26.0679 4.54004 27.5459 6.03151 27.5459 7.84547Z" fill="#C0EAF2"/>
<path d="M39.8487 7.84596C39.8487 9.67335 38.3706 11.1648 36.5298 11.1648C34.7024 11.1648 33.2109 9.67335 33.2109 7.84596C33.2109 6.032 34.7024 4.54053 36.5298 4.54053C38.3706 4.54053 39.8487 6.032 39.8487 7.84596Z" fill="white"/>
<path d="M166.552 10.3874H68.3696C66.9722 10.3874 65.8301 9.2453 65.8301 7.84788C65.8301 6.45046 66.9722 5.32178 68.3696 5.32178H166.552C167.949 5.32178 169.091 6.45046 169.091 7.84788C169.091 9.2453 167.949 10.3874 166.552 10.3874Z" fill="#C0EAF2"/>
<path d="M145.193 215.756C144.496 214.954 143.716 214.106 142.845 213.221C135.937 206.2 133.791 207.903 130.738 203.357C127.377 198.346 126.44 192.937 124.572 182.128C123.462 175.721 123.447 175.571 122.374 171.686C120.851 166.18 119.516 165.017 117.393 157.613C116.575 154.74 116.538 154.065 115.428 150.397C114.715 148.019 113.935 145.401 112.705 142.093C110.897 137.209 109.682 135.034 109.854 131.673C109.944 129.895 110.379 128.74 111.272 128.065C112.367 127.24 113.807 127.285 114.67 127.712C115.435 128.087 116.208 128.965 117.693 131.718C120.544 136.977 121.714 140.435 122.517 141.92C123.747 144.215 125.547 146.353 126.402 148.461C126.41 148.484 126.432 148.499 126.47 148.499C126.845 148.506 128.308 146.818 131.263 148.169C132.884 148.911 133.431 149.751 133.551 149.654C137.842 146.106 141.773 151.199 141.863 151.094C143.611 149.129 146.581 150.824 147.586 151.859C152.665 157.103 154.825 159.421 158.561 164.477C160.849 167.575 160.781 170.695 161.321 172.818C165.125 187.649 163.639 186.929 165.837 193.185C168.29 200.161 171.448 199.576 177.262 211.023C178.267 212.988 178.965 214.534 179.445 215.756H145.193Z" fill="#7F4730"/>
<path d="M110.692 129.625C110.196 130.997 112.124 134.14 112.852 134.26C113.962 134.44 117 133.45 117.098 132.73C117.255 131.59 116.43 129.76 115.17 128.447C114.922 128.184 114.502 127.914 113.82 127.817C112.86 127.682 112.042 128.072 111.862 128.162C111.659 128.274 111.014 128.687 110.692 129.625Z" fill="#512618"/>
<path d="M117.264 170.666C114.203 165.7 111.33 163.644 109.522 162.654C108.6 162.152 106.777 161.281 104.924 161.769C104.549 161.867 103.431 162.167 103.101 163.029C102.921 163.517 103.049 164.004 103.169 164.35C104.001 166.697 106.019 166.975 107.107 169.315C108.525 172.339 107.842 173.291 109.823 177.425C110.085 177.972 110.415 178.595 111.188 179.435C114.053 182.525 116.671 189.592 116.671 189.592C119.154 196.763 132.492 208.608 136.078 206.485C139.693 204.34 133.775 186.014 126.176 181.49C125.463 181.07 123.745 180.793 121.81 178.73C119.574 176.337 119.604 174.454 117.264 170.666Z" fill="#7F4730"/>
<path d="M103.171 164.349C103.163 164.319 103.156 164.296 103.148 164.266C103.433 164.116 103.696 163.899 104.004 163.523C104.281 163.186 105.459 164.296 106.614 166.231C106.982 166.854 107.327 167.604 107.327 168.279C107.327 168.422 107.289 168.887 107.049 169.187C105.946 166.967 103.989 166.652 103.171 164.349Z" fill="#512618"/>
<path d="M126.355 148.281C126.43 148.626 126.513 148.979 126.611 149.316C126.708 149.662 126.813 149.999 126.926 150.337C127.038 150.674 127.151 151.004 127.271 151.342C127.391 151.672 127.518 152.002 127.646 152.332C128.171 153.645 128.756 154.928 129.379 156.188C130.009 157.448 130.684 158.686 131.404 159.901C131.764 160.509 132.139 161.101 132.529 161.694C132.732 161.986 132.927 162.279 133.137 162.564C133.242 162.714 133.347 162.857 133.452 162.999C133.564 163.134 133.669 163.277 133.789 163.412C133.302 162.076 132.754 160.786 132.177 159.496C131.606 158.213 130.999 156.953 130.376 155.693C129.754 154.44 129.108 153.195 128.441 151.964C127.766 150.727 127.091 149.504 126.355 148.281Z" fill="#512618"/>
<path d="M133.49 149.639C133.625 149.924 133.76 150.201 133.918 150.479C134.068 150.749 134.233 151.019 134.405 151.274L135.411 152.804C136.093 153.824 136.798 154.83 137.526 155.812C138.261 156.795 139.019 157.763 139.814 158.7C140.609 159.638 141.427 160.561 142.342 161.416C141.802 160.283 141.172 159.225 140.519 158.19C139.859 157.148 139.161 156.135 138.426 155.152C137.691 154.162 136.918 153.202 136.101 152.279C135.696 151.814 135.268 151.356 134.825 150.929C134.6 150.711 134.383 150.509 134.158 150.291C133.94 150.074 133.723 149.856 133.49 149.639Z" fill="#512618"/>
<path d="M141.852 151.063C142.354 151.926 142.939 152.706 143.539 153.471C144.139 154.237 144.777 154.964 145.43 155.684C146.082 156.397 146.757 157.087 147.463 157.762C148.16 158.43 148.88 159.082 149.661 159.705C149.556 159.48 149.443 159.255 149.323 159.037C149.203 158.82 149.075 158.61 148.948 158.4C148.813 158.19 148.678 157.987 148.543 157.785C148.408 157.582 148.265 157.38 148.115 157.185C147.538 156.397 146.908 155.647 146.247 154.934C145.595 154.214 144.897 153.531 144.177 152.879C143.442 152.226 142.692 151.604 141.852 151.063Z" fill="#512618"/>
</svg>
