<svg width="191" height="142" viewBox="0 0 191 142" fill="none" xmlns="http://www.w3.org/2000/svg">
<path d="M91.7397 97.5731C91.7179 97.5731 91.707 97.5731 91.6851 97.5731C91.6087 97.5622 91.5213 97.5513 91.4449 97.5513H86.8145V110.241H92.4168L93.4106 105.239V103.503H93.5089V99.6262C93.5089 98.5887 92.7444 97.726 91.7397 97.5731Z" fill="#644428"/>
<path d="M81.7938 74.9902H4.23452C4.09255 74.9902 3.96151 75.0012 3.81953 75.0121C3.78677 75.023 3.76493 75.023 3.73217 75.0339C2.05037 75.2742 0.761719 76.7157 0.761719 78.474V84.9827H0.936451V87.8877L8.34073 125.488C8.34073 130.326 12.2394 134.246 17.0555 134.246H81.7938C86.6099 134.246 90.5086 130.326 90.5086 125.488V83.7378C90.5086 78.9108 86.6099 74.9902 81.7938 74.9902Z" fill="#7C5533"/>
<path d="M32.1259 41.6921C36.4833 39.7154 41.627 41.6593 43.6037 46.0385L68.5358 101.363C70.5124 105.753 68.5794 110.908 64.2111 112.895L37.8921 124.865C33.5347 126.852 28.391 124.908 26.4144 120.529L1.48226 65.1936C-0.494395 60.8143 1.43858 55.6488 5.80689 53.6721L32.1259 41.6921Z" fill="#56B65F"/>
<path d="M11.824 58.1827C13.2327 61.306 11.8458 64.9863 8.7443 66.3951C7.87064 66.7992 6.94238 66.963 6.04688 66.9411L28.1287 115.921C28.6965 115.233 29.4392 114.643 30.3128 114.25C33.4143 112.83 37.0837 114.217 38.4925 117.34C38.9621 118.389 39.1149 119.503 38.9948 120.573L60.2685 110.897C59.3948 110.275 58.6631 109.434 58.1935 108.375C56.7847 105.262 58.1608 101.571 61.2732 100.162C62.1468 99.769 63.0642 99.5942 63.9706 99.627L41.8888 50.6364C41.31 51.3354 40.5783 51.9142 39.7047 52.3182C36.6032 53.727 32.9338 52.3401 31.525 49.2277C31.0554 48.1793 30.9025 47.0654 31.0227 45.9951L9.73809 55.6709C10.6227 56.2934 11.3544 57.1343 11.824 58.1827Z" fill="#92CE8C"/>
<path d="M28.5885 69.0488C36.4186 65.4886 45.6358 68.9724 49.1741 76.8353C52.7234 84.6983 49.2505 93.9591 41.4204 97.5192C33.6011 101.079 24.384 97.5848 20.8347 89.7327C17.2964 81.8698 20.7692 72.609 28.5885 69.0488Z" fill="#56B65F"/>
<path d="M34.1335 76.1142C33.6858 76.6057 33.38 77.1735 33.2053 77.8069C32.965 78.6369 33.0415 80.0785 33.4346 82.1207L33.4892 82.3827C33.5329 82.6339 33.5984 82.9943 33.6858 83.453C34.3083 86.5654 33.9588 88.4219 32.6483 89.0226C31.8183 89.3939 31.0102 89.3611 30.2021 88.9024C29.3939 88.4438 28.7387 87.6466 28.2254 86.5108C27.6794 85.2986 27.5483 84.1956 27.8432 83.2236C28.138 82.2626 28.8151 81.4872 29.8963 80.8866C29.9072 80.8866 29.9181 80.8866 29.9291 80.8866C30.5406 80.6027 30.8136 79.871 30.5297 79.2594C30.2567 78.6369 29.5359 78.3639 28.9134 78.6478C28.8479 78.6806 28.7824 78.7243 28.7168 78.768C27.1661 79.5433 26.1505 80.6573 25.6918 82.1097C25.2877 83.3984 25.3642 84.8072 25.9102 86.3579L23.9772 87.2425C23.4858 87.4609 23.2783 88.0288 23.4967 88.5202C23.7151 89.0007 24.283 89.2191 24.7635 89.0007L26.7074 88.1161C27.4828 89.4922 28.4547 90.475 29.6342 91.0429C31.0648 91.7418 32.5282 91.7418 34.0462 91.0538C35.2912 90.486 36.0774 89.6778 36.416 88.6294C36.7545 87.5701 36.6672 85.7573 36.1757 83.1909C36.1539 83.0926 36.1211 82.9397 36.0884 82.7541C35.4768 79.587 35.8153 77.6977 37.1149 77.108C38.0759 76.6712 39.0042 76.7149 39.8997 77.2172C40.7952 77.7305 41.5487 78.6478 42.1494 79.9693C42.75 81.3125 42.8592 82.5466 42.4989 83.6823C42.1166 84.8181 41.3303 85.6699 40.1072 86.2596C39.5066 86.5436 39.2335 87.2643 39.5066 87.8759C39.7905 88.4875 40.5004 88.7605 41.1119 88.4875V88.4984C43.0231 87.5264 44.2353 86.2269 44.7595 84.5887C45.2072 83.2236 45.1198 81.6947 44.5301 80.0129L46.0372 79.3249C46.5177 79.1065 46.7361 78.5277 46.5177 78.0472C46.2993 77.5558 45.7314 77.3374 45.24 77.5667L43.7547 78.2438C42.892 76.6603 41.8218 75.5464 40.5331 74.902C39.0261 74.1703 37.4535 74.1703 35.8153 74.9239C35.1383 75.2296 34.5813 75.6228 34.1335 76.1142Z" fill="#92CE8C"/>
<path d="M69.6474 42.0427C74.398 42.5887 77.8162 46.9133 77.2592 51.6966L70.3027 112.023C69.7457 116.806 65.443 120.224 60.6924 119.678L31.9926 116.337C27.2312 115.78 23.8239 111.455 24.37 106.683L31.3265 46.3454C31.8834 41.5731 36.1862 38.1439 40.9477 38.7009L69.6474 42.0427Z" fill="#56B65F"/>
<path d="M43.7991 45.6782C43.406 49.0854 40.3263 51.5317 36.9409 51.1386C35.9908 51.0184 35.1171 50.6908 34.3527 50.1994L28.1934 103.613C29.0452 103.318 29.9734 103.198 30.9236 103.307C34.309 103.7 36.7443 106.791 36.3512 110.187C36.2201 111.334 35.7833 112.36 35.139 113.212L58.3347 115.921C57.8978 114.938 57.7013 113.835 57.8432 112.688C58.2255 109.292 61.3051 106.845 64.6906 107.239C65.6407 107.348 66.5143 107.675 67.2788 108.167L73.4381 54.7533C72.5863 55.0482 71.658 55.1792 70.7079 55.0591C67.3225 54.666 64.8871 51.5863 65.2803 48.179C65.4113 47.0433 65.8482 46.0058 66.5034 45.154L43.2968 42.4565C43.7336 43.4285 43.9302 44.5424 43.7991 45.6782Z" fill="#92CE8C"/>
<path d="M52.6115 63.6651C61.1406 64.6589 67.2562 72.4126 66.2624 80.9854C65.2795 89.5582 57.5586 95.6957 49.0294 94.7128C40.4894 93.7081 34.3738 85.9544 35.3676 77.3816C36.3504 68.8088 44.0714 62.6713 52.6115 63.6651Z" fill="#56B65F"/>
<path d="M53.7379 72.5874C53.1045 72.784 52.5585 73.1007 52.0779 73.5485C51.4445 74.1491 50.7784 75.4159 50.0685 77.3707L49.9702 77.6328C49.8829 77.8731 49.7627 78.2116 49.5989 78.6485C48.5396 81.6408 47.2946 83.0495 45.8531 82.8857C44.9576 82.7765 44.2805 82.3288 43.8218 81.5206C43.3632 80.7125 43.2103 79.6969 43.3523 78.4519C43.5051 77.1305 43.9529 76.1149 44.7064 75.4378C45.449 74.7607 46.4319 74.444 47.655 74.4986C47.666 74.4986 47.6769 74.4986 47.6878 74.4986C48.3649 74.575 48.9655 74.0945 49.042 73.4283C49.1184 72.7513 48.6379 72.1397 47.9717 72.0632C47.8953 72.0523 47.8188 72.0523 47.7424 72.0632C46.006 71.9213 44.5754 72.3581 43.4287 73.3628C42.424 74.2583 41.7687 75.5142 41.4411 77.1196L39.3334 76.8684C38.7983 76.8138 38.3287 77.196 38.2632 77.7202C38.1977 78.2553 38.5799 78.7358 39.1041 78.7904L41.2227 79.0416C41.1899 80.6142 41.5176 81.9684 42.2383 83.0714C43.1011 84.4037 44.357 85.1572 46.0169 85.3538C47.3711 85.5176 48.4632 85.2228 49.2822 84.502C50.1231 83.7703 50.9749 82.1759 51.8595 79.7078C51.9032 79.6095 51.9469 79.4784 52.0124 79.2928C53.1154 76.2568 54.3713 74.8153 55.791 74.99C56.8394 75.1101 57.6148 75.6234 58.1171 76.5189C58.6304 77.4253 58.8051 78.5939 58.6304 80.0354C58.4666 81.4988 57.9315 82.6127 57.036 83.399C56.1295 84.1853 55.0156 84.502 53.6615 84.3709C53.0062 84.3054 52.4056 84.7859 52.3291 85.4521C52.2527 86.1183 52.7223 86.7189 53.3775 86.8063V86.8172C55.518 86.9701 57.2325 86.4787 58.5103 85.3538C59.5914 84.4037 60.3013 83.0495 60.6617 81.3022L62.2998 81.4988C62.8349 81.5534 63.3154 81.1821 63.37 80.647C63.4355 80.1119 63.0533 79.6313 62.5291 79.5767L60.9019 79.3802C60.9784 77.5892 60.6289 76.0712 59.8426 74.859C58.9362 73.4502 57.582 72.642 55.791 72.4346C55.0593 72.3472 54.3713 72.4018 53.7379 72.5874Z" fill="#92CE8C"/>
<path d="M103.461 71.5384C106.802 74.9893 106.726 80.5043 103.286 83.857L59.9305 126.197C56.5014 129.549 51.0082 129.473 47.6774 126.022L27.5286 105.207C24.1977 101.756 24.2742 96.2412 27.7033 92.8885L71.0587 50.5596C74.4988 47.2069 79.981 47.2834 83.3228 50.7343L103.461 71.5384Z" fill="#56B65F"/>
<path d="M81.1386 57.9533C78.6924 60.3449 74.7718 60.2903 72.402 57.8332C71.725 57.1342 71.2554 56.3261 70.9714 55.4634L32.5959 92.9434C33.4368 93.2492 34.234 93.7516 34.9111 94.4396C37.2809 96.8967 37.2263 100.828 34.78 103.22C33.9609 104.017 32.9672 104.541 31.9297 104.792L48.2125 121.621C48.4856 120.584 49.0316 119.601 49.8616 118.793C52.2969 116.412 56.2175 116.467 58.5982 118.924C59.2644 119.612 59.734 120.431 60.0179 121.283L98.4044 83.8137C97.5526 83.497 96.7553 83.0055 96.0892 82.3066C93.7084 79.8604 93.7631 75.918 96.2093 73.5372C97.0284 72.7291 98.0221 72.2158 99.0596 71.9537L82.7768 55.1357C82.5037 56.1732 81.9577 57.1561 81.1386 57.9533Z" fill="#92CE8C"/>
<path d="M76.6498 77.4798C82.6343 83.6719 82.4924 93.5661 76.344 99.5835C70.1847 105.601 60.3341 105.459 54.3386 99.2668C48.3541 93.0747 48.496 83.1914 54.6553 77.1741C60.8147 71.1567 70.6652 71.2987 76.6498 77.4798Z" fill="#56B65F"/>
<path d="M71.9093 85.1248C71.2977 84.8737 70.6643 84.7644 70.0091 84.8081C69.1572 84.8737 67.8358 85.4306 66.0557 86.4899L65.8155 86.6319C65.5971 86.7629 65.2913 86.9486 64.8872 87.1889C62.1898 88.827 60.3333 89.1328 59.3176 88.0953C58.6842 87.44 58.4549 86.6537 58.6078 85.7473C58.7607 84.83 59.274 83.9345 60.1695 83.0717C61.1196 82.1325 62.1024 81.6411 63.1181 81.5865C64.1228 81.5319 65.0838 81.925 66.0011 82.7332C66.0011 82.7441 66.0121 82.755 66.023 82.7659C66.4926 83.2465 67.2679 83.2574 67.7485 82.7878C68.229 82.3182 68.2399 81.5319 67.7703 81.0514C67.7157 80.9968 67.6502 80.9422 67.5956 80.8985C66.3397 79.6972 64.9527 79.1184 63.4348 79.1839C62.0915 79.2385 60.7919 79.7846 59.5251 80.822L58.0508 79.2931C57.6795 78.9109 57.068 78.9 56.6857 79.2713C56.3035 79.6426 56.2926 80.2542 56.6639 80.6364L58.1491 82.1762C57.1335 83.3775 56.5438 84.6225 56.4018 85.933C56.238 87.5165 56.7294 88.9034 57.887 90.1047C58.8371 91.0876 59.8637 91.5572 60.9667 91.5244C62.0697 91.4807 63.7405 90.7927 65.9793 89.4495C66.0667 89.3948 66.1977 89.3184 66.3506 89.2201C69.1136 87.5602 70.9919 87.2544 71.9966 88.2809C72.7283 89.0345 73.0014 89.93 72.8266 90.9456C72.6628 91.9721 72.0512 92.9878 71.0138 94.0034C69.9654 95.019 68.8515 95.5542 67.6611 95.5869C66.4707 95.6197 65.4005 95.161 64.4395 94.2C63.9699 93.7304 63.2054 93.7195 62.7249 94.1891C62.2444 94.6587 62.2335 95.4231 62.6921 95.9145H62.6812C64.2429 97.3998 65.8701 98.0987 67.5737 98.0441C69.0044 97.9895 70.4131 97.3998 71.7891 96.264L72.9467 97.4653C73.3181 97.8475 73.9187 97.8475 74.3009 97.4762C74.6831 97.1049 74.6941 96.4933 74.3228 96.1111L73.187 94.9317C74.3774 93.5884 75.0545 92.2015 75.2073 90.7599C75.393 89.0891 74.8579 87.6038 73.602 86.3043C73.0778 85.7692 72.5208 85.376 71.9093 85.1248Z" fill="#92CE8C"/>
<path d="M74.2257 81.9578H4.23452C1.0129 81.9578 0.761719 78.4741 0.761719 78.4741V132.455C0.761719 137.282 4.66043 141.203 9.47649 141.203H74.2257C79.0309 141.203 82.9296 137.282 82.9296 132.455V90.7054C82.9296 85.8675 79.0309 81.9578 74.2257 81.9578Z" fill="#997330"/>
<path d="M5.30432 138.419H4.03751C3.76449 138.419 3.53516 138.2 3.53516 137.916C3.53516 137.632 3.76449 137.414 4.03751 137.414H5.30432C5.57734 137.414 5.80668 137.632 5.80668 137.916C5.80668 138.2 5.57734 138.419 5.30432 138.419Z" fill="#7C5533"/>
<path d="M10.4164 85.7464H7.86093C7.58791 85.7464 7.35858 85.528 7.35858 85.2441C7.35858 84.9601 7.58791 84.7417 7.86093 84.7417H10.4164C10.6894 84.7417 10.9187 84.9601 10.9187 85.2441C10.9187 85.528 10.6894 85.7464 10.4164 85.7464ZM15.5164 85.7464H12.9719C12.6879 85.7464 12.4586 85.528 12.4586 85.2441C12.4586 84.9601 12.6879 84.7417 12.9719 84.7417H15.5164C15.8003 84.7417 16.0187 84.9601 16.0187 85.2441C16.0187 85.528 15.8003 85.7464 15.5164 85.7464ZM20.6164 85.7464H18.0718C17.7879 85.7464 17.5695 85.528 17.5695 85.2441C17.5695 84.9601 17.7879 84.7417 18.0718 84.7417H20.6164C20.9003 84.7417 21.1297 84.9601 21.1297 85.2441C21.1297 85.528 20.9003 85.7464 20.6164 85.7464ZM25.7273 85.7464H23.1718C22.8988 85.7464 22.6695 85.528 22.6695 85.2441C22.6695 84.9601 22.8988 84.7417 23.1718 84.7417H25.7273C26.0003 84.7417 26.2297 84.9601 26.2297 85.2441C26.2297 85.528 26.0003 85.7464 25.7273 85.7464ZM30.8273 85.7464H28.2718C27.9988 85.7464 27.7695 85.528 27.7695 85.2441C27.7695 84.9601 27.9988 84.7417 28.2718 84.7417H30.8273C31.1112 84.7417 31.3297 84.9601 31.3297 85.2441C31.3297 85.528 31.1112 85.7464 30.8273 85.7464ZM35.9273 85.7464H33.3828C33.0988 85.7464 32.8804 85.528 32.8804 85.2441C32.8804 84.9601 33.0988 84.7417 33.3828 84.7417H35.9273C36.2112 84.7417 36.4297 84.9601 36.4297 85.2441C36.4297 85.528 36.2112 85.7464 35.9273 85.7464ZM41.0382 85.7464H38.4828C38.2097 85.7464 37.9804 85.528 37.9804 85.2441C37.9804 84.9601 38.2097 84.7417 38.4828 84.7417H41.0382C41.3112 84.7417 41.5406 84.9601 41.5406 85.2441C41.5406 85.528 41.3112 85.7464 41.0382 85.7464ZM46.1382 85.7464H43.5828C43.3097 85.7464 43.0804 85.528 43.0804 85.2441C43.0804 84.9601 43.3097 84.7417 43.5828 84.7417H46.1382C46.4112 84.7417 46.6406 84.9601 46.6406 85.2441C46.6406 85.528 46.4112 85.7464 46.1382 85.7464ZM51.2382 85.7464H48.6937C48.4097 85.7464 48.1804 85.528 48.1804 85.2441C48.1804 84.9601 48.4097 84.7417 48.6937 84.7417H51.2382C51.5222 84.7417 51.7406 84.9601 51.7406 85.2441C51.7406 85.528 51.5222 85.7464 51.2382 85.7464ZM56.3382 85.7464H53.7937C53.5097 85.7464 53.2913 85.528 53.2913 85.2441C53.2913 84.9601 53.5097 84.7417 53.7937 84.7417H56.3382C56.6222 84.7417 56.8515 84.9601 56.8515 85.2441C56.8515 85.528 56.6222 85.7464 56.3382 85.7464ZM61.4491 85.7464H58.8937C58.6207 85.7464 58.3913 85.528 58.3913 85.2441C58.3913 84.9601 58.6207 84.7417 58.8937 84.7417H61.4491C61.7222 84.7417 61.9515 84.9601 61.9515 85.2441C61.9515 85.528 61.7222 85.7464 61.4491 85.7464ZM66.5491 85.7464H63.9937C63.7207 85.7464 63.4913 85.528 63.4913 85.2441C63.4913 84.9601 63.7207 84.7417 63.9937 84.7417H66.5491C66.8331 84.7417 67.0515 84.9601 67.0515 85.2441C67.0515 85.528 66.8331 85.7464 66.5491 85.7464ZM71.6491 85.7464H69.1046C68.8207 85.7464 68.6022 85.528 68.6022 85.2441C68.6022 84.9601 68.8207 84.7417 69.1046 84.7417H71.6491C71.9331 84.7417 72.1624 84.9601 72.1624 85.2441C72.1624 85.528 71.9331 85.7464 71.6491 85.7464ZM76.6618 86.3361C76.5853 86.3361 76.5089 86.3143 76.4433 86.2815C75.7444 85.9211 75.0018 85.7464 74.2264 85.7464C73.9425 85.7464 73.7132 85.528 73.7132 85.2441C73.7132 84.9601 73.9316 84.7417 74.2046 84.7417C75.1656 84.7417 76.0611 84.9492 76.8911 85.3751C77.1423 85.4952 77.2406 85.801 77.1204 86.0522C77.0221 86.2269 76.8474 86.3361 76.6618 86.3361ZM79.5885 90.3113C79.3373 90.3113 79.1299 90.1366 79.0862 89.8854C78.966 89.1209 78.6493 88.3892 78.1907 87.7668C78.0269 87.5374 78.0705 87.2207 78.2999 87.0569C78.5183 86.8931 78.835 86.9368 78.9988 87.1661C79.5558 87.9196 79.9271 88.8042 80.08 89.7216C80.1236 89.9946 79.938 90.2567 79.665 90.3004C79.6431 90.3113 79.6104 90.3113 79.5885 90.3113ZM79.6541 95.4331C79.381 95.4331 79.1517 95.2038 79.1517 94.9199V92.3644C79.1517 92.0805 79.381 91.8511 79.6541 91.8511C79.938 91.8511 80.1673 92.0805 80.1673 92.3644V94.9199C80.1673 95.2038 79.938 95.4331 79.6541 95.4331ZM79.6541 100.555C79.381 100.555 79.1517 100.326 79.1517 100.053V97.4862C79.1517 97.2023 79.381 96.9839 79.6541 96.9839C79.938 96.9839 80.1673 97.2023 80.1673 97.4862V100.053C80.1673 100.326 79.938 100.555 79.6541 100.555ZM79.6541 105.688C79.381 105.688 79.1517 105.458 79.1517 105.174V102.608C79.1517 102.335 79.381 102.106 79.6541 102.106C79.938 102.106 80.1673 102.335 80.1673 102.608V105.174C80.1673 105.458 79.938 105.688 79.6541 105.688ZM79.6541 110.81C79.381 110.81 79.1517 110.58 79.1517 110.307V107.741C79.1517 107.457 79.381 107.238 79.6541 107.238C79.938 107.238 80.1673 107.457 80.1673 107.741V110.307C80.1673 110.58 79.938 110.81 79.6541 110.81ZM79.6541 115.931C79.381 115.931 79.1517 115.713 79.1517 115.429V112.863C79.1517 112.59 79.381 112.36 79.6541 112.36C79.938 112.36 80.1673 112.59 80.1673 112.863V115.429C80.1673 115.713 79.938 115.931 79.6541 115.931ZM79.6541 121.064C79.381 121.064 79.1517 120.835 79.1517 120.551V117.995C79.1517 117.711 79.381 117.482 79.6541 117.482C79.938 117.482 80.1673 117.711 80.1673 117.995V120.551C80.1673 120.835 79.938 121.064 79.6541 121.064ZM79.6541 126.186C79.381 126.186 79.1517 125.968 79.1517 125.684V123.117C79.1517 122.844 79.381 122.615 79.6541 122.615C79.938 122.615 80.1673 122.844 80.1673 123.117V125.684C80.1673 125.968 79.938 126.186 79.6541 126.186ZM79.6541 131.319C79.381 131.319 79.1517 131.089 79.1517 130.805V128.25C79.1517 127.966 79.381 127.737 79.6541 127.737C79.938 127.737 80.1673 127.966 80.1673 128.25V130.805C80.1673 131.089 79.938 131.319 79.6541 131.319ZM78.5947 136.211C78.4855 136.211 78.3763 136.178 78.289 136.113C78.0705 135.938 78.0159 135.622 78.1907 135.403C78.6493 134.781 78.9551 134.049 79.0862 133.284C79.1299 133.011 79.392 132.826 79.665 132.87C79.938 132.913 80.1236 133.175 80.08 133.448C79.9271 134.377 79.5448 135.25 78.9988 136.004C78.9005 136.135 78.7476 136.211 78.5947 136.211ZM10.4055 138.417H7.85001C7.57699 138.417 7.34766 138.199 7.34766 137.915C7.34766 137.631 7.57699 137.413 7.85001 137.413H10.4055C10.6785 137.413 10.9078 137.631 10.9078 137.915C10.9078 138.199 10.6785 138.417 10.4055 138.417ZM15.5055 138.417H12.95C12.677 138.417 12.4477 138.199 12.4477 137.915C12.4477 137.631 12.677 137.413 12.95 137.413H15.5055C15.7894 137.413 16.0078 137.631 16.0078 137.915C16.0078 138.199 15.7894 138.417 15.5055 138.417ZM20.6055 138.417H18.0609C17.777 138.417 17.5586 138.199 17.5586 137.915C17.5586 137.631 17.777 137.413 18.0609 137.413H20.6055C20.8894 137.413 21.1187 137.631 21.1187 137.915C21.1187 138.199 20.8894 138.417 20.6055 138.417ZM25.7164 138.417H23.1609C22.8879 138.417 22.6586 138.199 22.6586 137.915C22.6586 137.631 22.8879 137.413 23.1609 137.413H25.7164C25.9894 137.413 26.2187 137.631 26.2187 137.915C26.2187 138.199 25.9894 138.417 25.7164 138.417ZM30.8164 138.417H28.2609C27.9879 138.417 27.7586 138.199 27.7586 137.915C27.7586 137.631 27.9879 137.413 28.2609 137.413H30.8164C31.1003 137.413 31.3187 137.631 31.3187 137.915C31.3187 138.199 31.1003 138.417 30.8164 138.417ZM35.9164 138.417H33.3718C33.0879 138.417 32.8586 138.199 32.8586 137.915C32.8586 137.631 33.0879 137.413 33.3718 137.413H35.9164C36.2003 137.413 36.4187 137.631 36.4187 137.915C36.4187 138.199 36.2003 138.417 35.9164 138.417ZM41.0273 138.417H38.4718C38.1988 138.417 37.9695 138.199 37.9695 137.915C37.9695 137.631 38.1988 137.413 38.4718 137.413H41.0273C41.3003 137.413 41.5297 137.631 41.5297 137.915C41.5297 138.199 41.3003 138.417 41.0273 138.417ZM46.1273 138.417H43.5718C43.2988 138.417 43.0695 138.199 43.0695 137.915C43.0695 137.631 43.2988 137.413 43.5718 137.413H46.1273C46.4003 137.413 46.6297 137.631 46.6297 137.915C46.6297 138.199 46.4003 138.417 46.1273 138.417ZM51.2273 138.417H48.6828C48.3988 138.417 48.1695 138.199 48.1695 137.915C48.1695 137.631 48.3988 137.413 48.6828 137.413H51.2273C51.5112 137.413 51.7297 137.631 51.7297 137.915C51.7297 138.199 51.5112 138.417 51.2273 138.417ZM56.3382 138.417H53.7828C53.4988 138.417 53.2804 138.199 53.2804 137.915C53.2804 137.631 53.4988 137.413 53.7828 137.413H56.3382C56.6112 137.413 56.8406 137.631 56.8406 137.915C56.8406 138.199 56.6112 138.417 56.3382 138.417ZM61.4382 138.417H58.8828C58.6097 138.417 58.3804 138.199 58.3804 137.915C58.3804 137.631 58.6097 137.413 58.8828 137.413H61.4382C61.7112 137.413 61.9406 137.631 61.9406 137.915C61.9406 138.199 61.7112 138.417 61.4382 138.417ZM66.5382 138.417H63.9828C63.7097 138.417 63.4804 138.199 63.4804 137.915C63.4804 137.631 63.7097 137.413 63.9828 137.413H66.5382C66.8222 137.413 67.0406 137.631 67.0406 137.915C67.0406 138.199 66.8222 138.417 66.5382 138.417ZM71.6382 138.417H69.0937C68.8097 138.417 68.5913 138.199 68.5913 137.915C68.5913 137.631 68.8097 137.413 69.0937 137.413H71.6382C71.9221 137.413 72.1515 137.631 72.1515 137.915C72.1515 138.199 71.9221 138.417 71.6382 138.417ZM74.2264 138.417C73.9425 138.417 73.7022 138.199 73.7022 137.915C73.7022 137.631 73.9206 137.413 74.1937 137.413H74.2264C75.0018 137.413 75.7444 137.227 76.4324 136.888C76.6836 136.757 76.9785 136.856 77.1095 137.107C77.2296 137.358 77.1314 137.664 76.8802 137.795C76.0502 138.21 75.1547 138.417 74.2264 138.417Z" fill="#7C5533"/>
<path d="M5.30469 85.747H4.02697C3.75395 85.7361 3.52461 85.5067 3.53553 85.2337C3.54645 84.9498 3.76487 84.7095 4.04881 84.7314L5.30469 84.7423C5.57772 84.7423 5.80705 84.9607 5.80705 85.2446C5.80705 85.5286 5.57772 85.747 5.30469 85.747Z" fill="#7C5533"/>
<path d="M70.8612 101.701H91.4468C93.358 101.701 93.5109 99.6265 93.5109 99.6265V110.241C93.5109 113.125 91.1847 115.462 88.3126 115.462H70.8612C68 115.462 65.6738 113.125 65.6738 110.241V106.911C65.6738 104.038 68 101.701 70.8612 101.701Z" fill="#A77E38"/>
<path d="M75.3513 108.659C75.3513 110.537 73.8333 112.066 71.955 112.066C70.0766 112.066 68.5586 110.537 68.5586 108.659C68.5586 106.77 70.0766 105.241 71.955 105.241C73.8333 105.241 75.3513 106.77 75.3513 108.659Z" fill="#7C5533"/>
<path d="M190.157 128.709C190.157 135.611 184.587 141.203 177.718 141.203H135.924C129.044 141.203 123.475 135.611 123.475 128.709V38.6239C123.475 31.722 129.044 26.1196 135.924 26.1196H177.718C184.587 26.1196 190.157 31.722 190.157 38.6239V128.709Z" fill="#323261"/>
<path d="M187.831 128.687H125.801V38.645H187.831V128.687Z" fill="#7484CA"/>
<path d="M160.455 134.967C160.455 136.987 158.828 138.625 156.818 138.625C154.809 138.625 153.182 136.987 153.182 134.967C153.182 132.957 154.809 131.319 156.818 131.319C158.828 131.319 160.455 132.957 160.455 134.967Z" fill="#27234A"/>
<path d="M166.636 33.7418C166.636 34.3534 166.134 34.8448 165.522 34.8448H148.115C147.503 34.8448 147.012 34.3534 147.012 33.7418C147.012 33.1194 147.503 32.6279 148.115 32.6279H165.522C166.134 32.6279 166.636 33.1194 166.636 33.7418Z" fill="#27234A"/>
<path d="M163.829 108.31H149.807V59.0132H163.829V108.31Z" fill="#6377C4"/>
<path d="M161.089 106.114H152.549V61.2183H161.089V106.114Z" fill="#5A66B0"/>
<path d="M156.635 66.3842C153.96 64.9754 150.913 64.1782 147.691 64.1782C136.978 64.1782 128.285 72.9039 128.285 83.6609C128.285 94.4287 136.978 103.154 147.691 103.154C150.913 103.154 153.96 102.357 156.635 100.948V66.3842Z" fill="#FFEF45"/>
<path d="M156.635 70.5569C154.09 68.7987 151.01 67.7612 147.691 67.7612C138.943 67.7612 131.855 74.8816 131.855 83.6619C131.855 92.4531 138.943 99.5625 147.691 99.5625C151.01 99.5625 154.09 98.5359 156.635 96.7777V70.5569Z" fill="#FBD640"/>
<path d="M154.667 85.8565C154.394 85.245 154.012 84.7208 153.499 84.2839C152.833 83.7161 151.468 83.1809 149.425 82.6895L149.152 82.624C148.901 82.5694 148.541 82.482 148.082 82.3619C144.948 81.6411 143.375 80.5381 143.375 79.0638C143.375 78.1355 143.758 77.3929 144.511 76.836C145.276 76.279 146.28 75.9951 147.547 75.9951C148.901 75.9951 149.961 76.3336 150.747 77.0216C151.511 77.6987 151.937 78.6597 152.036 79.9156C152.036 79.9266 152.036 79.9265 152.036 79.9375C152.036 80.6364 152.593 81.1934 153.281 81.1934C153.958 81.1934 154.515 80.6364 154.515 79.9375C154.515 79.861 154.515 79.7846 154.493 79.7081C154.427 77.9281 153.827 76.5193 152.68 75.4818C151.653 74.5754 150.321 74.0512 148.661 73.8983V71.736C148.661 71.1899 148.224 70.7422 147.689 70.7422C147.143 70.7422 146.706 71.1899 146.706 71.736V73.9092C145.112 74.0512 143.801 74.5535 142.775 75.4054C141.53 76.4428 140.918 77.8079 140.918 79.5116C140.918 80.9094 141.333 81.9797 142.163 82.7332C142.993 83.4867 144.697 84.1747 147.274 84.7863C147.383 84.8191 147.525 84.8518 147.722 84.8955C150.9 85.66 152.494 86.763 152.494 88.2263C152.494 89.2966 152.068 90.1484 151.216 90.7709C150.376 91.3934 149.218 91.6991 147.744 91.6991C146.258 91.6991 145.068 91.2951 144.173 90.476C143.277 89.646 142.829 88.543 142.797 87.167C142.786 86.479 142.24 85.933 141.563 85.933C140.875 85.933 140.328 86.479 140.318 87.167H140.307C140.405 89.3512 141.093 91.033 142.382 92.2015C143.463 93.1844 144.904 93.7522 146.706 93.9051V95.5979C146.706 96.1439 147.143 96.5807 147.689 96.5807C148.224 96.5807 148.661 96.1439 148.661 95.5979V93.927C150.485 93.7959 151.959 93.2608 153.095 92.3216C154.405 91.2405 155.061 89.7662 155.061 87.9315C155.061 87.167 154.93 86.479 154.667 85.8565Z" fill="#FFEF45"/>
<path d="M147.688 64.9199C147.47 64.9199 147.295 65.0947 147.295 65.3131V66.7765C147.295 66.9949 147.47 67.1696 147.688 67.1696C147.896 67.1696 148.07 66.9949 148.07 66.7765V65.3131C148.07 65.0947 147.896 64.9199 147.688 64.9199Z" fill="#FBD640"/>
<path d="M147.688 100.163C147.47 100.163 147.295 100.337 147.295 100.556V102.019C147.295 102.238 147.47 102.412 147.688 102.412C147.896 102.412 148.07 102.238 148.07 102.019V100.556C148.07 100.337 147.896 100.163 147.688 100.163Z" fill="#FBD640"/>
<path d="M131.264 83.6601C131.264 83.4526 131.089 83.2778 130.882 83.2778H129.419C129.2 83.2778 129.025 83.4526 129.025 83.6601C129.025 83.8785 129.2 84.0532 129.419 84.0532H130.882C131.089 84.0532 131.264 83.8785 131.264 83.6601Z" fill="#FBD640"/>
<path d="M135.524 95.3349L134.497 96.3724C134.345 96.5252 134.345 96.7655 134.497 96.9184C134.639 97.0713 134.891 97.0713 135.044 96.9184L136.07 95.8809C136.223 95.728 136.223 95.4769 136.07 95.3349C135.917 95.182 135.677 95.182 135.524 95.3349Z" fill="#FBD640"/>
<path d="M135.044 70.414C134.891 70.2611 134.639 70.2611 134.497 70.414C134.345 70.5669 134.345 70.8071 134.497 70.96L135.524 71.9975C135.677 72.1504 135.917 72.1504 136.07 71.9975C136.223 71.8446 136.223 71.6044 136.07 71.4515L135.044 70.414Z" fill="#FBD640"/>
<path d="M155.172 66.4928C154.975 66.4055 154.746 66.4929 154.658 66.6894L154.069 68.0436C153.992 68.2402 154.079 68.4695 154.276 68.5569C154.473 68.6442 154.702 68.546 154.778 68.3494L155.368 67.0061C155.455 66.8096 155.368 66.5802 155.172 66.4928Z" fill="#FBD640"/>
<path d="M141.104 98.7749C140.907 98.6875 140.678 98.7749 140.59 98.9824L140.001 100.326C139.913 100.522 140.001 100.752 140.197 100.839C140.394 100.926 140.623 100.828 140.711 100.631L141.3 99.2882C141.388 99.0916 141.3 98.8622 141.104 98.7749Z" fill="#FBD640"/>
<path d="M132.443 76.5401L131.099 75.9504C130.903 75.863 130.673 75.9504 130.586 76.1469C130.51 76.3435 130.597 76.5729 130.794 76.6602L132.126 77.2499C132.322 77.3373 132.552 77.2499 132.639 77.0534C132.727 76.8568 132.639 76.6275 132.443 76.5401Z" fill="#FBD640"/>
<path d="M131.887 89.4487L130.532 89.9838C130.325 90.0711 130.227 90.2896 130.303 90.4861C130.38 90.6936 130.609 90.7919 130.806 90.7155L132.171 90.1804C132.367 90.1039 132.465 89.8746 132.389 89.678C132.313 89.4705 132.094 89.3722 131.887 89.4487Z" fill="#FBD640"/>
<path d="M154.165 99.2444C154.088 99.0478 153.859 98.9495 153.662 99.0259C153.466 99.1024 153.367 99.3317 153.444 99.5283L153.979 100.904C154.055 101.101 154.285 101.199 154.481 101.123C154.678 101.046 154.776 100.817 154.7 100.62L154.165 99.2444Z" fill="#FBD640"/>
<path d="M141.385 66.4275C141.309 66.2309 141.09 66.1326 140.894 66.2091C140.686 66.2855 140.588 66.5148 140.664 66.7114L141.2 68.0765C141.276 68.284 141.505 68.3823 141.702 68.3058C141.899 68.2185 141.997 68.0001 141.92 67.8035L141.385 66.4275Z" fill="#FBD640"/>
<path d="M96.8223 26.534L100.645 30.1051C101.966 31.35 108.464 26.5012 115.158 19.2717C121.853 12.053 126.199 5.19478 124.878 3.96074L121.055 0.389648L96.8223 26.534Z" fill="#FBD22D"/>
<path d="M121.054 0.39026C122.954 2.15942 119.056 9.44358 112.372 16.6731C105.678 23.8917 98.7212 28.3037 96.821 26.5346C94.9317 24.7654 98.8195 17.4813 105.514 10.2626C112.208 3.03309 119.165 -1.3789 121.054 0.39026Z" fill="#FFEF45"/>
<path d="M118.828 2.79306C120.379 4.2346 117.201 10.1864 111.74 16.0836C106.28 21.9699 100.601 25.5738 99.0504 24.1322C97.5105 22.6907 100.688 16.7389 106.149 10.8417C111.609 4.95537 117.288 1.35151 118.828 2.79306Z" fill="#FBD640"/>
<path d="M113.679 9.11528C113.406 9.20265 113.068 9.37738 112.675 9.63948C112.161 9.99987 111.211 10.8298 109.846 12.1294L109.672 12.3041C109.508 12.468 109.267 12.6864 108.951 12.9812C106.865 14.9797 105.696 15.8534 105.434 15.6022C105.281 15.4493 105.38 15.078 105.751 14.4774C106.133 13.8767 106.712 13.145 107.509 12.2932C108.35 11.3868 109.071 10.7206 109.682 10.3056C110.283 9.90158 110.72 9.77053 110.993 9.9125C110.993 9.9125 110.993 9.9125 111.004 9.92342C111.124 10.0326 111.561 9.74869 111.998 9.29002C112.424 8.82043 112.675 8.36175 112.555 8.24162C112.533 8.2307 112.522 8.21978 112.5 8.21978C112.14 7.97952 111.517 8.15426 110.622 8.7549C109.824 9.29002 108.896 10.1091 107.837 11.2012L107.455 10.8408C107.356 10.7534 107.007 10.9718 106.668 11.3322C106.33 11.7035 106.133 12.0748 106.232 12.1622L106.614 12.5226C105.642 13.6146 104.91 14.5866 104.419 15.4166C103.829 16.4213 103.676 17.0656 103.982 17.3495C104.222 17.568 104.67 17.4697 105.325 17.0328C105.969 16.596 107.16 15.5585 108.885 13.9204C108.951 13.8549 109.049 13.7675 109.169 13.6474C111.299 11.6161 112.489 10.7316 112.74 10.9718C112.937 11.1465 112.817 11.5725 112.391 12.2495C111.976 12.9266 111.31 13.7566 110.381 14.7504C109.453 15.7442 108.645 16.4868 107.946 16.9455C107.236 17.4151 106.756 17.5461 106.505 17.3277C106.373 17.2294 105.937 17.5024 105.511 17.9611C105.085 18.4198 104.834 18.8894 104.954 19.0095H104.943C105.391 19.3044 106.111 19.1187 107.127 18.4416C107.968 17.8737 108.973 17.0001 110.13 15.8097L110.425 16.0827C110.523 16.181 110.873 15.9517 111.211 15.5913C111.55 15.22 111.746 14.8596 111.648 14.7613L111.353 14.4883C112.467 13.2433 113.297 12.1622 113.843 11.2448C114.466 10.1746 114.619 9.49751 114.302 9.19173C114.16 9.06068 113.963 9.03884 113.679 9.11528Z" fill="#FFEF45"/>
<path d="M105.643 10.3828C105.512 10.5248 105.436 10.6668 105.469 10.7104L105.731 10.9507C105.763 10.9835 105.905 10.8961 106.036 10.7541C106.167 10.6012 106.255 10.4593 106.211 10.4265L105.949 10.1863C105.916 10.1426 105.774 10.2409 105.643 10.3828Z" fill="#FBD640"/>
<path d="M111.836 16.1815C111.705 16.3234 111.629 16.4654 111.672 16.4982L111.924 16.7384C111.967 16.7821 112.098 16.6947 112.24 16.5418C112.371 16.3999 112.448 16.2579 112.415 16.2251L112.153 15.9849C112.109 15.9412 111.978 16.0286 111.836 16.1815Z" fill="#FBD640"/>
<path d="M120.289 1.07747L119.372 2.07126C119.241 2.21323 119.164 2.35521 119.197 2.39889C119.241 2.43165 119.372 2.34428 119.514 2.19139L120.42 1.20852C120.562 1.06655 120.639 0.924584 120.595 0.880901C120.562 0.848138 120.42 0.935506 120.289 1.07747Z" fill="#FBD640"/>
<path d="M98.6766 24.5357C98.6439 24.492 98.5019 24.5793 98.3708 24.7322L97.4535 25.7151C97.3224 25.8571 97.246 25.999 97.2897 26.0427C97.3224 26.0755 97.4644 25.9881 97.5955 25.8462L98.5128 24.8524C98.6439 24.7104 98.7203 24.5684 98.6766 24.5357Z" fill="#FBD640"/>
<path d="M114.51 2.76041L114.04 3.62315C113.975 3.7542 114.018 3.79788 114.138 3.72144C114.259 3.64499 114.412 3.48118 114.488 3.35013L114.947 2.47647C115.012 2.35634 114.968 2.31266 114.848 2.3891C114.728 2.46555 114.575 2.62936 114.51 2.76041Z" fill="#FBD640"/>
<path d="M103.395 23.5744L102.936 24.4481C102.86 24.5682 102.903 24.6119 103.034 24.5355C103.154 24.459 103.307 24.2952 103.373 24.1642L103.832 23.3014C103.908 23.1704 103.864 23.1267 103.733 23.2031C103.613 23.2796 103.46 23.4543 103.395 23.5744Z" fill="#FBD640"/>
<path d="M118.586 7.18235C118.466 7.25879 118.313 7.4226 118.247 7.55365C118.182 7.6847 118.225 7.71746 118.346 7.64102L119.175 7.11682C119.296 7.04038 119.449 6.87656 119.514 6.74551C119.58 6.62539 119.536 6.5817 119.416 6.65815L118.586 7.18235Z" fill="#FBD640"/>
<path d="M98.7067 19.808C98.5865 19.8844 98.4336 20.0482 98.3681 20.1793C98.2917 20.2994 98.3353 20.3431 98.4555 20.2666L99.2855 19.7425C99.4165 19.666 99.5694 19.5022 99.6349 19.3711C99.7004 19.2401 99.6568 19.2073 99.5366 19.2838L98.7067 19.808Z" fill="#FBD640"/>
<path d="M110.591 5.58783C110.46 5.70795 110.329 5.88269 110.307 5.97005L110.187 6.59254C110.165 6.6799 110.263 6.65806 110.394 6.53793C110.536 6.4178 110.656 6.254 110.678 6.15571L110.809 5.54414C110.831 5.45678 110.733 5.47862 110.591 5.58783Z" fill="#FBD640"/>
<path d="M107.49 20.3863C107.348 20.5065 107.217 20.6703 107.195 20.7686L107.075 21.3801C107.053 21.4675 107.152 21.4457 107.283 21.3364C107.425 21.2163 107.556 21.0416 107.567 20.9542L107.698 20.3427C107.72 20.2444 107.621 20.2662 107.49 20.3863Z" fill="#FBD640"/>
<path d="M120.728 3.22981L119.789 4.03795C119.647 4.15808 119.527 4.32189 119.505 4.40926C119.483 4.50755 119.581 4.47478 119.723 4.36557L120.663 3.55744C120.794 3.43731 120.925 3.2735 120.947 3.17521C120.957 3.08784 120.87 3.10969 120.728 3.22981Z" fill="#FBD640"/>
<path d="M98.1637 22.5706L97.2245 23.3679C97.0825 23.488 96.9624 23.6627 96.9405 23.7501C96.9187 23.8374 97.017 23.8156 97.159 23.6955L98.0981 22.8873C98.2292 22.7781 98.3602 22.6034 98.3821 22.516C98.393 22.4287 98.3056 22.4505 98.1637 22.5706Z" fill="#FBD640"/>
<path d="M117.79 1.86501L118.544 0.860295C118.664 0.707406 118.686 0.609119 118.598 0.630959C118.511 0.652799 118.358 0.78385 118.249 0.92582L117.484 1.94145C117.375 2.08342 117.353 2.19263 117.441 2.17079C117.528 2.14895 117.681 2.00698 117.79 1.86501Z" fill="#FBD640"/>
<path d="M100.086 25.0605L99.332 26.0652C99.2228 26.2181 99.2009 26.3164 99.2883 26.2946C99.3647 26.2836 99.5285 26.1417 99.6377 25.9997L100.391 24.995C100.511 24.8421 100.522 24.7438 100.446 24.7547C100.359 24.7766 100.206 24.9185 100.086 25.0605Z" fill="#FBD640"/>
<path d="M115.735 11.6609C115.648 11.6827 115.484 11.8138 115.375 11.9557C115.266 12.1086 115.244 12.2069 115.331 12.196L115.899 12.054C115.986 12.0322 116.139 11.9011 116.26 11.7591C116.369 11.6063 116.391 11.508 116.303 11.5189L115.735 11.6609Z" fill="#FBD640"/>
<path d="M101.978 14.8704C101.902 14.8922 101.738 15.0233 101.629 15.1762C101.52 15.3182 101.498 15.4274 101.585 15.4055L102.153 15.2745C102.24 15.2526 102.393 15.1107 102.503 14.9687C102.623 14.8158 102.634 14.7175 102.557 14.7394L101.978 14.8704Z" fill="#FBD640"/>
<path d="M84.1944 26.5345L80.3721 30.1055C79.0507 31.3505 72.5529 26.5017 65.8584 19.2721C59.164 12.0535 54.8175 5.19527 56.1389 3.96123L59.9612 0.390137L84.1944 26.5345Z" fill="#FBD22D"/>
<path d="M59.9636 0.39026C58.0633 2.15942 61.9621 9.44358 68.6565 16.6731C75.34 23.8917 82.3074 28.3037 84.1967 26.5346C86.086 24.7654 82.1982 17.4813 75.5038 10.2626C68.8094 3.03309 61.8528 -1.3789 59.9636 0.39026Z" fill="#FFEF45"/>
<path d="M62.1918 2.79306C60.641 4.2346 63.819 10.1864 69.2794 16.0836C74.7397 21.9699 80.4185 25.5738 81.9693 24.1322C83.5091 22.6907 80.3421 16.7389 74.8708 10.8417C69.4104 4.95537 63.7316 1.35151 62.1918 2.79306Z" fill="#FBD640"/>
<path d="M67.3362 9.11528C67.6092 9.20265 67.9477 9.37738 68.3409 9.63948C68.8542 9.99987 69.8043 10.8298 71.1694 12.1294L71.3441 12.3041C71.5079 12.468 71.7482 12.6864 72.0649 12.9812C74.1507 14.9797 75.3193 15.8534 75.5814 15.6022C75.7452 15.4493 75.636 15.078 75.2646 14.4774C74.8824 13.8767 74.3036 13.145 73.5173 12.2932C72.6655 11.3868 71.9447 10.7206 71.3332 10.3056C70.7435 9.90158 70.2957 9.77053 70.0227 9.9125C70.0227 9.9125 70.0227 9.9125 70.0227 9.92342C69.8916 10.0326 69.4548 9.74869 69.018 9.29002C68.5921 8.82043 68.3409 8.36175 68.461 8.24162C68.4829 8.2307 68.4938 8.21978 68.5265 8.21978C68.876 7.97952 69.4985 8.15426 70.4049 8.7549C71.2021 9.29002 72.1304 10.1091 73.1897 11.2012L73.561 10.8408C73.6593 10.7534 74.0088 10.9718 74.3473 11.3322C74.6859 11.7035 74.8824 12.0748 74.7951 12.1622L74.4128 12.5226C75.3739 13.6146 76.1055 14.5866 76.597 15.4166C77.1867 16.4213 77.3396 17.0656 77.0447 17.3495C76.7936 17.568 76.3458 17.4697 75.6906 17.0328C75.0462 16.596 73.8559 15.5585 72.1304 13.9204C72.0649 13.8549 71.9666 13.7675 71.8464 13.6474C69.7169 11.6161 68.5265 10.7316 68.2754 10.9718C68.0897 11.1465 68.1989 11.5725 68.6248 12.2495C69.0398 12.9266 69.706 13.7566 70.6342 14.7504C71.5625 15.7442 72.3706 16.4868 73.0805 16.9455C73.7794 17.4151 74.2599 17.5461 74.522 17.3277C74.6422 17.2294 75.079 17.5024 75.5049 17.9611C75.9308 18.4198 76.182 18.8894 76.0728 19.0095C75.625 19.3044 74.9043 19.1187 73.8886 18.4416C73.0477 17.8737 72.043 17.0001 70.8854 15.8097L70.5906 16.0827C70.4923 16.181 70.1428 15.9517 69.8043 15.5913C69.4657 15.22 69.2691 14.8596 69.3674 14.7613L69.6623 14.4883C68.5484 13.2433 67.7184 12.1622 67.1724 11.2448C66.5499 10.1746 66.397 9.49751 66.7246 9.19173C66.8557 9.06068 67.0632 9.03884 67.3362 9.11528Z" fill="#FFEF45"/>
<path d="M75.3743 10.3828C75.5053 10.5248 75.5927 10.6668 75.549 10.7104L75.2869 10.9507C75.2541 10.9835 75.1122 10.8961 74.9811 10.7541C74.8501 10.6012 74.7736 10.4593 74.8064 10.4265L75.0685 10.1863C75.1013 10.1426 75.2432 10.2409 75.3743 10.3828Z" fill="#FBD640"/>
<path d="M69.1818 16.1815C69.3128 16.3234 69.3893 16.4654 69.3565 16.4982L69.0944 16.7384C69.0507 16.7821 68.9197 16.6947 68.7777 16.5418C68.6467 16.3999 68.5702 16.2579 68.6139 16.2251L68.8651 15.9849C68.9088 15.9412 69.0398 16.0286 69.1818 16.1815Z" fill="#FBD640"/>
<path d="M60.7255 1.07699L61.6428 2.07078C61.7739 2.21275 61.8503 2.35472 61.8175 2.3984C61.7848 2.43116 61.6428 2.34379 61.5118 2.1909L60.5944 1.20804C60.4634 1.06607 60.3869 0.924096 60.4197 0.880413C60.4524 0.84765 60.5944 0.935017 60.7255 1.07699Z" fill="#FBD640"/>
<path d="M82.3404 24.5357C82.3732 24.492 82.5151 24.5793 82.6462 24.7322L83.5635 25.7151C83.6946 25.8571 83.771 25.999 83.7382 26.0427C83.6946 26.0755 83.5635 25.9881 83.4215 25.8462L82.5151 24.8524C82.3732 24.7104 82.2967 24.5684 82.3404 24.5357Z" fill="#FBD640"/>
<path d="M66.5044 2.76041L66.974 3.62315C67.0395 3.7542 66.9958 3.79788 66.8757 3.72144C66.7556 3.64499 66.6027 3.48118 66.5371 3.35013L66.0675 2.47647C66.002 2.35634 66.0457 2.31266 66.1658 2.3891C66.286 2.46555 66.4389 2.62936 66.5044 2.76041Z" fill="#FBD640"/>
<path d="M77.6216 23.5744L78.0802 24.4481C78.1567 24.5682 78.113 24.6119 77.9929 24.5355C77.8727 24.459 77.7089 24.2952 77.6434 24.1642L77.1847 23.3014C77.1192 23.1704 77.1629 23.1267 77.283 23.2031C77.4031 23.2796 77.556 23.4543 77.6216 23.5744Z" fill="#FBD640"/>
<path d="M62.4314 7.18332C62.5515 7.25977 62.7044 7.42358 62.7699 7.55463C62.8463 7.68568 62.8027 7.71844 62.6825 7.64199L61.8526 7.1178C61.7215 7.04135 61.5686 6.87754 61.5031 6.74649C61.4376 6.62636 61.4812 6.58268 61.6014 6.65913L62.4314 7.18332Z" fill="#FBD640"/>
<path d="M82.3064 19.808C82.4265 19.8844 82.5794 20.0482 82.6558 20.1793C82.7213 20.2994 82.6777 20.3431 82.5575 20.2666L81.7276 19.7425C81.6074 19.666 81.4545 19.5022 81.3781 19.3711C81.3126 19.2401 81.3563 19.2073 81.4764 19.2838L82.3064 19.808Z" fill="#FBD640"/>
<path d="M70.4246 5.5888C70.5556 5.70893 70.6867 5.88366 70.7085 5.97103L70.8396 6.59351C70.8505 6.68088 70.7631 6.65904 70.6212 6.53891C70.4792 6.41878 70.3591 6.25497 70.3372 6.15668L70.2062 5.54512C70.1843 5.45775 70.2826 5.47959 70.4246 5.5888Z" fill="#FBD640"/>
<path d="M73.5379 20.3868C73.6689 20.507 73.8 20.6708 73.8218 20.7691L73.9419 21.3806C73.9638 21.468 73.8655 21.4461 73.7344 21.3369C73.5925 21.2168 73.4723 21.0421 73.4505 20.9547L73.3194 20.3431C73.2976 20.2449 73.3959 20.2667 73.5379 20.3868Z" fill="#FBD640"/>
<path d="M60.2915 3.22884L61.2307 4.03697C61.3727 4.1571 61.5037 4.32091 61.5146 4.40828C61.5365 4.50657 61.4382 4.4738 61.3071 4.3646L60.357 3.55646C60.226 3.43633 60.0949 3.27252 60.0731 3.17423C60.0622 3.08687 60.1605 3.10871 60.2915 3.22884Z" fill="#FBD640"/>
<path d="M82.8521 22.5706L83.7913 23.3679C83.9333 23.488 84.0534 23.6627 84.0753 23.7501C84.0971 23.8374 83.9988 23.8156 83.8569 23.6955L82.9177 22.8873C82.7866 22.7781 82.6556 22.6034 82.6337 22.516C82.6228 22.4287 82.7102 22.4505 82.8521 22.5706Z" fill="#FBD640"/>
<path d="M63.2304 1.86452L62.4769 0.859807C62.3568 0.706917 62.3349 0.60863 62.4223 0.630471C62.5096 0.652311 62.6625 0.783362 62.7827 0.925331L63.5362 1.94096C63.6454 2.08293 63.6672 2.19214 63.5799 2.1703C63.5034 2.14846 63.3396 2.00649 63.2304 1.86452Z" fill="#FBD640"/>
<path d="M80.933 25.0605L81.6865 26.0652C81.7957 26.2181 81.8176 26.3164 81.7302 26.2946C81.6538 26.2836 81.4899 26.1417 81.3807 25.9997L80.6272 24.995C80.518 24.8421 80.4962 24.7438 80.5726 24.7547C80.66 24.7766 80.8238 24.9185 80.933 25.0605Z" fill="#FBD640"/>
<path d="M65.2941 11.6609C65.3705 11.6827 65.5343 11.8138 65.6435 11.9557C65.7527 12.1086 65.7746 12.2069 65.6872 12.196L65.1193 12.054C65.032 12.0322 64.8791 11.9011 64.7699 11.7591C64.6497 11.6063 64.6279 11.508 64.7153 11.5189L65.2941 11.6609Z" fill="#FBD640"/>
<path d="M79.0401 14.8714C79.1274 14.8932 79.2803 15.0243 79.3895 15.1772C79.4987 15.3191 79.5206 15.4283 79.4441 15.4065L78.8653 15.2755C78.778 15.2536 78.6251 15.1116 78.5159 14.9697C78.4067 14.8168 78.3848 14.7185 78.4613 14.7403L79.0401 14.8714Z" fill="#FBD640"/>
<path d="M138.799 51.5541C131.33 58.74 121.119 60.2034 115.975 54.8194C110.842 49.4355 112.732 39.2355 120.19 32.0496C127.66 24.8638 137.871 23.4113 143.015 28.7953C148.148 34.1792 146.258 44.3683 138.799 51.5541Z" fill="#FBD22D"/>
<path d="M137.011 49.675C129.542 56.8609 119.331 58.3243 114.187 52.9403C109.054 47.5564 110.933 37.3564 118.402 30.1705C125.872 22.9847 136.083 21.5213 141.227 26.9162C146.36 32.3001 144.47 42.4892 137.011 49.675Z" fill="#FFEF45"/>
<path d="M135.292 47.8837C129.198 53.7482 120.866 54.9385 116.672 50.5484C112.479 46.1473 114.018 37.8366 120.112 31.9612C126.195 26.1077 134.539 24.9064 138.732 29.3075C142.926 33.6976 141.386 42.0193 135.292 47.8837Z" fill="#FBD640"/>
<path d="M129.528 44.8923C129.823 44.3463 130.009 43.8111 130.064 43.2651C130.14 42.5443 129.856 41.5069 129.212 40.1418L129.124 39.967C129.048 39.8032 128.939 39.563 128.797 39.2572C127.792 37.1932 127.814 35.6752 128.829 34.6814C129.474 34.0698 130.173 33.764 130.926 33.764C131.669 33.775 132.346 34.1026 132.958 34.736C133.602 35.4131 133.875 36.1775 133.777 37.0293C133.678 37.8593 133.22 38.7221 132.39 39.6066C132.39 39.6066 132.379 39.6176 132.368 39.6285C131.887 40.0872 131.767 40.7424 132.095 41.081C132.433 41.4304 133.089 41.3321 133.569 40.8735C133.624 40.8189 133.667 40.7642 133.711 40.7096C134.912 39.4865 135.6 38.2416 135.764 36.9747C135.917 35.8499 135.644 34.8234 134.945 33.8951L136.452 32.4426C136.834 32.0822 136.922 31.569 136.66 31.2959C136.408 31.0229 135.884 31.0994 135.513 31.4598L134.006 32.9122C133.132 32.2133 132.16 31.8857 131.079 31.9403C129.769 32.0058 128.513 32.6064 127.333 33.7422C126.372 34.6814 125.826 35.5987 125.695 36.527C125.575 37.4443 125.914 38.7657 126.722 40.4694C126.755 40.5458 126.809 40.6332 126.864 40.7642C127.868 42.872 127.858 44.4118 126.842 45.3837C126.099 46.1045 125.313 46.454 124.472 46.443C123.631 46.4321 122.856 46.0608 122.157 45.3182C121.447 44.5756 121.152 43.7019 121.294 42.7081C121.436 41.7034 121.982 40.7424 122.932 39.8032C123.402 39.3445 123.511 38.7002 123.194 38.3617C122.867 38.0122 122.222 38.1105 121.742 38.5583V38.5473C120.268 40.0653 119.427 41.5287 119.241 42.9593C119.077 44.1606 119.372 45.2636 120.126 46.2683L118.957 47.4041C118.575 47.7645 118.477 48.2777 118.739 48.5508C119.001 48.8238 119.514 48.7473 119.896 48.3869L121.054 47.273C122.015 48.103 123.096 48.4852 124.286 48.4306C125.673 48.3651 127.006 47.7099 128.283 46.4867C128.808 45.9735 129.223 45.4493 129.528 44.8923Z" fill="#FFEF45"/>
<path d="M140.7 27.4083C140.602 27.2991 140.394 27.3318 140.252 27.4738L139.226 28.4567C139.084 28.5986 139.04 28.8061 139.149 28.9044C139.247 29.0136 139.455 28.9918 139.597 28.8389L140.623 27.8669C140.765 27.714 140.809 27.5175 140.7 27.4083Z" fill="#FBD640"/>
<path d="M116.26 50.942C116.162 50.8327 115.954 50.8655 115.801 51.0075L114.786 51.9904C114.633 52.1323 114.6 52.3398 114.698 52.4381C114.808 52.5473 115.004 52.5255 115.157 52.3726L116.173 51.4006C116.326 51.2477 116.358 51.0512 116.26 50.942Z" fill="#FBD640"/>
<path d="M136.734 48.846L136.036 48.1143C135.926 48.0051 135.73 48.0379 135.577 48.1798C135.424 48.3218 135.391 48.5293 135.489 48.6385L136.188 49.3702C136.298 49.4794 136.505 49.4467 136.647 49.3047C136.8 49.1627 136.833 48.9552 136.734 48.846Z" fill="#FBD640"/>
<path d="M119.83 31.667C119.972 31.525 120.016 31.3175 119.907 31.2192L119.208 30.4766C119.109 30.3674 118.902 30.4002 118.749 30.5421C118.607 30.6841 118.563 30.8916 118.673 31.0008L119.372 31.7325C119.47 31.8417 119.677 31.809 119.83 31.667Z" fill="#FBD640"/>
<path d="M142.962 37.4323L141.749 37.607C141.564 37.6289 141.4 37.7927 141.367 37.9674C141.334 38.1531 141.444 38.2732 141.629 38.2513L142.841 38.0766C143.016 38.0438 143.191 37.88 143.224 37.7053C143.256 37.5306 143.136 37.3995 142.962 37.4323Z" fill="#FBD640"/>
<path d="M113.783 41.6047L112.559 41.7794C112.385 41.8012 112.21 41.965 112.177 42.1398C112.145 42.3254 112.265 42.4455 112.439 42.4237L113.662 42.249C113.837 42.2162 114.012 42.0524 114.045 41.8777C114.077 41.7029 113.957 41.5719 113.783 41.6047Z" fill="#FBD640"/>
<path d="M125.442 53.8254C125.474 53.6507 125.354 53.5305 125.179 53.5524C125.005 53.5742 124.83 53.738 124.797 53.9237L124.568 55.1359C124.535 55.3106 124.655 55.4307 124.83 55.4089C125.016 55.3871 125.179 55.2232 125.212 55.0376L125.442 53.8254Z" fill="#FBD640"/>
<path d="M130.829 24.7102C130.862 24.5354 130.753 24.4153 130.567 24.4371C130.393 24.4699 130.218 24.6337 130.185 24.8084L129.967 26.0206C129.934 26.1954 130.043 26.3264 130.229 26.2937C130.404 26.2718 130.578 26.108 130.611 25.9333L130.829 24.7102Z" fill="#FBD640"/>
<path d="M143.202 32.2246C143.169 32.0608 142.995 32.0062 142.82 32.0936L141.608 32.7051C141.422 32.7925 141.313 32.9891 141.346 33.142C141.378 33.2949 141.553 33.3604 141.728 33.2621L142.94 32.6615C143.126 32.5741 143.235 32.3775 143.202 32.2246Z" fill="#FBD640"/>
<path d="M114.063 46.7048C114.03 46.5519 113.855 46.4973 113.681 46.5847L112.457 47.1853C112.283 47.2727 112.163 47.4692 112.206 47.6331C112.239 47.7859 112.403 47.8406 112.589 47.7532L113.801 47.1525C113.975 47.0652 114.096 46.8577 114.063 46.7048Z" fill="#FBD640"/>
<path d="M130.949 53.0934L130.708 52.0232C130.676 51.8703 130.512 51.8157 130.326 51.903C130.151 51.9904 130.031 52.187 130.064 52.3508L130.304 53.421C130.337 53.5739 130.512 53.6285 130.686 53.5411C130.861 53.4538 130.981 53.2463 130.949 53.0934Z" fill="#FBD640"/>
<path d="M125.336 27.5065L125.107 26.4362C125.074 26.2833 124.9 26.2287 124.725 26.3161C124.539 26.4035 124.43 26.6 124.463 26.7529L124.692 27.8232C124.725 27.9761 124.9 28.0307 125.074 27.9433C125.26 27.8559 125.369 27.6594 125.336 27.5065Z" fill="#FBD640"/>
<path d="M139.292 43.9966L140.318 44.3242C140.471 44.3788 140.668 44.2696 140.777 44.1058C140.875 43.9311 140.832 43.7454 140.69 43.7017L139.663 43.3741C139.51 43.3304 139.303 43.4287 139.204 43.6034C139.106 43.7782 139.139 43.9529 139.292 43.9966Z" fill="#FBD640"/>
<path d="M116.115 35.8501L115.089 35.5224C114.936 35.4678 114.728 35.577 114.63 35.7518C114.532 35.9156 114.565 36.1012 114.717 36.1449L115.744 36.4726C115.897 36.5272 116.093 36.4179 116.203 36.2541C116.301 36.0794 116.257 35.8938 116.115 35.8501Z" fill="#FBD640"/>
<path d="M120.003 53.5956C120.101 53.4208 120.058 53.2352 119.916 53.1915C119.763 53.1478 119.555 53.2461 119.457 53.4208L118.758 54.6003C118.66 54.775 118.703 54.9497 118.845 55.0043C118.998 55.048 119.206 54.9497 119.304 54.775L120.003 53.5956Z" fill="#FBD640"/>
<path d="M136.638 25.2457C136.747 25.0819 136.703 24.8962 136.55 24.8525C136.397 24.7979 136.201 24.9071 136.092 25.0819L135.404 26.2613C135.305 26.436 135.338 26.6108 135.491 26.6544C135.644 26.7091 135.84 26.5998 135.95 26.436L136.638 25.2457Z" fill="#FBD640"/>
<path d="M42.2178 51.5541C49.6876 58.74 59.8985 60.2034 65.0422 54.8194C70.175 49.4355 68.2966 39.2355 60.8268 32.0496C53.357 24.8638 43.1461 23.4113 38.0024 28.7953C32.8696 34.1792 34.7589 44.3683 42.2178 51.5541Z" fill="#FBD22D"/>
<path d="M44.0062 49.676C51.476 56.8619 61.6979 58.3253 66.8306 52.9413C71.9743 47.5574 70.085 37.3574 62.6152 30.1715C55.1563 22.9857 44.9345 21.5223 39.8017 26.9171C34.658 32.3011 36.5473 42.4901 44.0062 49.676Z" fill="#FFEF45"/>
<path d="M45.7217 47.8837C51.8154 53.7482 60.148 54.9385 64.3416 50.5484C68.5351 46.1473 66.9953 37.8366 60.9124 31.9612C54.8186 26.1077 46.4752 24.9064 42.2816 29.3075C38.088 33.6976 39.6279 42.0193 45.7217 47.8837Z" fill="#FBD640"/>
<path d="M51.4858 44.8918C51.1909 44.3458 51.0052 43.8107 50.9506 43.2646C50.8742 42.5438 51.1581 41.5064 51.8025 40.1413L51.8898 39.9665C51.9663 39.8027 52.0755 39.5625 52.2174 39.2567C53.2222 37.1927 53.2112 35.6747 52.1847 34.6809C51.5404 34.0693 50.8414 33.7635 50.0988 33.7635C49.3453 33.7745 48.6682 34.1021 48.0566 34.7355C47.4123 35.4126 47.1393 36.177 47.2376 37.0289C47.3359 37.8588 47.7945 38.7216 48.6245 39.6062C48.6245 39.6062 48.6354 39.6171 48.6464 39.628C49.1269 40.0867 49.247 40.7419 48.9194 41.0805C48.5808 41.4299 47.9256 41.3316 47.456 40.873C47.3905 40.8184 47.3468 40.7638 47.3031 40.7092C46.1018 39.486 45.4138 38.2411 45.25 36.9743C45.0971 35.8494 45.3811 34.8229 46.0691 33.8946L44.562 32.4421C44.1907 32.0818 44.0924 31.5685 44.3545 31.2955C44.6057 31.0224 45.1299 31.0989 45.5012 31.4593L47.0192 32.9117C47.8819 32.2128 48.8539 31.8852 49.935 31.9398C51.2564 32.0053 52.5014 32.6059 53.6808 33.7417C54.6419 34.6809 55.1879 35.5982 55.3189 36.5265C55.4391 37.4438 55.1005 38.7653 54.2924 40.4689C54.2596 40.5453 54.205 40.6327 54.1504 40.7638C53.1457 42.8715 53.1566 44.4113 54.1723 45.3832C54.9149 46.104 55.7012 46.4535 56.5421 46.4426C57.383 46.4316 58.1583 46.0603 58.8573 45.3177C59.578 44.5751 59.862 43.7014 59.72 42.7077C59.578 41.7029 59.032 40.7419 58.0819 39.8027C57.6123 39.3441 57.5031 38.6997 57.8307 38.3612C58.1474 38.0117 58.7917 38.11 59.2723 38.5578V38.5468C60.7466 40.0648 61.5875 41.5282 61.784 42.9588C61.9478 44.1601 61.6421 45.2631 60.8885 46.2678L62.0571 47.4036C62.4393 47.764 62.5376 48.2772 62.2755 48.5503C62.0134 48.8233 61.5001 48.7468 61.1179 48.3865L59.9603 47.2725C58.9992 48.1025 57.9181 48.4847 56.7277 48.4301C55.3408 48.3646 54.0085 47.7094 52.7307 46.4862C52.2065 45.973 51.7915 45.4488 51.4858 44.8918Z" fill="#FFEF45"/>
<path d="M40.3171 27.4083C40.4154 27.2991 40.6229 27.3318 40.7649 27.4738L41.7914 28.4567C41.9334 28.5986 41.9771 28.8061 41.8679 28.9044C41.7696 29.0136 41.5621 28.9918 41.4201 28.8389L40.3936 27.8669C40.2516 27.714 40.2079 27.5175 40.3171 27.4083Z" fill="#FBD640"/>
<path d="M64.757 50.9424C64.8553 50.8332 65.0628 50.866 65.2157 51.008L66.2314 51.9908C66.3842 52.1328 66.417 52.3403 66.3187 52.4386C66.2204 52.5478 66.0129 52.526 65.86 52.3731L64.8444 51.4011C64.6915 51.2482 64.6588 51.0517 64.757 50.9424Z" fill="#FBD640"/>
<path d="M44.2824 48.845L44.9814 48.1133C45.0906 48.0041 45.2872 48.0369 45.44 48.1789C45.5929 48.3208 45.6257 48.5283 45.5274 48.6375L44.8285 49.3692C44.7193 49.4784 44.5227 49.4457 44.3698 49.3037C44.2169 49.1617 44.1842 48.9542 44.2824 48.845Z" fill="#FBD640"/>
<path d="M61.1865 31.667C61.0446 31.525 61.0009 31.3175 61.1101 31.2192L61.809 30.4766C61.9073 30.3674 62.1148 30.4002 62.2677 30.5421C62.4097 30.6841 62.4533 30.8916 62.3441 31.0008L61.6452 31.7325C61.5469 31.8417 61.3394 31.809 61.1865 31.667Z" fill="#FBD640"/>
<path d="M38.0546 37.4328L39.2668 37.6075C39.4525 37.6294 39.6163 37.7932 39.649 37.9679C39.6818 38.1535 39.5726 38.2737 39.3869 38.2518L38.1747 38.0771C38 38.0443 37.8253 37.8805 37.7925 37.7058C37.7597 37.5311 37.8799 37.4 38.0546 37.4328Z" fill="#FBD640"/>
<path d="M67.2362 41.6047L68.4594 41.7794C68.6341 41.8012 68.8088 41.965 68.8416 42.1398C68.8744 42.3254 68.7542 42.4455 68.5795 42.4237L67.3564 42.249C67.1816 42.2162 67.0069 42.0524 66.9741 41.8777C66.9414 41.7029 67.0615 41.5719 67.2362 41.6047Z" fill="#FBD640"/>
<path d="M55.5718 53.8254C55.539 53.6507 55.6592 53.5305 55.8339 53.5524C56.0196 53.5742 56.1834 53.738 56.2161 53.9237L56.4455 55.1359C56.4782 55.3106 56.3581 55.4307 56.1834 55.4089C55.9977 55.3871 55.8339 55.2232 55.8011 55.0376L55.5718 53.8254Z" fill="#FBD640"/>
<path d="M50.189 24.7106C50.1562 24.5359 50.2764 24.4158 50.4511 24.4376C50.6258 24.4704 50.8005 24.6342 50.8333 24.8089L51.0517 26.0211C51.0845 26.1959 50.9753 26.3269 50.7896 26.2942C50.6149 26.2723 50.4402 26.1085 50.4074 25.9338L50.189 24.7106Z" fill="#FBD640"/>
<path d="M37.814 32.2241C37.8467 32.0603 38.0215 32.0057 38.1962 32.0931L39.4084 32.7047C39.5941 32.792 39.7033 32.9886 39.6705 33.1415C39.6378 33.2944 39.463 33.3599 39.2883 33.2616L38.0761 32.661C37.9014 32.5736 37.7812 32.377 37.814 32.2241Z" fill="#FBD640"/>
<path d="M66.9527 46.7048C66.9963 46.5519 67.1602 46.4973 67.3458 46.5847L68.558 47.1853C68.7327 47.2727 68.8529 47.4692 68.8201 47.6331C68.7764 47.7859 68.6126 47.8406 68.4379 47.7532L67.2148 47.1525C67.04 47.0652 66.9199 46.8577 66.9527 46.7048Z" fill="#FBD640"/>
<path d="M50.0698 53.0939L50.3101 52.0236C50.3429 51.8708 50.5176 51.8161 50.6923 51.9035C50.8671 51.9909 50.9872 52.1875 50.9544 52.3513L50.7142 53.4215C50.6814 53.5744 50.5067 53.629 50.3319 53.5416C50.1572 53.4543 50.0371 53.2468 50.0698 53.0939Z" fill="#FBD640"/>
<path d="M55.6835 27.5065L55.9128 26.4362C55.9456 26.2833 56.1203 26.2287 56.306 26.3161C56.4807 26.4035 56.5899 26.6 56.5572 26.7529L56.3278 27.8232C56.2951 27.9761 56.1203 28.0307 55.9456 27.9433C55.76 27.8559 55.6507 27.6594 55.6835 27.5065Z" fill="#FBD640"/>
<path d="M41.7225 43.9966L40.6959 44.3242C40.5539 44.3788 40.3465 44.2696 40.2482 44.1058C40.139 43.9311 40.1826 43.7454 40.3355 43.7017L41.3512 43.3741C41.504 43.3304 41.7115 43.4287 41.8098 43.6034C41.9081 43.7782 41.8754 43.9529 41.7225 43.9966Z" fill="#FBD640"/>
<path d="M64.9097 35.8501L65.9254 35.5224C66.0783 35.4678 66.2858 35.577 66.3841 35.7518C66.4823 35.9156 66.4496 36.1012 66.2967 36.1449L65.2701 36.4726C65.1282 36.5272 64.9207 36.4179 64.8224 36.2541C64.7132 36.0794 64.7569 35.8938 64.9097 35.8501Z" fill="#FBD640"/>
<path d="M61.0216 53.5956C60.9124 53.4208 60.9561 53.2352 61.109 53.1915C61.2509 53.1478 61.4584 53.2461 61.5567 53.4208L62.2556 54.6003C62.3539 54.775 62.3103 54.9497 62.1683 55.0043C62.0154 55.048 61.8079 54.9497 61.7096 54.775L61.0216 53.5956Z" fill="#FBD640"/>
<path d="M44.3781 25.2457C44.2799 25.0819 44.3126 24.8962 44.4655 24.8525C44.6184 24.7979 44.815 24.9071 44.9242 25.0819L45.6122 26.2613C45.7105 26.436 45.6777 26.6108 45.5248 26.6544C45.3719 26.7091 45.1754 26.5998 45.0661 26.436L44.3781 25.2457Z" fill="#FBD640"/>
</svg>
