<svg width="217" height="160" viewBox="0 0 217 160" fill="none" xmlns="http://www.w3.org/2000/svg">
<rect x="179.324" y="33.6602" width="9.43672" height="5.51163" transform="rotate(8.64161 179.324 33.6602)" fill="#AB6243"/>
<path d="M195.087 135.998C195.423 137.245 195.942 138.449 196.222 139.709C196.544 141.194 197.146 142.552 197.832 143.897C198.35 144.933 198.84 145.983 199.26 147.061C199.877 148.63 200.045 150.268 200.213 151.907C200.451 154.427 200.479 156.962 200.409 159.483C182.358 159.483 164.293 159.483 146.243 159.483C146.089 159.329 146.074 159.119 146.074 158.922C145.976 155.772 145.668 152.635 145.388 149.498C145.304 148.462 145.388 147.439 145.472 146.417C145.598 144.863 145.584 143.308 145.766 141.768C145.836 141.138 145.906 140.494 146.046 139.877C146.131 139.471 146.215 139.079 146.187 138.673C146.173 138.365 146.257 138.071 146.481 137.847C147.321 137.175 148.315 137.273 149.239 137.469C150.332 137.693 151.242 137.483 152.082 136.769C153.034 135.97 154.001 135.172 154.953 134.388C155.429 133.982 155.961 133.688 156.577 133.66C157.838 133.576 158.622 132.778 159.182 131.811C160.512 129.557 161.871 127.344 163.425 125.244C163.845 124.683 164.321 124.193 164.951 123.885C165.316 123.759 165.68 123.899 166.044 123.885C169.531 123.843 173.018 123.703 176.434 122.933C176.855 122.835 177.289 122.751 177.723 122.905C177.947 122.961 178.157 123.073 178.367 123.185C180.145 124.151 181.854 123.815 183.506 122.835C184.081 122.499 184.557 122.023 185.173 121.743C185.621 121.771 185.607 122.079 185.565 122.401C185.467 123.101 185.327 123.787 185.313 124.501C185.299 125.678 185.775 126.588 186.671 127.246C187.497 127.848 187.988 128.562 187.974 129.599C187.96 130.005 188.17 130.369 188.478 130.621C189.332 131.321 189.71 132.315 190.158 133.268C190.48 133.996 190.984 134.57 191.53 135.116C191.699 135.27 191.895 135.368 192.105 135.41C193.001 135.578 193.855 135.886 194.779 135.858C194.891 135.858 195.003 135.9 195.087 135.998Z" fill="#213864"/>
<path d="M57.5434 143.701C57.5714 143.883 57.5714 144.051 57.6974 144.248C57.8654 144.514 57.9495 144.892 57.9355 145.214C57.8794 146.194 58.1735 147.146 58.2855 148.099C58.4396 149.359 58.4256 150.633 58.3136 151.894C58.1175 154.19 57.8934 156.487 57.6834 158.783C57.6694 159.021 57.6694 159.245 57.6554 159.484C38.4843 159.484 19.3273 159.484 0.15625 159.484C0.282282 158.587 0.296283 157.677 0.352302 156.767C0.562354 153.798 0.688391 150.829 1.03848 147.86C1.08049 147.44 1.08049 147.44 0.744405 147.244C0.786417 147.118 0.968464 147.062 0.968464 146.922C0.98247 146.138 1.55662 145.942 2.14477 145.662C3.3771 145.046 4.66544 144.556 5.99579 144.178C7.52219 143.743 9.02058 143.911 10.519 144.346C11.6393 144.668 12.6615 145.228 13.6838 145.774C17.8849 148.015 22.2261 149.891 26.8473 151.095C29.2979 151.739 31.8326 152.006 34.3532 152.258C37.168 152.524 39.9827 152.636 42.7975 152.93C43.4977 153 44.1978 153.07 44.898 153.084C45.9343 153.112 46.8585 153.574 47.8248 153.812C48.9311 154.092 49.9674 153.966 50.9896 153.588C52.348 153.07 53.5383 152.3 54.2665 150.969C54.4905 150.549 54.8266 150.199 55.1067 149.821C55.5268 149.261 55.9749 148.701 56.0169 147.944C56.031 147.818 56.073 147.678 56.157 147.566C56.6051 147.006 56.5911 146.32 56.7311 145.662C56.8572 145.032 57.1232 144.43 57.3473 143.813C57.3753 143.743 57.4453 143.687 57.5434 143.701Z" fill="#181F5A"/>
<path d="M57.5423 143.701C57.4023 144.037 57.2203 144.345 57.2483 144.737C57.2483 144.891 57.1642 145.031 57.0522 145.144C56.8842 145.312 56.8282 145.508 56.8562 145.732C56.8842 146.11 56.7021 146.46 56.7441 146.838C56.7581 147.006 56.6461 147.132 56.5481 147.23C56.198 147.622 56.1 148.084 56.044 148.574C56.0299 148.784 55.9459 148.967 55.8199 149.121C55.2878 149.835 54.7136 150.521 54.2515 151.277C53.5793 152.383 52.571 153.028 51.4507 153.56C50.5405 153.98 49.6023 154.12 48.622 154.134C48.3139 154.134 48.0759 153.994 47.8098 153.938C47.2636 153.826 46.7315 153.714 46.2274 153.462C46.0453 153.364 45.8073 153.336 45.5972 153.322C44.659 153.266 43.7347 153.14 42.7965 153.084C41.6062 153.014 40.4298 152.902 39.2535 152.79C38.2313 152.706 37.209 152.678 36.2007 152.579C35.3045 152.509 34.3943 152.411 33.498 152.327C32.3917 152.229 31.2854 152.033 30.1791 151.879C28.5827 151.655 27.0143 151.361 25.4599 150.899C23.4154 150.297 21.4549 149.457 19.4663 148.714C18.6961 148.42 17.9539 148.056 17.2117 147.706C16.1755 147.216 15.1532 146.726 14.1309 146.194C13.5568 145.9 12.9966 145.55 12.4225 145.256C11.5683 144.807 10.658 144.513 9.71977 144.303C8.3054 143.981 6.90503 143.981 5.51867 144.471C4.31435 144.905 3.08202 145.27 1.98974 145.942C1.93372 145.97 1.8637 145.998 1.79369 146.012C1.28955 146.152 1.19153 146.264 1.16352 146.81C1.13552 147.188 1.13552 147.188 0.74341 147.244C0.365314 147.02 0.23928 146.712 0.435329 146.334C0.589371 146.054 0.645386 145.774 0.673392 145.48C0.701401 145.158 0.799427 144.849 0.939462 144.555C1.17752 143.995 1.31756 143.407 1.41559 142.805C1.69566 141.236 2.00374 139.682 2.14378 138.1C2.31182 136.055 2.68992 134.025 3.08203 132.008C3.41811 130.258 3.93625 128.549 4.42638 126.827C4.69245 125.86 4.81848 124.88 4.8885 123.886C4.95852 122.836 5.09856 121.813 5.37863 120.805C5.75673 119.475 5.99479 118.102 6.4009 116.786C6.66697 115.876 6.93304 114.966 7.35315 114.125C7.94131 112.963 8.27739 111.745 8.59948 110.498C9.08961 108.608 9.0476 106.731 8.45944 104.869C7.85728 103.02 7.33914 101.144 6.97505 99.2394C6.779 98.2032 6.76499 97.1669 6.75099 96.1166C6.73699 93.946 6.4009 91.8175 6.09282 89.6889C5.78473 87.5184 5.44865 85.3478 5.35062 83.1492C5.23859 80.8386 5.09855 78.542 5.16857 76.2314C5.21058 74.621 5.23859 73.0246 5.39263 71.4281C5.42064 71.078 5.47666 70.7139 5.56068 70.3779C6.05081 68.2913 6.56894 66.2188 7.1711 64.1602C7.73125 62.1997 8.6695 60.4072 9.74778 58.6988C10.574 57.4104 11.3582 56.0941 12.1844 54.7918C13.2207 53.1533 14.411 51.6269 15.9654 50.4086C16.6656 49.8625 17.4078 49.3723 18.262 49.0783C18.3881 49.0362 18.5001 48.9662 18.6121 48.8822C19.5784 48.126 20.6006 47.4398 21.6229 46.7536C22.057 46.4596 22.4771 46.1515 22.8692 45.8154C23.3734 45.3953 23.8915 44.9892 24.4656 44.6671C24.9838 44.387 25.3619 43.9669 25.656 43.4628C26.0061 42.8606 26.3561 42.2725 26.6782 41.6563C27.2104 40.7041 27.9526 39.9198 28.7648 39.2057C28.7928 39.1917 28.8068 39.1636 28.8348 39.1496C29.689 38.5755 30.5993 38.1694 31.5235 37.7773C31.8736 37.6372 32.2517 37.6232 32.6158 37.7073C32.7978 37.7353 32.9379 37.8193 32.9939 38.0013C33.0499 38.1974 32.9379 38.3234 32.7978 38.4215C32.4758 38.6595 32.2937 39.0096 32.0416 39.3037C31.9436 39.4297 31.9016 39.5698 31.9296 39.7238C32.1397 39.9198 32.0416 40.2139 32.1397 40.438C32.6438 41.7823 33.344 42.9867 34.3803 43.9949C35.7106 45.2973 37.097 46.5436 38.3993 47.8879C39.5056 49.0362 40.6539 50.1565 41.7882 51.2768C43.0765 52.5372 44.4769 53.6575 46.1714 54.3716C46.9556 54.7077 47.6557 55.2399 48.2439 55.884C48.3279 55.9821 48.3979 56.0941 48.566 56.1081C48.72 55.9541 48.608 55.786 48.566 55.646C48.1039 54.1196 48.79 52.9293 49.7703 51.907C50.3304 51.3188 50.8626 50.7307 51.2967 50.0445C51.3947 49.8905 51.4647 49.7084 51.7028 49.7084C52.585 50.7027 53.6493 51.5009 54.7556 52.2291C55.7779 52.9013 56.8562 53.4614 57.9344 53.9935C58.8447 54.4417 59.5449 55.0998 60.063 55.9401C60.6512 56.8643 61.1693 57.8306 61.4214 58.9088C61.6454 59.8331 62.0655 60.6593 62.6257 61.4435C64.0121 63.432 65.3284 65.4626 66.6727 67.4791C67.1349 68.1653 67.4009 68.8935 67.3449 69.7197C67.3169 70.1678 67.499 70.4759 67.8631 70.742C69.4175 71.8482 70.7338 73.2206 71.9941 74.649C72.6803 75.4472 73.3525 76.2314 74.0527 77.0156C74.5428 77.5757 75.145 78.0099 75.8452 78.3039C76.2653 78.486 76.6994 78.696 77.1195 78.8921C78.0017 79.3122 78.5339 79.9984 78.7439 80.9506C78.8139 81.2447 78.898 81.5388 78.954 81.8329C79.094 82.519 79.4861 82.9112 80.1863 83.0512C81.7827 83.3873 83.3651 83.7794 84.9476 84.1435C85.8438 84.3535 86.74 84.6196 87.6083 84.9417C88.6305 85.3198 89.6528 85.6839 90.6891 86.034C91.4173 86.272 92.0894 86.6081 92.7196 87.0282C92.9717 87.1963 93.2377 87.3363 93.4898 87.5044C93.6298 87.5884 93.7419 87.6304 93.8959 87.5044C93.9799 87.4203 94.9042 87.4623 95.0442 87.5324C95.3243 87.6724 95.6184 87.7424 95.8984 87.8405C96.1785 87.9665 96.1645 88.2185 96.1645 88.4426C96.1505 89.815 96.2065 91.1733 96.1085 92.5317C95.9965 93.89 96.0805 95.2624 96.0665 96.6208C96.0665 98.5813 96.1085 100.556 95.9685 102.516C95.9545 102.67 95.9544 102.824 95.9124 102.964C95.7584 103.399 95.3803 103.427 95.0022 103.441C93.8819 103.525 92.7896 103.329 91.6973 103.132C90.2129 102.866 88.7005 102.782 87.2021 102.558C85.2836 102.264 83.4212 101.718 81.6007 101.06C80.8445 100.78 80.0883 100.5 79.3041 100.304C78.7859 100.164 78.2818 99.9816 77.7917 99.7576C77.3015 99.5195 76.8114 99.3235 76.2793 99.1974C74.7529 98.8053 73.2545 98.2592 71.7841 97.699C70.2157 97.0969 68.7033 96.3687 67.2749 95.4444C66.2526 94.7863 65.1043 94.3102 64.0541 93.68C63.4519 93.3019 62.8217 92.9658 62.2896 92.5037C62.0235 92.2656 61.8975 92.3496 61.7715 92.6297C61.1693 94.0861 60.7492 95.5845 60.5251 97.1529C60.3571 98.3852 60.4551 99.6035 60.6092 100.822C60.6652 101.368 60.6512 101.914 60.6092 102.446C60.5951 102.74 60.7072 102.838 60.9873 102.838C61.4634 102.852 61.9255 102.824 62.4016 102.894C63.816 103.076 64.9503 103.833 65.9446 104.785C66.6447 105.471 67.471 105.737 68.3952 105.779C69.0534 105.807 69.7115 105.807 70.3697 105.821C72.1202 105.891 73.4085 106.885 74.6969 107.894C75.285 108.37 75.8312 108.902 76.2793 109.518C76.5453 109.91 76.9795 110.008 77.4136 110.106C77.8897 110.218 78.3798 110.218 78.87 110.274C80.1443 110.414 81.3626 110.736 82.5529 111.241C83.5052 111.633 84.4854 111.927 85.4797 112.165C87.2302 112.599 88.8546 113.271 90.465 114.055C91.9214 114.77 93.3918 115.568 95.0722 115.75C95.2823 115.764 95.4783 115.778 95.6744 115.792C95.9825 115.932 96.3045 115.988 96.6406 116.03C97.2288 116.1 97.7889 116.296 98.2511 116.73C98.4471 117.122 98.3351 117.514 98.223 117.906C97.8449 119.293 97.2848 120.623 96.5986 121.869C95.6884 123.55 94.8902 125.3 94.078 127.037C93.9939 127.191 93.9519 127.387 93.7699 127.485C93.5458 127.877 93.3218 128.255 93.1117 128.661C92.7196 129.389 92.0614 129.753 91.2912 129.894C90.2269 130.104 89.1347 130.216 88.0424 130.174C87.4542 130.146 86.9221 129.95 86.3479 129.866C85.6197 129.753 84.8915 129.669 84.1493 129.711C83.8413 129.725 83.5332 129.725 83.2391 129.711C82.665 129.683 82.1888 129.459 81.9228 128.927C81.7967 128.675 81.6427 128.605 81.3766 128.605C80.7605 128.577 80.1443 128.451 79.5421 128.311C77.9737 127.933 76.3633 127.765 74.7669 127.527C70.3557 126.855 66.0286 125.846 61.7715 124.502C60.105 123.984 58.4246 123.494 56.7161 123.144C56.5901 123.242 56.6321 123.396 56.6181 123.522C56.4221 125.454 56.24 127.373 56.338 129.319C56.394 130.594 56.5901 131.84 56.7861 133.086C57.0802 134.949 57.4023 136.811 57.7104 138.674C57.9905 140.354 57.9765 142.035 57.5423 143.701Z" fill="#EC5556"/>
<path d="M140.581 134.501C139.979 134.487 139.376 134.459 138.774 134.557C138.368 134.627 137.948 134.571 137.528 134.571C136.212 134.585 134.895 134.529 133.593 134.599C132.417 134.669 131.254 134.655 130.078 134.697C128.426 134.683 126.759 134.613 125.093 134.711C123.818 134.781 122.544 134.781 121.27 134.795C120.962 134.795 120.64 134.725 120.331 134.711C120.093 134.767 119.953 134.585 119.813 134.459C118.203 133.101 116.578 131.771 115.038 130.342C114.8 130.118 114.604 129.866 114.422 129.6C114.016 128.984 114.24 128.256 114.912 127.962C115.5 127.709 116.116 127.709 116.747 127.822C118.105 128.088 119.379 128.606 120.64 129.18C121.536 129.586 122.446 129.978 123.37 130.342C124.322 130.734 125.177 130.538 126.017 130.048C126.311 129.88 126.213 129.614 126.101 129.39C125.877 128.914 125.513 128.564 125.093 128.27C123.37 127.065 121.55 126.015 119.547 125.315C118.217 124.853 116.887 124.377 115.57 123.872C113.932 123.242 112.643 122.178 111.677 120.722C111.313 120.19 111.159 119.587 111.061 118.957C111.033 118.845 111.033 118.733 111.075 118.607C111.537 117.193 112.251 115.974 113.582 115.176C114.688 114.518 115.836 113.916 116.831 113.076C117.363 112.642 117.741 112.137 117.881 111.451C118.049 110.625 117.629 110.149 116.775 110.247C115.738 110.345 114.786 110.765 113.834 111.115C110.963 112.151 108.232 113.482 105.572 114.994C104.871 115.386 104.115 115.68 103.401 116.03C103.219 116.114 102.967 116.254 102.883 115.89C102.729 112.417 102.701 108.945 102.785 105.472C102.953 98.9879 102.757 92.4902 102.897 86.0065C102.995 81.5674 102.911 77.1282 102.995 72.703C103.009 71.6808 103.149 70.6445 103.065 69.6222C102.939 68.0398 103.051 66.4574 102.911 64.875C102.911 64.7909 102.925 64.7069 102.953 64.6229C103.317 64.5109 103.681 64.5109 104.059 64.5109C107.21 64.5249 110.375 64.4689 113.526 64.5529C116.775 64.6369 120.037 64.5949 123.286 64.6229C124.322 64.6369 125.345 64.5949 126.367 64.6509C127.403 64.7209 128.44 64.6929 129.49 64.7069C129.686 64.7069 129.882 64.7209 130.092 64.7209C135.778 64.7209 141.477 64.7349 147.163 64.7209C147.793 64.7209 148.395 64.847 149.025 64.8329C149.347 64.8189 149.599 65.029 149.739 65.3091C149.809 65.4491 149.851 65.5751 150.005 65.6592C150.341 65.8552 150.481 66.1633 150.481 66.5414C150.747 66.9195 150.733 67.3536 150.733 67.7597C150.789 70.1964 150.691 72.619 150.579 75.0416C150.523 76.288 150.453 77.5343 150.453 78.7806C150.439 81.9875 150.201 85.1803 150.215 88.3871C150.215 89.6615 150.187 90.9498 150.145 92.2242C150.033 95.1229 150.005 98.0217 149.921 100.92C149.851 103.399 149.809 105.878 149.725 108.342C149.599 111.465 149.683 114.588 149.641 117.711C149.627 118.299 149.571 118.887 149.431 119.461C149.221 119.951 148.857 120.316 148.395 120.596C147.695 121.016 147.008 121.478 146.406 122.038C146.028 122.374 145.608 122.752 145.804 123.312C146.028 123.9 146.616 123.886 147.134 123.9C147.359 123.914 147.569 123.83 147.779 123.83C148.087 123.816 148.395 123.83 148.563 124.153C148.759 124.657 148.731 125.189 148.759 125.707C148.857 127.415 148.983 129.124 148.913 130.846C148.913 131 148.885 131.14 148.843 131.294C148.535 131.925 147.933 132.191 147.331 132.443C146.336 132.863 145.3 133.143 144.278 133.451C143.48 133.703 142.639 133.787 141.855 134.081C141.379 134.067 141.043 134.473 140.581 134.501Z" fill="#FFA84D"/>
<path d="M30.9364 21.0983C30.5303 20.5942 30.4323 19.95 30.2082 19.3618C30.0682 18.9277 30.0822 18.5076 30.2783 18.0875C30.2362 17.9054 30.2362 17.7234 30.3063 17.5414C30.7684 16.295 30.7824 14.9787 30.8664 13.6623C30.8804 13.3823 30.8804 13.0882 31.0905 12.8641C31.3145 11.5758 31.8047 10.3715 32.4208 9.22316C33.3591 7.4587 34.6054 5.96031 36.2578 4.798C37.4341 3.95778 38.7365 3.32761 40.0108 2.65544C40.9911 2.15131 41.9573 1.66117 42.9376 1.15704C44.0019 0.6249 45.1642 0.428849 46.3265 0.246802C47.7549 0.00873716 49.1972 -0.0472767 50.6396 0.0367472C51.5499 0.0787556 52.4601 0.0227453 53.3703 0.106766C55.5969 0.302815 57.7815 0.764938 59.91 1.47913C59.9801 1.50713 60.0641 1.53514 60.1481 1.56315C61.1844 1.92725 61.9266 2.61343 62.4167 3.57968C63.3129 5.37215 64.2792 7.13661 65.0354 8.9991C65.7916 10.8336 66.3797 12.7381 67.0239 14.6146C67.192 15.0907 67.374 15.5668 67.528 16.043C67.5841 16.239 67.6821 16.295 67.8641 16.365C69.9927 17.0792 72.1213 17.8214 74.2498 18.5356C75.4261 18.9277 76.6164 19.2918 77.8068 19.6559C78.3529 19.8099 78.885 20.048 79.4032 20.2581C79.6973 20.3841 79.8933 20.6082 80.1454 20.7902C80.2854 20.9022 80.2574 21.0563 80.1734 21.1963C80.0894 21.3363 79.9633 21.4064 79.8093 21.4624C78.773 21.8125 77.7367 22.0785 76.6304 22.1346C73.9277 22.2886 71.295 21.9245 68.7184 21.1403C68.4943 21.0703 68.2702 20.9863 68.0322 20.9863C67.7381 21.0983 67.472 20.9442 67.206 20.8742C66.0016 20.5381 64.7973 20.146 63.593 19.7819C62.5707 19.4879 61.5345 19.3058 60.4982 19.0958C59.896 18.9697 59.3359 18.7737 58.7477 18.6056C58.6217 18.5636 58.4397 18.5636 58.4537 18.3396C58.7757 18.1015 59.1398 18.2135 59.4759 18.1855C60.4422 18.0875 61.3664 17.8494 62.2907 17.6254C63.579 17.3313 64.9094 17.2473 66.0857 16.7711C64.6713 16.9112 63.2289 17.3453 61.7305 17.4433C60.7223 17.5133 59.714 17.5414 58.7197 17.6954C58.6917 17.6954 58.6497 17.6954 58.6217 17.7094C58.3556 17.7654 57.9495 17.6814 57.8795 17.9895C57.8095 18.2555 58.2716 18.1435 58.3836 18.3676C58.3276 18.6056 58.1176 18.6056 57.9495 18.6476C57.2914 18.8297 56.6192 18.9697 55.933 18.9137C53.7624 18.8297 51.6199 19.2358 49.4773 19.4038C49.3373 19.4178 49.2112 19.4318 49.0712 19.4318C48.6511 19.3058 48.245 19.1098 47.7969 19.0678C47.5728 18.9837 47.4608 18.8017 47.3627 18.6056C47.0407 17.9335 46.4805 17.5273 45.8784 17.1352C45.6123 16.9532 45.3182 16.9532 45.0101 17.0232C44.1139 17.2053 43.3997 17.6674 42.8816 18.4236C42.6015 18.8297 42.4054 19.2778 42.0694 19.6419C41.9713 19.7399 41.8733 19.824 41.7333 19.88C38.5684 20.16 35.5016 21.0003 32.3508 21.4064C32.0427 21.4484 31.7486 21.4624 31.4406 21.4344C31.2165 21.4204 31.0204 21.3504 30.9364 21.0983Z" fill="#EC5556"/>
<path d="M47.7786 18.9839C48.1987 18.9979 48.6608 18.9419 48.9689 19.362C49.1929 19.39 49.305 19.558 49.431 19.7261C50.2992 20.9164 50.9994 22.1907 51.4055 23.6191C51.6016 24.2773 51.6016 24.2633 52.2597 24.2073C53.0299 24.1512 53.8001 24.1372 54.5703 24.2773C56.7269 24.3193 58.8415 24.6694 60.928 25.1735C62.3004 25.5096 63.6307 25.9857 64.9471 26.4619C65.4932 26.6579 65.9973 26.6719 66.5295 26.5459C66.7255 26.4899 66.9496 26.3918 67.1456 26.5459C67.2577 26.5599 67.3417 26.6019 67.3977 26.6859C67.4537 26.7699 67.4957 26.84 67.5237 26.91C68.0559 28.4924 68.8401 29.9768 69.1062 31.6432C69.1902 32.1053 69.3162 32.5535 69.2042 33.0436C69.0782 33.7158 68.602 34.1359 68.1119 34.5C66.8376 35.4102 66.0954 36.6845 65.5212 38.0849C64.9891 39.4013 64.723 40.8016 64.3169 42.146C64.0368 43.0702 63.7708 43.9945 63.3647 44.8627C62.9726 45.7309 62.2864 46.2491 61.4041 46.4731C60.1718 46.7812 58.9255 47.0053 57.6371 47.0333C57.119 47.0333 56.6009 47.1173 56.0827 47.1173C55.2145 47.1173 54.3743 47.1033 53.5341 46.8932C52.7639 46.8932 52.1477 46.5291 51.5595 46.095C50.1592 45.0027 49.1089 43.6164 48.1847 42.104C46.9943 40.1154 46.2381 37.9589 45.678 35.7323C45.2579 34.0519 44.5577 32.4834 44.0116 30.859C43.2274 28.5764 42.2471 26.3638 41.757 23.9972C41.4909 22.7369 41.3369 21.4625 41.5749 20.1742C41.5749 20.0062 41.6589 19.8661 41.785 19.7541C41.827 19.6561 41.897 19.572 42.023 19.558C42.3031 19.6281 42.2751 19.8661 42.2471 20.0482C42.065 21.2385 42.3591 22.3868 42.5272 23.5491C42.5692 23.8712 42.6532 24.1793 42.7372 24.4873C43.0173 25.6777 43.4794 26.7979 43.8575 27.9462C44.6137 30.2288 45.594 32.4414 46.2522 34.766C46.2802 34.8501 46.2942 34.9201 46.3782 34.9901C46.5882 34.9481 46.6863 34.752 46.8123 34.612C48.1146 33.0296 49.1089 31.2931 49.7111 29.3326C50.0191 28.2963 50.3972 27.2881 50.6633 26.2378C51.0274 24.8374 50.6913 23.5491 50.0612 22.3028C49.613 21.4065 48.9969 20.6643 48.2267 20.0342C47.9186 19.7681 47.5965 19.474 47.7786 18.9839Z" fill="#9CB7D4"/>
<path d="M41.69 20.1887C41.662 20.4548 41.6339 20.7209 41.6199 20.9869C41.5499 22.4853 41.802 23.9557 42.2641 25.3701C43.0903 27.9608 44.0006 30.5375 45.0228 33.0581C45.3729 33.9404 45.639 34.8506 45.8351 35.7748C46.0311 36.7411 46.3952 37.6653 46.7593 38.5896C46.8013 38.7156 46.8573 38.8416 46.8993 38.9677C47.5015 40.9282 48.5938 42.6226 49.8541 44.2051C50.3722 44.8632 50.9604 45.4234 51.6046 45.9415C52.0247 46.2776 52.5148 46.5157 53.0189 46.6977C53.201 46.7537 53.383 46.7677 53.5371 46.8938C53.4811 47.748 53.159 48.4062 52.3328 48.7422C51.9267 48.9103 51.7726 49.2884 51.7026 49.7085C51.5345 49.7925 51.4925 49.9606 51.4085 50.1006C51.0024 50.7868 50.5123 51.4029 49.9241 51.9351C49.322 52.4812 48.9299 53.1674 48.6358 53.9096C48.4677 54.3437 48.5378 54.8198 48.6218 55.268C48.6918 55.59 48.7758 55.9261 48.8598 56.2482C48.4117 56.3322 48.3977 56.3322 48.1737 55.9822C48.1036 55.8841 48.0196 55.8001 47.9356 55.7161C47.2774 55.1839 46.6193 54.6798 45.821 54.3577C44.6447 53.8956 43.6925 53.0834 42.7122 52.3132C42.1941 51.9071 41.718 51.473 41.2979 50.9548C41.2418 50.8708 41.1718 50.8008 41.0878 50.7308C39.9815 49.8065 39.0713 48.7002 38.049 47.706C36.7747 46.4877 35.5003 45.2553 34.226 44.037C33.8479 43.6869 33.5118 43.3088 33.2457 42.8887C32.7556 42.1185 32.2515 41.3623 31.9994 40.4661C31.9294 40.228 31.8594 39.9899 31.9294 39.7239C32.1675 39.3178 32.4615 38.9817 32.8956 38.7576C33.1897 38.6176 33.3578 38.3375 33.4558 38.0154C33.7219 37.1612 33.8759 36.293 34.0439 35.4107C34.198 34.6685 34.128 33.9123 34.142 33.1561C34.142 33.0021 34.1 32.8621 34.072 32.722C34.128 32.652 34.198 32.61 34.282 32.61C35.2763 32.666 35.9064 31.9938 36.5086 31.3917C37.1948 30.7055 37.8389 29.9633 38.4131 29.1791C38.9032 28.5069 39.2113 27.7927 39.1553 26.9245C39.0573 25.5521 39.1833 24.1938 39.7014 22.9055C40.0515 22.0512 40.4996 21.239 41.1158 20.5388C41.2699 20.3708 41.4099 20.1467 41.69 20.1887Z" fill="#7F4730"/>
<path d="M98.1792 116.787C97.5771 116.409 96.9609 116.129 96.2327 116.143C96.0087 116.143 95.8126 116.045 95.6726 115.849C95.4205 115.709 95.4205 115.471 95.4345 115.232C95.6026 113.188 95.4485 111.157 95.5185 109.113C95.5886 107.334 95.6166 105.542 95.6166 103.763C95.6166 103.525 95.6726 103.301 95.7846 103.091C95.8126 102.111 95.8546 101.131 95.8686 100.151C95.9106 96.2575 95.9387 92.3505 95.9667 88.4434C95.9667 88.2474 95.9947 88.0373 95.8966 87.8413C96.0227 87.6592 95.9807 87.4492 95.9807 87.2531C95.9947 85.0405 95.9667 82.828 96.0227 80.6294C96.0507 79.229 96.0367 77.8286 96.1207 76.4283C96.1767 75.378 96.1627 74.3417 96.2187 73.2914C96.3027 71.709 96.3308 70.1266 96.5128 68.5582C96.5408 68.3061 96.5968 68.0541 96.6388 67.816C96.6949 67.3539 97.0589 67.1578 97.381 66.9898C98.7394 66.2896 100.084 65.5614 101.512 65.0013C101.75 64.9032 101.988 64.8052 102.24 64.8192C102.52 65.1553 102.45 65.5614 102.408 65.9255C102.254 67.704 102.352 69.4684 102.324 71.2469C102.31 72.7033 102.282 74.1737 102.338 75.6441C102.45 78.8089 102.352 81.9877 102.45 85.1526C102.604 90.516 102.408 95.8794 102.548 101.229C102.646 105.318 102.59 109.393 102.632 113.468C102.632 114 102.632 114.518 102.562 115.036C102.506 115.387 102.506 115.751 102.744 116.059C102.828 116.423 102.52 116.465 102.31 116.563C100.966 117.179 99.5796 117.137 98.1792 116.787Z" fill="#FFA84D"/>
<path d="M41.6909 20.1886C41.2287 20.5247 40.9207 20.9728 40.6126 21.4489C39.9684 22.4432 39.6043 23.5215 39.3663 24.6698C39.2682 25.0899 39.2962 25.51 39.2822 25.9301C39.2822 26.2662 39.2822 26.6023 39.3102 26.9384C39.3943 27.8766 39.0162 28.6608 38.456 29.347C37.8959 30.0612 37.2937 30.7474 36.6915 31.4196C36.3275 31.8397 35.8653 32.1618 35.4172 32.4838C35.0111 32.7919 34.549 32.7919 34.0729 32.7219C33.7228 32.4838 33.4847 32.1618 33.3167 31.7977C33.0226 31.1815 32.7285 30.5793 32.5185 29.9352C32.1684 28.8989 31.7202 27.9046 31.4262 26.8544C30.992 25.342 30.796 23.7876 30.656 22.2331C30.614 21.841 30.628 21.4209 30.936 21.0988C31.3421 21.4209 31.8043 21.2949 32.2384 21.2529C33.8208 21.1269 35.3612 20.7067 36.9296 20.4407C37.6858 20.3286 38.442 20.1886 39.1982 20.0066C39.5343 19.9225 39.8984 19.9505 40.2485 19.9085C40.7526 19.8525 41.2708 19.7265 41.7889 19.7545C41.7609 19.9085 41.7189 20.0486 41.6909 20.1886Z" fill="#3F332C"/>
<path d="M67.1494 26.5478C66.7293 26.6458 66.3092 26.7298 65.8751 26.8279C65.721 26.8699 65.567 26.8699 65.3849 26.7998C64.0126 26.2817 62.6122 25.8196 61.1978 25.4135C59.7835 25.0214 58.3411 24.8393 56.8987 24.6153C56.1005 24.5032 55.3023 24.4612 54.5041 24.3912C54.28 23.9291 54.378 23.439 54.4481 22.9628C54.6161 21.8425 55.0502 20.8063 55.5263 19.784C55.6944 19.4619 55.8064 19.1118 55.9605 18.7757C56.8007 18.7897 57.5989 18.5937 58.3831 18.3696C58.4111 18.3696 58.4251 18.3696 58.4391 18.3696C59.6854 18.7617 60.9598 19.0558 62.2481 19.2939C63.2984 19.4759 64.2926 19.854 65.3009 20.1341C66.2252 20.4002 67.1214 20.7082 68.0316 20.9883C68.0456 21.4224 68.0036 21.8706 68.0596 22.3047C68.1156 22.8508 67.8636 23.2429 67.4995 23.579C67.1074 23.9291 66.9533 24.3492 66.9253 24.8673C66.8973 25.4415 67.0794 25.9876 67.1494 26.5478Z" fill="#7F4730"/>
<path d="M102.786 116.156C102.478 116.114 102.366 115.932 102.352 115.638C102.324 115.19 102.45 114.77 102.45 114.336C102.436 110.625 102.52 106.9 102.422 103.203C102.296 97.6013 102.45 91.9998 102.324 86.3983C102.254 83.5696 102.338 80.7409 102.226 77.9121C102.086 74.3412 102.184 70.7982 102.156 67.2413C102.156 66.4291 102.282 65.6169 102.24 64.8187C102.436 64.5666 102.646 64.4266 102.954 64.6226C103.108 64.8747 103.178 65.1548 103.15 65.4488C103.136 65.6449 103.164 65.8549 103.15 66.051C103.108 67.8715 103.318 69.692 103.248 71.5124C103.066 75.8256 103.248 80.1527 103.136 84.4658C102.968 91.0056 103.15 97.5453 103.024 104.085C102.968 107.096 102.996 110.093 102.968 113.089C102.954 113.902 103.108 114.7 103.052 115.512C103.052 115.694 103.066 115.89 102.94 116.044C102.926 116.128 102.87 116.156 102.786 116.156Z" fill="#C77A32"/>
<path d="M149.264 119.587C149.404 118.985 149.446 118.383 149.446 117.781C149.474 115.148 149.418 112.515 149.488 109.883C149.53 108.3 149.502 106.718 149.6 105.135C149.656 104.043 149.6 102.937 149.684 101.844C149.796 100.514 149.698 99.1837 149.796 97.8534C149.894 96.467 149.796 95.0666 149.894 93.6663C149.992 92.1679 149.88 90.6695 149.992 89.1711C150.09 87.7007 150.02 86.2303 150.076 84.7739C150.118 83.7517 150.146 82.7154 150.202 81.6931C150.244 80.9649 150.258 80.2507 150.258 79.5225C150.258 78.0382 150.37 76.5538 150.398 75.0834C150.426 74.2011 150.412 73.3189 150.496 72.4507C150.636 70.9243 150.552 69.3839 150.566 67.8575C150.58 67.4094 150.426 66.9892 150.482 66.5411C151.308 66.2751 151.798 65.5889 152.344 64.9727C153.017 64.2025 153.731 63.5163 154.599 62.9702C154.935 62.7461 155.327 62.6201 155.705 62.4801C156.896 62.0319 157.876 61.2898 158.744 60.3935C159.472 59.6513 160.313 59.0912 161.237 58.601C162.231 58.0689 163.253 57.6208 164.276 57.1447C164.906 56.8506 165.606 56.7946 166.264 56.6265C167.412 56.3464 168.561 56.2344 169.751 56.1784C170.969 56.1084 172.118 56.2904 173.252 56.6125C173.756 56.7526 174.232 56.9766 174.722 57.1447C175.142 57.2987 175.563 57.3127 175.969 57.0466C176.515 56.7105 177.061 56.4025 177.607 56.0524C177.845 55.8983 178.111 55.7723 178.391 55.7163C178.993 55.5903 179.61 55.4642 180.226 55.4922C180.884 55.9123 181.612 56.1924 182.312 56.5425C182.396 56.7105 182.354 56.8926 182.326 57.0746C182.032 58.8531 181.472 60.5195 180.702 62.158C179.694 64.2585 178.755 66.4151 178.419 68.7677C178.307 69.6219 178.321 70.4762 178.405 71.3304C178.447 71.8205 178.447 72.2966 178.475 72.8428C179.021 72.4647 179.428 72.0166 179.932 71.6945C180.156 71.5685 180.352 71.3864 180.618 71.4424C180.702 71.4704 180.758 71.5124 180.772 71.6105C180.562 72.0026 180.184 72.2126 179.876 72.4927C179.61 72.7168 179.358 72.9548 179.134 73.2349C180.338 72.1006 181.822 71.5544 183.377 71.1763C184.721 70.8543 186.051 70.5042 187.368 70.1121C189.37 69.5239 191.345 69.734 193.347 69.902C193.529 69.916 193.697 69.986 193.893 69.93C192.717 69.4959 191.485 69.1598 190.238 69.3839C188.348 69.72 186.457 69.958 184.623 70.5042C184.385 70.5742 184.133 70.6582 183.881 70.5882C183.811 70.5462 183.755 70.5042 183.741 70.4202C184.007 70.0561 184.413 69.986 184.805 69.902C187.438 69.2859 189.93 68.2076 192.479 67.3113C193.515 66.9332 194.524 66.4711 195.546 66.037C196.162 65.7709 196.694 65.3508 197.296 65.0427C197.954 64.7066 198.627 64.3986 199.327 64.1605C199.663 64.0345 199.761 63.9084 199.481 63.6144C199.159 63.2503 198.907 62.8302 198.641 62.41C198.557 62.284 198.473 62.158 198.501 61.9899C198.445 61.8359 198.375 61.6819 198.305 61.5278C198.207 61.2757 198.263 61.1917 198.557 61.2057C198.949 61.2337 199.355 61.2617 199.747 61.3178C200.531 61.4438 201.301 61.6398 202.072 61.7379C202.632 61.8079 203.164 61.9059 203.696 62.088C204.298 62.312 204.718 62.6621 204.886 63.3343C205.026 63.9224 205.264 64.4826 205.39 65.0847C205.586 66.065 206.175 66.8072 206.931 67.4374C207.533 67.9415 208.191 68.3056 208.919 68.6137C210.054 69.0898 211.048 69.804 212.028 70.5462C213.092 71.3444 213.541 72.4647 213.807 73.683C214.045 74.7193 214.017 75.7976 213.779 76.8338C213.541 77.8981 213.246 78.9624 212.966 80.0127C212.644 81.203 212.07 82.2673 211.468 83.3175C211.104 83.9477 210.74 84.5779 210.39 85.208C210.208 85.5301 209.998 85.8382 209.718 86.0903C209.522 86.2723 209.423 86.4964 209.409 86.7625C209.325 87.8687 209.031 88.947 208.849 90.0393C208.583 91.6357 208.261 93.2181 207.981 94.8006C207.771 96.0609 207.519 97.3212 207.351 98.5816C207.253 99.3938 207.113 100.206 206.987 101.018C206.903 101.606 206.847 102.195 206.861 102.783C206.875 103.245 206.777 103.693 206.665 104.127C206.539 104.659 206.553 105.205 206.553 105.737C206.553 105.877 206.581 106.018 206.469 106.13C206.259 105.947 206.245 105.681 206.231 105.429C206.063 103.763 205.404 102.321 204.326 101.06C204.13 100.836 203.92 100.654 203.654 100.542C203.5 100.486 203.318 100.36 203.192 100.542C203.094 100.696 203.262 100.822 203.36 100.934C203.724 101.284 204.032 101.676 204.298 102.11C204.858 102.951 205.25 103.847 205.418 104.855C205.657 106.312 205.853 107.782 205.909 109.266C205.923 109.7 206.007 110.121 206.049 110.597C206.413 110.317 206.189 109.841 206.483 109.588C206.651 109.658 206.651 109.813 206.651 109.967C206.665 110.415 206.735 110.863 206.651 111.283C206.525 112.053 206.189 112.725 205.474 113.117C205.012 113.355 204.522 113.537 204.018 113.678C203.43 113.832 202.87 114.07 202.268 114.154C202.086 114.168 201.918 114.238 201.833 114.448C201.441 115.358 200.951 116.226 200.671 117.178C200.363 118.215 199.929 119.209 199.761 120.287C199.649 121.043 199.453 121.8 199.509 122.584C199.579 123.438 199.747 124.278 199.929 125.119C200.083 125.903 200.237 126.673 200.391 127.443C200.419 127.639 200.489 127.807 200.545 127.975C200.685 128.339 200.727 128.731 200.727 129.124C200.713 129.726 200.713 130.328 200.727 130.944C200.741 131.28 200.643 131.574 200.419 131.826C199.957 132.316 199.481 132.765 198.725 132.765C198.347 132.779 197.968 132.905 197.548 132.975C197.702 133.339 197.8 133.675 197.814 134.053C197.828 134.571 197.59 134.921 197.184 135.187C196.638 135.537 196.022 135.705 195.42 135.901C195.308 135.929 195.196 135.957 195.084 135.999C194.552 136.013 194.019 135.957 193.473 135.901C193.347 135.887 193.207 135.873 193.081 135.817C192.787 135.691 192.493 135.607 192.171 135.593C191.863 135.579 191.597 135.397 191.387 135.187C190.813 134.585 190.238 133.997 189.958 133.185C189.776 132.681 189.454 132.246 189.272 131.728C189.146 131.364 188.796 131.126 188.502 130.874C188.026 130.44 187.788 129.936 187.788 129.278C187.802 128.619 187.508 128.073 186.962 127.681C186.415 127.289 185.911 126.855 185.589 126.239C185.337 125.791 185.197 125.329 185.169 124.796C185.127 123.97 185.281 123.158 185.435 122.346C185.477 122.108 185.519 121.87 185.197 121.786C185.225 121.436 185.575 121.338 185.757 121.113C185.939 120.889 186.163 120.707 186.331 120.469C185.519 121.071 184.721 121.688 183.825 122.15C182.802 122.682 181.724 123.06 180.59 123.228C179.82 123.326 179.092 123.06 178.461 122.612C177.761 122.136 176.921 121.926 176.263 121.38C176.179 121.31 176.039 121.254 175.941 121.352C175.843 121.464 175.941 121.576 176.011 121.674C176.361 122.122 176.879 122.346 177.355 122.626C177.537 122.724 177.845 122.724 177.789 123.06C177.355 122.934 176.935 122.99 176.501 123.088C174.708 123.438 172.902 123.732 171.081 123.914C170.633 123.956 170.185 123.928 169.723 123.942C168.547 123.97 167.37 124.012 166.208 124.04C165.886 124.054 165.564 124.124 165.256 123.97C165.144 123.914 165.032 124.012 164.92 124.026C164.752 123.788 164.962 123.662 165.074 123.522C165.578 122.878 166.306 122.64 167.048 122.486C168.267 122.248 169.415 121.814 170.521 121.296C172.44 120.399 174.442 119.755 176.487 119.321C178.839 118.831 181.052 117.907 183.335 117.234C184.553 116.87 185.757 116.534 186.934 116.086C188.18 115.596 189.328 114.938 190.505 114.322C190.659 114.238 190.785 114.126 190.869 113.986C191.569 113.005 192.395 112.137 193.095 111.157C193.501 110.569 194.131 110.205 194.58 109.644C195.49 108.482 196.344 107.264 197.128 106.018C198.095 104.505 199.187 103.091 200.265 101.676C200.685 101.144 201.035 100.556 201.497 100.066C201.707 99.8419 201.567 99.7019 201.441 99.5058C200.475 98.0354 198.935 97.6013 197.38 97.2092C195.84 96.8311 194.272 96.8591 192.717 97.1112C191.681 97.2792 190.631 97.5033 189.622 97.7974C188.978 97.9934 188.432 98.3155 188.068 98.9176C187.48 99.8419 186.864 100.738 186.429 101.76C185.701 103.525 184.665 105.135 183.433 106.592C182.606 107.558 181.514 108.202 180.366 108.678C178.349 109.532 176.473 110.653 174.554 111.703C173.826 112.095 173.098 112.487 172.328 112.781C171.46 113.103 170.591 113.425 169.821 113.944C169.527 114.14 169.191 114.252 168.841 114.364C166.894 114.98 164.92 115.54 162.987 116.226C161.867 116.632 160.705 116.702 159.514 116.436C157.652 116.044 155.901 116.38 154.347 117.501C153.017 118.453 151.56 119.125 150.02 119.629C149.768 119.713 149.502 119.825 149.264 119.587Z" fill="#7BD2CE"/>
<path d="M178.813 39.0102C177.917 38.9122 177.385 38.3661 177.007 37.5819C176.657 36.8397 176.517 36.0555 176.405 35.2572C176.111 33.3107 176.447 31.4342 176.951 29.5578C177.707 26.771 179.527 24.8245 181.74 23.1161C184.541 20.9455 187.776 19.7692 191.123 18.8169C191.459 18.7329 191.809 18.6489 192.159 18.6909C192.257 18.7049 192.369 18.7049 192.453 18.6769C193.307 18.4388 194.175 18.3548 195.086 18.3268C195.058 18.1027 194.861 18.0327 194.735 17.9207C193.713 17.0385 193.167 15.9322 193.111 14.5738C193.055 13.2295 193.573 12.1792 194.637 11.395C195.31 10.8908 196.08 10.5267 196.878 10.2607C199.651 9.32243 202.493 8.76228 205.434 8.81829C209.103 8.91632 212.156 10.4007 214.439 13.2715C216.455 15.7921 216.651 19.5171 215.069 22.3318C214.453 23.4381 213.542 24.1943 212.366 24.6285C211.288 25.0346 210.168 25.2586 209.005 25.2446C208.823 25.2446 208.641 25.2446 208.473 25.2446C208.375 25.3847 208.473 25.4827 208.515 25.5947C208.795 26.4349 208.963 27.3172 209.061 28.1994C209.229 29.6838 209.495 31.1402 209.719 32.6106C210.013 34.5151 210.111 36.4196 209.747 38.3381C209.733 38.4781 209.719 38.6181 209.663 38.7302C209.327 39.4584 209.229 40.2566 209.047 41.0128C208.991 41.2368 208.921 41.4469 208.837 41.6429C208.263 42.9173 207.689 44.1916 206.877 45.3399C206.793 45.4799 206.695 45.62 206.569 45.732C205.896 46.3762 205.294 47.0764 204.608 47.6925C204.174 48.0846 203.656 48.2667 203.124 48.4067C202.451 48.5888 201.793 48.7428 201.107 48.8548C199.917 49.0369 198.909 49.569 198.152 50.5213C198.096 50.6193 198.026 50.6753 197.9 50.6473C197.914 50.1012 198.264 49.7231 198.586 49.345C199.063 48.7568 199.525 48.1126 200.239 47.7625C200.491 47.6365 200.547 47.3704 200.659 47.1464C200.869 46.9083 201.177 46.9223 201.443 46.8943C202.998 46.7403 204.076 45.9281 204.706 44.5277C205.196 43.4494 205.896 42.4832 206.232 41.3349C206.387 40.8167 206.471 40.2846 206.401 39.7384C206.331 39.2063 206.19 39.0803 205.658 39.0522C204.776 39.0102 204.062 39.3883 203.404 39.9205C203.236 40.0465 203.11 40.2426 202.872 40.2706C202.479 40.0885 202.087 40.3966 201.695 40.2846C201.149 39.8365 200.799 39.2203 200.673 38.5761C200.267 36.6156 199.441 34.8511 198.39 33.1567C198.362 33.1007 198.334 33.0447 198.334 32.9746C198.39 33.5488 198.39 34.137 198.53 34.7111C198.698 35.4533 198.797 36.2095 198.811 36.9517C198.839 38.268 199.469 39.1783 200.505 39.8785C200.757 40.0465 201.051 40.1865 201.065 40.5506C200.897 40.9147 200.575 40.9708 200.225 40.9427C199.217 40.3826 198.446 39.5984 198.096 38.4921C197.69 37.2598 197.564 35.9854 197.452 34.7111C197.298 32.9326 196.766 31.2382 196.304 29.5297C196.248 29.3337 196.108 29.1796 195.968 29.0396C195.016 28.0734 193.937 27.3172 192.691 26.813C191.487 26.3369 190.282 25.9588 188.98 25.9308C188.574 25.9168 188.182 26.0148 187.776 26.0008C186.137 25.9588 184.639 26.3649 183.252 27.2752C181.586 28.3814 180.452 29.8238 180.046 31.7983C179.92 32.3585 179.766 32.9186 179.639 33.4788C179.527 34.0249 179.569 34.5991 179.541 35.1592C179.471 35.8454 179.401 36.5316 179.555 37.2318C179.695 37.4698 179.485 37.6239 179.401 37.8059C179.331 38.086 179.401 38.4081 179.219 38.6742C179.121 38.8282 179.023 38.9822 178.813 39.0102Z" fill="#431613"/>
<path d="M200.224 40.8725C200.532 40.8305 200.812 40.7045 201.078 40.5364C201.26 40.3544 201.484 40.2704 201.75 40.2424C201.932 40.1863 202.114 40.1303 202.31 40.0743C202.506 40.0043 202.688 40.0183 202.828 40.2143C202.87 40.5084 202.632 40.5504 202.436 40.6065C202.072 40.7185 201.708 40.8305 201.372 41.0126C200.952 41.1246 200.952 41.4607 200.924 41.7968C200.756 42.777 200.406 43.7153 200.126 44.6675C199.958 45.1717 199.748 45.6618 199.622 46.1799C199.313 46.9221 199.131 47.7203 198.837 48.3925C199.033 48.1404 199.257 47.8324 199.538 47.5663C199.846 47.2722 200.182 46.9501 200.686 47.1882C200.756 47.5103 200.602 47.7203 200.35 47.8604C199.65 48.2245 199.173 48.8406 198.669 49.4148C198.361 49.7649 198.151 50.227 197.899 50.6471C197.745 50.8011 197.605 50.9692 197.493 51.1652C197.437 51.4313 197.311 51.6694 197.129 51.8654C194.608 54.6381 191.681 56.6967 187.83 57.0188C186.15 57.1588 184.442 57.2568 182.775 56.8087C182.579 56.7667 182.369 56.7387 182.243 56.5566C181.795 56.4446 181.375 56.2906 180.969 56.0805C180.675 55.9405 180.437 55.7584 180.226 55.4924C179.75 54.7922 179.904 54.008 179.974 53.2378C180.114 51.8094 180.072 50.423 179.456 49.0927C179.134 48.3645 178.77 47.6643 178.406 46.9641C177.944 46.0819 177.524 45.1576 177.44 44.1634C177.328 42.847 177.314 41.5307 177.846 40.2844C178.028 39.8783 178.21 39.4722 178.728 39.4021C179.064 39.2061 179.344 39.4301 179.61 39.5702C180.254 39.8783 180.927 40.0603 181.613 40.2143C182.159 40.3404 182.705 40.3964 183.237 40.2003C183.321 40.1863 183.405 40.1863 183.489 40.1863C184.316 40.1583 185.03 40.4384 185.66 40.9565C185.912 41.1666 186.178 41.3346 186.5 41.4187C187.564 41.7548 188.657 42.0208 189.749 42.3009C191.695 42.805 193.6 42.553 195.518 42.1609C196.961 41.8668 198.361 41.4887 199.734 40.9565C199.888 40.9005 200.056 40.8725 200.224 40.8725Z" fill="#9CB7D4"/>
<path d="M200.225 40.8717C200.141 40.9277 200.057 40.9977 199.959 41.0257C198.712 41.5018 197.452 41.9639 196.108 42.174C195.421 42.286 194.735 42.4681 194.035 42.5801C192.733 42.7902 191.444 42.8182 190.142 42.5381C188.882 42.258 187.635 41.9359 186.403 41.5578C186.151 41.4738 185.913 41.4038 185.731 41.2077C185.101 40.5776 184.317 40.3255 183.448 40.3115C183.406 40.2555 183.364 40.1995 183.378 40.1295C183.546 39.2472 183.49 38.365 183.238 37.6368C183.434 38.449 183.672 39.3873 183.252 40.3255C182.72 40.5916 182.188 40.4796 181.642 40.3815C180.788 40.2275 179.989 39.9054 179.191 39.5413C179.051 39.4853 178.897 39.4153 178.729 39.4013C178.701 39.2612 178.771 39.1352 178.813 39.0092C179.205 38.6591 179.233 38.197 179.303 37.7208C179.555 38.0009 179.933 37.9169 180.227 38.0569C180.255 38.435 179.905 38.239 179.765 38.379C179.933 38.5891 180.115 38.7851 180.368 38.8971C180.494 38.9531 180.606 39.0512 180.718 39.1212C181.026 39.3312 181.362 39.2752 181.698 39.2612C182.02 39.2472 181.838 39.0512 181.824 38.9111C181.964 38.7431 181.95 38.5751 181.81 38.421C181.53 38.0709 181.166 37.8749 180.732 37.8329C180.466 37.8049 180.129 37.9029 180.003 37.5388C179.989 37.4968 180.017 37.4968 179.989 37.4968C179.667 37.5388 179.653 37.5388 179.527 37.2867C179.457 37.2727 179.331 37.3847 179.331 37.2447C179.359 36.5445 179.247 35.8443 179.429 35.1722C179.653 34.9761 179.835 35.1301 180.031 35.2142C180.9 35.5923 181.656 36.0964 182.202 36.9086C182.496 36.2504 182.454 36.0684 181.95 35.6623C181.264 35.0881 180.55 34.556 179.779 34.1079C179.513 33.9398 179.415 33.7438 179.513 33.4357C179.695 32.5535 179.877 31.6572 180.171 30.789C180.522 29.7387 181.152 28.8285 181.964 28.0863C182.804 27.2881 183.812 26.7279 184.849 26.2658C185.409 26.0278 185.997 25.8457 186.655 25.9297C187.103 25.9857 187.551 25.8737 188.014 25.8317C189.442 25.7057 190.828 25.9017 192.159 26.4479C192.607 26.6439 193.055 26.812 193.503 27.008C194.567 27.4981 195.393 28.2823 196.22 29.0806C196.332 29.1926 196.402 29.3186 196.444 29.4727C197.032 31.5032 197.55 33.5617 197.704 35.6903C197.746 36.3625 197.9 37.0206 198.012 37.6928C198.194 38.8691 198.852 39.7654 199.749 40.5076C199.903 40.6336 200.057 40.7456 200.225 40.8717Z" fill="#AB6243"/>
<path d="M182.242 56.556C184.021 57.0881 185.841 57.0321 187.634 56.8921C189.958 56.71 192.115 55.9398 194.005 54.4974C195.042 53.7132 196.008 52.859 196.89 51.9067C197.1 51.6687 197.296 51.4166 197.492 51.1646C197.646 51.3186 197.506 51.4586 197.45 51.5847C197.114 52.5369 197.016 53.5452 196.862 54.5394C196.736 55.3797 196.722 56.2199 196.792 57.0601C196.932 58.6705 197.24 60.2529 198.165 61.6393C198.263 61.7793 198.347 61.9194 198.501 61.9894C198.991 62.6616 199.425 63.3898 200.041 64.0339C199.537 64.216 199.117 64.37 198.697 64.5241C197.828 64.8461 197.03 65.3083 196.26 65.8124C195.644 66.2045 194.958 66.4286 194.3 66.7086C191.779 67.7869 189.188 68.6552 186.611 69.5654C186.205 69.7054 185.785 69.8315 185.351 69.9015C184.805 69.9855 184.287 70.2096 183.769 70.4056C183.713 70.4756 183.629 70.5597 183.531 70.5877C182.69 70.8397 181.85 71.1198 181.024 71.4419C180.898 71.4839 180.758 71.4699 180.632 71.4979C180.17 71.6239 179.82 71.96 179.456 72.2401C179.092 72.5342 178.741 72.8563 178.391 73.1643C178.265 73.0243 178.307 72.8843 178.321 72.7582C178.363 71.932 178.209 71.1198 178.195 70.2936C178.167 68.7532 178.447 67.2828 179.021 65.8544C179.344 65.0422 179.638 64.216 179.946 63.3898C180.086 63.0117 180.226 62.6476 180.436 62.2975C181.164 61.0231 181.598 59.6508 181.948 58.2364C182.088 57.6903 182.186 57.1301 182.242 56.556Z" fill="#AB6243"/>
<path d="M102.776 116.156C102.832 116.114 102.888 116.086 102.944 116.044C103.588 115.862 104.148 115.54 104.736 115.246C105.871 114.686 106.977 114.084 108.083 113.481C109.316 112.823 110.576 112.235 111.878 111.745C112.985 111.325 114.063 110.863 115.169 110.471C115.785 110.261 116.401 110.106 117.046 110.092C117.718 110.064 118.152 110.541 118.068 111.213C117.984 111.899 117.746 112.515 117.186 112.977C116.597 113.453 116.009 113.929 115.337 114.294C114.721 114.644 114.133 115.022 113.531 115.4C112.606 115.96 111.976 116.772 111.556 117.752C111.486 117.935 111.43 118.103 111.346 118.271C111.136 118.635 111.178 118.999 111.276 119.377C111.542 120.497 112.228 121.323 113.027 122.094C114.105 123.13 115.407 123.704 116.794 124.18C118.152 124.642 119.538 125.09 120.855 125.679C122.437 126.379 123.949 127.233 125.35 128.269C125.7 128.535 125.994 128.857 126.218 129.236C126.33 129.418 126.386 129.6 126.386 129.81C126.386 130.048 126.302 130.216 126.05 130.23C125.924 130.23 125.812 130.258 125.714 130.328C124.944 130.86 124.145 130.776 123.319 130.468C122.129 130.034 120.995 129.474 119.846 128.983C118.81 128.535 117.746 128.129 116.64 127.947C116.079 127.849 115.533 127.891 114.987 128.059C114.259 128.297 114.189 129.166 114.567 129.586C114.763 129.796 114.931 130.034 115.141 130.216C116.247 131.182 117.27 132.232 118.446 133.115C119.104 133.605 119.706 134.179 120.336 134.711C120.477 134.865 120.631 135.033 120.771 135.187C121.471 135.929 121.331 136.685 120.42 137.148C119.65 137.54 118.824 137.68 117.984 137.596C117.284 137.526 116.597 137.358 115.939 137.092C115.547 136.924 115.197 136.713 114.861 136.405C114.259 137.316 113.279 137.372 112.368 137.512C112.004 137.568 111.626 137.568 111.262 137.596C110.688 137.638 110.128 137.512 109.708 137.05C109.484 136.798 109.232 136.559 109.007 136.321C108.881 136.209 108.797 136.195 108.685 136.349C108.237 136.966 107.579 137.344 106.991 137.778C106.403 138.212 105.773 138.072 105.198 137.722C104.932 137.554 104.652 137.372 104.4 137.204C103.7 136.713 103.196 136.055 102.832 135.313C102.076 133.773 100.857 132.708 99.401 131.882C98.6588 131.448 97.9586 130.972 97.4825 130.216C97.0764 129.572 96.4182 129.137 95.788 128.717C95.1999 128.325 94.6677 127.863 93.9815 127.639C93.8975 127.611 93.8415 127.541 93.7715 127.485C94.2896 126.197 94.8358 124.936 95.4799 123.718C96.2361 122.262 97.0343 120.805 97.6085 119.265C97.8186 118.719 98.0286 118.201 98.1546 117.626C98.2106 117.346 98.2387 117.066 98.1826 116.786C98.3367 116.618 98.5187 116.688 98.7008 116.73C100.045 117.038 101.333 116.884 102.566 116.296C102.65 116.254 102.72 116.198 102.776 116.156Z" fill="#9CB7D4"/>
<path d="M149.264 119.588C149.712 119.7 150.09 119.462 150.468 119.322C151.84 118.846 153.129 118.216 154.305 117.348C155.439 116.521 156.728 116.129 158.142 116.157C158.716 116.171 159.276 116.213 159.837 116.339C161.041 116.633 162.203 116.381 163.337 115.975C164.85 115.415 166.404 114.953 167.945 114.505C168.715 114.281 169.499 114.043 170.171 113.581C170.675 113.231 171.25 113.048 171.824 112.838C173.378 112.264 174.792 111.41 176.221 110.598C177.481 109.898 178.77 109.239 180.1 108.651C181.29 108.133 182.438 107.531 183.293 106.523C184.273 105.374 185.155 104.156 185.785 102.784C186.023 102.308 186.261 101.818 186.472 101.327C186.948 100.235 187.648 99.2829 188.32 98.3166C188.418 98.1906 188.544 98.1206 188.67 98.0365C189.188 97.7705 189.72 97.5604 190.281 97.4624C191.289 97.2944 192.269 96.9863 193.291 96.8882C194.944 96.7202 196.582 96.7482 198.179 97.2663C199.047 97.5464 199.901 97.8545 200.643 98.4006C200.755 98.4847 200.881 98.5407 200.951 98.6527C201.175 99.0308 201.455 99.3669 201.792 99.661C201.932 99.787 201.946 99.913 201.778 100.025C201.624 100.123 201.498 100.249 201.385 100.403C200.461 101.734 199.425 102.98 198.459 104.282C198.011 104.898 197.618 105.571 197.184 106.215C196.344 107.461 195.504 108.693 194.594 109.884C194.538 109.954 194.496 110.024 194.426 110.08C193.263 110.878 192.605 112.138 191.681 113.161C191.429 113.441 191.219 113.777 190.995 114.085C190.883 114.239 190.743 114.365 190.575 114.449C189.552 114.981 188.544 115.569 187.48 116.017C186.402 116.479 185.281 116.843 184.147 117.166C182.929 117.488 181.724 117.866 180.562 118.314C179.47 118.734 178.363 119.042 177.229 119.28C175.311 119.686 173.448 120.232 171.628 120.961C170.885 121.255 170.157 121.591 169.401 121.913C168.645 122.221 167.861 122.459 167.048 122.627C166.614 122.725 166.208 122.865 165.816 123.061C165.424 123.271 165.102 123.593 164.92 124.027C164.374 124.349 163.94 124.784 163.576 125.302C162.637 126.576 161.741 127.878 160.901 129.237C160.327 130.161 159.851 131.155 159.22 132.037C158.59 132.906 157.876 133.732 156.644 133.774C156.028 133.802 155.495 134.096 155.019 134.502C153.955 135.398 152.891 136.309 151.784 137.163C151.084 137.709 150.3 137.849 149.46 137.639C148.886 137.485 148.298 137.471 147.709 137.485C147.317 137.499 146.995 137.681 146.673 137.835C145.749 137.835 144.825 137.751 143.914 137.849C143.06 137.933 142.206 137.891 141.366 137.919C140.988 137.947 140.637 137.849 140.287 137.737C139.993 137.653 139.797 137.443 139.671 137.177C139.475 136.813 139.573 136.547 139.993 136.197C140.021 136.253 140.049 136.323 140.049 136.393C139.937 137.107 140.147 137.387 140.876 137.471C140.988 137.485 141.114 137.457 141.184 137.485C140.988 137.457 140.75 137.471 140.539 137.373C140.259 137.261 140.021 137.093 139.993 136.771C139.979 136.449 140.175 136.239 140.441 136.085C140.567 136.015 140.708 135.931 140.862 135.903C141.772 135.776 142.64 135.496 143.578 135.426C145.035 135.3 146.491 135.398 147.681 135.342C146.953 135.356 145.959 135.3 144.979 135.328C144.194 135.356 143.438 135.44 142.668 135.51C142.136 135.566 141.59 135.58 141.086 135.37C140.567 135.16 140.511 134.768 140.946 134.404C141.198 134.194 141.492 134.082 141.786 133.984C142.024 133.83 142.276 133.76 142.542 133.718C143.718 133.522 144.839 133.144 145.973 132.78C146.701 132.556 147.457 132.346 148.087 131.883C148.326 131.715 148.536 131.533 148.76 131.351C148.886 131.057 149.18 130.973 149.432 130.861C150.832 130.217 152.107 129.405 153.185 128.271C153.661 127.766 154.067 127.206 154.501 126.688C154.949 126.156 154.809 125.526 154.571 124.952C154.333 124.363 154.109 123.761 153.871 123.159C153.647 122.571 153.395 122.459 152.779 122.627C151.49 123.005 150.216 123.425 148.97 123.915C148.788 123.985 148.634 124.083 148.438 124.055C148.129 123.943 147.821 123.929 147.499 124.013C146.995 124.139 146.505 124.041 146.029 123.831C145.679 123.677 145.511 123.243 145.637 122.865C145.763 122.487 145.987 122.179 146.281 121.927C146.883 121.437 147.471 120.947 148.157 120.582C148.62 120.33 148.956 119.98 149.264 119.588Z" fill="#AB6243"/>
<path d="M164.348 129.011C164.432 129.991 164.502 130.887 164.6 131.783C164.712 132.652 164.754 133.52 164.824 134.402C164.88 135.046 164.838 135.704 164.908 136.363C165.034 137.371 165.048 138.393 165.174 139.415C165.244 139.948 165.258 140.494 165.314 141.012C165.384 141.614 165.37 142.23 165.482 142.818C165.566 143.252 165.538 143.687 165.58 144.121C165.748 145.745 165.706 147.384 165.706 149.022C165.706 149.162 165.748 149.372 165.538 149.386C165.37 149.386 165.314 149.204 165.3 149.05C165.286 148.252 165.132 147.482 165.09 146.683C165.034 145.815 164.908 144.961 164.824 144.093C164.782 143.673 164.74 143.252 164.726 142.832C164.698 142.216 164.614 141.6 164.586 140.984C164.53 140.06 164.404 139.149 164.32 138.225C164.306 138.183 164.292 138.127 164.306 138.071C164.334 137.203 164.194 136.335 164.166 135.452C164.152 134.598 164.11 133.744 164.026 132.89C163.955 132.358 163.899 131.825 163.899 131.293C163.885 130.831 163.773 130.397 163.773 129.935C163.787 129.515 163.955 129.109 163.801 128.689C163.745 128.535 163.913 128.409 164.082 128.409C164.81 128.395 165.51 128.212 166.238 128.184C166.728 128.17 167.232 128.086 167.722 127.988C168.451 127.848 169.179 127.75 169.921 127.806C170.719 127.848 171.475 127.666 172.26 127.554C172.722 127.484 173.184 127.414 173.646 127.386C174.304 127.344 174.948 127.26 175.593 127.162C176.111 127.092 176.615 127.022 177.133 126.98C177.931 126.896 178.729 126.77 179.514 126.63C179.864 126.56 180.214 126.574 180.55 126.518C181.502 126.364 182.454 126.35 183.421 126.392C183.617 126.392 183.813 126.448 184.009 126.518C184.163 126.574 184.275 126.714 184.261 126.91C184.233 127.092 184.079 127.148 183.939 127.176C183.407 127.26 182.874 127.344 182.342 127.386C181.796 127.428 181.25 127.526 180.704 127.568C180.06 127.61 179.444 127.722 178.813 127.792C178.449 127.834 178.085 127.918 177.707 127.918C177.385 127.918 177.329 128.016 177.427 128.325C177.693 129.067 177.861 129.851 178.393 130.481C179.276 131.545 180.116 132.638 181.432 133.212C181.992 133.45 182.552 133.618 183.169 133.688C183.701 133.744 184.233 133.758 184.779 133.772C185.297 133.786 185.815 133.716 186.319 133.604C186.571 133.548 186.824 133.576 187.076 133.576C187.272 133.576 187.44 133.674 187.468 133.884C187.524 134.094 187.328 134.178 187.174 134.234C186.781 134.36 186.403 134.556 186.011 134.696C185.129 135.018 184.247 135.018 183.337 134.92C182.58 134.836 181.852 134.682 181.152 134.402C180.62 134.192 180.144 133.926 179.724 133.562C178.715 132.666 177.735 131.755 177.105 130.523C176.783 129.907 176.643 129.235 176.601 128.535C176.573 128.1 176.587 128.114 176.139 128.1C175.887 128.086 175.677 128.17 175.439 128.198C174.136 128.381 172.806 128.395 171.517 128.689C171.125 128.773 170.705 128.717 170.313 128.717C169.739 128.731 169.179 128.675 168.605 128.801C168.395 128.843 168.339 128.941 168.325 129.137C168.311 129.473 168.409 129.795 168.451 130.131C168.563 131.027 168.759 131.909 168.899 132.806C169.039 133.688 169.165 134.556 169.249 135.452C169.305 136.167 169.445 136.881 169.515 137.595C169.571 138.365 169.669 139.135 169.767 139.892C169.851 140.592 169.823 141.292 169.907 142.006C169.991 142.678 169.977 143.378 169.879 144.065C169.795 144.765 169.655 145.451 169.459 146.137C169.039 147.552 168.087 148.532 166.882 149.316C166.798 149.372 166.714 149.414 166.616 149.442C166.504 149.47 166.42 149.414 166.35 149.33C166.308 149.246 166.308 149.162 166.364 149.092C166.434 148.994 166.518 148.91 166.602 148.826C167.008 148.406 167.428 148 167.792 147.524C168.395 146.711 168.759 145.801 168.927 144.807C169.109 143.715 169.081 142.636 168.955 141.544C168.899 141.124 168.885 140.704 168.857 140.284C168.745 139.065 168.577 137.847 168.451 136.643C168.381 135.887 168.297 135.13 168.227 134.388C168.129 133.604 167.989 132.834 167.877 132.049C167.821 131.615 167.75 131.181 167.708 130.747C167.68 130.229 167.596 129.711 167.624 129.193C167.624 129.011 167.554 128.885 167.358 128.927C166.546 129.095 165.748 128.969 164.936 129.011C164.754 129.025 164.572 129.011 164.348 129.011Z" fill="#284377"/>
<path d="M141.786 133.983C141.548 134.221 141.198 134.277 140.974 134.543C140.652 134.907 140.68 135.103 141.156 135.257C141.674 135.439 142.22 135.425 142.752 135.369C143.565 135.271 144.377 135.187 145.189 135.187C145.511 135.187 145.833 135.201 146.141 135.117C146.407 135.047 146.659 135.201 146.94 135.187C147.444 135.173 147.962 135.215 148.55 135.145C148.34 135.481 148.088 135.495 147.822 135.495C146.716 135.495 145.595 135.467 144.489 135.509C143.831 135.537 143.159 135.523 142.5 135.691C141.968 135.845 141.45 135.957 140.904 136.013C140.792 136.027 140.68 136.097 140.582 136.153C140.274 136.307 140.064 136.602 140.106 136.812C140.134 137.022 140.484 137.302 140.806 137.302C141.1 137.316 141.394 137.414 141.702 137.442C141.618 137.596 141.492 137.61 141.366 137.61C141.044 137.638 140.736 137.596 140.428 137.512C139.868 137.358 139.686 136.966 139.91 136.433C139.938 136.363 139.966 136.279 139.994 136.195C140.344 135.915 140.778 135.803 141.198 135.649C140.414 135.131 140.414 135.131 140.582 134.501C140.96 134.249 141.31 133.955 141.786 133.983Z" fill="#D59777"/>
<path d="M50.1906 128.495C50.1906 129.937 50.1766 131.379 50.3727 132.822C50.5547 134.11 50.7227 135.384 50.9608 136.645C51.2129 137.975 51.619 139.263 52.0531 140.538C52.4032 141.546 52.7253 142.582 52.9353 143.633C53.1174 144.459 53.2574 145.285 53.2014 146.125C53.1594 146.881 53.1174 147.638 52.9073 148.366C52.8233 148.702 52.7113 149.024 52.3752 149.178C52.1231 149.304 52.0111 149.262 51.885 149.01C51.843 148.926 51.815 148.814 51.815 148.716C51.829 148.268 51.745 147.82 51.717 147.372C51.619 145.971 51.3669 144.599 51.0028 143.255C50.6387 141.924 50.1486 140.636 49.7285 139.319C49.3224 138.017 49.0703 136.687 48.8603 135.342C48.7202 134.446 48.6222 133.55 48.5102 132.654C48.4541 132.136 48.3841 131.617 48.3841 131.099C48.3701 130.595 48.3841 130.077 48.3701 129.573C48.3701 128.327 48.4822 127.094 48.5662 125.848C48.6222 124.938 48.7622 124.055 48.9723 123.173C49.1823 122.347 49.5044 121.577 49.8545 120.807C50.0366 120.428 49.9245 120.429 49.6445 120.288C47.992 119.504 46.3956 118.622 44.7012 117.894C43.4268 117.348 42.2645 116.549 41.1022 115.793C40.0939 115.121 39.0997 114.449 38.1894 113.651C37.6153 113.147 37.1252 112.572 36.565 112.054C35.2207 110.85 34.2824 109.352 33.4002 107.783C32.672 106.509 31.9858 105.221 31.0896 104.058C30.4734 103.26 29.8012 102.504 29.1991 101.706C28.849 101.243 28.4569 100.823 28.0648 100.417C27.5747 99.9271 27.0285 99.465 26.4824 99.0309C25.5301 98.2887 24.5499 97.5745 23.6536 96.7763C22.7574 95.9781 21.8471 95.2079 20.9789 94.3957C19.8726 93.3734 18.6683 92.4351 17.646 91.3288C16.7358 90.3486 15.7836 89.4384 14.8873 88.4441C14.0191 87.4918 13.0668 86.6096 12.3947 85.4893C11.5264 83.9909 10.5322 82.5625 9.77597 81.0081C9.56592 80.588 9.42588 80.1679 9.29985 79.7338C9.20182 79.4257 9.27184 79.1877 9.46789 79.1176C9.67795 79.0476 9.90201 79.1316 10.042 79.4117C10.3921 80.1259 10.7982 80.7981 11.2604 81.4422C12.2686 82.8286 13.1229 84.327 14.1731 85.6854C14.2572 85.7834 14.3412 85.8954 14.4392 85.9934C15.8396 87.4218 17.2679 88.8082 18.6263 90.2926C19.4945 91.2308 20.4888 92.029 21.455 92.8552C21.8612 93.2053 22.2533 93.5834 22.6454 93.9475C23.9897 95.1659 25.3901 96.3142 26.8045 97.4485C27.6587 98.1206 28.5269 98.7788 29.2831 99.577C29.7172 100.053 30.1233 100.543 30.5154 101.033C31.2296 101.93 31.9578 102.812 32.63 103.722C33.1061 104.366 33.4982 105.052 33.8903 105.725C34.6045 106.915 35.2907 108.105 36.0609 109.254C36.2849 109.576 36.523 109.87 36.8031 110.15C37.6713 111.032 38.5115 111.942 39.4778 112.74C40.29 113.399 41.1442 114.001 42.0125 114.561C43.3288 115.443 44.6732 116.269 46.1295 116.886C47.908 117.642 49.4904 118.706 51.1148 119.714C51.591 120.008 52.0391 120.344 52.4872 120.667C52.7253 120.835 52.9633 121.045 53.0754 121.339C53.1314 121.507 53.0894 121.605 52.9073 121.619C52.6693 121.633 52.4452 121.647 52.2211 121.535C51.9271 121.395 51.633 121.269 51.3389 121.143C51.1849 121.059 51.0588 121.045 51.0028 121.269C50.7788 122.207 50.5267 123.145 50.3727 124.111C50.1626 125.568 50.2046 127.024 50.1906 128.495Z" fill="#DA4342"/>
<path d="M48.5795 105.64C48.4955 103.974 49.0416 102.573 50.0779 101.327C50.708 100.557 51.4082 99.8705 52.2064 99.2823C52.2905 99.2263 52.3605 99.1423 52.4445 99.0863C52.5985 99.0023 52.5845 98.8902 52.5145 98.7502C52.1224 97.966 51.7163 97.1958 51.1562 96.5236C50.2039 95.3753 49.3497 94.185 48.5935 92.9107C48.2154 92.2805 47.7813 91.7203 47.3191 91.1602C46.4509 90.0959 45.6387 88.9756 44.8405 87.8553C43.9583 86.609 43.09 85.3487 42.2638 84.0603C41.7177 83.2341 41.1435 82.4219 40.6114 81.5817C39.9112 80.4474 39.225 79.2851 38.5948 78.0948C38.3428 77.6186 38.2168 77.1005 38.1607 76.5544C38.1047 75.9522 38.1327 75.35 38.0767 74.7479C37.9647 73.3475 37.7126 71.9752 37.0264 70.7288C36.8304 70.3507 36.6623 69.9306 36.1442 69.8466C35.9762 69.8326 35.8641 69.6645 35.8781 69.4685C35.8781 69.2864 36.0042 69.2164 36.1442 69.1464C36.7043 68.8523 37.1665 69.1044 37.5726 69.4405C38.0907 69.8606 38.4268 70.4207 38.6929 71.0369C39.197 72.1572 39.4631 73.3475 39.6171 74.5798C39.7011 75.224 39.6591 75.8822 39.7712 76.5263C39.8552 76.9885 40.0232 77.3666 40.2473 77.7447C41.3816 79.7192 42.6699 81.6097 43.9303 83.5142C45.0225 85.1526 46.1568 86.763 47.3051 88.3595C48.0053 89.3397 48.8175 90.236 49.5037 91.2302C50.0219 91.9724 50.512 92.7426 50.9881 93.5128C51.4782 94.311 52.1084 95.0252 52.6265 95.8094C53.0887 96.5236 53.4107 97.3078 53.6068 98.12C53.6768 98.3861 53.7748 98.4561 54.0129 98.4421C54.195 98.4421 54.433 98.3861 54.503 98.6522C54.5871 98.9042 54.461 99.0723 54.293 99.2403C53.9429 99.6044 53.5228 99.8845 53.1727 100.249C52.4725 100.991 51.7863 101.747 51.2262 102.615C50.666 103.469 50.3719 104.436 50.1899 105.43C50.1059 105.892 50.1059 106.34 50.0919 106.788C50.0359 107.615 50.2599 108.385 50.582 109.141C50.68 109.365 50.708 109.589 50.694 109.827C50.68 110.051 50.568 110.135 50.3579 110.051C50.0219 109.911 49.7558 109.701 49.5457 109.407C49.0556 108.707 48.8315 107.923 48.6775 107.11C48.5795 106.606 48.5515 106.102 48.5795 105.64Z" fill="#DA4342"/>
<path d="M50.2872 61.5693C50.2872 61.0512 50.3012 60.589 50.2872 60.1269C50.2872 59.8328 50.3293 59.5388 50.3853 59.2307C50.4133 59.0626 50.4413 58.8946 50.6513 58.8666C50.8754 58.8246 51.0434 58.9086 51.1695 59.0907C51.3095 59.3427 51.3655 59.6368 51.3935 59.9169C51.5476 61.7654 51.8417 63.6138 52.1777 65.4343C52.3318 66.2465 52.4298 67.0587 52.4998 67.885C52.5698 68.6132 52.7519 69.3273 52.8639 70.0695C53.018 71.1058 53.186 72.1561 53.34 73.1924C53.4941 74.2706 53.5921 75.3629 53.6901 76.4412C53.7462 76.9874 53.7742 77.5475 53.8442 78.0937C53.9422 78.8499 53.8442 79.606 54.0122 80.3482C54.0402 80.5303 54.0262 80.7263 54.0262 80.9084C54.0262 82.1547 54.1523 83.387 54.3063 84.6194C54.4883 86.0337 54.6844 87.4481 54.6424 88.8905C54.6144 89.6607 54.7684 90.4169 54.8664 91.1871C54.9085 91.6212 55.0065 92.0553 55.0205 92.4894C55.0765 93.5817 55.2586 94.646 55.3706 95.7383C55.4126 96.2424 55.4126 96.7466 55.4406 97.2507C55.4406 97.2927 55.4406 97.3487 55.4406 97.3907C55.4266 97.5868 55.3426 97.7408 55.1745 97.7828C54.9925 97.8248 54.8384 97.7128 54.7544 97.5588C54.6284 97.3347 54.5024 97.1247 54.4323 96.8726C54.0122 95.0801 53.4941 93.3017 53.158 91.4812C53.032 90.795 52.9619 90.0948 52.8919 89.3946C52.7799 88.3303 52.8919 87.2661 52.7099 86.2158C52.5838 85.5296 52.5138 84.8294 52.3738 84.1292C52.2758 83.6811 52.2618 83.233 52.2338 82.7849C52.2057 81.9027 52.1077 81.0064 52.0937 80.1102C52.0657 79.396 52.0517 78.6818 51.9257 77.9536C51.8557 77.4915 51.8697 77.0294 51.8276 76.5532C51.7856 75.9931 51.7296 75.4189 51.6876 74.8448C51.6596 74.1446 51.5476 73.4444 51.4636 72.7442C51.3515 71.918 51.2255 71.0918 51.0995 70.2656C51.0154 69.6774 50.9174 69.1033 50.8334 68.5291C50.7774 68.095 50.7354 67.6609 50.7074 67.2268C50.6653 66.3866 50.5673 65.5464 50.4693 64.7201C50.3293 63.6419 50.2732 62.5776 50.2872 61.5693Z" fill="#DA4342"/>
<path d="M65.537 81.6078C65.439 83.5123 65.0889 85.2628 64.3047 86.9012C63.9966 87.5734 63.7025 88.2596 63.4505 88.9597C63.4225 89.0158 63.4225 89.0858 63.3805 89.1418C63.2684 89.3238 63.1564 89.5339 62.8903 89.5059C62.7083 89.4779 62.5122 89.1978 62.4982 88.9597C62.4702 88.4556 62.5402 87.9655 62.6663 87.4613C63.0024 86.047 63.3104 84.6186 63.6465 83.1902C63.6885 83.0082 63.7025 82.8261 63.7025 82.6441C63.7165 81.9439 63.7165 81.2297 63.7025 80.5155C63.6885 79.3532 63.4785 78.2189 63.2544 77.0846C62.8203 74.886 62.3302 72.6875 61.9241 70.4749C61.728 69.4526 61.588 68.4303 61.476 67.3941C61.3499 66.2738 61.1539 65.1675 60.9438 64.0612C60.8738 63.7111 60.9018 63.361 60.8878 63.0109C60.8738 62.8289 60.9018 62.6608 61.1119 62.6188C61.3079 62.5628 61.49 62.6048 61.602 62.7869C61.7 62.9409 61.798 63.0949 61.8681 63.263C62.3582 64.4673 62.6803 65.7276 62.9043 67.002C63.2544 69.1025 63.6745 71.1891 64.1647 73.2616C64.5568 74.9 64.9209 76.5385 65.1869 78.1909C65.313 78.9611 65.467 79.7453 65.425 80.5435C65.411 80.9356 65.593 81.2997 65.537 81.6078Z" fill="#DA4342"/>
<path d="M42.7132 60.9811C42.3211 60.9671 42.041 60.701 41.761 60.463C40.9628 59.7348 40.2766 58.9086 39.6884 58.0123C38.7502 56.5699 37.6999 55.2256 36.6776 53.8532C35.7674 52.6349 34.8992 51.4026 34.0449 50.1563C33.3027 49.05 32.5185 47.9857 31.5383 47.0755C30.572 46.1652 29.7178 45.1429 28.7936 44.1907C28.5135 43.8966 28.2054 43.5885 28.0094 43.2104C27.9393 43.0424 27.8693 42.9024 28.0514 42.7623C28.2474 42.5943 28.3875 42.6783 28.5275 42.8323C28.5415 42.8463 28.5555 42.8603 28.5695 42.8603C29.8578 44.1627 31.2442 45.367 32.4905 46.7114C33.3308 47.6356 34.101 48.6019 34.7871 49.6381C35.9214 51.3746 37.1678 53.013 38.4141 54.6654C39.2263 55.7297 39.9685 56.864 40.6827 57.9983C41.0328 58.5585 41.4669 59.0346 41.873 59.5527C41.985 59.6928 42.1251 59.8188 42.2791 59.9308C42.5872 60.1829 42.6012 60.1689 42.8533 59.8328C43.6235 58.7825 44.5337 57.9143 45.738 57.3822C46.3682 57.1021 47.0544 56.9901 47.7125 56.836C47.9786 56.766 48.2307 56.682 48.5107 56.724C48.7628 56.78 48.8048 56.92 48.6508 57.1161C48.4687 57.3261 48.2447 57.4662 47.9786 57.5502C47.3344 57.7743 46.6903 58.0123 46.0601 58.2924C44.8698 58.7965 43.9876 59.6368 43.2454 60.659C43.1053 60.8551 42.9653 61.0091 42.7132 60.9811Z" fill="#DA4342"/>
<path d="M88.0426 115.135C87.9306 115.807 87.8325 116.465 87.7205 117.124C87.4685 118.524 87.2024 119.938 86.7122 121.283C86.5022 121.843 86.2781 122.417 86.0401 122.963C85.5639 124.055 85.0318 125.134 84.3316 126.114C84.0515 126.506 83.7715 126.898 83.4774 127.29C83.2813 127.584 82.9173 127.696 82.6512 127.57C82.4411 127.472 82.3011 127.122 82.3991 126.8C82.5392 126.352 82.6932 125.904 82.8892 125.484C83.5054 124.097 84.1496 122.725 84.7797 121.353C85.3819 120.008 85.76 118.594 86.1101 117.18C86.2781 116.451 86.4602 115.737 86.6982 115.037C86.7543 114.883 86.8243 114.729 86.8943 114.575C87.0203 114.337 87.2164 114.225 87.4684 114.253C87.7205 114.281 87.8886 114.421 87.9586 114.687C88.0006 114.841 88.0286 114.981 88.0426 115.135Z" fill="#DA4342"/>
<path d="M53.6353 57.3122C53.4112 56.8081 53.2292 56.374 53.0331 55.9539C52.627 55.0857 52.2209 54.2174 51.8428 53.3352C51.6187 52.8311 51.3807 52.3129 51.3947 51.7388C51.4087 51.5567 51.3807 51.3467 51.6187 51.2767C51.8568 51.2206 51.9828 51.3607 52.0949 51.5427C52.1229 51.5847 52.1509 51.6407 52.1649 51.6828C52.781 52.8871 53.4112 54.0774 53.9994 55.2817C54.3495 55.9819 54.6575 56.6961 55.0076 57.3823C55.2037 57.7464 55.4137 58.1104 55.6098 58.4886C55.8338 58.9367 55.8058 59.2307 55.5398 59.5108C55.2317 59.8469 54.8676 59.9449 54.4475 59.7489C54.2654 59.6649 54.0694 59.5948 53.9013 59.4828C52.725 58.6846 51.6888 57.7464 50.9326 56.514C50.6665 56.0939 50.4844 55.6458 50.3304 55.1837C50.2884 55.0576 50.2884 54.9176 50.3164 54.7916C50.4144 54.3855 50.7645 54.2594 51.0866 54.5395C51.5347 54.9316 51.9548 55.3657 52.3329 55.8419C52.487 56.0659 52.641 56.29 52.8231 56.472C53.0751 56.7241 53.2152 57.0742 53.6353 57.3122Z" fill="#DA4342"/>
<path d="M148.436 124.054C148.786 123.732 149.234 123.606 149.654 123.48C150.424 123.256 151.166 122.92 151.936 122.724C152.273 122.64 152.581 122.542 152.903 122.444C153.407 122.29 153.743 122.444 153.953 122.934C154.051 123.186 154.149 123.438 154.219 123.69C154.373 124.264 154.723 124.754 154.849 125.342C155.003 126 154.933 126.575 154.387 127.037C154.135 127.247 153.953 127.541 153.757 127.807C152.973 128.829 151.992 129.613 150.9 130.258C150.214 130.664 149.472 130.986 148.758 131.35C148.786 128.913 148.716 126.477 148.436 124.054Z" fill="#7BD2CE"/>
<path d="M42.4015 23.62C42.2475 23.0879 42.1775 22.5417 42.1215 21.9956C42.0374 21.3234 41.9674 20.6652 42.1075 19.9931C42.1355 19.853 42.1355 19.685 42.0234 19.5589C42.3595 18.9848 42.6816 18.3966 43.1297 17.8925C43.6899 17.2343 44.4181 16.9683 45.2443 16.8562C45.5804 16.8142 45.8604 16.9122 46.1265 17.1223C46.7147 17.5564 47.2888 17.9905 47.5689 18.6907C47.6109 18.8027 47.7089 18.8868 47.779 18.9708C47.849 19.4749 48.157 19.797 48.5352 20.1051C49.6694 21.0713 50.3416 22.3317 50.7897 23.746C51.0978 24.7123 50.9718 25.6505 50.7197 26.5748C50.2576 28.2412 49.7535 29.9077 49.0253 31.4901C48.5492 32.5264 47.891 33.4786 47.1908 34.3748C46.9247 34.6969 46.6727 35.047 46.3226 35.2991C46.1825 35.2151 46.1825 35.075 46.1545 34.949C45.8745 33.8847 45.4964 32.8624 45.1183 31.8402C44.6001 30.4678 44.124 29.0814 43.6199 27.7091C43.2978 26.8128 42.9897 25.9306 42.7376 25.0204C42.6816 24.8663 42.6116 24.6983 42.6256 24.5302C42.9197 24.5443 42.9057 24.8243 43.0037 24.9924C43.6759 26.3087 44.4881 27.513 45.5244 28.5633C45.9165 28.9554 46.3926 29.1935 46.9107 29.3615C47.4429 29.5296 47.891 29.2495 48.129 28.6613C48.1851 28.5213 48.1711 28.3673 48.2411 28.2272C48.2551 28.1992 48.2411 28.2132 48.2271 28.2552C47.905 29.4175 47.4429 29.6416 46.3506 29.1375C45.7904 28.8714 45.3563 28.4513 44.9782 27.9752C43.8999 26.6588 42.9757 25.2444 42.4015 23.62Z" fill="#7F4730"/>
<path d="M55.9605 18.7738C56.1145 19.0399 55.9465 19.2639 55.8485 19.488C55.4003 20.4122 54.9662 21.3365 54.7142 22.3447C54.5461 23.0169 54.5041 23.7031 54.5041 24.3893C53.8599 24.3053 53.2018 24.3053 52.5576 24.3333C52.2775 24.3473 51.9975 24.4033 51.7034 24.4313C51.5353 24.4453 51.4513 24.4173 51.3953 24.2072C51.0172 22.4288 50.177 20.8884 49.0567 19.488C49.0147 19.446 49.0007 19.404 48.9727 19.348C49.2667 19.2219 49.5888 19.1939 49.8969 19.1799C51.1292 19.0959 52.3335 18.9138 53.5519 18.7878C54.3501 18.7038 55.1623 18.7318 55.9605 18.7738Z" fill="#3F332C"/>
<path d="M51.1529 0.639562C51.643 0.611557 51.9651 0.793601 52.2732 1.04567C53.1134 1.75985 53.8276 2.57207 54.4718 3.4543C54.9619 4.12648 55.298 4.88268 55.7321 5.58286C56.7124 7.20729 57.1325 9.02777 57.6506 10.8202C57.9027 11.6885 58.0847 12.5707 58.2248 13.4669C58.2668 13.677 58.3648 13.9711 58.0987 14.0411C57.8467 14.1111 57.7486 13.817 57.6786 13.621C57.3005 12.5987 57.0204 11.5344 56.7544 10.4842C56.2923 8.66368 55.5501 6.98323 54.5978 5.38681C54.1357 4.63061 53.6596 3.88841 53.1134 3.17423C53.0714 3.11821 53.0434 3.0482 53.0014 3.00619C52.4832 2.54406 52.0771 1.98391 51.601 1.49379C51.377 1.28373 51.1669 1.05967 50.8448 1.03167C50.7328 1.03167 50.6348 0.961647 50.6348 0.849617C50.6348 0.69558 50.7608 0.653569 50.8728 0.639562C50.9989 0.639562 51.1109 0.639562 51.1529 0.639562Z" fill="#DA4342"/>
<path d="M42.4461 14.8543C42.236 14.7142 42.166 14.5042 42.124 14.2661C41.8859 13.1458 41.7599 12.0115 41.8159 10.8632C41.8299 10.4851 41.8299 10.121 41.8159 9.74292C41.7459 8.42658 42.054 7.18025 42.4041 5.93392C42.6842 4.91165 43.0763 3.91739 43.4964 2.95113C43.7484 2.37698 44.0985 1.85885 44.4486 1.34071C44.5186 1.24268 44.5887 1.17266 44.7287 1.14466C44.9247 1.11665 45.1208 1.06064 45.3168 1.03263C45.4149 1.01862 45.5409 0.892593 45.6249 1.06064C45.6809 1.18667 45.5549 1.27069 45.4849 1.35471C44.6167 2.53102 43.8885 3.76335 43.4824 5.17772C43.2443 5.98993 42.9922 6.81615 42.8102 7.65637C42.6421 8.39857 42.5441 9.14076 42.5301 9.89696C42.5161 10.9752 42.5301 12.0535 42.5161 13.1318C42.5161 13.5379 42.6702 13.93 42.6281 14.3361C42.6001 14.5182 42.6421 14.7142 42.4461 14.8543Z" fill="#DA4342"/>
<path d="M58.4396 18.3677L58.4115 18.3817L58.3835 18.3677C58.2295 18.3677 58.0895 18.3677 57.9354 18.3397C57.7534 18.3257 57.5993 18.2276 57.5853 18.0316C57.5573 17.8215 57.7114 17.6955 57.9074 17.6535C58.4396 17.5835 58.9717 17.5275 59.5038 17.4434C60.148 17.3454 60.8062 17.3874 61.4503 17.3314C62.4166 17.2474 63.3688 17.0933 64.3211 16.8973C65.0213 16.7433 65.7355 16.6592 66.4497 16.5472C66.5197 16.5332 66.6177 16.5192 66.6737 16.6032C66.6877 16.7433 66.5757 16.7713 66.4917 16.7993C65.6935 17.0793 64.8953 17.3174 64.069 17.4434C63.1448 17.5975 62.2205 17.7795 61.3243 18.0036C60.4561 18.2276 59.5879 18.3537 58.6916 18.3537C58.6076 18.3537 58.5236 18.3677 58.4396 18.3677Z" fill="#DA4342"/>
<path d="M34.1283 18.9284C34.0722 19.1525 33.9322 19.2505 33.7922 19.3485C33.19 19.7547 32.6019 20.1608 31.9997 20.5669C31.9157 20.6229 31.8317 20.6789 31.7476 20.7209C31.5936 20.8049 31.4536 20.7769 31.3415 20.6509C31.2155 20.4968 31.1875 20.3428 31.2855 20.1888C31.3695 20.0627 31.4956 19.9647 31.6216 19.8807C32.2378 19.4746 32.9239 19.1805 33.6101 18.9284C33.7782 18.8724 33.9322 18.8304 34.1283 18.9284Z" fill="#DA4342"/>
<path d="M30.543 18.3967C30.683 17.7246 30.9911 17.2764 31.6633 17.0664C32.5035 16.7723 33.3297 16.4502 34.1699 16.1702C34.2679 16.1421 34.352 16.1001 34.478 16.1702C34.436 16.3802 34.2539 16.4362 34.0999 16.5062C32.9796 16.9824 31.9013 17.5145 30.9491 18.2707C30.851 18.3547 30.739 18.4387 30.543 18.3967Z" fill="#DA4342"/>
<path d="M42.4023 23.6206C42.5424 23.6906 42.5704 23.8307 42.6124 23.9567C43.3406 25.6091 44.2788 27.1355 45.5532 28.4379C45.9453 28.844 46.4214 29.082 46.9255 29.2501C47.3316 29.4041 47.6257 29.2641 47.8638 28.9C48.0458 28.6199 48.0878 28.2978 48.1719 27.9898C48.1859 27.9057 48.1298 27.7797 48.2699 27.7377C48.4519 28.1998 48.3119 28.76 47.9198 29.1801C47.6117 29.5302 47.2476 29.5582 46.8135 29.4321C46.0013 29.1661 45.3851 28.6479 44.853 27.9898C44.0268 26.9675 43.2986 25.8892 42.7384 24.6849C42.7244 24.6289 42.6684 24.5869 42.6264 24.5308C42.5004 24.2368 42.4163 23.9427 42.4023 23.6206Z" fill="#8B4D33"/>
<path d="M206.484 109.589C206.484 109.869 206.47 110.163 206.372 110.43C206.344 110.528 206.316 110.626 206.274 110.71C206.204 110.808 206.12 110.906 205.98 110.864C205.868 110.836 205.868 110.71 205.854 110.612C205.826 110.079 205.798 109.533 205.756 109.001C205.644 107.475 205.518 105.948 205.181 104.464C204.873 103.092 204.187 101.929 203.179 100.977C203.123 100.921 203.081 100.879 203.025 100.823C202.927 100.711 202.885 100.557 202.969 100.417C203.053 100.249 203.221 100.235 203.361 100.277C203.711 100.361 204.047 100.501 204.285 100.781C205.279 101.943 206.064 103.218 206.274 104.786C206.33 105.234 206.4 105.682 206.47 106.13C206.568 106.761 206.582 107.391 206.568 108.035C206.554 108.553 206.596 109.071 206.484 109.589Z" fill="#61BEBA"/>
<path d="M177.791 123.061C177.581 122.781 177.231 122.725 176.937 122.571C176.545 122.361 176.195 122.123 175.901 121.773C175.774 121.605 175.592 121.423 175.746 121.199C175.845 121.045 176.139 121.073 176.391 121.283C176.755 121.591 177.161 121.801 177.609 121.983C177.945 122.123 178.253 122.319 178.561 122.529C179.373 123.061 180.242 123.215 181.208 122.977C183 122.543 184.583 121.703 186.011 120.527C186.193 120.373 186.375 120.233 186.669 120.163C186.571 120.429 186.445 120.625 186.263 120.793C185.927 121.143 185.577 121.479 185.199 121.787C184.639 122.193 184.121 122.655 183.533 122.991C181.824 123.972 180.06 124.336 178.239 123.285C178.099 123.201 177.945 123.131 177.791 123.061Z" fill="#61BEBA"/>
<path d="M177.806 75.4042C177.736 76.1604 177.61 76.9166 177.47 77.6588C177.05 80.0255 176.63 82.3921 176.181 84.7587C175.859 86.5232 175.425 88.2736 174.991 90.0241C174.375 92.5448 173.787 95.0654 173.171 97.5861C172.764 99.2665 172.33 100.947 171.896 102.627C171.504 104.182 170.916 105.68 170.384 107.179C169.936 108.439 169.474 109.685 168.913 110.89C168.759 111.226 168.633 111.59 168.353 111.842C168.283 111.912 168.199 111.996 168.087 111.94C168.003 111.87 168.031 111.758 168.059 111.66C168.087 111.548 168.129 111.436 168.171 111.324C168.969 108.901 169.768 106.492 170.538 104.07C171.084 102.347 171.42 100.569 171.868 98.8324C172.61 95.9196 173.101 92.9649 173.787 90.0521C174.347 87.7135 174.907 85.3749 175.355 83.0082C175.803 80.6276 176.349 78.261 176.854 75.8944C176.91 75.5723 176.952 75.2642 177.008 74.9421C177.022 74.8581 177.022 74.7741 177.05 74.7041C177.106 74.55 177.218 74.438 177.4 74.438C177.568 74.452 177.68 74.55 177.708 74.7181C177.764 74.9421 177.834 75.1662 177.806 75.4042Z" fill="#61BEBA"/>
<path d="M174.094 57.9709C174.066 58.139 173.954 58.237 173.828 58.321C173.534 58.5311 173.212 58.6711 172.862 58.7411C171.294 59.0632 170.019 59.9174 168.885 60.9817C167.527 62.256 166.63 63.8245 165.846 65.4769C164.88 67.5074 164.418 69.678 164.026 71.8626C163.788 73.2489 163.606 74.6493 163.466 76.0637C163.34 77.254 162.849 78.3603 162.289 79.4246C162.135 79.7186 161.953 80.0127 161.785 80.2928C161.687 80.4748 161.547 80.6149 161.393 80.7549C161.323 80.8249 161.239 80.923 161.127 80.8669C161.001 80.7829 161.043 80.6429 161.085 80.5449C161.127 80.4048 161.197 80.2648 161.267 80.1247C161.673 79.3125 161.995 78.4723 162.345 77.6181C162.709 76.7219 162.765 75.7556 162.877 74.8033C163.116 72.8288 163.298 70.8263 163.83 68.8938C164.11 67.8855 164.278 66.8493 164.698 65.883C165.398 64.2726 166.126 62.6902 167.205 61.2898C168.381 59.7774 169.851 58.6711 171.644 58.0129C171.714 57.9849 171.77 57.9569 171.84 57.9429C172.456 57.8169 173.1 57.7889 173.73 57.7329C173.898 57.7189 174.08 57.7189 174.094 57.9709Z" fill="#61BEBA"/>
<path d="M194.681 67.7587C195.647 68.599 196.333 69.5792 196.893 70.6435C197.439 71.6938 197.775 72.8281 197.817 74.1444C198.139 73.6683 198.392 73.2902 198.644 72.8981C199.778 71.1336 201.248 69.7473 202.971 68.5709C203.797 68.0108 204.623 67.4787 205.603 67.2266C205.771 67.1846 205.925 67.1426 206.094 67.1426C206.206 67.1426 206.304 67.1566 206.346 67.2686C206.374 67.3806 206.318 67.4787 206.234 67.5347C206.136 67.6047 206.038 67.6887 205.939 67.7167C204.721 68.0528 203.741 68.809 202.761 69.5372C200.912 70.8956 199.386 72.576 198.097 74.4665C197.943 74.7186 197.845 75.0266 197.593 75.2087C197.509 75.1807 197.495 75.1107 197.495 75.0407C197.551 73.1502 196.837 71.5257 195.759 70.0273C195.339 69.4532 194.919 68.865 194.456 68.2909C193.952 67.6747 193.98 67.6747 194.653 67.2406C196.109 66.3584 197.705 65.7422 199.19 64.93C200.212 64.3838 201.248 63.8517 202.271 63.3196C202.355 63.2776 202.425 63.2355 202.495 63.1935C202.663 63.0675 202.677 62.9275 202.523 62.7594C202.453 62.6894 202.383 62.6194 202.313 62.5494C202.271 62.4933 202.243 62.4233 202.285 62.3673C202.313 62.2973 202.383 62.2973 202.453 62.2973C202.747 62.2833 203.237 62.6194 203.321 62.8995C203.405 63.1795 203.279 63.4596 202.915 63.6837C202.355 64.0198 201.766 64.3278 201.192 64.6359C199.638 65.4481 198.055 66.1903 196.459 66.8765C195.871 67.1286 195.311 67.4366 194.681 67.7587Z" fill="#61BEBA"/>
<path d="M154.584 89.8718C154.458 89.5637 154.5 89.3396 154.528 89.1296C154.64 88.1633 154.668 87.1831 154.724 86.2168C154.794 85.0965 154.808 83.9902 154.808 82.8839C154.808 81.5816 154.738 80.2932 154.626 78.9909C154.612 78.7808 154.612 78.5568 154.612 78.3327C154.612 76.6383 154.57 74.9298 154.64 73.2214C154.682 71.5969 154.668 69.9585 155.018 68.3481C155.396 66.5416 155.886 64.7772 156.993 63.2508C157.231 62.9287 157.259 62.9007 157.609 62.6626C157.651 62.9147 157.497 63.0967 157.399 63.2788C156.769 64.5951 156.208 65.9255 155.872 67.3398C155.62 68.4461 155.48 69.5524 155.396 70.6867C155.298 71.975 155.354 73.2774 155.284 74.5797C155.242 75.3359 155.228 76.0921 155.228 76.8483C155.214 78.0526 155.34 79.243 155.382 80.4333C155.452 81.8336 155.578 83.22 155.494 84.6204C155.396 86.0487 155.326 87.4771 155.004 88.8915C154.934 89.2136 154.864 89.5357 154.584 89.8718Z" fill="#61BEBA"/>
<path d="M175.93 60.3238C175.272 60.6318 174.866 61.0099 174.446 61.374C173.829 61.9202 173.213 62.4803 172.597 63.0265C172.429 63.1665 172.247 63.2785 172.065 63.4046C171.939 63.4886 171.785 63.5586 171.645 63.4326C171.519 63.3206 171.533 63.1525 171.575 63.0125C171.645 62.7324 171.743 62.4523 171.911 62.2283C172.121 61.9202 172.331 61.6121 172.583 61.332C173.661 60.1837 174.74 59.0214 175.874 57.9291C176.252 57.565 176.672 57.243 177.134 57.0049C177.498 56.8228 177.848 56.6268 178.212 56.4447C178.381 56.3467 178.563 56.2767 178.787 56.2627C178.773 56.5148 178.605 56.6128 178.465 56.7248C178.269 56.8789 178.058 57.0329 177.834 57.1449C177.036 57.565 176.378 58.1672 175.762 58.8114C174.964 59.6516 174.123 60.4638 173.325 61.304C172.975 61.6541 172.667 62.0182 172.387 62.4243C172.345 62.4943 172.261 62.5504 172.345 62.6764C172.527 62.6484 172.639 62.4803 172.765 62.3543C173.409 61.7241 174.053 61.08 174.726 60.4778C174.992 60.2397 175.272 60.0157 175.594 59.8616C175.972 59.6796 176.224 59.7636 176.406 60.1557C176.532 60.4358 176.574 60.7439 176.602 61.038C176.7 61.9202 176.686 62.7884 176.714 63.6706C176.77 65.169 176.84 66.6674 176.896 68.1658C176.91 68.5159 176.854 68.88 176.686 69.2161C176.308 66.2893 176.042 63.3626 175.93 60.3238Z" fill="#61BEBA"/>
<path d="M154.502 110.528C154.46 109.589 154.586 108.595 154.894 107.615C155.174 106.719 155.076 105.78 154.88 104.87C154.53 103.246 154.586 101.621 154.852 100.011C154.964 99.3248 155.09 98.6526 155.286 97.9804C155.426 97.5603 155.58 97.3643 155.706 97.4483C155.93 97.6023 155.818 97.8544 155.804 98.0505C155.748 98.7927 155.692 99.5348 155.594 100.263C155.37 101.789 155.37 103.316 155.664 104.828C155.902 106.061 155.93 107.293 155.496 108.511C155.188 109.365 155.132 110.29 155.02 111.186C154.978 111.438 154.95 111.69 154.908 111.942C154.88 112.068 154.824 112.222 154.67 112.222C154.502 112.222 154.502 112.04 154.502 111.914C154.488 111.48 154.502 111.046 154.502 110.528Z" fill="#61BEBA"/>
<path d="M183.87 70.5036C184.388 70.4756 184.85 70.2795 185.341 70.1535C186.223 69.9294 187.105 69.7754 188.015 69.6773C188.309 69.6353 188.603 69.6213 188.869 69.4253C188.981 69.3413 189.15 69.3133 189.304 69.2992C190.732 69.0892 192.146 69.1872 193.533 69.6073C193.925 69.7194 194.093 69.8174 194.289 70.0414C194.177 70.1815 194.037 70.1815 193.883 70.1535C192.552 69.8734 191.208 69.8734 189.864 69.8734C189.542 69.8734 189.192 69.9154 188.869 69.8314C188.813 69.8174 188.729 69.8314 188.673 69.8594C188.043 70.2095 187.329 70.2795 186.657 70.4616C185.453 70.7696 184.248 71.1057 183.058 71.4278C182.806 71.4838 182.582 71.5819 182.33 71.6379C181.209 71.9179 180.271 72.5201 179.375 73.2343C179.249 73.3323 179.109 73.4303 178.983 73.5284C178.927 73.5704 178.871 73.6124 178.801 73.5844C178.857 73.1783 179.725 72.282 180.733 71.5959C180.789 71.5118 180.859 71.4418 180.957 71.4138C181.91 71.0497 182.848 70.6436 183.87 70.5036Z" fill="#61BEBA"/>
<path d="M209.369 84.9404C209.425 85.2205 209.257 85.4166 209.145 85.6406C208.935 86.0047 208.655 86.3128 208.361 86.6209C207.563 87.5031 206.722 88.3573 205.742 89.0575C204.538 89.9257 203.278 90.6959 201.947 91.3401C201.765 91.4241 201.583 91.5082 201.387 91.5782C200.869 91.7602 200.365 91.9983 199.903 92.2924C199.651 92.4464 199.399 92.5724 199.118 92.6285C198.978 92.6705 198.838 92.6705 198.754 92.5304C198.656 92.3624 198.768 92.2364 198.88 92.1383C199.315 91.8302 199.735 91.4802 200.225 91.2421C200.463 91.1161 200.715 91.032 200.953 90.906C203.656 89.5897 206.232 88.1053 208.375 85.9487C208.613 85.7106 208.851 85.4726 209.047 85.1925C209.117 85.0805 209.187 84.9684 209.369 84.9404Z" fill="#61BEBA"/>
<path d="M177.663 72.745C177.481 72.591 177.523 72.3809 177.509 72.1849C177.495 70.7425 177.313 69.3281 177.271 67.8997C177.243 67.2276 177.187 66.5554 177.145 65.8832C176.977 63.7547 177.467 61.7941 178.728 60.0577C179.092 59.5536 179.582 59.1474 180.03 58.7273C180.24 58.5453 180.436 58.3632 180.646 58.1952C180.73 58.1252 180.842 58.0552 180.94 57.9991C181.024 57.9571 181.136 57.9151 181.206 58.0131C181.262 58.0972 181.22 58.1812 181.164 58.2512C180.94 58.5033 180.73 58.7693 180.506 59.0074C180.198 59.3435 179.834 59.6236 179.54 59.9737C178.504 61.262 177.901 62.7184 177.817 64.3568C177.761 65.6312 177.789 66.8915 177.887 68.1518C177.901 68.4599 177.831 68.754 177.831 69.0621C177.817 70.0283 177.803 70.9806 177.803 71.9468C177.803 72.2129 177.761 72.479 177.663 72.745Z" fill="#61BEBA"/>
<path d="M203.095 112.417C203.025 112.767 202.801 112.893 202.577 112.991C202.031 113.243 201.471 113.383 200.869 113.425C199.454 113.524 198.152 113.117 196.863 112.613C196.289 112.389 195.757 112.123 195.351 111.633C195.099 111.339 194.959 111.017 194.959 110.625C194.959 110.471 195.015 110.359 195.169 110.317C195.295 110.275 195.421 110.331 195.463 110.443C195.897 111.339 196.765 111.605 197.606 111.913C198.572 112.249 199.566 112.487 200.588 112.599C201.149 112.655 201.695 112.557 202.241 112.445C202.507 112.389 202.773 112.403 203.095 112.417Z" fill="#61BEBA"/>
<path d="M175.283 76.9602C175.269 76.5681 175.382 76.302 175.55 76.0779C175.718 75.8539 176.068 75.7839 176.264 75.9099C176.474 76.0499 176.516 76.302 176.404 76.5821C176.278 76.8621 176.012 77.0162 175.872 77.2963C175.774 77.4923 175.396 77.3943 175.311 77.1702C175.269 77.0722 175.283 76.9742 175.283 76.9602Z" fill="#61BEBA"/>
<path d="M166.729 109.449C166.757 109.309 166.785 109.126 166.841 108.958C166.911 108.748 167.177 108.636 167.373 108.706C167.597 108.776 167.723 108.93 167.695 109.155C167.639 109.449 167.541 109.743 167.443 110.023C167.401 110.163 167.317 110.261 167.149 110.261C167.009 110.247 166.911 110.163 166.855 110.023C166.785 109.855 166.729 109.687 166.729 109.449Z" fill="#61BEBA"/>
<path d="M173.184 88.0236C173.254 87.7716 173.254 87.4775 173.296 87.2114C173.338 86.9593 173.632 86.8053 173.828 86.8753C174.052 86.9453 174.122 87.1274 174.01 87.4075C173.926 87.6595 173.842 87.9116 173.73 88.1637C173.674 88.3037 173.576 88.4437 173.394 88.4017C173.212 88.3597 173.198 88.2057 173.184 88.0236Z" fill="#61BEBA"/>
<path d="M170.34 99.4776C170.354 99.3516 170.34 99.2536 170.368 99.1555C170.424 98.9315 170.606 98.8054 170.816 98.8335C171.04 98.8615 171.124 99.0155 171.152 99.2116C171.18 99.4356 171.082 99.6457 171.026 99.8557C170.984 100.024 170.83 100.136 170.648 100.122C170.466 100.122 170.424 99.9397 170.382 99.7997C170.354 99.6877 170.354 99.5756 170.34 99.4776Z" fill="#61BEBA"/>
<path d="M183.868 70.5033C183.308 70.6853 182.733 70.8674 182.173 71.0494C181.683 71.1895 181.193 71.3715 180.731 71.5956C180.703 71.5676 180.661 71.5256 180.633 71.4976C180.787 71.3295 181.011 71.2875 181.207 71.2175C182.047 70.8954 182.887 70.6013 183.77 70.4053C183.798 70.4333 183.84 70.4753 183.868 70.5033Z" fill="#D4804C"/>
<path d="M200.687 47.188C200.155 47.188 199.763 47.44 199.455 47.8461C199.203 48.1682 198.937 48.4623 198.643 48.7424C198.923 47.9161 199.077 47.0339 199.497 46.2497C199.609 46.0256 199.833 45.8856 200.001 45.7036C200.953 44.7373 201.667 43.645 201.583 42.2026C201.555 41.7545 201.303 41.3484 201.317 40.8863C201.653 40.7042 201.975 40.5782 202.34 40.4942C202.522 40.4522 202.746 40.4382 202.83 40.2141C203.194 39.906 203.544 39.5839 203.95 39.3459C204.51 39.0238 205.126 38.8698 205.77 38.8978C206.303 38.9258 206.443 39.0658 206.541 39.584C206.695 40.4942 206.457 41.3624 206.079 42.1746C205.63 43.1129 205.154 44.0371 204.65 44.9614C203.964 46.2217 202.886 46.8939 201.471 47.0479C201.205 47.0759 200.925 47.0339 200.687 47.188Z" fill="#AB6243"/>
<path d="M177.51 34.7106C177.608 33.9544 177.636 33.1842 177.832 32.442C178.042 31.6438 178.294 30.8596 178.658 30.1174C179.134 29.1092 179.75 28.2129 180.479 27.4007C181.361 26.4205 182.313 25.4822 183.391 24.712C184.568 23.8718 185.814 23.1856 187.13 22.6395C188.979 21.8833 190.897 21.3511 192.872 21.015C193.88 20.833 194.916 20.7069 195.939 20.5529C196.611 20.4689 197.269 20.4689 197.941 20.4129C198.823 20.3428 199.734 20.4409 200.616 20.721C200.98 20.847 201.19 21.1131 201.428 21.3651C201.456 21.3931 201.47 21.4631 201.47 21.5052C201.456 21.5892 201.372 21.6032 201.316 21.5892C201.176 21.5612 201.05 21.5192 200.924 21.4772C200.308 21.3091 199.692 21.1551 199.047 21.1831C198.585 21.2111 198.137 21.1971 197.689 21.1831C196.751 21.1831 195.813 21.3091 194.888 21.3791C193.726 21.4491 192.606 21.6732 191.471 21.9113C190.281 22.1493 189.105 22.5134 187.957 22.9335C187.13 23.2276 186.332 23.5777 185.562 23.9838C184.442 24.572 183.419 25.3002 182.439 26.0984C181.123 27.1766 180.1 28.493 179.26 29.9634C178.714 30.9016 178.434 31.9379 178.21 33.0022C178.084 33.6043 178.056 34.2205 177.93 34.8367C177.902 34.9767 177.944 35.2288 177.706 35.2008C177.524 35.1728 177.51 34.9487 177.51 34.7806C177.51 34.7526 177.51 34.7386 177.51 34.7106Z" fill="#562C1D"/>
<path d="M197.634 18.3829C197.017 18.4949 196.779 18.3829 196.569 17.9068C196.219 17.1086 196.163 16.2964 196.457 15.4561C196.849 14.3498 197.676 13.6637 198.614 13.0895C200.056 12.1933 201.625 11.6611 203.277 11.4091C204.383 11.227 205.532 11.199 206.68 11.3391C207.464 11.4511 208.234 11.5211 208.977 11.7872C209.341 11.9272 209.705 12.0812 209.831 12.5294C209.495 12.6694 209.201 12.5154 208.906 12.4313C207.94 12.1793 206.96 11.9972 205.952 11.9832C205.644 11.9832 205.364 11.8572 205.055 11.8712C203.403 11.9552 201.793 12.2213 200.266 12.9075C199.832 13.1035 199.384 13.2856 198.95 13.5236C198.362 13.8597 197.844 14.3078 197.437 14.84C196.919 15.5121 196.695 16.2964 196.835 17.1506C196.849 17.2066 196.863 17.2486 196.877 17.3046C196.905 17.7667 197.101 18.1308 197.634 18.3829Z" fill="#562C1D"/>
<path d="M201.749 40.242C201.567 40.452 201.329 40.536 201.076 40.536C200.922 40.354 200.726 40.214 200.544 40.0739C200.32 39.9199 200.11 39.7518 199.9 39.5838C199.074 38.9536 198.71 38.0854 198.668 37.0491C198.626 36.3349 198.556 35.6208 198.402 34.9066C198.248 34.1924 198.22 33.4782 198.178 32.75C198.36 32.736 198.374 32.876 198.43 32.9601C199.088 33.9263 199.578 34.9766 200.082 36.0269C200.348 36.587 200.488 37.2032 200.586 37.8053C200.74 38.7436 201.203 39.5138 201.749 40.242Z" fill="#AB6243"/>
<path d="M206.764 28.493C206.834 27.1626 206.624 25.8603 206.456 24.544C206.442 24.4319 206.316 24.2919 206.512 24.2639C206.652 24.2359 206.694 24.3759 206.736 24.4879C206.792 24.656 206.834 24.838 206.862 25.0201C207.002 25.9303 207.114 26.8406 207.198 27.7648C207.282 28.703 207.142 29.5993 207.072 30.5095C206.96 32.0079 206.652 33.4643 206.232 34.8927C205.923 35.9149 205.419 36.8532 204.663 37.6234C204.481 37.8054 204.411 38.0715 204.173 38.1835C204.075 38.2256 203.991 38.3236 203.893 38.2256C203.809 38.1415 203.879 38.0435 203.921 37.9455C204.061 37.6514 204.341 37.4693 204.537 37.2173C205.321 36.223 205.811 35.1027 206.106 33.8704C206.358 32.7781 206.568 31.6858 206.694 30.5655C206.764 29.8653 206.736 29.1792 206.764 28.493Z" fill="#552B1C"/>
<path d="M210.542 23.3675C210.528 23.1714 210.654 23.1434 210.752 23.0874C211.634 22.6113 212.405 22.0091 213.091 21.2809C213.763 20.5668 214.071 19.7125 214.127 18.7603C214.197 17.4019 213.721 16.1836 213.119 15.0073C213.007 14.7972 212.895 14.7272 212.559 14.5312C212.769 14.1811 212.867 14.1531 213.175 14.3351C213.413 14.4752 213.553 14.7132 213.679 14.9513C214.351 16.1696 214.799 17.4719 214.729 18.8863C214.687 19.7965 214.351 20.6088 213.763 21.2809C213.021 22.1492 212.125 22.8073 211.06 23.2415C210.892 23.2975 210.738 23.3815 210.542 23.3675Z" fill="#552C1D"/>
<path d="M208.459 13.5513C206.233 13.9294 204.3 14.8396 202.508 16.044C202.2 16.254 201.934 16.5201 201.766 16.8562C201.556 17.2623 201.57 17.3183 201.878 17.6544C202.34 18.1725 202.928 18.5366 203.39 19.0687C203.46 19.1388 203.53 19.2088 203.6 19.2788C203.712 19.3908 203.796 19.5309 203.656 19.6709C203.516 19.8249 203.348 19.8109 203.208 19.6849C203.04 19.5309 202.858 19.4188 202.704 19.2648C202.354 18.9567 201.934 18.7187 201.626 18.3686C200.925 17.6264 200.813 17.1362 201.513 16.31C201.906 15.8199 202.48 15.5258 203.026 15.2317C203.894 14.7696 204.776 14.3075 205.715 13.9714C206.457 13.7193 207.213 13.5233 207.997 13.3973C208.109 13.3833 208.137 13.3973 208.459 13.5513Z" fill="#552C1D"/>
<path d="M211.259 14.9087C211.47 15.2448 211.442 15.5389 211.386 15.7909C211.147 16.9812 210.825 18.1435 210.265 19.2218C209.803 20.1181 209.229 20.9163 208.403 21.5044C207.983 21.7985 207.52 22.0366 206.96 21.9946C206.848 21.9946 206.722 21.9946 206.638 21.8965C206.554 21.7845 206.554 21.6725 206.708 21.6165C206.75 21.6025 206.806 21.6025 206.848 21.5884C207.534 21.5744 208.053 21.1963 208.529 20.7762C209.523 19.908 210.181 18.8017 210.615 17.5554C210.811 16.9672 210.993 16.3791 211.147 15.7769C211.203 15.5249 211.161 15.2588 211.259 14.9087Z" fill="#552C1C"/>
<path d="M204.804 24.8237C204.944 25.3279 204.776 25.818 204.72 26.2941C204.538 27.5545 204.202 28.7588 203.796 29.9491C203.431 31.0134 203.123 32.1056 202.437 33.0299C202.241 33.296 202.003 33.52 201.737 33.7581C201.583 33.548 201.723 33.422 201.807 33.324C202.423 32.5398 202.787 31.6155 203.151 30.6913C203.782 29.1089 204.16 27.4564 204.51 25.804C204.566 25.5379 204.608 25.2718 204.65 25.0058C204.664 24.9358 204.678 24.8377 204.804 24.8237Z" fill="#542B1C"/>
<path d="M197.032 27.822C196.906 27.3459 197.018 26.9258 197.271 26.5337C197.649 25.9315 198.167 25.4554 198.713 25.0073C199.539 24.3351 200.463 23.7609 201.486 23.3968C201.92 23.2288 202.354 23.0467 202.844 23.1448C202.816 23.3548 202.648 23.3688 202.522 23.4108C201.206 23.8449 200.001 24.4891 198.909 25.3433C198.419 25.7214 197.999 26.1416 197.635 26.6457C197.453 26.8977 197.285 27.1638 197.271 27.5139C197.271 27.6399 197.229 27.766 197.032 27.822Z" fill="#542B1C"/>
<path d="M201.319 40.8877C201.851 41.8119 201.879 42.7922 201.501 43.7444C201.08 44.7667 200.506 45.691 199.498 46.2511C199.582 45.705 199.764 45.1868 200.002 44.6827C200.086 44.5006 200.156 44.3186 200.282 44.1646C200.814 43.4364 200.898 42.6102 200.814 41.7419C200.814 41.6719 200.828 41.6159 200.814 41.5459C200.786 41.1678 200.954 40.9437 201.319 40.8877Z" fill="#441714"/>
<path d="M200.814 41.7402C201.08 42.3984 201.038 43.0426 200.716 43.6727C200.534 44.0368 200.296 44.3869 200.002 44.681C200.058 44.1909 200.296 43.7568 200.408 43.2946C200.534 42.7765 200.688 42.2584 200.814 41.7402Z" fill="#AB6243"/>
<path d="M183.252 40.3277C183.462 39.3054 183.434 38.2832 183.07 37.2749C183.336 37.541 183.42 37.8491 183.462 38.1711C183.56 38.8293 183.63 39.4735 183.462 40.1177C183.448 40.1877 183.448 40.2577 183.448 40.3137C183.378 40.3277 183.322 40.3277 183.252 40.3277Z" fill="#B97F5C"/>
<path d="M148.848 135.118C149.1 134.866 149.45 134.796 149.772 134.67C150.206 134.502 150.654 134.362 151.102 134.208C151.942 133.928 152.629 133.367 153.329 132.863C153.679 132.611 154.029 132.499 154.435 132.443C155.387 132.331 156.27 132.065 157.012 131.421C157.516 130.987 158.048 130.581 158.566 130.161C158.678 130.315 158.608 130.399 158.538 130.469C157.656 131.365 156.746 132.261 155.457 132.569C155.121 132.639 154.785 132.737 154.435 132.765C154.085 132.779 153.777 132.891 153.511 133.115C152.349 134.054 151.004 134.6 149.59 134.978C149.352 135.048 149.128 135.174 148.848 135.118Z" fill="#D69878"/>
<path d="M45.763 20.7346C45.6929 20.7907 45.6369 20.7206 45.5809 20.7066C45.1048 20.5106 44.9507 20.5806 44.8107 21.0567C44.6567 21.5329 44.7547 21.995 45.0068 22.4011C45.1468 22.6251 45.3008 22.8212 45.4549 23.0172C45.7349 23.3953 45.875 23.8295 45.847 24.2916C45.819 24.9918 45.861 25.6639 46.2391 26.2801C46.2531 26.2941 46.2251 26.3361 46.1971 26.4061C45.833 26.1121 45.7349 25.72 45.6509 25.3138C45.5809 24.9638 45.6089 24.6137 45.6089 24.2776C45.5949 23.6894 45.3008 23.2133 44.9507 22.7792C44.4746 22.219 44.3626 21.5889 44.5586 20.9027C44.6287 20.6506 44.7407 20.4266 45.0488 20.3846C45.3849 20.3285 45.5389 20.3986 45.763 20.7346Z" fill="#8B4D33"/>
<path d="M203.041 44.7093C203.013 44.1491 203.139 43.729 203.349 43.3229C203.391 43.2669 203.433 43.2109 203.517 43.2389C203.587 43.2669 203.629 43.3089 203.587 43.3929C203.349 43.771 203.307 44.2332 203.041 44.7093Z" fill="#794634"/>
<path d="M179.636 37.4532C179.636 37.4895 179.636 37.5257 179.636 37.5619C179.636 37.6104 179.609 37.5238 179.606 37.5178C179.584 37.466 179.561 37.414 179.537 37.3624C179.528 37.3413 179.55 37.4498 179.551 37.4532C179.552 37.4577 179.586 37.549 179.586 37.5488C179.608 37.4849 179.587 37.3817 179.577 37.3168C179.575 37.3053 179.563 37.1805 179.558 37.2223C179.549 37.2929 179.533 37.363 179.532 37.4343C179.532 37.4395 179.534 37.4985 179.53 37.4795C179.513 37.4039 179.497 37.3287 179.485 37.2522C179.479 37.2161 179.47 37.1341 179.481 37.2249C179.492 37.3196 179.507 37.4146 179.512 37.5099C179.514 37.5474 179.512 37.527 179.508 37.5036C179.497 37.4489 179.485 37.3941 179.471 37.3399C179.464 37.3113 179.463 37.3125 179.467 37.3425C179.48 37.4429 179.506 37.5419 179.526 37.6411C179.529 37.6571 179.541 37.7204 179.541 37.6653C179.542 37.6144 179.543 37.5629 179.541 37.512C179.538 37.4077 179.491 37.7148 179.473 37.8175C179.467 37.8513 179.433 37.7268 179.428 37.7057C179.418 37.6579 179.438 37.9005 179.427 37.8527C179.42 37.8216 179.422 37.6876 179.394 37.7703C179.375 37.8258 179.371 37.7575 179.371 37.7314C179.371 37.7304 179.371 37.7356 179.371 37.7346C179.372 37.7032 179.369 37.6537 179.383 37.6254C179.388 37.6141 179.409 37.5605 179.409 37.5834C179.409 37.6143 179.41 37.645 179.419 37.6747C179.43 37.7136 179.444 37.597 179.446 37.5566C179.448 37.5192 179.448 37.506 179.43 37.4795C179.409 37.4477 179.437 37.3821 179.437 37.3451C179.437 37.1553 179.449 37.3681 179.414 37.3582C179.387 37.3505 179.399 37.2835 179.399 37.3635C179.399 37.3917 179.417 37.4245 179.426 37.4511C179.434 37.4764 179.429 37.5122 179.428 37.5383C179.427 37.5602 179.422 37.5877 179.418 37.6097C179.414 37.6289 179.409 37.6942 179.409 37.6422C179.409 37.6185 179.405 37.5432 179.392 37.5267C179.384 37.5167 179.39 37.4086 179.39 37.4438" stroke="#AB6243" stroke-width="0.1" stroke-linecap="round"/>
<path d="M179.569 35.1762C179.569 35.1398 179.569 35.1034 179.569 35.067C179.569 35.0435 179.57 35.0892 179.568 35.0959C179.567 35.1023 179.552 35.1373 179.545 35.1373C179.535 35.1373 179.53 34.9311 179.533 34.9043C179.538 34.8664 179.548 34.83 179.557 34.793C179.571 34.736 179.559 34.6665 179.559 34.6088C179.559 34.4978 179.575 34.3909 179.578 34.2807C179.581 34.1733 179.591 34.0664 179.602 33.96C179.603 33.9472 179.611 33.89 179.588 33.9238C179.573 33.9468 179.588 33.8685 179.588 33.8409C179.588 33.7509 179.588 34.0207 179.588 34.1106C179.588 34.3337 179.614 34.5732 179.569 34.792C179.557 34.8513 179.562 34.9086 179.557 34.9694C179.553 35.0232 179.54 35.0794 179.54 35.1331C179.54 35.1605 179.536 35.1858 179.531 35.2129C179.518 35.2827 179.504 35.1941 179.503 35.1667C179.497 35.0391 179.534 34.9061 179.55 34.7794C179.562 34.6821 179.575 34.5839 179.579 34.4865C179.581 34.4212 179.589 34.3582 179.609 34.2965C179.627 34.2415 179.662 34.1223 179.72 34.0991" stroke="#AB6243" stroke-width="0.1" stroke-linecap="round"/>
</svg>
