<svg width="218" height="219" viewBox="0 0 218 219" fill="none" xmlns="http://www.w3.org/2000/svg">
<path d="M76.2544 10.4227C61.302 15.619 52.6911 27.0507 40.5171 43.1484C35.5965 49.6808 -7.05496 106.203 10.2517 141.792C16.678 154.984 28.1521 158.78 82.9352 173.372C190.465 201.983 200.9 201.877 208.642 193.733C229.108 172.206 209.384 116.85 195.131 89.8508C171.059 44.2088 118.397 -4.27518 76.2544 10.4227Z" fill="#EDEEFF"/>
<path d="M182.343 208.131C178.271 208.131 172.862 207.049 165.375 204.737C149.214 199.753 122.363 188.852 69.6588 165.861C45.0986 155.172 28.2586 147.685 18.0782 141.47C13.1153 138.438 9.63701 135.659 7.09192 132.711C4.69529 129.89 3.06219 126.9 1.83206 122.976C-0.946334 114.068 -0.564565 103.867 2.97735 92.6047C5.84058 83.5272 10.7611 73.7286 17.6116 63.4634C25.3317 51.9044 35.6394 39.6243 46.6681 28.8289C61.1115 14.7036 71.5464 4.50207 87.432 1.53279L87.6441 2.67808L87.432 1.53279C98.1002 -0.460864 109.32 1.17223 120.751 6.38967C131.08 11.0981 141.388 18.6273 151.399 28.7441C160.497 37.9488 169.299 49.3805 176.85 61.7454C184.103 73.6437 190.211 86.4328 194.517 98.7765C196.447 104.291 199.289 113.326 201.791 124.885C204.124 135.68 205.588 145.967 206.139 155.447C206.776 166.582 206.097 176.253 204.124 184.186C201.855 193.454 197.804 200.389 192.099 204.822C189.999 206.434 187.475 207.961 183.106 208.109C182.852 208.131 182.597 208.131 182.343 208.131ZM96.361 3.03864C93.4766 3.03864 90.6558 3.29314 87.8562 3.82337C80.836 5.11713 74.4732 8.02278 67.8136 12.9009C61.5781 17.482 55.4063 23.5054 48.28 30.4832C37.3573 41.1726 27.1557 53.3466 19.5205 64.7571C12.7972 74.8527 7.96149 84.4392 5.16189 93.3046C1.76843 104.1 1.38667 113.835 4.03781 122.276C5.16189 125.882 6.64652 128.618 8.83106 131.184C11.2065 133.941 14.5363 136.571 19.2659 139.477C29.3191 145.627 46.0955 153.072 70.5708 163.74C123.212 186.688 149.978 197.569 166.054 202.51C173.753 204.886 179.14 205.925 183.021 205.798C186.542 205.67 188.621 204.589 190.678 202.977C195.98 198.884 199.734 192.372 201.898 183.634C203.806 175.914 204.464 166.476 203.828 155.596C203.297 146.221 201.855 136.062 199.543 125.373C197.062 113.941 194.262 105.012 192.353 99.5401C188.09 87.366 182.046 74.7254 174.898 62.9756C167.433 50.7379 158.758 39.4759 149.766 30.3984C139.946 20.4513 129.871 13.0918 119.797 8.51058C111.822 4.86262 103.954 3.03864 96.361 3.03864Z" fill="#9196F7"/>
<path d="M41.7984 167.142C36.6295 167.142 32.4199 163.319 32.4199 158.611V32.6821H185.422V158.611C185.422 163.319 181.223 167.142 176.054 167.142H41.7984Z" fill="white"/>
<path d="M186.087 32.042H31.7871V158.06C31.7871 163.078 36.2676 167.142 41.8089 167.142H176.065C181.595 167.142 186.087 163.078 186.087 158.06V32.042ZM184.789 33.2119V158.06C184.789 162.422 180.873 165.972 176.065 165.972H41.8089C36.9899 165.972 33.0737 162.422 33.0737 158.06V33.2119H184.789Z" fill="#7484CA"/>
<path d="M74.9114 79.2027V78.6271H43.8077C42.8372 78.6271 41.9569 78.2208 41.3136 77.5888C40.6703 76.9455 40.2753 76.0652 40.2753 75.0946V51.4283C40.2753 50.4577 40.6703 49.5774 41.3136 48.9341C41.9569 48.2908 42.8372 47.8958 43.8077 47.8958H74.9114C75.882 47.8958 76.7623 48.2908 77.4056 48.9341C78.0489 49.5774 78.4439 50.4577 78.4439 51.4283V75.0946C78.4439 76.0652 78.0489 76.9455 77.4056 77.5888C76.7623 78.2208 75.882 78.6271 74.9114 78.6271V79.7895C77.4959 79.7783 79.6063 77.6791 79.6176 75.0946V51.4283C79.6063 48.8438 77.4959 46.7447 74.9114 46.7334H43.8077C41.2233 46.7447 39.1128 48.8438 39.1016 51.4283V75.0946C39.1128 77.6791 41.2233 79.7783 43.8077 79.7895H74.9114V79.2027Z" fill="#C0EAF2"/>
<path d="M45.4167 83.8863C45.3716 83.8412 45.3151 83.8073 45.2587 83.7847C45.0217 83.6945 44.2091 83.6719 44.1076 83.6606L43.9496 83.638C43.8593 83.3672 43.7916 83.164 43.6674 82.8706C43.611 82.7126 43.5094 82.5094 43.3966 82.3853C43.2837 82.2612 43.137 82.1483 42.9677 82.1709C42.7533 82.1934 42.4711 82.5997 42.3583 82.8706C42.2567 83.1189 42.1777 83.3672 42.0874 83.638L41.9294 83.6606C41.8278 83.6719 41.0152 83.6945 40.7895 83.7847C40.7218 83.8073 40.6767 83.8412 40.6315 83.8863C40.5187 83.9992 40.5074 84.191 40.5751 84.3265C40.6428 84.4732 40.7782 84.5747 40.9024 84.665C41.0265 84.7666 41.1507 84.8569 41.2861 84.9472C41.399 85.0262 41.5005 85.1052 41.6134 85.1729L41.636 85.1842V85.2067C41.5908 85.455 41.5231 85.692 41.4667 85.929C41.4328 86.087 41.3877 86.2225 41.3764 86.3805C41.3764 86.561 41.3764 86.7868 41.5683 86.877C41.636 86.8996 41.715 86.8996 41.794 86.877C42.0423 86.8093 42.2905 86.7078 42.5501 86.561C42.6968 86.4933 42.8548 86.3692 43.0241 86.245C43.1821 86.3692 43.3401 86.4933 43.4868 86.561C43.7464 86.7078 43.9947 86.8093 44.243 86.877C44.322 86.8996 44.401 86.8996 44.4687 86.877C44.6719 86.7868 44.6606 86.561 44.6606 86.3805C44.6493 86.2225 44.6041 86.087 44.5703 85.929C44.5139 85.692 44.4574 85.455 44.401 85.2067V85.1842L44.4236 85.1729C44.5364 85.1052 44.638 85.0262 44.7509 84.9472C44.8863 84.8569 45.0104 84.7666 45.1346 84.665C45.2587 84.5747 45.3941 84.4732 45.4619 84.3265C45.5296 84.191 45.5183 83.9992 45.4167 83.8863Z" fill="#FBC94F"/>
<path d="M53.6062 83.8863C53.561 83.8412 53.5046 83.8073 53.4482 83.7847C53.2225 83.6945 52.3986 83.6719 52.3083 83.6606L52.1503 83.638C52.06 83.3672 51.981 83.164 51.8682 82.8706C51.8004 82.7126 51.7102 82.5094 51.586 82.3853C51.4732 82.2612 51.3264 82.1483 51.1571 82.1709C50.9427 82.1934 50.6606 82.5997 50.5477 82.8706C50.4461 83.1189 50.3671 83.3672 50.2881 83.638L50.1189 83.6606C50.0286 83.6719 49.2047 83.6945 48.979 83.7847C48.9226 83.8073 48.8661 83.8412 48.821 83.8863C48.7081 83.9992 48.6968 84.191 48.7646 84.3265C48.8436 84.4732 48.979 84.5747 49.0918 84.665C49.216 84.7666 49.3514 84.8569 49.4756 84.9472C49.5884 85.0262 49.7013 85.1052 49.8141 85.1729L49.8254 85.1842V85.2067C49.7803 85.455 49.7126 85.692 49.6561 85.929C49.6223 86.087 49.5771 86.2225 49.5771 86.3805C49.5658 86.561 49.5658 86.7868 49.7577 86.877C49.8367 86.8996 49.9157 86.8996 49.9834 86.877C50.2317 86.8093 50.48 86.7078 50.7509 86.561C50.8976 86.4933 51.0443 86.3692 51.2136 86.245C51.3829 86.3692 51.5409 86.4933 51.6763 86.561C51.9472 86.7078 52.1954 86.8093 52.4437 86.877C52.5114 86.8996 52.6017 86.8996 52.6694 86.877C52.8613 86.7868 52.8613 86.561 52.85 86.3805C52.85 86.2225 52.8049 86.087 52.771 85.929C52.7146 85.692 52.6469 85.455 52.6017 85.2067V85.1842L52.613 85.1729C52.7259 85.1052 52.8387 85.0262 52.9516 84.9472C53.0757 84.8569 53.2112 84.7666 53.3353 84.665C53.4482 84.5747 53.5836 84.4732 53.6626 84.3265C53.7303 84.191 53.719 83.9992 53.6062 83.8863Z" fill="#FBC94F"/>
<path d="M61.7882 83.8863C61.7544 83.8412 61.698 83.8073 61.6302 83.7847C61.4045 83.6945 60.5919 83.6719 60.4904 83.6606L60.3324 83.638C60.2421 83.3672 60.1744 83.164 60.0502 82.8706C59.9825 82.7126 59.8922 82.5094 59.7681 82.3853C59.6665 82.2612 59.5198 82.1483 59.3392 82.1709C59.1361 82.1934 58.8539 82.5997 58.7411 82.8706C58.6282 83.1189 58.5605 83.3672 58.4702 83.638L58.3122 83.6606C58.2106 83.6719 57.3981 83.6945 57.1611 83.7847C57.1046 83.8073 57.0482 83.8412 57.0143 83.8863C56.9015 83.9992 56.8902 84.191 56.9579 84.3265C57.0256 84.4732 57.1611 84.5747 57.2852 84.665C57.4093 84.7666 57.5335 84.8569 57.6689 84.9472C57.7818 85.0262 57.8834 85.1052 57.9962 85.1729L58.0188 85.1842V85.2067C57.9736 85.455 57.9059 85.692 57.8495 85.929C57.8156 86.087 57.7705 86.2225 57.7592 86.3805C57.7592 86.561 57.7479 86.7868 57.9511 86.877C58.0188 86.8996 58.0978 86.8996 58.1768 86.877C58.4251 86.8093 58.6734 86.7078 58.9329 86.561C59.0796 86.4933 59.2376 86.3692 59.3957 86.245C59.5649 86.3692 59.7229 86.4933 59.8697 86.561C60.1292 86.7078 60.3775 86.8093 60.6258 86.877C60.7048 86.8996 60.7838 86.8996 60.8515 86.877C61.0547 86.7868 61.0434 86.561 61.0434 86.3805C61.0321 86.2225 60.987 86.087 60.9531 85.929C60.8967 85.692 60.829 85.455 60.7838 85.2067V85.1842L60.8064 85.1729C60.9192 85.1052 61.0208 85.0262 61.1337 84.9472C61.2691 84.8569 61.3932 84.7666 61.5174 84.665C61.6415 84.5747 61.777 84.4732 61.8447 84.3265C61.9124 84.191 61.9011 83.9992 61.7882 83.8863Z" fill="#FBC94F"/>
<path d="M69.9773 83.8863C69.9321 83.8412 69.8757 83.8073 69.8193 83.7847C69.5823 83.6945 68.7697 83.6719 68.6794 83.6606L68.5101 83.638C68.4311 83.3672 68.3521 83.164 68.2392 82.8706C68.1715 82.7126 68.07 82.5094 67.9571 82.3853C67.8442 82.2612 67.6975 82.1483 67.5282 82.1709C67.3138 82.1934 67.0317 82.5997 66.9188 82.8706C66.8172 83.1189 66.7382 83.3672 66.6479 83.638L66.4899 83.6606C66.3884 83.6719 65.5758 83.6945 65.3501 83.7847C65.2936 83.8073 65.2372 83.8412 65.1921 83.8863C65.0792 83.9992 65.0679 84.191 65.1357 84.3265C65.2034 84.4732 65.3501 84.5747 65.4629 84.665C65.5871 84.7666 65.7225 84.8569 65.8467 84.9472C65.9595 85.0262 66.0611 85.1052 66.1852 85.1729L66.1965 85.1842V85.2067C66.1514 85.455 66.0837 85.692 66.0272 85.929C65.9934 86.087 65.9482 86.2225 65.9482 86.3805C65.9369 86.561 65.9369 86.7868 66.1288 86.877C66.1965 86.8996 66.2868 86.8996 66.3545 86.877C66.6028 86.8093 66.8511 86.7078 67.122 86.561C67.2574 86.4933 67.4154 86.3692 67.5847 86.245C67.754 86.3692 67.9007 86.4933 68.0474 86.561C68.3182 86.7078 68.5553 86.8093 68.8148 86.877C68.8825 86.8996 68.9615 86.8996 69.0405 86.877C69.2324 86.7868 69.2324 86.561 69.2211 86.3805C69.2211 86.2225 69.176 86.087 69.1308 85.929C69.0857 85.692 69.018 85.455 68.9728 85.2067V85.1842L68.9841 85.1729C69.097 85.1052 69.2098 85.0262 69.3114 84.9472C69.4468 84.8569 69.5823 84.7666 69.6951 84.665C69.8193 84.5747 69.9547 84.4732 70.0337 84.3265C70.0901 84.191 70.0788 83.9992 69.9773 83.8863Z" fill="#C0EAF2"/>
<path d="M78.1621 83.8863C78.1169 83.8412 78.0605 83.8073 78.0041 83.7847C77.7784 83.6945 76.9658 83.6719 76.8642 83.6606L76.7062 83.638C76.6159 83.3672 76.5369 83.164 76.4241 82.8706C76.3563 82.7126 76.2661 82.5094 76.1419 82.3853C76.0403 82.2612 75.8823 82.1483 75.713 82.1709C75.4986 82.1934 75.2278 82.5997 75.1036 82.8706C75.002 83.1189 74.923 83.3672 74.844 83.638L74.6748 83.6606C74.5845 83.6719 73.7719 83.6945 73.5349 83.7847C73.4785 83.8073 73.422 83.8412 73.3769 83.8863C73.2753 83.9992 73.264 84.191 73.3317 84.3265C73.3995 84.4732 73.5349 84.5747 73.659 84.665C73.7832 84.7666 73.9073 84.8569 74.0427 84.9472C74.1443 85.0262 74.2572 85.1052 74.37 85.1729L74.3813 85.1842V85.2067C74.3362 85.455 74.2797 85.692 74.2233 85.929C74.1782 86.087 74.133 86.2225 74.133 86.3805C74.133 86.561 74.1218 86.7868 74.3249 86.877C74.3926 86.8996 74.4716 86.8996 74.5506 86.877C74.7989 86.8093 75.0472 86.7078 75.3068 86.561C75.4535 86.4933 75.6115 86.3692 75.7695 86.245C75.9388 86.3692 76.0968 86.4933 76.2435 86.561C76.5031 86.7078 76.7513 86.8093 76.9996 86.877C77.0786 86.8996 77.1576 86.8996 77.2253 86.877C77.4172 86.7868 77.4172 86.561 77.4059 86.3805C77.4059 86.2225 77.3608 86.087 77.3269 85.929C77.2705 85.692 77.2028 85.455 77.1576 85.2067V85.1842L77.1802 85.1729C77.2931 85.1052 77.3946 85.0262 77.5075 84.9472C77.6316 84.8569 77.7671 84.7666 77.8912 84.665C78.0154 84.5747 78.1508 84.4732 78.2185 84.3265C78.2862 84.191 78.2749 83.9992 78.1621 83.8863Z" fill="#C0EAF2"/>
<path d="M78.2617 91.2336H40.5332V90.2065H78.2617V91.2336Z" fill="#C0EAF2"/>
<path d="M78.2617 94.0407H40.5332V93.0024H78.2617V94.0407Z" fill="#C0EAF2"/>
<path d="M78.2617 96.8405H40.5332V95.8022H78.2617V96.8405Z" fill="#C0EAF2"/>
<path d="M52.3236 63.3094C52.5606 66.887 52.1882 70.5662 51.8948 74.1099C51.8271 74.9564 52.1882 74.8999 52.8654 75.0354C52.7751 75.3514 53.0008 75.6787 53.2942 75.8254C53.5877 75.9721 53.9262 75.9721 54.2535 75.9721C57.8763 75.9834 61.499 75.9834 65.1218 75.9947C65.4378 75.9947 65.8102 75.9608 65.9456 75.6899C66.0923 75.4304 65.9343 75.1144 65.9456 74.8209C66.2052 74.6855 66.5438 74.8435 66.7582 74.5952C66.871 74.4711 66.8823 74.2792 66.8823 74.1099C66.9613 69.5053 66.7243 64.3703 66.8033 59.7657C67.8868 63.8737 68.1576 65.702 68.8686 68.5009C69.0154 69.0765 68.9702 69.7198 69.3088 70.205C69.6474 70.6903 70.3358 70.9951 70.8662 70.7129C70.8549 70.9612 70.9565 71.2208 71.1371 71.4013C72.0061 71.2659 72.8412 70.8483 73.4733 70.2389C73.304 69.9793 73.1234 69.7198 72.9428 69.4602C73.62 68.7605 73.699 67.6545 73.462 66.7177C73.225 65.7697 72.6268 64.9459 72.4011 63.9978C71.7691 61.2328 71.4418 58.4001 70.1665 56.0075C70.1665 55.1498 68.5301 53.8858 67.8868 53.4908C66.9726 52.9378 65.923 52.8475 64.896 52.6669C64.185 52.5315 63.316 52.2606 63.3386 51.369C63.3386 51.2449 63.3612 51.0982 63.2934 50.9966C63.2032 50.8499 63.0113 50.8273 62.842 50.816C61.42 50.7257 59.998 50.6693 58.5647 50.6354C57.8988 50.6242 55.4611 50.2179 55.1112 50.9966C55.0548 51.132 55.0661 51.2787 55.0774 51.4255C55.1338 52.159 54.9194 52.0687 54.2422 52.2155C53.5989 52.3509 52.9669 52.5089 52.3236 52.633C48.0012 53.4569 47.1547 57.4634 47.1547 61.2893C47.1547 62.4404 46.5792 63.6931 46.2067 64.754C45.823 65.8713 45.6086 66.9886 45.3377 68.1397C45.2474 68.5573 45.1459 68.9975 45.2474 69.4263C45.3377 69.7762 45.5747 70.0922 45.8907 70.284C45.9472 70.3066 46.0149 70.3405 46.0374 70.4082C46.06 70.4533 46.0487 70.4985 46.0374 70.5549C45.9923 70.7806 45.9472 71.0176 45.902 71.2433C46.4437 71.7173 47.3917 71.5368 48.0463 71.5255C48.114 71.5255 48.193 71.5255 48.2495 71.4803C48.2946 71.4352 48.3059 71.3675 48.3285 71.2998C48.3736 71.0628 48.4187 70.8258 48.4639 70.5775C48.7799 70.5323 49.0846 70.3856 49.3103 70.1599C49.8972 69.6182 49.9875 68.7492 50.1229 67.9592C50.5179 65.6117 51.5562 63.2756 52.0641 60.8491C52.1882 61.6617 52.2672 62.4855 52.3236 63.3094Z" fill="#7BD2CE"/>
<path d="M55.779 52.6332C58.0474 53.4119 60.4287 53.6263 62.7536 52.9379C62.8213 52.9153 62.81 52.667 62.7536 52.6783C60.3723 52.983 58.1038 52.9717 55.779 52.2833C55.7112 52.2607 55.6774 52.5993 55.779 52.6332Z" fill="#69CCC8"/>
<path d="M71.0058 70.5224C71.2879 70.4208 71.5701 70.3193 71.8296 70.1725C72.1005 70.0032 72.3714 69.8227 72.6197 69.6195C72.6535 69.597 72.6648 69.4164 72.6084 69.439C71.9989 69.6195 71.5024 69.9242 70.9832 70.2741C70.9268 70.3193 70.9268 70.5563 71.0058 70.5224Z" fill="#69CCC8"/>
<path d="M46.4056 70.4222C46.9586 70.7382 47.5681 70.8962 48.1662 70.6366C48.2226 70.614 48.2113 70.456 48.1549 70.4447C47.5906 70.3319 46.9925 70.3432 46.4169 70.219C46.3605 70.1965 46.3605 70.3996 46.4056 70.4222Z" fill="#69CCC8"/>
<path d="M46.9015 64.3945C47.7253 63.7286 48.5943 63.1192 49.2828 62.3179C49.3166 62.2841 49.3166 62.0922 49.2489 62.1261C48.3122 62.6113 47.5786 63.4916 46.8789 64.2704L46.9015 64.3945Z" fill="#69CCC8"/>
<path d="M54.2769 70.996C58.0464 70.7251 62.0754 68.1407 64.6486 65.5111C64.6937 65.4659 64.6937 65.2176 64.626 65.2628C63.0008 66.3236 61.4321 67.4409 59.7167 68.3551C57.9448 69.2918 56.0375 69.9238 54.2656 70.8605L54.2769 70.996Z" fill="#69CCC8"/>
<path d="M56.7429 69.1683C58.4357 67.6785 60.0383 66.0195 61.2459 64.1122C61.2685 64.0671 61.2572 63.8865 61.2121 63.9429C59.7675 65.6471 58.368 67.3061 56.6977 68.7846C56.5962 68.8636 56.6639 69.2473 56.7429 69.1683Z" fill="#69CCC8"/>
<path d="M53.3242 74.9149C56.8341 75.3776 60.8744 75.7049 64.3617 75.039C64.4182 75.0278 64.4182 74.802 64.3617 74.802C60.7616 74.486 56.947 74.7569 53.3242 74.7682V74.9149Z" fill="#69CCC8"/>
<path d="M125.273 79.2027V78.6271H94.1808C93.1989 78.6271 92.3186 78.2208 91.6753 77.5888C91.0321 76.9455 90.637 76.0652 90.637 75.0946V51.4283C90.637 50.4577 91.0321 49.5774 91.6753 48.9341C92.3186 48.2908 93.1989 47.8958 94.1808 47.8958H125.273C126.244 47.8958 127.124 48.2908 127.767 48.9341C128.411 49.5774 128.806 50.4577 128.806 51.4283V75.0946C128.806 76.0652 128.411 76.9455 127.767 77.5888C127.124 78.2208 126.244 78.6271 125.273 78.6271V79.7895C127.869 79.7783 129.979 77.6791 129.979 75.0946V51.4283C129.979 48.8438 127.869 46.7447 125.273 46.7334H94.1808C91.5851 46.7447 89.4746 48.8438 89.4746 51.4283V75.0946C89.4746 77.6791 91.5851 79.7783 94.1808 79.7895H125.273V79.2027Z" fill="#C0EAF2"/>
<path d="M95.7336 83.8863C95.6997 83.8412 95.6433 83.8073 95.5756 83.7847C95.3498 83.6945 94.5373 83.6719 94.4357 83.6606L94.2777 83.638C94.1874 83.3672 94.1197 83.164 93.9955 82.8706C93.9278 82.7126 93.8375 82.5094 93.7134 82.3853C93.6118 82.2612 93.4538 82.1483 93.2845 82.1709C93.0814 82.1934 92.7992 82.5997 92.6864 82.8706C92.5735 83.1189 92.5058 83.3672 92.4155 83.638L92.2575 83.6606C92.156 83.6719 91.3434 83.6945 91.1064 83.7847C91.0499 83.8073 90.9935 83.8412 90.9597 83.8863C90.8468 83.9992 90.8355 84.191 90.9032 84.3265C90.9709 84.4732 91.1064 84.5747 91.2305 84.665C91.3547 84.7666 91.4788 84.8569 91.6142 84.9472C91.7271 85.0262 91.8287 85.1052 91.9415 85.1729L91.9641 85.1842V85.2067C91.919 85.455 91.8512 85.692 91.7948 85.929C91.761 86.087 91.7158 86.2225 91.7045 86.3805C91.7045 86.561 91.6932 86.7868 91.8964 86.877C91.9641 86.8996 92.0431 86.8996 92.1221 86.877C92.3704 86.8093 92.6187 86.7078 92.8782 86.561C93.025 86.4933 93.183 86.3692 93.341 86.245C93.5102 86.3692 93.6683 86.4933 93.815 86.561C94.0745 86.7078 94.3228 86.8093 94.5711 86.877C94.6501 86.8996 94.7291 86.8996 94.7968 86.877C95 86.7868 94.9887 86.561 94.9887 86.3805C94.9774 86.2225 94.9323 86.087 94.8984 85.929C94.842 85.692 94.7743 85.455 94.7291 85.2067V85.1842L94.7517 85.1729C94.8645 85.1052 94.9661 85.0262 95.079 84.9472C95.2144 84.8569 95.3386 84.7666 95.4627 84.665C95.5868 84.5747 95.7223 84.4732 95.79 84.3265C95.8577 84.191 95.8464 83.9992 95.7336 83.8863Z" fill="#FBC94F"/>
<path d="M103.928 83.8863C103.883 83.8412 103.827 83.8073 103.77 83.7847C103.533 83.6945 102.721 83.6719 102.631 83.6606L102.461 83.638C102.382 83.3672 102.303 83.164 102.19 82.8706C102.123 82.7126 102.021 82.5094 101.908 82.3853C101.795 82.2612 101.649 82.1483 101.479 82.1709C101.265 82.1934 100.983 82.5997 100.87 82.8706C100.768 83.1189 100.689 83.3672 100.599 83.638L100.441 83.6606C100.34 83.6719 99.527 83.6945 99.3013 83.7847C99.2448 83.8073 99.1884 83.8412 99.1433 83.8863C99.0304 83.9992 99.0191 84.191 99.0868 84.3265C99.1545 84.4732 99.29 84.5747 99.4141 84.665C99.5383 84.7666 99.6737 84.8569 99.7978 84.9472C99.9107 85.0262 100.012 85.1052 100.136 85.1729L100.148 85.1842V85.2067C100.103 85.455 100.035 85.692 99.9784 85.929C99.9445 86.087 99.8994 86.2225 99.8994 86.3805C99.8881 86.561 99.8881 86.7868 100.08 86.877C100.148 86.8996 100.238 86.8996 100.306 86.877C100.554 86.8093 100.802 86.7078 101.073 86.561C101.209 86.4933 101.367 86.3692 101.536 86.245C101.705 86.3692 101.852 86.4933 101.999 86.561C102.269 86.7078 102.506 86.8093 102.766 86.877C102.834 86.8996 102.913 86.8996 102.992 86.877C103.184 86.7868 103.184 86.561 103.172 86.3805C103.172 86.2225 103.127 86.087 103.082 85.929C103.037 85.692 102.969 85.455 102.924 85.2067V85.1842L102.935 85.1729C103.048 85.1052 103.161 85.0262 103.263 84.9472C103.398 84.8569 103.522 84.7666 103.646 84.665C103.77 84.5747 103.906 84.4732 103.985 84.3265C104.041 84.191 104.03 83.9992 103.928 83.8863Z" fill="#FBC94F"/>
<path d="M112.113 83.8863C112.068 83.8412 112.012 83.8073 111.955 83.7847C111.73 83.6945 110.917 83.6719 110.815 83.6606L110.657 83.638C110.567 83.3672 110.488 83.164 110.375 82.8706C110.308 82.7126 110.217 82.5094 110.093 82.3853C109.992 82.2612 109.834 82.1483 109.664 82.1709C109.45 82.1934 109.179 82.5997 109.055 82.8706C108.953 83.1189 108.874 83.3672 108.795 83.638L108.626 83.6606C108.536 83.6719 107.723 83.6945 107.486 83.7847C107.43 83.8073 107.373 83.8412 107.328 83.8863C107.226 83.9992 107.215 84.191 107.283 84.3265C107.351 84.4732 107.486 84.5747 107.61 84.665C107.734 84.7666 107.858 84.8569 107.994 84.9472C108.095 85.0262 108.208 85.1052 108.321 85.1729L108.332 85.1842V85.2067C108.287 85.455 108.231 85.692 108.174 85.929C108.129 86.087 108.084 86.2225 108.084 86.3805C108.084 86.561 108.073 86.7868 108.276 86.877C108.344 86.8996 108.423 86.8996 108.502 86.877C108.75 86.8093 108.998 86.7078 109.258 86.561C109.405 86.4933 109.563 86.3692 109.721 86.245C109.89 86.3692 110.048 86.4933 110.195 86.561C110.454 86.7078 110.703 86.8093 110.951 86.877C111.03 86.8996 111.109 86.8996 111.177 86.877C111.368 86.7868 111.368 86.561 111.357 86.3805C111.357 86.2225 111.312 86.087 111.278 85.929C111.222 85.692 111.154 85.455 111.109 85.2067V85.1842L111.131 85.1729C111.244 85.1052 111.346 85.0262 111.459 84.9472C111.583 84.8569 111.718 84.7666 111.842 84.665C111.967 84.5747 112.102 84.4732 112.17 84.3265C112.237 84.191 112.226 83.9992 112.113 83.8863Z" fill="#C0EAF2"/>
<path d="M120.305 83.8863C120.26 83.8412 120.204 83.8073 120.147 83.7847C119.91 83.6945 119.098 83.6719 119.008 83.6606L118.838 83.638C118.759 83.3672 118.68 83.164 118.567 82.8706C118.5 82.7126 118.398 82.5094 118.285 82.3853C118.172 82.2612 118.026 82.1483 117.856 82.1709C117.642 82.1934 117.36 82.5997 117.247 82.8706C117.145 83.1189 117.066 83.3672 116.976 83.638L116.818 83.6606C116.716 83.6719 115.904 83.6945 115.678 83.7847C115.622 83.8073 115.565 83.8412 115.52 83.8863C115.407 83.9992 115.396 84.191 115.464 84.3265C115.531 84.4732 115.667 84.5747 115.791 84.665C115.915 84.7666 116.051 84.8569 116.175 84.9472C116.288 85.0262 116.389 85.1052 116.502 85.1729L116.525 85.1842V85.2067C116.479 85.455 116.412 85.692 116.355 85.929C116.321 86.087 116.276 86.2225 116.265 86.3805C116.265 86.561 116.265 86.7868 116.457 86.877C116.525 86.8996 116.604 86.8996 116.683 86.877C116.931 86.8093 117.179 86.7078 117.439 86.561C117.586 86.4933 117.744 86.3692 117.913 86.245C118.071 86.3692 118.229 86.4933 118.376 86.561C118.635 86.7078 118.883 86.8093 119.132 86.877C119.211 86.8996 119.29 86.8996 119.357 86.877C119.561 86.7868 119.549 86.561 119.549 86.3805C119.538 86.2225 119.493 86.087 119.459 85.929C119.403 85.692 119.346 85.455 119.301 85.2067V85.1842L119.312 85.1729C119.425 85.1052 119.538 85.0262 119.64 84.9472C119.775 84.8569 119.899 84.7666 120.023 84.665C120.147 84.5747 120.283 84.4732 120.351 84.3265C120.418 84.191 120.407 83.9992 120.305 83.8863Z" fill="#C0EAF2"/>
<path d="M128.492 83.8863C128.447 83.8412 128.39 83.8073 128.334 83.7847C128.108 83.6945 127.296 83.6719 127.194 83.6606L127.036 83.638C126.946 83.3672 126.867 83.164 126.754 82.8706C126.686 82.7126 126.596 82.5094 126.472 82.3853C126.359 82.2612 126.212 82.1483 126.043 82.1709C125.829 82.1934 125.558 82.5997 125.434 82.8706C125.332 83.1189 125.253 83.3672 125.174 83.638L125.005 83.6606C124.914 83.6719 124.09 83.6945 123.865 83.7847C123.808 83.8073 123.752 83.8412 123.707 83.8863C123.594 83.9992 123.594 84.191 123.65 84.3265C123.729 84.4732 123.865 84.5747 123.978 84.665C124.113 84.7666 124.237 84.8569 124.361 84.9472C124.474 85.0262 124.587 85.1052 124.7 85.1729L124.711 85.1842V85.2067C124.666 85.455 124.598 85.692 124.542 85.929C124.508 86.087 124.463 86.2225 124.463 86.3805C124.452 86.561 124.452 86.7868 124.643 86.877C124.722 86.8996 124.801 86.8996 124.869 86.877C125.117 86.8093 125.366 86.7078 125.637 86.561C125.783 86.4933 125.93 86.3692 126.099 86.245C126.269 86.3692 126.427 86.4933 126.562 86.561C126.833 86.7078 127.081 86.8093 127.33 86.877C127.397 86.8996 127.488 86.8996 127.555 86.877C127.747 86.7868 127.747 86.561 127.736 86.3805C127.736 86.2225 127.691 86.087 127.657 85.929C127.6 85.692 127.533 85.455 127.488 85.2067V85.1842L127.499 85.1729C127.623 85.1052 127.725 85.0262 127.837 84.9472C127.962 84.8569 128.097 84.7666 128.221 84.665C128.334 84.5747 128.481 84.4732 128.548 84.3265C128.616 84.191 128.605 83.9992 128.492 83.8863Z" fill="#C0EAF2"/>
<path d="M128.59 91.2336H90.8613V90.2065H128.59V91.2336Z" fill="#C0EAF2"/>
<path d="M128.59 94.0407H90.8613V93.0024H128.59V94.0407Z" fill="#C0EAF2"/>
<path d="M128.59 96.8405H90.8613V95.8022H128.59V96.8405Z" fill="#C0EAF2"/>
<path d="M102.762 76.3033L102.818 76.2807C103.27 76.0663 103.71 75.7615 104.218 75.7615C105.008 75.7503 105.662 76.4838 106.464 76.4838C107.287 76.4725 107.953 75.66 108.777 75.6825C109.409 75.6938 109.951 76.2017 110.583 76.2243C111.52 76.2581 112.287 75.2537 113.224 75.3665C113.912 75.4568 114.476 76.1565 115.176 76.0775C115.515 76.0437 115.808 75.8067 116.113 75.66C116.711 75.3778 117.343 75.9308 117.862 75.4004C118.483 74.7684 117.986 73.0868 117.783 72.3419C117.456 71.1569 117.027 69.9945 116.564 68.8546C115.639 66.5636 114.589 64.2952 114.036 61.88C113.98 61.5978 113.923 61.3157 113.935 61.0336C113.957 60.6724 114.093 60.3338 114.217 59.9953C115.007 57.8735 115.357 55.6164 115.549 53.3818C115.56 53.1335 116.034 51.6325 115.808 51.4632C116.079 51.6663 116.203 52.0049 116.305 52.3322C116.474 52.8513 116.643 53.3705 116.813 53.9009C117.095 52.8852 116.508 51.8469 115.955 50.9553C116.102 50.9666 116.248 50.9779 116.395 50.9892C116.711 51.0118 117.072 51.0118 117.253 50.7635C117.478 50.4475 117.185 49.9735 116.801 49.8945C116.429 49.8155 116.045 50.0299 115.752 50.2782C115.695 50.3233 115.628 50.3798 115.549 50.3572C115.503 50.3459 115.47 50.312 115.447 50.2669C115.3 50.075 115.154 49.8719 115.007 49.6687C114.95 49.601 114.883 49.522 114.804 49.4769C114.567 49.3753 114.307 49.6462 114.307 49.9057C114.318 50.3346 114.736 50.5716 114.849 50.9553C114.42 51.5422 114.127 52.2306 113.98 52.9416C114.307 52.4338 114.646 51.9372 114.996 51.4519C114.917 52.1291 114.476 52.8062 114.476 53.4721C114.42 53.7768 114.352 54.1154 114.104 54.2959C113.89 54.4539 113.619 54.4652 113.359 54.4765C110.888 54.5555 108.427 54.6232 105.956 54.7022C105.166 54.7248 104.759 53.9461 104.534 53.3028C104.398 52.9078 104.308 52.5015 104.24 52.0839C104.184 51.7905 104.195 51.1585 104.048 50.9102C104.173 51.1133 104.297 51.3165 104.421 51.5196C104.466 51.5873 104.5 51.655 104.568 51.7002C104.635 51.7453 104.737 51.7453 104.793 51.6889C104.59 51.2488 104.319 50.8312 104.15 50.391C104.274 50.2669 104.443 50.2669 104.613 50.2218C104.805 50.1766 105.008 50.0863 105.143 49.9283C105.279 49.7703 105.324 49.522 105.2 49.364C105.064 49.1835 104.805 49.1722 104.579 49.206C104.026 49.3076 103.529 49.6913 103.292 50.2105C102.547 49.4995 101.475 49.917 101.012 50.7296C100.877 50.9666 100.798 51.2826 100.967 51.5083C101.114 51.7115 101.419 51.734 101.644 51.6325C102.085 51.4519 102.277 50.9779 102.672 50.7522C102.705 51.023 102.48 51.26 102.435 51.5309C102.378 51.8243 102.547 52.1178 102.559 52.4225C102.559 52.6933 102.423 52.9529 102.288 53.2012C102.525 53.0658 102.717 52.8513 102.784 52.6031C102.863 52.3435 102.796 52.0839 102.784 51.8243C102.762 51.5648 102.807 51.2713 103.01 51.1133C103.112 51.5873 103.304 52.0952 103.304 52.5805C103.337 53.6413 103.179 54.6909 103.123 55.7518C103.055 57.377 103.405 58.9231 104.015 60.4354C104.116 60.695 104.229 60.9658 104.24 61.248C104.252 61.485 104.195 61.7333 104.15 61.9703C103.552 64.6112 102.694 67.2182 102.231 69.8591C102.028 70.9876 99.8726 77.5334 102.762 76.3033Z" fill="#7EC4ED"/>
<path d="M105.58 61.0872C107.634 61.8772 110.647 62.0803 112.747 61.437C112.826 61.4032 112.837 61.0984 112.747 61.0872C111.562 60.9856 110.354 61.1323 109.158 61.0872C107.961 61.0533 106.776 60.8389 105.591 60.8389C105.524 60.8389 105.524 61.0646 105.58 61.0872Z" fill="#6EB8E8"/>
<path d="M103.695 75.276C104.034 73.696 104.361 72.116 104.745 70.5586C104.914 69.8588 105.365 66.7891 106.031 66.5182C105.817 66.6085 105.58 71.4501 105.546 71.8677C105.489 72.9963 105.523 74.0797 105.681 75.2083C105.693 75.2535 105.715 75.2196 105.715 75.1857C105.252 72.0596 106.031 68.9785 106.088 65.8411C106.088 65.8185 106.054 65.7508 106.031 65.7959C104.936 68.8431 104.237 71.958 103.593 75.118C103.571 75.2196 103.661 75.4566 103.695 75.276Z" fill="#6EB8E8"/>
<path d="M109.726 74.9118C109.85 72.4515 109.997 69.9799 110.155 67.5196C110.166 67.2713 109.952 66.9779 109.929 67.3729C109.748 69.8896 109.658 72.3951 109.658 74.9118C109.658 75.0021 109.726 75.0021 109.726 74.9118Z" fill="#6EB8E8"/>
<path d="M114.23 75.1482C114.061 73.76 113.869 72.3832 113.677 70.995C113.576 70.3066 113.474 69.6181 113.384 68.9297C113.316 68.4783 113.248 68.0156 113.181 67.5528C112.977 66.8305 112.989 66.6613 113.237 67.0788C114.05 67.8688 114.332 69.9567 114.648 71.0063C115.065 72.3719 115.415 73.7713 115.788 75.1482C115.867 75.419 116.002 75.0692 115.968 74.9338C115.291 71.9656 114.467 68.7153 112.944 66.0518C112.853 65.9051 112.797 66.255 112.808 66.3001C113.226 69.2796 113.621 72.259 114.095 75.2272C114.129 75.4416 114.253 75.2836 114.23 75.1482Z" fill="#6EB8E8"/>
<path d="M74.9114 142.833V142.257H43.8077C42.8372 142.257 41.9569 141.862 41.3136 141.219C40.6703 140.576 40.2753 139.696 40.2753 138.725V115.059C40.2753 114.088 40.6703 113.208 41.3136 112.576C41.9569 111.932 42.8372 111.537 43.8077 111.537H74.9114C75.882 111.537 76.7623 111.932 77.4056 112.576C78.0489 113.208 78.4439 114.088 78.4439 115.059V138.725C78.4439 139.696 78.0489 140.576 77.4056 141.219C76.7623 141.862 75.882 142.257 74.9114 142.257V143.42C77.4959 143.42 79.6063 141.309 79.6176 138.725V115.059C79.6063 112.474 77.4959 110.375 74.9114 110.364H43.8077C41.2233 110.375 39.1128 112.474 39.1016 115.059V138.725C39.1128 141.309 41.2233 143.42 43.8077 143.42H74.9114V142.833Z" fill="#C0EAF2"/>
<path d="M45.4167 147.096C45.3716 147.051 45.3151 147.017 45.2587 146.995C45.0217 146.904 44.2091 146.882 44.1076 146.871L43.9496 146.848C43.8593 146.577 43.7916 146.374 43.6674 146.081C43.611 145.923 43.5094 145.731 43.3966 145.595C43.2837 145.471 43.137 145.358 42.9677 145.381C42.7533 145.403 42.4711 145.81 42.3583 146.081C42.2567 146.329 42.1777 146.577 42.0874 146.848L41.9294 146.871C41.8278 146.882 41.0152 146.904 40.7895 146.995C40.7218 147.017 40.6767 147.051 40.6315 147.096C40.5187 147.209 40.5074 147.401 40.5751 147.536C40.6428 147.683 40.7782 147.785 40.9024 147.875C41.0265 147.977 41.1507 148.067 41.2861 148.157C41.399 148.236 41.5005 148.315 41.6134 148.383L41.636 148.394V148.417C41.5908 148.665 41.5231 148.902 41.4667 149.139C41.4328 149.297 41.3877 149.444 41.3764 149.602C41.3764 149.771 41.3764 149.997 41.5683 150.087C41.636 150.11 41.715 150.11 41.794 150.098C42.0423 150.019 42.2905 149.918 42.5501 149.782C42.6968 149.703 42.8548 149.579 43.0241 149.455C43.1821 149.579 43.3401 149.703 43.4868 149.782C43.7464 149.918 43.9947 150.019 44.243 150.098C44.322 150.11 44.401 150.11 44.4687 150.087C44.6719 149.997 44.6606 149.771 44.6606 149.602C44.6493 149.444 44.6041 149.297 44.5703 149.139C44.5139 148.902 44.4574 148.665 44.401 148.417V148.394L44.4236 148.383C44.5364 148.315 44.638 148.236 44.7509 148.157C44.8863 148.067 45.0104 147.977 45.1346 147.875C45.2587 147.785 45.3941 147.683 45.4619 147.536C45.5296 147.401 45.5183 147.209 45.4167 147.096Z" fill="#FBC94F"/>
<path d="M53.6062 147.096C53.561 147.051 53.5046 147.017 53.4482 146.995C53.2225 146.904 52.3986 146.882 52.3083 146.871L52.1503 146.848C52.06 146.577 51.981 146.374 51.8682 146.081C51.8004 145.923 51.7102 145.731 51.586 145.595C51.4732 145.471 51.3264 145.358 51.1571 145.381C50.9427 145.403 50.6606 145.81 50.5477 146.081C50.4461 146.329 50.3671 146.577 50.2881 146.848L50.1189 146.871C50.0286 146.882 49.2047 146.904 48.979 146.995C48.9226 147.017 48.8661 147.051 48.821 147.096C48.7081 147.209 48.6968 147.401 48.7646 147.536C48.8436 147.683 48.979 147.785 49.0918 147.875C49.216 147.977 49.3514 148.067 49.4756 148.157C49.5884 148.236 49.7013 148.315 49.8141 148.383L49.8254 148.394V148.417C49.7803 148.665 49.7126 148.902 49.6561 149.139C49.6223 149.297 49.5771 149.444 49.5771 149.602C49.5658 149.771 49.5658 149.997 49.7577 150.087C49.8367 150.11 49.9157 150.11 49.9834 150.098C50.2317 150.019 50.48 149.918 50.7509 149.782C50.8976 149.703 51.0443 149.579 51.2136 149.455C51.3829 149.579 51.5409 149.703 51.6763 149.782C51.9472 149.918 52.1954 150.019 52.4437 150.098C52.5114 150.11 52.6017 150.11 52.6694 150.087C52.8613 149.997 52.8613 149.771 52.85 149.602C52.85 149.444 52.8049 149.297 52.771 149.139C52.7146 148.902 52.6469 148.665 52.6017 148.417V148.394L52.613 148.383C52.7259 148.315 52.8387 148.236 52.9516 148.157C53.0757 148.067 53.2112 147.977 53.3353 147.875C53.4482 147.785 53.5836 147.683 53.6626 147.536C53.7303 147.401 53.719 147.209 53.6062 147.096Z" fill="#FBC94F"/>
<path d="M61.7882 147.096C61.7544 147.051 61.698 147.017 61.6302 146.995C61.4045 146.904 60.5919 146.882 60.4904 146.871L60.3324 146.848C60.2421 146.577 60.1744 146.374 60.0502 146.081C59.9825 145.923 59.8922 145.731 59.7681 145.595C59.6665 145.471 59.5198 145.358 59.3392 145.381C59.1361 145.403 58.8539 145.81 58.7411 146.081C58.6282 146.329 58.5605 146.577 58.4702 146.848L58.3122 146.871C58.2106 146.882 57.3981 146.904 57.1611 146.995C57.1046 147.017 57.0482 147.051 57.0143 147.096C56.9015 147.209 56.8902 147.401 56.9579 147.536C57.0256 147.683 57.1611 147.785 57.2852 147.875C57.4093 147.977 57.5335 148.067 57.6689 148.157C57.7818 148.236 57.8834 148.315 57.9962 148.383L58.0188 148.394V148.417C57.9736 148.665 57.9059 148.902 57.8495 149.139C57.8156 149.297 57.7705 149.444 57.7592 149.602C57.7592 149.771 57.7479 149.997 57.9511 150.087C58.0188 150.11 58.0978 150.11 58.1768 150.098C58.4251 150.019 58.6734 149.918 58.9329 149.782C59.0796 149.703 59.2376 149.579 59.3957 149.455C59.5649 149.579 59.7229 149.703 59.8697 149.782C60.1292 149.918 60.3775 150.019 60.6258 150.098C60.7048 150.11 60.7838 150.11 60.8515 150.087C61.0547 149.997 61.0434 149.771 61.0434 149.602C61.0321 149.444 60.987 149.297 60.9531 149.139C60.8967 148.902 60.829 148.665 60.7838 148.417V148.394L60.8064 148.383C60.9192 148.315 61.0208 148.236 61.1337 148.157C61.2691 148.067 61.3932 147.977 61.5174 147.875C61.6415 147.785 61.777 147.683 61.8447 147.536C61.9124 147.401 61.9011 147.209 61.7882 147.096Z" fill="#FBC94F"/>
<path d="M69.9773 147.096C69.9321 147.051 69.8757 147.017 69.8193 146.995C69.5823 146.904 68.7697 146.882 68.6794 146.871L68.5101 146.848C68.4311 146.577 68.3521 146.374 68.2392 146.081C68.1715 145.923 68.07 145.731 67.9571 145.595C67.8442 145.471 67.6975 145.358 67.5282 145.381C67.3138 145.403 67.0317 145.81 66.9188 146.081C66.8172 146.329 66.7382 146.577 66.6479 146.848L66.4899 146.871C66.3884 146.882 65.5758 146.904 65.3501 146.995C65.2936 147.017 65.2372 147.051 65.1921 147.096C65.0792 147.209 65.0679 147.401 65.1357 147.536C65.2034 147.683 65.3501 147.785 65.4629 147.875C65.5871 147.977 65.7225 148.067 65.8467 148.157C65.9595 148.236 66.0611 148.315 66.1852 148.383L66.1965 148.394V148.417C66.1514 148.665 66.0837 148.902 66.0272 149.139C65.9934 149.297 65.9482 149.444 65.9482 149.602C65.9369 149.771 65.9369 149.997 66.1288 150.087C66.1965 150.11 66.2868 150.11 66.3545 150.098C66.6028 150.019 66.8511 149.918 67.122 149.782C67.2574 149.703 67.4154 149.579 67.5847 149.455C67.754 149.579 67.9007 149.703 68.0474 149.782C68.3182 149.918 68.5553 150.019 68.8148 150.098C68.8825 150.11 68.9615 150.11 69.0405 150.087C69.2324 149.997 69.2324 149.771 69.2211 149.602C69.2211 149.444 69.176 149.297 69.1308 149.139C69.0857 148.902 69.018 148.665 68.9728 148.417V148.394L68.9841 148.383C69.097 148.315 69.2098 148.236 69.3114 148.157C69.4468 148.067 69.5823 147.977 69.6951 147.875C69.8193 147.785 69.9547 147.683 70.0337 147.536C70.0901 147.401 70.0788 147.209 69.9773 147.096Z" fill="#FBC94F"/>
<path d="M78.1621 147.096C78.1169 147.051 78.0605 147.017 78.0041 146.995C77.7784 146.904 76.9658 146.882 76.8642 146.871L76.7062 146.848C76.6159 146.577 76.5369 146.374 76.4241 146.081C76.3563 145.923 76.2661 145.731 76.1419 145.595C76.0403 145.471 75.8823 145.358 75.713 145.381C75.4986 145.403 75.2278 145.81 75.1036 146.081C75.002 146.329 74.923 146.577 74.844 146.848L74.6748 146.871C74.5845 146.882 73.7719 146.904 73.5349 146.995C73.4785 147.017 73.422 147.051 73.3769 147.096C73.2753 147.209 73.264 147.401 73.3317 147.536C73.3995 147.683 73.5349 147.785 73.659 147.875C73.7832 147.977 73.9073 148.067 74.0427 148.157C74.1443 148.236 74.2572 148.315 74.37 148.383L74.3813 148.394V148.417C74.3362 148.665 74.2797 148.902 74.2233 149.139C74.1782 149.297 74.133 149.444 74.133 149.602C74.133 149.771 74.1218 149.997 74.3249 150.087C74.3926 150.11 74.4716 150.11 74.5506 150.098C74.7989 150.019 75.0472 149.918 75.3068 149.782C75.4535 149.703 75.6115 149.579 75.7695 149.455C75.9388 149.579 76.0968 149.703 76.2435 149.782C76.5031 149.918 76.7513 150.019 76.9996 150.098C77.0786 150.11 77.1576 150.11 77.2253 150.087C77.4172 149.997 77.4172 149.771 77.4059 149.602C77.4059 149.444 77.3608 149.297 77.3269 149.139C77.2705 148.902 77.2028 148.665 77.1576 148.417V148.394L77.1802 148.383C77.2931 148.315 77.3946 148.236 77.5075 148.157C77.6316 148.067 77.7671 147.977 77.8912 147.875C78.0154 147.785 78.1508 147.683 78.2185 147.536C78.2862 147.401 78.2749 147.209 78.1621 147.096Z" fill="#C0EAF2"/>
<path d="M78.2617 153.69H40.5332V152.652H78.2617V153.69Z" fill="#C0EAF2"/>
<path d="M78.2617 156.488H40.5332V155.45H78.2617V156.488Z" fill="#C0EAF2"/>
<path d="M78.2617 159.286H40.5332V158.248H78.2617V159.286Z" fill="#C0EAF2"/>
<path d="M170.746 69.8332C169.945 67.3616 169.358 64.8336 168.669 62.3282C168.071 60.1161 167.654 57.8364 166.977 55.6357C166.83 55.1617 166.672 54.6764 166.378 54.2814C165.78 53.4688 164.381 53.1415 163.478 52.8255C162.395 52.4418 161.277 52.1258 160.126 52.0694C158.174 51.9678 156.232 52.2387 154.291 52.3177C152.689 52.9384 151.109 53.6268 149.551 54.383C149.134 54.5861 148.694 54.8005 148.4 55.173C148.084 55.5905 147.994 56.1323 147.915 56.6514C147.226 61.1544 146.707 65.6688 146.324 70.2057C146.324 70.2959 146.312 70.3749 146.357 70.4539C146.414 70.5668 146.538 70.6007 146.662 70.6345C147.068 70.7361 148.694 71.1311 148.84 70.7248C149.043 70.1605 149.777 66.3911 149.98 65.4769C150.386 63.6373 150.872 61.5382 151.368 60.1613C151.334 64.0098 150.996 67.9146 151.052 71.797C151.064 72.1468 151.064 72.508 151.222 72.824C151.447 73.3093 151.966 73.5914 152.452 73.8284C153.761 74.4491 155.736 74.9683 157.124 75.3746C157.508 75.4874 157.903 75.589 158.309 75.6003C158.918 75.6229 159.517 75.4197 160.092 75.2166C161.119 74.8441 162.575 74.5056 163.591 74.088C163.794 74.009 163.997 73.9074 164.121 73.7381C164.234 73.5801 164.268 73.377 164.291 73.1738C164.663 69.4721 164.155 66.8086 164.008 63.1633C163.986 62.5313 164.02 61.1093 163.783 59.9243C165.453 63.6486 166.965 67.3504 168.229 71.0972C168.241 71.1537 168.263 71.2101 168.32 71.244C168.365 71.2778 168.432 71.2778 168.5 71.2665C169.143 71.1762 169.775 70.928 170.362 70.6571C170.543 70.5668 170.735 70.4539 170.791 70.2621C170.836 70.1267 170.791 69.9799 170.746 69.8332Z" fill="#FBC94F"/>
<path d="M157.788 52.0695C158.691 51.5278 159.582 50.9635 160.451 50.3767C160.519 50.3315 160.587 50.2864 160.655 50.2977C160.711 50.3089 160.756 50.3541 160.801 50.3879C161.208 50.7717 161.535 51.2005 161.919 51.5955C161.975 51.6632 162.043 51.7422 162.054 51.8438C162.077 51.9792 161.975 52.1034 161.885 52.205C161.727 52.3968 159.199 54.8345 159.108 54.733C158.634 54.2251 158.217 53.6721 157.844 53.0852C157.596 53.7624 157.291 54.417 156.93 55.049C155.881 54.1687 154.842 53.2997 153.804 52.4194C153.748 52.3742 153.691 52.3291 153.68 52.2614C153.646 52.1824 153.691 52.0921 153.725 52.0131C153.928 51.5842 154.21 51.0764 154.526 50.7152C154.572 50.6701 154.617 50.6249 154.673 50.6024C154.73 50.5911 154.797 50.6024 154.865 50.6249C155.824 50.9297 156.547 51.731 157.495 52.1034C157.54 52.1147 157.585 52.1372 157.63 52.1372C157.675 52.126 157.72 52.1034 157.765 52.0808L157.788 52.0695Z" fill="#FBC94F"/>
<path d="M154.186 53.1183C155.066 53.8181 155.946 54.5291 156.838 55.2401C156.951 55.3304 157.018 54.9241 156.917 54.8338C156.025 54.1115 155.134 53.4005 154.242 52.6782C154.129 52.5766 154.061 53.0168 154.186 53.1183Z" fill="#FAB63F"/>
<path d="M156.918 55.1855C157.313 54.5987 157.64 53.9892 157.99 53.3685C157.945 53.3798 157.9 53.4024 157.855 53.4137C158.25 53.82 158.577 54.3842 159.028 54.7341C159.107 54.7905 159.096 54.5535 159.085 54.531C158.859 53.9554 158.385 53.4588 157.968 53.0074C157.911 52.9509 157.866 52.9961 157.832 53.0525C157.471 53.6845 157.132 54.3052 156.839 54.9824C156.816 55.0275 156.85 55.2871 156.918 55.1855Z" fill="#FAB63F"/>
<path d="M159.17 54.8226C160.051 54.1681 161.01 53.4796 161.676 52.5993C161.698 52.5655 161.71 52.3849 161.642 52.4188C161.179 52.6783 160.795 53.0846 160.389 53.4345C159.96 53.8069 159.554 54.2132 159.136 54.6082C159.091 54.6533 159.103 54.8678 159.17 54.8226Z" fill="#FAB63F"/>
<path d="M158.094 54.5878C158.59 61.3141 158.15 67.9389 158.116 74.6539C158.105 74.7442 158.195 74.8007 158.207 74.6878C158.726 68.0066 158.782 61.1448 158.274 54.4749C158.252 54.1702 158.071 54.3959 158.094 54.5878Z" fill="#FAB63F"/>
<path d="M160.041 59.7879C160.639 59.8217 161.215 59.8218 161.813 59.7992C161.971 59.7879 162.569 59.6637 162.693 59.754C163.043 59.9798 162.659 61.1648 162.727 61.0632C162.422 61.5485 161.937 61.6952 161.418 61.5372C160.628 61.3002 160.605 60.6343 160.549 59.9233C160.538 59.8443 160.47 59.7653 160.447 59.8895C160.357 60.4763 160.402 61.3002 160.91 61.6952C161.531 62.1805 162.377 61.7065 162.738 61.1196C162.851 60.9165 162.953 60.6795 162.975 60.4538C162.998 60.228 162.998 59.6299 162.862 59.4606C162.682 59.2349 162.185 59.3703 161.914 59.3816C161.282 59.3929 160.673 59.438 160.041 59.517C159.973 59.5283 159.973 59.7879 160.041 59.7879Z" fill="#FAB63F"/>
<path d="M168.154 70.4206C168.74 70.2061 169.406 70.082 169.925 69.7321C169.959 69.7096 169.971 69.5403 169.914 69.5403C169.316 69.4951 168.65 69.8788 168.12 70.1271C168.052 70.161 168.063 70.4544 168.154 70.4206Z" fill="#FAB63F"/>
<path d="M146.841 69.4151C147.157 69.4603 147.462 69.4941 147.767 69.528C148.072 69.5731 148.376 69.5393 148.692 69.5167V69.37C148.388 69.291 148.083 69.1781 147.767 69.1555C147.462 69.1217 147.157 69.0878 146.841 69.054C146.762 69.0427 146.74 69.4038 146.841 69.4151Z" fill="#FAB63F"/>
<path d="M157.849 56.5954C157.849 56.7195 157.736 56.8324 157.612 56.8324C157.476 56.8324 157.363 56.7195 157.363 56.5954C157.363 56.46 157.476 56.3584 157.612 56.3584C157.736 56.3584 157.849 56.46 157.849 56.5954Z" fill="#FAB63F"/>
<path d="M157.849 58.4475C157.849 58.5829 157.736 58.6845 157.612 58.6845C157.476 58.6845 157.363 58.5829 157.363 58.4475C157.363 58.312 157.476 58.2104 157.612 58.2104C157.736 58.2104 157.849 58.312 157.849 58.4475Z" fill="#FAB63F"/>
<path d="M157.849 60.6486C157.849 60.7841 157.736 60.8969 157.612 60.8969C157.476 60.8969 157.363 60.7841 157.363 60.6486C157.363 60.5245 157.476 60.4116 157.612 60.4116C157.736 60.4116 157.849 60.5245 157.849 60.6486Z" fill="#FAB63F"/>
<path d="M157.849 62.8591C157.849 62.9945 157.736 63.0961 157.612 63.0961C157.476 63.0961 157.363 62.9945 157.363 62.8591C157.363 62.7236 157.476 62.6221 157.612 62.6221C157.736 62.6221 157.849 62.7236 157.849 62.8591Z" fill="#FAB63F"/>
<path d="M157.849 65.0593C157.849 65.1947 157.736 65.2963 157.612 65.2963C157.476 65.2963 157.363 65.1947 157.363 65.0593C157.363 64.9351 157.476 64.8223 157.612 64.8223C157.736 64.8223 157.849 64.9351 157.849 65.0593Z" fill="#FAB63F"/>
<path d="M157.849 67.2702C157.849 67.3943 157.736 67.5072 157.612 67.5072C157.476 67.5072 157.363 67.3943 157.363 67.2702C157.363 67.1348 157.476 67.0332 157.612 67.0332C157.736 67.0332 157.849 67.1348 157.849 67.2702Z" fill="#FAB63F"/>
<path d="M157.708 69.4495C157.708 69.5736 157.595 69.6865 157.471 69.6865C157.336 69.6865 157.223 69.5736 157.223 69.4495C157.223 69.314 157.336 69.2012 157.471 69.2012C157.595 69.2012 157.708 69.314 157.708 69.4495Z" fill="#FAB63F"/>
<path d="M157.708 71.6819C157.708 71.806 157.595 71.9189 157.471 71.9189C157.336 71.9189 157.223 71.806 157.223 71.6819C157.223 71.5464 157.336 71.4336 157.471 71.4336C157.595 71.4336 157.708 71.5464 157.708 71.6819Z" fill="#FAB63F"/>
<path d="M157.618 73.8845C157.618 74.0199 157.505 74.1215 157.37 74.1215C157.246 74.1215 157.133 74.0199 157.133 73.8845C157.133 73.749 157.246 73.6475 157.37 73.6475C157.505 73.6475 157.618 73.749 157.618 73.8845Z" fill="#FAB63F"/>
<path d="M166.52 63.82C166.848 63.7861 167.254 63.82 167.559 63.6733C167.604 63.6507 167.593 63.4927 167.547 63.4814C167.231 63.4137 166.825 63.5717 166.509 63.6281C166.464 63.6394 166.464 63.82 166.52 63.82Z" fill="#FAB63F"/>
<path d="M166.365 64.3269C166.737 64.3608 167.099 64.3833 167.46 64.4172C167.832 64.451 168.171 64.3946 168.543 64.3382V64.2479C168.182 64.1689 167.832 64.0786 167.46 64.0786C167.099 64.0786 166.726 64.0786 166.365 64.0899C166.309 64.0899 166.297 64.3156 166.365 64.3269Z" fill="#FAB63F"/>
<path d="M147.944 63.6472C148.17 63.7601 148.395 63.8843 148.644 63.9633C148.847 64.031 149.073 64.0197 149.287 64.0197C149.343 64.0197 149.343 63.8504 149.298 63.8278C149.095 63.7262 148.881 63.5908 148.666 63.5231C148.429 63.4554 148.192 63.4215 147.955 63.3651C147.888 63.3425 147.876 63.6134 147.944 63.6472Z" fill="#FAB63F"/>
<path d="M174.062 79.7886V79.213H142.97C141.999 79.213 141.108 78.818 140.464 78.1747C139.821 77.5314 139.426 76.6511 139.426 75.6805V52.0142C139.426 51.0436 139.821 50.1633 140.464 49.5313C141.108 48.888 141.999 48.493 142.97 48.493H174.062C175.033 48.493 175.913 48.888 176.556 49.5313C177.2 50.1633 177.595 51.0436 177.595 52.0142V75.6805C177.595 76.6511 177.2 77.5314 176.556 78.1747C175.913 78.818 175.033 79.213 174.062 79.213V80.3754C176.658 80.3754 178.768 78.265 178.768 75.6805V52.0142C178.768 49.4297 176.658 47.3306 174.062 47.3306H142.97C140.374 47.3306 138.264 49.4297 138.264 52.0142V75.6805C138.264 78.265 140.374 80.3754 142.97 80.3754H174.062V79.7886Z" fill="#C0EAF2"/>
<path d="M144.521 84.0546C144.487 84.0094 144.43 83.9755 144.374 83.953C144.137 83.8627 143.324 83.8401 143.223 83.8288L143.065 83.8063C142.975 83.5354 142.907 83.3323 142.783 83.0388C142.726 82.8808 142.625 82.689 142.501 82.5535C142.399 82.4407 142.252 82.3165 142.072 82.3391C141.868 82.3617 141.586 82.768 141.473 83.0388C141.372 83.2871 141.293 83.5354 141.203 83.8063L141.045 83.8288C140.943 83.8401 140.13 83.8627 139.905 83.953C139.837 83.9755 139.781 84.0094 139.747 84.0546C139.634 84.1674 139.623 84.3593 139.69 84.4947C139.758 84.6414 139.893 84.743 140.018 84.8333C140.142 84.9348 140.266 85.0251 140.401 85.1154C140.514 85.1944 140.616 85.2734 140.729 85.3411L140.751 85.3637V85.375C140.706 85.6233 140.638 85.8603 140.582 86.0973C140.548 86.2553 140.503 86.402 140.492 86.56C140.492 86.7293 140.48 86.955 140.683 87.0453C140.751 87.0791 140.83 87.0791 140.909 87.0566C141.157 86.9776 141.406 86.876 141.665 86.7406C141.812 86.6616 141.97 86.5487 142.139 86.4133C142.297 86.5487 142.455 86.6616 142.602 86.7406C142.862 86.876 143.11 86.9776 143.358 87.0566C143.437 87.0791 143.516 87.0791 143.584 87.0453C143.787 86.955 143.776 86.7293 143.776 86.56C143.765 86.402 143.719 86.2553 143.686 86.0973C143.629 85.8603 143.561 85.6233 143.516 85.375V85.3637L143.539 85.3411C143.652 85.2734 143.753 85.1944 143.866 85.1154C144.002 85.0251 144.126 84.9348 144.25 84.8333C144.374 84.743 144.509 84.6414 144.577 84.4947C144.645 84.3593 144.634 84.1674 144.521 84.0546Z" fill="#FBC94F"/>
<path d="M152.716 84.0546C152.67 84.0094 152.614 83.9755 152.558 83.953C152.332 83.8627 151.508 83.8401 151.418 83.8288L151.248 83.8063C151.169 83.5354 151.09 83.3323 150.978 83.0388C150.91 82.8808 150.82 82.689 150.695 82.5535C150.583 82.4407 150.436 82.3165 150.267 82.3391C150.052 82.3617 149.77 82.768 149.657 83.0388C149.556 83.2871 149.477 83.5354 149.398 83.8063L149.228 83.8288C149.138 83.8401 148.314 83.8627 148.088 83.953C148.032 83.9755 147.976 84.0094 147.93 84.0546C147.818 84.1674 147.806 84.3593 147.874 84.4947C147.953 84.6414 148.088 84.743 148.201 84.8333C148.325 84.9348 148.461 85.0251 148.585 85.1154C148.698 85.1944 148.811 85.2734 148.924 85.3411L148.935 85.3637V85.375C148.89 85.6233 148.822 85.8603 148.766 86.0973C148.732 86.2553 148.687 86.402 148.687 86.56C148.675 86.7293 148.675 86.955 148.867 87.0453C148.946 87.0791 149.025 87.0791 149.093 87.0566C149.341 86.9776 149.589 86.876 149.86 86.7406C149.996 86.6616 150.154 86.5487 150.323 86.4133C150.492 86.5487 150.639 86.6616 150.786 86.7406C151.057 86.876 151.305 86.9776 151.553 87.0566C151.621 87.0791 151.7 87.0791 151.779 87.0453C151.971 86.955 151.971 86.7293 151.959 86.56C151.959 86.402 151.914 86.2553 151.88 86.0973C151.824 85.8603 151.756 85.6233 151.711 85.375V85.3637L151.722 85.3411C151.835 85.2734 151.948 85.1944 152.061 85.1154C152.185 85.0251 152.321 84.9348 152.445 84.8333C152.558 84.743 152.693 84.6414 152.772 84.4947C152.84 84.3593 152.828 84.1674 152.716 84.0546Z" fill="#FBC94F"/>
<path d="M160.9 84.0546C160.855 84.0094 160.81 83.9755 160.742 83.953C160.517 83.8627 159.704 83.8401 159.602 83.8288L159.444 83.8063C159.354 83.5354 159.275 83.3323 159.162 83.0388C159.095 82.8808 159.004 82.689 158.88 82.5535C158.779 82.4407 158.621 82.3165 158.451 82.3391C158.248 82.3617 157.966 82.768 157.842 83.0388C157.74 83.2871 157.673 83.5354 157.582 83.8063L157.424 83.8288C157.323 83.8401 156.51 83.8627 156.273 83.953C156.217 83.9755 156.16 84.0094 156.115 84.0546C156.014 84.1674 156.002 84.3593 156.07 84.4947C156.138 84.6414 156.273 84.743 156.397 84.8333C156.521 84.9348 156.646 85.0251 156.781 85.1154C156.894 85.1944 156.995 85.2734 157.108 85.3411L157.131 85.3637V85.375C157.074 85.6233 157.018 85.8603 156.962 86.0973C156.928 86.2553 156.883 86.402 156.871 86.56C156.871 86.7293 156.86 86.955 157.063 87.0453C157.131 87.0791 157.21 87.0791 157.289 87.0566C157.537 86.9776 157.785 86.876 158.045 86.7406C158.192 86.6616 158.35 86.5487 158.508 86.4133C158.677 86.5487 158.835 86.6616 158.982 86.7406C159.241 86.876 159.49 86.9776 159.738 87.0566C159.817 87.0791 159.896 87.0791 159.964 87.0453C160.155 86.955 160.155 86.7293 160.155 86.56C160.144 86.402 160.099 86.2553 160.065 86.0973C160.009 85.8603 159.941 85.6233 159.896 85.375V85.3637L159.918 85.3411C160.031 85.2734 160.133 85.1944 160.246 85.1154C160.381 85.0251 160.505 84.9348 160.629 84.8333C160.754 84.743 160.889 84.6414 160.957 84.4947C161.024 84.3593 161.013 84.1674 160.9 84.0546Z" fill="#FBC94F"/>
<path d="M169.1 84.0548C169.055 84.0096 168.999 83.9758 168.942 83.9532C168.717 83.8629 167.893 83.8403 167.802 83.8291L167.633 83.8065C167.554 83.5356 167.475 83.3325 167.362 83.039C167.295 82.881 167.193 82.6892 167.08 82.5538C166.967 82.4296 166.821 82.3168 166.651 82.3393C166.437 82.3619 166.155 82.7682 166.042 83.039C165.94 83.2873 165.861 83.5356 165.771 83.8065L165.613 83.8291C165.511 83.8403 164.699 83.8629 164.473 83.9532C164.417 83.9758 164.36 84.0096 164.315 84.0548C164.202 84.1676 164.191 84.3595 164.259 84.4949C164.326 84.6416 164.462 84.7432 164.586 84.8335C164.71 84.9351 164.846 85.0253 164.97 85.1156C165.083 85.1946 165.195 85.2736 165.308 85.3413L165.32 85.3526V85.3752C165.274 85.6235 165.207 85.8605 165.15 86.0975C165.116 86.2555 165.071 86.4022 165.071 86.5602C165.06 86.7295 165.06 86.9552 165.252 87.0455C165.32 87.0794 165.41 87.0794 165.478 87.0568C165.726 86.9778 165.974 86.8762 166.245 86.7408C166.38 86.6618 166.538 86.5489 166.708 86.4135C166.877 86.5489 167.024 86.6618 167.17 86.7408C167.441 86.8762 167.69 86.9778 167.938 87.0568C168.006 87.0794 168.085 87.0794 168.152 87.0455C168.355 86.9552 168.355 86.7295 168.344 86.5602C168.344 86.4022 168.299 86.2555 168.254 86.0975C168.197 85.8605 168.141 85.6235 168.096 85.3752V85.3526L168.107 85.3413C168.22 85.2736 168.333 85.1946 168.434 85.1156C168.57 85.0253 168.705 84.9351 168.818 84.8335C168.942 84.7432 169.078 84.6416 169.145 84.4949C169.213 84.3595 169.202 84.1676 169.1 84.0548Z" fill="#FBC94F"/>
<path d="M177.276 84.0546C177.231 84.0094 177.174 83.9755 177.118 83.953C176.892 83.874 176.079 83.8401 175.978 83.8401L175.82 83.8063C175.73 83.5354 175.651 83.3323 175.538 83.0388C175.47 82.8808 175.38 82.689 175.256 82.5535C175.143 82.4407 174.996 82.3165 174.827 82.3391C174.612 82.3617 174.341 82.768 174.217 83.0388C174.116 83.2871 174.037 83.5354 173.958 83.8063L173.788 83.8401C173.698 83.8401 172.886 83.874 172.649 83.953C172.592 83.9755 172.536 84.0094 172.491 84.0546C172.389 84.1674 172.378 84.3593 172.434 84.4947C172.513 84.6414 172.649 84.743 172.773 84.8333C172.897 84.9348 173.021 85.0251 173.156 85.1154C173.258 85.1944 173.371 85.2734 173.484 85.3411L173.495 85.3637V85.375C173.45 85.6233 173.382 85.8603 173.326 86.0973C173.292 86.2553 173.247 86.402 173.247 86.56C173.235 86.7293 173.235 86.9663 173.427 87.0453C173.506 87.0791 173.585 87.0791 173.653 87.0566C173.913 86.9776 174.15 86.876 174.42 86.7406C174.567 86.6616 174.714 86.5487 174.883 86.4133C175.052 86.5487 175.21 86.6616 175.357 86.7406C175.617 86.876 175.865 86.9776 176.113 87.0566C176.181 87.0791 176.271 87.0791 176.339 87.0453C176.531 86.9663 176.531 86.7293 176.52 86.56C176.52 86.402 176.474 86.2553 176.441 86.0973C176.384 85.8603 176.316 85.6233 176.271 85.375V85.3637L176.283 85.3411C176.407 85.2734 176.508 85.1944 176.621 85.1154C176.745 85.0251 176.881 84.9348 177.005 84.8333C177.118 84.743 177.265 84.6414 177.332 84.4947C177.4 84.3593 177.389 84.1674 177.276 84.0546Z" fill="#C0EAF2"/>
<path d="M177.377 90.6452H139.648V89.6069H177.377V90.6452Z" fill="#C0EAF2"/>
<path d="M177.377 93.446H139.648V92.4077H177.377V93.446Z" fill="#C0EAF2"/>
<path d="M177.377 96.2443H139.648V95.2173H177.377V96.2443Z" fill="#C0EAF2"/>
<path d="M62.492 119.105C62.4582 118.823 62.3453 118.518 62.1083 118.349C61.9052 118.213 61.6456 118.202 61.4086 118.202C58.8016 118.191 56.1945 118.236 53.5875 118.337C53.4295 118.349 53.2715 118.36 53.1587 118.45C53.012 118.563 52.9781 118.766 52.9555 118.947C52.8878 119.488 52.8652 120.38 52.8652 120.933H62.5597C62.4582 120.075 62.5597 119.94 62.492 119.105Z" fill="#F47276"/>
<path d="M68.9159 135.253C66.7716 130.603 65.3045 125.728 63.1602 121.056C63.0699 120.864 62.9683 120.649 62.8103 120.503C62.5733 120.3 62.246 120.243 61.9413 120.198C60.2597 119.984 58.5669 120.006 56.874 120.04C55.9034 120.063 53.3754 119.622 52.6869 120.39C52.3709 120.717 52.2581 121.191 52.1565 121.643C50.8925 127.387 49.3689 133.03 48.1275 138.808C48.0146 139.361 47.9356 139.959 48.4322 140.264C48.9175 140.558 49.9558 140.625 50.5201 140.637C51.2536 140.659 52.0098 140.479 52.5628 140.005C52.4951 140.061 53.7252 140.783 53.8381 140.828C54.346 141.032 54.899 141.144 55.4407 141.144C55.9711 141.144 56.5467 141.054 57.0433 140.84C57.3141 140.716 57.5737 140.422 57.8784 140.366C58.3637 140.287 58.4314 140.591 58.7813 140.828C59.4923 141.314 60.6322 141.314 61.4786 141.336C62.4492 141.359 63.5552 141.19 64.0969 140.388C64.1759 140.275 64.2662 140.14 64.4016 140.129C64.4693 140.129 64.5258 140.163 64.5822 140.185C66.2412 140.975 68.2049 140.558 69.8075 139.835C69.9429 139.768 70.0784 139.7 70.18 139.587C70.4057 139.327 70.3492 138.944 70.259 138.616C69.9542 137.443 69.4238 136.348 68.9159 135.253Z" fill="#F47276"/>
<path d="M53.6567 120.537C56.3878 120.808 59.0851 120.808 61.8276 120.661C61.8953 120.661 61.8953 120.391 61.8276 120.391C59.1077 120.537 56.3653 120.458 53.6567 120.266C53.5889 120.255 53.5777 120.526 53.6567 120.537Z" fill="#E65760"/>
<path d="M52.5838 139.6C53.3512 135.548 53.7801 131.271 54.1525 127.163C54.1638 126.994 54.0284 126.813 53.9832 127.061C53.2158 131.113 52.6176 135.469 52.5273 139.589C52.5273 139.645 52.5725 139.668 52.5838 139.6Z" fill="#E65760"/>
<path d="M57.6505 139.996C57.6956 138.247 57.6392 136.497 57.6731 134.748C57.6956 133.597 57.7408 132.457 57.8424 131.317C57.8649 131.17 57.8649 128.597 58.0004 129.985C58.3164 133.349 58.1019 136.768 58.5195 140.131C58.5308 140.222 58.5985 140.188 58.5985 140.12C58.5421 136.294 58.2261 132.48 58.1696 128.654C58.1696 128.462 58.0116 128.338 57.9665 128.597C57.4022 132.355 57.3119 136.215 57.5602 139.996C57.5715 140.098 57.6505 140.109 57.6505 139.996Z" fill="#E65760"/>
<path d="M64.0431 139.791C63.5804 136.134 63.1177 132.466 62.4067 128.844C62.3841 128.674 62.2826 128.799 62.2938 128.911C62.7566 132.557 63.3999 136.191 63.998 139.825C64.0093 139.893 64.0431 139.836 64.0431 139.791Z" fill="#E65760"/>
<path d="M62.5929 130.728C63.2362 133.606 63.902 136.507 64.8388 139.306C64.8839 139.43 64.9403 139.272 64.9178 139.204C64.2293 136.292 63.428 133.426 62.7735 130.503C62.7057 130.221 62.559 130.582 62.5929 130.728Z" fill="#E65760"/>
<path d="M61.3482 124.105C61.5852 125.335 61.7771 126.588 62.0931 127.795C62.1269 127.908 62.1946 127.784 62.1833 127.716C62.0253 126.475 61.7658 125.234 61.5288 123.992C61.4836 123.721 61.3143 123.913 61.3482 124.105Z" fill="#E65760"/>
<path d="M57.8341 123.27C57.7664 124.556 57.7777 125.809 57.9808 127.096C57.9921 127.141 58.026 127.118 58.026 127.073C57.9921 125.809 57.947 124.534 57.9921 123.27C57.9921 123.055 57.8454 123.067 57.8341 123.27Z" fill="#E65760"/>
<path d="M168.488 149.019H90.7111C88.629 149.019 86.9453 147.335 86.9453 145.263V110.783C86.9453 108.711 88.629 107.027 90.7111 107.027H168.488C170.57 107.027 172.254 108.711 172.254 110.783V145.263C172.254 147.335 170.57 149.019 168.488 149.019Z" fill="#7484CA"/>
<path d="M88.5457 146.864V112.13C88.5457 110.032 90.2277 108.335 92.3077 108.335H170.006C170.564 108.335 171.091 108.466 171.569 108.687C170.902 107.633 169.728 106.94 168.404 106.94H90.7054C88.6253 106.94 86.9434 108.636 86.9434 110.724V145.468C86.9434 146.994 87.849 148.309 89.1428 148.911C88.7646 148.319 88.5457 147.616 88.5457 146.864Z" fill="#8496D4"/>
<path d="M164.968 138.914C164.014 132.917 162.92 126.464 161.585 120.545C161.394 119.733 161.153 118.862 160.461 118.387C159.939 118.041 159.266 117.992 158.644 117.962C154.067 117.744 149.47 117.873 144.913 118.338C144.431 118.387 143.929 118.447 143.508 118.684C142.715 119.12 142.364 120.07 142.273 120.961C141.551 127.374 140.326 133.906 139.533 140.389C139.483 140.854 139.433 141.369 139.684 141.765C140.045 142.319 140.808 142.408 141.48 142.438C148.205 142.774 155.472 142.873 161.685 142.646C162.83 142.606 164.134 142.378 164.747 141.428C165.218 140.696 165.098 139.766 164.968 138.914Z" fill="#C0EAF2"/>
<path d="M147.299 121.248C147.144 120.698 147.066 120.1 147.066 119.481C147.066 118.205 147.406 116.87 148.029 115.78C148.661 114.68 149.555 113.826 150.693 113.434C151.199 113.257 151.753 113.159 152.308 113.159C152.94 113.159 153.572 113.286 154.136 113.522C154.7 113.767 155.196 114.121 155.575 114.592C156.12 115.269 156.402 116.124 156.655 117.086C156.898 118.038 157.102 119.079 157.559 120.07C157.686 120.345 158.007 120.473 158.279 120.345C158.561 120.217 158.678 119.884 158.551 119.609C158.162 118.784 157.968 117.802 157.715 116.811C157.452 115.809 157.131 114.788 156.431 113.905C155.926 113.276 155.274 112.815 154.564 112.511C153.854 112.206 153.076 112.059 152.308 112.059C151.637 112.059 150.966 112.167 150.333 112.393C148.904 112.884 147.805 113.954 147.076 115.23C146.346 116.516 145.977 118.018 145.977 119.481C145.977 120.188 146.064 120.895 146.249 121.553C146.336 121.847 146.638 122.014 146.93 121.935C147.221 121.847 147.387 121.543 147.299 121.248Z" fill="#C0EAF2"/>
<path d="M148.27 130.498C150.074 132.328 149.943 132.872 151.497 131.309C154.322 128.46 154.383 128.262 157.168 125.363C157.329 125.195 157.519 125.007 157.76 125.027C157.93 125.037 158.08 125.146 158.211 125.264C159.573 126.531 159.974 126.58 159.303 127.322C158.581 128.123 153.872 133.495 152.839 134.564C152.108 135.325 151.166 136.344 150.515 136.582C149.553 136.918 148.18 135.306 147.448 134.583C146.626 133.772 145.955 133.109 144.983 132.16C144.833 132.001 144.662 131.833 144.622 131.625C144.502 131.081 145.143 130.656 145.454 130.369C146.446 129.469 146.807 129.469 147.348 129.657C147.538 129.726 147.689 129.874 147.829 130.013C147.929 130.112 148.069 130.29 148.27 130.498Z" fill="#7484CA"/>
<path d="M127.652 135.131H100.736C98.8396 135.131 97.3027 133.634 97.3027 131.785V126.874C97.3027 125.026 98.8396 123.529 100.736 123.529H127.652C129.548 123.529 131.085 125.026 131.085 126.874V131.785C131.085 133.634 129.548 135.131 127.652 135.131Z" fill="#F47276"/>
<path d="M103.488 127.582C103.643 127.582 103.791 127.597 103.932 127.626C104.076 127.654 104.209 127.691 104.332 127.739C104.455 127.785 104.567 127.837 104.667 127.896C104.767 127.956 104.853 128.015 104.923 128.074L105.812 127.462L104.79 129.424L104.711 128.396C104.645 128.35 104.574 128.31 104.496 128.276C104.421 128.239 104.345 128.21 104.267 128.187C104.192 128.162 104.119 128.143 104.048 128.129C103.978 128.113 103.915 128.1 103.86 128.091C103.806 128.082 103.761 128.076 103.727 128.074C103.695 128.07 103.678 128.067 103.676 128.067C103.521 128.067 103.391 128.084 103.286 128.119C103.181 128.153 103.096 128.197 103.03 128.252C102.966 128.307 102.919 128.369 102.89 128.44C102.862 128.508 102.849 128.578 102.849 128.648C102.849 128.792 102.878 128.914 102.938 129.014C102.997 129.112 103.087 129.2 103.208 129.277C103.328 129.355 103.482 129.428 103.669 129.496C103.856 129.562 104.076 129.634 104.329 129.711C104.481 129.759 104.625 129.824 104.759 129.906C104.896 129.986 105.014 130.081 105.115 130.19C105.215 130.297 105.294 130.418 105.351 130.552C105.41 130.684 105.439 130.827 105.439 130.979C105.439 131.157 105.414 131.316 105.364 131.455C105.314 131.591 105.247 131.712 105.163 131.817C105.081 131.919 104.985 132.007 104.875 132.08C104.766 132.151 104.652 132.208 104.534 132.251C104.417 132.297 104.299 132.328 104.178 132.347C104.06 132.367 103.948 132.377 103.843 132.377C103.536 132.377 103.257 132.325 103.006 132.22C102.755 132.115 102.522 131.972 102.305 131.79L101.417 132.398L102.408 130.641C102.435 130.805 102.483 130.964 102.551 131.116C102.622 131.267 102.708 131.401 102.811 131.52C102.914 131.638 103.032 131.733 103.167 131.803C103.301 131.874 103.448 131.909 103.607 131.909C103.735 131.909 103.851 131.89 103.956 131.851C104.063 131.812 104.154 131.761 104.229 131.697C104.305 131.631 104.363 131.556 104.404 131.472C104.447 131.385 104.469 131.295 104.469 131.202C104.469 131.072 104.432 130.96 104.359 130.867C104.286 130.771 104.191 130.687 104.072 130.614C103.954 130.539 103.818 130.47 103.666 130.409C103.515 130.345 103.36 130.28 103.201 130.214C103.041 130.148 102.885 130.075 102.732 129.995C102.582 129.915 102.448 129.822 102.329 129.715C102.211 129.605 102.115 129.478 102.042 129.332C101.969 129.186 101.933 129.014 101.933 128.816C101.933 128.663 101.962 128.514 102.021 128.368C102.083 128.22 102.176 128.088 102.302 127.972C102.429 127.855 102.591 127.762 102.787 127.691C102.983 127.618 103.217 127.582 103.488 127.582ZM105.58 132.169L106.106 131.742L106.349 127.934L105.586 127.555L106.796 127.353L106.81 129.277C106.888 129.166 106.973 129.075 107.066 129.004C107.16 128.931 107.251 128.874 107.34 128.833C107.431 128.792 107.514 128.764 107.589 128.748C107.667 128.732 107.727 128.724 107.771 128.724C107.985 128.724 108.166 128.762 108.314 128.84C108.462 128.915 108.582 129.02 108.673 129.154C108.766 129.289 108.833 129.448 108.875 129.633C108.918 129.815 108.939 130.013 108.939 130.228C108.939 130.346 108.929 130.472 108.909 130.607C108.89 130.741 108.865 130.877 108.833 131.014C108.802 131.148 108.765 131.279 108.724 131.407C108.685 131.532 108.646 131.646 108.604 131.749L109.281 132.125L107.511 132.309L108.259 131.629C108.291 131.46 108.314 131.302 108.328 131.154C108.344 131.006 108.352 130.868 108.352 130.74C108.352 130.676 108.347 130.599 108.338 130.508C108.331 130.417 108.316 130.322 108.293 130.224C108.271 130.124 108.24 130.025 108.201 129.927C108.162 129.829 108.111 129.741 108.047 129.664C107.986 129.586 107.911 129.523 107.822 129.476C107.735 129.428 107.632 129.404 107.511 129.404C107.392 129.404 107.27 129.43 107.145 129.482C107.022 129.535 106.91 129.618 106.81 129.732L106.834 131.79L107.289 132.169H105.58ZM109.497 130.494C109.497 130.239 109.536 130.003 109.616 129.787C109.698 129.568 109.811 129.379 109.955 129.219C110.1 129.06 110.272 128.936 110.471 128.847C110.671 128.756 110.89 128.71 111.127 128.71C111.357 128.71 111.568 128.753 111.759 128.84C111.951 128.924 112.117 129.044 112.258 129.199C112.4 129.354 112.512 129.539 112.597 129.756C112.681 129.972 112.731 130.212 112.747 130.474C112.763 130.754 112.733 131.008 112.658 131.236C112.585 131.461 112.477 131.654 112.333 131.813C112.19 131.971 112.018 132.093 111.817 132.179C111.619 132.266 111.404 132.309 111.171 132.309C110.948 132.309 110.735 132.269 110.532 132.189C110.332 132.107 110.154 131.989 109.999 131.834C109.846 131.679 109.724 131.49 109.633 131.267C109.542 131.041 109.497 130.784 109.497 130.494ZM110.337 130.552C110.337 130.753 110.366 130.934 110.423 131.096C110.48 131.257 110.556 131.395 110.652 131.509C110.748 131.621 110.858 131.708 110.983 131.769C111.109 131.831 111.241 131.861 111.38 131.861C111.519 131.861 111.649 131.832 111.77 131.772C111.89 131.711 111.995 131.625 112.084 131.516C112.173 131.404 112.242 131.271 112.292 131.116C112.343 130.961 112.368 130.789 112.368 130.6C112.368 130.413 112.343 130.238 112.292 130.074C112.242 129.907 112.172 129.763 112.081 129.64C111.992 129.517 111.886 129.42 111.763 129.349C111.64 129.278 111.505 129.243 111.359 129.243C111.229 129.243 111.103 129.273 110.98 129.332C110.859 129.391 110.751 129.478 110.655 129.592C110.56 129.703 110.482 129.84 110.423 130.002C110.366 130.164 110.337 130.347 110.337 130.552ZM114.179 129.223C114.232 129.159 114.289 129.101 114.35 129.048C114.412 128.994 114.479 128.947 114.552 128.908C114.625 128.867 114.702 128.835 114.784 128.812C114.868 128.79 114.958 128.778 115.054 128.778C115.23 128.785 115.396 128.826 115.553 128.901C115.713 128.977 115.852 129.085 115.97 129.226C116.091 129.365 116.187 129.537 116.257 129.742C116.328 129.945 116.363 130.177 116.363 130.439C116.363 130.758 116.326 131.038 116.25 131.277C116.175 131.516 116.073 131.715 115.943 131.875C115.813 132.032 115.66 132.151 115.485 132.23C115.312 132.31 115.126 132.35 114.928 132.35C114.755 132.35 114.594 132.32 114.446 132.261C114.298 132.202 114.169 132.12 114.06 132.015L114.025 132.784L114.709 133.153L113.031 133.44L113.547 132.924L113.407 129.264L112.785 129.018L114.2 128.778L114.179 129.223ZM114.948 129.212C114.916 129.212 114.871 129.218 114.812 129.229C114.752 129.241 114.685 129.267 114.61 129.308C114.537 129.349 114.459 129.408 114.377 129.486C114.298 129.563 114.221 129.668 114.148 129.8L114.08 131.502C114.153 131.616 114.242 131.711 114.347 131.786C114.454 131.859 114.572 131.896 114.702 131.896C114.857 131.896 114.99 131.857 115.102 131.779C115.214 131.702 115.305 131.595 115.375 131.458C115.448 131.319 115.501 131.156 115.533 130.969C115.567 130.782 115.584 130.58 115.584 130.361C115.584 130.201 115.57 130.052 115.543 129.913C115.516 129.772 115.476 129.65 115.423 129.547C115.371 129.443 115.305 129.361 115.225 129.301C115.145 129.242 115.053 129.212 114.948 129.212ZM106.93 135.64L105.959 135.92L105.46 140.278L103.249 136.871L102.9 139.516L103.85 140.022L101.604 140.189L102.5 139.516L102.565 136.095L101.543 135.736L103.775 135.367L105.104 138.802L105.511 136.009L104.763 135.302L106.93 135.64ZM106.687 138.494C106.687 138.239 106.727 138.003 106.807 137.787C106.889 137.568 107.001 137.379 107.145 137.219C107.291 137.06 107.463 136.936 107.661 136.847C107.862 136.756 108.08 136.71 108.317 136.71C108.548 136.71 108.758 136.753 108.95 136.84C109.141 136.924 109.307 137.044 109.449 137.199C109.59 137.354 109.703 137.539 109.787 137.756C109.871 137.972 109.922 138.212 109.938 138.474C109.953 138.754 109.924 139.008 109.849 139.236C109.776 139.461 109.667 139.654 109.524 139.813C109.38 139.971 109.208 140.093 109.008 140.179C108.81 140.266 108.594 140.309 108.362 140.309C108.139 140.309 107.925 140.269 107.723 140.189C107.522 140.107 107.344 139.989 107.189 139.834C107.037 139.679 106.915 139.49 106.824 139.267C106.733 139.041 106.687 138.784 106.687 138.494ZM107.528 138.552C107.528 138.753 107.556 138.934 107.613 139.096C107.67 139.257 107.747 139.395 107.842 139.509C107.938 139.621 108.049 139.708 108.174 139.769C108.299 139.831 108.431 139.861 108.57 139.861C108.709 139.861 108.839 139.832 108.96 139.772C109.081 139.711 109.186 139.625 109.274 139.516C109.363 139.404 109.433 139.271 109.483 139.116C109.533 138.961 109.558 138.789 109.558 138.6C109.558 138.413 109.533 138.238 109.483 138.074C109.433 137.907 109.362 137.763 109.271 137.64C109.182 137.517 109.076 137.42 108.953 137.349C108.83 137.278 108.696 137.243 108.55 137.243C108.42 137.243 108.293 137.273 108.17 137.332C108.05 137.391 107.941 137.478 107.846 137.592C107.75 137.703 107.673 137.84 107.613 138.002C107.556 138.164 107.528 138.347 107.528 138.552ZM114.449 136.85L113.937 137.271L113.701 139.735L114.176 140.049L112.692 140.224L113.014 139.861L112.258 138.474L111.705 139.854L112.04 140.148L110.662 140.289L111.144 139.848L110.549 137.37L109.941 137.117L111.811 136.737L111.397 137.212L111.544 139.349L112.446 137.151L113.154 139.208L113.595 137.185L112.908 136.823L114.449 136.85Z" fill="white"/>
<path d="M183.626 20.2681H34.2361C32.8818 20.2681 31.7871 21.3628 31.7871 22.7058V32.0392H186.087V22.7058C186.087 21.3628 184.981 20.2681 183.626 20.2681Z" fill="#7484CA"/>
<path d="M44.6049 26.8579C44.6049 28.3927 43.3635 29.6454 41.8173 29.6454C40.2825 29.6454 39.041 28.3927 39.041 26.8579C39.041 25.3343 40.2825 24.0815 41.8173 24.0815C43.3635 24.0815 44.6049 25.3343 44.6049 26.8579Z" fill="white"/>
<path d="M54.9268 26.8579C54.9268 28.3927 53.6853 29.6454 52.1392 29.6454C50.6043 29.6454 49.3516 28.3927 49.3516 26.8579C49.3516 25.3343 50.6043 24.0815 52.1392 24.0815C53.6853 24.0815 54.9268 25.3343 54.9268 26.8579Z" fill="#C0EAF2"/>
<path d="M65.2588 26.8579C65.2588 28.3927 64.0173 29.6454 62.4712 29.6454C60.9363 29.6454 59.6836 28.3927 59.6836 26.8579C59.6836 25.3343 60.9363 24.0815 62.4712 24.0815C64.0173 24.0815 65.2588 25.3343 65.2588 26.8579Z" fill="white"/>
<path d="M171.679 28.9921H89.2131C88.0394 28.9921 87.0801 28.0328 87.0801 26.859C87.0801 25.6853 88.0394 24.7373 89.2131 24.7373H171.679C172.852 24.7373 173.812 25.6853 173.812 26.859C173.812 28.0328 172.852 28.9921 171.679 28.9921Z" fill="#C0EAF2"/>
<path d="M84.0773 162.247H77.4093C76.4723 162.247 75.7109 161.487 75.7109 160.55V159.999C75.7109 159.054 76.4723 158.293 77.4093 158.293H84.0773C85.0227 158.293 85.7841 159.054 85.7841 159.999V160.55C85.7841 161.487 85.0227 162.247 84.0773 162.247Z" fill="#BFA5FF"/>
<path d="M79.1187 155.134C79.1187 155.519 78.8092 155.828 78.4243 155.828C78.0478 155.828 77.7383 155.519 77.7383 155.134C77.7383 154.758 78.0478 154.449 78.4243 154.449C78.8092 154.449 79.1187 154.758 79.1187 155.134Z" fill="#BFA5FF"/>
<path d="M81.4371 155.134C81.4371 155.519 81.1275 155.828 80.7511 155.828C80.3662 155.828 80.0566 155.519 80.0566 155.134C80.0566 154.758 80.3662 154.449 80.7511 154.449C81.1275 154.449 81.4371 154.758 81.4371 155.134Z" fill="#C380DF"/>
<path d="M83.7549 155.134C83.7549 155.519 83.4453 155.828 83.0689 155.828C82.684 155.828 82.3828 155.519 82.3828 155.134C82.3828 154.758 82.684 154.449 83.0689 154.449C83.4453 154.449 83.7549 154.758 83.7549 155.134Z" fill="#BFA5FF"/>
<path d="M113.42 105.231C113.42 105.424 113.27 105.574 113.077 105.574C112.885 105.574 112.734 105.424 112.734 105.231C112.734 105.039 112.885 104.889 113.077 104.889C113.27 104.889 113.42 105.039 113.42 105.231Z" fill="white"/>
<path d="M80.7901 218.868H79.3467C79.031 218.868 78.7829 218.613 78.7829 218.305L75.6406 204.388C75.6406 204.08 75.8962 203.824 76.2044 203.824H79.5347C79.8429 203.824 80.0985 204.08 80.0985 204.388L81.3539 218.305C81.3539 218.613 81.0983 218.868 80.7901 218.868Z" fill="#282444"/>
<path d="M29.0579 218.868H30.5088C30.817 218.868 31.0726 218.613 31.0726 218.305L34.2074 204.388C34.2074 204.08 33.9593 203.824 33.6436 203.824H30.3134C30.0051 203.824 29.7496 204.08 29.7496 204.388L28.4941 218.305C28.4941 218.613 28.7497 218.868 29.0579 218.868Z" fill="#282444"/>
<path d="M89.9996 178.28C88.5788 172.317 81.8131 173.518 82.2642 172.159C85.3613 162.868 87.1054 156.327 87.8271 149.252C87.9248 148.268 87.8045 142.424 84.121 142.244C82.5874 142.169 82.8505 142.657 80.9787 142.146C72.1382 139.728 69.1237 141.636 66.891 141.29C64.9365 140.997 59.6893 139.908 54.9683 141.17C54.7804 141.223 54.5849 141.223 54.397 141.17C49.6761 139.908 44.4289 140.997 42.4743 141.29C40.2417 141.636 37.2347 139.728 28.3867 142.146C26.5148 142.657 26.7855 142.169 25.2444 142.244C21.5608 142.424 21.4406 148.268 21.5383 149.252C22.26 156.327 24.004 162.868 27.1012 172.159C27.5522 173.518 20.7865 172.317 19.3657 178.28C18.832 180.511 19.2981 182.847 20.2302 184.326C21.4255 186.219 23.1545 187.03 24.222 187.285C24.3874 187.323 24.9136 187.421 24.9061 187.886C24.8911 190.042 24.1318 198.942 26.0036 208.819C26.1014 209.344 26.3043 210.861 27.5522 210.937C28.8452 211.019 42.5946 211.282 54.6827 211.184C66.7782 211.282 80.8584 211.019 82.1589 210.937C83.3993 210.861 83.6098 209.344 83.7075 208.819C85.444 199.13 84.0759 190.26 84.4592 187.886C84.5344 187.421 84.9855 187.323 85.1433 187.285C86.2183 187.03 87.9473 186.219 89.1351 184.326C90.0673 182.847 90.5333 180.511 89.9996 178.28Z" fill="#44A8BD"/>
<path d="M27.8828 172.384C28.4842 172.339 33.9644 172.001 37.8058 176.387C41.3466 180.421 40.7076 185.28 40.6023 185.979" stroke="#1D1D1B" stroke-width="0.0739631" stroke-miterlimit="10"/>
<path d="M87.9108 149.252C88.0085 148.268 87.8883 142.424 84.2047 142.244C82.6636 142.169 82.9267 142.657 81.0624 142.146C72.2144 139.728 69.2074 141.636 66.9747 141.29C65.0202 140.997 59.773 139.908 55.0521 141.17C54.8641 141.223 54.6687 141.223 54.4808 141.17C49.7598 139.908 44.5126 140.997 42.5581 141.29C40.3179 141.636 37.3109 139.728 28.4704 142.146C26.5986 142.657 26.8617 142.169 25.3281 142.244C21.6446 142.424 21.5243 148.268 21.622 149.252C22.3362 156.327 24.0878 162.868 27.1774 172.159C27.5307 173.203 23.6292 172.737 21.1484 175.156C22.449 174.525 24.3208 173.999 27.1248 174.224C30.3723 174.495 32.8005 176.808 33.1087 177.146C36.6193 181.059 36.1081 185.618 34.7099 187.744C32.7929 190.665 32.5749 194.766 33.6499 198.867C33.9957 200.159 35.394 200.917 36.3337 201.09C38.0777 201.421 41.3854 201.548 45.5425 201.638C48.2864 201.698 51.0528 201.751 53.1201 201.796C53.1351 201.841 53.1502 201.864 53.1502 201.864C53.1502 201.864 53.7892 201.849 54.8491 201.826C55.9091 201.849 56.5481 201.864 56.5481 201.864C56.5481 201.864 56.5556 201.841 56.5706 201.796C58.6454 201.751 61.4118 201.698 64.1557 201.638C68.3053 201.548 71.6205 201.421 73.3646 201.09C74.3042 200.917 75.7025 200.159 76.0408 198.867C77.1233 194.766 76.8978 190.665 74.9883 187.744C73.5901 185.618 73.0714 181.059 76.5895 177.146C76.8978 176.808 79.3259 174.495 82.5659 174.224C85.1444 174.014 86.9335 174.442 88.219 175.006C85.7383 172.76 82.0096 173.18 82.3479 172.159C85.4451 162.868 87.1891 156.327 87.9108 149.252Z" fill="#4AB6CD"/>
<path d="M37.9339 157.611C46.6767 168.186 45.8347 170.958 50.1122 167.105C53.8784 163.71 55.3218 164.611 57.5244 162.17C58.3062 161.307 59.4639 159.579 60.2231 159.151C61.4184 158.468 64.463 158.46 65.1546 158.731C65.5831 158.896 65.3651 159.204 65.4102 159.204C65.8612 159.189 66.3874 160.022 65.6733 160.541C65.335 160.788 62.3205 162.989 61.1027 163.485C60.4862 163.74 59.4338 163.86 59.0279 164.266C55.3142 167.976 52.1193 173.632 48.0825 173.316C45.7896 173.136 36.2049 169.388 32.574 159.181C31.4088 155.892 34.9345 153.976 37.9339 157.611Z" fill="#512618"/>
<path d="M53.4041 171.34C53.1711 171.43 52.8854 171.362 52.72 171.16C52.502 170.897 52.5396 170.514 52.8027 170.303L65.3192 160.074L65.2516 143.325C65.199 142.995 65.4245 142.679 65.7552 142.627C66.0935 142.574 66.4243 142.739 66.4619 143.13L66.5822 160.224C66.4995 160.434 66.4168 160.652 66.2514 160.787L53.577 171.242C53.5244 171.287 53.4642 171.317 53.4041 171.34Z" fill="#F9AC10"/>
<path d="M99.5471 160.795C99.2765 161.058 99.6524 161.599 99.8027 161.816C100.69 163.093 98.4496 166.804 94.954 168.396C91.511 169.973 82.1743 171.1 72.4167 167.404C70.6576 166.736 69.515 166.751 67.8235 167.352C63.7867 168.771 53.0894 173.09 47.4362 179.722C45.1585 182.403 44.6999 187.255 46.662 189.305C48.0151 190.732 50.5861 190.943 53.8937 190.064C57.9682 188.975 63.1778 183.74 70.7929 174.825C71.056 174.517 71.4921 174.434 71.8529 174.607C75.2282 176.274 80.4604 176.582 84.3168 175.351C89.0453 173.826 92.7965 171.858 94.8562 173.022C95.3374 173.293 95.8185 173.623 97.0589 173.803C99.1337 174.096 98.8405 172.106 99.0585 171.077C99.705 168.013 100.998 168.14 101.366 165.865C101.938 162.35 100.164 160.187 99.5471 160.795Z" fill="#512618"/>
<path d="M34.5299 189.141C35.7101 187.557 36.6348 186.948 39.2057 186.941C42.2428 186.933 44.2875 191.004 50.0083 191.004C61.7881 191.004 59.4878 186.535 68.3057 186.633C70.3881 186.663 74.1393 187.294 75.0489 189.479C76.0261 191.815 76.0863 196.494 75.3195 198.492C74.7858 199.882 73.1244 200.422 72.6207 200.483C65.9302 201.226 45.5429 201.181 37.6496 200.663C36.8904 200.618 34.8531 200.468 34.154 198.763C33.718 197.711 32.8234 191.447 34.5299 189.141Z" fill="#4AB6CD"/>
<path d="M82.4199 169.688C79.3077 169.395 75.8873 168.689 72.4142 167.375C70.6551 166.706 69.5125 166.722 67.8135 167.322C63.7842 168.742 53.0869 173.061 47.4338 179.692C45.156 182.374 44.6974 187.226 46.6519 189.284C48.0126 190.711 50.5836 190.913 53.8912 190.035C57.9657 188.946 63.1753 183.711 70.7904 174.795C71.0535 174.488 71.4896 174.405 71.8504 174.585C73.7298 175.509 76.188 176.02 78.6612 176.072C79.9993 174.623 81.6907 172.505 82.4199 169.688Z" fill="#FF6B71"/>
<path d="M40.0246 146.728C39.9495 146.675 39.9495 146.555 40.0096 146.495C40.2878 146.225 40.4306 145.887 40.3404 145.579C40.2878 145.384 40.1449 145.226 39.9495 145.128C39.8968 145.106 39.8593 145.053 39.8593 144.993C40.1299 144.828 40.2652 144.505 40.1675 144.227C40.1224 144.084 40.0171 143.979 39.8968 143.912C39.8893 143.904 39.8893 143.889 39.8893 143.881C39.8818 143.836 39.8818 143.799 39.9044 143.769C40.1374 143.348 40.2426 142.86 40.175 142.342C40.0322 141.245 39.1451 140.427 38.1077 140.374C38.01 140.366 37.9423 140.254 37.9874 140.156C38.2205 139.593 38.2355 139 37.9724 138.549C37.5063 137.73 36.3185 137.678 35.3187 138.429C35.3037 138.444 35.2887 138.451 35.2736 138.466C35.1909 138.526 35.0706 138.459 35.0631 138.346C34.9955 137.37 34.6497 136.619 34.1235 136.468C33.6198 136.326 33.0785 136.769 32.7027 137.542C32.6575 137.64 32.5298 137.648 32.4696 137.55C32.1464 136.994 31.7104 136.701 31.4097 136.859C31.2067 136.972 31.109 137.257 31.1165 137.625C31.1165 137.753 30.9887 137.828 30.8985 137.745C29.9588 136.882 28.9139 136.641 28.4553 137.212C28.1997 137.542 28.1772 138.068 28.3576 138.647C28.3952 138.774 28.2824 138.887 28.1696 138.827C27.3277 138.391 26.4106 138.489 25.8693 139.172C25.4859 139.66 25.3656 140.344 25.4859 141.042C25.5009 141.11 25.4709 141.178 25.4107 141.208C25.0875 141.365 24.7943 141.606 24.5387 141.921C23.6742 143.01 23.6366 144.648 24.4034 145.752C24.4635 145.834 24.4335 145.954 24.3433 145.992C23.7795 146.225 23.4111 146.781 23.4863 147.366C23.5539 147.892 23.9599 148.305 24.4786 148.448C24.5989 148.478 24.6289 148.651 24.5312 148.718C24.0952 149.034 23.8621 149.529 23.9824 149.98C24.1253 150.491 24.674 150.769 25.2829 150.679C25.3882 150.664 25.4709 150.784 25.4258 150.896C25.2153 151.4 25.1852 151.858 25.3807 152.038C25.5686 152.211 25.9219 152.068 26.2677 151.723C26.3504 151.647 26.4782 151.7 26.4933 151.828C26.5459 152.316 26.7639 152.714 27.0946 152.842C27.3878 152.954 27.7111 152.819 27.9742 152.519C28.0418 152.444 28.1546 152.466 28.1922 152.571C28.4027 153.105 28.7936 153.458 29.2146 153.435C29.5453 153.412 29.8235 153.157 29.9889 152.774C30.0114 152.714 30.0716 152.684 30.1317 152.699C30.9812 152.909 31.8908 152.969 32.8154 152.857C33.9806 152.706 34.9053 152.331 35.8149 151.715C35.8901 151.662 35.9878 151.708 36.0178 151.805C36.2509 152.639 36.9275 152.834 37.6416 152.594C37.8897 152.511 38.1829 152.211 38.2129 151.993C38.2205 151.955 38.2956 151.85 38.446 151.903C39.085 152.113 39.6713 151.219 39.4458 150.386C39.3857 150.198 39.303 150.025 39.2052 149.875C39.1526 149.792 39.1902 149.567 39.4383 149.59C39.5285 149.597 39.6262 149.56 39.7239 149.529C40.4381 149.304 40.8215 148.425 40.596 147.592C40.4907 147.224 40.2878 146.931 40.0246 146.728Z" fill="#282444"/>
<path d="M29.6828 148.372C30.4797 150.4 31.7727 152.698 31.2164 155.041C30.833 156.656 34.0955 157.603 35.1555 157.377C37.1326 156.942 35.8697 152.217 33.9001 150.024C32.6672 148.642 29.2844 147.351 29.6828 148.372Z" fill="#7F4730"/>
<path d="M30.8809 148.651C31.8055 150.559 33.294 152.805 35.7446 153.353C35.5793 152.572 35.4665 152.121 35.256 151.385C35.2485 151.385 31.8356 149.913 30.8809 148.651Z" fill="#512618"/>
<path d="M34.0203 141.861C33.0956 141.989 32.1259 142.387 31.4644 142.567C30.8254 144.279 29.7053 145.902 28.6228 145.857C28.4574 145.954 26.7584 145.338 27.638 147.344C28.2093 148.636 29.4497 149.327 29.7805 149.079C30.1488 148.793 30.0436 148.545 30.224 148.711C31.4343 149.852 32.9829 151.955 35.1705 151.925C35.4787 151.918 35.8094 151.813 35.8696 151.79C36.9145 151.46 37.2979 150.341 37.5234 149.777C38.4857 147.381 37.8918 144.61 37.4407 142.95C37.4332 142.905 37.4182 142.86 37.4031 142.807C37.3881 142.815 36.892 142.222 36.0726 142.026C35.3734 141.861 34.7344 141.756 34.0203 141.861Z" fill="#7F4730"/>
<path d="M37.8432 140.186C37.8658 140.02 37.8658 139.848 37.8432 139.675C37.738 138.653 37.0163 137.902 36.2345 137.985C35.8361 138.03 35.4978 138.285 35.2798 138.661C34.9941 138.563 34.6483 138.526 34.2875 138.563C33.8815 138.608 33.5282 138.736 33.2576 138.916C32.9945 138.21 32.4081 137.737 31.7842 137.805C31.0475 137.887 30.5212 138.699 30.5663 139.652C30.2657 139.532 29.8973 139.487 29.5139 139.532C28.6043 139.63 27.9202 140.178 27.9202 140.779C27.4842 141.132 27.2286 141.793 27.3113 142.514C27.3564 142.942 27.5143 143.325 27.7323 143.618C27.4316 143.746 27.2286 144.039 27.2662 144.354C27.3038 144.745 27.6947 145.022 28.1232 144.977C28.1833 144.97 28.2359 144.955 28.2886 144.94C28.3487 145.09 28.4239 145.24 28.5291 145.383C29.0328 146.074 29.8747 146.314 30.4085 145.924C30.837 145.608 30.9347 144.992 30.7017 144.399C31.0399 144.497 31.3933 144.482 31.7316 144.354C32.2728 144.129 32.6261 143.633 32.7464 143.025C32.8892 143.1 33.0396 143.122 33.1749 143.062C33.3328 143.002 33.4455 142.867 33.4906 142.687C33.7462 142.799 34.0394 142.844 34.3476 142.814C34.8964 142.754 35.3625 142.431 35.6256 141.988C35.6331 142.011 35.6331 142.026 35.6331 142.048C35.7383 143.025 36.5803 143.731 37.5125 143.626C38.4446 143.528 39.1137 142.657 39.0084 141.68C38.9333 140.967 38.4597 140.396 37.8432 140.186Z" fill="#282444"/>
<path d="M55.376 189.043C53.3914 190.778 50.2115 190.778 48.8734 190.41C35.6578 186.805 29.0048 170.064 29.0274 162.523C29.0424 157.701 30.7038 154.524 33.5153 154.036C34.9812 153.788 36.1915 154.434 37.1011 156.057C40.8448 162.771 43.9044 161.727 44.2502 163.808C44.3329 164.326 44.393 166.662 42.5137 167.706C41.3109 168.374 42.2882 171.198 42.9121 172.234C46.3325 177.883 49.3245 175.644 54.1507 178.318C55.3309 178.972 57.1276 181.014 57.6087 183.914C57.7515 184.725 57.8493 186.88 55.376 189.043Z" fill="white"/>
<path d="M36.3637 158.115C41.5131 168.337 43.6105 173.654 45.2117 171.589C48.1585 167.788 51.5113 167.886 53.511 165.28C54.2251 164.356 55.3903 162.779 56.0293 162.193C56.3676 161.885 58.6078 160.886 59.1265 161.359C59.1641 161.397 60.2015 161.172 60.9156 161.382C61.3592 161.517 61.1637 161.84 61.2088 161.833C61.6523 161.787 61.8704 161.87 62.0057 161.893C62.5244 161.99 62.4868 162.231 62.2462 162.478C62.1861 162.539 62.2462 162.576 61.5772 163.154C61.2539 163.425 59.9985 163.996 59.5851 164.454C58.4123 165.768 58.4274 165.858 57.2546 166.444C56.6532 166.744 55.6158 166.947 55.2475 167.383C51.8346 171.379 48.1811 178.228 44.1367 178.228C41.8364 178.236 32.0336 170.139 30.8534 160.195C30.4399 156.725 34.2438 153.909 36.3637 158.115Z" fill="#7F4730"/>
<path d="M102.196 171.31C101.677 170.98 101.211 171.633 100.775 172.204C99.971 173.263 95.3703 172.707 91.7469 171.896C90.7546 171.671 88.5896 171.107 88.2739 171.04C83.7183 170.101 77.336 167.87 72.6677 164.152C72.0362 163.649 70.6605 162.733 69.6081 161.884C67.7663 160.405 65.481 161.576 64.5939 162.23C63.4964 163.048 49.98 173.413 46.1461 183.462C45.4996 185.175 45.0411 187.323 46.3115 188.825C48.3939 191.296 52.9269 190.455 57.2344 187.698C60.4443 185.64 62.9326 179.136 67.3979 170.274C67.5032 170.063 67.7738 170.011 67.9467 170.161C71.4724 173.248 75.1033 174.404 79.6138 174.735C82.3125 174.938 84.8008 174.96 86.823 175.193C87.1237 175.223 88.2814 175.313 88.4242 175.922C88.5219 176.365 88.5971 176.778 89.0331 177.574C90.1231 179.572 91.9649 177.934 93.0023 177.446C96.0845 176.012 96.325 177.071 98.6028 176.027C102.377 174.299 102.888 171.753 102.196 171.31Z" fill="#7F4730"/>
<path d="M81.552 169.072C78.4624 167.885 75.2825 166.263 72.6514 164.167C72.0124 163.664 70.6442 162.748 69.5918 161.899C67.75 160.412 65.4572 161.591 64.5702 162.245C63.4726 163.063 49.5052 172.857 45.6788 182.914C45.1902 184.191 45.2579 186.286 45.6337 187.608C45.7615 188.044 45.972 188.577 46.2877 188.953C48.3701 191.424 53.5947 191.168 57.5489 188.051C60.5483 185.685 62.9088 179.144 67.3742 170.281C67.4794 170.078 67.75 170.026 67.9304 170.176C71.1629 173.015 74.4932 174.224 78.515 174.652C79.9734 172.422 80.9281 170.589 81.552 169.072Z" fill="#FF8186"/>
<path d="M193 133.616C191.913 132.619 191.021 131.808 191.021 131.808L183.993 127.379C183.993 127.379 178.111 128.974 175.028 128.931C171.946 128.888 168.849 128.225 168.849 128.225C168.849 128.225 167.399 131.619 167.216 133.485C167.03 135.35 167.702 135.527 167.702 135.527L172.337 136.999C172.337 136.999 172.12 141.941 171.86 144.544C171.6 147.146 170.948 150.355 170.645 152.654C170.339 154.951 169.65 159.814 169.65 159.814C169.65 159.814 172.249 162.671 177.156 162.716C182.06 162.759 187.922 160.894 187.922 160.894C187.922 160.894 187.876 153.954 188.831 151.049C189.786 148.143 191.284 146.558 191.284 146.558C191.284 146.558 193.172 147.321 194.996 147.058C196.818 146.801 198.104 146.272 198.104 146.272C198.104 146.272 198.382 139.861 197.644 137.91C196.906 135.956 194.084 134.613 193 133.616Z" fill="#4D4386"/>
<path d="M186.961 116.031C186.961 116.031 183.99 119.99 183.123 122.439C182.26 124.884 182.423 126.636 183.99 127.378C182.854 129.258 181.719 130.607 183.069 132.498C184.421 134.386 189.52 135.481 191.018 131.807C190.524 129.495 190.323 126.556 191.018 124.384C191.716 122.213 193.174 116.536 186.961 116.031Z" fill="#BE7151"/>
<path d="M186.528 212.279L182.125 212.865C182.125 212.865 181.762 214.551 181.396 216.528C181.027 218.507 181.398 218.97 181.398 218.97H187.838C187.838 218.97 187.924 217.799 187.555 215.919C187.189 214.036 186.528 212.279 186.528 212.279Z" fill="#611D20"/>
<path d="M173.095 212.253H167.565C167.565 212.253 167.616 212.916 166.818 214.633C166.018 216.353 164.791 215.999 163.07 216.49C161.348 216.979 161.371 218.97 161.371 218.97H173.761C173.761 218.97 173.581 217.273 173.089 215.613C172.597 213.95 173.095 212.253 173.095 212.253Z" fill="#611D20"/>
<path d="M194.998 117.337C193.354 115.814 192.954 116.134 192.31 114.651C191.67 113.168 187.609 114.266 186.371 112.977C186.371 112.977 185.608 115.688 187.012 117.04C188.416 118.391 190.186 117.922 190.652 119.117C191.121 120.314 189.786 120.742 189.826 122.065C189.866 123.388 189.022 123.388 188.902 124.67C188.782 125.953 189.502 127.196 190.466 127.356C191.43 127.516 191.75 126.913 193.074 125.47C194.398 124.028 195.321 124.068 195.402 121.985C195.482 119.899 196.643 118.859 194.998 117.337Z" fill="#442761"/>
<path d="M162.315 126.936C160.264 125.268 155.254 120.717 154.342 118.291C153.433 115.863 152.366 113.897 151.185 113.183C150.007 112.469 146.259 109.269 145.375 109.355C144.488 109.438 145.12 110.995 146.047 111.669C146.973 112.34 147.439 112.634 147.439 113.352C147.439 114.066 146.427 116.506 147.059 117.517C147.691 118.525 150.176 119.117 150.977 119.788C151.774 120.462 152.281 122.985 153.544 124.879C154.808 126.773 157.25 130.364 158.852 131.324C160.453 132.284 165.926 135.23 167.696 135.527C167.948 134.684 168.843 128.225 168.843 128.225C168.843 128.225 164.362 128.605 162.315 126.936Z" fill="#BE7151"/>
<path d="M178.127 162.344C174.682 162.344 169.64 159.815 169.64 159.815C169.64 159.815 169.209 161.695 168.597 165.615C167.988 169.535 166.664 183.225 166.867 185.873C167.07 188.519 167.527 196.407 167.559 200.481C167.59 204.552 167.173 212.254 167.173 212.254C167.173 212.254 168.242 212.948 169.923 213.16C171.605 213.374 173.541 212.28 173.541 212.28C173.541 212.28 174.507 198.952 174.559 195.49C174.61 192.03 174.559 189.587 174.965 185.465C175.374 181.342 176.849 177.423 177.921 173.86C179.245 175.591 180.721 186.736 180.721 190.044C180.721 193.353 181.078 194.627 181.23 197.375C181.379 200.124 180.918 212.428 180.918 212.428C180.918 212.428 182.78 213.242 184.318 213.154C185.859 213.068 187.366 212.254 187.366 212.254C187.366 212.254 187.286 208.651 187.521 205.443C187.758 202.238 187.521 194.335 187.444 189.564C187.366 184.793 188.462 177.597 189.011 172.746C189.557 167.898 187.993 160.467 187.993 160.467C187.993 160.467 181.573 162.344 178.127 162.344Z" fill="#303030"/>
<path d="M191.323 152.66C191.372 154.471 190.608 156.997 188.938 158.762C187.268 160.525 185.072 162.908 184.929 163.862C184.786 164.816 185.456 166.102 186.456 166.485C187.46 166.865 188.118 166.865 188.118 166.865C188.118 166.865 188.078 164.482 189.13 163.813C190.179 163.148 193.471 160.619 194.712 158.428C195.95 156.234 197.431 151.946 197.763 149.943C198.097 147.94 198.097 146.272 198.097 146.272L191.277 146.558C191.277 146.558 191.277 150.849 191.323 152.66Z" fill="#BE7151"/>
<path d="M186.061 128.295C184.954 128.155 183.988 127.378 183.988 127.378C183.988 127.378 183.058 128.295 182.455 130.118C181.849 131.941 183.682 133.118 183.682 133.118C183.682 133.118 185.023 130.141 185.806 130.095C186.59 130.05 187.493 129.932 187.611 129.427C187.725 128.918 187.17 128.433 186.061 128.295Z" fill="#AB6243"/>
</svg>
