<svg width="177" height="177" viewBox="0 0 177 177" fill="none" xmlns="http://www.w3.org/2000/svg">
<path d="M118 59.001C150.591 59.001 176.999 85.409 176.999 118.001C176.999 128.028 174.503 137.473 170.078 145.742L176.999 171.1L154.506 164.349C144.464 172.277 131.785 177 118 177C85.408 177 59 150.578 59 118.001L118 59.001Z" fill="#574B9E"/>
<path d="M176.484 110.626C172.853 81.5229 148.076 59.001 117.995 59.001C87.9136 59.001 63.1366 81.5229 59.5059 110.626C63.1366 139.714 87.9136 162.25 117.995 162.25C148.076 162.25 172.853 139.714 176.484 110.626Z" fill="#6055A4"/>
<path d="M176.484 110.626C172.853 81.5229 148.076 59.001 117.995 59.001C87.9136 59.001 63.1366 81.5229 59.5059 110.626C63.1366 139.714 87.9136 162.25 117.995 162.25C148.076 162.25 172.853 139.714 176.484 110.626Z" fill="#6055A4"/>
<path d="M123.881 59.2988C121.953 59.1003 119.981 59.001 117.996 59.001L58.9961 118.001C58.9961 119.986 59.0954 121.958 59.2939 123.886C94.8497 123.73 123.725 94.8404 123.896 59.2988H123.881Z" fill="#574B9E"/>
<path d="M6.92111 86.7407L0 112.099L22.4936 105.348C32.5349 113.276 45.2141 117.999 58.9996 117.999C91.5912 117.999 117.999 91.577 117.999 58.9996C117.999 26.408 91.5912 0 58.9996 0C26.408 0 0 26.408 0 58.9996C0 69.0267 2.49614 78.4723 6.92111 86.7407Z" fill="#4AB6CD"/>
<path d="M117.486 51.6246C113.855 22.522 89.0781 0 58.9968 0C28.9156 0 4.13856 22.522 0.507812 51.6246C4.13856 80.7132 28.9156 103.249 58.9968 103.249C89.0781 103.249 113.855 80.7132 117.486 51.6246Z" fill="#86CEDD"/>
</svg>
