<svg width="401" height="104" viewBox="0 0 401 104" fill="none" xmlns="http://www.w3.org/2000/svg">
<path d="M0 6.70996C0 3.39626 2.68629 0.709961 6 0.709961H395C398.314 0.709961 401 3.39625 401 6.70996V97.71C401 101.024 398.314 103.71 395 103.71H6.00001C2.6863 103.71 0 101.024 0 97.71V6.70996Z" fill="#FFE7E7"/>
<path d="M21.976 64.902C21.976 65.4673 21.8427 66.0006 21.576 66.502C21.3093 67.0033 20.8827 67.414 20.296 67.734C19.7093 68.0433 18.9573 68.198 18.04 68.198H16.024V72.71H14.2V61.59H18.04C18.8933 61.59 19.6133 61.7393 20.2 62.038C20.7973 62.326 21.24 62.7206 21.528 63.222C21.8267 63.7233 21.976 64.2833 21.976 64.902ZM18.04 66.71C18.7333 66.71 19.2507 66.5553 19.592 66.246C19.9333 65.926 20.104 65.478 20.104 64.902C20.104 63.686 19.416 63.078 18.04 63.078H16.024V66.71H18.04ZM25.5396 60.87V72.71H23.7156V60.87H25.5396ZM36.0144 68.086C36.0144 68.4166 35.993 68.7153 35.9504 68.982H29.2144C29.2677 69.686 29.529 70.2513 29.9984 70.678C30.4677 71.1046 31.0437 71.318 31.7264 71.318C32.7077 71.318 33.401 70.9073 33.8064 70.086H35.7744C35.5077 70.8966 35.0224 71.5633 34.3184 72.086C33.625 72.598 32.761 72.854 31.7264 72.854C30.8837 72.854 30.1264 72.6673 29.4544 72.294C28.793 71.91 28.2704 71.3766 27.8864 70.694C27.513 70.0006 27.3264 69.2006 27.3264 68.294C27.3264 67.3873 27.5077 66.5926 27.8704 65.91C28.2437 65.2166 28.761 64.6833 29.4224 64.31C30.0944 63.9366 30.8624 63.75 31.7264 63.75C32.5584 63.75 33.2997 63.9313 33.9504 64.294C34.601 64.6566 35.1077 65.1686 35.4704 65.83C35.833 66.4806 36.0144 67.2326 36.0144 68.086ZM34.1104 67.51C34.0997 66.838 33.8597 66.2993 33.3904 65.894C32.921 65.4886 32.3397 65.286 31.6464 65.286C31.017 65.286 30.4784 65.4886 30.0304 65.894C29.5824 66.2886 29.3157 66.8273 29.2304 67.51H34.1104ZM37.2014 68.262C37.2014 67.3766 37.3827 66.5926 37.7454 65.91C38.1187 65.2273 38.62 64.6993 39.2494 64.326C39.8894 63.942 40.5934 63.75 41.3614 63.75C42.0547 63.75 42.6574 63.8886 43.1694 64.166C43.692 64.4326 44.108 64.7686 44.4174 65.174V63.894H46.2574V72.71H44.4174V71.398C44.108 71.814 43.6867 72.1606 43.1534 72.438C42.62 72.7153 42.012 72.854 41.3294 72.854C40.572 72.854 39.8787 72.662 39.2494 72.278C38.62 71.8833 38.1187 71.3393 37.7454 70.646C37.3827 69.942 37.2014 69.1473 37.2014 68.262ZM44.4174 68.294C44.4174 67.686 44.2894 67.158 44.0334 66.71C43.788 66.262 43.4627 65.9206 43.0574 65.686C42.652 65.4513 42.2147 65.334 41.7454 65.334C41.276 65.334 40.8387 65.4513 40.4334 65.686C40.028 65.91 39.6974 66.246 39.4414 66.694C39.196 67.1313 39.0734 67.654 39.0734 68.262C39.0734 68.87 39.196 69.4033 39.4414 69.862C39.6974 70.3206 40.028 70.6726 40.4334 70.918C40.8494 71.1526 41.2867 71.27 41.7454 71.27C42.2147 71.27 42.652 71.1526 43.0574 70.918C43.4627 70.6833 43.788 70.342 44.0334 69.894C44.2894 69.4353 44.4174 68.902 44.4174 68.294ZM51.8531 72.854C51.1598 72.854 50.5358 72.7313 49.9811 72.486C49.4371 72.23 49.0051 71.8886 48.6851 71.462C48.3651 71.0246 48.1945 70.5393 48.1731 70.006H50.0611C50.0931 70.3793 50.2691 70.694 50.5891 70.95C50.9198 71.1953 51.3305 71.318 51.8211 71.318C52.3331 71.318 52.7278 71.222 53.0051 71.03C53.2931 70.8273 53.4371 70.5713 53.4371 70.262C53.4371 69.9313 53.2771 69.686 52.9571 69.526C52.6478 69.366 52.1518 69.19 51.4691 68.998C50.8078 68.8166 50.2691 68.6406 49.8531 68.47C49.4371 68.2993 49.0745 68.038 48.7651 67.686C48.4665 67.334 48.3171 66.87 48.3171 66.294C48.3171 65.8246 48.4558 65.398 48.7331 65.014C49.0105 64.6193 49.4051 64.31 49.9171 64.086C50.4398 63.862 51.0371 63.75 51.7091 63.75C52.7118 63.75 53.5171 64.006 54.1251 64.518C54.7438 65.0193 55.0745 65.7073 55.1171 66.582H53.2931C53.2611 66.1873 53.1011 65.8726 52.8131 65.638C52.5251 65.4033 52.1358 65.286 51.6451 65.286C51.1651 65.286 50.7971 65.3766 50.5411 65.558C50.2851 65.7393 50.1571 65.9793 50.1571 66.278C50.1571 66.5126 50.2425 66.71 50.4131 66.87C50.5838 67.03 50.7918 67.158 51.0371 67.254C51.2825 67.3393 51.6451 67.4513 52.1251 67.59C52.7651 67.7606 53.2878 67.9366 53.6931 68.118C54.1091 68.2886 54.4665 68.5446 54.7651 68.886C55.0638 69.2273 55.2185 69.6806 55.2291 70.246C55.2291 70.7473 55.0905 71.1953 54.8131 71.59C54.5358 71.9846 54.1411 72.294 53.6291 72.518C53.1278 72.742 52.5358 72.854 51.8531 72.854ZM65.28 68.086C65.28 68.4166 65.2587 68.7153 65.216 68.982H58.48C58.5333 69.686 58.7947 70.2513 59.264 70.678C59.7333 71.1046 60.3093 71.318 60.992 71.318C61.9733 71.318 62.6667 70.9073 63.072 70.086H65.04C64.7733 70.8966 64.288 71.5633 63.584 72.086C62.8907 72.598 62.0267 72.854 60.992 72.854C60.1493 72.854 59.392 72.6673 58.72 72.294C58.0587 71.91 57.536 71.3766 57.152 70.694C56.7787 70.0006 56.592 69.2006 56.592 68.294C56.592 67.3873 56.7733 66.5926 57.136 65.91C57.5093 65.2166 58.0267 64.6833 58.688 64.31C59.36 63.9366 60.128 63.75 60.992 63.75C61.824 63.75 62.5653 63.9313 63.216 64.294C63.8667 64.6566 64.3733 65.1686 64.736 65.83C65.0987 66.4806 65.28 67.2326 65.28 68.086ZM63.376 67.51C63.3653 66.838 63.1253 66.2993 62.656 65.894C62.1867 65.4886 61.6053 65.286 60.912 65.286C60.2827 65.286 59.744 65.4886 59.296 65.894C58.848 66.2886 58.5813 66.8273 58.496 67.51H63.376ZM70.6233 68.294C70.6233 67.3873 70.8046 66.5926 71.1673 65.91C71.5406 65.2166 72.0526 64.6833 72.7033 64.31C73.3539 63.9366 74.1006 63.75 74.9433 63.75C76.0099 63.75 76.8899 64.006 77.5833 64.518C78.2873 65.0193 78.7619 65.7393 79.0073 66.678H77.0393C76.8793 66.2406 76.6233 65.8993 76.2713 65.654C75.9193 65.4086 75.4766 65.286 74.9433 65.286C74.1966 65.286 73.5993 65.5526 73.1513 66.086C72.7139 66.6086 72.4953 67.3446 72.4953 68.294C72.4953 69.2433 72.7139 69.9846 73.1513 70.518C73.5993 71.0513 74.1966 71.318 74.9433 71.318C75.9993 71.318 76.6979 70.854 77.0393 69.926H79.0073C78.7513 70.822 78.2713 71.5366 77.5673 72.07C76.8633 72.5926 75.9886 72.854 74.9433 72.854C74.1006 72.854 73.3539 72.6673 72.7033 72.294C72.0526 71.91 71.5406 71.3766 71.1673 70.694C70.8046 70.0006 70.6233 69.2006 70.6233 68.294ZM82.649 60.87V72.71H80.825V60.87H82.649ZM85.9718 62.726C85.6411 62.726 85.3638 62.614 85.1398 62.39C84.9158 62.166 84.8038 61.8886 84.8038 61.558C84.8038 61.2273 84.9158 60.95 85.1398 60.726C85.3638 60.502 85.6411 60.39 85.9718 60.39C86.2918 60.39 86.5638 60.502 86.7878 60.726C87.0118 60.95 87.1238 61.2273 87.1238 61.558C87.1238 61.8886 87.0118 62.166 86.7878 62.39C86.5638 62.614 86.2918 62.726 85.9718 62.726ZM86.8678 63.894V72.71H85.0438V63.894H86.8678ZM88.6545 68.294C88.6545 67.3873 88.8358 66.5926 89.1985 65.91C89.5718 65.2166 90.0838 64.6833 90.7345 64.31C91.3852 63.9366 92.1318 63.75 92.9745 63.75C94.0412 63.75 94.9212 64.006 95.6145 64.518C96.3185 65.0193 96.7932 65.7393 97.0385 66.678H95.0705C94.9105 66.2406 94.6545 65.8993 94.3025 65.654C93.9505 65.4086 93.5078 65.286 92.9745 65.286C92.2278 65.286 91.6305 65.5526 91.1825 66.086C90.7452 66.6086 90.5265 67.3446 90.5265 68.294C90.5265 69.2433 90.7452 69.9846 91.1825 70.518C91.6305 71.0513 92.2278 71.318 92.9745 71.318C94.0305 71.318 94.7292 70.854 95.0705 69.926H97.0385C96.7825 70.822 96.3025 71.5366 95.5985 72.07C94.8945 72.5926 94.0198 72.854 92.9745 72.854C92.1318 72.854 91.3852 72.6673 90.7345 72.294C90.0838 71.91 89.5718 71.3766 89.1985 70.694C88.8358 70.0006 88.6545 69.2006 88.6545 68.294ZM102.344 68.31L106.408 72.71H103.944L100.68 68.918V72.71H98.8563V60.87H100.68V67.75L103.88 63.894H106.408L102.344 68.31ZM114 65.382V70.262C114 70.5926 114.075 70.8326 114.224 70.982C114.384 71.1206 114.651 71.19 115.024 71.19H116.144V72.71H114.704C113.883 72.71 113.253 72.518 112.816 72.134C112.379 71.75 112.16 71.126 112.16 70.262V65.382H111.12V63.894H112.16V61.702H114V63.894H116.144V65.382H114ZM122.385 63.75C123.057 63.75 123.654 63.894 124.177 64.182C124.71 64.47 125.126 64.8966 125.425 65.462C125.734 66.0273 125.889 66.71 125.889 67.51V72.71H124.081V67.782C124.081 66.9926 123.884 66.39 123.489 65.974C123.094 65.5473 122.556 65.334 121.873 65.334C121.19 65.334 120.646 65.5473 120.241 65.974C119.846 66.39 119.649 66.9926 119.649 67.782V72.71H117.825V60.87H119.649V64.918C119.958 64.5446 120.348 64.2566 120.817 64.054C121.297 63.8513 121.82 63.75 122.385 63.75ZM136.296 68.086C136.296 68.4166 136.274 68.7153 136.232 68.982H129.496C129.549 69.686 129.81 70.2513 130.28 70.678C130.749 71.1046 131.325 71.318 132.008 71.318C132.989 71.318 133.682 70.9073 134.088 70.086H136.056C135.789 70.8966 135.304 71.5633 134.6 72.086C133.906 72.598 133.042 72.854 132.008 72.854C131.165 72.854 130.408 72.6673 129.736 72.294C129.074 71.91 128.552 71.3766 128.168 70.694C127.794 70.0006 127.608 69.2006 127.608 68.294C127.608 67.3873 127.789 66.5926 128.152 65.91C128.525 65.2166 129.042 64.6833 129.704 64.31C130.376 63.9366 131.144 63.75 132.008 63.75C132.84 63.75 133.581 63.9313 134.232 64.294C134.882 64.6566 135.389 65.1686 135.752 65.83C136.114 66.4806 136.296 67.2326 136.296 68.086ZM134.392 67.51C134.381 66.838 134.141 66.2993 133.672 65.894C133.202 65.4886 132.621 65.286 131.928 65.286C131.298 65.286 130.76 65.4886 130.312 65.894C129.864 66.2886 129.597 66.8273 129.512 67.51H134.392ZM143.175 62.726C142.844 62.726 142.567 62.614 142.343 62.39C142.119 62.166 142.007 61.8886 142.007 61.558C142.007 61.2273 142.119 60.95 142.343 60.726C142.567 60.502 142.844 60.39 143.175 60.39C143.495 60.39 143.767 60.502 143.991 60.726C144.215 60.95 144.327 61.2273 144.327 61.558C144.327 61.8886 144.215 62.166 143.991 62.39C143.767 62.614 143.495 62.726 143.175 62.726ZM144.071 63.894V72.71H142.247V63.894H144.071ZM145.858 68.294C145.858 67.3873 146.039 66.5926 146.402 65.91C146.775 65.2166 147.287 64.6833 147.938 64.31C148.588 63.9366 149.335 63.75 150.178 63.75C151.244 63.75 152.124 64.006 152.818 64.518C153.522 65.0193 153.996 65.7393 154.242 66.678H152.274C152.114 66.2406 151.858 65.8993 151.506 65.654C151.154 65.4086 150.711 65.286 150.178 65.286C149.431 65.286 148.834 65.5526 148.386 66.086C147.948 66.6086 147.73 67.3446 147.73 68.294C147.73 69.2433 147.948 69.9846 148.386 70.518C148.834 71.0513 149.431 71.318 150.178 71.318C151.234 71.318 151.932 70.854 152.274 69.926H154.242C153.986 70.822 153.506 71.5366 152.802 72.07C152.098 72.5926 151.223 72.854 150.178 72.854C149.335 72.854 148.588 72.6673 147.938 72.294C147.287 71.91 146.775 71.3766 146.402 70.694C146.039 70.0006 145.858 69.2006 145.858 68.294ZM159.883 72.854C159.051 72.854 158.299 72.6673 157.627 72.294C156.955 71.91 156.427 71.3766 156.043 70.694C155.659 70.0006 155.467 69.2006 155.467 68.294C155.467 67.398 155.665 66.6033 156.059 65.91C156.454 65.2166 156.993 64.6833 157.675 64.31C158.358 63.9366 159.121 63.75 159.963 63.75C160.806 63.75 161.569 63.9366 162.251 64.31C162.934 64.6833 163.473 65.2166 163.867 65.91C164.262 66.6033 164.459 67.398 164.459 68.294C164.459 69.19 164.257 69.9846 163.851 70.678C163.446 71.3713 162.891 71.91 162.187 72.294C161.494 72.6673 160.726 72.854 159.883 72.854ZM159.883 71.27C160.353 71.27 160.79 71.158 161.195 70.934C161.611 70.71 161.947 70.374 162.203 69.926C162.459 69.478 162.587 68.934 162.587 68.294C162.587 67.654 162.465 67.1153 162.219 66.678C161.974 66.23 161.649 65.894 161.243 65.67C160.838 65.446 160.401 65.334 159.931 65.334C159.462 65.334 159.025 65.446 158.619 65.67C158.225 65.894 157.91 66.23 157.675 66.678C157.441 67.1153 157.323 67.654 157.323 68.294C157.323 69.2433 157.563 69.9793 158.043 70.502C158.534 71.014 159.147 71.27 159.883 71.27ZM170.711 63.75C171.404 63.75 172.023 63.894 172.567 64.182C173.121 64.47 173.553 64.8966 173.863 65.462C174.172 66.0273 174.327 66.71 174.327 67.51V72.71H172.519V67.782C172.519 66.9926 172.321 66.39 171.927 65.974C171.532 65.5473 170.993 65.334 170.311 65.334C169.628 65.334 169.084 65.5473 168.679 65.974C168.284 66.39 168.087 66.9926 168.087 67.782V72.71H166.263V63.894H168.087V64.902C168.385 64.5393 168.764 64.2566 169.223 64.054C169.692 63.8513 170.188 63.75 170.711 63.75ZM182.573 57.606L178.221 75.51H176.429L180.765 57.606H182.573ZM186.696 60.87V72.71H184.872V60.87H186.696ZM192.915 72.854C192.083 72.854 191.331 72.6673 190.659 72.294C189.987 71.91 189.459 71.3766 189.075 70.694C188.691 70.0006 188.499 69.2006 188.499 68.294C188.499 67.398 188.696 66.6033 189.091 65.91C189.485 65.2166 190.024 64.6833 190.707 64.31C191.389 63.9366 192.152 63.75 192.995 63.75C193.837 63.75 194.6 63.9366 195.283 64.31C195.965 64.6833 196.504 65.2166 196.899 65.91C197.293 66.6033 197.491 67.398 197.491 68.294C197.491 69.19 197.288 69.9846 196.883 70.678C196.477 71.3713 195.923 71.91 195.219 72.294C194.525 72.6673 193.757 72.854 192.915 72.854ZM192.915 71.27C193.384 71.27 193.821 71.158 194.227 70.934C194.643 70.71 194.979 70.374 195.235 69.926C195.491 69.478 195.619 68.934 195.619 68.294C195.619 67.654 195.496 67.1153 195.251 66.678C195.005 66.23 194.68 65.894 194.275 65.67C193.869 65.446 193.432 65.334 192.963 65.334C192.493 65.334 192.056 65.446 191.651 65.67C191.256 65.894 190.941 66.23 190.707 66.678C190.472 67.1153 190.355 67.654 190.355 68.294C190.355 69.2433 190.595 69.9793 191.075 70.502C191.565 71.014 192.179 71.27 192.915 71.27ZM202.846 63.75C203.528 63.75 204.131 63.8886 204.654 64.166C205.187 64.4326 205.603 64.7686 205.902 65.174V63.894H207.742V72.854C207.742 73.6646 207.571 74.3846 207.23 75.014C206.888 75.654 206.392 76.1553 205.742 76.518C205.102 76.8806 204.334 77.062 203.438 77.062C202.243 77.062 201.251 76.7793 200.462 76.214C199.672 75.6593 199.224 74.902 199.118 73.942H200.926C201.064 74.4006 201.358 74.7686 201.806 75.046C202.264 75.334 202.808 75.478 203.438 75.478C204.174 75.478 204.766 75.254 205.214 74.806C205.672 74.358 205.902 73.7073 205.902 72.854V71.382C205.592 71.798 205.171 72.15 204.638 72.438C204.115 72.7153 203.518 72.854 202.846 72.854C202.078 72.854 201.374 72.662 200.734 72.278C200.104 71.8833 199.603 71.3393 199.23 70.646C198.867 69.942 198.686 69.1473 198.686 68.262C198.686 67.3766 198.867 66.5926 199.23 65.91C199.603 65.2273 200.104 64.6993 200.734 64.326C201.374 63.942 202.078 63.75 202.846 63.75ZM205.902 68.294C205.902 67.686 205.774 67.158 205.518 66.71C205.272 66.262 204.947 65.9206 204.542 65.686C204.136 65.4513 203.699 65.334 203.23 65.334C202.76 65.334 202.323 65.4513 201.918 65.686C201.512 65.91 201.182 66.246 200.926 66.694C200.68 67.1313 200.558 67.654 200.558 68.262C200.558 68.87 200.68 69.4033 200.926 69.862C201.182 70.3206 201.512 70.6726 201.918 70.918C202.334 71.1526 202.771 71.27 203.23 71.27C203.699 71.27 204.136 71.1526 204.542 70.918C204.947 70.6833 205.272 70.342 205.518 69.894C205.774 69.4353 205.902 68.902 205.902 68.294ZM213.962 72.854C213.13 72.854 212.378 72.6673 211.706 72.294C211.034 71.91 210.506 71.3766 210.122 70.694C209.738 70.0006 209.546 69.2006 209.546 68.294C209.546 67.398 209.743 66.6033 210.138 65.91C210.532 65.2166 211.071 64.6833 211.754 64.31C212.436 63.9366 213.199 63.75 214.042 63.75C214.884 63.75 215.647 63.9366 216.33 64.31C217.012 64.6833 217.551 65.2166 217.946 65.91C218.34 66.6033 218.538 67.398 218.538 68.294C218.538 69.19 218.335 69.9846 217.93 70.678C217.524 71.3713 216.97 71.91 216.266 72.294C215.572 72.6673 214.804 72.854 213.962 72.854ZM213.962 71.27C214.431 71.27 214.868 71.158 215.274 70.934C215.69 70.71 216.026 70.374 216.282 69.926C216.538 69.478 216.666 68.934 216.666 68.294C216.666 67.654 216.543 67.1153 216.298 66.678C216.052 66.23 215.727 65.894 215.322 65.67C214.916 65.446 214.479 65.334 214.01 65.334C213.54 65.334 213.103 65.446 212.698 65.67C212.303 65.894 211.988 66.23 211.754 66.678C211.519 67.1153 211.402 67.654 211.402 68.294C211.402 69.2433 211.642 69.9793 212.122 70.502C212.612 71.014 213.226 71.27 213.962 71.27ZM226.625 65.382V70.262C226.625 70.5926 226.7 70.8326 226.849 70.982C227.009 71.1206 227.276 71.19 227.649 71.19H228.769V72.71H227.329C226.508 72.71 225.878 72.518 225.441 72.134C225.004 71.75 224.785 71.126 224.785 70.262V65.382H223.745V63.894H224.785V61.702H226.625V63.894H228.769V65.382H226.625ZM234.274 72.854C233.442 72.854 232.69 72.6673 232.018 72.294C231.346 71.91 230.818 71.3766 230.434 70.694C230.05 70.0006 229.858 69.2006 229.858 68.294C229.858 67.398 230.055 66.6033 230.45 65.91C230.845 65.2166 231.383 64.6833 232.066 64.31C232.749 63.9366 233.511 63.75 234.354 63.75C235.197 63.75 235.959 63.9366 236.642 64.31C237.325 64.6833 237.863 65.2166 238.258 65.91C238.653 66.6033 238.85 67.398 238.85 68.294C238.85 69.19 238.647 69.9846 238.242 70.678C237.837 71.3713 237.282 71.91 236.578 72.294C235.885 72.6673 235.117 72.854 234.274 72.854ZM234.274 71.27C234.743 71.27 235.181 71.158 235.586 70.934C236.002 70.71 236.338 70.374 236.594 69.926C236.85 69.478 236.978 68.934 236.978 68.294C236.978 67.654 236.855 67.1153 236.61 66.678C236.365 66.23 236.039 65.894 235.634 65.67C235.229 65.446 234.791 65.334 234.322 65.334C233.853 65.334 233.415 65.446 233.01 65.67C232.615 65.894 232.301 66.23 232.066 66.678C231.831 67.1153 231.714 67.654 231.714 68.294C231.714 69.2433 231.954 69.9793 232.434 70.502C232.925 71.014 233.538 71.27 234.274 71.27ZM246.633 65.174C246.9 64.726 247.252 64.3793 247.689 64.134C248.137 63.878 248.665 63.75 249.273 63.75V65.638H248.809C248.095 65.638 247.551 65.8193 247.177 66.182C246.815 66.5446 246.633 67.174 246.633 68.07V72.71H244.809V63.894H246.633V65.174ZM259.03 68.086C259.03 68.4166 259.009 68.7153 258.966 68.982H252.23C252.283 69.686 252.545 70.2513 253.014 70.678C253.483 71.1046 254.059 71.318 254.742 71.318C255.723 71.318 256.417 70.9073 256.822 70.086H258.79C258.523 70.8966 258.038 71.5633 257.334 72.086C256.641 72.598 255.777 72.854 254.742 72.854C253.899 72.854 253.142 72.6673 252.47 72.294C251.809 71.91 251.286 71.3766 250.902 70.694C250.529 70.0006 250.342 69.2006 250.342 68.294C250.342 67.3873 250.523 66.5926 250.886 65.91C251.259 65.2166 251.777 64.6833 252.438 64.31C253.11 63.9366 253.878 63.75 254.742 63.75C255.574 63.75 256.315 63.9313 256.966 64.294C257.617 64.6566 258.123 65.1686 258.486 65.83C258.849 66.4806 259.03 67.2326 259.03 68.086ZM257.126 67.51C257.115 66.838 256.875 66.2993 256.406 65.894C255.937 65.4886 255.355 65.286 254.662 65.286C254.033 65.286 253.494 65.4886 253.046 65.894C252.598 66.2886 252.331 66.8273 252.246 67.51H257.126ZM264.521 65.382H262.889V72.71H261.049V65.382H260.009V63.894H261.049V63.27C261.049 62.2566 261.316 61.5206 261.849 61.062C262.393 60.5926 263.241 60.358 264.393 60.358V61.878C263.838 61.878 263.449 61.9846 263.225 62.198C263.001 62.4006 262.889 62.758 262.889 63.27V63.894H264.521V65.382ZM267.962 65.174C268.228 64.726 268.58 64.3793 269.018 64.134C269.466 63.878 269.994 63.75 270.602 63.75V65.638H270.138C269.423 65.638 268.879 65.8193 268.506 66.182C268.143 66.5446 267.962 67.174 267.962 68.07V72.71H266.138V63.894H267.962V65.174ZM280.358 68.086C280.358 68.4166 280.337 68.7153 280.294 68.982H273.558C273.611 69.686 273.873 70.2513 274.342 70.678C274.811 71.1046 275.387 71.318 276.07 71.318C277.051 71.318 277.745 70.9073 278.15 70.086H280.118C279.851 70.8966 279.366 71.5633 278.662 72.086C277.969 72.598 277.105 72.854 276.07 72.854C275.227 72.854 274.47 72.6673 273.798 72.294C273.137 71.91 272.614 71.3766 272.23 70.694C271.857 70.0006 271.67 69.2006 271.67 68.294C271.67 67.3873 271.851 66.5926 272.214 65.91C272.587 65.2166 273.105 64.6833 273.766 64.31C274.438 63.9366 275.206 63.75 276.07 63.75C276.902 63.75 277.643 63.9313 278.294 64.294C278.945 64.6566 279.451 65.1686 279.814 65.83C280.177 66.4806 280.358 67.2326 280.358 68.086ZM278.454 67.51C278.443 66.838 278.203 66.2993 277.734 65.894C277.265 65.4886 276.683 65.286 275.99 65.286C275.361 65.286 274.822 65.4886 274.374 65.894C273.926 66.2886 273.659 66.8273 273.574 67.51H278.454ZM285.353 72.854C284.66 72.854 284.036 72.7313 283.481 72.486C282.937 72.23 282.505 71.8886 282.185 71.462C281.865 71.0246 281.694 70.5393 281.673 70.006H283.561C283.593 70.3793 283.769 70.694 284.089 70.95C284.42 71.1953 284.83 71.318 285.321 71.318C285.833 71.318 286.228 71.222 286.505 71.03C286.793 70.8273 286.937 70.5713 286.937 70.262C286.937 69.9313 286.777 69.686 286.457 69.526C286.148 69.366 285.652 69.19 284.969 68.998C284.308 68.8166 283.769 68.6406 283.353 68.47C282.937 68.2993 282.574 68.038 282.265 67.686C281.966 67.334 281.817 66.87 281.817 66.294C281.817 65.8246 281.956 65.398 282.233 65.014C282.51 64.6193 282.905 64.31 283.417 64.086C283.94 63.862 284.537 63.75 285.209 63.75C286.212 63.75 287.017 64.006 287.625 64.518C288.244 65.0193 288.574 65.7073 288.617 66.582H286.793C286.761 66.1873 286.601 65.8726 286.313 65.638C286.025 65.4033 285.636 65.286 285.145 65.286C284.665 65.286 284.297 65.3766 284.041 65.558C283.785 65.7393 283.657 65.9793 283.657 66.278C283.657 66.5126 283.742 66.71 283.913 66.87C284.084 67.03 284.292 67.158 284.537 67.254C284.782 67.3393 285.145 67.4513 285.625 67.59C286.265 67.7606 286.788 67.9366 287.193 68.118C287.609 68.2886 287.966 68.5446 288.265 68.886C288.564 69.2273 288.718 69.6806 288.729 70.246C288.729 70.7473 288.59 71.1953 288.313 71.59C288.036 71.9846 287.641 72.294 287.129 72.518C286.628 72.742 286.036 72.854 285.353 72.854ZM295.26 63.75C295.932 63.75 296.529 63.894 297.052 64.182C297.585 64.47 298.001 64.8966 298.3 65.462C298.609 66.0273 298.764 66.71 298.764 67.51V72.71H296.956V67.782C296.956 66.9926 296.759 66.39 296.364 65.974C295.969 65.5473 295.431 65.334 294.748 65.334C294.065 65.334 293.521 65.5473 293.116 65.974C292.721 66.39 292.524 66.9926 292.524 67.782V72.71H290.7V60.87H292.524V64.918C292.833 64.5446 293.223 64.2566 293.692 64.054C294.172 63.8513 294.695 63.75 295.26 63.75ZM307.071 65.19C307.38 64.7846 307.802 64.4433 308.335 64.166C308.868 63.8886 309.471 63.75 310.143 63.75C310.911 63.75 311.61 63.942 312.239 64.326C312.879 64.6993 313.38 65.2273 313.743 65.91C314.106 66.5926 314.287 67.3766 314.287 68.262C314.287 69.1473 314.106 69.942 313.743 70.646C313.38 71.3393 312.879 71.8833 312.239 72.278C311.61 72.662 310.911 72.854 310.143 72.854C309.471 72.854 308.874 72.7206 308.351 72.454C307.828 72.1766 307.402 71.8353 307.071 71.43V76.902H305.247V63.894H307.071V65.19ZM312.431 68.262C312.431 67.654 312.303 67.1313 312.047 66.694C311.802 66.246 311.471 65.91 311.055 65.686C310.65 65.4513 310.212 65.334 309.743 65.334C309.284 65.334 308.847 65.4513 308.431 65.686C308.026 65.9206 307.695 66.262 307.439 66.71C307.194 67.158 307.071 67.686 307.071 68.294C307.071 68.902 307.194 69.4353 307.439 69.894C307.695 70.342 308.026 70.6833 308.431 70.918C308.847 71.1526 309.284 71.27 309.743 71.27C310.212 71.27 310.65 71.1526 311.055 70.918C311.471 70.6726 311.802 70.3206 312.047 69.862C312.303 69.4033 312.431 68.87 312.431 68.262ZM315.483 68.262C315.483 67.3766 315.664 66.5926 316.027 65.91C316.4 65.2273 316.901 64.6993 317.531 64.326C318.171 63.942 318.875 63.75 319.643 63.75C320.336 63.75 320.939 63.8886 321.451 64.166C321.973 64.4326 322.389 64.7686 322.699 65.174V63.894H324.539V72.71H322.699V71.398C322.389 71.814 321.968 72.1606 321.435 72.438C320.901 72.7153 320.293 72.854 319.611 72.854C318.853 72.854 318.16 72.662 317.531 72.278C316.901 71.8833 316.4 71.3393 316.027 70.646C315.664 69.942 315.483 69.1473 315.483 68.262ZM322.699 68.294C322.699 67.686 322.571 67.158 322.315 66.71C322.069 66.262 321.744 65.9206 321.339 65.686C320.933 65.4513 320.496 65.334 320.027 65.334C319.557 65.334 319.12 65.4513 318.715 65.686C318.309 65.91 317.979 66.246 317.723 66.694C317.477 67.1313 317.355 67.654 317.355 68.262C317.355 68.87 317.477 69.4033 317.723 69.862C317.979 70.3206 318.309 70.6726 318.715 70.918C319.131 71.1526 319.568 71.27 320.027 71.27C320.496 71.27 320.933 71.1526 321.339 70.918C321.744 70.6833 322.069 70.342 322.315 69.894C322.571 69.4353 322.699 68.902 322.699 68.294ZM330.486 63.75C331.169 63.75 331.772 63.8886 332.294 64.166C332.828 64.4326 333.244 64.7686 333.542 65.174V63.894H335.382V72.854C335.382 73.6646 335.212 74.3846 334.87 75.014C334.529 75.654 334.033 76.1553 333.382 76.518C332.742 76.8806 331.974 77.062 331.078 77.062C329.884 77.062 328.892 76.7793 328.102 76.214C327.313 75.6593 326.865 74.902 326.758 73.942H328.566C328.705 74.4006 328.998 74.7686 329.446 75.046C329.905 75.334 330.449 75.478 331.078 75.478C331.814 75.478 332.406 75.254 332.854 74.806C333.313 74.358 333.542 73.7073 333.542 72.854V71.382C333.233 71.798 332.812 72.15 332.278 72.438C331.756 72.7153 331.158 72.854 330.486 72.854C329.718 72.854 329.014 72.662 328.374 72.278C327.745 71.8833 327.244 71.3393 326.87 70.646C326.508 69.942 326.326 69.1473 326.326 68.262C326.326 67.3766 326.508 66.5926 326.87 65.91C327.244 65.2273 327.745 64.6993 328.374 64.326C329.014 63.942 329.718 63.75 330.486 63.75ZM333.542 68.294C333.542 67.686 333.414 67.158 333.158 66.71C332.913 66.262 332.588 65.9206 332.182 65.686C331.777 65.4513 331.34 65.334 330.87 65.334C330.401 65.334 329.964 65.4513 329.558 65.686C329.153 65.91 328.822 66.246 328.566 66.694C328.321 67.1313 328.198 67.654 328.198 68.262C328.198 68.87 328.321 69.4033 328.566 69.862C328.822 70.3206 329.153 70.6726 329.558 70.918C329.974 71.1526 330.412 71.27 330.87 71.27C331.34 71.27 331.777 71.1526 332.182 70.918C332.588 70.6833 332.913 70.342 333.158 69.894C333.414 69.4353 333.542 68.902 333.542 68.294ZM345.858 68.086C345.858 68.4166 345.837 68.7153 345.794 68.982H339.058C339.111 69.686 339.373 70.2513 339.842 70.678C340.311 71.1046 340.887 71.318 341.57 71.318C342.551 71.318 343.245 70.9073 343.65 70.086H345.618C345.351 70.8966 344.866 71.5633 344.162 72.086C343.469 72.598 342.605 72.854 341.57 72.854C340.727 72.854 339.97 72.6673 339.298 72.294C338.637 71.91 338.114 71.3766 337.73 70.694C337.357 70.0006 337.17 69.2006 337.17 68.294C337.17 67.3873 337.351 66.5926 337.714 65.91C338.087 65.2166 338.605 64.6833 339.266 64.31C339.938 63.9366 340.706 63.75 341.57 63.75C342.402 63.75 343.143 63.9313 343.794 64.294C344.445 64.6566 344.951 65.1686 345.314 65.83C345.677 66.4806 345.858 67.2326 345.858 68.086ZM343.954 67.51C343.943 66.838 343.703 66.2993 343.234 65.894C342.765 65.4886 342.183 65.286 341.49 65.286C340.861 65.286 340.322 65.4886 339.874 65.894C339.426 66.2886 339.159 66.8273 339.074 67.51H343.954ZM348.389 72.822C348.058 72.822 347.781 72.71 347.557 72.486C347.333 72.262 347.221 71.9846 347.221 71.654C347.221 71.3233 347.333 71.046 347.557 70.822C347.781 70.598 348.058 70.486 348.389 70.486C348.709 70.486 348.981 70.598 349.205 70.822C349.429 71.046 349.541 71.3233 349.541 71.654C349.541 71.9846 349.429 72.262 349.205 72.486C348.981 72.71 348.709 72.822 348.389 72.822Z" fill="#CA2C2C"/>
<path d="M41.312 17.542V24.454C41.312 25.2113 41.5093 25.7926 41.904 26.198C42.2987 26.5926 42.8533 26.79 43.568 26.79C44.2933 26.79 44.8533 26.5926 45.248 26.198C45.6427 25.7926 45.84 25.2113 45.84 24.454V17.542H48.096V24.438C48.096 25.3873 47.888 26.1926 47.472 26.854C47.0667 27.5046 46.5173 27.9953 45.824 28.326C45.1413 28.6566 44.3787 28.822 43.536 28.822C42.704 28.822 41.9467 28.6566 41.264 28.326C40.592 27.9953 40.0587 27.5046 39.664 26.854C39.2693 26.1926 39.072 25.3873 39.072 24.438V17.542H41.312ZM55.1723 19.718C56.2283 19.718 57.0816 20.054 57.7323 20.726C58.3829 21.3873 58.7083 22.3153 58.7083 23.51V28.71H56.4683V23.814C56.4683 23.11 56.2923 22.5713 55.9403 22.198C55.5883 21.814 55.1083 21.622 54.5003 21.622C53.8816 21.622 53.3909 21.814 53.0283 22.198C52.6763 22.5713 52.5003 23.11 52.5003 23.814V28.71H50.2603V19.846H52.5003V20.95C52.7989 20.566 53.1776 20.2673 53.6363 20.054C54.1056 19.83 54.6176 19.718 55.1723 19.718ZM60.2624 24.246C60.2624 23.35 60.4384 22.5553 60.7904 21.862C61.153 21.1686 61.6384 20.6353 62.2464 20.262C62.865 19.8886 63.553 19.702 64.3104 19.702C64.9717 19.702 65.5477 19.8353 66.0384 20.102C66.5397 20.3686 66.9397 20.7046 67.2384 21.11V19.846H69.4944V28.71H67.2384V27.414C66.9504 27.83 66.5504 28.1766 66.0384 28.454C65.537 28.7206 64.9557 28.854 64.2944 28.854C63.5477 28.854 62.865 28.662 62.2464 28.278C61.6384 27.894 61.153 27.3553 60.7904 26.662C60.4384 25.958 60.2624 25.1526 60.2624 24.246ZM67.2384 24.278C67.2384 23.734 67.1317 23.27 66.9184 22.886C66.705 22.4913 66.417 22.1926 66.0544 21.99C65.6917 21.7766 65.3024 21.67 64.8864 21.67C64.4704 21.67 64.0864 21.7713 63.7344 21.974C63.3824 22.1766 63.0944 22.4753 62.8704 22.87C62.657 23.254 62.5504 23.7126 62.5504 24.246C62.5504 24.7793 62.657 25.2486 62.8704 25.654C63.0944 26.0486 63.3824 26.3526 63.7344 26.566C64.097 26.7793 64.481 26.886 64.8864 26.886C65.3024 26.886 65.6917 26.7846 66.0544 26.582C66.417 26.3686 66.705 26.07 66.9184 25.686C67.1317 25.2913 67.2384 24.822 67.2384 24.278ZM73.9221 21.142C74.2101 20.7153 74.6048 20.3686 75.1061 20.102C75.6181 19.8353 76.1995 19.702 76.8501 19.702C77.6075 19.702 78.2901 19.8886 78.8981 20.262C79.5168 20.6353 80.0021 21.1686 80.3541 21.862C80.7168 22.5446 80.8981 23.3393 80.8981 24.246C80.8981 25.1526 80.7168 25.958 80.3541 26.662C80.0021 27.3553 79.5168 27.894 78.8981 28.278C78.2901 28.662 77.6075 28.854 76.8501 28.854C76.1888 28.854 75.6075 28.726 75.1061 28.47C74.6155 28.2033 74.2208 27.862 73.9221 27.446V28.71H71.6821V16.87H73.9221V21.142ZM78.6101 24.246C78.6101 23.7126 78.4981 23.254 78.2741 22.87C78.0608 22.4753 77.7728 22.1766 77.4101 21.974C77.0581 21.7713 76.6741 21.67 76.2581 21.67C75.8528 21.67 75.4688 21.7766 75.1061 21.99C74.7541 22.1926 74.4661 22.4913 74.2421 22.886C74.0288 23.2806 73.9221 23.7446 73.9221 24.278C73.9221 24.8113 74.0288 25.2753 74.2421 25.67C74.4661 26.0646 74.7541 26.3686 75.1061 26.582C75.4688 26.7846 75.8528 26.886 76.2581 26.886C76.6741 26.886 77.0581 26.7793 77.4101 26.566C77.7728 26.3526 78.0608 26.0486 78.2741 25.654C78.4981 25.2593 78.6101 24.79 78.6101 24.246ZM84.7659 16.87V28.71H82.5259V16.87H84.7659ZM95.219 24.086C95.219 24.406 95.1977 24.694 95.155 24.95H88.675C88.7283 25.59 88.9523 26.0913 89.347 26.454C89.7417 26.8166 90.227 26.998 90.803 26.998C91.635 26.998 92.227 26.6406 92.579 25.926H94.995C94.739 26.7793 94.2483 27.4833 93.523 28.038C92.7977 28.582 91.907 28.854 90.851 28.854C89.9977 28.854 89.2297 28.6673 88.547 28.294C87.875 27.91 87.347 27.3713 86.963 26.678C86.5897 25.9846 86.403 25.1846 86.403 24.278C86.403 23.3606 86.5897 22.5553 86.963 21.862C87.3363 21.1686 87.859 20.6353 88.531 20.262C89.203 19.8886 89.9763 19.702 90.851 19.702C91.6937 19.702 92.4457 19.8833 93.107 20.246C93.779 20.6086 94.2963 21.126 94.659 21.798C95.0323 22.4593 95.219 23.222 95.219 24.086ZM92.899 23.446C92.8883 22.87 92.6803 22.4113 92.275 22.07C91.8697 21.718 91.3737 21.542 90.787 21.542C90.2323 21.542 89.763 21.7126 89.379 22.054C89.0057 22.3846 88.7763 22.8486 88.691 23.446H92.899ZM103.275 21.686V25.974C103.275 26.2726 103.344 26.4913 103.483 26.63C103.632 26.758 103.877 26.822 104.219 26.822H105.259V28.71H103.851C101.963 28.71 101.019 27.7926 101.019 25.958V21.686H99.9625V19.846H101.019V17.654H103.275V19.846H105.259V21.686H103.275ZM110.806 28.854C109.952 28.854 109.184 28.6673 108.502 28.294C107.819 27.91 107.28 27.3713 106.886 26.678C106.502 25.9846 106.31 25.1846 106.31 24.278C106.31 23.3713 106.507 22.5713 106.902 21.878C107.307 21.1846 107.856 20.6513 108.55 20.278C109.243 19.894 110.016 19.702 110.87 19.702C111.723 19.702 112.496 19.894 113.19 20.278C113.883 20.6513 114.427 21.1846 114.822 21.878C115.227 22.5713 115.43 23.3713 115.43 24.278C115.43 25.1846 115.222 25.9846 114.806 26.678C114.4 27.3713 113.846 27.91 113.142 28.294C112.448 28.6673 111.67 28.854 110.806 28.854ZM110.806 26.902C111.211 26.902 111.59 26.806 111.942 26.614C112.304 26.4113 112.592 26.1126 112.806 25.718C113.019 25.3233 113.126 24.8433 113.126 24.278C113.126 23.4353 112.902 22.79 112.454 22.342C112.016 21.8833 111.478 21.654 110.838 21.654C110.198 21.654 109.659 21.8833 109.222 22.342C108.795 22.79 108.582 23.4353 108.582 24.278C108.582 25.1206 108.79 25.7713 109.206 26.23C109.632 26.678 110.166 26.902 110.806 26.902ZM124.357 19.702C125.019 19.702 125.6 19.8353 126.101 20.102C126.603 20.358 126.997 20.694 127.285 21.11V19.846H129.541V28.774C129.541 29.5953 129.376 30.326 129.045 30.966C128.715 31.6166 128.219 32.1286 127.557 32.502C126.896 32.886 126.096 33.078 125.157 33.078C123.899 33.078 122.864 32.7846 122.053 32.198C121.253 31.6113 120.8 30.8113 120.693 29.798H122.917C123.035 30.2033 123.285 30.5233 123.669 30.758C124.064 31.0033 124.539 31.126 125.093 31.126C125.744 31.126 126.272 30.9286 126.677 30.534C127.083 30.15 127.285 29.5633 127.285 28.774V27.398C126.997 27.814 126.597 28.1606 126.085 28.438C125.584 28.7153 125.008 28.854 124.357 28.854C123.611 28.854 122.928 28.662 122.309 28.278C121.691 27.894 121.2 27.3553 120.837 26.662C120.485 25.958 120.309 25.1526 120.309 24.246C120.309 23.35 120.485 22.5553 120.837 21.862C121.2 21.1686 121.685 20.6353 122.293 20.262C122.912 19.8886 123.6 19.702 124.357 19.702ZM127.285 24.278C127.285 23.734 127.179 23.27 126.965 22.886C126.752 22.4913 126.464 22.1926 126.101 21.99C125.739 21.7766 125.349 21.67 124.933 21.67C124.517 21.67 124.133 21.7713 123.781 21.974C123.429 22.1766 123.141 22.4753 122.917 22.87C122.704 23.254 122.597 23.7126 122.597 24.246C122.597 24.7793 122.704 25.2486 122.917 25.654C123.141 26.0486 123.429 26.3526 123.781 26.566C124.144 26.7793 124.528 26.886 124.933 26.886C125.349 26.886 125.739 26.7846 126.101 26.582C126.464 26.3686 126.752 26.07 126.965 25.686C127.179 25.2913 127.285 24.822 127.285 24.278ZM133.969 21.222C134.257 20.7526 134.63 20.3846 135.089 20.118C135.558 19.8513 136.092 19.718 136.689 19.718V22.07H136.097C135.393 22.07 134.86 22.2353 134.497 22.566C134.145 22.8966 133.969 23.4726 133.969 24.294V28.71H131.729V19.846H133.969V21.222ZM137.622 24.246C137.622 23.35 137.798 22.5553 138.15 21.862C138.512 21.1686 138.998 20.6353 139.606 20.262C140.224 19.8886 140.912 19.702 141.67 19.702C142.331 19.702 142.907 19.8353 143.398 20.102C143.899 20.3686 144.299 20.7046 144.598 21.11V19.846H146.854V28.71H144.598V27.414C144.31 27.83 143.91 28.1766 143.398 28.454C142.896 28.7206 142.315 28.854 141.654 28.854C140.907 28.854 140.224 28.662 139.606 28.278C138.998 27.894 138.512 27.3553 138.15 26.662C137.798 25.958 137.622 25.1526 137.622 24.246ZM144.598 24.278C144.598 23.734 144.491 23.27 144.278 22.886C144.064 22.4913 143.776 22.1926 143.414 21.99C143.051 21.7766 142.662 21.67 142.246 21.67C141.83 21.67 141.446 21.7713 141.094 21.974C140.742 22.1766 140.454 22.4753 140.23 22.87C140.016 23.254 139.91 23.7126 139.91 24.246C139.91 24.7793 140.016 25.2486 140.23 25.654C140.454 26.0486 140.742 26.3526 141.094 26.566C141.456 26.7793 141.84 26.886 142.246 26.886C142.662 26.886 143.051 26.7846 143.414 26.582C143.776 26.3686 144.064 26.07 144.278 25.686C144.491 25.2913 144.598 24.822 144.598 24.278ZM151.282 21.142C151.57 20.7153 151.964 20.3686 152.466 20.102C152.978 19.8353 153.559 19.702 154.21 19.702C154.967 19.702 155.65 19.8886 156.258 20.262C156.876 20.6353 157.362 21.1686 157.714 21.862C158.076 22.5446 158.258 23.3393 158.258 24.246C158.258 25.1526 158.076 25.958 157.714 26.662C157.362 27.3553 156.876 27.894 156.258 28.278C155.65 28.662 154.967 28.854 154.21 28.854C153.548 28.854 152.967 28.726 152.466 28.47C151.975 28.2033 151.58 27.862 151.282 27.446V28.71H149.042V16.87H151.282V21.142ZM155.97 24.246C155.97 23.7126 155.858 23.254 155.634 22.87C155.42 22.4753 155.132 22.1766 154.77 21.974C154.418 21.7713 154.034 21.67 153.618 21.67C153.212 21.67 152.828 21.7766 152.466 21.99C152.114 22.1926 151.826 22.4913 151.602 22.886C151.388 23.2806 151.282 23.7446 151.282 24.278C151.282 24.8113 151.388 25.2753 151.602 25.67C151.826 26.0646 152.114 26.3686 152.466 26.582C152.828 26.7846 153.212 26.886 153.618 26.886C154.034 26.886 154.418 26.7793 154.77 26.566C155.132 26.3526 155.42 26.0486 155.634 25.654C155.858 25.2593 155.97 24.79 155.97 24.246ZM172.066 19.846V28.71H169.81V27.59C169.522 27.974 169.143 28.278 168.674 28.502C168.215 28.7153 167.714 28.822 167.17 28.822C166.476 28.822 165.863 28.678 165.33 28.39C164.796 28.0913 164.375 27.6593 164.066 27.094C163.767 26.518 163.618 25.8353 163.618 25.046V19.846H165.858V24.726C165.858 25.43 166.034 25.974 166.386 26.358C166.738 26.7313 167.218 26.918 167.826 26.918C168.444 26.918 168.93 26.7313 169.282 26.358C169.634 25.974 169.81 25.43 169.81 24.726V19.846H172.066ZM176.516 21.222C176.804 20.7526 177.177 20.3846 177.636 20.118C178.105 19.8513 178.639 19.718 179.236 19.718V22.07H178.644C177.94 22.07 177.407 22.2353 177.044 22.566C176.692 22.8966 176.516 23.4726 176.516 24.294V28.71H174.276V19.846H176.516V21.222ZM182.985 16.87V28.71H180.745V16.87H182.985Z" fill="#CA2C2C"/>
<path d="M22.4161 27.0679C22.3775 27.1175 22.3432 27.1711 22.3124 27.2297C22.2821 27.2883 22.2565 27.3497 22.2356 27.415C22.2144 27.4798 22.1988 27.5468 22.1879 27.616C22.1775 27.6852 22.1719 27.7544 22.1719 27.8247C22.1719 27.8951 22.1775 27.9648 22.1879 28.0341C22.1988 28.1027 22.2144 28.1697 22.2356 28.235C22.2565 28.2997 22.2821 28.3617 22.3124 28.4203C22.3432 28.4784 22.3775 28.5325 22.4161 28.5822C22.4552 28.633 22.4977 28.6787 22.5441 28.7178C22.5892 28.7558 22.6374 28.787 22.6881 28.811C22.7385 28.8395 22.7901 28.8613 22.8439 28.8752C22.8973 28.8897 22.9506 28.897 23.0048 28.8964C23.0873 28.8964 23.168 28.8813 23.2469 28.8506C23.3259 28.8199 23.3992 28.7753 23.4678 28.7161C23.5363 28.6575 23.5966 28.5872 23.6491 28.5051C23.7012 28.4231 23.7432 28.3332 23.7745 28.2356C23.8062 28.1373 23.8261 28.0357 23.8339 27.9302C23.8422 27.8247 23.8378 27.7198 23.8218 27.616C23.8057 27.5122 23.7784 27.4134 23.7393 27.3202C23.7007 27.2264 23.6521 27.1427 23.5936 27.0679C23.5541 27.0199 23.5116 26.9774 23.466 26.9401C23.42 26.9027 23.3719 26.8708 23.3216 26.8452C23.2712 26.8195 23.2196 26.8 23.1662 26.7871C23.1129 26.7743 23.0591 26.7676 23.0048 26.7676C22.9506 26.7676 22.8973 26.7743 22.8439 26.7871C22.7905 26.8 22.7389 26.8195 22.6886 26.8452C22.6378 26.8708 22.5901 26.9027 22.5441 26.9401C22.4986 26.9774 22.456 27.0199 22.4161 27.0679Z" fill="#CA2C2C"/>
<path d="M22.8897 16.5544C22.8076 16.5628 22.7274 16.5798 22.6491 16.6047C22.5703 16.6302 22.4945 16.6641 22.4221 16.7054C22.3492 16.7473 22.2811 16.796 22.2174 16.8522C22.1537 16.9089 22.0954 16.9715 22.0429 17.0398C21.9904 17.1087 21.9447 17.1824 21.9053 17.2614C21.8664 17.3398 21.8343 17.422 21.81 17.5073C21.7857 17.5926 21.7692 17.6801 21.7609 17.7686C21.7522 17.8576 21.7517 17.9467 21.759 18.0357L22.3302 24.8196C22.3341 24.8652 22.3414 24.9097 22.353 24.9537C22.3642 24.9977 22.3793 25.0401 22.3982 25.0809C22.4167 25.1217 22.4386 25.1599 22.4639 25.1965C22.4887 25.233 22.5169 25.2664 22.548 25.2972C22.5786 25.3279 22.6117 25.3555 22.6476 25.3793C22.6831 25.4032 22.7201 25.4233 22.7594 25.4403C22.7983 25.4567 22.8382 25.4689 22.8795 25.4774C22.9204 25.4858 22.9617 25.4901 23.0035 25.4901C23.0453 25.4901 23.0871 25.4858 23.1279 25.4774C23.1693 25.4689 23.2091 25.4567 23.248 25.4403C23.2874 25.4233 23.3243 25.4032 23.3598 25.3793C23.3953 25.3555 23.4289 25.3279 23.4595 25.2972C23.4906 25.2664 23.5183 25.233 23.5436 25.1965C23.5689 25.1599 23.5907 25.1217 23.6092 25.0809C23.6282 25.0401 23.6428 24.9977 23.6544 24.9537C23.6656 24.9097 23.6734 24.8652 23.6773 24.8196L24.248 18.0357C24.2548 17.953 24.2548 17.8698 24.248 17.7871C24.2407 17.6976 24.2251 17.6101 24.2018 17.5248C24.1785 17.4389 24.1478 17.3562 24.1099 17.2773C24.0715 17.1978 24.0268 17.1236 23.9748 17.0541C23.9233 16.9847 23.8659 16.9211 23.8032 16.8639C23.74 16.8066 23.6724 16.7568 23.6 16.7139C23.528 16.6715 23.4527 16.637 23.3744 16.61C23.2961 16.5835 23.2159 16.5655 23.1343 16.5565C23.0531 16.5469 22.9714 16.5464 22.8897 16.5544Z" fill="#CA2C2C"/>
<path d="M23 12.71C22.8365 12.71 22.6729 12.7142 22.5094 12.7227C22.3458 12.7307 22.1828 12.743 22.0198 12.7595C21.8573 12.776 21.6948 12.7962 21.5328 12.8207C21.3708 12.8452 21.2099 12.8739 21.0495 12.9064C20.8885 12.9394 20.7292 12.9756 20.5703 13.0166C20.4115 13.0571 20.2542 13.1018 20.0974 13.1502C19.9406 13.1987 19.7854 13.2514 19.6313 13.3078C19.4771 13.3643 19.3245 13.4244 19.1734 13.4883C19.0224 13.5522 18.8724 13.6198 18.7245 13.6917C18.5766 13.763 18.4307 13.8381 18.2865 13.9174C18.1417 13.9962 17.9995 14.0782 17.8594 14.1645C17.7188 14.2507 17.5807 14.3401 17.4443 14.4328C17.3083 14.5259 17.1745 14.6223 17.0432 14.7219C16.912 14.8214 16.7828 14.9242 16.6563 15.0307C16.5297 15.1366 16.4057 15.2457 16.2844 15.3581C16.1635 15.4704 16.0448 15.5859 15.9292 15.7041C15.8135 15.8223 15.7005 15.9437 15.5906 16.0672C15.4807 16.1913 15.374 16.318 15.2703 16.4473C15.1661 16.5767 15.0656 16.7087 14.9682 16.8429C14.8708 16.9771 14.7766 17.1139 14.6854 17.2528C14.5948 17.3923 14.5073 17.5334 14.4229 17.6772C14.3385 17.8204 14.2583 17.9657 14.1813 18.1137C14.1036 18.2612 14.0302 18.4103 13.9604 18.5615C13.8901 18.7127 13.824 18.866 13.7615 19.0204C13.699 19.1748 13.6401 19.3308 13.5849 19.4884C13.5297 19.6459 13.4781 19.8046 13.4307 19.9648C13.3833 20.1251 13.3396 20.2859 13.3 20.4483C13.2599 20.6106 13.2245 20.7735 13.1922 20.9381C13.1604 21.102 13.1323 21.2665 13.1083 21.4321C13.0844 21.5977 13.0646 21.7638 13.0484 21.9299C13.0323 22.0965 13.0203 22.2632 13.0125 22.4303C13.0042 22.5975 13 22.7647 13 22.9319C13 23.0996 13.0042 23.2667 13.0125 23.4334C13.0203 23.6005 13.0323 23.7677 13.0484 23.9338C13.0646 24.1005 13.0844 24.2666 13.1083 24.4321C13.1323 24.5972 13.1604 24.7622 13.1922 24.9262C13.2245 25.0902 13.2599 25.2536 13.3 25.416C13.3396 25.5778 13.3833 25.7392 13.4307 25.8994C13.4781 26.0597 13.5297 26.2183 13.5849 26.3759C13.6401 26.5335 13.699 26.6895 13.7615 26.8439C13.824 26.9983 13.8901 27.1511 13.9604 27.3023C14.0302 27.4535 14.1036 27.6031 14.1813 27.7505C14.2583 27.898 14.3385 28.0439 14.4229 28.1871C14.5073 28.3308 14.5948 28.4719 14.6854 28.6109C14.7766 28.7504 14.8708 28.8866 14.9682 29.0213C15.0656 29.1555 15.1661 29.2875 15.2703 29.4169C15.374 29.5463 15.4807 29.6725 15.5906 29.7965C15.7005 29.9205 15.8135 30.0419 15.9292 30.1601C16.0448 30.2783 16.1635 30.3938 16.2844 30.5062C16.4057 30.6185 16.5297 30.7277 16.6563 30.8336C16.7828 30.9401 16.912 31.0428 17.0432 31.1424C17.1745 31.2419 17.3083 31.3383 17.4443 31.4315C17.5807 31.5241 17.7188 31.6136 17.8594 31.6998C17.9995 31.7855 18.1417 31.868 18.2865 31.9468C18.4307 32.0256 18.5766 32.1012 18.7245 32.1726C18.8724 32.2439 19.0224 32.312 19.1734 32.3759C19.3245 32.4398 19.4771 32.5 19.6313 32.5564C19.7854 32.6128 19.9406 32.665 20.0974 32.714C20.2542 32.7625 20.4115 32.8072 20.5703 32.8476C20.7292 32.8881 20.8885 32.9248 21.0495 32.9573C21.2099 32.9903 21.3708 33.0185 21.5328 33.0436C21.6948 33.068 21.8573 33.0883 22.0198 33.1048C22.1828 33.1213 22.3458 33.1335 22.5094 33.1415C22.6729 33.15 22.8365 33.1538 23 33.1538C23.1641 33.1538 23.3276 33.15 23.4906 33.1415C23.6542 33.1335 23.8177 33.1213 23.9802 33.1048C24.1432 33.0883 24.3057 33.068 24.4677 33.0436C24.6292 33.0185 24.7906 32.9903 24.951 32.9573C25.1115 32.9248 25.2714 32.8881 25.4302 32.8476C25.5885 32.8072 25.7464 32.7625 25.9031 32.714C26.0599 32.665 26.2151 32.6128 26.3693 32.5564C26.5234 32.5 26.676 32.4398 26.8271 32.3759C26.9781 32.312 27.1276 32.2439 27.2755 32.1726C27.4234 32.1012 27.5698 32.0256 27.7141 31.9468C27.8583 31.868 28.001 31.7855 28.1411 31.6998C28.2818 31.6136 28.4198 31.5241 28.5557 31.4315C28.6922 31.3383 28.8255 31.2419 28.9573 31.1424C29.0885 31.0428 29.2177 30.9401 29.3443 30.8336C29.4708 30.7277 29.5943 30.6185 29.7156 30.5062C29.837 30.3938 29.9557 30.2783 30.0714 30.1601C30.187 30.0419 30.3 29.9205 30.4099 29.7965C30.5198 29.6725 30.6266 29.5463 30.7302 29.4169C30.8344 29.2875 30.9349 29.1555 31.0323 29.0213C31.1297 28.8866 31.224 28.7504 31.3151 28.6109C31.4057 28.4719 31.4932 28.3308 31.5776 28.1871C31.6615 28.0439 31.7422 27.898 31.8193 27.7505C31.8964 27.6031 31.9703 27.4535 32.0401 27.3023C32.1099 27.1511 32.1766 26.9983 32.2391 26.8439C32.3016 26.6895 32.3604 26.5335 32.4156 26.3759C32.4708 26.2183 32.5219 26.0597 32.5698 25.8994C32.6172 25.7392 32.6609 25.5778 32.7005 25.416C32.7401 25.2536 32.776 25.0902 32.8078 24.9262C32.8401 24.7622 32.8677 24.5972 32.8922 24.4321C32.9161 24.2666 32.9359 24.1005 32.9521 23.9338C32.9682 23.7677 32.9802 23.6005 32.988 23.4334C32.9964 23.2667 33 23.0996 33 22.9319C33 22.7647 32.9958 22.5975 32.9875 22.4309C32.9792 22.2637 32.9672 22.0971 32.951 21.9304C32.9349 21.7643 32.9146 21.5982 32.8906 21.4326C32.8661 21.2676 32.838 21.1026 32.8063 20.9386C32.774 20.7746 32.738 20.6117 32.6984 20.4493C32.6583 20.2869 32.6146 20.1262 32.5672 19.9659C32.5193 19.8062 32.4682 19.6475 32.413 19.49C32.3578 19.3324 32.2984 19.1764 32.2359 19.022C32.1734 18.8676 32.1068 18.7148 32.037 18.5636C31.9667 18.4124 31.8932 18.2633 31.8161 18.1159C31.7391 17.9684 31.6583 17.823 31.574 17.6793C31.4901 17.5361 31.4026 17.395 31.3115 17.256C31.2203 17.1166 31.126 16.9803 31.0286 16.8456C30.9313 16.7114 30.8307 16.5799 30.7271 16.4505C30.6229 16.3212 30.5161 16.1945 30.4062 16.0709C30.2964 15.9469 30.1839 15.8255 30.0677 15.7073C29.9521 15.5891 29.8339 15.4741 29.7125 15.3618C29.5911 15.2495 29.4677 15.1403 29.3411 15.0338C29.2146 14.9279 29.0859 14.8251 28.9542 14.7256C28.8229 14.6255 28.6891 14.5291 28.5531 14.4365C28.4172 14.3433 28.2792 14.2539 28.1385 14.1682C27.9984 14.0819 27.8563 13.9994 27.712 13.9206C27.5677 13.8418 27.4214 13.7662 27.274 13.6949C27.126 13.6235 26.9766 13.5554 26.8255 13.4915C26.674 13.4271 26.5214 13.3669 26.3677 13.3105C26.2135 13.2541 26.0583 13.2014 25.9016 13.1529C25.7453 13.1045 25.5875 13.0597 25.4292 13.0187C25.2703 12.9783 25.1109 12.941 24.9505 12.9085C24.7901 12.8755 24.6286 12.8468 24.4672 12.8223C24.3052 12.7978 24.1427 12.777 23.9802 12.7605C23.8172 12.744 23.6542 12.7313 23.4906 12.7233C23.3271 12.7148 23.1641 12.7105 23 12.71ZM23 31.7908C22.8583 31.7908 22.7167 31.7876 22.575 31.7802C22.4333 31.7733 22.2917 31.7626 22.1505 31.7482C22.0094 31.7344 21.8688 31.7163 21.7286 31.695C21.588 31.6737 21.4484 31.6492 21.3094 31.621C21.1703 31.5928 21.0318 31.5608 20.8943 31.5257C20.7568 31.4906 20.6203 31.4517 20.4844 31.4096C20.3484 31.3676 20.2141 31.3218 20.0807 31.2734C19.9469 31.2244 19.8146 31.1722 19.6839 31.1168C19.5526 31.0615 19.4229 31.0024 19.2948 30.9406C19.1667 30.8783 19.0401 30.8134 18.9146 30.7452C18.7896 30.6765 18.6661 30.6052 18.5448 30.5307C18.4229 30.4561 18.3031 30.3784 18.1854 30.298C18.0672 30.2176 17.9516 30.134 17.8375 30.0478C17.7234 29.9615 17.612 29.8721 17.5021 29.78C17.3927 29.6884 17.2849 29.5937 17.1802 29.4962C17.075 29.3988 16.9724 29.2987 16.8719 29.1965C16.7719 29.0937 16.674 28.9889 16.5786 28.8813C16.4833 28.7738 16.3906 28.6641 16.3005 28.5523C16.2109 28.44 16.1234 28.326 16.0391 28.2094C15.9547 28.0929 15.8729 27.9747 15.7943 27.8538C15.7151 27.7335 15.6396 27.611 15.5667 27.4865C15.4938 27.3619 15.424 27.2362 15.3568 27.1079C15.2901 26.9802 15.226 26.8508 15.1656 26.7198C15.1052 26.5889 15.0474 26.4563 14.9932 26.3221C14.9391 26.1885 14.888 26.0533 14.8401 25.9164C14.7922 25.7801 14.7479 25.6423 14.7068 25.5038C14.6656 25.3649 14.6276 25.2254 14.5932 25.0848C14.5589 24.9438 14.5276 24.8027 14.5 24.6605C14.4724 24.5184 14.4479 24.3752 14.4271 24.232C14.4068 24.0887 14.3891 23.9445 14.3755 23.8002C14.3615 23.6559 14.351 23.5116 14.3438 23.3668C14.337 23.222 14.3333 23.0772 14.3333 22.9319C14.3333 22.787 14.337 22.6422 14.3438 22.4974C14.351 22.3526 14.3615 22.2078 14.3755 22.0635C14.3891 21.9193 14.4068 21.7755 14.4271 21.6323C14.4479 21.4885 14.4724 21.3459 14.5 21.2037C14.5276 21.0616 14.5589 20.92 14.5932 20.7794C14.6276 20.6389 14.6656 20.4994 14.7068 20.3604C14.7479 20.2215 14.7922 20.0841 14.8401 19.9478C14.888 19.811 14.9391 19.6758 14.9932 19.5421C15.0474 19.408 15.1052 19.2754 15.1656 19.1444C15.226 19.0135 15.2901 18.8841 15.3568 18.7558C15.424 18.628 15.4938 18.5018 15.5667 18.3778C15.6396 18.2532 15.7151 18.1308 15.7943 18.0104C15.8729 17.8896 15.9547 17.7714 16.0391 17.6548C16.1234 17.5382 16.2109 17.4243 16.3005 17.3119C16.3906 17.2001 16.4833 17.0899 16.5786 16.9829C16.674 16.8754 16.7719 16.7705 16.8719 16.6678C16.9724 16.5655 17.075 16.4654 17.1802 16.368C17.2849 16.2706 17.3927 16.1758 17.5021 16.0837C17.612 15.9921 17.7234 15.9027 17.8375 15.8165C17.9516 15.7302 18.0672 15.6466 18.1854 15.5662C18.3031 15.4853 18.4229 15.4081 18.5448 15.3336C18.6661 15.259 18.7896 15.1877 18.9146 15.119C19.0401 15.0509 19.1667 14.9854 19.2948 14.9236C19.4229 14.8619 19.5526 14.8028 19.6839 14.7474C19.8146 14.6921 19.9469 14.6399 20.0807 14.5909C20.2141 14.5419 20.3484 14.4967 20.4844 14.4546C20.6203 14.4125 20.7568 14.3737 20.8943 14.3385C21.0318 14.3034 21.1703 14.2715 21.3094 14.2432C21.4484 14.215 21.588 14.19 21.7286 14.1687C21.8688 14.1479 22.0094 14.1298 22.1505 14.116C22.2917 14.1016 22.4333 14.091 22.575 14.0835C22.7167 14.0766 22.8583 14.0729 23 14.0729C23.1422 14.0729 23.2839 14.0766 23.4255 14.0835C23.5672 14.091 23.7083 14.1016 23.8495 14.116C23.9906 14.1298 24.1318 14.1479 24.2719 14.1687C24.412 14.19 24.5521 14.215 24.6911 14.2432C24.8302 14.2715 24.9682 14.3034 25.1063 14.3385C25.2438 14.3737 25.3802 14.4125 25.5161 14.4546C25.6516 14.4967 25.7865 14.5419 25.9198 14.5909C26.0536 14.6399 26.1859 14.6921 26.3167 14.7474C26.4479 14.8028 26.5776 14.8619 26.7057 14.9236C26.8339 14.9854 26.9604 15.0509 27.0854 15.119C27.2109 15.1877 27.3339 15.259 27.4557 15.3336C27.5776 15.4081 27.6974 15.4853 27.8151 15.5662C27.9333 15.6466 28.049 15.7302 28.163 15.8165C28.2771 15.9027 28.3885 15.9921 28.4984 16.0837C28.6078 16.1758 28.7151 16.2706 28.8203 16.368C28.9255 16.4654 29.0281 16.5655 29.1286 16.6678C29.2286 16.7705 29.3266 16.8754 29.4219 16.9829C29.5172 17.0899 29.6099 17.2001 29.6995 17.3119C29.7896 17.4243 29.8771 17.5382 29.9615 17.6548C30.0458 17.7714 30.1276 17.8896 30.2063 18.0104C30.2849 18.1308 30.3609 18.2532 30.4339 18.3778C30.5068 18.5018 30.5766 18.628 30.6438 18.7558C30.7104 18.8841 30.774 19.0135 30.8349 19.1444C30.8953 19.2754 30.9531 19.408 31.0073 19.5421C31.0615 19.6758 31.1125 19.811 31.1604 19.9478C31.2078 20.0841 31.2526 20.2215 31.2938 20.3604C31.3349 20.4994 31.3729 20.6389 31.4073 20.7794C31.4417 20.92 31.4729 21.0616 31.5005 21.2037C31.5281 21.3459 31.5521 21.4885 31.5729 21.6323C31.5938 21.7755 31.6115 21.9193 31.625 22.0635C31.6391 22.2078 31.6495 22.3526 31.6563 22.4974C31.6635 22.6422 31.6667 22.787 31.6667 22.9319C31.6667 23.0772 31.663 23.222 31.6557 23.3668C31.649 23.5116 31.6385 23.6559 31.6245 23.8002C31.6104 23.9445 31.5927 24.0882 31.5719 24.2314C31.551 24.3746 31.5266 24.5173 31.499 24.6595C31.4708 24.8016 31.4396 24.9432 31.4052 25.0838C31.3708 25.2243 31.3328 25.3638 31.2917 25.5028C31.2505 25.6412 31.2057 25.7791 31.1578 25.9154C31.1099 26.0517 31.0589 26.1869 31.0047 26.3205C30.9505 26.4547 30.8927 26.5873 30.8323 26.7182C30.7714 26.8492 30.7078 26.9786 30.6406 27.1063C30.574 27.2341 30.5036 27.3603 30.4307 27.4843C30.3578 27.6089 30.2823 27.7308 30.2031 27.8517C30.1245 27.972 30.0427 28.0907 29.9583 28.2068C29.874 28.3234 29.7865 28.4373 29.6969 28.5496C29.6068 28.6614 29.5141 28.7711 29.4188 28.8787C29.3234 28.9862 29.226 29.0911 29.1255 29.1933C29.0255 29.2961 28.9229 29.3956 28.8177 29.493C28.7125 29.5905 28.6052 29.6852 28.4958 29.7773C28.3859 29.8689 28.2745 29.9583 28.1604 30.0446C28.0469 30.1308 27.9307 30.2144 27.813 30.2948C27.6948 30.3757 27.5755 30.4529 27.4536 30.5275C27.3323 30.602 27.2089 30.6739 27.0839 30.742C26.9589 30.8107 26.8323 30.8757 26.7042 30.9379C26.576 30.9997 26.4464 31.0583 26.3151 31.1142C26.1844 31.1695 26.0521 31.2217 25.9188 31.2707C25.7854 31.3197 25.6505 31.3655 25.5151 31.4075C25.3792 31.4496 25.2427 31.4884 25.1052 31.5236C24.9677 31.5587 24.8292 31.5907 24.6901 31.6194C24.551 31.6476 24.4115 31.6726 24.2714 31.6939C24.1313 31.7152 23.9906 31.7333 23.8495 31.7477C23.7083 31.7621 23.5672 31.7727 23.4255 31.7797C23.2839 31.7871 23.1422 31.7908 23 31.7908Z" fill="#CA2C2C"/>
</svg>
