<svg width="401" height="104" viewBox="0 0 401 104" fill="none" xmlns="http://www.w3.org/2000/svg">
<rect y="0.709961" width="401" height="103" rx="6" fill="#EDEEFF"/>
<path d="M19.272 58.822C18.2373 58.822 17.2827 58.582 16.408 58.102C15.544 57.6113 14.856 56.934 14.344 56.07C13.8427 55.1953 13.592 54.214 13.592 53.126C13.592 52.038 13.8427 51.062 14.344 50.198C14.856 49.334 15.544 48.662 16.408 48.182C17.2827 47.6913 18.2373 47.446 19.272 47.446C20.3173 47.446 21.272 47.6913 22.136 48.182C23.0107 48.662 23.6987 49.334 24.2 50.198C24.7013 51.062 24.952 52.038 24.952 53.126C24.952 54.214 24.7013 55.1953 24.2 56.07C23.6987 56.934 23.0107 57.6113 22.136 58.102C21.272 58.582 20.3173 58.822 19.272 58.822ZM19.272 57.238C20.008 57.238 20.664 57.0726 21.24 56.742C21.816 56.4006 22.264 55.9206 22.584 55.302C22.9147 54.6726 23.08 53.9473 23.08 53.126C23.08 52.3046 22.9147 51.5846 22.584 50.966C22.264 50.3473 21.816 49.8726 21.24 49.542C20.664 49.2113 20.008 49.046 19.272 49.046C18.536 49.046 17.88 49.2113 17.304 49.542C16.728 49.8726 16.2747 50.3473 15.944 50.966C15.624 51.5846 15.464 52.3046 15.464 53.126C15.464 53.9473 15.624 54.6726 15.944 55.302C16.2747 55.9206 16.728 56.4006 17.304 56.742C17.88 57.0726 18.536 57.238 19.272 57.238ZM30.5709 58.854C29.7389 58.854 28.9869 58.6673 28.3149 58.294C27.6429 57.91 27.1149 57.3766 26.7309 56.694C26.3469 56.0006 26.1549 55.2006 26.1549 54.294C26.1549 53.398 26.3522 52.6033 26.7469 51.91C27.1415 51.2166 27.6802 50.6833 28.3629 50.31C29.0455 49.9366 29.8082 49.75 30.6509 49.75C31.4935 49.75 32.2562 49.9366 32.9389 50.31C33.6215 50.6833 34.1602 51.2166 34.5549 51.91C34.9495 52.6033 35.1469 53.398 35.1469 54.294C35.1469 55.19 34.9442 55.9846 34.5389 56.678C34.1335 57.3713 33.5789 57.91 32.8749 58.294C32.1815 58.6673 31.4135 58.854 30.5709 58.854ZM30.5709 57.27C31.0402 57.27 31.4775 57.158 31.8829 56.934C32.2989 56.71 32.6349 56.374 32.8909 55.926C33.1469 55.478 33.2749 54.934 33.2749 54.294C33.2749 53.654 33.1522 53.1153 32.9069 52.678C32.6615 52.23 32.3362 51.894 31.9309 51.67C31.5255 51.446 31.0882 51.334 30.6189 51.334C30.1495 51.334 29.7122 51.446 29.3069 51.67C28.9122 51.894 28.5975 52.23 28.3629 52.678C28.1282 53.1153 28.0109 53.654 28.0109 54.294C28.0109 55.2433 28.2509 55.9793 28.7309 56.502C29.2215 57.014 29.8349 57.27 30.5709 57.27ZM38.774 51.19C39.0833 50.7846 39.5047 50.4433 40.038 50.166C40.5713 49.8886 41.174 49.75 41.846 49.75C42.614 49.75 43.3127 49.942 43.942 50.326C44.582 50.6993 45.0833 51.2273 45.446 51.91C45.8087 52.5926 45.99 53.3766 45.99 54.262C45.99 55.1473 45.8087 55.942 45.446 56.646C45.0833 57.3393 44.582 57.8833 43.942 58.278C43.3127 58.662 42.614 58.854 41.846 58.854C41.174 58.854 40.5767 58.7206 40.054 58.454C39.5313 58.1766 39.1047 57.8353 38.774 57.43V62.902H36.95V49.894H38.774V51.19ZM44.134 54.262C44.134 53.654 44.006 53.1313 43.75 52.694C43.5047 52.246 43.174 51.91 42.758 51.686C42.3527 51.4513 41.9153 51.334 41.446 51.334C40.9873 51.334 40.55 51.4513 40.134 51.686C39.7287 51.9206 39.398 52.262 39.142 52.71C38.8967 53.158 38.774 53.686 38.774 54.294C38.774 54.902 38.8967 55.4353 39.142 55.894C39.398 56.342 39.7287 56.6833 40.134 56.918C40.55 57.1526 40.9873 57.27 41.446 57.27C41.9153 57.27 42.3527 57.1526 42.758 56.918C43.174 56.6726 43.5047 56.3206 43.75 55.862C44.006 55.4033 44.134 54.87 44.134 54.262ZM50.9938 58.854C50.3004 58.854 49.6764 58.7313 49.1218 58.486C48.5778 58.23 48.1458 57.8886 47.8258 57.462C47.5058 57.0246 47.3351 56.5393 47.3138 56.006H49.2018C49.2338 56.3793 49.4098 56.694 49.7298 56.95C50.0604 57.1953 50.4711 57.318 50.9618 57.318C51.4738 57.318 51.8684 57.222 52.1458 57.03C52.4338 56.8273 52.5778 56.5713 52.5778 56.262C52.5778 55.9313 52.4178 55.686 52.0978 55.526C51.7884 55.366 51.2924 55.19 50.6098 54.998C49.9484 54.8166 49.4098 54.6406 48.9938 54.47C48.5778 54.2993 48.2151 54.038 47.9058 53.686C47.6071 53.334 47.4578 52.87 47.4578 52.294C47.4578 51.8246 47.5964 51.398 47.8738 51.014C48.1511 50.6193 48.5458 50.31 49.0578 50.086C49.5804 49.862 50.1778 49.75 50.8498 49.75C51.8524 49.75 52.6578 50.006 53.2658 50.518C53.8844 51.0193 54.2151 51.7073 54.2578 52.582H52.4338C52.4018 52.1873 52.2418 51.8726 51.9538 51.638C51.6658 51.4033 51.2764 51.286 50.7858 51.286C50.3058 51.286 49.9378 51.3766 49.6818 51.558C49.4258 51.7393 49.2978 51.9793 49.2978 52.278C49.2978 52.5126 49.3831 52.71 49.5538 52.87C49.7244 53.03 49.9324 53.158 50.1778 53.254C50.4231 53.3393 50.7858 53.4513 51.2658 53.59C51.9058 53.7606 52.4284 53.9366 52.8338 54.118C53.2498 54.2886 53.6071 54.5446 53.9058 54.886C54.2044 55.2273 54.3591 55.6806 54.3698 56.246C54.3698 56.7473 54.2311 57.1953 53.9538 57.59C53.6764 57.9846 53.2818 58.294 52.7698 58.518C52.2684 58.742 51.6764 58.854 50.9938 58.854ZM58.6286 47.59L58.4206 55.35H56.9006L56.6926 47.59H58.6286ZM57.7166 58.822C57.386 58.822 57.1086 58.71 56.8846 58.486C56.6606 58.262 56.5486 57.9846 56.5486 57.654C56.5486 57.3233 56.6606 57.046 56.8846 56.822C57.1086 56.598 57.386 56.486 57.7166 56.486C58.0366 56.486 58.3086 56.598 58.5326 56.822C58.7566 57.046 58.8686 57.3233 58.8686 57.654C58.8686 57.9846 58.7566 58.262 58.5326 58.486C58.3086 58.71 58.0366 58.822 57.7166 58.822ZM73.8775 47.59L70.1975 54.678V58.71H68.3735V54.678L64.6775 47.59H66.7095L69.2855 53.046L71.8615 47.59H73.8775ZM79.149 58.854C78.317 58.854 77.565 58.6673 76.893 58.294C76.221 57.91 75.693 57.3766 75.309 56.694C74.925 56.0006 74.733 55.2006 74.733 54.294C74.733 53.398 74.9303 52.6033 75.325 51.91C75.7197 51.2166 76.2583 50.6833 76.941 50.31C77.6237 49.9366 78.3863 49.75 79.229 49.75C80.0717 49.75 80.8343 49.9366 81.517 50.31C82.1997 50.6833 82.7383 51.2166 83.133 51.91C83.5277 52.6033 83.725 53.398 83.725 54.294C83.725 55.19 83.5223 55.9846 83.117 56.678C82.7117 57.3713 82.157 57.91 81.453 58.294C80.7597 58.6673 79.9917 58.854 79.149 58.854ZM79.149 57.27C79.6183 57.27 80.0557 57.158 80.461 56.934C80.877 56.71 81.213 56.374 81.469 55.926C81.725 55.478 81.853 54.934 81.853 54.294C81.853 53.654 81.7303 53.1153 81.485 52.678C81.2397 52.23 80.9143 51.894 80.509 51.67C80.1037 51.446 79.6663 51.334 79.197 51.334C78.7277 51.334 78.2903 51.446 77.885 51.67C77.4903 51.894 77.1757 52.23 76.941 52.678C76.7063 53.1153 76.589 53.654 76.589 54.294C76.589 55.2433 76.829 55.9793 77.309 56.502C77.7997 57.014 78.413 57.27 79.149 57.27ZM93.5121 49.894V58.71H91.6881V57.67C91.4001 58.0326 91.0215 58.3206 90.5521 58.534C90.0935 58.7366 89.6028 58.838 89.0801 58.838C88.3868 58.838 87.7628 58.694 87.2081 58.406C86.6641 58.118 86.2321 57.6913 85.9121 57.126C85.6028 56.5606 85.4481 55.878 85.4481 55.078V49.894H87.2561V54.806C87.2561 55.5953 87.4535 56.2033 87.8481 56.63C88.2428 57.046 88.7815 57.254 89.4641 57.254C90.1468 57.254 90.6855 57.046 91.0801 56.63C91.4855 56.2033 91.6881 55.5953 91.6881 54.806V49.894H93.5121ZM99.467 54.262C99.467 53.3766 99.6483 52.5926 100.011 51.91C100.384 51.2273 100.886 50.6993 101.515 50.326C102.155 49.942 102.864 49.75 103.643 49.75C104.219 49.75 104.784 49.878 105.339 50.134C105.904 50.3793 106.352 50.71 106.683 51.126V46.87H108.523V58.71H106.683V57.382C106.384 57.8086 105.968 58.1606 105.435 58.438C104.912 58.7153 104.31 58.854 103.627 58.854C102.859 58.854 102.155 58.662 101.515 58.278C100.886 57.8833 100.384 57.3393 100.011 56.646C99.6483 55.942 99.467 55.1473 99.467 54.262ZM106.683 54.294C106.683 53.686 106.555 53.158 106.299 52.71C106.054 52.262 105.728 51.9206 105.323 51.686C104.918 51.4513 104.48 51.334 104.011 51.334C103.542 51.334 103.104 51.4513 102.699 51.686C102.294 51.91 101.963 52.246 101.707 52.694C101.462 53.1313 101.339 53.654 101.339 54.262C101.339 54.87 101.462 55.4033 101.707 55.862C101.963 56.3206 102.294 56.6726 102.699 56.918C103.115 57.1526 103.552 57.27 104.011 57.27C104.48 57.27 104.918 57.1526 105.323 56.918C105.728 56.6833 106.054 56.342 106.299 55.894C106.555 55.4353 106.683 54.902 106.683 54.294ZM114.743 58.854C113.911 58.854 113.159 58.6673 112.487 58.294C111.815 57.91 111.287 57.3766 110.903 56.694C110.519 56.0006 110.327 55.2006 110.327 54.294C110.327 53.398 110.524 52.6033 110.919 51.91C111.313 51.2166 111.852 50.6833 112.535 50.31C113.217 49.9366 113.98 49.75 114.823 49.75C115.665 49.75 116.428 49.9366 117.111 50.31C117.793 50.6833 118.332 51.2166 118.727 51.91C119.121 52.6033 119.319 53.398 119.319 54.294C119.319 55.19 119.116 55.9846 118.711 56.678C118.305 57.3713 117.751 57.91 117.047 58.294C116.353 58.6673 115.585 58.854 114.743 58.854ZM114.743 57.27C115.212 57.27 115.649 57.158 116.055 56.934C116.471 56.71 116.807 56.374 117.063 55.926C117.319 55.478 117.447 54.934 117.447 54.294C117.447 53.654 117.324 53.1153 117.079 52.678C116.833 52.23 116.508 51.894 116.103 51.67C115.697 51.446 115.26 51.334 114.791 51.334C114.321 51.334 113.884 51.446 113.479 51.67C113.084 51.894 112.769 52.23 112.535 52.678C112.3 53.1153 112.183 53.654 112.183 54.294C112.183 55.2433 112.423 55.9793 112.903 56.502C113.393 57.014 114.007 57.27 114.743 57.27ZM129.726 49.75C130.419 49.75 131.038 49.894 131.582 50.182C132.137 50.47 132.569 50.8966 132.878 51.462C133.187 52.0273 133.342 52.71 133.342 53.51V58.71H131.534V53.782C131.534 52.9926 131.337 52.39 130.942 51.974C130.547 51.5473 130.009 51.334 129.326 51.334C128.643 51.334 128.099 51.5473 127.694 51.974C127.299 52.39 127.102 52.9926 127.102 53.782V58.71H125.278V49.894H127.102V50.902C127.401 50.5393 127.779 50.2566 128.238 50.054C128.707 49.8513 129.203 49.75 129.726 49.75ZM139.493 58.854C138.661 58.854 137.909 58.6673 137.237 58.294C136.565 57.91 136.037 57.3766 135.653 56.694C135.269 56.0006 135.077 55.2006 135.077 54.294C135.077 53.398 135.274 52.6033 135.669 51.91C136.063 51.2166 136.602 50.6833 137.285 50.31C137.967 49.9366 138.73 49.75 139.573 49.75C140.415 49.75 141.178 49.9366 141.861 50.31C142.543 50.6833 143.082 51.2166 143.477 51.91C143.871 52.6033 144.069 53.398 144.069 54.294C144.069 55.19 143.866 55.9846 143.461 56.678C143.055 57.3713 142.501 57.91 141.797 58.294C141.103 58.6673 140.335 58.854 139.493 58.854ZM139.493 57.27C139.962 57.27 140.399 57.158 140.805 56.934C141.221 56.71 141.557 56.374 141.813 55.926C142.069 55.478 142.197 54.934 142.197 54.294C142.197 53.654 142.074 53.1153 141.829 52.678C141.583 52.23 141.258 51.894 140.853 51.67C140.447 51.446 140.01 51.334 139.541 51.334C139.071 51.334 138.634 51.446 138.229 51.67C137.834 51.894 137.519 52.23 137.285 52.678C137.05 53.1153 136.933 53.654 136.933 54.294C136.933 55.2433 137.173 55.9793 137.653 56.502C138.143 57.014 138.757 57.27 139.493 57.27ZM148 51.382V56.262C148 56.5926 148.075 56.8326 148.224 56.982C148.384 57.1206 148.651 57.19 149.024 57.19H150.144V58.71H148.704C147.883 58.71 147.253 58.518 146.816 58.134C146.379 57.75 146.16 57.126 146.16 56.262V51.382H145.12V49.894H146.16V47.702H148V49.894H150.144V51.382H148ZM160.541 49.75C161.213 49.75 161.811 49.894 162.333 50.182C162.867 50.47 163.283 50.8966 163.581 51.462C163.891 52.0273 164.045 52.71 164.045 53.51V58.71H162.237V53.782C162.237 52.9926 162.04 52.39 161.645 51.974C161.251 51.5473 160.712 51.334 160.029 51.334C159.347 51.334 158.803 51.5473 158.397 51.974C158.003 52.39 157.805 52.9926 157.805 53.782V58.71H155.981V46.87H157.805V50.918C158.115 50.5446 158.504 50.2566 158.973 50.054C159.453 49.8513 159.976 49.75 160.541 49.75ZM165.764 54.262C165.764 53.3766 165.945 52.5926 166.308 51.91C166.681 51.2273 167.183 50.6993 167.812 50.326C168.452 49.942 169.156 49.75 169.924 49.75C170.617 49.75 171.22 49.8886 171.732 50.166C172.255 50.4326 172.671 50.7686 172.98 51.174V49.894H174.82V58.71H172.98V57.398C172.671 57.814 172.249 58.1606 171.716 58.438C171.183 58.7153 170.575 58.854 169.892 58.854C169.135 58.854 168.441 58.662 167.812 58.278C167.183 57.8833 166.681 57.3393 166.308 56.646C165.945 55.942 165.764 55.1473 165.764 54.262ZM172.98 54.294C172.98 53.686 172.852 53.158 172.596 52.71C172.351 52.262 172.025 51.9206 171.62 51.686C171.215 51.4513 170.777 51.334 170.308 51.334C169.839 51.334 169.401 51.4513 168.996 51.686C168.591 51.91 168.26 52.246 168.004 52.694C167.759 53.1313 167.636 53.654 167.636 54.262C167.636 54.87 167.759 55.4033 168.004 55.862C168.26 56.3206 168.591 56.6726 168.996 56.918C169.412 57.1526 169.849 57.27 170.308 57.27C170.777 57.27 171.215 57.1526 171.62 56.918C172.025 56.6833 172.351 56.342 172.596 55.894C172.852 55.4353 172.98 54.902 172.98 54.294ZM180.624 57.078L183.12 49.894H185.056L181.696 58.71H179.52L176.176 49.894H178.128L180.624 57.078ZM194.514 54.086C194.514 54.4166 194.493 54.7153 194.45 54.982H187.714C187.768 55.686 188.029 56.2513 188.498 56.678C188.968 57.1046 189.544 57.318 190.226 57.318C191.208 57.318 191.901 56.9073 192.306 56.086H194.274C194.008 56.8966 193.522 57.5633 192.818 58.086C192.125 58.598 191.261 58.854 190.226 58.854C189.384 58.854 188.626 58.6673 187.954 58.294C187.293 57.91 186.77 57.3766 186.386 56.694C186.013 56.0006 185.826 55.2006 185.826 54.294C185.826 53.3873 186.008 52.5926 186.37 51.91C186.744 51.2166 187.261 50.6833 187.922 50.31C188.594 49.9366 189.362 49.75 190.226 49.75C191.058 49.75 191.8 49.9313 192.45 50.294C193.101 50.6566 193.608 51.1686 193.97 51.83C194.333 52.4806 194.514 53.2326 194.514 54.086ZM192.61 53.51C192.6 52.838 192.36 52.2993 191.89 51.894C191.421 51.4886 190.84 51.286 190.146 51.286C189.517 51.286 188.978 51.4886 188.53 51.894C188.082 52.2886 187.816 52.8273 187.73 53.51H192.61ZM199.858 54.262C199.858 53.3766 200.039 52.5926 200.402 51.91C200.775 51.2273 201.276 50.6993 201.906 50.326C202.546 49.942 203.25 49.75 204.018 49.75C204.711 49.75 205.314 49.8886 205.826 50.166C206.348 50.4326 206.764 50.7686 207.074 51.174V49.894H208.914V58.71H207.074V57.398C206.764 57.814 206.343 58.1606 205.81 58.438C205.276 58.7153 204.668 58.854 203.986 58.854C203.228 58.854 202.535 58.662 201.906 58.278C201.276 57.8833 200.775 57.3393 200.402 56.646C200.039 55.942 199.858 55.1473 199.858 54.262ZM207.074 54.294C207.074 53.686 206.946 53.158 206.69 52.71C206.444 52.262 206.119 51.9206 205.714 51.686C205.308 51.4513 204.871 51.334 204.402 51.334C203.932 51.334 203.495 51.4513 203.09 51.686C202.684 51.91 202.354 52.246 202.098 52.694C201.852 53.1313 201.73 53.654 201.73 54.262C201.73 54.87 201.852 55.4033 202.098 55.862C202.354 56.3206 202.684 56.6726 203.09 56.918C203.506 57.1526 203.943 57.27 204.402 57.27C204.871 57.27 205.308 57.1526 205.714 56.918C206.119 56.6833 206.444 56.342 206.69 55.894C206.946 55.4353 207.074 54.902 207.074 54.294ZM215.757 49.75C216.451 49.75 217.069 49.894 217.613 50.182C218.168 50.47 218.6 50.8966 218.909 51.462C219.219 52.0273 219.373 52.71 219.373 53.51V58.71H217.565V53.782C217.565 52.9926 217.368 52.39 216.973 51.974C216.579 51.5473 216.04 51.334 215.357 51.334C214.675 51.334 214.131 51.5473 213.725 51.974C213.331 52.39 213.133 52.9926 213.133 53.782V58.71H211.309V49.894H213.133V50.902C213.432 50.5393 213.811 50.2566 214.269 50.054C214.739 49.8513 215.235 49.75 215.757 49.75ZM229.636 49.894L224.228 62.854H222.34L224.132 58.566L220.66 49.894H222.692L225.172 56.614L227.748 49.894H229.636ZM236.097 48.726C235.766 48.726 235.489 48.614 235.265 48.39C235.041 48.166 234.929 47.8886 234.929 47.558C234.929 47.2273 235.041 46.95 235.265 46.726C235.489 46.502 235.766 46.39 236.097 46.39C236.417 46.39 236.689 46.502 236.913 46.726C237.137 46.95 237.249 47.2273 237.249 47.558C237.249 47.8886 237.137 48.166 236.913 48.39C236.689 48.614 236.417 48.726 236.097 48.726ZM236.993 49.894V58.71H235.169V49.894H236.993ZM241.516 51.382V56.262C241.516 56.5926 241.59 56.8326 241.74 56.982C241.9 57.1206 242.166 57.19 242.54 57.19H243.66V58.71H242.22C241.398 58.71 240.769 58.518 240.332 58.134C239.894 57.75 239.676 57.126 239.676 56.262V51.382H238.636V49.894H239.676V47.702H241.516V49.894H243.66V51.382H241.516ZM253.421 54.086C253.421 54.4166 253.399 54.7153 253.357 54.982H246.621C246.674 55.686 246.935 56.2513 247.405 56.678C247.874 57.1046 248.45 57.318 249.133 57.318C250.114 57.318 250.807 56.9073 251.213 56.086H253.181C252.914 56.8966 252.429 57.5633 251.725 58.086C251.031 58.598 250.167 58.854 249.133 58.854C248.29 58.854 247.533 58.6673 246.861 58.294C246.199 57.91 245.677 57.3766 245.293 56.694C244.919 56.0006 244.733 55.2006 244.733 54.294C244.733 53.3873 244.914 52.5926 245.277 51.91C245.65 51.2166 246.167 50.6833 246.829 50.31C247.501 49.9366 248.269 49.75 249.133 49.75C249.965 49.75 250.706 49.9313 251.357 50.294C252.007 50.6566 252.514 51.1686 252.877 51.83C253.239 52.4806 253.421 53.2326 253.421 54.086ZM251.517 53.51C251.506 52.838 251.266 52.2993 250.797 51.894C250.327 51.4886 249.746 51.286 249.053 51.286C248.423 51.286 247.885 51.4886 247.437 51.894C246.989 52.2886 246.722 52.8273 246.637 53.51H251.517ZM265.888 49.75C266.581 49.75 267.2 49.894 267.744 50.182C268.298 50.47 268.73 50.8966 269.04 51.462C269.36 52.0273 269.52 52.71 269.52 53.51V58.71H267.712V53.782C267.712 52.9926 267.514 52.39 267.12 51.974C266.725 51.5473 266.186 51.334 265.504 51.334C264.821 51.334 264.277 51.5473 263.872 51.974C263.477 52.39 263.28 52.9926 263.28 53.782V58.71H261.472V53.782C261.472 52.9926 261.274 52.39 260.88 51.974C260.485 51.5473 259.946 51.334 259.264 51.334C258.581 51.334 258.037 51.5473 257.632 51.974C257.237 52.39 257.04 52.9926 257.04 53.782V58.71H255.216V49.894H257.04V50.902C257.338 50.5393 257.717 50.2566 258.176 50.054C258.634 49.8513 259.125 49.75 259.648 49.75C260.352 49.75 260.981 49.8993 261.536 50.198C262.09 50.4966 262.517 50.9286 262.816 51.494C263.082 50.9606 263.498 50.5393 264.064 50.23C264.629 49.91 265.237 49.75 265.888 49.75ZM275.041 58.854C274.347 58.854 273.723 58.7313 273.169 58.486C272.625 58.23 272.193 57.8886 271.873 57.462C271.553 57.0246 271.382 56.5393 271.361 56.006H273.249C273.281 56.3793 273.457 56.694 273.777 56.95C274.107 57.1953 274.518 57.318 275.009 57.318C275.521 57.318 275.915 57.222 276.193 57.03C276.481 56.8273 276.625 56.5713 276.625 56.262C276.625 55.9313 276.465 55.686 276.145 55.526C275.835 55.366 275.339 55.19 274.657 54.998C273.995 54.8166 273.457 54.6406 273.041 54.47C272.625 54.2993 272.262 54.038 271.953 53.686C271.654 53.334 271.505 52.87 271.505 52.294C271.505 51.8246 271.643 51.398 271.921 51.014C272.198 50.6193 272.593 50.31 273.105 50.086C273.627 49.862 274.225 49.75 274.897 49.75C275.899 49.75 276.705 50.006 277.313 50.518C277.931 51.0193 278.262 51.7073 278.305 52.582H276.481C276.449 52.1873 276.289 51.8726 276.001 51.638C275.713 51.4033 275.323 51.286 274.833 51.286C274.353 51.286 273.985 51.3766 273.729 51.558C273.473 51.7393 273.345 51.9793 273.345 52.278C273.345 52.5126 273.43 52.71 273.601 52.87C273.771 53.03 273.979 53.158 274.225 53.254C274.47 53.3393 274.833 53.4513 275.313 53.59C275.953 53.7606 276.475 53.9366 276.881 54.118C277.297 54.2886 277.654 54.5446 277.953 54.886C278.251 55.2273 278.406 55.6806 278.417 56.246C278.417 56.7473 278.278 57.1953 278.001 57.59C277.723 57.9846 277.329 58.294 276.817 58.518C276.315 58.742 275.723 58.854 275.041 58.854ZM285.472 48.726C285.141 48.726 284.864 48.614 284.64 48.39C284.416 48.166 284.304 47.8886 284.304 47.558C284.304 47.2273 284.416 46.95 284.64 46.726C284.864 46.502 285.141 46.39 285.472 46.39C285.792 46.39 286.064 46.502 286.288 46.726C286.512 46.95 286.624 47.2273 286.624 47.558C286.624 47.8886 286.512 48.166 286.288 48.39C286.064 48.614 285.792 48.726 285.472 48.726ZM286.368 49.894V58.71H284.544V49.894H286.368ZM293.211 49.75C293.904 49.75 294.523 49.894 295.067 50.182C295.621 50.47 296.053 50.8966 296.363 51.462C296.672 52.0273 296.827 52.71 296.827 53.51V58.71H295.019V53.782C295.019 52.9926 294.821 52.39 294.427 51.974C294.032 51.5473 293.493 51.334 292.811 51.334C292.128 51.334 291.584 51.5473 291.179 51.974C290.784 52.39 290.587 52.9926 290.587 53.782V58.71H288.763V49.894H290.587V50.902C290.885 50.5393 291.264 50.2566 291.723 50.054C292.192 49.8513 292.688 49.75 293.211 49.75ZM311.245 49.894L305.837 62.854H303.949L305.741 58.566L302.269 49.894H304.301L306.781 56.614L309.357 49.894H311.245ZM316.446 58.854C315.614 58.854 314.862 58.6673 314.19 58.294C313.518 57.91 312.99 57.3766 312.606 56.694C312.222 56.0006 312.03 55.2006 312.03 54.294C312.03 53.398 312.227 52.6033 312.622 51.91C313.017 51.2166 313.555 50.6833 314.238 50.31C314.921 49.9366 315.683 49.75 316.526 49.75C317.369 49.75 318.131 49.9366 318.814 50.31C319.497 50.6833 320.035 51.2166 320.43 51.91C320.825 52.6033 321.022 53.398 321.022 54.294C321.022 55.19 320.819 55.9846 320.414 56.678C320.009 57.3713 319.454 57.91 318.75 58.294C318.057 58.6673 317.289 58.854 316.446 58.854ZM316.446 57.27C316.915 57.27 317.353 57.158 317.758 56.934C318.174 56.71 318.51 56.374 318.766 55.926C319.022 55.478 319.15 54.934 319.15 54.294C319.15 53.654 319.027 53.1153 318.782 52.678C318.537 52.23 318.211 51.894 317.806 51.67C317.401 51.446 316.963 51.334 316.494 51.334C316.025 51.334 315.587 51.446 315.182 51.67C314.787 51.894 314.473 52.23 314.238 52.678C314.003 53.1153 313.886 53.654 313.886 54.294C313.886 55.2433 314.126 55.9793 314.606 56.502C315.097 57.014 315.71 57.27 316.446 57.27ZM330.809 49.894V58.71H328.985V57.67C328.697 58.0326 328.318 58.3206 327.849 58.534C327.39 58.7366 326.9 58.838 326.377 58.838C325.684 58.838 325.06 58.694 324.505 58.406C323.961 58.118 323.529 57.6913 323.209 57.126C322.9 56.5606 322.745 55.878 322.745 55.078V49.894H324.553V54.806C324.553 55.5953 324.75 56.2033 325.145 56.63C325.54 57.046 326.078 57.254 326.761 57.254C327.444 57.254 327.982 57.046 328.377 56.63C328.782 56.2033 328.985 55.5953 328.985 54.806V49.894H330.809ZM335.04 51.174C335.306 50.726 335.658 50.3793 336.096 50.134C336.544 49.878 337.072 49.75 337.68 49.75V51.638H337.216C336.501 51.638 335.957 51.8193 335.584 52.182C335.221 52.5446 335.04 53.174 335.04 54.07V58.71H333.216V49.894H335.04V51.174ZM342.905 54.294C342.905 53.3873 343.086 52.5926 343.449 51.91C343.822 51.2166 344.334 50.6833 344.985 50.31C345.635 49.9366 346.382 49.75 347.225 49.75C348.291 49.75 349.171 50.006 349.865 50.518C350.569 51.0193 351.043 51.7393 351.289 52.678H349.321C349.161 52.2406 348.905 51.8993 348.553 51.654C348.201 51.4086 347.758 51.286 347.225 51.286C346.478 51.286 345.881 51.5526 345.433 52.086C344.995 52.6086 344.777 53.3446 344.777 54.294C344.777 55.2433 344.995 55.9846 345.433 56.518C345.881 57.0513 346.478 57.318 347.225 57.318C348.281 57.318 348.979 56.854 349.321 55.926H351.289C351.033 56.822 350.553 57.5366 349.849 58.07C349.145 58.5926 348.27 58.854 347.225 58.854C346.382 58.854 345.635 58.6673 344.985 58.294C344.334 57.91 343.822 57.3766 343.449 56.694C343.086 56.0006 342.905 55.2006 342.905 54.294ZM352.498 54.262C352.498 53.3766 352.68 52.5926 353.042 51.91C353.416 51.2273 353.917 50.6993 354.546 50.326C355.186 49.942 355.89 49.75 356.658 49.75C357.352 49.75 357.954 49.8886 358.466 50.166C358.989 50.4326 359.405 50.7686 359.714 51.174V49.894H361.554V58.71H359.714V57.398C359.405 57.814 358.984 58.1606 358.45 58.438C357.917 58.7153 357.309 58.854 356.626 58.854C355.869 58.854 355.176 58.662 354.546 58.278C353.917 57.8833 353.416 57.3393 353.042 56.646C352.68 55.942 352.498 55.1473 352.498 54.262ZM359.714 54.294C359.714 53.686 359.586 53.158 359.33 52.71C359.085 52.262 358.76 51.9206 358.354 51.686C357.949 51.4513 357.512 51.334 357.042 51.334C356.573 51.334 356.136 51.4513 355.73 51.686C355.325 51.91 354.994 52.246 354.738 52.694C354.493 53.1313 354.37 53.654 354.37 54.262C354.37 54.87 354.493 55.4033 354.738 55.862C354.994 56.3206 355.325 56.6726 355.73 56.918C356.146 57.1526 356.584 57.27 357.042 57.27C357.512 57.27 357.949 57.1526 358.354 56.918C358.76 56.6833 359.085 56.342 359.33 55.894C359.586 55.4353 359.714 54.902 359.714 54.294ZM365.774 51.174C366.041 50.726 366.393 50.3793 366.83 50.134C367.278 49.878 367.806 49.75 368.414 49.75V51.638H367.95C367.235 51.638 366.691 51.8193 366.318 52.182C365.955 52.5446 365.774 53.174 365.774 54.07V58.71H363.95V49.894H365.774V51.174ZM372.219 51.382V56.262C372.219 56.5926 372.293 56.8326 372.443 56.982C372.603 57.1206 372.869 57.19 373.243 57.19H374.363V58.71H372.923C372.101 58.71 371.472 58.518 371.035 58.134C370.597 57.75 370.379 57.126 370.379 56.262V51.382H369.339V49.894H370.379V47.702H372.219V49.894H374.363V51.382H372.219ZM13.592 81.262C13.592 80.3766 13.7733 79.5926 14.136 78.91C14.5093 78.2273 15.0107 77.6993 15.64 77.326C16.28 76.942 16.984 76.75 17.752 76.75C18.4453 76.75 19.048 76.8886 19.56 77.166C20.0827 77.4326 20.4987 77.7686 20.808 78.174V76.894H22.648V85.71H20.808V84.398C20.4987 84.814 20.0773 85.1606 19.544 85.438C19.0107 85.7153 18.4027 85.854 17.72 85.854C16.9627 85.854 16.2693 85.662 15.64 85.278C15.0107 84.8833 14.5093 84.3393 14.136 83.646C13.7733 82.942 13.592 82.1473 13.592 81.262ZM20.808 81.294C20.808 80.686 20.68 80.158 20.424 79.71C20.1787 79.262 19.8533 78.9206 19.448 78.686C19.0427 78.4513 18.6053 78.334 18.136 78.334C17.6667 78.334 17.2293 78.4513 16.824 78.686C16.4187 78.91 16.088 79.246 15.832 79.694C15.5867 80.1313 15.464 80.654 15.464 81.262C15.464 81.87 15.5867 82.4033 15.832 82.862C16.088 83.3206 16.4187 83.6726 16.824 83.918C17.24 84.1526 17.6773 84.27 18.136 84.27C18.6053 84.27 19.0427 84.1526 19.448 83.918C19.8533 83.6833 20.1787 83.342 20.424 82.894C20.68 82.4353 20.808 81.902 20.808 81.294ZM27.1718 78.382V83.262C27.1718 83.5926 27.2464 83.8326 27.3958 83.982C27.5558 84.1206 27.8224 84.19 28.1958 84.19H29.3158V85.71H27.8758C27.0544 85.71 26.4251 85.518 25.9878 85.134C25.5504 84.75 25.3318 84.126 25.3318 83.262V78.382H24.2918V76.894H25.3318V74.702H27.1718V76.894H29.3158V78.382H27.1718ZM37.2811 78.382V83.262C37.2811 83.5926 37.3558 83.8326 37.5051 83.982C37.6651 84.1206 37.9318 84.19 38.3051 84.19H39.4251V85.71H37.9851C37.1638 85.71 36.5345 85.518 36.0971 85.134C35.6598 84.75 35.4411 84.126 35.4411 83.262V78.382H34.4011V76.894H35.4411V74.702H37.2811V76.894H39.4251V78.382H37.2811ZM45.6663 76.75C46.3383 76.75 46.9356 76.894 47.4583 77.182C47.9916 77.47 48.4076 77.8966 48.7063 78.462C49.0156 79.0273 49.1703 79.71 49.1703 80.51V85.71H47.3623V80.782C47.3623 79.9926 47.1649 79.39 46.7703 78.974C46.3756 78.5473 45.8369 78.334 45.1543 78.334C44.4716 78.334 43.9276 78.5473 43.5223 78.974C43.1276 79.39 42.9303 79.9926 42.9303 80.782V85.71H41.1063V73.87H42.9303V77.918C43.2396 77.5446 43.6289 77.2566 44.0983 77.054C44.5783 76.8513 45.1009 76.75 45.6663 76.75ZM59.5769 81.086C59.5769 81.4166 59.5555 81.7153 59.5129 81.982H52.7769C52.8302 82.686 53.0915 83.2513 53.5609 83.678C54.0302 84.1046 54.6062 84.318 55.2889 84.318C56.2702 84.318 56.9635 83.9073 57.3689 83.086H59.3369C59.0702 83.8966 58.5849 84.5633 57.8809 85.086C57.1875 85.598 56.3235 85.854 55.2889 85.854C54.4462 85.854 53.6889 85.6673 53.0169 85.294C52.3555 84.91 51.8329 84.3766 51.4489 83.694C51.0755 83.0006 50.8889 82.2006 50.8889 81.294C50.8889 80.3873 51.0702 79.5926 51.4329 78.91C51.8062 78.2166 52.3235 77.6833 52.9849 77.31C53.6569 76.9366 54.4249 76.75 55.2889 76.75C56.1209 76.75 56.8622 76.9313 57.5129 77.294C58.1635 77.6566 58.6702 78.1686 59.0329 78.83C59.3955 79.4806 59.5769 80.2326 59.5769 81.086ZM57.6729 80.51C57.6622 79.838 57.4222 79.2993 56.9529 78.894C56.4835 78.4886 55.9022 78.286 55.2089 78.286C54.5795 78.286 54.0409 78.4886 53.5929 78.894C53.1449 79.2886 52.8782 79.8273 52.7929 80.51H57.6729ZM76.2001 76.75C76.8935 76.75 77.5121 76.894 78.0561 77.182C78.6108 77.47 79.0428 77.8966 79.3521 78.462C79.6721 79.0273 79.8321 79.71 79.8321 80.51V85.71H78.0241V80.782C78.0241 79.9926 77.8268 79.39 77.4321 78.974C77.0375 78.5473 76.4988 78.334 75.8161 78.334C75.1335 78.334 74.5895 78.5473 74.1841 78.974C73.7895 79.39 73.5921 79.9926 73.5921 80.782V85.71H71.7841V80.782C71.7841 79.9926 71.5868 79.39 71.1921 78.974C70.7975 78.5473 70.2588 78.334 69.5761 78.334C68.8935 78.334 68.3495 78.5473 67.9441 78.974C67.5495 79.39 67.3521 79.9926 67.3521 80.782V85.71H65.5281V76.894H67.3521V77.902C67.6508 77.5393 68.0295 77.2566 68.4881 77.054C68.9468 76.8513 69.4375 76.75 69.9601 76.75C70.6641 76.75 71.2935 76.8993 71.8481 77.198C72.4028 77.4966 72.8295 77.9286 73.1281 78.494C73.3948 77.9606 73.8108 77.5393 74.3761 77.23C74.9415 76.91 75.5495 76.75 76.2001 76.75ZM85.9771 85.854C85.1451 85.854 84.3931 85.6673 83.7211 85.294C83.0491 84.91 82.5211 84.3766 82.1371 83.694C81.7531 83.0006 81.5611 82.2006 81.5611 81.294C81.5611 80.398 81.7585 79.6033 82.1531 78.91C82.5478 78.2166 83.0865 77.6833 83.7691 77.31C84.4518 76.9366 85.2145 76.75 86.0571 76.75C86.8998 76.75 87.6625 76.9366 88.3451 77.31C89.0278 77.6833 89.5665 78.2166 89.9611 78.91C90.3558 79.6033 90.5531 80.398 90.5531 81.294C90.5531 82.19 90.3505 82.9846 89.9451 83.678C89.5398 84.3713 88.9851 84.91 88.2811 85.294C87.5878 85.6673 86.8198 85.854 85.9771 85.854ZM85.9771 84.27C86.4465 84.27 86.8838 84.158 87.2891 83.934C87.7051 83.71 88.0411 83.374 88.2971 82.926C88.5531 82.478 88.6811 81.934 88.6811 81.294C88.6811 80.654 88.5585 80.1153 88.3131 79.678C88.0678 79.23 87.7425 78.894 87.3371 78.67C86.9318 78.446 86.4945 78.334 86.0251 78.334C85.5558 78.334 85.1185 78.446 84.7131 78.67C84.3185 78.894 84.0038 79.23 83.7691 79.678C83.5345 80.1153 83.4171 80.654 83.4171 81.294C83.4171 82.2433 83.6571 82.9793 84.1371 83.502C84.6278 84.014 85.2411 84.27 85.9771 84.27ZM103.028 76.75C103.722 76.75 104.34 76.894 104.884 77.182C105.439 77.47 105.871 77.8966 106.18 78.462C106.5 79.0273 106.66 79.71 106.66 80.51V85.71H104.852V80.782C104.852 79.9926 104.655 79.39 104.26 78.974C103.866 78.5473 103.327 78.334 102.644 78.334C101.962 78.334 101.418 78.5473 101.012 78.974C100.618 79.39 100.42 79.9926 100.42 80.782V85.71H98.6123V80.782C98.6123 79.9926 98.4149 79.39 98.0203 78.974C97.6256 78.5473 97.0869 78.334 96.4043 78.334C95.7216 78.334 95.1776 78.5473 94.7723 78.974C94.3776 79.39 94.1803 79.9926 94.1803 80.782V85.71H92.3563V76.894H94.1803V77.902C94.4789 77.5393 94.8576 77.2566 95.3163 77.054C95.7749 76.8513 96.2656 76.75 96.7883 76.75C97.4923 76.75 98.1216 76.8993 98.6763 77.198C99.2309 77.4966 99.6576 77.9286 99.9563 78.494C100.223 77.9606 100.639 77.5393 101.204 77.23C101.77 76.91 102.378 76.75 103.028 76.75ZM117.061 81.086C117.061 81.4166 117.04 81.7153 116.997 81.982H110.261C110.315 82.686 110.576 83.2513 111.045 83.678C111.515 84.1046 112.091 84.318 112.773 84.318C113.755 84.318 114.448 83.9073 114.853 83.086H116.821C116.555 83.8966 116.069 84.5633 115.365 85.086C114.672 85.598 113.808 85.854 112.773 85.854C111.931 85.854 111.173 85.6673 110.501 85.294C109.84 84.91 109.317 84.3766 108.933 83.694C108.56 83.0006 108.373 82.2006 108.373 81.294C108.373 80.3873 108.555 79.5926 108.917 78.91C109.291 78.2166 109.808 77.6833 110.469 77.31C111.141 76.9366 111.909 76.75 112.773 76.75C113.605 76.75 114.347 76.9313 114.997 77.294C115.648 77.6566 116.155 78.1686 116.517 78.83C116.88 79.4806 117.061 80.2326 117.061 81.086ZM115.157 80.51C115.147 79.838 114.907 79.2993 114.437 78.894C113.968 78.4886 113.387 78.286 112.693 78.286C112.064 78.286 111.525 78.4886 111.077 78.894C110.629 79.2886 110.363 79.8273 110.277 80.51H115.157ZM123.304 76.75C123.998 76.75 124.616 76.894 125.16 77.182C125.715 77.47 126.147 77.8966 126.456 78.462C126.766 79.0273 126.92 79.71 126.92 80.51V85.71H125.112V80.782C125.112 79.9926 124.915 79.39 124.52 78.974C124.126 78.5473 123.587 78.334 122.904 78.334C122.222 78.334 121.678 78.5473 121.272 78.974C120.878 79.39 120.68 79.9926 120.68 80.782V85.71H118.856V76.894H120.68V77.902C120.979 77.5393 121.358 77.2566 121.816 77.054C122.286 76.8513 122.782 76.75 123.304 76.75ZM131.375 78.382V83.262C131.375 83.5926 131.45 83.8326 131.599 83.982C131.759 84.1206 132.026 84.19 132.399 84.19H133.519V85.71H132.079C131.258 85.71 130.628 85.518 130.191 85.134C129.754 84.75 129.535 84.126 129.535 83.262V78.382H128.495V76.894H129.535V74.702H131.375V76.894H133.519V78.382H131.375Z" fill="#9196F7"/>
<path d="M38.56 23.11C38.56 22.0113 38.8053 21.03 39.296 20.166C39.7973 19.2913 40.4747 18.614 41.328 18.134C42.192 17.6433 43.1573 17.398 44.224 17.398C45.472 17.398 46.5653 17.718 47.504 18.358C48.4427 18.998 49.0987 19.8833 49.472 21.014H46.896C46.64 20.4806 46.2773 20.0806 45.808 19.814C45.3493 19.5473 44.816 19.414 44.208 19.414C43.5573 19.414 42.976 19.5686 42.464 19.878C41.9627 20.1766 41.568 20.6033 41.28 21.158C41.0027 21.7126 40.864 22.3633 40.864 23.11C40.864 23.846 41.0027 24.4966 41.28 25.062C41.568 25.6166 41.9627 26.0486 42.464 26.358C42.976 26.6566 43.5573 26.806 44.208 26.806C44.816 26.806 45.3493 26.6726 45.808 26.406C46.2773 26.1286 46.64 25.7233 46.896 25.19H49.472C49.0987 26.3313 48.4427 27.222 47.504 27.862C46.576 28.4913 45.4827 28.806 44.224 28.806C43.1573 28.806 42.192 28.566 41.328 28.086C40.4747 27.5953 39.7973 26.918 39.296 26.054C38.8053 25.19 38.56 24.2086 38.56 23.11ZM50.8092 24.246C50.8092 23.35 50.9852 22.5553 51.3372 21.862C51.6999 21.1686 52.1853 20.6353 52.7933 20.262C53.4119 19.8886 54.0999 19.702 54.8573 19.702C55.5186 19.702 56.0946 19.8353 56.5853 20.102C57.0866 20.3686 57.4866 20.7046 57.7853 21.11V19.846H60.0413V28.71H57.7853V27.414C57.4973 27.83 57.0973 28.1766 56.5853 28.454C56.0839 28.7206 55.5026 28.854 54.8413 28.854C54.0946 28.854 53.4119 28.662 52.7933 28.278C52.1853 27.894 51.6999 27.3553 51.3372 26.662C50.9852 25.958 50.8092 25.1526 50.8092 24.246ZM57.7853 24.278C57.7853 23.734 57.6786 23.27 57.4653 22.886C57.2519 22.4913 56.9639 22.1926 56.6013 21.99C56.2386 21.7766 55.8493 21.67 55.4333 21.67C55.0173 21.67 54.6333 21.7713 54.2812 21.974C53.9293 22.1766 53.6413 22.4753 53.4173 22.87C53.2039 23.254 53.0973 23.7126 53.0973 24.246C53.0973 24.7793 53.2039 25.2486 53.4173 25.654C53.6413 26.0486 53.9293 26.3526 54.2812 26.566C54.6439 26.7793 55.0279 26.886 55.4333 26.886C55.8493 26.886 56.2386 26.7846 56.6013 26.582C56.9639 26.3686 57.2519 26.07 57.4653 25.686C57.6786 25.2913 57.7853 24.822 57.7853 24.278ZM64.469 21.222C64.757 20.7526 65.1303 20.3846 65.589 20.118C66.0583 19.8513 66.5917 19.718 67.189 19.718V22.07H66.597C65.893 22.07 65.3597 22.2353 64.997 22.566C64.645 22.8966 64.469 23.4726 64.469 24.294V28.71H62.229V19.846H64.469V21.222ZM71.3058 21.686V25.974C71.3058 26.2726 71.3751 26.4913 71.5138 26.63C71.6631 26.758 71.9084 26.822 72.2498 26.822H73.2898V28.71H71.8818C69.9938 28.71 69.0498 27.7926 69.0498 25.958V21.686H67.9938V19.846H69.0498V17.654H71.3058V19.846H73.2898V21.686H71.3058Z" fill="#9196F7"/>
<path d="M22.4161 27.0679C22.3775 27.1175 22.3432 27.1711 22.3124 27.2297C22.2821 27.2883 22.2565 27.3497 22.2356 27.415C22.2144 27.4798 22.1988 27.5468 22.1879 27.616C22.1775 27.6852 22.1719 27.7544 22.1719 27.8247C22.1719 27.8951 22.1775 27.9648 22.1879 28.0341C22.1988 28.1027 22.2144 28.1697 22.2356 28.235C22.2565 28.2997 22.2821 28.3617 22.3124 28.4203C22.3432 28.4784 22.3775 28.5325 22.4161 28.5822C22.4552 28.633 22.4977 28.6787 22.5441 28.7178C22.5892 28.7558 22.6374 28.787 22.6881 28.811C22.7385 28.8395 22.7901 28.8613 22.8439 28.8752C22.8973 28.8897 22.9506 28.897 23.0048 28.8964C23.0873 28.8964 23.168 28.8813 23.2469 28.8506C23.3259 28.8199 23.3992 28.7753 23.4678 28.7161C23.5363 28.6575 23.5966 28.5872 23.6491 28.5051C23.7012 28.4231 23.7432 28.3332 23.7745 28.2356C23.8062 28.1373 23.8261 28.0357 23.8339 27.9302C23.8422 27.8247 23.8378 27.7198 23.8218 27.616C23.8057 27.5122 23.7784 27.4134 23.7393 27.3202C23.7007 27.2264 23.6521 27.1427 23.5936 27.0679C23.5541 27.0199 23.5116 26.9774 23.466 26.9401C23.42 26.9027 23.3719 26.8708 23.3216 26.8452C23.2712 26.8195 23.2196 26.8 23.1662 26.7871C23.1129 26.7743 23.0591 26.7676 23.0048 26.7676C22.9506 26.7676 22.8973 26.7743 22.8439 26.7871C22.7905 26.8 22.7389 26.8195 22.6886 26.8452C22.6378 26.8708 22.5901 26.9027 22.5441 26.9401C22.4986 26.9774 22.456 27.0199 22.4161 27.0679Z" fill="#9196F7"/>
<path d="M22.8897 16.5544C22.8076 16.5628 22.7274 16.5798 22.6491 16.6047C22.5703 16.6302 22.4945 16.6641 22.4221 16.7054C22.3492 16.7473 22.2811 16.796 22.2174 16.8522C22.1537 16.9089 22.0954 16.9715 22.0429 17.0398C21.9904 17.1087 21.9447 17.1824 21.9053 17.2614C21.8664 17.3398 21.8343 17.422 21.81 17.5073C21.7857 17.5926 21.7692 17.6801 21.7609 17.7686C21.7522 17.8576 21.7517 17.9467 21.759 18.0357L22.3302 24.8196C22.3341 24.8652 22.3414 24.9097 22.353 24.9537C22.3642 24.9977 22.3793 25.0401 22.3982 25.0809C22.4167 25.1217 22.4386 25.1599 22.4639 25.1965C22.4887 25.233 22.5169 25.2664 22.548 25.2972C22.5786 25.3279 22.6117 25.3555 22.6476 25.3793C22.6831 25.4032 22.7201 25.4233 22.7594 25.4403C22.7983 25.4567 22.8382 25.4689 22.8795 25.4774C22.9204 25.4858 22.9617 25.4901 23.0035 25.4901C23.0453 25.4901 23.0871 25.4858 23.1279 25.4774C23.1693 25.4689 23.2091 25.4567 23.248 25.4403C23.2874 25.4233 23.3243 25.4032 23.3598 25.3793C23.3953 25.3555 23.4289 25.3279 23.4595 25.2972C23.4906 25.2664 23.5183 25.233 23.5436 25.1965C23.5689 25.1599 23.5907 25.1217 23.6092 25.0809C23.6282 25.0401 23.6428 24.9977 23.6544 24.9537C23.6656 24.9097 23.6734 24.8652 23.6773 24.8196L24.248 18.0357C24.2548 17.953 24.2548 17.8698 24.248 17.7871C24.2407 17.6976 24.2251 17.6101 24.2018 17.5248C24.1785 17.4389 24.1478 17.3562 24.1099 17.2773C24.0715 17.1978 24.0268 17.1236 23.9748 17.0541C23.9233 16.9847 23.8659 16.9211 23.8032 16.8639C23.74 16.8066 23.6724 16.7568 23.6 16.7139C23.528 16.6715 23.4527 16.637 23.3744 16.61C23.2961 16.5835 23.2159 16.5655 23.1343 16.5565C23.0531 16.5469 22.9714 16.5464 22.8897 16.5544Z" fill="#9196F7"/>
<path d="M23 12.71C22.8365 12.71 22.6729 12.7142 22.5094 12.7227C22.3458 12.7307 22.1828 12.743 22.0198 12.7595C21.8573 12.776 21.6948 12.7962 21.5328 12.8207C21.3708 12.8452 21.2099 12.8739 21.0495 12.9064C20.8885 12.9394 20.7292 12.9756 20.5703 13.0166C20.4115 13.0571 20.2542 13.1018 20.0974 13.1502C19.9406 13.1987 19.7854 13.2514 19.6313 13.3078C19.4771 13.3643 19.3245 13.4244 19.1734 13.4883C19.0224 13.5522 18.8724 13.6198 18.7245 13.6917C18.5766 13.763 18.4307 13.8381 18.2865 13.9174C18.1417 13.9962 17.9995 14.0782 17.8594 14.1645C17.7188 14.2507 17.5807 14.3401 17.4443 14.4328C17.3083 14.5259 17.1745 14.6223 17.0432 14.7219C16.912 14.8214 16.7828 14.9242 16.6563 15.0307C16.5297 15.1366 16.4057 15.2457 16.2844 15.3581C16.1635 15.4704 16.0448 15.5859 15.9292 15.7041C15.8135 15.8223 15.7005 15.9437 15.5906 16.0672C15.4807 16.1913 15.374 16.318 15.2703 16.4473C15.1661 16.5767 15.0656 16.7087 14.9682 16.8429C14.8708 16.9771 14.7766 17.1139 14.6854 17.2528C14.5948 17.3923 14.5073 17.5334 14.4229 17.6772C14.3385 17.8204 14.2583 17.9657 14.1813 18.1137C14.1036 18.2612 14.0302 18.4103 13.9604 18.5615C13.8901 18.7127 13.824 18.866 13.7615 19.0204C13.699 19.1748 13.6401 19.3308 13.5849 19.4884C13.5297 19.6459 13.4781 19.8046 13.4307 19.9648C13.3833 20.1251 13.3396 20.2859 13.3 20.4483C13.2599 20.6106 13.2245 20.7735 13.1922 20.9381C13.1604 21.102 13.1323 21.2665 13.1083 21.4321C13.0844 21.5977 13.0646 21.7638 13.0484 21.9299C13.0323 22.0965 13.0203 22.2632 13.0125 22.4303C13.0042 22.5975 13 22.7647 13 22.9319C13 23.0996 13.0042 23.2667 13.0125 23.4334C13.0203 23.6005 13.0323 23.7677 13.0484 23.9338C13.0646 24.1005 13.0844 24.2666 13.1083 24.4321C13.1323 24.5972 13.1604 24.7622 13.1922 24.9262C13.2245 25.0902 13.2599 25.2536 13.3 25.416C13.3396 25.5778 13.3833 25.7392 13.4307 25.8994C13.4781 26.0597 13.5297 26.2183 13.5849 26.3759C13.6401 26.5335 13.699 26.6895 13.7615 26.8439C13.824 26.9983 13.8901 27.1511 13.9604 27.3023C14.0302 27.4535 14.1036 27.6031 14.1813 27.7505C14.2583 27.898 14.3385 28.0439 14.4229 28.1871C14.5073 28.3308 14.5948 28.4719 14.6854 28.6109C14.7766 28.7504 14.8708 28.8866 14.9682 29.0213C15.0656 29.1555 15.1661 29.2875 15.2703 29.4169C15.374 29.5463 15.4807 29.6725 15.5906 29.7965C15.7005 29.9205 15.8135 30.0419 15.9292 30.1601C16.0448 30.2783 16.1635 30.3938 16.2844 30.5062C16.4057 30.6185 16.5297 30.7277 16.6563 30.8336C16.7828 30.9401 16.912 31.0428 17.0432 31.1424C17.1745 31.2419 17.3083 31.3383 17.4443 31.4315C17.5807 31.5241 17.7188 31.6136 17.8594 31.6998C17.9995 31.7855 18.1417 31.868 18.2865 31.9468C18.4307 32.0256 18.5766 32.1012 18.7245 32.1726C18.8724 32.2439 19.0224 32.312 19.1734 32.3759C19.3245 32.4398 19.4771 32.5 19.6313 32.5564C19.7854 32.6128 19.9406 32.665 20.0974 32.714C20.2542 32.7625 20.4115 32.8072 20.5703 32.8476C20.7292 32.8881 20.8885 32.9248 21.0495 32.9573C21.2099 32.9903 21.3708 33.0185 21.5328 33.0436C21.6948 33.068 21.8573 33.0883 22.0198 33.1048C22.1828 33.1213 22.3458 33.1335 22.5094 33.1415C22.6729 33.15 22.8365 33.1538 23 33.1538C23.1641 33.1538 23.3276 33.15 23.4906 33.1415C23.6542 33.1335 23.8177 33.1213 23.9802 33.1048C24.1432 33.0883 24.3057 33.068 24.4677 33.0436C24.6292 33.0185 24.7906 32.9903 24.951 32.9573C25.1115 32.9248 25.2714 32.8881 25.4302 32.8476C25.5885 32.8072 25.7464 32.7625 25.9031 32.714C26.0599 32.665 26.2151 32.6128 26.3693 32.5564C26.5234 32.5 26.676 32.4398 26.8271 32.3759C26.9781 32.312 27.1276 32.2439 27.2755 32.1726C27.4234 32.1012 27.5698 32.0256 27.7141 31.9468C27.8583 31.868 28.001 31.7855 28.1411 31.6998C28.2818 31.6136 28.4198 31.5241 28.5557 31.4315C28.6922 31.3383 28.8255 31.2419 28.9573 31.1424C29.0885 31.0428 29.2177 30.9401 29.3443 30.8336C29.4708 30.7277 29.5943 30.6185 29.7156 30.5062C29.837 30.3938 29.9557 30.2783 30.0714 30.1601C30.187 30.0419 30.3 29.9205 30.4099 29.7965C30.5198 29.6725 30.6266 29.5463 30.7302 29.4169C30.8344 29.2875 30.9349 29.1555 31.0323 29.0213C31.1297 28.8866 31.224 28.7504 31.3151 28.6109C31.4057 28.4719 31.4932 28.3308 31.5776 28.1871C31.6615 28.0439 31.7422 27.898 31.8193 27.7505C31.8964 27.6031 31.9703 27.4535 32.0401 27.3023C32.1099 27.1511 32.1766 26.9983 32.2391 26.8439C32.3016 26.6895 32.3604 26.5335 32.4156 26.3759C32.4708 26.2183 32.5219 26.0597 32.5698 25.8994C32.6172 25.7392 32.6609 25.5778 32.7005 25.416C32.7401 25.2536 32.776 25.0902 32.8078 24.9262C32.8401 24.7622 32.8677 24.5972 32.8922 24.4321C32.9161 24.2666 32.9359 24.1005 32.9521 23.9338C32.9682 23.7677 32.9802 23.6005 32.988 23.4334C32.9964 23.2667 33 23.0996 33 22.9319C33 22.7647 32.9958 22.5975 32.9875 22.4309C32.9792 22.2637 32.9672 22.0971 32.951 21.9304C32.9349 21.7643 32.9146 21.5982 32.8906 21.4326C32.8661 21.2676 32.838 21.1026 32.8063 20.9386C32.774 20.7746 32.738 20.6117 32.6984 20.4493C32.6583 20.2869 32.6146 20.1262 32.5672 19.9659C32.5193 19.8062 32.4682 19.6475 32.413 19.49C32.3578 19.3324 32.2984 19.1764 32.2359 19.022C32.1734 18.8676 32.1068 18.7148 32.037 18.5636C31.9667 18.4124 31.8932 18.2633 31.8161 18.1159C31.7391 17.9684 31.6583 17.823 31.574 17.6793C31.4901 17.5361 31.4026 17.395 31.3115 17.256C31.2203 17.1166 31.126 16.9803 31.0286 16.8456C30.9313 16.7114 30.8307 16.5799 30.7271 16.4505C30.6229 16.3212 30.5161 16.1945 30.4062 16.0709C30.2964 15.9469 30.1839 15.8255 30.0677 15.7073C29.9521 15.5891 29.8339 15.4741 29.7125 15.3618C29.5911 15.2495 29.4677 15.1403 29.3411 15.0338C29.2146 14.9279 29.0859 14.8251 28.9542 14.7256C28.8229 14.6255 28.6891 14.5291 28.5531 14.4365C28.4172 14.3433 28.2792 14.2539 28.1385 14.1682C27.9984 14.0819 27.8563 13.9994 27.712 13.9206C27.5677 13.8418 27.4214 13.7662 27.274 13.6949C27.126 13.6235 26.9766 13.5554 26.8255 13.4915C26.674 13.4271 26.5214 13.3669 26.3677 13.3105C26.2135 13.2541 26.0583 13.2014 25.9016 13.1529C25.7453 13.1045 25.5875 13.0597 25.4292 13.0187C25.2703 12.9783 25.1109 12.941 24.9505 12.9085C24.7901 12.8755 24.6286 12.8468 24.4672 12.8223C24.3052 12.7978 24.1427 12.777 23.9802 12.7605C23.8172 12.744 23.6542 12.7313 23.4906 12.7233C23.3271 12.7148 23.1641 12.7105 23 12.71ZM23 31.7908C22.8583 31.7908 22.7167 31.7876 22.575 31.7802C22.4333 31.7733 22.2917 31.7626 22.1505 31.7482C22.0094 31.7344 21.8688 31.7163 21.7286 31.695C21.588 31.6737 21.4484 31.6492 21.3094 31.621C21.1703 31.5928 21.0318 31.5608 20.8943 31.5257C20.7568 31.4906 20.6203 31.4517 20.4844 31.4096C20.3484 31.3676 20.2141 31.3218 20.0807 31.2734C19.9469 31.2244 19.8146 31.1722 19.6839 31.1168C19.5526 31.0615 19.4229 31.0024 19.2948 30.9406C19.1667 30.8783 19.0401 30.8134 18.9146 30.7452C18.7896 30.6765 18.6661 30.6052 18.5448 30.5307C18.4229 30.4561 18.3031 30.3784 18.1854 30.298C18.0672 30.2176 17.9516 30.134 17.8375 30.0478C17.7234 29.9615 17.612 29.8721 17.5021 29.78C17.3927 29.6884 17.2849 29.5937 17.1802 29.4962C17.075 29.3988 16.9724 29.2987 16.8719 29.1965C16.7719 29.0937 16.674 28.9889 16.5786 28.8813C16.4833 28.7738 16.3906 28.6641 16.3005 28.5523C16.2109 28.44 16.1234 28.326 16.0391 28.2094C15.9547 28.0929 15.8729 27.9747 15.7943 27.8538C15.7151 27.7335 15.6396 27.611 15.5667 27.4865C15.4938 27.3619 15.424 27.2362 15.3568 27.1079C15.2901 26.9802 15.226 26.8508 15.1656 26.7198C15.1052 26.5889 15.0474 26.4563 14.9932 26.3221C14.9391 26.1885 14.888 26.0533 14.8401 25.9164C14.7922 25.7801 14.7479 25.6423 14.7068 25.5038C14.6656 25.3649 14.6276 25.2254 14.5932 25.0848C14.5589 24.9438 14.5276 24.8027 14.5 24.6605C14.4724 24.5184 14.4479 24.3752 14.4271 24.232C14.4068 24.0887 14.3891 23.9445 14.3755 23.8002C14.3615 23.6559 14.351 23.5116 14.3438 23.3668C14.337 23.222 14.3333 23.0772 14.3333 22.9319C14.3333 22.787 14.337 22.6422 14.3438 22.4974C14.351 22.3526 14.3615 22.2078 14.3755 22.0635C14.3891 21.9193 14.4068 21.7755 14.4271 21.6323C14.4479 21.4885 14.4724 21.3459 14.5 21.2037C14.5276 21.0616 14.5589 20.92 14.5932 20.7794C14.6276 20.6389 14.6656 20.4994 14.7068 20.3604C14.7479 20.2215 14.7922 20.0841 14.8401 19.9478C14.888 19.811 14.9391 19.6758 14.9932 19.5421C15.0474 19.408 15.1052 19.2754 15.1656 19.1444C15.226 19.0135 15.2901 18.8841 15.3568 18.7558C15.424 18.628 15.4938 18.5018 15.5667 18.3778C15.6396 18.2532 15.7151 18.1308 15.7943 18.0104C15.8729 17.8896 15.9547 17.7714 16.0391 17.6548C16.1234 17.5382 16.2109 17.4243 16.3005 17.3119C16.3906 17.2001 16.4833 17.0899 16.5786 16.9829C16.674 16.8754 16.7719 16.7705 16.8719 16.6678C16.9724 16.5655 17.075 16.4654 17.1802 16.368C17.2849 16.2706 17.3927 16.1758 17.5021 16.0837C17.612 15.9921 17.7234 15.9027 17.8375 15.8165C17.9516 15.7302 18.0672 15.6466 18.1854 15.5662C18.3031 15.4853 18.4229 15.4081 18.5448 15.3336C18.6661 15.259 18.7896 15.1877 18.9146 15.119C19.0401 15.0509 19.1667 14.9854 19.2948 14.9236C19.4229 14.8619 19.5526 14.8028 19.6839 14.7474C19.8146 14.6921 19.9469 14.6399 20.0807 14.5909C20.2141 14.5419 20.3484 14.4967 20.4844 14.4546C20.6203 14.4125 20.7568 14.3737 20.8943 14.3385C21.0318 14.3034 21.1703 14.2715 21.3094 14.2432C21.4484 14.215 21.588 14.19 21.7286 14.1687C21.8688 14.1479 22.0094 14.1298 22.1505 14.116C22.2917 14.1016 22.4333 14.091 22.575 14.0835C22.7167 14.0766 22.8583 14.0729 23 14.0729C23.1422 14.0729 23.2839 14.0766 23.4255 14.0835C23.5672 14.091 23.7083 14.1016 23.8495 14.116C23.9906 14.1298 24.1318 14.1479 24.2719 14.1687C24.412 14.19 24.5521 14.215 24.6911 14.2432C24.8302 14.2715 24.9682 14.3034 25.1063 14.3385C25.2438 14.3737 25.3802 14.4125 25.5161 14.4546C25.6516 14.4967 25.7865 14.5419 25.9198 14.5909C26.0536 14.6399 26.1859 14.6921 26.3167 14.7474C26.4479 14.8028 26.5776 14.8619 26.7057 14.9236C26.8339 14.9854 26.9604 15.0509 27.0854 15.119C27.2109 15.1877 27.3339 15.259 27.4557 15.3336C27.5776 15.4081 27.6974 15.4853 27.8151 15.5662C27.9333 15.6466 28.049 15.7302 28.163 15.8165C28.2771 15.9027 28.3885 15.9921 28.4984 16.0837C28.6078 16.1758 28.7151 16.2706 28.8203 16.368C28.9255 16.4654 29.0281 16.5655 29.1286 16.6678C29.2286 16.7705 29.3266 16.8754 29.4219 16.9829C29.5172 17.0899 29.6099 17.2001 29.6995 17.3119C29.7896 17.4243 29.8771 17.5382 29.9615 17.6548C30.0458 17.7714 30.1276 17.8896 30.2063 18.0104C30.2849 18.1308 30.3609 18.2532 30.4339 18.3778C30.5068 18.5018 30.5766 18.628 30.6438 18.7558C30.7104 18.8841 30.774 19.0135 30.8349 19.1444C30.8953 19.2754 30.9531 19.408 31.0073 19.5421C31.0615 19.6758 31.1125 19.811 31.1604 19.9478C31.2078 20.0841 31.2526 20.2215 31.2938 20.3604C31.3349 20.4994 31.3729 20.6389 31.4073 20.7794C31.4417 20.92 31.4729 21.0616 31.5005 21.2037C31.5281 21.3459 31.5521 21.4885 31.5729 21.6323C31.5938 21.7755 31.6115 21.9193 31.625 22.0635C31.6391 22.2078 31.6495 22.3526 31.6563 22.4974C31.6635 22.6422 31.6667 22.787 31.6667 22.9319C31.6667 23.0772 31.663 23.222 31.6557 23.3668C31.649 23.5116 31.6385 23.6559 31.6245 23.8002C31.6104 23.9445 31.5927 24.0882 31.5719 24.2314C31.551 24.3746 31.5266 24.5173 31.499 24.6595C31.4708 24.8016 31.4396 24.9432 31.4052 25.0838C31.3708 25.2243 31.3328 25.3638 31.2917 25.5028C31.2505 25.6412 31.2057 25.7791 31.1578 25.9154C31.1099 26.0517 31.0589 26.1869 31.0047 26.3205C30.9505 26.4547 30.8927 26.5873 30.8323 26.7182C30.7714 26.8492 30.7078 26.9786 30.6406 27.1063C30.574 27.2341 30.5036 27.3603 30.4307 27.4843C30.3578 27.6089 30.2823 27.7308 30.2031 27.8517C30.1245 27.972 30.0427 28.0907 29.9583 28.2068C29.874 28.3234 29.7865 28.4373 29.6969 28.5496C29.6068 28.6614 29.5141 28.7711 29.4188 28.8787C29.3234 28.9862 29.226 29.0911 29.1255 29.1933C29.0255 29.2961 28.9229 29.3956 28.8177 29.493C28.7125 29.5905 28.6052 29.6852 28.4958 29.7773C28.3859 29.8689 28.2745 29.9583 28.1604 30.0446C28.0469 30.1308 27.9307 30.2144 27.813 30.2948C27.6948 30.3757 27.5755 30.4529 27.4536 30.5275C27.3323 30.602 27.2089 30.6739 27.0839 30.742C26.9589 30.8107 26.8323 30.8757 26.7042 30.9379C26.576 30.9997 26.4464 31.0583 26.3151 31.1142C26.1844 31.1695 26.0521 31.2217 25.9188 31.2707C25.7854 31.3197 25.6505 31.3655 25.5151 31.4075C25.3792 31.4496 25.2427 31.4884 25.1052 31.5236C24.9677 31.5587 24.8292 31.5907 24.6901 31.6194C24.551 31.6476 24.4115 31.6726 24.2714 31.6939C24.1313 31.7152 23.9906 31.7333 23.8495 31.7477C23.7083 31.7621 23.5672 31.7727 23.4255 31.7797C23.2839 31.7871 23.1422 31.7908 23 31.7908Z" fill="#9196F7"/>
</svg>
