<svg width="178" height="202" viewBox="0 0 178 202" fill="none" xmlns="http://www.w3.org/2000/svg">
<path d="M9.73649 0.709961C11.3459 1.048 12.9552 1.39339 14.5646 1.73143C13.2124 6.80941 8.66357 10.2927 3.54151 10.2413C3.49006 9.14631 3.44597 8.04399 3.39453 6.94903C6.74555 6.52281 9.33231 3.9434 9.73649 0.709961Z" fill="#4AB6CD" fill-opacity="0.7"/>
<path d="M16.5182 66.856C17.9586 67.3042 19.3989 67.7599 20.8466 68.2081C19.1711 72.7349 14.7104 75.5201 10.0293 75.0277C10.0807 74.021 10.1322 73.0142 10.1836 72.0074C13.2848 71.9119 15.8715 69.7734 16.5182 66.856Z" fill="#F5B702" fill-opacity="0.7"/>
<path d="M139.501 42.8071C141.015 43.0349 142.522 43.2554 144.036 43.4759C142.456 48.2819 137.922 51.7946 133.057 52.0445C133.079 51.0304 133.093 50.0089 133.115 48.9874C136.319 48.3995 138.936 45.8422 139.501 42.8071Z" fill="#574B9E" fill-opacity="0.7"/>
<path d="M173.033 38.1089C174.547 38.3367 176.053 38.5572 177.567 38.7776C175.987 43.5837 171.453 47.0964 166.588 47.3462C166.61 46.3321 166.625 45.3106 166.647 44.2892C169.851 43.7013 172.467 41.1439 173.033 38.1089Z" fill="#F8CD4E"/>
<path d="M16.7338 40.4399C16.5575 41.1968 16.3737 41.9464 16.1974 42.696C10.921 42.8503 6.51174 38.6909 6.35742 33.3778C7.908 33.15 9.45859 32.9221 11.0092 32.6943C10.4507 36.4054 13.008 39.8814 16.7338 40.4399Z" fill="#574B9E" fill-opacity="0.7"/>
<path d="M82.5857 88.8308C82.8576 89.404 83.1368 89.9772 83.4161 90.5577C80.1238 93.409 75.134 93.0563 72.2754 89.742C73.1499 88.7867 74.017 87.8313 74.8915 86.8687C76.4715 89.5362 79.9107 90.4181 82.5857 88.8308Z" fill="#F5B702" fill-opacity="0.7"/>
<path d="M105.51 37.3908C103.754 36.8617 101.99 36.3252 100.227 35.7888C102.755 32.0336 106.348 29.3072 110.405 27.9771C110.588 29.1969 110.772 30.4095 110.956 31.622C108.45 32.9668 106.546 35.0098 105.51 37.3908Z" fill="#FF8186" fill-opacity="0.7"/>
<path d="M37.1857 56.5938C36.0025 55.9472 34.8121 55.3005 33.6289 54.6538C34.2682 49.6419 39.3389 46.3424 44.3728 47.7974C44.505 48.3927 44.6373 48.9806 44.7696 49.5758C40.7351 49.032 37.1049 52.3242 37.1857 56.5938Z" fill="#F5B702" fill-opacity="0.7"/>
<path d="M99.1108 65.6768C97.8247 66.0956 96.5461 66.5219 95.2674 66.9481C92.0486 63.0459 93.1142 57.0861 97.619 54.4038C98.1407 54.7125 98.6625 55.0211 99.1843 55.3297C96.0317 57.9018 95.9435 62.8108 99.1108 65.6768Z" fill="#F5B702" fill-opacity="0.7"/>
<path d="M61.9227 66.293C62.7017 67.748 63.4807 69.2031 64.2523 70.6581C60.7543 72.216 56.9182 72.7525 53.1777 72.2014C53.2586 71.1064 53.3394 70.0041 53.4202 68.9091C56.47 68.8577 59.4168 67.9464 61.9227 66.293Z" fill="#FF8186" fill-opacity="0.7"/>
<path d="M127.94 3.68945C128.712 5.1445 129.476 6.6069 130.247 8.06195C126.742 9.60518 122.891 10.1122 119.158 9.53904C119.246 8.44408 119.335 7.34912 119.423 6.25416C122.472 6.22477 125.427 5.32822 127.94 3.68945Z" fill="#F5B702" fill-opacity="0.7"/>
<path d="M66.835 39.7121C67.9887 41.4317 69.1351 43.1439 70.2815 44.8562C64.5201 46.495 58.9277 42.828 58.3398 37.4634C59.354 37.4854 60.3681 37.5148 61.3822 37.5369C62.4184 40.0501 65.1007 40.9173 66.835 39.7121Z" fill="#4AB6CD" fill-opacity="0.7"/>
<path d="M83.215 11.0895C82.0759 12.8826 80.9369 14.6757 79.7905 16.4688C76.4762 14.5581 73.9997 11.6333 72.6328 8.00304C73.8086 7.20937 74.9771 6.42306 76.1529 5.62939C77.8063 8.23085 80.2534 10.1195 83.215 11.0895Z" fill="#574B9E" fill-opacity="0.7"/>
<path d="M122.415 75.7595C122.224 77.6922 122.026 79.6175 121.835 81.5503C118.043 81.1755 114.545 79.6322 111.693 77.0969C112.369 76.002 113.046 74.8997 113.722 73.8047C116.36 75.37 119.358 76.046 122.415 75.7595Z" fill="#4AB6CD" fill-opacity="0.7"/>
<path d="M20.4744 15.0137C20.0409 15.6089 18.821 15.4472 17.7481 14.6536C16.6751 13.8672 16.1534 12.7429 16.5943 12.1476C17.0279 11.5524 18.2551 11.7141 19.328 12.5077C20.401 13.3014 20.9154 14.4258 20.4744 15.0137Z" fill="#FFDF38" fill-opacity="0.7"/>
<path d="M31.5236 35.744C31.9351 36.354 31.3766 37.4563 30.2669 38.1985C29.1646 38.9481 27.9374 39.0583 27.5259 38.4484C27.1143 37.8384 27.6728 36.7361 28.7825 35.9865C29.8848 35.2443 31.112 35.1341 31.5236 35.744Z" fill="#76E8D4" fill-opacity="0.7"/>
<path d="M103.316 16.5939C102.949 17.2332 101.714 17.2038 100.561 16.5424C99.4069 15.8737 98.7676 14.8155 99.135 14.1761C99.5025 13.5368 100.737 13.5588 101.891 14.2276C103.045 14.8963 103.684 15.9545 103.316 16.5939Z" fill="#76E8D4" fill-opacity="0.7"/>
<path d="M177.678 21.7257C177.31 22.365 176.076 22.3356 174.922 21.6743C173.768 21.0055 173.129 19.9473 173.496 19.308C173.864 18.6686 175.098 18.6907 176.252 19.3594C177.406 20.0281 178.045 21.0864 177.678 21.7257Z" fill="#8981BB"/>
<path d="M161.066 31.5115C161.434 32.1508 160.795 33.2091 159.641 33.8778C158.487 34.5465 157.252 34.5686 156.885 33.9292C156.518 33.2972 157.157 32.239 158.311 31.5703C159.464 30.9015 160.699 30.8722 161.066 31.5115Z" fill="#76E8D4" fill-opacity="0.7"/>
<path d="M157.835 48.5246C158.408 48.9876 158.18 50.2075 157.335 51.2363C156.49 52.2725 155.343 52.7281 154.778 52.2578C154.204 51.7948 154.432 50.5749 155.277 49.5461C156.122 48.5099 157.269 48.0543 157.835 48.5246Z" fill="#FFDF38" fill-opacity="0.7"/>
<path d="M167.696 64.3591C168.269 64.8221 168.041 66.042 167.196 67.0708C166.351 68.107 165.205 68.5626 164.639 68.0923C164.066 67.6293 164.293 66.4094 165.139 65.3806C165.984 64.3444 167.13 63.8888 167.696 64.3591Z" fill="#FFDF38" fill-opacity="0.7"/>
<path d="M61.367 20.717C61.8962 21.5033 61.4258 22.7453 60.3235 23.4948C59.2212 24.2444 57.8911 24.2077 57.362 23.4213C56.8329 22.635 57.3032 21.3931 58.4055 20.6509C59.5152 19.9013 60.8379 19.9307 61.367 20.717Z" fill="#FFDF38" fill-opacity="0.7"/>
<path d="M133.114 29.3733C132.57 30.1522 131.248 30.1669 130.153 29.4026C129.058 28.6384 128.609 27.3891 129.153 26.6101C129.69 25.8312 131.02 25.8165 132.115 26.5807C133.202 27.345 133.651 28.5943 133.114 29.3733Z" fill="#FF8186" fill-opacity="0.7"/>
<path d="M149.092 61.5515C148.607 61.941 147.622 61.5221 146.895 60.6182C146.167 59.707 145.976 58.6488 146.461 58.2593C146.954 57.8698 147.938 58.2887 148.658 59.1999C149.386 60.1038 149.577 61.162 149.092 61.5515Z" fill="#574B9E" fill-opacity="0.7"/>
<path d="M45.2152 72.9338C44.7302 73.3307 43.7454 72.9118 43.0179 72.0005C42.2904 71.0893 42.0993 70.0384 42.5917 69.6416C43.0767 69.2521 44.0614 69.671 44.789 70.5822C45.5165 71.4861 45.7076 72.5444 45.2152 72.9338Z" fill="#574B9E" fill-opacity="0.7"/>
<path d="M116.105 53.3075C115.503 52.8593 115.517 51.801 116.149 50.9486C116.781 50.0888 117.788 49.7654 118.391 50.2137C119.001 50.662 118.979 51.7202 118.347 52.5727C117.715 53.4325 116.715 53.7558 116.105 53.3075Z" fill="#76E8D4" fill-opacity="0.7"/>
<path d="M9.07405 56.7742C8.95647 56.054 9.75013 55.3265 10.8451 55.1501C11.9401 54.9664 12.9174 55.4073 13.035 56.1275C13.1526 56.8477 12.3589 57.5752 11.264 57.7515C10.169 57.9279 9.19163 57.4943 9.07405 56.7742Z" fill="#FF8186" fill-opacity="0.7"/>
<path d="M131.123 68.5714C129.829 68.836 128.675 68.5788 128.558 67.9835C128.433 67.3956 129.388 66.6975 130.682 66.4329C131.982 66.1684 133.136 66.4256 133.254 67.0208C133.379 67.6087 132.423 68.3068 131.123 68.5714Z" fill="#FF8186" fill-opacity="0.7"/>
<path d="M77.2657 59.5251C77.8462 59.9733 77.6625 61.1932 76.8468 62.2588C76.0384 63.317 74.9067 63.8094 74.3188 63.3611C73.7383 62.9128 73.922 61.6856 74.7377 60.6274C75.5461 59.5692 76.6778 59.0768 77.2657 59.5251Z" fill="#574B9E" fill-opacity="0.7"/>
<path d="M98.2175 81.8219C97.8501 82.4612 96.6155 82.4392 95.4617 81.7705C94.3006 81.1017 93.6686 80.0435 94.0361 79.4042C94.4035 78.7648 95.6381 78.7869 96.7919 79.4556C97.9456 80.1243 98.5849 81.1826 98.2175 81.8219Z" fill="#76E8D4" fill-opacity="0.7"/>
<path d="M126.519 91.9481C126.931 92.3597 126.659 93.293 125.924 94.0352C125.182 94.7701 124.249 95.042 123.844 94.6304C123.433 94.2262 123.705 93.293 124.447 92.5507C125.182 91.8085 126.115 91.544 126.519 91.9481Z" fill="#FFDF38" fill-opacity="0.7"/>
<path d="M140.02 98.9735C139.712 99.4659 138.742 99.4071 137.86 98.8412C136.971 98.2827 136.508 97.4303 136.816 96.9453C137.125 96.4529 138.095 96.5117 138.977 97.0775C139.859 97.636 140.329 98.4885 140.02 98.9735Z" fill="#574B9E" fill-opacity="0.7"/>
<path d="M107.952 96.9454C108.069 97.5848 107.224 98.2755 106.07 98.4813C104.909 98.6944 103.88 98.349 103.763 97.7097C103.645 97.0703 104.49 96.3869 105.644 96.1738C106.798 95.9607 107.834 96.3061 107.952 96.9454Z" fill="#574B9E" fill-opacity="0.7"/>
<path d="M84.7307 38.926C84.3265 39.4183 83.2756 39.2199 82.3791 38.485C81.4899 37.7502 81.093 36.7581 81.5046 36.2657C81.9087 35.7734 82.9596 35.9644 83.8488 36.7067C84.738 37.4415 85.1348 38.4336 84.7307 38.926Z" fill="#76E8D4" fill-opacity="0.7"/>
<path d="M32.7465 68.278C32.2983 68.8512 31.0784 68.6528 30.0275 67.8297C28.984 67.0067 28.499 65.8676 28.9546 65.2871C29.4102 64.7065 30.6301 64.9049 31.6736 65.728C32.7245 66.5584 33.2022 67.6975 32.7465 68.278Z" fill="#76E8D4" fill-opacity="0.7"/>
<path d="M52.9321 93.4238C53.035 93.3136 51.8078 92.2701 51.6535 92.1598C50.4189 91.3147 48.8903 91.109 47.4279 91.2559C46.3771 91.3588 45.3189 91.5572 44.2606 91.469C43.3935 91.3956 42.5557 91.1383 41.7768 90.7709C41.4167 90.6092 41.0639 90.4182 40.7259 90.2124C40.3952 90.0066 40.0939 89.6466 39.7559 89.4775C40.3364 89.7715 42.5484 90.8003 47.597 88.9264C49.3753 88.265 51.58 87.5522 55.0265 89.7053L52.9321 93.4238Z" fill="#574B9E" fill-opacity="0.7"/>
<path d="M35.1992 85.2534C38.7854 86.7378 37.6243 88.4427 40.9018 90.324C38.7634 88.3178 41.3354 84.783 38.1755 82.4902L35.1992 85.2534Z" fill="#574B9E" fill-opacity="0.7"/>
<path d="M50.954 13.1986C50.9393 13.0443 49.3373 13.2427 49.1536 13.2868C47.6912 13.6175 46.5081 14.6022 45.6262 15.778C44.9869 16.6231 44.4137 17.5344 43.6347 18.2545C42.9954 18.8498 42.2384 19.2834 41.4374 19.6141C41.07 19.7684 40.6952 19.9007 40.3131 20.0035C39.9383 20.1064 39.4753 20.0917 39.1152 20.224C39.7325 19.9962 41.9812 19.0629 44.0315 14.0731C44.7517 12.3168 45.7291 10.215 49.646 9.13477L50.954 13.1986Z" fill="#FF8186" fill-opacity="0.7"/>
<path d="M32.9292 20.7095C36.4566 19.0707 36.9122 21.0843 40.5131 19.9452C37.5957 20.1584 36.7432 15.874 32.9219 16.6383L32.9292 20.7095Z" fill="#FF8186" fill-opacity="0.7"/>
<path d="M149.533 15.6448C149.563 15.7918 151.135 15.417 151.312 15.3582C152.723 14.8658 153.795 13.7562 154.545 12.4922C155.089 11.581 155.552 10.6183 156.257 9.80992C156.823 9.15588 157.536 8.63412 158.293 8.22259C158.638 8.03153 158.991 7.85516 159.358 7.70818C159.726 7.56856 160.196 7.53181 160.527 7.36279C159.946 7.65674 157.389 8.72231 156.316 14.0134C156.132 14.9393 155.228 19.1134 150.062 20.8404L149.533 15.6448Z" fill="#4AB6CD" fill-opacity="0.7"/>
<path d="M164.77 6.71777C162.616 8.66519 161.198 6.60019 159.17 7.79069C162.051 7.26158 163.359 11.4283 167.077 10.2452L164.77 6.71777Z" fill="#4AB6CD" fill-opacity="0.7"/>
<path d="M148.198 71.7231C148.345 71.7893 147.618 73.2296 147.515 73.3913C146.714 74.6626 145.391 75.449 143.988 75.8899C142.981 76.2059 141.937 76.441 140.997 76.9407C140.225 77.3449 139.556 77.9181 138.983 78.5575C138.718 78.8514 138.461 79.1601 138.241 79.4834C138.013 79.8067 137.873 80.255 137.631 80.5416C138.05 80.0419 139.681 77.7932 145.06 77.9622C146.001 77.9916 148.294 78.0431 150.859 75.4636L148.198 71.7231Z" fill="#FF8186" fill-opacity="0.7"/>
<path d="M135.309 85.4595C138.028 82.6816 136.088 82.3362 138.358 79.3159C137.183 82.0056 140.93 84.2396 138.932 87.5906L135.309 85.4595Z" fill="#FF8186" fill-opacity="0.7"/>
<path d="M89.3671 61.8241L89.0247 63.673L90.849 64.1287L123.72 72.3386L125.578 72.8027L126.122 70.9664L126.126 70.953C126.206 70.6817 126.298 70.3734 126.379 70.0595L126.382 70.0497L126.384 70.04C128.913 59.8682 122.731 49.566 112.567 47.0249C102.403 44.484 92.1149 50.6777 89.582 60.8449C89.4963 61.1763 89.4251 61.5105 89.3671 61.8241ZM126.995 70.9829L126.374 72.9992L128.421 73.5113L137.839 75.868L129.841 146.82C128.957 150.11 125.609 152.085 122.313 151.263C122.312 151.263 122.312 151.263 122.312 151.263L55.1178 134.47L55.1158 134.469C51.8137 133.647 49.784 130.33 50.5325 127.02L77.756 60.8628L86.1369 62.9559L88.1285 63.4533L88.5738 61.4493C88.5845 61.4014 88.5948 61.3549 88.6048 61.3098C88.6578 61.0698 88.703 60.8655 88.7547 60.6663L88.7556 60.6625C91.4524 50.1773 102.059 43.797 112.567 46.3322L112.568 46.3323C123.201 48.8963 129.755 59.6064 127.19 70.2623L127.186 70.2794L127.182 70.2965C127.137 70.502 127.071 70.7353 126.995 70.9829Z" fill="#9683C8" stroke="#917EC2" stroke-width="4"/>
<path d="M45.2909 82.8094L46.7079 82.364L46.7116 82.3739L48.5293 81.8026L71.1144 74.7032L72.7619 74.1853L74.3518 73.6863L80.3174 71.814L101.085 116.508C101.633 118.46 100.534 120.512 98.5894 121.134C98.588 121.134 98.5867 121.135 98.5854 121.135L52.7192 135.53H52.7077L52.4143 135.623C50.4864 136.23 48.4253 135.192 47.7518 133.279L40.0338 84.4616L45.2909 82.8094Z" fill="#4CB2CE" stroke="#48ADC9" stroke-width="4"/>
<path d="M55.6145 188.39C55.6145 188.276 55.6145 188.152 55.6145 188.037C55.6145 188.017 55.6145 187.996 55.6145 187.975C55.8636 183.792 58.8113 180.274 62.8695 179.288L62.9318 179.277C63.3781 179.174 63.8244 179.101 64.2707 179.059H64.416C64.6444 179.049 64.8624 179.039 65.0907 179.039C65.319 179.039 65.537 179.039 65.755 179.059H65.9003C66.3569 179.101 66.8033 179.174 67.2496 179.277H67.3015C71.3597 180.253 74.3074 183.772 74.5565 187.944C74.5565 187.975 74.5565 187.996 74.5565 188.027C74.5565 188.131 74.5565 188.235 74.5565 188.338C74.5565 188.442 74.5565 188.453 74.5565 188.515C74.5565 188.691 74.5565 188.857 74.5565 189.023C74.297 193.974 70.2699 197.887 65.3294 198.012H64.8001C59.8596 197.867 55.8636 193.954 55.6041 189.013C55.6041 188.847 55.6041 188.671 55.6041 188.515C55.6145 188.484 55.6145 188.442 55.6145 188.39ZM114.714 179.288L114.776 179.277C115.212 179.174 115.658 179.101 116.115 179.059H116.26C116.478 179.059 116.706 179.039 116.935 179.039C117.153 179.039 117.371 179.039 117.599 179.059H117.755C118.201 179.101 118.647 179.174 119.094 179.277L119.156 179.288C123.235 180.274 126.183 183.823 126.411 188.027V188.037C126.411 188.203 126.411 188.37 126.411 188.536C126.411 193.59 122.456 197.763 117.412 198.022C117.246 198.022 117.08 198.022 116.924 198.022C116.779 198.022 116.592 198.022 116.437 198.022C111.496 197.763 107.573 193.746 107.448 188.785C107.448 188.702 107.448 188.619 107.448 188.525V188.484C107.448 188.338 107.448 188.183 107.448 188.037C107.448 188.027 107.448 188.017 107.448 188.006C107.676 183.813 110.635 180.263 114.714 179.288ZM45.7439 142.224H60.6795V163.511H51.193L45.7439 142.224ZM39.7032 118.59H60.6899V138.165H44.7267L39.7032 118.59ZM34.5863 98.5896H60.6899V114.522H38.6653L34.5863 98.5896ZM64.7586 142.234H88.2467V163.522H64.7586V142.234ZM64.7586 118.601H88.2467V138.176H64.7586V118.601ZM64.7586 98.6H88.2467V114.532H64.7586V98.6ZM92.3049 142.244H115.803V163.532H92.3049V142.244ZM92.3049 118.611H115.803V138.186H92.3049V118.611ZM92.3049 98.6104H115.803V114.542H92.3049V98.6104ZM119.851 142.255H143.121V151.991C143.111 158.363 137.963 163.522 131.601 163.532H119.872L119.851 142.255ZM119.851 118.621H143.121V138.197H119.851V118.621ZM119.851 98.6208H143.121V114.553H119.851V98.6208ZM43.419 167.611H131.601C140.205 167.59 147.169 160.616 147.18 152.001V96.5968C147.18 95.4862 146.266 94.5833 145.156 94.5833H33.1436L31.3168 87.5877C31.1196 86.83 30.5072 86.2488 29.7392 86.1138L20.3979 84.3079C19.9412 83.3426 19.059 82.6576 18.0107 82.45L4.04033 79.6891C2.20321 79.3259 0.428375 80.5195 0.0651031 82.3566C-0.298169 84.1833 0.895438 85.9685 2.73255 86.3318L16.7029 89.0927C16.9209 89.1446 17.1389 89.1653 17.3672 89.1653C18.1975 89.1653 18.9967 88.8539 19.6195 88.2935L27.736 89.8607L47.0102 163.543H43.419C37.5651 163.543 32.8114 168.307 32.8218 174.171C32.8218 180.035 37.5651 184.789 43.419 184.799H52.781C50.7259 191.608 54.5662 198.801 61.3749 200.866C68.1733 202.932 75.3557 199.081 77.4212 192.272C78.1581 189.833 78.1581 187.228 77.4212 184.799H104.615C102.549 191.608 106.389 198.811 113.188 200.876C119.986 202.942 127.179 199.091 129.244 192.283C129.981 189.843 129.981 187.238 129.244 184.799H145.156C146.277 184.747 147.149 183.803 147.107 182.682C147.055 181.623 146.214 180.772 145.156 180.73H127.158C122.872 175.063 114.817 173.963 109.161 178.26C108.227 178.966 107.396 179.796 106.69 180.73H75.3349C71.0483 175.063 62.9837 173.963 57.3271 178.26C56.4033 178.966 55.573 179.796 54.8568 180.73H43.419C39.807 180.73 36.8697 177.793 36.8697 174.171C36.8697 170.549 39.807 167.611 43.419 167.611Z" fill="#6257A5"/>
<path d="M74.5845 188.524C74.5949 193.776 70.3394 198.031 65.0979 198.042C59.8564 198.042 55.6113 193.786 55.6113 188.534C55.6113 183.282 59.8564 179.027 65.0979 179.027C70.3394 179.027 74.5845 183.272 74.5845 188.524Z" fill="#F5B702"/>
<path d="M107.102 187.994C107.154 182.742 111.441 178.539 116.682 178.591C121.924 178.643 126.127 182.94 126.075 188.181C126.023 193.433 121.737 197.647 116.495 197.595C111.254 197.543 107.05 193.246 107.102 187.994Z" fill="#F5B702"/>
<path d="M121.687 188.524C121.697 191.16 119.57 193.299 116.933 193.299C114.307 193.299 112.18 191.171 112.18 188.535C112.18 185.898 114.307 183.771 116.933 183.771C119.559 183.771 121.687 185.898 121.687 188.524Z" fill="white"/>
<path d="M116.922 185.462C115.23 185.462 113.86 186.832 113.86 188.524C113.86 190.226 115.23 191.596 116.922 191.596C118.624 191.596 119.994 190.226 119.994 188.524C119.984 186.832 118.614 185.462 116.922 185.462ZM116.922 194.98C113.362 194.98 110.477 192.094 110.477 188.524C110.477 184.964 113.362 182.068 116.922 182.068C120.482 182.068 123.368 184.964 123.368 188.524C123.368 192.094 120.482 194.98 116.922 194.98Z" fill="#6257A5"/>
<path d="M69.855 188.524C69.8654 191.16 67.7376 193.299 65.1013 193.299C62.4754 193.299 60.3477 191.171 60.3477 188.535C60.3477 185.898 62.4754 183.771 65.1013 183.771C67.7273 183.771 69.855 185.898 69.855 188.524Z" fill="white"/>
<path d="M65.0978 185.461C63.406 185.461 62.036 186.831 62.036 188.533C62.036 190.225 63.4164 191.595 65.1082 191.595C66.8 191.595 68.1701 190.215 68.1701 188.523C68.1597 186.831 66.7896 185.461 65.0978 185.461ZM65.0978 194.979C61.5378 194.979 58.6523 192.093 58.6523 188.523C58.6627 184.952 61.5481 182.067 65.1082 182.067C68.6683 182.067 71.5433 184.963 71.5433 188.523C71.5433 192.093 68.6579 194.979 65.0978 194.979Z" fill="#6257A5"/>
</svg>
