<svg width="343" height="270" viewBox="0 0 343 347" fill="none" xmlns="http://www.w3.org/2000/svg">
<path d="M138.827 65.2152C135.831 64.24 121.052 59.6848 110.699 63.5387C96.1074 68.9744 93.4065 89.9744 87.5029 113.572C71.2786 178.451 51.3189 181.031 56.9969 203.911C66.1432 240.869 126.587 267.954 177.294 257.975C180.537 257.339 241.556 244.39 254.288 195.822C261.89 166.81 251.065 129.74 232.498 124.15C212.233 118.039 191.086 151.928 173.791 143.146C165.396 138.891 162.656 126.998 160.543 117.833C155.638 96.5824 164.612 85.5073 156.257 74.86C152.08 69.5523 146.167 67.6066 138.827 65.2152Z" fill="#EDEEFF"/>
<path d="M189.442 71.1946C187.2 69.5488 176.023 61.7549 165.582 63.0221C150.878 64.7979 140.79 84.2273 126.956 105.382C88.9279 163.542 70.6079 161.356 67.1058 184.53C61.4472 221.978 104.05 261.958 151.852 264.278C154.911 264.427 212.783 266.33 241.756 222.919C259.07 196.99 263.309 159.065 249.22 149.382C233.846 138.818 202.943 166.229 191.131 153.804C185.4 147.756 187.408 135.766 188.937 126.52C192.515 105.079 204.396 96.5985 201.045 84.4842C199.371 78.4331 194.942 75.2054 189.442 71.1946Z" stroke="#9196F7" stroke-width="4" stroke-miterlimit="10"/>
<path d="M83.8028 214C78.4991 214 74.1797 210.078 74.1797 205.247V76.0337H231.172V205.247C231.172 210.078 226.864 214 221.561 214H83.8028Z" fill="white"/>
<path d="M231.848 75.376H73.5234V204.681C73.5234 209.83 78.1208 214 83.8066 214H221.564C227.239 214 231.848 209.83 231.848 204.681V75.376ZM230.516 76.5764V204.681C230.516 209.156 226.498 212.8 221.564 212.8H83.8066C78.8619 212.8 74.8436 209.156 74.8436 204.681V76.5764H230.516Z" fill="#7484CA"/>
<path d="M117.771 123.768V123.178H85.8563C84.8604 123.178 83.9571 122.761 83.2971 122.112C82.637 121.452 82.2317 120.549 82.2317 119.553V95.2695C82.2317 94.2736 82.637 93.3704 83.2971 92.7103C83.9571 92.0502 84.8604 91.6449 85.8563 91.6449H117.771C118.767 91.6449 119.67 92.0502 120.33 92.7103C120.991 93.3704 121.396 94.2736 121.396 95.2695V119.553C121.396 120.549 120.991 121.452 120.33 122.112C119.67 122.761 118.767 123.178 117.771 123.178V124.37C120.423 124.359 122.589 122.205 122.6 119.553V95.2695C122.589 92.6176 120.423 90.4637 117.771 90.4521H85.8563C83.2044 90.4637 81.0389 92.6176 81.0273 95.2695V119.553C81.0389 122.205 83.2044 124.359 85.8563 124.37H117.771V123.768Z" fill="#C0EAF2"/>
<path d="M87.5109 128.574C87.4646 128.527 87.4067 128.493 87.3488 128.469C87.1056 128.377 86.2718 128.354 86.1676 128.342L86.0055 128.319C85.9128 128.041 85.8433 127.833 85.716 127.531C85.6581 127.369 85.5538 127.161 85.438 127.034C85.3222 126.906 85.1717 126.79 84.998 126.814C84.778 126.837 84.4885 127.254 84.3727 127.531C84.2684 127.786 84.1874 128.041 84.0947 128.319L83.9326 128.342C83.8284 128.354 82.9946 128.377 82.763 128.469C82.6935 128.493 82.6472 128.527 82.6009 128.574C82.4851 128.69 82.4735 128.886 82.543 129.025C82.6125 129.176 82.7514 129.28 82.8788 129.373C83.0062 129.477 83.1336 129.57 83.2725 129.662C83.3883 129.743 83.4926 129.824 83.6084 129.894L83.6315 129.905V129.929C83.5852 130.183 83.5157 130.427 83.4578 130.67C83.4231 130.832 83.3768 130.971 83.3652 131.133C83.3652 131.318 83.3652 131.55 83.562 131.642C83.6315 131.666 83.7126 131.666 83.7937 131.642C84.0484 131.573 84.3032 131.469 84.5695 131.318C84.7201 131.249 84.8822 131.121 85.0559 130.994C85.218 131.121 85.3801 131.249 85.5307 131.318C85.797 131.469 86.0518 131.573 86.3065 131.642C86.3876 131.666 86.4687 131.666 86.5382 131.642C86.7466 131.55 86.735 131.318 86.735 131.133C86.7234 130.971 86.6771 130.832 86.6424 130.67C86.5845 130.427 86.5266 130.183 86.4687 129.929V129.905L86.4918 129.894C86.6076 129.824 86.7119 129.743 86.8277 129.662C86.9666 129.57 87.094 129.477 87.2214 129.373C87.3488 129.28 87.4877 129.176 87.5572 129.025C87.6267 128.886 87.6151 128.69 87.5109 128.574Z" fill="#FBC94F"/>
<path d="M95.9132 128.574C95.8669 128.527 95.809 128.493 95.7511 128.469C95.5195 128.377 94.6742 128.354 94.5815 128.342L94.4194 128.319C94.3267 128.041 94.2457 127.833 94.1299 127.531C94.0604 127.369 93.9678 127.161 93.8404 127.034C93.7246 126.906 93.574 126.79 93.4003 126.814C93.1803 126.837 92.8908 127.254 92.775 127.531C92.6708 127.786 92.5897 128.041 92.5087 128.319L92.335 128.342C92.2423 128.354 91.397 128.377 91.1654 128.469C91.1075 128.493 91.0496 128.527 91.0032 128.574C90.8874 128.69 90.8759 128.886 90.9453 129.025C91.0264 129.176 91.1654 129.28 91.2812 129.373C91.4085 129.477 91.5475 129.57 91.6749 129.662C91.7907 129.743 91.9065 129.824 92.0223 129.894L92.0339 129.905V129.929C91.9875 130.183 91.9181 130.427 91.8602 130.67C91.8254 130.832 91.7791 130.971 91.7791 131.133C91.7675 131.318 91.7675 131.55 91.9644 131.642C92.0455 131.666 92.1265 131.666 92.196 131.642C92.4508 131.573 92.7055 131.469 92.9834 131.318C93.134 131.249 93.2845 131.121 93.4582 130.994C93.6319 131.121 93.7941 131.249 93.933 131.318C94.2109 131.469 94.4657 131.573 94.7205 131.642C94.79 131.666 94.8826 131.666 94.9521 131.642C95.1489 131.55 95.1489 131.318 95.1374 131.133C95.1374 130.971 95.091 130.832 95.0563 130.67C94.9984 130.427 94.9289 130.183 94.8826 129.929V129.905L94.8942 129.894C95.01 129.824 95.1258 129.743 95.2416 129.662C95.369 129.57 95.5079 129.477 95.6353 129.373C95.7511 129.28 95.8901 129.176 95.9711 129.025C96.0406 128.886 96.029 128.69 95.9132 128.574Z" fill="#FBC94F"/>
<path d="M104.314 128.574C104.279 128.527 104.221 128.493 104.152 128.469C103.92 128.377 103.086 128.354 102.982 128.342L102.82 128.319C102.727 128.041 102.658 127.833 102.53 127.531C102.461 127.369 102.368 127.161 102.241 127.034C102.137 126.906 101.986 126.79 101.801 126.814C101.592 126.837 101.303 127.254 101.187 127.531C101.071 127.786 101.002 128.041 100.909 128.319L100.747 128.342C100.643 128.354 99.8091 128.377 99.5659 128.469C99.508 128.493 99.4501 128.527 99.4153 128.574C99.2995 128.69 99.288 128.886 99.3574 129.025C99.4269 129.176 99.5659 129.28 99.6933 129.373C99.8207 129.477 99.948 129.57 100.087 129.662C100.203 129.743 100.307 129.824 100.423 129.894L100.446 129.905V129.929C100.4 130.183 100.33 130.427 100.272 130.67C100.238 130.832 100.191 130.971 100.18 131.133C100.18 131.318 100.168 131.55 100.377 131.642C100.446 131.666 100.527 131.666 100.608 131.642C100.863 131.573 101.118 131.469 101.384 131.318C101.535 131.249 101.697 131.121 101.859 130.994C102.032 131.121 102.195 131.249 102.345 131.318C102.611 131.469 102.866 131.573 103.121 131.642C103.202 131.666 103.283 131.666 103.353 131.642C103.561 131.55 103.549 131.318 103.549 131.133C103.538 130.971 103.492 130.832 103.457 130.67C103.399 130.427 103.329 130.183 103.283 129.929V129.905L103.306 129.894C103.422 129.824 103.526 129.743 103.642 129.662C103.781 129.57 103.908 129.477 104.036 129.373C104.163 129.28 104.302 129.176 104.372 129.025C104.441 128.886 104.43 128.69 104.314 128.574Z" fill="#FBC94F"/>
<path d="M112.712 128.574C112.666 128.527 112.608 128.493 112.55 128.469C112.307 128.377 111.473 128.354 111.38 128.342L111.207 128.319C111.126 128.041 111.045 127.833 110.929 127.531C110.859 127.369 110.755 127.161 110.639 127.034C110.523 126.906 110.373 126.79 110.199 126.814C109.979 126.837 109.69 127.254 109.574 127.531C109.47 127.786 109.389 128.041 109.296 128.319L109.134 128.342C109.03 128.354 108.196 128.377 107.964 128.469C107.906 128.493 107.848 128.527 107.802 128.574C107.686 128.69 107.675 128.886 107.744 129.025C107.814 129.176 107.964 129.28 108.08 129.373C108.207 129.477 108.346 129.57 108.474 129.662C108.59 129.743 108.694 129.824 108.821 129.894L108.833 129.905V129.929C108.786 130.183 108.717 130.427 108.659 130.67C108.624 130.832 108.578 130.971 108.578 131.133C108.566 131.318 108.566 131.55 108.763 131.642C108.833 131.666 108.925 131.666 108.995 131.642C109.25 131.573 109.504 131.469 109.782 131.318C109.921 131.249 110.083 131.121 110.257 130.994C110.431 131.121 110.581 131.249 110.732 131.318C111.01 131.469 111.253 131.573 111.519 131.642C111.589 131.666 111.67 131.666 111.751 131.642C111.948 131.55 111.948 131.318 111.936 131.133C111.936 130.971 111.89 130.832 111.844 130.67C111.797 130.427 111.728 130.183 111.681 129.929V129.905L111.693 129.894C111.809 129.824 111.925 129.743 112.029 129.662C112.168 129.57 112.307 129.477 112.423 129.373C112.55 129.28 112.689 129.176 112.77 129.025C112.828 128.886 112.816 128.69 112.712 128.574Z" fill="#C0EAF2"/>
<path d="M121.109 128.574C121.063 128.527 121.005 128.493 120.947 128.469C120.716 128.377 119.882 128.354 119.778 128.342L119.616 128.319C119.523 128.041 119.442 127.833 119.326 127.531C119.257 127.369 119.164 127.161 119.037 127.034C118.932 126.906 118.77 126.79 118.597 126.814C118.377 126.837 118.099 127.254 117.971 127.531C117.867 127.786 117.786 128.041 117.705 128.319L117.531 128.342C117.439 128.354 116.605 128.377 116.362 128.469C116.304 128.493 116.246 128.527 116.199 128.574C116.095 128.69 116.084 128.886 116.153 129.025C116.223 129.176 116.362 129.28 116.489 129.373C116.616 129.477 116.744 129.57 116.883 129.662C116.987 129.743 117.103 129.824 117.219 129.894L117.23 129.905V129.929C117.184 130.183 117.126 130.427 117.068 130.67C117.022 130.832 116.975 130.971 116.975 131.133C116.975 131.318 116.964 131.55 117.172 131.642C117.242 131.666 117.323 131.666 117.404 131.642C117.659 131.573 117.913 131.469 118.18 131.318C118.33 131.249 118.492 131.121 118.654 130.994C118.828 131.121 118.99 131.249 119.141 131.318C119.407 131.469 119.662 131.573 119.917 131.642C119.998 131.666 120.079 131.666 120.148 131.642C120.345 131.55 120.345 131.318 120.334 131.133C120.334 130.971 120.287 130.832 120.253 130.67C120.195 130.427 120.125 130.183 120.079 129.929V129.905L120.102 129.894C120.218 129.824 120.322 129.743 120.438 129.662C120.565 129.57 120.704 129.477 120.832 129.373C120.959 129.28 121.098 129.176 121.167 129.025C121.237 128.886 121.225 128.69 121.109 128.574Z" fill="#C0EAF2"/>
<path d="M121.213 136.112H82.5V135.059H121.213V136.112Z" fill="#C0EAF2"/>
<path d="M121.213 138.993H82.5V137.928H121.213V138.993Z" fill="#C0EAF2"/>
<path d="M121.213 141.867H82.5V140.801H121.213V141.867Z" fill="#C0EAF2"/>
<path d="M94.6011 107.46C94.8443 111.131 94.4621 114.906 94.1611 118.542C94.0916 119.411 94.4621 119.353 95.157 119.492C95.0643 119.816 95.2959 120.152 95.597 120.302C95.8981 120.453 96.2455 120.453 96.5813 120.453C100.299 120.464 104.016 120.464 107.733 120.476C108.057 120.476 108.439 120.441 108.578 120.163C108.729 119.897 108.567 119.573 108.578 119.272C108.845 119.133 109.192 119.295 109.412 119.04C109.528 118.913 109.54 118.716 109.54 118.542C109.621 113.817 109.377 108.548 109.458 103.824C110.57 108.039 110.848 109.915 111.578 112.787C111.728 113.377 111.682 114.037 112.029 114.535C112.377 115.033 113.083 115.346 113.627 115.056C113.616 115.311 113.72 115.578 113.905 115.763C114.797 115.624 115.654 115.195 116.302 114.57C116.129 114.304 115.943 114.037 115.758 113.771C116.453 113.053 116.534 111.918 116.291 110.957C116.048 109.984 115.434 109.139 115.202 108.166C114.554 105.329 114.218 102.423 112.909 99.9675C112.909 99.0874 111.23 97.7905 110.57 97.3852C109.632 96.8177 108.555 96.7251 107.501 96.5398C106.772 96.4008 105.88 96.1229 105.903 95.2081C105.903 95.0807 105.927 94.9302 105.857 94.8259C105.764 94.6754 105.568 94.6522 105.394 94.6406C103.935 94.548 102.476 94.4901 101.005 94.4554C100.322 94.4438 97.8204 94.0269 97.4614 94.8259C97.4035 94.9649 97.4151 95.1154 97.4267 95.266C97.4846 96.0187 97.2645 95.926 96.5697 96.0766C95.9097 96.2156 95.2612 96.3777 94.6011 96.5051C90.1659 97.3504 89.2974 101.461 89.2974 105.387C89.2974 106.568 88.7068 107.854 88.3247 108.942C87.9309 110.089 87.7109 111.235 87.433 112.416C87.3403 112.845 87.2361 113.296 87.3403 113.736C87.433 114.095 87.6762 114.42 88.0004 114.616C88.0583 114.64 88.1278 114.674 88.151 114.744C88.1741 114.79 88.1625 114.836 88.151 114.894C88.1046 115.126 88.0583 115.369 88.012 115.601C88.5678 116.087 89.5406 115.902 90.2122 115.89C90.2817 115.89 90.3628 115.89 90.4207 115.844C90.467 115.798 90.4786 115.728 90.5017 115.659C90.5481 115.415 90.5944 115.172 90.6407 114.918C90.9649 114.871 91.2776 114.721 91.5092 114.489C92.1114 113.933 92.204 113.042 92.343 112.231C92.7483 109.822 93.8137 107.425 94.3348 104.935C94.4621 105.769 94.5432 106.615 94.6011 107.46Z" fill="#7BD2CE"/>
<path d="M98.1459 96.5056C100.473 97.3046 102.917 97.5247 105.302 96.8183C105.372 96.7951 105.36 96.5403 105.302 96.5519C102.859 96.8646 100.531 96.853 98.1459 96.1466C98.0764 96.1235 98.0416 96.4709 98.1459 96.5056Z" fill="#69CCC8"/>
<path d="M113.761 114.861C114.051 114.757 114.34 114.653 114.607 114.502C114.885 114.329 115.163 114.143 115.417 113.935C115.452 113.912 115.464 113.726 115.406 113.75C114.78 113.935 114.271 114.248 113.738 114.606C113.68 114.653 113.68 114.896 113.761 114.861Z" fill="#69CCC8"/>
<path d="M88.5236 114.758C89.0911 115.082 89.7164 115.244 90.3302 114.978C90.3881 114.955 90.3765 114.793 90.3186 114.781C89.7396 114.665 89.1258 114.677 88.5352 114.55C88.4773 114.526 88.4773 114.735 88.5236 114.758Z" fill="#69CCC8"/>
<path d="M89.0349 108.574C89.8802 107.891 90.7719 107.265 91.4783 106.443C91.513 106.408 91.513 106.212 91.4436 106.246C90.4824 106.744 89.7297 107.647 89.0117 108.447L89.0349 108.574Z" fill="#69CCC8"/>
<path d="M96.5995 115.347C100.467 115.069 104.601 112.417 107.242 109.719C107.288 109.673 107.288 109.418 107.218 109.464C105.551 110.553 103.941 111.699 102.181 112.637C100.363 113.598 98.406 114.247 96.5879 115.208L96.5995 115.347Z" fill="#69CCC8"/>
<path d="M99.1321 113.471C100.869 111.943 102.514 110.24 103.753 108.283C103.776 108.237 103.764 108.052 103.718 108.11C102.236 109.858 100.8 111.561 99.0858 113.078C98.9816 113.159 99.051 113.552 99.1321 113.471Z" fill="#69CCC8"/>
<path d="M95.625 119.369C99.2264 119.843 103.372 120.179 106.95 119.496C107.008 119.484 107.008 119.253 106.95 119.253C103.256 118.929 99.3422 119.206 95.625 119.218V119.369Z" fill="#69CCC8"/>
<path d="M169.451 123.768V123.178H137.548C136.54 123.178 135.637 122.761 134.977 122.112C134.317 121.452 133.912 120.549 133.912 119.553V95.2695C133.912 94.2736 134.317 93.3704 134.977 92.7103C135.637 92.0502 136.54 91.6449 137.548 91.6449H169.451C170.447 91.6449 171.35 92.0502 172.01 92.7103C172.67 93.3704 173.076 94.2736 173.076 95.2695V119.553C173.076 120.549 172.67 121.452 172.01 122.112C171.35 122.761 170.447 123.178 169.451 123.178V124.37C172.115 124.359 174.28 122.205 174.28 119.553V95.2695C174.28 92.6176 172.115 90.4637 169.451 90.4521H137.548C134.884 90.4637 132.719 92.6176 132.719 95.2695V119.553C132.719 122.205 134.884 124.359 137.548 124.37H169.451V123.768Z" fill="#C0EAF2"/>
<path d="M139.138 128.574C139.103 128.527 139.045 128.493 138.976 128.469C138.744 128.377 137.91 128.354 137.806 128.342L137.644 128.319C137.551 128.041 137.482 127.833 137.355 127.531C137.285 127.369 137.193 127.161 137.065 127.034C136.961 126.906 136.799 126.79 136.625 126.814C136.417 126.837 136.127 127.254 136.011 127.531C135.896 127.786 135.826 128.041 135.733 128.319L135.571 128.342C135.467 128.354 134.633 128.377 134.39 128.469C134.332 128.493 134.274 128.527 134.24 128.574C134.124 128.69 134.112 128.886 134.182 129.025C134.251 129.176 134.39 129.28 134.517 129.373C134.645 129.477 134.772 129.57 134.911 129.662C135.027 129.743 135.131 129.824 135.247 129.894L135.27 129.905V129.929C135.224 130.183 135.154 130.427 135.096 130.67C135.062 130.832 135.015 130.971 135.004 131.133C135.004 131.318 134.992 131.55 135.201 131.642C135.27 131.666 135.351 131.666 135.432 131.642C135.687 131.573 135.942 131.469 136.208 131.318C136.359 131.249 136.521 131.121 136.683 130.994C136.857 131.121 137.019 131.249 137.169 131.318C137.436 131.469 137.69 131.573 137.945 131.642C138.026 131.666 138.107 131.666 138.177 131.642C138.385 131.55 138.374 131.318 138.374 131.133C138.362 130.971 138.316 130.832 138.281 130.67C138.223 130.427 138.154 130.183 138.107 129.929V129.905L138.131 129.894C138.246 129.824 138.351 129.743 138.466 129.662C138.605 129.57 138.733 129.477 138.86 129.373C138.987 129.28 139.126 129.176 139.196 129.025C139.265 128.886 139.254 128.69 139.138 128.574Z" fill="#FBC94F"/>
<path d="M147.552 128.574C147.506 128.527 147.448 128.493 147.39 128.469C147.147 128.377 146.313 128.354 146.22 128.342L146.046 128.319C145.965 128.041 145.884 127.833 145.769 127.531C145.699 127.369 145.595 127.161 145.479 127.034C145.363 126.906 145.213 126.79 145.039 126.814C144.819 126.837 144.529 127.254 144.414 127.531C144.309 127.786 144.228 128.041 144.136 128.319L143.974 128.342C143.869 128.354 143.036 128.377 142.804 128.469C142.746 128.493 142.688 128.527 142.642 128.574C142.526 128.69 142.515 128.886 142.584 129.025C142.653 129.176 142.792 129.28 142.92 129.373C143.047 129.477 143.186 129.57 143.314 129.662C143.429 129.743 143.534 129.824 143.661 129.894L143.673 129.905V129.929C143.626 130.183 143.557 130.427 143.499 130.67C143.464 130.832 143.418 130.971 143.418 131.133C143.406 131.318 143.406 131.55 143.603 131.642C143.673 131.666 143.765 131.666 143.835 131.642C144.089 131.573 144.344 131.469 144.622 131.318C144.761 131.249 144.923 131.121 145.097 130.994C145.271 131.121 145.421 131.249 145.572 131.318C145.85 131.469 146.093 131.573 146.359 131.642C146.429 131.666 146.51 131.666 146.591 131.642C146.788 131.55 146.788 131.318 146.776 131.133C146.776 130.971 146.73 130.832 146.683 130.67C146.637 130.427 146.568 130.183 146.521 129.929V129.905L146.533 129.894C146.649 129.824 146.764 129.743 146.869 129.662C147.008 129.57 147.135 129.477 147.262 129.373C147.39 129.28 147.529 129.176 147.61 129.025C147.668 128.886 147.656 128.69 147.552 128.574Z" fill="#FBC94F"/>
<path d="M155.945 128.574C155.899 128.527 155.841 128.493 155.783 128.469C155.552 128.377 154.718 128.354 154.614 128.342L154.452 128.319C154.359 128.041 154.278 127.833 154.162 127.531C154.093 127.369 154 127.161 153.873 127.034C153.768 126.906 153.606 126.79 153.433 126.814C153.212 126.837 152.935 127.254 152.807 127.531C152.703 127.786 152.622 128.041 152.541 128.319L152.367 128.342C152.275 128.354 151.441 128.377 151.198 128.469C151.14 128.493 151.082 128.527 151.035 128.574C150.931 128.69 150.92 128.886 150.989 129.025C151.059 129.176 151.198 129.28 151.325 129.373C151.452 129.477 151.58 129.57 151.719 129.662C151.823 129.743 151.939 129.824 152.054 129.894L152.066 129.905V129.929C152.02 130.183 151.962 130.427 151.904 130.67C151.858 130.832 151.811 130.971 151.811 131.133C151.811 131.318 151.8 131.55 152.008 131.642C152.078 131.666 152.159 131.666 152.24 131.642C152.495 131.573 152.749 131.469 153.016 131.318C153.166 131.249 153.328 131.121 153.49 130.994C153.664 131.121 153.826 131.249 153.977 131.318C154.243 131.469 154.498 131.573 154.753 131.642C154.834 131.666 154.915 131.666 154.984 131.642C155.181 131.55 155.181 131.318 155.17 131.133C155.17 130.971 155.123 130.832 155.088 130.67C155.031 130.427 154.961 130.183 154.915 129.929V129.905L154.938 129.894C155.054 129.824 155.158 129.743 155.274 129.662C155.401 129.57 155.54 129.477 155.667 129.373C155.795 129.28 155.934 129.176 156.003 129.025C156.073 128.886 156.061 128.69 155.945 128.574Z" fill="#C0EAF2"/>
<path d="M164.355 128.574C164.308 128.527 164.25 128.493 164.193 128.469C163.949 128.377 163.116 128.354 163.023 128.342L162.849 128.319C162.768 128.041 162.687 127.833 162.571 127.531C162.502 127.369 162.398 127.161 162.282 127.034C162.166 126.906 162.015 126.79 161.842 126.814C161.622 126.837 161.332 127.254 161.216 127.531C161.112 127.786 161.031 128.041 160.938 128.319L160.776 128.342C160.672 128.354 159.838 128.377 159.607 128.469C159.549 128.493 159.491 128.527 159.445 128.574C159.329 128.69 159.317 128.886 159.387 129.025C159.456 129.176 159.595 129.28 159.723 129.373C159.85 129.477 159.989 129.57 160.116 129.662C160.232 129.743 160.336 129.824 160.452 129.894L160.475 129.905V129.929C160.429 130.183 160.359 130.427 160.302 130.67C160.267 130.832 160.221 130.971 160.209 131.133C160.209 131.318 160.209 131.55 160.406 131.642C160.475 131.666 160.556 131.666 160.637 131.642C160.892 131.573 161.147 131.469 161.413 131.318C161.564 131.249 161.726 131.121 161.9 130.994C162.062 131.121 162.224 131.249 162.374 131.318C162.641 131.469 162.896 131.573 163.15 131.642C163.231 131.666 163.312 131.666 163.382 131.642C163.59 131.55 163.579 131.318 163.579 131.133C163.567 130.971 163.521 130.832 163.486 130.67C163.428 130.427 163.37 130.183 163.324 129.929V129.905L163.336 129.894C163.451 129.824 163.567 129.743 163.671 129.662C163.81 129.57 163.938 129.477 164.065 129.373C164.193 129.28 164.331 129.176 164.401 129.025C164.47 128.886 164.459 128.69 164.355 128.574Z" fill="#C0EAF2"/>
<path d="M172.752 128.574C172.706 128.527 172.648 128.493 172.59 128.469C172.358 128.377 171.525 128.354 171.42 128.342L171.258 128.319C171.166 128.041 171.084 127.833 170.969 127.531C170.899 127.369 170.807 127.161 170.679 127.034C170.563 126.906 170.413 126.79 170.239 126.814C170.019 126.837 169.741 127.254 169.614 127.531C169.51 127.786 169.429 128.041 169.347 128.319L169.174 128.342C169.081 128.354 168.236 128.377 168.004 128.469C167.946 128.493 167.888 128.527 167.842 128.574C167.726 128.69 167.726 128.886 167.784 129.025C167.865 129.176 168.004 129.28 168.12 129.373C168.259 129.477 168.386 129.57 168.514 129.662C168.629 129.743 168.745 129.824 168.861 129.894L168.873 129.905V129.929C168.826 130.183 168.757 130.427 168.699 130.67C168.664 130.832 168.618 130.971 168.618 131.133C168.606 131.318 168.606 131.55 168.803 131.642C168.884 131.666 168.965 131.666 169.035 131.642C169.29 131.573 169.544 131.469 169.822 131.318C169.973 131.249 170.123 131.121 170.297 130.994C170.471 131.121 170.633 131.249 170.772 131.318C171.05 131.469 171.305 131.573 171.559 131.642C171.629 131.666 171.721 131.666 171.791 131.642C171.988 131.55 171.988 131.318 171.976 131.133C171.976 130.971 171.93 130.832 171.895 130.67C171.837 130.427 171.768 130.183 171.721 129.929V129.905L171.733 129.894C171.86 129.824 171.965 129.743 172.08 129.662C172.208 129.57 172.347 129.477 172.474 129.373C172.59 129.28 172.74 129.176 172.81 129.025C172.879 128.886 172.868 128.69 172.752 128.574Z" fill="#C0EAF2"/>
<path d="M172.851 136.112H134.139V135.059H172.851V136.112Z" fill="#C0EAF2"/>
<path d="M172.851 138.993H134.139V137.928H172.851V138.993Z" fill="#C0EAF2"/>
<path d="M172.851 141.867H134.139V140.801H172.851V141.867Z" fill="#C0EAF2"/>
<path d="M146.352 120.792L146.41 120.769C146.873 120.548 147.325 120.236 147.846 120.236C148.657 120.224 149.328 120.977 150.15 120.977C150.996 120.965 151.679 120.132 152.524 120.155C153.173 120.166 153.729 120.687 154.377 120.711C155.338 120.745 156.126 119.715 157.087 119.831C157.793 119.923 158.372 120.641 159.09 120.56C159.438 120.525 159.739 120.282 160.051 120.132C160.665 119.842 161.314 120.41 161.846 119.865C162.483 119.217 161.974 117.491 161.765 116.727C161.43 115.511 160.989 114.318 160.515 113.149C159.565 110.798 158.488 108.47 157.921 105.992C157.863 105.703 157.805 105.413 157.816 105.124C157.84 104.753 157.979 104.406 158.106 104.058C158.917 101.881 159.276 99.5652 159.472 97.2723C159.484 97.0176 159.97 95.4774 159.739 95.3037C160.017 95.5122 160.144 95.8596 160.248 96.1954C160.422 96.7281 160.596 97.2608 160.769 97.805C161.059 96.7628 160.457 95.6974 159.889 94.7826C160.04 94.7942 160.19 94.8058 160.341 94.8173C160.665 94.8405 161.036 94.8405 161.221 94.5857C161.453 94.2615 161.152 93.7751 160.758 93.6941C160.376 93.613 159.982 93.833 159.681 94.0878C159.623 94.1341 159.554 94.192 159.472 94.1689C159.426 94.1573 159.391 94.1225 159.368 94.0762C159.218 93.8793 159.067 93.6709 158.917 93.4625C158.859 93.393 158.789 93.3119 158.708 93.2656C158.465 93.1614 158.199 93.4393 158.199 93.7056C158.21 94.1457 158.639 94.3889 158.754 94.7826C158.314 95.3848 158.013 96.0912 157.863 96.8207C158.199 96.2996 158.546 95.7901 158.905 95.2921C158.824 95.9869 158.372 96.6817 158.372 97.365C158.314 97.6776 158.245 98.025 157.99 98.2103C157.77 98.3725 157.492 98.384 157.226 98.3956C154.69 98.4767 152.165 98.5462 149.629 98.6272C148.819 98.6504 148.402 97.8513 148.17 97.1913C148.031 96.786 147.939 96.3691 147.869 95.9406C147.811 95.6395 147.823 94.991 147.672 94.7363C147.8 94.9447 147.927 95.1532 148.054 95.3616C148.101 95.4311 148.135 95.5006 148.205 95.5469C148.274 95.5932 148.379 95.5932 148.437 95.5353C148.228 95.0837 147.95 94.6552 147.776 94.2036C147.904 94.0762 148.078 94.0762 148.251 94.0299C148.448 93.9836 148.657 93.8909 148.796 93.7288C148.934 93.5667 148.981 93.3119 148.853 93.1498C148.714 92.9645 148.448 92.9529 148.217 92.9877C147.649 93.0919 147.14 93.4856 146.896 94.0183C146.132 93.2888 145.032 93.7172 144.557 94.551C144.418 94.7942 144.337 95.1184 144.511 95.35C144.661 95.5585 144.974 95.5816 145.206 95.4774C145.657 95.2921 145.854 94.8058 146.259 94.5742C146.294 94.8521 146.063 95.0953 146.016 95.3732C145.958 95.6743 146.132 95.9754 146.144 96.288C146.144 96.5659 146.005 96.8323 145.866 97.0871C146.109 96.9481 146.306 96.7281 146.375 96.4733C146.456 96.207 146.387 95.9406 146.375 95.6743C146.352 95.4079 146.398 95.1068 146.607 94.9447C146.711 95.4311 146.908 95.9522 146.908 96.4501C146.943 97.5387 146.781 98.6156 146.723 99.7042C146.653 101.372 147.012 102.958 147.638 104.51C147.742 104.776 147.858 105.054 147.869 105.344C147.881 105.587 147.823 105.842 147.776 106.085C147.163 108.795 146.283 111.47 145.808 114.179C145.599 115.337 143.388 122.054 146.352 120.792Z" fill="#7EC4ED"/>
<path d="M149.239 105.18C151.347 105.991 154.439 106.199 156.593 105.539C156.674 105.504 156.685 105.192 156.593 105.18C155.377 105.076 154.138 105.226 152.91 105.18C151.683 105.145 150.467 104.925 149.251 104.925C149.181 104.925 149.181 105.157 149.239 105.18Z" fill="#6EB8E8"/>
<path d="M147.305 119.738C147.653 118.116 147.988 116.495 148.382 114.897C148.556 114.179 149.019 111.029 149.702 110.751C149.482 110.844 149.239 115.812 149.204 116.24C149.146 117.398 149.181 118.51 149.343 119.668C149.355 119.714 149.378 119.68 149.378 119.645C148.903 116.437 149.702 113.276 149.76 110.057C149.76 110.033 149.725 109.964 149.702 110.01C148.579 113.137 147.861 116.333 147.201 119.575C147.178 119.68 147.27 119.923 147.305 119.738Z" fill="#6EB8E8"/>
<path d="M153.495 119.364C153.623 116.84 153.773 114.304 153.935 111.779C153.947 111.525 153.727 111.224 153.704 111.629C153.518 114.211 153.426 116.782 153.426 119.364C153.426 119.457 153.495 119.457 153.495 119.364Z" fill="#6EB8E8"/>
<path d="M158.115 119.608C157.941 118.183 157.744 116.77 157.547 115.346C157.443 114.64 157.339 113.933 157.246 113.227C157.177 112.764 157.107 112.289 157.038 111.814C156.829 111.073 156.841 110.899 157.096 111.328C157.93 112.138 158.219 114.281 158.543 115.358C158.972 116.759 159.331 118.195 159.713 119.608C159.794 119.885 159.933 119.527 159.898 119.388C159.203 116.342 158.358 113.007 156.795 110.274C156.702 110.123 156.644 110.482 156.656 110.529C157.084 113.586 157.49 116.643 157.976 119.689C158.011 119.909 158.138 119.747 158.115 119.608Z" fill="#6EB8E8"/>
<path d="M117.771 189.057V188.466H85.8563C84.8604 188.466 83.9571 188.061 83.2971 187.401C82.637 186.741 82.2317 185.838 82.2317 184.842V160.558C82.2317 159.562 82.637 158.659 83.2971 158.01C83.9571 157.35 84.8604 156.945 85.8563 156.945H117.771C118.767 156.945 119.67 157.35 120.33 158.01C120.991 158.659 121.396 159.562 121.396 160.558V184.842C121.396 185.838 120.991 186.741 120.33 187.401C119.67 188.061 118.767 188.466 117.771 188.466V189.659C120.423 189.659 122.589 187.494 122.6 184.842V160.558C122.589 157.906 120.423 155.752 117.771 155.741H85.8563C83.2044 155.752 81.0389 157.906 81.0273 160.558V184.842C81.0389 187.494 83.2044 189.659 85.8563 189.659H117.771V189.057Z" fill="#C0EAF2"/>
<path d="M87.5109 193.432C87.4646 193.385 87.4067 193.351 87.3488 193.327C87.1056 193.235 86.2718 193.212 86.1676 193.2L86.0055 193.177C85.9128 192.899 85.8433 192.69 85.716 192.389C85.6581 192.227 85.5538 192.03 85.438 191.891C85.3222 191.764 85.1717 191.648 84.998 191.671C84.778 191.695 84.4885 192.111 84.3727 192.389C84.2684 192.644 84.1874 192.899 84.0947 193.177L83.9326 193.2C83.8284 193.212 82.9946 193.235 82.763 193.327C82.6935 193.351 82.6472 193.385 82.6009 193.432C82.4851 193.547 82.4735 193.744 82.543 193.883C82.6125 194.034 82.7514 194.138 82.8788 194.231C83.0062 194.335 83.1336 194.428 83.2725 194.52C83.3883 194.601 83.4926 194.682 83.6084 194.752L83.6315 194.763V194.786C83.5852 195.041 83.5157 195.284 83.4578 195.528C83.4231 195.69 83.3768 195.84 83.3652 196.002C83.3652 196.176 83.3652 196.408 83.562 196.5C83.6315 196.524 83.7126 196.524 83.7937 196.512C84.0484 196.431 84.3032 196.327 84.5695 196.188C84.7201 196.107 84.8822 195.979 85.0559 195.852C85.218 195.979 85.3801 196.107 85.5307 196.188C85.797 196.327 86.0518 196.431 86.3065 196.512C86.3876 196.524 86.4687 196.524 86.5382 196.5C86.7466 196.408 86.735 196.176 86.735 196.002C86.7234 195.84 86.6771 195.69 86.6424 195.528C86.5845 195.284 86.5266 195.041 86.4687 194.786V194.763L86.4918 194.752C86.6076 194.682 86.7119 194.601 86.8277 194.52C86.9666 194.428 87.094 194.335 87.2214 194.231C87.3488 194.138 87.4877 194.034 87.5572 193.883C87.6267 193.744 87.6151 193.547 87.5109 193.432Z" fill="#FBC94F"/>
<path d="M95.9132 193.432C95.8669 193.385 95.809 193.351 95.7511 193.327C95.5195 193.235 94.6742 193.212 94.5815 193.2L94.4194 193.177C94.3267 192.899 94.2457 192.69 94.1299 192.389C94.0604 192.227 93.9678 192.03 93.8404 191.891C93.7246 191.764 93.574 191.648 93.4003 191.671C93.1803 191.695 92.8908 192.111 92.775 192.389C92.6708 192.644 92.5897 192.899 92.5087 193.177L92.335 193.2C92.2423 193.212 91.397 193.235 91.1654 193.327C91.1075 193.351 91.0496 193.385 91.0032 193.432C90.8874 193.547 90.8759 193.744 90.9453 193.883C91.0264 194.034 91.1654 194.138 91.2812 194.231C91.4085 194.335 91.5475 194.428 91.6749 194.52C91.7907 194.601 91.9065 194.682 92.0223 194.752L92.0339 194.763V194.786C91.9875 195.041 91.9181 195.284 91.8602 195.528C91.8254 195.69 91.7791 195.84 91.7791 196.002C91.7675 196.176 91.7675 196.408 91.9644 196.5C92.0455 196.524 92.1265 196.524 92.196 196.512C92.4508 196.431 92.7055 196.327 92.9834 196.188C93.134 196.107 93.2845 195.979 93.4582 195.852C93.6319 195.979 93.7941 196.107 93.933 196.188C94.2109 196.327 94.4657 196.431 94.7205 196.512C94.79 196.524 94.8826 196.524 94.9521 196.5C95.1489 196.408 95.1489 196.176 95.1374 196.002C95.1374 195.84 95.091 195.69 95.0563 195.528C94.9984 195.284 94.9289 195.041 94.8826 194.786V194.763L94.8942 194.752C95.01 194.682 95.1258 194.601 95.2416 194.52C95.369 194.428 95.5079 194.335 95.6353 194.231C95.7511 194.138 95.8901 194.034 95.9711 193.883C96.0406 193.744 96.029 193.547 95.9132 193.432Z" fill="#FBC94F"/>
<path d="M104.314 193.432C104.279 193.385 104.221 193.351 104.152 193.327C103.92 193.235 103.086 193.212 102.982 193.2L102.82 193.177C102.727 192.899 102.658 192.69 102.53 192.389C102.461 192.227 102.368 192.03 102.241 191.891C102.137 191.764 101.986 191.648 101.801 191.671C101.592 191.695 101.303 192.111 101.187 192.389C101.071 192.644 101.002 192.899 100.909 193.177L100.747 193.2C100.643 193.212 99.8091 193.235 99.5659 193.327C99.508 193.351 99.4501 193.385 99.4153 193.432C99.2995 193.547 99.288 193.744 99.3574 193.883C99.4269 194.034 99.5659 194.138 99.6933 194.231C99.8207 194.335 99.948 194.428 100.087 194.52C100.203 194.601 100.307 194.682 100.423 194.752L100.446 194.763V194.786C100.4 195.041 100.33 195.284 100.272 195.528C100.238 195.69 100.191 195.84 100.18 196.002C100.18 196.176 100.168 196.408 100.377 196.5C100.446 196.524 100.527 196.524 100.608 196.512C100.863 196.431 101.118 196.327 101.384 196.188C101.535 196.107 101.697 195.979 101.859 195.852C102.032 195.979 102.195 196.107 102.345 196.188C102.611 196.327 102.866 196.431 103.121 196.512C103.202 196.524 103.283 196.524 103.353 196.5C103.561 196.408 103.549 196.176 103.549 196.002C103.538 195.84 103.492 195.69 103.457 195.528C103.399 195.284 103.329 195.041 103.283 194.786V194.763L103.306 194.752C103.422 194.682 103.526 194.601 103.642 194.52C103.781 194.428 103.908 194.335 104.036 194.231C104.163 194.138 104.302 194.034 104.372 193.883C104.441 193.744 104.43 193.547 104.314 193.432Z" fill="#FBC94F"/>
<path d="M112.712 193.432C112.666 193.385 112.608 193.351 112.55 193.327C112.307 193.235 111.473 193.212 111.38 193.2L111.207 193.177C111.126 192.899 111.045 192.69 110.929 192.389C110.859 192.227 110.755 192.03 110.639 191.891C110.523 191.764 110.373 191.648 110.199 191.671C109.979 191.695 109.69 192.111 109.574 192.389C109.47 192.644 109.389 192.899 109.296 193.177L109.134 193.2C109.03 193.212 108.196 193.235 107.964 193.327C107.906 193.351 107.848 193.385 107.802 193.432C107.686 193.547 107.675 193.744 107.744 193.883C107.814 194.034 107.964 194.138 108.08 194.231C108.207 194.335 108.346 194.428 108.474 194.52C108.59 194.601 108.694 194.682 108.821 194.752L108.833 194.763V194.786C108.786 195.041 108.717 195.284 108.659 195.528C108.624 195.69 108.578 195.84 108.578 196.002C108.566 196.176 108.566 196.408 108.763 196.5C108.833 196.524 108.925 196.524 108.995 196.512C109.25 196.431 109.504 196.327 109.782 196.188C109.921 196.107 110.083 195.979 110.257 195.852C110.431 195.979 110.581 196.107 110.732 196.188C111.01 196.327 111.253 196.431 111.519 196.512C111.589 196.524 111.67 196.524 111.751 196.5C111.948 196.408 111.948 196.176 111.936 196.002C111.936 195.84 111.89 195.69 111.844 195.528C111.797 195.284 111.728 195.041 111.681 194.786V194.763L111.693 194.752C111.809 194.682 111.925 194.601 112.029 194.52C112.168 194.428 112.307 194.335 112.423 194.231C112.55 194.138 112.689 194.034 112.77 193.883C112.828 193.744 112.816 193.547 112.712 193.432Z" fill="#FBC94F"/>
<path d="M121.109 193.432C121.063 193.385 121.005 193.351 120.947 193.327C120.716 193.235 119.882 193.212 119.778 193.2L119.616 193.177C119.523 192.899 119.442 192.69 119.326 192.389C119.257 192.227 119.164 192.03 119.037 191.891C118.932 191.764 118.77 191.648 118.597 191.671C118.377 191.695 118.099 192.111 117.971 192.389C117.867 192.644 117.786 192.899 117.705 193.177L117.531 193.2C117.439 193.212 116.605 193.235 116.362 193.327C116.304 193.351 116.246 193.385 116.199 193.432C116.095 193.547 116.084 193.744 116.153 193.883C116.223 194.034 116.362 194.138 116.489 194.231C116.616 194.335 116.744 194.428 116.883 194.52C116.987 194.601 117.103 194.682 117.219 194.752L117.23 194.763V194.786C117.184 195.041 117.126 195.284 117.068 195.528C117.022 195.69 116.975 195.84 116.975 196.002C116.975 196.176 116.964 196.408 117.172 196.5C117.242 196.524 117.323 196.524 117.404 196.512C117.659 196.431 117.913 196.327 118.18 196.188C118.33 196.107 118.492 195.979 118.654 195.852C118.828 195.979 118.99 196.107 119.141 196.188C119.407 196.327 119.662 196.431 119.917 196.512C119.998 196.524 120.079 196.524 120.148 196.5C120.345 196.408 120.345 196.176 120.334 196.002C120.334 195.84 120.287 195.69 120.253 195.528C120.195 195.284 120.125 195.041 120.079 194.786V194.763L120.102 194.752C120.218 194.682 120.322 194.601 120.438 194.52C120.565 194.428 120.704 194.335 120.832 194.231C120.959 194.138 121.098 194.034 121.167 193.883C121.237 193.744 121.225 193.547 121.109 193.432Z" fill="#C0EAF2"/>
<path d="M121.213 200.197H82.5V199.131H121.213V200.197Z" fill="#C0EAF2"/>
<path d="M121.213 203.068H82.5V202.003H121.213V203.068Z" fill="#C0EAF2"/>
<path d="M121.213 205.939H82.5V204.874H121.213V205.939Z" fill="#C0EAF2"/>
<path d="M216.104 114.155C215.282 111.619 214.679 109.025 213.973 106.454C213.359 104.184 212.931 101.845 212.236 99.5867C212.085 99.1003 211.923 98.6024 211.622 98.1971C211.008 97.3633 209.573 97.0275 208.646 96.7032C207.534 96.3095 206.388 95.9853 205.207 95.9274C203.203 95.8232 201.212 96.1011 199.22 96.1821C197.575 96.819 195.954 97.5254 194.356 98.3013C193.928 98.5098 193.476 98.7298 193.175 99.1119C192.851 99.5404 192.758 100.096 192.677 100.629C191.971 105.249 191.438 109.881 191.044 114.537C191.044 114.629 191.033 114.71 191.079 114.791C191.137 114.907 191.264 114.942 191.392 114.977C191.809 115.081 193.476 115.486 193.627 115.069C193.835 114.49 194.588 110.623 194.796 109.685C195.213 107.797 195.711 105.643 196.221 104.23C196.186 108.179 195.838 112.186 195.896 116.17C195.908 116.529 195.908 116.899 196.07 117.223C196.302 117.721 196.834 118.011 197.332 118.254C198.676 118.891 200.702 119.424 202.126 119.84C202.52 119.956 202.926 120.06 203.342 120.072C203.968 120.095 204.581 119.887 205.172 119.678C206.226 119.296 207.72 118.949 208.762 118.52C208.97 118.439 209.179 118.335 209.306 118.161C209.422 117.999 209.457 117.791 209.48 117.582C209.862 113.784 209.341 111.051 209.19 107.311C209.167 106.662 209.202 105.203 208.959 103.987C210.673 107.809 212.224 111.607 213.521 115.452C213.533 115.509 213.556 115.567 213.614 115.602C213.66 115.637 213.73 115.637 213.799 115.625C214.459 115.533 215.108 115.278 215.71 115C215.895 114.907 216.092 114.791 216.15 114.595C216.196 114.456 216.15 114.305 216.104 114.155Z" fill="#FBC94F"/>
<path d="M202.806 95.9263C203.732 95.3705 204.647 94.7915 205.539 94.1893C205.608 94.143 205.677 94.0967 205.747 94.1082C205.805 94.1198 205.851 94.1661 205.898 94.2009C206.314 94.5946 206.65 95.0347 207.044 95.44C207.102 95.5094 207.171 95.5905 207.183 95.6947C207.206 95.8337 207.102 95.9611 207.009 96.0653C206.847 96.2622 204.253 98.7635 204.16 98.6593C203.674 98.1381 203.246 97.5707 202.864 96.9685C202.609 97.6634 202.296 98.335 201.926 98.9835C200.849 98.0802 199.783 97.1886 198.718 96.2853C198.66 96.239 198.602 96.1927 198.59 96.1232C198.556 96.0421 198.602 95.9495 198.637 95.8684C198.845 95.4284 199.135 94.9073 199.459 94.5367C199.505 94.4904 199.552 94.4441 199.609 94.4209C199.667 94.4093 199.737 94.4209 199.806 94.4441C200.791 94.7567 201.532 95.5789 202.505 95.9611C202.551 95.9727 202.597 95.9958 202.643 95.9958C202.69 95.9842 202.736 95.9611 202.782 95.9379L202.806 95.9263Z" fill="#FBC94F"/>
<path d="M199.111 97.0028C200.014 97.7207 200.918 98.4503 201.833 99.1798C201.948 99.2725 202.018 98.8556 201.914 98.763C200.999 98.0218 200.084 97.2923 199.169 96.5511C199.053 96.4469 198.984 96.8986 199.111 97.0028Z" fill="#FAB63F"/>
<path d="M201.916 99.1234C202.322 98.5212 202.657 97.8959 203.016 97.259C202.97 97.2706 202.924 97.2937 202.877 97.3053C203.283 97.7222 203.619 98.3012 204.082 98.6602C204.163 98.7181 204.151 98.4749 204.14 98.4517C203.908 97.8612 203.422 97.3516 202.993 96.8884C202.935 96.8305 202.889 96.8768 202.854 96.9347C202.484 97.5832 202.136 98.2201 201.835 98.915C201.812 98.9613 201.847 99.2276 201.916 99.1234Z" fill="#FAB63F"/>
<path d="M204.223 98.7517C205.126 98.08 206.11 97.3736 206.793 96.4704C206.817 96.4356 206.828 96.2503 206.759 96.2851C206.284 96.5514 205.89 96.9683 205.473 97.3273C205.033 97.7094 204.616 98.1263 204.188 98.5316C204.142 98.578 204.153 98.798 204.223 98.7517Z" fill="#FAB63F"/>
<path d="M203.125 98.5106C203.635 105.412 203.183 112.21 203.148 119.1C203.137 119.193 203.229 119.251 203.241 119.135C203.774 112.279 203.831 105.239 203.31 98.3948C203.287 98.0822 203.102 98.3138 203.125 98.5106Z" fill="#FAB63F"/>
<path d="M205.117 103.846C205.73 103.881 206.321 103.881 206.935 103.858C207.097 103.846 207.711 103.719 207.838 103.811C208.197 104.043 207.803 105.259 207.873 105.155C207.56 105.653 207.062 105.803 206.529 105.641C205.719 105.398 205.696 104.715 205.638 103.985C205.626 103.904 205.557 103.823 205.533 103.95C205.441 104.553 205.487 105.398 206.008 105.803C206.645 106.301 207.514 105.815 207.884 105.213C208 105.004 208.104 104.761 208.127 104.529C208.151 104.298 208.151 103.684 208.012 103.51C207.826 103.279 207.317 103.418 207.039 103.429C206.39 103.441 205.765 103.487 205.117 103.568C205.047 103.58 205.047 103.846 205.117 103.846Z" fill="#FAB63F"/>
<path d="M213.445 114.756C214.047 114.536 214.73 114.408 215.263 114.049C215.297 114.026 215.309 113.852 215.251 113.852C214.637 113.806 213.954 114.2 213.41 114.455C213.34 114.489 213.352 114.79 213.445 114.756Z" fill="#FAB63F"/>
<path d="M191.574 113.724C191.898 113.771 192.211 113.805 192.523 113.84C192.836 113.886 193.149 113.852 193.473 113.829V113.678C193.16 113.597 192.847 113.481 192.523 113.458C192.211 113.423 191.898 113.389 191.574 113.354C191.493 113.342 191.469 113.713 191.574 113.724Z" fill="#FAB63F"/>
<path d="M202.873 100.57C202.873 100.698 202.757 100.814 202.63 100.814C202.491 100.814 202.375 100.698 202.375 100.57C202.375 100.431 202.491 100.327 202.63 100.327C202.757 100.327 202.873 100.431 202.873 100.57Z" fill="#FAB63F"/>
<path d="M202.873 102.47C202.873 102.609 202.757 102.713 202.63 102.713C202.491 102.713 202.375 102.609 202.375 102.47C202.375 102.331 202.491 102.227 202.63 102.227C202.757 102.227 202.873 102.331 202.873 102.47Z" fill="#FAB63F"/>
<path d="M202.873 104.729C202.873 104.868 202.757 104.984 202.63 104.984C202.491 104.984 202.375 104.868 202.375 104.729C202.375 104.602 202.491 104.486 202.63 104.486C202.757 104.486 202.873 104.602 202.873 104.729Z" fill="#FAB63F"/>
<path d="M202.873 106.997C202.873 107.136 202.757 107.24 202.63 107.24C202.491 107.24 202.375 107.136 202.375 106.997C202.375 106.858 202.491 106.753 202.63 106.753C202.757 106.753 202.873 106.858 202.873 106.997Z" fill="#FAB63F"/>
<path d="M202.873 109.256C202.873 109.395 202.757 109.499 202.63 109.499C202.491 109.499 202.375 109.395 202.375 109.256C202.375 109.128 202.491 109.013 202.63 109.013C202.757 109.013 202.873 109.128 202.873 109.256Z" fill="#FAB63F"/>
<path d="M202.873 111.523C202.873 111.651 202.757 111.767 202.63 111.767C202.491 111.767 202.375 111.651 202.375 111.523C202.375 111.384 202.491 111.28 202.63 111.28C202.757 111.28 202.873 111.384 202.873 111.523Z" fill="#FAB63F"/>
<path d="M202.728 113.761C202.728 113.888 202.613 114.004 202.485 114.004C202.346 114.004 202.23 113.888 202.23 113.761C202.23 113.622 202.346 113.506 202.485 113.506C202.613 113.506 202.728 113.622 202.728 113.761Z" fill="#FAB63F"/>
<path d="M202.728 116.052C202.728 116.179 202.613 116.295 202.485 116.295C202.346 116.295 202.23 116.179 202.23 116.052C202.23 115.913 202.346 115.797 202.485 115.797C202.613 115.797 202.728 115.913 202.728 116.052Z" fill="#FAB63F"/>
<path d="M202.635 118.312C202.635 118.451 202.519 118.555 202.38 118.555C202.253 118.555 202.137 118.451 202.137 118.312C202.137 118.173 202.253 118.068 202.38 118.068C202.519 118.068 202.635 118.173 202.635 118.312Z" fill="#FAB63F"/>
<path d="M211.772 107.983C212.107 107.948 212.524 107.983 212.837 107.833C212.883 107.809 212.872 107.647 212.825 107.636C212.501 107.566 212.084 107.728 211.76 107.786C211.714 107.798 211.714 107.983 211.772 107.983Z" fill="#FAB63F"/>
<path d="M211.606 108.503C211.989 108.538 212.359 108.561 212.73 108.596C213.112 108.631 213.459 108.573 213.841 108.515V108.422C213.471 108.341 213.112 108.249 212.73 108.249C212.359 108.249 211.977 108.249 211.606 108.26C211.549 108.26 211.537 108.492 211.606 108.503Z" fill="#FAB63F"/>
<path d="M192.707 107.806C192.938 107.922 193.17 108.05 193.425 108.131C193.633 108.2 193.865 108.189 194.085 108.189C194.143 108.189 194.143 108.015 194.096 107.992C193.888 107.888 193.668 107.749 193.448 107.679C193.205 107.61 192.962 107.575 192.718 107.517C192.649 107.494 192.637 107.772 192.707 107.806Z" fill="#FAB63F"/>
<path d="M219.508 124.369V123.778H187.604C186.608 123.778 185.694 123.373 185.034 122.713C184.373 122.053 183.968 121.15 183.968 120.154V95.8702C183.968 94.8743 184.373 93.9711 185.034 93.3226C185.694 92.6625 186.608 92.2572 187.604 92.2572H219.508C220.504 92.2572 221.407 92.6625 222.067 93.3226C222.727 93.9711 223.132 94.8743 223.132 95.8702V120.154C223.132 121.15 222.727 122.053 222.067 122.713C221.407 123.373 220.504 123.778 219.508 123.778V124.971C222.171 124.971 224.337 122.806 224.337 120.154V95.8702C224.337 93.2184 222.171 91.0645 219.508 91.0645H187.604C184.941 91.0645 182.775 93.2184 182.775 95.8702V120.154C182.775 122.806 184.941 124.971 187.604 124.971H219.508V124.369Z" fill="#C0EAF2"/>
<path d="M189.2 128.747C189.166 128.701 189.108 128.666 189.05 128.643C188.807 128.55 187.973 128.527 187.869 128.516L187.707 128.493C187.614 128.215 187.545 128.006 187.417 127.705C187.359 127.543 187.255 127.346 187.128 127.207C187.023 127.091 186.873 126.964 186.688 126.987C186.479 127.01 186.19 127.427 186.074 127.705C185.97 127.96 185.889 128.215 185.796 128.493L185.634 128.516C185.53 128.527 184.696 128.55 184.464 128.643C184.395 128.666 184.337 128.701 184.302 128.747C184.186 128.863 184.175 129.06 184.244 129.199C184.314 129.349 184.453 129.454 184.58 129.546C184.707 129.651 184.835 129.743 184.974 129.836C185.09 129.917 185.194 129.998 185.31 130.067L185.333 130.091V130.102C185.286 130.357 185.217 130.6 185.159 130.843C185.124 131.005 185.078 131.156 185.066 131.318C185.066 131.492 185.055 131.723 185.263 131.816C185.333 131.851 185.414 131.851 185.495 131.828C185.75 131.747 186.004 131.642 186.271 131.503C186.421 131.422 186.583 131.307 186.757 131.168C186.919 131.307 187.081 131.422 187.232 131.503C187.498 131.642 187.753 131.747 188.008 131.828C188.089 131.851 188.17 131.851 188.239 131.816C188.448 131.723 188.436 131.492 188.436 131.318C188.425 131.156 188.378 131.005 188.344 130.843C188.286 130.6 188.216 130.357 188.17 130.102V130.091L188.193 130.067C188.309 129.998 188.413 129.917 188.529 129.836C188.668 129.743 188.795 129.651 188.923 129.546C189.05 129.454 189.189 129.349 189.258 129.199C189.328 129.06 189.316 128.863 189.2 128.747Z" fill="#FBC94F"/>
<path d="M197.607 128.747C197.56 128.701 197.502 128.666 197.444 128.643C197.213 128.55 196.368 128.527 196.275 128.516L196.101 128.493C196.02 128.215 195.939 128.006 195.823 127.705C195.754 127.543 195.661 127.346 195.534 127.207C195.418 127.091 195.267 126.964 195.094 126.987C194.874 127.01 194.584 127.427 194.468 127.705C194.364 127.96 194.283 128.215 194.202 128.493L194.028 128.516C193.936 128.527 193.09 128.55 192.859 128.643C192.801 128.666 192.743 128.701 192.697 128.747C192.581 128.863 192.569 129.06 192.639 129.199C192.72 129.349 192.859 129.454 192.975 129.546C193.102 129.651 193.241 129.743 193.368 129.836C193.484 129.917 193.6 129.998 193.716 130.067L193.727 130.091V130.102C193.681 130.357 193.611 130.6 193.554 130.843C193.519 131.005 193.472 131.156 193.472 131.318C193.461 131.492 193.461 131.723 193.658 131.816C193.739 131.851 193.82 131.851 193.889 131.828C194.144 131.747 194.399 131.642 194.677 131.503C194.816 131.422 194.978 131.307 195.152 131.168C195.325 131.307 195.476 131.422 195.626 131.503C195.904 131.642 196.159 131.747 196.414 131.828C196.483 131.851 196.564 131.851 196.645 131.816C196.842 131.723 196.842 131.492 196.831 131.318C196.831 131.156 196.784 131.005 196.75 130.843C196.692 130.6 196.622 130.357 196.576 130.102V130.091L196.588 130.067C196.703 129.998 196.819 129.917 196.935 129.836C197.062 129.743 197.201 129.651 197.329 129.546C197.444 129.454 197.583 129.349 197.664 129.199C197.734 129.06 197.722 128.863 197.607 128.747Z" fill="#FBC94F"/>
<path d="M206.006 128.747C205.96 128.701 205.913 128.666 205.844 128.643C205.612 128.55 204.778 128.527 204.674 128.516L204.512 128.493C204.419 128.215 204.338 128.006 204.223 127.705C204.153 127.543 204.06 127.346 203.933 127.207C203.829 127.091 203.667 126.964 203.493 126.987C203.285 127.01 202.995 127.427 202.868 127.705C202.764 127.96 202.694 128.215 202.601 128.493L202.439 128.516C202.335 128.527 201.501 128.55 201.258 128.643C201.2 128.666 201.142 128.701 201.096 128.747C200.992 128.863 200.98 129.06 201.05 129.199C201.119 129.349 201.258 129.454 201.385 129.546C201.513 129.651 201.64 129.743 201.779 129.836C201.895 129.917 201.999 129.998 202.115 130.067L202.138 130.091V130.102C202.08 130.357 202.022 130.6 201.964 130.843C201.93 131.005 201.883 131.156 201.872 131.318C201.872 131.492 201.86 131.723 202.069 131.816C202.138 131.851 202.219 131.851 202.3 131.828C202.555 131.747 202.81 131.642 203.076 131.503C203.227 131.422 203.389 131.307 203.551 131.168C203.725 131.307 203.887 131.422 204.037 131.503C204.304 131.642 204.558 131.747 204.813 131.828C204.894 131.851 204.975 131.851 205.045 131.816C205.242 131.723 205.242 131.492 205.242 131.318C205.23 131.156 205.184 131.005 205.149 130.843C205.091 130.6 205.022 130.357 204.975 130.102V130.091L204.998 130.067C205.114 129.998 205.219 129.917 205.334 129.836C205.473 129.743 205.601 129.651 205.728 129.546C205.855 129.454 205.994 129.349 206.064 129.199C206.133 129.06 206.122 128.863 206.006 128.747Z" fill="#FBC94F"/>
<path d="M214.421 128.748C214.375 128.701 214.317 128.666 214.259 128.643C214.027 128.551 213.182 128.528 213.089 128.516L212.916 128.493C212.835 128.215 212.753 128.006 212.638 127.705C212.568 127.543 212.464 127.346 212.348 127.207C212.232 127.08 212.082 126.964 211.908 126.987C211.688 127.011 211.399 127.427 211.283 127.705C211.179 127.96 211.098 128.215 211.005 128.493L210.843 128.516C210.739 128.528 209.905 128.551 209.673 128.643C209.615 128.666 209.557 128.701 209.511 128.748C209.395 128.863 209.384 129.06 209.453 129.199C209.523 129.35 209.662 129.454 209.789 129.547C209.916 129.651 210.055 129.743 210.183 129.836C210.299 129.917 210.414 129.998 210.53 130.068L210.542 130.079V130.102C210.495 130.357 210.426 130.6 210.368 130.844C210.333 131.006 210.287 131.156 210.287 131.318C210.275 131.492 210.275 131.724 210.472 131.816C210.542 131.851 210.634 131.851 210.704 131.828C210.959 131.747 211.213 131.643 211.491 131.504C211.63 131.423 211.792 131.307 211.966 131.168C212.14 131.307 212.29 131.423 212.441 131.504C212.719 131.643 212.974 131.747 213.228 131.828C213.298 131.851 213.379 131.851 213.448 131.816C213.657 131.724 213.657 131.492 213.645 131.318C213.645 131.156 213.599 131.006 213.553 130.844C213.495 130.6 213.437 130.357 213.39 130.102V130.079L213.402 130.068C213.518 129.998 213.634 129.917 213.738 129.836C213.877 129.743 214.016 129.651 214.132 129.547C214.259 129.454 214.398 129.35 214.467 129.199C214.537 129.06 214.525 128.863 214.421 128.748Z" fill="#FBC94F"/>
<path d="M222.813 128.747C222.767 128.701 222.709 128.666 222.651 128.643C222.419 128.562 221.586 128.527 221.481 128.527L221.319 128.493C221.227 128.215 221.146 128.006 221.03 127.705C220.96 127.543 220.868 127.346 220.74 127.207C220.624 127.091 220.474 126.964 220.3 126.987C220.08 127.01 219.802 127.427 219.675 127.705C219.571 127.96 219.49 128.215 219.409 128.493L219.235 128.527C219.142 128.527 218.308 128.562 218.065 128.643C218.007 128.666 217.949 128.701 217.903 128.747C217.799 128.863 217.787 129.06 217.845 129.199C217.926 129.349 218.065 129.454 218.193 129.546C218.32 129.651 218.447 129.743 218.586 129.836C218.691 129.917 218.806 129.998 218.922 130.067L218.934 130.091V130.102C218.887 130.357 218.818 130.6 218.76 130.843C218.725 131.005 218.679 131.156 218.679 131.318C218.667 131.492 218.667 131.735 218.864 131.816C218.945 131.851 219.026 131.851 219.096 131.828C219.362 131.747 219.605 131.642 219.883 131.503C220.034 131.422 220.184 131.307 220.358 131.168C220.532 131.307 220.694 131.422 220.844 131.503C221.111 131.642 221.366 131.747 221.62 131.828C221.69 131.851 221.782 131.851 221.852 131.816C222.049 131.735 222.049 131.492 222.037 131.318C222.037 131.156 221.991 131.005 221.956 130.843C221.898 130.6 221.829 130.357 221.782 130.102V130.091L221.794 130.067C221.921 129.998 222.026 129.917 222.141 129.836C222.269 129.743 222.408 129.651 222.535 129.546C222.651 129.454 222.802 129.349 222.871 129.199C222.94 129.06 222.929 128.863 222.813 128.747Z" fill="#C0EAF2"/>
<path d="M222.914 135.509H184.201V134.444H222.914V135.509Z" fill="#C0EAF2"/>
<path d="M222.914 138.383H184.201V137.317H222.914V138.383Z" fill="#C0EAF2"/>
<path d="M222.914 141.254H184.201V140.2H222.914V141.254Z" fill="#C0EAF2"/>
<path d="M105.036 164.71C105.001 164.421 104.886 164.108 104.642 163.935C104.434 163.796 104.168 163.784 103.924 163.784C101.249 163.772 98.5744 163.819 95.8993 163.923C95.7372 163.935 95.5751 163.946 95.4593 164.039C95.3087 164.155 95.274 164.363 95.2508 164.548C95.1814 165.104 95.1582 166.019 95.1582 166.586H105.106C105.001 165.706 105.106 165.567 105.036 164.71Z" fill="#F47276"/>
<path d="M111.624 181.281C109.424 176.51 107.919 171.508 105.719 166.713C105.626 166.516 105.522 166.296 105.36 166.146C105.116 165.937 104.781 165.88 104.468 165.833C102.742 165.613 101.005 165.636 99.2684 165.671C98.2725 165.694 95.6785 165.243 94.9721 166.03C94.6479 166.366 94.5321 166.852 94.4279 167.315C93.1309 173.21 91.5676 179 90.2937 184.929C90.1779 185.496 90.0969 186.11 90.6064 186.423C91.1044 186.724 92.1697 186.793 92.7487 186.805C93.5015 186.828 94.2773 186.643 94.8448 186.156C94.7753 186.214 96.0375 186.955 96.1533 187.002C96.6744 187.21 97.2419 187.326 97.7977 187.326C98.342 187.326 98.9326 187.233 99.4421 187.013C99.72 186.886 99.9864 186.585 100.299 186.527C100.797 186.446 100.866 186.759 101.225 187.002C101.955 187.5 103.125 187.5 103.993 187.523C104.989 187.546 106.124 187.372 106.68 186.55C106.761 186.434 106.853 186.295 106.992 186.284C107.062 186.284 107.12 186.319 107.178 186.342C108.88 187.152 110.895 186.724 112.539 185.983C112.678 185.913 112.817 185.844 112.921 185.728C113.153 185.462 113.095 185.068 113.002 184.732C112.69 183.528 112.146 182.404 111.624 181.281Z" fill="#F47276"/>
<path d="M95.9608 166.179C98.7632 166.457 101.531 166.457 104.345 166.306C104.414 166.306 104.414 166.028 104.345 166.028C101.554 166.179 98.7401 166.098 95.9608 165.901C95.8914 165.889 95.8798 166.167 95.9608 166.179Z" fill="#E65760"/>
<path d="M94.8645 185.739C95.652 181.582 96.092 177.193 96.4742 172.977C96.4858 172.804 96.3468 172.618 96.3005 172.873C95.513 177.03 94.8993 181.5 94.8066 185.727C94.8066 185.785 94.853 185.808 94.8645 185.739Z" fill="#E65760"/>
<path d="M100.066 186.146C100.113 184.351 100.055 182.556 100.09 180.761C100.113 179.58 100.159 178.41 100.263 177.241C100.286 177.09 100.286 174.45 100.425 175.874C100.75 179.325 100.53 182.834 100.958 186.285C100.97 186.377 101.039 186.343 101.039 186.273C100.981 182.347 100.657 178.433 100.599 174.508C100.599 174.311 100.437 174.183 100.391 174.45C99.8117 178.306 99.719 182.266 99.9738 186.146C99.9854 186.25 100.066 186.262 100.066 186.146Z" fill="#E65760"/>
<path d="M106.62 185.936C106.145 182.184 105.67 178.42 104.941 174.703C104.918 174.529 104.814 174.657 104.825 174.772C105.3 178.513 105.96 182.242 106.574 185.97C106.585 186.04 106.62 185.982 106.62 185.936Z" fill="#E65760"/>
<path d="M105.14 176.637C105.8 179.59 106.483 182.566 107.444 185.438C107.491 185.565 107.549 185.403 107.525 185.334C106.819 182.346 105.997 179.405 105.325 176.405C105.256 176.116 105.105 176.486 105.14 176.637Z" fill="#E65760"/>
<path d="M103.862 169.84C104.105 171.103 104.302 172.388 104.626 173.627C104.661 173.743 104.73 173.616 104.719 173.546C104.557 172.272 104.29 170.998 104.047 169.725C104.001 169.447 103.827 169.644 103.862 169.84Z" fill="#E65760"/>
<path d="M100.253 168.983C100.184 170.304 100.195 171.589 100.404 172.909C100.415 172.955 100.45 172.932 100.45 172.886C100.415 171.589 100.369 170.28 100.415 168.983C100.415 168.763 100.265 168.775 100.253 168.983Z" fill="#E65760"/>
<path d="M213.789 195.406H133.983C131.847 195.406 130.119 193.678 130.119 191.552V156.173C130.119 154.046 131.847 152.319 133.983 152.319H213.789C215.925 152.319 217.653 154.046 217.653 156.173V191.552C217.653 193.678 215.925 195.406 213.789 195.406Z" fill="#7484CA"/>
<path d="M131.761 193.193V157.553C131.761 155.401 133.487 153.66 135.621 153.66H215.347C215.918 153.66 216.46 153.794 216.95 154.02C216.266 152.939 215.061 152.228 213.702 152.228H133.977C131.843 152.228 130.117 153.969 130.117 156.111V191.761C130.117 193.327 131.046 194.676 132.374 195.294C131.986 194.686 131.761 193.965 131.761 193.193Z" fill="#8496D4"/>
<path d="M210.181 185.037C209.202 178.883 208.08 172.261 206.71 166.188C206.514 165.356 206.267 164.462 205.557 163.974C205.021 163.619 204.331 163.568 203.692 163.538C198.996 163.314 194.279 163.446 189.603 163.924C189.109 163.974 188.594 164.035 188.161 164.279C187.348 164.726 186.987 165.701 186.895 166.615C186.153 173.196 184.897 179.898 184.083 186.55C184.032 187.027 183.98 187.555 184.238 187.962C184.608 188.53 185.391 188.622 186.081 188.652C192.981 188.997 200.438 189.099 206.813 188.865C207.987 188.825 209.326 188.591 209.954 187.616C210.438 186.865 210.315 185.91 210.181 185.037Z" fill="#C0EAF2"/>
<path d="M192.047 166.908C191.887 166.344 191.807 165.73 191.807 165.095C191.807 163.786 192.156 162.416 192.795 161.297C193.444 160.169 194.362 159.293 195.529 158.89C196.048 158.708 196.617 158.608 197.186 158.608C197.834 158.608 198.483 158.739 199.062 158.98C199.641 159.232 200.149 159.595 200.539 160.078C201.097 160.774 201.387 161.65 201.646 162.637C201.896 163.614 202.105 164.682 202.574 165.699C202.704 165.982 203.033 166.112 203.313 165.982C203.602 165.851 203.722 165.508 203.592 165.226C203.193 164.38 202.993 163.372 202.734 162.355C202.465 161.328 202.135 160.28 201.417 159.373C200.898 158.729 200.229 158.255 199.501 157.943C198.772 157.631 197.974 157.479 197.186 157.479C196.497 157.479 195.809 157.59 195.16 157.822C193.693 158.326 192.565 159.424 191.817 160.733C191.069 162.053 190.689 163.594 190.689 165.095C190.689 165.82 190.779 166.546 190.969 167.221C191.059 167.523 191.368 167.694 191.667 167.613C191.967 167.523 192.136 167.211 192.047 166.908Z" fill="#C0EAF2"/>
<path d="M193.045 176.4C194.896 178.278 194.762 178.836 196.356 177.232C199.256 174.309 199.317 174.106 202.176 171.132C202.34 170.959 202.536 170.766 202.782 170.787C202.957 170.797 203.111 170.908 203.245 171.03C204.643 172.33 205.055 172.38 204.366 173.142C203.625 173.964 198.793 179.476 197.734 180.572C196.983 181.354 196.017 182.399 195.348 182.643C194.361 182.988 192.953 181.333 192.202 180.592C191.359 179.76 190.67 179.08 189.672 178.105C189.518 177.943 189.343 177.77 189.302 177.557C189.179 176.999 189.837 176.562 190.156 176.268C191.174 175.344 191.544 175.344 192.099 175.537C192.294 175.608 192.449 175.761 192.593 175.903C192.695 176.004 192.839 176.187 193.045 176.4Z" fill="#7484CA"/>
<path d="M171.89 181.153H144.273C142.327 181.153 140.75 179.617 140.75 177.72V172.681C140.75 170.784 142.327 169.249 144.273 169.249H171.89C173.836 169.249 175.413 170.784 175.413 172.681V177.72C175.413 179.617 173.836 181.153 171.89 181.153Z" fill="#F47276"/>
<path d="M147.048 173.372C147.203 173.372 147.351 173.387 147.493 173.417C147.636 173.444 147.77 173.481 147.893 173.529C148.016 173.575 148.127 173.627 148.228 173.687C148.328 173.746 148.413 173.805 148.484 173.864L149.373 173.252L148.351 175.214L148.272 174.186C148.206 174.14 148.134 174.1 148.057 174.066C147.981 174.029 147.905 174 147.828 173.977C147.752 173.952 147.68 173.933 147.609 173.919C147.538 173.903 147.476 173.89 147.421 173.881C147.366 173.872 147.322 173.867 147.288 173.864C147.256 173.86 147.239 173.857 147.236 173.857C147.081 173.857 146.951 173.875 146.847 173.909C146.742 173.943 146.656 173.987 146.59 174.042C146.527 174.097 146.48 174.159 146.45 174.23C146.423 174.298 146.409 174.368 146.409 174.438C146.409 174.582 146.439 174.704 146.498 174.804C146.557 174.902 146.647 174.99 146.768 175.067C146.889 175.145 147.043 175.218 147.229 175.286C147.416 175.352 147.636 175.424 147.889 175.501C148.042 175.549 148.185 175.614 148.32 175.696C148.457 175.776 148.575 175.871 148.675 175.98C148.776 176.087 148.854 176.208 148.911 176.342C148.97 176.474 149 176.617 149 176.77C149 176.947 148.975 177.106 148.925 177.245C148.875 177.381 148.807 177.502 148.723 177.607C148.641 177.709 148.545 177.797 148.436 177.87C148.327 177.941 148.213 177.998 148.094 178.041C147.978 178.087 147.86 178.118 147.739 178.137C147.62 178.157 147.509 178.167 147.404 178.167C147.096 178.167 146.817 178.115 146.566 178.01C146.316 177.905 146.082 177.762 145.866 177.58L144.977 178.188L145.968 176.431C145.996 176.595 146.043 176.754 146.112 176.906C146.182 177.057 146.269 177.191 146.372 177.31C146.474 177.428 146.593 177.523 146.727 177.593C146.861 177.664 147.008 177.699 147.168 177.699C147.296 177.699 147.412 177.68 147.517 177.641C147.624 177.602 147.715 177.551 147.79 177.487C147.865 177.421 147.923 177.346 147.964 177.262C148.008 177.175 148.029 177.085 148.029 176.992C148.029 176.862 147.993 176.75 147.92 176.657C147.847 176.561 147.751 176.477 147.633 176.404C147.514 176.329 147.379 176.26 147.226 176.199C147.076 176.135 146.921 176.07 146.761 176.004C146.602 175.938 146.446 175.865 146.293 175.785C146.143 175.705 146.008 175.612 145.89 175.505C145.771 175.396 145.675 175.268 145.603 175.122C145.53 174.976 145.493 174.804 145.493 174.606C145.493 174.453 145.523 174.304 145.582 174.158C145.644 174.01 145.737 173.878 145.862 173.762C145.99 173.646 146.152 173.552 146.348 173.481C146.544 173.409 146.777 173.372 147.048 173.372ZM149.14 177.959L149.667 177.532L149.909 173.724L149.147 173.345L150.357 173.143L150.371 175.067C150.448 174.956 150.534 174.865 150.627 174.794C150.72 174.721 150.812 174.664 150.9 174.623C150.992 174.582 151.075 174.554 151.15 174.538C151.227 174.522 151.288 174.514 151.331 174.514C151.545 174.514 151.726 174.552 151.875 174.63C152.023 174.705 152.142 174.81 152.233 174.944C152.327 175.079 152.394 175.238 152.435 175.423C152.478 175.605 152.5 175.803 152.5 176.018C152.5 176.136 152.49 176.263 152.469 176.397C152.451 176.531 152.426 176.667 152.394 176.804C152.362 176.938 152.326 177.069 152.285 177.197C152.246 177.322 152.206 177.436 152.165 177.539L152.842 177.915L151.071 178.099L151.82 177.419C151.852 177.25 151.875 177.092 151.888 176.944C151.904 176.796 151.912 176.658 151.912 176.53C151.912 176.466 151.908 176.389 151.898 176.298C151.892 176.207 151.877 176.112 151.854 176.014C151.831 175.914 151.8 175.815 151.762 175.717C151.723 175.619 151.672 175.531 151.608 175.454C151.546 175.376 151.471 175.313 151.382 175.266C151.296 175.218 151.192 175.194 151.071 175.194C150.953 175.194 150.831 175.22 150.706 175.272C150.583 175.325 150.471 175.408 150.371 175.522L150.395 177.58L150.849 177.959H149.14ZM153.057 176.284C153.057 176.029 153.097 175.793 153.177 175.577C153.259 175.358 153.372 175.169 153.515 175.009C153.661 174.85 153.833 174.726 154.031 174.637C154.232 174.546 154.451 174.5 154.688 174.5C154.918 174.5 155.128 174.543 155.32 174.63C155.511 174.714 155.678 174.834 155.819 174.989C155.96 175.144 156.073 175.329 156.157 175.546C156.242 175.762 156.292 176.002 156.308 176.264C156.324 176.544 156.294 176.798 156.219 177.026C156.146 177.251 156.038 177.444 155.894 177.604C155.75 177.761 155.578 177.883 155.378 177.969C155.18 178.056 154.964 178.099 154.732 178.099C154.509 178.099 154.296 178.059 154.093 177.979C153.892 177.897 153.715 177.779 153.56 177.624C153.407 177.469 153.285 177.28 153.194 177.057C153.103 176.831 153.057 176.574 153.057 176.284ZM153.898 176.342C153.898 176.543 153.926 176.724 153.983 176.886C154.04 177.048 154.117 177.185 154.212 177.299C154.308 177.411 154.419 177.498 154.544 177.559C154.669 177.621 154.801 177.651 154.94 177.651C155.079 177.651 155.209 177.622 155.33 177.562C155.451 177.501 155.556 177.416 155.645 177.306C155.733 177.194 155.803 177.061 155.853 176.906C155.903 176.751 155.928 176.579 155.928 176.39C155.928 176.203 155.903 176.028 155.853 175.864C155.803 175.697 155.732 175.553 155.641 175.43C155.552 175.307 155.446 175.21 155.323 175.139C155.2 175.069 155.066 175.033 154.92 175.033C154.79 175.033 154.664 175.063 154.541 175.122C154.42 175.181 154.312 175.268 154.216 175.382C154.12 175.493 154.043 175.63 153.983 175.792C153.926 175.954 153.898 176.137 153.898 176.342ZM157.74 175.013C157.792 174.949 157.849 174.891 157.911 174.838C157.972 174.784 158.039 174.737 158.112 174.698C158.185 174.657 158.263 174.625 158.345 174.603C158.429 174.58 158.519 174.568 158.615 174.568C158.79 174.575 158.957 174.616 159.114 174.691C159.273 174.767 159.412 174.875 159.531 175.016C159.652 175.155 159.747 175.327 159.818 175.532C159.889 175.735 159.924 175.967 159.924 176.229C159.924 176.549 159.886 176.828 159.811 177.067C159.736 177.306 159.633 177.506 159.503 177.665C159.374 177.822 159.221 177.941 159.045 178.021C158.872 178.1 158.687 178.14 158.488 178.14C158.315 178.14 158.154 178.111 158.006 178.051C157.858 177.992 157.729 177.91 157.62 177.805L157.586 178.574L158.27 178.943L156.591 179.23L157.107 178.714L156.967 175.054L156.345 174.808L157.76 174.568L157.74 175.013ZM158.509 175.002C158.477 175.002 158.431 175.008 158.372 175.02C158.313 175.031 158.246 175.057 158.17 175.098C158.097 175.139 158.02 175.198 157.938 175.276C157.858 175.353 157.782 175.458 157.709 175.59L157.641 177.292C157.714 177.406 157.802 177.501 157.907 177.576C158.014 177.649 158.133 177.686 158.263 177.686C158.418 177.686 158.551 177.647 158.663 177.569C158.774 177.492 158.865 177.385 158.936 177.248C159.009 177.109 159.061 176.946 159.093 176.759C159.127 176.572 159.145 176.37 159.145 176.151C159.145 175.991 159.131 175.842 159.104 175.703C159.076 175.562 159.036 175.44 158.984 175.337C158.931 175.233 158.865 175.151 158.786 175.091C158.706 175.032 158.614 175.002 158.509 175.002ZM150.49 181.43L149.52 181.71L149.021 186.068L146.809 182.661L146.46 185.306L147.411 185.812L145.165 185.979L146.061 185.306L146.125 181.885L145.104 181.526L147.335 181.157L148.665 184.592L149.072 181.799L148.323 181.092L150.49 181.43ZM150.248 184.284C150.248 184.029 150.287 183.793 150.367 183.577C150.449 183.358 150.562 183.169 150.706 183.009C150.851 182.85 151.023 182.726 151.222 182.637C151.422 182.546 151.641 182.5 151.878 182.5C152.108 182.5 152.319 182.543 152.51 182.63C152.702 182.714 152.868 182.834 153.009 182.989C153.151 183.144 153.263 183.329 153.348 183.546C153.432 183.762 153.482 184.002 153.498 184.264C153.514 184.544 153.484 184.798 153.409 185.026C153.336 185.251 153.228 185.444 153.084 185.604C152.941 185.761 152.769 185.883 152.568 185.969C152.37 186.056 152.155 186.099 151.922 186.099C151.699 186.099 151.486 186.059 151.283 185.979C151.083 185.897 150.905 185.779 150.75 185.624C150.597 185.469 150.475 185.28 150.384 185.057C150.293 184.831 150.248 184.574 150.248 184.284ZM151.088 184.342C151.088 184.543 151.117 184.724 151.174 184.886C151.231 185.048 151.307 185.185 151.403 185.299C151.499 185.411 151.609 185.498 151.734 185.559C151.86 185.621 151.992 185.651 152.131 185.651C152.27 185.651 152.4 185.622 152.521 185.562C152.641 185.501 152.746 185.416 152.835 185.306C152.924 185.194 152.993 185.061 153.043 184.906C153.094 184.751 153.119 184.579 153.119 184.39C153.119 184.203 153.094 184.028 153.043 183.864C152.993 183.697 152.923 183.553 152.832 183.43C152.743 183.307 152.637 183.21 152.514 183.139C152.391 183.069 152.256 183.033 152.11 183.033C151.98 183.033 151.854 183.063 151.731 183.122C151.61 183.181 151.502 183.268 151.406 183.382C151.311 183.493 151.233 183.63 151.174 183.792C151.117 183.954 151.088 184.137 151.088 184.342ZM158.01 182.64L157.497 183.061L157.261 185.525L157.736 185.839L156.253 186.014L156.574 185.651L155.819 184.264L155.265 185.645L155.6 185.938L154.223 186.079L154.705 185.638L154.11 183.16L153.501 182.907L155.371 182.527L154.958 183.002L155.104 185.139L156.007 182.941L156.714 184.999L157.155 182.975L156.468 182.613L158.01 182.64Z" fill="white"/>
<path d="M229.323 63.2949H76.0363C74.6467 63.2949 73.5234 64.4182 73.5234 65.7962V75.373H231.848V65.7962C231.848 64.4182 230.713 63.2949 229.323 63.2949Z" fill="#7484CA"/>
<path d="M86.67 70.0582C86.67 71.6331 85.3961 72.9185 83.8097 72.9185C82.2348 72.9185 80.9609 71.6331 80.9609 70.0582C80.9609 68.4949 82.2348 67.2095 83.8097 67.2095C85.3961 67.2095 86.67 68.4949 86.67 70.0582Z" fill="white"/>
<path d="M97.2675 70.0582C97.2675 71.6331 95.9937 72.9185 94.4072 72.9185C92.8323 72.9185 91.5469 71.6331 91.5469 70.0582C91.5469 68.4949 92.8323 67.2095 94.4072 67.2095C95.9937 67.2095 97.2675 68.4949 97.2675 70.0582Z" fill="#C0EAF2"/>
<path d="M107.871 70.0582C107.871 71.6331 106.597 72.9185 105.011 72.9185C103.436 72.9185 102.15 71.6331 102.15 70.0582C102.15 68.4949 103.436 67.2095 105.011 67.2095C106.597 67.2095 107.871 68.4949 107.871 70.0582Z" fill="white"/>
<path d="M217.065 72.2471H132.448C131.244 72.2471 130.26 71.2628 130.26 70.0584C130.26 68.8541 131.244 67.8813 132.448 67.8813H217.065C218.269 67.8813 219.253 68.8541 219.253 70.0584C219.253 71.2628 218.269 72.2471 217.065 72.2471Z" fill="#C0EAF2"/>
<path d="M124.215 223.153C119.881 220.266 117.134 221.855 116.741 220.719C116.281 219.368 116.793 214.767 116.251 212.659C115.925 211.419 115.197 210.284 110.603 209.534C105.074 208.628 99.0544 208.228 92.946 208.257C86.8303 208.228 80.811 208.628 75.2816 209.534C70.6948 210.284 69.96 211.419 69.6409 212.659C69.0917 214.767 69.6038 219.368 69.151 220.719C68.7577 221.855 66.0041 220.266 61.677 223.153C54.8636 227.681 64.4826 250.593 69.5963 254.556C71.2069 255.81 73.8343 255.625 74.3242 255.64C83.431 255.974 88.4112 256.144 92.8867 256.144C92.9089 256.144 92.9238 256.144 92.946 256.144C92.9609 256.144 92.9832 256.144 92.998 256.144C97.4809 256.144 102.461 255.974 111.56 255.64C112.058 255.625 114.685 255.81 116.288 254.556C121.41 250.593 131.021 227.681 124.215 223.153Z" fill="#FF7176"/>
<path d="M72.4508 264.812H73.7868C74.0762 264.812 74.3063 264.582 74.3063 264.293L77.7427 251.445C77.7427 251.156 77.5126 250.918 77.2232 250.918H74.143C73.8536 250.918 73.6235 251.156 73.6235 251.445L71.9238 264.293C71.9238 264.582 72.1613 264.812 72.4508 264.812Z" fill="#282444"/>
<path d="M80.6441 261.086H81.416C81.5867 261.086 81.7203 260.952 81.7203 260.789L83.7169 253.322C83.7169 253.152 83.5833 253.018 83.4126 253.018H81.6239C81.4606 253.018 81.3196 253.152 81.3196 253.322L80.3398 260.789C80.3398 260.952 80.4734 261.086 80.6441 261.086Z" fill="#282444"/>
<path d="M113.452 264.812H112.116C111.826 264.812 111.589 264.582 111.589 264.293L108.152 251.445C108.152 251.156 108.39 250.918 108.679 250.918H111.759C112.041 250.918 112.279 251.156 112.279 251.445L113.971 264.293C113.971 264.582 113.741 264.812 113.452 264.812Z" fill="#282444"/>
<path d="M105.256 261.086H104.477C104.313 261.086 104.172 260.952 104.172 260.789L102.176 253.322C102.176 253.152 102.317 253.018 102.48 253.018H104.269C104.439 253.018 104.573 253.152 104.573 253.322L105.56 260.789C105.56 260.952 105.427 261.086 105.256 261.086Z" fill="#282444"/>
<path d="M125.459 224.688C125.125 224.518 124.768 224.354 124.382 224.213C123.15 223.761 121.911 223.902 121.465 223.946C121.465 223.946 119.372 224.191 117.428 225.906C111.757 230.901 114.927 244.861 111.312 245.826C107.46 246.865 100.238 246.806 93.0836 246.776C93.0391 246.776 92.9946 246.776 92.95 246.776C92.9055 246.776 92.861 246.776 92.8164 246.776C85.6542 246.806 78.4326 246.865 74.5879 245.826C70.9734 244.861 74.1426 230.901 68.4722 225.906C66.5202 224.191 64.4346 223.946 64.4346 223.946C63.9893 223.902 62.7424 223.761 61.5178 224.213C61.1318 224.354 60.7756 224.518 60.4341 224.688C56.4485 231.331 64.969 251.037 69.682 254.688C71.2926 255.935 73.9125 255.75 74.4098 255.772C82.2326 256.106 87.4355 256.351 92.8164 256.366C92.861 256.366 92.9055 256.366 92.95 256.366C92.9946 256.366 93.0391 256.366 93.0836 256.366C98.4646 256.351 103.66 256.106 111.49 255.772C111.98 255.75 114.608 255.935 116.218 254.688C120.924 251.037 129.452 231.331 125.459 224.688Z" fill="#FF8186"/>
<path d="M116.748 220.719C116.288 219.368 116.8 214.767 116.258 212.659C115.932 211.419 115.204 210.284 110.61 209.534C105.081 208.628 99.0616 208.228 92.9532 208.257C86.8375 208.228 80.8182 208.628 75.2888 209.534C70.702 210.284 69.9672 211.419 69.6481 212.659C69.0988 214.767 69.611 219.368 69.1582 220.719C69.0617 220.986 68.8391 221.105 68.4902 221.164C69.3957 221.194 71.1325 221.424 72.8692 222.523C77.2185 225.284 77.3224 235.897 77.3596 235.89C77.3596 235.89 77.3521 235.875 77.3521 235.867C77.3744 235.726 108.465 235.726 108.488 235.867C108.488 235.875 108.488 235.89 108.488 235.89C108.517 235.897 108.621 225.284 112.978 222.523C114.744 221.402 116.518 221.187 117.401 221.164C117.06 221.097 116.837 220.986 116.748 220.719Z" fill="#FF8186"/>
<path d="M92.9449 246.502C86.1538 246.502 77.4329 246.353 75.2211 245.93C75.0207 245.893 74.3379 245.708 73.8629 244.884C73.3508 244.008 71.4062 238.397 72.6605 236.304C73.9742 234.122 77.047 233.513 78.7689 233.342C81.2181 233.105 86.6511 232.957 92.9449 232.957C99.2388 232.957 104.672 233.105 107.121 233.342C108.835 233.513 111.908 234.122 113.222 236.304C114.484 238.397 112.539 244.008 112.027 244.884C111.552 245.708 110.862 245.893 110.661 245.93C108.457 246.353 99.7361 246.502 92.9449 246.502Z" fill="#FF7176"/>
<path d="M112.661 236.646C111.511 234.724 108.683 234.16 107.058 233.996C101.803 233.484 84.0864 233.484 78.8316 233.996C77.2136 234.16 74.3858 234.724 73.228 236.646C72.174 238.405 73.9256 243.69 74.4303 244.558C74.7569 245.107 75.18 245.256 75.3507 245.285C79.2621 246.027 106.634 246.027 110.546 245.285C110.717 245.256 111.14 245.107 111.459 244.558C111.964 243.69 113.723 238.405 112.661 236.646Z" fill="#FF8186"/>
<path d="M90.0232 202.052C89.3404 200.508 90.0974 199.291 89.0138 198.051C88.0192 196.916 87.1806 196.634 86.8391 195.557C86.5348 194.615 87.2622 193.813 86.8169 192.143C86.4755 190.867 85.2583 189.931 85.3102 188.454C85.4735 184.194 87.1434 181.597 90.283 180.327C91.8267 179.696 92.131 180.357 92.7545 180.261C93.2444 180.186 93.2295 180.12 93.8381 180.038C94.5729 179.934 96.5249 180.691 98.1429 183.905C98.8777 185.359 99.6125 184.38 100.755 185.256C101.965 186.191 101.431 188.224 103.16 187.757C105.29 187.185 106.559 188.551 106.871 189.39C107.821 191.906 108.578 191.587 109.602 192.091C111.911 193.227 112.111 196.233 112.067 197.287C111.77 204.271 102.24 211.196 92.5986 204.62C92.0865 204.278 90.7357 203.67 90.0232 202.052Z" fill="#282444"/>
<path d="M105.839 224.556C107.123 223.903 107.858 223.725 109.32 223.094C110.581 222.552 112.259 222.174 113.892 222.345C116.586 222.641 117.617 224.564 117.907 225.402C118.36 226.731 117.922 228.312 117.699 228.757C116.808 230.583 115.057 231.808 112.875 232.899C104.132 237.278 105.638 236.58 102.974 237.523C100.168 238.517 96.4573 238.688 94.2604 236.81C93.7928 236.409 89.8814 231.793 91.9521 229.366C94.4385 226.442 100.628 227.199 105.839 224.556Z" fill="#282444"/>
<path d="M83.9269 198.289C85.0031 198.623 85.3074 199.796 85.4336 200.419C85.8195 202.356 85.248 204.13 84.6468 205.845C83.3702 209.496 82.4276 211.782 80.4163 214.707C79.1397 216.562 76.7127 219.19 75.4138 218.618C74.4118 218.173 74.4564 216.369 74.6493 214.929C74.8794 213.178 75.8369 211.359 77.7443 207.804C78.6424 206.119 78.7612 205.771 79.1768 204.702C79.9709 202.653 79.8819 202.074 80.6241 200.753C81.3366 199.492 82.8062 197.94 83.9269 198.289Z" fill="#4AB6CD"/>
<path d="M100.646 198.289C99.5698 198.623 99.2655 199.796 99.1393 200.419C98.7534 202.356 99.3249 204.13 99.9261 205.845C101.203 209.496 102.145 211.782 104.157 214.707C105.433 216.562 107.86 219.19 109.159 218.618C110.161 218.173 110.117 216.369 109.924 214.929C109.693 213.178 108.736 211.359 106.836 207.804C105.93 206.119 105.812 205.771 105.396 204.702C104.602 202.653 104.691 202.074 103.949 200.753C103.236 199.492 101.767 197.94 100.646 198.289Z" fill="#4AB6CD"/>
<path d="M105.617 227.524C105.038 226.64 103.687 226.477 103.078 225.193C101.883 222.655 100.919 221.95 100.74 221.408C100.362 220.243 99.5604 218.268 98.2986 217.281C96.6064 215.953 94.313 216.235 92.4575 217.482C90.602 216.235 88.316 215.953 86.6164 217.281C85.3546 218.268 84.5605 220.243 84.1819 221.408C84.0038 221.95 83.0389 222.655 81.844 225.193C81.2354 226.477 79.8772 226.64 79.2982 227.524C78.89 228.147 78.8603 228.934 78.9494 229.312C79.4986 231.502 87.8484 234.293 92.4575 230.878C97.074 234.293 105.424 231.502 105.966 229.312C106.062 228.934 106.025 228.147 105.617 227.524Z" fill="#282444"/>
<path d="M79.4038 224.651C78.1198 223.998 77.3924 223.82 75.9303 223.189C74.6685 222.647 72.9837 222.269 71.3583 222.439C68.6567 222.736 67.6324 224.659 67.343 225.497C66.8828 226.826 67.3207 228.407 67.5434 228.852C68.4414 230.678 70.193 231.902 72.3677 232.993C81.1108 237.372 79.6042 236.675 82.2687 237.617C85.0742 238.612 88.7926 238.783 90.9896 236.905C91.4571 236.504 95.3685 231.888 93.2978 229.461C90.804 226.536 84.6215 227.293 79.4038 224.651Z" fill="#282444"/>
<path d="M93.8097 233.988C92.2807 233.61 79.1066 225.735 75.9449 223.842C75.5144 223.59 74.0745 222.84 72.2338 222.855C69.9404 222.863 68.9014 223.961 68.2408 224.822C67.2462 226.106 67.6767 227.954 67.7435 228.192C68.5451 231.101 72.8721 232.303 78.1344 233.662C85.3857 235.525 95.0566 238.352 98.1293 238.352C103.058 238.36 103.191 238.827 106.383 238.248C107.511 238.041 108.646 237.491 109.04 236.423C109.403 235.428 109.003 234.129 108.156 233.491C106.034 231.91 101.677 233.803 99.866 234.226C97.966 234.664 96.3777 234.627 93.8097 233.988Z" fill="#512618"/>
<path d="M100.162 215.396C102.248 208.494 103.577 205.043 103.376 200.857C103.28 198.823 101.298 198.058 100.066 197.932C95.3233 197.465 95.0635 195.817 92.5548 195.884C92.54 195.884 92.5029 195.884 92.4584 195.884C92.4138 195.884 92.3767 195.884 92.3619 195.884C89.8607 195.817 89.304 197.465 84.5613 197.932C83.3293 198.058 81.3476 198.823 81.2511 200.857C81.0507 205.043 82.6761 208.494 84.7617 215.396C85.6895 218.476 84.1976 221.007 83.6707 222.314C83.3886 223.019 87.9903 224.711 92.3025 224.837H92.6216C96.9338 224.711 101.535 223.019 101.253 222.314C100.726 221.007 99.2347 218.476 100.162 215.396Z" fill="#4AB6CD"/>
<path d="M88.4296 225.594C82.054 223.197 82.2099 217.333 79.7829 215.359C77.6379 213.615 75.0551 214.587 74.6394 216.606C74.2164 218.239 76.9848 223.419 83.8873 226.685C86.5741 227.954 88.5409 228.147 89.5058 227.902C90.1144 227.754 88.6448 225.668 88.4296 225.594Z" fill="#7F4730"/>
<path d="M96.1388 225.594C102.514 223.197 102.358 217.333 104.785 215.359C106.938 213.615 109.513 214.587 109.936 216.606C110.359 218.239 107.584 223.419 100.681 226.685C97.9943 227.954 96.0349 228.147 95.0626 227.902C94.454 227.754 95.9236 225.668 96.1388 225.594Z" fill="#7F4730"/>
<path d="M103.574 233.143C105.244 232.764 107.003 232.623 108.131 233.462C108.985 234.1 109.386 235.391 109.022 236.393C108.629 237.462 107.493 238.011 106.357 238.212C105.563 238.36 104.962 238.442 104.42 238.479C104.561 238.397 105.14 237.974 105.497 237.099C105.519 237.047 105.92 235.844 105.415 234.865C104.932 233.922 104.094 233.506 103.574 233.143Z" fill="#574B9E"/>
<path d="M91.4424 233.892C93.9659 233.179 106.153 225.638 109.307 223.753C109.738 223.493 111.185 222.744 113.018 222.759C115.312 222.766 116.351 223.864 117.011 224.725C118.006 226.009 117.575 227.857 117.509 228.095C116.707 231.004 112.38 232.207 107.118 233.565C99.8664 235.428 90.2029 238.256 87.1228 238.263C82.202 238.263 82.0684 238.731 78.8695 238.152C77.7414 237.944 76.6058 237.395 76.2124 236.326C75.8487 235.331 76.2495 234.033 77.1031 233.394C79.2183 231.813 83.5751 233.706 85.3935 234.129C87.2861 234.567 88.9041 234.611 91.4424 233.892Z" fill="#7F4730"/>
<path d="M81.6524 233.068C79.9824 232.689 78.2234 232.548 77.0952 233.394C76.2417 234.025 75.8409 235.324 76.2046 236.319C76.598 237.387 77.7335 237.937 78.8691 238.144C79.6633 238.285 80.2645 238.367 80.8063 238.404C80.6652 238.322 80.0863 237.899 79.7301 237.031C79.7078 236.972 79.307 235.777 79.8117 234.797C80.2941 233.847 81.1328 233.431 81.6524 233.068Z" fill="#574B9E"/>
<path d="M102.466 227.999H82.1299C81.8478 227.999 81.6252 227.776 81.6103 227.494L81.0314 213.86C81.024 213.571 81.2689 213.326 81.5658 213.326H103.03C103.327 213.326 103.572 213.571 103.557 213.86L102.978 227.494C102.971 227.776 102.748 227.999 102.466 227.999Z" fill="white"/>
<path d="M102.598 228.459H81.994C81.712 228.459 81.4893 228.244 81.4819 227.955L80.903 214.321C80.8881 214.031 81.1331 213.786 81.4299 213.786H103.162C103.459 213.786 103.703 214.031 103.689 214.321L103.11 227.955C103.095 228.244 102.872 228.459 102.598 228.459Z" fill="#F6E3D3"/>
<path d="M95.035 197.073C94.6194 192.738 94.5526 189.413 93.4467 189.903C93.0608 190.074 92.6971 190.281 92.3557 190.563C92.0143 190.281 91.658 190.074 91.2721 189.903C90.1662 189.413 90.092 192.738 89.6763 197.073C89.617 197.733 90.6115 200.591 92.3557 200.591C93.9292 200.591 95.1018 197.733 95.035 197.073Z" fill="#7F4730"/>
<path d="M89.9298 194.229C89.915 194.415 91.2509 196.151 92.3494 196.151C93.6111 196.151 94.8061 194.415 94.7912 194.236C94.3088 194.697 93.3736 195.483 92.3494 195.483C91.4365 195.483 90.4197 194.697 89.9298 194.229Z" fill="#512618"/>
<path d="M95.3037 185.048C95.3556 185.842 95.3334 186.503 95.2814 186.851C95.2443 187.074 95.1181 187.2 94.8212 187.223C94.8212 187.223 94.0865 187.364 92.4759 187.341C92.4388 187.341 92.2829 187.341 92.2384 187.341C90.6278 187.364 89.9004 187.223 89.9004 187.223C89.6036 187.2 89.47 187.074 89.4403 186.851C89.3809 186.503 89.3661 185.842 89.418 185.048C88.9207 186.324 88.2602 187.616 87.5625 187.831C87.5699 187.957 87.5922 188.083 87.607 188.217C87.8223 189.865 88.0301 192.344 89.7743 194.132C90.1825 194.548 91.3255 195.528 92.3497 195.528C93.5001 195.528 94.5318 194.548 94.94 194.132C96.6842 192.344 96.8994 189.865 97.1146 188.217C97.1295 188.083 97.1443 187.957 97.1592 187.831C96.4541 187.616 95.7935 186.324 95.3037 185.048Z" fill="#7F4730"/>
<path d="M239.254 264.645C240.103 264.645 241.229 263.124 241.513 261.497C241.794 259.871 241.64 258.398 242.154 257.495C242.667 256.59 243.486 254.164 243.256 253.545C243.024 252.923 240.692 249.902 240.692 249.902L236.646 254.147C236.646 254.147 237.484 255.558 237.638 256.925C237.792 258.295 237.819 260.308 237.895 261.6C237.973 262.892 238.408 264.645 239.254 264.645Z" fill="#A75F84"/>
<path d="M229.09 264.644C229.822 264.644 235.213 264.644 235.213 264.644C235.213 264.644 235.194 262.585 234.74 261.639C234.286 260.691 234.3 258.991 234.3 258.991L229.83 259.053C229.83 259.053 229.973 260.723 229.698 261.507C229.422 262.293 229.09 263.725 229.09 264.644Z" fill="#A75F84"/>
<path d="M238.727 228.684C239.7 224.815 240.937 220.813 240.67 217.654C240.405 214.498 240.216 207.088 240.216 207.088C240.216 207.088 231.299 210.218 222.314 207.107C222.314 207.107 222.144 222.864 222.314 228.076C222.484 233.292 221.679 232.567 224.178 236.612C226.678 240.655 229.985 244.56 229.985 244.56V246.519L229.54 258.924C229.54 258.924 230.688 259.546 232.101 259.459C233.515 259.37 234.706 258.835 234.706 258.835L235.055 253.712L235.19 251.953L236.255 254.212C236.255 254.212 238.197 253.988 238.949 253.055C239.7 252.12 240.981 250.875 240.891 249.542C239.786 247.319 237.292 243.033 237.292 243.033V241.252C237.292 241.252 237.754 232.551 238.727 228.684Z" fill="#4AB6CD"/>
<path d="M223.506 179.505C220.942 181.756 218.377 188.263 217.666 192.978C216.959 197.694 216.08 203.352 216.667 206.322C217.666 206.816 219.898 206.322 219.898 206.322C219.898 206.322 220.942 201.596 221.323 198.518C221.706 195.44 222.252 192.978 222.252 192.978C222.252 192.978 222.252 197.75 222.306 200.661C222.36 203.574 222.306 207.089 222.306 207.089C222.306 207.089 226.303 209.672 230.745 209.4C235.185 209.124 240.208 207.089 240.208 207.089V199.042C240.208 199.042 245.229 191.541 245.721 189.287C246.21 187.033 247.004 183.629 245.134 181.87C243.264 180.11 239.873 178.43 239.873 178.43C239.873 178.43 236.212 183.023 234.253 182.969C232.293 182.915 232.393 176.917 232.393 176.917C232.393 176.917 226.07 177.252 223.506 179.505Z" fill="#E9E9E9"/>
<path d="M234.645 200.901C235.877 201.412 236.904 201.582 237.731 201.582C239.382 201.582 240.22 200.901 240.22 200.901V199.053C240.22 199.053 240.136 199.407 238.604 199.842C238.263 199.939 237.928 199.985 237.588 199.985C236.396 199.985 235.131 199.404 233.269 198.299C230.875 196.875 225.963 193.17 225.963 193.17C225.963 193.17 225.938 193.154 222.793 191.5C222.458 192.213 224.479 193.718 225.071 194.113C225.657 194.508 230.956 199.369 234.645 200.901Z" fill="#E2E2E2"/>
<path d="M235.049 192.98C236.952 192.98 237.271 192.818 238.143 190.424C239.016 188.027 239.451 187.708 238.778 187.549C238.757 187.543 238.738 187.543 238.719 187.543C238.057 187.543 237.257 190.127 236.833 190.862C236.471 191.494 236.163 191.821 235.452 191.821C235.309 191.821 235.149 191.808 234.968 191.78C233.898 191.621 229.14 189.465 228.148 189.265C227.156 189.067 225.916 188.835 225.916 188.835C225.916 188.835 226.451 189.665 227.586 190.208C227.586 190.208 233.147 192.98 235.049 192.98Z" fill="#E2E2E2"/>
<path d="M233.855 164.553C233.855 164.553 232.066 168.036 231.634 169.952C231.202 171.868 230.856 173 230.972 174.306C231.085 175.613 231.41 176.397 232.401 176.919C232.039 178.024 231.231 181.215 233.855 183.828C236.306 182.812 238.468 181.188 239.881 178.429C239.795 176.367 240.227 169.139 240.227 169.139C240.227 169.139 238.438 163.597 233.855 164.553Z" fill="#BE7151"/>
<path d="M237.455 173.243C236.445 173.289 236.847 175.962 238.806 175.94C240.763 175.916 242.876 172.7 243.438 170.549C244.003 168.398 243.732 165.002 242.157 163.44C240.584 161.875 238.109 161.41 236.107 161.394C234.104 161.378 232.886 161.1 232.035 160.881C232.035 160.881 231.905 164.342 234.167 165.599C236.431 166.858 238.225 167.328 238.225 167.328C238.225 167.328 237.59 169.644 238.042 170.595C238.49 171.546 239.276 171.092 239.368 172.022C239.457 172.949 238.468 173.2 237.455 173.243Z" fill="#442761"/>
<path d="M215.793 185.198C215.19 185.655 217.544 187.506 218.265 188.235C218.99 188.962 219.595 190.208 221.133 190.816C222.67 191.424 225.956 193.245 225.956 193.245L227.585 190.208C227.585 190.208 226.14 189.511 225.597 188.295C225.053 187.081 223.062 184.287 222.489 184.166C221.916 184.044 221.676 184.955 222.127 185.714C222.578 186.473 222.73 186.898 222.73 186.898C222.73 186.898 220.527 186.687 219.625 186.292C218.719 185.898 216.398 184.741 215.793 185.198Z" fill="#BE7151"/>
<path d="M230.754 234.094C230.754 234.094 232.254 235.294 233.794 236.996C235.329 238.699 237.293 243.033 237.293 243.033V241.252C237.293 241.252 237.212 240.904 236.674 239.163C236.137 237.423 231.751 233.435 231.751 233.435C231.751 233.435 231.865 230.765 232.059 228.946C232.251 227.128 232.289 223.918 232.289 221.788C232.289 220.167 231.8 219.332 231.448 219.332C231.335 219.332 231.24 219.416 231.175 219.581C230.905 220.278 231.521 224.653 231.213 227.63C230.905 230.611 230.754 234.094 230.754 234.094Z" fill="#43AAC0"/>
<path d="M235.189 251.953C235.189 251.953 234.321 250.599 233.354 248.784C232.387 246.97 229.984 244.56 229.984 244.56V246.481C229.984 246.481 231.9 248.73 232.587 249.57C233.273 250.41 235.054 253.712 235.054 253.712L235.189 251.953Z" fill="#43AAC0"/>
<path d="M235.305 178.813C236.235 178.438 236.816 177.359 236.445 177.151C236.073 176.943 235.375 177.478 234.305 177.384C233.235 177.289 232.398 176.919 232.398 176.919C231.863 178.329 231.768 180.029 232.362 181.54C232.398 179.981 234.373 179.186 235.305 178.813Z" fill="#AB6243"/>
<path d="M216.672 206.321C216.672 206.321 217.569 209.172 217.218 211.09C216.866 213.011 217.612 214.425 218.247 215.749C218.885 217.073 221.055 218.905 221.23 218.11C221.406 217.316 220.331 215.97 220.09 215.087C219.85 214.203 219.979 212.571 219.979 212.571C219.979 212.571 221.076 215.087 221.384 215.087C221.69 215.087 221.83 214.136 221.638 212.79C221.447 211.447 221.141 210.796 220.452 209.709C219.76 208.626 219.904 206.321 219.904 206.321H216.672Z" fill="#BE7151"/>
</svg>
